G04 #@! TF.GenerationSoftware,KiCad,Pcbnew,8.0.8*
G04 #@! TF.CreationDate,2025-12-16T22:25:05-05:00*
G04 #@! TF.ProjectId,hellen121vag,68656c6c-656e-4313-9231-7661672e6b69,d*
G04 #@! TF.SameCoordinates,Original*
G04 #@! TF.FileFunction,Paste,Top*
G04 #@! TF.FilePolarity,Positive*
%FSLAX46Y46*%
G04 Gerber Fmt 4.6, Leading zero omitted, Abs format (unit mm)*
G04 Created by KiCad (PCBNEW 8.0.8) date 2025-12-16 22:25:05*
%MOMM*%
%LPD*%
G01*
G04 APERTURE LIST*
%ADD10O,0.000001X0.000001*%
G04 APERTURE END LIST*
G04 #@! TO.C,R12*
G36*
G01*
X145049999Y-59125000D02*
X145049999Y-57875000D01*
G75*
G02*
X145149999Y-57775000I100000J0D01*
G01*
X145949999Y-57775000D01*
G75*
G02*
X146049999Y-57875000I0J-100000D01*
G01*
X146049999Y-59125000D01*
G75*
G02*
X145949999Y-59225000I-100000J0D01*
G01*
X145149999Y-59225000D01*
G75*
G02*
X145049999Y-59125000I0J100000D01*
G01*
G37*
G36*
G01*
X146950021Y-59125000D02*
X146950021Y-57875000D01*
G75*
G02*
X147050021Y-57775000I100000J0D01*
G01*
X147850021Y-57775000D01*
G75*
G02*
X147950021Y-57875000I0J-100000D01*
G01*
X147950021Y-59125000D01*
G75*
G02*
X147850021Y-59225000I-100000J0D01*
G01*
X147050021Y-59225000D01*
G75*
G02*
X146950021Y-59125000I0J100000D01*
G01*
G37*
G04 #@! TD*
G04 #@! TO.C,L2*
G36*
G01*
X83743750Y-34775000D02*
X84256250Y-34775000D01*
G75*
G02*
X84475000Y-34993750I0J-218750D01*
G01*
X84475000Y-35431250D01*
G75*
G02*
X84256250Y-35650000I-218750J0D01*
G01*
X83743750Y-35650000D01*
G75*
G02*
X83525000Y-35431250I0J218750D01*
G01*
X83525000Y-34993750D01*
G75*
G02*
X83743750Y-34775000I218750J0D01*
G01*
G37*
G36*
G01*
X83743750Y-36350000D02*
X84256250Y-36350000D01*
G75*
G02*
X84475000Y-36568750I0J-218750D01*
G01*
X84475000Y-37006250D01*
G75*
G02*
X84256250Y-37225000I-218750J0D01*
G01*
X83743750Y-37225000D01*
G75*
G02*
X83525000Y-37006250I0J218750D01*
G01*
X83525000Y-36568750D01*
G75*
G02*
X83743750Y-36350000I218750J0D01*
G01*
G37*
G04 #@! TD*
G04 #@! TO.C,Q1*
G36*
G01*
X127850000Y-46075000D02*
X127150000Y-46075000D01*
G75*
G02*
X126900000Y-45825000I0J250000D01*
G01*
X126900000Y-44125000D01*
G75*
G02*
X127150000Y-43875000I250000J0D01*
G01*
X127850000Y-43875000D01*
G75*
G02*
X128100000Y-44125000I0J-250000D01*
G01*
X128100000Y-45825000D01*
G75*
G02*
X127850000Y-46075000I-250000J0D01*
G01*
G37*
G36*
G01*
X129380000Y-41875000D02*
X127130000Y-41875000D01*
G75*
G02*
X126880000Y-41625000I0J250000D01*
G01*
X126880000Y-39075000D01*
G75*
G02*
X127130000Y-38825000I250000J0D01*
G01*
X129380000Y-38825000D01*
G75*
G02*
X129630000Y-39075000I0J-250000D01*
G01*
X129630000Y-41625000D01*
G75*
G02*
X129380000Y-41875000I-250000J0D01*
G01*
G37*
G36*
G01*
X132430000Y-41875000D02*
X130180000Y-41875000D01*
G75*
G02*
X129930000Y-41625000I0J250000D01*
G01*
X129930000Y-39075000D01*
G75*
G02*
X130180000Y-38825000I250000J0D01*
G01*
X132430000Y-38825000D01*
G75*
G02*
X132680000Y-39075000I0J-250000D01*
G01*
X132680000Y-41625000D01*
G75*
G02*
X132430000Y-41875000I-250000J0D01*
G01*
G37*
G36*
G01*
X129380000Y-38525000D02*
X127130000Y-38525000D01*
G75*
G02*
X126880000Y-38275000I0J250000D01*
G01*
X126880000Y-35725000D01*
G75*
G02*
X127130000Y-35475000I250000J0D01*
G01*
X129380000Y-35475000D01*
G75*
G02*
X129630000Y-35725000I0J-250000D01*
G01*
X129630000Y-38275000D01*
G75*
G02*
X129380000Y-38525000I-250000J0D01*
G01*
G37*
G36*
G01*
X132430000Y-38525000D02*
X130180000Y-38525000D01*
G75*
G02*
X129930000Y-38275000I0J250000D01*
G01*
X129930000Y-35725000D01*
G75*
G02*
X130180000Y-35475000I250000J0D01*
G01*
X132430000Y-35475000D01*
G75*
G02*
X132680000Y-35725000I0J-250000D01*
G01*
X132680000Y-38275000D01*
G75*
G02*
X132430000Y-38525000I-250000J0D01*
G01*
G37*
G36*
G01*
X132410000Y-46075000D02*
X131710000Y-46075000D01*
G75*
G02*
X131460000Y-45825000I0J250000D01*
G01*
X131460000Y-44125000D01*
G75*
G02*
X131710000Y-43875000I250000J0D01*
G01*
X132410000Y-43875000D01*
G75*
G02*
X132660000Y-44125000I0J-250000D01*
G01*
X132660000Y-45825000D01*
G75*
G02*
X132410000Y-46075000I-250000J0D01*
G01*
G37*
G04 #@! TD*
G04 #@! TO.C,Q4*
G36*
G01*
X103265000Y-46075000D02*
X102565000Y-46075000D01*
G75*
G02*
X102315000Y-45825000I0J250000D01*
G01*
X102315000Y-44125000D01*
G75*
G02*
X102565000Y-43875000I250000J0D01*
G01*
X103265000Y-43875000D01*
G75*
G02*
X103515000Y-44125000I0J-250000D01*
G01*
X103515000Y-45825000D01*
G75*
G02*
X103265000Y-46075000I-250000J0D01*
G01*
G37*
G36*
G01*
X104795000Y-41875000D02*
X102545000Y-41875000D01*
G75*
G02*
X102295000Y-41625000I0J250000D01*
G01*
X102295000Y-39075000D01*
G75*
G02*
X102545000Y-38825000I250000J0D01*
G01*
X104795000Y-38825000D01*
G75*
G02*
X105045000Y-39075000I0J-250000D01*
G01*
X105045000Y-41625000D01*
G75*
G02*
X104795000Y-41875000I-250000J0D01*
G01*
G37*
G36*
G01*
X107845000Y-41875000D02*
X105595000Y-41875000D01*
G75*
G02*
X105345000Y-41625000I0J250000D01*
G01*
X105345000Y-39075000D01*
G75*
G02*
X105595000Y-38825000I250000J0D01*
G01*
X107845000Y-38825000D01*
G75*
G02*
X108095000Y-39075000I0J-250000D01*
G01*
X108095000Y-41625000D01*
G75*
G02*
X107845000Y-41875000I-250000J0D01*
G01*
G37*
G36*
G01*
X104795000Y-38525000D02*
X102545000Y-38525000D01*
G75*
G02*
X102295000Y-38275000I0J250000D01*
G01*
X102295000Y-35725000D01*
G75*
G02*
X102545000Y-35475000I250000J0D01*
G01*
X104795000Y-35475000D01*
G75*
G02*
X105045000Y-35725000I0J-250000D01*
G01*
X105045000Y-38275000D01*
G75*
G02*
X104795000Y-38525000I-250000J0D01*
G01*
G37*
G36*
G01*
X107845000Y-38525000D02*
X105595000Y-38525000D01*
G75*
G02*
X105345000Y-38275000I0J250000D01*
G01*
X105345000Y-35725000D01*
G75*
G02*
X105595000Y-35475000I250000J0D01*
G01*
X107845000Y-35475000D01*
G75*
G02*
X108095000Y-35725000I0J-250000D01*
G01*
X108095000Y-38275000D01*
G75*
G02*
X107845000Y-38525000I-250000J0D01*
G01*
G37*
G36*
G01*
X107825000Y-46075000D02*
X107125000Y-46075000D01*
G75*
G02*
X106875000Y-45825000I0J250000D01*
G01*
X106875000Y-44125000D01*
G75*
G02*
X107125000Y-43875000I250000J0D01*
G01*
X107825000Y-43875000D01*
G75*
G02*
X108075000Y-44125000I0J-250000D01*
G01*
X108075000Y-45825000D01*
G75*
G02*
X107825000Y-46075000I-250000J0D01*
G01*
G37*
G04 #@! TD*
G04 #@! TO.C,C28*
G36*
G01*
X82575000Y-39840000D02*
X82575000Y-39160000D01*
G75*
G02*
X82660000Y-39075000I85000J0D01*
G01*
X83340000Y-39075000D01*
G75*
G02*
X83425000Y-39160000I0J-85000D01*
G01*
X83425000Y-39840000D01*
G75*
G02*
X83340000Y-39925000I-85000J0D01*
G01*
X82660000Y-39925000D01*
G75*
G02*
X82575000Y-39840000I0J85000D01*
G01*
G37*
G36*
G01*
X84155002Y-39840000D02*
X84155002Y-39160000D01*
G75*
G02*
X84240002Y-39075000I85000J0D01*
G01*
X84920002Y-39075000D01*
G75*
G02*
X85005002Y-39160000I0J-85000D01*
G01*
X85005002Y-39840000D01*
G75*
G02*
X84920002Y-39925000I-85000J0D01*
G01*
X84240002Y-39925000D01*
G75*
G02*
X84155002Y-39840000I0J85000D01*
G01*
G37*
G04 #@! TD*
G04 #@! TO.C,U7*
G36*
G01*
X92340000Y-54950000D02*
X92040000Y-54950000D01*
G75*
G02*
X91890000Y-54800000I0J150000D01*
G01*
X91890000Y-53150000D01*
G75*
G02*
X92040000Y-53000000I150000J0D01*
G01*
X92340000Y-53000000D01*
G75*
G02*
X92490000Y-53150000I0J-150000D01*
G01*
X92490000Y-54800000D01*
G75*
G02*
X92340000Y-54950000I-150000J0D01*
G01*
G37*
G36*
G01*
X93610000Y-54950000D02*
X93310000Y-54950000D01*
G75*
G02*
X93160000Y-54800000I0J150000D01*
G01*
X93160000Y-53150000D01*
G75*
G02*
X93310000Y-53000000I150000J0D01*
G01*
X93610000Y-53000000D01*
G75*
G02*
X93760000Y-53150000I0J-150000D01*
G01*
X93760000Y-54800000D01*
G75*
G02*
X93610000Y-54950000I-150000J0D01*
G01*
G37*
G36*
G01*
X94880000Y-54950000D02*
X94580000Y-54950000D01*
G75*
G02*
X94430000Y-54800000I0J150000D01*
G01*
X94430000Y-53150000D01*
G75*
G02*
X94580000Y-53000000I150000J0D01*
G01*
X94880000Y-53000000D01*
G75*
G02*
X95030000Y-53150000I0J-150000D01*
G01*
X95030000Y-54800000D01*
G75*
G02*
X94880000Y-54950000I-150000J0D01*
G01*
G37*
G36*
G01*
X96150000Y-54950000D02*
X95850000Y-54950000D01*
G75*
G02*
X95700000Y-54800000I0J150000D01*
G01*
X95700000Y-53150000D01*
G75*
G02*
X95850000Y-53000000I150000J0D01*
G01*
X96150000Y-53000000D01*
G75*
G02*
X96300000Y-53150000I0J-150000D01*
G01*
X96300000Y-54800000D01*
G75*
G02*
X96150000Y-54950000I-150000J0D01*
G01*
G37*
G36*
G01*
X96150000Y-50000000D02*
X95850000Y-50000000D01*
G75*
G02*
X95700000Y-49850000I0J150000D01*
G01*
X95700000Y-48200000D01*
G75*
G02*
X95850000Y-48050000I150000J0D01*
G01*
X96150000Y-48050000D01*
G75*
G02*
X96300000Y-48200000I0J-150000D01*
G01*
X96300000Y-49850000D01*
G75*
G02*
X96150000Y-50000000I-150000J0D01*
G01*
G37*
G36*
G01*
X94880000Y-50000000D02*
X94580000Y-50000000D01*
G75*
G02*
X94430000Y-49850000I0J150000D01*
G01*
X94430000Y-48200000D01*
G75*
G02*
X94580000Y-48050000I150000J0D01*
G01*
X94880000Y-48050000D01*
G75*
G02*
X95030000Y-48200000I0J-150000D01*
G01*
X95030000Y-49850000D01*
G75*
G02*
X94880000Y-50000000I-150000J0D01*
G01*
G37*
G36*
G01*
X93610000Y-50000000D02*
X93310000Y-50000000D01*
G75*
G02*
X93160000Y-49850000I0J150000D01*
G01*
X93160000Y-48200000D01*
G75*
G02*
X93310000Y-48050000I150000J0D01*
G01*
X93610000Y-48050000D01*
G75*
G02*
X93760000Y-48200000I0J-150000D01*
G01*
X93760000Y-49850000D01*
G75*
G02*
X93610000Y-50000000I-150000J0D01*
G01*
G37*
G36*
G01*
X92340000Y-50000000D02*
X92040000Y-50000000D01*
G75*
G02*
X91890000Y-49850000I0J150000D01*
G01*
X91890000Y-48200000D01*
G75*
G02*
X92040000Y-48050000I150000J0D01*
G01*
X92340000Y-48050000D01*
G75*
G02*
X92490000Y-48200000I0J-150000D01*
G01*
X92490000Y-49850000D01*
G75*
G02*
X92340000Y-50000000I-150000J0D01*
G01*
G37*
G04 #@! TD*
G04 #@! TO.C,U10*
G36*
G01*
X187920000Y-30300000D02*
X187520000Y-30300000D01*
G75*
G02*
X187320000Y-30100000I0J200000D01*
G01*
X187320000Y-28300000D01*
G75*
G02*
X187520000Y-28100000I200000J0D01*
G01*
X187920000Y-28100000D01*
G75*
G02*
X188120000Y-28300000I0J-200000D01*
G01*
X188120000Y-30100000D01*
G75*
G02*
X187920000Y-30300000I-200000J0D01*
G01*
G37*
G36*
G01*
X189060000Y-30300000D02*
X188660000Y-30300000D01*
G75*
G02*
X188460000Y-30100000I0J200000D01*
G01*
X188460000Y-28300000D01*
G75*
G02*
X188660000Y-28100000I200000J0D01*
G01*
X189060000Y-28100000D01*
G75*
G02*
X189260000Y-28300000I0J-200000D01*
G01*
X189260000Y-30100000D01*
G75*
G02*
X189060000Y-30300000I-200000J0D01*
G01*
G37*
G36*
G01*
X189600000Y-26100000D02*
X187350000Y-26100000D01*
G75*
G02*
X187100000Y-25850000I0J250000D01*
G01*
X187100000Y-23300000D01*
G75*
G02*
X187350000Y-23050000I250000J0D01*
G01*
X189600000Y-23050000D01*
G75*
G02*
X189850000Y-23300000I0J-250000D01*
G01*
X189850000Y-25850000D01*
G75*
G02*
X189600000Y-26100000I-250000J0D01*
G01*
G37*
G36*
G01*
X192650000Y-26100000D02*
X190400000Y-26100000D01*
G75*
G02*
X190150000Y-25850000I0J250000D01*
G01*
X190150000Y-23300000D01*
G75*
G02*
X190400000Y-23050000I250000J0D01*
G01*
X192650000Y-23050000D01*
G75*
G02*
X192900000Y-23300000I0J-250000D01*
G01*
X192900000Y-25850000D01*
G75*
G02*
X192650000Y-26100000I-250000J0D01*
G01*
G37*
G36*
G01*
X189600000Y-22750000D02*
X187350000Y-22750000D01*
G75*
G02*
X187100000Y-22500000I0J250000D01*
G01*
X187100000Y-19950000D01*
G75*
G02*
X187350000Y-19700000I250000J0D01*
G01*
X189600000Y-19700000D01*
G75*
G02*
X189850000Y-19950000I0J-250000D01*
G01*
X189850000Y-22500000D01*
G75*
G02*
X189600000Y-22750000I-250000J0D01*
G01*
G37*
G36*
G01*
X192650000Y-22750000D02*
X190400000Y-22750000D01*
G75*
G02*
X190150000Y-22500000I0J250000D01*
G01*
X190150000Y-19950000D01*
G75*
G02*
X190400000Y-19700000I250000J0D01*
G01*
X192650000Y-19700000D01*
G75*
G02*
X192900000Y-19950000I0J-250000D01*
G01*
X192900000Y-22500000D01*
G75*
G02*
X192650000Y-22750000I-250000J0D01*
G01*
G37*
G36*
G01*
X191340000Y-30300000D02*
X190940000Y-30300000D01*
G75*
G02*
X190740000Y-30100000I0J200000D01*
G01*
X190740000Y-28300000D01*
G75*
G02*
X190940000Y-28100000I200000J0D01*
G01*
X191340000Y-28100000D01*
G75*
G02*
X191540000Y-28300000I0J-200000D01*
G01*
X191540000Y-30100000D01*
G75*
G02*
X191340000Y-30300000I-200000J0D01*
G01*
G37*
G36*
G01*
X192480000Y-30300000D02*
X192080000Y-30300000D01*
G75*
G02*
X191880000Y-30100000I0J200000D01*
G01*
X191880000Y-28300000D01*
G75*
G02*
X192080000Y-28100000I200000J0D01*
G01*
X192480000Y-28100000D01*
G75*
G02*
X192680000Y-28300000I0J-200000D01*
G01*
X192680000Y-30100000D01*
G75*
G02*
X192480000Y-30300000I-200000J0D01*
G01*
G37*
G04 #@! TD*
G04 #@! TO.C,Q6*
G36*
G01*
X86875000Y-46075000D02*
X86175000Y-46075000D01*
G75*
G02*
X85925000Y-45825000I0J250000D01*
G01*
X85925000Y-44125000D01*
G75*
G02*
X86175000Y-43875000I250000J0D01*
G01*
X86875000Y-43875000D01*
G75*
G02*
X87125000Y-44125000I0J-250000D01*
G01*
X87125000Y-45825000D01*
G75*
G02*
X86875000Y-46075000I-250000J0D01*
G01*
G37*
G36*
G01*
X88405000Y-41875000D02*
X86155000Y-41875000D01*
G75*
G02*
X85905000Y-41625000I0J250000D01*
G01*
X85905000Y-39075000D01*
G75*
G02*
X86155000Y-38825000I250000J0D01*
G01*
X88405000Y-38825000D01*
G75*
G02*
X88655000Y-39075000I0J-250000D01*
G01*
X88655000Y-41625000D01*
G75*
G02*
X88405000Y-41875000I-250000J0D01*
G01*
G37*
G36*
G01*
X91455000Y-41875000D02*
X89205000Y-41875000D01*
G75*
G02*
X88955000Y-41625000I0J250000D01*
G01*
X88955000Y-39075000D01*
G75*
G02*
X89205000Y-38825000I250000J0D01*
G01*
X91455000Y-38825000D01*
G75*
G02*
X91705000Y-39075000I0J-250000D01*
G01*
X91705000Y-41625000D01*
G75*
G02*
X91455000Y-41875000I-250000J0D01*
G01*
G37*
G36*
G01*
X88405000Y-38525000D02*
X86155000Y-38525000D01*
G75*
G02*
X85905000Y-38275000I0J250000D01*
G01*
X85905000Y-35725000D01*
G75*
G02*
X86155000Y-35475000I250000J0D01*
G01*
X88405000Y-35475000D01*
G75*
G02*
X88655000Y-35725000I0J-250000D01*
G01*
X88655000Y-38275000D01*
G75*
G02*
X88405000Y-38525000I-250000J0D01*
G01*
G37*
G36*
G01*
X91455000Y-38525000D02*
X89205000Y-38525000D01*
G75*
G02*
X88955000Y-38275000I0J250000D01*
G01*
X88955000Y-35725000D01*
G75*
G02*
X89205000Y-35475000I250000J0D01*
G01*
X91455000Y-35475000D01*
G75*
G02*
X91705000Y-35725000I0J-250000D01*
G01*
X91705000Y-38275000D01*
G75*
G02*
X91455000Y-38525000I-250000J0D01*
G01*
G37*
G36*
G01*
X91435000Y-46075000D02*
X90735000Y-46075000D01*
G75*
G02*
X90485000Y-45825000I0J250000D01*
G01*
X90485000Y-44125000D01*
G75*
G02*
X90735000Y-43875000I250000J0D01*
G01*
X91435000Y-43875000D01*
G75*
G02*
X91685000Y-44125000I0J-250000D01*
G01*
X91685000Y-45825000D01*
G75*
G02*
X91435000Y-46075000I-250000J0D01*
G01*
G37*
G04 #@! TD*
G04 #@! TO.C,C29*
G36*
G01*
X82715001Y-46660000D02*
X82715001Y-47340000D01*
G75*
G02*
X82630001Y-47425000I-85000J0D01*
G01*
X81950001Y-47425000D01*
G75*
G02*
X81865001Y-47340000I0J85000D01*
G01*
X81865001Y-46660000D01*
G75*
G02*
X81950001Y-46575000I85000J0D01*
G01*
X82630001Y-46575000D01*
G75*
G02*
X82715001Y-46660000I0J-85000D01*
G01*
G37*
G36*
G01*
X81134999Y-46660000D02*
X81134999Y-47340000D01*
G75*
G02*
X81049999Y-47425000I-85000J0D01*
G01*
X80369999Y-47425000D01*
G75*
G02*
X80284999Y-47340000I0J85000D01*
G01*
X80284999Y-46660000D01*
G75*
G02*
X80369999Y-46575000I85000J0D01*
G01*
X81049999Y-46575000D01*
G75*
G02*
X81134999Y-46660000I0J-85000D01*
G01*
G37*
G04 #@! TD*
G04 #@! TO.C,C31*
G36*
G01*
X80840000Y-52215001D02*
X80160000Y-52215001D01*
G75*
G02*
X80075000Y-52130001I0J85000D01*
G01*
X80075000Y-51450001D01*
G75*
G02*
X80160000Y-51365001I85000J0D01*
G01*
X80840000Y-51365001D01*
G75*
G02*
X80925000Y-51450001I0J-85000D01*
G01*
X80925000Y-52130001D01*
G75*
G02*
X80840000Y-52215001I-85000J0D01*
G01*
G37*
G36*
G01*
X80840000Y-50634999D02*
X80160000Y-50634999D01*
G75*
G02*
X80075000Y-50549999I0J85000D01*
G01*
X80075000Y-49869999D01*
G75*
G02*
X80160000Y-49784999I85000J0D01*
G01*
X80840000Y-49784999D01*
G75*
G02*
X80925000Y-49869999I0J-85000D01*
G01*
X80925000Y-50549999D01*
G75*
G02*
X80840000Y-50634999I-85000J0D01*
G01*
G37*
G04 #@! TD*
G04 #@! TO.C,R8*
G36*
G01*
X148549999Y-56125000D02*
X148549999Y-54875000D01*
G75*
G02*
X148649999Y-54775000I100000J0D01*
G01*
X149449999Y-54775000D01*
G75*
G02*
X149549999Y-54875000I0J-100000D01*
G01*
X149549999Y-56125000D01*
G75*
G02*
X149449999Y-56225000I-100000J0D01*
G01*
X148649999Y-56225000D01*
G75*
G02*
X148549999Y-56125000I0J100000D01*
G01*
G37*
G36*
G01*
X150450021Y-56125000D02*
X150450021Y-54875000D01*
G75*
G02*
X150550021Y-54775000I100000J0D01*
G01*
X151350021Y-54775000D01*
G75*
G02*
X151450021Y-54875000I0J-100000D01*
G01*
X151450021Y-56125000D01*
G75*
G02*
X151350021Y-56225000I-100000J0D01*
G01*
X150550021Y-56225000D01*
G75*
G02*
X150450021Y-56125000I0J100000D01*
G01*
G37*
G04 #@! TD*
G04 #@! TO.C,R10*
G36*
G01*
X145049999Y-53125000D02*
X145049999Y-51875000D01*
G75*
G02*
X145149999Y-51775000I100000J0D01*
G01*
X145949999Y-51775000D01*
G75*
G02*
X146049999Y-51875000I0J-100000D01*
G01*
X146049999Y-53125000D01*
G75*
G02*
X145949999Y-53225000I-100000J0D01*
G01*
X145149999Y-53225000D01*
G75*
G02*
X145049999Y-53125000I0J100000D01*
G01*
G37*
G36*
G01*
X146950021Y-53125000D02*
X146950021Y-51875000D01*
G75*
G02*
X147050021Y-51775000I100000J0D01*
G01*
X147850021Y-51775000D01*
G75*
G02*
X147950021Y-51875000I0J-100000D01*
G01*
X147950021Y-53125000D01*
G75*
G02*
X147850021Y-53225000I-100000J0D01*
G01*
X147050021Y-53225000D01*
G75*
G02*
X146950021Y-53125000I0J100000D01*
G01*
G37*
G04 #@! TD*
G04 #@! TO.C,U5*
G36*
G01*
X106245000Y-54950000D02*
X105945000Y-54950000D01*
G75*
G02*
X105795000Y-54800000I0J150000D01*
G01*
X105795000Y-53150000D01*
G75*
G02*
X105945000Y-53000000I150000J0D01*
G01*
X106245000Y-53000000D01*
G75*
G02*
X106395000Y-53150000I0J-150000D01*
G01*
X106395000Y-54800000D01*
G75*
G02*
X106245000Y-54950000I-150000J0D01*
G01*
G37*
G36*
G01*
X107515000Y-54950000D02*
X107215000Y-54950000D01*
G75*
G02*
X107065000Y-54800000I0J150000D01*
G01*
X107065000Y-53150000D01*
G75*
G02*
X107215000Y-53000000I150000J0D01*
G01*
X107515000Y-53000000D01*
G75*
G02*
X107665000Y-53150000I0J-150000D01*
G01*
X107665000Y-54800000D01*
G75*
G02*
X107515000Y-54950000I-150000J0D01*
G01*
G37*
G36*
G01*
X108785000Y-54950000D02*
X108485000Y-54950000D01*
G75*
G02*
X108335000Y-54800000I0J150000D01*
G01*
X108335000Y-53150000D01*
G75*
G02*
X108485000Y-53000000I150000J0D01*
G01*
X108785000Y-53000000D01*
G75*
G02*
X108935000Y-53150000I0J-150000D01*
G01*
X108935000Y-54800000D01*
G75*
G02*
X108785000Y-54950000I-150000J0D01*
G01*
G37*
G36*
G01*
X110055000Y-54950000D02*
X109755000Y-54950000D01*
G75*
G02*
X109605000Y-54800000I0J150000D01*
G01*
X109605000Y-53150000D01*
G75*
G02*
X109755000Y-53000000I150000J0D01*
G01*
X110055000Y-53000000D01*
G75*
G02*
X110205000Y-53150000I0J-150000D01*
G01*
X110205000Y-54800000D01*
G75*
G02*
X110055000Y-54950000I-150000J0D01*
G01*
G37*
G36*
G01*
X110055000Y-50000000D02*
X109755000Y-50000000D01*
G75*
G02*
X109605000Y-49850000I0J150000D01*
G01*
X109605000Y-48200000D01*
G75*
G02*
X109755000Y-48050000I150000J0D01*
G01*
X110055000Y-48050000D01*
G75*
G02*
X110205000Y-48200000I0J-150000D01*
G01*
X110205000Y-49850000D01*
G75*
G02*
X110055000Y-50000000I-150000J0D01*
G01*
G37*
G36*
G01*
X108785000Y-50000000D02*
X108485000Y-50000000D01*
G75*
G02*
X108335000Y-49850000I0J150000D01*
G01*
X108335000Y-48200000D01*
G75*
G02*
X108485000Y-48050000I150000J0D01*
G01*
X108785000Y-48050000D01*
G75*
G02*
X108935000Y-48200000I0J-150000D01*
G01*
X108935000Y-49850000D01*
G75*
G02*
X108785000Y-50000000I-150000J0D01*
G01*
G37*
G36*
G01*
X107515000Y-50000000D02*
X107215000Y-50000000D01*
G75*
G02*
X107065000Y-49850000I0J150000D01*
G01*
X107065000Y-48200000D01*
G75*
G02*
X107215000Y-48050000I150000J0D01*
G01*
X107515000Y-48050000D01*
G75*
G02*
X107665000Y-48200000I0J-150000D01*
G01*
X107665000Y-49850000D01*
G75*
G02*
X107515000Y-50000000I-150000J0D01*
G01*
G37*
G36*
G01*
X106245000Y-50000000D02*
X105945000Y-50000000D01*
G75*
G02*
X105795000Y-49850000I0J150000D01*
G01*
X105795000Y-48200000D01*
G75*
G02*
X105945000Y-48050000I150000J0D01*
G01*
X106245000Y-48050000D01*
G75*
G02*
X106395000Y-48200000I0J-150000D01*
G01*
X106395000Y-49850000D01*
G75*
G02*
X106245000Y-50000000I-150000J0D01*
G01*
G37*
G04 #@! TD*
G04 #@! TO.C,F2*
G36*
G01*
X78100000Y-36394990D02*
X78100000Y-35704990D01*
G75*
G02*
X78330000Y-35474990I230000J0D01*
G01*
X79670000Y-35474990D01*
G75*
G02*
X79900000Y-35704990I0J-230000D01*
G01*
X79900000Y-36394990D01*
G75*
G02*
X79670000Y-36624990I-230000J0D01*
G01*
X78330000Y-36624990D01*
G75*
G02*
X78100000Y-36394990I0J230000D01*
G01*
G37*
G36*
G01*
X78100000Y-39295010D02*
X78100000Y-38605010D01*
G75*
G02*
X78330000Y-38375010I230000J0D01*
G01*
X79670000Y-38375010D01*
G75*
G02*
X79900000Y-38605010I0J-230000D01*
G01*
X79900000Y-39295010D01*
G75*
G02*
X79670000Y-39525010I-230000J0D01*
G01*
X78330000Y-39525010D01*
G75*
G02*
X78100000Y-39295010I0J230000D01*
G01*
G37*
G04 #@! TD*
G04 #@! TO.C,Q3*
G36*
G01*
X111460000Y-46075000D02*
X110760000Y-46075000D01*
G75*
G02*
X110510000Y-45825000I0J250000D01*
G01*
X110510000Y-44125000D01*
G75*
G02*
X110760000Y-43875000I250000J0D01*
G01*
X111460000Y-43875000D01*
G75*
G02*
X111710000Y-44125000I0J-250000D01*
G01*
X111710000Y-45825000D01*
G75*
G02*
X111460000Y-46075000I-250000J0D01*
G01*
G37*
G36*
G01*
X112990000Y-41875000D02*
X110740000Y-41875000D01*
G75*
G02*
X110490000Y-41625000I0J250000D01*
G01*
X110490000Y-39075000D01*
G75*
G02*
X110740000Y-38825000I250000J0D01*
G01*
X112990000Y-38825000D01*
G75*
G02*
X113240000Y-39075000I0J-250000D01*
G01*
X113240000Y-41625000D01*
G75*
G02*
X112990000Y-41875000I-250000J0D01*
G01*
G37*
G36*
G01*
X116040000Y-41875000D02*
X113790000Y-41875000D01*
G75*
G02*
X113540000Y-41625000I0J250000D01*
G01*
X113540000Y-39075000D01*
G75*
G02*
X113790000Y-38825000I250000J0D01*
G01*
X116040000Y-38825000D01*
G75*
G02*
X116290000Y-39075000I0J-250000D01*
G01*
X116290000Y-41625000D01*
G75*
G02*
X116040000Y-41875000I-250000J0D01*
G01*
G37*
G36*
G01*
X112990000Y-38525000D02*
X110740000Y-38525000D01*
G75*
G02*
X110490000Y-38275000I0J250000D01*
G01*
X110490000Y-35725000D01*
G75*
G02*
X110740000Y-35475000I250000J0D01*
G01*
X112990000Y-35475000D01*
G75*
G02*
X113240000Y-35725000I0J-250000D01*
G01*
X113240000Y-38275000D01*
G75*
G02*
X112990000Y-38525000I-250000J0D01*
G01*
G37*
G36*
G01*
X116040000Y-38525000D02*
X113790000Y-38525000D01*
G75*
G02*
X113540000Y-38275000I0J250000D01*
G01*
X113540000Y-35725000D01*
G75*
G02*
X113790000Y-35475000I250000J0D01*
G01*
X116040000Y-35475000D01*
G75*
G02*
X116290000Y-35725000I0J-250000D01*
G01*
X116290000Y-38275000D01*
G75*
G02*
X116040000Y-38525000I-250000J0D01*
G01*
G37*
G36*
G01*
X116020000Y-46075000D02*
X115320000Y-46075000D01*
G75*
G02*
X115070000Y-45825000I0J250000D01*
G01*
X115070000Y-44125000D01*
G75*
G02*
X115320000Y-43875000I250000J0D01*
G01*
X116020000Y-43875000D01*
G75*
G02*
X116270000Y-44125000I0J-250000D01*
G01*
X116270000Y-45825000D01*
G75*
G02*
X116020000Y-46075000I-250000J0D01*
G01*
G37*
G04 #@! TD*
G04 #@! TO.C,R4*
G36*
G01*
X97875000Y-83500000D02*
X99125000Y-83500000D01*
G75*
G02*
X99225000Y-83600000I0J-100000D01*
G01*
X99225000Y-84400000D01*
G75*
G02*
X99125000Y-84500000I-100000J0D01*
G01*
X97875000Y-84500000D01*
G75*
G02*
X97775000Y-84400000I0J100000D01*
G01*
X97775000Y-83600000D01*
G75*
G02*
X97875000Y-83500000I100000J0D01*
G01*
G37*
G36*
G01*
X97875000Y-85400022D02*
X99125000Y-85400022D01*
G75*
G02*
X99225000Y-85500022I0J-100000D01*
G01*
X99225000Y-86300022D01*
G75*
G02*
X99125000Y-86400022I-100000J0D01*
G01*
X97875000Y-86400022D01*
G75*
G02*
X97775000Y-86300022I0J100000D01*
G01*
X97775000Y-85500022D01*
G75*
G02*
X97875000Y-85400022I100000J0D01*
G01*
G37*
G04 #@! TD*
G04 #@! TO.C,R9*
G36*
G01*
X148549999Y-59125000D02*
X148549999Y-57875000D01*
G75*
G02*
X148649999Y-57775000I100000J0D01*
G01*
X149449999Y-57775000D01*
G75*
G02*
X149549999Y-57875000I0J-100000D01*
G01*
X149549999Y-59125000D01*
G75*
G02*
X149449999Y-59225000I-100000J0D01*
G01*
X148649999Y-59225000D01*
G75*
G02*
X148549999Y-59125000I0J100000D01*
G01*
G37*
G36*
G01*
X150450021Y-59125000D02*
X150450021Y-57875000D01*
G75*
G02*
X150550021Y-57775000I100000J0D01*
G01*
X151350021Y-57775000D01*
G75*
G02*
X151450021Y-57875000I0J-100000D01*
G01*
X151450021Y-59125000D01*
G75*
G02*
X151350021Y-59225000I-100000J0D01*
G01*
X150550021Y-59225000D01*
G75*
G02*
X150450021Y-59125000I0J100000D01*
G01*
G37*
G04 #@! TD*
G04 #@! TO.C,F3*
G36*
G01*
X162605010Y-58100000D02*
X163295010Y-58100000D01*
G75*
G02*
X163525010Y-58330000I0J-230000D01*
G01*
X163525010Y-59670000D01*
G75*
G02*
X163295010Y-59900000I-230000J0D01*
G01*
X162605010Y-59900000D01*
G75*
G02*
X162375010Y-59670000I0J230000D01*
G01*
X162375010Y-58330000D01*
G75*
G02*
X162605010Y-58100000I230000J0D01*
G01*
G37*
G36*
G01*
X159704990Y-58100000D02*
X160394990Y-58100000D01*
G75*
G02*
X160624990Y-58330000I0J-230000D01*
G01*
X160624990Y-59670000D01*
G75*
G02*
X160394990Y-59900000I-230000J0D01*
G01*
X159704990Y-59900000D01*
G75*
G02*
X159474990Y-59670000I0J230000D01*
G01*
X159474990Y-58330000D01*
G75*
G02*
X159704990Y-58100000I230000J0D01*
G01*
G37*
G04 #@! TD*
G04 #@! TO.C,F1*
G36*
G01*
X75600000Y-36394990D02*
X75600000Y-35704990D01*
G75*
G02*
X75830000Y-35474990I230000J0D01*
G01*
X77170000Y-35474990D01*
G75*
G02*
X77400000Y-35704990I0J-230000D01*
G01*
X77400000Y-36394990D01*
G75*
G02*
X77170000Y-36624990I-230000J0D01*
G01*
X75830000Y-36624990D01*
G75*
G02*
X75600000Y-36394990I0J230000D01*
G01*
G37*
G36*
G01*
X75600000Y-39295010D02*
X75600000Y-38605010D01*
G75*
G02*
X75830000Y-38375010I230000J0D01*
G01*
X77170000Y-38375010D01*
G75*
G02*
X77400000Y-38605010I0J-230000D01*
G01*
X77400000Y-39295010D01*
G75*
G02*
X77170000Y-39525010I-230000J0D01*
G01*
X75830000Y-39525010D01*
G75*
G02*
X75600000Y-39295010I0J230000D01*
G01*
G37*
G04 #@! TD*
G04 #@! TO.C,Q7*
G36*
G01*
X188200000Y-35175000D02*
X187900000Y-35175000D01*
G75*
G02*
X187750000Y-35025000I0J150000D01*
G01*
X187750000Y-33850000D01*
G75*
G02*
X187900000Y-33700000I150000J0D01*
G01*
X188200000Y-33700000D01*
G75*
G02*
X188350000Y-33850000I0J-150000D01*
G01*
X188350000Y-35025000D01*
G75*
G02*
X188200000Y-35175000I-150000J0D01*
G01*
G37*
G36*
G01*
X190100000Y-35175000D02*
X189800000Y-35175000D01*
G75*
G02*
X189650000Y-35025000I0J150000D01*
G01*
X189650000Y-33850000D01*
G75*
G02*
X189800000Y-33700000I150000J0D01*
G01*
X190100000Y-33700000D01*
G75*
G02*
X190250000Y-33850000I0J-150000D01*
G01*
X190250000Y-35025000D01*
G75*
G02*
X190100000Y-35175000I-150000J0D01*
G01*
G37*
G36*
G01*
X189150000Y-33300000D02*
X188850000Y-33300000D01*
G75*
G02*
X188700000Y-33150000I0J150000D01*
G01*
X188700000Y-31975000D01*
G75*
G02*
X188850000Y-31825000I150000J0D01*
G01*
X189150000Y-31825000D01*
G75*
G02*
X189300000Y-31975000I0J-150000D01*
G01*
X189300000Y-33150000D01*
G75*
G02*
X189150000Y-33300000I-150000J0D01*
G01*
G37*
G04 #@! TD*
G04 #@! TO.C,R15*
G36*
G01*
X187850000Y-37890000D02*
X187850000Y-37110000D01*
G75*
G02*
X187920000Y-37040000I70000J0D01*
G01*
X188480000Y-37040000D01*
G75*
G02*
X188550000Y-37110000I0J-70000D01*
G01*
X188550000Y-37890000D01*
G75*
G02*
X188480000Y-37960000I-70000J0D01*
G01*
X187920000Y-37960000D01*
G75*
G02*
X187850000Y-37890000I0J70000D01*
G01*
G37*
G36*
G01*
X189450000Y-37890000D02*
X189450000Y-37110000D01*
G75*
G02*
X189520000Y-37040000I70000J0D01*
G01*
X190080000Y-37040000D01*
G75*
G02*
X190150000Y-37110000I0J-70000D01*
G01*
X190150000Y-37890000D01*
G75*
G02*
X190080000Y-37960000I-70000J0D01*
G01*
X189520000Y-37960000D01*
G75*
G02*
X189450000Y-37890000I0J70000D01*
G01*
G37*
G04 #@! TD*
G04 #@! TO.C,C30*
G36*
G01*
X82925000Y-40160000D02*
X82925000Y-40840000D01*
G75*
G02*
X82840000Y-40925000I-85000J0D01*
G01*
X82160000Y-40925000D01*
G75*
G02*
X82075000Y-40840000I0J85000D01*
G01*
X82075000Y-40160000D01*
G75*
G02*
X82160000Y-40075000I85000J0D01*
G01*
X82840000Y-40075000D01*
G75*
G02*
X82925000Y-40160000I0J-85000D01*
G01*
G37*
G36*
G01*
X81344998Y-40160000D02*
X81344998Y-40840000D01*
G75*
G02*
X81259998Y-40925000I-85000J0D01*
G01*
X80579998Y-40925000D01*
G75*
G02*
X80494998Y-40840000I0J85000D01*
G01*
X80494998Y-40160000D01*
G75*
G02*
X80579998Y-40075000I85000J0D01*
G01*
X81259998Y-40075000D01*
G75*
G02*
X81344998Y-40160000I0J-85000D01*
G01*
G37*
G04 #@! TD*
G04 #@! TO.C,D6*
G36*
G01*
X82300000Y-42325000D02*
X82600000Y-42325000D01*
G75*
G02*
X82750000Y-42475000I0J-150000D01*
G01*
X82750000Y-43650000D01*
G75*
G02*
X82600000Y-43800000I-150000J0D01*
G01*
X82300000Y-43800000D01*
G75*
G02*
X82150000Y-43650000I0J150000D01*
G01*
X82150000Y-42475000D01*
G75*
G02*
X82300000Y-42325000I150000J0D01*
G01*
G37*
G36*
G01*
X80400000Y-42325000D02*
X80700000Y-42325000D01*
G75*
G02*
X80850000Y-42475000I0J-150000D01*
G01*
X80850000Y-43650000D01*
G75*
G02*
X80700000Y-43800000I-150000J0D01*
G01*
X80400000Y-43800000D01*
G75*
G02*
X80250000Y-43650000I0J150000D01*
G01*
X80250000Y-42475000D01*
G75*
G02*
X80400000Y-42325000I150000J0D01*
G01*
G37*
G36*
G01*
X81350000Y-44200000D02*
X81650000Y-44200000D01*
G75*
G02*
X81800000Y-44350000I0J-150000D01*
G01*
X81800000Y-45525000D01*
G75*
G02*
X81650000Y-45675000I-150000J0D01*
G01*
X81350000Y-45675000D01*
G75*
G02*
X81200000Y-45525000I0J150000D01*
G01*
X81200000Y-44350000D01*
G75*
G02*
X81350000Y-44200000I150000J0D01*
G01*
G37*
G04 #@! TD*
G04 #@! TO.C,U3*
G36*
G01*
X120745000Y-54950000D02*
X120445000Y-54950000D01*
G75*
G02*
X120295000Y-54800000I0J150000D01*
G01*
X120295000Y-53150000D01*
G75*
G02*
X120445000Y-53000000I150000J0D01*
G01*
X120745000Y-53000000D01*
G75*
G02*
X120895000Y-53150000I0J-150000D01*
G01*
X120895000Y-54800000D01*
G75*
G02*
X120745000Y-54950000I-150000J0D01*
G01*
G37*
G36*
G01*
X122015000Y-54950000D02*
X121715000Y-54950000D01*
G75*
G02*
X121565000Y-54800000I0J150000D01*
G01*
X121565000Y-53150000D01*
G75*
G02*
X121715000Y-53000000I150000J0D01*
G01*
X122015000Y-53000000D01*
G75*
G02*
X122165000Y-53150000I0J-150000D01*
G01*
X122165000Y-54800000D01*
G75*
G02*
X122015000Y-54950000I-150000J0D01*
G01*
G37*
G36*
G01*
X123285000Y-54950000D02*
X122985000Y-54950000D01*
G75*
G02*
X122835000Y-54800000I0J150000D01*
G01*
X122835000Y-53150000D01*
G75*
G02*
X122985000Y-53000000I150000J0D01*
G01*
X123285000Y-53000000D01*
G75*
G02*
X123435000Y-53150000I0J-150000D01*
G01*
X123435000Y-54800000D01*
G75*
G02*
X123285000Y-54950000I-150000J0D01*
G01*
G37*
G36*
G01*
X124555000Y-54950000D02*
X124255000Y-54950000D01*
G75*
G02*
X124105000Y-54800000I0J150000D01*
G01*
X124105000Y-53150000D01*
G75*
G02*
X124255000Y-53000000I150000J0D01*
G01*
X124555000Y-53000000D01*
G75*
G02*
X124705000Y-53150000I0J-150000D01*
G01*
X124705000Y-54800000D01*
G75*
G02*
X124555000Y-54950000I-150000J0D01*
G01*
G37*
G36*
G01*
X124555000Y-50000000D02*
X124255000Y-50000000D01*
G75*
G02*
X124105000Y-49850000I0J150000D01*
G01*
X124105000Y-48200000D01*
G75*
G02*
X124255000Y-48050000I150000J0D01*
G01*
X124555000Y-48050000D01*
G75*
G02*
X124705000Y-48200000I0J-150000D01*
G01*
X124705000Y-49850000D01*
G75*
G02*
X124555000Y-50000000I-150000J0D01*
G01*
G37*
G36*
G01*
X123285000Y-50000000D02*
X122985000Y-50000000D01*
G75*
G02*
X122835000Y-49850000I0J150000D01*
G01*
X122835000Y-48200000D01*
G75*
G02*
X122985000Y-48050000I150000J0D01*
G01*
X123285000Y-48050000D01*
G75*
G02*
X123435000Y-48200000I0J-150000D01*
G01*
X123435000Y-49850000D01*
G75*
G02*
X123285000Y-50000000I-150000J0D01*
G01*
G37*
G36*
G01*
X122015000Y-50000000D02*
X121715000Y-50000000D01*
G75*
G02*
X121565000Y-49850000I0J150000D01*
G01*
X121565000Y-48200000D01*
G75*
G02*
X121715000Y-48050000I150000J0D01*
G01*
X122015000Y-48050000D01*
G75*
G02*
X122165000Y-48200000I0J-150000D01*
G01*
X122165000Y-49850000D01*
G75*
G02*
X122015000Y-50000000I-150000J0D01*
G01*
G37*
G36*
G01*
X120745000Y-50000000D02*
X120445000Y-50000000D01*
G75*
G02*
X120295000Y-49850000I0J150000D01*
G01*
X120295000Y-48200000D01*
G75*
G02*
X120445000Y-48050000I150000J0D01*
G01*
X120745000Y-48050000D01*
G75*
G02*
X120895000Y-48200000I0J-150000D01*
G01*
X120895000Y-49850000D01*
G75*
G02*
X120745000Y-50000000I-150000J0D01*
G01*
G37*
G04 #@! TD*
G04 #@! TO.C,Q5*
G36*
G01*
X95070000Y-46075000D02*
X94370000Y-46075000D01*
G75*
G02*
X94120000Y-45825000I0J250000D01*
G01*
X94120000Y-44125000D01*
G75*
G02*
X94370000Y-43875000I250000J0D01*
G01*
X95070000Y-43875000D01*
G75*
G02*
X95320000Y-44125000I0J-250000D01*
G01*
X95320000Y-45825000D01*
G75*
G02*
X95070000Y-46075000I-250000J0D01*
G01*
G37*
G36*
G01*
X96600000Y-41875000D02*
X94350000Y-41875000D01*
G75*
G02*
X94100000Y-41625000I0J250000D01*
G01*
X94100000Y-39075000D01*
G75*
G02*
X94350000Y-38825000I250000J0D01*
G01*
X96600000Y-38825000D01*
G75*
G02*
X96850000Y-39075000I0J-250000D01*
G01*
X96850000Y-41625000D01*
G75*
G02*
X96600000Y-41875000I-250000J0D01*
G01*
G37*
G36*
G01*
X99650000Y-41875000D02*
X97400000Y-41875000D01*
G75*
G02*
X97150000Y-41625000I0J250000D01*
G01*
X97150000Y-39075000D01*
G75*
G02*
X97400000Y-38825000I250000J0D01*
G01*
X99650000Y-38825000D01*
G75*
G02*
X99900000Y-39075000I0J-250000D01*
G01*
X99900000Y-41625000D01*
G75*
G02*
X99650000Y-41875000I-250000J0D01*
G01*
G37*
G36*
G01*
X96600000Y-38525000D02*
X94350000Y-38525000D01*
G75*
G02*
X94100000Y-38275000I0J250000D01*
G01*
X94100000Y-35725000D01*
G75*
G02*
X94350000Y-35475000I250000J0D01*
G01*
X96600000Y-35475000D01*
G75*
G02*
X96850000Y-35725000I0J-250000D01*
G01*
X96850000Y-38275000D01*
G75*
G02*
X96600000Y-38525000I-250000J0D01*
G01*
G37*
G36*
G01*
X99650000Y-38525000D02*
X97400000Y-38525000D01*
G75*
G02*
X97150000Y-38275000I0J250000D01*
G01*
X97150000Y-35725000D01*
G75*
G02*
X97400000Y-35475000I250000J0D01*
G01*
X99650000Y-35475000D01*
G75*
G02*
X99900000Y-35725000I0J-250000D01*
G01*
X99900000Y-38275000D01*
G75*
G02*
X99650000Y-38525000I-250000J0D01*
G01*
G37*
G36*
G01*
X99630000Y-46075000D02*
X98930000Y-46075000D01*
G75*
G02*
X98680000Y-45825000I0J250000D01*
G01*
X98680000Y-44125000D01*
G75*
G02*
X98930000Y-43875000I250000J0D01*
G01*
X99630000Y-43875000D01*
G75*
G02*
X99880000Y-44125000I0J-250000D01*
G01*
X99880000Y-45825000D01*
G75*
G02*
X99630000Y-46075000I-250000J0D01*
G01*
G37*
G04 #@! TD*
G04 #@! TO.C,R1*
G36*
G01*
X155890000Y-41150000D02*
X155110000Y-41150000D01*
G75*
G02*
X155040000Y-41080000I0J70000D01*
G01*
X155040000Y-40520000D01*
G75*
G02*
X155110000Y-40450000I70000J0D01*
G01*
X155890000Y-40450000D01*
G75*
G02*
X155960000Y-40520000I0J-70000D01*
G01*
X155960000Y-41080000D01*
G75*
G02*
X155890000Y-41150000I-70000J0D01*
G01*
G37*
G36*
G01*
X155890000Y-39550000D02*
X155110000Y-39550000D01*
G75*
G02*
X155040000Y-39480000I0J70000D01*
G01*
X155040000Y-38920000D01*
G75*
G02*
X155110000Y-38850000I70000J0D01*
G01*
X155890000Y-38850000D01*
G75*
G02*
X155960000Y-38920000I0J-70000D01*
G01*
X155960000Y-39480000D01*
G75*
G02*
X155890000Y-39550000I-70000J0D01*
G01*
G37*
G04 #@! TD*
G04 #@! TO.C,R54*
G36*
G01*
X191610000Y-32350000D02*
X192390000Y-32350000D01*
G75*
G02*
X192460000Y-32420000I0J-70000D01*
G01*
X192460000Y-32980000D01*
G75*
G02*
X192390000Y-33050000I-70000J0D01*
G01*
X191610000Y-33050000D01*
G75*
G02*
X191540000Y-32980000I0J70000D01*
G01*
X191540000Y-32420000D01*
G75*
G02*
X191610000Y-32350000I70000J0D01*
G01*
G37*
G36*
G01*
X191610000Y-33950000D02*
X192390000Y-33950000D01*
G75*
G02*
X192460000Y-34020000I0J-70000D01*
G01*
X192460000Y-34580000D01*
G75*
G02*
X192390000Y-34650000I-70000J0D01*
G01*
X191610000Y-34650000D01*
G75*
G02*
X191540000Y-34580000I0J70000D01*
G01*
X191540000Y-34020000D01*
G75*
G02*
X191610000Y-33950000I70000J0D01*
G01*
G37*
G04 #@! TD*
G04 #@! TO.C,R6*
G36*
G01*
X139610000Y-51150000D02*
X140390000Y-51150000D01*
G75*
G02*
X140460000Y-51220000I0J-70000D01*
G01*
X140460000Y-51780000D01*
G75*
G02*
X140390000Y-51850000I-70000J0D01*
G01*
X139610000Y-51850000D01*
G75*
G02*
X139540000Y-51780000I0J70000D01*
G01*
X139540000Y-51220000D01*
G75*
G02*
X139610000Y-51150000I70000J0D01*
G01*
G37*
G36*
G01*
X139610000Y-52750000D02*
X140390000Y-52750000D01*
G75*
G02*
X140460000Y-52820000I0J-70000D01*
G01*
X140460000Y-53380000D01*
G75*
G02*
X140390000Y-53450000I-70000J0D01*
G01*
X139610000Y-53450000D01*
G75*
G02*
X139540000Y-53380000I0J70000D01*
G01*
X139540000Y-52820000D01*
G75*
G02*
X139610000Y-52750000I70000J0D01*
G01*
G37*
G04 #@! TD*
G04 #@! TO.C,U6*
G36*
G01*
X113380000Y-54950000D02*
X113080000Y-54950000D01*
G75*
G02*
X112930000Y-54800000I0J150000D01*
G01*
X112930000Y-53150000D01*
G75*
G02*
X113080000Y-53000000I150000J0D01*
G01*
X113380000Y-53000000D01*
G75*
G02*
X113530000Y-53150000I0J-150000D01*
G01*
X113530000Y-54800000D01*
G75*
G02*
X113380000Y-54950000I-150000J0D01*
G01*
G37*
G36*
G01*
X114650000Y-54950000D02*
X114350000Y-54950000D01*
G75*
G02*
X114200000Y-54800000I0J150000D01*
G01*
X114200000Y-53150000D01*
G75*
G02*
X114350000Y-53000000I150000J0D01*
G01*
X114650000Y-53000000D01*
G75*
G02*
X114800000Y-53150000I0J-150000D01*
G01*
X114800000Y-54800000D01*
G75*
G02*
X114650000Y-54950000I-150000J0D01*
G01*
G37*
G36*
G01*
X115920000Y-54950000D02*
X115620000Y-54950000D01*
G75*
G02*
X115470000Y-54800000I0J150000D01*
G01*
X115470000Y-53150000D01*
G75*
G02*
X115620000Y-53000000I150000J0D01*
G01*
X115920000Y-53000000D01*
G75*
G02*
X116070000Y-53150000I0J-150000D01*
G01*
X116070000Y-54800000D01*
G75*
G02*
X115920000Y-54950000I-150000J0D01*
G01*
G37*
G36*
G01*
X117190000Y-54950000D02*
X116890000Y-54950000D01*
G75*
G02*
X116740000Y-54800000I0J150000D01*
G01*
X116740000Y-53150000D01*
G75*
G02*
X116890000Y-53000000I150000J0D01*
G01*
X117190000Y-53000000D01*
G75*
G02*
X117340000Y-53150000I0J-150000D01*
G01*
X117340000Y-54800000D01*
G75*
G02*
X117190000Y-54950000I-150000J0D01*
G01*
G37*
G36*
G01*
X117190000Y-50000000D02*
X116890000Y-50000000D01*
G75*
G02*
X116740000Y-49850000I0J150000D01*
G01*
X116740000Y-48200000D01*
G75*
G02*
X116890000Y-48050000I150000J0D01*
G01*
X117190000Y-48050000D01*
G75*
G02*
X117340000Y-48200000I0J-150000D01*
G01*
X117340000Y-49850000D01*
G75*
G02*
X117190000Y-50000000I-150000J0D01*
G01*
G37*
G36*
G01*
X115920000Y-50000000D02*
X115620000Y-50000000D01*
G75*
G02*
X115470000Y-49850000I0J150000D01*
G01*
X115470000Y-48200000D01*
G75*
G02*
X115620000Y-48050000I150000J0D01*
G01*
X115920000Y-48050000D01*
G75*
G02*
X116070000Y-48200000I0J-150000D01*
G01*
X116070000Y-49850000D01*
G75*
G02*
X115920000Y-50000000I-150000J0D01*
G01*
G37*
G36*
G01*
X114650000Y-50000000D02*
X114350000Y-50000000D01*
G75*
G02*
X114200000Y-49850000I0J150000D01*
G01*
X114200000Y-48200000D01*
G75*
G02*
X114350000Y-48050000I150000J0D01*
G01*
X114650000Y-48050000D01*
G75*
G02*
X114800000Y-48200000I0J-150000D01*
G01*
X114800000Y-49850000D01*
G75*
G02*
X114650000Y-50000000I-150000J0D01*
G01*
G37*
G36*
G01*
X113380000Y-50000000D02*
X113080000Y-50000000D01*
G75*
G02*
X112930000Y-49850000I0J150000D01*
G01*
X112930000Y-48200000D01*
G75*
G02*
X113080000Y-48050000I150000J0D01*
G01*
X113380000Y-48050000D01*
G75*
G02*
X113530000Y-48200000I0J-150000D01*
G01*
X113530000Y-49850000D01*
G75*
G02*
X113380000Y-50000000I-150000J0D01*
G01*
G37*
G04 #@! TD*
G04 #@! TO.C,L1*
G36*
G01*
X81743750Y-34775000D02*
X82256250Y-34775000D01*
G75*
G02*
X82475000Y-34993750I0J-218750D01*
G01*
X82475000Y-35431250D01*
G75*
G02*
X82256250Y-35650000I-218750J0D01*
G01*
X81743750Y-35650000D01*
G75*
G02*
X81525000Y-35431250I0J218750D01*
G01*
X81525000Y-34993750D01*
G75*
G02*
X81743750Y-34775000I218750J0D01*
G01*
G37*
G36*
G01*
X81743750Y-36350000D02*
X82256250Y-36350000D01*
G75*
G02*
X82475000Y-36568750I0J-218750D01*
G01*
X82475000Y-37006250D01*
G75*
G02*
X82256250Y-37225000I-218750J0D01*
G01*
X81743750Y-37225000D01*
G75*
G02*
X81525000Y-37006250I0J218750D01*
G01*
X81525000Y-36568750D01*
G75*
G02*
X81743750Y-36350000I218750J0D01*
G01*
G37*
G04 #@! TD*
G04 #@! TO.C,R7*
G36*
G01*
X148549999Y-53125000D02*
X148549999Y-51875000D01*
G75*
G02*
X148649999Y-51775000I100000J0D01*
G01*
X149449999Y-51775000D01*
G75*
G02*
X149549999Y-51875000I0J-100000D01*
G01*
X149549999Y-53125000D01*
G75*
G02*
X149449999Y-53225000I-100000J0D01*
G01*
X148649999Y-53225000D01*
G75*
G02*
X148549999Y-53125000I0J100000D01*
G01*
G37*
G36*
G01*
X150450021Y-53125000D02*
X150450021Y-51875000D01*
G75*
G02*
X150550021Y-51775000I100000J0D01*
G01*
X151350021Y-51775000D01*
G75*
G02*
X151450021Y-51875000I0J-100000D01*
G01*
X151450021Y-53125000D01*
G75*
G02*
X151350021Y-53225000I-100000J0D01*
G01*
X150550021Y-53225000D01*
G75*
G02*
X150450021Y-53125000I0J100000D01*
G01*
G37*
G04 #@! TD*
G04 #@! TO.C,R11*
G36*
G01*
X145049999Y-56125000D02*
X145049999Y-54875000D01*
G75*
G02*
X145149999Y-54775000I100000J0D01*
G01*
X145949999Y-54775000D01*
G75*
G02*
X146049999Y-54875000I0J-100000D01*
G01*
X146049999Y-56125000D01*
G75*
G02*
X145949999Y-56225000I-100000J0D01*
G01*
X145149999Y-56225000D01*
G75*
G02*
X145049999Y-56125000I0J100000D01*
G01*
G37*
G36*
G01*
X146950021Y-56125000D02*
X146950021Y-54875000D01*
G75*
G02*
X147050021Y-54775000I100000J0D01*
G01*
X147850021Y-54775000D01*
G75*
G02*
X147950021Y-54875000I0J-100000D01*
G01*
X147950021Y-56125000D01*
G75*
G02*
X147850021Y-56225000I-100000J0D01*
G01*
X147050021Y-56225000D01*
G75*
G02*
X146950021Y-56125000I0J100000D01*
G01*
G37*
G04 #@! TD*
G04 #@! TO.C,U4*
G36*
G01*
X99745000Y-54950000D02*
X99445000Y-54950000D01*
G75*
G02*
X99295000Y-54800000I0J150000D01*
G01*
X99295000Y-53150000D01*
G75*
G02*
X99445000Y-53000000I150000J0D01*
G01*
X99745000Y-53000000D01*
G75*
G02*
X99895000Y-53150000I0J-150000D01*
G01*
X99895000Y-54800000D01*
G75*
G02*
X99745000Y-54950000I-150000J0D01*
G01*
G37*
G36*
G01*
X101015000Y-54950000D02*
X100715000Y-54950000D01*
G75*
G02*
X100565000Y-54800000I0J150000D01*
G01*
X100565000Y-53150000D01*
G75*
G02*
X100715000Y-53000000I150000J0D01*
G01*
X101015000Y-53000000D01*
G75*
G02*
X101165000Y-53150000I0J-150000D01*
G01*
X101165000Y-54800000D01*
G75*
G02*
X101015000Y-54950000I-150000J0D01*
G01*
G37*
G36*
G01*
X102285000Y-54950000D02*
X101985000Y-54950000D01*
G75*
G02*
X101835000Y-54800000I0J150000D01*
G01*
X101835000Y-53150000D01*
G75*
G02*
X101985000Y-53000000I150000J0D01*
G01*
X102285000Y-53000000D01*
G75*
G02*
X102435000Y-53150000I0J-150000D01*
G01*
X102435000Y-54800000D01*
G75*
G02*
X102285000Y-54950000I-150000J0D01*
G01*
G37*
G36*
G01*
X103555000Y-54950000D02*
X103255000Y-54950000D01*
G75*
G02*
X103105000Y-54800000I0J150000D01*
G01*
X103105000Y-53150000D01*
G75*
G02*
X103255000Y-53000000I150000J0D01*
G01*
X103555000Y-53000000D01*
G75*
G02*
X103705000Y-53150000I0J-150000D01*
G01*
X103705000Y-54800000D01*
G75*
G02*
X103555000Y-54950000I-150000J0D01*
G01*
G37*
G36*
G01*
X103555000Y-50000000D02*
X103255000Y-50000000D01*
G75*
G02*
X103105000Y-49850000I0J150000D01*
G01*
X103105000Y-48200000D01*
G75*
G02*
X103255000Y-48050000I150000J0D01*
G01*
X103555000Y-48050000D01*
G75*
G02*
X103705000Y-48200000I0J-150000D01*
G01*
X103705000Y-49850000D01*
G75*
G02*
X103555000Y-50000000I-150000J0D01*
G01*
G37*
G36*
G01*
X102285000Y-50000000D02*
X101985000Y-50000000D01*
G75*
G02*
X101835000Y-49850000I0J150000D01*
G01*
X101835000Y-48200000D01*
G75*
G02*
X101985000Y-48050000I150000J0D01*
G01*
X102285000Y-48050000D01*
G75*
G02*
X102435000Y-48200000I0J-150000D01*
G01*
X102435000Y-49850000D01*
G75*
G02*
X102285000Y-50000000I-150000J0D01*
G01*
G37*
G36*
G01*
X101015000Y-50000000D02*
X100715000Y-50000000D01*
G75*
G02*
X100565000Y-49850000I0J150000D01*
G01*
X100565000Y-48200000D01*
G75*
G02*
X100715000Y-48050000I150000J0D01*
G01*
X101015000Y-48050000D01*
G75*
G02*
X101165000Y-48200000I0J-150000D01*
G01*
X101165000Y-49850000D01*
G75*
G02*
X101015000Y-50000000I-150000J0D01*
G01*
G37*
G36*
G01*
X99745000Y-50000000D02*
X99445000Y-50000000D01*
G75*
G02*
X99295000Y-49850000I0J150000D01*
G01*
X99295000Y-48200000D01*
G75*
G02*
X99445000Y-48050000I150000J0D01*
G01*
X99745000Y-48050000D01*
G75*
G02*
X99895000Y-48200000I0J-150000D01*
G01*
X99895000Y-49850000D01*
G75*
G02*
X99745000Y-50000000I-150000J0D01*
G01*
G37*
G04 #@! TD*
G04 #@! TO.C,D5*
G36*
G01*
X198650000Y-30250000D02*
X197350000Y-30250000D01*
G75*
G02*
X197100000Y-30000000I0J250000D01*
G01*
X197100000Y-28000000D01*
G75*
G02*
X197350000Y-27750000I250000J0D01*
G01*
X198650000Y-27750000D01*
G75*
G02*
X198900000Y-28000000I0J-250000D01*
G01*
X198900000Y-30000000D01*
G75*
G02*
X198650000Y-30250000I-250000J0D01*
G01*
G37*
G36*
G01*
X198650000Y-26250000D02*
X197350000Y-26250000D01*
G75*
G02*
X197100000Y-26000000I0J250000D01*
G01*
X197100000Y-24000000D01*
G75*
G02*
X197350000Y-23750000I250000J0D01*
G01*
X198650000Y-23750000D01*
G75*
G02*
X198900000Y-24000000I0J-250000D01*
G01*
X198900000Y-26000000D01*
G75*
G02*
X198650000Y-26250000I-250000J0D01*
G01*
G37*
G04 #@! TD*
G04 #@! TO.C,Q2*
G36*
G01*
X119655000Y-46075000D02*
X118955000Y-46075000D01*
G75*
G02*
X118705000Y-45825000I0J250000D01*
G01*
X118705000Y-44125000D01*
G75*
G02*
X118955000Y-43875000I250000J0D01*
G01*
X119655000Y-43875000D01*
G75*
G02*
X119905000Y-44125000I0J-250000D01*
G01*
X119905000Y-45825000D01*
G75*
G02*
X119655000Y-46075000I-250000J0D01*
G01*
G37*
G36*
G01*
X121185000Y-41875000D02*
X118935000Y-41875000D01*
G75*
G02*
X118685000Y-41625000I0J250000D01*
G01*
X118685000Y-39075000D01*
G75*
G02*
X118935000Y-38825000I250000J0D01*
G01*
X121185000Y-38825000D01*
G75*
G02*
X121435000Y-39075000I0J-250000D01*
G01*
X121435000Y-41625000D01*
G75*
G02*
X121185000Y-41875000I-250000J0D01*
G01*
G37*
G36*
G01*
X124235000Y-41875000D02*
X121985000Y-41875000D01*
G75*
G02*
X121735000Y-41625000I0J250000D01*
G01*
X121735000Y-39075000D01*
G75*
G02*
X121985000Y-38825000I250000J0D01*
G01*
X124235000Y-38825000D01*
G75*
G02*
X124485000Y-39075000I0J-250000D01*
G01*
X124485000Y-41625000D01*
G75*
G02*
X124235000Y-41875000I-250000J0D01*
G01*
G37*
G36*
G01*
X121185000Y-38525000D02*
X118935000Y-38525000D01*
G75*
G02*
X118685000Y-38275000I0J250000D01*
G01*
X118685000Y-35725000D01*
G75*
G02*
X118935000Y-35475000I250000J0D01*
G01*
X121185000Y-35475000D01*
G75*
G02*
X121435000Y-35725000I0J-250000D01*
G01*
X121435000Y-38275000D01*
G75*
G02*
X121185000Y-38525000I-250000J0D01*
G01*
G37*
G36*
G01*
X124235000Y-38525000D02*
X121985000Y-38525000D01*
G75*
G02*
X121735000Y-38275000I0J250000D01*
G01*
X121735000Y-35725000D01*
G75*
G02*
X121985000Y-35475000I250000J0D01*
G01*
X124235000Y-35475000D01*
G75*
G02*
X124485000Y-35725000I0J-250000D01*
G01*
X124485000Y-38275000D01*
G75*
G02*
X124235000Y-38525000I-250000J0D01*
G01*
G37*
G36*
G01*
X124215000Y-46075000D02*
X123515000Y-46075000D01*
G75*
G02*
X123265000Y-45825000I0J250000D01*
G01*
X123265000Y-44125000D01*
G75*
G02*
X123515000Y-43875000I250000J0D01*
G01*
X124215000Y-43875000D01*
G75*
G02*
X124465000Y-44125000I0J-250000D01*
G01*
X124465000Y-45825000D01*
G75*
G02*
X124215000Y-46075000I-250000J0D01*
G01*
G37*
G04 #@! TD*
G04 #@! TO.C,C32*
G36*
G01*
X79340000Y-52215001D02*
X78660000Y-52215001D01*
G75*
G02*
X78575000Y-52130001I0J85000D01*
G01*
X78575000Y-51450001D01*
G75*
G02*
X78660000Y-51365001I85000J0D01*
G01*
X79340000Y-51365001D01*
G75*
G02*
X79425000Y-51450001I0J-85000D01*
G01*
X79425000Y-52130001D01*
G75*
G02*
X79340000Y-52215001I-85000J0D01*
G01*
G37*
G36*
G01*
X79340000Y-50634999D02*
X78660000Y-50634999D01*
G75*
G02*
X78575000Y-50549999I0J85000D01*
G01*
X78575000Y-49869999D01*
G75*
G02*
X78660000Y-49784999I85000J0D01*
G01*
X79340000Y-49784999D01*
G75*
G02*
X79425000Y-49869999I0J-85000D01*
G01*
X79425000Y-50549999D01*
G75*
G02*
X79340000Y-50634999I-85000J0D01*
G01*
G37*
G04 #@! TD*
D10*
G04 #@! TO.C,M7*
X87812501Y-90143334D03*
G04 #@! TD*
G04 #@! TO.C,R5*
G36*
G01*
X141610000Y-51150000D02*
X142390000Y-51150000D01*
G75*
G02*
X142460000Y-51220000I0J-70000D01*
G01*
X142460000Y-51780000D01*
G75*
G02*
X142390000Y-51850000I-70000J0D01*
G01*
X141610000Y-51850000D01*
G75*
G02*
X141540000Y-51780000I0J70000D01*
G01*
X141540000Y-51220000D01*
G75*
G02*
X141610000Y-51150000I70000J0D01*
G01*
G37*
G36*
G01*
X141610000Y-52750000D02*
X142390000Y-52750000D01*
G75*
G02*
X142460000Y-52820000I0J-70000D01*
G01*
X142460000Y-53380000D01*
G75*
G02*
X142390000Y-53450000I-70000J0D01*
G01*
X141610000Y-53450000D01*
G75*
G02*
X141540000Y-53380000I0J70000D01*
G01*
X141540000Y-52820000D01*
G75*
G02*
X141610000Y-52750000I70000J0D01*
G01*
G37*
G04 #@! TD*
G04 #@! TO.C,U9*
G36*
G01*
X128245000Y-54950000D02*
X127945000Y-54950000D01*
G75*
G02*
X127795000Y-54800000I0J150000D01*
G01*
X127795000Y-53150000D01*
G75*
G02*
X127945000Y-53000000I150000J0D01*
G01*
X128245000Y-53000000D01*
G75*
G02*
X128395000Y-53150000I0J-150000D01*
G01*
X128395000Y-54800000D01*
G75*
G02*
X128245000Y-54950000I-150000J0D01*
G01*
G37*
G36*
G01*
X129515000Y-54950000D02*
X129215000Y-54950000D01*
G75*
G02*
X129065000Y-54800000I0J150000D01*
G01*
X129065000Y-53150000D01*
G75*
G02*
X129215000Y-53000000I150000J0D01*
G01*
X129515000Y-53000000D01*
G75*
G02*
X129665000Y-53150000I0J-150000D01*
G01*
X129665000Y-54800000D01*
G75*
G02*
X129515000Y-54950000I-150000J0D01*
G01*
G37*
G36*
G01*
X130785000Y-54950000D02*
X130485000Y-54950000D01*
G75*
G02*
X130335000Y-54800000I0J150000D01*
G01*
X130335000Y-53150000D01*
G75*
G02*
X130485000Y-53000000I150000J0D01*
G01*
X130785000Y-53000000D01*
G75*
G02*
X130935000Y-53150000I0J-150000D01*
G01*
X130935000Y-54800000D01*
G75*
G02*
X130785000Y-54950000I-150000J0D01*
G01*
G37*
G36*
G01*
X132055000Y-54950000D02*
X131755000Y-54950000D01*
G75*
G02*
X131605000Y-54800000I0J150000D01*
G01*
X131605000Y-53150000D01*
G75*
G02*
X131755000Y-53000000I150000J0D01*
G01*
X132055000Y-53000000D01*
G75*
G02*
X132205000Y-53150000I0J-150000D01*
G01*
X132205000Y-54800000D01*
G75*
G02*
X132055000Y-54950000I-150000J0D01*
G01*
G37*
G36*
G01*
X132055000Y-50000000D02*
X131755000Y-50000000D01*
G75*
G02*
X131605000Y-49850000I0J150000D01*
G01*
X131605000Y-48200000D01*
G75*
G02*
X131755000Y-48050000I150000J0D01*
G01*
X132055000Y-48050000D01*
G75*
G02*
X132205000Y-48200000I0J-150000D01*
G01*
X132205000Y-49850000D01*
G75*
G02*
X132055000Y-50000000I-150000J0D01*
G01*
G37*
G36*
G01*
X130785000Y-50000000D02*
X130485000Y-50000000D01*
G75*
G02*
X130335000Y-49850000I0J150000D01*
G01*
X130335000Y-48200000D01*
G75*
G02*
X130485000Y-48050000I150000J0D01*
G01*
X130785000Y-48050000D01*
G75*
G02*
X130935000Y-48200000I0J-150000D01*
G01*
X130935000Y-49850000D01*
G75*
G02*
X130785000Y-50000000I-150000J0D01*
G01*
G37*
G36*
G01*
X129515000Y-50000000D02*
X129215000Y-50000000D01*
G75*
G02*
X129065000Y-49850000I0J150000D01*
G01*
X129065000Y-48200000D01*
G75*
G02*
X129215000Y-48050000I150000J0D01*
G01*
X129515000Y-48050000D01*
G75*
G02*
X129665000Y-48200000I0J-150000D01*
G01*
X129665000Y-49850000D01*
G75*
G02*
X129515000Y-50000000I-150000J0D01*
G01*
G37*
G36*
G01*
X128245000Y-50000000D02*
X127945000Y-50000000D01*
G75*
G02*
X127795000Y-49850000I0J150000D01*
G01*
X127795000Y-48200000D01*
G75*
G02*
X127945000Y-48050000I150000J0D01*
G01*
X128245000Y-48050000D01*
G75*
G02*
X128395000Y-48200000I0J-150000D01*
G01*
X128395000Y-49850000D01*
G75*
G02*
X128245000Y-50000000I-150000J0D01*
G01*
G37*
G04 #@! TD*
G04 #@! TO.C,U11*
G36*
G01*
X67745000Y-83450000D02*
X67445000Y-83450000D01*
G75*
G02*
X67295000Y-83300000I0J150000D01*
G01*
X67295000Y-81650000D01*
G75*
G02*
X67445000Y-81500000I150000J0D01*
G01*
X67745000Y-81500000D01*
G75*
G02*
X67895000Y-81650000I0J-150000D01*
G01*
X67895000Y-83300000D01*
G75*
G02*
X67745000Y-83450000I-150000J0D01*
G01*
G37*
G36*
G01*
X69015000Y-83450000D02*
X68715000Y-83450000D01*
G75*
G02*
X68565000Y-83300000I0J150000D01*
G01*
X68565000Y-81650000D01*
G75*
G02*
X68715000Y-81500000I150000J0D01*
G01*
X69015000Y-81500000D01*
G75*
G02*
X69165000Y-81650000I0J-150000D01*
G01*
X69165000Y-83300000D01*
G75*
G02*
X69015000Y-83450000I-150000J0D01*
G01*
G37*
G36*
G01*
X70285000Y-83450000D02*
X69985000Y-83450000D01*
G75*
G02*
X69835000Y-83300000I0J150000D01*
G01*
X69835000Y-81650000D01*
G75*
G02*
X69985000Y-81500000I150000J0D01*
G01*
X70285000Y-81500000D01*
G75*
G02*
X70435000Y-81650000I0J-150000D01*
G01*
X70435000Y-83300000D01*
G75*
G02*
X70285000Y-83450000I-150000J0D01*
G01*
G37*
G36*
G01*
X71555000Y-83450000D02*
X71255000Y-83450000D01*
G75*
G02*
X71105000Y-83300000I0J150000D01*
G01*
X71105000Y-81650000D01*
G75*
G02*
X71255000Y-81500000I150000J0D01*
G01*
X71555000Y-81500000D01*
G75*
G02*
X71705000Y-81650000I0J-150000D01*
G01*
X71705000Y-83300000D01*
G75*
G02*
X71555000Y-83450000I-150000J0D01*
G01*
G37*
G36*
G01*
X71555000Y-78500000D02*
X71255000Y-78500000D01*
G75*
G02*
X71105000Y-78350000I0J150000D01*
G01*
X71105000Y-76700000D01*
G75*
G02*
X71255000Y-76550000I150000J0D01*
G01*
X71555000Y-76550000D01*
G75*
G02*
X71705000Y-76700000I0J-150000D01*
G01*
X71705000Y-78350000D01*
G75*
G02*
X71555000Y-78500000I-150000J0D01*
G01*
G37*
G36*
G01*
X70285000Y-78500000D02*
X69985000Y-78500000D01*
G75*
G02*
X69835000Y-78350000I0J150000D01*
G01*
X69835000Y-76700000D01*
G75*
G02*
X69985000Y-76550000I150000J0D01*
G01*
X70285000Y-76550000D01*
G75*
G02*
X70435000Y-76700000I0J-150000D01*
G01*
X70435000Y-78350000D01*
G75*
G02*
X70285000Y-78500000I-150000J0D01*
G01*
G37*
G36*
G01*
X69015000Y-78500000D02*
X68715000Y-78500000D01*
G75*
G02*
X68565000Y-78350000I0J150000D01*
G01*
X68565000Y-76700000D01*
G75*
G02*
X68715000Y-76550000I150000J0D01*
G01*
X69015000Y-76550000D01*
G75*
G02*
X69165000Y-76700000I0J-150000D01*
G01*
X69165000Y-78350000D01*
G75*
G02*
X69015000Y-78500000I-150000J0D01*
G01*
G37*
G36*
G01*
X67745000Y-78500000D02*
X67445000Y-78500000D01*
G75*
G02*
X67295000Y-78350000I0J150000D01*
G01*
X67295000Y-76700000D01*
G75*
G02*
X67445000Y-76550000I150000J0D01*
G01*
X67745000Y-76550000D01*
G75*
G02*
X67895000Y-76700000I0J-150000D01*
G01*
X67895000Y-78350000D01*
G75*
G02*
X67745000Y-78500000I-150000J0D01*
G01*
G37*
G04 #@! TD*
G04 #@! TO.C,U8*
G36*
G01*
X86255000Y-49050000D02*
X86555000Y-49050000D01*
G75*
G02*
X86705000Y-49200000I0J-150000D01*
G01*
X86705000Y-50850000D01*
G75*
G02*
X86555000Y-51000000I-150000J0D01*
G01*
X86255000Y-51000000D01*
G75*
G02*
X86105000Y-50850000I0J150000D01*
G01*
X86105000Y-49200000D01*
G75*
G02*
X86255000Y-49050000I150000J0D01*
G01*
G37*
G36*
G01*
X84985000Y-49050000D02*
X85285000Y-49050000D01*
G75*
G02*
X85435000Y-49200000I0J-150000D01*
G01*
X85435000Y-50850000D01*
G75*
G02*
X85285000Y-51000000I-150000J0D01*
G01*
X84985000Y-51000000D01*
G75*
G02*
X84835000Y-50850000I0J150000D01*
G01*
X84835000Y-49200000D01*
G75*
G02*
X84985000Y-49050000I150000J0D01*
G01*
G37*
G36*
G01*
X83715000Y-49050000D02*
X84015000Y-49050000D01*
G75*
G02*
X84165000Y-49200000I0J-150000D01*
G01*
X84165000Y-50850000D01*
G75*
G02*
X84015000Y-51000000I-150000J0D01*
G01*
X83715000Y-51000000D01*
G75*
G02*
X83565000Y-50850000I0J150000D01*
G01*
X83565000Y-49200000D01*
G75*
G02*
X83715000Y-49050000I150000J0D01*
G01*
G37*
G36*
G01*
X82445000Y-49050000D02*
X82745000Y-49050000D01*
G75*
G02*
X82895000Y-49200000I0J-150000D01*
G01*
X82895000Y-50850000D01*
G75*
G02*
X82745000Y-51000000I-150000J0D01*
G01*
X82445000Y-51000000D01*
G75*
G02*
X82295000Y-50850000I0J150000D01*
G01*
X82295000Y-49200000D01*
G75*
G02*
X82445000Y-49050000I150000J0D01*
G01*
G37*
G36*
G01*
X82445000Y-54000000D02*
X82745000Y-54000000D01*
G75*
G02*
X82895000Y-54150000I0J-150000D01*
G01*
X82895000Y-55800000D01*
G75*
G02*
X82745000Y-55950000I-150000J0D01*
G01*
X82445000Y-55950000D01*
G75*
G02*
X82295000Y-55800000I0J150000D01*
G01*
X82295000Y-54150000D01*
G75*
G02*
X82445000Y-54000000I150000J0D01*
G01*
G37*
G36*
G01*
X83715000Y-54000000D02*
X84015000Y-54000000D01*
G75*
G02*
X84165000Y-54150000I0J-150000D01*
G01*
X84165000Y-55800000D01*
G75*
G02*
X84015000Y-55950000I-150000J0D01*
G01*
X83715000Y-55950000D01*
G75*
G02*
X83565000Y-55800000I0J150000D01*
G01*
X83565000Y-54150000D01*
G75*
G02*
X83715000Y-54000000I150000J0D01*
G01*
G37*
G36*
G01*
X84985000Y-54000000D02*
X85285000Y-54000000D01*
G75*
G02*
X85435000Y-54150000I0J-150000D01*
G01*
X85435000Y-55800000D01*
G75*
G02*
X85285000Y-55950000I-150000J0D01*
G01*
X84985000Y-55950000D01*
G75*
G02*
X84835000Y-55800000I0J150000D01*
G01*
X84835000Y-54150000D01*
G75*
G02*
X84985000Y-54000000I150000J0D01*
G01*
G37*
G36*
G01*
X86255000Y-54000000D02*
X86555000Y-54000000D01*
G75*
G02*
X86705000Y-54150000I0J-150000D01*
G01*
X86705000Y-55800000D01*
G75*
G02*
X86555000Y-55950000I-150000J0D01*
G01*
X86255000Y-55950000D01*
G75*
G02*
X86105000Y-55800000I0J150000D01*
G01*
X86105000Y-54150000D01*
G75*
G02*
X86255000Y-54000000I150000J0D01*
G01*
G37*
G04 #@! TD*
M02*
