G04 #@! TF.GenerationSoftware,KiCad,Pcbnew,8.0.8*
G04 #@! TF.CreationDate,2025-12-17T12:18:20-05:00*
G04 #@! TF.ProjectId,hellen121vag,68656c6c-656e-4313-9231-7661672e6b69,d*
G04 #@! TF.SameCoordinates,PX2b953a0PY6943058*
G04 #@! TF.FileFunction,Soldermask,Bot*
G04 #@! TF.FilePolarity,Negative*
%FSLAX46Y46*%
G04 Gerber Fmt 4.6, Leading zero omitted, Abs format (unit mm)*
G04 Created by KiCad (PCBNEW 8.0.8) date 2025-12-17 12:18:20*
%MOMM*%
%LPD*%
G01*
G04 APERTURE LIST*
%ADD10C,0.100000*%
%ADD11C,0.150000*%
%ADD12C,0.300000*%
%ADD13C,0.400000*%
%ADD14C,1.500000*%
%ADD15C,0.600000*%
%ADD16C,1.524000*%
%ADD17O,1.700000X1.850000*%
%ADD18R,1.100000X1.100000*%
%ADD19C,1.100000*%
%ADD20O,2.400000X1.100000*%
%ADD21C,0.599999*%
%ADD22C,3.700000*%
%ADD23C,2.200000*%
%ADD24C,2.600000*%
G04 APERTURE END LIST*
D10*
D11*
X266100000Y-225025000D02*
X374100000Y-225025000D01*
X374100000Y-257025000D01*
X266100000Y-257025000D01*
X266100000Y-225025000D01*
D10*
D11*
X-35700000Y100375000D02*
X376100000Y100375000D01*
X376100000Y-259025000D01*
X-35700000Y-259025000D01*
X-35700000Y100375000D01*
D10*
D11*
X-33700000Y98375000D02*
X374100000Y98375000D01*
X374100000Y-257025000D01*
X-33700000Y-257025000D01*
X-33700000Y98375000D01*
D10*
D11*
X14300000Y98375000D02*
X14300000Y100375000D01*
D10*
D11*
X64300000Y98375000D02*
X64300000Y100375000D01*
D10*
D11*
X114300000Y98375000D02*
X114300000Y100375000D01*
D10*
D11*
X164300000Y98375000D02*
X164300000Y100375000D01*
D10*
D11*
X214300000Y98375000D02*
X214300000Y100375000D01*
D10*
D11*
X264300000Y98375000D02*
X264300000Y100375000D01*
D10*
D11*
X314300000Y98375000D02*
X314300000Y100375000D01*
D10*
D11*
X364300000Y98375000D02*
X364300000Y100375000D01*
D10*
D11*
X-9610840Y98781396D02*
X-10353697Y98781396D01*
X-9982269Y98781396D02*
X-9982269Y100081396D01*
X-9982269Y100081396D02*
X-10106078Y99895681D01*
X-10106078Y99895681D02*
X-10229888Y99771872D01*
X-10229888Y99771872D02*
X-10353697Y99709967D01*
D10*
D11*
X39646303Y99957586D02*
X39708207Y100019491D01*
X39708207Y100019491D02*
X39832017Y100081396D01*
X39832017Y100081396D02*
X40141541Y100081396D01*
X40141541Y100081396D02*
X40265350Y100019491D01*
X40265350Y100019491D02*
X40327255Y99957586D01*
X40327255Y99957586D02*
X40389160Y99833777D01*
X40389160Y99833777D02*
X40389160Y99709967D01*
X40389160Y99709967D02*
X40327255Y99524253D01*
X40327255Y99524253D02*
X39584398Y98781396D01*
X39584398Y98781396D02*
X40389160Y98781396D01*
D10*
D11*
X89584398Y100081396D02*
X90389160Y100081396D01*
X90389160Y100081396D02*
X89955826Y99586158D01*
X89955826Y99586158D02*
X90141541Y99586158D01*
X90141541Y99586158D02*
X90265350Y99524253D01*
X90265350Y99524253D02*
X90327255Y99462348D01*
X90327255Y99462348D02*
X90389160Y99338539D01*
X90389160Y99338539D02*
X90389160Y99029015D01*
X90389160Y99029015D02*
X90327255Y98905205D01*
X90327255Y98905205D02*
X90265350Y98843300D01*
X90265350Y98843300D02*
X90141541Y98781396D01*
X90141541Y98781396D02*
X89770112Y98781396D01*
X89770112Y98781396D02*
X89646303Y98843300D01*
X89646303Y98843300D02*
X89584398Y98905205D01*
D10*
D11*
X140265350Y99648062D02*
X140265350Y98781396D01*
X139955826Y100143300D02*
X139646303Y99214729D01*
X139646303Y99214729D02*
X140451064Y99214729D01*
D10*
D11*
X190327255Y100081396D02*
X189708207Y100081396D01*
X189708207Y100081396D02*
X189646303Y99462348D01*
X189646303Y99462348D02*
X189708207Y99524253D01*
X189708207Y99524253D02*
X189832017Y99586158D01*
X189832017Y99586158D02*
X190141541Y99586158D01*
X190141541Y99586158D02*
X190265350Y99524253D01*
X190265350Y99524253D02*
X190327255Y99462348D01*
X190327255Y99462348D02*
X190389160Y99338539D01*
X190389160Y99338539D02*
X190389160Y99029015D01*
X190389160Y99029015D02*
X190327255Y98905205D01*
X190327255Y98905205D02*
X190265350Y98843300D01*
X190265350Y98843300D02*
X190141541Y98781396D01*
X190141541Y98781396D02*
X189832017Y98781396D01*
X189832017Y98781396D02*
X189708207Y98843300D01*
X189708207Y98843300D02*
X189646303Y98905205D01*
D10*
D11*
X240265350Y100081396D02*
X240017731Y100081396D01*
X240017731Y100081396D02*
X239893922Y100019491D01*
X239893922Y100019491D02*
X239832017Y99957586D01*
X239832017Y99957586D02*
X239708207Y99771872D01*
X239708207Y99771872D02*
X239646303Y99524253D01*
X239646303Y99524253D02*
X239646303Y99029015D01*
X239646303Y99029015D02*
X239708207Y98905205D01*
X239708207Y98905205D02*
X239770112Y98843300D01*
X239770112Y98843300D02*
X239893922Y98781396D01*
X239893922Y98781396D02*
X240141541Y98781396D01*
X240141541Y98781396D02*
X240265350Y98843300D01*
X240265350Y98843300D02*
X240327255Y98905205D01*
X240327255Y98905205D02*
X240389160Y99029015D01*
X240389160Y99029015D02*
X240389160Y99338539D01*
X240389160Y99338539D02*
X240327255Y99462348D01*
X240327255Y99462348D02*
X240265350Y99524253D01*
X240265350Y99524253D02*
X240141541Y99586158D01*
X240141541Y99586158D02*
X239893922Y99586158D01*
X239893922Y99586158D02*
X239770112Y99524253D01*
X239770112Y99524253D02*
X239708207Y99462348D01*
X239708207Y99462348D02*
X239646303Y99338539D01*
D10*
D11*
X289584398Y100081396D02*
X290451064Y100081396D01*
X290451064Y100081396D02*
X289893922Y98781396D01*
D10*
D11*
X339893922Y99524253D02*
X339770112Y99586158D01*
X339770112Y99586158D02*
X339708207Y99648062D01*
X339708207Y99648062D02*
X339646303Y99771872D01*
X339646303Y99771872D02*
X339646303Y99833777D01*
X339646303Y99833777D02*
X339708207Y99957586D01*
X339708207Y99957586D02*
X339770112Y100019491D01*
X339770112Y100019491D02*
X339893922Y100081396D01*
X339893922Y100081396D02*
X340141541Y100081396D01*
X340141541Y100081396D02*
X340265350Y100019491D01*
X340265350Y100019491D02*
X340327255Y99957586D01*
X340327255Y99957586D02*
X340389160Y99833777D01*
X340389160Y99833777D02*
X340389160Y99771872D01*
X340389160Y99771872D02*
X340327255Y99648062D01*
X340327255Y99648062D02*
X340265350Y99586158D01*
X340265350Y99586158D02*
X340141541Y99524253D01*
X340141541Y99524253D02*
X339893922Y99524253D01*
X339893922Y99524253D02*
X339770112Y99462348D01*
X339770112Y99462348D02*
X339708207Y99400443D01*
X339708207Y99400443D02*
X339646303Y99276634D01*
X339646303Y99276634D02*
X339646303Y99029015D01*
X339646303Y99029015D02*
X339708207Y98905205D01*
X339708207Y98905205D02*
X339770112Y98843300D01*
X339770112Y98843300D02*
X339893922Y98781396D01*
X339893922Y98781396D02*
X340141541Y98781396D01*
X340141541Y98781396D02*
X340265350Y98843300D01*
X340265350Y98843300D02*
X340327255Y98905205D01*
X340327255Y98905205D02*
X340389160Y99029015D01*
X340389160Y99029015D02*
X340389160Y99276634D01*
X340389160Y99276634D02*
X340327255Y99400443D01*
X340327255Y99400443D02*
X340265350Y99462348D01*
X340265350Y99462348D02*
X340141541Y99524253D01*
D10*
D11*
X14300000Y-257025000D02*
X14300000Y-259025000D01*
D10*
D11*
X64300000Y-257025000D02*
X64300000Y-259025000D01*
D10*
D11*
X114300000Y-257025000D02*
X114300000Y-259025000D01*
D10*
D11*
X164300000Y-257025000D02*
X164300000Y-259025000D01*
D10*
D11*
X214300000Y-257025000D02*
X214300000Y-259025000D01*
D10*
D11*
X264300000Y-257025000D02*
X264300000Y-259025000D01*
D10*
D11*
X314300000Y-257025000D02*
X314300000Y-259025000D01*
D10*
D11*
X364300000Y-257025000D02*
X364300000Y-259025000D01*
D10*
D11*
X-9610840Y-258618604D02*
X-10353697Y-258618604D01*
X-9982269Y-258618604D02*
X-9982269Y-257318604D01*
X-9982269Y-257318604D02*
X-10106078Y-257504319D01*
X-10106078Y-257504319D02*
X-10229888Y-257628128D01*
X-10229888Y-257628128D02*
X-10353697Y-257690033D01*
D10*
D11*
X39646303Y-257442414D02*
X39708207Y-257380509D01*
X39708207Y-257380509D02*
X39832017Y-257318604D01*
X39832017Y-257318604D02*
X40141541Y-257318604D01*
X40141541Y-257318604D02*
X40265350Y-257380509D01*
X40265350Y-257380509D02*
X40327255Y-257442414D01*
X40327255Y-257442414D02*
X40389160Y-257566223D01*
X40389160Y-257566223D02*
X40389160Y-257690033D01*
X40389160Y-257690033D02*
X40327255Y-257875747D01*
X40327255Y-257875747D02*
X39584398Y-258618604D01*
X39584398Y-258618604D02*
X40389160Y-258618604D01*
D10*
D11*
X89584398Y-257318604D02*
X90389160Y-257318604D01*
X90389160Y-257318604D02*
X89955826Y-257813842D01*
X89955826Y-257813842D02*
X90141541Y-257813842D01*
X90141541Y-257813842D02*
X90265350Y-257875747D01*
X90265350Y-257875747D02*
X90327255Y-257937652D01*
X90327255Y-257937652D02*
X90389160Y-258061461D01*
X90389160Y-258061461D02*
X90389160Y-258370985D01*
X90389160Y-258370985D02*
X90327255Y-258494795D01*
X90327255Y-258494795D02*
X90265350Y-258556700D01*
X90265350Y-258556700D02*
X90141541Y-258618604D01*
X90141541Y-258618604D02*
X89770112Y-258618604D01*
X89770112Y-258618604D02*
X89646303Y-258556700D01*
X89646303Y-258556700D02*
X89584398Y-258494795D01*
D10*
D11*
X140265350Y-257751938D02*
X140265350Y-258618604D01*
X139955826Y-257256700D02*
X139646303Y-258185271D01*
X139646303Y-258185271D02*
X140451064Y-258185271D01*
D10*
D11*
X190327255Y-257318604D02*
X189708207Y-257318604D01*
X189708207Y-257318604D02*
X189646303Y-257937652D01*
X189646303Y-257937652D02*
X189708207Y-257875747D01*
X189708207Y-257875747D02*
X189832017Y-257813842D01*
X189832017Y-257813842D02*
X190141541Y-257813842D01*
X190141541Y-257813842D02*
X190265350Y-257875747D01*
X190265350Y-257875747D02*
X190327255Y-257937652D01*
X190327255Y-257937652D02*
X190389160Y-258061461D01*
X190389160Y-258061461D02*
X190389160Y-258370985D01*
X190389160Y-258370985D02*
X190327255Y-258494795D01*
X190327255Y-258494795D02*
X190265350Y-258556700D01*
X190265350Y-258556700D02*
X190141541Y-258618604D01*
X190141541Y-258618604D02*
X189832017Y-258618604D01*
X189832017Y-258618604D02*
X189708207Y-258556700D01*
X189708207Y-258556700D02*
X189646303Y-258494795D01*
D10*
D11*
X240265350Y-257318604D02*
X240017731Y-257318604D01*
X240017731Y-257318604D02*
X239893922Y-257380509D01*
X239893922Y-257380509D02*
X239832017Y-257442414D01*
X239832017Y-257442414D02*
X239708207Y-257628128D01*
X239708207Y-257628128D02*
X239646303Y-257875747D01*
X239646303Y-257875747D02*
X239646303Y-258370985D01*
X239646303Y-258370985D02*
X239708207Y-258494795D01*
X239708207Y-258494795D02*
X239770112Y-258556700D01*
X239770112Y-258556700D02*
X239893922Y-258618604D01*
X239893922Y-258618604D02*
X240141541Y-258618604D01*
X240141541Y-258618604D02*
X240265350Y-258556700D01*
X240265350Y-258556700D02*
X240327255Y-258494795D01*
X240327255Y-258494795D02*
X240389160Y-258370985D01*
X240389160Y-258370985D02*
X240389160Y-258061461D01*
X240389160Y-258061461D02*
X240327255Y-257937652D01*
X240327255Y-257937652D02*
X240265350Y-257875747D01*
X240265350Y-257875747D02*
X240141541Y-257813842D01*
X240141541Y-257813842D02*
X239893922Y-257813842D01*
X239893922Y-257813842D02*
X239770112Y-257875747D01*
X239770112Y-257875747D02*
X239708207Y-257937652D01*
X239708207Y-257937652D02*
X239646303Y-258061461D01*
D10*
D11*
X289584398Y-257318604D02*
X290451064Y-257318604D01*
X290451064Y-257318604D02*
X289893922Y-258618604D01*
D10*
D11*
X339893922Y-257875747D02*
X339770112Y-257813842D01*
X339770112Y-257813842D02*
X339708207Y-257751938D01*
X339708207Y-257751938D02*
X339646303Y-257628128D01*
X339646303Y-257628128D02*
X339646303Y-257566223D01*
X339646303Y-257566223D02*
X339708207Y-257442414D01*
X339708207Y-257442414D02*
X339770112Y-257380509D01*
X339770112Y-257380509D02*
X339893922Y-257318604D01*
X339893922Y-257318604D02*
X340141541Y-257318604D01*
X340141541Y-257318604D02*
X340265350Y-257380509D01*
X340265350Y-257380509D02*
X340327255Y-257442414D01*
X340327255Y-257442414D02*
X340389160Y-257566223D01*
X340389160Y-257566223D02*
X340389160Y-257628128D01*
X340389160Y-257628128D02*
X340327255Y-257751938D01*
X340327255Y-257751938D02*
X340265350Y-257813842D01*
X340265350Y-257813842D02*
X340141541Y-257875747D01*
X340141541Y-257875747D02*
X339893922Y-257875747D01*
X339893922Y-257875747D02*
X339770112Y-257937652D01*
X339770112Y-257937652D02*
X339708207Y-257999557D01*
X339708207Y-257999557D02*
X339646303Y-258123366D01*
X339646303Y-258123366D02*
X339646303Y-258370985D01*
X339646303Y-258370985D02*
X339708207Y-258494795D01*
X339708207Y-258494795D02*
X339770112Y-258556700D01*
X339770112Y-258556700D02*
X339893922Y-258618604D01*
X339893922Y-258618604D02*
X340141541Y-258618604D01*
X340141541Y-258618604D02*
X340265350Y-258556700D01*
X340265350Y-258556700D02*
X340327255Y-258494795D01*
X340327255Y-258494795D02*
X340389160Y-258370985D01*
X340389160Y-258370985D02*
X340389160Y-258123366D01*
X340389160Y-258123366D02*
X340327255Y-257999557D01*
X340327255Y-257999557D02*
X340265350Y-257937652D01*
X340265350Y-257937652D02*
X340141541Y-257875747D01*
D10*
D11*
X-35700000Y50375000D02*
X-33700000Y50375000D01*
D10*
D11*
X-35700000Y375000D02*
X-33700000Y375000D01*
D10*
D11*
X-35700000Y-49625000D02*
X-33700000Y-49625000D01*
D10*
D11*
X-35700000Y-99625000D02*
X-33700000Y-99625000D01*
D10*
D11*
X-35700000Y-149625000D02*
X-33700000Y-149625000D01*
D10*
D11*
X-35700000Y-199625000D02*
X-33700000Y-199625000D01*
D10*
D11*
X-35700000Y-249625000D02*
X-33700000Y-249625000D01*
D10*
D11*
X-35009524Y75152824D02*
X-34390477Y75152824D01*
X-35133334Y74781396D02*
X-34700001Y76081396D01*
X-34700001Y76081396D02*
X-34266667Y74781396D01*
D10*
D11*
X-34607143Y25462348D02*
X-34421429Y25400443D01*
X-34421429Y25400443D02*
X-34359524Y25338539D01*
X-34359524Y25338539D02*
X-34297620Y25214729D01*
X-34297620Y25214729D02*
X-34297620Y25029015D01*
X-34297620Y25029015D02*
X-34359524Y24905205D01*
X-34359524Y24905205D02*
X-34421429Y24843300D01*
X-34421429Y24843300D02*
X-34545239Y24781396D01*
X-34545239Y24781396D02*
X-35040477Y24781396D01*
X-35040477Y24781396D02*
X-35040477Y26081396D01*
X-35040477Y26081396D02*
X-34607143Y26081396D01*
X-34607143Y26081396D02*
X-34483334Y26019491D01*
X-34483334Y26019491D02*
X-34421429Y25957586D01*
X-34421429Y25957586D02*
X-34359524Y25833777D01*
X-34359524Y25833777D02*
X-34359524Y25709967D01*
X-34359524Y25709967D02*
X-34421429Y25586158D01*
X-34421429Y25586158D02*
X-34483334Y25524253D01*
X-34483334Y25524253D02*
X-34607143Y25462348D01*
X-34607143Y25462348D02*
X-35040477Y25462348D01*
D10*
D11*
X-34297620Y-25094795D02*
X-34359524Y-25156700D01*
X-34359524Y-25156700D02*
X-34545239Y-25218604D01*
X-34545239Y-25218604D02*
X-34669048Y-25218604D01*
X-34669048Y-25218604D02*
X-34854762Y-25156700D01*
X-34854762Y-25156700D02*
X-34978572Y-25032890D01*
X-34978572Y-25032890D02*
X-35040477Y-24909080D01*
X-35040477Y-24909080D02*
X-35102381Y-24661461D01*
X-35102381Y-24661461D02*
X-35102381Y-24475747D01*
X-35102381Y-24475747D02*
X-35040477Y-24228128D01*
X-35040477Y-24228128D02*
X-34978572Y-24104319D01*
X-34978572Y-24104319D02*
X-34854762Y-23980509D01*
X-34854762Y-23980509D02*
X-34669048Y-23918604D01*
X-34669048Y-23918604D02*
X-34545239Y-23918604D01*
X-34545239Y-23918604D02*
X-34359524Y-23980509D01*
X-34359524Y-23980509D02*
X-34297620Y-24042414D01*
D10*
D11*
X-35040477Y-75218604D02*
X-35040477Y-73918604D01*
X-35040477Y-73918604D02*
X-34730953Y-73918604D01*
X-34730953Y-73918604D02*
X-34545239Y-73980509D01*
X-34545239Y-73980509D02*
X-34421429Y-74104319D01*
X-34421429Y-74104319D02*
X-34359524Y-74228128D01*
X-34359524Y-74228128D02*
X-34297620Y-74475747D01*
X-34297620Y-74475747D02*
X-34297620Y-74661461D01*
X-34297620Y-74661461D02*
X-34359524Y-74909080D01*
X-34359524Y-74909080D02*
X-34421429Y-75032890D01*
X-34421429Y-75032890D02*
X-34545239Y-75156700D01*
X-34545239Y-75156700D02*
X-34730953Y-75218604D01*
X-34730953Y-75218604D02*
X-35040477Y-75218604D01*
D10*
D11*
X-34978572Y-124537652D02*
X-34545238Y-124537652D01*
X-34359524Y-125218604D02*
X-34978572Y-125218604D01*
X-34978572Y-125218604D02*
X-34978572Y-123918604D01*
X-34978572Y-123918604D02*
X-34359524Y-123918604D01*
D10*
D11*
X-34514286Y-174537652D02*
X-34947620Y-174537652D01*
X-34947620Y-175218604D02*
X-34947620Y-173918604D01*
X-34947620Y-173918604D02*
X-34328572Y-173918604D01*
D10*
D11*
X-34359524Y-223980509D02*
X-34483334Y-223918604D01*
X-34483334Y-223918604D02*
X-34669048Y-223918604D01*
X-34669048Y-223918604D02*
X-34854762Y-223980509D01*
X-34854762Y-223980509D02*
X-34978572Y-224104319D01*
X-34978572Y-224104319D02*
X-35040477Y-224228128D01*
X-35040477Y-224228128D02*
X-35102381Y-224475747D01*
X-35102381Y-224475747D02*
X-35102381Y-224661461D01*
X-35102381Y-224661461D02*
X-35040477Y-224909080D01*
X-35040477Y-224909080D02*
X-34978572Y-225032890D01*
X-34978572Y-225032890D02*
X-34854762Y-225156700D01*
X-34854762Y-225156700D02*
X-34669048Y-225218604D01*
X-34669048Y-225218604D02*
X-34545239Y-225218604D01*
X-34545239Y-225218604D02*
X-34359524Y-225156700D01*
X-34359524Y-225156700D02*
X-34297620Y-225094795D01*
X-34297620Y-225094795D02*
X-34297620Y-224661461D01*
X-34297620Y-224661461D02*
X-34545239Y-224661461D01*
D10*
D11*
X376100000Y50375000D02*
X374100000Y50375000D01*
D10*
D11*
X376100000Y375000D02*
X374100000Y375000D01*
D10*
D11*
X376100000Y-49625000D02*
X374100000Y-49625000D01*
D10*
D11*
X376100000Y-99625000D02*
X374100000Y-99625000D01*
D10*
D11*
X376100000Y-149625000D02*
X374100000Y-149625000D01*
D10*
D11*
X376100000Y-199625000D02*
X374100000Y-199625000D01*
D10*
D11*
X376100000Y-249625000D02*
X374100000Y-249625000D01*
D10*
D11*
X374790476Y75152824D02*
X375409523Y75152824D01*
X374666666Y74781396D02*
X375099999Y76081396D01*
X375099999Y76081396D02*
X375533333Y74781396D01*
D10*
D11*
X375192857Y25462348D02*
X375378571Y25400443D01*
X375378571Y25400443D02*
X375440476Y25338539D01*
X375440476Y25338539D02*
X375502380Y25214729D01*
X375502380Y25214729D02*
X375502380Y25029015D01*
X375502380Y25029015D02*
X375440476Y24905205D01*
X375440476Y24905205D02*
X375378571Y24843300D01*
X375378571Y24843300D02*
X375254761Y24781396D01*
X375254761Y24781396D02*
X374759523Y24781396D01*
X374759523Y24781396D02*
X374759523Y26081396D01*
X374759523Y26081396D02*
X375192857Y26081396D01*
X375192857Y26081396D02*
X375316666Y26019491D01*
X375316666Y26019491D02*
X375378571Y25957586D01*
X375378571Y25957586D02*
X375440476Y25833777D01*
X375440476Y25833777D02*
X375440476Y25709967D01*
X375440476Y25709967D02*
X375378571Y25586158D01*
X375378571Y25586158D02*
X375316666Y25524253D01*
X375316666Y25524253D02*
X375192857Y25462348D01*
X375192857Y25462348D02*
X374759523Y25462348D01*
D10*
D11*
X375502380Y-25094795D02*
X375440476Y-25156700D01*
X375440476Y-25156700D02*
X375254761Y-25218604D01*
X375254761Y-25218604D02*
X375130952Y-25218604D01*
X375130952Y-25218604D02*
X374945238Y-25156700D01*
X374945238Y-25156700D02*
X374821428Y-25032890D01*
X374821428Y-25032890D02*
X374759523Y-24909080D01*
X374759523Y-24909080D02*
X374697619Y-24661461D01*
X374697619Y-24661461D02*
X374697619Y-24475747D01*
X374697619Y-24475747D02*
X374759523Y-24228128D01*
X374759523Y-24228128D02*
X374821428Y-24104319D01*
X374821428Y-24104319D02*
X374945238Y-23980509D01*
X374945238Y-23980509D02*
X375130952Y-23918604D01*
X375130952Y-23918604D02*
X375254761Y-23918604D01*
X375254761Y-23918604D02*
X375440476Y-23980509D01*
X375440476Y-23980509D02*
X375502380Y-24042414D01*
D10*
D11*
X374759523Y-75218604D02*
X374759523Y-73918604D01*
X374759523Y-73918604D02*
X375069047Y-73918604D01*
X375069047Y-73918604D02*
X375254761Y-73980509D01*
X375254761Y-73980509D02*
X375378571Y-74104319D01*
X375378571Y-74104319D02*
X375440476Y-74228128D01*
X375440476Y-74228128D02*
X375502380Y-74475747D01*
X375502380Y-74475747D02*
X375502380Y-74661461D01*
X375502380Y-74661461D02*
X375440476Y-74909080D01*
X375440476Y-74909080D02*
X375378571Y-75032890D01*
X375378571Y-75032890D02*
X375254761Y-75156700D01*
X375254761Y-75156700D02*
X375069047Y-75218604D01*
X375069047Y-75218604D02*
X374759523Y-75218604D01*
D10*
D11*
X374821428Y-124537652D02*
X375254762Y-124537652D01*
X375440476Y-125218604D02*
X374821428Y-125218604D01*
X374821428Y-125218604D02*
X374821428Y-123918604D01*
X374821428Y-123918604D02*
X375440476Y-123918604D01*
D10*
D11*
X375285714Y-174537652D02*
X374852380Y-174537652D01*
X374852380Y-175218604D02*
X374852380Y-173918604D01*
X374852380Y-173918604D02*
X375471428Y-173918604D01*
D10*
D11*
X375440476Y-223980509D02*
X375316666Y-223918604D01*
X375316666Y-223918604D02*
X375130952Y-223918604D01*
X375130952Y-223918604D02*
X374945238Y-223980509D01*
X374945238Y-223980509D02*
X374821428Y-224104319D01*
X374821428Y-224104319D02*
X374759523Y-224228128D01*
X374759523Y-224228128D02*
X374697619Y-224475747D01*
X374697619Y-224475747D02*
X374697619Y-224661461D01*
X374697619Y-224661461D02*
X374759523Y-224909080D01*
X374759523Y-224909080D02*
X374821428Y-225032890D01*
X374821428Y-225032890D02*
X374945238Y-225156700D01*
X374945238Y-225156700D02*
X375130952Y-225218604D01*
X375130952Y-225218604D02*
X375254761Y-225218604D01*
X375254761Y-225218604D02*
X375440476Y-225156700D01*
X375440476Y-225156700D02*
X375502380Y-225094795D01*
X375502380Y-225094795D02*
X375502380Y-224661461D01*
X375502380Y-224661461D02*
X375254761Y-224661461D01*
D10*
D11*
X289555826Y-252811128D02*
X289555826Y-251311128D01*
X289555826Y-251311128D02*
X289912969Y-251311128D01*
X289912969Y-251311128D02*
X290127255Y-251382557D01*
X290127255Y-251382557D02*
X290270112Y-251525414D01*
X290270112Y-251525414D02*
X290341541Y-251668271D01*
X290341541Y-251668271D02*
X290412969Y-251953985D01*
X290412969Y-251953985D02*
X290412969Y-252168271D01*
X290412969Y-252168271D02*
X290341541Y-252453985D01*
X290341541Y-252453985D02*
X290270112Y-252596842D01*
X290270112Y-252596842D02*
X290127255Y-252739700D01*
X290127255Y-252739700D02*
X289912969Y-252811128D01*
X289912969Y-252811128D02*
X289555826Y-252811128D01*
X291698684Y-252811128D02*
X291698684Y-252025414D01*
X291698684Y-252025414D02*
X291627255Y-251882557D01*
X291627255Y-251882557D02*
X291484398Y-251811128D01*
X291484398Y-251811128D02*
X291198684Y-251811128D01*
X291198684Y-251811128D02*
X291055826Y-251882557D01*
X291698684Y-252739700D02*
X291555826Y-252811128D01*
X291555826Y-252811128D02*
X291198684Y-252811128D01*
X291198684Y-252811128D02*
X291055826Y-252739700D01*
X291055826Y-252739700D02*
X290984398Y-252596842D01*
X290984398Y-252596842D02*
X290984398Y-252453985D01*
X290984398Y-252453985D02*
X291055826Y-252311128D01*
X291055826Y-252311128D02*
X291198684Y-252239700D01*
X291198684Y-252239700D02*
X291555826Y-252239700D01*
X291555826Y-252239700D02*
X291698684Y-252168271D01*
X292198684Y-251811128D02*
X292770112Y-251811128D01*
X292412969Y-251311128D02*
X292412969Y-252596842D01*
X292412969Y-252596842D02*
X292484398Y-252739700D01*
X292484398Y-252739700D02*
X292627255Y-252811128D01*
X292627255Y-252811128D02*
X292770112Y-252811128D01*
X293841541Y-252739700D02*
X293698684Y-252811128D01*
X293698684Y-252811128D02*
X293412970Y-252811128D01*
X293412970Y-252811128D02*
X293270112Y-252739700D01*
X293270112Y-252739700D02*
X293198684Y-252596842D01*
X293198684Y-252596842D02*
X293198684Y-252025414D01*
X293198684Y-252025414D02*
X293270112Y-251882557D01*
X293270112Y-251882557D02*
X293412970Y-251811128D01*
X293412970Y-251811128D02*
X293698684Y-251811128D01*
X293698684Y-251811128D02*
X293841541Y-251882557D01*
X293841541Y-251882557D02*
X293912970Y-252025414D01*
X293912970Y-252025414D02*
X293912970Y-252168271D01*
X293912970Y-252168271D02*
X293198684Y-252311128D01*
X294555826Y-252668271D02*
X294627255Y-252739700D01*
X294627255Y-252739700D02*
X294555826Y-252811128D01*
X294555826Y-252811128D02*
X294484398Y-252739700D01*
X294484398Y-252739700D02*
X294555826Y-252668271D01*
X294555826Y-252668271D02*
X294555826Y-252811128D01*
X294555826Y-251882557D02*
X294627255Y-251953985D01*
X294627255Y-251953985D02*
X294555826Y-252025414D01*
X294555826Y-252025414D02*
X294484398Y-251953985D01*
X294484398Y-251953985D02*
X294555826Y-251882557D01*
X294555826Y-251882557D02*
X294555826Y-252025414D01*
X296341541Y-251453985D02*
X296412969Y-251382557D01*
X296412969Y-251382557D02*
X296555827Y-251311128D01*
X296555827Y-251311128D02*
X296912969Y-251311128D01*
X296912969Y-251311128D02*
X297055827Y-251382557D01*
X297055827Y-251382557D02*
X297127255Y-251453985D01*
X297127255Y-251453985D02*
X297198684Y-251596842D01*
X297198684Y-251596842D02*
X297198684Y-251739700D01*
X297198684Y-251739700D02*
X297127255Y-251953985D01*
X297127255Y-251953985D02*
X296270112Y-252811128D01*
X296270112Y-252811128D02*
X297198684Y-252811128D01*
X298127255Y-251311128D02*
X298270112Y-251311128D01*
X298270112Y-251311128D02*
X298412969Y-251382557D01*
X298412969Y-251382557D02*
X298484398Y-251453985D01*
X298484398Y-251453985D02*
X298555826Y-251596842D01*
X298555826Y-251596842D02*
X298627255Y-251882557D01*
X298627255Y-251882557D02*
X298627255Y-252239700D01*
X298627255Y-252239700D02*
X298555826Y-252525414D01*
X298555826Y-252525414D02*
X298484398Y-252668271D01*
X298484398Y-252668271D02*
X298412969Y-252739700D01*
X298412969Y-252739700D02*
X298270112Y-252811128D01*
X298270112Y-252811128D02*
X298127255Y-252811128D01*
X298127255Y-252811128D02*
X297984398Y-252739700D01*
X297984398Y-252739700D02*
X297912969Y-252668271D01*
X297912969Y-252668271D02*
X297841540Y-252525414D01*
X297841540Y-252525414D02*
X297770112Y-252239700D01*
X297770112Y-252239700D02*
X297770112Y-251882557D01*
X297770112Y-251882557D02*
X297841540Y-251596842D01*
X297841540Y-251596842D02*
X297912969Y-251453985D01*
X297912969Y-251453985D02*
X297984398Y-251382557D01*
X297984398Y-251382557D02*
X298127255Y-251311128D01*
X299198683Y-251453985D02*
X299270111Y-251382557D01*
X299270111Y-251382557D02*
X299412969Y-251311128D01*
X299412969Y-251311128D02*
X299770111Y-251311128D01*
X299770111Y-251311128D02*
X299912969Y-251382557D01*
X299912969Y-251382557D02*
X299984397Y-251453985D01*
X299984397Y-251453985D02*
X300055826Y-251596842D01*
X300055826Y-251596842D02*
X300055826Y-251739700D01*
X300055826Y-251739700D02*
X299984397Y-251953985D01*
X299984397Y-251953985D02*
X299127254Y-252811128D01*
X299127254Y-252811128D02*
X300055826Y-252811128D01*
X300627254Y-251453985D02*
X300698682Y-251382557D01*
X300698682Y-251382557D02*
X300841540Y-251311128D01*
X300841540Y-251311128D02*
X301198682Y-251311128D01*
X301198682Y-251311128D02*
X301341540Y-251382557D01*
X301341540Y-251382557D02*
X301412968Y-251453985D01*
X301412968Y-251453985D02*
X301484397Y-251596842D01*
X301484397Y-251596842D02*
X301484397Y-251739700D01*
X301484397Y-251739700D02*
X301412968Y-251953985D01*
X301412968Y-251953985D02*
X300555825Y-252811128D01*
X300555825Y-252811128D02*
X301484397Y-252811128D01*
X302127253Y-252239700D02*
X303270111Y-252239700D01*
X304770111Y-252811128D02*
X303912968Y-252811128D01*
X304341539Y-252811128D02*
X304341539Y-251311128D01*
X304341539Y-251311128D02*
X304198682Y-251525414D01*
X304198682Y-251525414D02*
X304055825Y-251668271D01*
X304055825Y-251668271D02*
X303912968Y-251739700D01*
X305698682Y-251311128D02*
X305841539Y-251311128D01*
X305841539Y-251311128D02*
X305984396Y-251382557D01*
X305984396Y-251382557D02*
X306055825Y-251453985D01*
X306055825Y-251453985D02*
X306127253Y-251596842D01*
X306127253Y-251596842D02*
X306198682Y-251882557D01*
X306198682Y-251882557D02*
X306198682Y-252239700D01*
X306198682Y-252239700D02*
X306127253Y-252525414D01*
X306127253Y-252525414D02*
X306055825Y-252668271D01*
X306055825Y-252668271D02*
X305984396Y-252739700D01*
X305984396Y-252739700D02*
X305841539Y-252811128D01*
X305841539Y-252811128D02*
X305698682Y-252811128D01*
X305698682Y-252811128D02*
X305555825Y-252739700D01*
X305555825Y-252739700D02*
X305484396Y-252668271D01*
X305484396Y-252668271D02*
X305412967Y-252525414D01*
X305412967Y-252525414D02*
X305341539Y-252239700D01*
X305341539Y-252239700D02*
X305341539Y-251882557D01*
X305341539Y-251882557D02*
X305412967Y-251596842D01*
X305412967Y-251596842D02*
X305484396Y-251453985D01*
X305484396Y-251453985D02*
X305555825Y-251382557D01*
X305555825Y-251382557D02*
X305698682Y-251311128D01*
X306841538Y-252239700D02*
X307984396Y-252239700D01*
X309484396Y-252811128D02*
X308627253Y-252811128D01*
X309055824Y-252811128D02*
X309055824Y-251311128D01*
X309055824Y-251311128D02*
X308912967Y-251525414D01*
X308912967Y-251525414D02*
X308770110Y-251668271D01*
X308770110Y-251668271D02*
X308627253Y-251739700D01*
X310770110Y-251811128D02*
X310770110Y-252811128D01*
X310412967Y-251239700D02*
X310055824Y-252311128D01*
X310055824Y-252311128D02*
X310984395Y-252311128D01*
D10*
D11*
X266100000Y-253525000D02*
X374100000Y-253525000D01*
D10*
D11*
X267555826Y-255611128D02*
X267555826Y-254111128D01*
X268412969Y-255611128D02*
X267770112Y-254753985D01*
X268412969Y-254111128D02*
X267555826Y-254968271D01*
X269055826Y-255611128D02*
X269055826Y-254611128D01*
X269055826Y-254111128D02*
X268984398Y-254182557D01*
X268984398Y-254182557D02*
X269055826Y-254253985D01*
X269055826Y-254253985D02*
X269127255Y-254182557D01*
X269127255Y-254182557D02*
X269055826Y-254111128D01*
X269055826Y-254111128D02*
X269055826Y-254253985D01*
X270627255Y-255468271D02*
X270555827Y-255539700D01*
X270555827Y-255539700D02*
X270341541Y-255611128D01*
X270341541Y-255611128D02*
X270198684Y-255611128D01*
X270198684Y-255611128D02*
X269984398Y-255539700D01*
X269984398Y-255539700D02*
X269841541Y-255396842D01*
X269841541Y-255396842D02*
X269770112Y-255253985D01*
X269770112Y-255253985D02*
X269698684Y-254968271D01*
X269698684Y-254968271D02*
X269698684Y-254753985D01*
X269698684Y-254753985D02*
X269770112Y-254468271D01*
X269770112Y-254468271D02*
X269841541Y-254325414D01*
X269841541Y-254325414D02*
X269984398Y-254182557D01*
X269984398Y-254182557D02*
X270198684Y-254111128D01*
X270198684Y-254111128D02*
X270341541Y-254111128D01*
X270341541Y-254111128D02*
X270555827Y-254182557D01*
X270555827Y-254182557D02*
X270627255Y-254253985D01*
X271912970Y-255611128D02*
X271912970Y-254825414D01*
X271912970Y-254825414D02*
X271841541Y-254682557D01*
X271841541Y-254682557D02*
X271698684Y-254611128D01*
X271698684Y-254611128D02*
X271412970Y-254611128D01*
X271412970Y-254611128D02*
X271270112Y-254682557D01*
X271912970Y-255539700D02*
X271770112Y-255611128D01*
X271770112Y-255611128D02*
X271412970Y-255611128D01*
X271412970Y-255611128D02*
X271270112Y-255539700D01*
X271270112Y-255539700D02*
X271198684Y-255396842D01*
X271198684Y-255396842D02*
X271198684Y-255253985D01*
X271198684Y-255253985D02*
X271270112Y-255111128D01*
X271270112Y-255111128D02*
X271412970Y-255039700D01*
X271412970Y-255039700D02*
X271770112Y-255039700D01*
X271770112Y-255039700D02*
X271912970Y-254968271D01*
X273270113Y-255611128D02*
X273270113Y-254111128D01*
X273270113Y-255539700D02*
X273127255Y-255611128D01*
X273127255Y-255611128D02*
X272841541Y-255611128D01*
X272841541Y-255611128D02*
X272698684Y-255539700D01*
X272698684Y-255539700D02*
X272627255Y-255468271D01*
X272627255Y-255468271D02*
X272555827Y-255325414D01*
X272555827Y-255325414D02*
X272555827Y-254896842D01*
X272555827Y-254896842D02*
X272627255Y-254753985D01*
X272627255Y-254753985D02*
X272698684Y-254682557D01*
X272698684Y-254682557D02*
X272841541Y-254611128D01*
X272841541Y-254611128D02*
X273127255Y-254611128D01*
X273127255Y-254611128D02*
X273270113Y-254682557D01*
X275127255Y-254825414D02*
X275627255Y-254825414D01*
X275841541Y-255611128D02*
X275127255Y-255611128D01*
X275127255Y-255611128D02*
X275127255Y-254111128D01*
X275127255Y-254111128D02*
X275841541Y-254111128D01*
X276484398Y-255468271D02*
X276555827Y-255539700D01*
X276555827Y-255539700D02*
X276484398Y-255611128D01*
X276484398Y-255611128D02*
X276412970Y-255539700D01*
X276412970Y-255539700D02*
X276484398Y-255468271D01*
X276484398Y-255468271D02*
X276484398Y-255611128D01*
X277198684Y-255611128D02*
X277198684Y-254111128D01*
X277198684Y-254111128D02*
X277555827Y-254111128D01*
X277555827Y-254111128D02*
X277770113Y-254182557D01*
X277770113Y-254182557D02*
X277912970Y-254325414D01*
X277912970Y-254325414D02*
X277984399Y-254468271D01*
X277984399Y-254468271D02*
X278055827Y-254753985D01*
X278055827Y-254753985D02*
X278055827Y-254968271D01*
X278055827Y-254968271D02*
X277984399Y-255253985D01*
X277984399Y-255253985D02*
X277912970Y-255396842D01*
X277912970Y-255396842D02*
X277770113Y-255539700D01*
X277770113Y-255539700D02*
X277555827Y-255611128D01*
X277555827Y-255611128D02*
X277198684Y-255611128D01*
X278698684Y-255468271D02*
X278770113Y-255539700D01*
X278770113Y-255539700D02*
X278698684Y-255611128D01*
X278698684Y-255611128D02*
X278627256Y-255539700D01*
X278627256Y-255539700D02*
X278698684Y-255468271D01*
X278698684Y-255468271D02*
X278698684Y-255611128D01*
X279341542Y-255182557D02*
X280055828Y-255182557D01*
X279198685Y-255611128D02*
X279698685Y-254111128D01*
X279698685Y-254111128D02*
X280198685Y-255611128D01*
X280698684Y-255468271D02*
X280770113Y-255539700D01*
X280770113Y-255539700D02*
X280698684Y-255611128D01*
X280698684Y-255611128D02*
X280627256Y-255539700D01*
X280627256Y-255539700D02*
X280698684Y-255468271D01*
X280698684Y-255468271D02*
X280698684Y-255611128D01*
X282770113Y-254753985D02*
X282627256Y-254682557D01*
X282627256Y-254682557D02*
X282555827Y-254611128D01*
X282555827Y-254611128D02*
X282484399Y-254468271D01*
X282484399Y-254468271D02*
X282484399Y-254396842D01*
X282484399Y-254396842D02*
X282555827Y-254253985D01*
X282555827Y-254253985D02*
X282627256Y-254182557D01*
X282627256Y-254182557D02*
X282770113Y-254111128D01*
X282770113Y-254111128D02*
X283055827Y-254111128D01*
X283055827Y-254111128D02*
X283198685Y-254182557D01*
X283198685Y-254182557D02*
X283270113Y-254253985D01*
X283270113Y-254253985D02*
X283341542Y-254396842D01*
X283341542Y-254396842D02*
X283341542Y-254468271D01*
X283341542Y-254468271D02*
X283270113Y-254611128D01*
X283270113Y-254611128D02*
X283198685Y-254682557D01*
X283198685Y-254682557D02*
X283055827Y-254753985D01*
X283055827Y-254753985D02*
X282770113Y-254753985D01*
X282770113Y-254753985D02*
X282627256Y-254825414D01*
X282627256Y-254825414D02*
X282555827Y-254896842D01*
X282555827Y-254896842D02*
X282484399Y-255039700D01*
X282484399Y-255039700D02*
X282484399Y-255325414D01*
X282484399Y-255325414D02*
X282555827Y-255468271D01*
X282555827Y-255468271D02*
X282627256Y-255539700D01*
X282627256Y-255539700D02*
X282770113Y-255611128D01*
X282770113Y-255611128D02*
X283055827Y-255611128D01*
X283055827Y-255611128D02*
X283198685Y-255539700D01*
X283198685Y-255539700D02*
X283270113Y-255468271D01*
X283270113Y-255468271D02*
X283341542Y-255325414D01*
X283341542Y-255325414D02*
X283341542Y-255039700D01*
X283341542Y-255039700D02*
X283270113Y-254896842D01*
X283270113Y-254896842D02*
X283198685Y-254825414D01*
X283198685Y-254825414D02*
X283055827Y-254753985D01*
X283984398Y-255468271D02*
X284055827Y-255539700D01*
X284055827Y-255539700D02*
X283984398Y-255611128D01*
X283984398Y-255611128D02*
X283912970Y-255539700D01*
X283912970Y-255539700D02*
X283984398Y-255468271D01*
X283984398Y-255468271D02*
X283984398Y-255611128D01*
X284984399Y-254111128D02*
X285127256Y-254111128D01*
X285127256Y-254111128D02*
X285270113Y-254182557D01*
X285270113Y-254182557D02*
X285341542Y-254253985D01*
X285341542Y-254253985D02*
X285412970Y-254396842D01*
X285412970Y-254396842D02*
X285484399Y-254682557D01*
X285484399Y-254682557D02*
X285484399Y-255039700D01*
X285484399Y-255039700D02*
X285412970Y-255325414D01*
X285412970Y-255325414D02*
X285341542Y-255468271D01*
X285341542Y-255468271D02*
X285270113Y-255539700D01*
X285270113Y-255539700D02*
X285127256Y-255611128D01*
X285127256Y-255611128D02*
X284984399Y-255611128D01*
X284984399Y-255611128D02*
X284841542Y-255539700D01*
X284841542Y-255539700D02*
X284770113Y-255468271D01*
X284770113Y-255468271D02*
X284698684Y-255325414D01*
X284698684Y-255325414D02*
X284627256Y-255039700D01*
X284627256Y-255039700D02*
X284627256Y-254682557D01*
X284627256Y-254682557D02*
X284698684Y-254396842D01*
X284698684Y-254396842D02*
X284770113Y-254253985D01*
X284770113Y-254253985D02*
X284841542Y-254182557D01*
X284841542Y-254182557D02*
X284984399Y-254111128D01*
X286127255Y-255468271D02*
X286198684Y-255539700D01*
X286198684Y-255539700D02*
X286127255Y-255611128D01*
X286127255Y-255611128D02*
X286055827Y-255539700D01*
X286055827Y-255539700D02*
X286127255Y-255468271D01*
X286127255Y-255468271D02*
X286127255Y-255611128D01*
X287055827Y-254753985D02*
X286912970Y-254682557D01*
X286912970Y-254682557D02*
X286841541Y-254611128D01*
X286841541Y-254611128D02*
X286770113Y-254468271D01*
X286770113Y-254468271D02*
X286770113Y-254396842D01*
X286770113Y-254396842D02*
X286841541Y-254253985D01*
X286841541Y-254253985D02*
X286912970Y-254182557D01*
X286912970Y-254182557D02*
X287055827Y-254111128D01*
X287055827Y-254111128D02*
X287341541Y-254111128D01*
X287341541Y-254111128D02*
X287484399Y-254182557D01*
X287484399Y-254182557D02*
X287555827Y-254253985D01*
X287555827Y-254253985D02*
X287627256Y-254396842D01*
X287627256Y-254396842D02*
X287627256Y-254468271D01*
X287627256Y-254468271D02*
X287555827Y-254611128D01*
X287555827Y-254611128D02*
X287484399Y-254682557D01*
X287484399Y-254682557D02*
X287341541Y-254753985D01*
X287341541Y-254753985D02*
X287055827Y-254753985D01*
X287055827Y-254753985D02*
X286912970Y-254825414D01*
X286912970Y-254825414D02*
X286841541Y-254896842D01*
X286841541Y-254896842D02*
X286770113Y-255039700D01*
X286770113Y-255039700D02*
X286770113Y-255325414D01*
X286770113Y-255325414D02*
X286841541Y-255468271D01*
X286841541Y-255468271D02*
X286912970Y-255539700D01*
X286912970Y-255539700D02*
X287055827Y-255611128D01*
X287055827Y-255611128D02*
X287341541Y-255611128D01*
X287341541Y-255611128D02*
X287484399Y-255539700D01*
X287484399Y-255539700D02*
X287555827Y-255468271D01*
X287555827Y-255468271D02*
X287627256Y-255325414D01*
X287627256Y-255325414D02*
X287627256Y-255039700D01*
X287627256Y-255039700D02*
X287555827Y-254896842D01*
X287555827Y-254896842D02*
X287484399Y-254825414D01*
X287484399Y-254825414D02*
X287341541Y-254753985D01*
D10*
D11*
X266100000Y-250525000D02*
X374100000Y-250525000D01*
D10*
D12*
X353511653Y-252803328D02*
X353011653Y-252089042D01*
X352654510Y-252803328D02*
X352654510Y-251303328D01*
X352654510Y-251303328D02*
X353225939Y-251303328D01*
X353225939Y-251303328D02*
X353368796Y-251374757D01*
X353368796Y-251374757D02*
X353440225Y-251446185D01*
X353440225Y-251446185D02*
X353511653Y-251589042D01*
X353511653Y-251589042D02*
X353511653Y-251803328D01*
X353511653Y-251803328D02*
X353440225Y-251946185D01*
X353440225Y-251946185D02*
X353368796Y-252017614D01*
X353368796Y-252017614D02*
X353225939Y-252089042D01*
X353225939Y-252089042D02*
X352654510Y-252089042D01*
X354725939Y-252731900D02*
X354583082Y-252803328D01*
X354583082Y-252803328D02*
X354297368Y-252803328D01*
X354297368Y-252803328D02*
X354154510Y-252731900D01*
X354154510Y-252731900D02*
X354083082Y-252589042D01*
X354083082Y-252589042D02*
X354083082Y-252017614D01*
X354083082Y-252017614D02*
X354154510Y-251874757D01*
X354154510Y-251874757D02*
X354297368Y-251803328D01*
X354297368Y-251803328D02*
X354583082Y-251803328D01*
X354583082Y-251803328D02*
X354725939Y-251874757D01*
X354725939Y-251874757D02*
X354797368Y-252017614D01*
X354797368Y-252017614D02*
X354797368Y-252160471D01*
X354797368Y-252160471D02*
X354083082Y-252303328D01*
X355297367Y-251803328D02*
X355654510Y-252803328D01*
X355654510Y-252803328D02*
X356011653Y-251803328D01*
X356583081Y-252660471D02*
X356654510Y-252731900D01*
X356654510Y-252731900D02*
X356583081Y-252803328D01*
X356583081Y-252803328D02*
X356511653Y-252731900D01*
X356511653Y-252731900D02*
X356583081Y-252660471D01*
X356583081Y-252660471D02*
X356583081Y-252803328D01*
X356583081Y-251874757D02*
X356654510Y-251946185D01*
X356654510Y-251946185D02*
X356583081Y-252017614D01*
X356583081Y-252017614D02*
X356511653Y-251946185D01*
X356511653Y-251946185D02*
X356583081Y-251874757D01*
X356583081Y-251874757D02*
X356583081Y-252017614D01*
X359083082Y-252803328D02*
X359083082Y-251303328D01*
X359083082Y-252731900D02*
X358940224Y-252803328D01*
X358940224Y-252803328D02*
X358654510Y-252803328D01*
X358654510Y-252803328D02*
X358511653Y-252731900D01*
X358511653Y-252731900D02*
X358440224Y-252660471D01*
X358440224Y-252660471D02*
X358368796Y-252517614D01*
X358368796Y-252517614D02*
X358368796Y-252089042D01*
X358368796Y-252089042D02*
X358440224Y-251946185D01*
X358440224Y-251946185D02*
X358511653Y-251874757D01*
X358511653Y-251874757D02*
X358654510Y-251803328D01*
X358654510Y-251803328D02*
X358940224Y-251803328D01*
X358940224Y-251803328D02*
X359083082Y-251874757D01*
D10*
D11*
X267484398Y-252739700D02*
X267698684Y-252811128D01*
X267698684Y-252811128D02*
X268055826Y-252811128D01*
X268055826Y-252811128D02*
X268198684Y-252739700D01*
X268198684Y-252739700D02*
X268270112Y-252668271D01*
X268270112Y-252668271D02*
X268341541Y-252525414D01*
X268341541Y-252525414D02*
X268341541Y-252382557D01*
X268341541Y-252382557D02*
X268270112Y-252239700D01*
X268270112Y-252239700D02*
X268198684Y-252168271D01*
X268198684Y-252168271D02*
X268055826Y-252096842D01*
X268055826Y-252096842D02*
X267770112Y-252025414D01*
X267770112Y-252025414D02*
X267627255Y-251953985D01*
X267627255Y-251953985D02*
X267555826Y-251882557D01*
X267555826Y-251882557D02*
X267484398Y-251739700D01*
X267484398Y-251739700D02*
X267484398Y-251596842D01*
X267484398Y-251596842D02*
X267555826Y-251453985D01*
X267555826Y-251453985D02*
X267627255Y-251382557D01*
X267627255Y-251382557D02*
X267770112Y-251311128D01*
X267770112Y-251311128D02*
X268127255Y-251311128D01*
X268127255Y-251311128D02*
X268341541Y-251382557D01*
X268984397Y-252811128D02*
X268984397Y-251811128D01*
X268984397Y-251311128D02*
X268912969Y-251382557D01*
X268912969Y-251382557D02*
X268984397Y-251453985D01*
X268984397Y-251453985D02*
X269055826Y-251382557D01*
X269055826Y-251382557D02*
X268984397Y-251311128D01*
X268984397Y-251311128D02*
X268984397Y-251453985D01*
X269555826Y-251811128D02*
X270341541Y-251811128D01*
X270341541Y-251811128D02*
X269555826Y-252811128D01*
X269555826Y-252811128D02*
X270341541Y-252811128D01*
X271484398Y-252739700D02*
X271341541Y-252811128D01*
X271341541Y-252811128D02*
X271055827Y-252811128D01*
X271055827Y-252811128D02*
X270912969Y-252739700D01*
X270912969Y-252739700D02*
X270841541Y-252596842D01*
X270841541Y-252596842D02*
X270841541Y-252025414D01*
X270841541Y-252025414D02*
X270912969Y-251882557D01*
X270912969Y-251882557D02*
X271055827Y-251811128D01*
X271055827Y-251811128D02*
X271341541Y-251811128D01*
X271341541Y-251811128D02*
X271484398Y-251882557D01*
X271484398Y-251882557D02*
X271555827Y-252025414D01*
X271555827Y-252025414D02*
X271555827Y-252168271D01*
X271555827Y-252168271D02*
X270841541Y-252311128D01*
X272198683Y-252668271D02*
X272270112Y-252739700D01*
X272270112Y-252739700D02*
X272198683Y-252811128D01*
X272198683Y-252811128D02*
X272127255Y-252739700D01*
X272127255Y-252739700D02*
X272198683Y-252668271D01*
X272198683Y-252668271D02*
X272198683Y-252811128D01*
X272198683Y-251882557D02*
X272270112Y-251953985D01*
X272270112Y-251953985D02*
X272198683Y-252025414D01*
X272198683Y-252025414D02*
X272127255Y-251953985D01*
X272127255Y-251953985D02*
X272198683Y-251882557D01*
X272198683Y-251882557D02*
X272198683Y-252025414D01*
X274055826Y-251311128D02*
X274055826Y-252525414D01*
X274055826Y-252525414D02*
X274127255Y-252668271D01*
X274127255Y-252668271D02*
X274198684Y-252739700D01*
X274198684Y-252739700D02*
X274341541Y-252811128D01*
X274341541Y-252811128D02*
X274627255Y-252811128D01*
X274627255Y-252811128D02*
X274770112Y-252739700D01*
X274770112Y-252739700D02*
X274841541Y-252668271D01*
X274841541Y-252668271D02*
X274912969Y-252525414D01*
X274912969Y-252525414D02*
X274912969Y-251311128D01*
X275555827Y-252739700D02*
X275698684Y-252811128D01*
X275698684Y-252811128D02*
X275984398Y-252811128D01*
X275984398Y-252811128D02*
X276127255Y-252739700D01*
X276127255Y-252739700D02*
X276198684Y-252596842D01*
X276198684Y-252596842D02*
X276198684Y-252525414D01*
X276198684Y-252525414D02*
X276127255Y-252382557D01*
X276127255Y-252382557D02*
X275984398Y-252311128D01*
X275984398Y-252311128D02*
X275770113Y-252311128D01*
X275770113Y-252311128D02*
X275627255Y-252239700D01*
X275627255Y-252239700D02*
X275555827Y-252096842D01*
X275555827Y-252096842D02*
X275555827Y-252025414D01*
X275555827Y-252025414D02*
X275627255Y-251882557D01*
X275627255Y-251882557D02*
X275770113Y-251811128D01*
X275770113Y-251811128D02*
X275984398Y-251811128D01*
X275984398Y-251811128D02*
X276127255Y-251882557D01*
X277412970Y-252739700D02*
X277270113Y-252811128D01*
X277270113Y-252811128D02*
X276984399Y-252811128D01*
X276984399Y-252811128D02*
X276841541Y-252739700D01*
X276841541Y-252739700D02*
X276770113Y-252596842D01*
X276770113Y-252596842D02*
X276770113Y-252025414D01*
X276770113Y-252025414D02*
X276841541Y-251882557D01*
X276841541Y-251882557D02*
X276984399Y-251811128D01*
X276984399Y-251811128D02*
X277270113Y-251811128D01*
X277270113Y-251811128D02*
X277412970Y-251882557D01*
X277412970Y-251882557D02*
X277484399Y-252025414D01*
X277484399Y-252025414D02*
X277484399Y-252168271D01*
X277484399Y-252168271D02*
X276770113Y-252311128D01*
X278127255Y-252811128D02*
X278127255Y-251811128D01*
X278127255Y-252096842D02*
X278198684Y-251953985D01*
X278198684Y-251953985D02*
X278270113Y-251882557D01*
X278270113Y-251882557D02*
X278412970Y-251811128D01*
X278412970Y-251811128D02*
X278555827Y-251811128D01*
D10*
D11*
X352555826Y-255611128D02*
X352555826Y-254111128D01*
X353912970Y-255611128D02*
X353912970Y-254111128D01*
X353912970Y-255539700D02*
X353770112Y-255611128D01*
X353770112Y-255611128D02*
X353484398Y-255611128D01*
X353484398Y-255611128D02*
X353341541Y-255539700D01*
X353341541Y-255539700D02*
X353270112Y-255468271D01*
X353270112Y-255468271D02*
X353198684Y-255325414D01*
X353198684Y-255325414D02*
X353198684Y-254896842D01*
X353198684Y-254896842D02*
X353270112Y-254753985D01*
X353270112Y-254753985D02*
X353341541Y-254682557D01*
X353341541Y-254682557D02*
X353484398Y-254611128D01*
X353484398Y-254611128D02*
X353770112Y-254611128D01*
X353770112Y-254611128D02*
X353912970Y-254682557D01*
X354627255Y-255468271D02*
X354698684Y-255539700D01*
X354698684Y-255539700D02*
X354627255Y-255611128D01*
X354627255Y-255611128D02*
X354555827Y-255539700D01*
X354555827Y-255539700D02*
X354627255Y-255468271D01*
X354627255Y-255468271D02*
X354627255Y-255611128D01*
X354627255Y-254682557D02*
X354698684Y-254753985D01*
X354698684Y-254753985D02*
X354627255Y-254825414D01*
X354627255Y-254825414D02*
X354555827Y-254753985D01*
X354555827Y-254753985D02*
X354627255Y-254682557D01*
X354627255Y-254682557D02*
X354627255Y-254825414D01*
X357270113Y-255611128D02*
X356412970Y-255611128D01*
X356841541Y-255611128D02*
X356841541Y-254111128D01*
X356841541Y-254111128D02*
X356698684Y-254325414D01*
X356698684Y-254325414D02*
X356555827Y-254468271D01*
X356555827Y-254468271D02*
X356412970Y-254539700D01*
X358984398Y-254039700D02*
X357698684Y-255968271D01*
X360270113Y-255611128D02*
X359412970Y-255611128D01*
X359841541Y-255611128D02*
X359841541Y-254111128D01*
X359841541Y-254111128D02*
X359698684Y-254325414D01*
X359698684Y-254325414D02*
X359555827Y-254468271D01*
X359555827Y-254468271D02*
X359412970Y-254539700D01*
D10*
D11*
X266100000Y-246525000D02*
X374100000Y-246525000D01*
D10*
D13*
X267791728Y-247229438D02*
X268934585Y-247229438D01*
X268113157Y-249229438D02*
X268363157Y-247229438D01*
X269351252Y-249229438D02*
X269517919Y-247896104D01*
X269601252Y-247229438D02*
X269494109Y-247324676D01*
X269494109Y-247324676D02*
X269577443Y-247419914D01*
X269577443Y-247419914D02*
X269684586Y-247324676D01*
X269684586Y-247324676D02*
X269601252Y-247229438D01*
X269601252Y-247229438D02*
X269577443Y-247419914D01*
X270184586Y-247896104D02*
X270946490Y-247896104D01*
X270553633Y-247229438D02*
X270339348Y-248943723D01*
X270339348Y-248943723D02*
X270410776Y-249134200D01*
X270410776Y-249134200D02*
X270589348Y-249229438D01*
X270589348Y-249229438D02*
X270779824Y-249229438D01*
X271732205Y-249229438D02*
X271553633Y-249134200D01*
X271553633Y-249134200D02*
X271482205Y-248943723D01*
X271482205Y-248943723D02*
X271696490Y-247229438D01*
X273267919Y-249134200D02*
X273065538Y-249229438D01*
X273065538Y-249229438D02*
X272684585Y-249229438D01*
X272684585Y-249229438D02*
X272506014Y-249134200D01*
X272506014Y-249134200D02*
X272434585Y-248943723D01*
X272434585Y-248943723D02*
X272529824Y-248181819D01*
X272529824Y-248181819D02*
X272648871Y-247991342D01*
X272648871Y-247991342D02*
X272851252Y-247896104D01*
X272851252Y-247896104D02*
X273232204Y-247896104D01*
X273232204Y-247896104D02*
X273410776Y-247991342D01*
X273410776Y-247991342D02*
X273482204Y-248181819D01*
X273482204Y-248181819D02*
X273458395Y-248372295D01*
X273458395Y-248372295D02*
X272482204Y-248562771D01*
X274232205Y-249038961D02*
X274315538Y-249134200D01*
X274315538Y-249134200D02*
X274208395Y-249229438D01*
X274208395Y-249229438D02*
X274125062Y-249134200D01*
X274125062Y-249134200D02*
X274232205Y-249038961D01*
X274232205Y-249038961D02*
X274208395Y-249229438D01*
X274363157Y-247991342D02*
X274446490Y-248086580D01*
X274446490Y-248086580D02*
X274339348Y-248181819D01*
X274339348Y-248181819D02*
X274256014Y-248086580D01*
X274256014Y-248086580D02*
X274363157Y-247991342D01*
X274363157Y-247991342D02*
X274339348Y-248181819D01*
X276684586Y-249229438D02*
X276934586Y-247229438D01*
X276815539Y-248181819D02*
X277958396Y-248181819D01*
X277827443Y-249229438D02*
X278077443Y-247229438D01*
X279553634Y-249134200D02*
X279351253Y-249229438D01*
X279351253Y-249229438D02*
X278970300Y-249229438D01*
X278970300Y-249229438D02*
X278791729Y-249134200D01*
X278791729Y-249134200D02*
X278720300Y-248943723D01*
X278720300Y-248943723D02*
X278815539Y-248181819D01*
X278815539Y-248181819D02*
X278934586Y-247991342D01*
X278934586Y-247991342D02*
X279136967Y-247896104D01*
X279136967Y-247896104D02*
X279517919Y-247896104D01*
X279517919Y-247896104D02*
X279696491Y-247991342D01*
X279696491Y-247991342D02*
X279767919Y-248181819D01*
X279767919Y-248181819D02*
X279744110Y-248372295D01*
X279744110Y-248372295D02*
X278767919Y-248562771D01*
X280779825Y-249229438D02*
X280601253Y-249134200D01*
X280601253Y-249134200D02*
X280529825Y-248943723D01*
X280529825Y-248943723D02*
X280744110Y-247229438D01*
X281827444Y-249229438D02*
X281648872Y-249134200D01*
X281648872Y-249134200D02*
X281577444Y-248943723D01*
X281577444Y-248943723D02*
X281791729Y-247229438D01*
X283363158Y-249134200D02*
X283160777Y-249229438D01*
X283160777Y-249229438D02*
X282779824Y-249229438D01*
X282779824Y-249229438D02*
X282601253Y-249134200D01*
X282601253Y-249134200D02*
X282529824Y-248943723D01*
X282529824Y-248943723D02*
X282625063Y-248181819D01*
X282625063Y-248181819D02*
X282744110Y-247991342D01*
X282744110Y-247991342D02*
X282946491Y-247896104D01*
X282946491Y-247896104D02*
X283327443Y-247896104D01*
X283327443Y-247896104D02*
X283506015Y-247991342D01*
X283506015Y-247991342D02*
X283577443Y-248181819D01*
X283577443Y-248181819D02*
X283553634Y-248372295D01*
X283553634Y-248372295D02*
X282577443Y-248562771D01*
X284470301Y-247896104D02*
X284303634Y-249229438D01*
X284446491Y-248086580D02*
X284553634Y-247991342D01*
X284553634Y-247991342D02*
X284756015Y-247896104D01*
X284756015Y-247896104D02*
X285041729Y-247896104D01*
X285041729Y-247896104D02*
X285220301Y-247991342D01*
X285220301Y-247991342D02*
X285291729Y-248181819D01*
X285291729Y-248181819D02*
X285160777Y-249229438D01*
X287160777Y-249229438D02*
X286017920Y-249229438D01*
X286589349Y-249229438D02*
X286839349Y-247229438D01*
X286839349Y-247229438D02*
X286613158Y-247515152D01*
X286613158Y-247515152D02*
X286398873Y-247705628D01*
X286398873Y-247705628D02*
X286196492Y-247800866D01*
X288148873Y-247419914D02*
X288256015Y-247324676D01*
X288256015Y-247324676D02*
X288458396Y-247229438D01*
X288458396Y-247229438D02*
X288934587Y-247229438D01*
X288934587Y-247229438D02*
X289113158Y-247324676D01*
X289113158Y-247324676D02*
X289196492Y-247419914D01*
X289196492Y-247419914D02*
X289267920Y-247610390D01*
X289267920Y-247610390D02*
X289244111Y-247800866D01*
X289244111Y-247800866D02*
X289113158Y-248086580D01*
X289113158Y-248086580D02*
X287827444Y-249229438D01*
X287827444Y-249229438D02*
X289065539Y-249229438D01*
X290970301Y-249229438D02*
X289827444Y-249229438D01*
X290398873Y-249229438D02*
X290648873Y-247229438D01*
X290648873Y-247229438D02*
X290422682Y-247515152D01*
X290422682Y-247515152D02*
X290208397Y-247705628D01*
X290208397Y-247705628D02*
X290006016Y-247800866D01*
X291803635Y-247896104D02*
X292113159Y-249229438D01*
X292113159Y-249229438D02*
X292756016Y-247896104D01*
X294208397Y-249229438D02*
X294339349Y-248181819D01*
X294339349Y-248181819D02*
X294267921Y-247991342D01*
X294267921Y-247991342D02*
X294089349Y-247896104D01*
X294089349Y-247896104D02*
X293708397Y-247896104D01*
X293708397Y-247896104D02*
X293506016Y-247991342D01*
X294220302Y-249134200D02*
X294017921Y-249229438D01*
X294017921Y-249229438D02*
X293541730Y-249229438D01*
X293541730Y-249229438D02*
X293363159Y-249134200D01*
X293363159Y-249134200D02*
X293291730Y-248943723D01*
X293291730Y-248943723D02*
X293315540Y-248753247D01*
X293315540Y-248753247D02*
X293434588Y-248562771D01*
X293434588Y-248562771D02*
X293636969Y-248467533D01*
X293636969Y-248467533D02*
X294113159Y-248467533D01*
X294113159Y-248467533D02*
X294315540Y-248372295D01*
X296184588Y-247896104D02*
X295982207Y-249515152D01*
X295982207Y-249515152D02*
X295863159Y-249705628D01*
X295863159Y-249705628D02*
X295756016Y-249800866D01*
X295756016Y-249800866D02*
X295553635Y-249896104D01*
X295553635Y-249896104D02*
X295267921Y-249896104D01*
X295267921Y-249896104D02*
X295089350Y-249800866D01*
X296029826Y-249134200D02*
X295827445Y-249229438D01*
X295827445Y-249229438D02*
X295446493Y-249229438D01*
X295446493Y-249229438D02*
X295267921Y-249134200D01*
X295267921Y-249134200D02*
X295184588Y-249038961D01*
X295184588Y-249038961D02*
X295113159Y-248848485D01*
X295113159Y-248848485D02*
X295184588Y-248277057D01*
X295184588Y-248277057D02*
X295303635Y-248086580D01*
X295303635Y-248086580D02*
X295410778Y-247991342D01*
X295410778Y-247991342D02*
X295613159Y-247896104D01*
X295613159Y-247896104D02*
X295994112Y-247896104D01*
X295994112Y-247896104D02*
X296172683Y-247991342D01*
D10*
D11*
X268055826Y-244625414D02*
X267555826Y-244625414D01*
X267555826Y-245411128D02*
X267555826Y-243911128D01*
X267555826Y-243911128D02*
X268270112Y-243911128D01*
X268841540Y-245411128D02*
X268841540Y-244411128D01*
X268841540Y-243911128D02*
X268770112Y-243982557D01*
X268770112Y-243982557D02*
X268841540Y-244053985D01*
X268841540Y-244053985D02*
X268912969Y-243982557D01*
X268912969Y-243982557D02*
X268841540Y-243911128D01*
X268841540Y-243911128D02*
X268841540Y-244053985D01*
X269770112Y-245411128D02*
X269627255Y-245339700D01*
X269627255Y-245339700D02*
X269555826Y-245196842D01*
X269555826Y-245196842D02*
X269555826Y-243911128D01*
X270912969Y-245339700D02*
X270770112Y-245411128D01*
X270770112Y-245411128D02*
X270484398Y-245411128D01*
X270484398Y-245411128D02*
X270341540Y-245339700D01*
X270341540Y-245339700D02*
X270270112Y-245196842D01*
X270270112Y-245196842D02*
X270270112Y-244625414D01*
X270270112Y-244625414D02*
X270341540Y-244482557D01*
X270341540Y-244482557D02*
X270484398Y-244411128D01*
X270484398Y-244411128D02*
X270770112Y-244411128D01*
X270770112Y-244411128D02*
X270912969Y-244482557D01*
X270912969Y-244482557D02*
X270984398Y-244625414D01*
X270984398Y-244625414D02*
X270984398Y-244768271D01*
X270984398Y-244768271D02*
X270270112Y-244911128D01*
X271627254Y-245268271D02*
X271698683Y-245339700D01*
X271698683Y-245339700D02*
X271627254Y-245411128D01*
X271627254Y-245411128D02*
X271555826Y-245339700D01*
X271555826Y-245339700D02*
X271627254Y-245268271D01*
X271627254Y-245268271D02*
X271627254Y-245411128D01*
X271627254Y-244482557D02*
X271698683Y-244553985D01*
X271698683Y-244553985D02*
X271627254Y-244625414D01*
X271627254Y-244625414D02*
X271555826Y-244553985D01*
X271555826Y-244553985D02*
X271627254Y-244482557D01*
X271627254Y-244482557D02*
X271627254Y-244625414D01*
X273484397Y-245411128D02*
X273484397Y-243911128D01*
X274127255Y-245411128D02*
X274127255Y-244625414D01*
X274127255Y-244625414D02*
X274055826Y-244482557D01*
X274055826Y-244482557D02*
X273912969Y-244411128D01*
X273912969Y-244411128D02*
X273698683Y-244411128D01*
X273698683Y-244411128D02*
X273555826Y-244482557D01*
X273555826Y-244482557D02*
X273484397Y-244553985D01*
X275412969Y-245339700D02*
X275270112Y-245411128D01*
X275270112Y-245411128D02*
X274984398Y-245411128D01*
X274984398Y-245411128D02*
X274841540Y-245339700D01*
X274841540Y-245339700D02*
X274770112Y-245196842D01*
X274770112Y-245196842D02*
X274770112Y-244625414D01*
X274770112Y-244625414D02*
X274841540Y-244482557D01*
X274841540Y-244482557D02*
X274984398Y-244411128D01*
X274984398Y-244411128D02*
X275270112Y-244411128D01*
X275270112Y-244411128D02*
X275412969Y-244482557D01*
X275412969Y-244482557D02*
X275484398Y-244625414D01*
X275484398Y-244625414D02*
X275484398Y-244768271D01*
X275484398Y-244768271D02*
X274770112Y-244911128D01*
X276341540Y-245411128D02*
X276198683Y-245339700D01*
X276198683Y-245339700D02*
X276127254Y-245196842D01*
X276127254Y-245196842D02*
X276127254Y-243911128D01*
X277127254Y-245411128D02*
X276984397Y-245339700D01*
X276984397Y-245339700D02*
X276912968Y-245196842D01*
X276912968Y-245196842D02*
X276912968Y-243911128D01*
X278270111Y-245339700D02*
X278127254Y-245411128D01*
X278127254Y-245411128D02*
X277841540Y-245411128D01*
X277841540Y-245411128D02*
X277698682Y-245339700D01*
X277698682Y-245339700D02*
X277627254Y-245196842D01*
X277627254Y-245196842D02*
X277627254Y-244625414D01*
X277627254Y-244625414D02*
X277698682Y-244482557D01*
X277698682Y-244482557D02*
X277841540Y-244411128D01*
X277841540Y-244411128D02*
X278127254Y-244411128D01*
X278127254Y-244411128D02*
X278270111Y-244482557D01*
X278270111Y-244482557D02*
X278341540Y-244625414D01*
X278341540Y-244625414D02*
X278341540Y-244768271D01*
X278341540Y-244768271D02*
X277627254Y-244911128D01*
X278984396Y-244411128D02*
X278984396Y-245411128D01*
X278984396Y-244553985D02*
X279055825Y-244482557D01*
X279055825Y-244482557D02*
X279198682Y-244411128D01*
X279198682Y-244411128D02*
X279412968Y-244411128D01*
X279412968Y-244411128D02*
X279555825Y-244482557D01*
X279555825Y-244482557D02*
X279627254Y-244625414D01*
X279627254Y-244625414D02*
X279627254Y-245411128D01*
X281127254Y-245411128D02*
X280270111Y-245411128D01*
X280698682Y-245411128D02*
X280698682Y-243911128D01*
X280698682Y-243911128D02*
X280555825Y-244125414D01*
X280555825Y-244125414D02*
X280412968Y-244268271D01*
X280412968Y-244268271D02*
X280270111Y-244339700D01*
X281698682Y-244053985D02*
X281770110Y-243982557D01*
X281770110Y-243982557D02*
X281912968Y-243911128D01*
X281912968Y-243911128D02*
X282270110Y-243911128D01*
X282270110Y-243911128D02*
X282412968Y-243982557D01*
X282412968Y-243982557D02*
X282484396Y-244053985D01*
X282484396Y-244053985D02*
X282555825Y-244196842D01*
X282555825Y-244196842D02*
X282555825Y-244339700D01*
X282555825Y-244339700D02*
X282484396Y-244553985D01*
X282484396Y-244553985D02*
X281627253Y-245411128D01*
X281627253Y-245411128D02*
X282555825Y-245411128D01*
X283984396Y-245411128D02*
X283127253Y-245411128D01*
X283555824Y-245411128D02*
X283555824Y-243911128D01*
X283555824Y-243911128D02*
X283412967Y-244125414D01*
X283412967Y-244125414D02*
X283270110Y-244268271D01*
X283270110Y-244268271D02*
X283127253Y-244339700D01*
X284484395Y-244411128D02*
X284841538Y-245411128D01*
X284841538Y-245411128D02*
X285198681Y-244411128D01*
X286412967Y-245411128D02*
X286412967Y-244625414D01*
X286412967Y-244625414D02*
X286341538Y-244482557D01*
X286341538Y-244482557D02*
X286198681Y-244411128D01*
X286198681Y-244411128D02*
X285912967Y-244411128D01*
X285912967Y-244411128D02*
X285770109Y-244482557D01*
X286412967Y-245339700D02*
X286270109Y-245411128D01*
X286270109Y-245411128D02*
X285912967Y-245411128D01*
X285912967Y-245411128D02*
X285770109Y-245339700D01*
X285770109Y-245339700D02*
X285698681Y-245196842D01*
X285698681Y-245196842D02*
X285698681Y-245053985D01*
X285698681Y-245053985D02*
X285770109Y-244911128D01*
X285770109Y-244911128D02*
X285912967Y-244839700D01*
X285912967Y-244839700D02*
X286270109Y-244839700D01*
X286270109Y-244839700D02*
X286412967Y-244768271D01*
X287770110Y-244411128D02*
X287770110Y-245625414D01*
X287770110Y-245625414D02*
X287698681Y-245768271D01*
X287698681Y-245768271D02*
X287627252Y-245839700D01*
X287627252Y-245839700D02*
X287484395Y-245911128D01*
X287484395Y-245911128D02*
X287270110Y-245911128D01*
X287270110Y-245911128D02*
X287127252Y-245839700D01*
X287770110Y-245339700D02*
X287627252Y-245411128D01*
X287627252Y-245411128D02*
X287341538Y-245411128D01*
X287341538Y-245411128D02*
X287198681Y-245339700D01*
X287198681Y-245339700D02*
X287127252Y-245268271D01*
X287127252Y-245268271D02*
X287055824Y-245125414D01*
X287055824Y-245125414D02*
X287055824Y-244696842D01*
X287055824Y-244696842D02*
X287127252Y-244553985D01*
X287127252Y-244553985D02*
X287198681Y-244482557D01*
X287198681Y-244482557D02*
X287341538Y-244411128D01*
X287341538Y-244411128D02*
X287627252Y-244411128D01*
X287627252Y-244411128D02*
X287770110Y-244482557D01*
X288484395Y-245268271D02*
X288555824Y-245339700D01*
X288555824Y-245339700D02*
X288484395Y-245411128D01*
X288484395Y-245411128D02*
X288412967Y-245339700D01*
X288412967Y-245339700D02*
X288484395Y-245268271D01*
X288484395Y-245268271D02*
X288484395Y-245411128D01*
X289198681Y-245411128D02*
X289198681Y-243911128D01*
X289341539Y-244839700D02*
X289770110Y-245411128D01*
X289770110Y-244411128D02*
X289198681Y-244982557D01*
X290412967Y-245411128D02*
X290412967Y-244411128D01*
X290412967Y-243911128D02*
X290341539Y-243982557D01*
X290341539Y-243982557D02*
X290412967Y-244053985D01*
X290412967Y-244053985D02*
X290484396Y-243982557D01*
X290484396Y-243982557D02*
X290412967Y-243911128D01*
X290412967Y-243911128D02*
X290412967Y-244053985D01*
X291770111Y-245339700D02*
X291627253Y-245411128D01*
X291627253Y-245411128D02*
X291341539Y-245411128D01*
X291341539Y-245411128D02*
X291198682Y-245339700D01*
X291198682Y-245339700D02*
X291127253Y-245268271D01*
X291127253Y-245268271D02*
X291055825Y-245125414D01*
X291055825Y-245125414D02*
X291055825Y-244696842D01*
X291055825Y-244696842D02*
X291127253Y-244553985D01*
X291127253Y-244553985D02*
X291198682Y-244482557D01*
X291198682Y-244482557D02*
X291341539Y-244411128D01*
X291341539Y-244411128D02*
X291627253Y-244411128D01*
X291627253Y-244411128D02*
X291770111Y-244482557D01*
X293055825Y-245411128D02*
X293055825Y-244625414D01*
X293055825Y-244625414D02*
X292984396Y-244482557D01*
X292984396Y-244482557D02*
X292841539Y-244411128D01*
X292841539Y-244411128D02*
X292555825Y-244411128D01*
X292555825Y-244411128D02*
X292412967Y-244482557D01*
X293055825Y-245339700D02*
X292912967Y-245411128D01*
X292912967Y-245411128D02*
X292555825Y-245411128D01*
X292555825Y-245411128D02*
X292412967Y-245339700D01*
X292412967Y-245339700D02*
X292341539Y-245196842D01*
X292341539Y-245196842D02*
X292341539Y-245053985D01*
X292341539Y-245053985D02*
X292412967Y-244911128D01*
X292412967Y-244911128D02*
X292555825Y-244839700D01*
X292555825Y-244839700D02*
X292912967Y-244839700D01*
X292912967Y-244839700D02*
X293055825Y-244768271D01*
X294412968Y-245411128D02*
X294412968Y-243911128D01*
X294412968Y-245339700D02*
X294270110Y-245411128D01*
X294270110Y-245411128D02*
X293984396Y-245411128D01*
X293984396Y-245411128D02*
X293841539Y-245339700D01*
X293841539Y-245339700D02*
X293770110Y-245268271D01*
X293770110Y-245268271D02*
X293698682Y-245125414D01*
X293698682Y-245125414D02*
X293698682Y-244696842D01*
X293698682Y-244696842D02*
X293770110Y-244553985D01*
X293770110Y-244553985D02*
X293841539Y-244482557D01*
X293841539Y-244482557D02*
X293984396Y-244411128D01*
X293984396Y-244411128D02*
X294270110Y-244411128D01*
X294270110Y-244411128D02*
X294412968Y-244482557D01*
X294770111Y-245553985D02*
X295912968Y-245553985D01*
X296270110Y-244411128D02*
X296270110Y-245911128D01*
X296270110Y-244482557D02*
X296412968Y-244411128D01*
X296412968Y-244411128D02*
X296698682Y-244411128D01*
X296698682Y-244411128D02*
X296841539Y-244482557D01*
X296841539Y-244482557D02*
X296912968Y-244553985D01*
X296912968Y-244553985D02*
X296984396Y-244696842D01*
X296984396Y-244696842D02*
X296984396Y-245125414D01*
X296984396Y-245125414D02*
X296912968Y-245268271D01*
X296912968Y-245268271D02*
X296841539Y-245339700D01*
X296841539Y-245339700D02*
X296698682Y-245411128D01*
X296698682Y-245411128D02*
X296412968Y-245411128D01*
X296412968Y-245411128D02*
X296270110Y-245339700D01*
X298270111Y-245339700D02*
X298127253Y-245411128D01*
X298127253Y-245411128D02*
X297841539Y-245411128D01*
X297841539Y-245411128D02*
X297698682Y-245339700D01*
X297698682Y-245339700D02*
X297627253Y-245268271D01*
X297627253Y-245268271D02*
X297555825Y-245125414D01*
X297555825Y-245125414D02*
X297555825Y-244696842D01*
X297555825Y-244696842D02*
X297627253Y-244553985D01*
X297627253Y-244553985D02*
X297698682Y-244482557D01*
X297698682Y-244482557D02*
X297841539Y-244411128D01*
X297841539Y-244411128D02*
X298127253Y-244411128D01*
X298127253Y-244411128D02*
X298270111Y-244482557D01*
X298912967Y-245411128D02*
X298912967Y-243911128D01*
X298912967Y-244482557D02*
X299055825Y-244411128D01*
X299055825Y-244411128D02*
X299341539Y-244411128D01*
X299341539Y-244411128D02*
X299484396Y-244482557D01*
X299484396Y-244482557D02*
X299555825Y-244553985D01*
X299555825Y-244553985D02*
X299627253Y-244696842D01*
X299627253Y-244696842D02*
X299627253Y-245125414D01*
X299627253Y-245125414D02*
X299555825Y-245268271D01*
X299555825Y-245268271D02*
X299484396Y-245339700D01*
X299484396Y-245339700D02*
X299341539Y-245411128D01*
X299341539Y-245411128D02*
X299055825Y-245411128D01*
X299055825Y-245411128D02*
X298912967Y-245339700D01*
D10*
D11*
X266100000Y-240525000D02*
X374100000Y-240525000D01*
D10*
D11*
X267484398Y-242639700D02*
X267698684Y-242711128D01*
X267698684Y-242711128D02*
X268055826Y-242711128D01*
X268055826Y-242711128D02*
X268198684Y-242639700D01*
X268198684Y-242639700D02*
X268270112Y-242568271D01*
X268270112Y-242568271D02*
X268341541Y-242425414D01*
X268341541Y-242425414D02*
X268341541Y-242282557D01*
X268341541Y-242282557D02*
X268270112Y-242139700D01*
X268270112Y-242139700D02*
X268198684Y-242068271D01*
X268198684Y-242068271D02*
X268055826Y-241996842D01*
X268055826Y-241996842D02*
X267770112Y-241925414D01*
X267770112Y-241925414D02*
X267627255Y-241853985D01*
X267627255Y-241853985D02*
X267555826Y-241782557D01*
X267555826Y-241782557D02*
X267484398Y-241639700D01*
X267484398Y-241639700D02*
X267484398Y-241496842D01*
X267484398Y-241496842D02*
X267555826Y-241353985D01*
X267555826Y-241353985D02*
X267627255Y-241282557D01*
X267627255Y-241282557D02*
X267770112Y-241211128D01*
X267770112Y-241211128D02*
X268127255Y-241211128D01*
X268127255Y-241211128D02*
X268341541Y-241282557D01*
X268984397Y-242711128D02*
X268984397Y-241211128D01*
X269627255Y-242711128D02*
X269627255Y-241925414D01*
X269627255Y-241925414D02*
X269555826Y-241782557D01*
X269555826Y-241782557D02*
X269412969Y-241711128D01*
X269412969Y-241711128D02*
X269198683Y-241711128D01*
X269198683Y-241711128D02*
X269055826Y-241782557D01*
X269055826Y-241782557D02*
X268984397Y-241853985D01*
X270912969Y-242639700D02*
X270770112Y-242711128D01*
X270770112Y-242711128D02*
X270484398Y-242711128D01*
X270484398Y-242711128D02*
X270341540Y-242639700D01*
X270341540Y-242639700D02*
X270270112Y-242496842D01*
X270270112Y-242496842D02*
X270270112Y-241925414D01*
X270270112Y-241925414D02*
X270341540Y-241782557D01*
X270341540Y-241782557D02*
X270484398Y-241711128D01*
X270484398Y-241711128D02*
X270770112Y-241711128D01*
X270770112Y-241711128D02*
X270912969Y-241782557D01*
X270912969Y-241782557D02*
X270984398Y-241925414D01*
X270984398Y-241925414D02*
X270984398Y-242068271D01*
X270984398Y-242068271D02*
X270270112Y-242211128D01*
X272198683Y-242639700D02*
X272055826Y-242711128D01*
X272055826Y-242711128D02*
X271770112Y-242711128D01*
X271770112Y-242711128D02*
X271627254Y-242639700D01*
X271627254Y-242639700D02*
X271555826Y-242496842D01*
X271555826Y-242496842D02*
X271555826Y-241925414D01*
X271555826Y-241925414D02*
X271627254Y-241782557D01*
X271627254Y-241782557D02*
X271770112Y-241711128D01*
X271770112Y-241711128D02*
X272055826Y-241711128D01*
X272055826Y-241711128D02*
X272198683Y-241782557D01*
X272198683Y-241782557D02*
X272270112Y-241925414D01*
X272270112Y-241925414D02*
X272270112Y-242068271D01*
X272270112Y-242068271D02*
X271555826Y-242211128D01*
X272698683Y-241711128D02*
X273270111Y-241711128D01*
X272912968Y-241211128D02*
X272912968Y-242496842D01*
X272912968Y-242496842D02*
X272984397Y-242639700D01*
X272984397Y-242639700D02*
X273127254Y-242711128D01*
X273127254Y-242711128D02*
X273270111Y-242711128D01*
X273770111Y-242568271D02*
X273841540Y-242639700D01*
X273841540Y-242639700D02*
X273770111Y-242711128D01*
X273770111Y-242711128D02*
X273698683Y-242639700D01*
X273698683Y-242639700D02*
X273770111Y-242568271D01*
X273770111Y-242568271D02*
X273770111Y-242711128D01*
X273770111Y-241782557D02*
X273841540Y-241853985D01*
X273841540Y-241853985D02*
X273770111Y-241925414D01*
X273770111Y-241925414D02*
X273698683Y-241853985D01*
X273698683Y-241853985D02*
X273770111Y-241782557D01*
X273770111Y-241782557D02*
X273770111Y-241925414D01*
D10*
D12*
X268297368Y-239703328D02*
X268297368Y-238917614D01*
X268297368Y-238917614D02*
X268225939Y-238774757D01*
X268225939Y-238774757D02*
X268083082Y-238703328D01*
X268083082Y-238703328D02*
X267797368Y-238703328D01*
X267797368Y-238703328D02*
X267654510Y-238774757D01*
X268297368Y-239631900D02*
X268154510Y-239703328D01*
X268154510Y-239703328D02*
X267797368Y-239703328D01*
X267797368Y-239703328D02*
X267654510Y-239631900D01*
X267654510Y-239631900D02*
X267583082Y-239489042D01*
X267583082Y-239489042D02*
X267583082Y-239346185D01*
X267583082Y-239346185D02*
X267654510Y-239203328D01*
X267654510Y-239203328D02*
X267797368Y-239131900D01*
X267797368Y-239131900D02*
X268154510Y-239131900D01*
X268154510Y-239131900D02*
X268297368Y-239060471D01*
X269011653Y-238703328D02*
X269011653Y-239703328D01*
X269011653Y-238846185D02*
X269083082Y-238774757D01*
X269083082Y-238774757D02*
X269225939Y-238703328D01*
X269225939Y-238703328D02*
X269440225Y-238703328D01*
X269440225Y-238703328D02*
X269583082Y-238774757D01*
X269583082Y-238774757D02*
X269654511Y-238917614D01*
X269654511Y-238917614D02*
X269654511Y-239703328D01*
X271011654Y-239703328D02*
X271011654Y-238203328D01*
X271011654Y-239631900D02*
X270868796Y-239703328D01*
X270868796Y-239703328D02*
X270583082Y-239703328D01*
X270583082Y-239703328D02*
X270440225Y-239631900D01*
X270440225Y-239631900D02*
X270368796Y-239560471D01*
X270368796Y-239560471D02*
X270297368Y-239417614D01*
X270297368Y-239417614D02*
X270297368Y-238989042D01*
X270297368Y-238989042D02*
X270368796Y-238846185D01*
X270368796Y-238846185D02*
X270440225Y-238774757D01*
X270440225Y-238774757D02*
X270583082Y-238703328D01*
X270583082Y-238703328D02*
X270868796Y-238703328D01*
X270868796Y-238703328D02*
X271011654Y-238774757D01*
X271725939Y-239703328D02*
X271725939Y-238703328D01*
X271725939Y-238989042D02*
X271797368Y-238846185D01*
X271797368Y-238846185D02*
X271868797Y-238774757D01*
X271868797Y-238774757D02*
X272011654Y-238703328D01*
X272011654Y-238703328D02*
X272154511Y-238703328D01*
X273225939Y-239631900D02*
X273083082Y-239703328D01*
X273083082Y-239703328D02*
X272797368Y-239703328D01*
X272797368Y-239703328D02*
X272654510Y-239631900D01*
X272654510Y-239631900D02*
X272583082Y-239489042D01*
X272583082Y-239489042D02*
X272583082Y-238917614D01*
X272583082Y-238917614D02*
X272654510Y-238774757D01*
X272654510Y-238774757D02*
X272797368Y-238703328D01*
X272797368Y-238703328D02*
X273083082Y-238703328D01*
X273083082Y-238703328D02*
X273225939Y-238774757D01*
X273225939Y-238774757D02*
X273297368Y-238917614D01*
X273297368Y-238917614D02*
X273297368Y-239060471D01*
X273297368Y-239060471D02*
X272583082Y-239203328D01*
X273940224Y-239703328D02*
X273940224Y-238703328D01*
X273940224Y-238203328D02*
X273868796Y-238274757D01*
X273868796Y-238274757D02*
X273940224Y-238346185D01*
X273940224Y-238346185D02*
X274011653Y-238274757D01*
X274011653Y-238274757D02*
X273940224Y-238203328D01*
X273940224Y-238203328D02*
X273940224Y-238346185D01*
X274654510Y-239703328D02*
X274654510Y-238203328D01*
X274797368Y-239131900D02*
X275225939Y-239703328D01*
X275225939Y-238703328D02*
X274654510Y-239274757D01*
X276511654Y-239703328D02*
X276511654Y-238917614D01*
X276511654Y-238917614D02*
X276440225Y-238774757D01*
X276440225Y-238774757D02*
X276297368Y-238703328D01*
X276297368Y-238703328D02*
X276011654Y-238703328D01*
X276011654Y-238703328D02*
X275868796Y-238774757D01*
X276511654Y-239631900D02*
X276368796Y-239703328D01*
X276368796Y-239703328D02*
X276011654Y-239703328D01*
X276011654Y-239703328D02*
X275868796Y-239631900D01*
X275868796Y-239631900D02*
X275797368Y-239489042D01*
X275797368Y-239489042D02*
X275797368Y-239346185D01*
X275797368Y-239346185D02*
X275868796Y-239203328D01*
X275868796Y-239203328D02*
X276011654Y-239131900D01*
X276011654Y-239131900D02*
X276368796Y-239131900D01*
X276368796Y-239131900D02*
X276511654Y-239060471D01*
X279297368Y-238989042D02*
X279225939Y-238917614D01*
X279225939Y-238917614D02*
X279083082Y-238846185D01*
X279083082Y-238846185D02*
X278940225Y-238846185D01*
X278940225Y-238846185D02*
X278797368Y-238917614D01*
X278797368Y-238917614D02*
X278725939Y-238989042D01*
X278725939Y-238989042D02*
X278654511Y-239131900D01*
X278654511Y-239131900D02*
X278654511Y-239274757D01*
X278654511Y-239274757D02*
X278725939Y-239417614D01*
X278725939Y-239417614D02*
X278797368Y-239489042D01*
X278797368Y-239489042D02*
X278940225Y-239560471D01*
X278940225Y-239560471D02*
X279083082Y-239560471D01*
X279083082Y-239560471D02*
X279225939Y-239489042D01*
X279225939Y-239489042D02*
X279297368Y-239417614D01*
X279297368Y-238846185D02*
X279297368Y-239417614D01*
X279297368Y-239417614D02*
X279368796Y-239489042D01*
X279368796Y-239489042D02*
X279440225Y-239489042D01*
X279440225Y-239489042D02*
X279583082Y-239417614D01*
X279583082Y-239417614D02*
X279654511Y-239274757D01*
X279654511Y-239274757D02*
X279654511Y-238917614D01*
X279654511Y-238917614D02*
X279511654Y-238703328D01*
X279511654Y-238703328D02*
X279297368Y-238560471D01*
X279297368Y-238560471D02*
X279011654Y-238489042D01*
X279011654Y-238489042D02*
X278725939Y-238560471D01*
X278725939Y-238560471D02*
X278511654Y-238703328D01*
X278511654Y-238703328D02*
X278368796Y-238917614D01*
X278368796Y-238917614D02*
X278297368Y-239203328D01*
X278297368Y-239203328D02*
X278368796Y-239489042D01*
X278368796Y-239489042D02*
X278511654Y-239703328D01*
X278511654Y-239703328D02*
X278725939Y-239846185D01*
X278725939Y-239846185D02*
X279011654Y-239917614D01*
X279011654Y-239917614D02*
X279297368Y-239846185D01*
X279297368Y-239846185D02*
X279511654Y-239703328D01*
X281440224Y-239703328D02*
X281440224Y-238703328D01*
X281440224Y-238989042D02*
X281511653Y-238846185D01*
X281511653Y-238846185D02*
X281583082Y-238774757D01*
X281583082Y-238774757D02*
X281725939Y-238703328D01*
X281725939Y-238703328D02*
X281868796Y-238703328D01*
X283011653Y-238703328D02*
X283011653Y-239703328D01*
X282368795Y-238703328D02*
X282368795Y-239489042D01*
X282368795Y-239489042D02*
X282440224Y-239631900D01*
X282440224Y-239631900D02*
X282583081Y-239703328D01*
X282583081Y-239703328D02*
X282797367Y-239703328D01*
X282797367Y-239703328D02*
X282940224Y-239631900D01*
X282940224Y-239631900D02*
X283011653Y-239560471D01*
X283654510Y-239631900D02*
X283797367Y-239703328D01*
X283797367Y-239703328D02*
X284083081Y-239703328D01*
X284083081Y-239703328D02*
X284225938Y-239631900D01*
X284225938Y-239631900D02*
X284297367Y-239489042D01*
X284297367Y-239489042D02*
X284297367Y-239417614D01*
X284297367Y-239417614D02*
X284225938Y-239274757D01*
X284225938Y-239274757D02*
X284083081Y-239203328D01*
X284083081Y-239203328D02*
X283868796Y-239203328D01*
X283868796Y-239203328D02*
X283725938Y-239131900D01*
X283725938Y-239131900D02*
X283654510Y-238989042D01*
X283654510Y-238989042D02*
X283654510Y-238917614D01*
X283654510Y-238917614D02*
X283725938Y-238774757D01*
X283725938Y-238774757D02*
X283868796Y-238703328D01*
X283868796Y-238703328D02*
X284083081Y-238703328D01*
X284083081Y-238703328D02*
X284225938Y-238774757D01*
X284940224Y-238917614D02*
X285440224Y-238917614D01*
X285654510Y-239703328D02*
X284940224Y-239703328D01*
X284940224Y-239703328D02*
X284940224Y-238203328D01*
X284940224Y-238203328D02*
X285654510Y-238203328D01*
X286797367Y-238917614D02*
X286297367Y-238917614D01*
X286297367Y-239703328D02*
X286297367Y-238203328D01*
X286297367Y-238203328D02*
X287011653Y-238203328D01*
X287583081Y-239703328D02*
X287583081Y-238203328D01*
X288297367Y-239560471D02*
X288368796Y-239631900D01*
X288368796Y-239631900D02*
X288297367Y-239703328D01*
X288297367Y-239703328D02*
X288225939Y-239631900D01*
X288225939Y-239631900D02*
X288297367Y-239560471D01*
X288297367Y-239560471D02*
X288297367Y-239703328D01*
X289654511Y-239631900D02*
X289511653Y-239703328D01*
X289511653Y-239703328D02*
X289225939Y-239703328D01*
X289225939Y-239703328D02*
X289083082Y-239631900D01*
X289083082Y-239631900D02*
X289011653Y-239560471D01*
X289011653Y-239560471D02*
X288940225Y-239417614D01*
X288940225Y-239417614D02*
X288940225Y-238989042D01*
X288940225Y-238989042D02*
X289011653Y-238846185D01*
X289011653Y-238846185D02*
X289083082Y-238774757D01*
X289083082Y-238774757D02*
X289225939Y-238703328D01*
X289225939Y-238703328D02*
X289511653Y-238703328D01*
X289511653Y-238703328D02*
X289654511Y-238774757D01*
X290511653Y-239703328D02*
X290368796Y-239631900D01*
X290368796Y-239631900D02*
X290297367Y-239560471D01*
X290297367Y-239560471D02*
X290225939Y-239417614D01*
X290225939Y-239417614D02*
X290225939Y-238989042D01*
X290225939Y-238989042D02*
X290297367Y-238846185D01*
X290297367Y-238846185D02*
X290368796Y-238774757D01*
X290368796Y-238774757D02*
X290511653Y-238703328D01*
X290511653Y-238703328D02*
X290725939Y-238703328D01*
X290725939Y-238703328D02*
X290868796Y-238774757D01*
X290868796Y-238774757D02*
X290940225Y-238846185D01*
X290940225Y-238846185D02*
X291011653Y-238989042D01*
X291011653Y-238989042D02*
X291011653Y-239417614D01*
X291011653Y-239417614D02*
X290940225Y-239560471D01*
X290940225Y-239560471D02*
X290868796Y-239631900D01*
X290868796Y-239631900D02*
X290725939Y-239703328D01*
X290725939Y-239703328D02*
X290511653Y-239703328D01*
X291654510Y-239703328D02*
X291654510Y-238703328D01*
X291654510Y-238846185D02*
X291725939Y-238774757D01*
X291725939Y-238774757D02*
X291868796Y-238703328D01*
X291868796Y-238703328D02*
X292083082Y-238703328D01*
X292083082Y-238703328D02*
X292225939Y-238774757D01*
X292225939Y-238774757D02*
X292297368Y-238917614D01*
X292297368Y-238917614D02*
X292297368Y-239703328D01*
X292297368Y-238917614D02*
X292368796Y-238774757D01*
X292368796Y-238774757D02*
X292511653Y-238703328D01*
X292511653Y-238703328D02*
X292725939Y-238703328D01*
X292725939Y-238703328D02*
X292868796Y-238774757D01*
X292868796Y-238774757D02*
X292940225Y-238917614D01*
X292940225Y-238917614D02*
X292940225Y-239703328D01*
D10*
D11*
X286100000Y-250525000D02*
X286100000Y-253525000D01*
D10*
D11*
X350100000Y-250525000D02*
X350100000Y-257025000D01*
D14*
G04 #@! TO.C,M1*
X111975002Y69275003D03*
X111975002Y75675000D03*
X111975002Y77575003D03*
X111975002Y81875003D03*
D15*
X111525003Y84275000D03*
X111525003Y85275001D03*
D14*
X111975002Y88125003D03*
X127474999Y68825001D03*
X127474999Y70675000D03*
X127474999Y75625003D03*
X127474999Y87675001D03*
G04 #@! TD*
D15*
G04 #@! TO.C,M2*
X52700000Y43849999D03*
X52700000Y42899999D03*
X52700000Y41950001D03*
X44000000Y42949999D03*
X44000000Y43849999D03*
G04 #@! TD*
G04 #@! TO.C,M4*
X56925000Y55912500D03*
X58125000Y55912500D03*
X55725000Y55912500D03*
X54525000Y55912500D03*
X60985000Y41487500D03*
X61985000Y41487500D03*
G04 #@! TD*
D16*
G04 #@! TO.C,F2*
X128725000Y41825000D03*
X128725000Y46725000D03*
G04 #@! TD*
G04 #@! TO.C,R4*
X109225000Y89820001D03*
X109225000Y93630001D03*
G04 #@! TD*
G04 #@! TO.C,F3*
X43775000Y65775000D03*
X48675000Y65775000D03*
G04 #@! TD*
G04 #@! TO.C,F1*
X131225000Y41825000D03*
X131225000Y46725000D03*
G04 #@! TD*
G04 #@! TO.C,J21*
G36*
G01*
X127575000Y103100000D02*
X127575000Y101750000D01*
G75*
G02*
X127325000Y101500000I-250000J0D01*
G01*
X126125000Y101500000D01*
G75*
G02*
X125875000Y101750000I0J250000D01*
G01*
X125875000Y103100000D01*
G75*
G02*
X126125000Y103350000I250000J0D01*
G01*
X127325000Y103350000D01*
G75*
G02*
X127575000Y103100000I0J-250000D01*
G01*
G37*
D17*
X124225000Y102425000D03*
X121725000Y102425000D03*
X119225000Y102425000D03*
X116725000Y102425000D03*
G04 #@! TD*
D15*
G04 #@! TO.C,M3*
X67100000Y56100000D03*
X68300000Y56100000D03*
X65900000Y56100000D03*
X64700000Y56100000D03*
X71160000Y41675000D03*
X72160000Y41675000D03*
G04 #@! TD*
D18*
G04 #@! TO.C,J22*
X109350000Y102025000D03*
D19*
X111100000Y101225000D03*
X109350000Y100425000D03*
X111100000Y99625000D03*
X109350000Y98825000D03*
D20*
X110225000Y104075000D03*
X110225000Y96775000D03*
G04 #@! TD*
D21*
G04 #@! TO.C,M7*
X118587501Y95818338D03*
X119462503Y95293338D03*
X118287499Y94543340D03*
X118362502Y90993339D03*
G04 #@! TD*
G04 #@! TO.C,R17*
G36*
G01*
X78875000Y51165000D02*
X78875000Y50385000D01*
G75*
G02*
X78805000Y50315000I-70000J0D01*
G01*
X78245000Y50315000D01*
G75*
G02*
X78175000Y50385000I0J70000D01*
G01*
X78175000Y51165000D01*
G75*
G02*
X78245000Y51235000I70000J0D01*
G01*
X78805000Y51235000D01*
G75*
G02*
X78875000Y51165000I0J-70000D01*
G01*
G37*
G36*
G01*
X77275000Y51165000D02*
X77275000Y50385000D01*
G75*
G02*
X77205000Y50315000I-70000J0D01*
G01*
X76645000Y50315000D01*
G75*
G02*
X76575000Y50385000I0J70000D01*
G01*
X76575000Y51165000D01*
G75*
G02*
X76645000Y51235000I70000J0D01*
G01*
X77205000Y51235000D01*
G75*
G02*
X77275000Y51165000I0J-70000D01*
G01*
G37*
G04 #@! TD*
G04 #@! TO.C,R38*
G36*
G01*
X81335000Y61425000D02*
X82115000Y61425000D01*
G75*
G02*
X82185000Y61355000I0J-70000D01*
G01*
X82185000Y60795000D01*
G75*
G02*
X82115000Y60725000I-70000J0D01*
G01*
X81335000Y60725000D01*
G75*
G02*
X81265000Y60795000I0J70000D01*
G01*
X81265000Y61355000D01*
G75*
G02*
X81335000Y61425000I70000J0D01*
G01*
G37*
G36*
G01*
X81335000Y59825000D02*
X82115000Y59825000D01*
G75*
G02*
X82185000Y59755000I0J-70000D01*
G01*
X82185000Y59195000D01*
G75*
G02*
X82115000Y59125000I-70000J0D01*
G01*
X81335000Y59125000D01*
G75*
G02*
X81265000Y59195000I0J70000D01*
G01*
X81265000Y59755000D01*
G75*
G02*
X81335000Y59825000I70000J0D01*
G01*
G37*
G04 #@! TD*
G04 #@! TO.C,R37*
G36*
G01*
X78335000Y61425000D02*
X79115000Y61425000D01*
G75*
G02*
X79185000Y61355000I0J-70000D01*
G01*
X79185000Y60795000D01*
G75*
G02*
X79115000Y60725000I-70000J0D01*
G01*
X78335000Y60725000D01*
G75*
G02*
X78265000Y60795000I0J70000D01*
G01*
X78265000Y61355000D01*
G75*
G02*
X78335000Y61425000I70000J0D01*
G01*
G37*
G36*
G01*
X78335000Y59825000D02*
X79115000Y59825000D01*
G75*
G02*
X79185000Y59755000I0J-70000D01*
G01*
X79185000Y59195000D01*
G75*
G02*
X79115000Y59125000I-70000J0D01*
G01*
X78335000Y59125000D01*
G75*
G02*
X78265000Y59195000I0J70000D01*
G01*
X78265000Y59755000D01*
G75*
G02*
X78335000Y59825000I70000J0D01*
G01*
G37*
G04 #@! TD*
G04 #@! TO.C,R52*
G36*
G01*
X140335000Y93925000D02*
X141115000Y93925000D01*
G75*
G02*
X141185000Y93855000I0J-70000D01*
G01*
X141185000Y93295000D01*
G75*
G02*
X141115000Y93225000I-70000J0D01*
G01*
X140335000Y93225000D01*
G75*
G02*
X140265000Y93295000I0J70000D01*
G01*
X140265000Y93855000D01*
G75*
G02*
X140335000Y93925000I70000J0D01*
G01*
G37*
G36*
G01*
X140335000Y92325000D02*
X141115000Y92325000D01*
G75*
G02*
X141185000Y92255000I0J-70000D01*
G01*
X141185000Y91695000D01*
G75*
G02*
X141115000Y91625000I-70000J0D01*
G01*
X140335000Y91625000D01*
G75*
G02*
X140265000Y91695000I0J70000D01*
G01*
X140265000Y92255000D01*
G75*
G02*
X140335000Y92325000I70000J0D01*
G01*
G37*
G04 #@! TD*
G04 #@! TO.C,R40*
G36*
G01*
X138835000Y93925000D02*
X139615000Y93925000D01*
G75*
G02*
X139685000Y93855000I0J-70000D01*
G01*
X139685000Y93295000D01*
G75*
G02*
X139615000Y93225000I-70000J0D01*
G01*
X138835000Y93225000D01*
G75*
G02*
X138765000Y93295000I0J70000D01*
G01*
X138765000Y93855000D01*
G75*
G02*
X138835000Y93925000I70000J0D01*
G01*
G37*
G36*
G01*
X138835000Y92325000D02*
X139615000Y92325000D01*
G75*
G02*
X139685000Y92255000I0J-70000D01*
G01*
X139685000Y91695000D01*
G75*
G02*
X139615000Y91625000I-70000J0D01*
G01*
X138835000Y91625000D01*
G75*
G02*
X138765000Y91695000I0J70000D01*
G01*
X138765000Y92255000D01*
G75*
G02*
X138835000Y92325000I70000J0D01*
G01*
G37*
G04 #@! TD*
G04 #@! TO.C,R39*
G36*
G01*
X75335000Y61425000D02*
X76115000Y61425000D01*
G75*
G02*
X76185000Y61355000I0J-70000D01*
G01*
X76185000Y60795000D01*
G75*
G02*
X76115000Y60725000I-70000J0D01*
G01*
X75335000Y60725000D01*
G75*
G02*
X75265000Y60795000I0J70000D01*
G01*
X75265000Y61355000D01*
G75*
G02*
X75335000Y61425000I70000J0D01*
G01*
G37*
G36*
G01*
X75335000Y59825000D02*
X76115000Y59825000D01*
G75*
G02*
X76185000Y59755000I0J-70000D01*
G01*
X76185000Y59195000D01*
G75*
G02*
X76115000Y59125000I-70000J0D01*
G01*
X75335000Y59125000D01*
G75*
G02*
X75265000Y59195000I0J70000D01*
G01*
X75265000Y59755000D01*
G75*
G02*
X75335000Y59825000I70000J0D01*
G01*
G37*
G04 #@! TD*
G04 #@! TO.C,R25*
G36*
G01*
X119875000Y51165000D02*
X119875000Y50385000D01*
G75*
G02*
X119805000Y50315000I-70000J0D01*
G01*
X119245000Y50315000D01*
G75*
G02*
X119175000Y50385000I0J70000D01*
G01*
X119175000Y51165000D01*
G75*
G02*
X119245000Y51235000I70000J0D01*
G01*
X119805000Y51235000D01*
G75*
G02*
X119875000Y51165000I0J-70000D01*
G01*
G37*
G36*
G01*
X118275000Y51165000D02*
X118275000Y50385000D01*
G75*
G02*
X118205000Y50315000I-70000J0D01*
G01*
X117645000Y50315000D01*
G75*
G02*
X117575000Y50385000I0J70000D01*
G01*
X117575000Y51165000D01*
G75*
G02*
X117645000Y51235000I70000J0D01*
G01*
X118205000Y51235000D01*
G75*
G02*
X118275000Y51165000I0J-70000D01*
G01*
G37*
G04 #@! TD*
G04 #@! TO.C,R29*
G36*
G01*
X102335000Y61425000D02*
X103115000Y61425000D01*
G75*
G02*
X103185000Y61355000I0J-70000D01*
G01*
X103185000Y60795000D01*
G75*
G02*
X103115000Y60725000I-70000J0D01*
G01*
X102335000Y60725000D01*
G75*
G02*
X102265000Y60795000I0J70000D01*
G01*
X102265000Y61355000D01*
G75*
G02*
X102335000Y61425000I70000J0D01*
G01*
G37*
G36*
G01*
X102335000Y59825000D02*
X103115000Y59825000D01*
G75*
G02*
X103185000Y59755000I0J-70000D01*
G01*
X103185000Y59195000D01*
G75*
G02*
X103115000Y59125000I-70000J0D01*
G01*
X102335000Y59125000D01*
G75*
G02*
X102265000Y59195000I0J70000D01*
G01*
X102265000Y59755000D01*
G75*
G02*
X102335000Y59825000I70000J0D01*
G01*
G37*
G04 #@! TD*
G04 #@! TO.C,R33*
G36*
G01*
X93335000Y61425000D02*
X94115000Y61425000D01*
G75*
G02*
X94185000Y61355000I0J-70000D01*
G01*
X94185000Y60795000D01*
G75*
G02*
X94115000Y60725000I-70000J0D01*
G01*
X93335000Y60725000D01*
G75*
G02*
X93265000Y60795000I0J70000D01*
G01*
X93265000Y61355000D01*
G75*
G02*
X93335000Y61425000I70000J0D01*
G01*
G37*
G36*
G01*
X93335000Y59825000D02*
X94115000Y59825000D01*
G75*
G02*
X94185000Y59755000I0J-70000D01*
G01*
X94185000Y59195000D01*
G75*
G02*
X94115000Y59125000I-70000J0D01*
G01*
X93335000Y59125000D01*
G75*
G02*
X93265000Y59195000I0J70000D01*
G01*
X93265000Y59755000D01*
G75*
G02*
X93335000Y59825000I70000J0D01*
G01*
G37*
G04 #@! TD*
G04 #@! TO.C,R35*
G36*
G01*
X105335000Y61425000D02*
X106115000Y61425000D01*
G75*
G02*
X106185000Y61355000I0J-70000D01*
G01*
X106185000Y60795000D01*
G75*
G02*
X106115000Y60725000I-70000J0D01*
G01*
X105335000Y60725000D01*
G75*
G02*
X105265000Y60795000I0J70000D01*
G01*
X105265000Y61355000D01*
G75*
G02*
X105335000Y61425000I70000J0D01*
G01*
G37*
G36*
G01*
X105335000Y59825000D02*
X106115000Y59825000D01*
G75*
G02*
X106185000Y59755000I0J-70000D01*
G01*
X106185000Y59195000D01*
G75*
G02*
X106115000Y59125000I-70000J0D01*
G01*
X105335000Y59125000D01*
G75*
G02*
X105265000Y59195000I0J70000D01*
G01*
X105265000Y59755000D01*
G75*
G02*
X105335000Y59825000I70000J0D01*
G01*
G37*
G04 #@! TD*
G04 #@! TO.C,R31*
G36*
G01*
X90335000Y61425000D02*
X91115000Y61425000D01*
G75*
G02*
X91185000Y61355000I0J-70000D01*
G01*
X91185000Y60795000D01*
G75*
G02*
X91115000Y60725000I-70000J0D01*
G01*
X90335000Y60725000D01*
G75*
G02*
X90265000Y60795000I0J70000D01*
G01*
X90265000Y61355000D01*
G75*
G02*
X90335000Y61425000I70000J0D01*
G01*
G37*
G36*
G01*
X90335000Y59825000D02*
X91115000Y59825000D01*
G75*
G02*
X91185000Y59755000I0J-70000D01*
G01*
X91185000Y59195000D01*
G75*
G02*
X91115000Y59125000I-70000J0D01*
G01*
X90335000Y59125000D01*
G75*
G02*
X90265000Y59195000I0J70000D01*
G01*
X90265000Y59755000D01*
G75*
G02*
X90335000Y59825000I70000J0D01*
G01*
G37*
G04 #@! TD*
G04 #@! TO.C,R30*
G36*
G01*
X96335000Y61425000D02*
X97115000Y61425000D01*
G75*
G02*
X97185000Y61355000I0J-70000D01*
G01*
X97185000Y60795000D01*
G75*
G02*
X97115000Y60725000I-70000J0D01*
G01*
X96335000Y60725000D01*
G75*
G02*
X96265000Y60795000I0J70000D01*
G01*
X96265000Y61355000D01*
G75*
G02*
X96335000Y61425000I70000J0D01*
G01*
G37*
G36*
G01*
X96335000Y59825000D02*
X97115000Y59825000D01*
G75*
G02*
X97185000Y59755000I0J-70000D01*
G01*
X97185000Y59195000D01*
G75*
G02*
X97115000Y59125000I-70000J0D01*
G01*
X96335000Y59125000D01*
G75*
G02*
X96265000Y59195000I0J70000D01*
G01*
X96265000Y59755000D01*
G75*
G02*
X96335000Y59825000I70000J0D01*
G01*
G37*
G04 #@! TD*
G04 #@! TO.C,D1*
G36*
G01*
X86215000Y58225000D02*
X87235000Y58225000D01*
G75*
G02*
X87325000Y58135000I0J-90000D01*
G01*
X87325000Y57415000D01*
G75*
G02*
X87235000Y57325000I-90000J0D01*
G01*
X86215000Y57325000D01*
G75*
G02*
X86125000Y57415000I0J90000D01*
G01*
X86125000Y58135000D01*
G75*
G02*
X86215000Y58225000I90000J0D01*
G01*
G37*
G36*
G01*
X86215000Y54925000D02*
X87235000Y54925000D01*
G75*
G02*
X87325000Y54835000I0J-90000D01*
G01*
X87325000Y54115000D01*
G75*
G02*
X87235000Y54025000I-90000J0D01*
G01*
X86215000Y54025000D01*
G75*
G02*
X86125000Y54115000I0J90000D01*
G01*
X86125000Y54835000D01*
G75*
G02*
X86215000Y54925000I90000J0D01*
G01*
G37*
G04 #@! TD*
G04 #@! TO.C,R14*
G36*
G01*
X106835000Y61425000D02*
X107615000Y61425000D01*
G75*
G02*
X107685000Y61355000I0J-70000D01*
G01*
X107685000Y60795000D01*
G75*
G02*
X107615000Y60725000I-70000J0D01*
G01*
X106835000Y60725000D01*
G75*
G02*
X106765000Y60795000I0J70000D01*
G01*
X106765000Y61355000D01*
G75*
G02*
X106835000Y61425000I70000J0D01*
G01*
G37*
G36*
G01*
X106835000Y59825000D02*
X107615000Y59825000D01*
G75*
G02*
X107685000Y59755000I0J-70000D01*
G01*
X107685000Y59195000D01*
G75*
G02*
X107615000Y59125000I-70000J0D01*
G01*
X106835000Y59125000D01*
G75*
G02*
X106765000Y59195000I0J70000D01*
G01*
X106765000Y59755000D01*
G75*
G02*
X106835000Y59825000I70000J0D01*
G01*
G37*
G04 #@! TD*
G04 #@! TO.C,R43*
G36*
G01*
X76835000Y61425000D02*
X77615000Y61425000D01*
G75*
G02*
X77685000Y61355000I0J-70000D01*
G01*
X77685000Y60795000D01*
G75*
G02*
X77615000Y60725000I-70000J0D01*
G01*
X76835000Y60725000D01*
G75*
G02*
X76765000Y60795000I0J70000D01*
G01*
X76765000Y61355000D01*
G75*
G02*
X76835000Y61425000I70000J0D01*
G01*
G37*
G36*
G01*
X76835000Y59825000D02*
X77615000Y59825000D01*
G75*
G02*
X77685000Y59755000I0J-70000D01*
G01*
X77685000Y59195000D01*
G75*
G02*
X77615000Y59125000I-70000J0D01*
G01*
X76835000Y59125000D01*
G75*
G02*
X76765000Y59195000I0J70000D01*
G01*
X76765000Y59755000D01*
G75*
G02*
X76835000Y59825000I70000J0D01*
G01*
G37*
G04 #@! TD*
G04 #@! TO.C,R19*
G36*
G01*
X95375000Y51165000D02*
X95375000Y50385000D01*
G75*
G02*
X95305000Y50315000I-70000J0D01*
G01*
X94745000Y50315000D01*
G75*
G02*
X94675000Y50385000I0J70000D01*
G01*
X94675000Y51165000D01*
G75*
G02*
X94745000Y51235000I70000J0D01*
G01*
X95305000Y51235000D01*
G75*
G02*
X95375000Y51165000I0J-70000D01*
G01*
G37*
G36*
G01*
X93775000Y51165000D02*
X93775000Y50385000D01*
G75*
G02*
X93705000Y50315000I-70000J0D01*
G01*
X93145000Y50315000D01*
G75*
G02*
X93075000Y50385000I0J70000D01*
G01*
X93075000Y51165000D01*
G75*
G02*
X93145000Y51235000I70000J0D01*
G01*
X93705000Y51235000D01*
G75*
G02*
X93775000Y51165000I0J-70000D01*
G01*
G37*
G04 #@! TD*
G04 #@! TO.C,R51*
G36*
G01*
X88835000Y61425000D02*
X89615000Y61425000D01*
G75*
G02*
X89685000Y61355000I0J-70000D01*
G01*
X89685000Y60795000D01*
G75*
G02*
X89615000Y60725000I-70000J0D01*
G01*
X88835000Y60725000D01*
G75*
G02*
X88765000Y60795000I0J70000D01*
G01*
X88765000Y61355000D01*
G75*
G02*
X88835000Y61425000I70000J0D01*
G01*
G37*
G36*
G01*
X88835000Y59825000D02*
X89615000Y59825000D01*
G75*
G02*
X89685000Y59755000I0J-70000D01*
G01*
X89685000Y59195000D01*
G75*
G02*
X89615000Y59125000I-70000J0D01*
G01*
X88835000Y59125000D01*
G75*
G02*
X88765000Y59195000I0J70000D01*
G01*
X88765000Y59755000D01*
G75*
G02*
X88835000Y59825000I70000J0D01*
G01*
G37*
G04 #@! TD*
G04 #@! TO.C,F10*
G36*
G01*
X117500000Y52518750D02*
X117500000Y53031250D01*
G75*
G02*
X117718750Y53250000I218750J0D01*
G01*
X118156250Y53250000D01*
G75*
G02*
X118375000Y53031250I0J-218750D01*
G01*
X118375000Y52518750D01*
G75*
G02*
X118156250Y52300000I-218750J0D01*
G01*
X117718750Y52300000D01*
G75*
G02*
X117500000Y52518750I0J218750D01*
G01*
G37*
G36*
G01*
X119075000Y52518750D02*
X119075000Y53031250D01*
G75*
G02*
X119293750Y53250000I218750J0D01*
G01*
X119731250Y53250000D01*
G75*
G02*
X119950000Y53031250I0J-218750D01*
G01*
X119950000Y52518750D01*
G75*
G02*
X119731250Y52300000I-218750J0D01*
G01*
X119293750Y52300000D01*
G75*
G02*
X119075000Y52518750I0J218750D01*
G01*
G37*
G04 #@! TD*
G04 #@! TO.C,R50*
G36*
G01*
X91835000Y61425000D02*
X92615000Y61425000D01*
G75*
G02*
X92685000Y61355000I0J-70000D01*
G01*
X92685000Y60795000D01*
G75*
G02*
X92615000Y60725000I-70000J0D01*
G01*
X91835000Y60725000D01*
G75*
G02*
X91765000Y60795000I0J70000D01*
G01*
X91765000Y61355000D01*
G75*
G02*
X91835000Y61425000I70000J0D01*
G01*
G37*
G36*
G01*
X91835000Y59825000D02*
X92615000Y59825000D01*
G75*
G02*
X92685000Y59755000I0J-70000D01*
G01*
X92685000Y59195000D01*
G75*
G02*
X92615000Y59125000I-70000J0D01*
G01*
X91835000Y59125000D01*
G75*
G02*
X91765000Y59195000I0J70000D01*
G01*
X91765000Y59755000D01*
G75*
G02*
X91835000Y59825000I70000J0D01*
G01*
G37*
G04 #@! TD*
G04 #@! TO.C,R48*
G36*
G01*
X97835000Y61425000D02*
X98615000Y61425000D01*
G75*
G02*
X98685000Y61355000I0J-70000D01*
G01*
X98685000Y60795000D01*
G75*
G02*
X98615000Y60725000I-70000J0D01*
G01*
X97835000Y60725000D01*
G75*
G02*
X97765000Y60795000I0J70000D01*
G01*
X97765000Y61355000D01*
G75*
G02*
X97835000Y61425000I70000J0D01*
G01*
G37*
G36*
G01*
X97835000Y59825000D02*
X98615000Y59825000D01*
G75*
G02*
X98685000Y59755000I0J-70000D01*
G01*
X98685000Y59195000D01*
G75*
G02*
X98615000Y59125000I-70000J0D01*
G01*
X97835000Y59125000D01*
G75*
G02*
X97765000Y59195000I0J70000D01*
G01*
X97765000Y59755000D01*
G75*
G02*
X97835000Y59825000I70000J0D01*
G01*
G37*
G04 #@! TD*
G04 #@! TO.C,F6*
G36*
G01*
X85000000Y52518750D02*
X85000000Y53031250D01*
G75*
G02*
X85218750Y53250000I218750J0D01*
G01*
X85656250Y53250000D01*
G75*
G02*
X85875000Y53031250I0J-218750D01*
G01*
X85875000Y52518750D01*
G75*
G02*
X85656250Y52300000I-218750J0D01*
G01*
X85218750Y52300000D01*
G75*
G02*
X85000000Y52518750I0J218750D01*
G01*
G37*
G36*
G01*
X86575000Y52518750D02*
X86575000Y53031250D01*
G75*
G02*
X86793750Y53250000I218750J0D01*
G01*
X87231250Y53250000D01*
G75*
G02*
X87450000Y53031250I0J-218750D01*
G01*
X87450000Y52518750D01*
G75*
G02*
X87231250Y52300000I-218750J0D01*
G01*
X86793750Y52300000D01*
G75*
G02*
X86575000Y52518750I0J218750D01*
G01*
G37*
G04 #@! TD*
G04 #@! TO.C,R44*
G36*
G01*
X85835000Y61425000D02*
X86615000Y61425000D01*
G75*
G02*
X86685000Y61355000I0J-70000D01*
G01*
X86685000Y60795000D01*
G75*
G02*
X86615000Y60725000I-70000J0D01*
G01*
X85835000Y60725000D01*
G75*
G02*
X85765000Y60795000I0J70000D01*
G01*
X85765000Y61355000D01*
G75*
G02*
X85835000Y61425000I70000J0D01*
G01*
G37*
G36*
G01*
X85835000Y59825000D02*
X86615000Y59825000D01*
G75*
G02*
X86685000Y59755000I0J-70000D01*
G01*
X86685000Y59195000D01*
G75*
G02*
X86615000Y59125000I-70000J0D01*
G01*
X85835000Y59125000D01*
G75*
G02*
X85765000Y59195000I0J70000D01*
G01*
X85765000Y59755000D01*
G75*
G02*
X85835000Y59825000I70000J0D01*
G01*
G37*
G04 #@! TD*
G04 #@! TO.C,R27*
G36*
G01*
X109300000Y49350000D02*
X112150000Y49350000D01*
G75*
G02*
X112400000Y49100000I0J-250000D01*
G01*
X112400000Y48375000D01*
G75*
G02*
X112150000Y48125000I-250000J0D01*
G01*
X109300000Y48125000D01*
G75*
G02*
X109050000Y48375000I0J250000D01*
G01*
X109050000Y49100000D01*
G75*
G02*
X109300000Y49350000I250000J0D01*
G01*
G37*
G36*
G01*
X109300000Y43425000D02*
X112150000Y43425000D01*
G75*
G02*
X112400000Y43175000I0J-250000D01*
G01*
X112400000Y42450000D01*
G75*
G02*
X112150000Y42200000I-250000J0D01*
G01*
X109300000Y42200000D01*
G75*
G02*
X109050000Y42450000I0J250000D01*
G01*
X109050000Y43175000D01*
G75*
G02*
X109300000Y43425000I250000J0D01*
G01*
G37*
G04 #@! TD*
G04 #@! TO.C,R13*
G36*
G01*
X109835000Y61425000D02*
X110615000Y61425000D01*
G75*
G02*
X110685000Y61355000I0J-70000D01*
G01*
X110685000Y60795000D01*
G75*
G02*
X110615000Y60725000I-70000J0D01*
G01*
X109835000Y60725000D01*
G75*
G02*
X109765000Y60795000I0J70000D01*
G01*
X109765000Y61355000D01*
G75*
G02*
X109835000Y61425000I70000J0D01*
G01*
G37*
G36*
G01*
X109835000Y59825000D02*
X110615000Y59825000D01*
G75*
G02*
X110685000Y59755000I0J-70000D01*
G01*
X110685000Y59195000D01*
G75*
G02*
X110615000Y59125000I-70000J0D01*
G01*
X109835000Y59125000D01*
G75*
G02*
X109765000Y59195000I0J70000D01*
G01*
X109765000Y59755000D01*
G75*
G02*
X109835000Y59825000I70000J0D01*
G01*
G37*
G04 #@! TD*
G04 #@! TO.C,R23*
G36*
G01*
X103875000Y51165000D02*
X103875000Y50385000D01*
G75*
G02*
X103805000Y50315000I-70000J0D01*
G01*
X103245000Y50315000D01*
G75*
G02*
X103175000Y50385000I0J70000D01*
G01*
X103175000Y51165000D01*
G75*
G02*
X103245000Y51235000I70000J0D01*
G01*
X103805000Y51235000D01*
G75*
G02*
X103875000Y51165000I0J-70000D01*
G01*
G37*
G36*
G01*
X102275000Y51165000D02*
X102275000Y50385000D01*
G75*
G02*
X102205000Y50315000I-70000J0D01*
G01*
X101645000Y50315000D01*
G75*
G02*
X101575000Y50385000I0J70000D01*
G01*
X101575000Y51165000D01*
G75*
G02*
X101645000Y51235000I70000J0D01*
G01*
X102205000Y51235000D01*
G75*
G02*
X102275000Y51165000I0J-70000D01*
G01*
G37*
G04 #@! TD*
G04 #@! TO.C,R49*
G36*
G01*
X94835000Y61425000D02*
X95615000Y61425000D01*
G75*
G02*
X95685000Y61355000I0J-70000D01*
G01*
X95685000Y60795000D01*
G75*
G02*
X95615000Y60725000I-70000J0D01*
G01*
X94835000Y60725000D01*
G75*
G02*
X94765000Y60795000I0J70000D01*
G01*
X94765000Y61355000D01*
G75*
G02*
X94835000Y61425000I70000J0D01*
G01*
G37*
G36*
G01*
X94835000Y59825000D02*
X95615000Y59825000D01*
G75*
G02*
X95685000Y59755000I0J-70000D01*
G01*
X95685000Y59195000D01*
G75*
G02*
X95615000Y59125000I-70000J0D01*
G01*
X94835000Y59125000D01*
G75*
G02*
X94765000Y59195000I0J70000D01*
G01*
X94765000Y59755000D01*
G75*
G02*
X94835000Y59825000I70000J0D01*
G01*
G37*
G04 #@! TD*
G04 #@! TO.C,R45*
G36*
G01*
X82835000Y61425000D02*
X83615000Y61425000D01*
G75*
G02*
X83685000Y61355000I0J-70000D01*
G01*
X83685000Y60795000D01*
G75*
G02*
X83615000Y60725000I-70000J0D01*
G01*
X82835000Y60725000D01*
G75*
G02*
X82765000Y60795000I0J70000D01*
G01*
X82765000Y61355000D01*
G75*
G02*
X82835000Y61425000I70000J0D01*
G01*
G37*
G36*
G01*
X82835000Y59825000D02*
X83615000Y59825000D01*
G75*
G02*
X83685000Y59755000I0J-70000D01*
G01*
X83685000Y59195000D01*
G75*
G02*
X83615000Y59125000I-70000J0D01*
G01*
X82835000Y59125000D01*
G75*
G02*
X82765000Y59195000I0J70000D01*
G01*
X82765000Y59755000D01*
G75*
G02*
X82835000Y59825000I70000J0D01*
G01*
G37*
G04 #@! TD*
G04 #@! TO.C,R24*
G36*
G01*
X111875000Y51165000D02*
X111875000Y50385000D01*
G75*
G02*
X111805000Y50315000I-70000J0D01*
G01*
X111245000Y50315000D01*
G75*
G02*
X111175000Y50385000I0J70000D01*
G01*
X111175000Y51165000D01*
G75*
G02*
X111245000Y51235000I70000J0D01*
G01*
X111805000Y51235000D01*
G75*
G02*
X111875000Y51165000I0J-70000D01*
G01*
G37*
G36*
G01*
X110275000Y51165000D02*
X110275000Y50385000D01*
G75*
G02*
X110205000Y50315000I-70000J0D01*
G01*
X109645000Y50315000D01*
G75*
G02*
X109575000Y50385000I0J70000D01*
G01*
X109575000Y51165000D01*
G75*
G02*
X109645000Y51235000I70000J0D01*
G01*
X110205000Y51235000D01*
G75*
G02*
X110275000Y51165000I0J-70000D01*
G01*
G37*
G04 #@! TD*
G04 #@! TO.C,R28*
G36*
G01*
X117495000Y49350000D02*
X120345000Y49350000D01*
G75*
G02*
X120595000Y49100000I0J-250000D01*
G01*
X120595000Y48375000D01*
G75*
G02*
X120345000Y48125000I-250000J0D01*
G01*
X117495000Y48125000D01*
G75*
G02*
X117245000Y48375000I0J250000D01*
G01*
X117245000Y49100000D01*
G75*
G02*
X117495000Y49350000I250000J0D01*
G01*
G37*
G36*
G01*
X117495000Y43425000D02*
X120345000Y43425000D01*
G75*
G02*
X120595000Y43175000I0J-250000D01*
G01*
X120595000Y42450000D01*
G75*
G02*
X120345000Y42200000I-250000J0D01*
G01*
X117495000Y42200000D01*
G75*
G02*
X117245000Y42450000I0J250000D01*
G01*
X117245000Y43175000D01*
G75*
G02*
X117495000Y43425000I250000J0D01*
G01*
G37*
G04 #@! TD*
G04 #@! TO.C,D2*
G36*
G01*
X83715000Y58225000D02*
X84735000Y58225000D01*
G75*
G02*
X84825000Y58135000I0J-90000D01*
G01*
X84825000Y57415000D01*
G75*
G02*
X84735000Y57325000I-90000J0D01*
G01*
X83715000Y57325000D01*
G75*
G02*
X83625000Y57415000I0J90000D01*
G01*
X83625000Y58135000D01*
G75*
G02*
X83715000Y58225000I90000J0D01*
G01*
G37*
G36*
G01*
X83715000Y54925000D02*
X84735000Y54925000D01*
G75*
G02*
X84825000Y54835000I0J-90000D01*
G01*
X84825000Y54115000D01*
G75*
G02*
X84735000Y54025000I-90000J0D01*
G01*
X83715000Y54025000D01*
G75*
G02*
X83625000Y54115000I0J90000D01*
G01*
X83625000Y54835000D01*
G75*
G02*
X83715000Y54925000I90000J0D01*
G01*
G37*
G04 #@! TD*
G04 #@! TO.C,R3*
G36*
G01*
X125075000Y43885000D02*
X125075000Y44665000D01*
G75*
G02*
X125145000Y44735000I70000J0D01*
G01*
X125705000Y44735000D01*
G75*
G02*
X125775000Y44665000I0J-70000D01*
G01*
X125775000Y43885000D01*
G75*
G02*
X125705000Y43815000I-70000J0D01*
G01*
X125145000Y43815000D01*
G75*
G02*
X125075000Y43885000I0J70000D01*
G01*
G37*
G36*
G01*
X126675000Y43885000D02*
X126675000Y44665000D01*
G75*
G02*
X126745000Y44735000I70000J0D01*
G01*
X127305000Y44735000D01*
G75*
G02*
X127375000Y44665000I0J-70000D01*
G01*
X127375000Y43885000D01*
G75*
G02*
X127305000Y43815000I-70000J0D01*
G01*
X126745000Y43815000D01*
G75*
G02*
X126675000Y43885000I0J70000D01*
G01*
G37*
G04 #@! TD*
G04 #@! TO.C,R36*
G36*
G01*
X108335000Y61425000D02*
X109115000Y61425000D01*
G75*
G02*
X109185000Y61355000I0J-70000D01*
G01*
X109185000Y60795000D01*
G75*
G02*
X109115000Y60725000I-70000J0D01*
G01*
X108335000Y60725000D01*
G75*
G02*
X108265000Y60795000I0J70000D01*
G01*
X108265000Y61355000D01*
G75*
G02*
X108335000Y61425000I70000J0D01*
G01*
G37*
G36*
G01*
X108335000Y59825000D02*
X109115000Y59825000D01*
G75*
G02*
X109185000Y59755000I0J-70000D01*
G01*
X109185000Y59195000D01*
G75*
G02*
X109115000Y59125000I-70000J0D01*
G01*
X108335000Y59125000D01*
G75*
G02*
X108265000Y59195000I0J70000D01*
G01*
X108265000Y59755000D01*
G75*
G02*
X108335000Y59825000I70000J0D01*
G01*
G37*
G04 #@! TD*
G04 #@! TO.C,R22*
G36*
G01*
X92800000Y49350000D02*
X95650000Y49350000D01*
G75*
G02*
X95900000Y49100000I0J-250000D01*
G01*
X95900000Y48375000D01*
G75*
G02*
X95650000Y48125000I-250000J0D01*
G01*
X92800000Y48125000D01*
G75*
G02*
X92550000Y48375000I0J250000D01*
G01*
X92550000Y49100000D01*
G75*
G02*
X92800000Y49350000I250000J0D01*
G01*
G37*
G36*
G01*
X92800000Y43425000D02*
X95650000Y43425000D01*
G75*
G02*
X95900000Y43175000I0J-250000D01*
G01*
X95900000Y42450000D01*
G75*
G02*
X95650000Y42200000I-250000J0D01*
G01*
X92800000Y42200000D01*
G75*
G02*
X92550000Y42450000I0J250000D01*
G01*
X92550000Y43175000D01*
G75*
G02*
X92800000Y43425000I250000J0D01*
G01*
G37*
G04 #@! TD*
G04 #@! TO.C,R46*
G36*
G01*
X103835000Y61425000D02*
X104615000Y61425000D01*
G75*
G02*
X104685000Y61355000I0J-70000D01*
G01*
X104685000Y60795000D01*
G75*
G02*
X104615000Y60725000I-70000J0D01*
G01*
X103835000Y60725000D01*
G75*
G02*
X103765000Y60795000I0J70000D01*
G01*
X103765000Y61355000D01*
G75*
G02*
X103835000Y61425000I70000J0D01*
G01*
G37*
G36*
G01*
X103835000Y59825000D02*
X104615000Y59825000D01*
G75*
G02*
X104685000Y59755000I0J-70000D01*
G01*
X104685000Y59195000D01*
G75*
G02*
X104615000Y59125000I-70000J0D01*
G01*
X103835000Y59125000D01*
G75*
G02*
X103765000Y59195000I0J70000D01*
G01*
X103765000Y59755000D01*
G75*
G02*
X103835000Y59825000I70000J0D01*
G01*
G37*
G04 #@! TD*
G04 #@! TO.C,F9*
G36*
G01*
X109500000Y52518750D02*
X109500000Y53031250D01*
G75*
G02*
X109718750Y53250000I218750J0D01*
G01*
X110156250Y53250000D01*
G75*
G02*
X110375000Y53031250I0J-218750D01*
G01*
X110375000Y52518750D01*
G75*
G02*
X110156250Y52300000I-218750J0D01*
G01*
X109718750Y52300000D01*
G75*
G02*
X109500000Y52518750I0J218750D01*
G01*
G37*
G36*
G01*
X111075000Y52518750D02*
X111075000Y53031250D01*
G75*
G02*
X111293750Y53250000I218750J0D01*
G01*
X111731250Y53250000D01*
G75*
G02*
X111950000Y53031250I0J-218750D01*
G01*
X111950000Y52518750D01*
G75*
G02*
X111731250Y52300000I-218750J0D01*
G01*
X111293750Y52300000D01*
G75*
G02*
X111075000Y52518750I0J218750D01*
G01*
G37*
G04 #@! TD*
G04 #@! TO.C,R41*
G36*
G01*
X135835000Y93925000D02*
X136615000Y93925000D01*
G75*
G02*
X136685000Y93855000I0J-70000D01*
G01*
X136685000Y93295000D01*
G75*
G02*
X136615000Y93225000I-70000J0D01*
G01*
X135835000Y93225000D01*
G75*
G02*
X135765000Y93295000I0J70000D01*
G01*
X135765000Y93855000D01*
G75*
G02*
X135835000Y93925000I70000J0D01*
G01*
G37*
G36*
G01*
X135835000Y92325000D02*
X136615000Y92325000D01*
G75*
G02*
X136685000Y92255000I0J-70000D01*
G01*
X136685000Y91695000D01*
G75*
G02*
X136615000Y91625000I-70000J0D01*
G01*
X135835000Y91625000D01*
G75*
G02*
X135765000Y91695000I0J70000D01*
G01*
X135765000Y92255000D01*
G75*
G02*
X135835000Y92325000I70000J0D01*
G01*
G37*
G04 #@! TD*
G04 #@! TO.C,R42*
G36*
G01*
X79835000Y61425000D02*
X80615000Y61425000D01*
G75*
G02*
X80685000Y61355000I0J-70000D01*
G01*
X80685000Y60795000D01*
G75*
G02*
X80615000Y60725000I-70000J0D01*
G01*
X79835000Y60725000D01*
G75*
G02*
X79765000Y60795000I0J70000D01*
G01*
X79765000Y61355000D01*
G75*
G02*
X79835000Y61425000I70000J0D01*
G01*
G37*
G36*
G01*
X79835000Y59825000D02*
X80615000Y59825000D01*
G75*
G02*
X80685000Y59755000I0J-70000D01*
G01*
X80685000Y59195000D01*
G75*
G02*
X80615000Y59125000I-70000J0D01*
G01*
X79835000Y59125000D01*
G75*
G02*
X79765000Y59195000I0J70000D01*
G01*
X79765000Y59755000D01*
G75*
G02*
X79835000Y59825000I70000J0D01*
G01*
G37*
G04 #@! TD*
G04 #@! TO.C,F8*
G36*
G01*
X101500000Y52518750D02*
X101500000Y53031250D01*
G75*
G02*
X101718750Y53250000I218750J0D01*
G01*
X102156250Y53250000D01*
G75*
G02*
X102375000Y53031250I0J-218750D01*
G01*
X102375000Y52518750D01*
G75*
G02*
X102156250Y52300000I-218750J0D01*
G01*
X101718750Y52300000D01*
G75*
G02*
X101500000Y52518750I0J218750D01*
G01*
G37*
G36*
G01*
X103075000Y52518750D02*
X103075000Y53031250D01*
G75*
G02*
X103293750Y53250000I218750J0D01*
G01*
X103731250Y53250000D01*
G75*
G02*
X103950000Y53031250I0J-218750D01*
G01*
X103950000Y52518750D01*
G75*
G02*
X103731250Y52300000I-218750J0D01*
G01*
X103293750Y52300000D01*
G75*
G02*
X103075000Y52518750I0J218750D01*
G01*
G37*
G04 #@! TD*
G04 #@! TO.C,R2*
G36*
G01*
X127375000Y43165000D02*
X127375000Y42385000D01*
G75*
G02*
X127305000Y42315000I-70000J0D01*
G01*
X126745000Y42315000D01*
G75*
G02*
X126675000Y42385000I0J70000D01*
G01*
X126675000Y43165000D01*
G75*
G02*
X126745000Y43235000I70000J0D01*
G01*
X127305000Y43235000D01*
G75*
G02*
X127375000Y43165000I0J-70000D01*
G01*
G37*
G36*
G01*
X125775000Y43165000D02*
X125775000Y42385000D01*
G75*
G02*
X125705000Y42315000I-70000J0D01*
G01*
X125145000Y42315000D01*
G75*
G02*
X125075000Y42385000I0J70000D01*
G01*
X125075000Y43165000D01*
G75*
G02*
X125145000Y43235000I70000J0D01*
G01*
X125705000Y43235000D01*
G75*
G02*
X125775000Y43165000I0J-70000D01*
G01*
G37*
G04 #@! TD*
G04 #@! TO.C,F5*
G36*
G01*
X76500000Y52518750D02*
X76500000Y53031250D01*
G75*
G02*
X76718750Y53250000I218750J0D01*
G01*
X77156250Y53250000D01*
G75*
G02*
X77375000Y53031250I0J-218750D01*
G01*
X77375000Y52518750D01*
G75*
G02*
X77156250Y52300000I-218750J0D01*
G01*
X76718750Y52300000D01*
G75*
G02*
X76500000Y52518750I0J218750D01*
G01*
G37*
G36*
G01*
X78075000Y52518750D02*
X78075000Y53031250D01*
G75*
G02*
X78293750Y53250000I218750J0D01*
G01*
X78731250Y53250000D01*
G75*
G02*
X78950000Y53031250I0J-218750D01*
G01*
X78950000Y52518750D01*
G75*
G02*
X78731250Y52300000I-218750J0D01*
G01*
X78293750Y52300000D01*
G75*
G02*
X78075000Y52518750I0J218750D01*
G01*
G37*
G04 #@! TD*
G04 #@! TO.C,R16*
G36*
G01*
X84335000Y61425000D02*
X85115000Y61425000D01*
G75*
G02*
X85185000Y61355000I0J-70000D01*
G01*
X85185000Y60795000D01*
G75*
G02*
X85115000Y60725000I-70000J0D01*
G01*
X84335000Y60725000D01*
G75*
G02*
X84265000Y60795000I0J70000D01*
G01*
X84265000Y61355000D01*
G75*
G02*
X84335000Y61425000I70000J0D01*
G01*
G37*
G36*
G01*
X84335000Y59825000D02*
X85115000Y59825000D01*
G75*
G02*
X85185000Y59755000I0J-70000D01*
G01*
X85185000Y59195000D01*
G75*
G02*
X85115000Y59125000I-70000J0D01*
G01*
X84335000Y59125000D01*
G75*
G02*
X84265000Y59195000I0J70000D01*
G01*
X84265000Y59755000D01*
G75*
G02*
X84335000Y59825000I70000J0D01*
G01*
G37*
G04 #@! TD*
G04 #@! TO.C,R18*
G36*
G01*
X87375000Y51165000D02*
X87375000Y50385000D01*
G75*
G02*
X87305000Y50315000I-70000J0D01*
G01*
X86745000Y50315000D01*
G75*
G02*
X86675000Y50385000I0J70000D01*
G01*
X86675000Y51165000D01*
G75*
G02*
X86745000Y51235000I70000J0D01*
G01*
X87305000Y51235000D01*
G75*
G02*
X87375000Y51165000I0J-70000D01*
G01*
G37*
G36*
G01*
X85775000Y51165000D02*
X85775000Y50385000D01*
G75*
G02*
X85705000Y50315000I-70000J0D01*
G01*
X85145000Y50315000D01*
G75*
G02*
X85075000Y50385000I0J70000D01*
G01*
X85075000Y51165000D01*
G75*
G02*
X85145000Y51235000I70000J0D01*
G01*
X85705000Y51235000D01*
G75*
G02*
X85775000Y51165000I0J-70000D01*
G01*
G37*
G04 #@! TD*
G04 #@! TO.C,R53*
G36*
G01*
X137335000Y93925000D02*
X138115000Y93925000D01*
G75*
G02*
X138185000Y93855000I0J-70000D01*
G01*
X138185000Y93295000D01*
G75*
G02*
X138115000Y93225000I-70000J0D01*
G01*
X137335000Y93225000D01*
G75*
G02*
X137265000Y93295000I0J70000D01*
G01*
X137265000Y93855000D01*
G75*
G02*
X137335000Y93925000I70000J0D01*
G01*
G37*
G36*
G01*
X137335000Y92325000D02*
X138115000Y92325000D01*
G75*
G02*
X138185000Y92255000I0J-70000D01*
G01*
X138185000Y91695000D01*
G75*
G02*
X138115000Y91625000I-70000J0D01*
G01*
X137335000Y91625000D01*
G75*
G02*
X137265000Y91695000I0J70000D01*
G01*
X137265000Y92255000D01*
G75*
G02*
X137335000Y92325000I70000J0D01*
G01*
G37*
G04 #@! TD*
G04 #@! TO.C,D3*
G36*
G01*
X78215000Y58225000D02*
X79235000Y58225000D01*
G75*
G02*
X79325000Y58135000I0J-90000D01*
G01*
X79325000Y57415000D01*
G75*
G02*
X79235000Y57325000I-90000J0D01*
G01*
X78215000Y57325000D01*
G75*
G02*
X78125000Y57415000I0J90000D01*
G01*
X78125000Y58135000D01*
G75*
G02*
X78215000Y58225000I90000J0D01*
G01*
G37*
G36*
G01*
X78215000Y54925000D02*
X79235000Y54925000D01*
G75*
G02*
X79325000Y54835000I0J-90000D01*
G01*
X79325000Y54115000D01*
G75*
G02*
X79235000Y54025000I-90000J0D01*
G01*
X78215000Y54025000D01*
G75*
G02*
X78125000Y54115000I0J90000D01*
G01*
X78125000Y54835000D01*
G75*
G02*
X78215000Y54925000I90000J0D01*
G01*
G37*
G04 #@! TD*
G04 #@! TO.C,R34*
G36*
G01*
X87335000Y61425000D02*
X88115000Y61425000D01*
G75*
G02*
X88185000Y61355000I0J-70000D01*
G01*
X88185000Y60795000D01*
G75*
G02*
X88115000Y60725000I-70000J0D01*
G01*
X87335000Y60725000D01*
G75*
G02*
X87265000Y60795000I0J70000D01*
G01*
X87265000Y61355000D01*
G75*
G02*
X87335000Y61425000I70000J0D01*
G01*
G37*
G36*
G01*
X87335000Y59825000D02*
X88115000Y59825000D01*
G75*
G02*
X88185000Y59755000I0J-70000D01*
G01*
X88185000Y59195000D01*
G75*
G02*
X88115000Y59125000I-70000J0D01*
G01*
X87335000Y59125000D01*
G75*
G02*
X87265000Y59195000I0J70000D01*
G01*
X87265000Y59755000D01*
G75*
G02*
X87335000Y59825000I70000J0D01*
G01*
G37*
G04 #@! TD*
G04 #@! TO.C,D4*
G36*
G01*
X75715000Y58375000D02*
X76735000Y58375000D01*
G75*
G02*
X76825000Y58285000I0J-90000D01*
G01*
X76825000Y57565000D01*
G75*
G02*
X76735000Y57475000I-90000J0D01*
G01*
X75715000Y57475000D01*
G75*
G02*
X75625000Y57565000I0J90000D01*
G01*
X75625000Y58285000D01*
G75*
G02*
X75715000Y58375000I90000J0D01*
G01*
G37*
G36*
G01*
X75715000Y55075000D02*
X76735000Y55075000D01*
G75*
G02*
X76825000Y54985000I0J-90000D01*
G01*
X76825000Y54265000D01*
G75*
G02*
X76735000Y54175000I-90000J0D01*
G01*
X75715000Y54175000D01*
G75*
G02*
X75625000Y54265000I0J90000D01*
G01*
X75625000Y54985000D01*
G75*
G02*
X75715000Y55075000I90000J0D01*
G01*
G37*
G04 #@! TD*
G04 #@! TO.C,R20*
G36*
G01*
X76800000Y49387500D02*
X79650000Y49387500D01*
G75*
G02*
X79900000Y49137500I0J-250000D01*
G01*
X79900000Y48412500D01*
G75*
G02*
X79650000Y48162500I-250000J0D01*
G01*
X76800000Y48162500D01*
G75*
G02*
X76550000Y48412500I0J250000D01*
G01*
X76550000Y49137500D01*
G75*
G02*
X76800000Y49387500I250000J0D01*
G01*
G37*
G36*
G01*
X76800000Y43462500D02*
X79650000Y43462500D01*
G75*
G02*
X79900000Y43212500I0J-250000D01*
G01*
X79900000Y42487500D01*
G75*
G02*
X79650000Y42237500I-250000J0D01*
G01*
X76800000Y42237500D01*
G75*
G02*
X76550000Y42487500I0J250000D01*
G01*
X76550000Y43212500D01*
G75*
G02*
X76800000Y43462500I250000J0D01*
G01*
G37*
G04 #@! TD*
G04 #@! TO.C,R21*
G36*
G01*
X84800000Y49312500D02*
X87650000Y49312500D01*
G75*
G02*
X87900000Y49062500I0J-250000D01*
G01*
X87900000Y48337500D01*
G75*
G02*
X87650000Y48087500I-250000J0D01*
G01*
X84800000Y48087500D01*
G75*
G02*
X84550000Y48337500I0J250000D01*
G01*
X84550000Y49062500D01*
G75*
G02*
X84800000Y49312500I250000J0D01*
G01*
G37*
G36*
G01*
X84800000Y43387500D02*
X87650000Y43387500D01*
G75*
G02*
X87900000Y43137500I0J-250000D01*
G01*
X87900000Y42412500D01*
G75*
G02*
X87650000Y42162500I-250000J0D01*
G01*
X84800000Y42162500D01*
G75*
G02*
X84550000Y42412500I0J250000D01*
G01*
X84550000Y43137500D01*
G75*
G02*
X84800000Y43387500I250000J0D01*
G01*
G37*
G04 #@! TD*
G04 #@! TO.C,F7*
G36*
G01*
X93000000Y52518750D02*
X93000000Y53031250D01*
G75*
G02*
X93218750Y53250000I218750J0D01*
G01*
X93656250Y53250000D01*
G75*
G02*
X93875000Y53031250I0J-218750D01*
G01*
X93875000Y52518750D01*
G75*
G02*
X93656250Y52300000I-218750J0D01*
G01*
X93218750Y52300000D01*
G75*
G02*
X93000000Y52518750I0J218750D01*
G01*
G37*
G36*
G01*
X94575000Y52518750D02*
X94575000Y53031250D01*
G75*
G02*
X94793750Y53250000I218750J0D01*
G01*
X95231250Y53250000D01*
G75*
G02*
X95450000Y53031250I0J-218750D01*
G01*
X95450000Y52518750D01*
G75*
G02*
X95231250Y52300000I-218750J0D01*
G01*
X94793750Y52300000D01*
G75*
G02*
X94575000Y52518750I0J218750D01*
G01*
G37*
G04 #@! TD*
G04 #@! TO.C,R26*
G36*
G01*
X101300000Y49350000D02*
X104150000Y49350000D01*
G75*
G02*
X104400000Y49100000I0J-250000D01*
G01*
X104400000Y48375000D01*
G75*
G02*
X104150000Y48125000I-250000J0D01*
G01*
X101300000Y48125000D01*
G75*
G02*
X101050000Y48375000I0J250000D01*
G01*
X101050000Y49100000D01*
G75*
G02*
X101300000Y49350000I250000J0D01*
G01*
G37*
G36*
G01*
X101300000Y43425000D02*
X104150000Y43425000D01*
G75*
G02*
X104400000Y43175000I0J-250000D01*
G01*
X104400000Y42450000D01*
G75*
G02*
X104150000Y42200000I-250000J0D01*
G01*
X101300000Y42200000D01*
G75*
G02*
X101050000Y42450000I0J250000D01*
G01*
X101050000Y43175000D01*
G75*
G02*
X101300000Y43425000I250000J0D01*
G01*
G37*
G04 #@! TD*
G04 #@! TO.C,R47*
G36*
G01*
X100835000Y61425000D02*
X101615000Y61425000D01*
G75*
G02*
X101685000Y61355000I0J-70000D01*
G01*
X101685000Y60795000D01*
G75*
G02*
X101615000Y60725000I-70000J0D01*
G01*
X100835000Y60725000D01*
G75*
G02*
X100765000Y60795000I0J70000D01*
G01*
X100765000Y61355000D01*
G75*
G02*
X100835000Y61425000I70000J0D01*
G01*
G37*
G36*
G01*
X100835000Y59825000D02*
X101615000Y59825000D01*
G75*
G02*
X101685000Y59755000I0J-70000D01*
G01*
X101685000Y59195000D01*
G75*
G02*
X101615000Y59125000I-70000J0D01*
G01*
X100835000Y59125000D01*
G75*
G02*
X100765000Y59195000I0J70000D01*
G01*
X100765000Y59755000D01*
G75*
G02*
X100835000Y59825000I70000J0D01*
G01*
G37*
G04 #@! TD*
G04 #@! TO.C,R32*
G36*
G01*
X99335000Y61425000D02*
X100115000Y61425000D01*
G75*
G02*
X100185000Y61355000I0J-70000D01*
G01*
X100185000Y60795000D01*
G75*
G02*
X100115000Y60725000I-70000J0D01*
G01*
X99335000Y60725000D01*
G75*
G02*
X99265000Y60795000I0J70000D01*
G01*
X99265000Y61355000D01*
G75*
G02*
X99335000Y61425000I70000J0D01*
G01*
G37*
G36*
G01*
X99335000Y59825000D02*
X100115000Y59825000D01*
G75*
G02*
X100185000Y59755000I0J-70000D01*
G01*
X100185000Y59195000D01*
G75*
G02*
X100115000Y59125000I-70000J0D01*
G01*
X99335000Y59125000D01*
G75*
G02*
X99265000Y59195000I0J70000D01*
G01*
X99265000Y59755000D01*
G75*
G02*
X99335000Y59825000I70000J0D01*
G01*
G37*
G04 #@! TD*
D22*
G04 #@! TO.C,P1*
X17073000Y3892000D03*
D23*
X19523000Y11692000D03*
D22*
X91573000Y3892000D03*
D23*
X141323000Y11692000D03*
D22*
X143773000Y3892000D03*
D24*
X24173000Y8892000D03*
X29973000Y8892000D03*
X27073000Y11222000D03*
X24173000Y17022000D03*
X29973000Y17022000D03*
D14*
X83593000Y17022000D03*
X81053000Y17022000D03*
X78513000Y17022000D03*
X75973000Y17022000D03*
X73433000Y17022000D03*
X70893000Y17022000D03*
X68353000Y17022000D03*
X65813000Y17022000D03*
X63273000Y17022000D03*
X60733000Y17022000D03*
X58193000Y17022000D03*
X55653000Y17022000D03*
X53113000Y17022000D03*
X50573000Y17022000D03*
X48033000Y17022000D03*
X45493000Y17022000D03*
X42953000Y17022000D03*
X40413000Y17022000D03*
X37873000Y17022000D03*
X83593000Y14482000D03*
X81053000Y14482000D03*
X78513000Y14482000D03*
X75973000Y14482000D03*
X73433000Y14482000D03*
X70893000Y14482000D03*
X68353000Y14482000D03*
X65813000Y14482000D03*
X63273000Y14482000D03*
X60733000Y14482000D03*
X58193000Y14482000D03*
X55653000Y14482000D03*
X53113000Y14482000D03*
X50573000Y14482000D03*
X48033000Y14482000D03*
X45493000Y14482000D03*
X42953000Y14482000D03*
X40413000Y14482000D03*
X37873000Y14482000D03*
X83593000Y8432000D03*
X81053000Y8432000D03*
X78513000Y8432000D03*
X75973000Y8432000D03*
X73433000Y8432000D03*
X70893000Y8432000D03*
X68353000Y8432000D03*
X65813000Y8432000D03*
X63273000Y8432000D03*
X60733000Y8432000D03*
X58193000Y8432000D03*
X55653000Y8432000D03*
X53113000Y8432000D03*
X50573000Y8432000D03*
X48033000Y8432000D03*
X45493000Y8432000D03*
X42953000Y8432000D03*
X40413000Y8432000D03*
X37873000Y8432000D03*
X83593000Y5892000D03*
X81053000Y5892000D03*
X78513000Y5892000D03*
X75973000Y5892000D03*
X73433000Y5892000D03*
X70893000Y5892000D03*
X68353000Y5892000D03*
X65813000Y5892000D03*
X63273000Y5892000D03*
X60733000Y5892000D03*
X58193000Y5892000D03*
X55653000Y5892000D03*
X53113000Y5892000D03*
X50573000Y5892000D03*
X48033000Y5892000D03*
X45493000Y5892000D03*
X42953000Y5892000D03*
X40413000Y5892000D03*
X37873000Y5892000D03*
X99563000Y5892000D03*
X102103000Y5892000D03*
X104643000Y5892000D03*
X107183000Y5892000D03*
X109723000Y5892000D03*
X112263000Y5892000D03*
X114803000Y5892000D03*
X117343000Y5892000D03*
X99563000Y8432000D03*
X102103000Y8432000D03*
X104643000Y8432000D03*
X107183000Y8432000D03*
X109723000Y8432000D03*
X112263000Y8432000D03*
X114803000Y8432000D03*
X117343000Y8432000D03*
X99563000Y14482000D03*
X102103000Y14482000D03*
X104643000Y14482000D03*
X107183000Y14482000D03*
X109723000Y14482000D03*
X112263000Y14482000D03*
X114803000Y14482000D03*
X117343000Y14482000D03*
X99563000Y17022000D03*
X102103000Y17022000D03*
X104643000Y17022000D03*
X107183000Y17022000D03*
X109723000Y17022000D03*
X112263000Y17022000D03*
X114803000Y17022000D03*
X117343000Y17022000D03*
D24*
X125173000Y8892000D03*
X130973000Y8892000D03*
X136873000Y8892000D03*
X128073000Y11222000D03*
X133973000Y11222000D03*
X125173000Y17022000D03*
X130973000Y17022000D03*
X136873000Y17022000D03*
G04 #@! TD*
M02*
