G04 #@! TF.GenerationSoftware,KiCad,Pcbnew,8.0.8*
G04 #@! TF.CreationDate,2025-12-17T11:20:01-05:00*
G04 #@! TF.ProjectId,hellen121vag,68656c6c-656e-4313-9231-7661672e6b69,d*
G04 #@! TF.SameCoordinates,Original*
G04 #@! TF.FileFunction,Copper,L4,Bot*
G04 #@! TF.FilePolarity,Positive*
%FSLAX46Y46*%
G04 Gerber Fmt 4.6, Leading zero omitted, Abs format (unit mm)*
G04 Created by KiCad (PCBNEW 8.0.8) date 2025-12-17 11:20:01*
%MOMM*%
%LPD*%
G01*
G04 APERTURE LIST*
G04 #@! TA.AperFunction,ComponentPad*
%ADD10C,1.500000*%
G04 #@! TD*
G04 #@! TA.AperFunction,ComponentPad*
%ADD11C,0.600000*%
G04 #@! TD*
G04 #@! TA.AperFunction,SMDPad,CuDef*
%ADD12O,0.200000X3.300000*%
G04 #@! TD*
G04 #@! TA.AperFunction,SMDPad,CuDef*
%ADD13O,0.200000X10.200000*%
G04 #@! TD*
G04 #@! TA.AperFunction,SMDPad,CuDef*
%ADD14O,0.200000X0.300000*%
G04 #@! TD*
G04 #@! TA.AperFunction,SMDPad,CuDef*
%ADD15O,17.000000X0.200000*%
G04 #@! TD*
G04 #@! TA.AperFunction,SMDPad,CuDef*
%ADD16O,15.400000X0.200000*%
G04 #@! TD*
G04 #@! TA.AperFunction,SMDPad,CuDef*
%ADD17O,0.200000X4.800000*%
G04 #@! TD*
G04 #@! TA.AperFunction,SMDPad,CuDef*
%ADD18O,0.200000X2.600000*%
G04 #@! TD*
G04 #@! TA.AperFunction,SMDPad,CuDef*
%ADD19O,0.200000X1.000000*%
G04 #@! TD*
G04 #@! TA.AperFunction,SMDPad,CuDef*
%ADD20O,0.200000X1.500000*%
G04 #@! TD*
G04 #@! TA.AperFunction,SMDPad,CuDef*
%ADD21O,0.200000X1.225000*%
G04 #@! TD*
G04 #@! TA.AperFunction,SMDPad,CuDef*
%ADD22O,9.300000X0.200000*%
G04 #@! TD*
G04 #@! TA.AperFunction,SMDPad,CuDef*
%ADD23R,6.185000X0.250000*%
G04 #@! TD*
G04 #@! TA.AperFunction,SMDPad,CuDef*
%ADD24R,1.115000X0.250000*%
G04 #@! TD*
G04 #@! TA.AperFunction,SMDPad,CuDef*
%ADD25R,0.250000X14.275000*%
G04 #@! TD*
G04 #@! TA.AperFunction,SMDPad,CuDef*
%ADD26R,0.250000X15.100000*%
G04 #@! TD*
G04 #@! TA.AperFunction,SMDPad,CuDef*
%ADD27R,5.175000X0.250000*%
G04 #@! TD*
G04 #@! TA.AperFunction,ComponentPad*
%ADD28C,1.524000*%
G04 #@! TD*
G04 #@! TA.AperFunction,ComponentPad*
%ADD29O,1.700000X1.850000*%
G04 #@! TD*
G04 #@! TA.AperFunction,SMDPad,CuDef*
%ADD30R,4.400000X0.200000*%
G04 #@! TD*
G04 #@! TA.AperFunction,SMDPad,CuDef*
%ADD31R,0.200000X1.200000*%
G04 #@! TD*
G04 #@! TA.AperFunction,SMDPad,CuDef*
%ADD32R,0.200000X6.800000*%
G04 #@! TD*
G04 #@! TA.AperFunction,SMDPad,CuDef*
%ADD33R,0.200000X4.000000*%
G04 #@! TD*
G04 #@! TA.AperFunction,SMDPad,CuDef*
%ADD34R,0.200000X1.800000*%
G04 #@! TD*
G04 #@! TA.AperFunction,SMDPad,CuDef*
%ADD35R,10.000000X0.200000*%
G04 #@! TD*
G04 #@! TA.AperFunction,ComponentPad*
%ADD36C,1.000000*%
G04 #@! TD*
G04 #@! TA.AperFunction,ComponentPad*
%ADD37C,0.700000*%
G04 #@! TD*
G04 #@! TA.AperFunction,SMDPad,CuDef*
%ADD38R,1.100000X0.250000*%
G04 #@! TD*
G04 #@! TA.AperFunction,SMDPad,CuDef*
%ADD39R,0.980000X0.250000*%
G04 #@! TD*
G04 #@! TA.AperFunction,SMDPad,CuDef*
%ADD40R,6.300000X0.250000*%
G04 #@! TD*
G04 #@! TA.AperFunction,SMDPad,CuDef*
%ADD41R,0.250000X27.600000*%
G04 #@! TD*
G04 #@! TA.AperFunction,SMDPad,CuDef*
%ADD42R,8.750000X0.250000*%
G04 #@! TD*
G04 #@! TA.AperFunction,SMDPad,CuDef*
%ADD43R,0.950000X0.250000*%
G04 #@! TD*
G04 #@! TA.AperFunction,ComponentPad*
%ADD44R,1.100000X1.100000*%
G04 #@! TD*
G04 #@! TA.AperFunction,ComponentPad*
%ADD45C,1.100000*%
G04 #@! TD*
G04 #@! TA.AperFunction,ComponentPad*
%ADD46O,2.400000X1.100000*%
G04 #@! TD*
G04 #@! TA.AperFunction,ComponentPad*
%ADD47C,0.599999*%
G04 #@! TD*
G04 #@! TA.AperFunction,ComponentPad*
%ADD48C,3.700000*%
G04 #@! TD*
G04 #@! TA.AperFunction,ComponentPad*
%ADD49C,2.200000*%
G04 #@! TD*
G04 #@! TA.AperFunction,ComponentPad*
%ADD50C,2.600000*%
G04 #@! TD*
G04 #@! TA.AperFunction,SMDPad,CuDef*
%ADD51R,0.200000X3.700000*%
G04 #@! TD*
G04 #@! TA.AperFunction,SMDPad,CuDef*
%ADD52R,0.200000X0.400000*%
G04 #@! TD*
G04 #@! TA.AperFunction,SMDPad,CuDef*
%ADD53R,0.200000X1.600000*%
G04 #@! TD*
G04 #@! TA.AperFunction,SMDPad,CuDef*
%ADD54R,0.200000X9.700000*%
G04 #@! TD*
G04 #@! TA.AperFunction,SMDPad,CuDef*
%ADD55R,0.200000X2.300000*%
G04 #@! TD*
G04 #@! TA.AperFunction,SMDPad,CuDef*
%ADD56R,1.400000X0.200000*%
G04 #@! TD*
G04 #@! TA.AperFunction,SMDPad,CuDef*
%ADD57R,6.400000X0.200000*%
G04 #@! TD*
G04 #@! TA.AperFunction,SMDPad,CuDef*
%ADD58R,1.700000X0.200000*%
G04 #@! TD*
G04 #@! TA.AperFunction,SMDPad,CuDef*
%ADD59R,3.300000X0.200000*%
G04 #@! TD*
G04 #@! TA.AperFunction,SMDPad,CuDef*
%ADD60R,0.200000X7.000000*%
G04 #@! TD*
G04 #@! TA.AperFunction,SMDPad,CuDef*
%ADD61R,0.200000X3.300000*%
G04 #@! TD*
G04 #@! TA.AperFunction,SMDPad,CuDef*
%ADD62R,0.200000X6.300000*%
G04 #@! TD*
G04 #@! TA.AperFunction,ViaPad*
%ADD63C,2.000000*%
G04 #@! TD*
G04 APERTURE END LIST*
D10*
G04 #@! TO.P,M1,E1,VBAT*
G04 #@! TO.N,/VBAT*
X95749998Y-62500003D03*
G04 #@! TO.P,M1,E2,V12*
G04 #@! TO.N,unconnected-(M1-V12-PadE2)*
X95749998Y-68900000D03*
G04 #@! TO.P,M1,E3,VIGN*
G04 #@! TO.N,/VIGN*
X95749998Y-70800003D03*
G04 #@! TO.P,M1,E4,V5*
G04 #@! TO.N,+5V*
X95749998Y-75100003D03*
D11*
G04 #@! TO.P,M1,E5,EN_5VP*
G04 #@! TO.N,/PWR_EN*
X96199997Y-77500000D03*
G04 #@! TO.P,M1,E6,PG_5VP*
G04 #@! TO.N,Net-(M1-PG_5VP)*
X96199997Y-78500001D03*
D12*
G04 #@! TO.P,M1,S1,GND*
G04 #@! TO.N,PIN114*
X79600002Y-66350003D03*
D13*
X79600002Y-74850001D03*
D14*
X79600002Y-81950003D03*
D15*
X88000000Y-82000003D03*
D16*
X88800001Y-61400003D03*
D10*
X95749998Y-81350003D03*
D14*
X96399999Y-61450003D03*
D17*
X96399999Y-65650001D03*
D18*
X96399999Y-73000003D03*
D19*
X96399999Y-76500000D03*
D20*
X96399999Y-79800001D03*
D10*
G04 #@! TO.P,M1,V1,V12_PERM*
G04 #@! TO.N,PIN116*
X80250001Y-62050001D03*
G04 #@! TO.P,M1,V2,IN_VIGN*
G04 #@! TO.N,/IN_VIGN*
X80250001Y-63900000D03*
G04 #@! TO.P,M1,V3,V12_RAW*
G04 #@! TO.N,PIN117*
X80250001Y-68850003D03*
G04 #@! TO.P,M1,V4,5VP*
G04 #@! TO.N,PIN106*
X80250001Y-80900001D03*
G04 #@! TD*
D11*
G04 #@! TO.P,M2,E1,V5A*
G04 #@! TO.N,+5VA*
X155025000Y-37074999D03*
D21*
G04 #@! TO.P,M2,E2,GND*
G04 #@! TO.N,PIN114*
X163925000Y-35099999D03*
D22*
X159375000Y-37674999D03*
X159375000Y-34574999D03*
D11*
X155025000Y-36124999D03*
G04 #@! TO.P,M2,E3,OUT_KNOCK*
G04 #@! TO.N,/IN_KNOCK*
X155025000Y-35175001D03*
G04 #@! TO.P,M2,W1,IN_KNOCK*
G04 #@! TO.N,PIN81*
X163725000Y-36174999D03*
G04 #@! TO.P,M2,W2,VREF*
G04 #@! TO.N,/VREF1*
X163725000Y-37074999D03*
G04 #@! TD*
G04 #@! TO.P,M4,E1,NC*
G04 #@! TO.N,unconnected-(M4-NC-PadE1)*
X150800000Y-49137500D03*
G04 #@! TO.P,M4,E2,NC*
G04 #@! TO.N,unconnected-(M4-NC-PadE2)*
X149600000Y-49137500D03*
G04 #@! TO.P,M4,E3,OUT*
G04 #@! TO.N,/VR_MAX9924*
X152000000Y-49137500D03*
G04 #@! TO.P,M4,E4,V5_IN*
G04 #@! TO.N,+5VA*
X153200000Y-49137500D03*
D23*
G04 #@! TO.P,M4,G,GND*
G04 #@! TO.N,PIN114*
X150532500Y-34487500D03*
D24*
X144482500Y-34487500D03*
D25*
X153500000Y-41500000D03*
D26*
X144050000Y-41912500D03*
D27*
X146512500Y-49337500D03*
D11*
G04 #@! TO.P,M4,W1,VR-*
G04 #@! TO.N,PIN20*
X146740000Y-34712500D03*
G04 #@! TO.P,M4,W2,VR+*
G04 #@! TO.N,PIN19*
X145740000Y-34712500D03*
G04 #@! TD*
D28*
G04 #@! TO.P,F2,1,1*
G04 #@! TO.N,PIN120*
X79000000Y-35050000D03*
G04 #@! TO.P,F2,2,2*
G04 #@! TO.N,PIN117*
X79000000Y-39950000D03*
G04 #@! TD*
G04 #@! TO.P,R4,1,1*
G04 #@! TO.N,Net-(M1-PG_5VP)*
X98500000Y-83045001D03*
G04 #@! TO.P,R4,2,2*
G04 #@! TO.N,/PG_5VP*
X98500000Y-86855001D03*
G04 #@! TD*
G04 #@! TO.P,F3,1,1*
G04 #@! TO.N,PIN120*
X163950000Y-59000000D03*
G04 #@! TO.P,F3,2,2*
G04 #@! TO.N,Net-(F3-Pad2)*
X159050000Y-59000000D03*
G04 #@! TD*
G04 #@! TO.P,F1,1,1*
G04 #@! TO.N,PIN108*
X76500000Y-35050000D03*
G04 #@! TO.P,F1,2,2*
G04 #@! TO.N,/IN_VIGN*
X76500000Y-39950000D03*
G04 #@! TD*
G04 #@! TO.P,J21,1,Pin_1*
G04 #@! TO.N,/VBUS*
G04 #@! TA.AperFunction,ComponentPad*
G36*
G01*
X80150000Y-96325000D02*
X80150000Y-94975000D01*
G75*
G02*
X80400000Y-94725000I250000J0D01*
G01*
X81600000Y-94725000D01*
G75*
G02*
X81850000Y-94975000I0J-250000D01*
G01*
X81850000Y-96325000D01*
G75*
G02*
X81600000Y-96575000I-250000J0D01*
G01*
X80400000Y-96575000D01*
G75*
G02*
X80150000Y-96325000I0J250000D01*
G01*
G37*
G04 #@! TD.AperFunction*
D29*
G04 #@! TO.P,J21,2,Pin_2*
G04 #@! TO.N,/USB-*
X83500000Y-95650000D03*
G04 #@! TO.P,J21,3,Pin_3*
G04 #@! TO.N,/USB+*
X86000000Y-95650000D03*
G04 #@! TO.P,J21,4,Pin_4*
G04 #@! TO.N,PIN114*
X88500000Y-95650000D03*
G04 #@! TO.P,J21,5,Pin_5*
X91000000Y-95650000D03*
G04 #@! TD*
D30*
G04 #@! TO.P,M8,G,GND*
G04 #@! TO.N,PIN114*
X164675000Y-53675000D03*
D31*
X166775000Y-53175000D03*
D32*
X156975000Y-48775000D03*
X166775000Y-46575000D03*
D33*
X156975000Y-41975000D03*
D34*
X166775000Y-40875000D03*
D35*
X161875000Y-40075000D03*
D11*
G04 #@! TO.P,M8,N1,MOSI*
G04 #@! TO.N,unconnected-(M8-MOSI-PadN1)*
X157175000Y-52675000D03*
D36*
G04 #@! TO.P,M8,N2,12V_IN*
G04 #@! TO.N,Net-(F3-Pad2)*
X157375000Y-44675000D03*
G04 #@! TO.P,M8,S1,12V_IN*
X166375000Y-51875000D03*
G04 #@! TO.P,M8,S2,OUT-*
G04 #@! TO.N,PIN2*
X166375000Y-50675000D03*
G04 #@! TO.P,M8,S3,OUT+*
G04 #@! TO.N,PIN1*
X166375000Y-42475000D03*
D11*
G04 #@! TO.P,M8,W1,DIS*
G04 #@! TO.N,DC1_DIS_W1*
X157175000Y-53475000D03*
G04 #@! TO.P,M8,W2,PWM*
G04 #@! TO.N,/DC1_PWM*
X157975000Y-53475000D03*
G04 #@! TO.P,M8,W3,SCLK*
G04 #@! TO.N,unconnected-(M8-SCLK-PadW3)*
X158775000Y-53475000D03*
G04 #@! TO.P,M8,W4,DIR*
G04 #@! TO.N,/DC1_DIR*
X159575000Y-53475000D03*
G04 #@! TO.P,M8,W5,3V3_IN*
G04 #@! TO.N,+3.3V*
X160375000Y-53475000D03*
G04 #@! TO.P,M8,W6,MISO*
G04 #@! TO.N,unconnected-(M8-MISO-PadW6)*
X161175000Y-53475000D03*
G04 #@! TO.P,M8,W7,~CS*
G04 #@! TO.N,unconnected-(M8-~CS-PadW7)*
X161975000Y-53475000D03*
G04 #@! TD*
G04 #@! TO.P,M3,E1,Thresh_IN*
G04 #@! TO.N,/VR_DISCRETE_THR*
X140625000Y-49325000D03*
G04 #@! TO.P,M3,E2,OUT_A*
G04 #@! TO.N,/VR_DISCRETE_A*
X139425000Y-49325000D03*
G04 #@! TO.P,M3,E3,OUT*
G04 #@! TO.N,/VR_DISCRETE*
X141825000Y-49325000D03*
G04 #@! TO.P,M3,E4,V5_IN*
G04 #@! TO.N,+5VA*
X143025000Y-49325000D03*
D23*
G04 #@! TO.P,M3,G,GND*
G04 #@! TO.N,PIN114*
X140357500Y-34675000D03*
D24*
X134307500Y-34675000D03*
D25*
X143325000Y-41687500D03*
D26*
X133875000Y-42100000D03*
D27*
X136337500Y-49525000D03*
D11*
G04 #@! TO.P,M3,W1,VR-*
G04 #@! TO.N,PIN18*
X136565000Y-34900000D03*
G04 #@! TO.P,M3,W2,VR+*
G04 #@! TO.N,PIN17*
X135565000Y-34900000D03*
G04 #@! TD*
D37*
G04 #@! TO.P,M5,E1,LSU_Un*
G04 #@! TO.N,PIN105*
X180775000Y-34575000D03*
G04 #@! TO.P,M5,E2,LSU_Vm*
G04 #@! TO.N,PIN104*
X177775000Y-34575000D03*
G04 #@! TO.P,M5,E3,LSU_Ip*
G04 #@! TO.N,PIN103*
X178775000Y-34575000D03*
G04 #@! TO.P,M5,E4,LSU_Rtrim*
G04 #@! TO.N,PIN102*
X179775000Y-34575000D03*
D38*
G04 #@! TO.P,M5,G,GND*
G04 #@! TO.N,PIN114*
X168925000Y-61550000D03*
D39*
X173265000Y-61550000D03*
D40*
X179225000Y-61550000D03*
D41*
X168500000Y-47875000D03*
X182250000Y-47875000D03*
D42*
X172750000Y-34200000D03*
D43*
X181900000Y-34200000D03*
D37*
G04 #@! TO.P,M5,W1,V5_IN*
G04 #@! TO.N,+5VA*
X171125000Y-61166200D03*
G04 #@! TO.P,M5,W2,CAN_VIO*
G04 #@! TO.N,unconnected-(M5-CAN_VIO-PadW2)*
X172125000Y-61166200D03*
G04 #@! TO.P,M5,W3,CANL*
G04 #@! TO.N,PIN83*
X175421000Y-61166200D03*
G04 #@! TO.P,M5,W4,CANH*
G04 #@! TO.N,PIN82*
X174405000Y-61166200D03*
G04 #@! TO.P,M5,W9,VDDA*
G04 #@! TO.N,unconnected-(M5-VDDA-PadW9)*
X170125000Y-61166200D03*
G04 #@! TD*
D44*
G04 #@! TO.P,J22,1,VBUS*
G04 #@! TO.N,/VBUS*
X98375000Y-95250000D03*
D45*
G04 #@! TO.P,J22,2,D-*
G04 #@! TO.N,/USB-*
X96625000Y-94450000D03*
G04 #@! TO.P,J22,3,D+*
G04 #@! TO.N,/USB+*
X98375000Y-93650000D03*
G04 #@! TO.P,J22,4,ID*
G04 #@! TO.N,unconnected-(J22-ID-Pad4)*
X96625000Y-92850000D03*
G04 #@! TO.P,J22,5,GND*
G04 #@! TO.N,PIN114*
X98375000Y-92050000D03*
D46*
G04 #@! TO.P,J22,6,Shield*
X97500000Y-97300000D03*
X97500000Y-90000000D03*
G04 #@! TD*
D47*
G04 #@! TO.P,M7,V1,V5*
G04 #@! TO.N,+5VA*
X89137499Y-89043338D03*
G04 #@! TO.P,M7,V2,CAN_VIO*
G04 #@! TO.N,+3.3VA*
X88262497Y-88518338D03*
G04 #@! TO.P,M7,V5,CAN_TX*
G04 #@! TO.N,E7INJ8CANTX*
X89437501Y-87768340D03*
G04 #@! TO.P,M7,V6,CAN_RX*
G04 #@! TO.N,E6INJ7CANRX*
X89362498Y-84218339D03*
G04 #@! TD*
G04 #@! TO.P,R17,1*
G04 #@! TO.N,Net-(Q1-G)*
G04 #@! TA.AperFunction,SMDPad,CuDef*
G36*
G01*
X128850000Y-44390000D02*
X128850000Y-43610000D01*
G75*
G02*
X128920000Y-43540000I70000J0D01*
G01*
X129480000Y-43540000D01*
G75*
G02*
X129550000Y-43610000I0J-70000D01*
G01*
X129550000Y-44390000D01*
G75*
G02*
X129480000Y-44460000I-70000J0D01*
G01*
X128920000Y-44460000D01*
G75*
G02*
X128850000Y-44390000I0J70000D01*
G01*
G37*
G04 #@! TD.AperFunction*
G04 #@! TO.P,R17,2*
G04 #@! TO.N,Net-(F5-Pad1)*
G04 #@! TA.AperFunction,SMDPad,CuDef*
G36*
G01*
X130450000Y-44390000D02*
X130450000Y-43610000D01*
G75*
G02*
X130520000Y-43540000I70000J0D01*
G01*
X131080000Y-43540000D01*
G75*
G02*
X131150000Y-43610000I0J-70000D01*
G01*
X131150000Y-44390000D01*
G75*
G02*
X131080000Y-44460000I-70000J0D01*
G01*
X130520000Y-44460000D01*
G75*
G02*
X130450000Y-44390000I0J70000D01*
G01*
G37*
G04 #@! TD.AperFunction*
G04 #@! TD*
G04 #@! TO.P,R38,1*
G04 #@! TO.N,/LS2*
G04 #@! TA.AperFunction,SMDPad,CuDef*
G36*
G01*
X126390000Y-54650000D02*
X125610000Y-54650000D01*
G75*
G02*
X125540000Y-54580000I0J70000D01*
G01*
X125540000Y-54020000D01*
G75*
G02*
X125610000Y-53950000I70000J0D01*
G01*
X126390000Y-53950000D01*
G75*
G02*
X126460000Y-54020000I0J-70000D01*
G01*
X126460000Y-54580000D01*
G75*
G02*
X126390000Y-54650000I-70000J0D01*
G01*
G37*
G04 #@! TD.AperFunction*
G04 #@! TO.P,R38,2*
G04 #@! TO.N,PIN114*
G04 #@! TA.AperFunction,SMDPad,CuDef*
G36*
G01*
X126390000Y-53050000D02*
X125610000Y-53050000D01*
G75*
G02*
X125540000Y-52980000I0J70000D01*
G01*
X125540000Y-52420000D01*
G75*
G02*
X125610000Y-52350000I70000J0D01*
G01*
X126390000Y-52350000D01*
G75*
G02*
X126460000Y-52420000I0J-70000D01*
G01*
X126460000Y-52980000D01*
G75*
G02*
X126390000Y-53050000I-70000J0D01*
G01*
G37*
G04 #@! TD.AperFunction*
G04 #@! TD*
G04 #@! TO.P,R37,1*
G04 #@! TO.N,/LS3*
G04 #@! TA.AperFunction,SMDPad,CuDef*
G36*
G01*
X129390000Y-54650000D02*
X128610000Y-54650000D01*
G75*
G02*
X128540000Y-54580000I0J70000D01*
G01*
X128540000Y-54020000D01*
G75*
G02*
X128610000Y-53950000I70000J0D01*
G01*
X129390000Y-53950000D01*
G75*
G02*
X129460000Y-54020000I0J-70000D01*
G01*
X129460000Y-54580000D01*
G75*
G02*
X129390000Y-54650000I-70000J0D01*
G01*
G37*
G04 #@! TD.AperFunction*
G04 #@! TO.P,R37,2*
G04 #@! TO.N,PIN114*
G04 #@! TA.AperFunction,SMDPad,CuDef*
G36*
G01*
X129390000Y-53050000D02*
X128610000Y-53050000D01*
G75*
G02*
X128540000Y-52980000I0J70000D01*
G01*
X128540000Y-52420000D01*
G75*
G02*
X128610000Y-52350000I70000J0D01*
G01*
X129390000Y-52350000D01*
G75*
G02*
X129460000Y-52420000I0J-70000D01*
G01*
X129460000Y-52980000D01*
G75*
G02*
X129390000Y-53050000I-70000J0D01*
G01*
G37*
G04 #@! TD.AperFunction*
G04 #@! TD*
G04 #@! TO.P,R52,1*
G04 #@! TO.N,E6INJ7CANRX*
G04 #@! TA.AperFunction,SMDPad,CuDef*
G36*
G01*
X67390000Y-87150000D02*
X66610000Y-87150000D01*
G75*
G02*
X66540000Y-87080000I0J70000D01*
G01*
X66540000Y-86520000D01*
G75*
G02*
X66610000Y-86450000I70000J0D01*
G01*
X67390000Y-86450000D01*
G75*
G02*
X67460000Y-86520000I0J-70000D01*
G01*
X67460000Y-87080000D01*
G75*
G02*
X67390000Y-87150000I-70000J0D01*
G01*
G37*
G04 #@! TD.AperFunction*
G04 #@! TO.P,R52,2*
G04 #@! TO.N,Net-(U11-IN1)*
G04 #@! TA.AperFunction,SMDPad,CuDef*
G36*
G01*
X67390000Y-85550000D02*
X66610000Y-85550000D01*
G75*
G02*
X66540000Y-85480000I0J70000D01*
G01*
X66540000Y-84920000D01*
G75*
G02*
X66610000Y-84850000I70000J0D01*
G01*
X67390000Y-84850000D01*
G75*
G02*
X67460000Y-84920000I0J-70000D01*
G01*
X67460000Y-85480000D01*
G75*
G02*
X67390000Y-85550000I-70000J0D01*
G01*
G37*
G04 #@! TD.AperFunction*
G04 #@! TD*
G04 #@! TO.P,R40,1*
G04 #@! TO.N,E6INJ7CANRX*
G04 #@! TA.AperFunction,SMDPad,CuDef*
G36*
G01*
X68890000Y-87150000D02*
X68110000Y-87150000D01*
G75*
G02*
X68040000Y-87080000I0J70000D01*
G01*
X68040000Y-86520000D01*
G75*
G02*
X68110000Y-86450000I70000J0D01*
G01*
X68890000Y-86450000D01*
G75*
G02*
X68960000Y-86520000I0J-70000D01*
G01*
X68960000Y-87080000D01*
G75*
G02*
X68890000Y-87150000I-70000J0D01*
G01*
G37*
G04 #@! TD.AperFunction*
G04 #@! TO.P,R40,2*
G04 #@! TO.N,PIN114*
G04 #@! TA.AperFunction,SMDPad,CuDef*
G36*
G01*
X68890000Y-85550000D02*
X68110000Y-85550000D01*
G75*
G02*
X68040000Y-85480000I0J70000D01*
G01*
X68040000Y-84920000D01*
G75*
G02*
X68110000Y-84850000I70000J0D01*
G01*
X68890000Y-84850000D01*
G75*
G02*
X68960000Y-84920000I0J-70000D01*
G01*
X68960000Y-85480000D01*
G75*
G02*
X68890000Y-85550000I-70000J0D01*
G01*
G37*
G04 #@! TD.AperFunction*
G04 #@! TD*
G04 #@! TO.P,R39,1*
G04 #@! TO.N,/LS4*
G04 #@! TA.AperFunction,SMDPad,CuDef*
G36*
G01*
X132390000Y-54650000D02*
X131610000Y-54650000D01*
G75*
G02*
X131540000Y-54580000I0J70000D01*
G01*
X131540000Y-54020000D01*
G75*
G02*
X131610000Y-53950000I70000J0D01*
G01*
X132390000Y-53950000D01*
G75*
G02*
X132460000Y-54020000I0J-70000D01*
G01*
X132460000Y-54580000D01*
G75*
G02*
X132390000Y-54650000I-70000J0D01*
G01*
G37*
G04 #@! TD.AperFunction*
G04 #@! TO.P,R39,2*
G04 #@! TO.N,PIN114*
G04 #@! TA.AperFunction,SMDPad,CuDef*
G36*
G01*
X132390000Y-53050000D02*
X131610000Y-53050000D01*
G75*
G02*
X131540000Y-52980000I0J70000D01*
G01*
X131540000Y-52420000D01*
G75*
G02*
X131610000Y-52350000I70000J0D01*
G01*
X132390000Y-52350000D01*
G75*
G02*
X132460000Y-52420000I0J-70000D01*
G01*
X132460000Y-52980000D01*
G75*
G02*
X132390000Y-53050000I-70000J0D01*
G01*
G37*
G04 #@! TD.AperFunction*
G04 #@! TD*
G04 #@! TO.P,R25,1*
G04 #@! TO.N,Net-(Q6-G)*
G04 #@! TA.AperFunction,SMDPad,CuDef*
G36*
G01*
X87850000Y-44390000D02*
X87850000Y-43610000D01*
G75*
G02*
X87920000Y-43540000I70000J0D01*
G01*
X88480000Y-43540000D01*
G75*
G02*
X88550000Y-43610000I0J-70000D01*
G01*
X88550000Y-44390000D01*
G75*
G02*
X88480000Y-44460000I-70000J0D01*
G01*
X87920000Y-44460000D01*
G75*
G02*
X87850000Y-44390000I0J70000D01*
G01*
G37*
G04 #@! TD.AperFunction*
G04 #@! TO.P,R25,2*
G04 #@! TO.N,Net-(F10-Pad1)*
G04 #@! TA.AperFunction,SMDPad,CuDef*
G36*
G01*
X89450000Y-44390000D02*
X89450000Y-43610000D01*
G75*
G02*
X89520000Y-43540000I70000J0D01*
G01*
X90080000Y-43540000D01*
G75*
G02*
X90150000Y-43610000I0J-70000D01*
G01*
X90150000Y-44390000D01*
G75*
G02*
X90080000Y-44460000I-70000J0D01*
G01*
X89520000Y-44460000D01*
G75*
G02*
X89450000Y-44390000I0J70000D01*
G01*
G37*
G04 #@! TD.AperFunction*
G04 #@! TD*
G04 #@! TO.P,R29,1*
G04 #@! TO.N,/INJ1*
G04 #@! TA.AperFunction,SMDPad,CuDef*
G36*
G01*
X105390000Y-54650000D02*
X104610000Y-54650000D01*
G75*
G02*
X104540000Y-54580000I0J70000D01*
G01*
X104540000Y-54020000D01*
G75*
G02*
X104610000Y-53950000I70000J0D01*
G01*
X105390000Y-53950000D01*
G75*
G02*
X105460000Y-54020000I0J-70000D01*
G01*
X105460000Y-54580000D01*
G75*
G02*
X105390000Y-54650000I-70000J0D01*
G01*
G37*
G04 #@! TD.AperFunction*
G04 #@! TO.P,R29,2*
G04 #@! TO.N,PIN114*
G04 #@! TA.AperFunction,SMDPad,CuDef*
G36*
G01*
X105390000Y-53050000D02*
X104610000Y-53050000D01*
G75*
G02*
X104540000Y-52980000I0J70000D01*
G01*
X104540000Y-52420000D01*
G75*
G02*
X104610000Y-52350000I70000J0D01*
G01*
X105390000Y-52350000D01*
G75*
G02*
X105460000Y-52420000I0J-70000D01*
G01*
X105460000Y-52980000D01*
G75*
G02*
X105390000Y-53050000I-70000J0D01*
G01*
G37*
G04 #@! TD.AperFunction*
G04 #@! TD*
G04 #@! TO.P,R33,1*
G04 #@! TO.N,/INJ4*
G04 #@! TA.AperFunction,SMDPad,CuDef*
G36*
G01*
X114390000Y-54650000D02*
X113610000Y-54650000D01*
G75*
G02*
X113540000Y-54580000I0J70000D01*
G01*
X113540000Y-54020000D01*
G75*
G02*
X113610000Y-53950000I70000J0D01*
G01*
X114390000Y-53950000D01*
G75*
G02*
X114460000Y-54020000I0J-70000D01*
G01*
X114460000Y-54580000D01*
G75*
G02*
X114390000Y-54650000I-70000J0D01*
G01*
G37*
G04 #@! TD.AperFunction*
G04 #@! TO.P,R33,2*
G04 #@! TO.N,PIN114*
G04 #@! TA.AperFunction,SMDPad,CuDef*
G36*
G01*
X114390000Y-53050000D02*
X113610000Y-53050000D01*
G75*
G02*
X113540000Y-52980000I0J70000D01*
G01*
X113540000Y-52420000D01*
G75*
G02*
X113610000Y-52350000I70000J0D01*
G01*
X114390000Y-52350000D01*
G75*
G02*
X114460000Y-52420000I0J-70000D01*
G01*
X114460000Y-52980000D01*
G75*
G02*
X114390000Y-53050000I-70000J0D01*
G01*
G37*
G04 #@! TD.AperFunction*
G04 #@! TD*
G04 #@! TO.P,R35,1*
G04 #@! TO.N,/LS_HOT1*
G04 #@! TA.AperFunction,SMDPad,CuDef*
G36*
G01*
X102390000Y-54650000D02*
X101610000Y-54650000D01*
G75*
G02*
X101540000Y-54580000I0J70000D01*
G01*
X101540000Y-54020000D01*
G75*
G02*
X101610000Y-53950000I70000J0D01*
G01*
X102390000Y-53950000D01*
G75*
G02*
X102460000Y-54020000I0J-70000D01*
G01*
X102460000Y-54580000D01*
G75*
G02*
X102390000Y-54650000I-70000J0D01*
G01*
G37*
G04 #@! TD.AperFunction*
G04 #@! TO.P,R35,2*
G04 #@! TO.N,PIN114*
G04 #@! TA.AperFunction,SMDPad,CuDef*
G36*
G01*
X102390000Y-53050000D02*
X101610000Y-53050000D01*
G75*
G02*
X101540000Y-52980000I0J70000D01*
G01*
X101540000Y-52420000D01*
G75*
G02*
X101610000Y-52350000I70000J0D01*
G01*
X102390000Y-52350000D01*
G75*
G02*
X102460000Y-52420000I0J-70000D01*
G01*
X102460000Y-52980000D01*
G75*
G02*
X102390000Y-53050000I-70000J0D01*
G01*
G37*
G04 #@! TD.AperFunction*
G04 #@! TD*
G04 #@! TO.P,R31,1*
G04 #@! TO.N,/INJ5*
G04 #@! TA.AperFunction,SMDPad,CuDef*
G36*
G01*
X117390000Y-54650000D02*
X116610000Y-54650000D01*
G75*
G02*
X116540000Y-54580000I0J70000D01*
G01*
X116540000Y-54020000D01*
G75*
G02*
X116610000Y-53950000I70000J0D01*
G01*
X117390000Y-53950000D01*
G75*
G02*
X117460000Y-54020000I0J-70000D01*
G01*
X117460000Y-54580000D01*
G75*
G02*
X117390000Y-54650000I-70000J0D01*
G01*
G37*
G04 #@! TD.AperFunction*
G04 #@! TO.P,R31,2*
G04 #@! TO.N,PIN114*
G04 #@! TA.AperFunction,SMDPad,CuDef*
G36*
G01*
X117390000Y-53050000D02*
X116610000Y-53050000D01*
G75*
G02*
X116540000Y-52980000I0J70000D01*
G01*
X116540000Y-52420000D01*
G75*
G02*
X116610000Y-52350000I70000J0D01*
G01*
X117390000Y-52350000D01*
G75*
G02*
X117460000Y-52420000I0J-70000D01*
G01*
X117460000Y-52980000D01*
G75*
G02*
X117390000Y-53050000I-70000J0D01*
G01*
G37*
G04 #@! TD.AperFunction*
G04 #@! TD*
G04 #@! TO.P,R30,1*
G04 #@! TO.N,/INJ3*
G04 #@! TA.AperFunction,SMDPad,CuDef*
G36*
G01*
X111390000Y-54650000D02*
X110610000Y-54650000D01*
G75*
G02*
X110540000Y-54580000I0J70000D01*
G01*
X110540000Y-54020000D01*
G75*
G02*
X110610000Y-53950000I70000J0D01*
G01*
X111390000Y-53950000D01*
G75*
G02*
X111460000Y-54020000I0J-70000D01*
G01*
X111460000Y-54580000D01*
G75*
G02*
X111390000Y-54650000I-70000J0D01*
G01*
G37*
G04 #@! TD.AperFunction*
G04 #@! TO.P,R30,2*
G04 #@! TO.N,PIN114*
G04 #@! TA.AperFunction,SMDPad,CuDef*
G36*
G01*
X111390000Y-53050000D02*
X110610000Y-53050000D01*
G75*
G02*
X110540000Y-52980000I0J70000D01*
G01*
X110540000Y-52420000D01*
G75*
G02*
X110610000Y-52350000I70000J0D01*
G01*
X111390000Y-52350000D01*
G75*
G02*
X111460000Y-52420000I0J-70000D01*
G01*
X111460000Y-52980000D01*
G75*
G02*
X111390000Y-53050000I-70000J0D01*
G01*
G37*
G04 #@! TD.AperFunction*
G04 #@! TD*
G04 #@! TO.P,D1,1,K*
G04 #@! TO.N,PIN117*
G04 #@! TA.AperFunction,SMDPad,CuDef*
G36*
G01*
X121510000Y-51450000D02*
X120490000Y-51450000D01*
G75*
G02*
X120400000Y-51360000I0J90000D01*
G01*
X120400000Y-50640000D01*
G75*
G02*
X120490000Y-50550000I90000J0D01*
G01*
X121510000Y-50550000D01*
G75*
G02*
X121600000Y-50640000I0J-90000D01*
G01*
X121600000Y-51360000D01*
G75*
G02*
X121510000Y-51450000I-90000J0D01*
G01*
G37*
G04 #@! TD.AperFunction*
G04 #@! TO.P,D1,2,A*
G04 #@! TO.N,PIN14*
G04 #@! TA.AperFunction,SMDPad,CuDef*
G36*
G01*
X121510000Y-48150000D02*
X120490000Y-48150000D01*
G75*
G02*
X120400000Y-48060000I0J90000D01*
G01*
X120400000Y-47340000D01*
G75*
G02*
X120490000Y-47250000I90000J0D01*
G01*
X121510000Y-47250000D01*
G75*
G02*
X121600000Y-47340000I0J-90000D01*
G01*
X121600000Y-48060000D01*
G75*
G02*
X121510000Y-48150000I-90000J0D01*
G01*
G37*
G04 #@! TD.AperFunction*
G04 #@! TD*
G04 #@! TO.P,R14,1*
G04 #@! TO.N,/LS_HOT1*
G04 #@! TA.AperFunction,SMDPad,CuDef*
G36*
G01*
X100890000Y-54650000D02*
X100110000Y-54650000D01*
G75*
G02*
X100040000Y-54580000I0J70000D01*
G01*
X100040000Y-54020000D01*
G75*
G02*
X100110000Y-53950000I70000J0D01*
G01*
X100890000Y-53950000D01*
G75*
G02*
X100960000Y-54020000I0J-70000D01*
G01*
X100960000Y-54580000D01*
G75*
G02*
X100890000Y-54650000I-70000J0D01*
G01*
G37*
G04 #@! TD.AperFunction*
G04 #@! TO.P,R14,2*
G04 #@! TO.N,Net-(U7-IN2)*
G04 #@! TA.AperFunction,SMDPad,CuDef*
G36*
G01*
X100890000Y-53050000D02*
X100110000Y-53050000D01*
G75*
G02*
X100040000Y-52980000I0J70000D01*
G01*
X100040000Y-52420000D01*
G75*
G02*
X100110000Y-52350000I70000J0D01*
G01*
X100890000Y-52350000D01*
G75*
G02*
X100960000Y-52420000I0J-70000D01*
G01*
X100960000Y-52980000D01*
G75*
G02*
X100890000Y-53050000I-70000J0D01*
G01*
G37*
G04 #@! TD.AperFunction*
G04 #@! TD*
G04 #@! TO.P,R43,1*
G04 #@! TO.N,/LS4*
G04 #@! TA.AperFunction,SMDPad,CuDef*
G36*
G01*
X130890000Y-54650000D02*
X130110000Y-54650000D01*
G75*
G02*
X130040000Y-54580000I0J70000D01*
G01*
X130040000Y-54020000D01*
G75*
G02*
X130110000Y-53950000I70000J0D01*
G01*
X130890000Y-53950000D01*
G75*
G02*
X130960000Y-54020000I0J-70000D01*
G01*
X130960000Y-54580000D01*
G75*
G02*
X130890000Y-54650000I-70000J0D01*
G01*
G37*
G04 #@! TD.AperFunction*
G04 #@! TO.P,R43,2*
G04 #@! TO.N,Net-(U9-IN2)*
G04 #@! TA.AperFunction,SMDPad,CuDef*
G36*
G01*
X130890000Y-53050000D02*
X130110000Y-53050000D01*
G75*
G02*
X130040000Y-52980000I0J70000D01*
G01*
X130040000Y-52420000D01*
G75*
G02*
X130110000Y-52350000I70000J0D01*
G01*
X130890000Y-52350000D01*
G75*
G02*
X130960000Y-52420000I0J-70000D01*
G01*
X130960000Y-52980000D01*
G75*
G02*
X130890000Y-53050000I-70000J0D01*
G01*
G37*
G04 #@! TD.AperFunction*
G04 #@! TD*
G04 #@! TO.P,R19,1*
G04 #@! TO.N,Net-(Q3-G)*
G04 #@! TA.AperFunction,SMDPad,CuDef*
G36*
G01*
X112350000Y-44390000D02*
X112350000Y-43610000D01*
G75*
G02*
X112420000Y-43540000I70000J0D01*
G01*
X112980000Y-43540000D01*
G75*
G02*
X113050000Y-43610000I0J-70000D01*
G01*
X113050000Y-44390000D01*
G75*
G02*
X112980000Y-44460000I-70000J0D01*
G01*
X112420000Y-44460000D01*
G75*
G02*
X112350000Y-44390000I0J70000D01*
G01*
G37*
G04 #@! TD.AperFunction*
G04 #@! TO.P,R19,2*
G04 #@! TO.N,Net-(F7-Pad1)*
G04 #@! TA.AperFunction,SMDPad,CuDef*
G36*
G01*
X113950000Y-44390000D02*
X113950000Y-43610000D01*
G75*
G02*
X114020000Y-43540000I70000J0D01*
G01*
X114580000Y-43540000D01*
G75*
G02*
X114650000Y-43610000I0J-70000D01*
G01*
X114650000Y-44390000D01*
G75*
G02*
X114580000Y-44460000I-70000J0D01*
G01*
X114020000Y-44460000D01*
G75*
G02*
X113950000Y-44390000I0J70000D01*
G01*
G37*
G04 #@! TD.AperFunction*
G04 #@! TD*
G04 #@! TO.P,R51,1*
G04 #@! TO.N,/INJ6*
G04 #@! TA.AperFunction,SMDPad,CuDef*
G36*
G01*
X118890000Y-54650000D02*
X118110000Y-54650000D01*
G75*
G02*
X118040000Y-54580000I0J70000D01*
G01*
X118040000Y-54020000D01*
G75*
G02*
X118110000Y-53950000I70000J0D01*
G01*
X118890000Y-53950000D01*
G75*
G02*
X118960000Y-54020000I0J-70000D01*
G01*
X118960000Y-54580000D01*
G75*
G02*
X118890000Y-54650000I-70000J0D01*
G01*
G37*
G04 #@! TD.AperFunction*
G04 #@! TO.P,R51,2*
G04 #@! TO.N,Net-(U6-IN2)*
G04 #@! TA.AperFunction,SMDPad,CuDef*
G36*
G01*
X118890000Y-53050000D02*
X118110000Y-53050000D01*
G75*
G02*
X118040000Y-52980000I0J70000D01*
G01*
X118040000Y-52420000D01*
G75*
G02*
X118110000Y-52350000I70000J0D01*
G01*
X118890000Y-52350000D01*
G75*
G02*
X118960000Y-52420000I0J-70000D01*
G01*
X118960000Y-52980000D01*
G75*
G02*
X118890000Y-53050000I-70000J0D01*
G01*
G37*
G04 #@! TD.AperFunction*
G04 #@! TD*
G04 #@! TO.P,F10,1*
G04 #@! TO.N,Net-(F10-Pad1)*
G04 #@! TA.AperFunction,SMDPad,CuDef*
G36*
G01*
X90225000Y-45743750D02*
X90225000Y-46256250D01*
G75*
G02*
X90006250Y-46475000I-218750J0D01*
G01*
X89568750Y-46475000D01*
G75*
G02*
X89350000Y-46256250I0J218750D01*
G01*
X89350000Y-45743750D01*
G75*
G02*
X89568750Y-45525000I218750J0D01*
G01*
X90006250Y-45525000D01*
G75*
G02*
X90225000Y-45743750I0J-218750D01*
G01*
G37*
G04 #@! TD.AperFunction*
G04 #@! TO.P,F10,2*
G04 #@! TO.N,/IGN6*
G04 #@! TA.AperFunction,SMDPad,CuDef*
G36*
G01*
X88650000Y-45743750D02*
X88650000Y-46256250D01*
G75*
G02*
X88431250Y-46475000I-218750J0D01*
G01*
X87993750Y-46475000D01*
G75*
G02*
X87775000Y-46256250I0J218750D01*
G01*
X87775000Y-45743750D01*
G75*
G02*
X87993750Y-45525000I218750J0D01*
G01*
X88431250Y-45525000D01*
G75*
G02*
X88650000Y-45743750I0J-218750D01*
G01*
G37*
G04 #@! TD.AperFunction*
G04 #@! TD*
G04 #@! TO.P,R50,1*
G04 #@! TO.N,/INJ5*
G04 #@! TA.AperFunction,SMDPad,CuDef*
G36*
G01*
X115890000Y-54650000D02*
X115110000Y-54650000D01*
G75*
G02*
X115040000Y-54580000I0J70000D01*
G01*
X115040000Y-54020000D01*
G75*
G02*
X115110000Y-53950000I70000J0D01*
G01*
X115890000Y-53950000D01*
G75*
G02*
X115960000Y-54020000I0J-70000D01*
G01*
X115960000Y-54580000D01*
G75*
G02*
X115890000Y-54650000I-70000J0D01*
G01*
G37*
G04 #@! TD.AperFunction*
G04 #@! TO.P,R50,2*
G04 #@! TO.N,Net-(U6-IN1)*
G04 #@! TA.AperFunction,SMDPad,CuDef*
G36*
G01*
X115890000Y-53050000D02*
X115110000Y-53050000D01*
G75*
G02*
X115040000Y-52980000I0J70000D01*
G01*
X115040000Y-52420000D01*
G75*
G02*
X115110000Y-52350000I70000J0D01*
G01*
X115890000Y-52350000D01*
G75*
G02*
X115960000Y-52420000I0J-70000D01*
G01*
X115960000Y-52980000D01*
G75*
G02*
X115890000Y-53050000I-70000J0D01*
G01*
G37*
G04 #@! TD.AperFunction*
G04 #@! TD*
G04 #@! TO.P,R48,1*
G04 #@! TO.N,/INJ3*
G04 #@! TA.AperFunction,SMDPad,CuDef*
G36*
G01*
X109890000Y-54650000D02*
X109110000Y-54650000D01*
G75*
G02*
X109040000Y-54580000I0J70000D01*
G01*
X109040000Y-54020000D01*
G75*
G02*
X109110000Y-53950000I70000J0D01*
G01*
X109890000Y-53950000D01*
G75*
G02*
X109960000Y-54020000I0J-70000D01*
G01*
X109960000Y-54580000D01*
G75*
G02*
X109890000Y-54650000I-70000J0D01*
G01*
G37*
G04 #@! TD.AperFunction*
G04 #@! TO.P,R48,2*
G04 #@! TO.N,Net-(U5-IN1)*
G04 #@! TA.AperFunction,SMDPad,CuDef*
G36*
G01*
X109890000Y-53050000D02*
X109110000Y-53050000D01*
G75*
G02*
X109040000Y-52980000I0J70000D01*
G01*
X109040000Y-52420000D01*
G75*
G02*
X109110000Y-52350000I70000J0D01*
G01*
X109890000Y-52350000D01*
G75*
G02*
X109960000Y-52420000I0J-70000D01*
G01*
X109960000Y-52980000D01*
G75*
G02*
X109890000Y-53050000I-70000J0D01*
G01*
G37*
G04 #@! TD.AperFunction*
G04 #@! TD*
G04 #@! TO.P,F6,1*
G04 #@! TO.N,Net-(F6-Pad1)*
G04 #@! TA.AperFunction,SMDPad,CuDef*
G36*
G01*
X122725000Y-45743750D02*
X122725000Y-46256250D01*
G75*
G02*
X122506250Y-46475000I-218750J0D01*
G01*
X122068750Y-46475000D01*
G75*
G02*
X121850000Y-46256250I0J218750D01*
G01*
X121850000Y-45743750D01*
G75*
G02*
X122068750Y-45525000I218750J0D01*
G01*
X122506250Y-45525000D01*
G75*
G02*
X122725000Y-45743750I0J-218750D01*
G01*
G37*
G04 #@! TD.AperFunction*
G04 #@! TO.P,F6,2*
G04 #@! TO.N,/IGN2*
G04 #@! TA.AperFunction,SMDPad,CuDef*
G36*
G01*
X121150000Y-45743750D02*
X121150000Y-46256250D01*
G75*
G02*
X120931250Y-46475000I-218750J0D01*
G01*
X120493750Y-46475000D01*
G75*
G02*
X120275000Y-46256250I0J218750D01*
G01*
X120275000Y-45743750D01*
G75*
G02*
X120493750Y-45525000I218750J0D01*
G01*
X120931250Y-45525000D01*
G75*
G02*
X121150000Y-45743750I0J-218750D01*
G01*
G37*
G04 #@! TD.AperFunction*
G04 #@! TD*
G04 #@! TO.P,R44,1*
G04 #@! TO.N,/LS1*
G04 #@! TA.AperFunction,SMDPad,CuDef*
G36*
G01*
X121890000Y-54650000D02*
X121110000Y-54650000D01*
G75*
G02*
X121040000Y-54580000I0J70000D01*
G01*
X121040000Y-54020000D01*
G75*
G02*
X121110000Y-53950000I70000J0D01*
G01*
X121890000Y-53950000D01*
G75*
G02*
X121960000Y-54020000I0J-70000D01*
G01*
X121960000Y-54580000D01*
G75*
G02*
X121890000Y-54650000I-70000J0D01*
G01*
G37*
G04 #@! TD.AperFunction*
G04 #@! TO.P,R44,2*
G04 #@! TO.N,Net-(U3-IN1)*
G04 #@! TA.AperFunction,SMDPad,CuDef*
G36*
G01*
X121890000Y-53050000D02*
X121110000Y-53050000D01*
G75*
G02*
X121040000Y-52980000I0J70000D01*
G01*
X121040000Y-52420000D01*
G75*
G02*
X121110000Y-52350000I70000J0D01*
G01*
X121890000Y-52350000D01*
G75*
G02*
X121960000Y-52420000I0J-70000D01*
G01*
X121960000Y-52980000D01*
G75*
G02*
X121890000Y-53050000I-70000J0D01*
G01*
G37*
G04 #@! TD.AperFunction*
G04 #@! TD*
G04 #@! TO.P,R27,1*
G04 #@! TO.N,Net-(F9-Pad1)*
G04 #@! TA.AperFunction,SMDPad,CuDef*
G36*
G01*
X98425000Y-42575000D02*
X95575000Y-42575000D01*
G75*
G02*
X95325000Y-42325000I0J250000D01*
G01*
X95325000Y-41600000D01*
G75*
G02*
X95575000Y-41350000I250000J0D01*
G01*
X98425000Y-41350000D01*
G75*
G02*
X98675000Y-41600000I0J-250000D01*
G01*
X98675000Y-42325000D01*
G75*
G02*
X98425000Y-42575000I-250000J0D01*
G01*
G37*
G04 #@! TD.AperFunction*
G04 #@! TO.P,R27,2*
G04 #@! TO.N,PIN11*
G04 #@! TA.AperFunction,SMDPad,CuDef*
G36*
G01*
X98425000Y-36650000D02*
X95575000Y-36650000D01*
G75*
G02*
X95325000Y-36400000I0J250000D01*
G01*
X95325000Y-35675000D01*
G75*
G02*
X95575000Y-35425000I250000J0D01*
G01*
X98425000Y-35425000D01*
G75*
G02*
X98675000Y-35675000I0J-250000D01*
G01*
X98675000Y-36400000D01*
G75*
G02*
X98425000Y-36650000I-250000J0D01*
G01*
G37*
G04 #@! TD.AperFunction*
G04 #@! TD*
G04 #@! TO.P,R13,1*
G04 #@! TO.N,/LS_HOT2*
G04 #@! TA.AperFunction,SMDPad,CuDef*
G36*
G01*
X97890000Y-54650000D02*
X97110000Y-54650000D01*
G75*
G02*
X97040000Y-54580000I0J70000D01*
G01*
X97040000Y-54020000D01*
G75*
G02*
X97110000Y-53950000I70000J0D01*
G01*
X97890000Y-53950000D01*
G75*
G02*
X97960000Y-54020000I0J-70000D01*
G01*
X97960000Y-54580000D01*
G75*
G02*
X97890000Y-54650000I-70000J0D01*
G01*
G37*
G04 #@! TD.AperFunction*
G04 #@! TO.P,R13,2*
G04 #@! TO.N,Net-(U7-IN1)*
G04 #@! TA.AperFunction,SMDPad,CuDef*
G36*
G01*
X97890000Y-53050000D02*
X97110000Y-53050000D01*
G75*
G02*
X97040000Y-52980000I0J70000D01*
G01*
X97040000Y-52420000D01*
G75*
G02*
X97110000Y-52350000I70000J0D01*
G01*
X97890000Y-52350000D01*
G75*
G02*
X97960000Y-52420000I0J-70000D01*
G01*
X97960000Y-52980000D01*
G75*
G02*
X97890000Y-53050000I-70000J0D01*
G01*
G37*
G04 #@! TD.AperFunction*
G04 #@! TD*
G04 #@! TO.P,R23,1*
G04 #@! TO.N,Net-(Q4-G)*
G04 #@! TA.AperFunction,SMDPad,CuDef*
G36*
G01*
X103850000Y-44390000D02*
X103850000Y-43610000D01*
G75*
G02*
X103920000Y-43540000I70000J0D01*
G01*
X104480000Y-43540000D01*
G75*
G02*
X104550000Y-43610000I0J-70000D01*
G01*
X104550000Y-44390000D01*
G75*
G02*
X104480000Y-44460000I-70000J0D01*
G01*
X103920000Y-44460000D01*
G75*
G02*
X103850000Y-44390000I0J70000D01*
G01*
G37*
G04 #@! TD.AperFunction*
G04 #@! TO.P,R23,2*
G04 #@! TO.N,Net-(F8-Pad1)*
G04 #@! TA.AperFunction,SMDPad,CuDef*
G36*
G01*
X105450000Y-44390000D02*
X105450000Y-43610000D01*
G75*
G02*
X105520000Y-43540000I70000J0D01*
G01*
X106080000Y-43540000D01*
G75*
G02*
X106150000Y-43610000I0J-70000D01*
G01*
X106150000Y-44390000D01*
G75*
G02*
X106080000Y-44460000I-70000J0D01*
G01*
X105520000Y-44460000D01*
G75*
G02*
X105450000Y-44390000I0J70000D01*
G01*
G37*
G04 #@! TD.AperFunction*
G04 #@! TD*
G04 #@! TO.P,R49,1*
G04 #@! TO.N,/INJ4*
G04 #@! TA.AperFunction,SMDPad,CuDef*
G36*
G01*
X112890000Y-54650000D02*
X112110000Y-54650000D01*
G75*
G02*
X112040000Y-54580000I0J70000D01*
G01*
X112040000Y-54020000D01*
G75*
G02*
X112110000Y-53950000I70000J0D01*
G01*
X112890000Y-53950000D01*
G75*
G02*
X112960000Y-54020000I0J-70000D01*
G01*
X112960000Y-54580000D01*
G75*
G02*
X112890000Y-54650000I-70000J0D01*
G01*
G37*
G04 #@! TD.AperFunction*
G04 #@! TO.P,R49,2*
G04 #@! TO.N,Net-(U5-IN2)*
G04 #@! TA.AperFunction,SMDPad,CuDef*
G36*
G01*
X112890000Y-53050000D02*
X112110000Y-53050000D01*
G75*
G02*
X112040000Y-52980000I0J70000D01*
G01*
X112040000Y-52420000D01*
G75*
G02*
X112110000Y-52350000I70000J0D01*
G01*
X112890000Y-52350000D01*
G75*
G02*
X112960000Y-52420000I0J-70000D01*
G01*
X112960000Y-52980000D01*
G75*
G02*
X112890000Y-53050000I-70000J0D01*
G01*
G37*
G04 #@! TD.AperFunction*
G04 #@! TD*
G04 #@! TO.P,R45,1*
G04 #@! TO.N,/LS2*
G04 #@! TA.AperFunction,SMDPad,CuDef*
G36*
G01*
X124890000Y-54650000D02*
X124110000Y-54650000D01*
G75*
G02*
X124040000Y-54580000I0J70000D01*
G01*
X124040000Y-54020000D01*
G75*
G02*
X124110000Y-53950000I70000J0D01*
G01*
X124890000Y-53950000D01*
G75*
G02*
X124960000Y-54020000I0J-70000D01*
G01*
X124960000Y-54580000D01*
G75*
G02*
X124890000Y-54650000I-70000J0D01*
G01*
G37*
G04 #@! TD.AperFunction*
G04 #@! TO.P,R45,2*
G04 #@! TO.N,Net-(U3-IN2)*
G04 #@! TA.AperFunction,SMDPad,CuDef*
G36*
G01*
X124890000Y-53050000D02*
X124110000Y-53050000D01*
G75*
G02*
X124040000Y-52980000I0J70000D01*
G01*
X124040000Y-52420000D01*
G75*
G02*
X124110000Y-52350000I70000J0D01*
G01*
X124890000Y-52350000D01*
G75*
G02*
X124960000Y-52420000I0J-70000D01*
G01*
X124960000Y-52980000D01*
G75*
G02*
X124890000Y-53050000I-70000J0D01*
G01*
G37*
G04 #@! TD.AperFunction*
G04 #@! TD*
G04 #@! TO.P,R24,1*
G04 #@! TO.N,Net-(Q5-G)*
G04 #@! TA.AperFunction,SMDPad,CuDef*
G36*
G01*
X95850000Y-44390000D02*
X95850000Y-43610000D01*
G75*
G02*
X95920000Y-43540000I70000J0D01*
G01*
X96480000Y-43540000D01*
G75*
G02*
X96550000Y-43610000I0J-70000D01*
G01*
X96550000Y-44390000D01*
G75*
G02*
X96480000Y-44460000I-70000J0D01*
G01*
X95920000Y-44460000D01*
G75*
G02*
X95850000Y-44390000I0J70000D01*
G01*
G37*
G04 #@! TD.AperFunction*
G04 #@! TO.P,R24,2*
G04 #@! TO.N,Net-(F9-Pad1)*
G04 #@! TA.AperFunction,SMDPad,CuDef*
G36*
G01*
X97450000Y-44390000D02*
X97450000Y-43610000D01*
G75*
G02*
X97520000Y-43540000I70000J0D01*
G01*
X98080000Y-43540000D01*
G75*
G02*
X98150000Y-43610000I0J-70000D01*
G01*
X98150000Y-44390000D01*
G75*
G02*
X98080000Y-44460000I-70000J0D01*
G01*
X97520000Y-44460000D01*
G75*
G02*
X97450000Y-44390000I0J70000D01*
G01*
G37*
G04 #@! TD.AperFunction*
G04 #@! TD*
G04 #@! TO.P,R28,1*
G04 #@! TO.N,Net-(F10-Pad1)*
G04 #@! TA.AperFunction,SMDPad,CuDef*
G36*
G01*
X90230000Y-42575000D02*
X87380000Y-42575000D01*
G75*
G02*
X87130000Y-42325000I0J250000D01*
G01*
X87130000Y-41600000D01*
G75*
G02*
X87380000Y-41350000I250000J0D01*
G01*
X90230000Y-41350000D01*
G75*
G02*
X90480000Y-41600000I0J-250000D01*
G01*
X90480000Y-42325000D01*
G75*
G02*
X90230000Y-42575000I-250000J0D01*
G01*
G37*
G04 #@! TD.AperFunction*
G04 #@! TO.P,R28,2*
G04 #@! TO.N,PIN8*
G04 #@! TA.AperFunction,SMDPad,CuDef*
G36*
G01*
X90230000Y-36650000D02*
X87380000Y-36650000D01*
G75*
G02*
X87130000Y-36400000I0J250000D01*
G01*
X87130000Y-35675000D01*
G75*
G02*
X87380000Y-35425000I250000J0D01*
G01*
X90230000Y-35425000D01*
G75*
G02*
X90480000Y-35675000I0J-250000D01*
G01*
X90480000Y-36400000D01*
G75*
G02*
X90230000Y-36650000I-250000J0D01*
G01*
G37*
G04 #@! TD.AperFunction*
G04 #@! TD*
G04 #@! TO.P,D2,1,K*
G04 #@! TO.N,PIN117*
G04 #@! TA.AperFunction,SMDPad,CuDef*
G36*
G01*
X124010000Y-51450000D02*
X122990000Y-51450000D01*
G75*
G02*
X122900000Y-51360000I0J90000D01*
G01*
X122900000Y-50640000D01*
G75*
G02*
X122990000Y-50550000I90000J0D01*
G01*
X124010000Y-50550000D01*
G75*
G02*
X124100000Y-50640000I0J-90000D01*
G01*
X124100000Y-51360000D01*
G75*
G02*
X124010000Y-51450000I-90000J0D01*
G01*
G37*
G04 #@! TD.AperFunction*
G04 #@! TO.P,D2,2,A*
G04 #@! TO.N,PIN15*
G04 #@! TA.AperFunction,SMDPad,CuDef*
G36*
G01*
X124010000Y-48150000D02*
X122990000Y-48150000D01*
G75*
G02*
X122900000Y-48060000I0J90000D01*
G01*
X122900000Y-47340000D01*
G75*
G02*
X122990000Y-47250000I90000J0D01*
G01*
X124010000Y-47250000D01*
G75*
G02*
X124100000Y-47340000I0J-90000D01*
G01*
X124100000Y-48060000D01*
G75*
G02*
X124010000Y-48150000I-90000J0D01*
G01*
G37*
G04 #@! TD.AperFunction*
G04 #@! TD*
G04 #@! TO.P,R3,1*
G04 #@! TO.N,PIN114*
G04 #@! TA.AperFunction,SMDPad,CuDef*
G36*
G01*
X82650000Y-37110000D02*
X82650000Y-37890000D01*
G75*
G02*
X82580000Y-37960000I-70000J0D01*
G01*
X82020000Y-37960000D01*
G75*
G02*
X81950000Y-37890000I0J70000D01*
G01*
X81950000Y-37110000D01*
G75*
G02*
X82020000Y-37040000I70000J0D01*
G01*
X82580000Y-37040000D01*
G75*
G02*
X82650000Y-37110000I0J-70000D01*
G01*
G37*
G04 #@! TD.AperFunction*
G04 #@! TO.P,R3,2*
G04 #@! TO.N,/IN_VMAIN*
G04 #@! TA.AperFunction,SMDPad,CuDef*
G36*
G01*
X81050000Y-37110000D02*
X81050000Y-37890000D01*
G75*
G02*
X80980000Y-37960000I-70000J0D01*
G01*
X80420000Y-37960000D01*
G75*
G02*
X80350000Y-37890000I0J70000D01*
G01*
X80350000Y-37110000D01*
G75*
G02*
X80420000Y-37040000I70000J0D01*
G01*
X80980000Y-37040000D01*
G75*
G02*
X81050000Y-37110000I0J-70000D01*
G01*
G37*
G04 #@! TD.AperFunction*
G04 #@! TD*
G04 #@! TO.P,R36,1*
G04 #@! TO.N,/LS_HOT2*
G04 #@! TA.AperFunction,SMDPad,CuDef*
G36*
G01*
X99390000Y-54650000D02*
X98610000Y-54650000D01*
G75*
G02*
X98540000Y-54580000I0J70000D01*
G01*
X98540000Y-54020000D01*
G75*
G02*
X98610000Y-53950000I70000J0D01*
G01*
X99390000Y-53950000D01*
G75*
G02*
X99460000Y-54020000I0J-70000D01*
G01*
X99460000Y-54580000D01*
G75*
G02*
X99390000Y-54650000I-70000J0D01*
G01*
G37*
G04 #@! TD.AperFunction*
G04 #@! TO.P,R36,2*
G04 #@! TO.N,PIN114*
G04 #@! TA.AperFunction,SMDPad,CuDef*
G36*
G01*
X99390000Y-53050000D02*
X98610000Y-53050000D01*
G75*
G02*
X98540000Y-52980000I0J70000D01*
G01*
X98540000Y-52420000D01*
G75*
G02*
X98610000Y-52350000I70000J0D01*
G01*
X99390000Y-52350000D01*
G75*
G02*
X99460000Y-52420000I0J-70000D01*
G01*
X99460000Y-52980000D01*
G75*
G02*
X99390000Y-53050000I-70000J0D01*
G01*
G37*
G04 #@! TD.AperFunction*
G04 #@! TD*
G04 #@! TO.P,R22,1*
G04 #@! TO.N,Net-(F7-Pad1)*
G04 #@! TA.AperFunction,SMDPad,CuDef*
G36*
G01*
X114925000Y-42575000D02*
X112075000Y-42575000D01*
G75*
G02*
X111825000Y-42325000I0J250000D01*
G01*
X111825000Y-41600000D01*
G75*
G02*
X112075000Y-41350000I250000J0D01*
G01*
X114925000Y-41350000D01*
G75*
G02*
X115175000Y-41600000I0J-250000D01*
G01*
X115175000Y-42325000D01*
G75*
G02*
X114925000Y-42575000I-250000J0D01*
G01*
G37*
G04 #@! TD.AperFunction*
G04 #@! TO.P,R22,2*
G04 #@! TO.N,PIN10*
G04 #@! TA.AperFunction,SMDPad,CuDef*
G36*
G01*
X114925000Y-36650000D02*
X112075000Y-36650000D01*
G75*
G02*
X111825000Y-36400000I0J250000D01*
G01*
X111825000Y-35675000D01*
G75*
G02*
X112075000Y-35425000I250000J0D01*
G01*
X114925000Y-35425000D01*
G75*
G02*
X115175000Y-35675000I0J-250000D01*
G01*
X115175000Y-36400000D01*
G75*
G02*
X114925000Y-36650000I-250000J0D01*
G01*
G37*
G04 #@! TD.AperFunction*
G04 #@! TD*
G04 #@! TO.P,R46,1*
G04 #@! TO.N,/INJ1*
G04 #@! TA.AperFunction,SMDPad,CuDef*
G36*
G01*
X103890000Y-54650000D02*
X103110000Y-54650000D01*
G75*
G02*
X103040000Y-54580000I0J70000D01*
G01*
X103040000Y-54020000D01*
G75*
G02*
X103110000Y-53950000I70000J0D01*
G01*
X103890000Y-53950000D01*
G75*
G02*
X103960000Y-54020000I0J-70000D01*
G01*
X103960000Y-54580000D01*
G75*
G02*
X103890000Y-54650000I-70000J0D01*
G01*
G37*
G04 #@! TD.AperFunction*
G04 #@! TO.P,R46,2*
G04 #@! TO.N,Net-(U4-IN1)*
G04 #@! TA.AperFunction,SMDPad,CuDef*
G36*
G01*
X103890000Y-53050000D02*
X103110000Y-53050000D01*
G75*
G02*
X103040000Y-52980000I0J70000D01*
G01*
X103040000Y-52420000D01*
G75*
G02*
X103110000Y-52350000I70000J0D01*
G01*
X103890000Y-52350000D01*
G75*
G02*
X103960000Y-52420000I0J-70000D01*
G01*
X103960000Y-52980000D01*
G75*
G02*
X103890000Y-53050000I-70000J0D01*
G01*
G37*
G04 #@! TD.AperFunction*
G04 #@! TD*
G04 #@! TO.P,F9,1*
G04 #@! TO.N,Net-(F9-Pad1)*
G04 #@! TA.AperFunction,SMDPad,CuDef*
G36*
G01*
X98225000Y-45743750D02*
X98225000Y-46256250D01*
G75*
G02*
X98006250Y-46475000I-218750J0D01*
G01*
X97568750Y-46475000D01*
G75*
G02*
X97350000Y-46256250I0J218750D01*
G01*
X97350000Y-45743750D01*
G75*
G02*
X97568750Y-45525000I218750J0D01*
G01*
X98006250Y-45525000D01*
G75*
G02*
X98225000Y-45743750I0J-218750D01*
G01*
G37*
G04 #@! TD.AperFunction*
G04 #@! TO.P,F9,2*
G04 #@! TO.N,/IGN5*
G04 #@! TA.AperFunction,SMDPad,CuDef*
G36*
G01*
X96650000Y-45743750D02*
X96650000Y-46256250D01*
G75*
G02*
X96431250Y-46475000I-218750J0D01*
G01*
X95993750Y-46475000D01*
G75*
G02*
X95775000Y-46256250I0J218750D01*
G01*
X95775000Y-45743750D01*
G75*
G02*
X95993750Y-45525000I218750J0D01*
G01*
X96431250Y-45525000D01*
G75*
G02*
X96650000Y-45743750I0J-218750D01*
G01*
G37*
G04 #@! TD.AperFunction*
G04 #@! TD*
G04 #@! TO.P,R41,1*
G04 #@! TO.N,E7INJ8CANTX*
G04 #@! TA.AperFunction,SMDPad,CuDef*
G36*
G01*
X71890000Y-87150000D02*
X71110000Y-87150000D01*
G75*
G02*
X71040000Y-87080000I0J70000D01*
G01*
X71040000Y-86520000D01*
G75*
G02*
X71110000Y-86450000I70000J0D01*
G01*
X71890000Y-86450000D01*
G75*
G02*
X71960000Y-86520000I0J-70000D01*
G01*
X71960000Y-87080000D01*
G75*
G02*
X71890000Y-87150000I-70000J0D01*
G01*
G37*
G04 #@! TD.AperFunction*
G04 #@! TO.P,R41,2*
G04 #@! TO.N,PIN114*
G04 #@! TA.AperFunction,SMDPad,CuDef*
G36*
G01*
X71890000Y-85550000D02*
X71110000Y-85550000D01*
G75*
G02*
X71040000Y-85480000I0J70000D01*
G01*
X71040000Y-84920000D01*
G75*
G02*
X71110000Y-84850000I70000J0D01*
G01*
X71890000Y-84850000D01*
G75*
G02*
X71960000Y-84920000I0J-70000D01*
G01*
X71960000Y-85480000D01*
G75*
G02*
X71890000Y-85550000I-70000J0D01*
G01*
G37*
G04 #@! TD.AperFunction*
G04 #@! TD*
G04 #@! TO.P,R42,1*
G04 #@! TO.N,/LS3*
G04 #@! TA.AperFunction,SMDPad,CuDef*
G36*
G01*
X127890000Y-54650000D02*
X127110000Y-54650000D01*
G75*
G02*
X127040000Y-54580000I0J70000D01*
G01*
X127040000Y-54020000D01*
G75*
G02*
X127110000Y-53950000I70000J0D01*
G01*
X127890000Y-53950000D01*
G75*
G02*
X127960000Y-54020000I0J-70000D01*
G01*
X127960000Y-54580000D01*
G75*
G02*
X127890000Y-54650000I-70000J0D01*
G01*
G37*
G04 #@! TD.AperFunction*
G04 #@! TO.P,R42,2*
G04 #@! TO.N,Net-(U9-IN1)*
G04 #@! TA.AperFunction,SMDPad,CuDef*
G36*
G01*
X127890000Y-53050000D02*
X127110000Y-53050000D01*
G75*
G02*
X127040000Y-52980000I0J70000D01*
G01*
X127040000Y-52420000D01*
G75*
G02*
X127110000Y-52350000I70000J0D01*
G01*
X127890000Y-52350000D01*
G75*
G02*
X127960000Y-52420000I0J-70000D01*
G01*
X127960000Y-52980000D01*
G75*
G02*
X127890000Y-53050000I-70000J0D01*
G01*
G37*
G04 #@! TD.AperFunction*
G04 #@! TD*
G04 #@! TO.P,F8,1*
G04 #@! TO.N,Net-(F8-Pad1)*
G04 #@! TA.AperFunction,SMDPad,CuDef*
G36*
G01*
X106225000Y-45743750D02*
X106225000Y-46256250D01*
G75*
G02*
X106006250Y-46475000I-218750J0D01*
G01*
X105568750Y-46475000D01*
G75*
G02*
X105350000Y-46256250I0J218750D01*
G01*
X105350000Y-45743750D01*
G75*
G02*
X105568750Y-45525000I218750J0D01*
G01*
X106006250Y-45525000D01*
G75*
G02*
X106225000Y-45743750I0J-218750D01*
G01*
G37*
G04 #@! TD.AperFunction*
G04 #@! TO.P,F8,2*
G04 #@! TO.N,/IGN4*
G04 #@! TA.AperFunction,SMDPad,CuDef*
G36*
G01*
X104650000Y-45743750D02*
X104650000Y-46256250D01*
G75*
G02*
X104431250Y-46475000I-218750J0D01*
G01*
X103993750Y-46475000D01*
G75*
G02*
X103775000Y-46256250I0J218750D01*
G01*
X103775000Y-45743750D01*
G75*
G02*
X103993750Y-45525000I218750J0D01*
G01*
X104431250Y-45525000D01*
G75*
G02*
X104650000Y-45743750I0J-218750D01*
G01*
G37*
G04 #@! TD.AperFunction*
G04 #@! TD*
G04 #@! TO.P,R2,1*
G04 #@! TO.N,/IN_VMAIN*
G04 #@! TA.AperFunction,SMDPad,CuDef*
G36*
G01*
X80350000Y-36390000D02*
X80350000Y-35610000D01*
G75*
G02*
X80420000Y-35540000I70000J0D01*
G01*
X80980000Y-35540000D01*
G75*
G02*
X81050000Y-35610000I0J-70000D01*
G01*
X81050000Y-36390000D01*
G75*
G02*
X80980000Y-36460000I-70000J0D01*
G01*
X80420000Y-36460000D01*
G75*
G02*
X80350000Y-36390000I0J70000D01*
G01*
G37*
G04 #@! TD.AperFunction*
G04 #@! TO.P,R2,2*
G04 #@! TO.N,PIN120*
G04 #@! TA.AperFunction,SMDPad,CuDef*
G36*
G01*
X81950000Y-36390000D02*
X81950000Y-35610000D01*
G75*
G02*
X82020000Y-35540000I70000J0D01*
G01*
X82580000Y-35540000D01*
G75*
G02*
X82650000Y-35610000I0J-70000D01*
G01*
X82650000Y-36390000D01*
G75*
G02*
X82580000Y-36460000I-70000J0D01*
G01*
X82020000Y-36460000D01*
G75*
G02*
X81950000Y-36390000I0J70000D01*
G01*
G37*
G04 #@! TD.AperFunction*
G04 #@! TD*
G04 #@! TO.P,F5,1*
G04 #@! TO.N,Net-(F5-Pad1)*
G04 #@! TA.AperFunction,SMDPad,CuDef*
G36*
G01*
X131225000Y-45743750D02*
X131225000Y-46256250D01*
G75*
G02*
X131006250Y-46475000I-218750J0D01*
G01*
X130568750Y-46475000D01*
G75*
G02*
X130350000Y-46256250I0J218750D01*
G01*
X130350000Y-45743750D01*
G75*
G02*
X130568750Y-45525000I218750J0D01*
G01*
X131006250Y-45525000D01*
G75*
G02*
X131225000Y-45743750I0J-218750D01*
G01*
G37*
G04 #@! TD.AperFunction*
G04 #@! TO.P,F5,2*
G04 #@! TO.N,/IGN1*
G04 #@! TA.AperFunction,SMDPad,CuDef*
G36*
G01*
X129650000Y-45743750D02*
X129650000Y-46256250D01*
G75*
G02*
X129431250Y-46475000I-218750J0D01*
G01*
X128993750Y-46475000D01*
G75*
G02*
X128775000Y-46256250I0J218750D01*
G01*
X128775000Y-45743750D01*
G75*
G02*
X128993750Y-45525000I218750J0D01*
G01*
X129431250Y-45525000D01*
G75*
G02*
X129650000Y-45743750I0J-218750D01*
G01*
G37*
G04 #@! TD.AperFunction*
G04 #@! TD*
G04 #@! TO.P,R16,1*
G04 #@! TO.N,/LS1*
G04 #@! TA.AperFunction,SMDPad,CuDef*
G36*
G01*
X123390000Y-54650000D02*
X122610000Y-54650000D01*
G75*
G02*
X122540000Y-54580000I0J70000D01*
G01*
X122540000Y-54020000D01*
G75*
G02*
X122610000Y-53950000I70000J0D01*
G01*
X123390000Y-53950000D01*
G75*
G02*
X123460000Y-54020000I0J-70000D01*
G01*
X123460000Y-54580000D01*
G75*
G02*
X123390000Y-54650000I-70000J0D01*
G01*
G37*
G04 #@! TD.AperFunction*
G04 #@! TO.P,R16,2*
G04 #@! TO.N,PIN114*
G04 #@! TA.AperFunction,SMDPad,CuDef*
G36*
G01*
X123390000Y-53050000D02*
X122610000Y-53050000D01*
G75*
G02*
X122540000Y-52980000I0J70000D01*
G01*
X122540000Y-52420000D01*
G75*
G02*
X122610000Y-52350000I70000J0D01*
G01*
X123390000Y-52350000D01*
G75*
G02*
X123460000Y-52420000I0J-70000D01*
G01*
X123460000Y-52980000D01*
G75*
G02*
X123390000Y-53050000I-70000J0D01*
G01*
G37*
G04 #@! TD.AperFunction*
G04 #@! TD*
G04 #@! TO.P,R18,1*
G04 #@! TO.N,Net-(Q2-G)*
G04 #@! TA.AperFunction,SMDPad,CuDef*
G36*
G01*
X120350000Y-44390000D02*
X120350000Y-43610000D01*
G75*
G02*
X120420000Y-43540000I70000J0D01*
G01*
X120980000Y-43540000D01*
G75*
G02*
X121050000Y-43610000I0J-70000D01*
G01*
X121050000Y-44390000D01*
G75*
G02*
X120980000Y-44460000I-70000J0D01*
G01*
X120420000Y-44460000D01*
G75*
G02*
X120350000Y-44390000I0J70000D01*
G01*
G37*
G04 #@! TD.AperFunction*
G04 #@! TO.P,R18,2*
G04 #@! TO.N,Net-(F6-Pad1)*
G04 #@! TA.AperFunction,SMDPad,CuDef*
G36*
G01*
X121950000Y-44390000D02*
X121950000Y-43610000D01*
G75*
G02*
X122020000Y-43540000I70000J0D01*
G01*
X122580000Y-43540000D01*
G75*
G02*
X122650000Y-43610000I0J-70000D01*
G01*
X122650000Y-44390000D01*
G75*
G02*
X122580000Y-44460000I-70000J0D01*
G01*
X122020000Y-44460000D01*
G75*
G02*
X121950000Y-44390000I0J70000D01*
G01*
G37*
G04 #@! TD.AperFunction*
G04 #@! TD*
G04 #@! TO.P,R53,1*
G04 #@! TO.N,E7INJ8CANTX*
G04 #@! TA.AperFunction,SMDPad,CuDef*
G36*
G01*
X70390000Y-87150000D02*
X69610000Y-87150000D01*
G75*
G02*
X69540000Y-87080000I0J70000D01*
G01*
X69540000Y-86520000D01*
G75*
G02*
X69610000Y-86450000I70000J0D01*
G01*
X70390000Y-86450000D01*
G75*
G02*
X70460000Y-86520000I0J-70000D01*
G01*
X70460000Y-87080000D01*
G75*
G02*
X70390000Y-87150000I-70000J0D01*
G01*
G37*
G04 #@! TD.AperFunction*
G04 #@! TO.P,R53,2*
G04 #@! TO.N,Net-(U11-IN2)*
G04 #@! TA.AperFunction,SMDPad,CuDef*
G36*
G01*
X70390000Y-85550000D02*
X69610000Y-85550000D01*
G75*
G02*
X69540000Y-85480000I0J70000D01*
G01*
X69540000Y-84920000D01*
G75*
G02*
X69610000Y-84850000I70000J0D01*
G01*
X70390000Y-84850000D01*
G75*
G02*
X70460000Y-84920000I0J-70000D01*
G01*
X70460000Y-85480000D01*
G75*
G02*
X70390000Y-85550000I-70000J0D01*
G01*
G37*
G04 #@! TD.AperFunction*
G04 #@! TD*
G04 #@! TO.P,D3,1,K*
G04 #@! TO.N,PIN117*
G04 #@! TA.AperFunction,SMDPad,CuDef*
G36*
G01*
X129510000Y-51450000D02*
X128490000Y-51450000D01*
G75*
G02*
X128400000Y-51360000I0J90000D01*
G01*
X128400000Y-50640000D01*
G75*
G02*
X128490000Y-50550000I90000J0D01*
G01*
X129510000Y-50550000D01*
G75*
G02*
X129600000Y-50640000I0J-90000D01*
G01*
X129600000Y-51360000D01*
G75*
G02*
X129510000Y-51450000I-90000J0D01*
G01*
G37*
G04 #@! TD.AperFunction*
G04 #@! TO.P,D3,2,A*
G04 #@! TO.N,PIN16*
G04 #@! TA.AperFunction,SMDPad,CuDef*
G36*
G01*
X129510000Y-48150000D02*
X128490000Y-48150000D01*
G75*
G02*
X128400000Y-48060000I0J90000D01*
G01*
X128400000Y-47340000D01*
G75*
G02*
X128490000Y-47250000I90000J0D01*
G01*
X129510000Y-47250000D01*
G75*
G02*
X129600000Y-47340000I0J-90000D01*
G01*
X129600000Y-48060000D01*
G75*
G02*
X129510000Y-48150000I-90000J0D01*
G01*
G37*
G04 #@! TD.AperFunction*
G04 #@! TD*
G04 #@! TO.P,R34,1*
G04 #@! TO.N,/INJ6*
G04 #@! TA.AperFunction,SMDPad,CuDef*
G36*
G01*
X120390000Y-54650000D02*
X119610000Y-54650000D01*
G75*
G02*
X119540000Y-54580000I0J70000D01*
G01*
X119540000Y-54020000D01*
G75*
G02*
X119610000Y-53950000I70000J0D01*
G01*
X120390000Y-53950000D01*
G75*
G02*
X120460000Y-54020000I0J-70000D01*
G01*
X120460000Y-54580000D01*
G75*
G02*
X120390000Y-54650000I-70000J0D01*
G01*
G37*
G04 #@! TD.AperFunction*
G04 #@! TO.P,R34,2*
G04 #@! TO.N,PIN114*
G04 #@! TA.AperFunction,SMDPad,CuDef*
G36*
G01*
X120390000Y-53050000D02*
X119610000Y-53050000D01*
G75*
G02*
X119540000Y-52980000I0J70000D01*
G01*
X119540000Y-52420000D01*
G75*
G02*
X119610000Y-52350000I70000J0D01*
G01*
X120390000Y-52350000D01*
G75*
G02*
X120460000Y-52420000I0J-70000D01*
G01*
X120460000Y-52980000D01*
G75*
G02*
X120390000Y-53050000I-70000J0D01*
G01*
G37*
G04 #@! TD.AperFunction*
G04 #@! TD*
G04 #@! TO.P,D4,1,K*
G04 #@! TO.N,PIN117*
G04 #@! TA.AperFunction,SMDPad,CuDef*
G36*
G01*
X132010000Y-51600000D02*
X130990000Y-51600000D01*
G75*
G02*
X130900000Y-51510000I0J90000D01*
G01*
X130900000Y-50790000D01*
G75*
G02*
X130990000Y-50700000I90000J0D01*
G01*
X132010000Y-50700000D01*
G75*
G02*
X132100000Y-50790000I0J-90000D01*
G01*
X132100000Y-51510000D01*
G75*
G02*
X132010000Y-51600000I-90000J0D01*
G01*
G37*
G04 #@! TD.AperFunction*
G04 #@! TO.P,D4,2,A*
G04 #@! TO.N,PIN88*
G04 #@! TA.AperFunction,SMDPad,CuDef*
G36*
G01*
X132010000Y-48300000D02*
X130990000Y-48300000D01*
G75*
G02*
X130900000Y-48210000I0J90000D01*
G01*
X130900000Y-47490000D01*
G75*
G02*
X130990000Y-47400000I90000J0D01*
G01*
X132010000Y-47400000D01*
G75*
G02*
X132100000Y-47490000I0J-90000D01*
G01*
X132100000Y-48210000D01*
G75*
G02*
X132010000Y-48300000I-90000J0D01*
G01*
G37*
G04 #@! TD.AperFunction*
G04 #@! TD*
G04 #@! TO.P,R20,1*
G04 #@! TO.N,Net-(F5-Pad1)*
G04 #@! TA.AperFunction,SMDPad,CuDef*
G36*
G01*
X130925000Y-42612500D02*
X128075000Y-42612500D01*
G75*
G02*
X127825000Y-42362500I0J250000D01*
G01*
X127825000Y-41637500D01*
G75*
G02*
X128075000Y-41387500I250000J0D01*
G01*
X130925000Y-41387500D01*
G75*
G02*
X131175000Y-41637500I0J-250000D01*
G01*
X131175000Y-42362500D01*
G75*
G02*
X130925000Y-42612500I-250000J0D01*
G01*
G37*
G04 #@! TD.AperFunction*
G04 #@! TO.P,R20,2*
G04 #@! TO.N,PIN13*
G04 #@! TA.AperFunction,SMDPad,CuDef*
G36*
G01*
X130925000Y-36687500D02*
X128075000Y-36687500D01*
G75*
G02*
X127825000Y-36437500I0J250000D01*
G01*
X127825000Y-35712500D01*
G75*
G02*
X128075000Y-35462500I250000J0D01*
G01*
X130925000Y-35462500D01*
G75*
G02*
X131175000Y-35712500I0J-250000D01*
G01*
X131175000Y-36437500D01*
G75*
G02*
X130925000Y-36687500I-250000J0D01*
G01*
G37*
G04 #@! TD.AperFunction*
G04 #@! TD*
G04 #@! TO.P,R21,1*
G04 #@! TO.N,Net-(F6-Pad1)*
G04 #@! TA.AperFunction,SMDPad,CuDef*
G36*
G01*
X122925000Y-42537500D02*
X120075000Y-42537500D01*
G75*
G02*
X119825000Y-42287500I0J250000D01*
G01*
X119825000Y-41562500D01*
G75*
G02*
X120075000Y-41312500I250000J0D01*
G01*
X122925000Y-41312500D01*
G75*
G02*
X123175000Y-41562500I0J-250000D01*
G01*
X123175000Y-42287500D01*
G75*
G02*
X122925000Y-42537500I-250000J0D01*
G01*
G37*
G04 #@! TD.AperFunction*
G04 #@! TO.P,R21,2*
G04 #@! TO.N,PIN12*
G04 #@! TA.AperFunction,SMDPad,CuDef*
G36*
G01*
X122925000Y-36612500D02*
X120075000Y-36612500D01*
G75*
G02*
X119825000Y-36362500I0J250000D01*
G01*
X119825000Y-35637500D01*
G75*
G02*
X120075000Y-35387500I250000J0D01*
G01*
X122925000Y-35387500D01*
G75*
G02*
X123175000Y-35637500I0J-250000D01*
G01*
X123175000Y-36362500D01*
G75*
G02*
X122925000Y-36612500I-250000J0D01*
G01*
G37*
G04 #@! TD.AperFunction*
G04 #@! TD*
G04 #@! TO.P,F7,1*
G04 #@! TO.N,Net-(F7-Pad1)*
G04 #@! TA.AperFunction,SMDPad,CuDef*
G36*
G01*
X114725000Y-45743750D02*
X114725000Y-46256250D01*
G75*
G02*
X114506250Y-46475000I-218750J0D01*
G01*
X114068750Y-46475000D01*
G75*
G02*
X113850000Y-46256250I0J218750D01*
G01*
X113850000Y-45743750D01*
G75*
G02*
X114068750Y-45525000I218750J0D01*
G01*
X114506250Y-45525000D01*
G75*
G02*
X114725000Y-45743750I0J-218750D01*
G01*
G37*
G04 #@! TD.AperFunction*
G04 #@! TO.P,F7,2*
G04 #@! TO.N,/IGN3*
G04 #@! TA.AperFunction,SMDPad,CuDef*
G36*
G01*
X113150000Y-45743750D02*
X113150000Y-46256250D01*
G75*
G02*
X112931250Y-46475000I-218750J0D01*
G01*
X112493750Y-46475000D01*
G75*
G02*
X112275000Y-46256250I0J218750D01*
G01*
X112275000Y-45743750D01*
G75*
G02*
X112493750Y-45525000I218750J0D01*
G01*
X112931250Y-45525000D01*
G75*
G02*
X113150000Y-45743750I0J-218750D01*
G01*
G37*
G04 #@! TD.AperFunction*
G04 #@! TD*
G04 #@! TO.P,R26,1*
G04 #@! TO.N,Net-(F8-Pad1)*
G04 #@! TA.AperFunction,SMDPad,CuDef*
G36*
G01*
X106425000Y-42575000D02*
X103575000Y-42575000D01*
G75*
G02*
X103325000Y-42325000I0J250000D01*
G01*
X103325000Y-41600000D01*
G75*
G02*
X103575000Y-41350000I250000J0D01*
G01*
X106425000Y-41350000D01*
G75*
G02*
X106675000Y-41600000I0J-250000D01*
G01*
X106675000Y-42325000D01*
G75*
G02*
X106425000Y-42575000I-250000J0D01*
G01*
G37*
G04 #@! TD.AperFunction*
G04 #@! TO.P,R26,2*
G04 #@! TO.N,PIN9*
G04 #@! TA.AperFunction,SMDPad,CuDef*
G36*
G01*
X106425000Y-36650000D02*
X103575000Y-36650000D01*
G75*
G02*
X103325000Y-36400000I0J250000D01*
G01*
X103325000Y-35675000D01*
G75*
G02*
X103575000Y-35425000I250000J0D01*
G01*
X106425000Y-35425000D01*
G75*
G02*
X106675000Y-35675000I0J-250000D01*
G01*
X106675000Y-36400000D01*
G75*
G02*
X106425000Y-36650000I-250000J0D01*
G01*
G37*
G04 #@! TD.AperFunction*
G04 #@! TD*
G04 #@! TO.P,R47,1*
G04 #@! TO.N,/INJ2*
G04 #@! TA.AperFunction,SMDPad,CuDef*
G36*
G01*
X106890000Y-54650000D02*
X106110000Y-54650000D01*
G75*
G02*
X106040000Y-54580000I0J70000D01*
G01*
X106040000Y-54020000D01*
G75*
G02*
X106110000Y-53950000I70000J0D01*
G01*
X106890000Y-53950000D01*
G75*
G02*
X106960000Y-54020000I0J-70000D01*
G01*
X106960000Y-54580000D01*
G75*
G02*
X106890000Y-54650000I-70000J0D01*
G01*
G37*
G04 #@! TD.AperFunction*
G04 #@! TO.P,R47,2*
G04 #@! TO.N,Net-(U4-IN2)*
G04 #@! TA.AperFunction,SMDPad,CuDef*
G36*
G01*
X106890000Y-53050000D02*
X106110000Y-53050000D01*
G75*
G02*
X106040000Y-52980000I0J70000D01*
G01*
X106040000Y-52420000D01*
G75*
G02*
X106110000Y-52350000I70000J0D01*
G01*
X106890000Y-52350000D01*
G75*
G02*
X106960000Y-52420000I0J-70000D01*
G01*
X106960000Y-52980000D01*
G75*
G02*
X106890000Y-53050000I-70000J0D01*
G01*
G37*
G04 #@! TD.AperFunction*
G04 #@! TD*
G04 #@! TO.P,R32,1*
G04 #@! TO.N,/INJ2*
G04 #@! TA.AperFunction,SMDPad,CuDef*
G36*
G01*
X108390000Y-54650000D02*
X107610000Y-54650000D01*
G75*
G02*
X107540000Y-54580000I0J70000D01*
G01*
X107540000Y-54020000D01*
G75*
G02*
X107610000Y-53950000I70000J0D01*
G01*
X108390000Y-53950000D01*
G75*
G02*
X108460000Y-54020000I0J-70000D01*
G01*
X108460000Y-54580000D01*
G75*
G02*
X108390000Y-54650000I-70000J0D01*
G01*
G37*
G04 #@! TD.AperFunction*
G04 #@! TO.P,R32,2*
G04 #@! TO.N,PIN114*
G04 #@! TA.AperFunction,SMDPad,CuDef*
G36*
G01*
X108390000Y-53050000D02*
X107610000Y-53050000D01*
G75*
G02*
X107540000Y-52980000I0J70000D01*
G01*
X107540000Y-52420000D01*
G75*
G02*
X107610000Y-52350000I70000J0D01*
G01*
X108390000Y-52350000D01*
G75*
G02*
X108460000Y-52420000I0J-70000D01*
G01*
X108460000Y-52980000D01*
G75*
G02*
X108390000Y-53050000I-70000J0D01*
G01*
G37*
G04 #@! TD.AperFunction*
G04 #@! TD*
D48*
G04 #@! TO.P,P1,*
G04 #@! TO.N,*
X190652000Y2883000D03*
D49*
X188202000Y-4917000D03*
D48*
X116152000Y2883000D03*
D49*
X66402000Y-4917000D03*
D48*
X63952000Y2883000D03*
D50*
G04 #@! TO.P,P1,1,1*
G04 #@! TO.N,PIN1*
X183552000Y-2117000D03*
G04 #@! TO.P,P1,2,2*
G04 #@! TO.N,PIN2*
X177752000Y-2117000D03*
G04 #@! TO.P,P1,3,3*
G04 #@! TO.N,PIN114*
X180652000Y-4447000D03*
G04 #@! TO.P,P1,4,4*
G04 #@! TO.N,PIN4*
X183552000Y-10247000D03*
G04 #@! TO.P,P1,5,5*
G04 #@! TO.N,PIN5*
X177752000Y-10247000D03*
D10*
G04 #@! TO.P,P1,6,6*
G04 #@! TO.N,PIN6*
X124132000Y-10247000D03*
G04 #@! TO.P,P1,7,7*
G04 #@! TO.N,PIN7*
X126672000Y-10247000D03*
G04 #@! TO.P,P1,8,8*
G04 #@! TO.N,PIN8*
X129212000Y-10247000D03*
G04 #@! TO.P,P1,9,9*
G04 #@! TO.N,PIN9*
X131752000Y-10247000D03*
G04 #@! TO.P,P1,10,10*
G04 #@! TO.N,PIN10*
X134292000Y-10247000D03*
G04 #@! TO.P,P1,11,11*
G04 #@! TO.N,PIN11*
X136832000Y-10247000D03*
G04 #@! TO.P,P1,12,12*
G04 #@! TO.N,PIN12*
X139372000Y-10247000D03*
G04 #@! TO.P,P1,13,13*
G04 #@! TO.N,PIN13*
X141912000Y-10247000D03*
G04 #@! TO.P,P1,14,14*
G04 #@! TO.N,PIN14*
X144452000Y-10247000D03*
G04 #@! TO.P,P1,15,15*
G04 #@! TO.N,PIN15*
X146992000Y-10247000D03*
G04 #@! TO.P,P1,16,16*
G04 #@! TO.N,PIN16*
X149532000Y-10247000D03*
G04 #@! TO.P,P1,17,17*
G04 #@! TO.N,PIN17*
X152072000Y-10247000D03*
G04 #@! TO.P,P1,18,18*
G04 #@! TO.N,PIN18*
X154612000Y-10247000D03*
G04 #@! TO.P,P1,19,19*
G04 #@! TO.N,PIN19*
X157152000Y-10247000D03*
G04 #@! TO.P,P1,20,20*
G04 #@! TO.N,PIN20*
X159692000Y-10247000D03*
G04 #@! TO.P,P1,21,21*
G04 #@! TO.N,PIN21*
X162232000Y-10247000D03*
G04 #@! TO.P,P1,22,22*
G04 #@! TO.N,PIN22*
X164772000Y-10247000D03*
G04 #@! TO.P,P1,23,23*
G04 #@! TO.N,PIN120*
X167312000Y-10247000D03*
G04 #@! TO.P,P1,24,24*
X169852000Y-10247000D03*
G04 #@! TO.P,P1,25,25*
G04 #@! TO.N,PIN25*
X124132000Y-7707000D03*
G04 #@! TO.P,P1,26,26*
G04 #@! TO.N,PIN26*
X126672000Y-7707000D03*
G04 #@! TO.P,P1,27,27*
G04 #@! TO.N,PIN27*
X129212000Y-7707000D03*
G04 #@! TO.P,P1,28,28*
G04 #@! TO.N,PIN28*
X131752000Y-7707000D03*
G04 #@! TO.P,P1,29,29*
G04 #@! TO.N,PIN29*
X134292000Y-7707000D03*
G04 #@! TO.P,P1,30,30*
G04 #@! TO.N,PIN30*
X136832000Y-7707000D03*
G04 #@! TO.P,P1,31,31*
G04 #@! TO.N,PIN31*
X139372000Y-7707000D03*
G04 #@! TO.P,P1,32,32*
G04 #@! TO.N,PIN32*
X141912000Y-7707000D03*
G04 #@! TO.P,P1,33,33*
G04 #@! TO.N,PIN33*
X144452000Y-7707000D03*
G04 #@! TO.P,P1,34,34*
G04 #@! TO.N,PIN34*
X146992000Y-7707000D03*
G04 #@! TO.P,P1,35,35*
G04 #@! TO.N,PIN35*
X149532000Y-7707000D03*
G04 #@! TO.P,P1,36,36*
G04 #@! TO.N,PIN36*
X152072000Y-7707000D03*
G04 #@! TO.P,P1,37,37*
G04 #@! TO.N,PIN37*
X154612000Y-7707000D03*
G04 #@! TO.P,P1,38,38*
G04 #@! TO.N,PIN38*
X157152000Y-7707000D03*
G04 #@! TO.P,P1,39,39*
G04 #@! TO.N,PIN39*
X159692000Y-7707000D03*
G04 #@! TO.P,P1,40,40*
G04 #@! TO.N,PIN40*
X162232000Y-7707000D03*
G04 #@! TO.P,P1,41,41*
G04 #@! TO.N,PIN41*
X164772000Y-7707000D03*
G04 #@! TO.P,P1,42,42*
G04 #@! TO.N,PIN42*
X167312000Y-7707000D03*
G04 #@! TO.P,P1,43,43*
G04 #@! TO.N,PIN43*
X169852000Y-7707000D03*
G04 #@! TO.P,P1,44,44*
G04 #@! TO.N,PIN44*
X124132000Y-1657000D03*
G04 #@! TO.P,P1,45,45*
G04 #@! TO.N,PIN45*
X126672000Y-1657000D03*
G04 #@! TO.P,P1,46,46*
G04 #@! TO.N,PIN46*
X129212000Y-1657000D03*
G04 #@! TO.P,P1,47,47*
G04 #@! TO.N,PIN47*
X131752000Y-1657000D03*
G04 #@! TO.P,P1,48,48*
G04 #@! TO.N,PIN48*
X134292000Y-1657000D03*
G04 #@! TO.P,P1,49,49*
G04 #@! TO.N,PIN49*
X136832000Y-1657000D03*
G04 #@! TO.P,P1,50,50*
G04 #@! TO.N,PIN50*
X139372000Y-1657000D03*
G04 #@! TO.P,P1,51,51*
G04 #@! TO.N,PIN51*
X141912000Y-1657000D03*
G04 #@! TO.P,P1,52,52*
G04 #@! TO.N,PIN113*
X144452000Y-1657000D03*
G04 #@! TO.P,P1,53,53*
X146992000Y-1657000D03*
G04 #@! TO.P,P1,54,54*
X149532000Y-1657000D03*
G04 #@! TO.P,P1,55,55*
X152072000Y-1657000D03*
G04 #@! TO.P,P1,56,56*
X154612000Y-1657000D03*
G04 #@! TO.P,P1,57,57*
X157152000Y-1657000D03*
G04 #@! TO.P,P1,58,58*
X159692000Y-1657000D03*
G04 #@! TO.P,P1,59,59*
X162232000Y-1657000D03*
G04 #@! TO.P,P1,60,60*
X164772000Y-1657000D03*
G04 #@! TO.P,P1,61,61*
X167312000Y-1657000D03*
G04 #@! TO.P,P1,62,62*
X169852000Y-1657000D03*
G04 #@! TO.P,P1,63,63*
G04 #@! TO.N,PIN63*
X124132000Y883000D03*
G04 #@! TO.P,P1,64,64*
G04 #@! TO.N,PIN113*
X126672000Y883000D03*
G04 #@! TO.P,P1,65,65*
G04 #@! TO.N,PIN65*
X129212000Y883000D03*
G04 #@! TO.P,P1,66,66*
G04 #@! TO.N,PIN113*
X131752000Y883000D03*
G04 #@! TO.P,P1,67,67*
G04 #@! TO.N,PIN67*
X134292000Y883000D03*
G04 #@! TO.P,P1,68,68*
G04 #@! TO.N,PIN113*
X136832000Y883000D03*
G04 #@! TO.P,P1,69,69*
G04 #@! TO.N,PIN69*
X139372000Y883000D03*
G04 #@! TO.P,P1,70,70*
G04 #@! TO.N,PIN70*
X141912000Y883000D03*
G04 #@! TO.P,P1,71,71*
G04 #@! TO.N,PIN106*
X144452000Y883000D03*
G04 #@! TO.P,P1,72,72*
X146992000Y883000D03*
G04 #@! TO.P,P1,73,73*
X149532000Y883000D03*
G04 #@! TO.P,P1,74,74*
X152072000Y883000D03*
G04 #@! TO.P,P1,75,75*
X154612000Y883000D03*
G04 #@! TO.P,P1,76,76*
X157152000Y883000D03*
G04 #@! TO.P,P1,77,77*
X159692000Y883000D03*
G04 #@! TO.P,P1,78,78*
X162232000Y883000D03*
G04 #@! TO.P,P1,79,79*
X164772000Y883000D03*
G04 #@! TO.P,P1,80,80*
X167312000Y883000D03*
G04 #@! TO.P,P1,81,81*
G04 #@! TO.N,PIN81*
X169852000Y883000D03*
G04 #@! TO.P,P1,82,82*
G04 #@! TO.N,PIN82*
X108162000Y883000D03*
G04 #@! TO.P,P1,83,83*
G04 #@! TO.N,PIN83*
X105622000Y883000D03*
G04 #@! TO.P,P1,84,84*
G04 #@! TO.N,PIN84*
X103082000Y883000D03*
G04 #@! TO.P,P1,85,85*
G04 #@! TO.N,PIN85*
X100542000Y883000D03*
G04 #@! TO.P,P1,86,86*
G04 #@! TO.N,PIN86*
X98002000Y883000D03*
G04 #@! TO.P,P1,87,87*
G04 #@! TO.N,PIN87*
X95462000Y883000D03*
G04 #@! TO.P,P1,88,88*
G04 #@! TO.N,PIN88*
X92922000Y883000D03*
G04 #@! TO.P,P1,89,89*
G04 #@! TO.N,PIN89*
X90382000Y883000D03*
G04 #@! TO.P,P1,90,90*
G04 #@! TO.N,PIN90*
X108162000Y-1657000D03*
G04 #@! TO.P,P1,91,91*
G04 #@! TO.N,PIN91*
X105622000Y-1657000D03*
G04 #@! TO.P,P1,92,92*
G04 #@! TO.N,PIN92*
X103082000Y-1657000D03*
G04 #@! TO.P,P1,93,93*
G04 #@! TO.N,PIN93*
X100542000Y-1657000D03*
G04 #@! TO.P,P1,94,94*
G04 #@! TO.N,PIN94*
X98002000Y-1657000D03*
G04 #@! TO.P,P1,95,95*
G04 #@! TO.N,PIN95*
X95462000Y-1657000D03*
G04 #@! TO.P,P1,96,96*
G04 #@! TO.N,PIN96*
X92922000Y-1657000D03*
G04 #@! TO.P,P1,97,97*
G04 #@! TO.N,PIN97*
X90382000Y-1657000D03*
G04 #@! TO.P,P1,98,98*
G04 #@! TO.N,PIN113*
X108162000Y-7707000D03*
G04 #@! TO.P,P1,99,99*
X105622000Y-7707000D03*
G04 #@! TO.P,P1,100,100*
G04 #@! TO.N,PIN100*
X103082000Y-7707000D03*
G04 #@! TO.P,P1,101,101*
G04 #@! TO.N,PIN101*
X100542000Y-7707000D03*
G04 #@! TO.P,P1,102,102*
G04 #@! TO.N,PIN102*
X98002000Y-7707000D03*
G04 #@! TO.P,P1,103,103*
G04 #@! TO.N,PIN103*
X95462000Y-7707000D03*
G04 #@! TO.P,P1,104,104*
G04 #@! TO.N,PIN104*
X92922000Y-7707000D03*
G04 #@! TO.P,P1,105,105*
G04 #@! TO.N,PIN105*
X90382000Y-7707000D03*
G04 #@! TO.P,P1,106,106*
G04 #@! TO.N,PIN106*
X108162000Y-10247000D03*
G04 #@! TO.P,P1,107,107*
X105622000Y-10247000D03*
G04 #@! TO.P,P1,108,108*
G04 #@! TO.N,PIN108*
X103082000Y-10247000D03*
G04 #@! TO.P,P1,109,109*
G04 #@! TO.N,PIN109*
X100542000Y-10247000D03*
G04 #@! TO.P,P1,110,110*
G04 #@! TO.N,PIN110*
X98002000Y-10247000D03*
G04 #@! TO.P,P1,111,111*
G04 #@! TO.N,PIN111*
X95462000Y-10247000D03*
G04 #@! TO.P,P1,112,112*
G04 #@! TO.N,PIN112*
X92922000Y-10247000D03*
G04 #@! TO.P,P1,113,113*
G04 #@! TO.N,PIN113*
X90382000Y-10247000D03*
D50*
G04 #@! TO.P,P1,114,114*
G04 #@! TO.N,PIN114*
X82552000Y-2117000D03*
G04 #@! TO.P,P1,115,115*
X76752000Y-2117000D03*
G04 #@! TO.P,P1,116,116*
G04 #@! TO.N,PIN116*
X70852000Y-2117000D03*
G04 #@! TO.P,P1,117,117*
G04 #@! TO.N,PIN117*
X79652000Y-4447000D03*
G04 #@! TO.P,P1,118,118*
G04 #@! TO.N,PIN118*
X73752000Y-4447000D03*
G04 #@! TO.P,P1,119,119*
G04 #@! TO.N,PIN119*
X82552000Y-10247000D03*
G04 #@! TO.P,P1,120,120*
G04 #@! TO.N,PIN120*
X76752000Y-10247000D03*
G04 #@! TO.P,P1,121,121*
G04 #@! TO.N,PIN121*
X70852000Y-10247000D03*
G04 #@! TD*
D11*
G04 #@! TO.P,M6,E1,V5A_SWITCHABLE*
G04 #@! TO.N,+5VA*
X101675005Y-68924995D03*
G04 #@! TO.P,M6,E2,GNDA*
G04 #@! TO.N,unconnected-(M6-GNDA-PadE2)*
X101674995Y-73224995D03*
G04 #@! TO.P,M6,E3,I2C_SCL_(PB10)*
G04 #@! TO.N,unconnected-(M6-I2C_SCL_(PB10)-PadE3)*
X101674995Y-74024985D03*
G04 #@! TO.P,M6,E4,I2C_SDA_(PB11)*
G04 #@! TO.N,unconnected-(M6-I2C_SDA_(PB11)-PadE4)*
X101674995Y-74824995D03*
G04 #@! TO.P,M6,E5,IN_VIGN_(PA5)*
G04 #@! TO.N,/VIGN*
X101674995Y-75624995D03*
G04 #@! TO.P,M6,E6,SPI2_CS_/_CAN2_RX_(PB12)*
G04 #@! TO.N,E6INJ7CANRX*
X101674995Y-76424995D03*
G04 #@! TO.P,M6,E7,SPI2_SCK_/_CAN2_TX_(PB13)*
G04 #@! TO.N,E7INJ8CANTX*
X101674995Y-77224995D03*
G04 #@! TO.P,M6,E8,SPI2_MISO_(PB14)*
G04 #@! TO.N,DC1_DIS_W1*
X101674995Y-78024995D03*
G04 #@! TO.P,M6,E9,SPI2_MOSI_(PB15)*
G04 #@! TO.N,/DC2_DIR*
X101674995Y-78824995D03*
G04 #@! TO.P,M6,E10,OUT_INJ8_(PD12)*
G04 #@! TO.N,/LS2*
X101674995Y-79624995D03*
G04 #@! TO.P,M6,E11,OUT_INJ7_(PD15)*
G04 #@! TO.N,/LS1*
X101674995Y-80424995D03*
G04 #@! TO.P,M6,E12,OUT_INJ6_(PA8)*
G04 #@! TO.N,/INJ6*
X101674995Y-81224995D03*
G04 #@! TO.P,M6,E13,OUT_INJ5_(PD2)*
G04 #@! TO.N,/INJ5*
X101674995Y-82024995D03*
G04 #@! TO.P,M6,E14,OUT_INJ4_(PD10)*
G04 #@! TO.N,/INJ4*
X101674995Y-82824995D03*
G04 #@! TO.P,M6,E15,OUT_INJ3_(PD11)*
G04 #@! TO.N,/INJ3*
X101674995Y-83624995D03*
G04 #@! TO.P,M6,E16,OUT_INJ2_(PA9)*
G04 #@! TO.N,/INJ2*
X101675005Y-84424985D03*
G04 #@! TO.P,M6,E17,OUT_INJ1_(PD3)*
G04 #@! TO.N,/INJ1*
X101674995Y-85224995D03*
G04 #@! TO.P,M6,E18,OUT_PWM1_(PD13)*
G04 #@! TO.N,/LS3*
X101674995Y-86624995D03*
G04 #@! TO.P,M6,E19,OUT_PWM2_(PC6)*
G04 #@! TO.N,/LS4*
X101674995Y-87424985D03*
G04 #@! TO.P,M6,E20,OUT_PWM3_(PC7)*
G04 #@! TO.N,/DC1_PWM*
X101674995Y-88224985D03*
G04 #@! TO.P,M6,E21,OUT_PWM4_(PC8)*
G04 #@! TO.N,/DC1_DIR*
X101674995Y-89024985D03*
G04 #@! TO.P,M6,E22,OUT_PWM5_(PC9)*
G04 #@! TO.N,/DC2_PWM*
X101674995Y-89824985D03*
G04 #@! TO.P,M6,E23,OUT_PWM6_(PD14)*
G04 #@! TO.N,/VR_DISCRETE_THR*
X101674995Y-90624995D03*
D51*
G04 #@! TO.P,M6,G,GND*
G04 #@! TO.N,PIN114*
X135275005Y-95474985D03*
D52*
X135275005Y-92424995D03*
D51*
X135275005Y-89374985D03*
D53*
X135275005Y-84924995D03*
D54*
X135275005Y-71274995D03*
D55*
X135275005Y-63274995D03*
D56*
X133474995Y-62224985D03*
D57*
X131375005Y-98024985D03*
D58*
X125325005Y-98024985D03*
D59*
X121825005Y-98024985D03*
D56*
X112075005Y-98024985D03*
D57*
X104575005Y-62224985D03*
D60*
X101474995Y-94625005D03*
D52*
X101474995Y-85924985D03*
D61*
X101474995Y-71074985D03*
D62*
X101474995Y-65274985D03*
D11*
G04 #@! TO.P,M6,N1,VBUS*
G04 #@! TO.N,/VBUS*
X102074995Y-97824995D03*
G04 #@! TO.P,M6,N2,USBM_(PA11)*
G04 #@! TO.N,/USB-*
X102874995Y-97824995D03*
G04 #@! TO.P,M6,N3,USBP_(PA12)*
G04 #@! TO.N,/USB+*
X103674995Y-97824995D03*
G04 #@! TO.P,M6,N4,USBID_(PA10)*
G04 #@! TO.N,/DC2_DIS*
X104475005Y-97824995D03*
G04 #@! TO.P,M6,N5,SWDIO_(PA13)*
G04 #@! TO.N,unconnected-(M6-SWDIO_(PA13)-PadN5)*
X105274995Y-97824995D03*
G04 #@! TO.P,M6,N6,SWCLK_(PA14)*
G04 #@! TO.N,unconnected-(M6-SWCLK_(PA14)-PadN6)*
X106074995Y-97824995D03*
G04 #@! TO.P,M6,N7,nReset*
G04 #@! TO.N,unconnected-(M6-nReset-PadN7)*
X106874995Y-97824995D03*
G04 #@! TO.P,M6,N8,SWO_(PB3)*
G04 #@! TO.N,unconnected-(M6-SWO_(PB3)-PadN8)*
X107675005Y-97824995D03*
G04 #@! TO.P,M6,N9,SPI3_CS_(PA15)*
G04 #@! TO.N,/EGT/SPI_CS*
X108474995Y-97824985D03*
G04 #@! TO.P,M6,N10,SPI3_SCK_(PC10)*
G04 #@! TO.N,/SCK3*
X109274995Y-97824985D03*
G04 #@! TO.P,M6,N11,SPI3_MISO_(PC11)*
G04 #@! TO.N,/MISO3*
X110074995Y-97824985D03*
G04 #@! TO.P,M6,N12,SPI3_MOSI_(PC12)*
G04 #@! TO.N,/PG_5VP*
X110874995Y-97824985D03*
G04 #@! TO.P,M6,N13,UART2_TX_(PD5)*
G04 #@! TO.N,PIN7*
X113275005Y-97824985D03*
G04 #@! TO.P,M6,N14,UART2_RX_(PD6)*
G04 #@! TO.N,PIN6*
X114075005Y-97824985D03*
G04 #@! TO.P,M6,N14a,LED_GREEN*
G04 #@! TO.N,Net-(M6-LED_GREEN)*
X114874995Y-97824995D03*
G04 #@! TO.P,M6,N14b,LED_YELLOW*
G04 #@! TO.N,unconnected-(M6-LED_YELLOW-PadN14b)*
X115675005Y-97824995D03*
G04 #@! TO.P,M6,N15,V33_SWITCHABLE*
G04 #@! TO.N,+3.3VA*
X116475005Y-97824995D03*
G04 #@! TO.P,M6,N16,BOOT0*
G04 #@! TO.N,unconnected-(M6-BOOT0-PadN16)*
X117275005Y-97824995D03*
G04 #@! TO.P,M6,N17,VBAT*
G04 #@! TO.N,/VBAT*
X118075005Y-97824995D03*
G04 #@! TO.P,M6,N18,UART8_RX_(PE0)*
G04 #@! TO.N,/VR_DISCRETE*
X118875005Y-97824985D03*
G04 #@! TO.P,M6,N19,UART8_TX_(PE1)*
G04 #@! TO.N,/VR_MAX9924*
X119675005Y-97824985D03*
G04 #@! TO.P,M6,N20,OUT_PWR_EN_(PE10)*
G04 #@! TO.N,/PWR_EN*
X123975005Y-97824985D03*
G04 #@! TO.P,M6,N21,V33*
G04 #@! TO.N,+3.3V*
X126675005Y-97824985D03*
G04 #@! TO.P,M6,N22,VCC*
G04 #@! TO.N,+5V*
X127674995Y-97824985D03*
G04 #@! TO.P,M6,N23,V33*
G04 #@! TO.N,unconnected-(M6-V33-PadN23)*
X135075005Y-97824985D03*
G04 #@! TO.P,M6,S1,IN_D4_(PE15)*
G04 #@! TO.N,PIN89*
X108274985Y-62424985D03*
G04 #@! TO.P,M6,S2,IN_D3_(PE14)*
G04 #@! TO.N,PIN34*
X109474995Y-62424985D03*
G04 #@! TO.P,M6,S3,IN_D2_(PE13)*
G04 #@! TO.N,PIN35*
X110674995Y-62424985D03*
G04 #@! TO.P,M6,S4,IN_D1_(PE12)*
G04 #@! TO.N,PIN36*
X111874995Y-62424985D03*
G04 #@! TO.P,M6,S5,VREF2*
G04 #@! TO.N,unconnected-(M6-VREF2-PadS5)*
X113074995Y-62424985D03*
G04 #@! TO.P,M6,S6,IN_AUX4_(PC5)*
G04 #@! TO.N,/IN_VMAIN*
X114274995Y-62424985D03*
G04 #@! TO.P,M6,S7,IN_AUX3_(PA7)*
G04 #@! TO.N,/IN_AUX3*
X115474995Y-62424985D03*
G04 #@! TO.P,M6,S8,IN_AUX2_(PC4/PE9)*
G04 #@! TO.N,PIN91*
X116674995Y-62424985D03*
G04 #@! TO.P,M6,S9,IN_AUX1_(PB0)*
G04 #@! TO.N,PIN39*
X117874995Y-62424985D03*
G04 #@! TO.P,M6,S10,IN_O2S2_(PA1)*
G04 #@! TO.N,PIN41*
X119074995Y-62424985D03*
G04 #@! TO.P,M6,S11,IN_O2S_/_CAN_WAKEUP_(PA0)*
G04 #@! TO.N,PIN40*
X120274995Y-62424985D03*
G04 #@! TO.P,M6,S12,IN_MAP2_(PC1)*
G04 #@! TO.N,/INTERNAL_MAP*
X121474995Y-62424985D03*
G04 #@! TO.P,M6,S13,IN_MAP1_(PC0)*
G04 #@! TO.N,PIN37*
X122674995Y-62424985D03*
G04 #@! TO.P,M6,S14,IN_CRANK_(PB1)*
G04 #@! TO.N,PIN84*
X123874995Y-62424985D03*
G04 #@! TO.P,M6,S15,IN_KNOCK_(PA2)*
G04 #@! TO.N,/ADC3*
X125074995Y-62424985D03*
G04 #@! TO.P,M6,S16,IN_CAM_(PA6)*
G04 #@! TO.N,PIN85*
X126274995Y-62424985D03*
G04 #@! TO.P,M6,S17,IN_VSS_(PE11)*
G04 #@! TO.N,PIN42*
X127474995Y-62424985D03*
G04 #@! TO.P,M6,S18,IN_TPS_(PA4)*
G04 #@! TO.N,PIN38*
X128675005Y-62424985D03*
G04 #@! TO.P,M6,S19,IN_PPS_(PA3)*
G04 #@! TO.N,PIN90*
X129875005Y-62424985D03*
G04 #@! TO.P,M6,S20,IN_IAT_(PC3)*
G04 #@! TO.N,PIN63*
X131075005Y-62424985D03*
G04 #@! TO.P,M6,S21,IN_CLT_(PC2)*
G04 #@! TO.N,PIN65*
X132275005Y-62424985D03*
G04 #@! TO.P,M6,S22,VREF1*
G04 #@! TO.N,/VREF1*
X134675005Y-62424985D03*
G04 #@! TO.P,M6,W1,GNDA*
G04 #@! TO.N,PIN113*
X135075005Y-64924995D03*
G04 #@! TO.P,M6,W2,V5A_SWITCHABLE*
G04 #@! TO.N,+5VA*
X135075005Y-65924995D03*
G04 #@! TO.P,M6,W3,IGN8_(PE6)*
G04 #@! TO.N,/LS_HOT2*
X135075005Y-76624985D03*
G04 #@! TO.P,M6,W4,IGN7_(PB9)*
G04 #@! TO.N,/LS_HOT1*
X135075005Y-77624995D03*
G04 #@! TO.P,M6,W5,IGN6_(PB8)*
G04 #@! TO.N,/IGN6*
X135075005Y-78624985D03*
G04 #@! TO.P,M6,W6,IGN5_(PE2)*
G04 #@! TO.N,/IGN5*
X135075005Y-79624985D03*
G04 #@! TO.P,M6,W7,IGN4_(PE3)*
G04 #@! TO.N,/IGN4*
X135075005Y-80624985D03*
G04 #@! TO.P,M6,W8,IGN3_(PE4)*
G04 #@! TO.N,/IGN3*
X135075005Y-81624985D03*
G04 #@! TO.P,M6,W9,IGN2_(PE5)*
G04 #@! TO.N,/IGN2*
X135075005Y-82624985D03*
G04 #@! TO.P,M6,W10,IGN1_(PC13)*
G04 #@! TO.N,/IGN1*
X135075005Y-83624985D03*
G04 #@! TO.P,M6,W11,CANH*
G04 #@! TO.N,PIN82*
X135075005Y-86224985D03*
G04 #@! TO.P,M6,W12,CANL*
G04 #@! TO.N,PIN83*
X135075005Y-87024985D03*
G04 #@! TO.P,M6,W13,V33_REF*
G04 #@! TO.N,unconnected-(M6-V33_REF-PadW13)*
X135075005Y-91724995D03*
G04 #@! TO.P,M6,W14,V5A_SWITCHABLE*
G04 #@! TO.N,unconnected-(M6-V5A_SWITCHABLE-PadW14)*
X135075005Y-93124985D03*
G04 #@! TD*
D63*
G04 #@! TO.N,PIN113*
X206700000Y-22375000D03*
X206700000Y-12975000D03*
X206700000Y-77350000D03*
X206700000Y-63775000D03*
X206700000Y-88225000D03*
X94900000Y-106575000D03*
X206550000Y-6150000D03*
X105425000Y-106625000D03*
X48400000Y-23850000D03*
X206700000Y-32400000D03*
X48400000Y-33875000D03*
X182475000Y-106600000D03*
X138350000Y-106600000D03*
X160425000Y-106600000D03*
X61275000Y-106625000D03*
X48400000Y-78825000D03*
X48400000Y-44400000D03*
X48400000Y-6475000D03*
X48400000Y-89700000D03*
X48400000Y-54300000D03*
X193350000Y-106600000D03*
X148625000Y-106600000D03*
X206700000Y-42925000D03*
X48400000Y-14450000D03*
X127475000Y-106625000D03*
X72825000Y-106575000D03*
X116850000Y-106625000D03*
X206700000Y-52825000D03*
X171850000Y-106600000D03*
X48400000Y-65250000D03*
G04 #@! TD*
G04 #@! TA.AperFunction,Conductor*
G04 #@! TO.N,PIN113*
G36*
X51441212Y-4486002D02*
G01*
X51487705Y-4539658D01*
X51499091Y-4592144D01*
X51399999Y-90999999D01*
X51400000Y-90999999D01*
X51400000Y-91000000D01*
X52383340Y-91098334D01*
X52415651Y-91105962D01*
X56578998Y-92691999D01*
X56616939Y-92714767D01*
X60485879Y-96087690D01*
X60509926Y-96115882D01*
X60864173Y-96682677D01*
X62487489Y-99279983D01*
X62504416Y-99323187D01*
X63300000Y-103500000D01*
X191099999Y-103500000D01*
X191100000Y-103500000D01*
X191796617Y-99718363D01*
X191808563Y-99683407D01*
X193386944Y-96625295D01*
X193422664Y-96582774D01*
X198376274Y-92818031D01*
X198429287Y-92794508D01*
X203200000Y-91900000D01*
X203226549Y-45119149D01*
X203249551Y-4591928D01*
X203269592Y-4523819D01*
X203323274Y-4477357D01*
X203375551Y-4466000D01*
X207754480Y-4466000D01*
X207822601Y-4486002D01*
X207843575Y-4502905D01*
X209072095Y-5731424D01*
X209106120Y-5793736D01*
X209109000Y-5820519D01*
X209109000Y-68458000D01*
X209088998Y-68526121D01*
X209035342Y-68572614D01*
X208983000Y-68584000D01*
X207000025Y-68584000D01*
X206873295Y-68583983D01*
X206622656Y-68621729D01*
X206622641Y-68621733D01*
X206380436Y-68696414D01*
X206152060Y-68806368D01*
X205942623Y-68949135D01*
X205756807Y-69121521D01*
X205756806Y-69121523D01*
X205598763Y-69319679D01*
X205598755Y-69319690D01*
X205472017Y-69539185D01*
X205379406Y-69775133D01*
X205323002Y-70022232D01*
X205323001Y-70022238D01*
X205323001Y-70022241D01*
X205304058Y-70275000D01*
X205322999Y-70527737D01*
X205323002Y-70527767D01*
X205379406Y-70774866D01*
X205472017Y-71010814D01*
X205598755Y-71230309D01*
X205598763Y-71230320D01*
X205756806Y-71428476D01*
X205756807Y-71428478D01*
X205847994Y-71513074D01*
X205942623Y-71600865D01*
X206152060Y-71743631D01*
X206380436Y-71853585D01*
X206380435Y-71853585D01*
X206622505Y-71928224D01*
X206622651Y-71928269D01*
X206622653Y-71928269D01*
X206622656Y-71928270D01*
X206711244Y-71941611D01*
X206873292Y-71966016D01*
X206873294Y-71966015D01*
X206873295Y-71966016D01*
X207000025Y-71966000D01*
X208983000Y-71966000D01*
X209051121Y-71986002D01*
X209097614Y-72039658D01*
X209109000Y-72092000D01*
X209109000Y-95219481D01*
X209088998Y-95287602D01*
X209072095Y-95308576D01*
X207843576Y-96537095D01*
X207781264Y-96571121D01*
X207754481Y-96574000D01*
X205151150Y-96574000D01*
X204574614Y-96610273D01*
X204574613Y-96610273D01*
X204001506Y-96682674D01*
X204001493Y-96682676D01*
X203434045Y-96790923D01*
X203434037Y-96790924D01*
X202874534Y-96934581D01*
X202874510Y-96934588D01*
X202325119Y-97113097D01*
X201788011Y-97325753D01*
X201787993Y-97325761D01*
X201265321Y-97571713D01*
X201265314Y-97571717D01*
X200759091Y-97850015D01*
X200759088Y-97850016D01*
X200759075Y-97850024D01*
X200271344Y-98159548D01*
X200271332Y-98159556D01*
X199804002Y-98499091D01*
X199803995Y-98499096D01*
X199358898Y-98867311D01*
X199358874Y-98867333D01*
X198937772Y-99262772D01*
X198542333Y-99683874D01*
X198542311Y-99683898D01*
X198174096Y-100128995D01*
X198174091Y-100129002D01*
X197834556Y-100596332D01*
X197834548Y-100596344D01*
X197525024Y-101084075D01*
X197525016Y-101084088D01*
X197525015Y-101084091D01*
X197373058Y-101360500D01*
X197246713Y-101590321D01*
X197000761Y-102112993D01*
X197000753Y-102113011D01*
X196788097Y-102650119D01*
X196609588Y-103199510D01*
X196609581Y-103199534D01*
X196465924Y-103759037D01*
X196465923Y-103759045D01*
X196357676Y-104326493D01*
X196357674Y-104326506D01*
X196285273Y-104899613D01*
X196285273Y-104899614D01*
X196249000Y-105476149D01*
X196249000Y-108079481D01*
X196228998Y-108147602D01*
X196212095Y-108168576D01*
X194983576Y-109397095D01*
X194921264Y-109431121D01*
X194894481Y-109434000D01*
X59705518Y-109434000D01*
X59637397Y-109413998D01*
X59616423Y-109397095D01*
X58387905Y-108168577D01*
X58353879Y-108106265D01*
X58351000Y-108079482D01*
X58351000Y-105716859D01*
X58350999Y-105716845D01*
X58350999Y-105476151D01*
X58350998Y-105476150D01*
X58350998Y-105476149D01*
X58314726Y-104899625D01*
X58314724Y-104899613D01*
X58278794Y-104615195D01*
X58242324Y-104326502D01*
X58134078Y-103759057D01*
X58134074Y-103759044D01*
X58134074Y-103759038D01*
X57990417Y-103199535D01*
X57990410Y-103199511D01*
X57903958Y-102933440D01*
X57811903Y-102650124D01*
X57599246Y-102113013D01*
X57353283Y-101590315D01*
X57074985Y-101084092D01*
X56765450Y-100596343D01*
X56425899Y-100128992D01*
X56086198Y-99718363D01*
X56057671Y-99683879D01*
X55662226Y-99262773D01*
X55241124Y-98867334D01*
X55241123Y-98867333D01*
X55241117Y-98867327D01*
X55241110Y-98867321D01*
X55241100Y-98867312D01*
X54796004Y-98499097D01*
X54795997Y-98499092D01*
X54328667Y-98159557D01*
X54328655Y-98159549D01*
X53840924Y-97850025D01*
X53840917Y-97850021D01*
X53840909Y-97850016D01*
X53334686Y-97571718D01*
X53334680Y-97571715D01*
X53334678Y-97571714D01*
X52812006Y-97325762D01*
X52811988Y-97325754D01*
X52274880Y-97113098D01*
X51725489Y-96934589D01*
X51725465Y-96934582D01*
X51165962Y-96790925D01*
X51165954Y-96790924D01*
X51165938Y-96790921D01*
X51043372Y-96767540D01*
X50598506Y-96682677D01*
X50598493Y-96682675D01*
X50025385Y-96610274D01*
X49448850Y-96574001D01*
X49448839Y-96574001D01*
X49197992Y-96574001D01*
X46845518Y-96574001D01*
X46777397Y-96553999D01*
X46756423Y-96537096D01*
X45527905Y-95308578D01*
X45493879Y-95246266D01*
X45491000Y-95219483D01*
X45491000Y-72092001D01*
X45511002Y-72023880D01*
X45564658Y-71977387D01*
X45617000Y-71966001D01*
X47650004Y-71966001D01*
X47650024Y-71965999D01*
X47726719Y-71965999D01*
X47726723Y-71965999D01*
X47977338Y-71928225D01*
X48219317Y-71853585D01*
X48219515Y-71853524D01*
X48219517Y-71853522D01*
X48219524Y-71853521D01*
X48447871Y-71743555D01*
X48657277Y-71600784D01*
X48843066Y-71428397D01*
X49001087Y-71230245D01*
X49064448Y-71120499D01*
X49127808Y-71010758D01*
X49127810Y-71010754D01*
X49220404Y-70774828D01*
X49276801Y-70527737D01*
X49295741Y-70275000D01*
X49276801Y-70022263D01*
X49220404Y-69775172D01*
X49127810Y-69539246D01*
X49127809Y-69539245D01*
X49127808Y-69539241D01*
X49001089Y-69319758D01*
X49001035Y-69319690D01*
X48843066Y-69121603D01*
X48657277Y-68949216D01*
X48657158Y-68949135D01*
X48560439Y-68883193D01*
X48447873Y-68806446D01*
X48219528Y-68696480D01*
X48219515Y-68696475D01*
X47977348Y-68621777D01*
X47977340Y-68621775D01*
X47977338Y-68621775D01*
X47726723Y-68584001D01*
X47726719Y-68584001D01*
X45617000Y-68584001D01*
X45548879Y-68563999D01*
X45502386Y-68510343D01*
X45491000Y-68458001D01*
X45491000Y-5820519D01*
X45511002Y-5752398D01*
X45527905Y-5731424D01*
X46756424Y-4502905D01*
X46818736Y-4468879D01*
X46845519Y-4466000D01*
X51373091Y-4466000D01*
X51441212Y-4486002D01*
G37*
G04 #@! TD.AperFunction*
G04 #@! TD*
M02*
