G04 #@! TF.GenerationSoftware,KiCad,Pcbnew,8.0.8*
G04 #@! TF.CreationDate,2025-12-17T12:00:00-05:00*
G04 #@! TF.ProjectId,hellen121vag,68656c6c-656e-4313-9231-7661672e6b69,d*
G04 #@! TF.SameCoordinates,PX2b953a0PY6943058*
G04 #@! TF.FileFunction,Legend,Top*
G04 #@! TF.FilePolarity,Positive*
%FSLAX46Y46*%
G04 Gerber Fmt 4.6, Leading zero omitted, Abs format (unit mm)*
G04 Created by KiCad (PCBNEW 8.0.8) date 2025-12-17 12:00:00*
%MOMM*%
%LPD*%
G01*
G04 APERTURE LIST*
%ADD10C,0.100000*%
%ADD11C,0.150000*%
%ADD12C,0.300000*%
%ADD13C,0.400000*%
%ADD14C,0.170000*%
%ADD15C,0.127000*%
%ADD16C,0.200000*%
%ADD17C,0.120000*%
%ADD18C,0.099060*%
%ADD19C,0.203200*%
%ADD20C,3.700000*%
%ADD21C,2.200000*%
%ADD22C,2.600000*%
%ADD23C,1.500000*%
G04 APERTURE END LIST*
D10*
D11*
X266100000Y-225025000D02*
X374100000Y-225025000D01*
X374100000Y-257025000D01*
X266100000Y-257025000D01*
X266100000Y-225025000D01*
D10*
D11*
X-35700000Y100375000D02*
X376100000Y100375000D01*
X376100000Y-259025000D01*
X-35700000Y-259025000D01*
X-35700000Y100375000D01*
D10*
D11*
X-33700000Y98375000D02*
X374100000Y98375000D01*
X374100000Y-257025000D01*
X-33700000Y-257025000D01*
X-33700000Y98375000D01*
D10*
D11*
X14300000Y98375000D02*
X14300000Y100375000D01*
D10*
D11*
X64300000Y98375000D02*
X64300000Y100375000D01*
D10*
D11*
X114300000Y98375000D02*
X114300000Y100375000D01*
D10*
D11*
X164300000Y98375000D02*
X164300000Y100375000D01*
D10*
D11*
X214300000Y98375000D02*
X214300000Y100375000D01*
D10*
D11*
X264300000Y98375000D02*
X264300000Y100375000D01*
D10*
D11*
X314300000Y98375000D02*
X314300000Y100375000D01*
D10*
D11*
X364300000Y98375000D02*
X364300000Y100375000D01*
D10*
D11*
X-9610840Y98781396D02*
X-10353697Y98781396D01*
X-9982269Y98781396D02*
X-9982269Y100081396D01*
X-9982269Y100081396D02*
X-10106078Y99895681D01*
X-10106078Y99895681D02*
X-10229888Y99771872D01*
X-10229888Y99771872D02*
X-10353697Y99709967D01*
D10*
D11*
X39646303Y99957586D02*
X39708207Y100019491D01*
X39708207Y100019491D02*
X39832017Y100081396D01*
X39832017Y100081396D02*
X40141541Y100081396D01*
X40141541Y100081396D02*
X40265350Y100019491D01*
X40265350Y100019491D02*
X40327255Y99957586D01*
X40327255Y99957586D02*
X40389160Y99833777D01*
X40389160Y99833777D02*
X40389160Y99709967D01*
X40389160Y99709967D02*
X40327255Y99524253D01*
X40327255Y99524253D02*
X39584398Y98781396D01*
X39584398Y98781396D02*
X40389160Y98781396D01*
D10*
D11*
X89584398Y100081396D02*
X90389160Y100081396D01*
X90389160Y100081396D02*
X89955826Y99586158D01*
X89955826Y99586158D02*
X90141541Y99586158D01*
X90141541Y99586158D02*
X90265350Y99524253D01*
X90265350Y99524253D02*
X90327255Y99462348D01*
X90327255Y99462348D02*
X90389160Y99338539D01*
X90389160Y99338539D02*
X90389160Y99029015D01*
X90389160Y99029015D02*
X90327255Y98905205D01*
X90327255Y98905205D02*
X90265350Y98843300D01*
X90265350Y98843300D02*
X90141541Y98781396D01*
X90141541Y98781396D02*
X89770112Y98781396D01*
X89770112Y98781396D02*
X89646303Y98843300D01*
X89646303Y98843300D02*
X89584398Y98905205D01*
D10*
D11*
X140265350Y99648062D02*
X140265350Y98781396D01*
X139955826Y100143300D02*
X139646303Y99214729D01*
X139646303Y99214729D02*
X140451064Y99214729D01*
D10*
D11*
X190327255Y100081396D02*
X189708207Y100081396D01*
X189708207Y100081396D02*
X189646303Y99462348D01*
X189646303Y99462348D02*
X189708207Y99524253D01*
X189708207Y99524253D02*
X189832017Y99586158D01*
X189832017Y99586158D02*
X190141541Y99586158D01*
X190141541Y99586158D02*
X190265350Y99524253D01*
X190265350Y99524253D02*
X190327255Y99462348D01*
X190327255Y99462348D02*
X190389160Y99338539D01*
X190389160Y99338539D02*
X190389160Y99029015D01*
X190389160Y99029015D02*
X190327255Y98905205D01*
X190327255Y98905205D02*
X190265350Y98843300D01*
X190265350Y98843300D02*
X190141541Y98781396D01*
X190141541Y98781396D02*
X189832017Y98781396D01*
X189832017Y98781396D02*
X189708207Y98843300D01*
X189708207Y98843300D02*
X189646303Y98905205D01*
D10*
D11*
X240265350Y100081396D02*
X240017731Y100081396D01*
X240017731Y100081396D02*
X239893922Y100019491D01*
X239893922Y100019491D02*
X239832017Y99957586D01*
X239832017Y99957586D02*
X239708207Y99771872D01*
X239708207Y99771872D02*
X239646303Y99524253D01*
X239646303Y99524253D02*
X239646303Y99029015D01*
X239646303Y99029015D02*
X239708207Y98905205D01*
X239708207Y98905205D02*
X239770112Y98843300D01*
X239770112Y98843300D02*
X239893922Y98781396D01*
X239893922Y98781396D02*
X240141541Y98781396D01*
X240141541Y98781396D02*
X240265350Y98843300D01*
X240265350Y98843300D02*
X240327255Y98905205D01*
X240327255Y98905205D02*
X240389160Y99029015D01*
X240389160Y99029015D02*
X240389160Y99338539D01*
X240389160Y99338539D02*
X240327255Y99462348D01*
X240327255Y99462348D02*
X240265350Y99524253D01*
X240265350Y99524253D02*
X240141541Y99586158D01*
X240141541Y99586158D02*
X239893922Y99586158D01*
X239893922Y99586158D02*
X239770112Y99524253D01*
X239770112Y99524253D02*
X239708207Y99462348D01*
X239708207Y99462348D02*
X239646303Y99338539D01*
D10*
D11*
X289584398Y100081396D02*
X290451064Y100081396D01*
X290451064Y100081396D02*
X289893922Y98781396D01*
D10*
D11*
X339893922Y99524253D02*
X339770112Y99586158D01*
X339770112Y99586158D02*
X339708207Y99648062D01*
X339708207Y99648062D02*
X339646303Y99771872D01*
X339646303Y99771872D02*
X339646303Y99833777D01*
X339646303Y99833777D02*
X339708207Y99957586D01*
X339708207Y99957586D02*
X339770112Y100019491D01*
X339770112Y100019491D02*
X339893922Y100081396D01*
X339893922Y100081396D02*
X340141541Y100081396D01*
X340141541Y100081396D02*
X340265350Y100019491D01*
X340265350Y100019491D02*
X340327255Y99957586D01*
X340327255Y99957586D02*
X340389160Y99833777D01*
X340389160Y99833777D02*
X340389160Y99771872D01*
X340389160Y99771872D02*
X340327255Y99648062D01*
X340327255Y99648062D02*
X340265350Y99586158D01*
X340265350Y99586158D02*
X340141541Y99524253D01*
X340141541Y99524253D02*
X339893922Y99524253D01*
X339893922Y99524253D02*
X339770112Y99462348D01*
X339770112Y99462348D02*
X339708207Y99400443D01*
X339708207Y99400443D02*
X339646303Y99276634D01*
X339646303Y99276634D02*
X339646303Y99029015D01*
X339646303Y99029015D02*
X339708207Y98905205D01*
X339708207Y98905205D02*
X339770112Y98843300D01*
X339770112Y98843300D02*
X339893922Y98781396D01*
X339893922Y98781396D02*
X340141541Y98781396D01*
X340141541Y98781396D02*
X340265350Y98843300D01*
X340265350Y98843300D02*
X340327255Y98905205D01*
X340327255Y98905205D02*
X340389160Y99029015D01*
X340389160Y99029015D02*
X340389160Y99276634D01*
X340389160Y99276634D02*
X340327255Y99400443D01*
X340327255Y99400443D02*
X340265350Y99462348D01*
X340265350Y99462348D02*
X340141541Y99524253D01*
D10*
D11*
X14300000Y-257025000D02*
X14300000Y-259025000D01*
D10*
D11*
X64300000Y-257025000D02*
X64300000Y-259025000D01*
D10*
D11*
X114300000Y-257025000D02*
X114300000Y-259025000D01*
D10*
D11*
X164300000Y-257025000D02*
X164300000Y-259025000D01*
D10*
D11*
X214300000Y-257025000D02*
X214300000Y-259025000D01*
D10*
D11*
X264300000Y-257025000D02*
X264300000Y-259025000D01*
D10*
D11*
X314300000Y-257025000D02*
X314300000Y-259025000D01*
D10*
D11*
X364300000Y-257025000D02*
X364300000Y-259025000D01*
D10*
D11*
X-9610840Y-258618604D02*
X-10353697Y-258618604D01*
X-9982269Y-258618604D02*
X-9982269Y-257318604D01*
X-9982269Y-257318604D02*
X-10106078Y-257504319D01*
X-10106078Y-257504319D02*
X-10229888Y-257628128D01*
X-10229888Y-257628128D02*
X-10353697Y-257690033D01*
D10*
D11*
X39646303Y-257442414D02*
X39708207Y-257380509D01*
X39708207Y-257380509D02*
X39832017Y-257318604D01*
X39832017Y-257318604D02*
X40141541Y-257318604D01*
X40141541Y-257318604D02*
X40265350Y-257380509D01*
X40265350Y-257380509D02*
X40327255Y-257442414D01*
X40327255Y-257442414D02*
X40389160Y-257566223D01*
X40389160Y-257566223D02*
X40389160Y-257690033D01*
X40389160Y-257690033D02*
X40327255Y-257875747D01*
X40327255Y-257875747D02*
X39584398Y-258618604D01*
X39584398Y-258618604D02*
X40389160Y-258618604D01*
D10*
D11*
X89584398Y-257318604D02*
X90389160Y-257318604D01*
X90389160Y-257318604D02*
X89955826Y-257813842D01*
X89955826Y-257813842D02*
X90141541Y-257813842D01*
X90141541Y-257813842D02*
X90265350Y-257875747D01*
X90265350Y-257875747D02*
X90327255Y-257937652D01*
X90327255Y-257937652D02*
X90389160Y-258061461D01*
X90389160Y-258061461D02*
X90389160Y-258370985D01*
X90389160Y-258370985D02*
X90327255Y-258494795D01*
X90327255Y-258494795D02*
X90265350Y-258556700D01*
X90265350Y-258556700D02*
X90141541Y-258618604D01*
X90141541Y-258618604D02*
X89770112Y-258618604D01*
X89770112Y-258618604D02*
X89646303Y-258556700D01*
X89646303Y-258556700D02*
X89584398Y-258494795D01*
D10*
D11*
X140265350Y-257751938D02*
X140265350Y-258618604D01*
X139955826Y-257256700D02*
X139646303Y-258185271D01*
X139646303Y-258185271D02*
X140451064Y-258185271D01*
D10*
D11*
X190327255Y-257318604D02*
X189708207Y-257318604D01*
X189708207Y-257318604D02*
X189646303Y-257937652D01*
X189646303Y-257937652D02*
X189708207Y-257875747D01*
X189708207Y-257875747D02*
X189832017Y-257813842D01*
X189832017Y-257813842D02*
X190141541Y-257813842D01*
X190141541Y-257813842D02*
X190265350Y-257875747D01*
X190265350Y-257875747D02*
X190327255Y-257937652D01*
X190327255Y-257937652D02*
X190389160Y-258061461D01*
X190389160Y-258061461D02*
X190389160Y-258370985D01*
X190389160Y-258370985D02*
X190327255Y-258494795D01*
X190327255Y-258494795D02*
X190265350Y-258556700D01*
X190265350Y-258556700D02*
X190141541Y-258618604D01*
X190141541Y-258618604D02*
X189832017Y-258618604D01*
X189832017Y-258618604D02*
X189708207Y-258556700D01*
X189708207Y-258556700D02*
X189646303Y-258494795D01*
D10*
D11*
X240265350Y-257318604D02*
X240017731Y-257318604D01*
X240017731Y-257318604D02*
X239893922Y-257380509D01*
X239893922Y-257380509D02*
X239832017Y-257442414D01*
X239832017Y-257442414D02*
X239708207Y-257628128D01*
X239708207Y-257628128D02*
X239646303Y-257875747D01*
X239646303Y-257875747D02*
X239646303Y-258370985D01*
X239646303Y-258370985D02*
X239708207Y-258494795D01*
X239708207Y-258494795D02*
X239770112Y-258556700D01*
X239770112Y-258556700D02*
X239893922Y-258618604D01*
X239893922Y-258618604D02*
X240141541Y-258618604D01*
X240141541Y-258618604D02*
X240265350Y-258556700D01*
X240265350Y-258556700D02*
X240327255Y-258494795D01*
X240327255Y-258494795D02*
X240389160Y-258370985D01*
X240389160Y-258370985D02*
X240389160Y-258061461D01*
X240389160Y-258061461D02*
X240327255Y-257937652D01*
X240327255Y-257937652D02*
X240265350Y-257875747D01*
X240265350Y-257875747D02*
X240141541Y-257813842D01*
X240141541Y-257813842D02*
X239893922Y-257813842D01*
X239893922Y-257813842D02*
X239770112Y-257875747D01*
X239770112Y-257875747D02*
X239708207Y-257937652D01*
X239708207Y-257937652D02*
X239646303Y-258061461D01*
D10*
D11*
X289584398Y-257318604D02*
X290451064Y-257318604D01*
X290451064Y-257318604D02*
X289893922Y-258618604D01*
D10*
D11*
X339893922Y-257875747D02*
X339770112Y-257813842D01*
X339770112Y-257813842D02*
X339708207Y-257751938D01*
X339708207Y-257751938D02*
X339646303Y-257628128D01*
X339646303Y-257628128D02*
X339646303Y-257566223D01*
X339646303Y-257566223D02*
X339708207Y-257442414D01*
X339708207Y-257442414D02*
X339770112Y-257380509D01*
X339770112Y-257380509D02*
X339893922Y-257318604D01*
X339893922Y-257318604D02*
X340141541Y-257318604D01*
X340141541Y-257318604D02*
X340265350Y-257380509D01*
X340265350Y-257380509D02*
X340327255Y-257442414D01*
X340327255Y-257442414D02*
X340389160Y-257566223D01*
X340389160Y-257566223D02*
X340389160Y-257628128D01*
X340389160Y-257628128D02*
X340327255Y-257751938D01*
X340327255Y-257751938D02*
X340265350Y-257813842D01*
X340265350Y-257813842D02*
X340141541Y-257875747D01*
X340141541Y-257875747D02*
X339893922Y-257875747D01*
X339893922Y-257875747D02*
X339770112Y-257937652D01*
X339770112Y-257937652D02*
X339708207Y-257999557D01*
X339708207Y-257999557D02*
X339646303Y-258123366D01*
X339646303Y-258123366D02*
X339646303Y-258370985D01*
X339646303Y-258370985D02*
X339708207Y-258494795D01*
X339708207Y-258494795D02*
X339770112Y-258556700D01*
X339770112Y-258556700D02*
X339893922Y-258618604D01*
X339893922Y-258618604D02*
X340141541Y-258618604D01*
X340141541Y-258618604D02*
X340265350Y-258556700D01*
X340265350Y-258556700D02*
X340327255Y-258494795D01*
X340327255Y-258494795D02*
X340389160Y-258370985D01*
X340389160Y-258370985D02*
X340389160Y-258123366D01*
X340389160Y-258123366D02*
X340327255Y-257999557D01*
X340327255Y-257999557D02*
X340265350Y-257937652D01*
X340265350Y-257937652D02*
X340141541Y-257875747D01*
D10*
D11*
X-35700000Y50375000D02*
X-33700000Y50375000D01*
D10*
D11*
X-35700000Y375000D02*
X-33700000Y375000D01*
D10*
D11*
X-35700000Y-49625000D02*
X-33700000Y-49625000D01*
D10*
D11*
X-35700000Y-99625000D02*
X-33700000Y-99625000D01*
D10*
D11*
X-35700000Y-149625000D02*
X-33700000Y-149625000D01*
D10*
D11*
X-35700000Y-199625000D02*
X-33700000Y-199625000D01*
D10*
D11*
X-35700000Y-249625000D02*
X-33700000Y-249625000D01*
D10*
D11*
X-35009524Y75152824D02*
X-34390477Y75152824D01*
X-35133334Y74781396D02*
X-34700001Y76081396D01*
X-34700001Y76081396D02*
X-34266667Y74781396D01*
D10*
D11*
X-34607143Y25462348D02*
X-34421429Y25400443D01*
X-34421429Y25400443D02*
X-34359524Y25338539D01*
X-34359524Y25338539D02*
X-34297620Y25214729D01*
X-34297620Y25214729D02*
X-34297620Y25029015D01*
X-34297620Y25029015D02*
X-34359524Y24905205D01*
X-34359524Y24905205D02*
X-34421429Y24843300D01*
X-34421429Y24843300D02*
X-34545239Y24781396D01*
X-34545239Y24781396D02*
X-35040477Y24781396D01*
X-35040477Y24781396D02*
X-35040477Y26081396D01*
X-35040477Y26081396D02*
X-34607143Y26081396D01*
X-34607143Y26081396D02*
X-34483334Y26019491D01*
X-34483334Y26019491D02*
X-34421429Y25957586D01*
X-34421429Y25957586D02*
X-34359524Y25833777D01*
X-34359524Y25833777D02*
X-34359524Y25709967D01*
X-34359524Y25709967D02*
X-34421429Y25586158D01*
X-34421429Y25586158D02*
X-34483334Y25524253D01*
X-34483334Y25524253D02*
X-34607143Y25462348D01*
X-34607143Y25462348D02*
X-35040477Y25462348D01*
D10*
D11*
X-34297620Y-25094795D02*
X-34359524Y-25156700D01*
X-34359524Y-25156700D02*
X-34545239Y-25218604D01*
X-34545239Y-25218604D02*
X-34669048Y-25218604D01*
X-34669048Y-25218604D02*
X-34854762Y-25156700D01*
X-34854762Y-25156700D02*
X-34978572Y-25032890D01*
X-34978572Y-25032890D02*
X-35040477Y-24909080D01*
X-35040477Y-24909080D02*
X-35102381Y-24661461D01*
X-35102381Y-24661461D02*
X-35102381Y-24475747D01*
X-35102381Y-24475747D02*
X-35040477Y-24228128D01*
X-35040477Y-24228128D02*
X-34978572Y-24104319D01*
X-34978572Y-24104319D02*
X-34854762Y-23980509D01*
X-34854762Y-23980509D02*
X-34669048Y-23918604D01*
X-34669048Y-23918604D02*
X-34545239Y-23918604D01*
X-34545239Y-23918604D02*
X-34359524Y-23980509D01*
X-34359524Y-23980509D02*
X-34297620Y-24042414D01*
D10*
D11*
X-35040477Y-75218604D02*
X-35040477Y-73918604D01*
X-35040477Y-73918604D02*
X-34730953Y-73918604D01*
X-34730953Y-73918604D02*
X-34545239Y-73980509D01*
X-34545239Y-73980509D02*
X-34421429Y-74104319D01*
X-34421429Y-74104319D02*
X-34359524Y-74228128D01*
X-34359524Y-74228128D02*
X-34297620Y-74475747D01*
X-34297620Y-74475747D02*
X-34297620Y-74661461D01*
X-34297620Y-74661461D02*
X-34359524Y-74909080D01*
X-34359524Y-74909080D02*
X-34421429Y-75032890D01*
X-34421429Y-75032890D02*
X-34545239Y-75156700D01*
X-34545239Y-75156700D02*
X-34730953Y-75218604D01*
X-34730953Y-75218604D02*
X-35040477Y-75218604D01*
D10*
D11*
X-34978572Y-124537652D02*
X-34545238Y-124537652D01*
X-34359524Y-125218604D02*
X-34978572Y-125218604D01*
X-34978572Y-125218604D02*
X-34978572Y-123918604D01*
X-34978572Y-123918604D02*
X-34359524Y-123918604D01*
D10*
D11*
X-34514286Y-174537652D02*
X-34947620Y-174537652D01*
X-34947620Y-175218604D02*
X-34947620Y-173918604D01*
X-34947620Y-173918604D02*
X-34328572Y-173918604D01*
D10*
D11*
X-34359524Y-223980509D02*
X-34483334Y-223918604D01*
X-34483334Y-223918604D02*
X-34669048Y-223918604D01*
X-34669048Y-223918604D02*
X-34854762Y-223980509D01*
X-34854762Y-223980509D02*
X-34978572Y-224104319D01*
X-34978572Y-224104319D02*
X-35040477Y-224228128D01*
X-35040477Y-224228128D02*
X-35102381Y-224475747D01*
X-35102381Y-224475747D02*
X-35102381Y-224661461D01*
X-35102381Y-224661461D02*
X-35040477Y-224909080D01*
X-35040477Y-224909080D02*
X-34978572Y-225032890D01*
X-34978572Y-225032890D02*
X-34854762Y-225156700D01*
X-34854762Y-225156700D02*
X-34669048Y-225218604D01*
X-34669048Y-225218604D02*
X-34545239Y-225218604D01*
X-34545239Y-225218604D02*
X-34359524Y-225156700D01*
X-34359524Y-225156700D02*
X-34297620Y-225094795D01*
X-34297620Y-225094795D02*
X-34297620Y-224661461D01*
X-34297620Y-224661461D02*
X-34545239Y-224661461D01*
D10*
D11*
X376100000Y50375000D02*
X374100000Y50375000D01*
D10*
D11*
X376100000Y375000D02*
X374100000Y375000D01*
D10*
D11*
X376100000Y-49625000D02*
X374100000Y-49625000D01*
D10*
D11*
X376100000Y-99625000D02*
X374100000Y-99625000D01*
D10*
D11*
X376100000Y-149625000D02*
X374100000Y-149625000D01*
D10*
D11*
X376100000Y-199625000D02*
X374100000Y-199625000D01*
D10*
D11*
X376100000Y-249625000D02*
X374100000Y-249625000D01*
D10*
D11*
X374790476Y75152824D02*
X375409523Y75152824D01*
X374666666Y74781396D02*
X375099999Y76081396D01*
X375099999Y76081396D02*
X375533333Y74781396D01*
D10*
D11*
X375192857Y25462348D02*
X375378571Y25400443D01*
X375378571Y25400443D02*
X375440476Y25338539D01*
X375440476Y25338539D02*
X375502380Y25214729D01*
X375502380Y25214729D02*
X375502380Y25029015D01*
X375502380Y25029015D02*
X375440476Y24905205D01*
X375440476Y24905205D02*
X375378571Y24843300D01*
X375378571Y24843300D02*
X375254761Y24781396D01*
X375254761Y24781396D02*
X374759523Y24781396D01*
X374759523Y24781396D02*
X374759523Y26081396D01*
X374759523Y26081396D02*
X375192857Y26081396D01*
X375192857Y26081396D02*
X375316666Y26019491D01*
X375316666Y26019491D02*
X375378571Y25957586D01*
X375378571Y25957586D02*
X375440476Y25833777D01*
X375440476Y25833777D02*
X375440476Y25709967D01*
X375440476Y25709967D02*
X375378571Y25586158D01*
X375378571Y25586158D02*
X375316666Y25524253D01*
X375316666Y25524253D02*
X375192857Y25462348D01*
X375192857Y25462348D02*
X374759523Y25462348D01*
D10*
D11*
X375502380Y-25094795D02*
X375440476Y-25156700D01*
X375440476Y-25156700D02*
X375254761Y-25218604D01*
X375254761Y-25218604D02*
X375130952Y-25218604D01*
X375130952Y-25218604D02*
X374945238Y-25156700D01*
X374945238Y-25156700D02*
X374821428Y-25032890D01*
X374821428Y-25032890D02*
X374759523Y-24909080D01*
X374759523Y-24909080D02*
X374697619Y-24661461D01*
X374697619Y-24661461D02*
X374697619Y-24475747D01*
X374697619Y-24475747D02*
X374759523Y-24228128D01*
X374759523Y-24228128D02*
X374821428Y-24104319D01*
X374821428Y-24104319D02*
X374945238Y-23980509D01*
X374945238Y-23980509D02*
X375130952Y-23918604D01*
X375130952Y-23918604D02*
X375254761Y-23918604D01*
X375254761Y-23918604D02*
X375440476Y-23980509D01*
X375440476Y-23980509D02*
X375502380Y-24042414D01*
D10*
D11*
X374759523Y-75218604D02*
X374759523Y-73918604D01*
X374759523Y-73918604D02*
X375069047Y-73918604D01*
X375069047Y-73918604D02*
X375254761Y-73980509D01*
X375254761Y-73980509D02*
X375378571Y-74104319D01*
X375378571Y-74104319D02*
X375440476Y-74228128D01*
X375440476Y-74228128D02*
X375502380Y-74475747D01*
X375502380Y-74475747D02*
X375502380Y-74661461D01*
X375502380Y-74661461D02*
X375440476Y-74909080D01*
X375440476Y-74909080D02*
X375378571Y-75032890D01*
X375378571Y-75032890D02*
X375254761Y-75156700D01*
X375254761Y-75156700D02*
X375069047Y-75218604D01*
X375069047Y-75218604D02*
X374759523Y-75218604D01*
D10*
D11*
X374821428Y-124537652D02*
X375254762Y-124537652D01*
X375440476Y-125218604D02*
X374821428Y-125218604D01*
X374821428Y-125218604D02*
X374821428Y-123918604D01*
X374821428Y-123918604D02*
X375440476Y-123918604D01*
D10*
D11*
X375285714Y-174537652D02*
X374852380Y-174537652D01*
X374852380Y-175218604D02*
X374852380Y-173918604D01*
X374852380Y-173918604D02*
X375471428Y-173918604D01*
D10*
D11*
X375440476Y-223980509D02*
X375316666Y-223918604D01*
X375316666Y-223918604D02*
X375130952Y-223918604D01*
X375130952Y-223918604D02*
X374945238Y-223980509D01*
X374945238Y-223980509D02*
X374821428Y-224104319D01*
X374821428Y-224104319D02*
X374759523Y-224228128D01*
X374759523Y-224228128D02*
X374697619Y-224475747D01*
X374697619Y-224475747D02*
X374697619Y-224661461D01*
X374697619Y-224661461D02*
X374759523Y-224909080D01*
X374759523Y-224909080D02*
X374821428Y-225032890D01*
X374821428Y-225032890D02*
X374945238Y-225156700D01*
X374945238Y-225156700D02*
X375130952Y-225218604D01*
X375130952Y-225218604D02*
X375254761Y-225218604D01*
X375254761Y-225218604D02*
X375440476Y-225156700D01*
X375440476Y-225156700D02*
X375502380Y-225094795D01*
X375502380Y-225094795D02*
X375502380Y-224661461D01*
X375502380Y-224661461D02*
X375254761Y-224661461D01*
D10*
D11*
X289555826Y-252811128D02*
X289555826Y-251311128D01*
X289555826Y-251311128D02*
X289912969Y-251311128D01*
X289912969Y-251311128D02*
X290127255Y-251382557D01*
X290127255Y-251382557D02*
X290270112Y-251525414D01*
X290270112Y-251525414D02*
X290341541Y-251668271D01*
X290341541Y-251668271D02*
X290412969Y-251953985D01*
X290412969Y-251953985D02*
X290412969Y-252168271D01*
X290412969Y-252168271D02*
X290341541Y-252453985D01*
X290341541Y-252453985D02*
X290270112Y-252596842D01*
X290270112Y-252596842D02*
X290127255Y-252739700D01*
X290127255Y-252739700D02*
X289912969Y-252811128D01*
X289912969Y-252811128D02*
X289555826Y-252811128D01*
X291698684Y-252811128D02*
X291698684Y-252025414D01*
X291698684Y-252025414D02*
X291627255Y-251882557D01*
X291627255Y-251882557D02*
X291484398Y-251811128D01*
X291484398Y-251811128D02*
X291198684Y-251811128D01*
X291198684Y-251811128D02*
X291055826Y-251882557D01*
X291698684Y-252739700D02*
X291555826Y-252811128D01*
X291555826Y-252811128D02*
X291198684Y-252811128D01*
X291198684Y-252811128D02*
X291055826Y-252739700D01*
X291055826Y-252739700D02*
X290984398Y-252596842D01*
X290984398Y-252596842D02*
X290984398Y-252453985D01*
X290984398Y-252453985D02*
X291055826Y-252311128D01*
X291055826Y-252311128D02*
X291198684Y-252239700D01*
X291198684Y-252239700D02*
X291555826Y-252239700D01*
X291555826Y-252239700D02*
X291698684Y-252168271D01*
X292198684Y-251811128D02*
X292770112Y-251811128D01*
X292412969Y-251311128D02*
X292412969Y-252596842D01*
X292412969Y-252596842D02*
X292484398Y-252739700D01*
X292484398Y-252739700D02*
X292627255Y-252811128D01*
X292627255Y-252811128D02*
X292770112Y-252811128D01*
X293841541Y-252739700D02*
X293698684Y-252811128D01*
X293698684Y-252811128D02*
X293412970Y-252811128D01*
X293412970Y-252811128D02*
X293270112Y-252739700D01*
X293270112Y-252739700D02*
X293198684Y-252596842D01*
X293198684Y-252596842D02*
X293198684Y-252025414D01*
X293198684Y-252025414D02*
X293270112Y-251882557D01*
X293270112Y-251882557D02*
X293412970Y-251811128D01*
X293412970Y-251811128D02*
X293698684Y-251811128D01*
X293698684Y-251811128D02*
X293841541Y-251882557D01*
X293841541Y-251882557D02*
X293912970Y-252025414D01*
X293912970Y-252025414D02*
X293912970Y-252168271D01*
X293912970Y-252168271D02*
X293198684Y-252311128D01*
X294555826Y-252668271D02*
X294627255Y-252739700D01*
X294627255Y-252739700D02*
X294555826Y-252811128D01*
X294555826Y-252811128D02*
X294484398Y-252739700D01*
X294484398Y-252739700D02*
X294555826Y-252668271D01*
X294555826Y-252668271D02*
X294555826Y-252811128D01*
X294555826Y-251882557D02*
X294627255Y-251953985D01*
X294627255Y-251953985D02*
X294555826Y-252025414D01*
X294555826Y-252025414D02*
X294484398Y-251953985D01*
X294484398Y-251953985D02*
X294555826Y-251882557D01*
X294555826Y-251882557D02*
X294555826Y-252025414D01*
X296341541Y-251453985D02*
X296412969Y-251382557D01*
X296412969Y-251382557D02*
X296555827Y-251311128D01*
X296555827Y-251311128D02*
X296912969Y-251311128D01*
X296912969Y-251311128D02*
X297055827Y-251382557D01*
X297055827Y-251382557D02*
X297127255Y-251453985D01*
X297127255Y-251453985D02*
X297198684Y-251596842D01*
X297198684Y-251596842D02*
X297198684Y-251739700D01*
X297198684Y-251739700D02*
X297127255Y-251953985D01*
X297127255Y-251953985D02*
X296270112Y-252811128D01*
X296270112Y-252811128D02*
X297198684Y-252811128D01*
X298127255Y-251311128D02*
X298270112Y-251311128D01*
X298270112Y-251311128D02*
X298412969Y-251382557D01*
X298412969Y-251382557D02*
X298484398Y-251453985D01*
X298484398Y-251453985D02*
X298555826Y-251596842D01*
X298555826Y-251596842D02*
X298627255Y-251882557D01*
X298627255Y-251882557D02*
X298627255Y-252239700D01*
X298627255Y-252239700D02*
X298555826Y-252525414D01*
X298555826Y-252525414D02*
X298484398Y-252668271D01*
X298484398Y-252668271D02*
X298412969Y-252739700D01*
X298412969Y-252739700D02*
X298270112Y-252811128D01*
X298270112Y-252811128D02*
X298127255Y-252811128D01*
X298127255Y-252811128D02*
X297984398Y-252739700D01*
X297984398Y-252739700D02*
X297912969Y-252668271D01*
X297912969Y-252668271D02*
X297841540Y-252525414D01*
X297841540Y-252525414D02*
X297770112Y-252239700D01*
X297770112Y-252239700D02*
X297770112Y-251882557D01*
X297770112Y-251882557D02*
X297841540Y-251596842D01*
X297841540Y-251596842D02*
X297912969Y-251453985D01*
X297912969Y-251453985D02*
X297984398Y-251382557D01*
X297984398Y-251382557D02*
X298127255Y-251311128D01*
X299198683Y-251453985D02*
X299270111Y-251382557D01*
X299270111Y-251382557D02*
X299412969Y-251311128D01*
X299412969Y-251311128D02*
X299770111Y-251311128D01*
X299770111Y-251311128D02*
X299912969Y-251382557D01*
X299912969Y-251382557D02*
X299984397Y-251453985D01*
X299984397Y-251453985D02*
X300055826Y-251596842D01*
X300055826Y-251596842D02*
X300055826Y-251739700D01*
X300055826Y-251739700D02*
X299984397Y-251953985D01*
X299984397Y-251953985D02*
X299127254Y-252811128D01*
X299127254Y-252811128D02*
X300055826Y-252811128D01*
X300627254Y-251453985D02*
X300698682Y-251382557D01*
X300698682Y-251382557D02*
X300841540Y-251311128D01*
X300841540Y-251311128D02*
X301198682Y-251311128D01*
X301198682Y-251311128D02*
X301341540Y-251382557D01*
X301341540Y-251382557D02*
X301412968Y-251453985D01*
X301412968Y-251453985D02*
X301484397Y-251596842D01*
X301484397Y-251596842D02*
X301484397Y-251739700D01*
X301484397Y-251739700D02*
X301412968Y-251953985D01*
X301412968Y-251953985D02*
X300555825Y-252811128D01*
X300555825Y-252811128D02*
X301484397Y-252811128D01*
X302127253Y-252239700D02*
X303270111Y-252239700D01*
X304770111Y-252811128D02*
X303912968Y-252811128D01*
X304341539Y-252811128D02*
X304341539Y-251311128D01*
X304341539Y-251311128D02*
X304198682Y-251525414D01*
X304198682Y-251525414D02*
X304055825Y-251668271D01*
X304055825Y-251668271D02*
X303912968Y-251739700D01*
X305698682Y-251311128D02*
X305841539Y-251311128D01*
X305841539Y-251311128D02*
X305984396Y-251382557D01*
X305984396Y-251382557D02*
X306055825Y-251453985D01*
X306055825Y-251453985D02*
X306127253Y-251596842D01*
X306127253Y-251596842D02*
X306198682Y-251882557D01*
X306198682Y-251882557D02*
X306198682Y-252239700D01*
X306198682Y-252239700D02*
X306127253Y-252525414D01*
X306127253Y-252525414D02*
X306055825Y-252668271D01*
X306055825Y-252668271D02*
X305984396Y-252739700D01*
X305984396Y-252739700D02*
X305841539Y-252811128D01*
X305841539Y-252811128D02*
X305698682Y-252811128D01*
X305698682Y-252811128D02*
X305555825Y-252739700D01*
X305555825Y-252739700D02*
X305484396Y-252668271D01*
X305484396Y-252668271D02*
X305412967Y-252525414D01*
X305412967Y-252525414D02*
X305341539Y-252239700D01*
X305341539Y-252239700D02*
X305341539Y-251882557D01*
X305341539Y-251882557D02*
X305412967Y-251596842D01*
X305412967Y-251596842D02*
X305484396Y-251453985D01*
X305484396Y-251453985D02*
X305555825Y-251382557D01*
X305555825Y-251382557D02*
X305698682Y-251311128D01*
X306841538Y-252239700D02*
X307984396Y-252239700D01*
X309484396Y-252811128D02*
X308627253Y-252811128D01*
X309055824Y-252811128D02*
X309055824Y-251311128D01*
X309055824Y-251311128D02*
X308912967Y-251525414D01*
X308912967Y-251525414D02*
X308770110Y-251668271D01*
X308770110Y-251668271D02*
X308627253Y-251739700D01*
X310770110Y-251811128D02*
X310770110Y-252811128D01*
X310412967Y-251239700D02*
X310055824Y-252311128D01*
X310055824Y-252311128D02*
X310984395Y-252311128D01*
D10*
D11*
X266100000Y-253525000D02*
X374100000Y-253525000D01*
D10*
D11*
X267555826Y-255611128D02*
X267555826Y-254111128D01*
X268412969Y-255611128D02*
X267770112Y-254753985D01*
X268412969Y-254111128D02*
X267555826Y-254968271D01*
X269055826Y-255611128D02*
X269055826Y-254611128D01*
X269055826Y-254111128D02*
X268984398Y-254182557D01*
X268984398Y-254182557D02*
X269055826Y-254253985D01*
X269055826Y-254253985D02*
X269127255Y-254182557D01*
X269127255Y-254182557D02*
X269055826Y-254111128D01*
X269055826Y-254111128D02*
X269055826Y-254253985D01*
X270627255Y-255468271D02*
X270555827Y-255539700D01*
X270555827Y-255539700D02*
X270341541Y-255611128D01*
X270341541Y-255611128D02*
X270198684Y-255611128D01*
X270198684Y-255611128D02*
X269984398Y-255539700D01*
X269984398Y-255539700D02*
X269841541Y-255396842D01*
X269841541Y-255396842D02*
X269770112Y-255253985D01*
X269770112Y-255253985D02*
X269698684Y-254968271D01*
X269698684Y-254968271D02*
X269698684Y-254753985D01*
X269698684Y-254753985D02*
X269770112Y-254468271D01*
X269770112Y-254468271D02*
X269841541Y-254325414D01*
X269841541Y-254325414D02*
X269984398Y-254182557D01*
X269984398Y-254182557D02*
X270198684Y-254111128D01*
X270198684Y-254111128D02*
X270341541Y-254111128D01*
X270341541Y-254111128D02*
X270555827Y-254182557D01*
X270555827Y-254182557D02*
X270627255Y-254253985D01*
X271912970Y-255611128D02*
X271912970Y-254825414D01*
X271912970Y-254825414D02*
X271841541Y-254682557D01*
X271841541Y-254682557D02*
X271698684Y-254611128D01*
X271698684Y-254611128D02*
X271412970Y-254611128D01*
X271412970Y-254611128D02*
X271270112Y-254682557D01*
X271912970Y-255539700D02*
X271770112Y-255611128D01*
X271770112Y-255611128D02*
X271412970Y-255611128D01*
X271412970Y-255611128D02*
X271270112Y-255539700D01*
X271270112Y-255539700D02*
X271198684Y-255396842D01*
X271198684Y-255396842D02*
X271198684Y-255253985D01*
X271198684Y-255253985D02*
X271270112Y-255111128D01*
X271270112Y-255111128D02*
X271412970Y-255039700D01*
X271412970Y-255039700D02*
X271770112Y-255039700D01*
X271770112Y-255039700D02*
X271912970Y-254968271D01*
X273270113Y-255611128D02*
X273270113Y-254111128D01*
X273270113Y-255539700D02*
X273127255Y-255611128D01*
X273127255Y-255611128D02*
X272841541Y-255611128D01*
X272841541Y-255611128D02*
X272698684Y-255539700D01*
X272698684Y-255539700D02*
X272627255Y-255468271D01*
X272627255Y-255468271D02*
X272555827Y-255325414D01*
X272555827Y-255325414D02*
X272555827Y-254896842D01*
X272555827Y-254896842D02*
X272627255Y-254753985D01*
X272627255Y-254753985D02*
X272698684Y-254682557D01*
X272698684Y-254682557D02*
X272841541Y-254611128D01*
X272841541Y-254611128D02*
X273127255Y-254611128D01*
X273127255Y-254611128D02*
X273270113Y-254682557D01*
X275127255Y-254825414D02*
X275627255Y-254825414D01*
X275841541Y-255611128D02*
X275127255Y-255611128D01*
X275127255Y-255611128D02*
X275127255Y-254111128D01*
X275127255Y-254111128D02*
X275841541Y-254111128D01*
X276484398Y-255468271D02*
X276555827Y-255539700D01*
X276555827Y-255539700D02*
X276484398Y-255611128D01*
X276484398Y-255611128D02*
X276412970Y-255539700D01*
X276412970Y-255539700D02*
X276484398Y-255468271D01*
X276484398Y-255468271D02*
X276484398Y-255611128D01*
X277198684Y-255611128D02*
X277198684Y-254111128D01*
X277198684Y-254111128D02*
X277555827Y-254111128D01*
X277555827Y-254111128D02*
X277770113Y-254182557D01*
X277770113Y-254182557D02*
X277912970Y-254325414D01*
X277912970Y-254325414D02*
X277984399Y-254468271D01*
X277984399Y-254468271D02*
X278055827Y-254753985D01*
X278055827Y-254753985D02*
X278055827Y-254968271D01*
X278055827Y-254968271D02*
X277984399Y-255253985D01*
X277984399Y-255253985D02*
X277912970Y-255396842D01*
X277912970Y-255396842D02*
X277770113Y-255539700D01*
X277770113Y-255539700D02*
X277555827Y-255611128D01*
X277555827Y-255611128D02*
X277198684Y-255611128D01*
X278698684Y-255468271D02*
X278770113Y-255539700D01*
X278770113Y-255539700D02*
X278698684Y-255611128D01*
X278698684Y-255611128D02*
X278627256Y-255539700D01*
X278627256Y-255539700D02*
X278698684Y-255468271D01*
X278698684Y-255468271D02*
X278698684Y-255611128D01*
X279341542Y-255182557D02*
X280055828Y-255182557D01*
X279198685Y-255611128D02*
X279698685Y-254111128D01*
X279698685Y-254111128D02*
X280198685Y-255611128D01*
X280698684Y-255468271D02*
X280770113Y-255539700D01*
X280770113Y-255539700D02*
X280698684Y-255611128D01*
X280698684Y-255611128D02*
X280627256Y-255539700D01*
X280627256Y-255539700D02*
X280698684Y-255468271D01*
X280698684Y-255468271D02*
X280698684Y-255611128D01*
X282770113Y-254753985D02*
X282627256Y-254682557D01*
X282627256Y-254682557D02*
X282555827Y-254611128D01*
X282555827Y-254611128D02*
X282484399Y-254468271D01*
X282484399Y-254468271D02*
X282484399Y-254396842D01*
X282484399Y-254396842D02*
X282555827Y-254253985D01*
X282555827Y-254253985D02*
X282627256Y-254182557D01*
X282627256Y-254182557D02*
X282770113Y-254111128D01*
X282770113Y-254111128D02*
X283055827Y-254111128D01*
X283055827Y-254111128D02*
X283198685Y-254182557D01*
X283198685Y-254182557D02*
X283270113Y-254253985D01*
X283270113Y-254253985D02*
X283341542Y-254396842D01*
X283341542Y-254396842D02*
X283341542Y-254468271D01*
X283341542Y-254468271D02*
X283270113Y-254611128D01*
X283270113Y-254611128D02*
X283198685Y-254682557D01*
X283198685Y-254682557D02*
X283055827Y-254753985D01*
X283055827Y-254753985D02*
X282770113Y-254753985D01*
X282770113Y-254753985D02*
X282627256Y-254825414D01*
X282627256Y-254825414D02*
X282555827Y-254896842D01*
X282555827Y-254896842D02*
X282484399Y-255039700D01*
X282484399Y-255039700D02*
X282484399Y-255325414D01*
X282484399Y-255325414D02*
X282555827Y-255468271D01*
X282555827Y-255468271D02*
X282627256Y-255539700D01*
X282627256Y-255539700D02*
X282770113Y-255611128D01*
X282770113Y-255611128D02*
X283055827Y-255611128D01*
X283055827Y-255611128D02*
X283198685Y-255539700D01*
X283198685Y-255539700D02*
X283270113Y-255468271D01*
X283270113Y-255468271D02*
X283341542Y-255325414D01*
X283341542Y-255325414D02*
X283341542Y-255039700D01*
X283341542Y-255039700D02*
X283270113Y-254896842D01*
X283270113Y-254896842D02*
X283198685Y-254825414D01*
X283198685Y-254825414D02*
X283055827Y-254753985D01*
X283984398Y-255468271D02*
X284055827Y-255539700D01*
X284055827Y-255539700D02*
X283984398Y-255611128D01*
X283984398Y-255611128D02*
X283912970Y-255539700D01*
X283912970Y-255539700D02*
X283984398Y-255468271D01*
X283984398Y-255468271D02*
X283984398Y-255611128D01*
X284984399Y-254111128D02*
X285127256Y-254111128D01*
X285127256Y-254111128D02*
X285270113Y-254182557D01*
X285270113Y-254182557D02*
X285341542Y-254253985D01*
X285341542Y-254253985D02*
X285412970Y-254396842D01*
X285412970Y-254396842D02*
X285484399Y-254682557D01*
X285484399Y-254682557D02*
X285484399Y-255039700D01*
X285484399Y-255039700D02*
X285412970Y-255325414D01*
X285412970Y-255325414D02*
X285341542Y-255468271D01*
X285341542Y-255468271D02*
X285270113Y-255539700D01*
X285270113Y-255539700D02*
X285127256Y-255611128D01*
X285127256Y-255611128D02*
X284984399Y-255611128D01*
X284984399Y-255611128D02*
X284841542Y-255539700D01*
X284841542Y-255539700D02*
X284770113Y-255468271D01*
X284770113Y-255468271D02*
X284698684Y-255325414D01*
X284698684Y-255325414D02*
X284627256Y-255039700D01*
X284627256Y-255039700D02*
X284627256Y-254682557D01*
X284627256Y-254682557D02*
X284698684Y-254396842D01*
X284698684Y-254396842D02*
X284770113Y-254253985D01*
X284770113Y-254253985D02*
X284841542Y-254182557D01*
X284841542Y-254182557D02*
X284984399Y-254111128D01*
X286127255Y-255468271D02*
X286198684Y-255539700D01*
X286198684Y-255539700D02*
X286127255Y-255611128D01*
X286127255Y-255611128D02*
X286055827Y-255539700D01*
X286055827Y-255539700D02*
X286127255Y-255468271D01*
X286127255Y-255468271D02*
X286127255Y-255611128D01*
X287055827Y-254753985D02*
X286912970Y-254682557D01*
X286912970Y-254682557D02*
X286841541Y-254611128D01*
X286841541Y-254611128D02*
X286770113Y-254468271D01*
X286770113Y-254468271D02*
X286770113Y-254396842D01*
X286770113Y-254396842D02*
X286841541Y-254253985D01*
X286841541Y-254253985D02*
X286912970Y-254182557D01*
X286912970Y-254182557D02*
X287055827Y-254111128D01*
X287055827Y-254111128D02*
X287341541Y-254111128D01*
X287341541Y-254111128D02*
X287484399Y-254182557D01*
X287484399Y-254182557D02*
X287555827Y-254253985D01*
X287555827Y-254253985D02*
X287627256Y-254396842D01*
X287627256Y-254396842D02*
X287627256Y-254468271D01*
X287627256Y-254468271D02*
X287555827Y-254611128D01*
X287555827Y-254611128D02*
X287484399Y-254682557D01*
X287484399Y-254682557D02*
X287341541Y-254753985D01*
X287341541Y-254753985D02*
X287055827Y-254753985D01*
X287055827Y-254753985D02*
X286912970Y-254825414D01*
X286912970Y-254825414D02*
X286841541Y-254896842D01*
X286841541Y-254896842D02*
X286770113Y-255039700D01*
X286770113Y-255039700D02*
X286770113Y-255325414D01*
X286770113Y-255325414D02*
X286841541Y-255468271D01*
X286841541Y-255468271D02*
X286912970Y-255539700D01*
X286912970Y-255539700D02*
X287055827Y-255611128D01*
X287055827Y-255611128D02*
X287341541Y-255611128D01*
X287341541Y-255611128D02*
X287484399Y-255539700D01*
X287484399Y-255539700D02*
X287555827Y-255468271D01*
X287555827Y-255468271D02*
X287627256Y-255325414D01*
X287627256Y-255325414D02*
X287627256Y-255039700D01*
X287627256Y-255039700D02*
X287555827Y-254896842D01*
X287555827Y-254896842D02*
X287484399Y-254825414D01*
X287484399Y-254825414D02*
X287341541Y-254753985D01*
D10*
D11*
X266100000Y-250525000D02*
X374100000Y-250525000D01*
D10*
D12*
X353511653Y-252803328D02*
X353011653Y-252089042D01*
X352654510Y-252803328D02*
X352654510Y-251303328D01*
X352654510Y-251303328D02*
X353225939Y-251303328D01*
X353225939Y-251303328D02*
X353368796Y-251374757D01*
X353368796Y-251374757D02*
X353440225Y-251446185D01*
X353440225Y-251446185D02*
X353511653Y-251589042D01*
X353511653Y-251589042D02*
X353511653Y-251803328D01*
X353511653Y-251803328D02*
X353440225Y-251946185D01*
X353440225Y-251946185D02*
X353368796Y-252017614D01*
X353368796Y-252017614D02*
X353225939Y-252089042D01*
X353225939Y-252089042D02*
X352654510Y-252089042D01*
X354725939Y-252731900D02*
X354583082Y-252803328D01*
X354583082Y-252803328D02*
X354297368Y-252803328D01*
X354297368Y-252803328D02*
X354154510Y-252731900D01*
X354154510Y-252731900D02*
X354083082Y-252589042D01*
X354083082Y-252589042D02*
X354083082Y-252017614D01*
X354083082Y-252017614D02*
X354154510Y-251874757D01*
X354154510Y-251874757D02*
X354297368Y-251803328D01*
X354297368Y-251803328D02*
X354583082Y-251803328D01*
X354583082Y-251803328D02*
X354725939Y-251874757D01*
X354725939Y-251874757D02*
X354797368Y-252017614D01*
X354797368Y-252017614D02*
X354797368Y-252160471D01*
X354797368Y-252160471D02*
X354083082Y-252303328D01*
X355297367Y-251803328D02*
X355654510Y-252803328D01*
X355654510Y-252803328D02*
X356011653Y-251803328D01*
X356583081Y-252660471D02*
X356654510Y-252731900D01*
X356654510Y-252731900D02*
X356583081Y-252803328D01*
X356583081Y-252803328D02*
X356511653Y-252731900D01*
X356511653Y-252731900D02*
X356583081Y-252660471D01*
X356583081Y-252660471D02*
X356583081Y-252803328D01*
X356583081Y-251874757D02*
X356654510Y-251946185D01*
X356654510Y-251946185D02*
X356583081Y-252017614D01*
X356583081Y-252017614D02*
X356511653Y-251946185D01*
X356511653Y-251946185D02*
X356583081Y-251874757D01*
X356583081Y-251874757D02*
X356583081Y-252017614D01*
X359083082Y-252803328D02*
X359083082Y-251303328D01*
X359083082Y-252731900D02*
X358940224Y-252803328D01*
X358940224Y-252803328D02*
X358654510Y-252803328D01*
X358654510Y-252803328D02*
X358511653Y-252731900D01*
X358511653Y-252731900D02*
X358440224Y-252660471D01*
X358440224Y-252660471D02*
X358368796Y-252517614D01*
X358368796Y-252517614D02*
X358368796Y-252089042D01*
X358368796Y-252089042D02*
X358440224Y-251946185D01*
X358440224Y-251946185D02*
X358511653Y-251874757D01*
X358511653Y-251874757D02*
X358654510Y-251803328D01*
X358654510Y-251803328D02*
X358940224Y-251803328D01*
X358940224Y-251803328D02*
X359083082Y-251874757D01*
D10*
D11*
X267484398Y-252739700D02*
X267698684Y-252811128D01*
X267698684Y-252811128D02*
X268055826Y-252811128D01*
X268055826Y-252811128D02*
X268198684Y-252739700D01*
X268198684Y-252739700D02*
X268270112Y-252668271D01*
X268270112Y-252668271D02*
X268341541Y-252525414D01*
X268341541Y-252525414D02*
X268341541Y-252382557D01*
X268341541Y-252382557D02*
X268270112Y-252239700D01*
X268270112Y-252239700D02*
X268198684Y-252168271D01*
X268198684Y-252168271D02*
X268055826Y-252096842D01*
X268055826Y-252096842D02*
X267770112Y-252025414D01*
X267770112Y-252025414D02*
X267627255Y-251953985D01*
X267627255Y-251953985D02*
X267555826Y-251882557D01*
X267555826Y-251882557D02*
X267484398Y-251739700D01*
X267484398Y-251739700D02*
X267484398Y-251596842D01*
X267484398Y-251596842D02*
X267555826Y-251453985D01*
X267555826Y-251453985D02*
X267627255Y-251382557D01*
X267627255Y-251382557D02*
X267770112Y-251311128D01*
X267770112Y-251311128D02*
X268127255Y-251311128D01*
X268127255Y-251311128D02*
X268341541Y-251382557D01*
X268984397Y-252811128D02*
X268984397Y-251811128D01*
X268984397Y-251311128D02*
X268912969Y-251382557D01*
X268912969Y-251382557D02*
X268984397Y-251453985D01*
X268984397Y-251453985D02*
X269055826Y-251382557D01*
X269055826Y-251382557D02*
X268984397Y-251311128D01*
X268984397Y-251311128D02*
X268984397Y-251453985D01*
X269555826Y-251811128D02*
X270341541Y-251811128D01*
X270341541Y-251811128D02*
X269555826Y-252811128D01*
X269555826Y-252811128D02*
X270341541Y-252811128D01*
X271484398Y-252739700D02*
X271341541Y-252811128D01*
X271341541Y-252811128D02*
X271055827Y-252811128D01*
X271055827Y-252811128D02*
X270912969Y-252739700D01*
X270912969Y-252739700D02*
X270841541Y-252596842D01*
X270841541Y-252596842D02*
X270841541Y-252025414D01*
X270841541Y-252025414D02*
X270912969Y-251882557D01*
X270912969Y-251882557D02*
X271055827Y-251811128D01*
X271055827Y-251811128D02*
X271341541Y-251811128D01*
X271341541Y-251811128D02*
X271484398Y-251882557D01*
X271484398Y-251882557D02*
X271555827Y-252025414D01*
X271555827Y-252025414D02*
X271555827Y-252168271D01*
X271555827Y-252168271D02*
X270841541Y-252311128D01*
X272198683Y-252668271D02*
X272270112Y-252739700D01*
X272270112Y-252739700D02*
X272198683Y-252811128D01*
X272198683Y-252811128D02*
X272127255Y-252739700D01*
X272127255Y-252739700D02*
X272198683Y-252668271D01*
X272198683Y-252668271D02*
X272198683Y-252811128D01*
X272198683Y-251882557D02*
X272270112Y-251953985D01*
X272270112Y-251953985D02*
X272198683Y-252025414D01*
X272198683Y-252025414D02*
X272127255Y-251953985D01*
X272127255Y-251953985D02*
X272198683Y-251882557D01*
X272198683Y-251882557D02*
X272198683Y-252025414D01*
X274055826Y-251311128D02*
X274055826Y-252525414D01*
X274055826Y-252525414D02*
X274127255Y-252668271D01*
X274127255Y-252668271D02*
X274198684Y-252739700D01*
X274198684Y-252739700D02*
X274341541Y-252811128D01*
X274341541Y-252811128D02*
X274627255Y-252811128D01*
X274627255Y-252811128D02*
X274770112Y-252739700D01*
X274770112Y-252739700D02*
X274841541Y-252668271D01*
X274841541Y-252668271D02*
X274912969Y-252525414D01*
X274912969Y-252525414D02*
X274912969Y-251311128D01*
X275555827Y-252739700D02*
X275698684Y-252811128D01*
X275698684Y-252811128D02*
X275984398Y-252811128D01*
X275984398Y-252811128D02*
X276127255Y-252739700D01*
X276127255Y-252739700D02*
X276198684Y-252596842D01*
X276198684Y-252596842D02*
X276198684Y-252525414D01*
X276198684Y-252525414D02*
X276127255Y-252382557D01*
X276127255Y-252382557D02*
X275984398Y-252311128D01*
X275984398Y-252311128D02*
X275770113Y-252311128D01*
X275770113Y-252311128D02*
X275627255Y-252239700D01*
X275627255Y-252239700D02*
X275555827Y-252096842D01*
X275555827Y-252096842D02*
X275555827Y-252025414D01*
X275555827Y-252025414D02*
X275627255Y-251882557D01*
X275627255Y-251882557D02*
X275770113Y-251811128D01*
X275770113Y-251811128D02*
X275984398Y-251811128D01*
X275984398Y-251811128D02*
X276127255Y-251882557D01*
X277412970Y-252739700D02*
X277270113Y-252811128D01*
X277270113Y-252811128D02*
X276984399Y-252811128D01*
X276984399Y-252811128D02*
X276841541Y-252739700D01*
X276841541Y-252739700D02*
X276770113Y-252596842D01*
X276770113Y-252596842D02*
X276770113Y-252025414D01*
X276770113Y-252025414D02*
X276841541Y-251882557D01*
X276841541Y-251882557D02*
X276984399Y-251811128D01*
X276984399Y-251811128D02*
X277270113Y-251811128D01*
X277270113Y-251811128D02*
X277412970Y-251882557D01*
X277412970Y-251882557D02*
X277484399Y-252025414D01*
X277484399Y-252025414D02*
X277484399Y-252168271D01*
X277484399Y-252168271D02*
X276770113Y-252311128D01*
X278127255Y-252811128D02*
X278127255Y-251811128D01*
X278127255Y-252096842D02*
X278198684Y-251953985D01*
X278198684Y-251953985D02*
X278270113Y-251882557D01*
X278270113Y-251882557D02*
X278412970Y-251811128D01*
X278412970Y-251811128D02*
X278555827Y-251811128D01*
D10*
D11*
X352555826Y-255611128D02*
X352555826Y-254111128D01*
X353912970Y-255611128D02*
X353912970Y-254111128D01*
X353912970Y-255539700D02*
X353770112Y-255611128D01*
X353770112Y-255611128D02*
X353484398Y-255611128D01*
X353484398Y-255611128D02*
X353341541Y-255539700D01*
X353341541Y-255539700D02*
X353270112Y-255468271D01*
X353270112Y-255468271D02*
X353198684Y-255325414D01*
X353198684Y-255325414D02*
X353198684Y-254896842D01*
X353198684Y-254896842D02*
X353270112Y-254753985D01*
X353270112Y-254753985D02*
X353341541Y-254682557D01*
X353341541Y-254682557D02*
X353484398Y-254611128D01*
X353484398Y-254611128D02*
X353770112Y-254611128D01*
X353770112Y-254611128D02*
X353912970Y-254682557D01*
X354627255Y-255468271D02*
X354698684Y-255539700D01*
X354698684Y-255539700D02*
X354627255Y-255611128D01*
X354627255Y-255611128D02*
X354555827Y-255539700D01*
X354555827Y-255539700D02*
X354627255Y-255468271D01*
X354627255Y-255468271D02*
X354627255Y-255611128D01*
X354627255Y-254682557D02*
X354698684Y-254753985D01*
X354698684Y-254753985D02*
X354627255Y-254825414D01*
X354627255Y-254825414D02*
X354555827Y-254753985D01*
X354555827Y-254753985D02*
X354627255Y-254682557D01*
X354627255Y-254682557D02*
X354627255Y-254825414D01*
X357270113Y-255611128D02*
X356412970Y-255611128D01*
X356841541Y-255611128D02*
X356841541Y-254111128D01*
X356841541Y-254111128D02*
X356698684Y-254325414D01*
X356698684Y-254325414D02*
X356555827Y-254468271D01*
X356555827Y-254468271D02*
X356412970Y-254539700D01*
X358984398Y-254039700D02*
X357698684Y-255968271D01*
X360270113Y-255611128D02*
X359412970Y-255611128D01*
X359841541Y-255611128D02*
X359841541Y-254111128D01*
X359841541Y-254111128D02*
X359698684Y-254325414D01*
X359698684Y-254325414D02*
X359555827Y-254468271D01*
X359555827Y-254468271D02*
X359412970Y-254539700D01*
D10*
D11*
X266100000Y-246525000D02*
X374100000Y-246525000D01*
D10*
D13*
X267791728Y-247229438D02*
X268934585Y-247229438D01*
X268113157Y-249229438D02*
X268363157Y-247229438D01*
X269351252Y-249229438D02*
X269517919Y-247896104D01*
X269601252Y-247229438D02*
X269494109Y-247324676D01*
X269494109Y-247324676D02*
X269577443Y-247419914D01*
X269577443Y-247419914D02*
X269684586Y-247324676D01*
X269684586Y-247324676D02*
X269601252Y-247229438D01*
X269601252Y-247229438D02*
X269577443Y-247419914D01*
X270184586Y-247896104D02*
X270946490Y-247896104D01*
X270553633Y-247229438D02*
X270339348Y-248943723D01*
X270339348Y-248943723D02*
X270410776Y-249134200D01*
X270410776Y-249134200D02*
X270589348Y-249229438D01*
X270589348Y-249229438D02*
X270779824Y-249229438D01*
X271732205Y-249229438D02*
X271553633Y-249134200D01*
X271553633Y-249134200D02*
X271482205Y-248943723D01*
X271482205Y-248943723D02*
X271696490Y-247229438D01*
X273267919Y-249134200D02*
X273065538Y-249229438D01*
X273065538Y-249229438D02*
X272684585Y-249229438D01*
X272684585Y-249229438D02*
X272506014Y-249134200D01*
X272506014Y-249134200D02*
X272434585Y-248943723D01*
X272434585Y-248943723D02*
X272529824Y-248181819D01*
X272529824Y-248181819D02*
X272648871Y-247991342D01*
X272648871Y-247991342D02*
X272851252Y-247896104D01*
X272851252Y-247896104D02*
X273232204Y-247896104D01*
X273232204Y-247896104D02*
X273410776Y-247991342D01*
X273410776Y-247991342D02*
X273482204Y-248181819D01*
X273482204Y-248181819D02*
X273458395Y-248372295D01*
X273458395Y-248372295D02*
X272482204Y-248562771D01*
X274232205Y-249038961D02*
X274315538Y-249134200D01*
X274315538Y-249134200D02*
X274208395Y-249229438D01*
X274208395Y-249229438D02*
X274125062Y-249134200D01*
X274125062Y-249134200D02*
X274232205Y-249038961D01*
X274232205Y-249038961D02*
X274208395Y-249229438D01*
X274363157Y-247991342D02*
X274446490Y-248086580D01*
X274446490Y-248086580D02*
X274339348Y-248181819D01*
X274339348Y-248181819D02*
X274256014Y-248086580D01*
X274256014Y-248086580D02*
X274363157Y-247991342D01*
X274363157Y-247991342D02*
X274339348Y-248181819D01*
X276684586Y-249229438D02*
X276934586Y-247229438D01*
X276815539Y-248181819D02*
X277958396Y-248181819D01*
X277827443Y-249229438D02*
X278077443Y-247229438D01*
X279553634Y-249134200D02*
X279351253Y-249229438D01*
X279351253Y-249229438D02*
X278970300Y-249229438D01*
X278970300Y-249229438D02*
X278791729Y-249134200D01*
X278791729Y-249134200D02*
X278720300Y-248943723D01*
X278720300Y-248943723D02*
X278815539Y-248181819D01*
X278815539Y-248181819D02*
X278934586Y-247991342D01*
X278934586Y-247991342D02*
X279136967Y-247896104D01*
X279136967Y-247896104D02*
X279517919Y-247896104D01*
X279517919Y-247896104D02*
X279696491Y-247991342D01*
X279696491Y-247991342D02*
X279767919Y-248181819D01*
X279767919Y-248181819D02*
X279744110Y-248372295D01*
X279744110Y-248372295D02*
X278767919Y-248562771D01*
X280779825Y-249229438D02*
X280601253Y-249134200D01*
X280601253Y-249134200D02*
X280529825Y-248943723D01*
X280529825Y-248943723D02*
X280744110Y-247229438D01*
X281827444Y-249229438D02*
X281648872Y-249134200D01*
X281648872Y-249134200D02*
X281577444Y-248943723D01*
X281577444Y-248943723D02*
X281791729Y-247229438D01*
X283363158Y-249134200D02*
X283160777Y-249229438D01*
X283160777Y-249229438D02*
X282779824Y-249229438D01*
X282779824Y-249229438D02*
X282601253Y-249134200D01*
X282601253Y-249134200D02*
X282529824Y-248943723D01*
X282529824Y-248943723D02*
X282625063Y-248181819D01*
X282625063Y-248181819D02*
X282744110Y-247991342D01*
X282744110Y-247991342D02*
X282946491Y-247896104D01*
X282946491Y-247896104D02*
X283327443Y-247896104D01*
X283327443Y-247896104D02*
X283506015Y-247991342D01*
X283506015Y-247991342D02*
X283577443Y-248181819D01*
X283577443Y-248181819D02*
X283553634Y-248372295D01*
X283553634Y-248372295D02*
X282577443Y-248562771D01*
X284470301Y-247896104D02*
X284303634Y-249229438D01*
X284446491Y-248086580D02*
X284553634Y-247991342D01*
X284553634Y-247991342D02*
X284756015Y-247896104D01*
X284756015Y-247896104D02*
X285041729Y-247896104D01*
X285041729Y-247896104D02*
X285220301Y-247991342D01*
X285220301Y-247991342D02*
X285291729Y-248181819D01*
X285291729Y-248181819D02*
X285160777Y-249229438D01*
X287160777Y-249229438D02*
X286017920Y-249229438D01*
X286589349Y-249229438D02*
X286839349Y-247229438D01*
X286839349Y-247229438D02*
X286613158Y-247515152D01*
X286613158Y-247515152D02*
X286398873Y-247705628D01*
X286398873Y-247705628D02*
X286196492Y-247800866D01*
X288148873Y-247419914D02*
X288256015Y-247324676D01*
X288256015Y-247324676D02*
X288458396Y-247229438D01*
X288458396Y-247229438D02*
X288934587Y-247229438D01*
X288934587Y-247229438D02*
X289113158Y-247324676D01*
X289113158Y-247324676D02*
X289196492Y-247419914D01*
X289196492Y-247419914D02*
X289267920Y-247610390D01*
X289267920Y-247610390D02*
X289244111Y-247800866D01*
X289244111Y-247800866D02*
X289113158Y-248086580D01*
X289113158Y-248086580D02*
X287827444Y-249229438D01*
X287827444Y-249229438D02*
X289065539Y-249229438D01*
X290970301Y-249229438D02*
X289827444Y-249229438D01*
X290398873Y-249229438D02*
X290648873Y-247229438D01*
X290648873Y-247229438D02*
X290422682Y-247515152D01*
X290422682Y-247515152D02*
X290208397Y-247705628D01*
X290208397Y-247705628D02*
X290006016Y-247800866D01*
X291803635Y-247896104D02*
X292113159Y-249229438D01*
X292113159Y-249229438D02*
X292756016Y-247896104D01*
X294208397Y-249229438D02*
X294339349Y-248181819D01*
X294339349Y-248181819D02*
X294267921Y-247991342D01*
X294267921Y-247991342D02*
X294089349Y-247896104D01*
X294089349Y-247896104D02*
X293708397Y-247896104D01*
X293708397Y-247896104D02*
X293506016Y-247991342D01*
X294220302Y-249134200D02*
X294017921Y-249229438D01*
X294017921Y-249229438D02*
X293541730Y-249229438D01*
X293541730Y-249229438D02*
X293363159Y-249134200D01*
X293363159Y-249134200D02*
X293291730Y-248943723D01*
X293291730Y-248943723D02*
X293315540Y-248753247D01*
X293315540Y-248753247D02*
X293434588Y-248562771D01*
X293434588Y-248562771D02*
X293636969Y-248467533D01*
X293636969Y-248467533D02*
X294113159Y-248467533D01*
X294113159Y-248467533D02*
X294315540Y-248372295D01*
X296184588Y-247896104D02*
X295982207Y-249515152D01*
X295982207Y-249515152D02*
X295863159Y-249705628D01*
X295863159Y-249705628D02*
X295756016Y-249800866D01*
X295756016Y-249800866D02*
X295553635Y-249896104D01*
X295553635Y-249896104D02*
X295267921Y-249896104D01*
X295267921Y-249896104D02*
X295089350Y-249800866D01*
X296029826Y-249134200D02*
X295827445Y-249229438D01*
X295827445Y-249229438D02*
X295446493Y-249229438D01*
X295446493Y-249229438D02*
X295267921Y-249134200D01*
X295267921Y-249134200D02*
X295184588Y-249038961D01*
X295184588Y-249038961D02*
X295113159Y-248848485D01*
X295113159Y-248848485D02*
X295184588Y-248277057D01*
X295184588Y-248277057D02*
X295303635Y-248086580D01*
X295303635Y-248086580D02*
X295410778Y-247991342D01*
X295410778Y-247991342D02*
X295613159Y-247896104D01*
X295613159Y-247896104D02*
X295994112Y-247896104D01*
X295994112Y-247896104D02*
X296172683Y-247991342D01*
D10*
D11*
X268055826Y-244625414D02*
X267555826Y-244625414D01*
X267555826Y-245411128D02*
X267555826Y-243911128D01*
X267555826Y-243911128D02*
X268270112Y-243911128D01*
X268841540Y-245411128D02*
X268841540Y-244411128D01*
X268841540Y-243911128D02*
X268770112Y-243982557D01*
X268770112Y-243982557D02*
X268841540Y-244053985D01*
X268841540Y-244053985D02*
X268912969Y-243982557D01*
X268912969Y-243982557D02*
X268841540Y-243911128D01*
X268841540Y-243911128D02*
X268841540Y-244053985D01*
X269770112Y-245411128D02*
X269627255Y-245339700D01*
X269627255Y-245339700D02*
X269555826Y-245196842D01*
X269555826Y-245196842D02*
X269555826Y-243911128D01*
X270912969Y-245339700D02*
X270770112Y-245411128D01*
X270770112Y-245411128D02*
X270484398Y-245411128D01*
X270484398Y-245411128D02*
X270341540Y-245339700D01*
X270341540Y-245339700D02*
X270270112Y-245196842D01*
X270270112Y-245196842D02*
X270270112Y-244625414D01*
X270270112Y-244625414D02*
X270341540Y-244482557D01*
X270341540Y-244482557D02*
X270484398Y-244411128D01*
X270484398Y-244411128D02*
X270770112Y-244411128D01*
X270770112Y-244411128D02*
X270912969Y-244482557D01*
X270912969Y-244482557D02*
X270984398Y-244625414D01*
X270984398Y-244625414D02*
X270984398Y-244768271D01*
X270984398Y-244768271D02*
X270270112Y-244911128D01*
X271627254Y-245268271D02*
X271698683Y-245339700D01*
X271698683Y-245339700D02*
X271627254Y-245411128D01*
X271627254Y-245411128D02*
X271555826Y-245339700D01*
X271555826Y-245339700D02*
X271627254Y-245268271D01*
X271627254Y-245268271D02*
X271627254Y-245411128D01*
X271627254Y-244482557D02*
X271698683Y-244553985D01*
X271698683Y-244553985D02*
X271627254Y-244625414D01*
X271627254Y-244625414D02*
X271555826Y-244553985D01*
X271555826Y-244553985D02*
X271627254Y-244482557D01*
X271627254Y-244482557D02*
X271627254Y-244625414D01*
X273484397Y-245411128D02*
X273484397Y-243911128D01*
X274127255Y-245411128D02*
X274127255Y-244625414D01*
X274127255Y-244625414D02*
X274055826Y-244482557D01*
X274055826Y-244482557D02*
X273912969Y-244411128D01*
X273912969Y-244411128D02*
X273698683Y-244411128D01*
X273698683Y-244411128D02*
X273555826Y-244482557D01*
X273555826Y-244482557D02*
X273484397Y-244553985D01*
X275412969Y-245339700D02*
X275270112Y-245411128D01*
X275270112Y-245411128D02*
X274984398Y-245411128D01*
X274984398Y-245411128D02*
X274841540Y-245339700D01*
X274841540Y-245339700D02*
X274770112Y-245196842D01*
X274770112Y-245196842D02*
X274770112Y-244625414D01*
X274770112Y-244625414D02*
X274841540Y-244482557D01*
X274841540Y-244482557D02*
X274984398Y-244411128D01*
X274984398Y-244411128D02*
X275270112Y-244411128D01*
X275270112Y-244411128D02*
X275412969Y-244482557D01*
X275412969Y-244482557D02*
X275484398Y-244625414D01*
X275484398Y-244625414D02*
X275484398Y-244768271D01*
X275484398Y-244768271D02*
X274770112Y-244911128D01*
X276341540Y-245411128D02*
X276198683Y-245339700D01*
X276198683Y-245339700D02*
X276127254Y-245196842D01*
X276127254Y-245196842D02*
X276127254Y-243911128D01*
X277127254Y-245411128D02*
X276984397Y-245339700D01*
X276984397Y-245339700D02*
X276912968Y-245196842D01*
X276912968Y-245196842D02*
X276912968Y-243911128D01*
X278270111Y-245339700D02*
X278127254Y-245411128D01*
X278127254Y-245411128D02*
X277841540Y-245411128D01*
X277841540Y-245411128D02*
X277698682Y-245339700D01*
X277698682Y-245339700D02*
X277627254Y-245196842D01*
X277627254Y-245196842D02*
X277627254Y-244625414D01*
X277627254Y-244625414D02*
X277698682Y-244482557D01*
X277698682Y-244482557D02*
X277841540Y-244411128D01*
X277841540Y-244411128D02*
X278127254Y-244411128D01*
X278127254Y-244411128D02*
X278270111Y-244482557D01*
X278270111Y-244482557D02*
X278341540Y-244625414D01*
X278341540Y-244625414D02*
X278341540Y-244768271D01*
X278341540Y-244768271D02*
X277627254Y-244911128D01*
X278984396Y-244411128D02*
X278984396Y-245411128D01*
X278984396Y-244553985D02*
X279055825Y-244482557D01*
X279055825Y-244482557D02*
X279198682Y-244411128D01*
X279198682Y-244411128D02*
X279412968Y-244411128D01*
X279412968Y-244411128D02*
X279555825Y-244482557D01*
X279555825Y-244482557D02*
X279627254Y-244625414D01*
X279627254Y-244625414D02*
X279627254Y-245411128D01*
X281127254Y-245411128D02*
X280270111Y-245411128D01*
X280698682Y-245411128D02*
X280698682Y-243911128D01*
X280698682Y-243911128D02*
X280555825Y-244125414D01*
X280555825Y-244125414D02*
X280412968Y-244268271D01*
X280412968Y-244268271D02*
X280270111Y-244339700D01*
X281698682Y-244053985D02*
X281770110Y-243982557D01*
X281770110Y-243982557D02*
X281912968Y-243911128D01*
X281912968Y-243911128D02*
X282270110Y-243911128D01*
X282270110Y-243911128D02*
X282412968Y-243982557D01*
X282412968Y-243982557D02*
X282484396Y-244053985D01*
X282484396Y-244053985D02*
X282555825Y-244196842D01*
X282555825Y-244196842D02*
X282555825Y-244339700D01*
X282555825Y-244339700D02*
X282484396Y-244553985D01*
X282484396Y-244553985D02*
X281627253Y-245411128D01*
X281627253Y-245411128D02*
X282555825Y-245411128D01*
X283984396Y-245411128D02*
X283127253Y-245411128D01*
X283555824Y-245411128D02*
X283555824Y-243911128D01*
X283555824Y-243911128D02*
X283412967Y-244125414D01*
X283412967Y-244125414D02*
X283270110Y-244268271D01*
X283270110Y-244268271D02*
X283127253Y-244339700D01*
X284484395Y-244411128D02*
X284841538Y-245411128D01*
X284841538Y-245411128D02*
X285198681Y-244411128D01*
X286412967Y-245411128D02*
X286412967Y-244625414D01*
X286412967Y-244625414D02*
X286341538Y-244482557D01*
X286341538Y-244482557D02*
X286198681Y-244411128D01*
X286198681Y-244411128D02*
X285912967Y-244411128D01*
X285912967Y-244411128D02*
X285770109Y-244482557D01*
X286412967Y-245339700D02*
X286270109Y-245411128D01*
X286270109Y-245411128D02*
X285912967Y-245411128D01*
X285912967Y-245411128D02*
X285770109Y-245339700D01*
X285770109Y-245339700D02*
X285698681Y-245196842D01*
X285698681Y-245196842D02*
X285698681Y-245053985D01*
X285698681Y-245053985D02*
X285770109Y-244911128D01*
X285770109Y-244911128D02*
X285912967Y-244839700D01*
X285912967Y-244839700D02*
X286270109Y-244839700D01*
X286270109Y-244839700D02*
X286412967Y-244768271D01*
X287770110Y-244411128D02*
X287770110Y-245625414D01*
X287770110Y-245625414D02*
X287698681Y-245768271D01*
X287698681Y-245768271D02*
X287627252Y-245839700D01*
X287627252Y-245839700D02*
X287484395Y-245911128D01*
X287484395Y-245911128D02*
X287270110Y-245911128D01*
X287270110Y-245911128D02*
X287127252Y-245839700D01*
X287770110Y-245339700D02*
X287627252Y-245411128D01*
X287627252Y-245411128D02*
X287341538Y-245411128D01*
X287341538Y-245411128D02*
X287198681Y-245339700D01*
X287198681Y-245339700D02*
X287127252Y-245268271D01*
X287127252Y-245268271D02*
X287055824Y-245125414D01*
X287055824Y-245125414D02*
X287055824Y-244696842D01*
X287055824Y-244696842D02*
X287127252Y-244553985D01*
X287127252Y-244553985D02*
X287198681Y-244482557D01*
X287198681Y-244482557D02*
X287341538Y-244411128D01*
X287341538Y-244411128D02*
X287627252Y-244411128D01*
X287627252Y-244411128D02*
X287770110Y-244482557D01*
X288484395Y-245268271D02*
X288555824Y-245339700D01*
X288555824Y-245339700D02*
X288484395Y-245411128D01*
X288484395Y-245411128D02*
X288412967Y-245339700D01*
X288412967Y-245339700D02*
X288484395Y-245268271D01*
X288484395Y-245268271D02*
X288484395Y-245411128D01*
X289198681Y-245411128D02*
X289198681Y-243911128D01*
X289341539Y-244839700D02*
X289770110Y-245411128D01*
X289770110Y-244411128D02*
X289198681Y-244982557D01*
X290412967Y-245411128D02*
X290412967Y-244411128D01*
X290412967Y-243911128D02*
X290341539Y-243982557D01*
X290341539Y-243982557D02*
X290412967Y-244053985D01*
X290412967Y-244053985D02*
X290484396Y-243982557D01*
X290484396Y-243982557D02*
X290412967Y-243911128D01*
X290412967Y-243911128D02*
X290412967Y-244053985D01*
X291770111Y-245339700D02*
X291627253Y-245411128D01*
X291627253Y-245411128D02*
X291341539Y-245411128D01*
X291341539Y-245411128D02*
X291198682Y-245339700D01*
X291198682Y-245339700D02*
X291127253Y-245268271D01*
X291127253Y-245268271D02*
X291055825Y-245125414D01*
X291055825Y-245125414D02*
X291055825Y-244696842D01*
X291055825Y-244696842D02*
X291127253Y-244553985D01*
X291127253Y-244553985D02*
X291198682Y-244482557D01*
X291198682Y-244482557D02*
X291341539Y-244411128D01*
X291341539Y-244411128D02*
X291627253Y-244411128D01*
X291627253Y-244411128D02*
X291770111Y-244482557D01*
X293055825Y-245411128D02*
X293055825Y-244625414D01*
X293055825Y-244625414D02*
X292984396Y-244482557D01*
X292984396Y-244482557D02*
X292841539Y-244411128D01*
X292841539Y-244411128D02*
X292555825Y-244411128D01*
X292555825Y-244411128D02*
X292412967Y-244482557D01*
X293055825Y-245339700D02*
X292912967Y-245411128D01*
X292912967Y-245411128D02*
X292555825Y-245411128D01*
X292555825Y-245411128D02*
X292412967Y-245339700D01*
X292412967Y-245339700D02*
X292341539Y-245196842D01*
X292341539Y-245196842D02*
X292341539Y-245053985D01*
X292341539Y-245053985D02*
X292412967Y-244911128D01*
X292412967Y-244911128D02*
X292555825Y-244839700D01*
X292555825Y-244839700D02*
X292912967Y-244839700D01*
X292912967Y-244839700D02*
X293055825Y-244768271D01*
X294412968Y-245411128D02*
X294412968Y-243911128D01*
X294412968Y-245339700D02*
X294270110Y-245411128D01*
X294270110Y-245411128D02*
X293984396Y-245411128D01*
X293984396Y-245411128D02*
X293841539Y-245339700D01*
X293841539Y-245339700D02*
X293770110Y-245268271D01*
X293770110Y-245268271D02*
X293698682Y-245125414D01*
X293698682Y-245125414D02*
X293698682Y-244696842D01*
X293698682Y-244696842D02*
X293770110Y-244553985D01*
X293770110Y-244553985D02*
X293841539Y-244482557D01*
X293841539Y-244482557D02*
X293984396Y-244411128D01*
X293984396Y-244411128D02*
X294270110Y-244411128D01*
X294270110Y-244411128D02*
X294412968Y-244482557D01*
X294770111Y-245553985D02*
X295912968Y-245553985D01*
X296270110Y-244411128D02*
X296270110Y-245911128D01*
X296270110Y-244482557D02*
X296412968Y-244411128D01*
X296412968Y-244411128D02*
X296698682Y-244411128D01*
X296698682Y-244411128D02*
X296841539Y-244482557D01*
X296841539Y-244482557D02*
X296912968Y-244553985D01*
X296912968Y-244553985D02*
X296984396Y-244696842D01*
X296984396Y-244696842D02*
X296984396Y-245125414D01*
X296984396Y-245125414D02*
X296912968Y-245268271D01*
X296912968Y-245268271D02*
X296841539Y-245339700D01*
X296841539Y-245339700D02*
X296698682Y-245411128D01*
X296698682Y-245411128D02*
X296412968Y-245411128D01*
X296412968Y-245411128D02*
X296270110Y-245339700D01*
X298270111Y-245339700D02*
X298127253Y-245411128D01*
X298127253Y-245411128D02*
X297841539Y-245411128D01*
X297841539Y-245411128D02*
X297698682Y-245339700D01*
X297698682Y-245339700D02*
X297627253Y-245268271D01*
X297627253Y-245268271D02*
X297555825Y-245125414D01*
X297555825Y-245125414D02*
X297555825Y-244696842D01*
X297555825Y-244696842D02*
X297627253Y-244553985D01*
X297627253Y-244553985D02*
X297698682Y-244482557D01*
X297698682Y-244482557D02*
X297841539Y-244411128D01*
X297841539Y-244411128D02*
X298127253Y-244411128D01*
X298127253Y-244411128D02*
X298270111Y-244482557D01*
X298912967Y-245411128D02*
X298912967Y-243911128D01*
X298912967Y-244482557D02*
X299055825Y-244411128D01*
X299055825Y-244411128D02*
X299341539Y-244411128D01*
X299341539Y-244411128D02*
X299484396Y-244482557D01*
X299484396Y-244482557D02*
X299555825Y-244553985D01*
X299555825Y-244553985D02*
X299627253Y-244696842D01*
X299627253Y-244696842D02*
X299627253Y-245125414D01*
X299627253Y-245125414D02*
X299555825Y-245268271D01*
X299555825Y-245268271D02*
X299484396Y-245339700D01*
X299484396Y-245339700D02*
X299341539Y-245411128D01*
X299341539Y-245411128D02*
X299055825Y-245411128D01*
X299055825Y-245411128D02*
X298912967Y-245339700D01*
D10*
D11*
X266100000Y-240525000D02*
X374100000Y-240525000D01*
D10*
D11*
X267484398Y-242639700D02*
X267698684Y-242711128D01*
X267698684Y-242711128D02*
X268055826Y-242711128D01*
X268055826Y-242711128D02*
X268198684Y-242639700D01*
X268198684Y-242639700D02*
X268270112Y-242568271D01*
X268270112Y-242568271D02*
X268341541Y-242425414D01*
X268341541Y-242425414D02*
X268341541Y-242282557D01*
X268341541Y-242282557D02*
X268270112Y-242139700D01*
X268270112Y-242139700D02*
X268198684Y-242068271D01*
X268198684Y-242068271D02*
X268055826Y-241996842D01*
X268055826Y-241996842D02*
X267770112Y-241925414D01*
X267770112Y-241925414D02*
X267627255Y-241853985D01*
X267627255Y-241853985D02*
X267555826Y-241782557D01*
X267555826Y-241782557D02*
X267484398Y-241639700D01*
X267484398Y-241639700D02*
X267484398Y-241496842D01*
X267484398Y-241496842D02*
X267555826Y-241353985D01*
X267555826Y-241353985D02*
X267627255Y-241282557D01*
X267627255Y-241282557D02*
X267770112Y-241211128D01*
X267770112Y-241211128D02*
X268127255Y-241211128D01*
X268127255Y-241211128D02*
X268341541Y-241282557D01*
X268984397Y-242711128D02*
X268984397Y-241211128D01*
X269627255Y-242711128D02*
X269627255Y-241925414D01*
X269627255Y-241925414D02*
X269555826Y-241782557D01*
X269555826Y-241782557D02*
X269412969Y-241711128D01*
X269412969Y-241711128D02*
X269198683Y-241711128D01*
X269198683Y-241711128D02*
X269055826Y-241782557D01*
X269055826Y-241782557D02*
X268984397Y-241853985D01*
X270912969Y-242639700D02*
X270770112Y-242711128D01*
X270770112Y-242711128D02*
X270484398Y-242711128D01*
X270484398Y-242711128D02*
X270341540Y-242639700D01*
X270341540Y-242639700D02*
X270270112Y-242496842D01*
X270270112Y-242496842D02*
X270270112Y-241925414D01*
X270270112Y-241925414D02*
X270341540Y-241782557D01*
X270341540Y-241782557D02*
X270484398Y-241711128D01*
X270484398Y-241711128D02*
X270770112Y-241711128D01*
X270770112Y-241711128D02*
X270912969Y-241782557D01*
X270912969Y-241782557D02*
X270984398Y-241925414D01*
X270984398Y-241925414D02*
X270984398Y-242068271D01*
X270984398Y-242068271D02*
X270270112Y-242211128D01*
X272198683Y-242639700D02*
X272055826Y-242711128D01*
X272055826Y-242711128D02*
X271770112Y-242711128D01*
X271770112Y-242711128D02*
X271627254Y-242639700D01*
X271627254Y-242639700D02*
X271555826Y-242496842D01*
X271555826Y-242496842D02*
X271555826Y-241925414D01*
X271555826Y-241925414D02*
X271627254Y-241782557D01*
X271627254Y-241782557D02*
X271770112Y-241711128D01*
X271770112Y-241711128D02*
X272055826Y-241711128D01*
X272055826Y-241711128D02*
X272198683Y-241782557D01*
X272198683Y-241782557D02*
X272270112Y-241925414D01*
X272270112Y-241925414D02*
X272270112Y-242068271D01*
X272270112Y-242068271D02*
X271555826Y-242211128D01*
X272698683Y-241711128D02*
X273270111Y-241711128D01*
X272912968Y-241211128D02*
X272912968Y-242496842D01*
X272912968Y-242496842D02*
X272984397Y-242639700D01*
X272984397Y-242639700D02*
X273127254Y-242711128D01*
X273127254Y-242711128D02*
X273270111Y-242711128D01*
X273770111Y-242568271D02*
X273841540Y-242639700D01*
X273841540Y-242639700D02*
X273770111Y-242711128D01*
X273770111Y-242711128D02*
X273698683Y-242639700D01*
X273698683Y-242639700D02*
X273770111Y-242568271D01*
X273770111Y-242568271D02*
X273770111Y-242711128D01*
X273770111Y-241782557D02*
X273841540Y-241853985D01*
X273841540Y-241853985D02*
X273770111Y-241925414D01*
X273770111Y-241925414D02*
X273698683Y-241853985D01*
X273698683Y-241853985D02*
X273770111Y-241782557D01*
X273770111Y-241782557D02*
X273770111Y-241925414D01*
D10*
D12*
X268297368Y-239703328D02*
X268297368Y-238917614D01*
X268297368Y-238917614D02*
X268225939Y-238774757D01*
X268225939Y-238774757D02*
X268083082Y-238703328D01*
X268083082Y-238703328D02*
X267797368Y-238703328D01*
X267797368Y-238703328D02*
X267654510Y-238774757D01*
X268297368Y-239631900D02*
X268154510Y-239703328D01*
X268154510Y-239703328D02*
X267797368Y-239703328D01*
X267797368Y-239703328D02*
X267654510Y-239631900D01*
X267654510Y-239631900D02*
X267583082Y-239489042D01*
X267583082Y-239489042D02*
X267583082Y-239346185D01*
X267583082Y-239346185D02*
X267654510Y-239203328D01*
X267654510Y-239203328D02*
X267797368Y-239131900D01*
X267797368Y-239131900D02*
X268154510Y-239131900D01*
X268154510Y-239131900D02*
X268297368Y-239060471D01*
X269011653Y-238703328D02*
X269011653Y-239703328D01*
X269011653Y-238846185D02*
X269083082Y-238774757D01*
X269083082Y-238774757D02*
X269225939Y-238703328D01*
X269225939Y-238703328D02*
X269440225Y-238703328D01*
X269440225Y-238703328D02*
X269583082Y-238774757D01*
X269583082Y-238774757D02*
X269654511Y-238917614D01*
X269654511Y-238917614D02*
X269654511Y-239703328D01*
X271011654Y-239703328D02*
X271011654Y-238203328D01*
X271011654Y-239631900D02*
X270868796Y-239703328D01*
X270868796Y-239703328D02*
X270583082Y-239703328D01*
X270583082Y-239703328D02*
X270440225Y-239631900D01*
X270440225Y-239631900D02*
X270368796Y-239560471D01*
X270368796Y-239560471D02*
X270297368Y-239417614D01*
X270297368Y-239417614D02*
X270297368Y-238989042D01*
X270297368Y-238989042D02*
X270368796Y-238846185D01*
X270368796Y-238846185D02*
X270440225Y-238774757D01*
X270440225Y-238774757D02*
X270583082Y-238703328D01*
X270583082Y-238703328D02*
X270868796Y-238703328D01*
X270868796Y-238703328D02*
X271011654Y-238774757D01*
X271725939Y-239703328D02*
X271725939Y-238703328D01*
X271725939Y-238989042D02*
X271797368Y-238846185D01*
X271797368Y-238846185D02*
X271868797Y-238774757D01*
X271868797Y-238774757D02*
X272011654Y-238703328D01*
X272011654Y-238703328D02*
X272154511Y-238703328D01*
X273225939Y-239631900D02*
X273083082Y-239703328D01*
X273083082Y-239703328D02*
X272797368Y-239703328D01*
X272797368Y-239703328D02*
X272654510Y-239631900D01*
X272654510Y-239631900D02*
X272583082Y-239489042D01*
X272583082Y-239489042D02*
X272583082Y-238917614D01*
X272583082Y-238917614D02*
X272654510Y-238774757D01*
X272654510Y-238774757D02*
X272797368Y-238703328D01*
X272797368Y-238703328D02*
X273083082Y-238703328D01*
X273083082Y-238703328D02*
X273225939Y-238774757D01*
X273225939Y-238774757D02*
X273297368Y-238917614D01*
X273297368Y-238917614D02*
X273297368Y-239060471D01*
X273297368Y-239060471D02*
X272583082Y-239203328D01*
X273940224Y-239703328D02*
X273940224Y-238703328D01*
X273940224Y-238203328D02*
X273868796Y-238274757D01*
X273868796Y-238274757D02*
X273940224Y-238346185D01*
X273940224Y-238346185D02*
X274011653Y-238274757D01*
X274011653Y-238274757D02*
X273940224Y-238203328D01*
X273940224Y-238203328D02*
X273940224Y-238346185D01*
X274654510Y-239703328D02*
X274654510Y-238203328D01*
X274797368Y-239131900D02*
X275225939Y-239703328D01*
X275225939Y-238703328D02*
X274654510Y-239274757D01*
X276511654Y-239703328D02*
X276511654Y-238917614D01*
X276511654Y-238917614D02*
X276440225Y-238774757D01*
X276440225Y-238774757D02*
X276297368Y-238703328D01*
X276297368Y-238703328D02*
X276011654Y-238703328D01*
X276011654Y-238703328D02*
X275868796Y-238774757D01*
X276511654Y-239631900D02*
X276368796Y-239703328D01*
X276368796Y-239703328D02*
X276011654Y-239703328D01*
X276011654Y-239703328D02*
X275868796Y-239631900D01*
X275868796Y-239631900D02*
X275797368Y-239489042D01*
X275797368Y-239489042D02*
X275797368Y-239346185D01*
X275797368Y-239346185D02*
X275868796Y-239203328D01*
X275868796Y-239203328D02*
X276011654Y-239131900D01*
X276011654Y-239131900D02*
X276368796Y-239131900D01*
X276368796Y-239131900D02*
X276511654Y-239060471D01*
X279297368Y-238989042D02*
X279225939Y-238917614D01*
X279225939Y-238917614D02*
X279083082Y-238846185D01*
X279083082Y-238846185D02*
X278940225Y-238846185D01*
X278940225Y-238846185D02*
X278797368Y-238917614D01*
X278797368Y-238917614D02*
X278725939Y-238989042D01*
X278725939Y-238989042D02*
X278654511Y-239131900D01*
X278654511Y-239131900D02*
X278654511Y-239274757D01*
X278654511Y-239274757D02*
X278725939Y-239417614D01*
X278725939Y-239417614D02*
X278797368Y-239489042D01*
X278797368Y-239489042D02*
X278940225Y-239560471D01*
X278940225Y-239560471D02*
X279083082Y-239560471D01*
X279083082Y-239560471D02*
X279225939Y-239489042D01*
X279225939Y-239489042D02*
X279297368Y-239417614D01*
X279297368Y-238846185D02*
X279297368Y-239417614D01*
X279297368Y-239417614D02*
X279368796Y-239489042D01*
X279368796Y-239489042D02*
X279440225Y-239489042D01*
X279440225Y-239489042D02*
X279583082Y-239417614D01*
X279583082Y-239417614D02*
X279654511Y-239274757D01*
X279654511Y-239274757D02*
X279654511Y-238917614D01*
X279654511Y-238917614D02*
X279511654Y-238703328D01*
X279511654Y-238703328D02*
X279297368Y-238560471D01*
X279297368Y-238560471D02*
X279011654Y-238489042D01*
X279011654Y-238489042D02*
X278725939Y-238560471D01*
X278725939Y-238560471D02*
X278511654Y-238703328D01*
X278511654Y-238703328D02*
X278368796Y-238917614D01*
X278368796Y-238917614D02*
X278297368Y-239203328D01*
X278297368Y-239203328D02*
X278368796Y-239489042D01*
X278368796Y-239489042D02*
X278511654Y-239703328D01*
X278511654Y-239703328D02*
X278725939Y-239846185D01*
X278725939Y-239846185D02*
X279011654Y-239917614D01*
X279011654Y-239917614D02*
X279297368Y-239846185D01*
X279297368Y-239846185D02*
X279511654Y-239703328D01*
X281440224Y-239703328D02*
X281440224Y-238703328D01*
X281440224Y-238989042D02*
X281511653Y-238846185D01*
X281511653Y-238846185D02*
X281583082Y-238774757D01*
X281583082Y-238774757D02*
X281725939Y-238703328D01*
X281725939Y-238703328D02*
X281868796Y-238703328D01*
X283011653Y-238703328D02*
X283011653Y-239703328D01*
X282368795Y-238703328D02*
X282368795Y-239489042D01*
X282368795Y-239489042D02*
X282440224Y-239631900D01*
X282440224Y-239631900D02*
X282583081Y-239703328D01*
X282583081Y-239703328D02*
X282797367Y-239703328D01*
X282797367Y-239703328D02*
X282940224Y-239631900D01*
X282940224Y-239631900D02*
X283011653Y-239560471D01*
X283654510Y-239631900D02*
X283797367Y-239703328D01*
X283797367Y-239703328D02*
X284083081Y-239703328D01*
X284083081Y-239703328D02*
X284225938Y-239631900D01*
X284225938Y-239631900D02*
X284297367Y-239489042D01*
X284297367Y-239489042D02*
X284297367Y-239417614D01*
X284297367Y-239417614D02*
X284225938Y-239274757D01*
X284225938Y-239274757D02*
X284083081Y-239203328D01*
X284083081Y-239203328D02*
X283868796Y-239203328D01*
X283868796Y-239203328D02*
X283725938Y-239131900D01*
X283725938Y-239131900D02*
X283654510Y-238989042D01*
X283654510Y-238989042D02*
X283654510Y-238917614D01*
X283654510Y-238917614D02*
X283725938Y-238774757D01*
X283725938Y-238774757D02*
X283868796Y-238703328D01*
X283868796Y-238703328D02*
X284083081Y-238703328D01*
X284083081Y-238703328D02*
X284225938Y-238774757D01*
X284940224Y-238917614D02*
X285440224Y-238917614D01*
X285654510Y-239703328D02*
X284940224Y-239703328D01*
X284940224Y-239703328D02*
X284940224Y-238203328D01*
X284940224Y-238203328D02*
X285654510Y-238203328D01*
X286797367Y-238917614D02*
X286297367Y-238917614D01*
X286297367Y-239703328D02*
X286297367Y-238203328D01*
X286297367Y-238203328D02*
X287011653Y-238203328D01*
X287583081Y-239703328D02*
X287583081Y-238203328D01*
X288297367Y-239560471D02*
X288368796Y-239631900D01*
X288368796Y-239631900D02*
X288297367Y-239703328D01*
X288297367Y-239703328D02*
X288225939Y-239631900D01*
X288225939Y-239631900D02*
X288297367Y-239560471D01*
X288297367Y-239560471D02*
X288297367Y-239703328D01*
X289654511Y-239631900D02*
X289511653Y-239703328D01*
X289511653Y-239703328D02*
X289225939Y-239703328D01*
X289225939Y-239703328D02*
X289083082Y-239631900D01*
X289083082Y-239631900D02*
X289011653Y-239560471D01*
X289011653Y-239560471D02*
X288940225Y-239417614D01*
X288940225Y-239417614D02*
X288940225Y-238989042D01*
X288940225Y-238989042D02*
X289011653Y-238846185D01*
X289011653Y-238846185D02*
X289083082Y-238774757D01*
X289083082Y-238774757D02*
X289225939Y-238703328D01*
X289225939Y-238703328D02*
X289511653Y-238703328D01*
X289511653Y-238703328D02*
X289654511Y-238774757D01*
X290511653Y-239703328D02*
X290368796Y-239631900D01*
X290368796Y-239631900D02*
X290297367Y-239560471D01*
X290297367Y-239560471D02*
X290225939Y-239417614D01*
X290225939Y-239417614D02*
X290225939Y-238989042D01*
X290225939Y-238989042D02*
X290297367Y-238846185D01*
X290297367Y-238846185D02*
X290368796Y-238774757D01*
X290368796Y-238774757D02*
X290511653Y-238703328D01*
X290511653Y-238703328D02*
X290725939Y-238703328D01*
X290725939Y-238703328D02*
X290868796Y-238774757D01*
X290868796Y-238774757D02*
X290940225Y-238846185D01*
X290940225Y-238846185D02*
X291011653Y-238989042D01*
X291011653Y-238989042D02*
X291011653Y-239417614D01*
X291011653Y-239417614D02*
X290940225Y-239560471D01*
X290940225Y-239560471D02*
X290868796Y-239631900D01*
X290868796Y-239631900D02*
X290725939Y-239703328D01*
X290725939Y-239703328D02*
X290511653Y-239703328D01*
X291654510Y-239703328D02*
X291654510Y-238703328D01*
X291654510Y-238846185D02*
X291725939Y-238774757D01*
X291725939Y-238774757D02*
X291868796Y-238703328D01*
X291868796Y-238703328D02*
X292083082Y-238703328D01*
X292083082Y-238703328D02*
X292225939Y-238774757D01*
X292225939Y-238774757D02*
X292297368Y-238917614D01*
X292297368Y-238917614D02*
X292297368Y-239703328D01*
X292297368Y-238917614D02*
X292368796Y-238774757D01*
X292368796Y-238774757D02*
X292511653Y-238703328D01*
X292511653Y-238703328D02*
X292725939Y-238703328D01*
X292725939Y-238703328D02*
X292868796Y-238774757D01*
X292868796Y-238774757D02*
X292940225Y-238917614D01*
X292940225Y-238917614D02*
X292940225Y-239703328D01*
D10*
D11*
X286100000Y-250525000D02*
X286100000Y-253525000D01*
D10*
D11*
X350100000Y-250525000D02*
X350100000Y-257025000D01*
D14*
X100461978Y52963153D02*
X100188644Y53353629D01*
X99993406Y52963153D02*
X99993406Y53783154D01*
X99993406Y53783154D02*
X100305787Y53783154D01*
X100305787Y53783154D02*
X100383883Y53744106D01*
X100383883Y53744106D02*
X100422930Y53705058D01*
X100422930Y53705058D02*
X100461978Y53626963D01*
X100461978Y53626963D02*
X100461978Y53509820D01*
X100461978Y53509820D02*
X100422930Y53431725D01*
X100422930Y53431725D02*
X100383883Y53392677D01*
X100383883Y53392677D02*
X100305787Y53353629D01*
X100305787Y53353629D02*
X99993406Y53353629D01*
X101242931Y52963153D02*
X100774359Y52963153D01*
X101008645Y52963153D02*
X101008645Y53783154D01*
X101008645Y53783154D02*
X100930550Y53666011D01*
X100930550Y53666011D02*
X100852455Y53587915D01*
X100852455Y53587915D02*
X100774359Y53548868D01*
X101555312Y53705058D02*
X101594360Y53744106D01*
X101594360Y53744106D02*
X101672455Y53783154D01*
X101672455Y53783154D02*
X101867694Y53783154D01*
X101867694Y53783154D02*
X101945789Y53744106D01*
X101945789Y53744106D02*
X101984837Y53705058D01*
X101984837Y53705058D02*
X102023884Y53626963D01*
X102023884Y53626963D02*
X102023884Y53548868D01*
X102023884Y53548868D02*
X101984837Y53431725D01*
X101984837Y53431725D02*
X101516265Y52963153D01*
X101516265Y52963153D02*
X102023884Y52963153D01*
D11*
X38754819Y76995834D02*
X38754819Y76519644D01*
X38754819Y76519644D02*
X37754819Y76519644D01*
X37850057Y77281549D02*
X37802438Y77329168D01*
X37802438Y77329168D02*
X37754819Y77424406D01*
X37754819Y77424406D02*
X37754819Y77662501D01*
X37754819Y77662501D02*
X37802438Y77757739D01*
X37802438Y77757739D02*
X37850057Y77805358D01*
X37850057Y77805358D02*
X37945295Y77852977D01*
X37945295Y77852977D02*
X38040533Y77852977D01*
X38040533Y77852977D02*
X38183390Y77805358D01*
X38183390Y77805358D02*
X38754819Y77233930D01*
X38754819Y77233930D02*
X38754819Y77852977D01*
X80130057Y70344762D02*
X80082438Y70249524D01*
X80082438Y70249524D02*
X79987200Y70154286D01*
X79987200Y70154286D02*
X79844342Y70011429D01*
X79844342Y70011429D02*
X79796723Y69916191D01*
X79796723Y69916191D02*
X79796723Y69820953D01*
X80034819Y69868572D02*
X79987200Y69773334D01*
X79987200Y69773334D02*
X79891961Y69678096D01*
X79891961Y69678096D02*
X79701485Y69630477D01*
X79701485Y69630477D02*
X79368152Y69630477D01*
X79368152Y69630477D02*
X79177676Y69678096D01*
X79177676Y69678096D02*
X79082438Y69773334D01*
X79082438Y69773334D02*
X79034819Y69868572D01*
X79034819Y69868572D02*
X79034819Y70059048D01*
X79034819Y70059048D02*
X79082438Y70154286D01*
X79082438Y70154286D02*
X79177676Y70249524D01*
X79177676Y70249524D02*
X79368152Y70297143D01*
X79368152Y70297143D02*
X79701485Y70297143D01*
X79701485Y70297143D02*
X79891961Y70249524D01*
X79891961Y70249524D02*
X79987200Y70154286D01*
X79987200Y70154286D02*
X80034819Y70059048D01*
X80034819Y70059048D02*
X80034819Y69868572D01*
X80034819Y71249524D02*
X80034819Y70678096D01*
X80034819Y70963810D02*
X79034819Y70963810D01*
X79034819Y70963810D02*
X79177676Y70868572D01*
X79177676Y70868572D02*
X79272914Y70773334D01*
X79272914Y70773334D02*
X79320533Y70678096D01*
X55545057Y70344762D02*
X55497438Y70249524D01*
X55497438Y70249524D02*
X55402200Y70154286D01*
X55402200Y70154286D02*
X55259342Y70011429D01*
X55259342Y70011429D02*
X55211723Y69916191D01*
X55211723Y69916191D02*
X55211723Y69820953D01*
X55449819Y69868572D02*
X55402200Y69773334D01*
X55402200Y69773334D02*
X55306961Y69678096D01*
X55306961Y69678096D02*
X55116485Y69630477D01*
X55116485Y69630477D02*
X54783152Y69630477D01*
X54783152Y69630477D02*
X54592676Y69678096D01*
X54592676Y69678096D02*
X54497438Y69773334D01*
X54497438Y69773334D02*
X54449819Y69868572D01*
X54449819Y69868572D02*
X54449819Y70059048D01*
X54449819Y70059048D02*
X54497438Y70154286D01*
X54497438Y70154286D02*
X54592676Y70249524D01*
X54592676Y70249524D02*
X54783152Y70297143D01*
X54783152Y70297143D02*
X55116485Y70297143D01*
X55116485Y70297143D02*
X55306961Y70249524D01*
X55306961Y70249524D02*
X55402200Y70154286D01*
X55402200Y70154286D02*
X55449819Y70059048D01*
X55449819Y70059048D02*
X55449819Y69868572D01*
X54783152Y71154286D02*
X55449819Y71154286D01*
X54402200Y70916191D02*
X55116485Y70678096D01*
X55116485Y70678096D02*
X55116485Y71297143D01*
D14*
X37575652Y71802418D02*
X37536604Y71763370D01*
X37536604Y71763370D02*
X37419461Y71724323D01*
X37419461Y71724323D02*
X37341366Y71724323D01*
X37341366Y71724323D02*
X37224223Y71763370D01*
X37224223Y71763370D02*
X37146128Y71841466D01*
X37146128Y71841466D02*
X37107080Y71919561D01*
X37107080Y71919561D02*
X37068032Y72075752D01*
X37068032Y72075752D02*
X37068032Y72192895D01*
X37068032Y72192895D02*
X37107080Y72349085D01*
X37107080Y72349085D02*
X37146128Y72427181D01*
X37146128Y72427181D02*
X37224223Y72505276D01*
X37224223Y72505276D02*
X37341366Y72544324D01*
X37341366Y72544324D02*
X37419461Y72544324D01*
X37419461Y72544324D02*
X37536604Y72505276D01*
X37536604Y72505276D02*
X37575652Y72466228D01*
X37888033Y72466228D02*
X37927081Y72505276D01*
X37927081Y72505276D02*
X38005176Y72544324D01*
X38005176Y72544324D02*
X38200415Y72544324D01*
X38200415Y72544324D02*
X38278510Y72505276D01*
X38278510Y72505276D02*
X38317558Y72466228D01*
X38317558Y72466228D02*
X38356605Y72388133D01*
X38356605Y72388133D02*
X38356605Y72310038D01*
X38356605Y72310038D02*
X38317558Y72192895D01*
X38317558Y72192895D02*
X37848986Y71724323D01*
X37848986Y71724323D02*
X38356605Y71724323D01*
X38825177Y72192895D02*
X38747082Y72231942D01*
X38747082Y72231942D02*
X38708034Y72270990D01*
X38708034Y72270990D02*
X38668986Y72349085D01*
X38668986Y72349085D02*
X38668986Y72388133D01*
X38668986Y72388133D02*
X38708034Y72466228D01*
X38708034Y72466228D02*
X38747082Y72505276D01*
X38747082Y72505276D02*
X38825177Y72544324D01*
X38825177Y72544324D02*
X38981368Y72544324D01*
X38981368Y72544324D02*
X39059463Y72505276D01*
X39059463Y72505276D02*
X39098511Y72466228D01*
X39098511Y72466228D02*
X39137558Y72388133D01*
X39137558Y72388133D02*
X39137558Y72349085D01*
X39137558Y72349085D02*
X39098511Y72270990D01*
X39098511Y72270990D02*
X39059463Y72231942D01*
X39059463Y72231942D02*
X38981368Y72192895D01*
X38981368Y72192895D02*
X38825177Y72192895D01*
X38825177Y72192895D02*
X38747082Y72153847D01*
X38747082Y72153847D02*
X38708034Y72114799D01*
X38708034Y72114799D02*
X38668986Y72036704D01*
X38668986Y72036704D02*
X38668986Y71880513D01*
X38668986Y71880513D02*
X38708034Y71802418D01*
X38708034Y71802418D02*
X38747082Y71763370D01*
X38747082Y71763370D02*
X38825177Y71724323D01*
X38825177Y71724323D02*
X38981368Y71724323D01*
X38981368Y71724323D02*
X39059463Y71763370D01*
X39059463Y71763370D02*
X39098511Y71802418D01*
X39098511Y71802418D02*
X39137558Y71880513D01*
X39137558Y71880513D02*
X39137558Y72036704D01*
X39137558Y72036704D02*
X39098511Y72114799D01*
X39098511Y72114799D02*
X39059463Y72153847D01*
X39059463Y72153847D02*
X38981368Y72192895D01*
D11*
X44449819Y58113096D02*
X45259342Y58113096D01*
X45259342Y58113096D02*
X45354580Y58160715D01*
X45354580Y58160715D02*
X45402200Y58208334D01*
X45402200Y58208334D02*
X45449819Y58303572D01*
X45449819Y58303572D02*
X45449819Y58494048D01*
X45449819Y58494048D02*
X45402200Y58589286D01*
X45402200Y58589286D02*
X45354580Y58636905D01*
X45354580Y58636905D02*
X45259342Y58684524D01*
X45259342Y58684524D02*
X44449819Y58684524D01*
X44449819Y59065477D02*
X44449819Y59732143D01*
X44449819Y59732143D02*
X45449819Y59303572D01*
X118183258Y71780573D02*
X118183258Y71180573D01*
X118183258Y71180573D02*
X117983258Y71609144D01*
X117983258Y71609144D02*
X117783258Y71180573D01*
X117783258Y71180573D02*
X117783258Y71780573D01*
X117526116Y71237716D02*
X117497544Y71209144D01*
X117497544Y71209144D02*
X117440402Y71180573D01*
X117440402Y71180573D02*
X117297544Y71180573D01*
X117297544Y71180573D02*
X117240402Y71209144D01*
X117240402Y71209144D02*
X117211830Y71237716D01*
X117211830Y71237716D02*
X117183259Y71294859D01*
X117183259Y71294859D02*
X117183259Y71352001D01*
X117183259Y71352001D02*
X117211830Y71437716D01*
X117211830Y71437716D02*
X117554687Y71780573D01*
X117554687Y71780573D02*
X117183259Y71780573D01*
X139254819Y84976906D02*
X140064342Y84976906D01*
X140064342Y84976906D02*
X140159580Y85024525D01*
X140159580Y85024525D02*
X140207200Y85072144D01*
X140207200Y85072144D02*
X140254819Y85167382D01*
X140254819Y85167382D02*
X140254819Y85357858D01*
X140254819Y85357858D02*
X140207200Y85453096D01*
X140207200Y85453096D02*
X140159580Y85500715D01*
X140159580Y85500715D02*
X140064342Y85548334D01*
X140064342Y85548334D02*
X139254819Y85548334D01*
X140254819Y86548334D02*
X140254819Y85976906D01*
X140254819Y86262620D02*
X139254819Y86262620D01*
X139254819Y86262620D02*
X139397676Y86167382D01*
X139397676Y86167382D02*
X139492914Y86072144D01*
X139492914Y86072144D02*
X139540533Y85976906D01*
X139254819Y87167382D02*
X139254819Y87262620D01*
X139254819Y87262620D02*
X139302438Y87357858D01*
X139302438Y87357858D02*
X139350057Y87405477D01*
X139350057Y87405477D02*
X139445295Y87453096D01*
X139445295Y87453096D02*
X139635771Y87500715D01*
X139635771Y87500715D02*
X139873866Y87500715D01*
X139873866Y87500715D02*
X140064342Y87453096D01*
X140064342Y87453096D02*
X140159580Y87405477D01*
X140159580Y87405477D02*
X140207200Y87357858D01*
X140207200Y87357858D02*
X140254819Y87262620D01*
X140254819Y87262620D02*
X140254819Y87167382D01*
X140254819Y87167382D02*
X140207200Y87072144D01*
X140207200Y87072144D02*
X140159580Y87024525D01*
X140159580Y87024525D02*
X140064342Y86976906D01*
X140064342Y86976906D02*
X139873866Y86929287D01*
X139873866Y86929287D02*
X139635771Y86929287D01*
X139635771Y86929287D02*
X139445295Y86976906D01*
X139445295Y86976906D02*
X139350057Y87024525D01*
X139350057Y87024525D02*
X139302438Y87072144D01*
X139302438Y87072144D02*
X139254819Y87167382D01*
X43350057Y76279762D02*
X43302438Y76184524D01*
X43302438Y76184524D02*
X43207200Y76089286D01*
X43207200Y76089286D02*
X43064342Y75946429D01*
X43064342Y75946429D02*
X43016723Y75851191D01*
X43016723Y75851191D02*
X43016723Y75755953D01*
X43254819Y75803572D02*
X43207200Y75708334D01*
X43207200Y75708334D02*
X43111961Y75613096D01*
X43111961Y75613096D02*
X42921485Y75565477D01*
X42921485Y75565477D02*
X42588152Y75565477D01*
X42588152Y75565477D02*
X42397676Y75613096D01*
X42397676Y75613096D02*
X42302438Y75708334D01*
X42302438Y75708334D02*
X42254819Y75803572D01*
X42254819Y75803572D02*
X42254819Y75994048D01*
X42254819Y75994048D02*
X42302438Y76089286D01*
X42302438Y76089286D02*
X42397676Y76184524D01*
X42397676Y76184524D02*
X42588152Y76232143D01*
X42588152Y76232143D02*
X42921485Y76232143D01*
X42921485Y76232143D02*
X43111961Y76184524D01*
X43111961Y76184524D02*
X43207200Y76089286D01*
X43207200Y76089286D02*
X43254819Y75994048D01*
X43254819Y75994048D02*
X43254819Y75803572D01*
X42254819Y77089286D02*
X42254819Y76898810D01*
X42254819Y76898810D02*
X42302438Y76803572D01*
X42302438Y76803572D02*
X42350057Y76755953D01*
X42350057Y76755953D02*
X42492914Y76660715D01*
X42492914Y76660715D02*
X42683390Y76613096D01*
X42683390Y76613096D02*
X43064342Y76613096D01*
X43064342Y76613096D02*
X43159580Y76660715D01*
X43159580Y76660715D02*
X43207200Y76708334D01*
X43207200Y76708334D02*
X43254819Y76803572D01*
X43254819Y76803572D02*
X43254819Y76994048D01*
X43254819Y76994048D02*
X43207200Y77089286D01*
X43207200Y77089286D02*
X43159580Y77136905D01*
X43159580Y77136905D02*
X43064342Y77184524D01*
X43064342Y77184524D02*
X42826247Y77184524D01*
X42826247Y77184524D02*
X42731009Y77136905D01*
X42731009Y77136905D02*
X42683390Y77089286D01*
X42683390Y77089286D02*
X42635771Y76994048D01*
X42635771Y76994048D02*
X42635771Y76803572D01*
X42635771Y76803572D02*
X42683390Y76708334D01*
X42683390Y76708334D02*
X42731009Y76660715D01*
X42731009Y76660715D02*
X42826247Y76613096D01*
D14*
X35732466Y62447583D02*
X35771514Y62486630D01*
X35771514Y62486630D02*
X35888657Y62525678D01*
X35888657Y62525678D02*
X35966752Y62525678D01*
X35966752Y62525678D02*
X36083895Y62486630D01*
X36083895Y62486630D02*
X36161991Y62408535D01*
X36161991Y62408535D02*
X36201038Y62330440D01*
X36201038Y62330440D02*
X36240086Y62174249D01*
X36240086Y62174249D02*
X36240086Y62057106D01*
X36240086Y62057106D02*
X36201038Y61900915D01*
X36201038Y61900915D02*
X36161991Y61822820D01*
X36161991Y61822820D02*
X36083895Y61744725D01*
X36083895Y61744725D02*
X35966752Y61705677D01*
X35966752Y61705677D02*
X35888657Y61705677D01*
X35888657Y61705677D02*
X35771514Y61744725D01*
X35771514Y61744725D02*
X35732466Y61783772D01*
X35420085Y61783772D02*
X35381037Y61744725D01*
X35381037Y61744725D02*
X35302942Y61705677D01*
X35302942Y61705677D02*
X35107704Y61705677D01*
X35107704Y61705677D02*
X35029608Y61744725D01*
X35029608Y61744725D02*
X34990561Y61783772D01*
X34990561Y61783772D02*
X34951513Y61861868D01*
X34951513Y61861868D02*
X34951513Y61939963D01*
X34951513Y61939963D02*
X34990561Y62057106D01*
X34990561Y62057106D02*
X35459133Y62525678D01*
X35459133Y62525678D02*
X34951513Y62525678D01*
X34561037Y62525678D02*
X34404846Y62525678D01*
X34404846Y62525678D02*
X34326751Y62486630D01*
X34326751Y62486630D02*
X34287703Y62447583D01*
X34287703Y62447583D02*
X34209608Y62330440D01*
X34209608Y62330440D02*
X34170560Y62174249D01*
X34170560Y62174249D02*
X34170560Y61861868D01*
X34170560Y61861868D02*
X34209608Y61783772D01*
X34209608Y61783772D02*
X34248655Y61744725D01*
X34248655Y61744725D02*
X34326751Y61705677D01*
X34326751Y61705677D02*
X34482941Y61705677D01*
X34482941Y61705677D02*
X34561037Y61744725D01*
X34561037Y61744725D02*
X34600084Y61783772D01*
X34600084Y61783772D02*
X34639132Y61861868D01*
X34639132Y61861868D02*
X34639132Y62057106D01*
X34639132Y62057106D02*
X34600084Y62135201D01*
X34600084Y62135201D02*
X34561037Y62174249D01*
X34561037Y62174249D02*
X34482941Y62213297D01*
X34482941Y62213297D02*
X34326751Y62213297D01*
X34326751Y62213297D02*
X34248655Y62174249D01*
X34248655Y62174249D02*
X34209608Y62135201D01*
X34209608Y62135201D02*
X34170560Y62057106D01*
X35112712Y56150653D02*
X35151760Y56111605D01*
X35151760Y56111605D02*
X35190807Y55994462D01*
X35190807Y55994462D02*
X35190807Y55916367D01*
X35190807Y55916367D02*
X35151760Y55799224D01*
X35151760Y55799224D02*
X35073664Y55721128D01*
X35073664Y55721128D02*
X34995569Y55682081D01*
X34995569Y55682081D02*
X34839378Y55643033D01*
X34839378Y55643033D02*
X34722235Y55643033D01*
X34722235Y55643033D02*
X34566045Y55682081D01*
X34566045Y55682081D02*
X34487949Y55721128D01*
X34487949Y55721128D02*
X34409854Y55799224D01*
X34409854Y55799224D02*
X34370806Y55916367D01*
X34370806Y55916367D02*
X34370806Y55994462D01*
X34370806Y55994462D02*
X34409854Y56111605D01*
X34409854Y56111605D02*
X34448902Y56150653D01*
X34370806Y56423986D02*
X34370806Y56931606D01*
X34370806Y56931606D02*
X34683188Y56658272D01*
X34683188Y56658272D02*
X34683188Y56775415D01*
X34683188Y56775415D02*
X34722235Y56853511D01*
X34722235Y56853511D02*
X34761283Y56892558D01*
X34761283Y56892558D02*
X34839378Y56931606D01*
X34839378Y56931606D02*
X35034617Y56931606D01*
X35034617Y56931606D02*
X35112712Y56892558D01*
X35112712Y56892558D02*
X35151760Y56853511D01*
X35151760Y56853511D02*
X35190807Y56775415D01*
X35190807Y56775415D02*
X35190807Y56541129D01*
X35190807Y56541129D02*
X35151760Y56463034D01*
X35151760Y56463034D02*
X35112712Y56423986D01*
X35190807Y57712559D02*
X35190807Y57243987D01*
X35190807Y57478273D02*
X34370806Y57478273D01*
X34370806Y57478273D02*
X34487949Y57400178D01*
X34487949Y57400178D02*
X34566045Y57322082D01*
X34566045Y57322082D02*
X34605092Y57243987D01*
X103961978Y55963153D02*
X103688644Y56353629D01*
X103493406Y55963153D02*
X103493406Y56783154D01*
X103493406Y56783154D02*
X103805787Y56783154D01*
X103805787Y56783154D02*
X103883883Y56744106D01*
X103883883Y56744106D02*
X103922930Y56705058D01*
X103922930Y56705058D02*
X103961978Y56626963D01*
X103961978Y56626963D02*
X103961978Y56509820D01*
X103961978Y56509820D02*
X103922930Y56431725D01*
X103922930Y56431725D02*
X103883883Y56392677D01*
X103883883Y56392677D02*
X103805787Y56353629D01*
X103805787Y56353629D02*
X103493406Y56353629D01*
X104430550Y56431725D02*
X104352455Y56470772D01*
X104352455Y56470772D02*
X104313407Y56509820D01*
X104313407Y56509820D02*
X104274359Y56587915D01*
X104274359Y56587915D02*
X104274359Y56626963D01*
X104274359Y56626963D02*
X104313407Y56705058D01*
X104313407Y56705058D02*
X104352455Y56744106D01*
X104352455Y56744106D02*
X104430550Y56783154D01*
X104430550Y56783154D02*
X104586741Y56783154D01*
X104586741Y56783154D02*
X104664836Y56744106D01*
X104664836Y56744106D02*
X104703884Y56705058D01*
X104703884Y56705058D02*
X104742931Y56626963D01*
X104742931Y56626963D02*
X104742931Y56587915D01*
X104742931Y56587915D02*
X104703884Y56509820D01*
X104703884Y56509820D02*
X104664836Y56470772D01*
X104664836Y56470772D02*
X104586741Y56431725D01*
X104586741Y56431725D02*
X104430550Y56431725D01*
X104430550Y56431725D02*
X104352455Y56392677D01*
X104352455Y56392677D02*
X104313407Y56353629D01*
X104313407Y56353629D02*
X104274359Y56275534D01*
X104274359Y56275534D02*
X104274359Y56119343D01*
X104274359Y56119343D02*
X104313407Y56041248D01*
X104313407Y56041248D02*
X104352455Y56002200D01*
X104352455Y56002200D02*
X104430550Y55963153D01*
X104430550Y55963153D02*
X104586741Y55963153D01*
X104586741Y55963153D02*
X104664836Y56002200D01*
X104664836Y56002200D02*
X104703884Y56041248D01*
X104703884Y56041248D02*
X104742931Y56119343D01*
X104742931Y56119343D02*
X104742931Y56275534D01*
X104742931Y56275534D02*
X104703884Y56353629D01*
X104703884Y56353629D02*
X104664836Y56392677D01*
X104664836Y56392677D02*
X104586741Y56431725D01*
X100461978Y58963153D02*
X100188644Y59353629D01*
X99993406Y58963153D02*
X99993406Y59783154D01*
X99993406Y59783154D02*
X100305787Y59783154D01*
X100305787Y59783154D02*
X100383883Y59744106D01*
X100383883Y59744106D02*
X100422930Y59705058D01*
X100422930Y59705058D02*
X100461978Y59626963D01*
X100461978Y59626963D02*
X100461978Y59509820D01*
X100461978Y59509820D02*
X100422930Y59431725D01*
X100422930Y59431725D02*
X100383883Y59392677D01*
X100383883Y59392677D02*
X100305787Y59353629D01*
X100305787Y59353629D02*
X99993406Y59353629D01*
X101242931Y58963153D02*
X100774359Y58963153D01*
X101008645Y58963153D02*
X101008645Y59783154D01*
X101008645Y59783154D02*
X100930550Y59666011D01*
X100930550Y59666011D02*
X100852455Y59587915D01*
X100852455Y59587915D02*
X100774359Y59548868D01*
X101750551Y59783154D02*
X101828646Y59783154D01*
X101828646Y59783154D02*
X101906741Y59744106D01*
X101906741Y59744106D02*
X101945789Y59705058D01*
X101945789Y59705058D02*
X101984837Y59626963D01*
X101984837Y59626963D02*
X102023884Y59470772D01*
X102023884Y59470772D02*
X102023884Y59275534D01*
X102023884Y59275534D02*
X101984837Y59119343D01*
X101984837Y59119343D02*
X101945789Y59041248D01*
X101945789Y59041248D02*
X101906741Y59002200D01*
X101906741Y59002200D02*
X101828646Y58963153D01*
X101828646Y58963153D02*
X101750551Y58963153D01*
X101750551Y58963153D02*
X101672455Y59002200D01*
X101672455Y59002200D02*
X101633408Y59041248D01*
X101633408Y59041248D02*
X101594360Y59119343D01*
X101594360Y59119343D02*
X101555312Y59275534D01*
X101555312Y59275534D02*
X101555312Y59470772D01*
X101555312Y59470772D02*
X101594360Y59626963D01*
X101594360Y59626963D02*
X101633408Y59705058D01*
X101633408Y59705058D02*
X101672455Y59744106D01*
X101672455Y59744106D02*
X101750551Y59783154D01*
D11*
X58354819Y58113096D02*
X59164342Y58113096D01*
X59164342Y58113096D02*
X59259580Y58160715D01*
X59259580Y58160715D02*
X59307200Y58208334D01*
X59307200Y58208334D02*
X59354819Y58303572D01*
X59354819Y58303572D02*
X59354819Y58494048D01*
X59354819Y58494048D02*
X59307200Y58589286D01*
X59307200Y58589286D02*
X59259580Y58636905D01*
X59259580Y58636905D02*
X59164342Y58684524D01*
X59164342Y58684524D02*
X58354819Y58684524D01*
X58354819Y59636905D02*
X58354819Y59160715D01*
X58354819Y59160715D02*
X58831009Y59113096D01*
X58831009Y59113096D02*
X58783390Y59160715D01*
X58783390Y59160715D02*
X58735771Y59255953D01*
X58735771Y59255953D02*
X58735771Y59494048D01*
X58735771Y59494048D02*
X58783390Y59589286D01*
X58783390Y59589286D02*
X58831009Y59636905D01*
X58831009Y59636905D02*
X58926247Y59684524D01*
X58926247Y59684524D02*
X59164342Y59684524D01*
X59164342Y59684524D02*
X59259580Y59636905D01*
X59259580Y59636905D02*
X59307200Y59589286D01*
X59307200Y59589286D02*
X59354819Y59494048D01*
X59354819Y59494048D02*
X59354819Y59255953D01*
X59354819Y59255953D02*
X59307200Y59160715D01*
X59307200Y59160715D02*
X59259580Y59113096D01*
D15*
X33046000Y76928232D02*
X32792000Y76928232D01*
X32792000Y76529089D02*
X32792000Y77291089D01*
X32792000Y77291089D02*
X33154857Y77291089D01*
X33408857Y77218517D02*
X33445143Y77254803D01*
X33445143Y77254803D02*
X33517715Y77291089D01*
X33517715Y77291089D02*
X33699143Y77291089D01*
X33699143Y77291089D02*
X33771715Y77254803D01*
X33771715Y77254803D02*
X33808000Y77218517D01*
X33808000Y77218517D02*
X33844286Y77145946D01*
X33844286Y77145946D02*
X33844286Y77073374D01*
X33844286Y77073374D02*
X33808000Y76964517D01*
X33808000Y76964517D02*
X33372572Y76529089D01*
X33372572Y76529089D02*
X33844286Y76529089D01*
D11*
X63740057Y70344762D02*
X63692438Y70249524D01*
X63692438Y70249524D02*
X63597200Y70154286D01*
X63597200Y70154286D02*
X63454342Y70011429D01*
X63454342Y70011429D02*
X63406723Y69916191D01*
X63406723Y69916191D02*
X63406723Y69820953D01*
X63644819Y69868572D02*
X63597200Y69773334D01*
X63597200Y69773334D02*
X63501961Y69678096D01*
X63501961Y69678096D02*
X63311485Y69630477D01*
X63311485Y69630477D02*
X62978152Y69630477D01*
X62978152Y69630477D02*
X62787676Y69678096D01*
X62787676Y69678096D02*
X62692438Y69773334D01*
X62692438Y69773334D02*
X62644819Y69868572D01*
X62644819Y69868572D02*
X62644819Y70059048D01*
X62644819Y70059048D02*
X62692438Y70154286D01*
X62692438Y70154286D02*
X62787676Y70249524D01*
X62787676Y70249524D02*
X62978152Y70297143D01*
X62978152Y70297143D02*
X63311485Y70297143D01*
X63311485Y70297143D02*
X63501961Y70249524D01*
X63501961Y70249524D02*
X63597200Y70154286D01*
X63597200Y70154286D02*
X63644819Y70059048D01*
X63644819Y70059048D02*
X63644819Y69868572D01*
X62644819Y70630477D02*
X62644819Y71249524D01*
X62644819Y71249524D02*
X63025771Y70916191D01*
X63025771Y70916191D02*
X63025771Y71059048D01*
X63025771Y71059048D02*
X63073390Y71154286D01*
X63073390Y71154286D02*
X63121009Y71201905D01*
X63121009Y71201905D02*
X63216247Y71249524D01*
X63216247Y71249524D02*
X63454342Y71249524D01*
X63454342Y71249524D02*
X63549580Y71201905D01*
X63549580Y71201905D02*
X63597200Y71154286D01*
X63597200Y71154286D02*
X63644819Y71059048D01*
X63644819Y71059048D02*
X63644819Y70773334D01*
X63644819Y70773334D02*
X63597200Y70678096D01*
X63597200Y70678096D02*
X63549580Y70630477D01*
D15*
X52673000Y28579088D02*
X52419000Y28941945D01*
X52237571Y28579088D02*
X52237571Y29341088D01*
X52237571Y29341088D02*
X52527857Y29341088D01*
X52527857Y29341088D02*
X52600428Y29304802D01*
X52600428Y29304802D02*
X52636714Y29268516D01*
X52636714Y29268516D02*
X52673000Y29195945D01*
X52673000Y29195945D02*
X52673000Y29087088D01*
X52673000Y29087088D02*
X52636714Y29014516D01*
X52636714Y29014516D02*
X52600428Y28978231D01*
X52600428Y28978231D02*
X52527857Y28941945D01*
X52527857Y28941945D02*
X52237571Y28941945D01*
X53326143Y29087088D02*
X53326143Y28579088D01*
X53144714Y29377373D02*
X52963285Y28833088D01*
X52963285Y28833088D02*
X53435000Y28833088D01*
D14*
X103961978Y52963153D02*
X103688644Y53353629D01*
X103493406Y52963153D02*
X103493406Y53783154D01*
X103493406Y53783154D02*
X103805787Y53783154D01*
X103805787Y53783154D02*
X103883883Y53744106D01*
X103883883Y53744106D02*
X103922930Y53705058D01*
X103922930Y53705058D02*
X103961978Y53626963D01*
X103961978Y53626963D02*
X103961978Y53509820D01*
X103961978Y53509820D02*
X103922930Y53431725D01*
X103922930Y53431725D02*
X103883883Y53392677D01*
X103883883Y53392677D02*
X103805787Y53353629D01*
X103805787Y53353629D02*
X103493406Y53353629D01*
X104352455Y52963153D02*
X104508645Y52963153D01*
X104508645Y52963153D02*
X104586741Y53002200D01*
X104586741Y53002200D02*
X104625788Y53041248D01*
X104625788Y53041248D02*
X104703884Y53158391D01*
X104703884Y53158391D02*
X104742931Y53314582D01*
X104742931Y53314582D02*
X104742931Y53626963D01*
X104742931Y53626963D02*
X104703884Y53705058D01*
X104703884Y53705058D02*
X104664836Y53744106D01*
X104664836Y53744106D02*
X104586741Y53783154D01*
X104586741Y53783154D02*
X104430550Y53783154D01*
X104430550Y53783154D02*
X104352455Y53744106D01*
X104352455Y53744106D02*
X104313407Y53705058D01*
X104313407Y53705058D02*
X104274359Y53626963D01*
X104274359Y53626963D02*
X104274359Y53431725D01*
X104274359Y53431725D02*
X104313407Y53353629D01*
X104313407Y53353629D02*
X104352455Y53314582D01*
X104352455Y53314582D02*
X104430550Y53275534D01*
X104430550Y53275534D02*
X104586741Y53275534D01*
X104586741Y53275534D02*
X104664836Y53314582D01*
X104664836Y53314582D02*
X104703884Y53353629D01*
X104703884Y53353629D02*
X104742931Y53431725D01*
D15*
X119746768Y51121001D02*
X119746768Y50867001D01*
X120145911Y50867001D02*
X119383911Y50867001D01*
X119383911Y50867001D02*
X119383911Y51229858D01*
X119383911Y51447573D02*
X119383911Y51919287D01*
X119383911Y51919287D02*
X119674197Y51665287D01*
X119674197Y51665287D02*
X119674197Y51774144D01*
X119674197Y51774144D02*
X119710483Y51846715D01*
X119710483Y51846715D02*
X119746768Y51883001D01*
X119746768Y51883001D02*
X119819340Y51919287D01*
X119819340Y51919287D02*
X120000768Y51919287D01*
X120000768Y51919287D02*
X120073340Y51883001D01*
X120073340Y51883001D02*
X120109626Y51846715D01*
X120109626Y51846715D02*
X120145911Y51774144D01*
X120145911Y51774144D02*
X120145911Y51556430D01*
X120145911Y51556430D02*
X120109626Y51483858D01*
X120109626Y51483858D02*
X120073340Y51447573D01*
X30546000Y76928232D02*
X30292000Y76928232D01*
X30292000Y76529089D02*
X30292000Y77291089D01*
X30292000Y77291089D02*
X30654857Y77291089D01*
X31344286Y76529089D02*
X30908857Y76529089D01*
X31126572Y76529089D02*
X31126572Y77291089D01*
X31126572Y77291089D02*
X31054000Y77182232D01*
X31054000Y77182232D02*
X30981429Y77109660D01*
X30981429Y77109660D02*
X30908857Y77073374D01*
D11*
X141450057Y76779762D02*
X141402438Y76684524D01*
X141402438Y76684524D02*
X141307200Y76589286D01*
X141307200Y76589286D02*
X141164342Y76446429D01*
X141164342Y76446429D02*
X141116723Y76351191D01*
X141116723Y76351191D02*
X141116723Y76255953D01*
X141354819Y76303572D02*
X141307200Y76208334D01*
X141307200Y76208334D02*
X141211961Y76113096D01*
X141211961Y76113096D02*
X141021485Y76065477D01*
X141021485Y76065477D02*
X140688152Y76065477D01*
X140688152Y76065477D02*
X140497676Y76113096D01*
X140497676Y76113096D02*
X140402438Y76208334D01*
X140402438Y76208334D02*
X140354819Y76303572D01*
X140354819Y76303572D02*
X140354819Y76494048D01*
X140354819Y76494048D02*
X140402438Y76589286D01*
X140402438Y76589286D02*
X140497676Y76684524D01*
X140497676Y76684524D02*
X140688152Y76732143D01*
X140688152Y76732143D02*
X141021485Y76732143D01*
X141021485Y76732143D02*
X141211961Y76684524D01*
X141211961Y76684524D02*
X141307200Y76589286D01*
X141307200Y76589286D02*
X141354819Y76494048D01*
X141354819Y76494048D02*
X141354819Y76303572D01*
X140354819Y77065477D02*
X140354819Y77732143D01*
X140354819Y77732143D02*
X141354819Y77303572D01*
X39490476Y19570181D02*
X39490476Y18855896D01*
X39490476Y18855896D02*
X39442857Y18713039D01*
X39442857Y18713039D02*
X39347619Y18617800D01*
X39347619Y18617800D02*
X39204762Y18570181D01*
X39204762Y18570181D02*
X39109524Y18570181D01*
X39919048Y19474943D02*
X39966667Y19522562D01*
X39966667Y19522562D02*
X40061905Y19570181D01*
X40061905Y19570181D02*
X40300000Y19570181D01*
X40300000Y19570181D02*
X40395238Y19522562D01*
X40395238Y19522562D02*
X40442857Y19474943D01*
X40442857Y19474943D02*
X40490476Y19379705D01*
X40490476Y19379705D02*
X40490476Y19284467D01*
X40490476Y19284467D02*
X40442857Y19141610D01*
X40442857Y19141610D02*
X39871429Y18570181D01*
X39871429Y18570181D02*
X40490476Y18570181D01*
X41442857Y18570181D02*
X40871429Y18570181D01*
X41157143Y18570181D02*
X41157143Y19570181D01*
X41157143Y19570181D02*
X41061905Y19427324D01*
X41061905Y19427324D02*
X40966667Y19332086D01*
X40966667Y19332086D02*
X40871429Y19284467D01*
D14*
X142840092Y73638015D02*
X142566759Y74028491D01*
X142371521Y73638015D02*
X142371521Y74458015D01*
X142371521Y74458015D02*
X142683902Y74458015D01*
X142683902Y74458015D02*
X142761997Y74418967D01*
X142761997Y74418967D02*
X142801044Y74379920D01*
X142801044Y74379920D02*
X142840092Y74301824D01*
X142840092Y74301824D02*
X142840092Y74184682D01*
X142840092Y74184682D02*
X142801044Y74106586D01*
X142801044Y74106586D02*
X142761997Y74067539D01*
X142761997Y74067539D02*
X142683902Y74028491D01*
X142683902Y74028491D02*
X142371521Y74028491D01*
X143621044Y73638015D02*
X143152473Y73638015D01*
X143386759Y73638015D02*
X143386759Y74458015D01*
X143386759Y74458015D02*
X143308663Y74340872D01*
X143308663Y74340872D02*
X143230568Y74262777D01*
X143230568Y74262777D02*
X143152473Y74223729D01*
X144362949Y74458015D02*
X143972473Y74458015D01*
X143972473Y74458015D02*
X143933425Y74067539D01*
X143933425Y74067539D02*
X143972473Y74106586D01*
X143972473Y74106586D02*
X144050568Y74145634D01*
X144050568Y74145634D02*
X144245806Y74145634D01*
X144245806Y74145634D02*
X144323901Y74106586D01*
X144323901Y74106586D02*
X144362949Y74067539D01*
X144362949Y74067539D02*
X144401996Y73989443D01*
X144401996Y73989443D02*
X144401996Y73794205D01*
X144401996Y73794205D02*
X144362949Y73716110D01*
X144362949Y73716110D02*
X144323901Y73677062D01*
X144323901Y73677062D02*
X144245806Y73638015D01*
X144245806Y73638015D02*
X144050568Y73638015D01*
X144050568Y73638015D02*
X143972473Y73677062D01*
X143972473Y73677062D02*
X143933425Y73716110D01*
X35075652Y71062288D02*
X35036604Y71023240D01*
X35036604Y71023240D02*
X34919461Y70984193D01*
X34919461Y70984193D02*
X34841366Y70984193D01*
X34841366Y70984193D02*
X34724223Y71023240D01*
X34724223Y71023240D02*
X34646128Y71101336D01*
X34646128Y71101336D02*
X34607080Y71179431D01*
X34607080Y71179431D02*
X34568032Y71335622D01*
X34568032Y71335622D02*
X34568032Y71452765D01*
X34568032Y71452765D02*
X34607080Y71608955D01*
X34607080Y71608955D02*
X34646128Y71687051D01*
X34646128Y71687051D02*
X34724223Y71765146D01*
X34724223Y71765146D02*
X34841366Y71804194D01*
X34841366Y71804194D02*
X34919461Y71804194D01*
X34919461Y71804194D02*
X35036604Y71765146D01*
X35036604Y71765146D02*
X35075652Y71726098D01*
X35348986Y71804194D02*
X35856605Y71804194D01*
X35856605Y71804194D02*
X35583272Y71491812D01*
X35583272Y71491812D02*
X35700415Y71491812D01*
X35700415Y71491812D02*
X35778510Y71452765D01*
X35778510Y71452765D02*
X35817558Y71413717D01*
X35817558Y71413717D02*
X35856605Y71335622D01*
X35856605Y71335622D02*
X35856605Y71140383D01*
X35856605Y71140383D02*
X35817558Y71062288D01*
X35817558Y71062288D02*
X35778510Y71023240D01*
X35778510Y71023240D02*
X35700415Y70984193D01*
X35700415Y70984193D02*
X35466129Y70984193D01*
X35466129Y70984193D02*
X35388033Y71023240D01*
X35388033Y71023240D02*
X35348986Y71062288D01*
X36364225Y71804194D02*
X36442320Y71804194D01*
X36442320Y71804194D02*
X36520415Y71765146D01*
X36520415Y71765146D02*
X36559463Y71726098D01*
X36559463Y71726098D02*
X36598511Y71648003D01*
X36598511Y71648003D02*
X36637558Y71491812D01*
X36637558Y71491812D02*
X36637558Y71296574D01*
X36637558Y71296574D02*
X36598511Y71140383D01*
X36598511Y71140383D02*
X36559463Y71062288D01*
X36559463Y71062288D02*
X36520415Y71023240D01*
X36520415Y71023240D02*
X36442320Y70984193D01*
X36442320Y70984193D02*
X36364225Y70984193D01*
X36364225Y70984193D02*
X36286129Y71023240D01*
X36286129Y71023240D02*
X36247082Y71062288D01*
X36247082Y71062288D02*
X36208034Y71140383D01*
X36208034Y71140383D02*
X36168986Y71296574D01*
X36168986Y71296574D02*
X36168986Y71491812D01*
X36168986Y71491812D02*
X36208034Y71648003D01*
X36208034Y71648003D02*
X36247082Y71726098D01*
X36247082Y71726098D02*
X36286129Y71765146D01*
X36286129Y71765146D02*
X36364225Y71804194D01*
D11*
X38654819Y65636906D02*
X37654819Y65636906D01*
X37654819Y65636906D02*
X37654819Y65875001D01*
X37654819Y65875001D02*
X37702438Y66017858D01*
X37702438Y66017858D02*
X37797676Y66113096D01*
X37797676Y66113096D02*
X37892914Y66160715D01*
X37892914Y66160715D02*
X38083390Y66208334D01*
X38083390Y66208334D02*
X38226247Y66208334D01*
X38226247Y66208334D02*
X38416723Y66160715D01*
X38416723Y66160715D02*
X38511961Y66113096D01*
X38511961Y66113096D02*
X38607200Y66017858D01*
X38607200Y66017858D02*
X38654819Y65875001D01*
X38654819Y65875001D02*
X38654819Y65636906D01*
X37654819Y67065477D02*
X37654819Y66875001D01*
X37654819Y66875001D02*
X37702438Y66779763D01*
X37702438Y66779763D02*
X37750057Y66732144D01*
X37750057Y66732144D02*
X37892914Y66636906D01*
X37892914Y66636906D02*
X38083390Y66589287D01*
X38083390Y66589287D02*
X38464342Y66589287D01*
X38464342Y66589287D02*
X38559580Y66636906D01*
X38559580Y66636906D02*
X38607200Y66684525D01*
X38607200Y66684525D02*
X38654819Y66779763D01*
X38654819Y66779763D02*
X38654819Y66970239D01*
X38654819Y66970239D02*
X38607200Y67065477D01*
X38607200Y67065477D02*
X38559580Y67113096D01*
X38559580Y67113096D02*
X38464342Y67160715D01*
X38464342Y67160715D02*
X38226247Y67160715D01*
X38226247Y67160715D02*
X38131009Y67113096D01*
X38131009Y67113096D02*
X38083390Y67065477D01*
X38083390Y67065477D02*
X38035771Y66970239D01*
X38035771Y66970239D02*
X38035771Y66779763D01*
X38035771Y66779763D02*
X38083390Y66684525D01*
X38083390Y66684525D02*
X38131009Y66636906D01*
X38131009Y66636906D02*
X38226247Y66589287D01*
X72854819Y58113096D02*
X73664342Y58113096D01*
X73664342Y58113096D02*
X73759580Y58160715D01*
X73759580Y58160715D02*
X73807200Y58208334D01*
X73807200Y58208334D02*
X73854819Y58303572D01*
X73854819Y58303572D02*
X73854819Y58494048D01*
X73854819Y58494048D02*
X73807200Y58589286D01*
X73807200Y58589286D02*
X73759580Y58636905D01*
X73759580Y58636905D02*
X73664342Y58684524D01*
X73664342Y58684524D02*
X72854819Y58684524D01*
X72854819Y59065477D02*
X72854819Y59684524D01*
X72854819Y59684524D02*
X73235771Y59351191D01*
X73235771Y59351191D02*
X73235771Y59494048D01*
X73235771Y59494048D02*
X73283390Y59589286D01*
X73283390Y59589286D02*
X73331009Y59636905D01*
X73331009Y59636905D02*
X73426247Y59684524D01*
X73426247Y59684524D02*
X73664342Y59684524D01*
X73664342Y59684524D02*
X73759580Y59636905D01*
X73759580Y59636905D02*
X73807200Y59589286D01*
X73807200Y59589286D02*
X73854819Y59494048D01*
X73854819Y59494048D02*
X73854819Y59208334D01*
X73854819Y59208334D02*
X73807200Y59113096D01*
X73807200Y59113096D02*
X73759580Y59065477D01*
X47350057Y70344762D02*
X47302438Y70249524D01*
X47302438Y70249524D02*
X47207200Y70154286D01*
X47207200Y70154286D02*
X47064342Y70011429D01*
X47064342Y70011429D02*
X47016723Y69916191D01*
X47016723Y69916191D02*
X47016723Y69820953D01*
X47254819Y69868572D02*
X47207200Y69773334D01*
X47207200Y69773334D02*
X47111961Y69678096D01*
X47111961Y69678096D02*
X46921485Y69630477D01*
X46921485Y69630477D02*
X46588152Y69630477D01*
X46588152Y69630477D02*
X46397676Y69678096D01*
X46397676Y69678096D02*
X46302438Y69773334D01*
X46302438Y69773334D02*
X46254819Y69868572D01*
X46254819Y69868572D02*
X46254819Y70059048D01*
X46254819Y70059048D02*
X46302438Y70154286D01*
X46302438Y70154286D02*
X46397676Y70249524D01*
X46397676Y70249524D02*
X46588152Y70297143D01*
X46588152Y70297143D02*
X46921485Y70297143D01*
X46921485Y70297143D02*
X47111961Y70249524D01*
X47111961Y70249524D02*
X47207200Y70154286D01*
X47207200Y70154286D02*
X47254819Y70059048D01*
X47254819Y70059048D02*
X47254819Y69868572D01*
X46254819Y71201905D02*
X46254819Y70725715D01*
X46254819Y70725715D02*
X46731009Y70678096D01*
X46731009Y70678096D02*
X46683390Y70725715D01*
X46683390Y70725715D02*
X46635771Y70820953D01*
X46635771Y70820953D02*
X46635771Y71059048D01*
X46635771Y71059048D02*
X46683390Y71154286D01*
X46683390Y71154286D02*
X46731009Y71201905D01*
X46731009Y71201905D02*
X46826247Y71249524D01*
X46826247Y71249524D02*
X47064342Y71249524D01*
X47064342Y71249524D02*
X47159580Y71201905D01*
X47159580Y71201905D02*
X47207200Y71154286D01*
X47207200Y71154286D02*
X47254819Y71059048D01*
X47254819Y71059048D02*
X47254819Y70820953D01*
X47254819Y70820953D02*
X47207200Y70725715D01*
X47207200Y70725715D02*
X47159580Y70678096D01*
D14*
X109036985Y70650652D02*
X108646509Y70377319D01*
X109036985Y70182081D02*
X108216985Y70182081D01*
X108216985Y70182081D02*
X108216985Y70494462D01*
X108216985Y70494462D02*
X108256033Y70572557D01*
X108256033Y70572557D02*
X108295080Y70611604D01*
X108295080Y70611604D02*
X108373176Y70650652D01*
X108373176Y70650652D02*
X108490318Y70650652D01*
X108490318Y70650652D02*
X108568414Y70611604D01*
X108568414Y70611604D02*
X108607461Y70572557D01*
X108607461Y70572557D02*
X108646509Y70494462D01*
X108646509Y70494462D02*
X108646509Y70182081D01*
X109036985Y71431604D02*
X109036985Y70963033D01*
X109036985Y71197319D02*
X108216985Y71197319D01*
X108216985Y71197319D02*
X108334128Y71119223D01*
X108334128Y71119223D02*
X108412223Y71041128D01*
X108412223Y71041128D02*
X108451271Y70963033D01*
X147063014Y77334908D02*
X147453490Y77608241D01*
X147063014Y77803479D02*
X147883014Y77803479D01*
X147883014Y77803479D02*
X147883014Y77491098D01*
X147883014Y77491098D02*
X147843966Y77413003D01*
X147843966Y77413003D02*
X147804919Y77373956D01*
X147804919Y77373956D02*
X147726823Y77334908D01*
X147726823Y77334908D02*
X147609681Y77334908D01*
X147609681Y77334908D02*
X147531585Y77373956D01*
X147531585Y77373956D02*
X147492538Y77413003D01*
X147492538Y77413003D02*
X147453490Y77491098D01*
X147453490Y77491098D02*
X147453490Y77803479D01*
X147883014Y76593003D02*
X147883014Y76983479D01*
X147883014Y76983479D02*
X147492538Y77022527D01*
X147492538Y77022527D02*
X147531585Y76983479D01*
X147531585Y76983479D02*
X147570633Y76905384D01*
X147570633Y76905384D02*
X147570633Y76710146D01*
X147570633Y76710146D02*
X147531585Y76632051D01*
X147531585Y76632051D02*
X147492538Y76593003D01*
X147492538Y76593003D02*
X147414442Y76553956D01*
X147414442Y76553956D02*
X147219204Y76553956D01*
X147219204Y76553956D02*
X147141109Y76593003D01*
X147141109Y76593003D02*
X147102062Y76632051D01*
X147102062Y76632051D02*
X147063014Y76710146D01*
X147063014Y76710146D02*
X147063014Y76905384D01*
X147063014Y76905384D02*
X147102062Y76983479D01*
X147102062Y76983479D02*
X147141109Y77022527D01*
X147609681Y75851099D02*
X147063014Y75851099D01*
X147922062Y76046337D02*
X147336347Y76241575D01*
X147336347Y76241575D02*
X147336347Y75733956D01*
X93909191Y55799349D02*
X94299667Y56072682D01*
X93909191Y56267920D02*
X94729191Y56267920D01*
X94729191Y56267920D02*
X94729191Y55955539D01*
X94729191Y55955539D02*
X94690143Y55877444D01*
X94690143Y55877444D02*
X94651096Y55838397D01*
X94651096Y55838397D02*
X94573000Y55799349D01*
X94573000Y55799349D02*
X94455858Y55799349D01*
X94455858Y55799349D02*
X94377762Y55838397D01*
X94377762Y55838397D02*
X94338715Y55877444D01*
X94338715Y55877444D02*
X94299667Y55955539D01*
X94299667Y55955539D02*
X94299667Y56267920D01*
X94729191Y55096492D02*
X94729191Y55252682D01*
X94729191Y55252682D02*
X94690143Y55330778D01*
X94690143Y55330778D02*
X94651096Y55369825D01*
X94651096Y55369825D02*
X94533953Y55447920D01*
X94533953Y55447920D02*
X94377762Y55486968D01*
X94377762Y55486968D02*
X94065381Y55486968D01*
X94065381Y55486968D02*
X93987286Y55447920D01*
X93987286Y55447920D02*
X93948239Y55408873D01*
X93948239Y55408873D02*
X93909191Y55330778D01*
X93909191Y55330778D02*
X93909191Y55174587D01*
X93909191Y55174587D02*
X93948239Y55096492D01*
X93948239Y55096492D02*
X93987286Y55057444D01*
X93987286Y55057444D02*
X94065381Y55018397D01*
X94065381Y55018397D02*
X94260619Y55018397D01*
X94260619Y55018397D02*
X94338715Y55057444D01*
X94338715Y55057444D02*
X94377762Y55096492D01*
X94377762Y55096492D02*
X94416810Y55174587D01*
X94416810Y55174587D02*
X94416810Y55330778D01*
X94416810Y55330778D02*
X94377762Y55408873D01*
X94377762Y55408873D02*
X94338715Y55447920D01*
X94338715Y55447920D02*
X94260619Y55486968D01*
D11*
X65489819Y58113096D02*
X66299342Y58113096D01*
X66299342Y58113096D02*
X66394580Y58160715D01*
X66394580Y58160715D02*
X66442200Y58208334D01*
X66442200Y58208334D02*
X66489819Y58303572D01*
X66489819Y58303572D02*
X66489819Y58494048D01*
X66489819Y58494048D02*
X66442200Y58589286D01*
X66442200Y58589286D02*
X66394580Y58636905D01*
X66394580Y58636905D02*
X66299342Y58684524D01*
X66299342Y58684524D02*
X65489819Y58684524D01*
X65489819Y59589286D02*
X65489819Y59398810D01*
X65489819Y59398810D02*
X65537438Y59303572D01*
X65537438Y59303572D02*
X65585057Y59255953D01*
X65585057Y59255953D02*
X65727914Y59160715D01*
X65727914Y59160715D02*
X65918390Y59113096D01*
X65918390Y59113096D02*
X66299342Y59113096D01*
X66299342Y59113096D02*
X66394580Y59160715D01*
X66394580Y59160715D02*
X66442200Y59208334D01*
X66442200Y59208334D02*
X66489819Y59303572D01*
X66489819Y59303572D02*
X66489819Y59494048D01*
X66489819Y59494048D02*
X66442200Y59589286D01*
X66442200Y59589286D02*
X66394580Y59636905D01*
X66394580Y59636905D02*
X66299342Y59684524D01*
X66299342Y59684524D02*
X66061247Y59684524D01*
X66061247Y59684524D02*
X65966009Y59636905D01*
X65966009Y59636905D02*
X65918390Y59589286D01*
X65918390Y59589286D02*
X65870771Y59494048D01*
X65870771Y59494048D02*
X65870771Y59303572D01*
X65870771Y59303572D02*
X65918390Y59208334D01*
X65918390Y59208334D02*
X65966009Y59160715D01*
X65966009Y59160715D02*
X66061247Y59113096D01*
X36754819Y76995834D02*
X36754819Y76519644D01*
X36754819Y76519644D02*
X35754819Y76519644D01*
X36754819Y77852977D02*
X36754819Y77281549D01*
X36754819Y77567263D02*
X35754819Y77567263D01*
X35754819Y77567263D02*
X35897676Y77472025D01*
X35897676Y77472025D02*
X35992914Y77376787D01*
X35992914Y77376787D02*
X36040533Y77281549D01*
D14*
X103961978Y58963153D02*
X103688644Y59353629D01*
X103493406Y58963153D02*
X103493406Y59783154D01*
X103493406Y59783154D02*
X103805787Y59783154D01*
X103805787Y59783154D02*
X103883883Y59744106D01*
X103883883Y59744106D02*
X103922930Y59705058D01*
X103922930Y59705058D02*
X103961978Y59626963D01*
X103961978Y59626963D02*
X103961978Y59509820D01*
X103961978Y59509820D02*
X103922930Y59431725D01*
X103922930Y59431725D02*
X103883883Y59392677D01*
X103883883Y59392677D02*
X103805787Y59353629D01*
X103805787Y59353629D02*
X103493406Y59353629D01*
X104235312Y59783154D02*
X104781979Y59783154D01*
X104781979Y59783154D02*
X104430550Y58963153D01*
X100461978Y55963153D02*
X100188644Y56353629D01*
X99993406Y55963153D02*
X99993406Y56783154D01*
X99993406Y56783154D02*
X100305787Y56783154D01*
X100305787Y56783154D02*
X100383883Y56744106D01*
X100383883Y56744106D02*
X100422930Y56705058D01*
X100422930Y56705058D02*
X100461978Y56626963D01*
X100461978Y56626963D02*
X100461978Y56509820D01*
X100461978Y56509820D02*
X100422930Y56431725D01*
X100422930Y56431725D02*
X100383883Y56392677D01*
X100383883Y56392677D02*
X100305787Y56353629D01*
X100305787Y56353629D02*
X99993406Y56353629D01*
X101242931Y55963153D02*
X100774359Y55963153D01*
X101008645Y55963153D02*
X101008645Y56783154D01*
X101008645Y56783154D02*
X100930550Y56666011D01*
X100930550Y56666011D02*
X100852455Y56587915D01*
X100852455Y56587915D02*
X100774359Y56548868D01*
X102023884Y55963153D02*
X101555312Y55963153D01*
X101789598Y55963153D02*
X101789598Y56783154D01*
X101789598Y56783154D02*
X101711503Y56666011D01*
X101711503Y56666011D02*
X101633408Y56587915D01*
X101633408Y56587915D02*
X101555312Y56548868D01*
D11*
X51854819Y58113096D02*
X52664342Y58113096D01*
X52664342Y58113096D02*
X52759580Y58160715D01*
X52759580Y58160715D02*
X52807200Y58208334D01*
X52807200Y58208334D02*
X52854819Y58303572D01*
X52854819Y58303572D02*
X52854819Y58494048D01*
X52854819Y58494048D02*
X52807200Y58589286D01*
X52807200Y58589286D02*
X52759580Y58636905D01*
X52759580Y58636905D02*
X52664342Y58684524D01*
X52664342Y58684524D02*
X51854819Y58684524D01*
X52188152Y59589286D02*
X52854819Y59589286D01*
X51807200Y59351191D02*
X52521485Y59113096D01*
X52521485Y59113096D02*
X52521485Y59732143D01*
X150254819Y82636906D02*
X149254819Y82636906D01*
X149254819Y82636906D02*
X149254819Y82875001D01*
X149254819Y82875001D02*
X149302438Y83017858D01*
X149302438Y83017858D02*
X149397676Y83113096D01*
X149397676Y83113096D02*
X149492914Y83160715D01*
X149492914Y83160715D02*
X149683390Y83208334D01*
X149683390Y83208334D02*
X149826247Y83208334D01*
X149826247Y83208334D02*
X150016723Y83160715D01*
X150016723Y83160715D02*
X150111961Y83113096D01*
X150111961Y83113096D02*
X150207200Y83017858D01*
X150207200Y83017858D02*
X150254819Y82875001D01*
X150254819Y82875001D02*
X150254819Y82636906D01*
X149254819Y84113096D02*
X149254819Y83636906D01*
X149254819Y83636906D02*
X149731009Y83589287D01*
X149731009Y83589287D02*
X149683390Y83636906D01*
X149683390Y83636906D02*
X149635771Y83732144D01*
X149635771Y83732144D02*
X149635771Y83970239D01*
X149635771Y83970239D02*
X149683390Y84065477D01*
X149683390Y84065477D02*
X149731009Y84113096D01*
X149731009Y84113096D02*
X149826247Y84160715D01*
X149826247Y84160715D02*
X150064342Y84160715D01*
X150064342Y84160715D02*
X150159580Y84113096D01*
X150159580Y84113096D02*
X150207200Y84065477D01*
X150207200Y84065477D02*
X150254819Y83970239D01*
X150254819Y83970239D02*
X150254819Y83732144D01*
X150254819Y83732144D02*
X150207200Y83636906D01*
X150207200Y83636906D02*
X150159580Y83589287D01*
X48429819Y15915477D02*
X49144104Y15915477D01*
X49144104Y15915477D02*
X49286961Y15867858D01*
X49286961Y15867858D02*
X49382200Y15772620D01*
X49382200Y15772620D02*
X49429819Y15629763D01*
X49429819Y15629763D02*
X49429819Y15534525D01*
X48525057Y16344049D02*
X48477438Y16391668D01*
X48477438Y16391668D02*
X48429819Y16486906D01*
X48429819Y16486906D02*
X48429819Y16725001D01*
X48429819Y16725001D02*
X48477438Y16820239D01*
X48477438Y16820239D02*
X48525057Y16867858D01*
X48525057Y16867858D02*
X48620295Y16915477D01*
X48620295Y16915477D02*
X48715533Y16915477D01*
X48715533Y16915477D02*
X48858390Y16867858D01*
X48858390Y16867858D02*
X49429819Y16296430D01*
X49429819Y16296430D02*
X49429819Y16915477D01*
X48525057Y17296430D02*
X48477438Y17344049D01*
X48477438Y17344049D02*
X48429819Y17439287D01*
X48429819Y17439287D02*
X48429819Y17677382D01*
X48429819Y17677382D02*
X48477438Y17772620D01*
X48477438Y17772620D02*
X48525057Y17820239D01*
X48525057Y17820239D02*
X48620295Y17867858D01*
X48620295Y17867858D02*
X48715533Y17867858D01*
X48715533Y17867858D02*
X48858390Y17820239D01*
X48858390Y17820239D02*
X49429819Y17248811D01*
X49429819Y17248811D02*
X49429819Y17867858D01*
X71935057Y70344762D02*
X71887438Y70249524D01*
X71887438Y70249524D02*
X71792200Y70154286D01*
X71792200Y70154286D02*
X71649342Y70011429D01*
X71649342Y70011429D02*
X71601723Y69916191D01*
X71601723Y69916191D02*
X71601723Y69820953D01*
X71839819Y69868572D02*
X71792200Y69773334D01*
X71792200Y69773334D02*
X71696961Y69678096D01*
X71696961Y69678096D02*
X71506485Y69630477D01*
X71506485Y69630477D02*
X71173152Y69630477D01*
X71173152Y69630477D02*
X70982676Y69678096D01*
X70982676Y69678096D02*
X70887438Y69773334D01*
X70887438Y69773334D02*
X70839819Y69868572D01*
X70839819Y69868572D02*
X70839819Y70059048D01*
X70839819Y70059048D02*
X70887438Y70154286D01*
X70887438Y70154286D02*
X70982676Y70249524D01*
X70982676Y70249524D02*
X71173152Y70297143D01*
X71173152Y70297143D02*
X71506485Y70297143D01*
X71506485Y70297143D02*
X71696961Y70249524D01*
X71696961Y70249524D02*
X71792200Y70154286D01*
X71792200Y70154286D02*
X71839819Y70059048D01*
X71839819Y70059048D02*
X71839819Y69868572D01*
X70935057Y70678096D02*
X70887438Y70725715D01*
X70887438Y70725715D02*
X70839819Y70820953D01*
X70839819Y70820953D02*
X70839819Y71059048D01*
X70839819Y71059048D02*
X70887438Y71154286D01*
X70887438Y71154286D02*
X70935057Y71201905D01*
X70935057Y71201905D02*
X71030295Y71249524D01*
X71030295Y71249524D02*
X71125533Y71249524D01*
X71125533Y71249524D02*
X71268390Y71201905D01*
X71268390Y71201905D02*
X71839819Y70630477D01*
X71839819Y70630477D02*
X71839819Y71249524D01*
D14*
X33612712Y56150653D02*
X33651760Y56111605D01*
X33651760Y56111605D02*
X33690807Y55994462D01*
X33690807Y55994462D02*
X33690807Y55916367D01*
X33690807Y55916367D02*
X33651760Y55799224D01*
X33651760Y55799224D02*
X33573664Y55721128D01*
X33573664Y55721128D02*
X33495569Y55682081D01*
X33495569Y55682081D02*
X33339378Y55643033D01*
X33339378Y55643033D02*
X33222235Y55643033D01*
X33222235Y55643033D02*
X33066045Y55682081D01*
X33066045Y55682081D02*
X32987949Y55721128D01*
X32987949Y55721128D02*
X32909854Y55799224D01*
X32909854Y55799224D02*
X32870806Y55916367D01*
X32870806Y55916367D02*
X32870806Y55994462D01*
X32870806Y55994462D02*
X32909854Y56111605D01*
X32909854Y56111605D02*
X32948902Y56150653D01*
X32870806Y56423986D02*
X32870806Y56931606D01*
X32870806Y56931606D02*
X33183188Y56658272D01*
X33183188Y56658272D02*
X33183188Y56775415D01*
X33183188Y56775415D02*
X33222235Y56853511D01*
X33222235Y56853511D02*
X33261283Y56892558D01*
X33261283Y56892558D02*
X33339378Y56931606D01*
X33339378Y56931606D02*
X33534617Y56931606D01*
X33534617Y56931606D02*
X33612712Y56892558D01*
X33612712Y56892558D02*
X33651760Y56853511D01*
X33651760Y56853511D02*
X33690807Y56775415D01*
X33690807Y56775415D02*
X33690807Y56541129D01*
X33690807Y56541129D02*
X33651760Y56463034D01*
X33651760Y56463034D02*
X33612712Y56423986D01*
X32948902Y57243987D02*
X32909854Y57283035D01*
X32909854Y57283035D02*
X32870806Y57361130D01*
X32870806Y57361130D02*
X32870806Y57556368D01*
X32870806Y57556368D02*
X32909854Y57634464D01*
X32909854Y57634464D02*
X32948902Y57673511D01*
X32948902Y57673511D02*
X33026997Y57712559D01*
X33026997Y57712559D02*
X33105092Y57712559D01*
X33105092Y57712559D02*
X33222235Y57673511D01*
X33222235Y57673511D02*
X33690807Y57204939D01*
X33690807Y57204939D02*
X33690807Y57712559D01*
X95909191Y55599349D02*
X96299667Y55872682D01*
X95909191Y56067920D02*
X96729191Y56067920D01*
X96729191Y56067920D02*
X96729191Y55755539D01*
X96729191Y55755539D02*
X96690143Y55677444D01*
X96690143Y55677444D02*
X96651096Y55638397D01*
X96651096Y55638397D02*
X96573000Y55599349D01*
X96573000Y55599349D02*
X96455858Y55599349D01*
X96455858Y55599349D02*
X96377762Y55638397D01*
X96377762Y55638397D02*
X96338715Y55677444D01*
X96338715Y55677444D02*
X96299667Y55755539D01*
X96299667Y55755539D02*
X96299667Y56067920D01*
X96729191Y54857444D02*
X96729191Y55247920D01*
X96729191Y55247920D02*
X96338715Y55286968D01*
X96338715Y55286968D02*
X96377762Y55247920D01*
X96377762Y55247920D02*
X96416810Y55169825D01*
X96416810Y55169825D02*
X96416810Y54974587D01*
X96416810Y54974587D02*
X96377762Y54896492D01*
X96377762Y54896492D02*
X96338715Y54857444D01*
X96338715Y54857444D02*
X96260619Y54818397D01*
X96260619Y54818397D02*
X96065381Y54818397D01*
X96065381Y54818397D02*
X95987286Y54857444D01*
X95987286Y54857444D02*
X95948239Y54896492D01*
X95948239Y54896492D02*
X95909191Y54974587D01*
X95909191Y54974587D02*
X95909191Y55169825D01*
X95909191Y55169825D02*
X95948239Y55247920D01*
X95948239Y55247920D02*
X95987286Y55286968D01*
D11*
X80354819Y58113096D02*
X81164342Y58113096D01*
X81164342Y58113096D02*
X81259580Y58160715D01*
X81259580Y58160715D02*
X81307200Y58208334D01*
X81307200Y58208334D02*
X81354819Y58303572D01*
X81354819Y58303572D02*
X81354819Y58494048D01*
X81354819Y58494048D02*
X81307200Y58589286D01*
X81307200Y58589286D02*
X81259580Y58636905D01*
X81259580Y58636905D02*
X81164342Y58684524D01*
X81164342Y58684524D02*
X80354819Y58684524D01*
X81354819Y59208334D02*
X81354819Y59398810D01*
X81354819Y59398810D02*
X81307200Y59494048D01*
X81307200Y59494048D02*
X81259580Y59541667D01*
X81259580Y59541667D02*
X81116723Y59636905D01*
X81116723Y59636905D02*
X80926247Y59684524D01*
X80926247Y59684524D02*
X80545295Y59684524D01*
X80545295Y59684524D02*
X80450057Y59636905D01*
X80450057Y59636905D02*
X80402438Y59589286D01*
X80402438Y59589286D02*
X80354819Y59494048D01*
X80354819Y59494048D02*
X80354819Y59303572D01*
X80354819Y59303572D02*
X80402438Y59208334D01*
X80402438Y59208334D02*
X80450057Y59160715D01*
X80450057Y59160715D02*
X80545295Y59113096D01*
X80545295Y59113096D02*
X80783390Y59113096D01*
X80783390Y59113096D02*
X80878628Y59160715D01*
X80878628Y59160715D02*
X80926247Y59208334D01*
X80926247Y59208334D02*
X80973866Y59303572D01*
X80973866Y59303572D02*
X80973866Y59494048D01*
X80973866Y59494048D02*
X80926247Y59589286D01*
X80926247Y59589286D02*
X80878628Y59636905D01*
X80878628Y59636905D02*
X80783390Y59684524D01*
X19854819Y29136906D02*
X20664342Y29136906D01*
X20664342Y29136906D02*
X20759580Y29184525D01*
X20759580Y29184525D02*
X20807200Y29232144D01*
X20807200Y29232144D02*
X20854819Y29327382D01*
X20854819Y29327382D02*
X20854819Y29517858D01*
X20854819Y29517858D02*
X20807200Y29613096D01*
X20807200Y29613096D02*
X20759580Y29660715D01*
X20759580Y29660715D02*
X20664342Y29708334D01*
X20664342Y29708334D02*
X19854819Y29708334D01*
X20854819Y30708334D02*
X20854819Y30136906D01*
X20854819Y30422620D02*
X19854819Y30422620D01*
X19854819Y30422620D02*
X19997676Y30327382D01*
X19997676Y30327382D02*
X20092914Y30232144D01*
X20092914Y30232144D02*
X20140533Y30136906D01*
X20854819Y31660715D02*
X20854819Y31089287D01*
X20854819Y31375001D02*
X19854819Y31375001D01*
X19854819Y31375001D02*
X19997676Y31279763D01*
X19997676Y31279763D02*
X20092914Y31184525D01*
X20092914Y31184525D02*
X20140533Y31089287D01*
X41754819Y57113096D02*
X42564342Y57113096D01*
X42564342Y57113096D02*
X42659580Y57160715D01*
X42659580Y57160715D02*
X42707200Y57208334D01*
X42707200Y57208334D02*
X42754819Y57303572D01*
X42754819Y57303572D02*
X42754819Y57494048D01*
X42754819Y57494048D02*
X42707200Y57589286D01*
X42707200Y57589286D02*
X42659580Y57636905D01*
X42659580Y57636905D02*
X42564342Y57684524D01*
X42564342Y57684524D02*
X41754819Y57684524D01*
X42183390Y58303572D02*
X42135771Y58208334D01*
X42135771Y58208334D02*
X42088152Y58160715D01*
X42088152Y58160715D02*
X41992914Y58113096D01*
X41992914Y58113096D02*
X41945295Y58113096D01*
X41945295Y58113096D02*
X41850057Y58160715D01*
X41850057Y58160715D02*
X41802438Y58208334D01*
X41802438Y58208334D02*
X41754819Y58303572D01*
X41754819Y58303572D02*
X41754819Y58494048D01*
X41754819Y58494048D02*
X41802438Y58589286D01*
X41802438Y58589286D02*
X41850057Y58636905D01*
X41850057Y58636905D02*
X41945295Y58684524D01*
X41945295Y58684524D02*
X41992914Y58684524D01*
X41992914Y58684524D02*
X42088152Y58636905D01*
X42088152Y58636905D02*
X42135771Y58589286D01*
X42135771Y58589286D02*
X42183390Y58494048D01*
X42183390Y58494048D02*
X42183390Y58303572D01*
X42183390Y58303572D02*
X42231009Y58208334D01*
X42231009Y58208334D02*
X42278628Y58160715D01*
X42278628Y58160715D02*
X42373866Y58113096D01*
X42373866Y58113096D02*
X42564342Y58113096D01*
X42564342Y58113096D02*
X42659580Y58160715D01*
X42659580Y58160715D02*
X42707200Y58208334D01*
X42707200Y58208334D02*
X42754819Y58303572D01*
X42754819Y58303572D02*
X42754819Y58494048D01*
X42754819Y58494048D02*
X42707200Y58589286D01*
X42707200Y58589286D02*
X42659580Y58636905D01*
X42659580Y58636905D02*
X42564342Y58684524D01*
X42564342Y58684524D02*
X42373866Y58684524D01*
X42373866Y58684524D02*
X42278628Y58636905D01*
X42278628Y58636905D02*
X42231009Y58589286D01*
X42231009Y58589286D02*
X42183390Y58494048D01*
D16*
G04 #@! TO.C,R12*
X100595611Y51222073D02*
X100995611Y51222073D01*
X100600000Y52525001D02*
X101000000Y52525001D01*
D17*
G04 #@! TO.C,L2*
X37790000Y74537779D02*
X37790000Y74212221D01*
X38810000Y74537779D02*
X38810000Y74212221D01*
G04 #@! TO.C,Q1*
X80630000Y73550000D02*
X80630000Y67130000D01*
X80630000Y67130000D02*
X80900000Y67130000D01*
X87530000Y73550000D02*
X87530000Y67130000D01*
X87530000Y67130000D02*
X87260000Y67130000D01*
X80940000Y65400000D02*
X80470000Y65060000D01*
X80470000Y65740000D01*
X80940000Y65400000D01*
G36*
X80940000Y65400000D02*
G01*
X80470000Y65060000D01*
X80470000Y65740000D01*
X80940000Y65400000D01*
G37*
G04 #@! TO.C,Q4*
X56045000Y73550000D02*
X56045000Y67130000D01*
X56045000Y67130000D02*
X56315000Y67130000D01*
X62945000Y73550000D02*
X62945000Y67130000D01*
X62945000Y67130000D02*
X62675000Y67130000D01*
X56355000Y65400000D02*
X55885000Y65060000D01*
X55885000Y65740000D01*
X56355000Y65400000D01*
G36*
X56355000Y65400000D02*
G01*
X55885000Y65060000D01*
X55885000Y65740000D01*
X56355000Y65400000D01*
G37*
D16*
G04 #@! TO.C,C28*
X38090001Y71224986D02*
X38090001Y70475001D01*
D17*
G04 #@! TO.C,U7*
X45835000Y58875000D02*
X45835000Y60825000D01*
X45835000Y58875000D02*
X45835000Y56925000D01*
X50955000Y58875000D02*
X50955000Y60825000D01*
X50955000Y58875000D02*
X50955000Y56925000D01*
X45930000Y56175000D02*
X45600000Y55935000D01*
X45600000Y56415000D01*
X45930000Y56175000D01*
G36*
X45930000Y56175000D02*
G01*
X45600000Y55935000D01*
X45600000Y56415000D01*
X45930000Y56175000D01*
G37*
D16*
G04 #@! TO.C,M1*
X33900002Y42374997D02*
X33900002Y45575000D01*
X33900002Y30274997D02*
X33900002Y40674999D01*
X33900002Y28374997D02*
X33900002Y28674997D01*
X33900002Y28374997D02*
X49300002Y28374997D01*
X35400002Y48974995D02*
X50700001Y48974997D01*
X50699999Y42274999D02*
X50699999Y47074999D01*
X50699999Y36074997D02*
X50699999Y38774997D01*
X50699999Y33374999D02*
X50699999Y34475002D01*
X50699999Y29824997D02*
X50700004Y31374997D01*
X50700001Y48674999D02*
X50700001Y48974997D01*
G04 #@! TO.C,M2*
X118225000Y75800001D02*
X109125000Y75800001D01*
X118225000Y75800001D02*
X118225000Y74799999D01*
X118225000Y72699998D02*
X109125000Y72699998D01*
D17*
G04 #@! TO.C,U10*
X140850000Y89325000D02*
X140850000Y82905000D01*
X140850000Y82905000D02*
X141320000Y82905000D01*
X147750000Y89325000D02*
X147750000Y82905000D01*
X147750000Y82905000D02*
X147280000Y82905000D01*
X141360000Y81175000D02*
X140890000Y80835000D01*
X140890000Y81515000D01*
X141360000Y81175000D01*
G36*
X141360000Y81175000D02*
G01*
X140890000Y80835000D01*
X140890000Y81515000D01*
X141360000Y81175000D01*
G37*
G04 #@! TO.C,Q6*
X39655000Y73550000D02*
X39655000Y67130000D01*
X39655000Y67130000D02*
X39925000Y67130000D01*
X46555000Y73550000D02*
X46555000Y67130000D01*
X46555000Y67130000D02*
X46285000Y67130000D01*
X39965000Y65400000D02*
X39495000Y65060000D01*
X39495000Y65740000D01*
X39965000Y65400000D01*
G36*
X39965000Y65400000D02*
G01*
X39495000Y65060000D01*
X39495000Y65740000D01*
X39965000Y65400000D01*
G37*
D16*
G04 #@! TO.C,C29*
X35800000Y63025014D02*
X35800000Y63774999D01*
G04 #@! TO.C,M4*
X98300000Y75937500D02*
X98300000Y60937500D01*
X98300000Y75937500D02*
X99600000Y75937500D01*
X98300000Y60937500D02*
X103400000Y60937500D01*
X107900000Y75937500D02*
X101500000Y75937500D01*
X107900000Y61537500D02*
X107900000Y75937500D01*
G04 #@! TO.C,C31*
X34450014Y59375000D02*
X35199999Y59375000D01*
G04 #@! TO.C,R8*
X104095611Y54222073D02*
X104495611Y54222073D01*
X104100000Y55525001D02*
X104500000Y55525001D01*
G04 #@! TO.C,R10*
X100595611Y57222073D02*
X100995611Y57222073D01*
X100600000Y58525001D02*
X101000000Y58525001D01*
D17*
G04 #@! TO.C,U5*
X59740000Y58875000D02*
X59740000Y60825000D01*
X59740000Y58875000D02*
X59740000Y56925000D01*
X64860000Y58875000D02*
X64860000Y60825000D01*
X64860000Y58875000D02*
X64860000Y56925000D01*
X59835000Y56175000D02*
X59505000Y55935000D01*
X59505000Y56415000D01*
X59835000Y56175000D01*
G36*
X59835000Y56175000D02*
G01*
X59505000Y55935000D01*
X59505000Y56415000D01*
X59835000Y56175000D01*
G37*
G04 #@! TO.C,F2*
X32300000Y75275000D02*
X32300000Y70425000D01*
X34300000Y75275000D02*
X34300000Y70425000D01*
X32300000Y75325000D02*
G75*
G02*
X34300000Y75325000I1000000J0D01*
G01*
X34300000Y70425000D02*
G75*
G02*
X32300000Y70425000I-1000000J0D01*
G01*
G04 #@! TO.C,Q3*
X64240000Y73550000D02*
X64240000Y67130000D01*
X64240000Y67130000D02*
X64510000Y67130000D01*
X71140000Y73550000D02*
X71140000Y67130000D01*
X71140000Y67130000D02*
X70870000Y67130000D01*
X64550000Y65400000D02*
X64080000Y65060000D01*
X64080000Y65740000D01*
X64550000Y65400000D01*
G36*
X64550000Y65400000D02*
G01*
X64080000Y65060000D01*
X64080000Y65740000D01*
X64550000Y65400000D01*
G37*
D18*
G04 #@! TO.C,R4*
X52000000Y25932999D02*
X52000000Y26948999D01*
X52000000Y23900999D02*
X52000000Y24916999D01*
X53600000Y26948999D02*
X53600000Y25932999D01*
X53600000Y24916999D02*
X53600000Y23900999D01*
D17*
X51996505Y27008601D02*
G75*
G02*
X53600000Y26999999I803495J321398D01*
G01*
X53600000Y23849999D02*
G75*
G02*
X51998362Y23845999I-800000J-330000D01*
G01*
D16*
G04 #@! TO.C,R9*
X104095611Y51222073D02*
X104495611Y51222073D01*
X104100000Y52525001D02*
X104500000Y52525001D01*
D17*
G04 #@! TO.C,F3*
X118200000Y52375000D02*
X113350000Y52375000D01*
X118200000Y50375000D02*
X113350000Y50375000D01*
X113350000Y50375000D02*
G75*
G02*
X113350000Y52375000I0J1000000D01*
G01*
X118250000Y52375000D02*
G75*
G02*
X118250000Y50375000I0J-1000000D01*
G01*
G04 #@! TO.C,F1*
X29800000Y75275000D02*
X29800000Y70425000D01*
X31800000Y75275000D02*
X31800000Y70425000D01*
X29800000Y75325000D02*
G75*
G02*
X31800000Y75325000I1000000J0D01*
G01*
X31800000Y70425000D02*
G75*
G02*
X29800000Y70425000I-1000000J0D01*
G01*
G04 #@! TO.C,Q7*
X141740000Y76875000D02*
X141740000Y77525000D01*
X141740000Y76875000D02*
X141740000Y76225000D01*
X144860000Y76875000D02*
X144860000Y77525000D01*
X144860000Y76875000D02*
X144860000Y76225000D01*
X141790000Y75712500D02*
X141460000Y75472500D01*
X141460000Y75952500D01*
X141790000Y75712500D01*
G36*
X141790000Y75712500D02*
G01*
X141460000Y75472500D01*
X141460000Y75952500D01*
X141790000Y75712500D01*
G37*
G04 #@! TO.C,J21*
X32440000Y14925000D02*
X32440000Y12515000D01*
X32440000Y12515000D02*
X34850000Y12515000D01*
X32740000Y17935000D02*
X32740000Y12815000D01*
X32740000Y12815000D02*
X46860000Y12815000D01*
X46860000Y12815000D02*
X47860000Y13815000D01*
X47860000Y17935000D02*
X32740000Y17935000D01*
X47860000Y13815000D02*
X47860000Y17935000D01*
D19*
G04 #@! TO.C,R15*
X143098944Y72504160D02*
X143498943Y72504149D01*
X143100000Y73249995D02*
X143500000Y73249985D01*
D16*
G04 #@! TO.C,C30*
X36009999Y69525014D02*
X36009999Y70274999D01*
D17*
G04 #@! TO.C,D6*
X34240000Y66375000D02*
X34240000Y67025000D01*
X34240000Y66375000D02*
X34240000Y65725000D01*
X37360000Y66375000D02*
X37360000Y67025000D01*
X37360000Y66375000D02*
X37360000Y65725000D01*
X37640000Y67297500D02*
X37310000Y67537500D01*
X37640000Y67777500D01*
X37640000Y67297500D01*
G36*
X37640000Y67297500D02*
G01*
X37310000Y67537500D01*
X37640000Y67777500D01*
X37640000Y67297500D01*
G37*
G04 #@! TO.C,U3*
X74240000Y58875000D02*
X74240000Y60825000D01*
X74240000Y58875000D02*
X74240000Y56925000D01*
X79360000Y58875000D02*
X79360000Y60825000D01*
X79360000Y58875000D02*
X79360000Y56925000D01*
X74335000Y56175000D02*
X74005000Y55935000D01*
X74005000Y56415000D01*
X74335000Y56175000D01*
G36*
X74335000Y56175000D02*
G01*
X74005000Y55935000D01*
X74005000Y56415000D01*
X74335000Y56175000D01*
G37*
G04 #@! TO.C,Q5*
X47850000Y73550000D02*
X47850000Y67130000D01*
X47850000Y67130000D02*
X48120000Y67130000D01*
X54750000Y73550000D02*
X54750000Y67130000D01*
X54750000Y67130000D02*
X54480000Y67130000D01*
X48160000Y65400000D02*
X47690000Y65060000D01*
X47690000Y65740000D01*
X48160000Y65400000D01*
G36*
X48160000Y65400000D02*
G01*
X47690000Y65060000D01*
X47690000Y65740000D01*
X48160000Y65400000D01*
G37*
G04 #@! TO.C,M8*
D10*
X111225000Y56650000D02*
X121125000Y56650000D01*
X121125000Y70350000D01*
X111225000Y70350000D01*
X111225000Y56650000D01*
D16*
G04 #@! TO.C,M3*
X88125000Y75750000D02*
X88125000Y60750000D01*
X88125000Y75750000D02*
X89425000Y75750000D01*
X88125000Y60750000D02*
X93225000Y60750000D01*
X97725000Y75750000D02*
X91325000Y75750000D01*
X97725000Y61350000D02*
X97725000Y75750000D01*
G04 #@! TO.C,M5*
X122725000Y76250000D02*
X136625000Y76250000D01*
X136625000Y48750000D01*
X122725000Y48750000D01*
X122725000Y76250000D01*
D19*
G04 #@! TO.C,R1*
X109425005Y70175000D02*
X109425015Y70575000D01*
X110170840Y70173944D02*
X110170851Y70573943D01*
G04 #@! TO.C,R54*
X145929160Y77076056D02*
X145929149Y76676057D01*
X146674995Y77075000D02*
X146674985Y76675000D01*
G04 #@! TO.C,R6*
X93929160Y58276056D02*
X93929149Y57876057D01*
X94674995Y58275000D02*
X94674985Y57875000D01*
D17*
G04 #@! TO.C,U6*
X66875000Y58875000D02*
X66875000Y60825000D01*
X66875000Y58875000D02*
X66875000Y56925000D01*
X71995000Y58875000D02*
X71995000Y60825000D01*
X71995000Y58875000D02*
X71995000Y56925000D01*
X66970000Y56175000D02*
X66640000Y55935000D01*
X66640000Y56415000D01*
X66970000Y56175000D01*
G36*
X66970000Y56175000D02*
G01*
X66640000Y55935000D01*
X66640000Y56415000D01*
X66970000Y56175000D01*
G37*
G04 #@! TO.C,L1*
X35790000Y74537779D02*
X35790000Y74212221D01*
X36810000Y74537779D02*
X36810000Y74212221D01*
D16*
G04 #@! TO.C,R7*
X104095611Y57222073D02*
X104495611Y57222073D01*
X104100000Y58525001D02*
X104500000Y58525001D01*
G04 #@! TO.C,R11*
X100595611Y54222073D02*
X100995611Y54222073D01*
X100600000Y55525001D02*
X101000000Y55525001D01*
D17*
G04 #@! TO.C,U4*
X53240000Y58875000D02*
X53240000Y60825000D01*
X53240000Y58875000D02*
X53240000Y56925000D01*
X58360000Y58875000D02*
X58360000Y60825000D01*
X58360000Y58875000D02*
X58360000Y56925000D01*
X53335000Y56175000D02*
X53005000Y55935000D01*
X53005000Y56415000D01*
X53335000Y56175000D01*
G36*
X53335000Y56175000D02*
G01*
X53005000Y55935000D01*
X53005000Y56415000D01*
X53335000Y56175000D01*
G37*
G04 #@! TO.C,D5*
X150650000Y79865000D02*
X150650000Y85375000D01*
X150650000Y79865000D02*
X153950000Y79865000D01*
X153950000Y79865000D02*
X153950000Y85375000D01*
D11*
G04 #@! TO.C,J22*
X49775000Y20625000D02*
X50375000Y20625000D01*
X49775000Y12825000D02*
X49775000Y20625000D01*
X50375000Y12825000D02*
X49775000Y12825000D01*
X53275000Y12825000D02*
X53875000Y12825000D01*
X53875000Y20625000D02*
X53275000Y20625000D01*
X53875000Y12825000D02*
X53875000Y20625000D01*
X54175000Y14625000D02*
X54175000Y15625000D01*
D17*
G04 #@! TO.C,Q2*
X72435000Y73550000D02*
X72435000Y67130000D01*
X72435000Y67130000D02*
X72705000Y67130000D01*
X79335000Y73550000D02*
X79335000Y67130000D01*
X79335000Y67130000D02*
X79065000Y67130000D01*
X72745000Y65400000D02*
X72275000Y65060000D01*
X72275000Y65740000D01*
X72745000Y65400000D01*
G36*
X72745000Y65400000D02*
G01*
X72275000Y65060000D01*
X72275000Y65740000D01*
X72745000Y65400000D01*
G37*
D16*
G04 #@! TO.C,C32*
X32950014Y59375000D02*
X33699999Y59375000D01*
G04 #@! TO.C,M7*
X35837499Y26904142D02*
X47012499Y26942989D01*
X35837499Y21206661D02*
X35837499Y26904142D01*
X35837499Y21206661D02*
X36112503Y20931657D01*
X36112503Y20056663D02*
X36112503Y20931657D01*
X36112503Y20056663D02*
X36112505Y20056660D01*
X36112505Y20056660D02*
X47012499Y20056660D01*
X47012499Y20056660D02*
X47012499Y26942989D01*
D19*
G04 #@! TO.C,R5*
X95929160Y58276056D02*
X95929149Y57876057D01*
X96674995Y58275000D02*
X96674985Y57875000D01*
D17*
G04 #@! TO.C,U9*
X81740000Y58875000D02*
X81740000Y60825000D01*
X81740000Y58875000D02*
X81740000Y56925000D01*
X86860000Y58875000D02*
X86860000Y60825000D01*
X86860000Y58875000D02*
X86860000Y56925000D01*
X81835000Y56175000D02*
X81505000Y55935000D01*
X81505000Y56415000D01*
X81835000Y56175000D01*
G36*
X81835000Y56175000D02*
G01*
X81505000Y55935000D01*
X81505000Y56415000D01*
X81835000Y56175000D01*
G37*
G04 #@! TO.C,U11*
X21240000Y30375000D02*
X21240000Y32325000D01*
X21240000Y30375000D02*
X21240000Y28425000D01*
X26360000Y30375000D02*
X26360000Y32325000D01*
X26360000Y30375000D02*
X26360000Y28425000D01*
X21335000Y27675000D02*
X21005000Y27435000D01*
X21005000Y27915000D01*
X21335000Y27675000D01*
G36*
X21335000Y27675000D02*
G01*
X21005000Y27435000D01*
X21005000Y27915000D01*
X21335000Y27675000D01*
G37*
G04 #@! TO.C,U8*
X36240000Y57875000D02*
X36240000Y59825000D01*
X36240000Y57875000D02*
X36240000Y55925000D01*
X41360000Y57875000D02*
X41360000Y59825000D01*
X41360000Y57875000D02*
X41360000Y55925000D01*
X41595000Y60335000D02*
X41265000Y60575000D01*
X41595000Y60815000D01*
X41595000Y60335000D01*
G36*
X41595000Y60335000D02*
G01*
X41265000Y60575000D01*
X41595000Y60815000D01*
X41595000Y60335000D01*
G37*
D16*
G04 #@! TO.C,M6*
X55774995Y48150005D02*
X55774995Y12350015D01*
X89575005Y48150005D02*
X55775005Y48150005D01*
X89575005Y48150005D02*
X89575005Y12350015D01*
X89575005Y12350015D02*
X55774995Y12350015D01*
G04 #@! TD*
D20*
G04 #@! TO.C,P1*
X144952000Y113258000D03*
D21*
X142502000Y105458000D03*
D20*
X70452000Y113258000D03*
D21*
X20702000Y105458000D03*
D20*
X18252000Y113258000D03*
D22*
X137852000Y108258000D03*
X132052000Y108258000D03*
X134952000Y105928000D03*
X137852000Y100128000D03*
X132052000Y100128000D03*
D23*
X78432000Y100128000D03*
X80972000Y100128000D03*
X83512000Y100128000D03*
X86052000Y100128000D03*
X88592000Y100128000D03*
X91132000Y100128000D03*
X93672000Y100128000D03*
X96212000Y100128000D03*
X98752000Y100128000D03*
X101292000Y100128000D03*
X103832000Y100128000D03*
X106372000Y100128000D03*
X108912000Y100128000D03*
X111452000Y100128000D03*
X113992000Y100128000D03*
X116532000Y100128000D03*
X119072000Y100128000D03*
X121612000Y100128000D03*
X124152000Y100128000D03*
X78432000Y102668000D03*
X80972000Y102668000D03*
X83512000Y102668000D03*
X86052000Y102668000D03*
X88592000Y102668000D03*
X91132000Y102668000D03*
X93672000Y102668000D03*
X96212000Y102668000D03*
X98752000Y102668000D03*
X101292000Y102668000D03*
X103832000Y102668000D03*
X106372000Y102668000D03*
X108912000Y102668000D03*
X111452000Y102668000D03*
X113992000Y102668000D03*
X116532000Y102668000D03*
X119072000Y102668000D03*
X121612000Y102668000D03*
X124152000Y102668000D03*
X78432000Y108718000D03*
X80972000Y108718000D03*
X83512000Y108718000D03*
X86052000Y108718000D03*
X88592000Y108718000D03*
X91132000Y108718000D03*
X93672000Y108718000D03*
X96212000Y108718000D03*
X98752000Y108718000D03*
X101292000Y108718000D03*
X103832000Y108718000D03*
X106372000Y108718000D03*
X108912000Y108718000D03*
X111452000Y108718000D03*
X113992000Y108718000D03*
X116532000Y108718000D03*
X119072000Y108718000D03*
X121612000Y108718000D03*
X124152000Y108718000D03*
X78432000Y111258000D03*
X80972000Y111258000D03*
X83512000Y111258000D03*
X86052000Y111258000D03*
X88592000Y111258000D03*
X91132000Y111258000D03*
X93672000Y111258000D03*
X96212000Y111258000D03*
X98752000Y111258000D03*
X101292000Y111258000D03*
X103832000Y111258000D03*
X106372000Y111258000D03*
X108912000Y111258000D03*
X111452000Y111258000D03*
X113992000Y111258000D03*
X116532000Y111258000D03*
X119072000Y111258000D03*
X121612000Y111258000D03*
X124152000Y111258000D03*
X62462000Y111258000D03*
X59922000Y111258000D03*
X57382000Y111258000D03*
X54842000Y111258000D03*
X52302000Y111258000D03*
X49762000Y111258000D03*
X47222000Y111258000D03*
X44682000Y111258000D03*
X62462000Y108718000D03*
X59922000Y108718000D03*
X57382000Y108718000D03*
X54842000Y108718000D03*
X52302000Y108718000D03*
X49762000Y108718000D03*
X47222000Y108718000D03*
X44682000Y108718000D03*
X62462000Y102668000D03*
X59922000Y102668000D03*
X57382000Y102668000D03*
X54842000Y102668000D03*
X52302000Y102668000D03*
X49762000Y102668000D03*
X47222000Y102668000D03*
X44682000Y102668000D03*
X62462000Y100128000D03*
X59922000Y100128000D03*
X57382000Y100128000D03*
X54842000Y100128000D03*
X52302000Y100128000D03*
X49762000Y100128000D03*
X47222000Y100128000D03*
X44682000Y100128000D03*
D22*
X36852000Y108258000D03*
X31052000Y108258000D03*
X25152000Y108258000D03*
X33952000Y105928000D03*
X28052000Y105928000D03*
X36852000Y100128000D03*
X31052000Y100128000D03*
X25152000Y100128000D03*
G04 #@! TD*
M02*
