M48
; DRILL file {KiCad 8.0.8} date 2025-12-16T22:06:24-0500
; FORMAT={3:3/ absolute / metric / suppress leading zeros}
; #@! TF.CreationDate,2025-12-16T22:06:24-05:00
; #@! TF.GenerationSoftware,Kicad,Pcbnew,8.0.8
; #@! TF.FileFunction,MixedPlating,1,4
FMAT,2
METRIC,TZ
; #@! TA.AperFunction,Plated,PTH,ComponentDrill
T1C0.300
; #@! TA.AperFunction,Plated,PTH,ComponentDrill
T2C0.300
; #@! TA.AperFunction,Plated,PTH,ComponentDrill
T3C0.700
; #@! TA.AperFunction,Plated,PTH,ComponentDrill
T4C0.813
; #@! TA.AperFunction,Plated,PTH,ComponentDrill
T5C0.850
; #@! TA.AperFunction,Plated,PTH,ViaDrill
T6C1.000
; #@! TA.AperFunction,Plated,PTH,ComponentDrill
T7C1.000
; #@! TA.AperFunction,Plated,PTH,ComponentDrill
T8C1.100
; #@! TA.AperFunction,Plated,PTH,ComponentDrill
T9C2.200
; #@! TA.AperFunction,Plated,PTH,ComponentDrill
T10C3.700
%
G90
G05
T1
X88262Y-88518
X89137Y-89043
X89362Y-84218
X89438Y-87768
T2
X96200Y-77500
X96200Y-78500
X101675Y-73225
X101675Y-74025
X101675Y-74825
X101675Y-75625
X101675Y-76425
X101675Y-77225
X101675Y-78025
X101675Y-78825
X101675Y-79625
X101675Y-80425
X101675Y-81225
X101675Y-82025
X101675Y-82825
X101675Y-83625
X101675Y-85225
X101675Y-86625
X101675Y-87425
X101675Y-88225
X101675Y-89025
X101675Y-89825
X101675Y-90625
X101675Y-68925
X101675Y-84425
X102075Y-97825
X102875Y-97825
X103675Y-97825
X104475Y-97825
X105275Y-97825
X106075Y-97825
X106875Y-97825
X107675Y-97825
X108275Y-62425
X108475Y-97825
X109275Y-97825
X109475Y-62425
X110075Y-97825
X110675Y-62425
X110875Y-97825
X111875Y-62425
X113075Y-62425
X113275Y-97825
X114075Y-97825
X114275Y-62425
X114875Y-97825
X115475Y-62425
X115675Y-97825
X116475Y-97825
X116675Y-62425
X117275Y-97825
X117875Y-62425
X118075Y-97825
X118875Y-97825
X119075Y-62425
X119675Y-97825
X120275Y-62425
X121475Y-62425
X122675Y-62425
X123875Y-62425
X123975Y-97825
X125075Y-62425
X126275Y-62425
X126675Y-97825
X127475Y-62425
X127675Y-97825
X128675Y-62425
X129875Y-62425
X131075Y-62425
X132275Y-62425
X134675Y-62425
X135075Y-64925
X135075Y-65925
X135075Y-76625
X135075Y-77625
X135075Y-78625
X135075Y-79625
X135075Y-80625
X135075Y-81625
X135075Y-82625
X135075Y-83625
X135075Y-86225
X135075Y-87025
X135075Y-91725
X135075Y-93125
X135075Y-97825
X135565Y-34900
X136565Y-34900
X139425Y-49325
X140625Y-49325
X141825Y-49325
X143025Y-49325
X145740Y-34713
X146740Y-34713
X149600Y-49137
X150800Y-49137
X152000Y-49137
X153200Y-49137
X155025Y-35175
X155025Y-36125
X155025Y-37075
X157175Y-52675
X157175Y-53475
X157975Y-53475
X158775Y-53475
X159575Y-53475
X160375Y-53475
X161175Y-53475
X161975Y-53475
X163725Y-36175
X163725Y-37075
X170125Y-61166
X171125Y-61166
X172125Y-61166
X174405Y-61166
X175421Y-61166
X177775Y-34575
X178775Y-34575
X179775Y-34575
X180775Y-34575
T3
X96625Y-92850
X96625Y-94450
X98375Y-92050
X98375Y-93650
X98375Y-95250
X157375Y-44675
X166375Y-42475
X166375Y-50675
X166375Y-51875
T4
X76500Y-35050
X76500Y-39950
X79000Y-35050
X79000Y-39950
X98500Y-83045
X98500Y-86855
X159050Y-59000
X163950Y-59000
T5
X81000Y-95650
X83500Y-95650
X86000Y-95650
X88500Y-95650
X91000Y-95650
T6
X48400Y-6475
X48400Y-14450
X48400Y-23850
X48400Y-33875
X48400Y-44400
X48400Y-54300
X48400Y-65250
X48400Y-78825
X48400Y-89700
X61275Y-106625
X72825Y-106575
X94900Y-106575
X105425Y-106625
X116850Y-106625
X127475Y-106625
X138350Y-106600
X148625Y-106600
X160425Y-106600
X171850Y-106600
X182475Y-106600
X193350Y-106600
X206550Y-6150
X206700Y-12975
X206700Y-22375
X206700Y-32400
X206700Y-42925
X206700Y-52825
X206700Y-63775
X206700Y-77350
X206700Y-88225
T7
X80250Y-62050
X80250Y-63900
X80250Y-68850
X80250Y-80900
X95750Y-62500
X95750Y-68900
X95750Y-70800
X95750Y-75100
X95750Y-81350
T8
X90382Y883
X90382Y-1657
X90382Y-7707
X90382Y-10247
X92922Y883
X92922Y-1657
X92922Y-7707
X92922Y-10247
X95462Y883
X95462Y-1657
X95462Y-7707
X95462Y-10247
X98002Y883
X98002Y-1657
X98002Y-7707
X98002Y-10247
X100542Y883
X100542Y-1657
X100542Y-7707
X100542Y-10247
X103082Y883
X103082Y-1657
X103082Y-7707
X103082Y-10247
X105622Y883
X105622Y-1657
X105622Y-7707
X105622Y-10247
X108162Y883
X108162Y-1657
X108162Y-7707
X108162Y-10247
X124132Y883
X124132Y-1657
X124132Y-7707
X124132Y-10247
X126672Y883
X126672Y-1657
X126672Y-7707
X126672Y-10247
X129212Y883
X129212Y-1657
X129212Y-7707
X129212Y-10247
X131752Y883
X131752Y-1657
X131752Y-7707
X131752Y-10247
X134292Y883
X134292Y-1657
X134292Y-7707
X134292Y-10247
X136832Y883
X136832Y-1657
X136832Y-7707
X136832Y-10247
X139372Y883
X139372Y-1657
X139372Y-7707
X139372Y-10247
X141912Y883
X141912Y-1657
X141912Y-7707
X141912Y-10247
X144452Y883
X144452Y-1657
X144452Y-7707
X144452Y-10247
X146992Y883
X146992Y-1657
X146992Y-7707
X146992Y-10247
X149532Y883
X149532Y-1657
X149532Y-7707
X149532Y-10247
X152072Y883
X152072Y-1657
X152072Y-7707
X152072Y-10247
X154612Y883
X154612Y-1657
X154612Y-7707
X154612Y-10247
X157152Y883
X157152Y-1657
X157152Y-7707
X157152Y-10247
X159692Y883
X159692Y-1657
X159692Y-7707
X159692Y-10247
X162232Y883
X162232Y-1657
X162232Y-7707
X162232Y-10247
X164772Y883
X164772Y-1657
X164772Y-7707
X164772Y-10247
X167312Y883
X167312Y-1657
X167312Y-7707
X167312Y-10247
X169852Y883
X169852Y-1657
X169852Y-7707
X169852Y-10247
T9
X66402Y-4917
X70852Y-2117
X70852Y-10247
X73752Y-4447
X76752Y-2117
X76752Y-10247
X79652Y-4447
X82552Y-2117
X82552Y-10247
X177752Y-2117
X177752Y-10247
X180652Y-4447
X183552Y-2117
X183552Y-10247
X188202Y-4917
T10
X63952Y2883
X116152Y2883
X190652Y2883
T3
G00X96850Y-90000
M15
G01X98150Y-90000
M16
G05
G00X96850Y-97300
M15
G01X98150Y-97300
M16
G05
M30
