G04 #@! TF.GenerationSoftware,KiCad,Pcbnew,8.0.8*
G04 #@! TF.CreationDate,2025-12-17T11:20:01-05:00*
G04 #@! TF.ProjectId,hellen121vag,68656c6c-656e-4313-9231-7661672e6b69,d*
G04 #@! TF.SameCoordinates,Original*
G04 #@! TF.FileFunction,Soldermask,Top*
G04 #@! TF.FilePolarity,Negative*
%FSLAX46Y46*%
G04 Gerber Fmt 4.6, Leading zero omitted, Abs format (unit mm)*
G04 Created by KiCad (PCBNEW 8.0.8) date 2025-12-17 11:20:01*
%MOMM*%
%LPD*%
G01*
G04 APERTURE LIST*
%ADD10C,1.500000*%
%ADD11C,0.600000*%
%ADD12C,1.524000*%
%ADD13O,1.700000X1.850000*%
%ADD14R,1.100000X1.100000*%
%ADD15C,1.100000*%
%ADD16O,2.400000X1.100000*%
%ADD17O,0.499999X0.250000*%
%ADD18O,0.250000X0.499999*%
%ADD19C,0.599999*%
%ADD20C,3.700000*%
%ADD21C,2.200000*%
%ADD22C,2.600000*%
G04 APERTURE END LIST*
G04 #@! TO.C,R12*
G36*
G01*
X145049999Y-59125000D02*
X145049999Y-57875000D01*
G75*
G02*
X145149999Y-57775000I100000J0D01*
G01*
X145949999Y-57775000D01*
G75*
G02*
X146049999Y-57875000I0J-100000D01*
G01*
X146049999Y-59125000D01*
G75*
G02*
X145949999Y-59225000I-100000J0D01*
G01*
X145149999Y-59225000D01*
G75*
G02*
X145049999Y-59125000I0J100000D01*
G01*
G37*
G36*
G01*
X146950021Y-59125000D02*
X146950021Y-57875000D01*
G75*
G02*
X147050021Y-57775000I100000J0D01*
G01*
X147850021Y-57775000D01*
G75*
G02*
X147950021Y-57875000I0J-100000D01*
G01*
X147950021Y-59125000D01*
G75*
G02*
X147850021Y-59225000I-100000J0D01*
G01*
X147050021Y-59225000D01*
G75*
G02*
X146950021Y-59125000I0J100000D01*
G01*
G37*
G04 #@! TD*
G04 #@! TO.C,L2*
G36*
G01*
X83743750Y-34775000D02*
X84256250Y-34775000D01*
G75*
G02*
X84475000Y-34993750I0J-218750D01*
G01*
X84475000Y-35431250D01*
G75*
G02*
X84256250Y-35650000I-218750J0D01*
G01*
X83743750Y-35650000D01*
G75*
G02*
X83525000Y-35431250I0J218750D01*
G01*
X83525000Y-34993750D01*
G75*
G02*
X83743750Y-34775000I218750J0D01*
G01*
G37*
G36*
G01*
X83743750Y-36350000D02*
X84256250Y-36350000D01*
G75*
G02*
X84475000Y-36568750I0J-218750D01*
G01*
X84475000Y-37006250D01*
G75*
G02*
X84256250Y-37225000I-218750J0D01*
G01*
X83743750Y-37225000D01*
G75*
G02*
X83525000Y-37006250I0J218750D01*
G01*
X83525000Y-36568750D01*
G75*
G02*
X83743750Y-36350000I218750J0D01*
G01*
G37*
G04 #@! TD*
G04 #@! TO.C,Q1*
G36*
G01*
X127850000Y-46075000D02*
X127150000Y-46075000D01*
G75*
G02*
X126900000Y-45825000I0J250000D01*
G01*
X126900000Y-44125000D01*
G75*
G02*
X127150000Y-43875000I250000J0D01*
G01*
X127850000Y-43875000D01*
G75*
G02*
X128100000Y-44125000I0J-250000D01*
G01*
X128100000Y-45825000D01*
G75*
G02*
X127850000Y-46075000I-250000J0D01*
G01*
G37*
G36*
G01*
X132430003Y-41875000D02*
X127129997Y-41875000D01*
G75*
G02*
X126880000Y-41625003I0J249997D01*
G01*
X126880000Y-35724997D01*
G75*
G02*
X127129997Y-35475000I249997J0D01*
G01*
X132430003Y-35475000D01*
G75*
G02*
X132680000Y-35724997I0J-249997D01*
G01*
X132680000Y-41625003D01*
G75*
G02*
X132430003Y-41875000I-249997J0D01*
G01*
G37*
G36*
G01*
X132410000Y-46075000D02*
X131710000Y-46075000D01*
G75*
G02*
X131460000Y-45825000I0J250000D01*
G01*
X131460000Y-44125000D01*
G75*
G02*
X131710000Y-43875000I250000J0D01*
G01*
X132410000Y-43875000D01*
G75*
G02*
X132660000Y-44125000I0J-250000D01*
G01*
X132660000Y-45825000D01*
G75*
G02*
X132410000Y-46075000I-250000J0D01*
G01*
G37*
G04 #@! TD*
G04 #@! TO.C,Q4*
G36*
G01*
X103265000Y-46075000D02*
X102565000Y-46075000D01*
G75*
G02*
X102315000Y-45825000I0J250000D01*
G01*
X102315000Y-44125000D01*
G75*
G02*
X102565000Y-43875000I250000J0D01*
G01*
X103265000Y-43875000D01*
G75*
G02*
X103515000Y-44125000I0J-250000D01*
G01*
X103515000Y-45825000D01*
G75*
G02*
X103265000Y-46075000I-250000J0D01*
G01*
G37*
G36*
G01*
X107845003Y-41875000D02*
X102544997Y-41875000D01*
G75*
G02*
X102295000Y-41625003I0J249997D01*
G01*
X102295000Y-35724997D01*
G75*
G02*
X102544997Y-35475000I249997J0D01*
G01*
X107845003Y-35475000D01*
G75*
G02*
X108095000Y-35724997I0J-249997D01*
G01*
X108095000Y-41625003D01*
G75*
G02*
X107845003Y-41875000I-249997J0D01*
G01*
G37*
G36*
G01*
X107825000Y-46075000D02*
X107125000Y-46075000D01*
G75*
G02*
X106875000Y-45825000I0J250000D01*
G01*
X106875000Y-44125000D01*
G75*
G02*
X107125000Y-43875000I250000J0D01*
G01*
X107825000Y-43875000D01*
G75*
G02*
X108075000Y-44125000I0J-250000D01*
G01*
X108075000Y-45825000D01*
G75*
G02*
X107825000Y-46075000I-250000J0D01*
G01*
G37*
G04 #@! TD*
G04 #@! TO.C,C28*
G36*
G01*
X82575000Y-39840000D02*
X82575000Y-39160000D01*
G75*
G02*
X82660000Y-39075000I85000J0D01*
G01*
X83340000Y-39075000D01*
G75*
G02*
X83425000Y-39160000I0J-85000D01*
G01*
X83425000Y-39840000D01*
G75*
G02*
X83340000Y-39925000I-85000J0D01*
G01*
X82660000Y-39925000D01*
G75*
G02*
X82575000Y-39840000I0J85000D01*
G01*
G37*
G36*
G01*
X84155002Y-39840000D02*
X84155002Y-39160000D01*
G75*
G02*
X84240002Y-39075000I85000J0D01*
G01*
X84920002Y-39075000D01*
G75*
G02*
X85005002Y-39160000I0J-85000D01*
G01*
X85005002Y-39840000D01*
G75*
G02*
X84920002Y-39925000I-85000J0D01*
G01*
X84240002Y-39925000D01*
G75*
G02*
X84155002Y-39840000I0J85000D01*
G01*
G37*
G04 #@! TD*
G04 #@! TO.C,U7*
G36*
G01*
X92340000Y-54950000D02*
X92040000Y-54950000D01*
G75*
G02*
X91890000Y-54800000I0J150000D01*
G01*
X91890000Y-53150000D01*
G75*
G02*
X92040000Y-53000000I150000J0D01*
G01*
X92340000Y-53000000D01*
G75*
G02*
X92490000Y-53150000I0J-150000D01*
G01*
X92490000Y-54800000D01*
G75*
G02*
X92340000Y-54950000I-150000J0D01*
G01*
G37*
G36*
G01*
X93610000Y-54950000D02*
X93310000Y-54950000D01*
G75*
G02*
X93160000Y-54800000I0J150000D01*
G01*
X93160000Y-53150000D01*
G75*
G02*
X93310000Y-53000000I150000J0D01*
G01*
X93610000Y-53000000D01*
G75*
G02*
X93760000Y-53150000I0J-150000D01*
G01*
X93760000Y-54800000D01*
G75*
G02*
X93610000Y-54950000I-150000J0D01*
G01*
G37*
G36*
G01*
X94880000Y-54950000D02*
X94580000Y-54950000D01*
G75*
G02*
X94430000Y-54800000I0J150000D01*
G01*
X94430000Y-53150000D01*
G75*
G02*
X94580000Y-53000000I150000J0D01*
G01*
X94880000Y-53000000D01*
G75*
G02*
X95030000Y-53150000I0J-150000D01*
G01*
X95030000Y-54800000D01*
G75*
G02*
X94880000Y-54950000I-150000J0D01*
G01*
G37*
G36*
G01*
X96150000Y-54950000D02*
X95850000Y-54950000D01*
G75*
G02*
X95700000Y-54800000I0J150000D01*
G01*
X95700000Y-53150000D01*
G75*
G02*
X95850000Y-53000000I150000J0D01*
G01*
X96150000Y-53000000D01*
G75*
G02*
X96300000Y-53150000I0J-150000D01*
G01*
X96300000Y-54800000D01*
G75*
G02*
X96150000Y-54950000I-150000J0D01*
G01*
G37*
G36*
G01*
X96150000Y-50000000D02*
X95850000Y-50000000D01*
G75*
G02*
X95700000Y-49850000I0J150000D01*
G01*
X95700000Y-48200000D01*
G75*
G02*
X95850000Y-48050000I150000J0D01*
G01*
X96150000Y-48050000D01*
G75*
G02*
X96300000Y-48200000I0J-150000D01*
G01*
X96300000Y-49850000D01*
G75*
G02*
X96150000Y-50000000I-150000J0D01*
G01*
G37*
G36*
G01*
X94880000Y-50000000D02*
X94580000Y-50000000D01*
G75*
G02*
X94430000Y-49850000I0J150000D01*
G01*
X94430000Y-48200000D01*
G75*
G02*
X94580000Y-48050000I150000J0D01*
G01*
X94880000Y-48050000D01*
G75*
G02*
X95030000Y-48200000I0J-150000D01*
G01*
X95030000Y-49850000D01*
G75*
G02*
X94880000Y-50000000I-150000J0D01*
G01*
G37*
G36*
G01*
X93610000Y-50000000D02*
X93310000Y-50000000D01*
G75*
G02*
X93160000Y-49850000I0J150000D01*
G01*
X93160000Y-48200000D01*
G75*
G02*
X93310000Y-48050000I150000J0D01*
G01*
X93610000Y-48050000D01*
G75*
G02*
X93760000Y-48200000I0J-150000D01*
G01*
X93760000Y-49850000D01*
G75*
G02*
X93610000Y-50000000I-150000J0D01*
G01*
G37*
G36*
G01*
X92340000Y-50000000D02*
X92040000Y-50000000D01*
G75*
G02*
X91890000Y-49850000I0J150000D01*
G01*
X91890000Y-48200000D01*
G75*
G02*
X92040000Y-48050000I150000J0D01*
G01*
X92340000Y-48050000D01*
G75*
G02*
X92490000Y-48200000I0J-150000D01*
G01*
X92490000Y-49850000D01*
G75*
G02*
X92340000Y-50000000I-150000J0D01*
G01*
G37*
G04 #@! TD*
D10*
G04 #@! TO.C,M1*
X95749998Y-62500003D03*
X95749998Y-68900000D03*
X95749998Y-70800003D03*
X95749998Y-75100003D03*
D11*
X96199997Y-77500000D03*
X96199997Y-78500001D03*
D10*
X95749998Y-81350003D03*
X80250001Y-62050001D03*
X80250001Y-63900000D03*
X80250001Y-68850003D03*
X80250001Y-80900001D03*
G04 #@! TD*
D11*
G04 #@! TO.C,M2*
X155025000Y-37074999D03*
X155025000Y-36124999D03*
X155025000Y-35175001D03*
X163725000Y-36174999D03*
X163725000Y-37074999D03*
G04 #@! TD*
G04 #@! TO.C,U10*
G36*
G01*
X187920000Y-30300000D02*
X187520000Y-30300000D01*
G75*
G02*
X187320000Y-30100000I0J200000D01*
G01*
X187320000Y-28300000D01*
G75*
G02*
X187520000Y-28100000I200000J0D01*
G01*
X187920000Y-28100000D01*
G75*
G02*
X188120000Y-28300000I0J-200000D01*
G01*
X188120000Y-30100000D01*
G75*
G02*
X187920000Y-30300000I-200000J0D01*
G01*
G37*
G36*
G01*
X189060000Y-30300000D02*
X188660000Y-30300000D01*
G75*
G02*
X188460000Y-30100000I0J200000D01*
G01*
X188460000Y-28300000D01*
G75*
G02*
X188660000Y-28100000I200000J0D01*
G01*
X189060000Y-28100000D01*
G75*
G02*
X189260000Y-28300000I0J-200000D01*
G01*
X189260000Y-30100000D01*
G75*
G02*
X189060000Y-30300000I-200000J0D01*
G01*
G37*
G36*
G01*
X192650003Y-26100000D02*
X187349997Y-26100000D01*
G75*
G02*
X187100000Y-25850003I0J249997D01*
G01*
X187100000Y-19949997D01*
G75*
G02*
X187349997Y-19700000I249997J0D01*
G01*
X192650003Y-19700000D01*
G75*
G02*
X192900000Y-19949997I0J-249997D01*
G01*
X192900000Y-25850003D01*
G75*
G02*
X192650003Y-26100000I-249997J0D01*
G01*
G37*
G36*
G01*
X191340000Y-30300000D02*
X190940000Y-30300000D01*
G75*
G02*
X190740000Y-30100000I0J200000D01*
G01*
X190740000Y-28300000D01*
G75*
G02*
X190940000Y-28100000I200000J0D01*
G01*
X191340000Y-28100000D01*
G75*
G02*
X191540000Y-28300000I0J-200000D01*
G01*
X191540000Y-30100000D01*
G75*
G02*
X191340000Y-30300000I-200000J0D01*
G01*
G37*
G36*
G01*
X192480000Y-30300000D02*
X192080000Y-30300000D01*
G75*
G02*
X191880000Y-30100000I0J200000D01*
G01*
X191880000Y-28300000D01*
G75*
G02*
X192080000Y-28100000I200000J0D01*
G01*
X192480000Y-28100000D01*
G75*
G02*
X192680000Y-28300000I0J-200000D01*
G01*
X192680000Y-30100000D01*
G75*
G02*
X192480000Y-30300000I-200000J0D01*
G01*
G37*
G04 #@! TD*
G04 #@! TO.C,Q6*
G36*
G01*
X86875000Y-46075000D02*
X86175000Y-46075000D01*
G75*
G02*
X85925000Y-45825000I0J250000D01*
G01*
X85925000Y-44125000D01*
G75*
G02*
X86175000Y-43875000I250000J0D01*
G01*
X86875000Y-43875000D01*
G75*
G02*
X87125000Y-44125000I0J-250000D01*
G01*
X87125000Y-45825000D01*
G75*
G02*
X86875000Y-46075000I-250000J0D01*
G01*
G37*
G36*
G01*
X91455003Y-41875000D02*
X86154997Y-41875000D01*
G75*
G02*
X85905000Y-41625003I0J249997D01*
G01*
X85905000Y-35724997D01*
G75*
G02*
X86154997Y-35475000I249997J0D01*
G01*
X91455003Y-35475000D01*
G75*
G02*
X91705000Y-35724997I0J-249997D01*
G01*
X91705000Y-41625003D01*
G75*
G02*
X91455003Y-41875000I-249997J0D01*
G01*
G37*
G36*
G01*
X91435000Y-46075000D02*
X90735000Y-46075000D01*
G75*
G02*
X90485000Y-45825000I0J250000D01*
G01*
X90485000Y-44125000D01*
G75*
G02*
X90735000Y-43875000I250000J0D01*
G01*
X91435000Y-43875000D01*
G75*
G02*
X91685000Y-44125000I0J-250000D01*
G01*
X91685000Y-45825000D01*
G75*
G02*
X91435000Y-46075000I-250000J0D01*
G01*
G37*
G04 #@! TD*
G04 #@! TO.C,C29*
G36*
G01*
X82715001Y-46660000D02*
X82715001Y-47340000D01*
G75*
G02*
X82630001Y-47425000I-85000J0D01*
G01*
X81950001Y-47425000D01*
G75*
G02*
X81865001Y-47340000I0J85000D01*
G01*
X81865001Y-46660000D01*
G75*
G02*
X81950001Y-46575000I85000J0D01*
G01*
X82630001Y-46575000D01*
G75*
G02*
X82715001Y-46660000I0J-85000D01*
G01*
G37*
G36*
G01*
X81134999Y-46660000D02*
X81134999Y-47340000D01*
G75*
G02*
X81049999Y-47425000I-85000J0D01*
G01*
X80369999Y-47425000D01*
G75*
G02*
X80284999Y-47340000I0J85000D01*
G01*
X80284999Y-46660000D01*
G75*
G02*
X80369999Y-46575000I85000J0D01*
G01*
X81049999Y-46575000D01*
G75*
G02*
X81134999Y-46660000I0J-85000D01*
G01*
G37*
G04 #@! TD*
G04 #@! TO.C,M4*
X150800000Y-49137500D03*
X149600000Y-49137500D03*
X152000000Y-49137500D03*
X153200000Y-49137500D03*
X146740000Y-34712500D03*
X145740000Y-34712500D03*
G04 #@! TD*
G04 #@! TO.C,C31*
G36*
G01*
X80840000Y-52215001D02*
X80160000Y-52215001D01*
G75*
G02*
X80075000Y-52130001I0J85000D01*
G01*
X80075000Y-51450001D01*
G75*
G02*
X80160000Y-51365001I85000J0D01*
G01*
X80840000Y-51365001D01*
G75*
G02*
X80925000Y-51450001I0J-85000D01*
G01*
X80925000Y-52130001D01*
G75*
G02*
X80840000Y-52215001I-85000J0D01*
G01*
G37*
G36*
G01*
X80840000Y-50634999D02*
X80160000Y-50634999D01*
G75*
G02*
X80075000Y-50549999I0J85000D01*
G01*
X80075000Y-49869999D01*
G75*
G02*
X80160000Y-49784999I85000J0D01*
G01*
X80840000Y-49784999D01*
G75*
G02*
X80925000Y-49869999I0J-85000D01*
G01*
X80925000Y-50549999D01*
G75*
G02*
X80840000Y-50634999I-85000J0D01*
G01*
G37*
G04 #@! TD*
G04 #@! TO.C,R8*
G36*
G01*
X148549999Y-56125000D02*
X148549999Y-54875000D01*
G75*
G02*
X148649999Y-54775000I100000J0D01*
G01*
X149449999Y-54775000D01*
G75*
G02*
X149549999Y-54875000I0J-100000D01*
G01*
X149549999Y-56125000D01*
G75*
G02*
X149449999Y-56225000I-100000J0D01*
G01*
X148649999Y-56225000D01*
G75*
G02*
X148549999Y-56125000I0J100000D01*
G01*
G37*
G36*
G01*
X150450021Y-56125000D02*
X150450021Y-54875000D01*
G75*
G02*
X150550021Y-54775000I100000J0D01*
G01*
X151350021Y-54775000D01*
G75*
G02*
X151450021Y-54875000I0J-100000D01*
G01*
X151450021Y-56125000D01*
G75*
G02*
X151350021Y-56225000I-100000J0D01*
G01*
X150550021Y-56225000D01*
G75*
G02*
X150450021Y-56125000I0J100000D01*
G01*
G37*
G04 #@! TD*
G04 #@! TO.C,R10*
G36*
G01*
X145049999Y-53125000D02*
X145049999Y-51875000D01*
G75*
G02*
X145149999Y-51775000I100000J0D01*
G01*
X145949999Y-51775000D01*
G75*
G02*
X146049999Y-51875000I0J-100000D01*
G01*
X146049999Y-53125000D01*
G75*
G02*
X145949999Y-53225000I-100000J0D01*
G01*
X145149999Y-53225000D01*
G75*
G02*
X145049999Y-53125000I0J100000D01*
G01*
G37*
G36*
G01*
X146950021Y-53125000D02*
X146950021Y-51875000D01*
G75*
G02*
X147050021Y-51775000I100000J0D01*
G01*
X147850021Y-51775000D01*
G75*
G02*
X147950021Y-51875000I0J-100000D01*
G01*
X147950021Y-53125000D01*
G75*
G02*
X147850021Y-53225000I-100000J0D01*
G01*
X147050021Y-53225000D01*
G75*
G02*
X146950021Y-53125000I0J100000D01*
G01*
G37*
G04 #@! TD*
G04 #@! TO.C,U5*
G36*
G01*
X106245000Y-54950000D02*
X105945000Y-54950000D01*
G75*
G02*
X105795000Y-54800000I0J150000D01*
G01*
X105795000Y-53150000D01*
G75*
G02*
X105945000Y-53000000I150000J0D01*
G01*
X106245000Y-53000000D01*
G75*
G02*
X106395000Y-53150000I0J-150000D01*
G01*
X106395000Y-54800000D01*
G75*
G02*
X106245000Y-54950000I-150000J0D01*
G01*
G37*
G36*
G01*
X107515000Y-54950000D02*
X107215000Y-54950000D01*
G75*
G02*
X107065000Y-54800000I0J150000D01*
G01*
X107065000Y-53150000D01*
G75*
G02*
X107215000Y-53000000I150000J0D01*
G01*
X107515000Y-53000000D01*
G75*
G02*
X107665000Y-53150000I0J-150000D01*
G01*
X107665000Y-54800000D01*
G75*
G02*
X107515000Y-54950000I-150000J0D01*
G01*
G37*
G36*
G01*
X108785000Y-54950000D02*
X108485000Y-54950000D01*
G75*
G02*
X108335000Y-54800000I0J150000D01*
G01*
X108335000Y-53150000D01*
G75*
G02*
X108485000Y-53000000I150000J0D01*
G01*
X108785000Y-53000000D01*
G75*
G02*
X108935000Y-53150000I0J-150000D01*
G01*
X108935000Y-54800000D01*
G75*
G02*
X108785000Y-54950000I-150000J0D01*
G01*
G37*
G36*
G01*
X110055000Y-54950000D02*
X109755000Y-54950000D01*
G75*
G02*
X109605000Y-54800000I0J150000D01*
G01*
X109605000Y-53150000D01*
G75*
G02*
X109755000Y-53000000I150000J0D01*
G01*
X110055000Y-53000000D01*
G75*
G02*
X110205000Y-53150000I0J-150000D01*
G01*
X110205000Y-54800000D01*
G75*
G02*
X110055000Y-54950000I-150000J0D01*
G01*
G37*
G36*
G01*
X110055000Y-50000000D02*
X109755000Y-50000000D01*
G75*
G02*
X109605000Y-49850000I0J150000D01*
G01*
X109605000Y-48200000D01*
G75*
G02*
X109755000Y-48050000I150000J0D01*
G01*
X110055000Y-48050000D01*
G75*
G02*
X110205000Y-48200000I0J-150000D01*
G01*
X110205000Y-49850000D01*
G75*
G02*
X110055000Y-50000000I-150000J0D01*
G01*
G37*
G36*
G01*
X108785000Y-50000000D02*
X108485000Y-50000000D01*
G75*
G02*
X108335000Y-49850000I0J150000D01*
G01*
X108335000Y-48200000D01*
G75*
G02*
X108485000Y-48050000I150000J0D01*
G01*
X108785000Y-48050000D01*
G75*
G02*
X108935000Y-48200000I0J-150000D01*
G01*
X108935000Y-49850000D01*
G75*
G02*
X108785000Y-50000000I-150000J0D01*
G01*
G37*
G36*
G01*
X107515000Y-50000000D02*
X107215000Y-50000000D01*
G75*
G02*
X107065000Y-49850000I0J150000D01*
G01*
X107065000Y-48200000D01*
G75*
G02*
X107215000Y-48050000I150000J0D01*
G01*
X107515000Y-48050000D01*
G75*
G02*
X107665000Y-48200000I0J-150000D01*
G01*
X107665000Y-49850000D01*
G75*
G02*
X107515000Y-50000000I-150000J0D01*
G01*
G37*
G36*
G01*
X106245000Y-50000000D02*
X105945000Y-50000000D01*
G75*
G02*
X105795000Y-49850000I0J150000D01*
G01*
X105795000Y-48200000D01*
G75*
G02*
X105945000Y-48050000I150000J0D01*
G01*
X106245000Y-48050000D01*
G75*
G02*
X106395000Y-48200000I0J-150000D01*
G01*
X106395000Y-49850000D01*
G75*
G02*
X106245000Y-50000000I-150000J0D01*
G01*
G37*
G04 #@! TD*
D12*
G04 #@! TO.C,F2*
X79000000Y-35050000D03*
G36*
G01*
X78100000Y-36394990D02*
X78100000Y-35704990D01*
G75*
G02*
X78330000Y-35474990I230000J0D01*
G01*
X79670000Y-35474990D01*
G75*
G02*
X79900000Y-35704990I0J-230000D01*
G01*
X79900000Y-36394990D01*
G75*
G02*
X79670000Y-36624990I-230000J0D01*
G01*
X78330000Y-36624990D01*
G75*
G02*
X78100000Y-36394990I0J230000D01*
G01*
G37*
G36*
G01*
X78100000Y-39295010D02*
X78100000Y-38605010D01*
G75*
G02*
X78330000Y-38375010I230000J0D01*
G01*
X79670000Y-38375010D01*
G75*
G02*
X79900000Y-38605010I0J-230000D01*
G01*
X79900000Y-39295010D01*
G75*
G02*
X79670000Y-39525010I-230000J0D01*
G01*
X78330000Y-39525010D01*
G75*
G02*
X78100000Y-39295010I0J230000D01*
G01*
G37*
X79000000Y-39950000D03*
G04 #@! TD*
G04 #@! TO.C,Q3*
G36*
G01*
X111460000Y-46075000D02*
X110760000Y-46075000D01*
G75*
G02*
X110510000Y-45825000I0J250000D01*
G01*
X110510000Y-44125000D01*
G75*
G02*
X110760000Y-43875000I250000J0D01*
G01*
X111460000Y-43875000D01*
G75*
G02*
X111710000Y-44125000I0J-250000D01*
G01*
X111710000Y-45825000D01*
G75*
G02*
X111460000Y-46075000I-250000J0D01*
G01*
G37*
G36*
G01*
X116040003Y-41875000D02*
X110739997Y-41875000D01*
G75*
G02*
X110490000Y-41625003I0J249997D01*
G01*
X110490000Y-35724997D01*
G75*
G02*
X110739997Y-35475000I249997J0D01*
G01*
X116040003Y-35475000D01*
G75*
G02*
X116290000Y-35724997I0J-249997D01*
G01*
X116290000Y-41625003D01*
G75*
G02*
X116040003Y-41875000I-249997J0D01*
G01*
G37*
G36*
G01*
X116020000Y-46075000D02*
X115320000Y-46075000D01*
G75*
G02*
X115070000Y-45825000I0J250000D01*
G01*
X115070000Y-44125000D01*
G75*
G02*
X115320000Y-43875000I250000J0D01*
G01*
X116020000Y-43875000D01*
G75*
G02*
X116270000Y-44125000I0J-250000D01*
G01*
X116270000Y-45825000D01*
G75*
G02*
X116020000Y-46075000I-250000J0D01*
G01*
G37*
G04 #@! TD*
G04 #@! TO.C,R4*
X98500000Y-83045001D03*
G36*
G01*
X97875000Y-83500000D02*
X99125000Y-83500000D01*
G75*
G02*
X99225000Y-83600000I0J-100000D01*
G01*
X99225000Y-84400000D01*
G75*
G02*
X99125000Y-84500000I-100000J0D01*
G01*
X97875000Y-84500000D01*
G75*
G02*
X97775000Y-84400000I0J100000D01*
G01*
X97775000Y-83600000D01*
G75*
G02*
X97875000Y-83500000I100000J0D01*
G01*
G37*
G36*
G01*
X97875000Y-85400022D02*
X99125000Y-85400022D01*
G75*
G02*
X99225000Y-85500022I0J-100000D01*
G01*
X99225000Y-86300022D01*
G75*
G02*
X99125000Y-86400022I-100000J0D01*
G01*
X97875000Y-86400022D01*
G75*
G02*
X97775000Y-86300022I0J100000D01*
G01*
X97775000Y-85500022D01*
G75*
G02*
X97875000Y-85400022I100000J0D01*
G01*
G37*
X98500000Y-86855001D03*
G04 #@! TD*
G04 #@! TO.C,R9*
G36*
G01*
X148549999Y-59125000D02*
X148549999Y-57875000D01*
G75*
G02*
X148649999Y-57775000I100000J0D01*
G01*
X149449999Y-57775000D01*
G75*
G02*
X149549999Y-57875000I0J-100000D01*
G01*
X149549999Y-59125000D01*
G75*
G02*
X149449999Y-59225000I-100000J0D01*
G01*
X148649999Y-59225000D01*
G75*
G02*
X148549999Y-59125000I0J100000D01*
G01*
G37*
G36*
G01*
X150450021Y-59125000D02*
X150450021Y-57875000D01*
G75*
G02*
X150550021Y-57775000I100000J0D01*
G01*
X151350021Y-57775000D01*
G75*
G02*
X151450021Y-57875000I0J-100000D01*
G01*
X151450021Y-59125000D01*
G75*
G02*
X151350021Y-59225000I-100000J0D01*
G01*
X150550021Y-59225000D01*
G75*
G02*
X150450021Y-59125000I0J100000D01*
G01*
G37*
G04 #@! TD*
G04 #@! TO.C,F3*
X163950000Y-59000000D03*
G36*
G01*
X162605010Y-58100000D02*
X163295010Y-58100000D01*
G75*
G02*
X163525010Y-58330000I0J-230000D01*
G01*
X163525010Y-59670000D01*
G75*
G02*
X163295010Y-59900000I-230000J0D01*
G01*
X162605010Y-59900000D01*
G75*
G02*
X162375010Y-59670000I0J230000D01*
G01*
X162375010Y-58330000D01*
G75*
G02*
X162605010Y-58100000I230000J0D01*
G01*
G37*
G36*
G01*
X159704990Y-58100000D02*
X160394990Y-58100000D01*
G75*
G02*
X160624990Y-58330000I0J-230000D01*
G01*
X160624990Y-59670000D01*
G75*
G02*
X160394990Y-59900000I-230000J0D01*
G01*
X159704990Y-59900000D01*
G75*
G02*
X159474990Y-59670000I0J230000D01*
G01*
X159474990Y-58330000D01*
G75*
G02*
X159704990Y-58100000I230000J0D01*
G01*
G37*
X159050000Y-59000000D03*
G04 #@! TD*
G04 #@! TO.C,F1*
X76500000Y-35050000D03*
G36*
G01*
X75600000Y-36394990D02*
X75600000Y-35704990D01*
G75*
G02*
X75830000Y-35474990I230000J0D01*
G01*
X77170000Y-35474990D01*
G75*
G02*
X77400000Y-35704990I0J-230000D01*
G01*
X77400000Y-36394990D01*
G75*
G02*
X77170000Y-36624990I-230000J0D01*
G01*
X75830000Y-36624990D01*
G75*
G02*
X75600000Y-36394990I0J230000D01*
G01*
G37*
G36*
G01*
X75600000Y-39295010D02*
X75600000Y-38605010D01*
G75*
G02*
X75830000Y-38375010I230000J0D01*
G01*
X77170000Y-38375010D01*
G75*
G02*
X77400000Y-38605010I0J-230000D01*
G01*
X77400000Y-39295010D01*
G75*
G02*
X77170000Y-39525010I-230000J0D01*
G01*
X75830000Y-39525010D01*
G75*
G02*
X75600000Y-39295010I0J230000D01*
G01*
G37*
X76500000Y-39950000D03*
G04 #@! TD*
G04 #@! TO.C,Q7*
G36*
G01*
X188200000Y-35175000D02*
X187900000Y-35175000D01*
G75*
G02*
X187750000Y-35025000I0J150000D01*
G01*
X187750000Y-33850000D01*
G75*
G02*
X187900000Y-33700000I150000J0D01*
G01*
X188200000Y-33700000D01*
G75*
G02*
X188350000Y-33850000I0J-150000D01*
G01*
X188350000Y-35025000D01*
G75*
G02*
X188200000Y-35175000I-150000J0D01*
G01*
G37*
G36*
G01*
X190100000Y-35175000D02*
X189800000Y-35175000D01*
G75*
G02*
X189650000Y-35025000I0J150000D01*
G01*
X189650000Y-33850000D01*
G75*
G02*
X189800000Y-33700000I150000J0D01*
G01*
X190100000Y-33700000D01*
G75*
G02*
X190250000Y-33850000I0J-150000D01*
G01*
X190250000Y-35025000D01*
G75*
G02*
X190100000Y-35175000I-150000J0D01*
G01*
G37*
G36*
G01*
X189150000Y-33300000D02*
X188850000Y-33300000D01*
G75*
G02*
X188700000Y-33150000I0J150000D01*
G01*
X188700000Y-31975000D01*
G75*
G02*
X188850000Y-31825000I150000J0D01*
G01*
X189150000Y-31825000D01*
G75*
G02*
X189300000Y-31975000I0J-150000D01*
G01*
X189300000Y-33150000D01*
G75*
G02*
X189150000Y-33300000I-150000J0D01*
G01*
G37*
G04 #@! TD*
G04 #@! TO.C,J21*
G36*
G01*
X80150000Y-96325000D02*
X80150000Y-94975000D01*
G75*
G02*
X80400000Y-94725000I250000J0D01*
G01*
X81600000Y-94725000D01*
G75*
G02*
X81850000Y-94975000I0J-250000D01*
G01*
X81850000Y-96325000D01*
G75*
G02*
X81600000Y-96575000I-250000J0D01*
G01*
X80400000Y-96575000D01*
G75*
G02*
X80150000Y-96325000I0J250000D01*
G01*
G37*
D13*
X83500000Y-95650000D03*
X86000000Y-95650000D03*
X88500000Y-95650000D03*
X91000000Y-95650000D03*
G04 #@! TD*
G04 #@! TO.C,R15*
G36*
G01*
X187850000Y-37890000D02*
X187850000Y-37110000D01*
G75*
G02*
X187920000Y-37040000I70000J0D01*
G01*
X188480000Y-37040000D01*
G75*
G02*
X188550000Y-37110000I0J-70000D01*
G01*
X188550000Y-37890000D01*
G75*
G02*
X188480000Y-37960000I-70000J0D01*
G01*
X187920000Y-37960000D01*
G75*
G02*
X187850000Y-37890000I0J70000D01*
G01*
G37*
G36*
G01*
X189450000Y-37890000D02*
X189450000Y-37110000D01*
G75*
G02*
X189520000Y-37040000I70000J0D01*
G01*
X190080000Y-37040000D01*
G75*
G02*
X190150000Y-37110000I0J-70000D01*
G01*
X190150000Y-37890000D01*
G75*
G02*
X190080000Y-37960000I-70000J0D01*
G01*
X189520000Y-37960000D01*
G75*
G02*
X189450000Y-37890000I0J70000D01*
G01*
G37*
G04 #@! TD*
G04 #@! TO.C,C30*
G36*
G01*
X82925000Y-40160000D02*
X82925000Y-40840000D01*
G75*
G02*
X82840000Y-40925000I-85000J0D01*
G01*
X82160000Y-40925000D01*
G75*
G02*
X82075000Y-40840000I0J85000D01*
G01*
X82075000Y-40160000D01*
G75*
G02*
X82160000Y-40075000I85000J0D01*
G01*
X82840000Y-40075000D01*
G75*
G02*
X82925000Y-40160000I0J-85000D01*
G01*
G37*
G36*
G01*
X81344998Y-40160000D02*
X81344998Y-40840000D01*
G75*
G02*
X81259998Y-40925000I-85000J0D01*
G01*
X80579998Y-40925000D01*
G75*
G02*
X80494998Y-40840000I0J85000D01*
G01*
X80494998Y-40160000D01*
G75*
G02*
X80579998Y-40075000I85000J0D01*
G01*
X81259998Y-40075000D01*
G75*
G02*
X81344998Y-40160000I0J-85000D01*
G01*
G37*
G04 #@! TD*
G04 #@! TO.C,D6*
G36*
G01*
X82300000Y-42325000D02*
X82600000Y-42325000D01*
G75*
G02*
X82750000Y-42475000I0J-150000D01*
G01*
X82750000Y-43650000D01*
G75*
G02*
X82600000Y-43800000I-150000J0D01*
G01*
X82300000Y-43800000D01*
G75*
G02*
X82150000Y-43650000I0J150000D01*
G01*
X82150000Y-42475000D01*
G75*
G02*
X82300000Y-42325000I150000J0D01*
G01*
G37*
G36*
G01*
X80400000Y-42325000D02*
X80700000Y-42325000D01*
G75*
G02*
X80850000Y-42475000I0J-150000D01*
G01*
X80850000Y-43650000D01*
G75*
G02*
X80700000Y-43800000I-150000J0D01*
G01*
X80400000Y-43800000D01*
G75*
G02*
X80250000Y-43650000I0J150000D01*
G01*
X80250000Y-42475000D01*
G75*
G02*
X80400000Y-42325000I150000J0D01*
G01*
G37*
G36*
G01*
X81350000Y-44200000D02*
X81650000Y-44200000D01*
G75*
G02*
X81800000Y-44350000I0J-150000D01*
G01*
X81800000Y-45525000D01*
G75*
G02*
X81650000Y-45675000I-150000J0D01*
G01*
X81350000Y-45675000D01*
G75*
G02*
X81200000Y-45525000I0J150000D01*
G01*
X81200000Y-44350000D01*
G75*
G02*
X81350000Y-44200000I150000J0D01*
G01*
G37*
G04 #@! TD*
G04 #@! TO.C,U3*
G36*
G01*
X120745000Y-54950000D02*
X120445000Y-54950000D01*
G75*
G02*
X120295000Y-54800000I0J150000D01*
G01*
X120295000Y-53150000D01*
G75*
G02*
X120445000Y-53000000I150000J0D01*
G01*
X120745000Y-53000000D01*
G75*
G02*
X120895000Y-53150000I0J-150000D01*
G01*
X120895000Y-54800000D01*
G75*
G02*
X120745000Y-54950000I-150000J0D01*
G01*
G37*
G36*
G01*
X122015000Y-54950000D02*
X121715000Y-54950000D01*
G75*
G02*
X121565000Y-54800000I0J150000D01*
G01*
X121565000Y-53150000D01*
G75*
G02*
X121715000Y-53000000I150000J0D01*
G01*
X122015000Y-53000000D01*
G75*
G02*
X122165000Y-53150000I0J-150000D01*
G01*
X122165000Y-54800000D01*
G75*
G02*
X122015000Y-54950000I-150000J0D01*
G01*
G37*
G36*
G01*
X123285000Y-54950000D02*
X122985000Y-54950000D01*
G75*
G02*
X122835000Y-54800000I0J150000D01*
G01*
X122835000Y-53150000D01*
G75*
G02*
X122985000Y-53000000I150000J0D01*
G01*
X123285000Y-53000000D01*
G75*
G02*
X123435000Y-53150000I0J-150000D01*
G01*
X123435000Y-54800000D01*
G75*
G02*
X123285000Y-54950000I-150000J0D01*
G01*
G37*
G36*
G01*
X124555000Y-54950000D02*
X124255000Y-54950000D01*
G75*
G02*
X124105000Y-54800000I0J150000D01*
G01*
X124105000Y-53150000D01*
G75*
G02*
X124255000Y-53000000I150000J0D01*
G01*
X124555000Y-53000000D01*
G75*
G02*
X124705000Y-53150000I0J-150000D01*
G01*
X124705000Y-54800000D01*
G75*
G02*
X124555000Y-54950000I-150000J0D01*
G01*
G37*
G36*
G01*
X124555000Y-50000000D02*
X124255000Y-50000000D01*
G75*
G02*
X124105000Y-49850000I0J150000D01*
G01*
X124105000Y-48200000D01*
G75*
G02*
X124255000Y-48050000I150000J0D01*
G01*
X124555000Y-48050000D01*
G75*
G02*
X124705000Y-48200000I0J-150000D01*
G01*
X124705000Y-49850000D01*
G75*
G02*
X124555000Y-50000000I-150000J0D01*
G01*
G37*
G36*
G01*
X123285000Y-50000000D02*
X122985000Y-50000000D01*
G75*
G02*
X122835000Y-49850000I0J150000D01*
G01*
X122835000Y-48200000D01*
G75*
G02*
X122985000Y-48050000I150000J0D01*
G01*
X123285000Y-48050000D01*
G75*
G02*
X123435000Y-48200000I0J-150000D01*
G01*
X123435000Y-49850000D01*
G75*
G02*
X123285000Y-50000000I-150000J0D01*
G01*
G37*
G36*
G01*
X122015000Y-50000000D02*
X121715000Y-50000000D01*
G75*
G02*
X121565000Y-49850000I0J150000D01*
G01*
X121565000Y-48200000D01*
G75*
G02*
X121715000Y-48050000I150000J0D01*
G01*
X122015000Y-48050000D01*
G75*
G02*
X122165000Y-48200000I0J-150000D01*
G01*
X122165000Y-49850000D01*
G75*
G02*
X122015000Y-50000000I-150000J0D01*
G01*
G37*
G36*
G01*
X120745000Y-50000000D02*
X120445000Y-50000000D01*
G75*
G02*
X120295000Y-49850000I0J150000D01*
G01*
X120295000Y-48200000D01*
G75*
G02*
X120445000Y-48050000I150000J0D01*
G01*
X120745000Y-48050000D01*
G75*
G02*
X120895000Y-48200000I0J-150000D01*
G01*
X120895000Y-49850000D01*
G75*
G02*
X120745000Y-50000000I-150000J0D01*
G01*
G37*
G04 #@! TD*
G04 #@! TO.C,Q5*
G36*
G01*
X95070000Y-46075000D02*
X94370000Y-46075000D01*
G75*
G02*
X94120000Y-45825000I0J250000D01*
G01*
X94120000Y-44125000D01*
G75*
G02*
X94370000Y-43875000I250000J0D01*
G01*
X95070000Y-43875000D01*
G75*
G02*
X95320000Y-44125000I0J-250000D01*
G01*
X95320000Y-45825000D01*
G75*
G02*
X95070000Y-46075000I-250000J0D01*
G01*
G37*
G36*
G01*
X99650003Y-41875000D02*
X94349997Y-41875000D01*
G75*
G02*
X94100000Y-41625003I0J249997D01*
G01*
X94100000Y-35724997D01*
G75*
G02*
X94349997Y-35475000I249997J0D01*
G01*
X99650003Y-35475000D01*
G75*
G02*
X99900000Y-35724997I0J-249997D01*
G01*
X99900000Y-41625003D01*
G75*
G02*
X99650003Y-41875000I-249997J0D01*
G01*
G37*
G36*
G01*
X99630000Y-46075000D02*
X98930000Y-46075000D01*
G75*
G02*
X98680000Y-45825000I0J250000D01*
G01*
X98680000Y-44125000D01*
G75*
G02*
X98930000Y-43875000I250000J0D01*
G01*
X99630000Y-43875000D01*
G75*
G02*
X99880000Y-44125000I0J-250000D01*
G01*
X99880000Y-45825000D01*
G75*
G02*
X99630000Y-46075000I-250000J0D01*
G01*
G37*
G04 #@! TD*
D11*
G04 #@! TO.C,M3*
X140625000Y-49325000D03*
X139425000Y-49325000D03*
X141825000Y-49325000D03*
X143025000Y-49325000D03*
X136565000Y-34900000D03*
X135565000Y-34900000D03*
G04 #@! TD*
G04 #@! TO.C,R1*
G36*
G01*
X155890000Y-41150000D02*
X155110000Y-41150000D01*
G75*
G02*
X155040000Y-41080000I0J70000D01*
G01*
X155040000Y-40520000D01*
G75*
G02*
X155110000Y-40450000I70000J0D01*
G01*
X155890000Y-40450000D01*
G75*
G02*
X155960000Y-40520000I0J-70000D01*
G01*
X155960000Y-41080000D01*
G75*
G02*
X155890000Y-41150000I-70000J0D01*
G01*
G37*
G36*
G01*
X155890000Y-39550000D02*
X155110000Y-39550000D01*
G75*
G02*
X155040000Y-39480000I0J70000D01*
G01*
X155040000Y-38920000D01*
G75*
G02*
X155110000Y-38850000I70000J0D01*
G01*
X155890000Y-38850000D01*
G75*
G02*
X155960000Y-38920000I0J-70000D01*
G01*
X155960000Y-39480000D01*
G75*
G02*
X155890000Y-39550000I-70000J0D01*
G01*
G37*
G04 #@! TD*
G04 #@! TO.C,R54*
G36*
G01*
X191610000Y-32350000D02*
X192390000Y-32350000D01*
G75*
G02*
X192460000Y-32420000I0J-70000D01*
G01*
X192460000Y-32980000D01*
G75*
G02*
X192390000Y-33050000I-70000J0D01*
G01*
X191610000Y-33050000D01*
G75*
G02*
X191540000Y-32980000I0J70000D01*
G01*
X191540000Y-32420000D01*
G75*
G02*
X191610000Y-32350000I70000J0D01*
G01*
G37*
G36*
G01*
X191610000Y-33950000D02*
X192390000Y-33950000D01*
G75*
G02*
X192460000Y-34020000I0J-70000D01*
G01*
X192460000Y-34580000D01*
G75*
G02*
X192390000Y-34650000I-70000J0D01*
G01*
X191610000Y-34650000D01*
G75*
G02*
X191540000Y-34580000I0J70000D01*
G01*
X191540000Y-34020000D01*
G75*
G02*
X191610000Y-33950000I70000J0D01*
G01*
G37*
G04 #@! TD*
G04 #@! TO.C,R6*
G36*
G01*
X139610000Y-51150000D02*
X140390000Y-51150000D01*
G75*
G02*
X140460000Y-51220000I0J-70000D01*
G01*
X140460000Y-51780000D01*
G75*
G02*
X140390000Y-51850000I-70000J0D01*
G01*
X139610000Y-51850000D01*
G75*
G02*
X139540000Y-51780000I0J70000D01*
G01*
X139540000Y-51220000D01*
G75*
G02*
X139610000Y-51150000I70000J0D01*
G01*
G37*
G36*
G01*
X139610000Y-52750000D02*
X140390000Y-52750000D01*
G75*
G02*
X140460000Y-52820000I0J-70000D01*
G01*
X140460000Y-53380000D01*
G75*
G02*
X140390000Y-53450000I-70000J0D01*
G01*
X139610000Y-53450000D01*
G75*
G02*
X139540000Y-53380000I0J70000D01*
G01*
X139540000Y-52820000D01*
G75*
G02*
X139610000Y-52750000I70000J0D01*
G01*
G37*
G04 #@! TD*
G04 #@! TO.C,U6*
G36*
G01*
X113380000Y-54950000D02*
X113080000Y-54950000D01*
G75*
G02*
X112930000Y-54800000I0J150000D01*
G01*
X112930000Y-53150000D01*
G75*
G02*
X113080000Y-53000000I150000J0D01*
G01*
X113380000Y-53000000D01*
G75*
G02*
X113530000Y-53150000I0J-150000D01*
G01*
X113530000Y-54800000D01*
G75*
G02*
X113380000Y-54950000I-150000J0D01*
G01*
G37*
G36*
G01*
X114650000Y-54950000D02*
X114350000Y-54950000D01*
G75*
G02*
X114200000Y-54800000I0J150000D01*
G01*
X114200000Y-53150000D01*
G75*
G02*
X114350000Y-53000000I150000J0D01*
G01*
X114650000Y-53000000D01*
G75*
G02*
X114800000Y-53150000I0J-150000D01*
G01*
X114800000Y-54800000D01*
G75*
G02*
X114650000Y-54950000I-150000J0D01*
G01*
G37*
G36*
G01*
X115920000Y-54950000D02*
X115620000Y-54950000D01*
G75*
G02*
X115470000Y-54800000I0J150000D01*
G01*
X115470000Y-53150000D01*
G75*
G02*
X115620000Y-53000000I150000J0D01*
G01*
X115920000Y-53000000D01*
G75*
G02*
X116070000Y-53150000I0J-150000D01*
G01*
X116070000Y-54800000D01*
G75*
G02*
X115920000Y-54950000I-150000J0D01*
G01*
G37*
G36*
G01*
X117190000Y-54950000D02*
X116890000Y-54950000D01*
G75*
G02*
X116740000Y-54800000I0J150000D01*
G01*
X116740000Y-53150000D01*
G75*
G02*
X116890000Y-53000000I150000J0D01*
G01*
X117190000Y-53000000D01*
G75*
G02*
X117340000Y-53150000I0J-150000D01*
G01*
X117340000Y-54800000D01*
G75*
G02*
X117190000Y-54950000I-150000J0D01*
G01*
G37*
G36*
G01*
X117190000Y-50000000D02*
X116890000Y-50000000D01*
G75*
G02*
X116740000Y-49850000I0J150000D01*
G01*
X116740000Y-48200000D01*
G75*
G02*
X116890000Y-48050000I150000J0D01*
G01*
X117190000Y-48050000D01*
G75*
G02*
X117340000Y-48200000I0J-150000D01*
G01*
X117340000Y-49850000D01*
G75*
G02*
X117190000Y-50000000I-150000J0D01*
G01*
G37*
G36*
G01*
X115920000Y-50000000D02*
X115620000Y-50000000D01*
G75*
G02*
X115470000Y-49850000I0J150000D01*
G01*
X115470000Y-48200000D01*
G75*
G02*
X115620000Y-48050000I150000J0D01*
G01*
X115920000Y-48050000D01*
G75*
G02*
X116070000Y-48200000I0J-150000D01*
G01*
X116070000Y-49850000D01*
G75*
G02*
X115920000Y-50000000I-150000J0D01*
G01*
G37*
G36*
G01*
X114650000Y-50000000D02*
X114350000Y-50000000D01*
G75*
G02*
X114200000Y-49850000I0J150000D01*
G01*
X114200000Y-48200000D01*
G75*
G02*
X114350000Y-48050000I150000J0D01*
G01*
X114650000Y-48050000D01*
G75*
G02*
X114800000Y-48200000I0J-150000D01*
G01*
X114800000Y-49850000D01*
G75*
G02*
X114650000Y-50000000I-150000J0D01*
G01*
G37*
G36*
G01*
X113380000Y-50000000D02*
X113080000Y-50000000D01*
G75*
G02*
X112930000Y-49850000I0J150000D01*
G01*
X112930000Y-48200000D01*
G75*
G02*
X113080000Y-48050000I150000J0D01*
G01*
X113380000Y-48050000D01*
G75*
G02*
X113530000Y-48200000I0J-150000D01*
G01*
X113530000Y-49850000D01*
G75*
G02*
X113380000Y-50000000I-150000J0D01*
G01*
G37*
G04 #@! TD*
G04 #@! TO.C,L1*
G36*
G01*
X81743750Y-34775000D02*
X82256250Y-34775000D01*
G75*
G02*
X82475000Y-34993750I0J-218750D01*
G01*
X82475000Y-35431250D01*
G75*
G02*
X82256250Y-35650000I-218750J0D01*
G01*
X81743750Y-35650000D01*
G75*
G02*
X81525000Y-35431250I0J218750D01*
G01*
X81525000Y-34993750D01*
G75*
G02*
X81743750Y-34775000I218750J0D01*
G01*
G37*
G36*
G01*
X81743750Y-36350000D02*
X82256250Y-36350000D01*
G75*
G02*
X82475000Y-36568750I0J-218750D01*
G01*
X82475000Y-37006250D01*
G75*
G02*
X82256250Y-37225000I-218750J0D01*
G01*
X81743750Y-37225000D01*
G75*
G02*
X81525000Y-37006250I0J218750D01*
G01*
X81525000Y-36568750D01*
G75*
G02*
X81743750Y-36350000I218750J0D01*
G01*
G37*
G04 #@! TD*
G04 #@! TO.C,R7*
G36*
G01*
X148549999Y-53125000D02*
X148549999Y-51875000D01*
G75*
G02*
X148649999Y-51775000I100000J0D01*
G01*
X149449999Y-51775000D01*
G75*
G02*
X149549999Y-51875000I0J-100000D01*
G01*
X149549999Y-53125000D01*
G75*
G02*
X149449999Y-53225000I-100000J0D01*
G01*
X148649999Y-53225000D01*
G75*
G02*
X148549999Y-53125000I0J100000D01*
G01*
G37*
G36*
G01*
X150450021Y-53125000D02*
X150450021Y-51875000D01*
G75*
G02*
X150550021Y-51775000I100000J0D01*
G01*
X151350021Y-51775000D01*
G75*
G02*
X151450021Y-51875000I0J-100000D01*
G01*
X151450021Y-53125000D01*
G75*
G02*
X151350021Y-53225000I-100000J0D01*
G01*
X150550021Y-53225000D01*
G75*
G02*
X150450021Y-53125000I0J100000D01*
G01*
G37*
G04 #@! TD*
G04 #@! TO.C,R11*
G36*
G01*
X145049999Y-56125000D02*
X145049999Y-54875000D01*
G75*
G02*
X145149999Y-54775000I100000J0D01*
G01*
X145949999Y-54775000D01*
G75*
G02*
X146049999Y-54875000I0J-100000D01*
G01*
X146049999Y-56125000D01*
G75*
G02*
X145949999Y-56225000I-100000J0D01*
G01*
X145149999Y-56225000D01*
G75*
G02*
X145049999Y-56125000I0J100000D01*
G01*
G37*
G36*
G01*
X146950021Y-56125000D02*
X146950021Y-54875000D01*
G75*
G02*
X147050021Y-54775000I100000J0D01*
G01*
X147850021Y-54775000D01*
G75*
G02*
X147950021Y-54875000I0J-100000D01*
G01*
X147950021Y-56125000D01*
G75*
G02*
X147850021Y-56225000I-100000J0D01*
G01*
X147050021Y-56225000D01*
G75*
G02*
X146950021Y-56125000I0J100000D01*
G01*
G37*
G04 #@! TD*
G04 #@! TO.C,U4*
G36*
G01*
X99745000Y-54950000D02*
X99445000Y-54950000D01*
G75*
G02*
X99295000Y-54800000I0J150000D01*
G01*
X99295000Y-53150000D01*
G75*
G02*
X99445000Y-53000000I150000J0D01*
G01*
X99745000Y-53000000D01*
G75*
G02*
X99895000Y-53150000I0J-150000D01*
G01*
X99895000Y-54800000D01*
G75*
G02*
X99745000Y-54950000I-150000J0D01*
G01*
G37*
G36*
G01*
X101015000Y-54950000D02*
X100715000Y-54950000D01*
G75*
G02*
X100565000Y-54800000I0J150000D01*
G01*
X100565000Y-53150000D01*
G75*
G02*
X100715000Y-53000000I150000J0D01*
G01*
X101015000Y-53000000D01*
G75*
G02*
X101165000Y-53150000I0J-150000D01*
G01*
X101165000Y-54800000D01*
G75*
G02*
X101015000Y-54950000I-150000J0D01*
G01*
G37*
G36*
G01*
X102285000Y-54950000D02*
X101985000Y-54950000D01*
G75*
G02*
X101835000Y-54800000I0J150000D01*
G01*
X101835000Y-53150000D01*
G75*
G02*
X101985000Y-53000000I150000J0D01*
G01*
X102285000Y-53000000D01*
G75*
G02*
X102435000Y-53150000I0J-150000D01*
G01*
X102435000Y-54800000D01*
G75*
G02*
X102285000Y-54950000I-150000J0D01*
G01*
G37*
G36*
G01*
X103555000Y-54950000D02*
X103255000Y-54950000D01*
G75*
G02*
X103105000Y-54800000I0J150000D01*
G01*
X103105000Y-53150000D01*
G75*
G02*
X103255000Y-53000000I150000J0D01*
G01*
X103555000Y-53000000D01*
G75*
G02*
X103705000Y-53150000I0J-150000D01*
G01*
X103705000Y-54800000D01*
G75*
G02*
X103555000Y-54950000I-150000J0D01*
G01*
G37*
G36*
G01*
X103555000Y-50000000D02*
X103255000Y-50000000D01*
G75*
G02*
X103105000Y-49850000I0J150000D01*
G01*
X103105000Y-48200000D01*
G75*
G02*
X103255000Y-48050000I150000J0D01*
G01*
X103555000Y-48050000D01*
G75*
G02*
X103705000Y-48200000I0J-150000D01*
G01*
X103705000Y-49850000D01*
G75*
G02*
X103555000Y-50000000I-150000J0D01*
G01*
G37*
G36*
G01*
X102285000Y-50000000D02*
X101985000Y-50000000D01*
G75*
G02*
X101835000Y-49850000I0J150000D01*
G01*
X101835000Y-48200000D01*
G75*
G02*
X101985000Y-48050000I150000J0D01*
G01*
X102285000Y-48050000D01*
G75*
G02*
X102435000Y-48200000I0J-150000D01*
G01*
X102435000Y-49850000D01*
G75*
G02*
X102285000Y-50000000I-150000J0D01*
G01*
G37*
G36*
G01*
X101015000Y-50000000D02*
X100715000Y-50000000D01*
G75*
G02*
X100565000Y-49850000I0J150000D01*
G01*
X100565000Y-48200000D01*
G75*
G02*
X100715000Y-48050000I150000J0D01*
G01*
X101015000Y-48050000D01*
G75*
G02*
X101165000Y-48200000I0J-150000D01*
G01*
X101165000Y-49850000D01*
G75*
G02*
X101015000Y-50000000I-150000J0D01*
G01*
G37*
G36*
G01*
X99745000Y-50000000D02*
X99445000Y-50000000D01*
G75*
G02*
X99295000Y-49850000I0J150000D01*
G01*
X99295000Y-48200000D01*
G75*
G02*
X99445000Y-48050000I150000J0D01*
G01*
X99745000Y-48050000D01*
G75*
G02*
X99895000Y-48200000I0J-150000D01*
G01*
X99895000Y-49850000D01*
G75*
G02*
X99745000Y-50000000I-150000J0D01*
G01*
G37*
G04 #@! TD*
G04 #@! TO.C,D5*
G36*
G01*
X198650000Y-30250000D02*
X197350000Y-30250000D01*
G75*
G02*
X197100000Y-30000000I0J250000D01*
G01*
X197100000Y-28000000D01*
G75*
G02*
X197350000Y-27750000I250000J0D01*
G01*
X198650000Y-27750000D01*
G75*
G02*
X198900000Y-28000000I0J-250000D01*
G01*
X198900000Y-30000000D01*
G75*
G02*
X198650000Y-30250000I-250000J0D01*
G01*
G37*
G36*
G01*
X198650000Y-26250000D02*
X197350000Y-26250000D01*
G75*
G02*
X197100000Y-26000000I0J250000D01*
G01*
X197100000Y-24000000D01*
G75*
G02*
X197350000Y-23750000I250000J0D01*
G01*
X198650000Y-23750000D01*
G75*
G02*
X198900000Y-24000000I0J-250000D01*
G01*
X198900000Y-26000000D01*
G75*
G02*
X198650000Y-26250000I-250000J0D01*
G01*
G37*
G04 #@! TD*
D14*
G04 #@! TO.C,J22*
X98375000Y-95250000D03*
D15*
X96625000Y-94450000D03*
X98375000Y-93650000D03*
X96625000Y-92850000D03*
X98375000Y-92050000D03*
D16*
X97500000Y-97300000D03*
X97500000Y-90000000D03*
G04 #@! TD*
G04 #@! TO.C,Q2*
G36*
G01*
X119655000Y-46075000D02*
X118955000Y-46075000D01*
G75*
G02*
X118705000Y-45825000I0J250000D01*
G01*
X118705000Y-44125000D01*
G75*
G02*
X118955000Y-43875000I250000J0D01*
G01*
X119655000Y-43875000D01*
G75*
G02*
X119905000Y-44125000I0J-250000D01*
G01*
X119905000Y-45825000D01*
G75*
G02*
X119655000Y-46075000I-250000J0D01*
G01*
G37*
G36*
G01*
X124235003Y-41875000D02*
X118934997Y-41875000D01*
G75*
G02*
X118685000Y-41625003I0J249997D01*
G01*
X118685000Y-35724997D01*
G75*
G02*
X118934997Y-35475000I249997J0D01*
G01*
X124235003Y-35475000D01*
G75*
G02*
X124485000Y-35724997I0J-249997D01*
G01*
X124485000Y-41625003D01*
G75*
G02*
X124235003Y-41875000I-249997J0D01*
G01*
G37*
G36*
G01*
X124215000Y-46075000D02*
X123515000Y-46075000D01*
G75*
G02*
X123265000Y-45825000I0J250000D01*
G01*
X123265000Y-44125000D01*
G75*
G02*
X123515000Y-43875000I250000J0D01*
G01*
X124215000Y-43875000D01*
G75*
G02*
X124465000Y-44125000I0J-250000D01*
G01*
X124465000Y-45825000D01*
G75*
G02*
X124215000Y-46075000I-250000J0D01*
G01*
G37*
G04 #@! TD*
G04 #@! TO.C,C32*
G36*
G01*
X79340000Y-52215001D02*
X78660000Y-52215001D01*
G75*
G02*
X78575000Y-52130001I0J85000D01*
G01*
X78575000Y-51450001D01*
G75*
G02*
X78660000Y-51365001I85000J0D01*
G01*
X79340000Y-51365001D01*
G75*
G02*
X79425000Y-51450001I0J-85000D01*
G01*
X79425000Y-52130001D01*
G75*
G02*
X79340000Y-52215001I-85000J0D01*
G01*
G37*
G36*
G01*
X79340000Y-50634999D02*
X78660000Y-50634999D01*
G75*
G02*
X78575000Y-50549999I0J85000D01*
G01*
X78575000Y-49869999D01*
G75*
G02*
X78660000Y-49784999I85000J0D01*
G01*
X79340000Y-49784999D01*
G75*
G02*
X79425000Y-49869999I0J-85000D01*
G01*
X79425000Y-50549999D01*
G75*
G02*
X79340000Y-50634999I-85000J0D01*
G01*
G37*
G04 #@! TD*
D17*
G04 #@! TO.C,M7*
X92437495Y-90143334D03*
D18*
X82087501Y-90093336D03*
X82587502Y-90093336D03*
D19*
X89137499Y-89043338D03*
X88262497Y-88518338D03*
X89437501Y-87768340D03*
X89362498Y-84218339D03*
G04 #@! TD*
G04 #@! TO.C,R5*
G36*
G01*
X141610000Y-51150000D02*
X142390000Y-51150000D01*
G75*
G02*
X142460000Y-51220000I0J-70000D01*
G01*
X142460000Y-51780000D01*
G75*
G02*
X142390000Y-51850000I-70000J0D01*
G01*
X141610000Y-51850000D01*
G75*
G02*
X141540000Y-51780000I0J70000D01*
G01*
X141540000Y-51220000D01*
G75*
G02*
X141610000Y-51150000I70000J0D01*
G01*
G37*
G36*
G01*
X141610000Y-52750000D02*
X142390000Y-52750000D01*
G75*
G02*
X142460000Y-52820000I0J-70000D01*
G01*
X142460000Y-53380000D01*
G75*
G02*
X142390000Y-53450000I-70000J0D01*
G01*
X141610000Y-53450000D01*
G75*
G02*
X141540000Y-53380000I0J70000D01*
G01*
X141540000Y-52820000D01*
G75*
G02*
X141610000Y-52750000I70000J0D01*
G01*
G37*
G04 #@! TD*
G04 #@! TO.C,U9*
G36*
G01*
X128245000Y-54950000D02*
X127945000Y-54950000D01*
G75*
G02*
X127795000Y-54800000I0J150000D01*
G01*
X127795000Y-53150000D01*
G75*
G02*
X127945000Y-53000000I150000J0D01*
G01*
X128245000Y-53000000D01*
G75*
G02*
X128395000Y-53150000I0J-150000D01*
G01*
X128395000Y-54800000D01*
G75*
G02*
X128245000Y-54950000I-150000J0D01*
G01*
G37*
G36*
G01*
X129515000Y-54950000D02*
X129215000Y-54950000D01*
G75*
G02*
X129065000Y-54800000I0J150000D01*
G01*
X129065000Y-53150000D01*
G75*
G02*
X129215000Y-53000000I150000J0D01*
G01*
X129515000Y-53000000D01*
G75*
G02*
X129665000Y-53150000I0J-150000D01*
G01*
X129665000Y-54800000D01*
G75*
G02*
X129515000Y-54950000I-150000J0D01*
G01*
G37*
G36*
G01*
X130785000Y-54950000D02*
X130485000Y-54950000D01*
G75*
G02*
X130335000Y-54800000I0J150000D01*
G01*
X130335000Y-53150000D01*
G75*
G02*
X130485000Y-53000000I150000J0D01*
G01*
X130785000Y-53000000D01*
G75*
G02*
X130935000Y-53150000I0J-150000D01*
G01*
X130935000Y-54800000D01*
G75*
G02*
X130785000Y-54950000I-150000J0D01*
G01*
G37*
G36*
G01*
X132055000Y-54950000D02*
X131755000Y-54950000D01*
G75*
G02*
X131605000Y-54800000I0J150000D01*
G01*
X131605000Y-53150000D01*
G75*
G02*
X131755000Y-53000000I150000J0D01*
G01*
X132055000Y-53000000D01*
G75*
G02*
X132205000Y-53150000I0J-150000D01*
G01*
X132205000Y-54800000D01*
G75*
G02*
X132055000Y-54950000I-150000J0D01*
G01*
G37*
G36*
G01*
X132055000Y-50000000D02*
X131755000Y-50000000D01*
G75*
G02*
X131605000Y-49850000I0J150000D01*
G01*
X131605000Y-48200000D01*
G75*
G02*
X131755000Y-48050000I150000J0D01*
G01*
X132055000Y-48050000D01*
G75*
G02*
X132205000Y-48200000I0J-150000D01*
G01*
X132205000Y-49850000D01*
G75*
G02*
X132055000Y-50000000I-150000J0D01*
G01*
G37*
G36*
G01*
X130785000Y-50000000D02*
X130485000Y-50000000D01*
G75*
G02*
X130335000Y-49850000I0J150000D01*
G01*
X130335000Y-48200000D01*
G75*
G02*
X130485000Y-48050000I150000J0D01*
G01*
X130785000Y-48050000D01*
G75*
G02*
X130935000Y-48200000I0J-150000D01*
G01*
X130935000Y-49850000D01*
G75*
G02*
X130785000Y-50000000I-150000J0D01*
G01*
G37*
G36*
G01*
X129515000Y-50000000D02*
X129215000Y-50000000D01*
G75*
G02*
X129065000Y-49850000I0J150000D01*
G01*
X129065000Y-48200000D01*
G75*
G02*
X129215000Y-48050000I150000J0D01*
G01*
X129515000Y-48050000D01*
G75*
G02*
X129665000Y-48200000I0J-150000D01*
G01*
X129665000Y-49850000D01*
G75*
G02*
X129515000Y-50000000I-150000J0D01*
G01*
G37*
G36*
G01*
X128245000Y-50000000D02*
X127945000Y-50000000D01*
G75*
G02*
X127795000Y-49850000I0J150000D01*
G01*
X127795000Y-48200000D01*
G75*
G02*
X127945000Y-48050000I150000J0D01*
G01*
X128245000Y-48050000D01*
G75*
G02*
X128395000Y-48200000I0J-150000D01*
G01*
X128395000Y-49850000D01*
G75*
G02*
X128245000Y-50000000I-150000J0D01*
G01*
G37*
G04 #@! TD*
G04 #@! TO.C,U11*
G36*
G01*
X67745000Y-83450000D02*
X67445000Y-83450000D01*
G75*
G02*
X67295000Y-83300000I0J150000D01*
G01*
X67295000Y-81650000D01*
G75*
G02*
X67445000Y-81500000I150000J0D01*
G01*
X67745000Y-81500000D01*
G75*
G02*
X67895000Y-81650000I0J-150000D01*
G01*
X67895000Y-83300000D01*
G75*
G02*
X67745000Y-83450000I-150000J0D01*
G01*
G37*
G36*
G01*
X69015000Y-83450000D02*
X68715000Y-83450000D01*
G75*
G02*
X68565000Y-83300000I0J150000D01*
G01*
X68565000Y-81650000D01*
G75*
G02*
X68715000Y-81500000I150000J0D01*
G01*
X69015000Y-81500000D01*
G75*
G02*
X69165000Y-81650000I0J-150000D01*
G01*
X69165000Y-83300000D01*
G75*
G02*
X69015000Y-83450000I-150000J0D01*
G01*
G37*
G36*
G01*
X70285000Y-83450000D02*
X69985000Y-83450000D01*
G75*
G02*
X69835000Y-83300000I0J150000D01*
G01*
X69835000Y-81650000D01*
G75*
G02*
X69985000Y-81500000I150000J0D01*
G01*
X70285000Y-81500000D01*
G75*
G02*
X70435000Y-81650000I0J-150000D01*
G01*
X70435000Y-83300000D01*
G75*
G02*
X70285000Y-83450000I-150000J0D01*
G01*
G37*
G36*
G01*
X71555000Y-83450000D02*
X71255000Y-83450000D01*
G75*
G02*
X71105000Y-83300000I0J150000D01*
G01*
X71105000Y-81650000D01*
G75*
G02*
X71255000Y-81500000I150000J0D01*
G01*
X71555000Y-81500000D01*
G75*
G02*
X71705000Y-81650000I0J-150000D01*
G01*
X71705000Y-83300000D01*
G75*
G02*
X71555000Y-83450000I-150000J0D01*
G01*
G37*
G36*
G01*
X71555000Y-78500000D02*
X71255000Y-78500000D01*
G75*
G02*
X71105000Y-78350000I0J150000D01*
G01*
X71105000Y-76700000D01*
G75*
G02*
X71255000Y-76550000I150000J0D01*
G01*
X71555000Y-76550000D01*
G75*
G02*
X71705000Y-76700000I0J-150000D01*
G01*
X71705000Y-78350000D01*
G75*
G02*
X71555000Y-78500000I-150000J0D01*
G01*
G37*
G36*
G01*
X70285000Y-78500000D02*
X69985000Y-78500000D01*
G75*
G02*
X69835000Y-78350000I0J150000D01*
G01*
X69835000Y-76700000D01*
G75*
G02*
X69985000Y-76550000I150000J0D01*
G01*
X70285000Y-76550000D01*
G75*
G02*
X70435000Y-76700000I0J-150000D01*
G01*
X70435000Y-78350000D01*
G75*
G02*
X70285000Y-78500000I-150000J0D01*
G01*
G37*
G36*
G01*
X69015000Y-78500000D02*
X68715000Y-78500000D01*
G75*
G02*
X68565000Y-78350000I0J150000D01*
G01*
X68565000Y-76700000D01*
G75*
G02*
X68715000Y-76550000I150000J0D01*
G01*
X69015000Y-76550000D01*
G75*
G02*
X69165000Y-76700000I0J-150000D01*
G01*
X69165000Y-78350000D01*
G75*
G02*
X69015000Y-78500000I-150000J0D01*
G01*
G37*
G36*
G01*
X67745000Y-78500000D02*
X67445000Y-78500000D01*
G75*
G02*
X67295000Y-78350000I0J150000D01*
G01*
X67295000Y-76700000D01*
G75*
G02*
X67445000Y-76550000I150000J0D01*
G01*
X67745000Y-76550000D01*
G75*
G02*
X67895000Y-76700000I0J-150000D01*
G01*
X67895000Y-78350000D01*
G75*
G02*
X67745000Y-78500000I-150000J0D01*
G01*
G37*
G04 #@! TD*
G04 #@! TO.C,U8*
G36*
G01*
X86255000Y-49050000D02*
X86555000Y-49050000D01*
G75*
G02*
X86705000Y-49200000I0J-150000D01*
G01*
X86705000Y-50850000D01*
G75*
G02*
X86555000Y-51000000I-150000J0D01*
G01*
X86255000Y-51000000D01*
G75*
G02*
X86105000Y-50850000I0J150000D01*
G01*
X86105000Y-49200000D01*
G75*
G02*
X86255000Y-49050000I150000J0D01*
G01*
G37*
G36*
G01*
X84985000Y-49050000D02*
X85285000Y-49050000D01*
G75*
G02*
X85435000Y-49200000I0J-150000D01*
G01*
X85435000Y-50850000D01*
G75*
G02*
X85285000Y-51000000I-150000J0D01*
G01*
X84985000Y-51000000D01*
G75*
G02*
X84835000Y-50850000I0J150000D01*
G01*
X84835000Y-49200000D01*
G75*
G02*
X84985000Y-49050000I150000J0D01*
G01*
G37*
G36*
G01*
X83715000Y-49050000D02*
X84015000Y-49050000D01*
G75*
G02*
X84165000Y-49200000I0J-150000D01*
G01*
X84165000Y-50850000D01*
G75*
G02*
X84015000Y-51000000I-150000J0D01*
G01*
X83715000Y-51000000D01*
G75*
G02*
X83565000Y-50850000I0J150000D01*
G01*
X83565000Y-49200000D01*
G75*
G02*
X83715000Y-49050000I150000J0D01*
G01*
G37*
G36*
G01*
X82445000Y-49050000D02*
X82745000Y-49050000D01*
G75*
G02*
X82895000Y-49200000I0J-150000D01*
G01*
X82895000Y-50850000D01*
G75*
G02*
X82745000Y-51000000I-150000J0D01*
G01*
X82445000Y-51000000D01*
G75*
G02*
X82295000Y-50850000I0J150000D01*
G01*
X82295000Y-49200000D01*
G75*
G02*
X82445000Y-49050000I150000J0D01*
G01*
G37*
G36*
G01*
X82445000Y-54000000D02*
X82745000Y-54000000D01*
G75*
G02*
X82895000Y-54150000I0J-150000D01*
G01*
X82895000Y-55800000D01*
G75*
G02*
X82745000Y-55950000I-150000J0D01*
G01*
X82445000Y-55950000D01*
G75*
G02*
X82295000Y-55800000I0J150000D01*
G01*
X82295000Y-54150000D01*
G75*
G02*
X82445000Y-54000000I150000J0D01*
G01*
G37*
G36*
G01*
X83715000Y-54000000D02*
X84015000Y-54000000D01*
G75*
G02*
X84165000Y-54150000I0J-150000D01*
G01*
X84165000Y-55800000D01*
G75*
G02*
X84015000Y-55950000I-150000J0D01*
G01*
X83715000Y-55950000D01*
G75*
G02*
X83565000Y-55800000I0J150000D01*
G01*
X83565000Y-54150000D01*
G75*
G02*
X83715000Y-54000000I150000J0D01*
G01*
G37*
G36*
G01*
X84985000Y-54000000D02*
X85285000Y-54000000D01*
G75*
G02*
X85435000Y-54150000I0J-150000D01*
G01*
X85435000Y-55800000D01*
G75*
G02*
X85285000Y-55950000I-150000J0D01*
G01*
X84985000Y-55950000D01*
G75*
G02*
X84835000Y-55800000I0J150000D01*
G01*
X84835000Y-54150000D01*
G75*
G02*
X84985000Y-54000000I150000J0D01*
G01*
G37*
G36*
G01*
X86255000Y-54000000D02*
X86555000Y-54000000D01*
G75*
G02*
X86705000Y-54150000I0J-150000D01*
G01*
X86705000Y-55800000D01*
G75*
G02*
X86555000Y-55950000I-150000J0D01*
G01*
X86255000Y-55950000D01*
G75*
G02*
X86105000Y-55800000I0J150000D01*
G01*
X86105000Y-54150000D01*
G75*
G02*
X86255000Y-54000000I150000J0D01*
G01*
G37*
G04 #@! TD*
D20*
G04 #@! TO.C,P1*
X190652000Y2883000D03*
D21*
X188202000Y-4917000D03*
D20*
X116152000Y2883000D03*
D21*
X66402000Y-4917000D03*
D20*
X63952000Y2883000D03*
D22*
X183552000Y-2117000D03*
X177752000Y-2117000D03*
X180652000Y-4447000D03*
X183552000Y-10247000D03*
X177752000Y-10247000D03*
D10*
X124132000Y-10247000D03*
X126672000Y-10247000D03*
X129212000Y-10247000D03*
X131752000Y-10247000D03*
X134292000Y-10247000D03*
X136832000Y-10247000D03*
X139372000Y-10247000D03*
X141912000Y-10247000D03*
X144452000Y-10247000D03*
X146992000Y-10247000D03*
X149532000Y-10247000D03*
X152072000Y-10247000D03*
X154612000Y-10247000D03*
X157152000Y-10247000D03*
X159692000Y-10247000D03*
X162232000Y-10247000D03*
X164772000Y-10247000D03*
X167312000Y-10247000D03*
X169852000Y-10247000D03*
X124132000Y-7707000D03*
X126672000Y-7707000D03*
X129212000Y-7707000D03*
X131752000Y-7707000D03*
X134292000Y-7707000D03*
X136832000Y-7707000D03*
X139372000Y-7707000D03*
X141912000Y-7707000D03*
X144452000Y-7707000D03*
X146992000Y-7707000D03*
X149532000Y-7707000D03*
X152072000Y-7707000D03*
X154612000Y-7707000D03*
X157152000Y-7707000D03*
X159692000Y-7707000D03*
X162232000Y-7707000D03*
X164772000Y-7707000D03*
X167312000Y-7707000D03*
X169852000Y-7707000D03*
X124132000Y-1657000D03*
X126672000Y-1657000D03*
X129212000Y-1657000D03*
X131752000Y-1657000D03*
X134292000Y-1657000D03*
X136832000Y-1657000D03*
X139372000Y-1657000D03*
X141912000Y-1657000D03*
X144452000Y-1657000D03*
X146992000Y-1657000D03*
X149532000Y-1657000D03*
X152072000Y-1657000D03*
X154612000Y-1657000D03*
X157152000Y-1657000D03*
X159692000Y-1657000D03*
X162232000Y-1657000D03*
X164772000Y-1657000D03*
X167312000Y-1657000D03*
X169852000Y-1657000D03*
X124132000Y883000D03*
X126672000Y883000D03*
X129212000Y883000D03*
X131752000Y883000D03*
X134292000Y883000D03*
X136832000Y883000D03*
X139372000Y883000D03*
X141912000Y883000D03*
X144452000Y883000D03*
X146992000Y883000D03*
X149532000Y883000D03*
X152072000Y883000D03*
X154612000Y883000D03*
X157152000Y883000D03*
X159692000Y883000D03*
X162232000Y883000D03*
X164772000Y883000D03*
X167312000Y883000D03*
X169852000Y883000D03*
X108162000Y883000D03*
X105622000Y883000D03*
X103082000Y883000D03*
X100542000Y883000D03*
X98002000Y883000D03*
X95462000Y883000D03*
X92922000Y883000D03*
X90382000Y883000D03*
X108162000Y-1657000D03*
X105622000Y-1657000D03*
X103082000Y-1657000D03*
X100542000Y-1657000D03*
X98002000Y-1657000D03*
X95462000Y-1657000D03*
X92922000Y-1657000D03*
X90382000Y-1657000D03*
X108162000Y-7707000D03*
X105622000Y-7707000D03*
X103082000Y-7707000D03*
X100542000Y-7707000D03*
X98002000Y-7707000D03*
X95462000Y-7707000D03*
X92922000Y-7707000D03*
X90382000Y-7707000D03*
X108162000Y-10247000D03*
X105622000Y-10247000D03*
X103082000Y-10247000D03*
X100542000Y-10247000D03*
X98002000Y-10247000D03*
X95462000Y-10247000D03*
X92922000Y-10247000D03*
X90382000Y-10247000D03*
D22*
X82552000Y-2117000D03*
X76752000Y-2117000D03*
X70852000Y-2117000D03*
X79652000Y-4447000D03*
X73752000Y-4447000D03*
X82552000Y-10247000D03*
X76752000Y-10247000D03*
X70852000Y-10247000D03*
G04 #@! TD*
G36*
X51272864Y-91147112D02*
G01*
X51299183Y-91202348D01*
X51300025Y-91215231D01*
X51300025Y-91302144D01*
X52128824Y-91444224D01*
X52135496Y-91445606D01*
X53054507Y-91669150D01*
X53059819Y-91670600D01*
X53878720Y-91918752D01*
X53885548Y-91921096D01*
X54529992Y-92168959D01*
X54534324Y-92170744D01*
X55155568Y-92444091D01*
X55158737Y-92445552D01*
X55879388Y-92793452D01*
X55884884Y-92796321D01*
X56678027Y-93242464D01*
X56686098Y-93247531D01*
X57505321Y-93818505D01*
X57508949Y-93821157D01*
X58253654Y-94392097D01*
X58260448Y-94397807D01*
X58880654Y-94968397D01*
X58883629Y-94971250D01*
X59579009Y-95666630D01*
X59585059Y-95673256D01*
X60204936Y-96417109D01*
X60209224Y-96422641D01*
X60656139Y-97043356D01*
X60658170Y-97046287D01*
X61105400Y-97717132D01*
X61108779Y-97722574D01*
X61481036Y-98367819D01*
X61483218Y-98371809D01*
X61855448Y-99091454D01*
X61858652Y-99098273D01*
X62206357Y-99917863D01*
X62207916Y-99921766D01*
X62580304Y-100914801D01*
X62583505Y-100924973D01*
X62831239Y-101891135D01*
X62832835Y-101898519D01*
X62981816Y-102742747D01*
X62982454Y-102746868D01*
X63082041Y-103493765D01*
X63082303Y-103495916D01*
X63093867Y-103599999D01*
X63093868Y-103600000D01*
X63206166Y-103600000D01*
X63264357Y-103618907D01*
X63300321Y-103668407D01*
X63304526Y-103710238D01*
X63298418Y-103763697D01*
X63283802Y-103805260D01*
X63260433Y-103842324D01*
X63229232Y-103873429D01*
X63189600Y-103898247D01*
X63153566Y-103911955D01*
X63115375Y-103918414D01*
X63098866Y-103919800D01*
X58224000Y-103919800D01*
X58165809Y-103900893D01*
X58129845Y-103851393D01*
X58125000Y-103820800D01*
X58125000Y-103719801D01*
X58124999Y-103719800D01*
X58003000Y-103719800D01*
X57944809Y-103700893D01*
X57908845Y-103651393D01*
X57907373Y-103646423D01*
X57774816Y-103151715D01*
X57585455Y-102593880D01*
X57360014Y-102049617D01*
X57360009Y-102049606D01*
X57099460Y-101521264D01*
X56804910Y-101011090D01*
X56804906Y-101011083D01*
X56477616Y-100521260D01*
X56119017Y-100053924D01*
X56118989Y-100053891D01*
X55730591Y-99611006D01*
X55730572Y-99610986D01*
X55314014Y-99194428D01*
X55313994Y-99194409D01*
X54871108Y-98806010D01*
X54871075Y-98805982D01*
X54403739Y-98447383D01*
X53913920Y-98120096D01*
X53913906Y-98120087D01*
X53403730Y-97825537D01*
X52875394Y-97564991D01*
X52875383Y-97564986D01*
X52331116Y-97339542D01*
X51773290Y-97150186D01*
X51307175Y-97025290D01*
X51255860Y-96991966D01*
X51243538Y-96959866D01*
X51233713Y-96950000D01*
X51133123Y-96950000D01*
X51074932Y-96931093D01*
X51038968Y-96881593D01*
X51034124Y-96850589D01*
X51057134Y-91305126D01*
X51059707Y-91283108D01*
X51072227Y-91229283D01*
X51091509Y-91189665D01*
X51118968Y-91155525D01*
X51153527Y-91128199D01*
X51158440Y-91125858D01*
X51219105Y-91117896D01*
X51272864Y-91147112D01*
G37*
G36*
X51201971Y-4424453D02*
G01*
X51260055Y-4443685D01*
X51295742Y-4493385D01*
X51300418Y-4523451D01*
X51300025Y-91302144D01*
X51417751Y-91322326D01*
X51471911Y-91350794D01*
X51498994Y-91405659D01*
X51500024Y-91419903D01*
X51500000Y-96938844D01*
X51497517Y-96960876D01*
X51495561Y-96969445D01*
X51464178Y-97021968D01*
X51407916Y-97046015D01*
X51373420Y-97043039D01*
X51307174Y-97025288D01*
X51255860Y-96991964D01*
X51243539Y-96959867D01*
X51233713Y-96950000D01*
X50974144Y-96950000D01*
X50954830Y-96948098D01*
X50626455Y-96882780D01*
X50626449Y-96882779D01*
X50042405Y-96805888D01*
X49454567Y-96767360D01*
X49454557Y-96767359D01*
X49159978Y-96765001D01*
X46755221Y-96765001D01*
X46697030Y-96746094D01*
X46685217Y-96736005D01*
X45528996Y-95579784D01*
X45501219Y-95525267D01*
X45500000Y-95509780D01*
X45500000Y-71874001D01*
X45518907Y-71815810D01*
X45568407Y-71779846D01*
X45599000Y-71775001D01*
X47599995Y-71775001D01*
X47724083Y-71772438D01*
X47968855Y-71731593D01*
X48203579Y-71651013D01*
X48421829Y-71532901D01*
X48421832Y-71532899D01*
X48617660Y-71380480D01*
X48785740Y-71197897D01*
X48921472Y-70990142D01*
X49021157Y-70762884D01*
X49082078Y-70522313D01*
X49102571Y-70275000D01*
X49082078Y-70027686D01*
X49021157Y-69787115D01*
X48921472Y-69559857D01*
X48785740Y-69352102D01*
X48617660Y-69169519D01*
X48421832Y-69017100D01*
X48421829Y-69017098D01*
X48203579Y-68898986D01*
X47968855Y-68818406D01*
X47724082Y-68777561D01*
X47599997Y-68775001D01*
X45599000Y-68775001D01*
X45540809Y-68756094D01*
X45504845Y-68706594D01*
X45500000Y-68676001D01*
X45500000Y-5839429D01*
X45518907Y-5781238D01*
X45527108Y-5771367D01*
X46795904Y-4431178D01*
X46849640Y-4401919D01*
X46868349Y-4400242D01*
X51201971Y-4424453D01*
G37*
G36*
X203514000Y-91652489D02*
G01*
X203568895Y-91658760D01*
X203610460Y-91673376D01*
X203647524Y-91696745D01*
X203678629Y-91727946D01*
X203703447Y-91767578D01*
X203717155Y-91803612D01*
X203723614Y-91841803D01*
X203725000Y-91858312D01*
X203725000Y-96701000D01*
X203706093Y-96759191D01*
X203656593Y-96795155D01*
X203626000Y-96800000D01*
X203525001Y-96800000D01*
X203525000Y-96800001D01*
X203525000Y-96890805D01*
X203506093Y-96948996D01*
X203456593Y-96984960D01*
X203445316Y-96987902D01*
X203395781Y-96997756D01*
X202826729Y-97150232D01*
X202268897Y-97339592D01*
X201724637Y-97565032D01*
X201724626Y-97565037D01*
X201196299Y-97825579D01*
X200686120Y-98120130D01*
X200686106Y-98120139D01*
X200196312Y-98447409D01*
X200196282Y-98447430D01*
X199728956Y-98806022D01*
X199728923Y-98806050D01*
X199286040Y-99194446D01*
X199286020Y-99194465D01*
X198869465Y-99611020D01*
X198869446Y-99611040D01*
X198481050Y-100053923D01*
X198481022Y-100053956D01*
X198122430Y-100521282D01*
X198122409Y-100521312D01*
X197795139Y-101011106D01*
X197795130Y-101011120D01*
X197500579Y-101521299D01*
X197240037Y-102049626D01*
X197240032Y-102049637D01*
X197014592Y-102593897D01*
X196825232Y-103151729D01*
X196672759Y-103720769D01*
X196648458Y-103842935D01*
X196618561Y-103896319D01*
X196562995Y-103921934D01*
X196550949Y-103922619D01*
X191110326Y-103900044D01*
X191088308Y-103897471D01*
X191034483Y-103884951D01*
X190994865Y-103865669D01*
X190960725Y-103838210D01*
X190933399Y-103803651D01*
X190913895Y-103762718D01*
X190904299Y-103722629D01*
X190903766Y-103701496D01*
X190921201Y-103642847D01*
X190969778Y-103605647D01*
X191002735Y-103600000D01*
X191117142Y-103600000D01*
X191249424Y-102828354D01*
X191250806Y-102821682D01*
X191474350Y-101902671D01*
X191475800Y-101897359D01*
X191723952Y-101078458D01*
X191726296Y-101071630D01*
X191974159Y-100427186D01*
X191975944Y-100422854D01*
X192249291Y-99801610D01*
X192250752Y-99798441D01*
X192598652Y-99077790D01*
X192601521Y-99072294D01*
X193047664Y-98279151D01*
X193052731Y-98271080D01*
X193623705Y-97451857D01*
X193626357Y-97448229D01*
X194197297Y-96703524D01*
X194203007Y-96696730D01*
X194773597Y-96076525D01*
X194776450Y-96073550D01*
X195471830Y-95378170D01*
X195478456Y-95372120D01*
X196222309Y-94752242D01*
X196227841Y-94747954D01*
X196848556Y-94301039D01*
X196851487Y-94299008D01*
X197522332Y-93851778D01*
X197527774Y-93848399D01*
X198173019Y-93476142D01*
X198177009Y-93473960D01*
X198896654Y-93101730D01*
X198903473Y-93098526D01*
X199723063Y-92750821D01*
X199726966Y-92749262D01*
X200720001Y-92376874D01*
X200730173Y-92373673D01*
X201696335Y-92125939D01*
X201703719Y-92124343D01*
X202547947Y-91975362D01*
X202552068Y-91974724D01*
X203298947Y-91875140D01*
X203301074Y-91874880D01*
X203301347Y-91874849D01*
X203301377Y-91762199D01*
X203320300Y-91704013D01*
X203369809Y-91668062D01*
X203389445Y-91663830D01*
X203491832Y-91652454D01*
X203514000Y-91652489D01*
G37*
G36*
X207902969Y-4293907D02*
G01*
X207914782Y-4303996D01*
X209079717Y-5468931D01*
X209107494Y-5523448D01*
X209108713Y-5538944D01*
X209102685Y-68676009D01*
X209083772Y-68734198D01*
X209034269Y-68770158D01*
X209003685Y-68775000D01*
X206999979Y-68775000D01*
X206875896Y-68777404D01*
X206631065Y-68818231D01*
X206631063Y-68818231D01*
X206396303Y-68898797D01*
X206396302Y-68898798D01*
X206178003Y-69016909D01*
X205982121Y-69169345D01*
X205982116Y-69169350D01*
X205814001Y-69351948D01*
X205678235Y-69559732D01*
X205578523Y-69787030D01*
X205578521Y-69787035D01*
X205517587Y-70027641D01*
X205517586Y-70027647D01*
X205497088Y-70275000D01*
X205517586Y-70522352D01*
X205517587Y-70522358D01*
X205578521Y-70762964D01*
X205578523Y-70762969D01*
X205678235Y-70990267D01*
X205814001Y-71198051D01*
X205982116Y-71380649D01*
X205982121Y-71380654D01*
X206178003Y-71533090D01*
X206396302Y-71651201D01*
X206396303Y-71651202D01*
X206631064Y-71731768D01*
X206875896Y-71772595D01*
X206999979Y-71775000D01*
X209003380Y-71775000D01*
X209061571Y-71793907D01*
X209097535Y-71843407D01*
X209102380Y-71874009D01*
X209100122Y-95509664D01*
X209081209Y-95567853D01*
X209071126Y-95579659D01*
X207914782Y-96736004D01*
X207860265Y-96763781D01*
X207844778Y-96765000D01*
X205440038Y-96765000D01*
X205145437Y-96767410D01*
X204651455Y-96799788D01*
X204644980Y-96800000D01*
X203525001Y-96800000D01*
X203525000Y-96800001D01*
X203525000Y-96890805D01*
X203506093Y-96948996D01*
X203456593Y-96984960D01*
X203445316Y-96987902D01*
X203394179Y-96998075D01*
X203394117Y-96997765D01*
X203374769Y-97000000D01*
X203311154Y-97000000D01*
X203289124Y-96997518D01*
X203235252Y-96985222D01*
X203195555Y-96966104D01*
X203161299Y-96938785D01*
X203133830Y-96904340D01*
X203112315Y-96859664D01*
X203103132Y-96827781D01*
X203100622Y-96805479D01*
X203100001Y-96794380D01*
X203101316Y-91988140D01*
X203120239Y-91929954D01*
X203169749Y-91894004D01*
X203187232Y-91890035D01*
X203298947Y-91875140D01*
X203301074Y-91874880D01*
X203301347Y-91874849D01*
X203325000Y-5449987D01*
X203325000Y-4374000D01*
X203343907Y-4315809D01*
X203393407Y-4279845D01*
X203424000Y-4275000D01*
X207844778Y-4275000D01*
X207902969Y-4293907D01*
G37*
G36*
X63041053Y-103418907D02*
G01*
X63077017Y-103468407D01*
X63080993Y-103485910D01*
X63082040Y-103493759D01*
X63082303Y-103495916D01*
X63093867Y-103599999D01*
X63093868Y-103600000D01*
X191117142Y-103600000D01*
X191137325Y-103482272D01*
X191165793Y-103428113D01*
X191220658Y-103401030D01*
X191234902Y-103400000D01*
X196629689Y-103400000D01*
X196687880Y-103418907D01*
X196723844Y-103468407D01*
X196725316Y-103524623D01*
X196672758Y-103720771D01*
X196557831Y-104298552D01*
X196557830Y-104298558D01*
X196480938Y-104882614D01*
X196442410Y-105470437D01*
X196440000Y-105765038D01*
X196440000Y-108169778D01*
X196421093Y-108227969D01*
X196411004Y-108239782D01*
X195230072Y-109420712D01*
X195175555Y-109448489D01*
X195160050Y-109449708D01*
X59415434Y-109425232D01*
X59357247Y-109406314D01*
X59345448Y-109396236D01*
X58188996Y-108239783D01*
X58161219Y-108185266D01*
X58160000Y-108169779D01*
X58160000Y-105765023D01*
X58157641Y-105470443D01*
X58157640Y-105470433D01*
X58125212Y-104975670D01*
X58125000Y-104969195D01*
X58125000Y-103719801D01*
X58124999Y-103719800D01*
X58024000Y-103719800D01*
X57965809Y-103700893D01*
X57929845Y-103651393D01*
X57925000Y-103620800D01*
X57925000Y-103611154D01*
X57927482Y-103589126D01*
X57939777Y-103535254D01*
X57958895Y-103495555D01*
X57986214Y-103461299D01*
X58020658Y-103433831D01*
X58065339Y-103412313D01*
X58097215Y-103403130D01*
X58119483Y-103400622D01*
X58130563Y-103400000D01*
X62982862Y-103400000D01*
X63041053Y-103418907D01*
G37*
M02*
