M48
; DRILL file {KiCad 8.0.8} date 2025-12-16T21:52:22-0500
; FORMAT={3:3/ absolute / metric / suppress leading zeros}
; #@! TF.CreationDate,2025-12-16T21:52:22-05:00
; #@! TF.GenerationSoftware,Kicad,Pcbnew,8.0.8
; #@! TF.FileFunction,Plated,1,4,PTH
FMAT,2
METRIC,TZ
; #@! TA.AperFunction,Plated,PTH,ComponentDrill
T1C0.300
; #@! TA.AperFunction,Plated,PTH,ComponentDrill
T2C0.300
; #@! TA.AperFunction,Plated,PTH,ComponentDrill
T3C0.700
; #@! TA.AperFunction,Plated,PTH,ComponentDrill
T4C0.813
; #@! TA.AperFunction,Plated,PTH,ComponentDrill
T5C0.850
; #@! TA.AperFunction,Plated,PTH,ViaDrill
T6C1.000
; #@! TA.AperFunction,Plated,PTH,ComponentDrill
T7C1.000
; #@! TA.AperFunction,Plated,PTH,ComponentDrill
T8C1.100
; #@! TA.AperFunction,Plated,PTH,ComponentDrill
T9C2.200
; #@! TA.AperFunction,Plated,PTH,ComponentDrill
T10C3.700
%
G90
G05
T1
X42562Y21857
X43437Y21332
X43662Y26157
X43738Y22607
T2
X50500Y32875
X50500Y31875
X55975Y37150
X55975Y36350
X55975Y35550
X55975Y34750
X55975Y33950
X55975Y33150
X55975Y32350
X55975Y31550
X55975Y30750
X55975Y29950
X55975Y29150
X55975Y28350
X55975Y27550
X55975Y26750
X55975Y25150
X55975Y23750
X55975Y22950
X55975Y22150
X55975Y21350
X55975Y20550
X55975Y19750
X55975Y41450
X55975Y25950
X56375Y12550
X57175Y12550
X57975Y12550
X58775Y12550
X59575Y12550
X60375Y12550
X61175Y12550
X61975Y12550
X62575Y47950
X62775Y12550
X63575Y12550
X63775Y47950
X64375Y12550
X64975Y47950
X65175Y12550
X66175Y47950
X67375Y47950
X67575Y12550
X68375Y12550
X68575Y47950
X69175Y12550
X69775Y47950
X69975Y12550
X70775Y12550
X70975Y47950
X71575Y12550
X72175Y47950
X72375Y12550
X73175Y12550
X73375Y47950
X73975Y12550
X74575Y47950
X75775Y47950
X76975Y47950
X78175Y47950
X78275Y12550
X79375Y47950
X80575Y47950
X80975Y12550
X81775Y47950
X81975Y12550
X82975Y47950
X84175Y47950
X85375Y47950
X86575Y47950
X88975Y47950
X89375Y45450
X89375Y44450
X89375Y33750
X89375Y32750
X89375Y31750
X89375Y30750
X89375Y29750
X89375Y28750
X89375Y27750
X89375Y26750
X89375Y24150
X89375Y23350
X89375Y18650
X89375Y17250
X89375Y12550
X89865Y75475
X90865Y75475
X93725Y61050
X94925Y61050
X96125Y61050
X97325Y61050
X100040Y75663
X101040Y75663
X103900Y61238
X105100Y61238
X106300Y61238
X107500Y61238
X109325Y75200
X109325Y74250
X109325Y73300
X111475Y57700
X111475Y56900
X112275Y56900
X113075Y56900
X113875Y56900
X114675Y56900
X115475Y56900
X116275Y56900
X118025Y74200
X118025Y73300
X124425Y49209
X125425Y49209
X126425Y49209
X128705Y49209
X129721Y49209
X132075Y75800
X133075Y75800
X134075Y75800
X135075Y75800
T3
X50925Y17525
X50925Y15925
X52675Y18325
X52675Y16725
X52675Y15125
X111675Y65700
X120675Y67900
X120675Y59700
X120675Y58500
T4
X30800Y75325
X30800Y70425
X33300Y75325
X33300Y70425
X52800Y27330
X52800Y23520
X113350Y51375
X118250Y51375
T5
X35300Y14725
X37800Y14725
X40300Y14725
X42800Y14725
X45300Y14725
T6
X2700Y103900
X2700Y95925
X2700Y86525
X2700Y76500
X2700Y65975
X2700Y56075
X2700Y45125
X2700Y31550
X2700Y20675
X15575Y3750
X27125Y3800
X49200Y3800
X59725Y3750
X71150Y3750
X81775Y3750
X92650Y3775
X102925Y3775
X114725Y3775
X126150Y3775
X136775Y3775
X147650Y3775
X160850Y104225
X161000Y97400
X161000Y88000
X161000Y77975
X161000Y67450
X161000Y57550
X161000Y46600
X161000Y33025
X161000Y22150
T7
X34550Y48325
X34550Y46475
X34550Y41525
X34550Y29475
X50050Y47875
X50050Y41475
X50050Y39575
X50050Y35275
X50050Y29025
T8
X44682Y111258
X44682Y108718
X44682Y102668
X44682Y100128
X47222Y111258
X47222Y108718
X47222Y102668
X47222Y100128
X49762Y111258
X49762Y108718
X49762Y102668
X49762Y100128
X52302Y111258
X52302Y108718
X52302Y102668
X52302Y100128
X54842Y111258
X54842Y108718
X54842Y102668
X54842Y100128
X57382Y111258
X57382Y108718
X57382Y102668
X57382Y100128
X59922Y111258
X59922Y108718
X59922Y102668
X59922Y100128
X62462Y111258
X62462Y108718
X62462Y102668
X62462Y100128
X78432Y111258
X78432Y108718
X78432Y102668
X78432Y100128
X80972Y111258
X80972Y108718
X80972Y102668
X80972Y100128
X83512Y111258
X83512Y108718
X83512Y102668
X83512Y100128
X86052Y111258
X86052Y108718
X86052Y102668
X86052Y100128
X88592Y111258
X88592Y108718
X88592Y102668
X88592Y100128
X91132Y111258
X91132Y108718
X91132Y102668
X91132Y100128
X93672Y111258
X93672Y108718
X93672Y102668
X93672Y100128
X96212Y111258
X96212Y108718
X96212Y102668
X96212Y100128
X98752Y111258
X98752Y108718
X98752Y102668
X98752Y100128
X101292Y111258
X101292Y108718
X101292Y102668
X101292Y100128
X103832Y111258
X103832Y108718
X103832Y102668
X103832Y100128
X106372Y111258
X106372Y108718
X106372Y102668
X106372Y100128
X108912Y111258
X108912Y108718
X108912Y102668
X108912Y100128
X111452Y111258
X111452Y108718
X111452Y102668
X111452Y100128
X113992Y111258
X113992Y108718
X113992Y102668
X113992Y100128
X116532Y111258
X116532Y108718
X116532Y102668
X116532Y100128
X119072Y111258
X119072Y108718
X119072Y102668
X119072Y100128
X121612Y111258
X121612Y108718
X121612Y102668
X121612Y100128
X124152Y111258
X124152Y108718
X124152Y102668
X124152Y100128
T9
X20702Y105458
X25152Y108258
X25152Y100128
X28052Y105928
X31052Y108258
X31052Y100128
X33952Y105928
X36852Y108258
X36852Y100128
X132052Y108258
X132052Y100128
X134952Y105928
X137852Y108258
X137852Y100128
X142502Y105458
T10
X18252Y113258
X70452Y113258
X144952Y113258
T3
G00X51150Y20375
M15
G01X52450Y20375
M16
G05
G00X51150Y13075
M15
G01X52450Y13075
M16
G05
M30
