G04 #@! TF.GenerationSoftware,KiCad,Pcbnew,8.0.8*
G04 #@! TF.CreationDate,2025-12-17T12:18:19-05:00*
G04 #@! TF.ProjectId,hellen121vag,68656c6c-656e-4313-9231-7661672e6b69,d*
G04 #@! TF.SameCoordinates,PX2b953a0PY6943058*
G04 #@! TF.FileFunction,Copper,L2,Inr*
G04 #@! TF.FilePolarity,Positive*
%FSLAX46Y46*%
G04 Gerber Fmt 4.6, Leading zero omitted, Abs format (unit mm)*
G04 Created by KiCad (PCBNEW 8.0.8) date 2025-12-17 12:18:19*
%MOMM*%
%LPD*%
G01*
G04 APERTURE LIST*
%ADD10C,0.100000*%
%ADD11C,0.150000*%
%ADD12C,0.300000*%
%ADD13C,0.400000*%
G04 #@! TA.AperFunction,ComponentPad*
%ADD14C,1.500000*%
G04 #@! TD*
G04 #@! TA.AperFunction,ComponentPad*
%ADD15C,0.600000*%
G04 #@! TD*
G04 #@! TA.AperFunction,Conductor*
%ADD16O,0.200000X3.300000*%
G04 #@! TD*
G04 #@! TA.AperFunction,Conductor*
%ADD17O,0.200000X10.200000*%
G04 #@! TD*
G04 #@! TA.AperFunction,Conductor*
%ADD18O,0.200000X0.300000*%
G04 #@! TD*
G04 #@! TA.AperFunction,Conductor*
%ADD19O,17.000000X0.200000*%
G04 #@! TD*
G04 #@! TA.AperFunction,Conductor*
%ADD20O,15.400000X0.200000*%
G04 #@! TD*
G04 #@! TA.AperFunction,Conductor*
%ADD21O,0.200000X4.800000*%
G04 #@! TD*
G04 #@! TA.AperFunction,Conductor*
%ADD22O,0.200000X2.600000*%
G04 #@! TD*
G04 #@! TA.AperFunction,Conductor*
%ADD23O,0.200000X1.000000*%
G04 #@! TD*
G04 #@! TA.AperFunction,Conductor*
%ADD24O,0.200000X1.500000*%
G04 #@! TD*
G04 #@! TA.AperFunction,Conductor*
%ADD25O,0.200000X1.225000*%
G04 #@! TD*
G04 #@! TA.AperFunction,Conductor*
%ADD26O,9.300000X0.200000*%
G04 #@! TD*
G04 #@! TA.AperFunction,Conductor*
%ADD27R,6.185000X0.250000*%
G04 #@! TD*
G04 #@! TA.AperFunction,Conductor*
%ADD28R,1.115000X0.250000*%
G04 #@! TD*
G04 #@! TA.AperFunction,Conductor*
%ADD29R,0.250000X14.275000*%
G04 #@! TD*
G04 #@! TA.AperFunction,Conductor*
%ADD30R,0.250000X15.100000*%
G04 #@! TD*
G04 #@! TA.AperFunction,Conductor*
%ADD31R,5.175000X0.250000*%
G04 #@! TD*
G04 #@! TA.AperFunction,ComponentPad*
%ADD32C,1.524000*%
G04 #@! TD*
G04 #@! TA.AperFunction,ComponentPad*
%ADD33O,1.700000X1.850000*%
G04 #@! TD*
G04 #@! TA.AperFunction,Conductor*
%ADD34R,4.400000X0.200000*%
G04 #@! TD*
G04 #@! TA.AperFunction,Conductor*
%ADD35R,0.200000X1.200000*%
G04 #@! TD*
G04 #@! TA.AperFunction,Conductor*
%ADD36R,0.200000X6.800000*%
G04 #@! TD*
G04 #@! TA.AperFunction,Conductor*
%ADD37R,0.200000X4.000000*%
G04 #@! TD*
G04 #@! TA.AperFunction,Conductor*
%ADD38R,0.200000X1.800000*%
G04 #@! TD*
G04 #@! TA.AperFunction,Conductor*
%ADD39R,10.000000X0.200000*%
G04 #@! TD*
G04 #@! TA.AperFunction,ComponentPad*
%ADD40C,1.000000*%
G04 #@! TD*
G04 #@! TA.AperFunction,ComponentPad*
%ADD41C,0.700000*%
G04 #@! TD*
G04 #@! TA.AperFunction,Conductor*
%ADD42R,1.100000X0.250000*%
G04 #@! TD*
G04 #@! TA.AperFunction,Conductor*
%ADD43R,0.980000X0.250000*%
G04 #@! TD*
G04 #@! TA.AperFunction,Conductor*
%ADD44R,6.300000X0.250000*%
G04 #@! TD*
G04 #@! TA.AperFunction,Conductor*
%ADD45R,0.250000X27.600000*%
G04 #@! TD*
G04 #@! TA.AperFunction,Conductor*
%ADD46R,8.750000X0.250000*%
G04 #@! TD*
G04 #@! TA.AperFunction,Conductor*
%ADD47R,0.950000X0.250000*%
G04 #@! TD*
G04 #@! TA.AperFunction,ComponentPad*
%ADD48R,1.100000X1.100000*%
G04 #@! TD*
G04 #@! TA.AperFunction,ComponentPad*
%ADD49C,1.100000*%
G04 #@! TD*
G04 #@! TA.AperFunction,ComponentPad*
%ADD50O,2.400000X1.100000*%
G04 #@! TD*
G04 #@! TA.AperFunction,ComponentPad*
%ADD51C,0.599999*%
G04 #@! TD*
G04 #@! TA.AperFunction,ComponentPad*
%ADD52C,3.700000*%
G04 #@! TD*
G04 #@! TA.AperFunction,ComponentPad*
%ADD53C,2.200000*%
G04 #@! TD*
G04 #@! TA.AperFunction,ComponentPad*
%ADD54C,2.600000*%
G04 #@! TD*
G04 #@! TA.AperFunction,Conductor*
%ADD55R,0.200000X3.700000*%
G04 #@! TD*
G04 #@! TA.AperFunction,Conductor*
%ADD56R,0.200000X0.400000*%
G04 #@! TD*
G04 #@! TA.AperFunction,Conductor*
%ADD57R,0.200000X1.600000*%
G04 #@! TD*
G04 #@! TA.AperFunction,Conductor*
%ADD58R,0.200000X9.700000*%
G04 #@! TD*
G04 #@! TA.AperFunction,Conductor*
%ADD59R,0.200000X2.300000*%
G04 #@! TD*
G04 #@! TA.AperFunction,Conductor*
%ADD60R,1.400000X0.200000*%
G04 #@! TD*
G04 #@! TA.AperFunction,Conductor*
%ADD61R,6.400000X0.200000*%
G04 #@! TD*
G04 #@! TA.AperFunction,Conductor*
%ADD62R,1.700000X0.200000*%
G04 #@! TD*
G04 #@! TA.AperFunction,Conductor*
%ADD63R,3.300000X0.200000*%
G04 #@! TD*
G04 #@! TA.AperFunction,Conductor*
%ADD64R,0.200000X7.000000*%
G04 #@! TD*
G04 #@! TA.AperFunction,Conductor*
%ADD65R,0.200000X3.300000*%
G04 #@! TD*
G04 #@! TA.AperFunction,Conductor*
%ADD66R,0.200000X6.300000*%
G04 #@! TD*
G04 #@! TA.AperFunction,ViaPad*
%ADD67C,2.000000*%
G04 #@! TD*
G04 APERTURE END LIST*
D10*
D11*
X266100000Y-225025000D02*
X374100000Y-225025000D01*
X374100000Y-257025000D01*
X266100000Y-257025000D01*
X266100000Y-225025000D01*
D10*
D11*
X-35700000Y100375000D02*
X376100000Y100375000D01*
X376100000Y-259025000D01*
X-35700000Y-259025000D01*
X-35700000Y100375000D01*
D10*
D11*
X-33700000Y98375000D02*
X374100000Y98375000D01*
X374100000Y-257025000D01*
X-33700000Y-257025000D01*
X-33700000Y98375000D01*
D10*
D11*
X14300000Y98375000D02*
X14300000Y100375000D01*
D10*
D11*
X64300000Y98375000D02*
X64300000Y100375000D01*
D10*
D11*
X114300000Y98375000D02*
X114300000Y100375000D01*
D10*
D11*
X164300000Y98375000D02*
X164300000Y100375000D01*
D10*
D11*
X214300000Y98375000D02*
X214300000Y100375000D01*
D10*
D11*
X264300000Y98375000D02*
X264300000Y100375000D01*
D10*
D11*
X314300000Y98375000D02*
X314300000Y100375000D01*
D10*
D11*
X364300000Y98375000D02*
X364300000Y100375000D01*
D10*
D11*
X-9610840Y98781396D02*
X-10353697Y98781396D01*
X-9982269Y98781396D02*
X-9982269Y100081396D01*
X-9982269Y100081396D02*
X-10106078Y99895681D01*
X-10106078Y99895681D02*
X-10229888Y99771872D01*
X-10229888Y99771872D02*
X-10353697Y99709967D01*
D10*
D11*
X39646303Y99957586D02*
X39708207Y100019491D01*
X39708207Y100019491D02*
X39832017Y100081396D01*
X39832017Y100081396D02*
X40141541Y100081396D01*
X40141541Y100081396D02*
X40265350Y100019491D01*
X40265350Y100019491D02*
X40327255Y99957586D01*
X40327255Y99957586D02*
X40389160Y99833777D01*
X40389160Y99833777D02*
X40389160Y99709967D01*
X40389160Y99709967D02*
X40327255Y99524253D01*
X40327255Y99524253D02*
X39584398Y98781396D01*
X39584398Y98781396D02*
X40389160Y98781396D01*
D10*
D11*
X89584398Y100081396D02*
X90389160Y100081396D01*
X90389160Y100081396D02*
X89955826Y99586158D01*
X89955826Y99586158D02*
X90141541Y99586158D01*
X90141541Y99586158D02*
X90265350Y99524253D01*
X90265350Y99524253D02*
X90327255Y99462348D01*
X90327255Y99462348D02*
X90389160Y99338539D01*
X90389160Y99338539D02*
X90389160Y99029015D01*
X90389160Y99029015D02*
X90327255Y98905205D01*
X90327255Y98905205D02*
X90265350Y98843300D01*
X90265350Y98843300D02*
X90141541Y98781396D01*
X90141541Y98781396D02*
X89770112Y98781396D01*
X89770112Y98781396D02*
X89646303Y98843300D01*
X89646303Y98843300D02*
X89584398Y98905205D01*
D10*
D11*
X140265350Y99648062D02*
X140265350Y98781396D01*
X139955826Y100143300D02*
X139646303Y99214729D01*
X139646303Y99214729D02*
X140451064Y99214729D01*
D10*
D11*
X190327255Y100081396D02*
X189708207Y100081396D01*
X189708207Y100081396D02*
X189646303Y99462348D01*
X189646303Y99462348D02*
X189708207Y99524253D01*
X189708207Y99524253D02*
X189832017Y99586158D01*
X189832017Y99586158D02*
X190141541Y99586158D01*
X190141541Y99586158D02*
X190265350Y99524253D01*
X190265350Y99524253D02*
X190327255Y99462348D01*
X190327255Y99462348D02*
X190389160Y99338539D01*
X190389160Y99338539D02*
X190389160Y99029015D01*
X190389160Y99029015D02*
X190327255Y98905205D01*
X190327255Y98905205D02*
X190265350Y98843300D01*
X190265350Y98843300D02*
X190141541Y98781396D01*
X190141541Y98781396D02*
X189832017Y98781396D01*
X189832017Y98781396D02*
X189708207Y98843300D01*
X189708207Y98843300D02*
X189646303Y98905205D01*
D10*
D11*
X240265350Y100081396D02*
X240017731Y100081396D01*
X240017731Y100081396D02*
X239893922Y100019491D01*
X239893922Y100019491D02*
X239832017Y99957586D01*
X239832017Y99957586D02*
X239708207Y99771872D01*
X239708207Y99771872D02*
X239646303Y99524253D01*
X239646303Y99524253D02*
X239646303Y99029015D01*
X239646303Y99029015D02*
X239708207Y98905205D01*
X239708207Y98905205D02*
X239770112Y98843300D01*
X239770112Y98843300D02*
X239893922Y98781396D01*
X239893922Y98781396D02*
X240141541Y98781396D01*
X240141541Y98781396D02*
X240265350Y98843300D01*
X240265350Y98843300D02*
X240327255Y98905205D01*
X240327255Y98905205D02*
X240389160Y99029015D01*
X240389160Y99029015D02*
X240389160Y99338539D01*
X240389160Y99338539D02*
X240327255Y99462348D01*
X240327255Y99462348D02*
X240265350Y99524253D01*
X240265350Y99524253D02*
X240141541Y99586158D01*
X240141541Y99586158D02*
X239893922Y99586158D01*
X239893922Y99586158D02*
X239770112Y99524253D01*
X239770112Y99524253D02*
X239708207Y99462348D01*
X239708207Y99462348D02*
X239646303Y99338539D01*
D10*
D11*
X289584398Y100081396D02*
X290451064Y100081396D01*
X290451064Y100081396D02*
X289893922Y98781396D01*
D10*
D11*
X339893922Y99524253D02*
X339770112Y99586158D01*
X339770112Y99586158D02*
X339708207Y99648062D01*
X339708207Y99648062D02*
X339646303Y99771872D01*
X339646303Y99771872D02*
X339646303Y99833777D01*
X339646303Y99833777D02*
X339708207Y99957586D01*
X339708207Y99957586D02*
X339770112Y100019491D01*
X339770112Y100019491D02*
X339893922Y100081396D01*
X339893922Y100081396D02*
X340141541Y100081396D01*
X340141541Y100081396D02*
X340265350Y100019491D01*
X340265350Y100019491D02*
X340327255Y99957586D01*
X340327255Y99957586D02*
X340389160Y99833777D01*
X340389160Y99833777D02*
X340389160Y99771872D01*
X340389160Y99771872D02*
X340327255Y99648062D01*
X340327255Y99648062D02*
X340265350Y99586158D01*
X340265350Y99586158D02*
X340141541Y99524253D01*
X340141541Y99524253D02*
X339893922Y99524253D01*
X339893922Y99524253D02*
X339770112Y99462348D01*
X339770112Y99462348D02*
X339708207Y99400443D01*
X339708207Y99400443D02*
X339646303Y99276634D01*
X339646303Y99276634D02*
X339646303Y99029015D01*
X339646303Y99029015D02*
X339708207Y98905205D01*
X339708207Y98905205D02*
X339770112Y98843300D01*
X339770112Y98843300D02*
X339893922Y98781396D01*
X339893922Y98781396D02*
X340141541Y98781396D01*
X340141541Y98781396D02*
X340265350Y98843300D01*
X340265350Y98843300D02*
X340327255Y98905205D01*
X340327255Y98905205D02*
X340389160Y99029015D01*
X340389160Y99029015D02*
X340389160Y99276634D01*
X340389160Y99276634D02*
X340327255Y99400443D01*
X340327255Y99400443D02*
X340265350Y99462348D01*
X340265350Y99462348D02*
X340141541Y99524253D01*
D10*
D11*
X14300000Y-257025000D02*
X14300000Y-259025000D01*
D10*
D11*
X64300000Y-257025000D02*
X64300000Y-259025000D01*
D10*
D11*
X114300000Y-257025000D02*
X114300000Y-259025000D01*
D10*
D11*
X164300000Y-257025000D02*
X164300000Y-259025000D01*
D10*
D11*
X214300000Y-257025000D02*
X214300000Y-259025000D01*
D10*
D11*
X264300000Y-257025000D02*
X264300000Y-259025000D01*
D10*
D11*
X314300000Y-257025000D02*
X314300000Y-259025000D01*
D10*
D11*
X364300000Y-257025000D02*
X364300000Y-259025000D01*
D10*
D11*
X-9610840Y-258618604D02*
X-10353697Y-258618604D01*
X-9982269Y-258618604D02*
X-9982269Y-257318604D01*
X-9982269Y-257318604D02*
X-10106078Y-257504319D01*
X-10106078Y-257504319D02*
X-10229888Y-257628128D01*
X-10229888Y-257628128D02*
X-10353697Y-257690033D01*
D10*
D11*
X39646303Y-257442414D02*
X39708207Y-257380509D01*
X39708207Y-257380509D02*
X39832017Y-257318604D01*
X39832017Y-257318604D02*
X40141541Y-257318604D01*
X40141541Y-257318604D02*
X40265350Y-257380509D01*
X40265350Y-257380509D02*
X40327255Y-257442414D01*
X40327255Y-257442414D02*
X40389160Y-257566223D01*
X40389160Y-257566223D02*
X40389160Y-257690033D01*
X40389160Y-257690033D02*
X40327255Y-257875747D01*
X40327255Y-257875747D02*
X39584398Y-258618604D01*
X39584398Y-258618604D02*
X40389160Y-258618604D01*
D10*
D11*
X89584398Y-257318604D02*
X90389160Y-257318604D01*
X90389160Y-257318604D02*
X89955826Y-257813842D01*
X89955826Y-257813842D02*
X90141541Y-257813842D01*
X90141541Y-257813842D02*
X90265350Y-257875747D01*
X90265350Y-257875747D02*
X90327255Y-257937652D01*
X90327255Y-257937652D02*
X90389160Y-258061461D01*
X90389160Y-258061461D02*
X90389160Y-258370985D01*
X90389160Y-258370985D02*
X90327255Y-258494795D01*
X90327255Y-258494795D02*
X90265350Y-258556700D01*
X90265350Y-258556700D02*
X90141541Y-258618604D01*
X90141541Y-258618604D02*
X89770112Y-258618604D01*
X89770112Y-258618604D02*
X89646303Y-258556700D01*
X89646303Y-258556700D02*
X89584398Y-258494795D01*
D10*
D11*
X140265350Y-257751938D02*
X140265350Y-258618604D01*
X139955826Y-257256700D02*
X139646303Y-258185271D01*
X139646303Y-258185271D02*
X140451064Y-258185271D01*
D10*
D11*
X190327255Y-257318604D02*
X189708207Y-257318604D01*
X189708207Y-257318604D02*
X189646303Y-257937652D01*
X189646303Y-257937652D02*
X189708207Y-257875747D01*
X189708207Y-257875747D02*
X189832017Y-257813842D01*
X189832017Y-257813842D02*
X190141541Y-257813842D01*
X190141541Y-257813842D02*
X190265350Y-257875747D01*
X190265350Y-257875747D02*
X190327255Y-257937652D01*
X190327255Y-257937652D02*
X190389160Y-258061461D01*
X190389160Y-258061461D02*
X190389160Y-258370985D01*
X190389160Y-258370985D02*
X190327255Y-258494795D01*
X190327255Y-258494795D02*
X190265350Y-258556700D01*
X190265350Y-258556700D02*
X190141541Y-258618604D01*
X190141541Y-258618604D02*
X189832017Y-258618604D01*
X189832017Y-258618604D02*
X189708207Y-258556700D01*
X189708207Y-258556700D02*
X189646303Y-258494795D01*
D10*
D11*
X240265350Y-257318604D02*
X240017731Y-257318604D01*
X240017731Y-257318604D02*
X239893922Y-257380509D01*
X239893922Y-257380509D02*
X239832017Y-257442414D01*
X239832017Y-257442414D02*
X239708207Y-257628128D01*
X239708207Y-257628128D02*
X239646303Y-257875747D01*
X239646303Y-257875747D02*
X239646303Y-258370985D01*
X239646303Y-258370985D02*
X239708207Y-258494795D01*
X239708207Y-258494795D02*
X239770112Y-258556700D01*
X239770112Y-258556700D02*
X239893922Y-258618604D01*
X239893922Y-258618604D02*
X240141541Y-258618604D01*
X240141541Y-258618604D02*
X240265350Y-258556700D01*
X240265350Y-258556700D02*
X240327255Y-258494795D01*
X240327255Y-258494795D02*
X240389160Y-258370985D01*
X240389160Y-258370985D02*
X240389160Y-258061461D01*
X240389160Y-258061461D02*
X240327255Y-257937652D01*
X240327255Y-257937652D02*
X240265350Y-257875747D01*
X240265350Y-257875747D02*
X240141541Y-257813842D01*
X240141541Y-257813842D02*
X239893922Y-257813842D01*
X239893922Y-257813842D02*
X239770112Y-257875747D01*
X239770112Y-257875747D02*
X239708207Y-257937652D01*
X239708207Y-257937652D02*
X239646303Y-258061461D01*
D10*
D11*
X289584398Y-257318604D02*
X290451064Y-257318604D01*
X290451064Y-257318604D02*
X289893922Y-258618604D01*
D10*
D11*
X339893922Y-257875747D02*
X339770112Y-257813842D01*
X339770112Y-257813842D02*
X339708207Y-257751938D01*
X339708207Y-257751938D02*
X339646303Y-257628128D01*
X339646303Y-257628128D02*
X339646303Y-257566223D01*
X339646303Y-257566223D02*
X339708207Y-257442414D01*
X339708207Y-257442414D02*
X339770112Y-257380509D01*
X339770112Y-257380509D02*
X339893922Y-257318604D01*
X339893922Y-257318604D02*
X340141541Y-257318604D01*
X340141541Y-257318604D02*
X340265350Y-257380509D01*
X340265350Y-257380509D02*
X340327255Y-257442414D01*
X340327255Y-257442414D02*
X340389160Y-257566223D01*
X340389160Y-257566223D02*
X340389160Y-257628128D01*
X340389160Y-257628128D02*
X340327255Y-257751938D01*
X340327255Y-257751938D02*
X340265350Y-257813842D01*
X340265350Y-257813842D02*
X340141541Y-257875747D01*
X340141541Y-257875747D02*
X339893922Y-257875747D01*
X339893922Y-257875747D02*
X339770112Y-257937652D01*
X339770112Y-257937652D02*
X339708207Y-257999557D01*
X339708207Y-257999557D02*
X339646303Y-258123366D01*
X339646303Y-258123366D02*
X339646303Y-258370985D01*
X339646303Y-258370985D02*
X339708207Y-258494795D01*
X339708207Y-258494795D02*
X339770112Y-258556700D01*
X339770112Y-258556700D02*
X339893922Y-258618604D01*
X339893922Y-258618604D02*
X340141541Y-258618604D01*
X340141541Y-258618604D02*
X340265350Y-258556700D01*
X340265350Y-258556700D02*
X340327255Y-258494795D01*
X340327255Y-258494795D02*
X340389160Y-258370985D01*
X340389160Y-258370985D02*
X340389160Y-258123366D01*
X340389160Y-258123366D02*
X340327255Y-257999557D01*
X340327255Y-257999557D02*
X340265350Y-257937652D01*
X340265350Y-257937652D02*
X340141541Y-257875747D01*
D10*
D11*
X-35700000Y50375000D02*
X-33700000Y50375000D01*
D10*
D11*
X-35700000Y375000D02*
X-33700000Y375000D01*
D10*
D11*
X-35700000Y-49625000D02*
X-33700000Y-49625000D01*
D10*
D11*
X-35700000Y-99625000D02*
X-33700000Y-99625000D01*
D10*
D11*
X-35700000Y-149625000D02*
X-33700000Y-149625000D01*
D10*
D11*
X-35700000Y-199625000D02*
X-33700000Y-199625000D01*
D10*
D11*
X-35700000Y-249625000D02*
X-33700000Y-249625000D01*
D10*
D11*
X-35009524Y75152824D02*
X-34390477Y75152824D01*
X-35133334Y74781396D02*
X-34700001Y76081396D01*
X-34700001Y76081396D02*
X-34266667Y74781396D01*
D10*
D11*
X-34607143Y25462348D02*
X-34421429Y25400443D01*
X-34421429Y25400443D02*
X-34359524Y25338539D01*
X-34359524Y25338539D02*
X-34297620Y25214729D01*
X-34297620Y25214729D02*
X-34297620Y25029015D01*
X-34297620Y25029015D02*
X-34359524Y24905205D01*
X-34359524Y24905205D02*
X-34421429Y24843300D01*
X-34421429Y24843300D02*
X-34545239Y24781396D01*
X-34545239Y24781396D02*
X-35040477Y24781396D01*
X-35040477Y24781396D02*
X-35040477Y26081396D01*
X-35040477Y26081396D02*
X-34607143Y26081396D01*
X-34607143Y26081396D02*
X-34483334Y26019491D01*
X-34483334Y26019491D02*
X-34421429Y25957586D01*
X-34421429Y25957586D02*
X-34359524Y25833777D01*
X-34359524Y25833777D02*
X-34359524Y25709967D01*
X-34359524Y25709967D02*
X-34421429Y25586158D01*
X-34421429Y25586158D02*
X-34483334Y25524253D01*
X-34483334Y25524253D02*
X-34607143Y25462348D01*
X-34607143Y25462348D02*
X-35040477Y25462348D01*
D10*
D11*
X-34297620Y-25094795D02*
X-34359524Y-25156700D01*
X-34359524Y-25156700D02*
X-34545239Y-25218604D01*
X-34545239Y-25218604D02*
X-34669048Y-25218604D01*
X-34669048Y-25218604D02*
X-34854762Y-25156700D01*
X-34854762Y-25156700D02*
X-34978572Y-25032890D01*
X-34978572Y-25032890D02*
X-35040477Y-24909080D01*
X-35040477Y-24909080D02*
X-35102381Y-24661461D01*
X-35102381Y-24661461D02*
X-35102381Y-24475747D01*
X-35102381Y-24475747D02*
X-35040477Y-24228128D01*
X-35040477Y-24228128D02*
X-34978572Y-24104319D01*
X-34978572Y-24104319D02*
X-34854762Y-23980509D01*
X-34854762Y-23980509D02*
X-34669048Y-23918604D01*
X-34669048Y-23918604D02*
X-34545239Y-23918604D01*
X-34545239Y-23918604D02*
X-34359524Y-23980509D01*
X-34359524Y-23980509D02*
X-34297620Y-24042414D01*
D10*
D11*
X-35040477Y-75218604D02*
X-35040477Y-73918604D01*
X-35040477Y-73918604D02*
X-34730953Y-73918604D01*
X-34730953Y-73918604D02*
X-34545239Y-73980509D01*
X-34545239Y-73980509D02*
X-34421429Y-74104319D01*
X-34421429Y-74104319D02*
X-34359524Y-74228128D01*
X-34359524Y-74228128D02*
X-34297620Y-74475747D01*
X-34297620Y-74475747D02*
X-34297620Y-74661461D01*
X-34297620Y-74661461D02*
X-34359524Y-74909080D01*
X-34359524Y-74909080D02*
X-34421429Y-75032890D01*
X-34421429Y-75032890D02*
X-34545239Y-75156700D01*
X-34545239Y-75156700D02*
X-34730953Y-75218604D01*
X-34730953Y-75218604D02*
X-35040477Y-75218604D01*
D10*
D11*
X-34978572Y-124537652D02*
X-34545238Y-124537652D01*
X-34359524Y-125218604D02*
X-34978572Y-125218604D01*
X-34978572Y-125218604D02*
X-34978572Y-123918604D01*
X-34978572Y-123918604D02*
X-34359524Y-123918604D01*
D10*
D11*
X-34514286Y-174537652D02*
X-34947620Y-174537652D01*
X-34947620Y-175218604D02*
X-34947620Y-173918604D01*
X-34947620Y-173918604D02*
X-34328572Y-173918604D01*
D10*
D11*
X-34359524Y-223980509D02*
X-34483334Y-223918604D01*
X-34483334Y-223918604D02*
X-34669048Y-223918604D01*
X-34669048Y-223918604D02*
X-34854762Y-223980509D01*
X-34854762Y-223980509D02*
X-34978572Y-224104319D01*
X-34978572Y-224104319D02*
X-35040477Y-224228128D01*
X-35040477Y-224228128D02*
X-35102381Y-224475747D01*
X-35102381Y-224475747D02*
X-35102381Y-224661461D01*
X-35102381Y-224661461D02*
X-35040477Y-224909080D01*
X-35040477Y-224909080D02*
X-34978572Y-225032890D01*
X-34978572Y-225032890D02*
X-34854762Y-225156700D01*
X-34854762Y-225156700D02*
X-34669048Y-225218604D01*
X-34669048Y-225218604D02*
X-34545239Y-225218604D01*
X-34545239Y-225218604D02*
X-34359524Y-225156700D01*
X-34359524Y-225156700D02*
X-34297620Y-225094795D01*
X-34297620Y-225094795D02*
X-34297620Y-224661461D01*
X-34297620Y-224661461D02*
X-34545239Y-224661461D01*
D10*
D11*
X376100000Y50375000D02*
X374100000Y50375000D01*
D10*
D11*
X376100000Y375000D02*
X374100000Y375000D01*
D10*
D11*
X376100000Y-49625000D02*
X374100000Y-49625000D01*
D10*
D11*
X376100000Y-99625000D02*
X374100000Y-99625000D01*
D10*
D11*
X376100000Y-149625000D02*
X374100000Y-149625000D01*
D10*
D11*
X376100000Y-199625000D02*
X374100000Y-199625000D01*
D10*
D11*
X376100000Y-249625000D02*
X374100000Y-249625000D01*
D10*
D11*
X374790476Y75152824D02*
X375409523Y75152824D01*
X374666666Y74781396D02*
X375099999Y76081396D01*
X375099999Y76081396D02*
X375533333Y74781396D01*
D10*
D11*
X375192857Y25462348D02*
X375378571Y25400443D01*
X375378571Y25400443D02*
X375440476Y25338539D01*
X375440476Y25338539D02*
X375502380Y25214729D01*
X375502380Y25214729D02*
X375502380Y25029015D01*
X375502380Y25029015D02*
X375440476Y24905205D01*
X375440476Y24905205D02*
X375378571Y24843300D01*
X375378571Y24843300D02*
X375254761Y24781396D01*
X375254761Y24781396D02*
X374759523Y24781396D01*
X374759523Y24781396D02*
X374759523Y26081396D01*
X374759523Y26081396D02*
X375192857Y26081396D01*
X375192857Y26081396D02*
X375316666Y26019491D01*
X375316666Y26019491D02*
X375378571Y25957586D01*
X375378571Y25957586D02*
X375440476Y25833777D01*
X375440476Y25833777D02*
X375440476Y25709967D01*
X375440476Y25709967D02*
X375378571Y25586158D01*
X375378571Y25586158D02*
X375316666Y25524253D01*
X375316666Y25524253D02*
X375192857Y25462348D01*
X375192857Y25462348D02*
X374759523Y25462348D01*
D10*
D11*
X375502380Y-25094795D02*
X375440476Y-25156700D01*
X375440476Y-25156700D02*
X375254761Y-25218604D01*
X375254761Y-25218604D02*
X375130952Y-25218604D01*
X375130952Y-25218604D02*
X374945238Y-25156700D01*
X374945238Y-25156700D02*
X374821428Y-25032890D01*
X374821428Y-25032890D02*
X374759523Y-24909080D01*
X374759523Y-24909080D02*
X374697619Y-24661461D01*
X374697619Y-24661461D02*
X374697619Y-24475747D01*
X374697619Y-24475747D02*
X374759523Y-24228128D01*
X374759523Y-24228128D02*
X374821428Y-24104319D01*
X374821428Y-24104319D02*
X374945238Y-23980509D01*
X374945238Y-23980509D02*
X375130952Y-23918604D01*
X375130952Y-23918604D02*
X375254761Y-23918604D01*
X375254761Y-23918604D02*
X375440476Y-23980509D01*
X375440476Y-23980509D02*
X375502380Y-24042414D01*
D10*
D11*
X374759523Y-75218604D02*
X374759523Y-73918604D01*
X374759523Y-73918604D02*
X375069047Y-73918604D01*
X375069047Y-73918604D02*
X375254761Y-73980509D01*
X375254761Y-73980509D02*
X375378571Y-74104319D01*
X375378571Y-74104319D02*
X375440476Y-74228128D01*
X375440476Y-74228128D02*
X375502380Y-74475747D01*
X375502380Y-74475747D02*
X375502380Y-74661461D01*
X375502380Y-74661461D02*
X375440476Y-74909080D01*
X375440476Y-74909080D02*
X375378571Y-75032890D01*
X375378571Y-75032890D02*
X375254761Y-75156700D01*
X375254761Y-75156700D02*
X375069047Y-75218604D01*
X375069047Y-75218604D02*
X374759523Y-75218604D01*
D10*
D11*
X374821428Y-124537652D02*
X375254762Y-124537652D01*
X375440476Y-125218604D02*
X374821428Y-125218604D01*
X374821428Y-125218604D02*
X374821428Y-123918604D01*
X374821428Y-123918604D02*
X375440476Y-123918604D01*
D10*
D11*
X375285714Y-174537652D02*
X374852380Y-174537652D01*
X374852380Y-175218604D02*
X374852380Y-173918604D01*
X374852380Y-173918604D02*
X375471428Y-173918604D01*
D10*
D11*
X375440476Y-223980509D02*
X375316666Y-223918604D01*
X375316666Y-223918604D02*
X375130952Y-223918604D01*
X375130952Y-223918604D02*
X374945238Y-223980509D01*
X374945238Y-223980509D02*
X374821428Y-224104319D01*
X374821428Y-224104319D02*
X374759523Y-224228128D01*
X374759523Y-224228128D02*
X374697619Y-224475747D01*
X374697619Y-224475747D02*
X374697619Y-224661461D01*
X374697619Y-224661461D02*
X374759523Y-224909080D01*
X374759523Y-224909080D02*
X374821428Y-225032890D01*
X374821428Y-225032890D02*
X374945238Y-225156700D01*
X374945238Y-225156700D02*
X375130952Y-225218604D01*
X375130952Y-225218604D02*
X375254761Y-225218604D01*
X375254761Y-225218604D02*
X375440476Y-225156700D01*
X375440476Y-225156700D02*
X375502380Y-225094795D01*
X375502380Y-225094795D02*
X375502380Y-224661461D01*
X375502380Y-224661461D02*
X375254761Y-224661461D01*
D10*
D11*
X289555826Y-252811128D02*
X289555826Y-251311128D01*
X289555826Y-251311128D02*
X289912969Y-251311128D01*
X289912969Y-251311128D02*
X290127255Y-251382557D01*
X290127255Y-251382557D02*
X290270112Y-251525414D01*
X290270112Y-251525414D02*
X290341541Y-251668271D01*
X290341541Y-251668271D02*
X290412969Y-251953985D01*
X290412969Y-251953985D02*
X290412969Y-252168271D01*
X290412969Y-252168271D02*
X290341541Y-252453985D01*
X290341541Y-252453985D02*
X290270112Y-252596842D01*
X290270112Y-252596842D02*
X290127255Y-252739700D01*
X290127255Y-252739700D02*
X289912969Y-252811128D01*
X289912969Y-252811128D02*
X289555826Y-252811128D01*
X291698684Y-252811128D02*
X291698684Y-252025414D01*
X291698684Y-252025414D02*
X291627255Y-251882557D01*
X291627255Y-251882557D02*
X291484398Y-251811128D01*
X291484398Y-251811128D02*
X291198684Y-251811128D01*
X291198684Y-251811128D02*
X291055826Y-251882557D01*
X291698684Y-252739700D02*
X291555826Y-252811128D01*
X291555826Y-252811128D02*
X291198684Y-252811128D01*
X291198684Y-252811128D02*
X291055826Y-252739700D01*
X291055826Y-252739700D02*
X290984398Y-252596842D01*
X290984398Y-252596842D02*
X290984398Y-252453985D01*
X290984398Y-252453985D02*
X291055826Y-252311128D01*
X291055826Y-252311128D02*
X291198684Y-252239700D01*
X291198684Y-252239700D02*
X291555826Y-252239700D01*
X291555826Y-252239700D02*
X291698684Y-252168271D01*
X292198684Y-251811128D02*
X292770112Y-251811128D01*
X292412969Y-251311128D02*
X292412969Y-252596842D01*
X292412969Y-252596842D02*
X292484398Y-252739700D01*
X292484398Y-252739700D02*
X292627255Y-252811128D01*
X292627255Y-252811128D02*
X292770112Y-252811128D01*
X293841541Y-252739700D02*
X293698684Y-252811128D01*
X293698684Y-252811128D02*
X293412970Y-252811128D01*
X293412970Y-252811128D02*
X293270112Y-252739700D01*
X293270112Y-252739700D02*
X293198684Y-252596842D01*
X293198684Y-252596842D02*
X293198684Y-252025414D01*
X293198684Y-252025414D02*
X293270112Y-251882557D01*
X293270112Y-251882557D02*
X293412970Y-251811128D01*
X293412970Y-251811128D02*
X293698684Y-251811128D01*
X293698684Y-251811128D02*
X293841541Y-251882557D01*
X293841541Y-251882557D02*
X293912970Y-252025414D01*
X293912970Y-252025414D02*
X293912970Y-252168271D01*
X293912970Y-252168271D02*
X293198684Y-252311128D01*
X294555826Y-252668271D02*
X294627255Y-252739700D01*
X294627255Y-252739700D02*
X294555826Y-252811128D01*
X294555826Y-252811128D02*
X294484398Y-252739700D01*
X294484398Y-252739700D02*
X294555826Y-252668271D01*
X294555826Y-252668271D02*
X294555826Y-252811128D01*
X294555826Y-251882557D02*
X294627255Y-251953985D01*
X294627255Y-251953985D02*
X294555826Y-252025414D01*
X294555826Y-252025414D02*
X294484398Y-251953985D01*
X294484398Y-251953985D02*
X294555826Y-251882557D01*
X294555826Y-251882557D02*
X294555826Y-252025414D01*
X296341541Y-251453985D02*
X296412969Y-251382557D01*
X296412969Y-251382557D02*
X296555827Y-251311128D01*
X296555827Y-251311128D02*
X296912969Y-251311128D01*
X296912969Y-251311128D02*
X297055827Y-251382557D01*
X297055827Y-251382557D02*
X297127255Y-251453985D01*
X297127255Y-251453985D02*
X297198684Y-251596842D01*
X297198684Y-251596842D02*
X297198684Y-251739700D01*
X297198684Y-251739700D02*
X297127255Y-251953985D01*
X297127255Y-251953985D02*
X296270112Y-252811128D01*
X296270112Y-252811128D02*
X297198684Y-252811128D01*
X298127255Y-251311128D02*
X298270112Y-251311128D01*
X298270112Y-251311128D02*
X298412969Y-251382557D01*
X298412969Y-251382557D02*
X298484398Y-251453985D01*
X298484398Y-251453985D02*
X298555826Y-251596842D01*
X298555826Y-251596842D02*
X298627255Y-251882557D01*
X298627255Y-251882557D02*
X298627255Y-252239700D01*
X298627255Y-252239700D02*
X298555826Y-252525414D01*
X298555826Y-252525414D02*
X298484398Y-252668271D01*
X298484398Y-252668271D02*
X298412969Y-252739700D01*
X298412969Y-252739700D02*
X298270112Y-252811128D01*
X298270112Y-252811128D02*
X298127255Y-252811128D01*
X298127255Y-252811128D02*
X297984398Y-252739700D01*
X297984398Y-252739700D02*
X297912969Y-252668271D01*
X297912969Y-252668271D02*
X297841540Y-252525414D01*
X297841540Y-252525414D02*
X297770112Y-252239700D01*
X297770112Y-252239700D02*
X297770112Y-251882557D01*
X297770112Y-251882557D02*
X297841540Y-251596842D01*
X297841540Y-251596842D02*
X297912969Y-251453985D01*
X297912969Y-251453985D02*
X297984398Y-251382557D01*
X297984398Y-251382557D02*
X298127255Y-251311128D01*
X299198683Y-251453985D02*
X299270111Y-251382557D01*
X299270111Y-251382557D02*
X299412969Y-251311128D01*
X299412969Y-251311128D02*
X299770111Y-251311128D01*
X299770111Y-251311128D02*
X299912969Y-251382557D01*
X299912969Y-251382557D02*
X299984397Y-251453985D01*
X299984397Y-251453985D02*
X300055826Y-251596842D01*
X300055826Y-251596842D02*
X300055826Y-251739700D01*
X300055826Y-251739700D02*
X299984397Y-251953985D01*
X299984397Y-251953985D02*
X299127254Y-252811128D01*
X299127254Y-252811128D02*
X300055826Y-252811128D01*
X300627254Y-251453985D02*
X300698682Y-251382557D01*
X300698682Y-251382557D02*
X300841540Y-251311128D01*
X300841540Y-251311128D02*
X301198682Y-251311128D01*
X301198682Y-251311128D02*
X301341540Y-251382557D01*
X301341540Y-251382557D02*
X301412968Y-251453985D01*
X301412968Y-251453985D02*
X301484397Y-251596842D01*
X301484397Y-251596842D02*
X301484397Y-251739700D01*
X301484397Y-251739700D02*
X301412968Y-251953985D01*
X301412968Y-251953985D02*
X300555825Y-252811128D01*
X300555825Y-252811128D02*
X301484397Y-252811128D01*
X302127253Y-252239700D02*
X303270111Y-252239700D01*
X304770111Y-252811128D02*
X303912968Y-252811128D01*
X304341539Y-252811128D02*
X304341539Y-251311128D01*
X304341539Y-251311128D02*
X304198682Y-251525414D01*
X304198682Y-251525414D02*
X304055825Y-251668271D01*
X304055825Y-251668271D02*
X303912968Y-251739700D01*
X305698682Y-251311128D02*
X305841539Y-251311128D01*
X305841539Y-251311128D02*
X305984396Y-251382557D01*
X305984396Y-251382557D02*
X306055825Y-251453985D01*
X306055825Y-251453985D02*
X306127253Y-251596842D01*
X306127253Y-251596842D02*
X306198682Y-251882557D01*
X306198682Y-251882557D02*
X306198682Y-252239700D01*
X306198682Y-252239700D02*
X306127253Y-252525414D01*
X306127253Y-252525414D02*
X306055825Y-252668271D01*
X306055825Y-252668271D02*
X305984396Y-252739700D01*
X305984396Y-252739700D02*
X305841539Y-252811128D01*
X305841539Y-252811128D02*
X305698682Y-252811128D01*
X305698682Y-252811128D02*
X305555825Y-252739700D01*
X305555825Y-252739700D02*
X305484396Y-252668271D01*
X305484396Y-252668271D02*
X305412967Y-252525414D01*
X305412967Y-252525414D02*
X305341539Y-252239700D01*
X305341539Y-252239700D02*
X305341539Y-251882557D01*
X305341539Y-251882557D02*
X305412967Y-251596842D01*
X305412967Y-251596842D02*
X305484396Y-251453985D01*
X305484396Y-251453985D02*
X305555825Y-251382557D01*
X305555825Y-251382557D02*
X305698682Y-251311128D01*
X306841538Y-252239700D02*
X307984396Y-252239700D01*
X309484396Y-252811128D02*
X308627253Y-252811128D01*
X309055824Y-252811128D02*
X309055824Y-251311128D01*
X309055824Y-251311128D02*
X308912967Y-251525414D01*
X308912967Y-251525414D02*
X308770110Y-251668271D01*
X308770110Y-251668271D02*
X308627253Y-251739700D01*
X310770110Y-251811128D02*
X310770110Y-252811128D01*
X310412967Y-251239700D02*
X310055824Y-252311128D01*
X310055824Y-252311128D02*
X310984395Y-252311128D01*
D10*
D11*
X266100000Y-253525000D02*
X374100000Y-253525000D01*
D10*
D11*
X267555826Y-255611128D02*
X267555826Y-254111128D01*
X268412969Y-255611128D02*
X267770112Y-254753985D01*
X268412969Y-254111128D02*
X267555826Y-254968271D01*
X269055826Y-255611128D02*
X269055826Y-254611128D01*
X269055826Y-254111128D02*
X268984398Y-254182557D01*
X268984398Y-254182557D02*
X269055826Y-254253985D01*
X269055826Y-254253985D02*
X269127255Y-254182557D01*
X269127255Y-254182557D02*
X269055826Y-254111128D01*
X269055826Y-254111128D02*
X269055826Y-254253985D01*
X270627255Y-255468271D02*
X270555827Y-255539700D01*
X270555827Y-255539700D02*
X270341541Y-255611128D01*
X270341541Y-255611128D02*
X270198684Y-255611128D01*
X270198684Y-255611128D02*
X269984398Y-255539700D01*
X269984398Y-255539700D02*
X269841541Y-255396842D01*
X269841541Y-255396842D02*
X269770112Y-255253985D01*
X269770112Y-255253985D02*
X269698684Y-254968271D01*
X269698684Y-254968271D02*
X269698684Y-254753985D01*
X269698684Y-254753985D02*
X269770112Y-254468271D01*
X269770112Y-254468271D02*
X269841541Y-254325414D01*
X269841541Y-254325414D02*
X269984398Y-254182557D01*
X269984398Y-254182557D02*
X270198684Y-254111128D01*
X270198684Y-254111128D02*
X270341541Y-254111128D01*
X270341541Y-254111128D02*
X270555827Y-254182557D01*
X270555827Y-254182557D02*
X270627255Y-254253985D01*
X271912970Y-255611128D02*
X271912970Y-254825414D01*
X271912970Y-254825414D02*
X271841541Y-254682557D01*
X271841541Y-254682557D02*
X271698684Y-254611128D01*
X271698684Y-254611128D02*
X271412970Y-254611128D01*
X271412970Y-254611128D02*
X271270112Y-254682557D01*
X271912970Y-255539700D02*
X271770112Y-255611128D01*
X271770112Y-255611128D02*
X271412970Y-255611128D01*
X271412970Y-255611128D02*
X271270112Y-255539700D01*
X271270112Y-255539700D02*
X271198684Y-255396842D01*
X271198684Y-255396842D02*
X271198684Y-255253985D01*
X271198684Y-255253985D02*
X271270112Y-255111128D01*
X271270112Y-255111128D02*
X271412970Y-255039700D01*
X271412970Y-255039700D02*
X271770112Y-255039700D01*
X271770112Y-255039700D02*
X271912970Y-254968271D01*
X273270113Y-255611128D02*
X273270113Y-254111128D01*
X273270113Y-255539700D02*
X273127255Y-255611128D01*
X273127255Y-255611128D02*
X272841541Y-255611128D01*
X272841541Y-255611128D02*
X272698684Y-255539700D01*
X272698684Y-255539700D02*
X272627255Y-255468271D01*
X272627255Y-255468271D02*
X272555827Y-255325414D01*
X272555827Y-255325414D02*
X272555827Y-254896842D01*
X272555827Y-254896842D02*
X272627255Y-254753985D01*
X272627255Y-254753985D02*
X272698684Y-254682557D01*
X272698684Y-254682557D02*
X272841541Y-254611128D01*
X272841541Y-254611128D02*
X273127255Y-254611128D01*
X273127255Y-254611128D02*
X273270113Y-254682557D01*
X275127255Y-254825414D02*
X275627255Y-254825414D01*
X275841541Y-255611128D02*
X275127255Y-255611128D01*
X275127255Y-255611128D02*
X275127255Y-254111128D01*
X275127255Y-254111128D02*
X275841541Y-254111128D01*
X276484398Y-255468271D02*
X276555827Y-255539700D01*
X276555827Y-255539700D02*
X276484398Y-255611128D01*
X276484398Y-255611128D02*
X276412970Y-255539700D01*
X276412970Y-255539700D02*
X276484398Y-255468271D01*
X276484398Y-255468271D02*
X276484398Y-255611128D01*
X277198684Y-255611128D02*
X277198684Y-254111128D01*
X277198684Y-254111128D02*
X277555827Y-254111128D01*
X277555827Y-254111128D02*
X277770113Y-254182557D01*
X277770113Y-254182557D02*
X277912970Y-254325414D01*
X277912970Y-254325414D02*
X277984399Y-254468271D01*
X277984399Y-254468271D02*
X278055827Y-254753985D01*
X278055827Y-254753985D02*
X278055827Y-254968271D01*
X278055827Y-254968271D02*
X277984399Y-255253985D01*
X277984399Y-255253985D02*
X277912970Y-255396842D01*
X277912970Y-255396842D02*
X277770113Y-255539700D01*
X277770113Y-255539700D02*
X277555827Y-255611128D01*
X277555827Y-255611128D02*
X277198684Y-255611128D01*
X278698684Y-255468271D02*
X278770113Y-255539700D01*
X278770113Y-255539700D02*
X278698684Y-255611128D01*
X278698684Y-255611128D02*
X278627256Y-255539700D01*
X278627256Y-255539700D02*
X278698684Y-255468271D01*
X278698684Y-255468271D02*
X278698684Y-255611128D01*
X279341542Y-255182557D02*
X280055828Y-255182557D01*
X279198685Y-255611128D02*
X279698685Y-254111128D01*
X279698685Y-254111128D02*
X280198685Y-255611128D01*
X280698684Y-255468271D02*
X280770113Y-255539700D01*
X280770113Y-255539700D02*
X280698684Y-255611128D01*
X280698684Y-255611128D02*
X280627256Y-255539700D01*
X280627256Y-255539700D02*
X280698684Y-255468271D01*
X280698684Y-255468271D02*
X280698684Y-255611128D01*
X282770113Y-254753985D02*
X282627256Y-254682557D01*
X282627256Y-254682557D02*
X282555827Y-254611128D01*
X282555827Y-254611128D02*
X282484399Y-254468271D01*
X282484399Y-254468271D02*
X282484399Y-254396842D01*
X282484399Y-254396842D02*
X282555827Y-254253985D01*
X282555827Y-254253985D02*
X282627256Y-254182557D01*
X282627256Y-254182557D02*
X282770113Y-254111128D01*
X282770113Y-254111128D02*
X283055827Y-254111128D01*
X283055827Y-254111128D02*
X283198685Y-254182557D01*
X283198685Y-254182557D02*
X283270113Y-254253985D01*
X283270113Y-254253985D02*
X283341542Y-254396842D01*
X283341542Y-254396842D02*
X283341542Y-254468271D01*
X283341542Y-254468271D02*
X283270113Y-254611128D01*
X283270113Y-254611128D02*
X283198685Y-254682557D01*
X283198685Y-254682557D02*
X283055827Y-254753985D01*
X283055827Y-254753985D02*
X282770113Y-254753985D01*
X282770113Y-254753985D02*
X282627256Y-254825414D01*
X282627256Y-254825414D02*
X282555827Y-254896842D01*
X282555827Y-254896842D02*
X282484399Y-255039700D01*
X282484399Y-255039700D02*
X282484399Y-255325414D01*
X282484399Y-255325414D02*
X282555827Y-255468271D01*
X282555827Y-255468271D02*
X282627256Y-255539700D01*
X282627256Y-255539700D02*
X282770113Y-255611128D01*
X282770113Y-255611128D02*
X283055827Y-255611128D01*
X283055827Y-255611128D02*
X283198685Y-255539700D01*
X283198685Y-255539700D02*
X283270113Y-255468271D01*
X283270113Y-255468271D02*
X283341542Y-255325414D01*
X283341542Y-255325414D02*
X283341542Y-255039700D01*
X283341542Y-255039700D02*
X283270113Y-254896842D01*
X283270113Y-254896842D02*
X283198685Y-254825414D01*
X283198685Y-254825414D02*
X283055827Y-254753985D01*
X283984398Y-255468271D02*
X284055827Y-255539700D01*
X284055827Y-255539700D02*
X283984398Y-255611128D01*
X283984398Y-255611128D02*
X283912970Y-255539700D01*
X283912970Y-255539700D02*
X283984398Y-255468271D01*
X283984398Y-255468271D02*
X283984398Y-255611128D01*
X284984399Y-254111128D02*
X285127256Y-254111128D01*
X285127256Y-254111128D02*
X285270113Y-254182557D01*
X285270113Y-254182557D02*
X285341542Y-254253985D01*
X285341542Y-254253985D02*
X285412970Y-254396842D01*
X285412970Y-254396842D02*
X285484399Y-254682557D01*
X285484399Y-254682557D02*
X285484399Y-255039700D01*
X285484399Y-255039700D02*
X285412970Y-255325414D01*
X285412970Y-255325414D02*
X285341542Y-255468271D01*
X285341542Y-255468271D02*
X285270113Y-255539700D01*
X285270113Y-255539700D02*
X285127256Y-255611128D01*
X285127256Y-255611128D02*
X284984399Y-255611128D01*
X284984399Y-255611128D02*
X284841542Y-255539700D01*
X284841542Y-255539700D02*
X284770113Y-255468271D01*
X284770113Y-255468271D02*
X284698684Y-255325414D01*
X284698684Y-255325414D02*
X284627256Y-255039700D01*
X284627256Y-255039700D02*
X284627256Y-254682557D01*
X284627256Y-254682557D02*
X284698684Y-254396842D01*
X284698684Y-254396842D02*
X284770113Y-254253985D01*
X284770113Y-254253985D02*
X284841542Y-254182557D01*
X284841542Y-254182557D02*
X284984399Y-254111128D01*
X286127255Y-255468271D02*
X286198684Y-255539700D01*
X286198684Y-255539700D02*
X286127255Y-255611128D01*
X286127255Y-255611128D02*
X286055827Y-255539700D01*
X286055827Y-255539700D02*
X286127255Y-255468271D01*
X286127255Y-255468271D02*
X286127255Y-255611128D01*
X287055827Y-254753985D02*
X286912970Y-254682557D01*
X286912970Y-254682557D02*
X286841541Y-254611128D01*
X286841541Y-254611128D02*
X286770113Y-254468271D01*
X286770113Y-254468271D02*
X286770113Y-254396842D01*
X286770113Y-254396842D02*
X286841541Y-254253985D01*
X286841541Y-254253985D02*
X286912970Y-254182557D01*
X286912970Y-254182557D02*
X287055827Y-254111128D01*
X287055827Y-254111128D02*
X287341541Y-254111128D01*
X287341541Y-254111128D02*
X287484399Y-254182557D01*
X287484399Y-254182557D02*
X287555827Y-254253985D01*
X287555827Y-254253985D02*
X287627256Y-254396842D01*
X287627256Y-254396842D02*
X287627256Y-254468271D01*
X287627256Y-254468271D02*
X287555827Y-254611128D01*
X287555827Y-254611128D02*
X287484399Y-254682557D01*
X287484399Y-254682557D02*
X287341541Y-254753985D01*
X287341541Y-254753985D02*
X287055827Y-254753985D01*
X287055827Y-254753985D02*
X286912970Y-254825414D01*
X286912970Y-254825414D02*
X286841541Y-254896842D01*
X286841541Y-254896842D02*
X286770113Y-255039700D01*
X286770113Y-255039700D02*
X286770113Y-255325414D01*
X286770113Y-255325414D02*
X286841541Y-255468271D01*
X286841541Y-255468271D02*
X286912970Y-255539700D01*
X286912970Y-255539700D02*
X287055827Y-255611128D01*
X287055827Y-255611128D02*
X287341541Y-255611128D01*
X287341541Y-255611128D02*
X287484399Y-255539700D01*
X287484399Y-255539700D02*
X287555827Y-255468271D01*
X287555827Y-255468271D02*
X287627256Y-255325414D01*
X287627256Y-255325414D02*
X287627256Y-255039700D01*
X287627256Y-255039700D02*
X287555827Y-254896842D01*
X287555827Y-254896842D02*
X287484399Y-254825414D01*
X287484399Y-254825414D02*
X287341541Y-254753985D01*
D10*
D11*
X266100000Y-250525000D02*
X374100000Y-250525000D01*
D10*
D12*
X353511653Y-252803328D02*
X353011653Y-252089042D01*
X352654510Y-252803328D02*
X352654510Y-251303328D01*
X352654510Y-251303328D02*
X353225939Y-251303328D01*
X353225939Y-251303328D02*
X353368796Y-251374757D01*
X353368796Y-251374757D02*
X353440225Y-251446185D01*
X353440225Y-251446185D02*
X353511653Y-251589042D01*
X353511653Y-251589042D02*
X353511653Y-251803328D01*
X353511653Y-251803328D02*
X353440225Y-251946185D01*
X353440225Y-251946185D02*
X353368796Y-252017614D01*
X353368796Y-252017614D02*
X353225939Y-252089042D01*
X353225939Y-252089042D02*
X352654510Y-252089042D01*
X354725939Y-252731900D02*
X354583082Y-252803328D01*
X354583082Y-252803328D02*
X354297368Y-252803328D01*
X354297368Y-252803328D02*
X354154510Y-252731900D01*
X354154510Y-252731900D02*
X354083082Y-252589042D01*
X354083082Y-252589042D02*
X354083082Y-252017614D01*
X354083082Y-252017614D02*
X354154510Y-251874757D01*
X354154510Y-251874757D02*
X354297368Y-251803328D01*
X354297368Y-251803328D02*
X354583082Y-251803328D01*
X354583082Y-251803328D02*
X354725939Y-251874757D01*
X354725939Y-251874757D02*
X354797368Y-252017614D01*
X354797368Y-252017614D02*
X354797368Y-252160471D01*
X354797368Y-252160471D02*
X354083082Y-252303328D01*
X355297367Y-251803328D02*
X355654510Y-252803328D01*
X355654510Y-252803328D02*
X356011653Y-251803328D01*
X356583081Y-252660471D02*
X356654510Y-252731900D01*
X356654510Y-252731900D02*
X356583081Y-252803328D01*
X356583081Y-252803328D02*
X356511653Y-252731900D01*
X356511653Y-252731900D02*
X356583081Y-252660471D01*
X356583081Y-252660471D02*
X356583081Y-252803328D01*
X356583081Y-251874757D02*
X356654510Y-251946185D01*
X356654510Y-251946185D02*
X356583081Y-252017614D01*
X356583081Y-252017614D02*
X356511653Y-251946185D01*
X356511653Y-251946185D02*
X356583081Y-251874757D01*
X356583081Y-251874757D02*
X356583081Y-252017614D01*
X359083082Y-252803328D02*
X359083082Y-251303328D01*
X359083082Y-252731900D02*
X358940224Y-252803328D01*
X358940224Y-252803328D02*
X358654510Y-252803328D01*
X358654510Y-252803328D02*
X358511653Y-252731900D01*
X358511653Y-252731900D02*
X358440224Y-252660471D01*
X358440224Y-252660471D02*
X358368796Y-252517614D01*
X358368796Y-252517614D02*
X358368796Y-252089042D01*
X358368796Y-252089042D02*
X358440224Y-251946185D01*
X358440224Y-251946185D02*
X358511653Y-251874757D01*
X358511653Y-251874757D02*
X358654510Y-251803328D01*
X358654510Y-251803328D02*
X358940224Y-251803328D01*
X358940224Y-251803328D02*
X359083082Y-251874757D01*
D10*
D11*
X267484398Y-252739700D02*
X267698684Y-252811128D01*
X267698684Y-252811128D02*
X268055826Y-252811128D01*
X268055826Y-252811128D02*
X268198684Y-252739700D01*
X268198684Y-252739700D02*
X268270112Y-252668271D01*
X268270112Y-252668271D02*
X268341541Y-252525414D01*
X268341541Y-252525414D02*
X268341541Y-252382557D01*
X268341541Y-252382557D02*
X268270112Y-252239700D01*
X268270112Y-252239700D02*
X268198684Y-252168271D01*
X268198684Y-252168271D02*
X268055826Y-252096842D01*
X268055826Y-252096842D02*
X267770112Y-252025414D01*
X267770112Y-252025414D02*
X267627255Y-251953985D01*
X267627255Y-251953985D02*
X267555826Y-251882557D01*
X267555826Y-251882557D02*
X267484398Y-251739700D01*
X267484398Y-251739700D02*
X267484398Y-251596842D01*
X267484398Y-251596842D02*
X267555826Y-251453985D01*
X267555826Y-251453985D02*
X267627255Y-251382557D01*
X267627255Y-251382557D02*
X267770112Y-251311128D01*
X267770112Y-251311128D02*
X268127255Y-251311128D01*
X268127255Y-251311128D02*
X268341541Y-251382557D01*
X268984397Y-252811128D02*
X268984397Y-251811128D01*
X268984397Y-251311128D02*
X268912969Y-251382557D01*
X268912969Y-251382557D02*
X268984397Y-251453985D01*
X268984397Y-251453985D02*
X269055826Y-251382557D01*
X269055826Y-251382557D02*
X268984397Y-251311128D01*
X268984397Y-251311128D02*
X268984397Y-251453985D01*
X269555826Y-251811128D02*
X270341541Y-251811128D01*
X270341541Y-251811128D02*
X269555826Y-252811128D01*
X269555826Y-252811128D02*
X270341541Y-252811128D01*
X271484398Y-252739700D02*
X271341541Y-252811128D01*
X271341541Y-252811128D02*
X271055827Y-252811128D01*
X271055827Y-252811128D02*
X270912969Y-252739700D01*
X270912969Y-252739700D02*
X270841541Y-252596842D01*
X270841541Y-252596842D02*
X270841541Y-252025414D01*
X270841541Y-252025414D02*
X270912969Y-251882557D01*
X270912969Y-251882557D02*
X271055827Y-251811128D01*
X271055827Y-251811128D02*
X271341541Y-251811128D01*
X271341541Y-251811128D02*
X271484398Y-251882557D01*
X271484398Y-251882557D02*
X271555827Y-252025414D01*
X271555827Y-252025414D02*
X271555827Y-252168271D01*
X271555827Y-252168271D02*
X270841541Y-252311128D01*
X272198683Y-252668271D02*
X272270112Y-252739700D01*
X272270112Y-252739700D02*
X272198683Y-252811128D01*
X272198683Y-252811128D02*
X272127255Y-252739700D01*
X272127255Y-252739700D02*
X272198683Y-252668271D01*
X272198683Y-252668271D02*
X272198683Y-252811128D01*
X272198683Y-251882557D02*
X272270112Y-251953985D01*
X272270112Y-251953985D02*
X272198683Y-252025414D01*
X272198683Y-252025414D02*
X272127255Y-251953985D01*
X272127255Y-251953985D02*
X272198683Y-251882557D01*
X272198683Y-251882557D02*
X272198683Y-252025414D01*
X274055826Y-251311128D02*
X274055826Y-252525414D01*
X274055826Y-252525414D02*
X274127255Y-252668271D01*
X274127255Y-252668271D02*
X274198684Y-252739700D01*
X274198684Y-252739700D02*
X274341541Y-252811128D01*
X274341541Y-252811128D02*
X274627255Y-252811128D01*
X274627255Y-252811128D02*
X274770112Y-252739700D01*
X274770112Y-252739700D02*
X274841541Y-252668271D01*
X274841541Y-252668271D02*
X274912969Y-252525414D01*
X274912969Y-252525414D02*
X274912969Y-251311128D01*
X275555827Y-252739700D02*
X275698684Y-252811128D01*
X275698684Y-252811128D02*
X275984398Y-252811128D01*
X275984398Y-252811128D02*
X276127255Y-252739700D01*
X276127255Y-252739700D02*
X276198684Y-252596842D01*
X276198684Y-252596842D02*
X276198684Y-252525414D01*
X276198684Y-252525414D02*
X276127255Y-252382557D01*
X276127255Y-252382557D02*
X275984398Y-252311128D01*
X275984398Y-252311128D02*
X275770113Y-252311128D01*
X275770113Y-252311128D02*
X275627255Y-252239700D01*
X275627255Y-252239700D02*
X275555827Y-252096842D01*
X275555827Y-252096842D02*
X275555827Y-252025414D01*
X275555827Y-252025414D02*
X275627255Y-251882557D01*
X275627255Y-251882557D02*
X275770113Y-251811128D01*
X275770113Y-251811128D02*
X275984398Y-251811128D01*
X275984398Y-251811128D02*
X276127255Y-251882557D01*
X277412970Y-252739700D02*
X277270113Y-252811128D01*
X277270113Y-252811128D02*
X276984399Y-252811128D01*
X276984399Y-252811128D02*
X276841541Y-252739700D01*
X276841541Y-252739700D02*
X276770113Y-252596842D01*
X276770113Y-252596842D02*
X276770113Y-252025414D01*
X276770113Y-252025414D02*
X276841541Y-251882557D01*
X276841541Y-251882557D02*
X276984399Y-251811128D01*
X276984399Y-251811128D02*
X277270113Y-251811128D01*
X277270113Y-251811128D02*
X277412970Y-251882557D01*
X277412970Y-251882557D02*
X277484399Y-252025414D01*
X277484399Y-252025414D02*
X277484399Y-252168271D01*
X277484399Y-252168271D02*
X276770113Y-252311128D01*
X278127255Y-252811128D02*
X278127255Y-251811128D01*
X278127255Y-252096842D02*
X278198684Y-251953985D01*
X278198684Y-251953985D02*
X278270113Y-251882557D01*
X278270113Y-251882557D02*
X278412970Y-251811128D01*
X278412970Y-251811128D02*
X278555827Y-251811128D01*
D10*
D11*
X352555826Y-255611128D02*
X352555826Y-254111128D01*
X353912970Y-255611128D02*
X353912970Y-254111128D01*
X353912970Y-255539700D02*
X353770112Y-255611128D01*
X353770112Y-255611128D02*
X353484398Y-255611128D01*
X353484398Y-255611128D02*
X353341541Y-255539700D01*
X353341541Y-255539700D02*
X353270112Y-255468271D01*
X353270112Y-255468271D02*
X353198684Y-255325414D01*
X353198684Y-255325414D02*
X353198684Y-254896842D01*
X353198684Y-254896842D02*
X353270112Y-254753985D01*
X353270112Y-254753985D02*
X353341541Y-254682557D01*
X353341541Y-254682557D02*
X353484398Y-254611128D01*
X353484398Y-254611128D02*
X353770112Y-254611128D01*
X353770112Y-254611128D02*
X353912970Y-254682557D01*
X354627255Y-255468271D02*
X354698684Y-255539700D01*
X354698684Y-255539700D02*
X354627255Y-255611128D01*
X354627255Y-255611128D02*
X354555827Y-255539700D01*
X354555827Y-255539700D02*
X354627255Y-255468271D01*
X354627255Y-255468271D02*
X354627255Y-255611128D01*
X354627255Y-254682557D02*
X354698684Y-254753985D01*
X354698684Y-254753985D02*
X354627255Y-254825414D01*
X354627255Y-254825414D02*
X354555827Y-254753985D01*
X354555827Y-254753985D02*
X354627255Y-254682557D01*
X354627255Y-254682557D02*
X354627255Y-254825414D01*
X357270113Y-255611128D02*
X356412970Y-255611128D01*
X356841541Y-255611128D02*
X356841541Y-254111128D01*
X356841541Y-254111128D02*
X356698684Y-254325414D01*
X356698684Y-254325414D02*
X356555827Y-254468271D01*
X356555827Y-254468271D02*
X356412970Y-254539700D01*
X358984398Y-254039700D02*
X357698684Y-255968271D01*
X360270113Y-255611128D02*
X359412970Y-255611128D01*
X359841541Y-255611128D02*
X359841541Y-254111128D01*
X359841541Y-254111128D02*
X359698684Y-254325414D01*
X359698684Y-254325414D02*
X359555827Y-254468271D01*
X359555827Y-254468271D02*
X359412970Y-254539700D01*
D10*
D11*
X266100000Y-246525000D02*
X374100000Y-246525000D01*
D10*
D13*
X267791728Y-247229438D02*
X268934585Y-247229438D01*
X268113157Y-249229438D02*
X268363157Y-247229438D01*
X269351252Y-249229438D02*
X269517919Y-247896104D01*
X269601252Y-247229438D02*
X269494109Y-247324676D01*
X269494109Y-247324676D02*
X269577443Y-247419914D01*
X269577443Y-247419914D02*
X269684586Y-247324676D01*
X269684586Y-247324676D02*
X269601252Y-247229438D01*
X269601252Y-247229438D02*
X269577443Y-247419914D01*
X270184586Y-247896104D02*
X270946490Y-247896104D01*
X270553633Y-247229438D02*
X270339348Y-248943723D01*
X270339348Y-248943723D02*
X270410776Y-249134200D01*
X270410776Y-249134200D02*
X270589348Y-249229438D01*
X270589348Y-249229438D02*
X270779824Y-249229438D01*
X271732205Y-249229438D02*
X271553633Y-249134200D01*
X271553633Y-249134200D02*
X271482205Y-248943723D01*
X271482205Y-248943723D02*
X271696490Y-247229438D01*
X273267919Y-249134200D02*
X273065538Y-249229438D01*
X273065538Y-249229438D02*
X272684585Y-249229438D01*
X272684585Y-249229438D02*
X272506014Y-249134200D01*
X272506014Y-249134200D02*
X272434585Y-248943723D01*
X272434585Y-248943723D02*
X272529824Y-248181819D01*
X272529824Y-248181819D02*
X272648871Y-247991342D01*
X272648871Y-247991342D02*
X272851252Y-247896104D01*
X272851252Y-247896104D02*
X273232204Y-247896104D01*
X273232204Y-247896104D02*
X273410776Y-247991342D01*
X273410776Y-247991342D02*
X273482204Y-248181819D01*
X273482204Y-248181819D02*
X273458395Y-248372295D01*
X273458395Y-248372295D02*
X272482204Y-248562771D01*
X274232205Y-249038961D02*
X274315538Y-249134200D01*
X274315538Y-249134200D02*
X274208395Y-249229438D01*
X274208395Y-249229438D02*
X274125062Y-249134200D01*
X274125062Y-249134200D02*
X274232205Y-249038961D01*
X274232205Y-249038961D02*
X274208395Y-249229438D01*
X274363157Y-247991342D02*
X274446490Y-248086580D01*
X274446490Y-248086580D02*
X274339348Y-248181819D01*
X274339348Y-248181819D02*
X274256014Y-248086580D01*
X274256014Y-248086580D02*
X274363157Y-247991342D01*
X274363157Y-247991342D02*
X274339348Y-248181819D01*
X276684586Y-249229438D02*
X276934586Y-247229438D01*
X276815539Y-248181819D02*
X277958396Y-248181819D01*
X277827443Y-249229438D02*
X278077443Y-247229438D01*
X279553634Y-249134200D02*
X279351253Y-249229438D01*
X279351253Y-249229438D02*
X278970300Y-249229438D01*
X278970300Y-249229438D02*
X278791729Y-249134200D01*
X278791729Y-249134200D02*
X278720300Y-248943723D01*
X278720300Y-248943723D02*
X278815539Y-248181819D01*
X278815539Y-248181819D02*
X278934586Y-247991342D01*
X278934586Y-247991342D02*
X279136967Y-247896104D01*
X279136967Y-247896104D02*
X279517919Y-247896104D01*
X279517919Y-247896104D02*
X279696491Y-247991342D01*
X279696491Y-247991342D02*
X279767919Y-248181819D01*
X279767919Y-248181819D02*
X279744110Y-248372295D01*
X279744110Y-248372295D02*
X278767919Y-248562771D01*
X280779825Y-249229438D02*
X280601253Y-249134200D01*
X280601253Y-249134200D02*
X280529825Y-248943723D01*
X280529825Y-248943723D02*
X280744110Y-247229438D01*
X281827444Y-249229438D02*
X281648872Y-249134200D01*
X281648872Y-249134200D02*
X281577444Y-248943723D01*
X281577444Y-248943723D02*
X281791729Y-247229438D01*
X283363158Y-249134200D02*
X283160777Y-249229438D01*
X283160777Y-249229438D02*
X282779824Y-249229438D01*
X282779824Y-249229438D02*
X282601253Y-249134200D01*
X282601253Y-249134200D02*
X282529824Y-248943723D01*
X282529824Y-248943723D02*
X282625063Y-248181819D01*
X282625063Y-248181819D02*
X282744110Y-247991342D01*
X282744110Y-247991342D02*
X282946491Y-247896104D01*
X282946491Y-247896104D02*
X283327443Y-247896104D01*
X283327443Y-247896104D02*
X283506015Y-247991342D01*
X283506015Y-247991342D02*
X283577443Y-248181819D01*
X283577443Y-248181819D02*
X283553634Y-248372295D01*
X283553634Y-248372295D02*
X282577443Y-248562771D01*
X284470301Y-247896104D02*
X284303634Y-249229438D01*
X284446491Y-248086580D02*
X284553634Y-247991342D01*
X284553634Y-247991342D02*
X284756015Y-247896104D01*
X284756015Y-247896104D02*
X285041729Y-247896104D01*
X285041729Y-247896104D02*
X285220301Y-247991342D01*
X285220301Y-247991342D02*
X285291729Y-248181819D01*
X285291729Y-248181819D02*
X285160777Y-249229438D01*
X287160777Y-249229438D02*
X286017920Y-249229438D01*
X286589349Y-249229438D02*
X286839349Y-247229438D01*
X286839349Y-247229438D02*
X286613158Y-247515152D01*
X286613158Y-247515152D02*
X286398873Y-247705628D01*
X286398873Y-247705628D02*
X286196492Y-247800866D01*
X288148873Y-247419914D02*
X288256015Y-247324676D01*
X288256015Y-247324676D02*
X288458396Y-247229438D01*
X288458396Y-247229438D02*
X288934587Y-247229438D01*
X288934587Y-247229438D02*
X289113158Y-247324676D01*
X289113158Y-247324676D02*
X289196492Y-247419914D01*
X289196492Y-247419914D02*
X289267920Y-247610390D01*
X289267920Y-247610390D02*
X289244111Y-247800866D01*
X289244111Y-247800866D02*
X289113158Y-248086580D01*
X289113158Y-248086580D02*
X287827444Y-249229438D01*
X287827444Y-249229438D02*
X289065539Y-249229438D01*
X290970301Y-249229438D02*
X289827444Y-249229438D01*
X290398873Y-249229438D02*
X290648873Y-247229438D01*
X290648873Y-247229438D02*
X290422682Y-247515152D01*
X290422682Y-247515152D02*
X290208397Y-247705628D01*
X290208397Y-247705628D02*
X290006016Y-247800866D01*
X291803635Y-247896104D02*
X292113159Y-249229438D01*
X292113159Y-249229438D02*
X292756016Y-247896104D01*
X294208397Y-249229438D02*
X294339349Y-248181819D01*
X294339349Y-248181819D02*
X294267921Y-247991342D01*
X294267921Y-247991342D02*
X294089349Y-247896104D01*
X294089349Y-247896104D02*
X293708397Y-247896104D01*
X293708397Y-247896104D02*
X293506016Y-247991342D01*
X294220302Y-249134200D02*
X294017921Y-249229438D01*
X294017921Y-249229438D02*
X293541730Y-249229438D01*
X293541730Y-249229438D02*
X293363159Y-249134200D01*
X293363159Y-249134200D02*
X293291730Y-248943723D01*
X293291730Y-248943723D02*
X293315540Y-248753247D01*
X293315540Y-248753247D02*
X293434588Y-248562771D01*
X293434588Y-248562771D02*
X293636969Y-248467533D01*
X293636969Y-248467533D02*
X294113159Y-248467533D01*
X294113159Y-248467533D02*
X294315540Y-248372295D01*
X296184588Y-247896104D02*
X295982207Y-249515152D01*
X295982207Y-249515152D02*
X295863159Y-249705628D01*
X295863159Y-249705628D02*
X295756016Y-249800866D01*
X295756016Y-249800866D02*
X295553635Y-249896104D01*
X295553635Y-249896104D02*
X295267921Y-249896104D01*
X295267921Y-249896104D02*
X295089350Y-249800866D01*
X296029826Y-249134200D02*
X295827445Y-249229438D01*
X295827445Y-249229438D02*
X295446493Y-249229438D01*
X295446493Y-249229438D02*
X295267921Y-249134200D01*
X295267921Y-249134200D02*
X295184588Y-249038961D01*
X295184588Y-249038961D02*
X295113159Y-248848485D01*
X295113159Y-248848485D02*
X295184588Y-248277057D01*
X295184588Y-248277057D02*
X295303635Y-248086580D01*
X295303635Y-248086580D02*
X295410778Y-247991342D01*
X295410778Y-247991342D02*
X295613159Y-247896104D01*
X295613159Y-247896104D02*
X295994112Y-247896104D01*
X295994112Y-247896104D02*
X296172683Y-247991342D01*
D10*
D11*
X268055826Y-244625414D02*
X267555826Y-244625414D01*
X267555826Y-245411128D02*
X267555826Y-243911128D01*
X267555826Y-243911128D02*
X268270112Y-243911128D01*
X268841540Y-245411128D02*
X268841540Y-244411128D01*
X268841540Y-243911128D02*
X268770112Y-243982557D01*
X268770112Y-243982557D02*
X268841540Y-244053985D01*
X268841540Y-244053985D02*
X268912969Y-243982557D01*
X268912969Y-243982557D02*
X268841540Y-243911128D01*
X268841540Y-243911128D02*
X268841540Y-244053985D01*
X269770112Y-245411128D02*
X269627255Y-245339700D01*
X269627255Y-245339700D02*
X269555826Y-245196842D01*
X269555826Y-245196842D02*
X269555826Y-243911128D01*
X270912969Y-245339700D02*
X270770112Y-245411128D01*
X270770112Y-245411128D02*
X270484398Y-245411128D01*
X270484398Y-245411128D02*
X270341540Y-245339700D01*
X270341540Y-245339700D02*
X270270112Y-245196842D01*
X270270112Y-245196842D02*
X270270112Y-244625414D01*
X270270112Y-244625414D02*
X270341540Y-244482557D01*
X270341540Y-244482557D02*
X270484398Y-244411128D01*
X270484398Y-244411128D02*
X270770112Y-244411128D01*
X270770112Y-244411128D02*
X270912969Y-244482557D01*
X270912969Y-244482557D02*
X270984398Y-244625414D01*
X270984398Y-244625414D02*
X270984398Y-244768271D01*
X270984398Y-244768271D02*
X270270112Y-244911128D01*
X271627254Y-245268271D02*
X271698683Y-245339700D01*
X271698683Y-245339700D02*
X271627254Y-245411128D01*
X271627254Y-245411128D02*
X271555826Y-245339700D01*
X271555826Y-245339700D02*
X271627254Y-245268271D01*
X271627254Y-245268271D02*
X271627254Y-245411128D01*
X271627254Y-244482557D02*
X271698683Y-244553985D01*
X271698683Y-244553985D02*
X271627254Y-244625414D01*
X271627254Y-244625414D02*
X271555826Y-244553985D01*
X271555826Y-244553985D02*
X271627254Y-244482557D01*
X271627254Y-244482557D02*
X271627254Y-244625414D01*
X273484397Y-245411128D02*
X273484397Y-243911128D01*
X274127255Y-245411128D02*
X274127255Y-244625414D01*
X274127255Y-244625414D02*
X274055826Y-244482557D01*
X274055826Y-244482557D02*
X273912969Y-244411128D01*
X273912969Y-244411128D02*
X273698683Y-244411128D01*
X273698683Y-244411128D02*
X273555826Y-244482557D01*
X273555826Y-244482557D02*
X273484397Y-244553985D01*
X275412969Y-245339700D02*
X275270112Y-245411128D01*
X275270112Y-245411128D02*
X274984398Y-245411128D01*
X274984398Y-245411128D02*
X274841540Y-245339700D01*
X274841540Y-245339700D02*
X274770112Y-245196842D01*
X274770112Y-245196842D02*
X274770112Y-244625414D01*
X274770112Y-244625414D02*
X274841540Y-244482557D01*
X274841540Y-244482557D02*
X274984398Y-244411128D01*
X274984398Y-244411128D02*
X275270112Y-244411128D01*
X275270112Y-244411128D02*
X275412969Y-244482557D01*
X275412969Y-244482557D02*
X275484398Y-244625414D01*
X275484398Y-244625414D02*
X275484398Y-244768271D01*
X275484398Y-244768271D02*
X274770112Y-244911128D01*
X276341540Y-245411128D02*
X276198683Y-245339700D01*
X276198683Y-245339700D02*
X276127254Y-245196842D01*
X276127254Y-245196842D02*
X276127254Y-243911128D01*
X277127254Y-245411128D02*
X276984397Y-245339700D01*
X276984397Y-245339700D02*
X276912968Y-245196842D01*
X276912968Y-245196842D02*
X276912968Y-243911128D01*
X278270111Y-245339700D02*
X278127254Y-245411128D01*
X278127254Y-245411128D02*
X277841540Y-245411128D01*
X277841540Y-245411128D02*
X277698682Y-245339700D01*
X277698682Y-245339700D02*
X277627254Y-245196842D01*
X277627254Y-245196842D02*
X277627254Y-244625414D01*
X277627254Y-244625414D02*
X277698682Y-244482557D01*
X277698682Y-244482557D02*
X277841540Y-244411128D01*
X277841540Y-244411128D02*
X278127254Y-244411128D01*
X278127254Y-244411128D02*
X278270111Y-244482557D01*
X278270111Y-244482557D02*
X278341540Y-244625414D01*
X278341540Y-244625414D02*
X278341540Y-244768271D01*
X278341540Y-244768271D02*
X277627254Y-244911128D01*
X278984396Y-244411128D02*
X278984396Y-245411128D01*
X278984396Y-244553985D02*
X279055825Y-244482557D01*
X279055825Y-244482557D02*
X279198682Y-244411128D01*
X279198682Y-244411128D02*
X279412968Y-244411128D01*
X279412968Y-244411128D02*
X279555825Y-244482557D01*
X279555825Y-244482557D02*
X279627254Y-244625414D01*
X279627254Y-244625414D02*
X279627254Y-245411128D01*
X281127254Y-245411128D02*
X280270111Y-245411128D01*
X280698682Y-245411128D02*
X280698682Y-243911128D01*
X280698682Y-243911128D02*
X280555825Y-244125414D01*
X280555825Y-244125414D02*
X280412968Y-244268271D01*
X280412968Y-244268271D02*
X280270111Y-244339700D01*
X281698682Y-244053985D02*
X281770110Y-243982557D01*
X281770110Y-243982557D02*
X281912968Y-243911128D01*
X281912968Y-243911128D02*
X282270110Y-243911128D01*
X282270110Y-243911128D02*
X282412968Y-243982557D01*
X282412968Y-243982557D02*
X282484396Y-244053985D01*
X282484396Y-244053985D02*
X282555825Y-244196842D01*
X282555825Y-244196842D02*
X282555825Y-244339700D01*
X282555825Y-244339700D02*
X282484396Y-244553985D01*
X282484396Y-244553985D02*
X281627253Y-245411128D01*
X281627253Y-245411128D02*
X282555825Y-245411128D01*
X283984396Y-245411128D02*
X283127253Y-245411128D01*
X283555824Y-245411128D02*
X283555824Y-243911128D01*
X283555824Y-243911128D02*
X283412967Y-244125414D01*
X283412967Y-244125414D02*
X283270110Y-244268271D01*
X283270110Y-244268271D02*
X283127253Y-244339700D01*
X284484395Y-244411128D02*
X284841538Y-245411128D01*
X284841538Y-245411128D02*
X285198681Y-244411128D01*
X286412967Y-245411128D02*
X286412967Y-244625414D01*
X286412967Y-244625414D02*
X286341538Y-244482557D01*
X286341538Y-244482557D02*
X286198681Y-244411128D01*
X286198681Y-244411128D02*
X285912967Y-244411128D01*
X285912967Y-244411128D02*
X285770109Y-244482557D01*
X286412967Y-245339700D02*
X286270109Y-245411128D01*
X286270109Y-245411128D02*
X285912967Y-245411128D01*
X285912967Y-245411128D02*
X285770109Y-245339700D01*
X285770109Y-245339700D02*
X285698681Y-245196842D01*
X285698681Y-245196842D02*
X285698681Y-245053985D01*
X285698681Y-245053985D02*
X285770109Y-244911128D01*
X285770109Y-244911128D02*
X285912967Y-244839700D01*
X285912967Y-244839700D02*
X286270109Y-244839700D01*
X286270109Y-244839700D02*
X286412967Y-244768271D01*
X287770110Y-244411128D02*
X287770110Y-245625414D01*
X287770110Y-245625414D02*
X287698681Y-245768271D01*
X287698681Y-245768271D02*
X287627252Y-245839700D01*
X287627252Y-245839700D02*
X287484395Y-245911128D01*
X287484395Y-245911128D02*
X287270110Y-245911128D01*
X287270110Y-245911128D02*
X287127252Y-245839700D01*
X287770110Y-245339700D02*
X287627252Y-245411128D01*
X287627252Y-245411128D02*
X287341538Y-245411128D01*
X287341538Y-245411128D02*
X287198681Y-245339700D01*
X287198681Y-245339700D02*
X287127252Y-245268271D01*
X287127252Y-245268271D02*
X287055824Y-245125414D01*
X287055824Y-245125414D02*
X287055824Y-244696842D01*
X287055824Y-244696842D02*
X287127252Y-244553985D01*
X287127252Y-244553985D02*
X287198681Y-244482557D01*
X287198681Y-244482557D02*
X287341538Y-244411128D01*
X287341538Y-244411128D02*
X287627252Y-244411128D01*
X287627252Y-244411128D02*
X287770110Y-244482557D01*
X288484395Y-245268271D02*
X288555824Y-245339700D01*
X288555824Y-245339700D02*
X288484395Y-245411128D01*
X288484395Y-245411128D02*
X288412967Y-245339700D01*
X288412967Y-245339700D02*
X288484395Y-245268271D01*
X288484395Y-245268271D02*
X288484395Y-245411128D01*
X289198681Y-245411128D02*
X289198681Y-243911128D01*
X289341539Y-244839700D02*
X289770110Y-245411128D01*
X289770110Y-244411128D02*
X289198681Y-244982557D01*
X290412967Y-245411128D02*
X290412967Y-244411128D01*
X290412967Y-243911128D02*
X290341539Y-243982557D01*
X290341539Y-243982557D02*
X290412967Y-244053985D01*
X290412967Y-244053985D02*
X290484396Y-243982557D01*
X290484396Y-243982557D02*
X290412967Y-243911128D01*
X290412967Y-243911128D02*
X290412967Y-244053985D01*
X291770111Y-245339700D02*
X291627253Y-245411128D01*
X291627253Y-245411128D02*
X291341539Y-245411128D01*
X291341539Y-245411128D02*
X291198682Y-245339700D01*
X291198682Y-245339700D02*
X291127253Y-245268271D01*
X291127253Y-245268271D02*
X291055825Y-245125414D01*
X291055825Y-245125414D02*
X291055825Y-244696842D01*
X291055825Y-244696842D02*
X291127253Y-244553985D01*
X291127253Y-244553985D02*
X291198682Y-244482557D01*
X291198682Y-244482557D02*
X291341539Y-244411128D01*
X291341539Y-244411128D02*
X291627253Y-244411128D01*
X291627253Y-244411128D02*
X291770111Y-244482557D01*
X293055825Y-245411128D02*
X293055825Y-244625414D01*
X293055825Y-244625414D02*
X292984396Y-244482557D01*
X292984396Y-244482557D02*
X292841539Y-244411128D01*
X292841539Y-244411128D02*
X292555825Y-244411128D01*
X292555825Y-244411128D02*
X292412967Y-244482557D01*
X293055825Y-245339700D02*
X292912967Y-245411128D01*
X292912967Y-245411128D02*
X292555825Y-245411128D01*
X292555825Y-245411128D02*
X292412967Y-245339700D01*
X292412967Y-245339700D02*
X292341539Y-245196842D01*
X292341539Y-245196842D02*
X292341539Y-245053985D01*
X292341539Y-245053985D02*
X292412967Y-244911128D01*
X292412967Y-244911128D02*
X292555825Y-244839700D01*
X292555825Y-244839700D02*
X292912967Y-244839700D01*
X292912967Y-244839700D02*
X293055825Y-244768271D01*
X294412968Y-245411128D02*
X294412968Y-243911128D01*
X294412968Y-245339700D02*
X294270110Y-245411128D01*
X294270110Y-245411128D02*
X293984396Y-245411128D01*
X293984396Y-245411128D02*
X293841539Y-245339700D01*
X293841539Y-245339700D02*
X293770110Y-245268271D01*
X293770110Y-245268271D02*
X293698682Y-245125414D01*
X293698682Y-245125414D02*
X293698682Y-244696842D01*
X293698682Y-244696842D02*
X293770110Y-244553985D01*
X293770110Y-244553985D02*
X293841539Y-244482557D01*
X293841539Y-244482557D02*
X293984396Y-244411128D01*
X293984396Y-244411128D02*
X294270110Y-244411128D01*
X294270110Y-244411128D02*
X294412968Y-244482557D01*
X294770111Y-245553985D02*
X295912968Y-245553985D01*
X296270110Y-244411128D02*
X296270110Y-245911128D01*
X296270110Y-244482557D02*
X296412968Y-244411128D01*
X296412968Y-244411128D02*
X296698682Y-244411128D01*
X296698682Y-244411128D02*
X296841539Y-244482557D01*
X296841539Y-244482557D02*
X296912968Y-244553985D01*
X296912968Y-244553985D02*
X296984396Y-244696842D01*
X296984396Y-244696842D02*
X296984396Y-245125414D01*
X296984396Y-245125414D02*
X296912968Y-245268271D01*
X296912968Y-245268271D02*
X296841539Y-245339700D01*
X296841539Y-245339700D02*
X296698682Y-245411128D01*
X296698682Y-245411128D02*
X296412968Y-245411128D01*
X296412968Y-245411128D02*
X296270110Y-245339700D01*
X298270111Y-245339700D02*
X298127253Y-245411128D01*
X298127253Y-245411128D02*
X297841539Y-245411128D01*
X297841539Y-245411128D02*
X297698682Y-245339700D01*
X297698682Y-245339700D02*
X297627253Y-245268271D01*
X297627253Y-245268271D02*
X297555825Y-245125414D01*
X297555825Y-245125414D02*
X297555825Y-244696842D01*
X297555825Y-244696842D02*
X297627253Y-244553985D01*
X297627253Y-244553985D02*
X297698682Y-244482557D01*
X297698682Y-244482557D02*
X297841539Y-244411128D01*
X297841539Y-244411128D02*
X298127253Y-244411128D01*
X298127253Y-244411128D02*
X298270111Y-244482557D01*
X298912967Y-245411128D02*
X298912967Y-243911128D01*
X298912967Y-244482557D02*
X299055825Y-244411128D01*
X299055825Y-244411128D02*
X299341539Y-244411128D01*
X299341539Y-244411128D02*
X299484396Y-244482557D01*
X299484396Y-244482557D02*
X299555825Y-244553985D01*
X299555825Y-244553985D02*
X299627253Y-244696842D01*
X299627253Y-244696842D02*
X299627253Y-245125414D01*
X299627253Y-245125414D02*
X299555825Y-245268271D01*
X299555825Y-245268271D02*
X299484396Y-245339700D01*
X299484396Y-245339700D02*
X299341539Y-245411128D01*
X299341539Y-245411128D02*
X299055825Y-245411128D01*
X299055825Y-245411128D02*
X298912967Y-245339700D01*
D10*
D11*
X266100000Y-240525000D02*
X374100000Y-240525000D01*
D10*
D11*
X267484398Y-242639700D02*
X267698684Y-242711128D01*
X267698684Y-242711128D02*
X268055826Y-242711128D01*
X268055826Y-242711128D02*
X268198684Y-242639700D01*
X268198684Y-242639700D02*
X268270112Y-242568271D01*
X268270112Y-242568271D02*
X268341541Y-242425414D01*
X268341541Y-242425414D02*
X268341541Y-242282557D01*
X268341541Y-242282557D02*
X268270112Y-242139700D01*
X268270112Y-242139700D02*
X268198684Y-242068271D01*
X268198684Y-242068271D02*
X268055826Y-241996842D01*
X268055826Y-241996842D02*
X267770112Y-241925414D01*
X267770112Y-241925414D02*
X267627255Y-241853985D01*
X267627255Y-241853985D02*
X267555826Y-241782557D01*
X267555826Y-241782557D02*
X267484398Y-241639700D01*
X267484398Y-241639700D02*
X267484398Y-241496842D01*
X267484398Y-241496842D02*
X267555826Y-241353985D01*
X267555826Y-241353985D02*
X267627255Y-241282557D01*
X267627255Y-241282557D02*
X267770112Y-241211128D01*
X267770112Y-241211128D02*
X268127255Y-241211128D01*
X268127255Y-241211128D02*
X268341541Y-241282557D01*
X268984397Y-242711128D02*
X268984397Y-241211128D01*
X269627255Y-242711128D02*
X269627255Y-241925414D01*
X269627255Y-241925414D02*
X269555826Y-241782557D01*
X269555826Y-241782557D02*
X269412969Y-241711128D01*
X269412969Y-241711128D02*
X269198683Y-241711128D01*
X269198683Y-241711128D02*
X269055826Y-241782557D01*
X269055826Y-241782557D02*
X268984397Y-241853985D01*
X270912969Y-242639700D02*
X270770112Y-242711128D01*
X270770112Y-242711128D02*
X270484398Y-242711128D01*
X270484398Y-242711128D02*
X270341540Y-242639700D01*
X270341540Y-242639700D02*
X270270112Y-242496842D01*
X270270112Y-242496842D02*
X270270112Y-241925414D01*
X270270112Y-241925414D02*
X270341540Y-241782557D01*
X270341540Y-241782557D02*
X270484398Y-241711128D01*
X270484398Y-241711128D02*
X270770112Y-241711128D01*
X270770112Y-241711128D02*
X270912969Y-241782557D01*
X270912969Y-241782557D02*
X270984398Y-241925414D01*
X270984398Y-241925414D02*
X270984398Y-242068271D01*
X270984398Y-242068271D02*
X270270112Y-242211128D01*
X272198683Y-242639700D02*
X272055826Y-242711128D01*
X272055826Y-242711128D02*
X271770112Y-242711128D01*
X271770112Y-242711128D02*
X271627254Y-242639700D01*
X271627254Y-242639700D02*
X271555826Y-242496842D01*
X271555826Y-242496842D02*
X271555826Y-241925414D01*
X271555826Y-241925414D02*
X271627254Y-241782557D01*
X271627254Y-241782557D02*
X271770112Y-241711128D01*
X271770112Y-241711128D02*
X272055826Y-241711128D01*
X272055826Y-241711128D02*
X272198683Y-241782557D01*
X272198683Y-241782557D02*
X272270112Y-241925414D01*
X272270112Y-241925414D02*
X272270112Y-242068271D01*
X272270112Y-242068271D02*
X271555826Y-242211128D01*
X272698683Y-241711128D02*
X273270111Y-241711128D01*
X272912968Y-241211128D02*
X272912968Y-242496842D01*
X272912968Y-242496842D02*
X272984397Y-242639700D01*
X272984397Y-242639700D02*
X273127254Y-242711128D01*
X273127254Y-242711128D02*
X273270111Y-242711128D01*
X273770111Y-242568271D02*
X273841540Y-242639700D01*
X273841540Y-242639700D02*
X273770111Y-242711128D01*
X273770111Y-242711128D02*
X273698683Y-242639700D01*
X273698683Y-242639700D02*
X273770111Y-242568271D01*
X273770111Y-242568271D02*
X273770111Y-242711128D01*
X273770111Y-241782557D02*
X273841540Y-241853985D01*
X273841540Y-241853985D02*
X273770111Y-241925414D01*
X273770111Y-241925414D02*
X273698683Y-241853985D01*
X273698683Y-241853985D02*
X273770111Y-241782557D01*
X273770111Y-241782557D02*
X273770111Y-241925414D01*
D10*
D12*
X268297368Y-239703328D02*
X268297368Y-238917614D01*
X268297368Y-238917614D02*
X268225939Y-238774757D01*
X268225939Y-238774757D02*
X268083082Y-238703328D01*
X268083082Y-238703328D02*
X267797368Y-238703328D01*
X267797368Y-238703328D02*
X267654510Y-238774757D01*
X268297368Y-239631900D02*
X268154510Y-239703328D01*
X268154510Y-239703328D02*
X267797368Y-239703328D01*
X267797368Y-239703328D02*
X267654510Y-239631900D01*
X267654510Y-239631900D02*
X267583082Y-239489042D01*
X267583082Y-239489042D02*
X267583082Y-239346185D01*
X267583082Y-239346185D02*
X267654510Y-239203328D01*
X267654510Y-239203328D02*
X267797368Y-239131900D01*
X267797368Y-239131900D02*
X268154510Y-239131900D01*
X268154510Y-239131900D02*
X268297368Y-239060471D01*
X269011653Y-238703328D02*
X269011653Y-239703328D01*
X269011653Y-238846185D02*
X269083082Y-238774757D01*
X269083082Y-238774757D02*
X269225939Y-238703328D01*
X269225939Y-238703328D02*
X269440225Y-238703328D01*
X269440225Y-238703328D02*
X269583082Y-238774757D01*
X269583082Y-238774757D02*
X269654511Y-238917614D01*
X269654511Y-238917614D02*
X269654511Y-239703328D01*
X271011654Y-239703328D02*
X271011654Y-238203328D01*
X271011654Y-239631900D02*
X270868796Y-239703328D01*
X270868796Y-239703328D02*
X270583082Y-239703328D01*
X270583082Y-239703328D02*
X270440225Y-239631900D01*
X270440225Y-239631900D02*
X270368796Y-239560471D01*
X270368796Y-239560471D02*
X270297368Y-239417614D01*
X270297368Y-239417614D02*
X270297368Y-238989042D01*
X270297368Y-238989042D02*
X270368796Y-238846185D01*
X270368796Y-238846185D02*
X270440225Y-238774757D01*
X270440225Y-238774757D02*
X270583082Y-238703328D01*
X270583082Y-238703328D02*
X270868796Y-238703328D01*
X270868796Y-238703328D02*
X271011654Y-238774757D01*
X271725939Y-239703328D02*
X271725939Y-238703328D01*
X271725939Y-238989042D02*
X271797368Y-238846185D01*
X271797368Y-238846185D02*
X271868797Y-238774757D01*
X271868797Y-238774757D02*
X272011654Y-238703328D01*
X272011654Y-238703328D02*
X272154511Y-238703328D01*
X273225939Y-239631900D02*
X273083082Y-239703328D01*
X273083082Y-239703328D02*
X272797368Y-239703328D01*
X272797368Y-239703328D02*
X272654510Y-239631900D01*
X272654510Y-239631900D02*
X272583082Y-239489042D01*
X272583082Y-239489042D02*
X272583082Y-238917614D01*
X272583082Y-238917614D02*
X272654510Y-238774757D01*
X272654510Y-238774757D02*
X272797368Y-238703328D01*
X272797368Y-238703328D02*
X273083082Y-238703328D01*
X273083082Y-238703328D02*
X273225939Y-238774757D01*
X273225939Y-238774757D02*
X273297368Y-238917614D01*
X273297368Y-238917614D02*
X273297368Y-239060471D01*
X273297368Y-239060471D02*
X272583082Y-239203328D01*
X273940224Y-239703328D02*
X273940224Y-238703328D01*
X273940224Y-238203328D02*
X273868796Y-238274757D01*
X273868796Y-238274757D02*
X273940224Y-238346185D01*
X273940224Y-238346185D02*
X274011653Y-238274757D01*
X274011653Y-238274757D02*
X273940224Y-238203328D01*
X273940224Y-238203328D02*
X273940224Y-238346185D01*
X274654510Y-239703328D02*
X274654510Y-238203328D01*
X274797368Y-239131900D02*
X275225939Y-239703328D01*
X275225939Y-238703328D02*
X274654510Y-239274757D01*
X276511654Y-239703328D02*
X276511654Y-238917614D01*
X276511654Y-238917614D02*
X276440225Y-238774757D01*
X276440225Y-238774757D02*
X276297368Y-238703328D01*
X276297368Y-238703328D02*
X276011654Y-238703328D01*
X276011654Y-238703328D02*
X275868796Y-238774757D01*
X276511654Y-239631900D02*
X276368796Y-239703328D01*
X276368796Y-239703328D02*
X276011654Y-239703328D01*
X276011654Y-239703328D02*
X275868796Y-239631900D01*
X275868796Y-239631900D02*
X275797368Y-239489042D01*
X275797368Y-239489042D02*
X275797368Y-239346185D01*
X275797368Y-239346185D02*
X275868796Y-239203328D01*
X275868796Y-239203328D02*
X276011654Y-239131900D01*
X276011654Y-239131900D02*
X276368796Y-239131900D01*
X276368796Y-239131900D02*
X276511654Y-239060471D01*
X279297368Y-238989042D02*
X279225939Y-238917614D01*
X279225939Y-238917614D02*
X279083082Y-238846185D01*
X279083082Y-238846185D02*
X278940225Y-238846185D01*
X278940225Y-238846185D02*
X278797368Y-238917614D01*
X278797368Y-238917614D02*
X278725939Y-238989042D01*
X278725939Y-238989042D02*
X278654511Y-239131900D01*
X278654511Y-239131900D02*
X278654511Y-239274757D01*
X278654511Y-239274757D02*
X278725939Y-239417614D01*
X278725939Y-239417614D02*
X278797368Y-239489042D01*
X278797368Y-239489042D02*
X278940225Y-239560471D01*
X278940225Y-239560471D02*
X279083082Y-239560471D01*
X279083082Y-239560471D02*
X279225939Y-239489042D01*
X279225939Y-239489042D02*
X279297368Y-239417614D01*
X279297368Y-238846185D02*
X279297368Y-239417614D01*
X279297368Y-239417614D02*
X279368796Y-239489042D01*
X279368796Y-239489042D02*
X279440225Y-239489042D01*
X279440225Y-239489042D02*
X279583082Y-239417614D01*
X279583082Y-239417614D02*
X279654511Y-239274757D01*
X279654511Y-239274757D02*
X279654511Y-238917614D01*
X279654511Y-238917614D02*
X279511654Y-238703328D01*
X279511654Y-238703328D02*
X279297368Y-238560471D01*
X279297368Y-238560471D02*
X279011654Y-238489042D01*
X279011654Y-238489042D02*
X278725939Y-238560471D01*
X278725939Y-238560471D02*
X278511654Y-238703328D01*
X278511654Y-238703328D02*
X278368796Y-238917614D01*
X278368796Y-238917614D02*
X278297368Y-239203328D01*
X278297368Y-239203328D02*
X278368796Y-239489042D01*
X278368796Y-239489042D02*
X278511654Y-239703328D01*
X278511654Y-239703328D02*
X278725939Y-239846185D01*
X278725939Y-239846185D02*
X279011654Y-239917614D01*
X279011654Y-239917614D02*
X279297368Y-239846185D01*
X279297368Y-239846185D02*
X279511654Y-239703328D01*
X281440224Y-239703328D02*
X281440224Y-238703328D01*
X281440224Y-238989042D02*
X281511653Y-238846185D01*
X281511653Y-238846185D02*
X281583082Y-238774757D01*
X281583082Y-238774757D02*
X281725939Y-238703328D01*
X281725939Y-238703328D02*
X281868796Y-238703328D01*
X283011653Y-238703328D02*
X283011653Y-239703328D01*
X282368795Y-238703328D02*
X282368795Y-239489042D01*
X282368795Y-239489042D02*
X282440224Y-239631900D01*
X282440224Y-239631900D02*
X282583081Y-239703328D01*
X282583081Y-239703328D02*
X282797367Y-239703328D01*
X282797367Y-239703328D02*
X282940224Y-239631900D01*
X282940224Y-239631900D02*
X283011653Y-239560471D01*
X283654510Y-239631900D02*
X283797367Y-239703328D01*
X283797367Y-239703328D02*
X284083081Y-239703328D01*
X284083081Y-239703328D02*
X284225938Y-239631900D01*
X284225938Y-239631900D02*
X284297367Y-239489042D01*
X284297367Y-239489042D02*
X284297367Y-239417614D01*
X284297367Y-239417614D02*
X284225938Y-239274757D01*
X284225938Y-239274757D02*
X284083081Y-239203328D01*
X284083081Y-239203328D02*
X283868796Y-239203328D01*
X283868796Y-239203328D02*
X283725938Y-239131900D01*
X283725938Y-239131900D02*
X283654510Y-238989042D01*
X283654510Y-238989042D02*
X283654510Y-238917614D01*
X283654510Y-238917614D02*
X283725938Y-238774757D01*
X283725938Y-238774757D02*
X283868796Y-238703328D01*
X283868796Y-238703328D02*
X284083081Y-238703328D01*
X284083081Y-238703328D02*
X284225938Y-238774757D01*
X284940224Y-238917614D02*
X285440224Y-238917614D01*
X285654510Y-239703328D02*
X284940224Y-239703328D01*
X284940224Y-239703328D02*
X284940224Y-238203328D01*
X284940224Y-238203328D02*
X285654510Y-238203328D01*
X286797367Y-238917614D02*
X286297367Y-238917614D01*
X286297367Y-239703328D02*
X286297367Y-238203328D01*
X286297367Y-238203328D02*
X287011653Y-238203328D01*
X287583081Y-239703328D02*
X287583081Y-238203328D01*
X288297367Y-239560471D02*
X288368796Y-239631900D01*
X288368796Y-239631900D02*
X288297367Y-239703328D01*
X288297367Y-239703328D02*
X288225939Y-239631900D01*
X288225939Y-239631900D02*
X288297367Y-239560471D01*
X288297367Y-239560471D02*
X288297367Y-239703328D01*
X289654511Y-239631900D02*
X289511653Y-239703328D01*
X289511653Y-239703328D02*
X289225939Y-239703328D01*
X289225939Y-239703328D02*
X289083082Y-239631900D01*
X289083082Y-239631900D02*
X289011653Y-239560471D01*
X289011653Y-239560471D02*
X288940225Y-239417614D01*
X288940225Y-239417614D02*
X288940225Y-238989042D01*
X288940225Y-238989042D02*
X289011653Y-238846185D01*
X289011653Y-238846185D02*
X289083082Y-238774757D01*
X289083082Y-238774757D02*
X289225939Y-238703328D01*
X289225939Y-238703328D02*
X289511653Y-238703328D01*
X289511653Y-238703328D02*
X289654511Y-238774757D01*
X290511653Y-239703328D02*
X290368796Y-239631900D01*
X290368796Y-239631900D02*
X290297367Y-239560471D01*
X290297367Y-239560471D02*
X290225939Y-239417614D01*
X290225939Y-239417614D02*
X290225939Y-238989042D01*
X290225939Y-238989042D02*
X290297367Y-238846185D01*
X290297367Y-238846185D02*
X290368796Y-238774757D01*
X290368796Y-238774757D02*
X290511653Y-238703328D01*
X290511653Y-238703328D02*
X290725939Y-238703328D01*
X290725939Y-238703328D02*
X290868796Y-238774757D01*
X290868796Y-238774757D02*
X290940225Y-238846185D01*
X290940225Y-238846185D02*
X291011653Y-238989042D01*
X291011653Y-238989042D02*
X291011653Y-239417614D01*
X291011653Y-239417614D02*
X290940225Y-239560471D01*
X290940225Y-239560471D02*
X290868796Y-239631900D01*
X290868796Y-239631900D02*
X290725939Y-239703328D01*
X290725939Y-239703328D02*
X290511653Y-239703328D01*
X291654510Y-239703328D02*
X291654510Y-238703328D01*
X291654510Y-238846185D02*
X291725939Y-238774757D01*
X291725939Y-238774757D02*
X291868796Y-238703328D01*
X291868796Y-238703328D02*
X292083082Y-238703328D01*
X292083082Y-238703328D02*
X292225939Y-238774757D01*
X292225939Y-238774757D02*
X292297368Y-238917614D01*
X292297368Y-238917614D02*
X292297368Y-239703328D01*
X292297368Y-238917614D02*
X292368796Y-238774757D01*
X292368796Y-238774757D02*
X292511653Y-238703328D01*
X292511653Y-238703328D02*
X292725939Y-238703328D01*
X292725939Y-238703328D02*
X292868796Y-238774757D01*
X292868796Y-238774757D02*
X292940225Y-238917614D01*
X292940225Y-238917614D02*
X292940225Y-239703328D01*
D10*
D11*
X286100000Y-250525000D02*
X286100000Y-253525000D01*
D10*
D11*
X350100000Y-250525000D02*
X350100000Y-257025000D01*
D14*
G04 #@! TO.N,/VBAT*
G04 #@! TO.C,M1*
X111975002Y69275003D03*
G04 #@! TO.N,unconnected-(M1-V12-PadE2)*
X111975002Y75675000D03*
G04 #@! TO.N,/VIGN*
X111975002Y77575003D03*
G04 #@! TO.N,+5V*
X111975002Y81875003D03*
D15*
G04 #@! TO.N,/PWR_EN*
X111525003Y84275000D03*
G04 #@! TO.N,Net-(M1-PG_5VP)*
X111525003Y85275001D03*
D16*
G04 #@! TO.N,PIN114*
X128124998Y73125003D03*
D17*
X128124998Y81625001D03*
D18*
X128124998Y88725003D03*
D19*
X119725000Y88775003D03*
D20*
X118924999Y68175003D03*
D14*
X111975002Y88125003D03*
D18*
X111325001Y68225003D03*
D21*
X111325001Y72425001D03*
D22*
X111325001Y79775003D03*
D23*
X111325001Y83275000D03*
D24*
X111325001Y86575001D03*
D14*
G04 #@! TO.N,PIN116*
X127474999Y68825001D03*
G04 #@! TO.N,/IN_VIGN*
X127474999Y70675000D03*
G04 #@! TO.N,PIN117*
X127474999Y75625003D03*
G04 #@! TO.N,PIN106*
X127474999Y87675001D03*
G04 #@! TD*
D15*
G04 #@! TO.N,+5VA*
G04 #@! TO.C,M2*
X52700000Y43849999D03*
D25*
G04 #@! TO.N,PIN114*
X43800000Y41874999D03*
D26*
X48350000Y44449999D03*
X48350000Y41349999D03*
D15*
X52700000Y42899999D03*
G04 #@! TO.N,/IN_KNOCK*
X52700000Y41950001D03*
G04 #@! TO.N,PIN81*
X44000000Y42949999D03*
G04 #@! TO.N,/VREF1*
X44000000Y43849999D03*
G04 #@! TD*
G04 #@! TO.N,unconnected-(M4-NC-PadE1)*
G04 #@! TO.C,M4*
X56925000Y55912500D03*
G04 #@! TO.N,unconnected-(M4-NC-PadE2)*
X58125000Y55912500D03*
G04 #@! TO.N,/VR_MAX9924*
X55725000Y55912500D03*
G04 #@! TO.N,+5VA*
X54525000Y55912500D03*
D27*
G04 #@! TO.N,PIN114*
X57192500Y41262500D03*
D28*
X63242500Y41262500D03*
D29*
X54225000Y48275000D03*
D30*
X63675000Y48687500D03*
D31*
X61212500Y56112500D03*
D15*
G04 #@! TO.N,PIN20*
X60985000Y41487500D03*
G04 #@! TO.N,PIN19*
X61985000Y41487500D03*
G04 #@! TD*
D32*
G04 #@! TO.N,PIN120*
G04 #@! TO.C,F2*
X128725000Y41825000D03*
G04 #@! TO.N,PIN117*
X128725000Y46725000D03*
G04 #@! TD*
G04 #@! TO.N,Net-(M1-PG_5VP)*
G04 #@! TO.C,R4*
X109225000Y89820001D03*
G04 #@! TO.N,/PG_5VP*
X109225000Y93630001D03*
G04 #@! TD*
G04 #@! TO.N,PIN120*
G04 #@! TO.C,F3*
X43775000Y65775000D03*
G04 #@! TO.N,Net-(F3-Pad2)*
X48675000Y65775000D03*
G04 #@! TD*
G04 #@! TO.N,PIN108*
G04 #@! TO.C,F1*
X131225000Y41825000D03*
G04 #@! TO.N,/IN_VIGN*
X131225000Y46725000D03*
G04 #@! TD*
G04 #@! TO.N,/VBUS*
G04 #@! TO.C,J21*
G04 #@! TA.AperFunction,ComponentPad*
G36*
G01*
X127575000Y103100000D02*
X127575000Y101750000D01*
G75*
G02*
X127325000Y101500000I-250000J0D01*
G01*
X126125000Y101500000D01*
G75*
G02*
X125875000Y101750000I0J250000D01*
G01*
X125875000Y103100000D01*
G75*
G02*
X126125000Y103350000I250000J0D01*
G01*
X127325000Y103350000D01*
G75*
G02*
X127575000Y103100000I0J-250000D01*
G01*
G37*
G04 #@! TD.AperFunction*
D33*
G04 #@! TO.N,/USB-*
X124225000Y102425000D03*
G04 #@! TO.N,/USB+*
X121725000Y102425000D03*
G04 #@! TO.N,PIN114*
X119225000Y102425000D03*
X116725000Y102425000D03*
G04 #@! TD*
D34*
G04 #@! TO.N,PIN114*
G04 #@! TO.C,M8*
X43050000Y60450000D03*
D35*
X40950000Y59950000D03*
D36*
X50750000Y55550000D03*
X40950000Y53350000D03*
D37*
X50750000Y48750000D03*
D38*
X40950000Y47650000D03*
D39*
X45850000Y46850000D03*
D15*
G04 #@! TO.N,unconnected-(M8-MOSI-PadN1)*
X50550000Y59450000D03*
D40*
G04 #@! TO.N,Net-(F3-Pad2)*
X50350000Y51450000D03*
X41350000Y58650000D03*
G04 #@! TO.N,PIN2*
X41350000Y57450000D03*
G04 #@! TO.N,PIN1*
X41350000Y49250000D03*
D15*
G04 #@! TO.N,DC1_DIS_W1*
X50550000Y60250000D03*
G04 #@! TO.N,/DC1_PWM*
X49750000Y60250000D03*
G04 #@! TO.N,unconnected-(M8-SCLK-PadW3)*
X48950000Y60250000D03*
G04 #@! TO.N,/DC1_DIR*
X48150000Y60250000D03*
G04 #@! TO.N,+3.3V*
X47350000Y60250000D03*
G04 #@! TO.N,unconnected-(M8-MISO-PadW6)*
X46550000Y60250000D03*
G04 #@! TO.N,unconnected-(M8-~CS-PadW7)*
X45750000Y60250000D03*
G04 #@! TD*
G04 #@! TO.N,/VR_DISCRETE_THR*
G04 #@! TO.C,M3*
X67100000Y56100000D03*
G04 #@! TO.N,/VR_DISCRETE_A*
X68300000Y56100000D03*
G04 #@! TO.N,/VR_DISCRETE*
X65900000Y56100000D03*
G04 #@! TO.N,+5VA*
X64700000Y56100000D03*
D27*
G04 #@! TO.N,PIN114*
X67367500Y41450000D03*
D28*
X73417500Y41450000D03*
D29*
X64400000Y48462500D03*
D30*
X73850000Y48875000D03*
D31*
X71387500Y56300000D03*
D15*
G04 #@! TO.N,PIN18*
X71160000Y41675000D03*
G04 #@! TO.N,PIN17*
X72160000Y41675000D03*
G04 #@! TD*
D41*
G04 #@! TO.N,PIN105*
G04 #@! TO.C,M5*
X26950000Y41350000D03*
G04 #@! TO.N,PIN104*
X29950000Y41350000D03*
G04 #@! TO.N,PIN103*
X28950000Y41350000D03*
G04 #@! TO.N,PIN102*
X27950000Y41350000D03*
D42*
G04 #@! TO.N,PIN114*
X38800000Y68325000D03*
X38800000Y68325000D03*
D43*
X34460000Y68325000D03*
D44*
X28500000Y68325000D03*
D45*
X39225000Y54650000D03*
X25475000Y54650000D03*
D46*
X34975000Y40975000D03*
D47*
X25825000Y40975000D03*
D41*
G04 #@! TO.N,+5VA*
X36600000Y67941200D03*
G04 #@! TO.N,unconnected-(M5-CAN_VIO-PadW2)*
X35600000Y67941200D03*
G04 #@! TO.N,PIN83*
X32304000Y67941200D03*
G04 #@! TO.N,PIN82*
X33320000Y67941200D03*
G04 #@! TO.N,unconnected-(M5-VDDA-PadW9)*
X37600000Y67941200D03*
G04 #@! TD*
D48*
G04 #@! TO.N,/VBUS*
G04 #@! TO.C,J22*
X109350000Y102025000D03*
D49*
G04 #@! TO.N,/USB-*
X111100000Y101225000D03*
G04 #@! TO.N,/USB+*
X109350000Y100425000D03*
G04 #@! TO.N,unconnected-(J22-ID-Pad4)*
X111100000Y99625000D03*
G04 #@! TO.N,PIN114*
X109350000Y98825000D03*
D50*
X110225000Y104075000D03*
X110225000Y96775000D03*
G04 #@! TD*
D51*
G04 #@! TO.N,+5VA*
G04 #@! TO.C,M7*
X118587501Y95818338D03*
G04 #@! TO.N,+3.3VA*
X119462503Y95293338D03*
G04 #@! TO.N,E7INJ8CANTX*
X118287499Y94543340D03*
G04 #@! TO.N,E6INJ7CANRX*
X118362502Y90993339D03*
G04 #@! TD*
D52*
G04 #@! TO.N,*
G04 #@! TO.C,P1*
X17073000Y3892000D03*
D53*
X19523000Y11692000D03*
D52*
X91573000Y3892000D03*
D53*
X141323000Y11692000D03*
D52*
X143773000Y3892000D03*
D54*
G04 #@! TO.N,PIN1*
X24173000Y8892000D03*
G04 #@! TO.N,PIN2*
X29973000Y8892000D03*
G04 #@! TO.N,PIN114*
X27073000Y11222000D03*
G04 #@! TO.N,PIN4*
X24173000Y17022000D03*
G04 #@! TO.N,PIN5*
X29973000Y17022000D03*
D14*
G04 #@! TO.N,PIN6*
X83593000Y17022000D03*
G04 #@! TO.N,PIN7*
X81053000Y17022000D03*
G04 #@! TO.N,PIN8*
X78513000Y17022000D03*
G04 #@! TO.N,PIN9*
X75973000Y17022000D03*
G04 #@! TO.N,PIN10*
X73433000Y17022000D03*
G04 #@! TO.N,PIN11*
X70893000Y17022000D03*
G04 #@! TO.N,PIN12*
X68353000Y17022000D03*
G04 #@! TO.N,PIN13*
X65813000Y17022000D03*
G04 #@! TO.N,PIN14*
X63273000Y17022000D03*
G04 #@! TO.N,PIN15*
X60733000Y17022000D03*
G04 #@! TO.N,PIN16*
X58193000Y17022000D03*
G04 #@! TO.N,PIN17*
X55653000Y17022000D03*
G04 #@! TO.N,PIN18*
X53113000Y17022000D03*
G04 #@! TO.N,PIN19*
X50573000Y17022000D03*
G04 #@! TO.N,PIN20*
X48033000Y17022000D03*
G04 #@! TO.N,PIN21*
X45493000Y17022000D03*
G04 #@! TO.N,PIN22*
X42953000Y17022000D03*
G04 #@! TO.N,PIN120*
X40413000Y17022000D03*
X37873000Y17022000D03*
G04 #@! TO.N,PIN25*
X83593000Y14482000D03*
G04 #@! TO.N,PIN26*
X81053000Y14482000D03*
G04 #@! TO.N,PIN27*
X78513000Y14482000D03*
G04 #@! TO.N,PIN28*
X75973000Y14482000D03*
G04 #@! TO.N,PIN29*
X73433000Y14482000D03*
G04 #@! TO.N,PIN30*
X70893000Y14482000D03*
G04 #@! TO.N,PIN31*
X68353000Y14482000D03*
G04 #@! TO.N,PIN32*
X65813000Y14482000D03*
G04 #@! TO.N,PIN33*
X63273000Y14482000D03*
G04 #@! TO.N,PIN34*
X60733000Y14482000D03*
G04 #@! TO.N,PIN35*
X58193000Y14482000D03*
G04 #@! TO.N,PIN36*
X55653000Y14482000D03*
G04 #@! TO.N,PIN37*
X53113000Y14482000D03*
G04 #@! TO.N,PIN38*
X50573000Y14482000D03*
G04 #@! TO.N,PIN39*
X48033000Y14482000D03*
G04 #@! TO.N,PIN40*
X45493000Y14482000D03*
G04 #@! TO.N,PIN41*
X42953000Y14482000D03*
G04 #@! TO.N,PIN42*
X40413000Y14482000D03*
G04 #@! TO.N,PIN43*
X37873000Y14482000D03*
G04 #@! TO.N,PIN44*
X83593000Y8432000D03*
G04 #@! TO.N,PIN45*
X81053000Y8432000D03*
G04 #@! TO.N,PIN46*
X78513000Y8432000D03*
G04 #@! TO.N,PIN47*
X75973000Y8432000D03*
G04 #@! TO.N,PIN48*
X73433000Y8432000D03*
G04 #@! TO.N,PIN49*
X70893000Y8432000D03*
G04 #@! TO.N,PIN50*
X68353000Y8432000D03*
G04 #@! TO.N,PIN51*
X65813000Y8432000D03*
G04 #@! TO.N,PIN113*
X63273000Y8432000D03*
X60733000Y8432000D03*
X58193000Y8432000D03*
X55653000Y8432000D03*
X53113000Y8432000D03*
X50573000Y8432000D03*
X48033000Y8432000D03*
X45493000Y8432000D03*
X42953000Y8432000D03*
X40413000Y8432000D03*
X37873000Y8432000D03*
G04 #@! TO.N,PIN63*
X83593000Y5892000D03*
G04 #@! TO.N,PIN113*
X81053000Y5892000D03*
G04 #@! TO.N,PIN65*
X78513000Y5892000D03*
G04 #@! TO.N,PIN113*
X75973000Y5892000D03*
G04 #@! TO.N,PIN67*
X73433000Y5892000D03*
G04 #@! TO.N,PIN113*
X70893000Y5892000D03*
G04 #@! TO.N,PIN69*
X68353000Y5892000D03*
G04 #@! TO.N,PIN70*
X65813000Y5892000D03*
G04 #@! TO.N,PIN106*
X63273000Y5892000D03*
X60733000Y5892000D03*
X58193000Y5892000D03*
X55653000Y5892000D03*
X53113000Y5892000D03*
X50573000Y5892000D03*
X48033000Y5892000D03*
X45493000Y5892000D03*
X42953000Y5892000D03*
X40413000Y5892000D03*
G04 #@! TO.N,PIN81*
X37873000Y5892000D03*
G04 #@! TO.N,PIN82*
X99563000Y5892000D03*
G04 #@! TO.N,PIN83*
X102103000Y5892000D03*
G04 #@! TO.N,PIN84*
X104643000Y5892000D03*
G04 #@! TO.N,PIN85*
X107183000Y5892000D03*
G04 #@! TO.N,PIN86*
X109723000Y5892000D03*
G04 #@! TO.N,PIN87*
X112263000Y5892000D03*
G04 #@! TO.N,PIN88*
X114803000Y5892000D03*
G04 #@! TO.N,PIN89*
X117343000Y5892000D03*
G04 #@! TO.N,PIN90*
X99563000Y8432000D03*
G04 #@! TO.N,PIN91*
X102103000Y8432000D03*
G04 #@! TO.N,PIN92*
X104643000Y8432000D03*
G04 #@! TO.N,PIN93*
X107183000Y8432000D03*
G04 #@! TO.N,PIN94*
X109723000Y8432000D03*
G04 #@! TO.N,PIN95*
X112263000Y8432000D03*
G04 #@! TO.N,PIN96*
X114803000Y8432000D03*
G04 #@! TO.N,PIN97*
X117343000Y8432000D03*
G04 #@! TO.N,PIN113*
X99563000Y14482000D03*
X102103000Y14482000D03*
G04 #@! TO.N,PIN100*
X104643000Y14482000D03*
G04 #@! TO.N,PIN101*
X107183000Y14482000D03*
G04 #@! TO.N,PIN102*
X109723000Y14482000D03*
G04 #@! TO.N,PIN103*
X112263000Y14482000D03*
G04 #@! TO.N,PIN104*
X114803000Y14482000D03*
G04 #@! TO.N,PIN105*
X117343000Y14482000D03*
G04 #@! TO.N,PIN106*
X99563000Y17022000D03*
X102103000Y17022000D03*
G04 #@! TO.N,PIN108*
X104643000Y17022000D03*
G04 #@! TO.N,PIN109*
X107183000Y17022000D03*
G04 #@! TO.N,PIN110*
X109723000Y17022000D03*
G04 #@! TO.N,PIN111*
X112263000Y17022000D03*
G04 #@! TO.N,PIN112*
X114803000Y17022000D03*
G04 #@! TO.N,PIN113*
X117343000Y17022000D03*
D54*
G04 #@! TO.N,PIN114*
X125173000Y8892000D03*
X130973000Y8892000D03*
G04 #@! TO.N,PIN116*
X136873000Y8892000D03*
G04 #@! TO.N,PIN117*
X128073000Y11222000D03*
G04 #@! TO.N,PIN118*
X133973000Y11222000D03*
G04 #@! TO.N,PIN119*
X125173000Y17022000D03*
G04 #@! TO.N,PIN120*
X130973000Y17022000D03*
G04 #@! TO.N,PIN121*
X136873000Y17022000D03*
G04 #@! TD*
D15*
G04 #@! TO.N,+5VA*
G04 #@! TO.C,M6*
X106049995Y75699995D03*
G04 #@! TO.N,unconnected-(M6-GNDA-PadE2)*
X106050005Y79999995D03*
G04 #@! TO.N,unconnected-(M6-I2C_SCL_(PB10)-PadE3)*
X106050005Y80799985D03*
G04 #@! TO.N,unconnected-(M6-I2C_SDA_(PB11)-PadE4)*
X106050005Y81599995D03*
G04 #@! TO.N,/VIGN*
X106050005Y82399995D03*
G04 #@! TO.N,E6INJ7CANRX*
X106050005Y83199995D03*
G04 #@! TO.N,E7INJ8CANTX*
X106050005Y83999995D03*
G04 #@! TO.N,DC1_DIS_W1*
X106050005Y84799995D03*
G04 #@! TO.N,/DC2_DIR*
X106050005Y85599995D03*
G04 #@! TO.N,/LS2*
X106050005Y86399995D03*
G04 #@! TO.N,/LS1*
X106050005Y87199995D03*
G04 #@! TO.N,/INJ6*
X106050005Y87999995D03*
G04 #@! TO.N,/INJ5*
X106050005Y88799995D03*
G04 #@! TO.N,/INJ4*
X106050005Y89599995D03*
G04 #@! TO.N,/INJ3*
X106050005Y90399995D03*
G04 #@! TO.N,/INJ2*
X106049995Y91199985D03*
G04 #@! TO.N,/INJ1*
X106050005Y91999995D03*
G04 #@! TO.N,/LS3*
X106050005Y93399995D03*
G04 #@! TO.N,/LS4*
X106050005Y94199985D03*
G04 #@! TO.N,/DC1_PWM*
X106050005Y94999985D03*
G04 #@! TO.N,/DC1_DIR*
X106050005Y95799985D03*
G04 #@! TO.N,/DC2_PWM*
X106050005Y96599985D03*
G04 #@! TO.N,/VR_DISCRETE_THR*
X106050005Y97399995D03*
D55*
G04 #@! TO.N,PIN114*
X72449995Y102249985D03*
D56*
X72449995Y99199995D03*
D55*
X72449995Y96149985D03*
D57*
X72449995Y91699995D03*
D58*
X72449995Y78049995D03*
D59*
X72449995Y70049995D03*
D60*
X74250005Y68999985D03*
D61*
X76349995Y104799985D03*
D62*
X82399995Y104799985D03*
D63*
X85899995Y104799985D03*
D60*
X95649995Y104799985D03*
D61*
X103149995Y68999985D03*
D64*
X106250005Y101400005D03*
D56*
X106250005Y92699985D03*
D65*
X106250005Y77849985D03*
D66*
X106250005Y72049985D03*
D15*
G04 #@! TO.N,/VBUS*
X105650005Y104599995D03*
G04 #@! TO.N,/USB-*
X104850005Y104599995D03*
G04 #@! TO.N,/USB+*
X104050005Y104599995D03*
G04 #@! TO.N,/DC2_DIS*
X103249995Y104599995D03*
G04 #@! TO.N,unconnected-(M6-SWDIO_(PA13)-PadN5)*
X102450005Y104599995D03*
G04 #@! TO.N,unconnected-(M6-SWCLK_(PA14)-PadN6)*
X101650005Y104599995D03*
G04 #@! TO.N,unconnected-(M6-nReset-PadN7)*
X100850005Y104599995D03*
G04 #@! TO.N,unconnected-(M6-SWO_(PB3)-PadN8)*
X100049995Y104599995D03*
G04 #@! TO.N,/EGT/SPI_CS*
X99250005Y104599985D03*
G04 #@! TO.N,/SCK3*
X98450005Y104599985D03*
G04 #@! TO.N,/MISO3*
X97650005Y104599985D03*
G04 #@! TO.N,/PG_5VP*
X96850005Y104599985D03*
G04 #@! TO.N,PIN7*
X94449995Y104599985D03*
G04 #@! TO.N,PIN6*
X93649995Y104599985D03*
G04 #@! TO.N,Net-(M6-LED_GREEN)*
X92850005Y104599995D03*
G04 #@! TO.N,unconnected-(M6-LED_YELLOW-PadN14b)*
X92049995Y104599995D03*
G04 #@! TO.N,+3.3VA*
X91249995Y104599995D03*
G04 #@! TO.N,unconnected-(M6-BOOT0-PadN16)*
X90449995Y104599995D03*
G04 #@! TO.N,/VBAT*
X89649995Y104599995D03*
G04 #@! TO.N,/VR_DISCRETE*
X88849995Y104599985D03*
G04 #@! TO.N,/VR_MAX9924*
X88049995Y104599985D03*
G04 #@! TO.N,/PWR_EN*
X83749995Y104599985D03*
G04 #@! TO.N,+3.3V*
X81049995Y104599985D03*
G04 #@! TO.N,+5V*
X80050005Y104599985D03*
G04 #@! TO.N,unconnected-(M6-V33-PadN23)*
X72649995Y104599985D03*
G04 #@! TO.N,PIN89*
X99450015Y69199985D03*
G04 #@! TO.N,PIN34*
X98250005Y69199985D03*
G04 #@! TO.N,PIN35*
X97050005Y69199985D03*
G04 #@! TO.N,PIN36*
X95850005Y69199985D03*
G04 #@! TO.N,unconnected-(M6-VREF2-PadS5)*
X94650005Y69199985D03*
G04 #@! TO.N,/IN_VMAIN*
X93450005Y69199985D03*
G04 #@! TO.N,/IN_AUX3*
X92250005Y69199985D03*
G04 #@! TO.N,PIN91*
X91050005Y69199985D03*
G04 #@! TO.N,PIN39*
X89850005Y69199985D03*
G04 #@! TO.N,PIN41*
X88650005Y69199985D03*
G04 #@! TO.N,PIN40*
X87450005Y69199985D03*
G04 #@! TO.N,/INTERNAL_MAP*
X86250005Y69199985D03*
G04 #@! TO.N,PIN37*
X85050005Y69199985D03*
G04 #@! TO.N,PIN84*
X83850005Y69199985D03*
G04 #@! TO.N,/ADC3*
X82650005Y69199985D03*
G04 #@! TO.N,PIN85*
X81450005Y69199985D03*
G04 #@! TO.N,PIN42*
X80250005Y69199985D03*
G04 #@! TO.N,PIN38*
X79049995Y69199985D03*
G04 #@! TO.N,PIN90*
X77849995Y69199985D03*
G04 #@! TO.N,PIN63*
X76649995Y69199985D03*
G04 #@! TO.N,PIN65*
X75449995Y69199985D03*
G04 #@! TO.N,/VREF1*
X73049995Y69199985D03*
G04 #@! TO.N,PIN113*
X72649995Y71699995D03*
G04 #@! TO.N,+5VA*
X72649995Y72699995D03*
G04 #@! TO.N,/LS_HOT2*
X72649995Y83399985D03*
G04 #@! TO.N,/LS_HOT1*
X72649995Y84399995D03*
G04 #@! TO.N,/IGN6*
X72649995Y85399985D03*
G04 #@! TO.N,/IGN5*
X72649995Y86399985D03*
G04 #@! TO.N,/IGN4*
X72649995Y87399985D03*
G04 #@! TO.N,/IGN3*
X72649995Y88399985D03*
G04 #@! TO.N,/IGN2*
X72649995Y89399985D03*
G04 #@! TO.N,/IGN1*
X72649995Y90399985D03*
G04 #@! TO.N,PIN82*
X72649995Y92999985D03*
G04 #@! TO.N,PIN83*
X72649995Y93799985D03*
G04 #@! TO.N,unconnected-(M6-V33_REF-PadW13)*
X72649995Y98499995D03*
G04 #@! TO.N,unconnected-(M6-V5A_SWITCHABLE-PadW14)*
X72649995Y99899985D03*
G04 #@! TD*
D67*
G04 #@! TO.N,PIN113*
X1025000Y29150000D03*
X1025000Y19750000D03*
X1025000Y84125000D03*
X1025000Y70550000D03*
X1025000Y95000000D03*
X112825000Y113350000D03*
X1175000Y12925000D03*
X102300000Y113400000D03*
X159325000Y30625000D03*
X1025000Y39175000D03*
X159325000Y40650000D03*
X25250000Y113375000D03*
X69375000Y113375000D03*
X47300000Y113375000D03*
X146450000Y113400000D03*
X159325000Y85600000D03*
X159325000Y51175000D03*
X159325000Y13250000D03*
X159325000Y96475000D03*
X159325000Y61075000D03*
X14375000Y113375000D03*
X59100000Y113375000D03*
X1025000Y49700000D03*
X159325000Y21225000D03*
X80250000Y113400000D03*
X134900000Y113350000D03*
X90875000Y113400000D03*
X1025000Y59600000D03*
X35875000Y113375000D03*
X159325000Y72025000D03*
G04 #@! TD*
M02*
