M48
; DRILL file {KiCad 8.0.8} date 2025-12-10T17:25:43-0500
; FORMAT={-:-/ absolute / inch / decimal}
; #@! TF.CreationDate,2025-12-10T17:25:43-05:00
; #@! TF.GenerationSoftware,Kicad,Pcbnew,8.0.8
; #@! TF.FileFunction,Plated,1,4,PTH
FMAT,2
INCH
; #@! TA.AperFunction,Plated,PTH,ComponentDrill
T1C0.0118
; #@! TA.AperFunction,Plated,PTH,ComponentDrill
T2C0.0118
; #@! TA.AperFunction,Plated,PTH,ComponentDrill
T3C0.0276
; #@! TA.AperFunction,Plated,PTH,ComponentDrill
T4C0.0320
; #@! TA.AperFunction,Plated,PTH,ComponentDrill
T5C0.0335
; #@! TA.AperFunction,Plated,PTH,ViaDrill
T6C0.0394
; #@! TA.AperFunction,Plated,PTH,ComponentDrill
T7C0.0394
; #@! TA.AperFunction,Plated,PTH,ComponentDrill
T8C0.0433
; #@! TA.AperFunction,Plated,PTH,ComponentDrill
T9C0.0866
; #@! TA.AperFunction,Plated,PTH,ComponentDrill
T10C0.1457
%
G90
G05
T1
X1.6757Y0.8605
X1.7101Y0.8398
X1.719Y1.0298
X1.7219Y0.89
T2
X1.9882Y1.2943
X1.9882Y1.2549
X2.2037Y1.4626
X2.2037Y1.4311
X2.2037Y1.3996
X2.2037Y1.3681
X2.2037Y1.3366
X2.2037Y1.3051
X2.2037Y1.2736
X2.2037Y1.2421
X2.2037Y1.2106
X2.2037Y1.1791
X2.2037Y1.1476
X2.2037Y1.1161
X2.2037Y1.0846
X2.2037Y1.0531
X2.2037Y0.9902
X2.2037Y0.935
X2.2037Y0.9035
X2.2037Y0.872
X2.2037Y0.8406
X2.2037Y0.8091
X2.2037Y0.7776
X2.2037Y1.6319
X2.2037Y1.0217
X2.2195Y0.4941
X2.251Y0.4941
X2.2825Y0.4941
X2.314Y0.4941
X2.3455Y0.4941
X2.377Y0.4941
X2.4085Y0.4941
X2.44Y0.4941
X2.4636Y1.8878
X2.4715Y0.4941
X2.503Y0.4941
X2.5108Y1.8878
X2.5344Y0.4941
X2.5581Y1.8878
X2.5659Y0.4941
X2.6053Y1.8878
X2.6526Y1.8878
X2.6604Y0.4941
X2.6919Y0.4941
X2.6998Y1.8878
X2.7234Y0.4941
X2.747Y1.8878
X2.7549Y0.4941
X2.7864Y0.4941
X2.7943Y1.8878
X2.8179Y0.4941
X2.8415Y1.8878
X2.8494Y0.4941
X2.8809Y0.4941
X2.8888Y1.8878
X2.9124Y0.4941
X2.936Y1.8878
X2.9833Y1.8878
X3.0305Y1.8878
X3.0778Y1.8878
X3.0817Y0.4941
X3.125Y1.8878
X3.1722Y1.8878
X3.188Y0.4941
X3.2195Y1.8878
X3.2274Y0.4941
X3.2667Y1.8878
X3.314Y1.8878
X3.3612Y1.8878
X3.4085Y1.8878
X3.503Y1.8878
X3.5187Y1.7894
X3.5187Y1.75
X3.5187Y1.3287
X3.5187Y1.2894
X3.5187Y1.25
X3.5187Y1.2106
X3.5187Y1.1713
X3.5187Y1.1319
X3.5187Y1.0925
X3.5187Y1.0532
X3.5187Y0.9508
X3.5187Y0.9193
X3.5187Y0.7343
X3.5187Y0.6791
X3.5187Y0.4941
X3.538Y2.9715
X3.5774Y2.9715
X3.69Y2.4035
X3.7372Y2.4035
X3.7844Y2.4035
X3.8317Y2.4035
X3.9386Y2.9788
X3.978Y2.9788
X4.0906Y2.4109
X4.1378Y2.4109
X4.185Y2.4109
X4.2323Y2.4109
X4.3041Y2.9606
X4.3041Y2.9232
X4.3041Y2.8858
X4.3888Y2.2717
X4.3888Y2.2402
X4.4203Y2.2402
X4.4518Y2.2402
X4.4833Y2.2402
X4.5148Y2.2402
X4.5463Y2.2402
X4.5778Y2.2402
X4.6467Y2.9213
X4.6467Y2.8858
X4.8986Y1.9374
X4.938Y1.9374
X4.9774Y1.9374
X5.0671Y1.9374
X5.1071Y1.9374
X5.1998Y2.9843
X5.2392Y2.9843
X5.2785Y2.9843
X5.3179Y2.9843
T3
X2.0049Y0.69
X2.0049Y0.627
X2.0738Y0.7215
X2.0738Y0.6585
X2.0738Y0.5955
X4.3967Y2.5866
X4.751Y2.6732
X4.751Y2.3504
X4.751Y2.3031
T4
X1.2126Y2.9656
X1.2126Y2.7726
X1.311Y2.9656
X1.311Y2.7726
X2.0787Y1.076
X2.0787Y0.926
X4.4626Y2.0226
X4.6555Y2.0226
T5
X1.3898Y0.5797
X1.4882Y0.5797
X1.5866Y0.5797
X1.685Y0.5797
X1.7835Y0.5797
T6
X0.1063Y4.0906
X0.1063Y3.7766
X0.1063Y3.4065
X0.1063Y3.0118
X0.1063Y2.5974
X0.1063Y2.2077
X0.1063Y1.7766
X0.1063Y1.2421
X0.1063Y0.814
X0.6132Y0.1476
X1.0679Y0.1496
X1.937Y0.1496
X2.3514Y0.1476
X2.8012Y0.1476
X3.2195Y0.1476
X3.6476Y0.1486
X4.0522Y0.1486
X4.5167Y0.1486
X4.9665Y0.1486
X5.3848Y0.1486
X5.813Y0.1486
X6.3327Y4.1033
X6.3386Y3.8346
X6.3386Y3.4646
X6.3386Y3.0699
X6.3386Y2.6555
X6.3386Y2.2657
X6.3386Y1.8346
X6.3386Y1.3002
X6.3386Y0.872
T7
X1.3602Y1.9026
X1.3602Y1.8297
X1.3602Y1.6348
X1.3602Y1.1604
X1.9705Y1.8848
X1.9705Y1.6329
X1.9705Y1.5581
X1.9705Y1.3888
X1.9705Y1.1427
T8
X1.7591Y4.3802
X1.7591Y4.2802
X1.7591Y4.042
X1.7591Y3.942
X1.8591Y4.3802
X1.8591Y4.2802
X1.8591Y4.042
X1.8591Y3.942
X1.9591Y4.3802
X1.9591Y4.2802
X1.9591Y4.042
X1.9591Y3.942
X2.0591Y4.3802
X2.0591Y4.2802
X2.0591Y4.042
X2.0591Y3.942
X2.1591Y4.3802
X2.1591Y4.2802
X2.1591Y4.042
X2.1591Y3.942
X2.2591Y4.3802
X2.2591Y4.2802
X2.2591Y4.042
X2.2591Y3.942
X2.3591Y4.3802
X2.3591Y4.2802
X2.3591Y4.042
X2.3591Y3.942
X2.4591Y4.3802
X2.4591Y4.2802
X2.4591Y4.042
X2.4591Y3.942
X3.0879Y4.3802
X3.0879Y4.2802
X3.0879Y4.042
X3.0879Y3.942
X3.1879Y4.3802
X3.1879Y4.2802
X3.1879Y4.042
X3.1879Y3.942
X3.2879Y4.3802
X3.2879Y4.2802
X3.2879Y4.042
X3.2879Y3.942
X3.3879Y4.3802
X3.3879Y4.2802
X3.3879Y4.042
X3.3879Y3.942
X3.4879Y4.3802
X3.4879Y4.2802
X3.4879Y4.042
X3.4879Y3.942
X3.5879Y4.3802
X3.5879Y4.2802
X3.5879Y4.042
X3.5879Y3.942
X3.6879Y4.3802
X3.6879Y4.2802
X3.6879Y4.042
X3.6879Y3.942
X3.7879Y4.3802
X3.7879Y4.2802
X3.7879Y4.042
X3.7879Y3.942
X3.8879Y4.3802
X3.8879Y4.2802
X3.8879Y4.042
X3.8879Y3.942
X3.9879Y4.3802
X3.9879Y4.2802
X3.9879Y4.042
X3.9879Y3.942
X4.0879Y4.3802
X4.0879Y4.2802
X4.0879Y4.042
X4.0879Y3.942
X4.1879Y4.3802
X4.1879Y4.2802
X4.1879Y4.042
X4.1879Y3.942
X4.2879Y4.3802
X4.2879Y4.2802
X4.2879Y4.042
X4.2879Y3.942
X4.3879Y4.3802
X4.3879Y4.2802
X4.3879Y4.042
X4.3879Y3.942
X4.4879Y4.3802
X4.4879Y4.2802
X4.4879Y4.042
X4.4879Y3.942
X4.5879Y4.3802
X4.5879Y4.2802
X4.5879Y4.042
X4.5879Y3.942
X4.6879Y4.3802
X4.6879Y4.2802
X4.6879Y4.042
X4.6879Y3.942
X4.7879Y4.3802
X4.7879Y4.2802
X4.7879Y4.042
X4.7879Y3.942
X4.8879Y4.3802
X4.8879Y4.2802
X4.8879Y4.042
X4.8879Y3.942
T9
X0.815Y4.1519
X0.9902Y4.2621
X0.9902Y3.942
X1.1044Y4.1704
X1.2225Y4.2621
X1.2225Y3.942
X1.3367Y4.1704
X1.4509Y4.2621
X1.4509Y3.942
X5.1989Y4.2621
X5.1989Y3.942
X5.3131Y4.1704
X5.4272Y4.2621
X5.4272Y3.942
X5.6103Y4.1519
T10
X0.7186Y4.459
X2.7737Y4.459
X5.7068Y4.459
T3
G00X2.0138Y0.8022
M15
G01X2.065Y0.8022
M16
G05
G00X2.0138Y0.5148
M15
G01X2.065Y0.5148
M16
G05
M30
