G04 #@! TF.GenerationSoftware,KiCad,Pcbnew,8.0.8*
G04 #@! TF.CreationDate,2025-12-16T22:25:05-05:00*
G04 #@! TF.ProjectId,hellen121vag,68656c6c-656e-4313-9231-7661672e6b69,d*
G04 #@! TF.SameCoordinates,Original*
G04 #@! TF.FileFunction,Soldermask,Bot*
G04 #@! TF.FilePolarity,Negative*
%FSLAX46Y46*%
G04 Gerber Fmt 4.6, Leading zero omitted, Abs format (unit mm)*
G04 Created by KiCad (PCBNEW 8.0.8) date 2025-12-16 22:25:05*
%MOMM*%
%LPD*%
G01*
G04 APERTURE LIST*
%ADD10C,1.500000*%
%ADD11C,0.600000*%
%ADD12C,1.524000*%
%ADD13O,1.700000X1.850000*%
%ADD14R,1.100000X1.100000*%
%ADD15C,1.100000*%
%ADD16O,2.400000X1.100000*%
%ADD17C,0.599999*%
%ADD18C,3.700000*%
%ADD19C,2.200000*%
%ADD20C,2.600000*%
G04 APERTURE END LIST*
D10*
G04 #@! TO.C,M1*
X95749998Y-62500003D03*
X95749998Y-68900000D03*
X95749998Y-70800003D03*
X95749998Y-75100003D03*
D11*
X96199997Y-77500000D03*
X96199997Y-78500001D03*
D10*
X95749998Y-81350003D03*
X80250001Y-62050001D03*
X80250001Y-63900000D03*
X80250001Y-68850003D03*
X80250001Y-80900001D03*
G04 #@! TD*
D11*
G04 #@! TO.C,M2*
X155025000Y-37074999D03*
X155025000Y-36124999D03*
X155025000Y-35175001D03*
X163725000Y-36174999D03*
X163725000Y-37074999D03*
G04 #@! TD*
G04 #@! TO.C,M4*
X150800000Y-49137500D03*
X149600000Y-49137500D03*
X152000000Y-49137500D03*
X153200000Y-49137500D03*
X146740000Y-34712500D03*
X145740000Y-34712500D03*
G04 #@! TD*
D12*
G04 #@! TO.C,F2*
X79000000Y-35050000D03*
X79000000Y-39950000D03*
G04 #@! TD*
G04 #@! TO.C,R4*
X98500000Y-83045001D03*
X98500000Y-86855001D03*
G04 #@! TD*
G04 #@! TO.C,F3*
X163950000Y-59000000D03*
X159050000Y-59000000D03*
G04 #@! TD*
G04 #@! TO.C,F1*
X76500000Y-35050000D03*
X76500000Y-39950000D03*
G04 #@! TD*
G04 #@! TO.C,J21*
G36*
G01*
X80150000Y-96325000D02*
X80150000Y-94975000D01*
G75*
G02*
X80400000Y-94725000I250000J0D01*
G01*
X81600000Y-94725000D01*
G75*
G02*
X81850000Y-94975000I0J-250000D01*
G01*
X81850000Y-96325000D01*
G75*
G02*
X81600000Y-96575000I-250000J0D01*
G01*
X80400000Y-96575000D01*
G75*
G02*
X80150000Y-96325000I0J250000D01*
G01*
G37*
D13*
X83500000Y-95650000D03*
X86000000Y-95650000D03*
X88500000Y-95650000D03*
X91000000Y-95650000D03*
G04 #@! TD*
D11*
G04 #@! TO.C,M3*
X140625000Y-49325000D03*
X139425000Y-49325000D03*
X141825000Y-49325000D03*
X143025000Y-49325000D03*
X136565000Y-34900000D03*
X135565000Y-34900000D03*
G04 #@! TD*
D14*
G04 #@! TO.C,J22*
X98375000Y-95250000D03*
D15*
X96625000Y-94450000D03*
X98375000Y-93650000D03*
X96625000Y-92850000D03*
X98375000Y-92050000D03*
D16*
X97500000Y-97300000D03*
X97500000Y-90000000D03*
G04 #@! TD*
D17*
G04 #@! TO.C,M7*
X89137499Y-89043338D03*
X88262497Y-88518338D03*
X89437501Y-87768340D03*
X89362498Y-84218339D03*
G04 #@! TD*
G04 #@! TO.C,R17*
G36*
G01*
X128850000Y-44390000D02*
X128850000Y-43610000D01*
G75*
G02*
X128920000Y-43540000I70000J0D01*
G01*
X129480000Y-43540000D01*
G75*
G02*
X129550000Y-43610000I0J-70000D01*
G01*
X129550000Y-44390000D01*
G75*
G02*
X129480000Y-44460000I-70000J0D01*
G01*
X128920000Y-44460000D01*
G75*
G02*
X128850000Y-44390000I0J70000D01*
G01*
G37*
G36*
G01*
X130450000Y-44390000D02*
X130450000Y-43610000D01*
G75*
G02*
X130520000Y-43540000I70000J0D01*
G01*
X131080000Y-43540000D01*
G75*
G02*
X131150000Y-43610000I0J-70000D01*
G01*
X131150000Y-44390000D01*
G75*
G02*
X131080000Y-44460000I-70000J0D01*
G01*
X130520000Y-44460000D01*
G75*
G02*
X130450000Y-44390000I0J70000D01*
G01*
G37*
G04 #@! TD*
G04 #@! TO.C,R38*
G36*
G01*
X126390000Y-54650000D02*
X125610000Y-54650000D01*
G75*
G02*
X125540000Y-54580000I0J70000D01*
G01*
X125540000Y-54020000D01*
G75*
G02*
X125610000Y-53950000I70000J0D01*
G01*
X126390000Y-53950000D01*
G75*
G02*
X126460000Y-54020000I0J-70000D01*
G01*
X126460000Y-54580000D01*
G75*
G02*
X126390000Y-54650000I-70000J0D01*
G01*
G37*
G36*
G01*
X126390000Y-53050000D02*
X125610000Y-53050000D01*
G75*
G02*
X125540000Y-52980000I0J70000D01*
G01*
X125540000Y-52420000D01*
G75*
G02*
X125610000Y-52350000I70000J0D01*
G01*
X126390000Y-52350000D01*
G75*
G02*
X126460000Y-52420000I0J-70000D01*
G01*
X126460000Y-52980000D01*
G75*
G02*
X126390000Y-53050000I-70000J0D01*
G01*
G37*
G04 #@! TD*
G04 #@! TO.C,R37*
G36*
G01*
X129390000Y-54650000D02*
X128610000Y-54650000D01*
G75*
G02*
X128540000Y-54580000I0J70000D01*
G01*
X128540000Y-54020000D01*
G75*
G02*
X128610000Y-53950000I70000J0D01*
G01*
X129390000Y-53950000D01*
G75*
G02*
X129460000Y-54020000I0J-70000D01*
G01*
X129460000Y-54580000D01*
G75*
G02*
X129390000Y-54650000I-70000J0D01*
G01*
G37*
G36*
G01*
X129390000Y-53050000D02*
X128610000Y-53050000D01*
G75*
G02*
X128540000Y-52980000I0J70000D01*
G01*
X128540000Y-52420000D01*
G75*
G02*
X128610000Y-52350000I70000J0D01*
G01*
X129390000Y-52350000D01*
G75*
G02*
X129460000Y-52420000I0J-70000D01*
G01*
X129460000Y-52980000D01*
G75*
G02*
X129390000Y-53050000I-70000J0D01*
G01*
G37*
G04 #@! TD*
G04 #@! TO.C,R52*
G36*
G01*
X67390000Y-87150000D02*
X66610000Y-87150000D01*
G75*
G02*
X66540000Y-87080000I0J70000D01*
G01*
X66540000Y-86520000D01*
G75*
G02*
X66610000Y-86450000I70000J0D01*
G01*
X67390000Y-86450000D01*
G75*
G02*
X67460000Y-86520000I0J-70000D01*
G01*
X67460000Y-87080000D01*
G75*
G02*
X67390000Y-87150000I-70000J0D01*
G01*
G37*
G36*
G01*
X67390000Y-85550000D02*
X66610000Y-85550000D01*
G75*
G02*
X66540000Y-85480000I0J70000D01*
G01*
X66540000Y-84920000D01*
G75*
G02*
X66610000Y-84850000I70000J0D01*
G01*
X67390000Y-84850000D01*
G75*
G02*
X67460000Y-84920000I0J-70000D01*
G01*
X67460000Y-85480000D01*
G75*
G02*
X67390000Y-85550000I-70000J0D01*
G01*
G37*
G04 #@! TD*
G04 #@! TO.C,R40*
G36*
G01*
X68890000Y-87150000D02*
X68110000Y-87150000D01*
G75*
G02*
X68040000Y-87080000I0J70000D01*
G01*
X68040000Y-86520000D01*
G75*
G02*
X68110000Y-86450000I70000J0D01*
G01*
X68890000Y-86450000D01*
G75*
G02*
X68960000Y-86520000I0J-70000D01*
G01*
X68960000Y-87080000D01*
G75*
G02*
X68890000Y-87150000I-70000J0D01*
G01*
G37*
G36*
G01*
X68890000Y-85550000D02*
X68110000Y-85550000D01*
G75*
G02*
X68040000Y-85480000I0J70000D01*
G01*
X68040000Y-84920000D01*
G75*
G02*
X68110000Y-84850000I70000J0D01*
G01*
X68890000Y-84850000D01*
G75*
G02*
X68960000Y-84920000I0J-70000D01*
G01*
X68960000Y-85480000D01*
G75*
G02*
X68890000Y-85550000I-70000J0D01*
G01*
G37*
G04 #@! TD*
G04 #@! TO.C,R39*
G36*
G01*
X132390000Y-54650000D02*
X131610000Y-54650000D01*
G75*
G02*
X131540000Y-54580000I0J70000D01*
G01*
X131540000Y-54020000D01*
G75*
G02*
X131610000Y-53950000I70000J0D01*
G01*
X132390000Y-53950000D01*
G75*
G02*
X132460000Y-54020000I0J-70000D01*
G01*
X132460000Y-54580000D01*
G75*
G02*
X132390000Y-54650000I-70000J0D01*
G01*
G37*
G36*
G01*
X132390000Y-53050000D02*
X131610000Y-53050000D01*
G75*
G02*
X131540000Y-52980000I0J70000D01*
G01*
X131540000Y-52420000D01*
G75*
G02*
X131610000Y-52350000I70000J0D01*
G01*
X132390000Y-52350000D01*
G75*
G02*
X132460000Y-52420000I0J-70000D01*
G01*
X132460000Y-52980000D01*
G75*
G02*
X132390000Y-53050000I-70000J0D01*
G01*
G37*
G04 #@! TD*
G04 #@! TO.C,R25*
G36*
G01*
X87850000Y-44390000D02*
X87850000Y-43610000D01*
G75*
G02*
X87920000Y-43540000I70000J0D01*
G01*
X88480000Y-43540000D01*
G75*
G02*
X88550000Y-43610000I0J-70000D01*
G01*
X88550000Y-44390000D01*
G75*
G02*
X88480000Y-44460000I-70000J0D01*
G01*
X87920000Y-44460000D01*
G75*
G02*
X87850000Y-44390000I0J70000D01*
G01*
G37*
G36*
G01*
X89450000Y-44390000D02*
X89450000Y-43610000D01*
G75*
G02*
X89520000Y-43540000I70000J0D01*
G01*
X90080000Y-43540000D01*
G75*
G02*
X90150000Y-43610000I0J-70000D01*
G01*
X90150000Y-44390000D01*
G75*
G02*
X90080000Y-44460000I-70000J0D01*
G01*
X89520000Y-44460000D01*
G75*
G02*
X89450000Y-44390000I0J70000D01*
G01*
G37*
G04 #@! TD*
G04 #@! TO.C,R29*
G36*
G01*
X105390000Y-54650000D02*
X104610000Y-54650000D01*
G75*
G02*
X104540000Y-54580000I0J70000D01*
G01*
X104540000Y-54020000D01*
G75*
G02*
X104610000Y-53950000I70000J0D01*
G01*
X105390000Y-53950000D01*
G75*
G02*
X105460000Y-54020000I0J-70000D01*
G01*
X105460000Y-54580000D01*
G75*
G02*
X105390000Y-54650000I-70000J0D01*
G01*
G37*
G36*
G01*
X105390000Y-53050000D02*
X104610000Y-53050000D01*
G75*
G02*
X104540000Y-52980000I0J70000D01*
G01*
X104540000Y-52420000D01*
G75*
G02*
X104610000Y-52350000I70000J0D01*
G01*
X105390000Y-52350000D01*
G75*
G02*
X105460000Y-52420000I0J-70000D01*
G01*
X105460000Y-52980000D01*
G75*
G02*
X105390000Y-53050000I-70000J0D01*
G01*
G37*
G04 #@! TD*
G04 #@! TO.C,R33*
G36*
G01*
X114390000Y-54650000D02*
X113610000Y-54650000D01*
G75*
G02*
X113540000Y-54580000I0J70000D01*
G01*
X113540000Y-54020000D01*
G75*
G02*
X113610000Y-53950000I70000J0D01*
G01*
X114390000Y-53950000D01*
G75*
G02*
X114460000Y-54020000I0J-70000D01*
G01*
X114460000Y-54580000D01*
G75*
G02*
X114390000Y-54650000I-70000J0D01*
G01*
G37*
G36*
G01*
X114390000Y-53050000D02*
X113610000Y-53050000D01*
G75*
G02*
X113540000Y-52980000I0J70000D01*
G01*
X113540000Y-52420000D01*
G75*
G02*
X113610000Y-52350000I70000J0D01*
G01*
X114390000Y-52350000D01*
G75*
G02*
X114460000Y-52420000I0J-70000D01*
G01*
X114460000Y-52980000D01*
G75*
G02*
X114390000Y-53050000I-70000J0D01*
G01*
G37*
G04 #@! TD*
G04 #@! TO.C,R35*
G36*
G01*
X102390000Y-54650000D02*
X101610000Y-54650000D01*
G75*
G02*
X101540000Y-54580000I0J70000D01*
G01*
X101540000Y-54020000D01*
G75*
G02*
X101610000Y-53950000I70000J0D01*
G01*
X102390000Y-53950000D01*
G75*
G02*
X102460000Y-54020000I0J-70000D01*
G01*
X102460000Y-54580000D01*
G75*
G02*
X102390000Y-54650000I-70000J0D01*
G01*
G37*
G36*
G01*
X102390000Y-53050000D02*
X101610000Y-53050000D01*
G75*
G02*
X101540000Y-52980000I0J70000D01*
G01*
X101540000Y-52420000D01*
G75*
G02*
X101610000Y-52350000I70000J0D01*
G01*
X102390000Y-52350000D01*
G75*
G02*
X102460000Y-52420000I0J-70000D01*
G01*
X102460000Y-52980000D01*
G75*
G02*
X102390000Y-53050000I-70000J0D01*
G01*
G37*
G04 #@! TD*
G04 #@! TO.C,R31*
G36*
G01*
X117390000Y-54650000D02*
X116610000Y-54650000D01*
G75*
G02*
X116540000Y-54580000I0J70000D01*
G01*
X116540000Y-54020000D01*
G75*
G02*
X116610000Y-53950000I70000J0D01*
G01*
X117390000Y-53950000D01*
G75*
G02*
X117460000Y-54020000I0J-70000D01*
G01*
X117460000Y-54580000D01*
G75*
G02*
X117390000Y-54650000I-70000J0D01*
G01*
G37*
G36*
G01*
X117390000Y-53050000D02*
X116610000Y-53050000D01*
G75*
G02*
X116540000Y-52980000I0J70000D01*
G01*
X116540000Y-52420000D01*
G75*
G02*
X116610000Y-52350000I70000J0D01*
G01*
X117390000Y-52350000D01*
G75*
G02*
X117460000Y-52420000I0J-70000D01*
G01*
X117460000Y-52980000D01*
G75*
G02*
X117390000Y-53050000I-70000J0D01*
G01*
G37*
G04 #@! TD*
G04 #@! TO.C,R30*
G36*
G01*
X111390000Y-54650000D02*
X110610000Y-54650000D01*
G75*
G02*
X110540000Y-54580000I0J70000D01*
G01*
X110540000Y-54020000D01*
G75*
G02*
X110610000Y-53950000I70000J0D01*
G01*
X111390000Y-53950000D01*
G75*
G02*
X111460000Y-54020000I0J-70000D01*
G01*
X111460000Y-54580000D01*
G75*
G02*
X111390000Y-54650000I-70000J0D01*
G01*
G37*
G36*
G01*
X111390000Y-53050000D02*
X110610000Y-53050000D01*
G75*
G02*
X110540000Y-52980000I0J70000D01*
G01*
X110540000Y-52420000D01*
G75*
G02*
X110610000Y-52350000I70000J0D01*
G01*
X111390000Y-52350000D01*
G75*
G02*
X111460000Y-52420000I0J-70000D01*
G01*
X111460000Y-52980000D01*
G75*
G02*
X111390000Y-53050000I-70000J0D01*
G01*
G37*
G04 #@! TD*
G04 #@! TO.C,D1*
G36*
G01*
X121510000Y-51450000D02*
X120490000Y-51450000D01*
G75*
G02*
X120400000Y-51360000I0J90000D01*
G01*
X120400000Y-50640000D01*
G75*
G02*
X120490000Y-50550000I90000J0D01*
G01*
X121510000Y-50550000D01*
G75*
G02*
X121600000Y-50640000I0J-90000D01*
G01*
X121600000Y-51360000D01*
G75*
G02*
X121510000Y-51450000I-90000J0D01*
G01*
G37*
G36*
G01*
X121510000Y-48150000D02*
X120490000Y-48150000D01*
G75*
G02*
X120400000Y-48060000I0J90000D01*
G01*
X120400000Y-47340000D01*
G75*
G02*
X120490000Y-47250000I90000J0D01*
G01*
X121510000Y-47250000D01*
G75*
G02*
X121600000Y-47340000I0J-90000D01*
G01*
X121600000Y-48060000D01*
G75*
G02*
X121510000Y-48150000I-90000J0D01*
G01*
G37*
G04 #@! TD*
G04 #@! TO.C,R14*
G36*
G01*
X100890000Y-54650000D02*
X100110000Y-54650000D01*
G75*
G02*
X100040000Y-54580000I0J70000D01*
G01*
X100040000Y-54020000D01*
G75*
G02*
X100110000Y-53950000I70000J0D01*
G01*
X100890000Y-53950000D01*
G75*
G02*
X100960000Y-54020000I0J-70000D01*
G01*
X100960000Y-54580000D01*
G75*
G02*
X100890000Y-54650000I-70000J0D01*
G01*
G37*
G36*
G01*
X100890000Y-53050000D02*
X100110000Y-53050000D01*
G75*
G02*
X100040000Y-52980000I0J70000D01*
G01*
X100040000Y-52420000D01*
G75*
G02*
X100110000Y-52350000I70000J0D01*
G01*
X100890000Y-52350000D01*
G75*
G02*
X100960000Y-52420000I0J-70000D01*
G01*
X100960000Y-52980000D01*
G75*
G02*
X100890000Y-53050000I-70000J0D01*
G01*
G37*
G04 #@! TD*
G04 #@! TO.C,R43*
G36*
G01*
X130890000Y-54650000D02*
X130110000Y-54650000D01*
G75*
G02*
X130040000Y-54580000I0J70000D01*
G01*
X130040000Y-54020000D01*
G75*
G02*
X130110000Y-53950000I70000J0D01*
G01*
X130890000Y-53950000D01*
G75*
G02*
X130960000Y-54020000I0J-70000D01*
G01*
X130960000Y-54580000D01*
G75*
G02*
X130890000Y-54650000I-70000J0D01*
G01*
G37*
G36*
G01*
X130890000Y-53050000D02*
X130110000Y-53050000D01*
G75*
G02*
X130040000Y-52980000I0J70000D01*
G01*
X130040000Y-52420000D01*
G75*
G02*
X130110000Y-52350000I70000J0D01*
G01*
X130890000Y-52350000D01*
G75*
G02*
X130960000Y-52420000I0J-70000D01*
G01*
X130960000Y-52980000D01*
G75*
G02*
X130890000Y-53050000I-70000J0D01*
G01*
G37*
G04 #@! TD*
G04 #@! TO.C,R19*
G36*
G01*
X112350000Y-44390000D02*
X112350000Y-43610000D01*
G75*
G02*
X112420000Y-43540000I70000J0D01*
G01*
X112980000Y-43540000D01*
G75*
G02*
X113050000Y-43610000I0J-70000D01*
G01*
X113050000Y-44390000D01*
G75*
G02*
X112980000Y-44460000I-70000J0D01*
G01*
X112420000Y-44460000D01*
G75*
G02*
X112350000Y-44390000I0J70000D01*
G01*
G37*
G36*
G01*
X113950000Y-44390000D02*
X113950000Y-43610000D01*
G75*
G02*
X114020000Y-43540000I70000J0D01*
G01*
X114580000Y-43540000D01*
G75*
G02*
X114650000Y-43610000I0J-70000D01*
G01*
X114650000Y-44390000D01*
G75*
G02*
X114580000Y-44460000I-70000J0D01*
G01*
X114020000Y-44460000D01*
G75*
G02*
X113950000Y-44390000I0J70000D01*
G01*
G37*
G04 #@! TD*
G04 #@! TO.C,R51*
G36*
G01*
X118890000Y-54650000D02*
X118110000Y-54650000D01*
G75*
G02*
X118040000Y-54580000I0J70000D01*
G01*
X118040000Y-54020000D01*
G75*
G02*
X118110000Y-53950000I70000J0D01*
G01*
X118890000Y-53950000D01*
G75*
G02*
X118960000Y-54020000I0J-70000D01*
G01*
X118960000Y-54580000D01*
G75*
G02*
X118890000Y-54650000I-70000J0D01*
G01*
G37*
G36*
G01*
X118890000Y-53050000D02*
X118110000Y-53050000D01*
G75*
G02*
X118040000Y-52980000I0J70000D01*
G01*
X118040000Y-52420000D01*
G75*
G02*
X118110000Y-52350000I70000J0D01*
G01*
X118890000Y-52350000D01*
G75*
G02*
X118960000Y-52420000I0J-70000D01*
G01*
X118960000Y-52980000D01*
G75*
G02*
X118890000Y-53050000I-70000J0D01*
G01*
G37*
G04 #@! TD*
G04 #@! TO.C,F10*
G36*
G01*
X90225000Y-45743750D02*
X90225000Y-46256250D01*
G75*
G02*
X90006250Y-46475000I-218750J0D01*
G01*
X89568750Y-46475000D01*
G75*
G02*
X89350000Y-46256250I0J218750D01*
G01*
X89350000Y-45743750D01*
G75*
G02*
X89568750Y-45525000I218750J0D01*
G01*
X90006250Y-45525000D01*
G75*
G02*
X90225000Y-45743750I0J-218750D01*
G01*
G37*
G36*
G01*
X88650000Y-45743750D02*
X88650000Y-46256250D01*
G75*
G02*
X88431250Y-46475000I-218750J0D01*
G01*
X87993750Y-46475000D01*
G75*
G02*
X87775000Y-46256250I0J218750D01*
G01*
X87775000Y-45743750D01*
G75*
G02*
X87993750Y-45525000I218750J0D01*
G01*
X88431250Y-45525000D01*
G75*
G02*
X88650000Y-45743750I0J-218750D01*
G01*
G37*
G04 #@! TD*
G04 #@! TO.C,R50*
G36*
G01*
X115890000Y-54650000D02*
X115110000Y-54650000D01*
G75*
G02*
X115040000Y-54580000I0J70000D01*
G01*
X115040000Y-54020000D01*
G75*
G02*
X115110000Y-53950000I70000J0D01*
G01*
X115890000Y-53950000D01*
G75*
G02*
X115960000Y-54020000I0J-70000D01*
G01*
X115960000Y-54580000D01*
G75*
G02*
X115890000Y-54650000I-70000J0D01*
G01*
G37*
G36*
G01*
X115890000Y-53050000D02*
X115110000Y-53050000D01*
G75*
G02*
X115040000Y-52980000I0J70000D01*
G01*
X115040000Y-52420000D01*
G75*
G02*
X115110000Y-52350000I70000J0D01*
G01*
X115890000Y-52350000D01*
G75*
G02*
X115960000Y-52420000I0J-70000D01*
G01*
X115960000Y-52980000D01*
G75*
G02*
X115890000Y-53050000I-70000J0D01*
G01*
G37*
G04 #@! TD*
G04 #@! TO.C,R48*
G36*
G01*
X109890000Y-54650000D02*
X109110000Y-54650000D01*
G75*
G02*
X109040000Y-54580000I0J70000D01*
G01*
X109040000Y-54020000D01*
G75*
G02*
X109110000Y-53950000I70000J0D01*
G01*
X109890000Y-53950000D01*
G75*
G02*
X109960000Y-54020000I0J-70000D01*
G01*
X109960000Y-54580000D01*
G75*
G02*
X109890000Y-54650000I-70000J0D01*
G01*
G37*
G36*
G01*
X109890000Y-53050000D02*
X109110000Y-53050000D01*
G75*
G02*
X109040000Y-52980000I0J70000D01*
G01*
X109040000Y-52420000D01*
G75*
G02*
X109110000Y-52350000I70000J0D01*
G01*
X109890000Y-52350000D01*
G75*
G02*
X109960000Y-52420000I0J-70000D01*
G01*
X109960000Y-52980000D01*
G75*
G02*
X109890000Y-53050000I-70000J0D01*
G01*
G37*
G04 #@! TD*
G04 #@! TO.C,F6*
G36*
G01*
X122725000Y-45743750D02*
X122725000Y-46256250D01*
G75*
G02*
X122506250Y-46475000I-218750J0D01*
G01*
X122068750Y-46475000D01*
G75*
G02*
X121850000Y-46256250I0J218750D01*
G01*
X121850000Y-45743750D01*
G75*
G02*
X122068750Y-45525000I218750J0D01*
G01*
X122506250Y-45525000D01*
G75*
G02*
X122725000Y-45743750I0J-218750D01*
G01*
G37*
G36*
G01*
X121150000Y-45743750D02*
X121150000Y-46256250D01*
G75*
G02*
X120931250Y-46475000I-218750J0D01*
G01*
X120493750Y-46475000D01*
G75*
G02*
X120275000Y-46256250I0J218750D01*
G01*
X120275000Y-45743750D01*
G75*
G02*
X120493750Y-45525000I218750J0D01*
G01*
X120931250Y-45525000D01*
G75*
G02*
X121150000Y-45743750I0J-218750D01*
G01*
G37*
G04 #@! TD*
G04 #@! TO.C,R44*
G36*
G01*
X121890000Y-54650000D02*
X121110000Y-54650000D01*
G75*
G02*
X121040000Y-54580000I0J70000D01*
G01*
X121040000Y-54020000D01*
G75*
G02*
X121110000Y-53950000I70000J0D01*
G01*
X121890000Y-53950000D01*
G75*
G02*
X121960000Y-54020000I0J-70000D01*
G01*
X121960000Y-54580000D01*
G75*
G02*
X121890000Y-54650000I-70000J0D01*
G01*
G37*
G36*
G01*
X121890000Y-53050000D02*
X121110000Y-53050000D01*
G75*
G02*
X121040000Y-52980000I0J70000D01*
G01*
X121040000Y-52420000D01*
G75*
G02*
X121110000Y-52350000I70000J0D01*
G01*
X121890000Y-52350000D01*
G75*
G02*
X121960000Y-52420000I0J-70000D01*
G01*
X121960000Y-52980000D01*
G75*
G02*
X121890000Y-53050000I-70000J0D01*
G01*
G37*
G04 #@! TD*
G04 #@! TO.C,R27*
G36*
G01*
X98425000Y-42575000D02*
X95575000Y-42575000D01*
G75*
G02*
X95325000Y-42325000I0J250000D01*
G01*
X95325000Y-41600000D01*
G75*
G02*
X95575000Y-41350000I250000J0D01*
G01*
X98425000Y-41350000D01*
G75*
G02*
X98675000Y-41600000I0J-250000D01*
G01*
X98675000Y-42325000D01*
G75*
G02*
X98425000Y-42575000I-250000J0D01*
G01*
G37*
G36*
G01*
X98425000Y-36650000D02*
X95575000Y-36650000D01*
G75*
G02*
X95325000Y-36400000I0J250000D01*
G01*
X95325000Y-35675000D01*
G75*
G02*
X95575000Y-35425000I250000J0D01*
G01*
X98425000Y-35425000D01*
G75*
G02*
X98675000Y-35675000I0J-250000D01*
G01*
X98675000Y-36400000D01*
G75*
G02*
X98425000Y-36650000I-250000J0D01*
G01*
G37*
G04 #@! TD*
G04 #@! TO.C,R13*
G36*
G01*
X97890000Y-54650000D02*
X97110000Y-54650000D01*
G75*
G02*
X97040000Y-54580000I0J70000D01*
G01*
X97040000Y-54020000D01*
G75*
G02*
X97110000Y-53950000I70000J0D01*
G01*
X97890000Y-53950000D01*
G75*
G02*
X97960000Y-54020000I0J-70000D01*
G01*
X97960000Y-54580000D01*
G75*
G02*
X97890000Y-54650000I-70000J0D01*
G01*
G37*
G36*
G01*
X97890000Y-53050000D02*
X97110000Y-53050000D01*
G75*
G02*
X97040000Y-52980000I0J70000D01*
G01*
X97040000Y-52420000D01*
G75*
G02*
X97110000Y-52350000I70000J0D01*
G01*
X97890000Y-52350000D01*
G75*
G02*
X97960000Y-52420000I0J-70000D01*
G01*
X97960000Y-52980000D01*
G75*
G02*
X97890000Y-53050000I-70000J0D01*
G01*
G37*
G04 #@! TD*
G04 #@! TO.C,R23*
G36*
G01*
X103850000Y-44390000D02*
X103850000Y-43610000D01*
G75*
G02*
X103920000Y-43540000I70000J0D01*
G01*
X104480000Y-43540000D01*
G75*
G02*
X104550000Y-43610000I0J-70000D01*
G01*
X104550000Y-44390000D01*
G75*
G02*
X104480000Y-44460000I-70000J0D01*
G01*
X103920000Y-44460000D01*
G75*
G02*
X103850000Y-44390000I0J70000D01*
G01*
G37*
G36*
G01*
X105450000Y-44390000D02*
X105450000Y-43610000D01*
G75*
G02*
X105520000Y-43540000I70000J0D01*
G01*
X106080000Y-43540000D01*
G75*
G02*
X106150000Y-43610000I0J-70000D01*
G01*
X106150000Y-44390000D01*
G75*
G02*
X106080000Y-44460000I-70000J0D01*
G01*
X105520000Y-44460000D01*
G75*
G02*
X105450000Y-44390000I0J70000D01*
G01*
G37*
G04 #@! TD*
G04 #@! TO.C,R49*
G36*
G01*
X112890000Y-54650000D02*
X112110000Y-54650000D01*
G75*
G02*
X112040000Y-54580000I0J70000D01*
G01*
X112040000Y-54020000D01*
G75*
G02*
X112110000Y-53950000I70000J0D01*
G01*
X112890000Y-53950000D01*
G75*
G02*
X112960000Y-54020000I0J-70000D01*
G01*
X112960000Y-54580000D01*
G75*
G02*
X112890000Y-54650000I-70000J0D01*
G01*
G37*
G36*
G01*
X112890000Y-53050000D02*
X112110000Y-53050000D01*
G75*
G02*
X112040000Y-52980000I0J70000D01*
G01*
X112040000Y-52420000D01*
G75*
G02*
X112110000Y-52350000I70000J0D01*
G01*
X112890000Y-52350000D01*
G75*
G02*
X112960000Y-52420000I0J-70000D01*
G01*
X112960000Y-52980000D01*
G75*
G02*
X112890000Y-53050000I-70000J0D01*
G01*
G37*
G04 #@! TD*
G04 #@! TO.C,R45*
G36*
G01*
X124890000Y-54650000D02*
X124110000Y-54650000D01*
G75*
G02*
X124040000Y-54580000I0J70000D01*
G01*
X124040000Y-54020000D01*
G75*
G02*
X124110000Y-53950000I70000J0D01*
G01*
X124890000Y-53950000D01*
G75*
G02*
X124960000Y-54020000I0J-70000D01*
G01*
X124960000Y-54580000D01*
G75*
G02*
X124890000Y-54650000I-70000J0D01*
G01*
G37*
G36*
G01*
X124890000Y-53050000D02*
X124110000Y-53050000D01*
G75*
G02*
X124040000Y-52980000I0J70000D01*
G01*
X124040000Y-52420000D01*
G75*
G02*
X124110000Y-52350000I70000J0D01*
G01*
X124890000Y-52350000D01*
G75*
G02*
X124960000Y-52420000I0J-70000D01*
G01*
X124960000Y-52980000D01*
G75*
G02*
X124890000Y-53050000I-70000J0D01*
G01*
G37*
G04 #@! TD*
G04 #@! TO.C,R24*
G36*
G01*
X95850000Y-44390000D02*
X95850000Y-43610000D01*
G75*
G02*
X95920000Y-43540000I70000J0D01*
G01*
X96480000Y-43540000D01*
G75*
G02*
X96550000Y-43610000I0J-70000D01*
G01*
X96550000Y-44390000D01*
G75*
G02*
X96480000Y-44460000I-70000J0D01*
G01*
X95920000Y-44460000D01*
G75*
G02*
X95850000Y-44390000I0J70000D01*
G01*
G37*
G36*
G01*
X97450000Y-44390000D02*
X97450000Y-43610000D01*
G75*
G02*
X97520000Y-43540000I70000J0D01*
G01*
X98080000Y-43540000D01*
G75*
G02*
X98150000Y-43610000I0J-70000D01*
G01*
X98150000Y-44390000D01*
G75*
G02*
X98080000Y-44460000I-70000J0D01*
G01*
X97520000Y-44460000D01*
G75*
G02*
X97450000Y-44390000I0J70000D01*
G01*
G37*
G04 #@! TD*
G04 #@! TO.C,R28*
G36*
G01*
X90230000Y-42575000D02*
X87380000Y-42575000D01*
G75*
G02*
X87130000Y-42325000I0J250000D01*
G01*
X87130000Y-41600000D01*
G75*
G02*
X87380000Y-41350000I250000J0D01*
G01*
X90230000Y-41350000D01*
G75*
G02*
X90480000Y-41600000I0J-250000D01*
G01*
X90480000Y-42325000D01*
G75*
G02*
X90230000Y-42575000I-250000J0D01*
G01*
G37*
G36*
G01*
X90230000Y-36650000D02*
X87380000Y-36650000D01*
G75*
G02*
X87130000Y-36400000I0J250000D01*
G01*
X87130000Y-35675000D01*
G75*
G02*
X87380000Y-35425000I250000J0D01*
G01*
X90230000Y-35425000D01*
G75*
G02*
X90480000Y-35675000I0J-250000D01*
G01*
X90480000Y-36400000D01*
G75*
G02*
X90230000Y-36650000I-250000J0D01*
G01*
G37*
G04 #@! TD*
G04 #@! TO.C,D2*
G36*
G01*
X124010000Y-51450000D02*
X122990000Y-51450000D01*
G75*
G02*
X122900000Y-51360000I0J90000D01*
G01*
X122900000Y-50640000D01*
G75*
G02*
X122990000Y-50550000I90000J0D01*
G01*
X124010000Y-50550000D01*
G75*
G02*
X124100000Y-50640000I0J-90000D01*
G01*
X124100000Y-51360000D01*
G75*
G02*
X124010000Y-51450000I-90000J0D01*
G01*
G37*
G36*
G01*
X124010000Y-48150000D02*
X122990000Y-48150000D01*
G75*
G02*
X122900000Y-48060000I0J90000D01*
G01*
X122900000Y-47340000D01*
G75*
G02*
X122990000Y-47250000I90000J0D01*
G01*
X124010000Y-47250000D01*
G75*
G02*
X124100000Y-47340000I0J-90000D01*
G01*
X124100000Y-48060000D01*
G75*
G02*
X124010000Y-48150000I-90000J0D01*
G01*
G37*
G04 #@! TD*
G04 #@! TO.C,R3*
G36*
G01*
X82650000Y-37110000D02*
X82650000Y-37890000D01*
G75*
G02*
X82580000Y-37960000I-70000J0D01*
G01*
X82020000Y-37960000D01*
G75*
G02*
X81950000Y-37890000I0J70000D01*
G01*
X81950000Y-37110000D01*
G75*
G02*
X82020000Y-37040000I70000J0D01*
G01*
X82580000Y-37040000D01*
G75*
G02*
X82650000Y-37110000I0J-70000D01*
G01*
G37*
G36*
G01*
X81050000Y-37110000D02*
X81050000Y-37890000D01*
G75*
G02*
X80980000Y-37960000I-70000J0D01*
G01*
X80420000Y-37960000D01*
G75*
G02*
X80350000Y-37890000I0J70000D01*
G01*
X80350000Y-37110000D01*
G75*
G02*
X80420000Y-37040000I70000J0D01*
G01*
X80980000Y-37040000D01*
G75*
G02*
X81050000Y-37110000I0J-70000D01*
G01*
G37*
G04 #@! TD*
G04 #@! TO.C,R36*
G36*
G01*
X99390000Y-54650000D02*
X98610000Y-54650000D01*
G75*
G02*
X98540000Y-54580000I0J70000D01*
G01*
X98540000Y-54020000D01*
G75*
G02*
X98610000Y-53950000I70000J0D01*
G01*
X99390000Y-53950000D01*
G75*
G02*
X99460000Y-54020000I0J-70000D01*
G01*
X99460000Y-54580000D01*
G75*
G02*
X99390000Y-54650000I-70000J0D01*
G01*
G37*
G36*
G01*
X99390000Y-53050000D02*
X98610000Y-53050000D01*
G75*
G02*
X98540000Y-52980000I0J70000D01*
G01*
X98540000Y-52420000D01*
G75*
G02*
X98610000Y-52350000I70000J0D01*
G01*
X99390000Y-52350000D01*
G75*
G02*
X99460000Y-52420000I0J-70000D01*
G01*
X99460000Y-52980000D01*
G75*
G02*
X99390000Y-53050000I-70000J0D01*
G01*
G37*
G04 #@! TD*
G04 #@! TO.C,R22*
G36*
G01*
X114925000Y-42575000D02*
X112075000Y-42575000D01*
G75*
G02*
X111825000Y-42325000I0J250000D01*
G01*
X111825000Y-41600000D01*
G75*
G02*
X112075000Y-41350000I250000J0D01*
G01*
X114925000Y-41350000D01*
G75*
G02*
X115175000Y-41600000I0J-250000D01*
G01*
X115175000Y-42325000D01*
G75*
G02*
X114925000Y-42575000I-250000J0D01*
G01*
G37*
G36*
G01*
X114925000Y-36650000D02*
X112075000Y-36650000D01*
G75*
G02*
X111825000Y-36400000I0J250000D01*
G01*
X111825000Y-35675000D01*
G75*
G02*
X112075000Y-35425000I250000J0D01*
G01*
X114925000Y-35425000D01*
G75*
G02*
X115175000Y-35675000I0J-250000D01*
G01*
X115175000Y-36400000D01*
G75*
G02*
X114925000Y-36650000I-250000J0D01*
G01*
G37*
G04 #@! TD*
G04 #@! TO.C,R46*
G36*
G01*
X103890000Y-54650000D02*
X103110000Y-54650000D01*
G75*
G02*
X103040000Y-54580000I0J70000D01*
G01*
X103040000Y-54020000D01*
G75*
G02*
X103110000Y-53950000I70000J0D01*
G01*
X103890000Y-53950000D01*
G75*
G02*
X103960000Y-54020000I0J-70000D01*
G01*
X103960000Y-54580000D01*
G75*
G02*
X103890000Y-54650000I-70000J0D01*
G01*
G37*
G36*
G01*
X103890000Y-53050000D02*
X103110000Y-53050000D01*
G75*
G02*
X103040000Y-52980000I0J70000D01*
G01*
X103040000Y-52420000D01*
G75*
G02*
X103110000Y-52350000I70000J0D01*
G01*
X103890000Y-52350000D01*
G75*
G02*
X103960000Y-52420000I0J-70000D01*
G01*
X103960000Y-52980000D01*
G75*
G02*
X103890000Y-53050000I-70000J0D01*
G01*
G37*
G04 #@! TD*
G04 #@! TO.C,F9*
G36*
G01*
X98225000Y-45743750D02*
X98225000Y-46256250D01*
G75*
G02*
X98006250Y-46475000I-218750J0D01*
G01*
X97568750Y-46475000D01*
G75*
G02*
X97350000Y-46256250I0J218750D01*
G01*
X97350000Y-45743750D01*
G75*
G02*
X97568750Y-45525000I218750J0D01*
G01*
X98006250Y-45525000D01*
G75*
G02*
X98225000Y-45743750I0J-218750D01*
G01*
G37*
G36*
G01*
X96650000Y-45743750D02*
X96650000Y-46256250D01*
G75*
G02*
X96431250Y-46475000I-218750J0D01*
G01*
X95993750Y-46475000D01*
G75*
G02*
X95775000Y-46256250I0J218750D01*
G01*
X95775000Y-45743750D01*
G75*
G02*
X95993750Y-45525000I218750J0D01*
G01*
X96431250Y-45525000D01*
G75*
G02*
X96650000Y-45743750I0J-218750D01*
G01*
G37*
G04 #@! TD*
G04 #@! TO.C,R41*
G36*
G01*
X71890000Y-87150000D02*
X71110000Y-87150000D01*
G75*
G02*
X71040000Y-87080000I0J70000D01*
G01*
X71040000Y-86520000D01*
G75*
G02*
X71110000Y-86450000I70000J0D01*
G01*
X71890000Y-86450000D01*
G75*
G02*
X71960000Y-86520000I0J-70000D01*
G01*
X71960000Y-87080000D01*
G75*
G02*
X71890000Y-87150000I-70000J0D01*
G01*
G37*
G36*
G01*
X71890000Y-85550000D02*
X71110000Y-85550000D01*
G75*
G02*
X71040000Y-85480000I0J70000D01*
G01*
X71040000Y-84920000D01*
G75*
G02*
X71110000Y-84850000I70000J0D01*
G01*
X71890000Y-84850000D01*
G75*
G02*
X71960000Y-84920000I0J-70000D01*
G01*
X71960000Y-85480000D01*
G75*
G02*
X71890000Y-85550000I-70000J0D01*
G01*
G37*
G04 #@! TD*
G04 #@! TO.C,R42*
G36*
G01*
X127890000Y-54650000D02*
X127110000Y-54650000D01*
G75*
G02*
X127040000Y-54580000I0J70000D01*
G01*
X127040000Y-54020000D01*
G75*
G02*
X127110000Y-53950000I70000J0D01*
G01*
X127890000Y-53950000D01*
G75*
G02*
X127960000Y-54020000I0J-70000D01*
G01*
X127960000Y-54580000D01*
G75*
G02*
X127890000Y-54650000I-70000J0D01*
G01*
G37*
G36*
G01*
X127890000Y-53050000D02*
X127110000Y-53050000D01*
G75*
G02*
X127040000Y-52980000I0J70000D01*
G01*
X127040000Y-52420000D01*
G75*
G02*
X127110000Y-52350000I70000J0D01*
G01*
X127890000Y-52350000D01*
G75*
G02*
X127960000Y-52420000I0J-70000D01*
G01*
X127960000Y-52980000D01*
G75*
G02*
X127890000Y-53050000I-70000J0D01*
G01*
G37*
G04 #@! TD*
G04 #@! TO.C,F8*
G36*
G01*
X106225000Y-45743750D02*
X106225000Y-46256250D01*
G75*
G02*
X106006250Y-46475000I-218750J0D01*
G01*
X105568750Y-46475000D01*
G75*
G02*
X105350000Y-46256250I0J218750D01*
G01*
X105350000Y-45743750D01*
G75*
G02*
X105568750Y-45525000I218750J0D01*
G01*
X106006250Y-45525000D01*
G75*
G02*
X106225000Y-45743750I0J-218750D01*
G01*
G37*
G36*
G01*
X104650000Y-45743750D02*
X104650000Y-46256250D01*
G75*
G02*
X104431250Y-46475000I-218750J0D01*
G01*
X103993750Y-46475000D01*
G75*
G02*
X103775000Y-46256250I0J218750D01*
G01*
X103775000Y-45743750D01*
G75*
G02*
X103993750Y-45525000I218750J0D01*
G01*
X104431250Y-45525000D01*
G75*
G02*
X104650000Y-45743750I0J-218750D01*
G01*
G37*
G04 #@! TD*
G04 #@! TO.C,R2*
G36*
G01*
X80350000Y-36390000D02*
X80350000Y-35610000D01*
G75*
G02*
X80420000Y-35540000I70000J0D01*
G01*
X80980000Y-35540000D01*
G75*
G02*
X81050000Y-35610000I0J-70000D01*
G01*
X81050000Y-36390000D01*
G75*
G02*
X80980000Y-36460000I-70000J0D01*
G01*
X80420000Y-36460000D01*
G75*
G02*
X80350000Y-36390000I0J70000D01*
G01*
G37*
G36*
G01*
X81950000Y-36390000D02*
X81950000Y-35610000D01*
G75*
G02*
X82020000Y-35540000I70000J0D01*
G01*
X82580000Y-35540000D01*
G75*
G02*
X82650000Y-35610000I0J-70000D01*
G01*
X82650000Y-36390000D01*
G75*
G02*
X82580000Y-36460000I-70000J0D01*
G01*
X82020000Y-36460000D01*
G75*
G02*
X81950000Y-36390000I0J70000D01*
G01*
G37*
G04 #@! TD*
G04 #@! TO.C,F5*
G36*
G01*
X131225000Y-45743750D02*
X131225000Y-46256250D01*
G75*
G02*
X131006250Y-46475000I-218750J0D01*
G01*
X130568750Y-46475000D01*
G75*
G02*
X130350000Y-46256250I0J218750D01*
G01*
X130350000Y-45743750D01*
G75*
G02*
X130568750Y-45525000I218750J0D01*
G01*
X131006250Y-45525000D01*
G75*
G02*
X131225000Y-45743750I0J-218750D01*
G01*
G37*
G36*
G01*
X129650000Y-45743750D02*
X129650000Y-46256250D01*
G75*
G02*
X129431250Y-46475000I-218750J0D01*
G01*
X128993750Y-46475000D01*
G75*
G02*
X128775000Y-46256250I0J218750D01*
G01*
X128775000Y-45743750D01*
G75*
G02*
X128993750Y-45525000I218750J0D01*
G01*
X129431250Y-45525000D01*
G75*
G02*
X129650000Y-45743750I0J-218750D01*
G01*
G37*
G04 #@! TD*
G04 #@! TO.C,R16*
G36*
G01*
X123390000Y-54650000D02*
X122610000Y-54650000D01*
G75*
G02*
X122540000Y-54580000I0J70000D01*
G01*
X122540000Y-54020000D01*
G75*
G02*
X122610000Y-53950000I70000J0D01*
G01*
X123390000Y-53950000D01*
G75*
G02*
X123460000Y-54020000I0J-70000D01*
G01*
X123460000Y-54580000D01*
G75*
G02*
X123390000Y-54650000I-70000J0D01*
G01*
G37*
G36*
G01*
X123390000Y-53050000D02*
X122610000Y-53050000D01*
G75*
G02*
X122540000Y-52980000I0J70000D01*
G01*
X122540000Y-52420000D01*
G75*
G02*
X122610000Y-52350000I70000J0D01*
G01*
X123390000Y-52350000D01*
G75*
G02*
X123460000Y-52420000I0J-70000D01*
G01*
X123460000Y-52980000D01*
G75*
G02*
X123390000Y-53050000I-70000J0D01*
G01*
G37*
G04 #@! TD*
G04 #@! TO.C,R18*
G36*
G01*
X120350000Y-44390000D02*
X120350000Y-43610000D01*
G75*
G02*
X120420000Y-43540000I70000J0D01*
G01*
X120980000Y-43540000D01*
G75*
G02*
X121050000Y-43610000I0J-70000D01*
G01*
X121050000Y-44390000D01*
G75*
G02*
X120980000Y-44460000I-70000J0D01*
G01*
X120420000Y-44460000D01*
G75*
G02*
X120350000Y-44390000I0J70000D01*
G01*
G37*
G36*
G01*
X121950000Y-44390000D02*
X121950000Y-43610000D01*
G75*
G02*
X122020000Y-43540000I70000J0D01*
G01*
X122580000Y-43540000D01*
G75*
G02*
X122650000Y-43610000I0J-70000D01*
G01*
X122650000Y-44390000D01*
G75*
G02*
X122580000Y-44460000I-70000J0D01*
G01*
X122020000Y-44460000D01*
G75*
G02*
X121950000Y-44390000I0J70000D01*
G01*
G37*
G04 #@! TD*
G04 #@! TO.C,R53*
G36*
G01*
X70390000Y-87150000D02*
X69610000Y-87150000D01*
G75*
G02*
X69540000Y-87080000I0J70000D01*
G01*
X69540000Y-86520000D01*
G75*
G02*
X69610000Y-86450000I70000J0D01*
G01*
X70390000Y-86450000D01*
G75*
G02*
X70460000Y-86520000I0J-70000D01*
G01*
X70460000Y-87080000D01*
G75*
G02*
X70390000Y-87150000I-70000J0D01*
G01*
G37*
G36*
G01*
X70390000Y-85550000D02*
X69610000Y-85550000D01*
G75*
G02*
X69540000Y-85480000I0J70000D01*
G01*
X69540000Y-84920000D01*
G75*
G02*
X69610000Y-84850000I70000J0D01*
G01*
X70390000Y-84850000D01*
G75*
G02*
X70460000Y-84920000I0J-70000D01*
G01*
X70460000Y-85480000D01*
G75*
G02*
X70390000Y-85550000I-70000J0D01*
G01*
G37*
G04 #@! TD*
G04 #@! TO.C,D3*
G36*
G01*
X129510000Y-51450000D02*
X128490000Y-51450000D01*
G75*
G02*
X128400000Y-51360000I0J90000D01*
G01*
X128400000Y-50640000D01*
G75*
G02*
X128490000Y-50550000I90000J0D01*
G01*
X129510000Y-50550000D01*
G75*
G02*
X129600000Y-50640000I0J-90000D01*
G01*
X129600000Y-51360000D01*
G75*
G02*
X129510000Y-51450000I-90000J0D01*
G01*
G37*
G36*
G01*
X129510000Y-48150000D02*
X128490000Y-48150000D01*
G75*
G02*
X128400000Y-48060000I0J90000D01*
G01*
X128400000Y-47340000D01*
G75*
G02*
X128490000Y-47250000I90000J0D01*
G01*
X129510000Y-47250000D01*
G75*
G02*
X129600000Y-47340000I0J-90000D01*
G01*
X129600000Y-48060000D01*
G75*
G02*
X129510000Y-48150000I-90000J0D01*
G01*
G37*
G04 #@! TD*
G04 #@! TO.C,R34*
G36*
G01*
X120390000Y-54650000D02*
X119610000Y-54650000D01*
G75*
G02*
X119540000Y-54580000I0J70000D01*
G01*
X119540000Y-54020000D01*
G75*
G02*
X119610000Y-53950000I70000J0D01*
G01*
X120390000Y-53950000D01*
G75*
G02*
X120460000Y-54020000I0J-70000D01*
G01*
X120460000Y-54580000D01*
G75*
G02*
X120390000Y-54650000I-70000J0D01*
G01*
G37*
G36*
G01*
X120390000Y-53050000D02*
X119610000Y-53050000D01*
G75*
G02*
X119540000Y-52980000I0J70000D01*
G01*
X119540000Y-52420000D01*
G75*
G02*
X119610000Y-52350000I70000J0D01*
G01*
X120390000Y-52350000D01*
G75*
G02*
X120460000Y-52420000I0J-70000D01*
G01*
X120460000Y-52980000D01*
G75*
G02*
X120390000Y-53050000I-70000J0D01*
G01*
G37*
G04 #@! TD*
G04 #@! TO.C,D4*
G36*
G01*
X132010000Y-51600000D02*
X130990000Y-51600000D01*
G75*
G02*
X130900000Y-51510000I0J90000D01*
G01*
X130900000Y-50790000D01*
G75*
G02*
X130990000Y-50700000I90000J0D01*
G01*
X132010000Y-50700000D01*
G75*
G02*
X132100000Y-50790000I0J-90000D01*
G01*
X132100000Y-51510000D01*
G75*
G02*
X132010000Y-51600000I-90000J0D01*
G01*
G37*
G36*
G01*
X132010000Y-48300000D02*
X130990000Y-48300000D01*
G75*
G02*
X130900000Y-48210000I0J90000D01*
G01*
X130900000Y-47490000D01*
G75*
G02*
X130990000Y-47400000I90000J0D01*
G01*
X132010000Y-47400000D01*
G75*
G02*
X132100000Y-47490000I0J-90000D01*
G01*
X132100000Y-48210000D01*
G75*
G02*
X132010000Y-48300000I-90000J0D01*
G01*
G37*
G04 #@! TD*
G04 #@! TO.C,R20*
G36*
G01*
X130925000Y-42612500D02*
X128075000Y-42612500D01*
G75*
G02*
X127825000Y-42362500I0J250000D01*
G01*
X127825000Y-41637500D01*
G75*
G02*
X128075000Y-41387500I250000J0D01*
G01*
X130925000Y-41387500D01*
G75*
G02*
X131175000Y-41637500I0J-250000D01*
G01*
X131175000Y-42362500D01*
G75*
G02*
X130925000Y-42612500I-250000J0D01*
G01*
G37*
G36*
G01*
X130925000Y-36687500D02*
X128075000Y-36687500D01*
G75*
G02*
X127825000Y-36437500I0J250000D01*
G01*
X127825000Y-35712500D01*
G75*
G02*
X128075000Y-35462500I250000J0D01*
G01*
X130925000Y-35462500D01*
G75*
G02*
X131175000Y-35712500I0J-250000D01*
G01*
X131175000Y-36437500D01*
G75*
G02*
X130925000Y-36687500I-250000J0D01*
G01*
G37*
G04 #@! TD*
G04 #@! TO.C,R21*
G36*
G01*
X122925000Y-42537500D02*
X120075000Y-42537500D01*
G75*
G02*
X119825000Y-42287500I0J250000D01*
G01*
X119825000Y-41562500D01*
G75*
G02*
X120075000Y-41312500I250000J0D01*
G01*
X122925000Y-41312500D01*
G75*
G02*
X123175000Y-41562500I0J-250000D01*
G01*
X123175000Y-42287500D01*
G75*
G02*
X122925000Y-42537500I-250000J0D01*
G01*
G37*
G36*
G01*
X122925000Y-36612500D02*
X120075000Y-36612500D01*
G75*
G02*
X119825000Y-36362500I0J250000D01*
G01*
X119825000Y-35637500D01*
G75*
G02*
X120075000Y-35387500I250000J0D01*
G01*
X122925000Y-35387500D01*
G75*
G02*
X123175000Y-35637500I0J-250000D01*
G01*
X123175000Y-36362500D01*
G75*
G02*
X122925000Y-36612500I-250000J0D01*
G01*
G37*
G04 #@! TD*
G04 #@! TO.C,F7*
G36*
G01*
X114725000Y-45743750D02*
X114725000Y-46256250D01*
G75*
G02*
X114506250Y-46475000I-218750J0D01*
G01*
X114068750Y-46475000D01*
G75*
G02*
X113850000Y-46256250I0J218750D01*
G01*
X113850000Y-45743750D01*
G75*
G02*
X114068750Y-45525000I218750J0D01*
G01*
X114506250Y-45525000D01*
G75*
G02*
X114725000Y-45743750I0J-218750D01*
G01*
G37*
G36*
G01*
X113150000Y-45743750D02*
X113150000Y-46256250D01*
G75*
G02*
X112931250Y-46475000I-218750J0D01*
G01*
X112493750Y-46475000D01*
G75*
G02*
X112275000Y-46256250I0J218750D01*
G01*
X112275000Y-45743750D01*
G75*
G02*
X112493750Y-45525000I218750J0D01*
G01*
X112931250Y-45525000D01*
G75*
G02*
X113150000Y-45743750I0J-218750D01*
G01*
G37*
G04 #@! TD*
G04 #@! TO.C,R26*
G36*
G01*
X106425000Y-42575000D02*
X103575000Y-42575000D01*
G75*
G02*
X103325000Y-42325000I0J250000D01*
G01*
X103325000Y-41600000D01*
G75*
G02*
X103575000Y-41350000I250000J0D01*
G01*
X106425000Y-41350000D01*
G75*
G02*
X106675000Y-41600000I0J-250000D01*
G01*
X106675000Y-42325000D01*
G75*
G02*
X106425000Y-42575000I-250000J0D01*
G01*
G37*
G36*
G01*
X106425000Y-36650000D02*
X103575000Y-36650000D01*
G75*
G02*
X103325000Y-36400000I0J250000D01*
G01*
X103325000Y-35675000D01*
G75*
G02*
X103575000Y-35425000I250000J0D01*
G01*
X106425000Y-35425000D01*
G75*
G02*
X106675000Y-35675000I0J-250000D01*
G01*
X106675000Y-36400000D01*
G75*
G02*
X106425000Y-36650000I-250000J0D01*
G01*
G37*
G04 #@! TD*
G04 #@! TO.C,R47*
G36*
G01*
X106890000Y-54650000D02*
X106110000Y-54650000D01*
G75*
G02*
X106040000Y-54580000I0J70000D01*
G01*
X106040000Y-54020000D01*
G75*
G02*
X106110000Y-53950000I70000J0D01*
G01*
X106890000Y-53950000D01*
G75*
G02*
X106960000Y-54020000I0J-70000D01*
G01*
X106960000Y-54580000D01*
G75*
G02*
X106890000Y-54650000I-70000J0D01*
G01*
G37*
G36*
G01*
X106890000Y-53050000D02*
X106110000Y-53050000D01*
G75*
G02*
X106040000Y-52980000I0J70000D01*
G01*
X106040000Y-52420000D01*
G75*
G02*
X106110000Y-52350000I70000J0D01*
G01*
X106890000Y-52350000D01*
G75*
G02*
X106960000Y-52420000I0J-70000D01*
G01*
X106960000Y-52980000D01*
G75*
G02*
X106890000Y-53050000I-70000J0D01*
G01*
G37*
G04 #@! TD*
G04 #@! TO.C,R32*
G36*
G01*
X108390000Y-54650000D02*
X107610000Y-54650000D01*
G75*
G02*
X107540000Y-54580000I0J70000D01*
G01*
X107540000Y-54020000D01*
G75*
G02*
X107610000Y-53950000I70000J0D01*
G01*
X108390000Y-53950000D01*
G75*
G02*
X108460000Y-54020000I0J-70000D01*
G01*
X108460000Y-54580000D01*
G75*
G02*
X108390000Y-54650000I-70000J0D01*
G01*
G37*
G36*
G01*
X108390000Y-53050000D02*
X107610000Y-53050000D01*
G75*
G02*
X107540000Y-52980000I0J70000D01*
G01*
X107540000Y-52420000D01*
G75*
G02*
X107610000Y-52350000I70000J0D01*
G01*
X108390000Y-52350000D01*
G75*
G02*
X108460000Y-52420000I0J-70000D01*
G01*
X108460000Y-52980000D01*
G75*
G02*
X108390000Y-53050000I-70000J0D01*
G01*
G37*
G04 #@! TD*
D18*
G04 #@! TO.C,P1*
X190652000Y2883000D03*
D19*
X188202000Y-4917000D03*
D18*
X116152000Y2883000D03*
D19*
X66402000Y-4917000D03*
D18*
X63952000Y2883000D03*
D20*
X183552000Y-2117000D03*
X177752000Y-2117000D03*
X180652000Y-4447000D03*
X183552000Y-10247000D03*
X177752000Y-10247000D03*
D10*
X124132000Y-10247000D03*
X126672000Y-10247000D03*
X129212000Y-10247000D03*
X131752000Y-10247000D03*
X134292000Y-10247000D03*
X136832000Y-10247000D03*
X139372000Y-10247000D03*
X141912000Y-10247000D03*
X144452000Y-10247000D03*
X146992000Y-10247000D03*
X149532000Y-10247000D03*
X152072000Y-10247000D03*
X154612000Y-10247000D03*
X157152000Y-10247000D03*
X159692000Y-10247000D03*
X162232000Y-10247000D03*
X164772000Y-10247000D03*
X167312000Y-10247000D03*
X169852000Y-10247000D03*
X124132000Y-7707000D03*
X126672000Y-7707000D03*
X129212000Y-7707000D03*
X131752000Y-7707000D03*
X134292000Y-7707000D03*
X136832000Y-7707000D03*
X139372000Y-7707000D03*
X141912000Y-7707000D03*
X144452000Y-7707000D03*
X146992000Y-7707000D03*
X149532000Y-7707000D03*
X152072000Y-7707000D03*
X154612000Y-7707000D03*
X157152000Y-7707000D03*
X159692000Y-7707000D03*
X162232000Y-7707000D03*
X164772000Y-7707000D03*
X167312000Y-7707000D03*
X169852000Y-7707000D03*
X124132000Y-1657000D03*
X126672000Y-1657000D03*
X129212000Y-1657000D03*
X131752000Y-1657000D03*
X134292000Y-1657000D03*
X136832000Y-1657000D03*
X139372000Y-1657000D03*
X141912000Y-1657000D03*
X144452000Y-1657000D03*
X146992000Y-1657000D03*
X149532000Y-1657000D03*
X152072000Y-1657000D03*
X154612000Y-1657000D03*
X157152000Y-1657000D03*
X159692000Y-1657000D03*
X162232000Y-1657000D03*
X164772000Y-1657000D03*
X167312000Y-1657000D03*
X169852000Y-1657000D03*
X124132000Y883000D03*
X126672000Y883000D03*
X129212000Y883000D03*
X131752000Y883000D03*
X134292000Y883000D03*
X136832000Y883000D03*
X139372000Y883000D03*
X141912000Y883000D03*
X144452000Y883000D03*
X146992000Y883000D03*
X149532000Y883000D03*
X152072000Y883000D03*
X154612000Y883000D03*
X157152000Y883000D03*
X159692000Y883000D03*
X162232000Y883000D03*
X164772000Y883000D03*
X167312000Y883000D03*
X169852000Y883000D03*
X108162000Y883000D03*
X105622000Y883000D03*
X103082000Y883000D03*
X100542000Y883000D03*
X98002000Y883000D03*
X95462000Y883000D03*
X92922000Y883000D03*
X90382000Y883000D03*
X108162000Y-1657000D03*
X105622000Y-1657000D03*
X103082000Y-1657000D03*
X100542000Y-1657000D03*
X98002000Y-1657000D03*
X95462000Y-1657000D03*
X92922000Y-1657000D03*
X90382000Y-1657000D03*
X108162000Y-7707000D03*
X105622000Y-7707000D03*
X103082000Y-7707000D03*
X100542000Y-7707000D03*
X98002000Y-7707000D03*
X95462000Y-7707000D03*
X92922000Y-7707000D03*
X90382000Y-7707000D03*
X108162000Y-10247000D03*
X105622000Y-10247000D03*
X103082000Y-10247000D03*
X100542000Y-10247000D03*
X98002000Y-10247000D03*
X95462000Y-10247000D03*
X92922000Y-10247000D03*
X90382000Y-10247000D03*
D20*
X82552000Y-2117000D03*
X76752000Y-2117000D03*
X70852000Y-2117000D03*
X79652000Y-4447000D03*
X73752000Y-4447000D03*
X82552000Y-10247000D03*
X76752000Y-10247000D03*
X70852000Y-10247000D03*
G04 #@! TD*
M02*
