G75*
G70*
%OFA0B0*%
%FSLAX25Y25*%
%IPPOS*%
%LPD*%
%AMOC8*
5,1,8,0,0,1.08239X$1,22.5*
%
%AMM161*
21,1,0.041340,0.026770,-0.000000,-0.000000,180.000000*
21,1,0.029130,0.038980,-0.000000,-0.000000,180.000000*
1,1,0.012210,-0.014570,0.013390*
1,1,0.012210,0.014570,0.013390*
1,1,0.012210,0.014570,-0.013390*
1,1,0.012210,-0.014570,-0.013390*
%
%AMM162*
21,1,0.076380,0.036220,-0.000000,-0.000000,270.000000*
21,1,0.061810,0.050790,-0.000000,-0.000000,270.000000*
1,1,0.014570,-0.018110,-0.030910*
1,1,0.014570,-0.018110,0.030910*
1,1,0.014570,0.018110,0.030910*
1,1,0.014570,0.018110,-0.030910*
%
%AMM164*
21,1,0.029130,0.018900,-0.000000,-0.000000,270.000000*
21,1,0.018900,0.029130,-0.000000,-0.000000,270.000000*
1,1,0.010240,-0.009450,-0.009450*
1,1,0.010240,-0.009450,0.009450*
1,1,0.010240,0.009450,0.009450*
1,1,0.010240,0.009450,-0.009450*
%
%AMM165*
21,1,0.025200,0.019680,-0.000000,-0.000000,180.000000*
21,1,0.015750,0.029130,-0.000000,-0.000000,180.000000*
1,1,0.009450,-0.007870,0.009840*
1,1,0.009450,0.007870,0.009840*
1,1,0.009450,0.007870,-0.009840*
1,1,0.009450,-0.007870,-0.009840*
%
%AMM166*
21,1,0.025200,0.019680,-0.000000,-0.000000,90.000000*
21,1,0.015750,0.029130,-0.000000,-0.000000,90.000000*
1,1,0.009450,0.009840,0.007870*
1,1,0.009450,0.009840,-0.007870*
1,1,0.009450,-0.009840,-0.007870*
1,1,0.009450,-0.009840,0.007870*
%
%AMM172*
21,1,0.029130,0.018900,-0.000000,-0.000000,180.000000*
21,1,0.018900,0.029130,-0.000000,-0.000000,180.000000*
1,1,0.010240,-0.009450,0.009450*
1,1,0.010240,0.009450,0.009450*
1,1,0.010240,0.009450,-0.009450*
1,1,0.010240,-0.009450,-0.009450*
%
%AMM173*
21,1,0.111810,0.050390,-0.000000,-0.000000,270.000000*
21,1,0.093700,0.068500,-0.000000,-0.000000,270.000000*
1,1,0.018110,-0.025200,-0.046850*
1,1,0.018110,-0.025200,0.046850*
1,1,0.018110,0.025200,0.046850*
1,1,0.018110,0.025200,-0.046850*
%
%AMM174*
21,1,0.038980,0.026770,-0.000000,-0.000000,90.000000*
21,1,0.026770,0.038980,-0.000000,-0.000000,90.000000*
1,1,0.012210,0.013390,0.013390*
1,1,0.012210,0.013390,-0.013390*
1,1,0.012210,-0.013390,-0.013390*
1,1,0.012210,-0.013390,0.013390*
%
%AMM175*
21,1,0.127560,0.075590,-0.000000,-0.000000,0.000000*
21,1,0.103150,0.100000,-0.000000,-0.000000,0.000000*
1,1,0.024410,0.051580,-0.037800*
1,1,0.024410,-0.051580,-0.037800*
1,1,0.024410,-0.051580,0.037800*
1,1,0.024410,0.051580,0.037800*
%
%AMM176*
21,1,0.123620,0.083460,-0.000000,-0.000000,180.000000*
21,1,0.097240,0.109840,-0.000000,-0.000000,180.000000*
1,1,0.026380,-0.048620,0.041730*
1,1,0.026380,0.048620,0.041730*
1,1,0.026380,0.048620,-0.041730*
1,1,0.026380,-0.048620,-0.041730*
%
%AMM23*
21,1,0.029530,0.026380,0.000000,0.000000,270.000000*
21,1,0.020470,0.035430,0.000000,0.000000,270.000000*
1,1,0.009060,-0.013190,-0.010240*
1,1,0.009060,-0.013190,0.010240*
1,1,0.009060,0.013190,0.010240*
1,1,0.009060,0.013190,-0.010240*
%
%AMM24*
21,1,0.021650,0.027950,0.000000,0.000000,270.000000*
21,1,0.014170,0.035430,0.000000,0.000000,270.000000*
1,1,0.007480,-0.013980,-0.007090*
1,1,0.007480,-0.013980,0.007090*
1,1,0.007480,0.013980,0.007090*
1,1,0.007480,0.013980,-0.007090*
%
%AMM27*
21,1,0.031500,0.018900,0.000000,0.000000,90.000000*
21,1,0.022840,0.027560,0.000000,0.000000,90.000000*
1,1,0.008660,0.009450,0.011420*
1,1,0.008660,0.009450,-0.011420*
1,1,0.008660,-0.009450,-0.011420*
1,1,0.008660,-0.009450,0.011420*
%
%AMM29*
21,1,0.031500,0.018900,0.000000,0.000000,180.000000*
21,1,0.022840,0.027560,0.000000,0.000000,180.000000*
1,1,0.008660,-0.011420,0.009450*
1,1,0.008660,0.011420,0.009450*
1,1,0.008660,0.011420,-0.009450*
1,1,0.008660,-0.011420,-0.009450*
%
%AMM31*
21,1,0.039370,0.030320,0.000000,0.000000,270.000000*
21,1,0.028350,0.041340,0.000000,0.000000,270.000000*
1,1,0.011020,-0.015160,-0.014170*
1,1,0.011020,-0.015160,0.014170*
1,1,0.011020,0.015160,0.014170*
1,1,0.011020,0.015160,-0.014170*
%
%AMM34*
21,1,0.031500,0.030710,0.000000,0.000000,0.000000*
21,1,0.022050,0.040160,0.000000,0.000000,0.000000*
1,1,0.009450,0.011020,-0.015350*
1,1,0.009450,-0.011020,-0.015350*
1,1,0.009450,-0.011020,0.015350*
1,1,0.009450,0.011020,0.015350*
%
%AMM50*
21,1,0.037400,0.026770,0.000000,0.000000,90.000000*
21,1,0.026770,0.037400,0.000000,0.000000,90.000000*
1,1,0.010630,0.013390,0.013390*
1,1,0.010630,0.013390,-0.013390*
1,1,0.010630,-0.013390,-0.013390*
1,1,0.010630,-0.013390,0.013390*
%
%AMM51*
21,1,0.029530,0.026380,0.000000,0.000000,0.000000*
21,1,0.020470,0.035430,0.000000,0.000000,0.000000*
1,1,0.009060,0.010240,-0.013190*
1,1,0.009060,-0.010240,-0.013190*
1,1,0.009060,-0.010240,0.013190*
1,1,0.009060,0.010240,0.013190*
%
%AMM52*
21,1,0.021650,0.027950,0.000000,0.000000,0.000000*
21,1,0.014170,0.035430,0.000000,0.000000,0.000000*
1,1,0.007480,0.007090,-0.013980*
1,1,0.007480,-0.007090,-0.013980*
1,1,0.007480,-0.007090,0.013980*
1,1,0.007480,0.007090,0.013980*
%
%AMM53*
21,1,0.037400,0.026770,0.000000,0.000000,0.000000*
21,1,0.026770,0.037400,0.000000,0.000000,0.000000*
1,1,0.010630,0.013390,-0.013390*
1,1,0.010630,-0.013390,-0.013390*
1,1,0.010630,-0.013390,0.013390*
1,1,0.010630,0.013390,0.013390*
%
%AMM54*
21,1,0.082680,0.045670,0.000000,0.000000,180.000000*
21,1,0.067320,0.061020,0.000000,0.000000,180.000000*
1,1,0.015350,-0.033660,0.022840*
1,1,0.015350,0.033660,0.022840*
1,1,0.015350,0.033660,-0.022840*
1,1,0.015350,-0.033660,-0.022840*
%
%AMM55*
21,1,0.062990,0.020470,0.000000,0.000000,180.000000*
21,1,0.053940,0.029530,0.000000,0.000000,180.000000*
1,1,0.009060,-0.026970,0.010240*
1,1,0.009060,0.026970,0.010240*
1,1,0.009060,0.026970,-0.010240*
1,1,0.009060,-0.026970,-0.010240*
%
%AMM56*
21,1,0.039370,0.030320,0.000000,0.000000,180.000000*
21,1,0.028350,0.041340,0.000000,0.000000,180.000000*
1,1,0.011020,-0.014170,0.015160*
1,1,0.011020,0.014170,0.015160*
1,1,0.011020,0.014170,-0.015160*
1,1,0.011020,-0.014170,-0.015160*
%
%AMM57*
21,1,0.016540,0.028980,0.000000,0.000000,180.000000*
21,1,0.010080,0.035430,0.000000,0.000000,180.000000*
1,1,0.006460,-0.005040,0.014490*
1,1,0.006460,0.005040,0.014490*
1,1,0.006460,0.005040,-0.014490*
1,1,0.006460,-0.005040,-0.014490*
%
%AMM58*
21,1,0.074800,0.036220,0.000000,0.000000,0.000000*
21,1,0.061810,0.049210,0.000000,0.000000,0.000000*
1,1,0.012990,0.030910,-0.018110*
1,1,0.012990,-0.030910,-0.018110*
1,1,0.012990,-0.030910,0.018110*
1,1,0.012990,0.030910,0.018110*
%
%AMM59*
21,1,0.039760,0.026770,0.000000,0.000000,0.000000*
21,1,0.029130,0.037400,0.000000,0.000000,0.000000*
1,1,0.010630,0.014570,-0.013390*
1,1,0.010630,-0.014570,-0.013390*
1,1,0.010630,-0.014570,0.013390*
1,1,0.010630,0.014570,0.013390*
%
%AMM60*
21,1,0.031500,0.049610,0.000000,0.000000,0.000000*
21,1,0.022050,0.059060,0.000000,0.000000,0.000000*
1,1,0.009450,0.011020,-0.024800*
1,1,0.009450,-0.011020,-0.024800*
1,1,0.009450,-0.011020,0.024800*
1,1,0.009450,0.011020,0.024800*
%
%AMM61*
21,1,0.074800,0.036220,0.000000,0.000000,90.000000*
21,1,0.061810,0.049210,0.000000,0.000000,90.000000*
1,1,0.012990,0.018110,0.030910*
1,1,0.012990,0.018110,-0.030910*
1,1,0.012990,-0.018110,-0.030910*
1,1,0.012990,-0.018110,0.030910*
%
%AMM62*
21,1,0.031500,0.030710,0.000000,0.000000,90.000000*
21,1,0.022050,0.040160,0.000000,0.000000,90.000000*
1,1,0.009450,0.015350,0.011020*
1,1,0.009450,0.015350,-0.011020*
1,1,0.009450,-0.015350,-0.011020*
1,1,0.009450,-0.015350,0.011020*
%
%AMM69*
21,1,0.029130,0.018900,0.000000,0.000000,180.000000*
21,1,0.018900,0.029130,0.000000,0.000000,180.000000*
1,1,0.010240,-0.009450,0.009450*
1,1,0.010240,0.009450,0.009450*
1,1,0.010240,0.009450,-0.009450*
1,1,0.010240,-0.009450,-0.009450*
%
%AMM70*
21,1,0.025200,0.019680,0.000000,0.000000,270.000000*
21,1,0.015750,0.029130,0.000000,0.000000,270.000000*
1,1,0.009450,-0.009840,-0.007870*
1,1,0.009450,-0.009840,0.007870*
1,1,0.009450,0.009840,0.007870*
1,1,0.009450,0.009840,-0.007870*
%
%AMM71*
21,1,0.038980,0.026770,0.000000,0.000000,270.000000*
21,1,0.026770,0.038980,0.000000,0.000000,270.000000*
1,1,0.012210,-0.013390,-0.013390*
1,1,0.012210,-0.013390,0.013390*
1,1,0.012210,0.013390,0.013390*
1,1,0.012210,0.013390,-0.013390*
%
%AMM72*
21,1,0.025200,0.019680,0.000000,0.000000,0.000000*
21,1,0.015750,0.029130,0.000000,0.000000,0.000000*
1,1,0.009450,0.007870,-0.009840*
1,1,0.009450,-0.007870,-0.009840*
1,1,0.009450,-0.007870,0.009840*
1,1,0.009450,0.007870,0.009840*
%
%ADD10C,0.00394*%
%ADD106C,0.02913*%
%ADD11C,0.00591*%
%ADD12C,0.01181*%
%ADD13C,0.01575*%
%ADD134C,0.03900*%
%ADD136M23*%
%ADD137M24*%
%ADD14C,0.05906*%
%ADD144M27*%
%ADD148M29*%
%ADD15C,0.02362*%
%ADD150M31*%
%ADD154M34*%
%ADD160C,0.04724*%
%ADD161C,0.04294*%
%ADD180M50*%
%ADD181M51*%
%ADD182M52*%
%ADD183M53*%
%ADD184M54*%
%ADD185M55*%
%ADD186M56*%
%ADD187R,0.01772X0.01870*%
%ADD188M57*%
%ADD189O,0.05354X0.01378*%
%ADD190M58*%
%ADD191M59*%
%ADD192R,0.09843X0.07087*%
%ADD193R,0.01870X0.01772*%
%ADD194M60*%
%ADD195R,0.04331X0.04724*%
%ADD196M61*%
%ADD197M62*%
%ADD201C,0.05118*%
%ADD235M69*%
%ADD236M70*%
%ADD237M71*%
%ADD238M72*%
%ADD256C,0.06457*%
%ADD264O,0.02520X0.09213*%
%ADD290R,0.07874X0.07500*%
%ADD291O,0.07874X0.07500*%
%ADD293R,0.01772X0.05709*%
%ADD294R,0.02559X0.04803*%
%ADD32C,0.06000*%
%ADD33O,0.06693X0.07283*%
%ADD359M161*%
%ADD360M162*%
%ADD362M164*%
%ADD363M165*%
%ADD364M166*%
%ADD370M172*%
%ADD371M173*%
%ADD372M174*%
%ADD373M175*%
%ADD374M176*%
%ADD50R,0.04331X0.04331*%
%ADD51C,0.04331*%
%ADD52O,0.09449X0.04331*%
%ADD59C,0.14567*%
%ADD60C,0.08661*%
%ADD61C,0.10236*%
X0000000Y0000000D02*
%LPD*%
G01*
D10*
D11*
X1188189Y0133858D02*
X1613386Y0133858D01*
X1613386Y0007874D01*
X1188189Y0007874D01*
X1188189Y0133858D01*
D10*
D11*
X0000000Y1414960D02*
X1621260Y1414960D01*
X1621260Y0000000D01*
X0000000Y0000000D01*
X0000000Y1414960D01*
D10*
D11*
X0007874Y1407086D02*
X1613386Y1407086D01*
X1613386Y0007874D01*
X0007874Y0007874D01*
X0007874Y1407086D01*
D10*
D11*
X0196850Y1407086D02*
X0196850Y1414960D01*
D10*
D11*
X0393701Y1407086D02*
X0393701Y1414960D01*
D10*
D11*
X0590551Y1407086D02*
X0590551Y1414960D01*
D10*
D11*
X0787401Y1407086D02*
X0787401Y1414960D01*
D10*
D11*
X0984252Y1407086D02*
X0984252Y1414960D01*
D10*
D11*
X1181102Y1407086D02*
X1181102Y1414960D01*
D10*
D11*
X1377953Y1407086D02*
X1377953Y1414960D01*
D10*
D11*
X1574803Y1407086D02*
X1574803Y1414960D01*
D10*
D11*
X0102713Y1408686D02*
X0099788Y1408686D01*
X0101251Y1408686D02*
X0101251Y1413804D01*
X0101251Y1413804D02*
X0100763Y1413073D01*
X0100763Y1413073D02*
X0100276Y1412586D01*
X0100276Y1412586D02*
X0099788Y1412342D01*
D10*
D11*
X0296639Y1413317D02*
X0296883Y1413561D01*
X0296883Y1413561D02*
X0297370Y1413804D01*
X0297370Y1413804D02*
X0298589Y1413804D01*
X0298589Y1413804D02*
X0299076Y1413561D01*
X0299076Y1413561D02*
X0299320Y1413317D01*
X0299320Y1413317D02*
X0299563Y1412829D01*
X0299563Y1412829D02*
X0299563Y1412342D01*
X0299563Y1412342D02*
X0299320Y1411611D01*
X0299320Y1411611D02*
X0296395Y1408686D01*
X0296395Y1408686D02*
X0299563Y1408686D01*
D10*
D11*
X0493245Y1413804D02*
X0496414Y1413804D01*
X0496414Y1413804D02*
X0494708Y1411854D01*
X0494708Y1411854D02*
X0495439Y1411854D01*
X0495439Y1411854D02*
X0495926Y1411611D01*
X0495926Y1411611D02*
X0496170Y1411367D01*
X0496170Y1411367D02*
X0496414Y1410880D01*
X0496414Y1410880D02*
X0496414Y1409661D01*
X0496414Y1409661D02*
X0496170Y1409174D01*
X0496170Y1409174D02*
X0495926Y1408930D01*
X0495926Y1408930D02*
X0495439Y1408686D01*
X0495439Y1408686D02*
X0493977Y1408686D01*
X0493977Y1408686D02*
X0493489Y1408930D01*
X0493489Y1408930D02*
X0493245Y1409174D01*
D10*
D11*
X0692777Y1412098D02*
X0692777Y1408686D01*
X0691558Y1414048D02*
X0690340Y1410392D01*
X0690340Y1410392D02*
X0693508Y1410392D01*
D10*
D11*
X0889871Y1413804D02*
X0887434Y1413804D01*
X0887434Y1413804D02*
X0887190Y1411367D01*
X0887190Y1411367D02*
X0887434Y1411611D01*
X0887434Y1411611D02*
X0887921Y1411854D01*
X0887921Y1411854D02*
X0889140Y1411854D01*
X0889140Y1411854D02*
X0889627Y1411611D01*
X0889627Y1411611D02*
X0889871Y1411367D01*
X0889871Y1411367D02*
X0890115Y1410880D01*
X0890115Y1410880D02*
X0890115Y1409661D01*
X0890115Y1409661D02*
X0889871Y1409174D01*
X0889871Y1409174D02*
X0889627Y1408930D01*
X0889627Y1408930D02*
X0889140Y1408686D01*
X0889140Y1408686D02*
X0887921Y1408686D01*
X0887921Y1408686D02*
X0887434Y1408930D01*
X0887434Y1408930D02*
X0887190Y1409174D01*
D10*
D11*
X1086478Y1413804D02*
X1085503Y1413804D01*
X1085503Y1413804D02*
X1085015Y1413561D01*
X1085015Y1413561D02*
X1084772Y1413317D01*
X1084772Y1413317D02*
X1084284Y1412586D01*
X1084284Y1412586D02*
X1084040Y1411611D01*
X1084040Y1411611D02*
X1084040Y1409661D01*
X1084040Y1409661D02*
X1084284Y1409174D01*
X1084284Y1409174D02*
X1084528Y1408930D01*
X1084528Y1408930D02*
X1085015Y1408686D01*
X1085015Y1408686D02*
X1085990Y1408686D01*
X1085990Y1408686D02*
X1086478Y1408930D01*
X1086478Y1408930D02*
X1086721Y1409174D01*
X1086721Y1409174D02*
X1086965Y1409661D01*
X1086965Y1409661D02*
X1086965Y1410880D01*
X1086965Y1410880D02*
X1086721Y1411367D01*
X1086721Y1411367D02*
X1086478Y1411611D01*
X1086478Y1411611D02*
X1085990Y1411854D01*
X1085990Y1411854D02*
X1085015Y1411854D01*
X1085015Y1411854D02*
X1084528Y1411611D01*
X1084528Y1411611D02*
X1084284Y1411367D01*
X1084284Y1411367D02*
X1084040Y1410880D01*
D10*
D11*
X1280647Y1413804D02*
X1284059Y1413804D01*
X1284059Y1413804D02*
X1281866Y1408686D01*
D10*
D11*
X1478716Y1411611D02*
X1478229Y1411854D01*
X1478229Y1411854D02*
X1477985Y1412098D01*
X1477985Y1412098D02*
X1477741Y1412586D01*
X1477741Y1412586D02*
X1477741Y1412829D01*
X1477741Y1412829D02*
X1477985Y1413317D01*
X1477985Y1413317D02*
X1478229Y1413561D01*
X1478229Y1413561D02*
X1478716Y1413804D01*
X1478716Y1413804D02*
X1479691Y1413804D01*
X1479691Y1413804D02*
X1480178Y1413561D01*
X1480178Y1413561D02*
X1480422Y1413317D01*
X1480422Y1413317D02*
X1480666Y1412829D01*
X1480666Y1412829D02*
X1480666Y1412586D01*
X1480666Y1412586D02*
X1480422Y1412098D01*
X1480422Y1412098D02*
X1480178Y1411854D01*
X1480178Y1411854D02*
X1479691Y1411611D01*
X1479691Y1411611D02*
X1478716Y1411611D01*
X1478716Y1411611D02*
X1478229Y1411367D01*
X1478229Y1411367D02*
X1477985Y1411123D01*
X1477985Y1411123D02*
X1477741Y1410636D01*
X1477741Y1410636D02*
X1477741Y1409661D01*
X1477741Y1409661D02*
X1477985Y1409174D01*
X1477985Y1409174D02*
X1478229Y1408930D01*
X1478229Y1408930D02*
X1478716Y1408686D01*
X1478716Y1408686D02*
X1479691Y1408686D01*
X1479691Y1408686D02*
X1480178Y1408930D01*
X1480178Y1408930D02*
X1480422Y1409174D01*
X1480422Y1409174D02*
X1480666Y1409661D01*
X1480666Y1409661D02*
X1480666Y1410636D01*
X1480666Y1410636D02*
X1480422Y1411123D01*
X1480422Y1411123D02*
X1480178Y1411367D01*
X1480178Y1411367D02*
X1479691Y1411611D01*
D10*
D11*
X0196850Y0007874D02*
X0196850Y0000000D01*
D10*
D11*
X0393701Y0007874D02*
X0393701Y0000000D01*
D10*
D11*
X0590551Y0007874D02*
X0590551Y0000000D01*
D10*
D11*
X0787401Y0007874D02*
X0787401Y0000000D01*
D10*
D11*
X0984252Y0007874D02*
X0984252Y0000000D01*
D10*
D11*
X1181102Y0007874D02*
X1181102Y0000000D01*
D10*
D11*
X1377953Y0007874D02*
X1377953Y0000000D01*
D10*
D11*
X1574803Y0007874D02*
X1574803Y0000000D01*
D10*
D11*
X0102713Y0001600D02*
X0099788Y0001600D01*
X0101251Y0001600D02*
X0101251Y0006718D01*
X0101251Y0006718D02*
X0100763Y0005986D01*
X0100763Y0005986D02*
X0100276Y0005499D01*
X0100276Y0005499D02*
X0099788Y0005255D01*
D10*
D11*
X0296639Y0006230D02*
X0296883Y0006474D01*
X0296883Y0006474D02*
X0297370Y0006718D01*
X0297370Y0006718D02*
X0298589Y0006718D01*
X0298589Y0006718D02*
X0299076Y0006474D01*
X0299076Y0006474D02*
X0299320Y0006230D01*
X0299320Y0006230D02*
X0299563Y0005743D01*
X0299563Y0005743D02*
X0299563Y0005255D01*
X0299563Y0005255D02*
X0299320Y0004524D01*
X0299320Y0004524D02*
X0296395Y0001600D01*
X0296395Y0001600D02*
X0299563Y0001600D01*
D10*
D11*
X0493245Y0006718D02*
X0496414Y0006718D01*
X0496414Y0006718D02*
X0494708Y0004768D01*
X0494708Y0004768D02*
X0495439Y0004768D01*
X0495439Y0004768D02*
X0495926Y0004524D01*
X0495926Y0004524D02*
X0496170Y0004280D01*
X0496170Y0004280D02*
X0496414Y0003793D01*
X0496414Y0003793D02*
X0496414Y0002574D01*
X0496414Y0002574D02*
X0496170Y0002087D01*
X0496170Y0002087D02*
X0495926Y0001843D01*
X0495926Y0001843D02*
X0495439Y0001600D01*
X0495439Y0001600D02*
X0493977Y0001600D01*
X0493977Y0001600D02*
X0493489Y0001843D01*
X0493489Y0001843D02*
X0493245Y0002087D01*
D10*
D11*
X0692777Y0005012D02*
X0692777Y0001600D01*
X0691558Y0006961D02*
X0690340Y0003306D01*
X0690340Y0003306D02*
X0693508Y0003306D01*
D10*
D11*
X0889871Y0006718D02*
X0887434Y0006718D01*
X0887434Y0006718D02*
X0887190Y0004280D01*
X0887190Y0004280D02*
X0887434Y0004524D01*
X0887434Y0004524D02*
X0887921Y0004768D01*
X0887921Y0004768D02*
X0889140Y0004768D01*
X0889140Y0004768D02*
X0889627Y0004524D01*
X0889627Y0004524D02*
X0889871Y0004280D01*
X0889871Y0004280D02*
X0890115Y0003793D01*
X0890115Y0003793D02*
X0890115Y0002574D01*
X0890115Y0002574D02*
X0889871Y0002087D01*
X0889871Y0002087D02*
X0889627Y0001843D01*
X0889627Y0001843D02*
X0889140Y0001600D01*
X0889140Y0001600D02*
X0887921Y0001600D01*
X0887921Y0001600D02*
X0887434Y0001843D01*
X0887434Y0001843D02*
X0887190Y0002087D01*
D10*
D11*
X1086478Y0006718D02*
X1085503Y0006718D01*
X1085503Y0006718D02*
X1085015Y0006474D01*
X1085015Y0006474D02*
X1084772Y0006230D01*
X1084772Y0006230D02*
X1084284Y0005499D01*
X1084284Y0005499D02*
X1084040Y0004524D01*
X1084040Y0004524D02*
X1084040Y0002574D01*
X1084040Y0002574D02*
X1084284Y0002087D01*
X1084284Y0002087D02*
X1084528Y0001843D01*
X1084528Y0001843D02*
X1085015Y0001600D01*
X1085015Y0001600D02*
X1085990Y0001600D01*
X1085990Y0001600D02*
X1086478Y0001843D01*
X1086478Y0001843D02*
X1086721Y0002087D01*
X1086721Y0002087D02*
X1086965Y0002574D01*
X1086965Y0002574D02*
X1086965Y0003793D01*
X1086965Y0003793D02*
X1086721Y0004280D01*
X1086721Y0004280D02*
X1086478Y0004524D01*
X1086478Y0004524D02*
X1085990Y0004768D01*
X1085990Y0004768D02*
X1085015Y0004768D01*
X1085015Y0004768D02*
X1084528Y0004524D01*
X1084528Y0004524D02*
X1084284Y0004280D01*
X1084284Y0004280D02*
X1084040Y0003793D01*
D10*
D11*
X1280647Y0006718D02*
X1284059Y0006718D01*
X1284059Y0006718D02*
X1281866Y0001600D01*
D10*
D11*
X1478716Y0004524D02*
X1478229Y0004768D01*
X1478229Y0004768D02*
X1477985Y0005012D01*
X1477985Y0005012D02*
X1477741Y0005499D01*
X1477741Y0005499D02*
X1477741Y0005743D01*
X1477741Y0005743D02*
X1477985Y0006230D01*
X1477985Y0006230D02*
X1478229Y0006474D01*
X1478229Y0006474D02*
X1478716Y0006718D01*
X1478716Y0006718D02*
X1479691Y0006718D01*
X1479691Y0006718D02*
X1480178Y0006474D01*
X1480178Y0006474D02*
X1480422Y0006230D01*
X1480422Y0006230D02*
X1480666Y0005743D01*
X1480666Y0005743D02*
X1480666Y0005499D01*
X1480666Y0005499D02*
X1480422Y0005012D01*
X1480422Y0005012D02*
X1480178Y0004768D01*
X1480178Y0004768D02*
X1479691Y0004524D01*
X1479691Y0004524D02*
X1478716Y0004524D01*
X1478716Y0004524D02*
X1478229Y0004280D01*
X1478229Y0004280D02*
X1477985Y0004037D01*
X1477985Y0004037D02*
X1477741Y0003549D01*
X1477741Y0003549D02*
X1477741Y0002574D01*
X1477741Y0002574D02*
X1477985Y0002087D01*
X1477985Y0002087D02*
X1478229Y0001843D01*
X1478229Y0001843D02*
X1478716Y0001600D01*
X1478716Y0001600D02*
X1479691Y0001600D01*
X1479691Y0001600D02*
X1480178Y0001843D01*
X1480178Y0001843D02*
X1480422Y0002087D01*
X1480422Y0002087D02*
X1480666Y0002574D01*
X1480666Y0002574D02*
X1480666Y0003549D01*
X1480666Y0003549D02*
X1480422Y0004037D01*
X1480422Y0004037D02*
X1480178Y0004280D01*
X1480178Y0004280D02*
X1479691Y0004524D01*
D10*
D11*
X0000000Y1218110D02*
X0007874Y1218110D01*
D10*
D11*
X0000000Y1021259D02*
X0007874Y1021259D01*
D10*
D11*
X0000000Y0824409D02*
X0007874Y0824409D01*
D10*
D11*
X0000000Y0627559D02*
X0007874Y0627559D01*
D10*
D11*
X0000000Y0430708D02*
X0007874Y0430708D01*
D10*
D11*
X0000000Y0233858D02*
X0007874Y0233858D01*
D10*
D11*
X0000000Y0037007D02*
X0007874Y0037007D01*
D10*
D11*
X0002718Y1315660D02*
X0005155Y1315660D01*
X0002231Y1314198D02*
X0003937Y1319316D01*
X0003937Y1319316D02*
X0005643Y1314198D01*
D10*
D11*
X0004302Y1120028D02*
X0005034Y1119785D01*
X0005034Y1119785D02*
X0005277Y1119541D01*
X0005277Y1119541D02*
X0005521Y1119054D01*
X0005521Y1119054D02*
X0005521Y1118322D01*
X0005521Y1118322D02*
X0005277Y1117835D01*
X0005277Y1117835D02*
X0005034Y1117591D01*
X0005034Y1117591D02*
X0004546Y1117348D01*
X0004546Y1117348D02*
X0002596Y1117348D01*
X0002596Y1117348D02*
X0002596Y1122466D01*
X0002596Y1122466D02*
X0004302Y1122466D01*
X0004302Y1122466D02*
X0004790Y1122222D01*
X0004790Y1122222D02*
X0005034Y1121978D01*
X0005034Y1121978D02*
X0005277Y1121491D01*
X0005277Y1121491D02*
X0005277Y1121003D01*
X0005277Y1121003D02*
X0005034Y1120516D01*
X0005034Y1120516D02*
X0004790Y1120272D01*
X0004790Y1120272D02*
X0004302Y1120028D01*
X0004302Y1120028D02*
X0002596Y1120028D01*
D10*
D11*
X0005521Y0920985D02*
X0005277Y0920741D01*
X0005277Y0920741D02*
X0004546Y0920497D01*
X0004546Y0920497D02*
X0004059Y0920497D01*
X0004059Y0920497D02*
X0003328Y0920741D01*
X0003328Y0920741D02*
X0002840Y0921228D01*
X0002840Y0921228D02*
X0002596Y0921716D01*
X0002596Y0921716D02*
X0002353Y0922691D01*
X0002353Y0922691D02*
X0002353Y0923422D01*
X0002353Y0923422D02*
X0002596Y0924397D01*
X0002596Y0924397D02*
X0002840Y0924884D01*
X0002840Y0924884D02*
X0003328Y0925372D01*
X0003328Y0925372D02*
X0004059Y0925615D01*
X0004059Y0925615D02*
X0004546Y0925615D01*
X0004546Y0925615D02*
X0005277Y0925372D01*
X0005277Y0925372D02*
X0005521Y0925128D01*
D10*
D11*
X0002596Y0723647D02*
X0002596Y0728765D01*
X0002596Y0728765D02*
X0003815Y0728765D01*
X0003815Y0728765D02*
X0004546Y0728521D01*
X0004546Y0728521D02*
X0005034Y0728034D01*
X0005034Y0728034D02*
X0005277Y0727546D01*
X0005277Y0727546D02*
X0005521Y0726571D01*
X0005521Y0726571D02*
X0005521Y0725840D01*
X0005521Y0725840D02*
X0005277Y0724865D01*
X0005277Y0724865D02*
X0005034Y0724378D01*
X0005034Y0724378D02*
X0004546Y0723890D01*
X0004546Y0723890D02*
X0003815Y0723647D01*
X0003815Y0723647D02*
X0002596Y0723647D01*
D10*
D11*
X0002840Y0529477D02*
X0004546Y0529477D01*
X0005277Y0526796D02*
X0002840Y0526796D01*
X0002840Y0526796D02*
X0002840Y0531914D01*
X0002840Y0531914D02*
X0005277Y0531914D01*
D10*
D11*
X0004668Y0332627D02*
X0002962Y0332627D01*
X0002962Y0329946D02*
X0002962Y0335064D01*
X0002962Y0335064D02*
X0005399Y0335064D01*
D10*
D11*
X0005277Y0137970D02*
X0004790Y0138214D01*
X0004790Y0138214D02*
X0004059Y0138214D01*
X0004059Y0138214D02*
X0003328Y0137970D01*
X0003328Y0137970D02*
X0002840Y0137483D01*
X0002840Y0137483D02*
X0002596Y0136995D01*
X0002596Y0136995D02*
X0002353Y0136020D01*
X0002353Y0136020D02*
X0002353Y0135289D01*
X0002353Y0135289D02*
X0002596Y0134314D01*
X0002596Y0134314D02*
X0002840Y0133827D01*
X0002840Y0133827D02*
X0003328Y0133339D01*
X0003328Y0133339D02*
X0004059Y0133096D01*
X0004059Y0133096D02*
X0004546Y0133096D01*
X0004546Y0133096D02*
X0005277Y0133339D01*
X0005277Y0133339D02*
X0005521Y0133583D01*
X0005521Y0133583D02*
X0005521Y0135289D01*
X0005521Y0135289D02*
X0004546Y0135289D01*
D10*
D11*
X1621260Y1218110D02*
X1613386Y1218110D01*
D10*
D11*
X1621260Y1021259D02*
X1613386Y1021259D01*
D10*
D11*
X1621260Y0824409D02*
X1613386Y0824409D01*
D10*
D11*
X1621260Y0627559D02*
X1613386Y0627559D01*
D10*
D11*
X1621260Y0430708D02*
X1613386Y0430708D01*
D10*
D11*
X1621260Y0233858D02*
X1613386Y0233858D01*
D10*
D11*
X1621260Y0037007D02*
X1613386Y0037007D01*
D10*
D11*
X1616104Y1315660D02*
X1618541Y1315660D01*
X1615617Y1314198D02*
X1617323Y1319316D01*
X1617323Y1319316D02*
X1619029Y1314198D01*
D10*
D11*
X1617688Y1120028D02*
X1618419Y1119785D01*
X1618419Y1119785D02*
X1618663Y1119541D01*
X1618663Y1119541D02*
X1618907Y1119054D01*
X1618907Y1119054D02*
X1618907Y1118322D01*
X1618907Y1118322D02*
X1618663Y1117835D01*
X1618663Y1117835D02*
X1618419Y1117591D01*
X1618419Y1117591D02*
X1617932Y1117348D01*
X1617932Y1117348D02*
X1615982Y1117348D01*
X1615982Y1117348D02*
X1615982Y1122466D01*
X1615982Y1122466D02*
X1617688Y1122466D01*
X1617688Y1122466D02*
X1618176Y1122222D01*
X1618176Y1122222D02*
X1618419Y1121978D01*
X1618419Y1121978D02*
X1618663Y1121491D01*
X1618663Y1121491D02*
X1618663Y1121003D01*
X1618663Y1121003D02*
X1618419Y1120516D01*
X1618419Y1120516D02*
X1618176Y1120272D01*
X1618176Y1120272D02*
X1617688Y1120028D01*
X1617688Y1120028D02*
X1615982Y1120028D01*
D10*
D11*
X1618907Y0920985D02*
X1618663Y0920741D01*
X1618663Y0920741D02*
X1617932Y0920497D01*
X1617932Y0920497D02*
X1617445Y0920497D01*
X1617445Y0920497D02*
X1616713Y0920741D01*
X1616713Y0920741D02*
X1616226Y0921228D01*
X1616226Y0921228D02*
X1615982Y0921716D01*
X1615982Y0921716D02*
X1615738Y0922691D01*
X1615738Y0922691D02*
X1615738Y0923422D01*
X1615738Y0923422D02*
X1615982Y0924397D01*
X1615982Y0924397D02*
X1616226Y0924884D01*
X1616226Y0924884D02*
X1616713Y0925372D01*
X1616713Y0925372D02*
X1617445Y0925615D01*
X1617445Y0925615D02*
X1617932Y0925615D01*
X1617932Y0925615D02*
X1618663Y0925372D01*
X1618663Y0925372D02*
X1618907Y0925128D01*
D10*
D11*
X1615982Y0723647D02*
X1615982Y0728765D01*
X1615982Y0728765D02*
X1617201Y0728765D01*
X1617201Y0728765D02*
X1617932Y0728521D01*
X1617932Y0728521D02*
X1618419Y0728034D01*
X1618419Y0728034D02*
X1618663Y0727546D01*
X1618663Y0727546D02*
X1618907Y0726571D01*
X1618907Y0726571D02*
X1618907Y0725840D01*
X1618907Y0725840D02*
X1618663Y0724865D01*
X1618663Y0724865D02*
X1618419Y0724378D01*
X1618419Y0724378D02*
X1617932Y0723890D01*
X1617932Y0723890D02*
X1617201Y0723647D01*
X1617201Y0723647D02*
X1615982Y0723647D01*
D10*
D11*
X1616226Y0529477D02*
X1617932Y0529477D01*
X1618663Y0526796D02*
X1616226Y0526796D01*
X1616226Y0526796D02*
X1616226Y0531914D01*
X1616226Y0531914D02*
X1618663Y0531914D01*
D10*
D11*
X1618054Y0332627D02*
X1616348Y0332627D01*
X1616348Y0329946D02*
X1616348Y0335064D01*
X1616348Y0335064D02*
X1618785Y0335064D01*
D10*
D11*
X1618663Y0137970D02*
X1618176Y0138214D01*
X1618176Y0138214D02*
X1617445Y0138214D01*
X1617445Y0138214D02*
X1616713Y0137970D01*
X1616713Y0137970D02*
X1616226Y0137483D01*
X1616226Y0137483D02*
X1615982Y0136995D01*
X1615982Y0136995D02*
X1615738Y0136020D01*
X1615738Y0136020D02*
X1615738Y0135289D01*
X1615738Y0135289D02*
X1615982Y0134314D01*
X1615982Y0134314D02*
X1616226Y0133827D01*
X1616226Y0133827D02*
X1616713Y0133339D01*
X1616713Y0133339D02*
X1617445Y0133096D01*
X1617445Y0133096D02*
X1617932Y0133096D01*
X1617932Y0133096D02*
X1618663Y0133339D01*
X1618663Y0133339D02*
X1618907Y0133583D01*
X1618907Y0133583D02*
X1618907Y0135289D01*
X1618907Y0135289D02*
X1617932Y0135289D01*
D10*
D11*
X1280535Y0024464D02*
X1280535Y0030369D01*
X1280535Y0030369D02*
X1281941Y0030369D01*
X1281941Y0030369D02*
X1282784Y0030088D01*
X1282784Y0030088D02*
X1283347Y0029525D01*
X1283347Y0029525D02*
X1283628Y0028963D01*
X1283628Y0028963D02*
X1283909Y0027838D01*
X1283909Y0027838D02*
X1283909Y0026995D01*
X1283909Y0026995D02*
X1283628Y0025870D01*
X1283628Y0025870D02*
X1283347Y0025307D01*
X1283347Y0025307D02*
X1282784Y0024745D01*
X1282784Y0024745D02*
X1281941Y0024464D01*
X1281941Y0024464D02*
X1280535Y0024464D01*
X1288971Y0024464D02*
X1288971Y0027557D01*
X1288971Y0027557D02*
X1288690Y0028119D01*
X1288690Y0028119D02*
X1288127Y0028401D01*
X1288127Y0028401D02*
X1287003Y0028401D01*
X1287003Y0028401D02*
X1286440Y0028119D01*
X1288971Y0024745D02*
X1288409Y0024464D01*
X1288409Y0024464D02*
X1287003Y0024464D01*
X1287003Y0024464D02*
X1286440Y0024745D01*
X1286440Y0024745D02*
X1286159Y0025307D01*
X1286159Y0025307D02*
X1286159Y0025870D01*
X1286159Y0025870D02*
X1286440Y0026432D01*
X1286440Y0026432D02*
X1287003Y0026713D01*
X1287003Y0026713D02*
X1288409Y0026713D01*
X1288409Y0026713D02*
X1288971Y0026995D01*
X1290940Y0028401D02*
X1293189Y0028401D01*
X1291783Y0030369D02*
X1291783Y0025307D01*
X1291783Y0025307D02*
X1292064Y0024745D01*
X1292064Y0024745D02*
X1292627Y0024464D01*
X1292627Y0024464D02*
X1293189Y0024464D01*
X1297407Y0024745D02*
X1296845Y0024464D01*
X1296845Y0024464D02*
X1295720Y0024464D01*
X1295720Y0024464D02*
X1295158Y0024745D01*
X1295158Y0024745D02*
X1294877Y0025307D01*
X1294877Y0025307D02*
X1294877Y0027557D01*
X1294877Y0027557D02*
X1295158Y0028119D01*
X1295158Y0028119D02*
X1295720Y0028401D01*
X1295720Y0028401D02*
X1296845Y0028401D01*
X1296845Y0028401D02*
X1297407Y0028119D01*
X1297407Y0028119D02*
X1297689Y0027557D01*
X1297689Y0027557D02*
X1297689Y0026995D01*
X1297689Y0026995D02*
X1294877Y0026432D01*
X1300220Y0025026D02*
X1300501Y0024745D01*
X1300501Y0024745D02*
X1300220Y0024464D01*
X1300220Y0024464D02*
X1299938Y0024745D01*
X1299938Y0024745D02*
X1300220Y0025026D01*
X1300220Y0025026D02*
X1300220Y0024464D01*
X1300220Y0028119D02*
X1300501Y0027838D01*
X1300501Y0027838D02*
X1300220Y0027557D01*
X1300220Y0027557D02*
X1299938Y0027838D01*
X1299938Y0027838D02*
X1300220Y0028119D01*
X1300220Y0028119D02*
X1300220Y0027557D01*
X1307250Y0029807D02*
X1307531Y0030088D01*
X1307531Y0030088D02*
X1308094Y0030369D01*
X1308094Y0030369D02*
X1309500Y0030369D01*
X1309500Y0030369D02*
X1310062Y0030088D01*
X1310062Y0030088D02*
X1310343Y0029807D01*
X1310343Y0029807D02*
X1310625Y0029244D01*
X1310625Y0029244D02*
X1310625Y0028682D01*
X1310625Y0028682D02*
X1310343Y0027838D01*
X1310343Y0027838D02*
X1306969Y0024464D01*
X1306969Y0024464D02*
X1310625Y0024464D01*
X1314280Y0030369D02*
X1314843Y0030369D01*
X1314843Y0030369D02*
X1315405Y0030088D01*
X1315405Y0030088D02*
X1315686Y0029807D01*
X1315686Y0029807D02*
X1315968Y0029244D01*
X1315968Y0029244D02*
X1316249Y0028119D01*
X1316249Y0028119D02*
X1316249Y0026713D01*
X1316249Y0026713D02*
X1315968Y0025588D01*
X1315968Y0025588D02*
X1315686Y0025026D01*
X1315686Y0025026D02*
X1315405Y0024745D01*
X1315405Y0024745D02*
X1314843Y0024464D01*
X1314843Y0024464D02*
X1314280Y0024464D01*
X1314280Y0024464D02*
X1313718Y0024745D01*
X1313718Y0024745D02*
X1313437Y0025026D01*
X1313437Y0025026D02*
X1313155Y0025588D01*
X1313155Y0025588D02*
X1312874Y0026713D01*
X1312874Y0026713D02*
X1312874Y0028119D01*
X1312874Y0028119D02*
X1313155Y0029244D01*
X1313155Y0029244D02*
X1313437Y0029807D01*
X1313437Y0029807D02*
X1313718Y0030088D01*
X1313718Y0030088D02*
X1314280Y0030369D01*
X1318499Y0029807D02*
X1318780Y0030088D01*
X1318780Y0030088D02*
X1319342Y0030369D01*
X1319342Y0030369D02*
X1320748Y0030369D01*
X1320748Y0030369D02*
X1321311Y0030088D01*
X1321311Y0030088D02*
X1321592Y0029807D01*
X1321592Y0029807D02*
X1321873Y0029244D01*
X1321873Y0029244D02*
X1321873Y0028682D01*
X1321873Y0028682D02*
X1321592Y0027838D01*
X1321592Y0027838D02*
X1318217Y0024464D01*
X1318217Y0024464D02*
X1321873Y0024464D01*
X1324123Y0029807D02*
X1324404Y0030088D01*
X1324404Y0030088D02*
X1324967Y0030369D01*
X1324967Y0030369D02*
X1326373Y0030369D01*
X1326373Y0030369D02*
X1326935Y0030088D01*
X1326935Y0030088D02*
X1327216Y0029807D01*
X1327216Y0029807D02*
X1327497Y0029244D01*
X1327497Y0029244D02*
X1327497Y0028682D01*
X1327497Y0028682D02*
X1327216Y0027838D01*
X1327216Y0027838D02*
X1323842Y0024464D01*
X1323842Y0024464D02*
X1327497Y0024464D01*
X1330028Y0026713D02*
X1334528Y0026713D01*
X1340433Y0024464D02*
X1337059Y0024464D01*
X1338746Y0024464D02*
X1338746Y0030369D01*
X1338746Y0030369D02*
X1338184Y0029525D01*
X1338184Y0029525D02*
X1337621Y0028963D01*
X1337621Y0028963D02*
X1337059Y0028682D01*
X1344089Y0030369D02*
X1344652Y0030369D01*
X1344652Y0030369D02*
X1345214Y0030088D01*
X1345214Y0030088D02*
X1345495Y0029807D01*
X1345495Y0029807D02*
X1345776Y0029244D01*
X1345776Y0029244D02*
X1346058Y0028119D01*
X1346058Y0028119D02*
X1346058Y0026713D01*
X1346058Y0026713D02*
X1345776Y0025588D01*
X1345776Y0025588D02*
X1345495Y0025026D01*
X1345495Y0025026D02*
X1345214Y0024745D01*
X1345214Y0024745D02*
X1344652Y0024464D01*
X1344652Y0024464D02*
X1344089Y0024464D01*
X1344089Y0024464D02*
X1343527Y0024745D01*
X1343527Y0024745D02*
X1343245Y0025026D01*
X1343245Y0025026D02*
X1342964Y0025588D01*
X1342964Y0025588D02*
X1342683Y0026713D01*
X1342683Y0026713D02*
X1342683Y0028119D01*
X1342683Y0028119D02*
X1342964Y0029244D01*
X1342964Y0029244D02*
X1343245Y0029807D01*
X1343245Y0029807D02*
X1343527Y0030088D01*
X1343527Y0030088D02*
X1344089Y0030369D01*
X1348589Y0026713D02*
X1353088Y0026713D01*
X1358994Y0024464D02*
X1355619Y0024464D01*
X1357306Y0024464D02*
X1357306Y0030369D01*
X1357306Y0030369D02*
X1356744Y0029525D01*
X1356744Y0029525D02*
X1356181Y0028963D01*
X1356181Y0028963D02*
X1355619Y0028682D01*
X1364055Y0028401D02*
X1364055Y0024464D01*
X1362649Y0030650D02*
X1361243Y0026432D01*
X1361243Y0026432D02*
X1364899Y0026432D01*
D10*
D11*
X1188189Y0021653D02*
X1613386Y0021653D01*
D10*
D11*
X1193920Y0013440D02*
X1193920Y0019345D01*
X1197295Y0013440D02*
X1194764Y0016815D01*
X1197295Y0019345D02*
X1193920Y0015971D01*
X1199826Y0013440D02*
X1199826Y0017377D01*
X1199826Y0019345D02*
X1199545Y0019064D01*
X1199545Y0019064D02*
X1199826Y0018783D01*
X1199826Y0018783D02*
X1200107Y0019064D01*
X1200107Y0019064D02*
X1199826Y0019345D01*
X1199826Y0019345D02*
X1199826Y0018783D01*
X1206013Y0014002D02*
X1205731Y0013721D01*
X1205731Y0013721D02*
X1204888Y0013440D01*
X1204888Y0013440D02*
X1204325Y0013440D01*
X1204325Y0013440D02*
X1203482Y0013721D01*
X1203482Y0013721D02*
X1202919Y0014284D01*
X1202919Y0014284D02*
X1202638Y0014846D01*
X1202638Y0014846D02*
X1202357Y0015971D01*
X1202357Y0015971D02*
X1202357Y0016815D01*
X1202357Y0016815D02*
X1202638Y0017939D01*
X1202638Y0017939D02*
X1202919Y0018502D01*
X1202919Y0018502D02*
X1203482Y0019064D01*
X1203482Y0019064D02*
X1204325Y0019345D01*
X1204325Y0019345D02*
X1204888Y0019345D01*
X1204888Y0019345D02*
X1205731Y0019064D01*
X1205731Y0019064D02*
X1206013Y0018783D01*
X1211075Y0013440D02*
X1211075Y0016533D01*
X1211075Y0016533D02*
X1210793Y0017096D01*
X1210793Y0017096D02*
X1210231Y0017377D01*
X1210231Y0017377D02*
X1209106Y0017377D01*
X1209106Y0017377D02*
X1208544Y0017096D01*
X1211075Y0013721D02*
X1210512Y0013440D01*
X1210512Y0013440D02*
X1209106Y0013440D01*
X1209106Y0013440D02*
X1208544Y0013721D01*
X1208544Y0013721D02*
X1208262Y0014284D01*
X1208262Y0014284D02*
X1208262Y0014846D01*
X1208262Y0014846D02*
X1208544Y0015408D01*
X1208544Y0015408D02*
X1209106Y0015690D01*
X1209106Y0015690D02*
X1210512Y0015690D01*
X1210512Y0015690D02*
X1211075Y0015971D01*
X1216418Y0013440D02*
X1216418Y0019345D01*
X1216418Y0013721D02*
X1215855Y0013440D01*
X1215855Y0013440D02*
X1214730Y0013440D01*
X1214730Y0013440D02*
X1214168Y0013721D01*
X1214168Y0013721D02*
X1213887Y0014002D01*
X1213887Y0014002D02*
X1213605Y0014565D01*
X1213605Y0014565D02*
X1213605Y0016252D01*
X1213605Y0016252D02*
X1213887Y0016815D01*
X1213887Y0016815D02*
X1214168Y0017096D01*
X1214168Y0017096D02*
X1214730Y0017377D01*
X1214730Y0017377D02*
X1215855Y0017377D01*
X1215855Y0017377D02*
X1216418Y0017096D01*
X1223729Y0016533D02*
X1225698Y0016533D01*
X1226541Y0013440D02*
X1223729Y0013440D01*
X1223729Y0013440D02*
X1223729Y0019345D01*
X1223729Y0019345D02*
X1226541Y0019345D01*
X1229072Y0014002D02*
X1229353Y0013721D01*
X1229353Y0013721D02*
X1229072Y0013440D01*
X1229072Y0013440D02*
X1228791Y0013721D01*
X1228791Y0013721D02*
X1229072Y0014002D01*
X1229072Y0014002D02*
X1229072Y0013440D01*
X1231884Y0013440D02*
X1231884Y0019345D01*
X1231884Y0019345D02*
X1233290Y0019345D01*
X1233290Y0019345D02*
X1234134Y0019064D01*
X1234134Y0019064D02*
X1234697Y0018502D01*
X1234697Y0018502D02*
X1234978Y0017939D01*
X1234978Y0017939D02*
X1235259Y0016815D01*
X1235259Y0016815D02*
X1235259Y0015971D01*
X1235259Y0015971D02*
X1234978Y0014846D01*
X1234978Y0014846D02*
X1234697Y0014284D01*
X1234697Y0014284D02*
X1234134Y0013721D01*
X1234134Y0013721D02*
X1233290Y0013440D01*
X1233290Y0013440D02*
X1231884Y0013440D01*
X1237790Y0014002D02*
X1238071Y0013721D01*
X1238071Y0013721D02*
X1237790Y0013440D01*
X1237790Y0013440D02*
X1237509Y0013721D01*
X1237509Y0013721D02*
X1237790Y0014002D01*
X1237790Y0014002D02*
X1237790Y0013440D01*
X1240321Y0015127D02*
X1243133Y0015127D01*
X1239758Y0013440D02*
X1241727Y0019345D01*
X1241727Y0019345D02*
X1243695Y0013440D01*
X1245664Y0014002D02*
X1245945Y0013721D01*
X1245945Y0013721D02*
X1245664Y0013440D01*
X1245664Y0013440D02*
X1245383Y0013721D01*
X1245383Y0013721D02*
X1245664Y0014002D01*
X1245664Y0014002D02*
X1245664Y0013440D01*
X1253819Y0016815D02*
X1253257Y0017096D01*
X1253257Y0017096D02*
X1252976Y0017377D01*
X1252976Y0017377D02*
X1252694Y0017939D01*
X1252694Y0017939D02*
X1252694Y0018221D01*
X1252694Y0018221D02*
X1252976Y0018783D01*
X1252976Y0018783D02*
X1253257Y0019064D01*
X1253257Y0019064D02*
X1253819Y0019345D01*
X1253819Y0019345D02*
X1254944Y0019345D01*
X1254944Y0019345D02*
X1255506Y0019064D01*
X1255506Y0019064D02*
X1255788Y0018783D01*
X1255788Y0018783D02*
X1256069Y0018221D01*
X1256069Y0018221D02*
X1256069Y0017939D01*
X1256069Y0017939D02*
X1255788Y0017377D01*
X1255788Y0017377D02*
X1255506Y0017096D01*
X1255506Y0017096D02*
X1254944Y0016815D01*
X1254944Y0016815D02*
X1253819Y0016815D01*
X1253819Y0016815D02*
X1253257Y0016533D01*
X1253257Y0016533D02*
X1252976Y0016252D01*
X1252976Y0016252D02*
X1252694Y0015690D01*
X1252694Y0015690D02*
X1252694Y0014565D01*
X1252694Y0014565D02*
X1252976Y0014002D01*
X1252976Y0014002D02*
X1253257Y0013721D01*
X1253257Y0013721D02*
X1253819Y0013440D01*
X1253819Y0013440D02*
X1254944Y0013440D01*
X1254944Y0013440D02*
X1255506Y0013721D01*
X1255506Y0013721D02*
X1255788Y0014002D01*
X1255788Y0014002D02*
X1256069Y0014565D01*
X1256069Y0014565D02*
X1256069Y0015690D01*
X1256069Y0015690D02*
X1255788Y0016252D01*
X1255788Y0016252D02*
X1255506Y0016533D01*
X1255506Y0016533D02*
X1254944Y0016815D01*
X1258600Y0014002D02*
X1258881Y0013721D01*
X1258881Y0013721D02*
X1258600Y0013440D01*
X1258600Y0013440D02*
X1258319Y0013721D01*
X1258319Y0013721D02*
X1258600Y0014002D01*
X1258600Y0014002D02*
X1258600Y0013440D01*
X1262537Y0019345D02*
X1263099Y0019345D01*
X1263099Y0019345D02*
X1263662Y0019064D01*
X1263662Y0019064D02*
X1263943Y0018783D01*
X1263943Y0018783D02*
X1264224Y0018221D01*
X1264224Y0018221D02*
X1264505Y0017096D01*
X1264505Y0017096D02*
X1264505Y0015690D01*
X1264505Y0015690D02*
X1264224Y0014565D01*
X1264224Y0014565D02*
X1263943Y0014002D01*
X1263943Y0014002D02*
X1263662Y0013721D01*
X1263662Y0013721D02*
X1263099Y0013440D01*
X1263099Y0013440D02*
X1262537Y0013440D01*
X1262537Y0013440D02*
X1261974Y0013721D01*
X1261974Y0013721D02*
X1261693Y0014002D01*
X1261693Y0014002D02*
X1261412Y0014565D01*
X1261412Y0014565D02*
X1261131Y0015690D01*
X1261131Y0015690D02*
X1261131Y0017096D01*
X1261131Y0017096D02*
X1261412Y0018221D01*
X1261412Y0018221D02*
X1261693Y0018783D01*
X1261693Y0018783D02*
X1261974Y0019064D01*
X1261974Y0019064D02*
X1262537Y0019345D01*
X1267036Y0014002D02*
X1267317Y0013721D01*
X1267317Y0013721D02*
X1267036Y0013440D01*
X1267036Y0013440D02*
X1266755Y0013721D01*
X1266755Y0013721D02*
X1267036Y0014002D01*
X1267036Y0014002D02*
X1267036Y0013440D01*
X1270692Y0016815D02*
X1270130Y0017096D01*
X1270130Y0017096D02*
X1269848Y0017377D01*
X1269848Y0017377D02*
X1269567Y0017939D01*
X1269567Y0017939D02*
X1269567Y0018221D01*
X1269567Y0018221D02*
X1269848Y0018783D01*
X1269848Y0018783D02*
X1270130Y0019064D01*
X1270130Y0019064D02*
X1270692Y0019345D01*
X1270692Y0019345D02*
X1271817Y0019345D01*
X1271817Y0019345D02*
X1272379Y0019064D01*
X1272379Y0019064D02*
X1272661Y0018783D01*
X1272661Y0018783D02*
X1272942Y0018221D01*
X1272942Y0018221D02*
X1272942Y0017939D01*
X1272942Y0017939D02*
X1272661Y0017377D01*
X1272661Y0017377D02*
X1272379Y0017096D01*
X1272379Y0017096D02*
X1271817Y0016815D01*
X1271817Y0016815D02*
X1270692Y0016815D01*
X1270692Y0016815D02*
X1270130Y0016533D01*
X1270130Y0016533D02*
X1269848Y0016252D01*
X1269848Y0016252D02*
X1269567Y0015690D01*
X1269567Y0015690D02*
X1269567Y0014565D01*
X1269567Y0014565D02*
X1269848Y0014002D01*
X1269848Y0014002D02*
X1270130Y0013721D01*
X1270130Y0013721D02*
X1270692Y0013440D01*
X1270692Y0013440D02*
X1271817Y0013440D01*
X1271817Y0013440D02*
X1272379Y0013721D01*
X1272379Y0013721D02*
X1272661Y0014002D01*
X1272661Y0014002D02*
X1272942Y0014565D01*
X1272942Y0014565D02*
X1272942Y0015690D01*
X1272942Y0015690D02*
X1272661Y0016252D01*
X1272661Y0016252D02*
X1272379Y0016533D01*
X1272379Y0016533D02*
X1271817Y0016815D01*
D10*
D11*
X1188189Y0033464D02*
X1613386Y0033464D01*
D10*
D12*
X1532329Y0024494D02*
X1530361Y0027306D01*
X1528955Y0024494D02*
X1528955Y0030400D01*
X1528955Y0030400D02*
X1531204Y0030400D01*
X1531204Y0030400D02*
X1531767Y0030119D01*
X1531767Y0030119D02*
X1532048Y0029837D01*
X1532048Y0029837D02*
X1532329Y0029275D01*
X1532329Y0029275D02*
X1532329Y0028431D01*
X1532329Y0028431D02*
X1532048Y0027869D01*
X1532048Y0027869D02*
X1531767Y0027588D01*
X1531767Y0027588D02*
X1531204Y0027306D01*
X1531204Y0027306D02*
X1528955Y0027306D01*
X1537110Y0024776D02*
X1536547Y0024494D01*
X1536547Y0024494D02*
X1535423Y0024494D01*
X1535423Y0024494D02*
X1534860Y0024776D01*
X1534860Y0024776D02*
X1534579Y0025338D01*
X1534579Y0025338D02*
X1534579Y0027588D01*
X1534579Y0027588D02*
X1534860Y0028150D01*
X1534860Y0028150D02*
X1535423Y0028431D01*
X1535423Y0028431D02*
X1536547Y0028431D01*
X1536547Y0028431D02*
X1537110Y0028150D01*
X1537110Y0028150D02*
X1537391Y0027588D01*
X1537391Y0027588D02*
X1537391Y0027025D01*
X1537391Y0027025D02*
X1534579Y0026463D01*
X1539360Y0028431D02*
X1540766Y0024494D01*
X1540766Y0024494D02*
X1542172Y0028431D01*
X1544421Y0025057D02*
X1544703Y0024776D01*
X1544703Y0024776D02*
X1544421Y0024494D01*
X1544421Y0024494D02*
X1544140Y0024776D01*
X1544140Y0024776D02*
X1544421Y0025057D01*
X1544421Y0025057D02*
X1544421Y0024494D01*
X1544421Y0028150D02*
X1544703Y0027869D01*
X1544703Y0027869D02*
X1544421Y0027588D01*
X1544421Y0027588D02*
X1544140Y0027869D01*
X1544140Y0027869D02*
X1544421Y0028150D01*
X1544421Y0028150D02*
X1544421Y0027588D01*
X1554264Y0024494D02*
X1554264Y0030400D01*
X1554264Y0024776D02*
X1553701Y0024494D01*
X1553701Y0024494D02*
X1552577Y0024494D01*
X1552577Y0024494D02*
X1552014Y0024776D01*
X1552014Y0024776D02*
X1551733Y0025057D01*
X1551733Y0025057D02*
X1551452Y0025619D01*
X1551452Y0025619D02*
X1551452Y0027306D01*
X1551452Y0027306D02*
X1551733Y0027869D01*
X1551733Y0027869D02*
X1552014Y0028150D01*
X1552014Y0028150D02*
X1552577Y0028431D01*
X1552577Y0028431D02*
X1553701Y0028431D01*
X1553701Y0028431D02*
X1554264Y0028150D01*
D10*
D11*
X1193639Y0024745D02*
X1194483Y0024464D01*
X1194483Y0024464D02*
X1195889Y0024464D01*
X1195889Y0024464D02*
X1196451Y0024745D01*
X1196451Y0024745D02*
X1196733Y0025026D01*
X1196733Y0025026D02*
X1197014Y0025588D01*
X1197014Y0025588D02*
X1197014Y0026151D01*
X1197014Y0026151D02*
X1196733Y0026713D01*
X1196733Y0026713D02*
X1196451Y0026995D01*
X1196451Y0026995D02*
X1195889Y0027276D01*
X1195889Y0027276D02*
X1194764Y0027557D01*
X1194764Y0027557D02*
X1194202Y0027838D01*
X1194202Y0027838D02*
X1193920Y0028119D01*
X1193920Y0028119D02*
X1193639Y0028682D01*
X1193639Y0028682D02*
X1193639Y0029244D01*
X1193639Y0029244D02*
X1193920Y0029807D01*
X1193920Y0029807D02*
X1194202Y0030088D01*
X1194202Y0030088D02*
X1194764Y0030369D01*
X1194764Y0030369D02*
X1196170Y0030369D01*
X1196170Y0030369D02*
X1197014Y0030088D01*
X1199545Y0024464D02*
X1199545Y0028401D01*
X1199545Y0030369D02*
X1199263Y0030088D01*
X1199263Y0030088D02*
X1199545Y0029807D01*
X1199545Y0029807D02*
X1199826Y0030088D01*
X1199826Y0030088D02*
X1199545Y0030369D01*
X1199545Y0030369D02*
X1199545Y0029807D01*
X1201794Y0028401D02*
X1204888Y0028401D01*
X1204888Y0028401D02*
X1201794Y0024464D01*
X1201794Y0024464D02*
X1204888Y0024464D01*
X1209387Y0024745D02*
X1208825Y0024464D01*
X1208825Y0024464D02*
X1207700Y0024464D01*
X1207700Y0024464D02*
X1207137Y0024745D01*
X1207137Y0024745D02*
X1206856Y0025307D01*
X1206856Y0025307D02*
X1206856Y0027557D01*
X1206856Y0027557D02*
X1207137Y0028119D01*
X1207137Y0028119D02*
X1207700Y0028401D01*
X1207700Y0028401D02*
X1208825Y0028401D01*
X1208825Y0028401D02*
X1209387Y0028119D01*
X1209387Y0028119D02*
X1209668Y0027557D01*
X1209668Y0027557D02*
X1209668Y0026995D01*
X1209668Y0026995D02*
X1206856Y0026432D01*
X1212199Y0025026D02*
X1212481Y0024745D01*
X1212481Y0024745D02*
X1212199Y0024464D01*
X1212199Y0024464D02*
X1211918Y0024745D01*
X1211918Y0024745D02*
X1212199Y0025026D01*
X1212199Y0025026D02*
X1212199Y0024464D01*
X1212199Y0028119D02*
X1212481Y0027838D01*
X1212481Y0027838D02*
X1212199Y0027557D01*
X1212199Y0027557D02*
X1211918Y0027838D01*
X1211918Y0027838D02*
X1212199Y0028119D01*
X1212199Y0028119D02*
X1212199Y0027557D01*
X1219511Y0030369D02*
X1219511Y0025588D01*
X1219511Y0025588D02*
X1219792Y0025026D01*
X1219792Y0025026D02*
X1220073Y0024745D01*
X1220073Y0024745D02*
X1220636Y0024464D01*
X1220636Y0024464D02*
X1221761Y0024464D01*
X1221761Y0024464D02*
X1222323Y0024745D01*
X1222323Y0024745D02*
X1222604Y0025026D01*
X1222604Y0025026D02*
X1222886Y0025588D01*
X1222886Y0025588D02*
X1222886Y0030369D01*
X1225416Y0024745D02*
X1225979Y0024464D01*
X1225979Y0024464D02*
X1227104Y0024464D01*
X1227104Y0024464D02*
X1227666Y0024745D01*
X1227666Y0024745D02*
X1227947Y0025307D01*
X1227947Y0025307D02*
X1227947Y0025588D01*
X1227947Y0025588D02*
X1227666Y0026151D01*
X1227666Y0026151D02*
X1227104Y0026432D01*
X1227104Y0026432D02*
X1226260Y0026432D01*
X1226260Y0026432D02*
X1225698Y0026713D01*
X1225698Y0026713D02*
X1225416Y0027276D01*
X1225416Y0027276D02*
X1225416Y0027557D01*
X1225416Y0027557D02*
X1225698Y0028119D01*
X1225698Y0028119D02*
X1226260Y0028401D01*
X1226260Y0028401D02*
X1227104Y0028401D01*
X1227104Y0028401D02*
X1227666Y0028119D01*
X1232728Y0024745D02*
X1232166Y0024464D01*
X1232166Y0024464D02*
X1231041Y0024464D01*
X1231041Y0024464D02*
X1230478Y0024745D01*
X1230478Y0024745D02*
X1230197Y0025307D01*
X1230197Y0025307D02*
X1230197Y0027557D01*
X1230197Y0027557D02*
X1230478Y0028119D01*
X1230478Y0028119D02*
X1231041Y0028401D01*
X1231041Y0028401D02*
X1232166Y0028401D01*
X1232166Y0028401D02*
X1232728Y0028119D01*
X1232728Y0028119D02*
X1233009Y0027557D01*
X1233009Y0027557D02*
X1233009Y0026995D01*
X1233009Y0026995D02*
X1230197Y0026432D01*
X1235540Y0024464D02*
X1235540Y0028401D01*
X1235540Y0027276D02*
X1235821Y0027838D01*
X1235821Y0027838D02*
X1236103Y0028119D01*
X1236103Y0028119D02*
X1236665Y0028401D01*
X1236665Y0028401D02*
X1237227Y0028401D01*
D10*
D11*
X1528566Y0013440D02*
X1528566Y0019345D01*
X1533909Y0013440D02*
X1533909Y0019345D01*
X1533909Y0013721D02*
X1533347Y0013440D01*
X1533347Y0013440D02*
X1532222Y0013440D01*
X1532222Y0013440D02*
X1531659Y0013721D01*
X1531659Y0013721D02*
X1531378Y0014002D01*
X1531378Y0014002D02*
X1531097Y0014565D01*
X1531097Y0014565D02*
X1531097Y0016252D01*
X1531097Y0016252D02*
X1531378Y0016815D01*
X1531378Y0016815D02*
X1531659Y0017096D01*
X1531659Y0017096D02*
X1532222Y0017377D01*
X1532222Y0017377D02*
X1533347Y0017377D01*
X1533347Y0017377D02*
X1533909Y0017096D01*
X1536721Y0014002D02*
X1537003Y0013721D01*
X1537003Y0013721D02*
X1536721Y0013440D01*
X1536721Y0013440D02*
X1536440Y0013721D01*
X1536440Y0013721D02*
X1536721Y0014002D01*
X1536721Y0014002D02*
X1536721Y0013440D01*
X1536721Y0017096D02*
X1537003Y0016815D01*
X1537003Y0016815D02*
X1536721Y0016533D01*
X1536721Y0016533D02*
X1536440Y0016815D01*
X1536440Y0016815D02*
X1536721Y0017096D01*
X1536721Y0017096D02*
X1536721Y0016533D01*
X1547126Y0013440D02*
X1543752Y0013440D01*
X1545439Y0013440D02*
X1545439Y0019345D01*
X1545439Y0019345D02*
X1544877Y0018502D01*
X1544877Y0018502D02*
X1544314Y0017939D01*
X1544314Y0017939D02*
X1543752Y0017658D01*
X1553875Y0019627D02*
X1548814Y0012034D01*
X1558937Y0013440D02*
X1555563Y0013440D01*
X1557250Y0013440D02*
X1557250Y0019345D01*
X1557250Y0019345D02*
X1556688Y0018502D01*
X1556688Y0018502D02*
X1556125Y0017939D01*
X1556125Y0017939D02*
X1555563Y0017658D01*
D10*
D11*
X1188189Y0049212D02*
X1613386Y0049212D01*
D10*
D13*
X1194849Y0046439D02*
X1199349Y0046439D01*
X1196115Y0038565D02*
X1197099Y0046439D01*
X1200989Y0038565D02*
X1201645Y0043814D01*
X1201973Y0046439D02*
X1201551Y0046064D01*
X1201551Y0046064D02*
X1201880Y0045689D01*
X1201880Y0045689D02*
X1202301Y0046064D01*
X1202301Y0046064D02*
X1201973Y0046439D01*
X1201973Y0046439D02*
X1201880Y0045689D01*
X1204270Y0043814D02*
X1207269Y0043814D01*
X1205723Y0046439D02*
X1204879Y0039690D01*
X1204879Y0039690D02*
X1205160Y0038940D01*
X1205160Y0038940D02*
X1205863Y0038565D01*
X1205863Y0038565D02*
X1206613Y0038565D01*
X1210363Y0038565D02*
X1209660Y0038940D01*
X1209660Y0038940D02*
X1209379Y0039690D01*
X1209379Y0039690D02*
X1210222Y0046439D01*
X1216409Y0038940D02*
X1215612Y0038565D01*
X1215612Y0038565D02*
X1214112Y0038565D01*
X1214112Y0038565D02*
X1213409Y0038940D01*
X1213409Y0038940D02*
X1213128Y0039690D01*
X1213128Y0039690D02*
X1213503Y0042689D01*
X1213503Y0042689D02*
X1213972Y0043439D01*
X1213972Y0043439D02*
X1214769Y0043814D01*
X1214769Y0043814D02*
X1216268Y0043814D01*
X1216268Y0043814D02*
X1216971Y0043439D01*
X1216971Y0043439D02*
X1217253Y0042689D01*
X1217253Y0042689D02*
X1217159Y0041939D01*
X1217159Y0041939D02*
X1213316Y0041189D01*
X1220205Y0039315D02*
X1220533Y0038940D01*
X1220533Y0038940D02*
X1220112Y0038565D01*
X1220112Y0038565D02*
X1219784Y0038940D01*
X1219784Y0038940D02*
X1220205Y0039315D01*
X1220205Y0039315D02*
X1220112Y0038565D01*
X1220721Y0043439D02*
X1221049Y0043064D01*
X1221049Y0043064D02*
X1220627Y0042689D01*
X1220627Y0042689D02*
X1220299Y0043064D01*
X1220299Y0043064D02*
X1220721Y0043439D01*
X1220721Y0043439D02*
X1220627Y0042689D01*
X1229860Y0038565D02*
X1230845Y0046439D01*
X1230376Y0042689D02*
X1234875Y0042689D01*
X1234360Y0038565D02*
X1235344Y0046439D01*
X1241156Y0038940D02*
X1240359Y0038565D01*
X1240359Y0038565D02*
X1238859Y0038565D01*
X1238859Y0038565D02*
X1238156Y0038940D01*
X1238156Y0038940D02*
X1237875Y0039690D01*
X1237875Y0039690D02*
X1238250Y0042689D01*
X1238250Y0042689D02*
X1238719Y0043439D01*
X1238719Y0043439D02*
X1239515Y0043814D01*
X1239515Y0043814D02*
X1241015Y0043814D01*
X1241015Y0043814D02*
X1241718Y0043439D01*
X1241718Y0043439D02*
X1241999Y0042689D01*
X1241999Y0042689D02*
X1241906Y0041939D01*
X1241906Y0041939D02*
X1238062Y0041189D01*
X1245983Y0038565D02*
X1245280Y0038940D01*
X1245280Y0038940D02*
X1244999Y0039690D01*
X1244999Y0039690D02*
X1245843Y0046439D01*
X1250108Y0038565D02*
X1249405Y0038940D01*
X1249405Y0038940D02*
X1249124Y0039690D01*
X1249124Y0039690D02*
X1249967Y0046439D01*
X1256154Y0038940D02*
X1255357Y0038565D01*
X1255357Y0038565D02*
X1253857Y0038565D01*
X1253857Y0038565D02*
X1253154Y0038940D01*
X1253154Y0038940D02*
X1252873Y0039690D01*
X1252873Y0039690D02*
X1253248Y0042689D01*
X1253248Y0042689D02*
X1253717Y0043439D01*
X1253717Y0043439D02*
X1254514Y0043814D01*
X1254514Y0043814D02*
X1256013Y0043814D01*
X1256013Y0043814D02*
X1256716Y0043439D01*
X1256716Y0043439D02*
X1256998Y0042689D01*
X1256998Y0042689D02*
X1256904Y0041939D01*
X1256904Y0041939D02*
X1253061Y0041189D01*
X1260513Y0043814D02*
X1259857Y0038565D01*
X1260419Y0043064D02*
X1260841Y0043439D01*
X1260841Y0043439D02*
X1261638Y0043814D01*
X1261638Y0043814D02*
X1262763Y0043814D01*
X1262763Y0043814D02*
X1263466Y0043439D01*
X1263466Y0043439D02*
X1263747Y0042689D01*
X1263747Y0042689D02*
X1263231Y0038565D01*
X1271105Y0038565D02*
X1266606Y0038565D01*
X1268856Y0038565D02*
X1269840Y0046439D01*
X1269840Y0046439D02*
X1268949Y0045314D01*
X1268949Y0045314D02*
X1268106Y0044564D01*
X1268106Y0044564D02*
X1267309Y0044189D01*
X1274995Y0045689D02*
X1275417Y0046064D01*
X1275417Y0046064D02*
X1276214Y0046439D01*
X1276214Y0046439D02*
X1278089Y0046439D01*
X1278089Y0046439D02*
X1278792Y0046064D01*
X1278792Y0046064D02*
X1279120Y0045689D01*
X1279120Y0045689D02*
X1279401Y0044939D01*
X1279401Y0044939D02*
X1279307Y0044189D01*
X1279307Y0044189D02*
X1278792Y0043064D01*
X1278792Y0043064D02*
X1273730Y0038565D01*
X1273730Y0038565D02*
X1278604Y0038565D01*
X1286103Y0038565D02*
X1281604Y0038565D01*
X1283854Y0038565D02*
X1284838Y0046439D01*
X1284838Y0046439D02*
X1283947Y0045314D01*
X1283947Y0045314D02*
X1283104Y0044564D01*
X1283104Y0044564D02*
X1282307Y0044189D01*
X1289384Y0043814D02*
X1290603Y0038565D01*
X1290603Y0038565D02*
X1293134Y0043814D01*
X1298852Y0038565D02*
X1299367Y0042689D01*
X1299367Y0042689D02*
X1299086Y0043439D01*
X1299086Y0043439D02*
X1298383Y0043814D01*
X1298383Y0043814D02*
X1296883Y0043814D01*
X1296883Y0043814D02*
X1296086Y0043439D01*
X1298899Y0038940D02*
X1298102Y0038565D01*
X1298102Y0038565D02*
X1296227Y0038565D01*
X1296227Y0038565D02*
X1295524Y0038940D01*
X1295524Y0038940D02*
X1295243Y0039690D01*
X1295243Y0039690D02*
X1295337Y0040440D01*
X1295337Y0040440D02*
X1295805Y0041189D01*
X1295805Y0041189D02*
X1296602Y0041564D01*
X1296602Y0041564D02*
X1298477Y0041564D01*
X1298477Y0041564D02*
X1299274Y0041939D01*
X1306632Y0043814D02*
X1305835Y0037440D01*
X1305835Y0037440D02*
X1305367Y0036690D01*
X1305367Y0036690D02*
X1304945Y0036315D01*
X1304945Y0036315D02*
X1304148Y0035940D01*
X1304148Y0035940D02*
X1303023Y0035940D01*
X1303023Y0035940D02*
X1302320Y0036315D01*
X1306023Y0038940D02*
X1305226Y0038565D01*
X1305226Y0038565D02*
X1303726Y0038565D01*
X1303726Y0038565D02*
X1303023Y0038940D01*
X1303023Y0038940D02*
X1302695Y0039315D01*
X1302695Y0039315D02*
X1302414Y0040065D01*
X1302414Y0040065D02*
X1302695Y0042314D01*
X1302695Y0042314D02*
X1303164Y0043064D01*
X1303164Y0043064D02*
X1303586Y0043439D01*
X1303586Y0043439D02*
X1304382Y0043814D01*
X1304382Y0043814D02*
X1305882Y0043814D01*
X1305882Y0043814D02*
X1306585Y0043439D01*
D10*
D11*
X1195889Y0056691D02*
X1193920Y0056691D01*
X1193920Y0053597D02*
X1193920Y0059503D01*
X1193920Y0059503D02*
X1196733Y0059503D01*
X1198982Y0053597D02*
X1198982Y0057534D01*
X1198982Y0059503D02*
X1198701Y0059222D01*
X1198701Y0059222D02*
X1198982Y0058941D01*
X1198982Y0058941D02*
X1199263Y0059222D01*
X1199263Y0059222D02*
X1198982Y0059503D01*
X1198982Y0059503D02*
X1198982Y0058941D01*
X1202638Y0053597D02*
X1202076Y0053879D01*
X1202076Y0053879D02*
X1201794Y0054441D01*
X1201794Y0054441D02*
X1201794Y0059503D01*
X1207137Y0053879D02*
X1206575Y0053597D01*
X1206575Y0053597D02*
X1205450Y0053597D01*
X1205450Y0053597D02*
X1204888Y0053879D01*
X1204888Y0053879D02*
X1204607Y0054441D01*
X1204607Y0054441D02*
X1204607Y0056691D01*
X1204607Y0056691D02*
X1204888Y0057253D01*
X1204888Y0057253D02*
X1205450Y0057534D01*
X1205450Y0057534D02*
X1206575Y0057534D01*
X1206575Y0057534D02*
X1207137Y0057253D01*
X1207137Y0057253D02*
X1207419Y0056691D01*
X1207419Y0056691D02*
X1207419Y0056128D01*
X1207419Y0056128D02*
X1204607Y0055566D01*
X1209950Y0054160D02*
X1210231Y0053879D01*
X1210231Y0053879D02*
X1209950Y0053597D01*
X1209950Y0053597D02*
X1209668Y0053879D01*
X1209668Y0053879D02*
X1209950Y0054160D01*
X1209950Y0054160D02*
X1209950Y0053597D01*
X1209950Y0057253D02*
X1210231Y0056972D01*
X1210231Y0056972D02*
X1209950Y0056691D01*
X1209950Y0056691D02*
X1209668Y0056972D01*
X1209668Y0056972D02*
X1209950Y0057253D01*
X1209950Y0057253D02*
X1209950Y0056691D01*
X1217261Y0053597D02*
X1217261Y0059503D01*
X1219792Y0053597D02*
X1219792Y0056691D01*
X1219792Y0056691D02*
X1219511Y0057253D01*
X1219511Y0057253D02*
X1218949Y0057534D01*
X1218949Y0057534D02*
X1218105Y0057534D01*
X1218105Y0057534D02*
X1217542Y0057253D01*
X1217542Y0057253D02*
X1217261Y0056972D01*
X1224854Y0053879D02*
X1224292Y0053597D01*
X1224292Y0053597D02*
X1223167Y0053597D01*
X1223167Y0053597D02*
X1222604Y0053879D01*
X1222604Y0053879D02*
X1222323Y0054441D01*
X1222323Y0054441D02*
X1222323Y0056691D01*
X1222323Y0056691D02*
X1222604Y0057253D01*
X1222604Y0057253D02*
X1223167Y0057534D01*
X1223167Y0057534D02*
X1224292Y0057534D01*
X1224292Y0057534D02*
X1224854Y0057253D01*
X1224854Y0057253D02*
X1225135Y0056691D01*
X1225135Y0056691D02*
X1225135Y0056128D01*
X1225135Y0056128D02*
X1222323Y0055566D01*
X1228510Y0053597D02*
X1227947Y0053879D01*
X1227947Y0053879D02*
X1227666Y0054441D01*
X1227666Y0054441D02*
X1227666Y0059503D01*
X1231603Y0053597D02*
X1231041Y0053879D01*
X1231041Y0053879D02*
X1230760Y0054441D01*
X1230760Y0054441D02*
X1230760Y0059503D01*
X1236103Y0053879D02*
X1235540Y0053597D01*
X1235540Y0053597D02*
X1234415Y0053597D01*
X1234415Y0053597D02*
X1233853Y0053879D01*
X1233853Y0053879D02*
X1233572Y0054441D01*
X1233572Y0054441D02*
X1233572Y0056691D01*
X1233572Y0056691D02*
X1233853Y0057253D01*
X1233853Y0057253D02*
X1234415Y0057534D01*
X1234415Y0057534D02*
X1235540Y0057534D01*
X1235540Y0057534D02*
X1236103Y0057253D01*
X1236103Y0057253D02*
X1236384Y0056691D01*
X1236384Y0056691D02*
X1236384Y0056128D01*
X1236384Y0056128D02*
X1233572Y0055566D01*
X1238915Y0057534D02*
X1238915Y0053597D01*
X1238915Y0056972D02*
X1239196Y0057253D01*
X1239196Y0057253D02*
X1239758Y0057534D01*
X1239758Y0057534D02*
X1240602Y0057534D01*
X1240602Y0057534D02*
X1241164Y0057253D01*
X1241164Y0057253D02*
X1241446Y0056691D01*
X1241446Y0056691D02*
X1241446Y0053597D01*
X1247351Y0053597D02*
X1243977Y0053597D01*
X1245664Y0053597D02*
X1245664Y0059503D01*
X1245664Y0059503D02*
X1245101Y0058659D01*
X1245101Y0058659D02*
X1244539Y0058097D01*
X1244539Y0058097D02*
X1243977Y0057816D01*
X1249601Y0058941D02*
X1249882Y0059222D01*
X1249882Y0059222D02*
X1250445Y0059503D01*
X1250445Y0059503D02*
X1251851Y0059503D01*
X1251851Y0059503D02*
X1252413Y0059222D01*
X1252413Y0059222D02*
X1252694Y0058941D01*
X1252694Y0058941D02*
X1252976Y0058378D01*
X1252976Y0058378D02*
X1252976Y0057816D01*
X1252976Y0057816D02*
X1252694Y0056972D01*
X1252694Y0056972D02*
X1249320Y0053597D01*
X1249320Y0053597D02*
X1252976Y0053597D01*
X1258600Y0053597D02*
X1255225Y0053597D01*
X1256913Y0053597D02*
X1256913Y0059503D01*
X1256913Y0059503D02*
X1256350Y0058659D01*
X1256350Y0058659D02*
X1255788Y0058097D01*
X1255788Y0058097D02*
X1255225Y0057816D01*
X1260568Y0057534D02*
X1261974Y0053597D01*
X1261974Y0053597D02*
X1263380Y0057534D01*
X1268161Y0053597D02*
X1268161Y0056691D01*
X1268161Y0056691D02*
X1267880Y0057253D01*
X1267880Y0057253D02*
X1267317Y0057534D01*
X1267317Y0057534D02*
X1266193Y0057534D01*
X1266193Y0057534D02*
X1265630Y0057253D01*
X1268161Y0053879D02*
X1267599Y0053597D01*
X1267599Y0053597D02*
X1266193Y0053597D01*
X1266193Y0053597D02*
X1265630Y0053879D01*
X1265630Y0053879D02*
X1265349Y0054441D01*
X1265349Y0054441D02*
X1265349Y0055004D01*
X1265349Y0055004D02*
X1265630Y0055566D01*
X1265630Y0055566D02*
X1266193Y0055847D01*
X1266193Y0055847D02*
X1267599Y0055847D01*
X1267599Y0055847D02*
X1268161Y0056128D01*
X1273504Y0057534D02*
X1273504Y0052754D01*
X1273504Y0052754D02*
X1273223Y0052191D01*
X1273223Y0052191D02*
X1272942Y0051910D01*
X1272942Y0051910D02*
X1272379Y0051629D01*
X1272379Y0051629D02*
X1271536Y0051629D01*
X1271536Y0051629D02*
X1270973Y0051910D01*
X1273504Y0053879D02*
X1272942Y0053597D01*
X1272942Y0053597D02*
X1271817Y0053597D01*
X1271817Y0053597D02*
X1271254Y0053879D01*
X1271254Y0053879D02*
X1270973Y0054160D01*
X1270973Y0054160D02*
X1270692Y0054722D01*
X1270692Y0054722D02*
X1270692Y0056410D01*
X1270692Y0056410D02*
X1270973Y0056972D01*
X1270973Y0056972D02*
X1271254Y0057253D01*
X1271254Y0057253D02*
X1271817Y0057534D01*
X1271817Y0057534D02*
X1272942Y0057534D01*
X1272942Y0057534D02*
X1273504Y0057253D01*
X1276316Y0054160D02*
X1276598Y0053879D01*
X1276598Y0053879D02*
X1276316Y0053597D01*
X1276316Y0053597D02*
X1276035Y0053879D01*
X1276035Y0053879D02*
X1276316Y0054160D01*
X1276316Y0054160D02*
X1276316Y0053597D01*
X1279128Y0053597D02*
X1279128Y0059503D01*
X1279691Y0055847D02*
X1281378Y0053597D01*
X1281378Y0057534D02*
X1279128Y0055285D01*
X1283909Y0053597D02*
X1283909Y0057534D01*
X1283909Y0059503D02*
X1283628Y0059222D01*
X1283628Y0059222D02*
X1283909Y0058941D01*
X1283909Y0058941D02*
X1284190Y0059222D01*
X1284190Y0059222D02*
X1283909Y0059503D01*
X1283909Y0059503D02*
X1283909Y0058941D01*
X1289252Y0053879D02*
X1288690Y0053597D01*
X1288690Y0053597D02*
X1287565Y0053597D01*
X1287565Y0053597D02*
X1287003Y0053879D01*
X1287003Y0053879D02*
X1286721Y0054160D01*
X1286721Y0054160D02*
X1286440Y0054722D01*
X1286440Y0054722D02*
X1286440Y0056410D01*
X1286440Y0056410D02*
X1286721Y0056972D01*
X1286721Y0056972D02*
X1287003Y0057253D01*
X1287003Y0057253D02*
X1287565Y0057534D01*
X1287565Y0057534D02*
X1288690Y0057534D01*
X1288690Y0057534D02*
X1289252Y0057253D01*
X1294314Y0053597D02*
X1294314Y0056691D01*
X1294314Y0056691D02*
X1294033Y0057253D01*
X1294033Y0057253D02*
X1293470Y0057534D01*
X1293470Y0057534D02*
X1292346Y0057534D01*
X1292346Y0057534D02*
X1291783Y0057253D01*
X1294314Y0053879D02*
X1293752Y0053597D01*
X1293752Y0053597D02*
X1292346Y0053597D01*
X1292346Y0053597D02*
X1291783Y0053879D01*
X1291783Y0053879D02*
X1291502Y0054441D01*
X1291502Y0054441D02*
X1291502Y0055004D01*
X1291502Y0055004D02*
X1291783Y0055566D01*
X1291783Y0055566D02*
X1292346Y0055847D01*
X1292346Y0055847D02*
X1293752Y0055847D01*
X1293752Y0055847D02*
X1294314Y0056128D01*
X1299657Y0053597D02*
X1299657Y0059503D01*
X1299657Y0053879D02*
X1299095Y0053597D01*
X1299095Y0053597D02*
X1297970Y0053597D01*
X1297970Y0053597D02*
X1297407Y0053879D01*
X1297407Y0053879D02*
X1297126Y0054160D01*
X1297126Y0054160D02*
X1296845Y0054722D01*
X1296845Y0054722D02*
X1296845Y0056410D01*
X1296845Y0056410D02*
X1297126Y0056972D01*
X1297126Y0056972D02*
X1297407Y0057253D01*
X1297407Y0057253D02*
X1297970Y0057534D01*
X1297970Y0057534D02*
X1299095Y0057534D01*
X1299095Y0057534D02*
X1299657Y0057253D01*
X1301063Y0053035D02*
X1305563Y0053035D01*
X1306969Y0057534D02*
X1306969Y0051629D01*
X1306969Y0057253D02*
X1307531Y0057534D01*
X1307531Y0057534D02*
X1308656Y0057534D01*
X1308656Y0057534D02*
X1309218Y0057253D01*
X1309218Y0057253D02*
X1309500Y0056972D01*
X1309500Y0056972D02*
X1309781Y0056410D01*
X1309781Y0056410D02*
X1309781Y0054722D01*
X1309781Y0054722D02*
X1309500Y0054160D01*
X1309500Y0054160D02*
X1309218Y0053879D01*
X1309218Y0053879D02*
X1308656Y0053597D01*
X1308656Y0053597D02*
X1307531Y0053597D01*
X1307531Y0053597D02*
X1306969Y0053879D01*
X1314843Y0053879D02*
X1314280Y0053597D01*
X1314280Y0053597D02*
X1313155Y0053597D01*
X1313155Y0053597D02*
X1312593Y0053879D01*
X1312593Y0053879D02*
X1312312Y0054160D01*
X1312312Y0054160D02*
X1312031Y0054722D01*
X1312031Y0054722D02*
X1312031Y0056410D01*
X1312031Y0056410D02*
X1312312Y0056972D01*
X1312312Y0056972D02*
X1312593Y0057253D01*
X1312593Y0057253D02*
X1313155Y0057534D01*
X1313155Y0057534D02*
X1314280Y0057534D01*
X1314280Y0057534D02*
X1314843Y0057253D01*
X1317374Y0053597D02*
X1317374Y0059503D01*
X1317374Y0057253D02*
X1317936Y0057534D01*
X1317936Y0057534D02*
X1319061Y0057534D01*
X1319061Y0057534D02*
X1319623Y0057253D01*
X1319623Y0057253D02*
X1319905Y0056972D01*
X1319905Y0056972D02*
X1320186Y0056410D01*
X1320186Y0056410D02*
X1320186Y0054722D01*
X1320186Y0054722D02*
X1319905Y0054160D01*
X1319905Y0054160D02*
X1319623Y0053879D01*
X1319623Y0053879D02*
X1319061Y0053597D01*
X1319061Y0053597D02*
X1317936Y0053597D01*
X1317936Y0053597D02*
X1317374Y0053879D01*
D10*
D11*
X1188189Y0072834D02*
X1613386Y0072834D01*
D10*
D11*
X1193639Y0064509D02*
X1194483Y0064227D01*
X1194483Y0064227D02*
X1195889Y0064227D01*
X1195889Y0064227D02*
X1196451Y0064509D01*
X1196451Y0064509D02*
X1196733Y0064790D01*
X1196733Y0064790D02*
X1197014Y0065352D01*
X1197014Y0065352D02*
X1197014Y0065915D01*
X1197014Y0065915D02*
X1196733Y0066477D01*
X1196733Y0066477D02*
X1196451Y0066758D01*
X1196451Y0066758D02*
X1195889Y0067040D01*
X1195889Y0067040D02*
X1194764Y0067321D01*
X1194764Y0067321D02*
X1194202Y0067602D01*
X1194202Y0067602D02*
X1193920Y0067883D01*
X1193920Y0067883D02*
X1193639Y0068446D01*
X1193639Y0068446D02*
X1193639Y0069008D01*
X1193639Y0069008D02*
X1193920Y0069570D01*
X1193920Y0069570D02*
X1194202Y0069852D01*
X1194202Y0069852D02*
X1194764Y0070133D01*
X1194764Y0070133D02*
X1196170Y0070133D01*
X1196170Y0070133D02*
X1197014Y0069852D01*
X1199545Y0064227D02*
X1199545Y0070133D01*
X1202076Y0064227D02*
X1202076Y0067321D01*
X1202076Y0067321D02*
X1201794Y0067883D01*
X1201794Y0067883D02*
X1201232Y0068164D01*
X1201232Y0068164D02*
X1200388Y0068164D01*
X1200388Y0068164D02*
X1199826Y0067883D01*
X1199826Y0067883D02*
X1199545Y0067602D01*
X1207137Y0064509D02*
X1206575Y0064227D01*
X1206575Y0064227D02*
X1205450Y0064227D01*
X1205450Y0064227D02*
X1204888Y0064509D01*
X1204888Y0064509D02*
X1204607Y0065071D01*
X1204607Y0065071D02*
X1204607Y0067321D01*
X1204607Y0067321D02*
X1204888Y0067883D01*
X1204888Y0067883D02*
X1205450Y0068164D01*
X1205450Y0068164D02*
X1206575Y0068164D01*
X1206575Y0068164D02*
X1207137Y0067883D01*
X1207137Y0067883D02*
X1207419Y0067321D01*
X1207419Y0067321D02*
X1207419Y0066758D01*
X1207419Y0066758D02*
X1204607Y0066196D01*
X1212199Y0064509D02*
X1211637Y0064227D01*
X1211637Y0064227D02*
X1210512Y0064227D01*
X1210512Y0064227D02*
X1209950Y0064509D01*
X1209950Y0064509D02*
X1209668Y0065071D01*
X1209668Y0065071D02*
X1209668Y0067321D01*
X1209668Y0067321D02*
X1209950Y0067883D01*
X1209950Y0067883D02*
X1210512Y0068164D01*
X1210512Y0068164D02*
X1211637Y0068164D01*
X1211637Y0068164D02*
X1212199Y0067883D01*
X1212199Y0067883D02*
X1212481Y0067321D01*
X1212481Y0067321D02*
X1212481Y0066758D01*
X1212481Y0066758D02*
X1209668Y0066196D01*
X1214168Y0068164D02*
X1216418Y0068164D01*
X1215012Y0070133D02*
X1215012Y0065071D01*
X1215012Y0065071D02*
X1215293Y0064509D01*
X1215293Y0064509D02*
X1215855Y0064227D01*
X1215855Y0064227D02*
X1216418Y0064227D01*
X1218386Y0064790D02*
X1218667Y0064509D01*
X1218667Y0064509D02*
X1218386Y0064227D01*
X1218386Y0064227D02*
X1218105Y0064509D01*
X1218105Y0064509D02*
X1218386Y0064790D01*
X1218386Y0064790D02*
X1218386Y0064227D01*
X1218386Y0067883D02*
X1218667Y0067602D01*
X1218667Y0067602D02*
X1218386Y0067321D01*
X1218386Y0067321D02*
X1218105Y0067602D01*
X1218105Y0067602D02*
X1218386Y0067883D01*
X1218386Y0067883D02*
X1218386Y0067321D01*
D10*
D12*
X1196840Y0076069D02*
X1196840Y0079162D01*
X1196840Y0079162D02*
X1196559Y0079725D01*
X1196559Y0079725D02*
X1195996Y0080006D01*
X1195996Y0080006D02*
X1194871Y0080006D01*
X1194871Y0080006D02*
X1194309Y0079725D01*
X1196840Y0076350D02*
X1196277Y0076069D01*
X1196277Y0076069D02*
X1194871Y0076069D01*
X1194871Y0076069D02*
X1194309Y0076350D01*
X1194309Y0076350D02*
X1194028Y0076913D01*
X1194028Y0076913D02*
X1194028Y0077475D01*
X1194028Y0077475D02*
X1194309Y0078038D01*
X1194309Y0078038D02*
X1194871Y0078319D01*
X1194871Y0078319D02*
X1196277Y0078319D01*
X1196277Y0078319D02*
X1196840Y0078600D01*
X1199652Y0080006D02*
X1199652Y0076069D01*
X1199652Y0079444D02*
X1199933Y0079725D01*
X1199933Y0079725D02*
X1200496Y0080006D01*
X1200496Y0080006D02*
X1201339Y0080006D01*
X1201339Y0080006D02*
X1201902Y0079725D01*
X1201902Y0079725D02*
X1202183Y0079162D01*
X1202183Y0079162D02*
X1202183Y0076069D01*
X1207526Y0076069D02*
X1207526Y0081975D01*
X1207526Y0076350D02*
X1206964Y0076069D01*
X1206964Y0076069D02*
X1205839Y0076069D01*
X1205839Y0076069D02*
X1205276Y0076350D01*
X1205276Y0076350D02*
X1204995Y0076632D01*
X1204995Y0076632D02*
X1204714Y0077194D01*
X1204714Y0077194D02*
X1204714Y0078881D01*
X1204714Y0078881D02*
X1204995Y0079444D01*
X1204995Y0079444D02*
X1205276Y0079725D01*
X1205276Y0079725D02*
X1205839Y0080006D01*
X1205839Y0080006D02*
X1206964Y0080006D01*
X1206964Y0080006D02*
X1207526Y0079725D01*
X1210338Y0076069D02*
X1210338Y0080006D01*
X1210338Y0078881D02*
X1210619Y0079444D01*
X1210619Y0079444D02*
X1210901Y0079725D01*
X1210901Y0079725D02*
X1211463Y0080006D01*
X1211463Y0080006D02*
X1212025Y0080006D01*
X1216244Y0076350D02*
X1215681Y0076069D01*
X1215681Y0076069D02*
X1214556Y0076069D01*
X1214556Y0076069D02*
X1213994Y0076350D01*
X1213994Y0076350D02*
X1213713Y0076913D01*
X1213713Y0076913D02*
X1213713Y0079162D01*
X1213713Y0079162D02*
X1213994Y0079725D01*
X1213994Y0079725D02*
X1214556Y0080006D01*
X1214556Y0080006D02*
X1215681Y0080006D01*
X1215681Y0080006D02*
X1216244Y0079725D01*
X1216244Y0079725D02*
X1216525Y0079162D01*
X1216525Y0079162D02*
X1216525Y0078600D01*
X1216525Y0078600D02*
X1213713Y0078038D01*
X1219056Y0076069D02*
X1219056Y0080006D01*
X1219056Y0081975D02*
X1218775Y0081693D01*
X1218775Y0081693D02*
X1219056Y0081412D01*
X1219056Y0081412D02*
X1219337Y0081693D01*
X1219337Y0081693D02*
X1219056Y0081975D01*
X1219056Y0081975D02*
X1219056Y0081412D01*
X1221868Y0076069D02*
X1221868Y0081975D01*
X1222430Y0078319D02*
X1224118Y0076069D01*
X1224118Y0080006D02*
X1221868Y0077756D01*
X1229180Y0076069D02*
X1229180Y0079162D01*
X1229180Y0079162D02*
X1228898Y0079725D01*
X1228898Y0079725D02*
X1228336Y0080006D01*
X1228336Y0080006D02*
X1227211Y0080006D01*
X1227211Y0080006D02*
X1226649Y0079725D01*
X1229180Y0076350D02*
X1228617Y0076069D01*
X1228617Y0076069D02*
X1227211Y0076069D01*
X1227211Y0076069D02*
X1226649Y0076350D01*
X1226649Y0076350D02*
X1226367Y0076913D01*
X1226367Y0076913D02*
X1226367Y0077475D01*
X1226367Y0077475D02*
X1226649Y0078038D01*
X1226649Y0078038D02*
X1227211Y0078319D01*
X1227211Y0078319D02*
X1228617Y0078319D01*
X1228617Y0078319D02*
X1229180Y0078600D01*
X1240147Y0078881D02*
X1239866Y0079162D01*
X1239866Y0079162D02*
X1239303Y0079444D01*
X1239303Y0079444D02*
X1238741Y0079444D01*
X1238741Y0079444D02*
X1238178Y0079162D01*
X1238178Y0079162D02*
X1237897Y0078881D01*
X1237897Y0078881D02*
X1237616Y0078319D01*
X1237616Y0078319D02*
X1237616Y0077756D01*
X1237616Y0077756D02*
X1237897Y0077194D01*
X1237897Y0077194D02*
X1238178Y0076913D01*
X1238178Y0076913D02*
X1238741Y0076632D01*
X1238741Y0076632D02*
X1239303Y0076632D01*
X1239303Y0076632D02*
X1239866Y0076913D01*
X1239866Y0076913D02*
X1240147Y0077194D01*
X1240147Y0079444D02*
X1240147Y0077194D01*
X1240147Y0077194D02*
X1240428Y0076913D01*
X1240428Y0076913D02*
X1240709Y0076913D01*
X1240709Y0076913D02*
X1241272Y0077194D01*
X1241272Y0077194D02*
X1241553Y0077756D01*
X1241553Y0077756D02*
X1241553Y0079162D01*
X1241553Y0079162D02*
X1240991Y0080006D01*
X1240991Y0080006D02*
X1240147Y0080569D01*
X1240147Y0080569D02*
X1239022Y0080850D01*
X1239022Y0080850D02*
X1237897Y0080569D01*
X1237897Y0080569D02*
X1237054Y0080006D01*
X1237054Y0080006D02*
X1236491Y0079162D01*
X1236491Y0079162D02*
X1236210Y0078038D01*
X1236210Y0078038D02*
X1236491Y0076913D01*
X1236491Y0076913D02*
X1237054Y0076069D01*
X1237054Y0076069D02*
X1237897Y0075507D01*
X1237897Y0075507D02*
X1239022Y0075225D01*
X1239022Y0075225D02*
X1240147Y0075507D01*
X1240147Y0075507D02*
X1240991Y0076069D01*
X1248583Y0076069D02*
X1248583Y0080006D01*
X1248583Y0078881D02*
X1248865Y0079444D01*
X1248865Y0079444D02*
X1249146Y0079725D01*
X1249146Y0079725D02*
X1249708Y0080006D01*
X1249708Y0080006D02*
X1250271Y0080006D01*
X1254770Y0080006D02*
X1254770Y0076069D01*
X1252239Y0080006D02*
X1252239Y0076913D01*
X1252239Y0076913D02*
X1252520Y0076350D01*
X1252520Y0076350D02*
X1253083Y0076069D01*
X1253083Y0076069D02*
X1253926Y0076069D01*
X1253926Y0076069D02*
X1254489Y0076350D01*
X1254489Y0076350D02*
X1254770Y0076632D01*
X1257301Y0076350D02*
X1257863Y0076069D01*
X1257863Y0076069D02*
X1258988Y0076069D01*
X1258988Y0076069D02*
X1259551Y0076350D01*
X1259551Y0076350D02*
X1259832Y0076913D01*
X1259832Y0076913D02*
X1259832Y0077194D01*
X1259832Y0077194D02*
X1259551Y0077756D01*
X1259551Y0077756D02*
X1258988Y0078038D01*
X1258988Y0078038D02*
X1258145Y0078038D01*
X1258145Y0078038D02*
X1257582Y0078319D01*
X1257582Y0078319D02*
X1257301Y0078881D01*
X1257301Y0078881D02*
X1257301Y0079162D01*
X1257301Y0079162D02*
X1257582Y0079725D01*
X1257582Y0079725D02*
X1258145Y0080006D01*
X1258145Y0080006D02*
X1258988Y0080006D01*
X1258988Y0080006D02*
X1259551Y0079725D01*
X1262363Y0079162D02*
X1264331Y0079162D01*
X1265175Y0076069D02*
X1262363Y0076069D01*
X1262363Y0076069D02*
X1262363Y0081975D01*
X1262363Y0081975D02*
X1265175Y0081975D01*
X1269674Y0079162D02*
X1267706Y0079162D01*
X1267706Y0076069D02*
X1267706Y0081975D01*
X1267706Y0081975D02*
X1270518Y0081975D01*
X1272768Y0076069D02*
X1272768Y0081975D01*
X1275580Y0076632D02*
X1275861Y0076350D01*
X1275861Y0076350D02*
X1275580Y0076069D01*
X1275580Y0076069D02*
X1275299Y0076350D01*
X1275299Y0076350D02*
X1275580Y0076632D01*
X1275580Y0076632D02*
X1275580Y0076069D01*
X1280923Y0076350D02*
X1280361Y0076069D01*
X1280361Y0076069D02*
X1279236Y0076069D01*
X1279236Y0076069D02*
X1278673Y0076350D01*
X1278673Y0076350D02*
X1278392Y0076632D01*
X1278392Y0076632D02*
X1278111Y0077194D01*
X1278111Y0077194D02*
X1278111Y0078881D01*
X1278111Y0078881D02*
X1278392Y0079444D01*
X1278392Y0079444D02*
X1278673Y0079725D01*
X1278673Y0079725D02*
X1279236Y0080006D01*
X1279236Y0080006D02*
X1280361Y0080006D01*
X1280361Y0080006D02*
X1280923Y0079725D01*
X1284298Y0076069D02*
X1283735Y0076350D01*
X1283735Y0076350D02*
X1283454Y0076632D01*
X1283454Y0076632D02*
X1283173Y0077194D01*
X1283173Y0077194D02*
X1283173Y0078881D01*
X1283173Y0078881D02*
X1283454Y0079444D01*
X1283454Y0079444D02*
X1283735Y0079725D01*
X1283735Y0079725D02*
X1284298Y0080006D01*
X1284298Y0080006D02*
X1285141Y0080006D01*
X1285141Y0080006D02*
X1285704Y0079725D01*
X1285704Y0079725D02*
X1285985Y0079444D01*
X1285985Y0079444D02*
X1286266Y0078881D01*
X1286266Y0078881D02*
X1286266Y0077194D01*
X1286266Y0077194D02*
X1285985Y0076632D01*
X1285985Y0076632D02*
X1285704Y0076350D01*
X1285704Y0076350D02*
X1285141Y0076069D01*
X1285141Y0076069D02*
X1284298Y0076069D01*
X1288797Y0076069D02*
X1288797Y0080006D01*
X1288797Y0079444D02*
X1289078Y0079725D01*
X1289078Y0079725D02*
X1289641Y0080006D01*
X1289641Y0080006D02*
X1290484Y0080006D01*
X1290484Y0080006D02*
X1291047Y0079725D01*
X1291047Y0079725D02*
X1291328Y0079162D01*
X1291328Y0079162D02*
X1291328Y0076069D01*
X1291328Y0079162D02*
X1291609Y0079725D01*
X1291609Y0079725D02*
X1292172Y0080006D01*
X1292172Y0080006D02*
X1293015Y0080006D01*
X1293015Y0080006D02*
X1293578Y0079725D01*
X1293578Y0079725D02*
X1293859Y0079162D01*
X1293859Y0079162D02*
X1293859Y0076069D01*
D10*
D11*
X1266929Y0033464D02*
X1266929Y0021653D01*
D10*
D11*
X1518897Y0033464D02*
X1518897Y0007874D01*
D14*
X0581397Y1292519D03*
X0581397Y1317716D03*
X0581397Y1325196D03*
X0581397Y1342126D03*
D15*
X0579626Y1351574D03*
X0579626Y1355511D03*
D14*
X0581397Y1366732D03*
X0642421Y1290748D03*
X0642421Y1298031D03*
X0642421Y1317519D03*
X0642421Y1364960D03*
D15*
X0348031Y1192421D03*
X0348031Y1188681D03*
X0348031Y1184940D03*
X0313779Y1188877D03*
X0313779Y1192421D03*
X0364665Y1239911D03*
X0369390Y1239911D03*
X0359941Y1239911D03*
X0355216Y1239911D03*
X0380649Y1183120D03*
X0384586Y1183120D03*
D32*
X0647342Y1184448D03*
X0647342Y1203740D03*
X0570571Y1373405D03*
X0570571Y1388405D03*
X0312894Y1278740D03*
X0332185Y1278740D03*
X0657185Y1184448D03*
X0657185Y1203740D03*
G36*
G01*
X0642815Y1425689D02*
X0642815Y1420374D01*
G75*
G02*
X0641831Y1419389I-000984J0000000D01*
G01*
X0637106Y1419389D01*
G75*
G02*
X0636122Y1420374I0000000J0000984D01*
G01*
X0636122Y1425689D01*
G75*
G02*
X0637106Y1426673I0000984J0000000D01*
G01*
X0641831Y1426673D01*
G75*
G02*
X0642815Y1425689I0000000J-000984D01*
G01*
G37*
D33*
X0629626Y1423031D03*
X0619783Y1423031D03*
X0609941Y1423031D03*
X0600098Y1423031D03*
D15*
X0404724Y1240649D03*
X0409449Y1240649D03*
X0400000Y1240649D03*
X0395275Y1240649D03*
X0420708Y1183858D03*
X0424645Y1183858D03*
D50*
X0571063Y1421456D03*
D51*
X0577953Y1418307D03*
X0571063Y1415157D03*
X0577953Y1412007D03*
X0571063Y1408858D03*
D52*
X0574508Y1429527D03*
X0574508Y1400787D03*
D15*
X0607431Y1397021D03*
X0610876Y1394954D03*
X0606250Y1392001D03*
X0606545Y1378024D03*
G36*
G01*
X0451082Y1221220D02*
X0451082Y1218149D01*
G75*
G02*
X0450807Y1217874I-000276J0000000D01*
G01*
X0448602Y1217874D01*
G75*
G02*
X0448327Y1218149I0000000J0000276D01*
G01*
X0448327Y1221220D01*
G75*
G02*
X0448602Y1221496I0000276J0000000D01*
G01*
X0450807Y1221496D01*
G75*
G02*
X0451082Y1221220I0000000J-000276D01*
G01*
G37*
G36*
G01*
X0444783Y1221220D02*
X0444783Y1218149D01*
G75*
G02*
X0444508Y1217874I-000276J0000000D01*
G01*
X0442303Y1217874D01*
G75*
G02*
X0442027Y1218149I0000000J0000276D01*
G01*
X0442027Y1221220D01*
G75*
G02*
X0442303Y1221496I0000276J0000000D01*
G01*
X0444508Y1221496D01*
G75*
G02*
X0444783Y1221220I0000000J-000276D01*
G01*
G37*
G36*
G01*
X0460768Y1261614D02*
X0463838Y1261614D01*
G75*
G02*
X0464114Y1261338I0000000J-000276D01*
G01*
X0464114Y1259133D01*
G75*
G02*
X0463838Y1258858I-000276J0000000D01*
G01*
X0460768Y1258858D01*
G75*
G02*
X0460492Y1259133I0000000J0000276D01*
G01*
X0460492Y1261338D01*
G75*
G02*
X0460768Y1261614I0000276J0000000D01*
G01*
G37*
G36*
G01*
X0460768Y1255314D02*
X0463838Y1255314D01*
G75*
G02*
X0464114Y1255039I0000000J-000276D01*
G01*
X0464114Y1252834D01*
G75*
G02*
X0463838Y1252559I-000276J0000000D01*
G01*
X0460768Y1252559D01*
G75*
G02*
X0460492Y1252834I0000000J0000276D01*
G01*
X0460492Y1255039D01*
G75*
G02*
X0460768Y1255314I0000276J0000000D01*
G01*
G37*
G36*
G01*
X0448957Y1261614D02*
X0452027Y1261614D01*
G75*
G02*
X0452303Y1261338I0000000J-000276D01*
G01*
X0452303Y1259133D01*
G75*
G02*
X0452027Y1258858I-000276J0000000D01*
G01*
X0448957Y1258858D01*
G75*
G02*
X0448681Y1259133I0000000J0000276D01*
G01*
X0448681Y1261338D01*
G75*
G02*
X0448957Y1261614I0000276J0000000D01*
G01*
G37*
G36*
G01*
X0448957Y1255314D02*
X0452027Y1255314D01*
G75*
G02*
X0452303Y1255039I0000000J-000276D01*
G01*
X0452303Y1252834D01*
G75*
G02*
X0452027Y1252559I-000276J0000000D01*
G01*
X0448957Y1252559D01*
G75*
G02*
X0448681Y1252834I0000000J0000276D01*
G01*
X0448681Y1255039D01*
G75*
G02*
X0448957Y1255314I0000276J0000000D01*
G01*
G37*
G36*
G01*
X0693051Y1389566D02*
X0696122Y1389566D01*
G75*
G02*
X0696397Y1389291I0000000J-000276D01*
G01*
X0696397Y1387086D01*
G75*
G02*
X0696122Y1386811I-000276J0000000D01*
G01*
X0693051Y1386811D01*
G75*
G02*
X0692775Y1387086I0000000J0000276D01*
G01*
X0692775Y1389291D01*
G75*
G02*
X0693051Y1389566I0000276J0000000D01*
G01*
G37*
G36*
G01*
X0693051Y1383267D02*
X0696122Y1383267D01*
G75*
G02*
X0696397Y1382992I0000000J-000276D01*
G01*
X0696397Y1380787D01*
G75*
G02*
X0696122Y1380511I-000276J0000000D01*
G01*
X0693051Y1380511D01*
G75*
G02*
X0692775Y1380787I0000000J0000276D01*
G01*
X0692775Y1382992D01*
G75*
G02*
X0693051Y1383267I0000276J0000000D01*
G01*
G37*
G36*
G01*
X0687145Y1389566D02*
X0690216Y1389566D01*
G75*
G02*
X0690492Y1389291I0000000J-000276D01*
G01*
X0690492Y1387086D01*
G75*
G02*
X0690216Y1386811I-000276J0000000D01*
G01*
X0687145Y1386811D01*
G75*
G02*
X0686870Y1387086I0000000J0000276D01*
G01*
X0686870Y1389291D01*
G75*
G02*
X0687145Y1389566I0000276J0000000D01*
G01*
G37*
G36*
G01*
X0687145Y1383267D02*
X0690216Y1383267D01*
G75*
G02*
X0690492Y1382992I0000000J-000276D01*
G01*
X0690492Y1380787D01*
G75*
G02*
X0690216Y1380511I-000276J0000000D01*
G01*
X0687145Y1380511D01*
G75*
G02*
X0686870Y1380787I0000000J0000276D01*
G01*
X0686870Y1382992D01*
G75*
G02*
X0687145Y1383267I0000276J0000000D01*
G01*
G37*
G36*
G01*
X0437145Y1261614D02*
X0440216Y1261614D01*
G75*
G02*
X0440492Y1261338I0000000J-000276D01*
G01*
X0440492Y1259133D01*
G75*
G02*
X0440216Y1258858I-000276J0000000D01*
G01*
X0437145Y1258858D01*
G75*
G02*
X0436870Y1259133I0000000J0000276D01*
G01*
X0436870Y1261338D01*
G75*
G02*
X0437145Y1261614I0000276J0000000D01*
G01*
G37*
G36*
G01*
X0437145Y1255314D02*
X0440216Y1255314D01*
G75*
G02*
X0440492Y1255039I0000000J-000276D01*
G01*
X0440492Y1252834D01*
G75*
G02*
X0440216Y1252559I-000276J0000000D01*
G01*
X0437145Y1252559D01*
G75*
G02*
X0436870Y1252834I0000000J0000276D01*
G01*
X0436870Y1255039D01*
G75*
G02*
X0437145Y1255314I0000276J0000000D01*
G01*
G37*
G36*
G01*
X0612500Y1221220D02*
X0612500Y1218149D01*
G75*
G02*
X0612224Y1217874I-000276J0000000D01*
G01*
X0610020Y1217874D01*
G75*
G02*
X0609744Y1218149I0000000J0000276D01*
G01*
X0609744Y1221220D01*
G75*
G02*
X0610020Y1221496I0000276J0000000D01*
G01*
X0612224Y1221496D01*
G75*
G02*
X0612500Y1221220I0000000J-000276D01*
G01*
G37*
G36*
G01*
X0606201Y1221220D02*
X0606201Y1218149D01*
G75*
G02*
X0605925Y1217874I-000276J0000000D01*
G01*
X0603720Y1217874D01*
G75*
G02*
X0603445Y1218149I0000000J0000276D01*
G01*
X0603445Y1221220D01*
G75*
G02*
X0603720Y1221496I0000276J0000000D01*
G01*
X0605925Y1221496D01*
G75*
G02*
X0606201Y1221220I0000000J-000276D01*
G01*
G37*
G36*
G01*
X0543445Y1261614D02*
X0546516Y1261614D01*
G75*
G02*
X0546791Y1261338I0000000J-000276D01*
G01*
X0546791Y1259133D01*
G75*
G02*
X0546516Y1258858I-000276J0000000D01*
G01*
X0543445Y1258858D01*
G75*
G02*
X0543169Y1259133I0000000J0000276D01*
G01*
X0543169Y1261338D01*
G75*
G02*
X0543445Y1261614I0000276J0000000D01*
G01*
G37*
G36*
G01*
X0543445Y1255314D02*
X0546516Y1255314D01*
G75*
G02*
X0546791Y1255039I0000000J-000276D01*
G01*
X0546791Y1252834D01*
G75*
G02*
X0546516Y1252559I-000276J0000000D01*
G01*
X0543445Y1252559D01*
G75*
G02*
X0543169Y1252834I0000000J0000276D01*
G01*
X0543169Y1255039D01*
G75*
G02*
X0543445Y1255314I0000276J0000000D01*
G01*
G37*
G36*
G01*
X0508012Y1261614D02*
X0511082Y1261614D01*
G75*
G02*
X0511358Y1261338I0000000J-000276D01*
G01*
X0511358Y1259133D01*
G75*
G02*
X0511082Y1258858I-000276J0000000D01*
G01*
X0508012Y1258858D01*
G75*
G02*
X0507736Y1259133I0000000J0000276D01*
G01*
X0507736Y1261338D01*
G75*
G02*
X0508012Y1261614I0000276J0000000D01*
G01*
G37*
G36*
G01*
X0508012Y1255314D02*
X0511082Y1255314D01*
G75*
G02*
X0511358Y1255039I0000000J-000276D01*
G01*
X0511358Y1252834D01*
G75*
G02*
X0511082Y1252559I-000276J0000000D01*
G01*
X0508012Y1252559D01*
G75*
G02*
X0507736Y1252834I0000000J0000276D01*
G01*
X0507736Y1255039D01*
G75*
G02*
X0508012Y1255314I0000276J0000000D01*
G01*
G37*
G36*
G01*
X0555256Y1261614D02*
X0558327Y1261614D01*
G75*
G02*
X0558602Y1261338I0000000J-000276D01*
G01*
X0558602Y1259133D01*
G75*
G02*
X0558327Y1258858I-000276J0000000D01*
G01*
X0555256Y1258858D01*
G75*
G02*
X0554980Y1259133I0000000J0000276D01*
G01*
X0554980Y1261338D01*
G75*
G02*
X0555256Y1261614I0000276J0000000D01*
G01*
G37*
G36*
G01*
X0555256Y1255314D02*
X0558327Y1255314D01*
G75*
G02*
X0558602Y1255039I0000000J-000276D01*
G01*
X0558602Y1252834D01*
G75*
G02*
X0558327Y1252559I-000276J0000000D01*
G01*
X0555256Y1252559D01*
G75*
G02*
X0554980Y1252834I0000000J0000276D01*
G01*
X0554980Y1255039D01*
G75*
G02*
X0555256Y1255314I0000276J0000000D01*
G01*
G37*
G36*
G01*
X0496201Y1261614D02*
X0499271Y1261614D01*
G75*
G02*
X0499547Y1261338I0000000J-000276D01*
G01*
X0499547Y1259133D01*
G75*
G02*
X0499271Y1258858I-000276J0000000D01*
G01*
X0496201Y1258858D01*
G75*
G02*
X0495925Y1259133I0000000J0000276D01*
G01*
X0495925Y1261338D01*
G75*
G02*
X0496201Y1261614I0000276J0000000D01*
G01*
G37*
G36*
G01*
X0496201Y1255314D02*
X0499271Y1255314D01*
G75*
G02*
X0499547Y1255039I0000000J-000276D01*
G01*
X0499547Y1252834D01*
G75*
G02*
X0499271Y1252559I-000276J0000000D01*
G01*
X0496201Y1252559D01*
G75*
G02*
X0495925Y1252834I0000000J0000276D01*
G01*
X0495925Y1255039D01*
G75*
G02*
X0496201Y1255314I0000276J0000000D01*
G01*
G37*
G36*
G01*
X0519823Y1261614D02*
X0522894Y1261614D01*
G75*
G02*
X0523169Y1261338I0000000J-000276D01*
G01*
X0523169Y1259133D01*
G75*
G02*
X0522894Y1258858I-000276J0000000D01*
G01*
X0519823Y1258858D01*
G75*
G02*
X0519547Y1259133I0000000J0000276D01*
G01*
X0519547Y1261338D01*
G75*
G02*
X0519823Y1261614I0000276J0000000D01*
G01*
G37*
G36*
G01*
X0519823Y1255314D02*
X0522894Y1255314D01*
G75*
G02*
X0523169Y1255039I0000000J-000276D01*
G01*
X0523169Y1252834D01*
G75*
G02*
X0522894Y1252559I-000276J0000000D01*
G01*
X0519823Y1252559D01*
G75*
G02*
X0519547Y1252834I0000000J0000276D01*
G01*
X0519547Y1255039D01*
G75*
G02*
X0519823Y1255314I0000276J0000000D01*
G01*
G37*
G36*
G01*
X0479980Y1249015D02*
X0483996Y1249015D01*
G75*
G02*
X0484350Y1248661I0000000J-000354D01*
G01*
X0484350Y1245826D01*
G75*
G02*
X0483996Y1245472I-000354J0000000D01*
G01*
X0479980Y1245472D01*
G75*
G02*
X0479626Y1245826I0000000J0000354D01*
G01*
X0479626Y1248661D01*
G75*
G02*
X0479980Y1249015I0000354J0000000D01*
G01*
G37*
G36*
G01*
X0479980Y1236023D02*
X0483996Y1236023D01*
G75*
G02*
X0484350Y1235669I0000000J-000354D01*
G01*
X0484350Y1232834D01*
G75*
G02*
X0483996Y1232480I-000354J0000000D01*
G01*
X0479980Y1232480D01*
G75*
G02*
X0479626Y1232834I0000000J0000354D01*
G01*
X0479626Y1235669D01*
G75*
G02*
X0479980Y1236023I0000354J0000000D01*
G01*
G37*
G36*
G01*
X0561161Y1261614D02*
X0564232Y1261614D01*
G75*
G02*
X0564508Y1261338I0000000J-000276D01*
G01*
X0564508Y1259133D01*
G75*
G02*
X0564232Y1258858I-000276J0000000D01*
G01*
X0561161Y1258858D01*
G75*
G02*
X0560886Y1259133I0000000J0000276D01*
G01*
X0560886Y1261338D01*
G75*
G02*
X0561161Y1261614I0000276J0000000D01*
G01*
G37*
G36*
G01*
X0561161Y1255314D02*
X0564232Y1255314D01*
G75*
G02*
X0564508Y1255039I0000000J-000276D01*
G01*
X0564508Y1252834D01*
G75*
G02*
X0564232Y1252559I-000276J0000000D01*
G01*
X0561161Y1252559D01*
G75*
G02*
X0560886Y1252834I0000000J0000276D01*
G01*
X0560886Y1255039D01*
G75*
G02*
X0561161Y1255314I0000276J0000000D01*
G01*
G37*
G36*
G01*
X0443051Y1261614D02*
X0446122Y1261614D01*
G75*
G02*
X0446397Y1261338I0000000J-000276D01*
G01*
X0446397Y1259133D01*
G75*
G02*
X0446122Y1258858I-000276J0000000D01*
G01*
X0443051Y1258858D01*
G75*
G02*
X0442775Y1259133I0000000J0000276D01*
G01*
X0442775Y1261338D01*
G75*
G02*
X0443051Y1261614I0000276J0000000D01*
G01*
G37*
G36*
G01*
X0443051Y1255314D02*
X0446122Y1255314D01*
G75*
G02*
X0446397Y1255039I0000000J-000276D01*
G01*
X0446397Y1252834D01*
G75*
G02*
X0446122Y1252559I-000276J0000000D01*
G01*
X0443051Y1252559D01*
G75*
G02*
X0442775Y1252834I0000000J0000276D01*
G01*
X0442775Y1255039D01*
G75*
G02*
X0443051Y1255314I0000276J0000000D01*
G01*
G37*
G36*
G01*
X0516043Y1221220D02*
X0516043Y1218149D01*
G75*
G02*
X0515768Y1217874I-000276J0000000D01*
G01*
X0513563Y1217874D01*
G75*
G02*
X0513287Y1218149I0000000J0000276D01*
G01*
X0513287Y1221220D01*
G75*
G02*
X0513563Y1221496I0000276J0000000D01*
G01*
X0515768Y1221496D01*
G75*
G02*
X0516043Y1221220I0000000J-000276D01*
G01*
G37*
G36*
G01*
X0509744Y1221220D02*
X0509744Y1218149D01*
G75*
G02*
X0509468Y1217874I-000276J0000000D01*
G01*
X0507264Y1217874D01*
G75*
G02*
X0506988Y1218149I0000000J0000276D01*
G01*
X0506988Y1221220D01*
G75*
G02*
X0507264Y1221496I0000276J0000000D01*
G01*
X0509468Y1221496D01*
G75*
G02*
X0509744Y1221220I0000000J-000276D01*
G01*
G37*
G36*
G01*
X0490295Y1261614D02*
X0493366Y1261614D01*
G75*
G02*
X0493642Y1261338I0000000J-000276D01*
G01*
X0493642Y1259133D01*
G75*
G02*
X0493366Y1258858I-000276J0000000D01*
G01*
X0490295Y1258858D01*
G75*
G02*
X0490020Y1259133I0000000J0000276D01*
G01*
X0490020Y1261338D01*
G75*
G02*
X0490295Y1261614I0000276J0000000D01*
G01*
G37*
G36*
G01*
X0490295Y1255314D02*
X0493366Y1255314D01*
G75*
G02*
X0493642Y1255039I0000000J-000276D01*
G01*
X0493642Y1252834D01*
G75*
G02*
X0493366Y1252559I-000276J0000000D01*
G01*
X0490295Y1252559D01*
G75*
G02*
X0490020Y1252834I0000000J0000276D01*
G01*
X0490020Y1255039D01*
G75*
G02*
X0490295Y1255314I0000276J0000000D01*
G01*
G37*
G36*
G01*
X0603149Y1226550D02*
X0603149Y1228567D01*
G75*
G02*
X0604011Y1229429I0000861J0000000D01*
G01*
X0605733Y1229429D01*
G75*
G02*
X0606594Y1228567I0000000J-000861D01*
G01*
X0606594Y1226550D01*
G75*
G02*
X0605733Y1225689I-000861J0000000D01*
G01*
X0604011Y1225689D01*
G75*
G02*
X0603149Y1226550I0000000J0000861D01*
G01*
G37*
G36*
G01*
X0609350Y1226550D02*
X0609350Y1228567D01*
G75*
G02*
X0610211Y1229429I0000861J0000000D01*
G01*
X0611934Y1229429D01*
G75*
G02*
X0612795Y1228567I0000000J-000861D01*
G01*
X0612795Y1226550D01*
G75*
G02*
X0611934Y1225689I-000861J0000000D01*
G01*
X0610211Y1225689D01*
G75*
G02*
X0609350Y1226550I0000000J0000861D01*
G01*
G37*
G36*
G01*
X0502106Y1261614D02*
X0505177Y1261614D01*
G75*
G02*
X0505453Y1261338I0000000J-000276D01*
G01*
X0505453Y1259133D01*
G75*
G02*
X0505177Y1258858I-000276J0000000D01*
G01*
X0502106Y1258858D01*
G75*
G02*
X0501831Y1259133I0000000J0000276D01*
G01*
X0501831Y1261338D01*
G75*
G02*
X0502106Y1261614I0000276J0000000D01*
G01*
G37*
G36*
G01*
X0502106Y1255314D02*
X0505177Y1255314D01*
G75*
G02*
X0505453Y1255039I0000000J-000276D01*
G01*
X0505453Y1252834D01*
G75*
G02*
X0505177Y1252559I-000276J0000000D01*
G01*
X0502106Y1252559D01*
G75*
G02*
X0501831Y1252834I0000000J0000276D01*
G01*
X0501831Y1255039D01*
G75*
G02*
X0502106Y1255314I0000276J0000000D01*
G01*
G37*
G36*
G01*
X0525728Y1261614D02*
X0528799Y1261614D01*
G75*
G02*
X0529075Y1261338I0000000J-000276D01*
G01*
X0529075Y1259133D01*
G75*
G02*
X0528799Y1258858I-000276J0000000D01*
G01*
X0525728Y1258858D01*
G75*
G02*
X0525453Y1259133I0000000J0000276D01*
G01*
X0525453Y1261338D01*
G75*
G02*
X0525728Y1261614I0000276J0000000D01*
G01*
G37*
G36*
G01*
X0525728Y1255314D02*
X0528799Y1255314D01*
G75*
G02*
X0529075Y1255039I0000000J-000276D01*
G01*
X0529075Y1252834D01*
G75*
G02*
X0528799Y1252559I-000276J0000000D01*
G01*
X0525728Y1252559D01*
G75*
G02*
X0525453Y1252834I0000000J0000276D01*
G01*
X0525453Y1255039D01*
G75*
G02*
X0525728Y1255314I0000276J0000000D01*
G01*
G37*
G36*
G01*
X0475197Y1226550D02*
X0475197Y1228567D01*
G75*
G02*
X0476058Y1229429I0000861J0000000D01*
G01*
X0477780Y1229429D01*
G75*
G02*
X0478642Y1228567I0000000J-000861D01*
G01*
X0478642Y1226550D01*
G75*
G02*
X0477780Y1225689I-000861J0000000D01*
G01*
X0476058Y1225689D01*
G75*
G02*
X0475197Y1226550I0000000J0000861D01*
G01*
G37*
G36*
G01*
X0481397Y1226550D02*
X0481397Y1228567D01*
G75*
G02*
X0482259Y1229429I0000861J0000000D01*
G01*
X0483981Y1229429D01*
G75*
G02*
X0484842Y1228567I0000000J-000861D01*
G01*
X0484842Y1226550D01*
G75*
G02*
X0483981Y1225689I-000861J0000000D01*
G01*
X0482259Y1225689D01*
G75*
G02*
X0481397Y1226550I0000000J0000861D01*
G01*
G37*
G36*
G01*
X0478484Y1261614D02*
X0481555Y1261614D01*
G75*
G02*
X0481831Y1261338I0000000J-000276D01*
G01*
X0481831Y1259133D01*
G75*
G02*
X0481555Y1258858I-000276J0000000D01*
G01*
X0478484Y1258858D01*
G75*
G02*
X0478208Y1259133I0000000J0000276D01*
G01*
X0478208Y1261338D01*
G75*
G02*
X0478484Y1261614I0000276J0000000D01*
G01*
G37*
G36*
G01*
X0478484Y1255314D02*
X0481555Y1255314D01*
G75*
G02*
X0481831Y1255039I0000000J-000276D01*
G01*
X0481831Y1252834D01*
G75*
G02*
X0481555Y1252559I-000276J0000000D01*
G01*
X0478484Y1252559D01*
G75*
G02*
X0478208Y1252834I0000000J0000276D01*
G01*
X0478208Y1255039D01*
G75*
G02*
X0478484Y1255314I0000276J0000000D01*
G01*
G37*
G36*
G01*
X0570866Y1214074D02*
X0582086Y1214074D01*
G75*
G02*
X0583071Y1213090I0000000J-000984D01*
G01*
X0583071Y1210236D01*
G75*
G02*
X0582086Y1209252I-000984J0000000D01*
G01*
X0570866Y1209252D01*
G75*
G02*
X0569882Y1210236I0000000J0000984D01*
G01*
X0569882Y1213090D01*
G75*
G02*
X0570866Y1214074I0000984J0000000D01*
G01*
G37*
G36*
G01*
X0570866Y1190748D02*
X0582086Y1190748D01*
G75*
G02*
X0583071Y1189763I0000000J-000984D01*
G01*
X0583071Y1186909D01*
G75*
G02*
X0582086Y1185925I-000984J0000000D01*
G01*
X0570866Y1185925D01*
G75*
G02*
X0569882Y1186909I0000000J0000984D01*
G01*
X0569882Y1189763D01*
G75*
G02*
X0570866Y1190748I0000984J0000000D01*
G01*
G37*
G36*
G01*
X0572972Y1261614D02*
X0576043Y1261614D01*
G75*
G02*
X0576319Y1261338I0000000J-000276D01*
G01*
X0576319Y1259133D01*
G75*
G02*
X0576043Y1258858I-000276J0000000D01*
G01*
X0572972Y1258858D01*
G75*
G02*
X0572697Y1259133I0000000J0000276D01*
G01*
X0572697Y1261338D01*
G75*
G02*
X0572972Y1261614I0000276J0000000D01*
G01*
G37*
G36*
G01*
X0572972Y1255314D02*
X0576043Y1255314D01*
G75*
G02*
X0576319Y1255039I0000000J-000276D01*
G01*
X0576319Y1252834D01*
G75*
G02*
X0576043Y1252559I-000276J0000000D01*
G01*
X0572972Y1252559D01*
G75*
G02*
X0572697Y1252834I0000000J0000276D01*
G01*
X0572697Y1255039D01*
G75*
G02*
X0572972Y1255314I0000276J0000000D01*
G01*
G37*
G36*
G01*
X0549508Y1221220D02*
X0549508Y1218149D01*
G75*
G02*
X0549232Y1217874I-000276J0000000D01*
G01*
X0547027Y1217874D01*
G75*
G02*
X0546752Y1218149I0000000J0000276D01*
G01*
X0546752Y1221220D01*
G75*
G02*
X0547027Y1221496I0000276J0000000D01*
G01*
X0549232Y1221496D01*
G75*
G02*
X0549508Y1221220I0000000J-000276D01*
G01*
G37*
G36*
G01*
X0543208Y1221220D02*
X0543208Y1218149D01*
G75*
G02*
X0542933Y1217874I-000276J0000000D01*
G01*
X0540728Y1217874D01*
G75*
G02*
X0540453Y1218149I0000000J0000276D01*
G01*
X0540453Y1221220D01*
G75*
G02*
X0540728Y1221496I0000276J0000000D01*
G01*
X0542933Y1221496D01*
G75*
G02*
X0543208Y1221220I0000000J-000276D01*
G01*
G37*
G36*
G01*
X0513917Y1261614D02*
X0516988Y1261614D01*
G75*
G02*
X0517264Y1261338I0000000J-000276D01*
G01*
X0517264Y1259133D01*
G75*
G02*
X0516988Y1258858I-000276J0000000D01*
G01*
X0513917Y1258858D01*
G75*
G02*
X0513642Y1259133I0000000J0000276D01*
G01*
X0513642Y1261338D01*
G75*
G02*
X0513917Y1261614I0000276J0000000D01*
G01*
G37*
G36*
G01*
X0513917Y1255314D02*
X0516988Y1255314D01*
G75*
G02*
X0517264Y1255039I0000000J-000276D01*
G01*
X0517264Y1252834D01*
G75*
G02*
X0516988Y1252559I-000276J0000000D01*
G01*
X0513917Y1252559D01*
G75*
G02*
X0513642Y1252834I0000000J0000276D01*
G01*
X0513642Y1255039D01*
G75*
G02*
X0513917Y1255314I0000276J0000000D01*
G01*
G37*
G36*
G01*
X0466673Y1261614D02*
X0469744Y1261614D01*
G75*
G02*
X0470020Y1261338I0000000J-000276D01*
G01*
X0470020Y1259133D01*
G75*
G02*
X0469744Y1258858I-000276J0000000D01*
G01*
X0466673Y1258858D01*
G75*
G02*
X0466397Y1259133I0000000J0000276D01*
G01*
X0466397Y1261338D01*
G75*
G02*
X0466673Y1261614I0000276J0000000D01*
G01*
G37*
G36*
G01*
X0466673Y1255314D02*
X0469744Y1255314D01*
G75*
G02*
X0470020Y1255039I0000000J-000276D01*
G01*
X0470020Y1252834D01*
G75*
G02*
X0469744Y1252559I-000276J0000000D01*
G01*
X0466673Y1252559D01*
G75*
G02*
X0466397Y1252834I0000000J0000276D01*
G01*
X0466397Y1255039D01*
G75*
G02*
X0466673Y1255314I0000276J0000000D01*
G01*
G37*
G36*
G01*
X0581004Y1221220D02*
X0581004Y1218149D01*
G75*
G02*
X0580728Y1217874I-000276J0000000D01*
G01*
X0578523Y1217874D01*
G75*
G02*
X0578248Y1218149I0000000J0000276D01*
G01*
X0578248Y1221220D01*
G75*
G02*
X0578523Y1221496I0000276J0000000D01*
G01*
X0580728Y1221496D01*
G75*
G02*
X0581004Y1221220I0000000J-000276D01*
G01*
G37*
G36*
G01*
X0574705Y1221220D02*
X0574705Y1218149D01*
G75*
G02*
X0574429Y1217874I-000276J0000000D01*
G01*
X0572224Y1217874D01*
G75*
G02*
X0571949Y1218149I0000000J0000276D01*
G01*
X0571949Y1221220D01*
G75*
G02*
X0572224Y1221496I0000276J0000000D01*
G01*
X0574429Y1221496D01*
G75*
G02*
X0574705Y1221220I0000000J-000276D01*
G01*
G37*
G36*
G01*
X0603130Y1214074D02*
X0614350Y1214074D01*
G75*
G02*
X0615334Y1213090I0000000J-000984D01*
G01*
X0615334Y1210236D01*
G75*
G02*
X0614350Y1209252I-000984J0000000D01*
G01*
X0603130Y1209252D01*
G75*
G02*
X0602145Y1210236I0000000J0000984D01*
G01*
X0602145Y1213090D01*
G75*
G02*
X0603130Y1214074I0000984J0000000D01*
G01*
G37*
G36*
G01*
X0603130Y1190748D02*
X0614350Y1190748D01*
G75*
G02*
X0615334Y1189763I0000000J-000984D01*
G01*
X0615334Y1186909D01*
G75*
G02*
X0614350Y1185925I-000984J0000000D01*
G01*
X0603130Y1185925D01*
G75*
G02*
X0602145Y1186909I0000000J0000984D01*
G01*
X0602145Y1189763D01*
G75*
G02*
X0603130Y1190748I0000984J0000000D01*
G01*
G37*
G36*
G01*
X0470138Y1249015D02*
X0474153Y1249015D01*
G75*
G02*
X0474508Y1248661I0000000J-000354D01*
G01*
X0474508Y1245826D01*
G75*
G02*
X0474153Y1245472I-000354J0000000D01*
G01*
X0470138Y1245472D01*
G75*
G02*
X0469783Y1245826I0000000J0000354D01*
G01*
X0469783Y1248661D01*
G75*
G02*
X0470138Y1249015I0000354J0000000D01*
G01*
G37*
G36*
G01*
X0470138Y1236023D02*
X0474153Y1236023D01*
G75*
G02*
X0474508Y1235669I0000000J-000354D01*
G01*
X0474508Y1232834D01*
G75*
G02*
X0474153Y1232480I-000354J0000000D01*
G01*
X0470138Y1232480D01*
G75*
G02*
X0469783Y1232834I0000000J0000354D01*
G01*
X0469783Y1235669D01*
G75*
G02*
X0470138Y1236023I0000354J0000000D01*
G01*
G37*
G36*
G01*
X0632972Y1192559D02*
X0632972Y1195629D01*
G75*
G02*
X0633248Y1195905I0000276J0000000D01*
G01*
X0635453Y1195905D01*
G75*
G02*
X0635728Y1195629I0000000J-000276D01*
G01*
X0635728Y1192559D01*
G75*
G02*
X0635453Y1192283I-000276J0000000D01*
G01*
X0633248Y1192283D01*
G75*
G02*
X0632972Y1192559I0000000J0000276D01*
G01*
G37*
G36*
G01*
X0639271Y1192559D02*
X0639271Y1195629D01*
G75*
G02*
X0639547Y1195905I0000276J0000000D01*
G01*
X0641752Y1195905D01*
G75*
G02*
X0642027Y1195629I0000000J-000276D01*
G01*
X0642027Y1192559D01*
G75*
G02*
X0641752Y1192283I-000276J0000000D01*
G01*
X0639547Y1192283D01*
G75*
G02*
X0639271Y1192559I0000000J0000276D01*
G01*
G37*
G36*
G01*
X0567067Y1261614D02*
X0570138Y1261614D01*
G75*
G02*
X0570413Y1261338I0000000J-000276D01*
G01*
X0570413Y1259133D01*
G75*
G02*
X0570138Y1258858I-000276J0000000D01*
G01*
X0567067Y1258858D01*
G75*
G02*
X0566791Y1259133I0000000J0000276D01*
G01*
X0566791Y1261338D01*
G75*
G02*
X0567067Y1261614I0000276J0000000D01*
G01*
G37*
G36*
G01*
X0567067Y1255314D02*
X0570138Y1255314D01*
G75*
G02*
X0570413Y1255039I0000000J-000276D01*
G01*
X0570413Y1252834D01*
G75*
G02*
X0570138Y1252559I-000276J0000000D01*
G01*
X0567067Y1252559D01*
G75*
G02*
X0566791Y1252834I0000000J0000276D01*
G01*
X0566791Y1255039D01*
G75*
G02*
X0567067Y1255314I0000276J0000000D01*
G01*
G37*
G36*
G01*
X0505905Y1214074D02*
X0517126Y1214074D01*
G75*
G02*
X0518110Y1213090I0000000J-000984D01*
G01*
X0518110Y1210236D01*
G75*
G02*
X0517126Y1209252I-000984J0000000D01*
G01*
X0505905Y1209252D01*
G75*
G02*
X0504921Y1210236I0000000J0000984D01*
G01*
X0504921Y1213090D01*
G75*
G02*
X0505905Y1214074I0000984J0000000D01*
G01*
G37*
G36*
G01*
X0505905Y1190748D02*
X0517126Y1190748D01*
G75*
G02*
X0518110Y1189763I0000000J-000984D01*
G01*
X0518110Y1186909D01*
G75*
G02*
X0517126Y1185925I-000984J0000000D01*
G01*
X0505905Y1185925D01*
G75*
G02*
X0504921Y1186909I0000000J0000984D01*
G01*
X0504921Y1189763D01*
G75*
G02*
X0505905Y1190748I0000984J0000000D01*
G01*
G37*
G36*
G01*
X0549350Y1261614D02*
X0552421Y1261614D01*
G75*
G02*
X0552697Y1261338I0000000J-000276D01*
G01*
X0552697Y1259133D01*
G75*
G02*
X0552421Y1258858I-000276J0000000D01*
G01*
X0549350Y1258858D01*
G75*
G02*
X0549075Y1259133I0000000J0000276D01*
G01*
X0549075Y1261338D01*
G75*
G02*
X0549350Y1261614I0000276J0000000D01*
G01*
G37*
G36*
G01*
X0549350Y1255314D02*
X0552421Y1255314D01*
G75*
G02*
X0552697Y1255039I0000000J-000276D01*
G01*
X0552697Y1252834D01*
G75*
G02*
X0552421Y1252559I-000276J0000000D01*
G01*
X0549350Y1252559D01*
G75*
G02*
X0549075Y1252834I0000000J0000276D01*
G01*
X0549075Y1255039D01*
G75*
G02*
X0549350Y1255314I0000276J0000000D01*
G01*
G37*
G36*
G01*
X0571653Y1226550D02*
X0571653Y1228567D01*
G75*
G02*
X0572515Y1229429I0000861J0000000D01*
G01*
X0574237Y1229429D01*
G75*
G02*
X0575098Y1228567I0000000J-000861D01*
G01*
X0575098Y1226550D01*
G75*
G02*
X0574237Y1225689I-000861J0000000D01*
G01*
X0572515Y1225689D01*
G75*
G02*
X0571653Y1226550I0000000J0000861D01*
G01*
G37*
G36*
G01*
X0577854Y1226550D02*
X0577854Y1228567D01*
G75*
G02*
X0578715Y1229429I0000861J0000000D01*
G01*
X0580438Y1229429D01*
G75*
G02*
X0581299Y1228567I0000000J-000861D01*
G01*
X0581299Y1226550D01*
G75*
G02*
X0580438Y1225689I-000861J0000000D01*
G01*
X0578715Y1225689D01*
G75*
G02*
X0577854Y1226550I0000000J0000861D01*
G01*
G37*
G36*
G01*
X0675334Y1389566D02*
X0678405Y1389566D01*
G75*
G02*
X0678681Y1389291I0000000J-000276D01*
G01*
X0678681Y1387086D01*
G75*
G02*
X0678405Y1386811I-000276J0000000D01*
G01*
X0675334Y1386811D01*
G75*
G02*
X0675059Y1387086I0000000J0000276D01*
G01*
X0675059Y1389291D01*
G75*
G02*
X0675334Y1389566I0000276J0000000D01*
G01*
G37*
G36*
G01*
X0675334Y1383267D02*
X0678405Y1383267D01*
G75*
G02*
X0678681Y1382992I0000000J-000276D01*
G01*
X0678681Y1380787D01*
G75*
G02*
X0678405Y1380511I-000276J0000000D01*
G01*
X0675334Y1380511D01*
G75*
G02*
X0675059Y1380787I0000000J0000276D01*
G01*
X0675059Y1382992D01*
G75*
G02*
X0675334Y1383267I0000276J0000000D01*
G01*
G37*
G36*
G01*
X0454862Y1261614D02*
X0457933Y1261614D01*
G75*
G02*
X0458208Y1261338I0000000J-000276D01*
G01*
X0458208Y1259133D01*
G75*
G02*
X0457933Y1258858I-000276J0000000D01*
G01*
X0454862Y1258858D01*
G75*
G02*
X0454586Y1259133I0000000J0000276D01*
G01*
X0454586Y1261338D01*
G75*
G02*
X0454862Y1261614I0000276J0000000D01*
G01*
G37*
G36*
G01*
X0454862Y1255314D02*
X0457933Y1255314D01*
G75*
G02*
X0458208Y1255039I0000000J-000276D01*
G01*
X0458208Y1252834D01*
G75*
G02*
X0457933Y1252559I-000276J0000000D01*
G01*
X0454862Y1252559D01*
G75*
G02*
X0454586Y1252834I0000000J0000276D01*
G01*
X0454586Y1255039D01*
G75*
G02*
X0454862Y1255314I0000276J0000000D01*
G01*
G37*
G36*
G01*
X0540157Y1226550D02*
X0540157Y1228567D01*
G75*
G02*
X0541019Y1229429I0000861J0000000D01*
G01*
X0542741Y1229429D01*
G75*
G02*
X0543602Y1228567I0000000J-000861D01*
G01*
X0543602Y1226550D01*
G75*
G02*
X0542741Y1225689I-000861J0000000D01*
G01*
X0541019Y1225689D01*
G75*
G02*
X0540157Y1226550I0000000J0000861D01*
G01*
G37*
G36*
G01*
X0546358Y1226550D02*
X0546358Y1228567D01*
G75*
G02*
X0547219Y1229429I0000861J0000000D01*
G01*
X0548942Y1229429D01*
G75*
G02*
X0549803Y1228567I0000000J-000861D01*
G01*
X0549803Y1226550D01*
G75*
G02*
X0548942Y1225689I-000861J0000000D01*
G01*
X0547219Y1225689D01*
G75*
G02*
X0546358Y1226550I0000000J0000861D01*
G01*
G37*
G36*
G01*
X0642027Y1189724D02*
X0642027Y1186653D01*
G75*
G02*
X0641752Y1186377I-000276J0000000D01*
G01*
X0639547Y1186377D01*
G75*
G02*
X0639271Y1186653I0000000J0000276D01*
G01*
X0639271Y1189724D01*
G75*
G02*
X0639547Y1190000I0000276J0000000D01*
G01*
X0641752Y1190000D01*
G75*
G02*
X0642027Y1189724I0000000J-000276D01*
G01*
G37*
G36*
G01*
X0635728Y1189724D02*
X0635728Y1186653D01*
G75*
G02*
X0635453Y1186377I-000276J0000000D01*
G01*
X0633248Y1186377D01*
G75*
G02*
X0632972Y1186653I0000000J0000276D01*
G01*
X0632972Y1189724D01*
G75*
G02*
X0633248Y1190000I0000276J0000000D01*
G01*
X0635453Y1190000D01*
G75*
G02*
X0635728Y1189724I0000000J-000276D01*
G01*
G37*
G36*
G01*
X0441732Y1226550D02*
X0441732Y1228567D01*
G75*
G02*
X0442593Y1229429I0000861J0000000D01*
G01*
X0444316Y1229429D01*
G75*
G02*
X0445177Y1228567I0000000J-000861D01*
G01*
X0445177Y1226550D01*
G75*
G02*
X0444316Y1225689I-000861J0000000D01*
G01*
X0442593Y1225689D01*
G75*
G02*
X0441732Y1226550I0000000J0000861D01*
G01*
G37*
G36*
G01*
X0447933Y1226550D02*
X0447933Y1228567D01*
G75*
G02*
X0448794Y1229429I0000861J0000000D01*
G01*
X0450517Y1229429D01*
G75*
G02*
X0451378Y1228567I0000000J-000861D01*
G01*
X0451378Y1226550D01*
G75*
G02*
X0450517Y1225689I-000861J0000000D01*
G01*
X0448794Y1225689D01*
G75*
G02*
X0447933Y1226550I0000000J0000861D01*
G01*
G37*
G36*
G01*
X0472579Y1261614D02*
X0475649Y1261614D01*
G75*
G02*
X0475925Y1261338I0000000J-000276D01*
G01*
X0475925Y1259133D01*
G75*
G02*
X0475649Y1258858I-000276J0000000D01*
G01*
X0472579Y1258858D01*
G75*
G02*
X0472303Y1259133I0000000J0000276D01*
G01*
X0472303Y1261338D01*
G75*
G02*
X0472579Y1261614I0000276J0000000D01*
G01*
G37*
G36*
G01*
X0472579Y1255314D02*
X0475649Y1255314D01*
G75*
G02*
X0475925Y1255039I0000000J-000276D01*
G01*
X0475925Y1252834D01*
G75*
G02*
X0475649Y1252559I-000276J0000000D01*
G01*
X0472579Y1252559D01*
G75*
G02*
X0472303Y1252834I0000000J0000276D01*
G01*
X0472303Y1255039D01*
G75*
G02*
X0472579Y1255314I0000276J0000000D01*
G01*
G37*
G36*
G01*
X0484547Y1221220D02*
X0484547Y1218149D01*
G75*
G02*
X0484271Y1217874I-000276J0000000D01*
G01*
X0482067Y1217874D01*
G75*
G02*
X0481791Y1218149I0000000J0000276D01*
G01*
X0481791Y1221220D01*
G75*
G02*
X0482067Y1221496I0000276J0000000D01*
G01*
X0484271Y1221496D01*
G75*
G02*
X0484547Y1221220I0000000J-000276D01*
G01*
G37*
G36*
G01*
X0478248Y1221220D02*
X0478248Y1218149D01*
G75*
G02*
X0477972Y1217874I-000276J0000000D01*
G01*
X0475768Y1217874D01*
G75*
G02*
X0475492Y1218149I0000000J0000276D01*
G01*
X0475492Y1221220D01*
G75*
G02*
X0475768Y1221496I0000276J0000000D01*
G01*
X0477972Y1221496D01*
G75*
G02*
X0478248Y1221220I0000000J-000276D01*
G01*
G37*
G36*
G01*
X0681240Y1389566D02*
X0684311Y1389566D01*
G75*
G02*
X0684586Y1389291I0000000J-000276D01*
G01*
X0684586Y1387086D01*
G75*
G02*
X0684311Y1386811I-000276J0000000D01*
G01*
X0681240Y1386811D01*
G75*
G02*
X0680964Y1387086I0000000J0000276D01*
G01*
X0680964Y1389291D01*
G75*
G02*
X0681240Y1389566I0000276J0000000D01*
G01*
G37*
G36*
G01*
X0681240Y1383267D02*
X0684311Y1383267D01*
G75*
G02*
X0684586Y1382992I0000000J-000276D01*
G01*
X0684586Y1380787D01*
G75*
G02*
X0684311Y1380511I-000276J0000000D01*
G01*
X0681240Y1380511D01*
G75*
G02*
X0680964Y1380787I0000000J0000276D01*
G01*
X0680964Y1382992D01*
G75*
G02*
X0681240Y1383267I0000276J0000000D01*
G01*
G37*
G36*
G01*
X0448484Y1249015D02*
X0452500Y1249015D01*
G75*
G02*
X0452854Y1248661I0000000J-000354D01*
G01*
X0452854Y1245826D01*
G75*
G02*
X0452500Y1245472I-000354J0000000D01*
G01*
X0448484Y1245472D01*
G75*
G02*
X0448130Y1245826I0000000J0000354D01*
G01*
X0448130Y1248661D01*
G75*
G02*
X0448484Y1249015I0000354J0000000D01*
G01*
G37*
G36*
G01*
X0448484Y1236023D02*
X0452500Y1236023D01*
G75*
G02*
X0452854Y1235669I0000000J-000354D01*
G01*
X0452854Y1232834D01*
G75*
G02*
X0452500Y1232480I-000354J0000000D01*
G01*
X0448484Y1232480D01*
G75*
G02*
X0448130Y1232834I0000000J0000354D01*
G01*
X0448130Y1235669D01*
G75*
G02*
X0448484Y1236023I0000354J0000000D01*
G01*
G37*
G36*
G01*
X0484390Y1261614D02*
X0487460Y1261614D01*
G75*
G02*
X0487736Y1261338I0000000J-000276D01*
G01*
X0487736Y1259133D01*
G75*
G02*
X0487460Y1258858I-000276J0000000D01*
G01*
X0484390Y1258858D01*
G75*
G02*
X0484114Y1259133I0000000J0000276D01*
G01*
X0484114Y1261338D01*
G75*
G02*
X0484390Y1261614I0000276J0000000D01*
G01*
G37*
G36*
G01*
X0484390Y1255314D02*
X0487460Y1255314D01*
G75*
G02*
X0487736Y1255039I0000000J-000276D01*
G01*
X0487736Y1252834D01*
G75*
G02*
X0487460Y1252559I-000276J0000000D01*
G01*
X0484390Y1252559D01*
G75*
G02*
X0484114Y1252834I0000000J0000276D01*
G01*
X0484114Y1255039D01*
G75*
G02*
X0484390Y1255314I0000276J0000000D01*
G01*
G37*
G36*
G01*
X0438642Y1249606D02*
X0442657Y1249606D01*
G75*
G02*
X0443012Y1249252I0000000J-000354D01*
G01*
X0443012Y1246417D01*
G75*
G02*
X0442657Y1246063I-000354J0000000D01*
G01*
X0438642Y1246063D01*
G75*
G02*
X0438287Y1246417I0000000J0000354D01*
G01*
X0438287Y1249252D01*
G75*
G02*
X0438642Y1249606I0000354J0000000D01*
G01*
G37*
G36*
G01*
X0438642Y1236614D02*
X0442657Y1236614D01*
G75*
G02*
X0443012Y1236259I0000000J-000354D01*
G01*
X0443012Y1233425D01*
G75*
G02*
X0442657Y1233070I-000354J0000000D01*
G01*
X0438642Y1233070D01*
G75*
G02*
X0438287Y1233425I0000000J0000354D01*
G01*
X0438287Y1236259D01*
G75*
G02*
X0438642Y1236614I0000354J0000000D01*
G01*
G37*
G36*
G01*
X0442913Y1214222D02*
X0454134Y1214222D01*
G75*
G02*
X0455118Y1213238I0000000J-000984D01*
G01*
X0455118Y1210383D01*
G75*
G02*
X0454134Y1209399I-000984J0000000D01*
G01*
X0442913Y1209399D01*
G75*
G02*
X0441929Y1210383I0000000J0000984D01*
G01*
X0441929Y1213238D01*
G75*
G02*
X0442913Y1214222I0000984J0000000D01*
G01*
G37*
G36*
G01*
X0442913Y1190895D02*
X0454134Y1190895D01*
G75*
G02*
X0455118Y1189911I0000000J-000984D01*
G01*
X0455118Y1187057D01*
G75*
G02*
X0454134Y1186072I-000984J0000000D01*
G01*
X0442913Y1186072D01*
G75*
G02*
X0441929Y1187057I0000000J0000984D01*
G01*
X0441929Y1189911D01*
G75*
G02*
X0442913Y1190895I0000984J0000000D01*
G01*
G37*
G36*
G01*
X0474409Y1213927D02*
X0485630Y1213927D01*
G75*
G02*
X0486614Y1212942I0000000J-000984D01*
G01*
X0486614Y1210088D01*
G75*
G02*
X0485630Y1209104I-000984J0000000D01*
G01*
X0474409Y1209104D01*
G75*
G02*
X0473425Y1210088I0000000J0000984D01*
G01*
X0473425Y1212942D01*
G75*
G02*
X0474409Y1213927I0000984J0000000D01*
G01*
G37*
G36*
G01*
X0474409Y1190600D02*
X0485630Y1190600D01*
G75*
G02*
X0486614Y1189616I0000000J-000984D01*
G01*
X0486614Y1186761D01*
G75*
G02*
X0485630Y1185777I-000984J0000000D01*
G01*
X0474409Y1185777D01*
G75*
G02*
X0473425Y1186761I0000000J0000984D01*
G01*
X0473425Y1189616D01*
G75*
G02*
X0474409Y1190600I0000984J0000000D01*
G01*
G37*
G36*
G01*
X0506693Y1226550D02*
X0506693Y1228567D01*
G75*
G02*
X0507554Y1229429I0000861J0000000D01*
G01*
X0509276Y1229429D01*
G75*
G02*
X0510138Y1228567I0000000J-000861D01*
G01*
X0510138Y1226550D01*
G75*
G02*
X0509276Y1225689I-000861J0000000D01*
G01*
X0507554Y1225689D01*
G75*
G02*
X0506693Y1226550I0000000J0000861D01*
G01*
G37*
G36*
G01*
X0512894Y1226550D02*
X0512894Y1228567D01*
G75*
G02*
X0513755Y1229429I0000861J0000000D01*
G01*
X0515477Y1229429D01*
G75*
G02*
X0516338Y1228567I0000000J-000861D01*
G01*
X0516338Y1226550D01*
G75*
G02*
X0515477Y1225689I-000861J0000000D01*
G01*
X0513755Y1225689D01*
G75*
G02*
X0512894Y1226550I0000000J0000861D01*
G01*
G37*
G36*
G01*
X0539370Y1214074D02*
X0550590Y1214074D01*
G75*
G02*
X0551575Y1213090I0000000J-000984D01*
G01*
X0551575Y1210236D01*
G75*
G02*
X0550590Y1209252I-000984J0000000D01*
G01*
X0539370Y1209252D01*
G75*
G02*
X0538386Y1210236I0000000J0000984D01*
G01*
X0538386Y1213090D01*
G75*
G02*
X0539370Y1214074I0000984J0000000D01*
G01*
G37*
G36*
G01*
X0539370Y1190748D02*
X0550590Y1190748D01*
G75*
G02*
X0551575Y1189763I0000000J-000984D01*
G01*
X0551575Y1186909D01*
G75*
G02*
X0550590Y1185925I-000984J0000000D01*
G01*
X0539370Y1185925D01*
G75*
G02*
X0538386Y1186909I0000000J0000984D01*
G01*
X0538386Y1189763D01*
G75*
G02*
X0539370Y1190748I0000984J0000000D01*
G01*
G37*
G36*
G01*
X0537539Y1261614D02*
X0540610Y1261614D01*
G75*
G02*
X0540886Y1261338I0000000J-000276D01*
G01*
X0540886Y1259133D01*
G75*
G02*
X0540610Y1258858I-000276J0000000D01*
G01*
X0537539Y1258858D01*
G75*
G02*
X0537264Y1259133I0000000J0000276D01*
G01*
X0537264Y1261338D01*
G75*
G02*
X0537539Y1261614I0000276J0000000D01*
G01*
G37*
G36*
G01*
X0537539Y1255314D02*
X0540610Y1255314D01*
G75*
G02*
X0540886Y1255039I0000000J-000276D01*
G01*
X0540886Y1252834D01*
G75*
G02*
X0540610Y1252559I-000276J0000000D01*
G01*
X0537539Y1252559D01*
G75*
G02*
X0537264Y1252834I0000000J0000276D01*
G01*
X0537264Y1255039D01*
G75*
G02*
X0537539Y1255314I0000276J0000000D01*
G01*
G37*
G36*
G01*
X0531634Y1261614D02*
X0534705Y1261614D01*
G75*
G02*
X0534980Y1261338I0000000J-000276D01*
G01*
X0534980Y1259133D01*
G75*
G02*
X0534705Y1258858I-000276J0000000D01*
G01*
X0531634Y1258858D01*
G75*
G02*
X0531358Y1259133I0000000J0000276D01*
G01*
X0531358Y1261338D01*
G75*
G02*
X0531634Y1261614I0000276J0000000D01*
G01*
G37*
G36*
G01*
X0531634Y1255314D02*
X0534705Y1255314D01*
G75*
G02*
X0534980Y1255039I0000000J-000276D01*
G01*
X0534980Y1252834D01*
G75*
G02*
X0534705Y1252559I-000276J0000000D01*
G01*
X0531634Y1252559D01*
G75*
G02*
X0531358Y1252834I0000000J0000276D01*
G01*
X0531358Y1255039D01*
G75*
G02*
X0531634Y1255314I0000276J0000000D01*
G01*
G37*
D59*
X0207768Y1035106D03*
D60*
X0217413Y1065814D03*
D59*
X0501075Y1035106D03*
D60*
X0696941Y1065814D03*
D59*
X0706586Y1035106D03*
D61*
X0235720Y1054791D03*
X0258555Y1054791D03*
X0247138Y1063964D03*
X0235720Y1086799D03*
X0258555Y1086799D03*
D14*
X0469657Y1086799D03*
X0459657Y1086799D03*
X0449657Y1086799D03*
X0439657Y1086799D03*
X0429657Y1086799D03*
X0419657Y1086799D03*
X0409657Y1086799D03*
X0399657Y1086799D03*
X0389657Y1086799D03*
X0379657Y1086799D03*
X0369657Y1086799D03*
X0359657Y1086799D03*
X0349657Y1086799D03*
X0339657Y1086799D03*
X0329657Y1086799D03*
X0319657Y1086799D03*
X0309657Y1086799D03*
X0299657Y1086799D03*
X0289657Y1086799D03*
X0469657Y1076799D03*
X0459657Y1076799D03*
X0449657Y1076799D03*
X0439657Y1076799D03*
X0429657Y1076799D03*
X0419657Y1076799D03*
X0409657Y1076799D03*
X0399657Y1076799D03*
X0389657Y1076799D03*
X0379657Y1076799D03*
X0369657Y1076799D03*
X0359657Y1076799D03*
X0349657Y1076799D03*
X0339657Y1076799D03*
X0329657Y1076799D03*
X0319657Y1076799D03*
X0309657Y1076799D03*
X0299657Y1076799D03*
X0289657Y1076799D03*
X0469657Y1052980D03*
X0459657Y1052980D03*
X0449657Y1052980D03*
X0439657Y1052980D03*
X0429657Y1052980D03*
X0419657Y1052980D03*
X0409657Y1052980D03*
X0399657Y1052980D03*
X0389657Y1052980D03*
X0379657Y1052980D03*
X0369657Y1052980D03*
X0359657Y1052980D03*
X0349657Y1052980D03*
X0339657Y1052980D03*
X0329657Y1052980D03*
X0319657Y1052980D03*
X0309657Y1052980D03*
X0299657Y1052980D03*
X0289657Y1052980D03*
X0469657Y1042980D03*
X0459657Y1042980D03*
X0449657Y1042980D03*
X0439657Y1042980D03*
X0429657Y1042980D03*
X0419657Y1042980D03*
X0409657Y1042980D03*
X0399657Y1042980D03*
X0389657Y1042980D03*
X0379657Y1042980D03*
X0369657Y1042980D03*
X0359657Y1042980D03*
X0349657Y1042980D03*
X0339657Y1042980D03*
X0329657Y1042980D03*
X0319657Y1042980D03*
X0309657Y1042980D03*
X0299657Y1042980D03*
X0289657Y1042980D03*
X0532531Y1042980D03*
X0542531Y1042980D03*
X0552531Y1042980D03*
X0562531Y1042980D03*
X0572531Y1042980D03*
X0582531Y1042980D03*
X0592531Y1042980D03*
X0602531Y1042980D03*
X0532531Y1052980D03*
X0542531Y1052980D03*
X0552531Y1052980D03*
X0562531Y1052980D03*
X0572531Y1052980D03*
X0582531Y1052980D03*
X0592531Y1052980D03*
X0602531Y1052980D03*
X0532531Y1076799D03*
X0542531Y1076799D03*
X0552531Y1076799D03*
X0562531Y1076799D03*
X0572531Y1076799D03*
X0582531Y1076799D03*
X0592531Y1076799D03*
X0602531Y1076799D03*
X0532531Y1086799D03*
X0542531Y1086799D03*
X0552531Y1086799D03*
X0562531Y1086799D03*
X0572531Y1086799D03*
X0582531Y1086799D03*
X0592531Y1086799D03*
X0602531Y1086799D03*
D61*
X0633358Y1054791D03*
X0656193Y1054791D03*
X0679421Y1054791D03*
X0644775Y1063964D03*
X0668004Y1063964D03*
X0633358Y1086799D03*
X0656193Y1086799D03*
X0679421Y1086799D03*
X0160827Y0238386D02*
%LPD*%
G01*
G36*
G01*
X0177992Y0227756D02*
X0177992Y0230827D01*
G75*
G02*
X0178268Y0231103I0000276J0000000D01*
G01*
X0180473Y0231103D01*
G75*
G02*
X0180748Y0230827I0000000J-000276D01*
G01*
X0180748Y0227756D01*
G75*
G02*
X0180473Y0227480I-000276J0000000D01*
G01*
X0178268Y0227480D01*
G75*
G02*
X0177992Y0227756I0000000J0000276D01*
G01*
G37*
G36*
G01*
X0184292Y0227756D02*
X0184292Y0230827D01*
G75*
G02*
X0184567Y0231103I0000276J0000000D01*
G01*
X0186772Y0231103D01*
G75*
G02*
X0187047Y0230827I0000000J-000276D01*
G01*
X0187047Y0227756D01*
G75*
G02*
X0186772Y0227480I-000276J0000000D01*
G01*
X0184567Y0227480D01*
G75*
G02*
X0184292Y0227756I0000000J0000276D01*
G01*
G37*
G36*
G01*
X0198858Y0230827D02*
X0198858Y0227756D01*
G75*
G02*
X0198583Y0227480I-000276J0000000D01*
G01*
X0196378Y0227480D01*
G75*
G02*
X0196103Y0227756I0000000J0000276D01*
G01*
X0196103Y0230827D01*
G75*
G02*
X0196378Y0231103I0000276J0000000D01*
G01*
X0198583Y0231103D01*
G75*
G02*
X0198858Y0230827I0000000J-000276D01*
G01*
G37*
G36*
G01*
X0192559Y0230827D02*
X0192559Y0227756D01*
G75*
G02*
X0192284Y0227480I-000276J0000000D01*
G01*
X0190079Y0227480D01*
G75*
G02*
X0189803Y0227756I0000000J0000276D01*
G01*
X0189803Y0230827D01*
G75*
G02*
X0190079Y0231103I0000276J0000000D01*
G01*
X0192284Y0231103D01*
G75*
G02*
X0192559Y0230827I0000000J-000276D01*
G01*
G37*
G36*
G01*
X0196004Y0211575D02*
X0191870Y0211575D01*
G75*
G02*
X0191477Y0211969I0000000J0000394D01*
G01*
X0191477Y0215118D01*
G75*
G02*
X0191870Y0215512I0000394J0000000D01*
G01*
X0196004Y0215512D01*
G75*
G02*
X0196398Y0215118I0000000J-000394D01*
G01*
X0196398Y0211969D01*
G75*
G02*
X0196004Y0211575I-000394J0000000D01*
G01*
G37*
G36*
G01*
X0196004Y0219449D02*
X0191870Y0219449D01*
G75*
G02*
X0191477Y0219843I0000000J0000394D01*
G01*
X0191477Y0222992D01*
G75*
G02*
X0191870Y0223386I0000394J0000000D01*
G01*
X0196004Y0223386D01*
G75*
G02*
X0196398Y0222992I0000000J-000394D01*
G01*
X0196398Y0219843D01*
G75*
G02*
X0196004Y0219449I-000394J0000000D01*
G01*
G37*
G36*
G01*
X0177697Y0208425D02*
X0181831Y0208425D01*
G75*
G02*
X0182225Y0208032I0000000J-000394D01*
G01*
X0182225Y0204882D01*
G75*
G02*
X0181831Y0204488I-000394J0000000D01*
G01*
X0177697Y0204488D01*
G75*
G02*
X0177303Y0204882I0000000J0000394D01*
G01*
X0177303Y0208032D01*
G75*
G02*
X0177697Y0208425I0000394J0000000D01*
G01*
G37*
G36*
G01*
X0177697Y0200551D02*
X0181831Y0200551D01*
G75*
G02*
X0182225Y0200158I0000000J-000394D01*
G01*
X0182225Y0197008D01*
G75*
G02*
X0181831Y0196614I-000394J0000000D01*
G01*
X0177697Y0196614D01*
G75*
G02*
X0177303Y0197008I0000000J0000394D01*
G01*
X0177303Y0200158D01*
G75*
G02*
X0177697Y0200551I0000394J0000000D01*
G01*
G37*
G36*
G01*
X0175492Y0236536D02*
X0175492Y0233858D01*
G75*
G02*
X0175158Y0233524I-000335J0000000D01*
G01*
X0172481Y0233524D01*
G75*
G02*
X0172146Y0233858I0000000J0000335D01*
G01*
X0172146Y0236536D01*
G75*
G02*
X0172481Y0236870I0000335J0000000D01*
G01*
X0175158Y0236870D01*
G75*
G02*
X0175492Y0236536I0000000J-000335D01*
G01*
G37*
G36*
G01*
X0169272Y0236536D02*
X0169272Y0233858D01*
G75*
G02*
X0168937Y0233524I-000335J0000000D01*
G01*
X0166260Y0233524D01*
G75*
G02*
X0165925Y0233858I0000000J0000335D01*
G01*
X0165925Y0236536D01*
G75*
G02*
X0166260Y0236870I0000335J0000000D01*
G01*
X0168937Y0236870D01*
G75*
G02*
X0169272Y0236536I0000000J-000335D01*
G01*
G37*
G36*
G01*
X0173425Y0192441D02*
X0173425Y0189764D01*
G75*
G02*
X0173091Y0189429I-000335J0000000D01*
G01*
X0170414Y0189429D01*
G75*
G02*
X0170079Y0189764I0000000J0000335D01*
G01*
X0170079Y0192441D01*
G75*
G02*
X0170414Y0192776I0000335J0000000D01*
G01*
X0173091Y0192776D01*
G75*
G02*
X0173425Y0192441I0000000J-000335D01*
G01*
G37*
G36*
G01*
X0167205Y0192441D02*
X0167205Y0189764D01*
G75*
G02*
X0166870Y0189429I-000335J0000000D01*
G01*
X0164193Y0189429D01*
G75*
G02*
X0163858Y0189764I0000000J0000335D01*
G01*
X0163858Y0192441D01*
G75*
G02*
X0164193Y0192776I0000335J0000000D01*
G01*
X0166870Y0192776D01*
G75*
G02*
X0167205Y0192441I0000000J-000335D01*
G01*
G37*
G36*
G01*
X0188918Y0211575D02*
X0184784Y0211575D01*
G75*
G02*
X0184390Y0211969I0000000J0000394D01*
G01*
X0184390Y0215118D01*
G75*
G02*
X0184784Y0215512I0000394J0000000D01*
G01*
X0188918Y0215512D01*
G75*
G02*
X0189311Y0215118I0000000J-000394D01*
G01*
X0189311Y0211969D01*
G75*
G02*
X0188918Y0211575I-000394J0000000D01*
G01*
G37*
G36*
G01*
X0188918Y0219449D02*
X0184784Y0219449D01*
G75*
G02*
X0184390Y0219843I0000000J0000394D01*
G01*
X0184390Y0222992D01*
G75*
G02*
X0184784Y0223386I0000394J0000000D01*
G01*
X0188918Y0223386D01*
G75*
G02*
X0189311Y0222992I0000000J-000394D01*
G01*
X0189311Y0219843D01*
G75*
G02*
X0188918Y0219449I-000394J0000000D01*
G01*
G37*
G36*
G01*
X0184784Y0208425D02*
X0188918Y0208425D01*
G75*
G02*
X0189311Y0208032I0000000J-000394D01*
G01*
X0189311Y0204882D01*
G75*
G02*
X0188918Y0204488I-000394J0000000D01*
G01*
X0184784Y0204488D01*
G75*
G02*
X0184390Y0204882I0000000J0000394D01*
G01*
X0184390Y0208032D01*
G75*
G02*
X0184784Y0208425I0000394J0000000D01*
G01*
G37*
G36*
G01*
X0184784Y0200551D02*
X0188918Y0200551D01*
G75*
G02*
X0189311Y0200158I0000000J-000394D01*
G01*
X0189311Y0197008D01*
G75*
G02*
X0188918Y0196614I-000394J0000000D01*
G01*
X0184784Y0196614D01*
G75*
G02*
X0184390Y0197008I0000000J0000394D01*
G01*
X0184390Y0200158D01*
G75*
G02*
X0184784Y0200551I0000394J0000000D01*
G01*
G37*
G36*
G01*
X0174744Y0211575D02*
X0170610Y0211575D01*
G75*
G02*
X0170217Y0211969I0000000J0000394D01*
G01*
X0170217Y0215118D01*
G75*
G02*
X0170610Y0215512I0000394J0000000D01*
G01*
X0174744Y0215512D01*
G75*
G02*
X0175138Y0215118I0000000J-000394D01*
G01*
X0175138Y0211969D01*
G75*
G02*
X0174744Y0211575I-000394J0000000D01*
G01*
G37*
G36*
G01*
X0174744Y0219449D02*
X0170610Y0219449D01*
G75*
G02*
X0170217Y0219843I0000000J0000394D01*
G01*
X0170217Y0222992D01*
G75*
G02*
X0170610Y0223386I0000394J0000000D01*
G01*
X0174744Y0223386D01*
G75*
G02*
X0175138Y0222992I0000000J-000394D01*
G01*
X0175138Y0219843D01*
G75*
G02*
X0174744Y0219449I-000394J0000000D01*
G01*
G37*
G36*
G01*
X0163524Y0208425D02*
X0167658Y0208425D01*
G75*
G02*
X0168051Y0208032I0000000J-000394D01*
G01*
X0168051Y0204882D01*
G75*
G02*
X0167658Y0204488I-000394J0000000D01*
G01*
X0163524Y0204488D01*
G75*
G02*
X0163130Y0204882I0000000J0000394D01*
G01*
X0163130Y0208032D01*
G75*
G02*
X0163524Y0208425I0000394J0000000D01*
G01*
G37*
G36*
G01*
X0163524Y0200551D02*
X0167658Y0200551D01*
G75*
G02*
X0168051Y0200158I0000000J-000394D01*
G01*
X0168051Y0197008D01*
G75*
G02*
X0167658Y0196614I-000394J0000000D01*
G01*
X0163524Y0196614D01*
G75*
G02*
X0163130Y0197008I0000000J0000394D01*
G01*
X0163130Y0200158D01*
G75*
G02*
X0163524Y0200551I0000394J0000000D01*
G01*
G37*
G36*
G01*
X0175492Y0230630D02*
X0175492Y0227953D01*
G75*
G02*
X0175158Y0227618I-000335J0000000D01*
G01*
X0172481Y0227618D01*
G75*
G02*
X0172146Y0227953I0000000J0000335D01*
G01*
X0172146Y0230630D01*
G75*
G02*
X0172481Y0230965I0000335J0000000D01*
G01*
X0175158Y0230965D01*
G75*
G02*
X0175492Y0230630I0000000J-000335D01*
G01*
G37*
G36*
G01*
X0169272Y0230630D02*
X0169272Y0227953D01*
G75*
G02*
X0168937Y0227618I-000335J0000000D01*
G01*
X0166260Y0227618D01*
G75*
G02*
X0165925Y0227953I0000000J0000335D01*
G01*
X0165925Y0230630D01*
G75*
G02*
X0166260Y0230965I0000335J0000000D01*
G01*
X0168937Y0230965D01*
G75*
G02*
X0169272Y0230630I0000000J-000335D01*
G01*
G37*
G36*
G01*
X0167658Y0211575D02*
X0163524Y0211575D01*
G75*
G02*
X0163130Y0211969I0000000J0000394D01*
G01*
X0163130Y0215118D01*
G75*
G02*
X0163524Y0215512I0000394J0000000D01*
G01*
X0167658Y0215512D01*
G75*
G02*
X0168051Y0215118I0000000J-000394D01*
G01*
X0168051Y0211969D01*
G75*
G02*
X0167658Y0211575I-000394J0000000D01*
G01*
G37*
G36*
G01*
X0167658Y0219449D02*
X0163524Y0219449D01*
G75*
G02*
X0163130Y0219843I0000000J0000394D01*
G01*
X0163130Y0222992D01*
G75*
G02*
X0163524Y0223386I0000394J0000000D01*
G01*
X0167658Y0223386D01*
G75*
G02*
X0168051Y0222992I0000000J-000394D01*
G01*
X0168051Y0219843D01*
G75*
G02*
X0167658Y0219449I-000394J0000000D01*
G01*
G37*
G36*
G01*
X0170610Y0208425D02*
X0174744Y0208425D01*
G75*
G02*
X0175138Y0208032I0000000J-000394D01*
G01*
X0175138Y0204882D01*
G75*
G02*
X0174744Y0204488I-000394J0000000D01*
G01*
X0170610Y0204488D01*
G75*
G02*
X0170217Y0204882I0000000J0000394D01*
G01*
X0170217Y0208032D01*
G75*
G02*
X0170610Y0208425I0000394J0000000D01*
G01*
G37*
G36*
G01*
X0170610Y0200551D02*
X0174744Y0200551D01*
G75*
G02*
X0175138Y0200158I0000000J-000394D01*
G01*
X0175138Y0197008D01*
G75*
G02*
X0174744Y0196614I-000394J0000000D01*
G01*
X0170610Y0196614D01*
G75*
G02*
X0170217Y0197008I0000000J0000394D01*
G01*
X0170217Y0200158D01*
G75*
G02*
X0170610Y0200551I0000394J0000000D01*
G01*
G37*
G36*
G01*
X0191870Y0208425D02*
X0196004Y0208425D01*
G75*
G02*
X0196398Y0208032I0000000J-000394D01*
G01*
X0196398Y0204882D01*
G75*
G02*
X0196004Y0204488I-000394J0000000D01*
G01*
X0191870Y0204488D01*
G75*
G02*
X0191477Y0204882I0000000J0000394D01*
G01*
X0191477Y0208032D01*
G75*
G02*
X0191870Y0208425I0000394J0000000D01*
G01*
G37*
G36*
G01*
X0191870Y0200551D02*
X0196004Y0200551D01*
G75*
G02*
X0196398Y0200158I0000000J-000394D01*
G01*
X0196398Y0197008D01*
G75*
G02*
X0196004Y0196614I-000394J0000000D01*
G01*
X0191870Y0196614D01*
G75*
G02*
X0191477Y0197008I0000000J0000394D01*
G01*
X0191477Y0200158D01*
G75*
G02*
X0191870Y0200551I0000394J0000000D01*
G01*
G37*
G36*
G01*
X0181831Y0211575D02*
X0177697Y0211575D01*
G75*
G02*
X0177303Y0211969I0000000J0000394D01*
G01*
X0177303Y0215118D01*
G75*
G02*
X0177697Y0215512I0000394J0000000D01*
G01*
X0181831Y0215512D01*
G75*
G02*
X0182225Y0215118I0000000J-000394D01*
G01*
X0182225Y0211969D01*
G75*
G02*
X0181831Y0211575I-000394J0000000D01*
G01*
G37*
G36*
G01*
X0181831Y0219449D02*
X0177697Y0219449D01*
G75*
G02*
X0177303Y0219843I0000000J0000394D01*
G01*
X0177303Y0222992D01*
G75*
G02*
X0177697Y0223386I0000394J0000000D01*
G01*
X0181831Y0223386D01*
G75*
G02*
X0182225Y0222992I0000000J-000394D01*
G01*
X0182225Y0219843D01*
G75*
G02*
X0181831Y0219449I-000394J0000000D01*
G01*
G37*
X0497195Y0382651D02*
G01*
G75*
D106*
X0465994Y0358242D02*
D03*
X0465699Y0372218D02*
D03*
X0466880Y0377238D02*
D03*
X0470325Y0375171D02*
D03*
X0284843Y0271260D02*
G01*
G75*
D136*
X0336812Y0356299D02*
D03*
X0336812Y0331004D02*
D03*
X0336812Y0346260D02*
D03*
X0336812Y0341044D02*
D03*
X0329725Y0371555D02*
D03*
X0336812Y0371555D02*
D03*
X0336812Y0361516D02*
D03*
X0329725Y0361516D02*
D03*
X0329725Y0331004D02*
D03*
X0329725Y0341044D02*
D03*
X0329725Y0346260D02*
D03*
X0329725Y0356299D02*
D03*
D137*
X0336812Y0352854D02*
D03*
X0336812Y0337599D02*
D03*
X0336812Y0349705D02*
D03*
X0336812Y0334449D02*
D03*
X0336812Y0364961D02*
D03*
X0336812Y0368110D02*
D03*
X0329725Y0368110D02*
D03*
X0329725Y0364961D02*
D03*
X0329725Y0337599D02*
D03*
X0329725Y0334449D02*
D03*
X0329725Y0352854D02*
D03*
X0329725Y0349705D02*
D03*
D144*
X0338780Y0409449D02*
D03*
X0334843Y0409449D02*
D03*
X0333268Y0405906D02*
D03*
X0329331Y0405906D02*
D03*
X0341142Y0388583D02*
D03*
X0337205Y0388583D02*
D03*
X0369795Y0330881D02*
D03*
X0365858Y0330881D02*
D03*
X0361599Y0330881D02*
D03*
X0357662Y0330881D02*
D03*
X0318277Y0363348D02*
D03*
X0314340Y0363348D02*
D03*
X0318277Y0359625D02*
D03*
X0314340Y0359625D02*
D03*
X0315861Y0396457D02*
D03*
X0319798Y0396457D02*
D03*
X0404495Y0407390D02*
D03*
X0368747Y0407151D02*
D03*
X0383662Y0330881D02*
D03*
X0351378Y0385039D02*
D03*
X0351378Y0380709D02*
D03*
X0347948Y0376490D02*
D03*
X0336671Y0376545D02*
D03*
X0357087Y0346885D02*
D03*
X0348298Y0346885D02*
D03*
X0344361Y0338400D02*
D03*
X0409278Y0308534D02*
D03*
X0383662Y0326378D02*
D03*
X0342717Y0409449D02*
D03*
X0329331Y0376454D02*
D03*
X0307678Y0377852D02*
D03*
X0293613Y0377852D02*
D03*
X0307678Y0373622D02*
D03*
X0293613Y0373622D02*
D03*
X0333316Y0326714D02*
D03*
X0288780Y0324803D02*
D03*
X0355315Y0385039D02*
D03*
X0344361Y0346885D02*
D03*
X0353150Y0346885D02*
D03*
X0353150Y0342397D02*
D03*
X0357087Y0342397D02*
D03*
X0411221Y0322441D02*
D03*
X0407284Y0322441D02*
D03*
X0405341Y0308534D02*
D03*
X0319896Y0379358D02*
D03*
X0315959Y0379358D02*
D03*
X0289675Y0377852D02*
D03*
X0333268Y0376454D02*
D03*
X0348298Y0338400D02*
D03*
X0340608Y0376545D02*
D03*
X0344011Y0376490D02*
D03*
X0303741Y0373622D02*
D03*
X0329379Y0326714D02*
D03*
X0292717Y0324803D02*
D03*
X0364810Y0407151D02*
D03*
X0338780Y0409449D02*
D03*
X0312008Y0384425D02*
D03*
X0308071Y0384425D02*
D03*
X0303741Y0377852D02*
D03*
X0387599Y0326378D02*
D03*
X0387599Y0330881D02*
D03*
X0355315Y0380709D02*
D03*
X0400558Y0407390D02*
D03*
X0391242Y0407390D02*
D03*
X0395179Y0407390D02*
D03*
X0297550Y0373622D02*
D03*
X0288780Y0328740D02*
D03*
X0292717Y0328740D02*
D03*
X0288780Y0341142D02*
D03*
X0292717Y0341142D02*
D03*
X0288780Y0345276D02*
D03*
X0292717Y0345276D02*
D03*
X0288780Y0353544D02*
D03*
X0292717Y0353544D02*
D03*
X0288780Y0349410D02*
D03*
X0292717Y0349410D02*
D03*
X0288780Y0357677D02*
D03*
X0292717Y0357677D02*
D03*
X0288780Y0337008D02*
D03*
X0292717Y0337008D02*
D03*
X0288780Y0332874D02*
D03*
X0292717Y0332874D02*
D03*
D148*
X0343770Y0360236D02*
D03*
X0343770Y0364469D02*
D03*
X0389174Y0276378D02*
D03*
X0384449Y0276378D02*
D03*
X0379725Y0276378D02*
D03*
X0375001Y0276378D02*
D03*
X0304922Y0404725D02*
D03*
X0309056Y0404725D02*
D03*
X0400236Y0312504D02*
D03*
X0400236Y0316441D02*
D03*
X0289307Y0403543D02*
D03*
X0289307Y0399607D02*
D03*
X0343770Y0368406D02*
D03*
X0343770Y0356299D02*
D03*
X0396064Y0312008D02*
D03*
X0396064Y0315945D02*
D03*
X0371291Y0284232D02*
D03*
X0371291Y0288169D02*
D03*
X0375001Y0288169D02*
D03*
X0375001Y0284232D02*
D03*
X0375001Y0298819D02*
D03*
X0375001Y0294882D02*
D03*
X0375001Y0280315D02*
D03*
X0379725Y0280315D02*
D03*
X0389174Y0280315D02*
D03*
X0384449Y0280315D02*
D03*
X0290342Y0313509D02*
D03*
X0290342Y0317446D02*
D03*
X0340552Y0316536D02*
D03*
X0340552Y0312599D02*
D03*
X0340552Y0306299D02*
D03*
X0340552Y0302362D02*
D03*
X0312599Y0316536D02*
D03*
X0312599Y0312599D02*
D03*
X0336024Y0291142D02*
D03*
X0336024Y0295079D02*
D03*
X0306694Y0291142D02*
D03*
X0306694Y0295079D02*
D03*
X0293898Y0291142D02*
D03*
X0293898Y0295079D02*
D03*
X0310790Y0284232D02*
D03*
X0310790Y0280295D02*
D03*
X0289174Y0283858D02*
D03*
X0289174Y0287795D02*
D03*
X0289371Y0280709D02*
D03*
X0289371Y0276772D02*
D03*
X0289307Y0392017D02*
D03*
X0289307Y0395954D02*
D03*
X0304922Y0408662D02*
D03*
X0309056Y0408662D02*
D03*
X0312796Y0295079D02*
D03*
X0312796Y0291142D02*
D03*
X0317126Y0295079D02*
D03*
X0317126Y0291142D02*
D03*
X0325591Y0295079D02*
D03*
X0325591Y0291142D02*
D03*
X0329757Y0280295D02*
D03*
X0329757Y0284232D02*
D03*
X0368504Y0312599D02*
D03*
X0368504Y0316536D02*
D03*
X0298229Y0295079D02*
D03*
X0298229Y0291142D02*
D03*
X0348600Y0280295D02*
D03*
X0348600Y0284232D02*
D03*
X0344489Y0295079D02*
D03*
X0344489Y0291142D02*
D03*
X0331694Y0295079D02*
D03*
X0331694Y0291142D02*
D03*
X0367580Y0280295D02*
D03*
X0367580Y0284232D02*
D03*
X0363387Y0295079D02*
D03*
X0363387Y0291142D02*
D03*
X0354922Y0295079D02*
D03*
X0354922Y0291142D02*
D03*
X0350591Y0295079D02*
D03*
X0350591Y0291142D02*
D03*
X0368368Y0298819D02*
D03*
X0368368Y0294882D02*
D03*
D150*
X0324400Y0401516D02*
D03*
X0316660Y0392041D02*
D03*
X0298327Y0368671D02*
D03*
D154*
X0372048Y0400099D02*
D03*
X0365748Y0400099D02*
D03*
X0335434Y0401477D02*
D03*
X0329134Y0401477D02*
D03*
X0335434Y0396851D02*
D03*
X0329134Y0396851D02*
D03*
D150*
X0307579Y0364930D02*
D03*
X0316660Y0384561D02*
D03*
X0325912Y0388301D02*
D03*
X0324400Y0408996D02*
D03*
X0315148Y0405256D02*
D03*
X0298327Y0361190D02*
D03*
D160*
X0362756Y0325394D02*
D03*
X0376969Y0325394D02*
D03*
X0346969Y0325394D02*
D03*
D161*
X0399961Y0402953D02*
D03*
X0379961Y0398953D02*
D03*
X0379961Y0406953D02*
D03*
D14*
X0289174Y0408662D02*
D03*
D180*
X0332874Y0391654D02*
D03*
X0332874Y0385433D02*
D03*
D181*
X0362304Y0320866D02*
D03*
X0362304Y0313780D02*
D03*
X0352264Y0313780D02*
D03*
X0352264Y0320866D02*
D03*
X0334351Y0313780D02*
D03*
X0306398Y0313780D02*
D03*
X0324312Y0309843D02*
D03*
X0379430Y0284646D02*
D03*
X0379430Y0291732D02*
D03*
X0389469Y0291732D02*
D03*
X0389469Y0284646D02*
D03*
X0296359Y0302756D02*
D03*
X0296359Y0309843D02*
D03*
X0306398Y0309843D02*
D03*
X0306398Y0302756D02*
D03*
X0306398Y0320866D02*
D03*
X0296359Y0313780D02*
D03*
X0296359Y0320866D02*
D03*
X0324312Y0302756D02*
D03*
X0334351Y0309843D02*
D03*
X0334351Y0302756D02*
D03*
X0334351Y0320866D02*
D03*
X0324312Y0313780D02*
D03*
X0324312Y0320866D02*
D03*
X0325296Y0278937D02*
D03*
X0325296Y0286024D02*
D03*
X0315256Y0286024D02*
D03*
X0315256Y0278937D02*
D03*
X0306398Y0278937D02*
D03*
X0306398Y0286024D02*
D03*
X0296359Y0286024D02*
D03*
X0296359Y0278937D02*
D03*
X0344194Y0278937D02*
D03*
X0344194Y0286024D02*
D03*
X0334154Y0286024D02*
D03*
X0334154Y0278937D02*
D03*
X0363091Y0278937D02*
D03*
X0363091Y0286024D02*
D03*
X0353052Y0286024D02*
D03*
X0353052Y0278937D02*
D03*
X0362304Y0302756D02*
D03*
X0362304Y0309843D02*
D03*
X0352264Y0309843D02*
D03*
X0352264Y0302756D02*
D03*
X0389863Y0302756D02*
D03*
X0389863Y0309843D02*
D03*
X0379823Y0309843D02*
D03*
X0379823Y0302756D02*
D03*
X0379823Y0320866D02*
D03*
X0379823Y0313780D02*
D03*
X0389863Y0313780D02*
D03*
X0389863Y0320866D02*
D03*
D182*
X0355709Y0313780D02*
D03*
X0358859Y0313780D02*
D03*
X0358859Y0320866D02*
D03*
X0355709Y0320866D02*
D03*
X0330906Y0313780D02*
D03*
X0302953Y0313780D02*
D03*
X0327756Y0309843D02*
D03*
X0386024Y0291732D02*
D03*
X0382875Y0291732D02*
D03*
X0382875Y0284646D02*
D03*
X0386024Y0284646D02*
D03*
X0302953Y0309843D02*
D03*
X0299804Y0309843D02*
D03*
X0299804Y0302756D02*
D03*
X0302953Y0302756D02*
D03*
X0299804Y0313780D02*
D03*
X0302953Y0320866D02*
D03*
X0299804Y0320866D02*
D03*
X0330906Y0309843D02*
D03*
X0327756Y0302756D02*
D03*
X0330906Y0302756D02*
D03*
X0327757Y0313780D02*
D03*
X0330906Y0320866D02*
D03*
X0327757Y0320866D02*
D03*
X0321851Y0278937D02*
D03*
X0318701Y0278937D02*
D03*
X0318701Y0286024D02*
D03*
X0321851Y0286024D02*
D03*
X0302954Y0278937D02*
D03*
X0299804Y0278937D02*
D03*
X0299804Y0286024D02*
D03*
X0302954Y0286024D02*
D03*
X0340749Y0278937D02*
D03*
X0337599Y0278937D02*
D03*
X0337599Y0286024D02*
D03*
X0340749Y0286024D02*
D03*
X0359646Y0278937D02*
D03*
X0356497Y0278937D02*
D03*
X0356497Y0286024D02*
D03*
X0359646Y0286024D02*
D03*
X0358859Y0302756D02*
D03*
X0355709Y0302756D02*
D03*
X0355709Y0309843D02*
D03*
X0358859Y0309843D02*
D03*
X0386418Y0302756D02*
D03*
X0383268Y0302756D02*
D03*
X0383268Y0309843D02*
D03*
X0386418Y0309843D02*
D03*
X0383268Y0320866D02*
D03*
X0386418Y0320866D02*
D03*
X0386418Y0313780D02*
D03*
X0383268Y0313780D02*
D03*
D183*
X0394646Y0398130D02*
D03*
X0394646Y0403120D02*
D03*
X0388426Y0403120D02*
D03*
X0388426Y0398130D02*
D03*
D184*
X0407284Y0391240D02*
D03*
X0374607Y0391240D02*
D03*
X0407284Y0337107D02*
D03*
X0374607Y0337107D02*
D03*
D185*
X0397048Y0373209D02*
D03*
X0397048Y0381870D02*
D03*
X0397048Y0377540D02*
D03*
X0397048Y0368878D02*
D03*
X0397048Y0364547D02*
D03*
X0397048Y0360217D02*
D03*
X0397048Y0355886D02*
D03*
X0397048Y0351555D02*
D03*
D186*
X0415355Y0292599D02*
D03*
X0402151Y0292599D02*
D03*
X0407874Y0284567D02*
D03*
X0394671Y0284567D02*
D03*
X0411615Y0301851D02*
D03*
X0398411Y0301851D02*
D03*
X0398411Y0275315D02*
D03*
X0310237Y0390236D02*
D03*
X0306497Y0399488D02*
D03*
X0411615Y0275315D02*
D03*
D187*
X0409278Y0318372D02*
D03*
X0405341Y0318372D02*
D03*
X0409278Y0312368D02*
D03*
X0407310Y0312368D02*
D03*
X0407310Y0318372D02*
D03*
X0405341Y0312368D02*
D03*
D188*
X0318713Y0375020D02*
D03*
X0313595Y0375020D02*
D03*
X0316154Y0375020D02*
D03*
X0318713Y0367539D02*
D03*
X0313595Y0367539D02*
D03*
D189*
X0321930Y0355512D02*
D03*
X0298938Y0352953D02*
D03*
X0298938Y0355512D02*
D03*
X0321930Y0332481D02*
D03*
X0298938Y0329922D02*
D03*
X0298938Y0327362D02*
D03*
X0298938Y0332481D02*
D03*
X0298938Y0335040D02*
D03*
X0298938Y0337599D02*
D03*
X0298938Y0340158D02*
D03*
X0298938Y0342717D02*
D03*
X0298938Y0345276D02*
D03*
X0298938Y0347835D02*
D03*
X0298938Y0350394D02*
D03*
X0321930Y0327362D02*
D03*
X0321930Y0329922D02*
D03*
X0321930Y0335040D02*
D03*
X0321930Y0337599D02*
D03*
X0321930Y0340158D02*
D03*
X0321930Y0342717D02*
D03*
X0321930Y0345276D02*
D03*
X0321930Y0347835D02*
D03*
X0321930Y0350394D02*
D03*
X0321930Y0352953D02*
D03*
D190*
X0295867Y0393099D02*
D03*
X0295867Y0404517D02*
D03*
D191*
X0353957Y0395234D02*
D03*
X0340965Y0395234D02*
D03*
X0289880Y0384034D02*
D03*
X0302872Y0384034D02*
D03*
D192*
X0352732Y0369829D02*
D03*
X0352732Y0355262D02*
D03*
D193*
X0404308Y0314386D02*
D03*
X0404308Y0316354D02*
D03*
X0410312Y0316354D02*
D03*
X0410312Y0314386D02*
D03*
D194*
X0339321Y0382352D02*
D03*
X0345226Y0382352D02*
D03*
D186*
X0407874Y0292599D02*
D03*
X0394671Y0292599D02*
D03*
X0402151Y0284567D02*
D03*
X0302756Y0390236D02*
D03*
X0415355Y0284567D02*
D03*
D195*
X0342124Y0331693D02*
D03*
X0348817Y0331693D02*
D03*
D196*
X0358485Y0405230D02*
D03*
X0347068Y0405230D02*
D03*
D197*
X0289568Y0370866D02*
D03*
X0289568Y0364567D02*
D03*
X0099606Y0269685D02*
%LPD*%
G01*
D201*
X0111220Y0178504D03*
X0123031Y0186378D03*
X0111220Y0194252D03*
D134*
X0110433Y0265512D03*
X0106433Y0245512D03*
X0114433Y0245512D03*
D290*
X0149311Y0176024D03*
D291*
X0149311Y0186024D03*
X0149311Y0196024D03*
G36*
G01*
X0106965Y0189980D02*
X0108323Y0189980D01*
G75*
G02*
X0108904Y0189400I0000000J-000581D01*
G01*
X0108904Y0188238D01*
G75*
G02*
X0108323Y0187657I-000581J0000000D01*
G01*
X0106965Y0187657D01*
G75*
G02*
X0106384Y0188238I0000000J0000581D01*
G01*
X0106384Y0189400D01*
G75*
G02*
X0106965Y0189980I0000581J0000000D01*
G01*
G37*
G36*
G01*
X0106965Y0186161D02*
X0108323Y0186161D01*
G75*
G02*
X0108904Y0185581I0000000J-000581D01*
G01*
X0108904Y0184419D01*
G75*
G02*
X0108323Y0183839I-000581J0000000D01*
G01*
X0106965Y0183839D01*
G75*
G02*
X0106384Y0184419I0000000J0000581D01*
G01*
X0106384Y0185581D01*
G75*
G02*
X0106965Y0186161I0000581J0000000D01*
G01*
G37*
G36*
G01*
X0122254Y0175512D02*
X0123612Y0175512D01*
G75*
G02*
X0124193Y0174931I0000000J-000581D01*
G01*
X0124193Y0173770D01*
G75*
G02*
X0123612Y0173189I-000581J0000000D01*
G01*
X0122254Y0173189D01*
G75*
G02*
X0121673Y0173770I0000000J0000581D01*
G01*
X0121673Y0174931D01*
G75*
G02*
X0122254Y0175512I0000581J0000000D01*
G01*
G37*
G36*
G01*
X0122254Y0171693D02*
X0123612Y0171693D01*
G75*
G02*
X0124193Y0171112I0000000J-000581D01*
G01*
X0124193Y0169951D01*
G75*
G02*
X0123612Y0169370I-000581J0000000D01*
G01*
X0122254Y0169370D01*
G75*
G02*
X0121673Y0169951I0000000J0000581D01*
G01*
X0121673Y0171112D01*
G75*
G02*
X0122254Y0171693I0000581J0000000D01*
G01*
G37*
G36*
G01*
X0148450Y0225394D02*
X0146432Y0225394D01*
G75*
G02*
X0145571Y0226255I0000000J0000861D01*
G01*
X0145571Y0227977D01*
G75*
G02*
X0146432Y0228839I0000861J0000000D01*
G01*
X0148450Y0228839D01*
G75*
G02*
X0149311Y0227977I0000000J-000861D01*
G01*
X0149311Y0226255D01*
G75*
G02*
X0148450Y0225394I-000861J0000000D01*
G01*
G37*
G36*
G01*
X0148450Y0231594D02*
X0146432Y0231594D01*
G75*
G02*
X0145571Y0232456I0000000J0000861D01*
G01*
X0145571Y0234178D01*
G75*
G02*
X0146432Y0235039I0000861J0000000D01*
G01*
X0148450Y0235039D01*
G75*
G02*
X0149311Y0234178I0000000J-000861D01*
G01*
X0149311Y0232456D01*
G75*
G02*
X0148450Y0231594I-000861J0000000D01*
G01*
G37*
G36*
G01*
X0104124Y0183839D02*
X0102765Y0183839D01*
G75*
G02*
X0102185Y0184419I0000000J0000581D01*
G01*
X0102185Y0185581D01*
G75*
G02*
X0102765Y0186161I0000581J0000000D01*
G01*
X0104124Y0186161D01*
G75*
G02*
X0104704Y0185581I0000000J-000581D01*
G01*
X0104704Y0184419D01*
G75*
G02*
X0104124Y0183839I-000581J0000000D01*
G01*
G37*
G36*
G01*
X0104124Y0187657D02*
X0102765Y0187657D01*
G75*
G02*
X0102185Y0188238I0000000J0000581D01*
G01*
X0102185Y0189400D01*
G75*
G02*
X0102765Y0189980I0000581J0000000D01*
G01*
X0104124Y0189980D01*
G75*
G02*
X0104704Y0189400I0000000J-000581D01*
G01*
X0104704Y0188238D01*
G75*
G02*
X0104124Y0187657I-000581J0000000D01*
G01*
G37*
G36*
G01*
X0143120Y0243540D02*
X0144478Y0243540D01*
G75*
G02*
X0145059Y0242960I0000000J-000581D01*
G01*
X0145059Y0241798D01*
G75*
G02*
X0144478Y0241218I-000581J0000000D01*
G01*
X0143120Y0241218D01*
G75*
G02*
X0142539Y0241798I0000000J0000581D01*
G01*
X0142539Y0242960D01*
G75*
G02*
X0143120Y0243540I0000581J0000000D01*
G01*
G37*
G36*
G01*
X0143120Y0239722D02*
X0144478Y0239722D01*
G75*
G02*
X0145059Y0239141I0000000J-000581D01*
G01*
X0145059Y0237979D01*
G75*
G02*
X0144478Y0237399I-000581J0000000D01*
G01*
X0143120Y0237399D01*
G75*
G02*
X0142539Y0237979I0000000J0000581D01*
G01*
X0142539Y0239141D01*
G75*
G02*
X0143120Y0239722I0000581J0000000D01*
G01*
G37*
G36*
G01*
X0141250Y0235453D02*
X0142608Y0235453D01*
G75*
G02*
X0143189Y0234872I0000000J-000581D01*
G01*
X0143189Y0233711D01*
G75*
G02*
X0142608Y0233130I-000581J0000000D01*
G01*
X0141250Y0233130D01*
G75*
G02*
X0140669Y0233711I0000000J0000581D01*
G01*
X0140669Y0234872D01*
G75*
G02*
X0141250Y0235453I0000581J0000000D01*
G01*
G37*
G36*
G01*
X0141250Y0231634D02*
X0142608Y0231634D01*
G75*
G02*
X0143189Y0231053I0000000J-000581D01*
G01*
X0143189Y0229892D01*
G75*
G02*
X0142608Y0229311I-000581J0000000D01*
G01*
X0141250Y0229311D01*
G75*
G02*
X0140669Y0229892I0000000J0000581D01*
G01*
X0140669Y0231053D01*
G75*
G02*
X0141250Y0231634I0000581J0000000D01*
G01*
G37*
G36*
G01*
X0148582Y0264065D02*
X0148582Y0262707D01*
G75*
G02*
X0148002Y0262126I-000581J0000000D01*
G01*
X0146840Y0262126D01*
G75*
G02*
X0146260Y0262707I0000000J0000581D01*
G01*
X0146260Y0264065D01*
G75*
G02*
X0146840Y0264646I0000581J0000000D01*
G01*
X0148002Y0264646D01*
G75*
G02*
X0148582Y0264065I0000000J-000581D01*
G01*
G37*
G36*
G01*
X0144763Y0264065D02*
X0144763Y0262707D01*
G75*
G02*
X0144183Y0262126I-000581J0000000D01*
G01*
X0143021Y0262126D01*
G75*
G02*
X0142441Y0262707I0000000J0000581D01*
G01*
X0142441Y0264065D01*
G75*
G02*
X0143021Y0264646I0000581J0000000D01*
G01*
X0144183Y0264646D01*
G75*
G02*
X0144763Y0264065I0000000J-000581D01*
G01*
G37*
G36*
G01*
X0130994Y0214547D02*
X0129636Y0214547D01*
G75*
G02*
X0129055Y0215128I0000000J0000581D01*
G01*
X0129055Y0216289D01*
G75*
G02*
X0129636Y0216870I0000581J0000000D01*
G01*
X0130994Y0216870D01*
G75*
G02*
X0131575Y0216289I0000000J-000581D01*
G01*
X0131575Y0215128D01*
G75*
G02*
X0130994Y0214547I-000581J0000000D01*
G01*
G37*
G36*
G01*
X0130994Y0218366D02*
X0129636Y0218366D01*
G75*
G02*
X0129055Y0218947I0000000J0000581D01*
G01*
X0129055Y0220108D01*
G75*
G02*
X0129636Y0220689I0000581J0000000D01*
G01*
X0130994Y0220689D01*
G75*
G02*
X0131575Y0220108I0000000J-000581D01*
G01*
X0131575Y0218947D01*
G75*
G02*
X0130994Y0218366I-000581J0000000D01*
G01*
G37*
G36*
G01*
X0125699Y0220689D02*
X0127057Y0220689D01*
G75*
G02*
X0127637Y0220108I0000000J-000581D01*
G01*
X0127637Y0218947D01*
G75*
G02*
X0127057Y0218366I-000581J0000000D01*
G01*
X0125699Y0218366D01*
G75*
G02*
X0125118Y0218947I0000000J0000581D01*
G01*
X0125118Y0220108D01*
G75*
G02*
X0125699Y0220689I0000581J0000000D01*
G01*
G37*
G36*
G01*
X0125699Y0216870D02*
X0127057Y0216870D01*
G75*
G02*
X0127637Y0216289I0000000J-000581D01*
G01*
X0127637Y0215128D01*
G75*
G02*
X0127057Y0214547I-000581J0000000D01*
G01*
X0125699Y0214547D01*
G75*
G02*
X0125118Y0215128I0000000J0000581D01*
G01*
X0125118Y0216289D01*
G75*
G02*
X0125699Y0216870I0000581J0000000D01*
G01*
G37*
G36*
G01*
X0128139Y0173209D02*
X0126781Y0173209D01*
G75*
G02*
X0126200Y0173789I0000000J0000581D01*
G01*
X0126200Y0174951D01*
G75*
G02*
X0126781Y0175531I0000581J0000000D01*
G01*
X0128139Y0175531D01*
G75*
G02*
X0128720Y0174951I0000000J-000581D01*
G01*
X0128720Y0173789D01*
G75*
G02*
X0128139Y0173209I-000581J0000000D01*
G01*
G37*
G36*
G01*
X0128139Y0177028D02*
X0126781Y0177028D01*
G75*
G02*
X0126200Y0177608I0000000J0000581D01*
G01*
X0126200Y0178770D01*
G75*
G02*
X0126781Y0179350I0000581J0000000D01*
G01*
X0128139Y0179350D01*
G75*
G02*
X0128720Y0178770I0000000J-000581D01*
G01*
X0128720Y0177608D01*
G75*
G02*
X0128139Y0177028I-000581J0000000D01*
G01*
G37*
D293*
X0104724Y0227559D03*
X0107283Y0227559D03*
X0109842Y0227559D03*
X0112401Y0227559D03*
X0114960Y0227559D03*
X0117519Y0227559D03*
X0120078Y0227559D03*
X0120078Y0204331D03*
X0117519Y0204331D03*
X0114960Y0204331D03*
X0112401Y0204331D03*
X0109842Y0204331D03*
X0107283Y0204331D03*
X0104724Y0204331D03*
G36*
G01*
X0148218Y0237382D02*
X0146860Y0237382D01*
G75*
G02*
X0146279Y0237963I0000000J0000581D01*
G01*
X0146279Y0239124D01*
G75*
G02*
X0146860Y0239705I0000581J0000000D01*
G01*
X0148218Y0239705D01*
G75*
G02*
X0148799Y0239124I0000000J-000581D01*
G01*
X0148799Y0237963D01*
G75*
G02*
X0148218Y0237382I-000581J0000000D01*
G01*
G37*
G36*
G01*
X0148218Y0241201D02*
X0146860Y0241201D01*
G75*
G02*
X0146279Y0241781I0000000J0000581D01*
G01*
X0146279Y0242943D01*
G75*
G02*
X0146860Y0243524I0000581J0000000D01*
G01*
X0148218Y0243524D01*
G75*
G02*
X0148799Y0242943I0000000J-000581D01*
G01*
X0148799Y0241781D01*
G75*
G02*
X0148218Y0241201I-000581J0000000D01*
G01*
G37*
G36*
G01*
X0150600Y0243524D02*
X0151958Y0243524D01*
G75*
G02*
X0152539Y0242943I0000000J-000581D01*
G01*
X0152539Y0241781D01*
G75*
G02*
X0151958Y0241201I-000581J0000000D01*
G01*
X0150600Y0241201D01*
G75*
G02*
X0150019Y0241781I0000000J0000581D01*
G01*
X0150019Y0242943D01*
G75*
G02*
X0150600Y0243524I0000581J0000000D01*
G01*
G37*
G36*
G01*
X0150600Y0239705D02*
X0151958Y0239705D01*
G75*
G02*
X0152539Y0239124I0000000J-000581D01*
G01*
X0152539Y0237963D01*
G75*
G02*
X0151958Y0237382I-000581J0000000D01*
G01*
X0150600Y0237382D01*
G75*
G02*
X0150019Y0237963I0000000J0000581D01*
G01*
X0150019Y0239124D01*
G75*
G02*
X0150600Y0239705I0000581J0000000D01*
G01*
G37*
G36*
G01*
X0141151Y0183287D02*
X0142510Y0183287D01*
G75*
G02*
X0143090Y0182707I0000000J-000581D01*
G01*
X0143090Y0181545D01*
G75*
G02*
X0142510Y0180965I-000581J0000000D01*
G01*
X0141151Y0180965D01*
G75*
G02*
X0140571Y0181545I0000000J0000581D01*
G01*
X0140571Y0182707D01*
G75*
G02*
X0141151Y0183287I0000581J0000000D01*
G01*
G37*
G36*
G01*
X0141151Y0179468D02*
X0142510Y0179468D01*
G75*
G02*
X0143090Y0178888I0000000J-000581D01*
G01*
X0143090Y0177726D01*
G75*
G02*
X0142510Y0177146I-000581J0000000D01*
G01*
X0141151Y0177146D01*
G75*
G02*
X0140571Y0177726I0000000J0000581D01*
G01*
X0140571Y0178888D01*
G75*
G02*
X0141151Y0179468I0000581J0000000D01*
G01*
G37*
G36*
G01*
X0111853Y0189980D02*
X0113212Y0189980D01*
G75*
G02*
X0113792Y0189400I0000000J-000581D01*
G01*
X0113792Y0188238D01*
G75*
G02*
X0113212Y0187657I-000581J0000000D01*
G01*
X0111853Y0187657D01*
G75*
G02*
X0111273Y0188238I0000000J0000581D01*
G01*
X0111273Y0189400D01*
G75*
G02*
X0111853Y0189980I0000581J0000000D01*
G01*
G37*
G36*
G01*
X0111853Y0186161D02*
X0113212Y0186161D01*
G75*
G02*
X0113792Y0185581I0000000J-000581D01*
G01*
X0113792Y0184419D01*
G75*
G02*
X0113212Y0183839I-000581J0000000D01*
G01*
X0111853Y0183839D01*
G75*
G02*
X0111273Y0184419I0000000J0000581D01*
G01*
X0111273Y0185581D01*
G75*
G02*
X0111853Y0186161I0000581J0000000D01*
G01*
G37*
G36*
G01*
X0134931Y0217795D02*
X0133573Y0217795D01*
G75*
G02*
X0132992Y0218376I0000000J0000581D01*
G01*
X0132992Y0219537D01*
G75*
G02*
X0133573Y0220118I0000581J0000000D01*
G01*
X0134931Y0220118D01*
G75*
G02*
X0135512Y0219537I0000000J-000581D01*
G01*
X0135512Y0218376D01*
G75*
G02*
X0134931Y0217795I-000581J0000000D01*
G01*
G37*
G36*
G01*
X0134931Y0221614D02*
X0133573Y0221614D01*
G75*
G02*
X0132992Y0222195I0000000J0000581D01*
G01*
X0132992Y0223356D01*
G75*
G02*
X0133573Y0223937I0000581J0000000D01*
G01*
X0134931Y0223937D01*
G75*
G02*
X0135512Y0223356I0000000J-000581D01*
G01*
X0135512Y0222195D01*
G75*
G02*
X0134931Y0221614I-000581J0000000D01*
G01*
G37*
G36*
G01*
X0142510Y0169468D02*
X0141151Y0169468D01*
G75*
G02*
X0140571Y0170049I0000000J0000581D01*
G01*
X0140571Y0171211D01*
G75*
G02*
X0141151Y0171791I0000581J0000000D01*
G01*
X0142510Y0171791D01*
G75*
G02*
X0143090Y0171211I0000000J-000581D01*
G01*
X0143090Y0170049D01*
G75*
G02*
X0142510Y0169468I-000581J0000000D01*
G01*
G37*
G36*
G01*
X0142510Y0173287D02*
X0141151Y0173287D01*
G75*
G02*
X0140571Y0173868I0000000J0000581D01*
G01*
X0140571Y0175029D01*
G75*
G02*
X0141151Y0175610I0000581J0000000D01*
G01*
X0142510Y0175610D01*
G75*
G02*
X0143090Y0175029I0000000J-000581D01*
G01*
X0143090Y0173868D01*
G75*
G02*
X0142510Y0173287I-000581J0000000D01*
G01*
G37*
G36*
G01*
X0127057Y0221929D02*
X0125699Y0221929D01*
G75*
G02*
X0125118Y0222510I0000000J0000581D01*
G01*
X0125118Y0223671D01*
G75*
G02*
X0125699Y0224252I0000581J0000000D01*
G01*
X0127057Y0224252D01*
G75*
G02*
X0127637Y0223671I0000000J-000581D01*
G01*
X0127637Y0222510D01*
G75*
G02*
X0127057Y0221929I-000581J0000000D01*
G01*
G37*
G36*
G01*
X0127057Y0225748D02*
X0125699Y0225748D01*
G75*
G02*
X0125118Y0226329I0000000J0000581D01*
G01*
X0125118Y0227490D01*
G75*
G02*
X0125699Y0228071I0000581J0000000D01*
G01*
X0127057Y0228071D01*
G75*
G02*
X0127637Y0227490I0000000J-000581D01*
G01*
X0127637Y0226329D01*
G75*
G02*
X0127057Y0225748I-000581J0000000D01*
G01*
G37*
G36*
G01*
X0102441Y0233179D02*
X0102441Y0234537D01*
G75*
G02*
X0103021Y0235118I0000581J0000000D01*
G01*
X0104183Y0235118D01*
G75*
G02*
X0104763Y0234537I0000000J-000581D01*
G01*
X0104763Y0233179D01*
G75*
G02*
X0104183Y0232598I-000581J0000000D01*
G01*
X0103021Y0232598D01*
G75*
G02*
X0102441Y0233179I0000000J0000581D01*
G01*
G37*
G36*
G01*
X0106260Y0233179D02*
X0106260Y0234537D01*
G75*
G02*
X0106840Y0235118I0000581J0000000D01*
G01*
X0108002Y0235118D01*
G75*
G02*
X0108582Y0234537I0000000J-000581D01*
G01*
X0108582Y0233179D01*
G75*
G02*
X0108002Y0232598I-000581J0000000D01*
G01*
X0106840Y0232598D01*
G75*
G02*
X0106260Y0233179I0000000J0000581D01*
G01*
G37*
G36*
G01*
X0130994Y0207067D02*
X0129636Y0207067D01*
G75*
G02*
X0129055Y0207648I0000000J0000581D01*
G01*
X0129055Y0208809D01*
G75*
G02*
X0129636Y0209390I0000581J0000000D01*
G01*
X0130994Y0209390D01*
G75*
G02*
X0131575Y0208809I0000000J-000581D01*
G01*
X0131575Y0207648D01*
G75*
G02*
X0130994Y0207067I-000581J0000000D01*
G01*
G37*
G36*
G01*
X0130994Y0210886D02*
X0129636Y0210886D01*
G75*
G02*
X0129055Y0211466I0000000J0000581D01*
G01*
X0129055Y0212628D01*
G75*
G02*
X0129636Y0213209I0000581J0000000D01*
G01*
X0130994Y0213209D01*
G75*
G02*
X0131575Y0212628I0000000J-000581D01*
G01*
X0131575Y0211466D01*
G75*
G02*
X0130994Y0210886I-000581J0000000D01*
G01*
G37*
G36*
G01*
X0129636Y0205728D02*
X0130994Y0205728D01*
G75*
G02*
X0131575Y0205148I0000000J-000581D01*
G01*
X0131575Y0203986D01*
G75*
G02*
X0130994Y0203405I-000581J0000000D01*
G01*
X0129636Y0203405D01*
G75*
G02*
X0129055Y0203986I0000000J0000581D01*
G01*
X0129055Y0205148D01*
G75*
G02*
X0129636Y0205728I0000581J0000000D01*
G01*
G37*
G36*
G01*
X0129636Y0201909D02*
X0130994Y0201909D01*
G75*
G02*
X0131575Y0201329I0000000J-000581D01*
G01*
X0131575Y0200167D01*
G75*
G02*
X0130994Y0199587I-000581J0000000D01*
G01*
X0129636Y0199587D01*
G75*
G02*
X0129055Y0200167I0000000J0000581D01*
G01*
X0129055Y0201329D01*
G75*
G02*
X0129636Y0201909I0000581J0000000D01*
G01*
G37*
G36*
G01*
X0102441Y0236919D02*
X0102441Y0238278D01*
G75*
G02*
X0103021Y0238858I0000581J0000000D01*
G01*
X0104183Y0238858D01*
G75*
G02*
X0104763Y0238278I0000000J-000581D01*
G01*
X0104763Y0236919D01*
G75*
G02*
X0104183Y0236339I-000581J0000000D01*
G01*
X0103021Y0236339D01*
G75*
G02*
X0102441Y0236919I0000000J0000581D01*
G01*
G37*
G36*
G01*
X0106260Y0236919D02*
X0106260Y0238278D01*
G75*
G02*
X0106840Y0238858I0000581J0000000D01*
G01*
X0108002Y0238858D01*
G75*
G02*
X0108582Y0238278I0000000J-000581D01*
G01*
X0108582Y0236919D01*
G75*
G02*
X0108002Y0236339I-000581J0000000D01*
G01*
X0106840Y0236339D01*
G75*
G02*
X0106260Y0236919I0000000J0000581D01*
G01*
G37*
D294*
X0151279Y0247598D03*
X0147539Y0247598D03*
X0143799Y0247598D03*
X0143799Y0257913D03*
X0151279Y0257913D03*
G36*
G01*
X0133573Y0213110D02*
X0134931Y0213110D01*
G75*
G02*
X0135512Y0212529I0000000J-000581D01*
G01*
X0135512Y0211368D01*
G75*
G02*
X0134931Y0210787I-000581J0000000D01*
G01*
X0133573Y0210787D01*
G75*
G02*
X0132992Y0211368I0000000J0000581D01*
G01*
X0132992Y0212529D01*
G75*
G02*
X0133573Y0213110I0000581J0000000D01*
G01*
G37*
G36*
G01*
X0133573Y0209291D02*
X0134931Y0209291D01*
G75*
G02*
X0135512Y0208711I0000000J-000581D01*
G01*
X0135512Y0207549D01*
G75*
G02*
X0134931Y0206968I-000581J0000000D01*
G01*
X0133573Y0206968D01*
G75*
G02*
X0132992Y0207549I0000000J0000581D01*
G01*
X0132992Y0208711D01*
G75*
G02*
X0133573Y0209291I0000581J0000000D01*
G01*
G37*
G36*
G01*
X0137677Y0225699D02*
X0137677Y0227057D01*
G75*
G02*
X0138258Y0227638I0000581J0000000D01*
G01*
X0139419Y0227638D01*
G75*
G02*
X0140000Y0227057I0000000J-000581D01*
G01*
X0140000Y0225699D01*
G75*
G02*
X0139419Y0225118I-000581J0000000D01*
G01*
X0138258Y0225118D01*
G75*
G02*
X0137677Y0225699I0000000J0000581D01*
G01*
G37*
G36*
G01*
X0141496Y0225699D02*
X0141496Y0227057D01*
G75*
G02*
X0142076Y0227638I0000581J0000000D01*
G01*
X0143238Y0227638D01*
G75*
G02*
X0143819Y0227057I0000000J-000581D01*
G01*
X0143819Y0225699D01*
G75*
G02*
X0143238Y0225118I-000581J0000000D01*
G01*
X0142076Y0225118D01*
G75*
G02*
X0141496Y0225699I0000000J0000581D01*
G01*
G37*
G36*
G01*
X0117244Y0234537D02*
X0117244Y0233179D01*
G75*
G02*
X0116663Y0232598I-000581J0000000D01*
G01*
X0115502Y0232598D01*
G75*
G02*
X0114921Y0233179I0000000J0000581D01*
G01*
X0114921Y0234537D01*
G75*
G02*
X0115502Y0235118I0000581J0000000D01*
G01*
X0116663Y0235118D01*
G75*
G02*
X0117244Y0234537I0000000J-000581D01*
G01*
G37*
G36*
G01*
X0113425Y0234537D02*
X0113425Y0233179D01*
G75*
G02*
X0112844Y0232598I-000581J0000000D01*
G01*
X0111683Y0232598D01*
G75*
G02*
X0111102Y0233179I0000000J0000581D01*
G01*
X0111102Y0234537D01*
G75*
G02*
X0111683Y0235118I0000581J0000000D01*
G01*
X0112844Y0235118D01*
G75*
G02*
X0113425Y0234537I0000000J-000581D01*
G01*
G37*
G36*
G01*
X0118199Y0191417D02*
X0116840Y0191417D01*
G75*
G02*
X0116260Y0191998I0000000J0000581D01*
G01*
X0116260Y0193159D01*
G75*
G02*
X0116840Y0193740I0000581J0000000D01*
G01*
X0118199Y0193740D01*
G75*
G02*
X0118779Y0193159I0000000J-000581D01*
G01*
X0118779Y0191998D01*
G75*
G02*
X0118199Y0191417I-000581J0000000D01*
G01*
G37*
G36*
G01*
X0118199Y0195236D02*
X0116840Y0195236D01*
G75*
G02*
X0116260Y0195817I0000000J0000581D01*
G01*
X0116260Y0196978D01*
G75*
G02*
X0116840Y0197559I0000581J0000000D01*
G01*
X0118199Y0197559D01*
G75*
G02*
X0118779Y0196978I0000000J-000581D01*
G01*
X0118779Y0195817D01*
G75*
G02*
X0118199Y0195236I-000581J0000000D01*
G01*
G37*
G36*
G01*
X0118199Y0183839D02*
X0116840Y0183839D01*
G75*
G02*
X0116260Y0184419I0000000J0000581D01*
G01*
X0116260Y0185581D01*
G75*
G02*
X0116840Y0186161I0000581J0000000D01*
G01*
X0118199Y0186161D01*
G75*
G02*
X0118779Y0185581I0000000J-000581D01*
G01*
X0118779Y0184419D01*
G75*
G02*
X0118199Y0183839I-000581J0000000D01*
G01*
G37*
G36*
G01*
X0118199Y0187657D02*
X0116840Y0187657D01*
G75*
G02*
X0116260Y0188238I0000000J0000581D01*
G01*
X0116260Y0189400D01*
G75*
G02*
X0116840Y0189980I0000581J0000000D01*
G01*
X0118199Y0189980D01*
G75*
G02*
X0118779Y0189400I0000000J-000581D01*
G01*
X0118779Y0188238D01*
G75*
G02*
X0118199Y0187657I-000581J0000000D01*
G01*
G37*
G36*
G01*
X0117244Y0238278D02*
X0117244Y0236919D01*
G75*
G02*
X0116663Y0236339I-000581J0000000D01*
G01*
X0115502Y0236339D01*
G75*
G02*
X0114921Y0236919I0000000J0000581D01*
G01*
X0114921Y0238278D01*
G75*
G02*
X0115502Y0238858I0000581J0000000D01*
G01*
X0116663Y0238858D01*
G75*
G02*
X0117244Y0238278I0000000J-000581D01*
G01*
G37*
G36*
G01*
X0113425Y0238278D02*
X0113425Y0236919D01*
G75*
G02*
X0112844Y0236339I-000581J0000000D01*
G01*
X0111683Y0236339D01*
G75*
G02*
X0111102Y0236919I0000000J0000581D01*
G01*
X0111102Y0238278D01*
G75*
G02*
X0111683Y0238858I0000581J0000000D01*
G01*
X0112844Y0238858D01*
G75*
G02*
X0113425Y0238278I0000000J-000581D01*
G01*
G37*
G36*
G01*
X0127057Y0203917D02*
X0125699Y0203917D01*
G75*
G02*
X0125118Y0204498I0000000J0000581D01*
G01*
X0125118Y0205659D01*
G75*
G02*
X0125699Y0206240I0000581J0000000D01*
G01*
X0127057Y0206240D01*
G75*
G02*
X0127637Y0205659I0000000J-000581D01*
G01*
X0127637Y0204498D01*
G75*
G02*
X0127057Y0203917I-000581J0000000D01*
G01*
G37*
G36*
G01*
X0127057Y0207736D02*
X0125699Y0207736D01*
G75*
G02*
X0125118Y0208317I0000000J0000581D01*
G01*
X0125118Y0209478D01*
G75*
G02*
X0125699Y0210059I0000581J0000000D01*
G01*
X0127057Y0210059D01*
G75*
G02*
X0127637Y0209478I0000000J-000581D01*
G01*
X0127637Y0208317D01*
G75*
G02*
X0127057Y0207736I-000581J0000000D01*
G01*
G37*
G36*
G01*
X0117244Y0242018D02*
X0117244Y0240659D01*
G75*
G02*
X0116663Y0240079I-000581J0000000D01*
G01*
X0115502Y0240079D01*
G75*
G02*
X0114921Y0240659I0000000J0000581D01*
G01*
X0114921Y0242018D01*
G75*
G02*
X0115502Y0242598I0000581J0000000D01*
G01*
X0116663Y0242598D01*
G75*
G02*
X0117244Y0242018I0000000J-000581D01*
G01*
G37*
G36*
G01*
X0113425Y0242018D02*
X0113425Y0240659D01*
G75*
G02*
X0112844Y0240079I-000581J0000000D01*
G01*
X0111683Y0240079D01*
G75*
G02*
X0111102Y0240659I0000000J0000581D01*
G01*
X0111102Y0242018D01*
G75*
G02*
X0111683Y0242598I0000581J0000000D01*
G01*
X0112844Y0242598D01*
G75*
G02*
X0113425Y0242018I0000000J-000581D01*
G01*
G37*
G36*
G01*
X0108582Y0242018D02*
X0108582Y0240659D01*
G75*
G02*
X0108002Y0240079I-000581J0000000D01*
G01*
X0106840Y0240079D01*
G75*
G02*
X0106260Y0240659I0000000J0000581D01*
G01*
X0106260Y0242018D01*
G75*
G02*
X0106840Y0242598I0000581J0000000D01*
G01*
X0108002Y0242598D01*
G75*
G02*
X0108582Y0242018I0000000J-000581D01*
G01*
G37*
G36*
G01*
X0104763Y0242018D02*
X0104763Y0240659D01*
G75*
G02*
X0104183Y0240079I-000581J0000000D01*
G01*
X0103021Y0240079D01*
G75*
G02*
X0102441Y0240659I0000000J0000581D01*
G01*
X0102441Y0242018D01*
G75*
G02*
X0103021Y0242598I0000581J0000000D01*
G01*
X0104183Y0242598D01*
G75*
G02*
X0104763Y0242018I0000000J-000581D01*
G01*
G37*
G36*
G01*
X0114389Y0256831D02*
X0115728Y0256831D01*
G75*
G02*
X0116279Y0256280I0000000J-000551D01*
G01*
X0116279Y0255177D01*
G75*
G02*
X0115728Y0254626I-000551J0000000D01*
G01*
X0114389Y0254626D01*
G75*
G02*
X0113838Y0255177I0000000J0000551D01*
G01*
X0113838Y0256280D01*
G75*
G02*
X0114389Y0256831I0000551J0000000D01*
G01*
G37*
G36*
G01*
X0114389Y0253051D02*
X0115728Y0253051D01*
G75*
G02*
X0116279Y0252500I0000000J-000551D01*
G01*
X0116279Y0251398D01*
G75*
G02*
X0115728Y0250847I-000551J0000000D01*
G01*
X0114389Y0250847D01*
G75*
G02*
X0113838Y0251398I0000000J0000551D01*
G01*
X0113838Y0252500D01*
G75*
G02*
X0114389Y0253051I0000551J0000000D01*
G01*
G37*
G36*
G01*
X0140649Y0201890D02*
X0139193Y0201890D01*
G75*
G02*
X0138661Y0202421I0000000J0000531D01*
G01*
X0138661Y0203484D01*
G75*
G02*
X0139193Y0204016I0000531J0000000D01*
G01*
X0140649Y0204016D01*
G75*
G02*
X0141181Y0203484I0000000J-000531D01*
G01*
X0141181Y0202421D01*
G75*
G02*
X0140649Y0201890I-000531J0000000D01*
G01*
G37*
G36*
G01*
X0140649Y0205905D02*
X0139193Y0205905D01*
G75*
G02*
X0138661Y0206437I0000000J0000531D01*
G01*
X0138661Y0207500D01*
G75*
G02*
X0139193Y0208031I0000531J0000000D01*
G01*
X0140649Y0208031D01*
G75*
G02*
X0141181Y0207500I0000000J-000531D01*
G01*
X0141181Y0206437D01*
G75*
G02*
X0140649Y0205905I-000531J0000000D01*
G01*
G37*
G36*
G01*
X0126116Y0262618D02*
X0126116Y0264075D01*
G75*
G02*
X0126648Y0264606I0000531J0000000D01*
G01*
X0127711Y0264606D01*
G75*
G02*
X0128242Y0264075I0000000J-000531D01*
G01*
X0128242Y0262618D01*
G75*
G02*
X0127711Y0262087I-000531J0000000D01*
G01*
X0126648Y0262087D01*
G75*
G02*
X0126116Y0262618I0000000J0000531D01*
G01*
G37*
G36*
G01*
X0130132Y0262618D02*
X0130132Y0264075D01*
G75*
G02*
X0130664Y0264606I0000531J0000000D01*
G01*
X0131727Y0264606D01*
G75*
G02*
X0132258Y0264075I0000000J-000531D01*
G01*
X0132258Y0262618D01*
G75*
G02*
X0131727Y0262087I-000531J0000000D01*
G01*
X0130664Y0262087D01*
G75*
G02*
X0130132Y0262618I0000000J0000531D01*
G01*
G37*
G36*
G01*
X0102165Y0262008D02*
X0103346Y0262008D01*
G75*
G02*
X0103937Y0261417I0000000J-000591D01*
G01*
X0103937Y0256791D01*
G75*
G02*
X0103346Y0256201I-000591J0000000D01*
G01*
X0102165Y0256201D01*
G75*
G02*
X0101575Y0256791I0000000J0000591D01*
G01*
X0101575Y0261417D01*
G75*
G02*
X0102165Y0262008I0000591J0000000D01*
G01*
G37*
G36*
G01*
X0109645Y0262008D02*
X0110826Y0262008D01*
G75*
G02*
X0111417Y0261417I0000000J-000591D01*
G01*
X0111417Y0256791D01*
G75*
G02*
X0110826Y0256201I-000591J0000000D01*
G01*
X0109645Y0256201D01*
G75*
G02*
X0109055Y0256791I0000000J0000591D01*
G01*
X0109055Y0261417D01*
G75*
G02*
X0109645Y0262008I0000591J0000000D01*
G01*
G37*
G36*
G01*
X0105905Y0254626D02*
X0107086Y0254626D01*
G75*
G02*
X0107677Y0254035I0000000J-000591D01*
G01*
X0107677Y0249409D01*
G75*
G02*
X0107086Y0248819I-000591J0000000D01*
G01*
X0105905Y0248819D01*
G75*
G02*
X0105315Y0249409I0000000J0000591D01*
G01*
X0105315Y0254035D01*
G75*
G02*
X0105905Y0254626I0000591J0000000D01*
G01*
G37*
G36*
G01*
X0140097Y0264055D02*
X0140097Y0262716D01*
G75*
G02*
X0139545Y0262165I-000551J0000000D01*
G01*
X0138443Y0262165D01*
G75*
G02*
X0137892Y0262716I0000000J0000551D01*
G01*
X0137892Y0264055D01*
G75*
G02*
X0138443Y0264606I0000551J0000000D01*
G01*
X0139545Y0264606D01*
G75*
G02*
X0140097Y0264055I0000000J-000551D01*
G01*
G37*
G36*
G01*
X0136317Y0264055D02*
X0136317Y0262716D01*
G75*
G02*
X0135766Y0262165I-000551J0000000D01*
G01*
X0134664Y0262165D01*
G75*
G02*
X0134112Y0262716I0000000J0000551D01*
G01*
X0134112Y0264055D01*
G75*
G02*
X0134664Y0264606I0000551J0000000D01*
G01*
X0135766Y0264606D01*
G75*
G02*
X0136317Y0264055I0000000J-000551D01*
G01*
G37*
G36*
G01*
X0137026Y0233268D02*
X0135845Y0233268D01*
G75*
G02*
X0135254Y0233858I0000000J0000591D01*
G01*
X0135254Y0239567D01*
G75*
G02*
X0135845Y0240157I0000591J0000000D01*
G01*
X0137026Y0240157D01*
G75*
G02*
X0137616Y0239567I0000000J-000591D01*
G01*
X0137616Y0233858D01*
G75*
G02*
X0137026Y0233268I-000591J0000000D01*
G01*
G37*
G36*
G01*
X0132026Y0233268D02*
X0130845Y0233268D01*
G75*
G02*
X0130254Y0233858I0000000J0000591D01*
G01*
X0130254Y0239567D01*
G75*
G02*
X0130845Y0240157I0000591J0000000D01*
G01*
X0132026Y0240157D01*
G75*
G02*
X0132616Y0239567I0000000J-000591D01*
G01*
X0132616Y0233858D01*
G75*
G02*
X0132026Y0233268I-000591J0000000D01*
G01*
G37*
G36*
G01*
X0127026Y0233268D02*
X0125845Y0233268D01*
G75*
G02*
X0125254Y0233858I0000000J0000591D01*
G01*
X0125254Y0239567D01*
G75*
G02*
X0125845Y0240157I0000591J0000000D01*
G01*
X0127026Y0240157D01*
G75*
G02*
X0127616Y0239567I0000000J-000591D01*
G01*
X0127616Y0233858D01*
G75*
G02*
X0127026Y0233268I-000591J0000000D01*
G01*
G37*
G36*
G01*
X0122026Y0233268D02*
X0120845Y0233268D01*
G75*
G02*
X0120254Y0233858I0000000J0000591D01*
G01*
X0120254Y0239567D01*
G75*
G02*
X0120845Y0240157I0000591J0000000D01*
G01*
X0122026Y0240157D01*
G75*
G02*
X0122616Y0239567I0000000J-000591D01*
G01*
X0122616Y0233858D01*
G75*
G02*
X0122026Y0233268I-000591J0000000D01*
G01*
G37*
G36*
G01*
X0122026Y0253543D02*
X0120845Y0253543D01*
G75*
G02*
X0120254Y0254134I0000000J0000591D01*
G01*
X0120254Y0259842D01*
G75*
G02*
X0120845Y0260433I0000591J0000000D01*
G01*
X0122026Y0260433D01*
G75*
G02*
X0122616Y0259842I0000000J-000591D01*
G01*
X0122616Y0254134D01*
G75*
G02*
X0122026Y0253543I-000591J0000000D01*
G01*
G37*
G36*
G01*
X0127026Y0253543D02*
X0125845Y0253543D01*
G75*
G02*
X0125254Y0254134I0000000J0000591D01*
G01*
X0125254Y0259842D01*
G75*
G02*
X0125845Y0260433I0000591J0000000D01*
G01*
X0127026Y0260433D01*
G75*
G02*
X0127616Y0259842I0000000J-000591D01*
G01*
X0127616Y0254134D01*
G75*
G02*
X0127026Y0253543I-000591J0000000D01*
G01*
G37*
G36*
G01*
X0132026Y0253543D02*
X0130845Y0253543D01*
G75*
G02*
X0130254Y0254134I0000000J0000591D01*
G01*
X0130254Y0259842D01*
G75*
G02*
X0130845Y0260433I0000591J0000000D01*
G01*
X0132026Y0260433D01*
G75*
G02*
X0132616Y0259842I0000000J-000591D01*
G01*
X0132616Y0254134D01*
G75*
G02*
X0132026Y0253543I-000591J0000000D01*
G01*
G37*
G36*
G01*
X0137026Y0253543D02*
X0135845Y0253543D01*
G75*
G02*
X0135254Y0254134I0000000J0000591D01*
G01*
X0135254Y0259842D01*
G75*
G02*
X0135845Y0260433I0000591J0000000D01*
G01*
X0137026Y0260433D01*
G75*
G02*
X0137616Y0259842I0000000J-000591D01*
G01*
X0137616Y0254134D01*
G75*
G02*
X0137026Y0253543I-000591J0000000D01*
G01*
G37*
X0251280Y0161860D02*
%LPD*%
G01*
D15*
X0224115Y0220128D03*
X0228839Y0220128D03*
X0219390Y0220128D03*
X0214666Y0220128D03*
X0240099Y0163336D03*
X0244036Y0163336D03*
X0291339Y0162598D02*
%LPD*%
G01*
D15*
X0264174Y0220866D03*
X0268898Y0220866D03*
X0259449Y0220866D03*
X0254725Y0220866D03*
X0280158Y0164074D03*
X0284095Y0164074D03*
G36*
G01*
X0260745Y0179527D02*
X0261926Y0179527D01*
G75*
G02*
X0262517Y0178937I0000000J-000591D01*
G01*
X0262517Y0174901D01*
G75*
G02*
X0261926Y0174311I-000591J0000000D01*
G01*
X0260745Y0174311D01*
G75*
G02*
X0260155Y0174901I0000000J0000591D01*
G01*
X0260155Y0178937D01*
G75*
G02*
X0260745Y0179527I0000591J0000000D01*
G01*
G37*
G36*
G01*
X0264486Y0179527D02*
X0265667Y0179527D01*
G75*
G02*
X0266257Y0178937I0000000J-000591D01*
G01*
X0266257Y0174901D01*
G75*
G02*
X0265667Y0174311I-000591J0000000D01*
G01*
X0264486Y0174311D01*
G75*
G02*
X0263895Y0174901I0000000J0000591D01*
G01*
X0263895Y0178937D01*
G75*
G02*
X0264486Y0179527I0000591J0000000D01*
G01*
G37*
G36*
G01*
X0268226Y0179527D02*
X0269407Y0179527D01*
G75*
G02*
X0269997Y0178937I0000000J-000591D01*
G01*
X0269997Y0174901D01*
G75*
G02*
X0269407Y0174311I-000591J0000000D01*
G01*
X0268226Y0174311D01*
G75*
G02*
X0267635Y0174901I0000000J0000591D01*
G01*
X0267635Y0178937D01*
G75*
G02*
X0268226Y0179527I0000591J0000000D01*
G01*
G37*
G36*
G01*
X0268226Y0170570D02*
X0269407Y0170570D01*
G75*
G02*
X0269997Y0169980I0000000J-000591D01*
G01*
X0269997Y0165944D01*
G75*
G02*
X0269407Y0165354I-000591J0000000D01*
G01*
X0268226Y0165354D01*
G75*
G02*
X0267635Y0165944I0000000J0000591D01*
G01*
X0267635Y0169980D01*
G75*
G02*
X0268226Y0170570I0000591J0000000D01*
G01*
G37*
G36*
G01*
X0260745Y0170570D02*
X0261926Y0170570D01*
G75*
G02*
X0262517Y0169980I0000000J-000591D01*
G01*
X0262517Y0165944D01*
G75*
G02*
X0261926Y0165354I-000591J0000000D01*
G01*
X0260745Y0165354D01*
G75*
G02*
X0260155Y0165944I0000000J0000591D01*
G01*
X0260155Y0169980D01*
G75*
G02*
X0260745Y0170570I0000591J0000000D01*
G01*
G37*
G36*
G01*
X0283032Y0179252D02*
X0283032Y0180590D01*
G75*
G02*
X0283583Y0181141I0000551J0000000D01*
G01*
X0284685Y0181141D01*
G75*
G02*
X0285237Y0180590I0000000J-000551D01*
G01*
X0285237Y0179252D01*
G75*
G02*
X0284685Y0178700I-000551J0000000D01*
G01*
X0283583Y0178700D01*
G75*
G02*
X0283032Y0179252I0000000J0000551D01*
G01*
G37*
G36*
G01*
X0286811Y0179252D02*
X0286811Y0180590D01*
G75*
G02*
X0287363Y0181141I0000551J0000000D01*
G01*
X0288465Y0181141D01*
G75*
G02*
X0289016Y0180590I0000000J-000551D01*
G01*
X0289016Y0179252D01*
G75*
G02*
X0288465Y0178700I-000551J0000000D01*
G01*
X0287363Y0178700D01*
G75*
G02*
X0286811Y0179252I0000000J0000551D01*
G01*
G37*
G36*
G01*
X0260315Y0205767D02*
X0258977Y0205767D01*
G75*
G02*
X0258426Y0206318I0000000J0000551D01*
G01*
X0258426Y0207421D01*
G75*
G02*
X0258977Y0207972I0000551J0000000D01*
G01*
X0260315Y0207972D01*
G75*
G02*
X0260867Y0207421I0000000J-000551D01*
G01*
X0260867Y0206318D01*
G75*
G02*
X0260315Y0205767I-000551J0000000D01*
G01*
G37*
G36*
G01*
X0260315Y0209547D02*
X0258977Y0209547D01*
G75*
G02*
X0258426Y0210098I0000000J0000551D01*
G01*
X0258426Y0211200D01*
G75*
G02*
X0258977Y0211752I0000551J0000000D01*
G01*
X0260315Y0211752D01*
G75*
G02*
X0260867Y0211200I0000000J-000551D01*
G01*
X0260867Y0210098D01*
G75*
G02*
X0260315Y0209547I-000551J0000000D01*
G01*
G37*
G36*
G01*
X0255315Y0219114D02*
X0256654Y0219114D01*
G75*
G02*
X0257205Y0218563I0000000J-000551D01*
G01*
X0257205Y0217460D01*
G75*
G02*
X0256654Y0216909I-000551J0000000D01*
G01*
X0255315Y0216909D01*
G75*
G02*
X0254764Y0217460I0000000J0000551D01*
G01*
X0254764Y0218563D01*
G75*
G02*
X0255315Y0219114I0000551J0000000D01*
G01*
G37*
G36*
G01*
X0255315Y0215334D02*
X0256654Y0215334D01*
G75*
G02*
X0257205Y0214783I0000000J-000551D01*
G01*
X0257205Y0213681D01*
G75*
G02*
X0256654Y0213129I-000551J0000000D01*
G01*
X0255315Y0213129D01*
G75*
G02*
X0254764Y0213681I0000000J0000551D01*
G01*
X0254764Y0214783D01*
G75*
G02*
X0255315Y0215334I0000551J0000000D01*
G01*
G37*
G36*
G01*
X0264056Y0197362D02*
X0262717Y0197362D01*
G75*
G02*
X0262166Y0197913I0000000J0000551D01*
G01*
X0262166Y0199015D01*
G75*
G02*
X0262717Y0199567I0000551J0000000D01*
G01*
X0264056Y0199567D01*
G75*
G02*
X0264607Y0199015I0000000J-000551D01*
G01*
X0264607Y0197913D01*
G75*
G02*
X0264056Y0197362I-000551J0000000D01*
G01*
G37*
G36*
G01*
X0264056Y0201141D02*
X0262717Y0201141D01*
G75*
G02*
X0262166Y0201692I0000000J0000551D01*
G01*
X0262166Y0202795D01*
G75*
G02*
X0262717Y0203346I0000551J0000000D01*
G01*
X0264056Y0203346D01*
G75*
G02*
X0264607Y0202795I0000000J-000551D01*
G01*
X0264607Y0201692D01*
G75*
G02*
X0264056Y0201141I-000551J0000000D01*
G01*
G37*
G36*
G01*
X0258977Y0218917D02*
X0260315Y0218917D01*
G75*
G02*
X0260867Y0218366I0000000J-000551D01*
G01*
X0260867Y0217263D01*
G75*
G02*
X0260315Y0216712I-000551J0000000D01*
G01*
X0258977Y0216712D01*
G75*
G02*
X0258426Y0217263I0000000J0000551D01*
G01*
X0258426Y0218366D01*
G75*
G02*
X0258977Y0218917I0000551J0000000D01*
G01*
G37*
G36*
G01*
X0258977Y0215137D02*
X0260315Y0215137D01*
G75*
G02*
X0260867Y0214586I0000000J-000551D01*
G01*
X0260867Y0213484D01*
G75*
G02*
X0260315Y0212933I-000551J0000000D01*
G01*
X0258977Y0212933D01*
G75*
G02*
X0258426Y0213484I0000000J0000551D01*
G01*
X0258426Y0214586D01*
G75*
G02*
X0258977Y0215137I0000551J0000000D01*
G01*
G37*
G36*
G01*
X0280493Y0213641D02*
X0279154Y0213641D01*
G75*
G02*
X0278603Y0214192I0000000J0000551D01*
G01*
X0278603Y0215295D01*
G75*
G02*
X0279154Y0215846I0000551J0000000D01*
G01*
X0280493Y0215846D01*
G75*
G02*
X0281044Y0215295I0000000J-000551D01*
G01*
X0281044Y0214192D01*
G75*
G02*
X0280493Y0213641I-000551J0000000D01*
G01*
G37*
G36*
G01*
X0280493Y0217421D02*
X0279154Y0217421D01*
G75*
G02*
X0278603Y0217972I0000000J0000551D01*
G01*
X0278603Y0219074D01*
G75*
G02*
X0279154Y0219626I0000551J0000000D01*
G01*
X0280493Y0219626D01*
G75*
G02*
X0281044Y0219074I0000000J-000551D01*
G01*
X0281044Y0217972D01*
G75*
G02*
X0280493Y0217421I-000551J0000000D01*
G01*
G37*
G36*
G01*
X0287993Y0183132D02*
X0287205Y0183132D01*
G75*
G02*
X0286811Y0183526I0000000J0000394D01*
G01*
X0286811Y0188546D01*
G75*
G02*
X0287205Y0188939I0000394J0000000D01*
G01*
X0287993Y0188939D01*
G75*
G02*
X0288386Y0188546I0000000J-000394D01*
G01*
X0288386Y0183526D01*
G75*
G02*
X0287993Y0183132I-000394J0000000D01*
G01*
G37*
G36*
G01*
X0285433Y0183132D02*
X0284646Y0183132D01*
G75*
G02*
X0284252Y0183526I0000000J0000394D01*
G01*
X0284252Y0188546D01*
G75*
G02*
X0284646Y0188939I0000394J0000000D01*
G01*
X0285433Y0188939D01*
G75*
G02*
X0285827Y0188546I0000000J-000394D01*
G01*
X0285827Y0183526D01*
G75*
G02*
X0285433Y0183132I-000394J0000000D01*
G01*
G37*
G36*
G01*
X0282874Y0183132D02*
X0282087Y0183132D01*
G75*
G02*
X0281693Y0183526I0000000J0000394D01*
G01*
X0281693Y0188546D01*
G75*
G02*
X0282087Y0188939I0000394J0000000D01*
G01*
X0282874Y0188939D01*
G75*
G02*
X0283268Y0188546I0000000J-000394D01*
G01*
X0283268Y0183526D01*
G75*
G02*
X0282874Y0183132I-000394J0000000D01*
G01*
G37*
G36*
G01*
X0280315Y0183132D02*
X0279528Y0183132D01*
G75*
G02*
X0279134Y0183526I0000000J0000394D01*
G01*
X0279134Y0188546D01*
G75*
G02*
X0279528Y0188939I0000394J0000000D01*
G01*
X0280315Y0188939D01*
G75*
G02*
X0280709Y0188546I0000000J-000394D01*
G01*
X0280709Y0183526D01*
G75*
G02*
X0280315Y0183132I-000394J0000000D01*
G01*
G37*
G36*
G01*
X0277756Y0183132D02*
X0276969Y0183132D01*
G75*
G02*
X0276575Y0183526I0000000J0000394D01*
G01*
X0276575Y0188546D01*
G75*
G02*
X0276969Y0188939I0000394J0000000D01*
G01*
X0277756Y0188939D01*
G75*
G02*
X0278150Y0188546I0000000J-000394D01*
G01*
X0278150Y0183526D01*
G75*
G02*
X0277756Y0183132I-000394J0000000D01*
G01*
G37*
G36*
G01*
X0275197Y0183132D02*
X0274410Y0183132D01*
G75*
G02*
X0274016Y0183526I0000000J0000394D01*
G01*
X0274016Y0188546D01*
G75*
G02*
X0274410Y0188939I0000394J0000000D01*
G01*
X0275197Y0188939D01*
G75*
G02*
X0275591Y0188546I0000000J-000394D01*
G01*
X0275591Y0183526D01*
G75*
G02*
X0275197Y0183132I-000394J0000000D01*
G01*
G37*
G36*
G01*
X0272638Y0183132D02*
X0271851Y0183132D01*
G75*
G02*
X0271457Y0183526I0000000J0000394D01*
G01*
X0271457Y0188546D01*
G75*
G02*
X0271851Y0188939I0000394J0000000D01*
G01*
X0272638Y0188939D01*
G75*
G02*
X0273032Y0188546I0000000J-000394D01*
G01*
X0273032Y0183526D01*
G75*
G02*
X0272638Y0183132I-000394J0000000D01*
G01*
G37*
G36*
G01*
X0272638Y0205672D02*
X0271851Y0205672D01*
G75*
G02*
X0271457Y0206065I0000000J0000394D01*
G01*
X0271457Y0211085D01*
G75*
G02*
X0271851Y0211479I0000394J0000000D01*
G01*
X0272638Y0211479D01*
G75*
G02*
X0273032Y0211085I0000000J-000394D01*
G01*
X0273032Y0206065D01*
G75*
G02*
X0272638Y0205672I-000394J0000000D01*
G01*
G37*
G36*
G01*
X0275197Y0205672D02*
X0274410Y0205672D01*
G75*
G02*
X0274016Y0206065I0000000J0000394D01*
G01*
X0274016Y0211085D01*
G75*
G02*
X0274410Y0211479I0000394J0000000D01*
G01*
X0275197Y0211479D01*
G75*
G02*
X0275591Y0211085I0000000J-000394D01*
G01*
X0275591Y0206065D01*
G75*
G02*
X0275197Y0205672I-000394J0000000D01*
G01*
G37*
G36*
G01*
X0277756Y0205672D02*
X0276969Y0205672D01*
G75*
G02*
X0276575Y0206065I0000000J0000394D01*
G01*
X0276575Y0211085D01*
G75*
G02*
X0276969Y0211479I0000394J0000000D01*
G01*
X0277756Y0211479D01*
G75*
G02*
X0278150Y0211085I0000000J-000394D01*
G01*
X0278150Y0206065D01*
G75*
G02*
X0277756Y0205672I-000394J0000000D01*
G01*
G37*
G36*
G01*
X0280315Y0205672D02*
X0279528Y0205672D01*
G75*
G02*
X0279134Y0206065I0000000J0000394D01*
G01*
X0279134Y0211085D01*
G75*
G02*
X0279528Y0211479I0000394J0000000D01*
G01*
X0280315Y0211479D01*
G75*
G02*
X0280709Y0211085I0000000J-000394D01*
G01*
X0280709Y0206065D01*
G75*
G02*
X0280315Y0205672I-000394J0000000D01*
G01*
G37*
G36*
G01*
X0282874Y0205672D02*
X0282087Y0205672D01*
G75*
G02*
X0281693Y0206065I0000000J0000394D01*
G01*
X0281693Y0211085D01*
G75*
G02*
X0282087Y0211479I0000394J0000000D01*
G01*
X0282874Y0211479D01*
G75*
G02*
X0283268Y0211085I0000000J-000394D01*
G01*
X0283268Y0206065D01*
G75*
G02*
X0282874Y0205672I-000394J0000000D01*
G01*
G37*
G36*
G01*
X0285433Y0205672D02*
X0284646Y0205672D01*
G75*
G02*
X0284252Y0206065I0000000J0000394D01*
G01*
X0284252Y0211085D01*
G75*
G02*
X0284646Y0211479I0000394J0000000D01*
G01*
X0285433Y0211479D01*
G75*
G02*
X0285827Y0211085I0000000J-000394D01*
G01*
X0285827Y0206065D01*
G75*
G02*
X0285433Y0205672I-000394J0000000D01*
G01*
G37*
G36*
G01*
X0287993Y0205672D02*
X0287205Y0205672D01*
G75*
G02*
X0286811Y0206065I0000000J0000394D01*
G01*
X0286811Y0211085D01*
G75*
G02*
X0287205Y0211479I0000394J0000000D01*
G01*
X0287993Y0211479D01*
G75*
G02*
X0288386Y0211085I0000000J-000394D01*
G01*
X0288386Y0206065D01*
G75*
G02*
X0287993Y0205672I-000394J0000000D01*
G01*
G37*
G36*
G01*
X0280122Y0165489D02*
X0276579Y0165489D01*
G75*
G02*
X0275595Y0166473I0000000J0000984D01*
G01*
X0275595Y0168540D01*
G75*
G02*
X0276579Y0169524I0000984J0000000D01*
G01*
X0280122Y0169524D01*
G75*
G02*
X0281107Y0168540I0000000J-000984D01*
G01*
X0281107Y0166473D01*
G75*
G02*
X0280122Y0165489I-000984J0000000D01*
G01*
G37*
G36*
G01*
X0280122Y0172674D02*
X0276579Y0172674D01*
G75*
G02*
X0275595Y0173658I0000000J0000984D01*
G01*
X0275595Y0175725D01*
G75*
G02*
X0276579Y0176709I0000984J0000000D01*
G01*
X0280122Y0176709D01*
G75*
G02*
X0281107Y0175725I0000000J-000984D01*
G01*
X0281107Y0173658D01*
G75*
G02*
X0280122Y0172674I-000984J0000000D01*
G01*
G37*
G36*
G01*
X0266398Y0211732D02*
X0267855Y0211732D01*
G75*
G02*
X0268386Y0211200I0000000J-000531D01*
G01*
X0268386Y0210137D01*
G75*
G02*
X0267855Y0209606I-000531J0000000D01*
G01*
X0266398Y0209606D01*
G75*
G02*
X0265867Y0210137I0000000J0000531D01*
G01*
X0265867Y0211200D01*
G75*
G02*
X0266398Y0211732I0000531J0000000D01*
G01*
G37*
G36*
G01*
X0266398Y0207716D02*
X0267855Y0207716D01*
G75*
G02*
X0268386Y0207185I0000000J-000531D01*
G01*
X0268386Y0206122D01*
G75*
G02*
X0267855Y0205590I-000531J0000000D01*
G01*
X0266398Y0205590D01*
G75*
G02*
X0265867Y0206122I0000000J0000531D01*
G01*
X0265867Y0207185D01*
G75*
G02*
X0266398Y0207716I0000531J0000000D01*
G01*
G37*
G36*
G01*
X0255473Y0171299D02*
X0256811Y0171299D01*
G75*
G02*
X0257363Y0170748I0000000J-000551D01*
G01*
X0257363Y0169645D01*
G75*
G02*
X0256811Y0169094I-000551J0000000D01*
G01*
X0255473Y0169094D01*
G75*
G02*
X0254922Y0169645I0000000J0000551D01*
G01*
X0254922Y0170748D01*
G75*
G02*
X0255473Y0171299I0000551J0000000D01*
G01*
G37*
G36*
G01*
X0255473Y0167519D02*
X0256811Y0167519D01*
G75*
G02*
X0257363Y0166968I0000000J-000551D01*
G01*
X0257363Y0165866D01*
G75*
G02*
X0256811Y0165315I-000551J0000000D01*
G01*
X0255473Y0165315D01*
G75*
G02*
X0254922Y0165866I0000000J0000551D01*
G01*
X0254922Y0166968D01*
G75*
G02*
X0255473Y0167519I0000551J0000000D01*
G01*
G37*
G36*
G01*
X0262658Y0219409D02*
X0264115Y0219409D01*
G75*
G02*
X0264646Y0218878I0000000J-000531D01*
G01*
X0264646Y0217815D01*
G75*
G02*
X0264115Y0217283I-000531J0000000D01*
G01*
X0262658Y0217283D01*
G75*
G02*
X0262126Y0217815I0000000J0000531D01*
G01*
X0262126Y0218878D01*
G75*
G02*
X0262658Y0219409I0000531J0000000D01*
G01*
G37*
G36*
G01*
X0262658Y0215393D02*
X0264115Y0215393D01*
G75*
G02*
X0264646Y0214862I0000000J-000531D01*
G01*
X0264646Y0213799D01*
G75*
G02*
X0264115Y0213267I-000531J0000000D01*
G01*
X0262658Y0213267D01*
G75*
G02*
X0262126Y0213799I0000000J0000531D01*
G01*
X0262126Y0214862D01*
G75*
G02*
X0262658Y0215393I0000531J0000000D01*
G01*
G37*
G36*
G01*
X0266398Y0203476D02*
X0267854Y0203476D01*
G75*
G02*
X0268386Y0202944I0000000J-000531D01*
G01*
X0268386Y0201881D01*
G75*
G02*
X0267854Y0201350I-000531J0000000D01*
G01*
X0266398Y0201350D01*
G75*
G02*
X0265866Y0201881I0000000J0000531D01*
G01*
X0265866Y0202944D01*
G75*
G02*
X0266398Y0203476I0000531J0000000D01*
G01*
G37*
G36*
G01*
X0266398Y0199460D02*
X0267854Y0199460D01*
G75*
G02*
X0268386Y0198928I0000000J-000531D01*
G01*
X0268386Y0197865D01*
G75*
G02*
X0267854Y0197334I-000531J0000000D01*
G01*
X0266398Y0197334D01*
G75*
G02*
X0265866Y0197865I0000000J0000531D01*
G01*
X0265866Y0198928D01*
G75*
G02*
X0266398Y0199460I0000531J0000000D01*
G01*
G37*
G36*
G01*
X0284154Y0176709D02*
X0287697Y0176709D01*
G75*
G02*
X0288682Y0175725I0000000J-000984D01*
G01*
X0288682Y0173658D01*
G75*
G02*
X0287697Y0172674I-000984J0000000D01*
G01*
X0284154Y0172674D01*
G75*
G02*
X0283170Y0173658I0000000J0000984D01*
G01*
X0283170Y0175725D01*
G75*
G02*
X0284154Y0176709I0000984J0000000D01*
G01*
G37*
G36*
G01*
X0284154Y0169524D02*
X0287697Y0169524D01*
G75*
G02*
X0288682Y0168540I0000000J-000984D01*
G01*
X0288682Y0166473D01*
G75*
G02*
X0287697Y0165489I-000984J0000000D01*
G01*
X0284154Y0165489D01*
G75*
G02*
X0283170Y0166473I0000000J0000984D01*
G01*
X0283170Y0168540D01*
G75*
G02*
X0284154Y0169524I0000984J0000000D01*
G01*
G37*
G36*
G01*
X0255256Y0203425D02*
X0256713Y0203425D01*
G75*
G02*
X0257245Y0202893I0000000J-000531D01*
G01*
X0257245Y0201830D01*
G75*
G02*
X0256713Y0201299I-000531J0000000D01*
G01*
X0255256Y0201299D01*
G75*
G02*
X0254725Y0201830I0000000J0000531D01*
G01*
X0254725Y0202893D01*
G75*
G02*
X0255256Y0203425I0000531J0000000D01*
G01*
G37*
G36*
G01*
X0255256Y0199409D02*
X0256713Y0199409D01*
G75*
G02*
X0257245Y0198878I0000000J-000531D01*
G01*
X0257245Y0197815D01*
G75*
G02*
X0256713Y0197283I-000531J0000000D01*
G01*
X0255256Y0197283D01*
G75*
G02*
X0254725Y0197815I0000000J0000531D01*
G01*
X0254725Y0198878D01*
G75*
G02*
X0255256Y0199409I0000531J0000000D01*
G01*
G37*
G36*
G01*
X0288760Y0213110D02*
X0287304Y0213110D01*
G75*
G02*
X0286772Y0213641I0000000J0000531D01*
G01*
X0286772Y0214704D01*
G75*
G02*
X0287304Y0215236I0000531J0000000D01*
G01*
X0288760Y0215236D01*
G75*
G02*
X0289292Y0214704I0000000J-000531D01*
G01*
X0289292Y0213641D01*
G75*
G02*
X0288760Y0213110I-000531J0000000D01*
G01*
G37*
G36*
G01*
X0288760Y0217126D02*
X0287304Y0217126D01*
G75*
G02*
X0286772Y0217657I0000000J0000531D01*
G01*
X0286772Y0218720D01*
G75*
G02*
X0287304Y0219252I0000531J0000000D01*
G01*
X0288760Y0219252D01*
G75*
G02*
X0289292Y0218720I0000000J-000531D01*
G01*
X0289292Y0217657D01*
G75*
G02*
X0288760Y0217126I-000531J0000000D01*
G01*
G37*
G36*
G01*
X0276811Y0213563D02*
X0275355Y0213563D01*
G75*
G02*
X0274823Y0214094I0000000J0000531D01*
G01*
X0274823Y0215157D01*
G75*
G02*
X0275355Y0215689I0000531J0000000D01*
G01*
X0276811Y0215689D01*
G75*
G02*
X0277343Y0215157I0000000J-000531D01*
G01*
X0277343Y0214094D01*
G75*
G02*
X0276811Y0213563I-000531J0000000D01*
G01*
G37*
G36*
G01*
X0276811Y0217578D02*
X0275355Y0217578D01*
G75*
G02*
X0274823Y0218110I0000000J0000531D01*
G01*
X0274823Y0219173D01*
G75*
G02*
X0275355Y0219704I0000531J0000000D01*
G01*
X0276811Y0219704D01*
G75*
G02*
X0277343Y0219173I0000000J-000531D01*
G01*
X0277343Y0218110D01*
G75*
G02*
X0276811Y0217578I-000531J0000000D01*
G01*
G37*
G36*
G01*
X0262658Y0212027D02*
X0264115Y0212027D01*
G75*
G02*
X0264646Y0211496I0000000J-000531D01*
G01*
X0264646Y0210433D01*
G75*
G02*
X0264115Y0209901I-000531J0000000D01*
G01*
X0262658Y0209901D01*
G75*
G02*
X0262126Y0210433I0000000J0000531D01*
G01*
X0262126Y0211496D01*
G75*
G02*
X0262658Y0212027I0000531J0000000D01*
G01*
G37*
G36*
G01*
X0262658Y0208011D02*
X0264115Y0208011D01*
G75*
G02*
X0264646Y0207480I0000000J-000531D01*
G01*
X0264646Y0206417D01*
G75*
G02*
X0264115Y0205885I-000531J0000000D01*
G01*
X0262658Y0205885D01*
G75*
G02*
X0262126Y0206417I0000000J0000531D01*
G01*
X0262126Y0207480D01*
G75*
G02*
X0262658Y0208011I0000531J0000000D01*
G01*
G37*
G36*
G01*
X0271575Y0219724D02*
X0272914Y0219724D01*
G75*
G02*
X0273465Y0219173I0000000J-000551D01*
G01*
X0273465Y0218070D01*
G75*
G02*
X0272914Y0217519I-000551J0000000D01*
G01*
X0271575Y0217519D01*
G75*
G02*
X0271024Y0218070I0000000J0000551D01*
G01*
X0271024Y0219173D01*
G75*
G02*
X0271575Y0219724I0000551J0000000D01*
G01*
G37*
G36*
G01*
X0271575Y0215944D02*
X0272914Y0215944D01*
G75*
G02*
X0273465Y0215393I0000000J-000551D01*
G01*
X0273465Y0214291D01*
G75*
G02*
X0272914Y0213740I-000551J0000000D01*
G01*
X0271575Y0213740D01*
G75*
G02*
X0271024Y0214291I0000000J0000551D01*
G01*
X0271024Y0215393D01*
G75*
G02*
X0271575Y0215944I0000551J0000000D01*
G01*
G37*
G36*
G01*
X0281790Y0180576D02*
X0281790Y0179238D01*
G75*
G02*
X0281239Y0178686I-000551J0000000D01*
G01*
X0280137Y0178686D01*
G75*
G02*
X0279585Y0179238I0000000J0000551D01*
G01*
X0279585Y0180576D01*
G75*
G02*
X0280137Y0181127I0000551J0000000D01*
G01*
X0281239Y0181127D01*
G75*
G02*
X0281790Y0180576I0000000J-000551D01*
G01*
G37*
G36*
G01*
X0278011Y0180576D02*
X0278011Y0179238D01*
G75*
G02*
X0277460Y0178686I-000551J0000000D01*
G01*
X0276357Y0178686D01*
G75*
G02*
X0275806Y0179238I0000000J0000551D01*
G01*
X0275806Y0180576D01*
G75*
G02*
X0276357Y0181127I0000551J0000000D01*
G01*
X0277460Y0181127D01*
G75*
G02*
X0278011Y0180576I0000000J-000551D01*
G01*
G37*
G36*
G01*
X0267855Y0213070D02*
X0266398Y0213070D01*
G75*
G02*
X0265867Y0213602I0000000J0000531D01*
G01*
X0265867Y0214665D01*
G75*
G02*
X0266398Y0215196I0000531J0000000D01*
G01*
X0267855Y0215196D01*
G75*
G02*
X0268386Y0214665I0000000J-000531D01*
G01*
X0268386Y0213602D01*
G75*
G02*
X0267855Y0213070I-000531J0000000D01*
G01*
G37*
G36*
G01*
X0267855Y0217086D02*
X0266398Y0217086D01*
G75*
G02*
X0265867Y0217618I0000000J0000531D01*
G01*
X0265867Y0218681D01*
G75*
G02*
X0266398Y0219212I0000531J0000000D01*
G01*
X0267855Y0219212D01*
G75*
G02*
X0268386Y0218681I0000000J-000531D01*
G01*
X0268386Y0217618D01*
G75*
G02*
X0267855Y0217086I-000531J0000000D01*
G01*
G37*
G36*
G01*
X0256496Y0195669D02*
X0257678Y0195669D01*
G75*
G02*
X0258268Y0195078I0000000J-000591D01*
G01*
X0258268Y0191043D01*
G75*
G02*
X0257678Y0190452I-000591J0000000D01*
G01*
X0256496Y0190452D01*
G75*
G02*
X0255906Y0191043I0000000J0000591D01*
G01*
X0255906Y0195078D01*
G75*
G02*
X0256496Y0195669I0000591J0000000D01*
G01*
G37*
G36*
G01*
X0260237Y0195669D02*
X0261418Y0195669D01*
G75*
G02*
X0262008Y0195078I0000000J-000591D01*
G01*
X0262008Y0191043D01*
G75*
G02*
X0261418Y0190452I-000591J0000000D01*
G01*
X0260237Y0190452D01*
G75*
G02*
X0259646Y0191043I0000000J0000591D01*
G01*
X0259646Y0195078D01*
G75*
G02*
X0260237Y0195669I0000591J0000000D01*
G01*
G37*
G36*
G01*
X0263977Y0195669D02*
X0265158Y0195669D01*
G75*
G02*
X0265748Y0195078I0000000J-000591D01*
G01*
X0265748Y0191043D01*
G75*
G02*
X0265158Y0190452I-000591J0000000D01*
G01*
X0263977Y0190452D01*
G75*
G02*
X0263386Y0191043I0000000J0000591D01*
G01*
X0263386Y0195078D01*
G75*
G02*
X0263977Y0195669I0000591J0000000D01*
G01*
G37*
G36*
G01*
X0263977Y0186712D02*
X0265158Y0186712D01*
G75*
G02*
X0265748Y0186122I0000000J-000591D01*
G01*
X0265748Y0182086D01*
G75*
G02*
X0265158Y0181496I-000591J0000000D01*
G01*
X0263977Y0181496D01*
G75*
G02*
X0263386Y0182086I0000000J0000591D01*
G01*
X0263386Y0186122D01*
G75*
G02*
X0263977Y0186712I0000591J0000000D01*
G01*
G37*
G36*
G01*
X0256496Y0186712D02*
X0257678Y0186712D01*
G75*
G02*
X0258268Y0186122I0000000J-000591D01*
G01*
X0258268Y0182086D01*
G75*
G02*
X0257678Y0181496I-000591J0000000D01*
G01*
X0256496Y0181496D01*
G75*
G02*
X0255906Y0182086I0000000J0000591D01*
G01*
X0255906Y0186122D01*
G75*
G02*
X0256496Y0186712I0000591J0000000D01*
G01*
G37*
G36*
G01*
X0260315Y0197362D02*
X0258977Y0197362D01*
G75*
G02*
X0258426Y0197913I0000000J0000551D01*
G01*
X0258426Y0199015D01*
G75*
G02*
X0258977Y0199567I0000551J0000000D01*
G01*
X0260315Y0199567D01*
G75*
G02*
X0260867Y0199015I0000000J-000551D01*
G01*
X0260867Y0197913D01*
G75*
G02*
X0260315Y0197362I-000551J0000000D01*
G01*
G37*
G36*
G01*
X0260315Y0201141D02*
X0258977Y0201141D01*
G75*
G02*
X0258426Y0201692I0000000J0000551D01*
G01*
X0258426Y0202795D01*
G75*
G02*
X0258977Y0203346I0000551J0000000D01*
G01*
X0260315Y0203346D01*
G75*
G02*
X0260867Y0202795I0000000J-000551D01*
G01*
X0260867Y0201692D01*
G75*
G02*
X0260315Y0201141I-000551J0000000D01*
G01*
G37*
X0172047Y0162402D02*
G01*
G75*
D106*
X0207480Y0172638D02*
D03*
X0207480Y0168898D02*
D03*
X0207480Y0165158D02*
D03*
X0173228Y0169095D02*
D03*
X0173228Y0172638D02*
D03*
D235*
X0200000Y0172638D02*
D03*
X0203937Y0172638D02*
D03*
X0188877Y0172638D02*
D03*
X0184940Y0172638D02*
D03*
X0180511Y0172638D02*
D03*
X0176574Y0172638D02*
D03*
X0200000Y0165355D02*
D03*
X0203937Y0165355D02*
D03*
D236*
X0196615Y0165158D02*
D03*
X0196615Y0168701D02*
D03*
D237*
X0192730Y0171871D02*
D03*
X0192730Y0165650D02*
D03*
D238*
X0180118Y0168701D02*
D03*
X0176575Y0168701D02*
D03*
X0188484Y0165158D02*
D03*
X0184941Y0165158D02*
D03*
X0203346Y0168759D02*
D03*
X0199803Y0168759D02*
D03*
X0176575Y0165158D02*
D03*
X0180118Y0165158D02*
D03*
X0504823Y0349902D02*
G01*
G75*
D359*
X0474908Y0273524D02*
D03*
X0487900Y0273524D02*
D03*
D360*
X0455048Y0273130D02*
D03*
X0466465Y0273130D02*
D03*
X0455048Y0281162D02*
D03*
X0466465Y0281162D02*
D03*
D362*
X0492421Y0295178D02*
D03*
X0492421Y0291241D02*
D03*
X0495768Y0280611D02*
D03*
X0487106Y0280611D02*
D03*
X0496555Y0285859D02*
D03*
X0487894Y0285859D02*
D03*
D363*
X0484668Y0338485D02*
D03*
X0488212Y0338485D02*
D03*
X0475277Y0301752D02*
D03*
X0471733Y0301752D02*
D03*
X0483274Y0286647D02*
D03*
X0479731Y0286647D02*
D03*
X0476050Y0338485D02*
D03*
X0479593Y0338485D02*
D03*
X0496555Y0334548D02*
D03*
X0493012Y0334548D02*
D03*
D364*
X0471070Y0285072D02*
D03*
X0471070Y0281528D02*
D03*
X0491837Y0272670D02*
D03*
X0491837Y0276214D02*
D03*
X0443073Y0330987D02*
D03*
X0443073Y0327443D02*
D03*
D106*
X0439075Y0331792D02*
D03*
X0439075Y0335729D02*
D03*
D256*
X0501870Y0278249D02*
D03*
X0501870Y0345178D02*
D03*
X0501870Y0297737D02*
D03*
X0440847Y0297934D02*
D03*
X0440847Y0272737D02*
D03*
X0440847Y0322343D02*
D03*
X0440847Y0305414D02*
D03*
X0440847Y0346949D02*
D03*
X0501870Y0270965D02*
D03*
D370*
X0446949Y0271949D02*
D03*
X0446949Y0280611D02*
D03*
X0484865Y0334548D02*
D03*
X0488802Y0334548D02*
D03*
X0480184Y0334548D02*
D03*
X0476247Y0334548D02*
D03*
X0483471Y0280611D02*
D03*
X0479534Y0280611D02*
D03*
X0460538Y0302225D02*
D03*
X0456601Y0302225D02*
D03*
X0452762Y0339666D02*
D03*
X0456700Y0339666D02*
D03*
D371*
X0455610Y0293603D02*
D03*
X0466634Y0293603D02*
D03*
D372*
X0488288Y0297926D02*
D03*
X0488288Y0291706D02*
D03*
X0474194Y0297926D02*
D03*
X0474194Y0291706D02*
D03*
X0478885Y0297926D02*
D03*
X0478885Y0291706D02*
D03*
X0483577Y0297926D02*
D03*
X0483577Y0291706D02*
D03*
X0475375Y0285682D02*
D03*
X0475375Y0279461D02*
D03*
D264*
X0479751Y0327788D02*
D03*
X0484751Y0327788D02*
D03*
X0489751Y0327788D02*
D03*
X0494751Y0327788D02*
D03*
X0479751Y0305151D02*
D03*
X0484751Y0305151D02*
D03*
X0489751Y0305151D02*
D03*
X0494751Y0305151D02*
D03*
X0456684Y0333071D02*
D03*
X0461684Y0333071D02*
D03*
X0466684Y0333071D02*
D03*
X0471684Y0333071D02*
D03*
X0456684Y0309646D02*
D03*
X0461684Y0309646D02*
D03*
X0466684Y0309646D02*
D03*
X0471684Y0309646D02*
D03*
D373*
X0487251Y0316470D02*
D03*
D374*
X0464184Y0321359D02*
D03*
M02*
