G75*
G70*
%OFA0B0*%
%FSLAX25Y25*%
%IPPOS*%
%LPD*%
%AMOC8*
5,1,8,0,0,1.08239X$1,22.5*
%
%AMM20*
21,1,0.041340,0.026770,0.000000,0.000000,0.000000*
21,1,0.029130,0.038980,0.000000,0.000000,0.000000*
1,1,0.012210,0.014570,-0.013390*
1,1,0.012210,-0.014570,-0.013390*
1,1,0.012210,-0.014570,0.013390*
1,1,0.012210,0.014570,0.013390*
%
%AMM21*
21,1,0.076380,0.036220,0.000000,0.000000,90.000000*
21,1,0.061810,0.050790,0.000000,0.000000,90.000000*
1,1,0.014570,0.018110,0.030910*
1,1,0.014570,0.018110,-0.030910*
1,1,0.014570,-0.018110,-0.030910*
1,1,0.014570,-0.018110,0.030910*
%
%AMM24*
21,1,0.029130,0.018900,0.000000,0.000000,90.000000*
21,1,0.018900,0.029130,0.000000,0.000000,90.000000*
1,1,0.010240,0.009450,0.009450*
1,1,0.010240,0.009450,-0.009450*
1,1,0.010240,-0.009450,-0.009450*
1,1,0.010240,-0.009450,0.009450*
%
%AMM25*
21,1,0.025200,0.019680,0.000000,0.000000,0.000000*
21,1,0.015750,0.029130,0.000000,0.000000,0.000000*
1,1,0.009450,0.007870,-0.009840*
1,1,0.009450,-0.007870,-0.009840*
1,1,0.009450,-0.007870,0.009840*
1,1,0.009450,0.007870,0.009840*
%
%AMM26*
21,1,0.025200,0.019680,0.000000,0.000000,270.000000*
21,1,0.015750,0.029130,0.000000,0.000000,270.000000*
1,1,0.009450,-0.009840,-0.007870*
1,1,0.009450,-0.009840,0.007870*
1,1,0.009450,0.009840,0.007870*
1,1,0.009450,0.009840,-0.007870*
%
%AMM32*
21,1,0.029130,0.018900,0.000000,0.000000,0.000000*
21,1,0.018900,0.029130,0.000000,0.000000,0.000000*
1,1,0.010240,0.009450,-0.009450*
1,1,0.010240,-0.009450,-0.009450*
1,1,0.010240,-0.009450,0.009450*
1,1,0.010240,0.009450,0.009450*
%
%AMM33*
21,1,0.111810,0.050390,0.000000,0.000000,90.000000*
21,1,0.093700,0.068500,0.000000,0.000000,90.000000*
1,1,0.018110,0.025200,0.046850*
1,1,0.018110,0.025200,-0.046850*
1,1,0.018110,-0.025200,-0.046850*
1,1,0.018110,-0.025200,0.046850*
%
%AMM34*
21,1,0.038980,0.026770,0.000000,0.000000,270.000000*
21,1,0.026770,0.038980,0.000000,0.000000,270.000000*
1,1,0.012210,-0.013390,-0.013390*
1,1,0.012210,-0.013390,0.013390*
1,1,0.012210,0.013390,0.013390*
1,1,0.012210,0.013390,-0.013390*
%
%AMM35*
21,1,0.127560,0.075590,0.000000,0.000000,180.000000*
21,1,0.103150,0.100000,0.000000,0.000000,180.000000*
1,1,0.024410,-0.051580,0.037800*
1,1,0.024410,0.051580,0.037800*
1,1,0.024410,0.051580,-0.037800*
1,1,0.024410,-0.051580,-0.037800*
%
%AMM36*
21,1,0.123620,0.083460,0.000000,0.000000,0.000000*
21,1,0.097240,0.109840,0.000000,0.000000,0.000000*
1,1,0.026380,0.048620,-0.041730*
1,1,0.026380,-0.048620,-0.041730*
1,1,0.026380,-0.048620,0.041730*
1,1,0.026380,0.048620,0.041730*
%
%AMM38*
21,1,0.029130,0.018900,0.000000,0.000000,180.000000*
21,1,0.018900,0.029130,0.000000,0.000000,180.000000*
1,1,0.010240,-0.009450,0.009450*
1,1,0.010240,0.009450,0.009450*
1,1,0.010240,0.009450,-0.009450*
1,1,0.010240,-0.009450,-0.009450*
%
%AMM55*
21,1,0.029530,0.026380,0.000000,0.000000,270.000000*
21,1,0.020470,0.035430,0.000000,0.000000,270.000000*
1,1,0.009060,-0.013190,-0.010240*
1,1,0.009060,-0.013190,0.010240*
1,1,0.009060,0.013190,0.010240*
1,1,0.009060,0.013190,-0.010240*
%
%AMM56*
21,1,0.021650,0.027950,0.000000,0.000000,270.000000*
21,1,0.014170,0.035430,0.000000,0.000000,270.000000*
1,1,0.007480,-0.013980,-0.007090*
1,1,0.007480,-0.013980,0.007090*
1,1,0.007480,0.013980,0.007090*
1,1,0.007480,0.013980,-0.007090*
%
%AMM59*
21,1,0.031500,0.018900,0.000000,0.000000,90.000000*
21,1,0.022840,0.027560,0.000000,0.000000,90.000000*
1,1,0.008660,0.009450,0.011420*
1,1,0.008660,0.009450,-0.011420*
1,1,0.008660,-0.009450,-0.011420*
1,1,0.008660,-0.009450,0.011420*
%
%AMM61*
21,1,0.031500,0.018900,0.000000,0.000000,180.000000*
21,1,0.022840,0.027560,0.000000,0.000000,180.000000*
1,1,0.008660,-0.011420,0.009450*
1,1,0.008660,0.011420,0.009450*
1,1,0.008660,0.011420,-0.009450*
1,1,0.008660,-0.011420,-0.009450*
%
%AMM63*
21,1,0.039370,0.030320,0.000000,0.000000,270.000000*
21,1,0.028350,0.041340,0.000000,0.000000,270.000000*
1,1,0.011020,-0.015160,-0.014170*
1,1,0.011020,-0.015160,0.014170*
1,1,0.011020,0.015160,0.014170*
1,1,0.011020,0.015160,-0.014170*
%
%AMM66*
21,1,0.031500,0.030710,0.000000,0.000000,0.000000*
21,1,0.022050,0.040160,0.000000,0.000000,0.000000*
1,1,0.009450,0.011020,-0.015350*
1,1,0.009450,-0.011020,-0.015350*
1,1,0.009450,-0.011020,0.015350*
1,1,0.009450,0.011020,0.015350*
%
%AMM81*
21,1,0.037400,0.026770,0.000000,0.000000,90.000000*
21,1,0.026770,0.037400,0.000000,0.000000,90.000000*
1,1,0.010630,0.013390,0.013390*
1,1,0.010630,0.013390,-0.013390*
1,1,0.010630,-0.013390,-0.013390*
1,1,0.010630,-0.013390,0.013390*
%
%AMM82*
21,1,0.029530,0.026380,0.000000,0.000000,0.000000*
21,1,0.020470,0.035430,0.000000,0.000000,0.000000*
1,1,0.009060,0.010240,-0.013190*
1,1,0.009060,-0.010240,-0.013190*
1,1,0.009060,-0.010240,0.013190*
1,1,0.009060,0.010240,0.013190*
%
%AMM83*
21,1,0.021650,0.027950,0.000000,0.000000,0.000000*
21,1,0.014170,0.035430,0.000000,0.000000,0.000000*
1,1,0.007480,0.007090,-0.013980*
1,1,0.007480,-0.007090,-0.013980*
1,1,0.007480,-0.007090,0.013980*
1,1,0.007480,0.007090,0.013980*
%
%AMM84*
21,1,0.037400,0.026770,0.000000,0.000000,0.000000*
21,1,0.026770,0.037400,0.000000,0.000000,0.000000*
1,1,0.010630,0.013390,-0.013390*
1,1,0.010630,-0.013390,-0.013390*
1,1,0.010630,-0.013390,0.013390*
1,1,0.010630,0.013390,0.013390*
%
%AMM85*
21,1,0.082680,0.045670,0.000000,0.000000,180.000000*
21,1,0.067320,0.061020,0.000000,0.000000,180.000000*
1,1,0.015350,-0.033660,0.022840*
1,1,0.015350,0.033660,0.022840*
1,1,0.015350,0.033660,-0.022840*
1,1,0.015350,-0.033660,-0.022840*
%
%AMM86*
21,1,0.062990,0.020470,0.000000,0.000000,180.000000*
21,1,0.053940,0.029530,0.000000,0.000000,180.000000*
1,1,0.009060,-0.026970,0.010240*
1,1,0.009060,0.026970,0.010240*
1,1,0.009060,0.026970,-0.010240*
1,1,0.009060,-0.026970,-0.010240*
%
%AMM87*
21,1,0.039370,0.030320,0.000000,0.000000,180.000000*
21,1,0.028350,0.041340,0.000000,0.000000,180.000000*
1,1,0.011020,-0.014170,0.015160*
1,1,0.011020,0.014170,0.015160*
1,1,0.011020,0.014170,-0.015160*
1,1,0.011020,-0.014170,-0.015160*
%
%AMM88*
21,1,0.016540,0.028980,0.000000,0.000000,180.000000*
21,1,0.010080,0.035430,0.000000,0.000000,180.000000*
1,1,0.006460,-0.005040,0.014490*
1,1,0.006460,0.005040,0.014490*
1,1,0.006460,0.005040,-0.014490*
1,1,0.006460,-0.005040,-0.014490*
%
%AMM89*
21,1,0.074800,0.036220,0.000000,0.000000,0.000000*
21,1,0.061810,0.049210,0.000000,0.000000,0.000000*
1,1,0.012990,0.030910,-0.018110*
1,1,0.012990,-0.030910,-0.018110*
1,1,0.012990,-0.030910,0.018110*
1,1,0.012990,0.030910,0.018110*
%
%AMM90*
21,1,0.039760,0.026770,0.000000,0.000000,0.000000*
21,1,0.029130,0.037400,0.000000,0.000000,0.000000*
1,1,0.010630,0.014570,-0.013390*
1,1,0.010630,-0.014570,-0.013390*
1,1,0.010630,-0.014570,0.013390*
1,1,0.010630,0.014570,0.013390*
%
%AMM91*
21,1,0.031500,0.049610,0.000000,0.000000,0.000000*
21,1,0.022050,0.059060,0.000000,0.000000,0.000000*
1,1,0.009450,0.011020,-0.024800*
1,1,0.009450,-0.011020,-0.024800*
1,1,0.009450,-0.011020,0.024800*
1,1,0.009450,0.011020,0.024800*
%
%AMM92*
21,1,0.074800,0.036220,0.000000,0.000000,90.000000*
21,1,0.061810,0.049210,0.000000,0.000000,90.000000*
1,1,0.012990,0.018110,0.030910*
1,1,0.012990,0.018110,-0.030910*
1,1,0.012990,-0.018110,-0.030910*
1,1,0.012990,-0.018110,0.030910*
%
%AMM93*
21,1,0.031500,0.030710,0.000000,0.000000,90.000000*
21,1,0.022050,0.040160,0.000000,0.000000,90.000000*
1,1,0.009450,0.015350,0.011020*
1,1,0.009450,0.015350,-0.011020*
1,1,0.009450,-0.015350,-0.011020*
1,1,0.009450,-0.015350,0.011020*
%
%ADD10C,0.00394*%
%ADD106M20*%
%ADD107M21*%
%ADD11C,0.00591*%
%ADD110M24*%
%ADD111M25*%
%ADD112M26*%
%ADD113C,0.02913*%
%ADD114C,0.06457*%
%ADD12C,0.01181*%
%ADD123M32*%
%ADD124M33*%
%ADD125M34*%
%ADD126O,0.02520X0.09213*%
%ADD127M35*%
%ADD128M36*%
%ADD13C,0.01575*%
%ADD131M38*%
%ADD14C,0.05906*%
%ADD15C,0.02362*%
%ADD152C,0.05118*%
%ADD163R,0.07500X0.07874*%
%ADD164O,0.07500X0.07874*%
%ADD166C,0.03900*%
%ADD170R,0.05709X0.01772*%
%ADD171R,0.04803X0.02559*%
%ADD197M55*%
%ADD198M56*%
%ADD205M59*%
%ADD209M61*%
%ADD211M63*%
%ADD215M66*%
%ADD221C,0.04724*%
%ADD222C,0.04294*%
%ADD240M81*%
%ADD241M82*%
%ADD242M83*%
%ADD243M84*%
%ADD244M85*%
%ADD245M86*%
%ADD246M87*%
%ADD247R,0.01772X0.01870*%
%ADD248M88*%
%ADD249O,0.05354X0.01378*%
%ADD250M89*%
%ADD251M90*%
%ADD252R,0.09843X0.07087*%
%ADD253R,0.01870X0.01772*%
%ADD254M91*%
%ADD255R,0.04331X0.04724*%
%ADD256M92*%
%ADD257M93*%
%ADD32C,0.06000*%
%ADD33O,0.06693X0.07283*%
%ADD50R,0.04331X0.04331*%
%ADD51C,0.04331*%
%ADD52O,0.09449X0.04331*%
%ADD59C,0.14567*%
%ADD60C,0.08661*%
%ADD61C,0.10236*%
X0000000Y0000000D02*
%LPD*%
G01*
D10*
D11*
X1188189Y0133858D02*
X1613386Y0133858D01*
X1613386Y0007874D01*
X1188189Y0007874D01*
X1188189Y0133858D01*
D10*
D11*
X0000000Y1414960D02*
X1621260Y1414960D01*
X1621260Y0000000D01*
X0000000Y0000000D01*
X0000000Y1414960D01*
D10*
D11*
X0007874Y1407086D02*
X1613386Y1407086D01*
X1613386Y0007874D01*
X0007874Y0007874D01*
X0007874Y1407086D01*
D10*
D11*
X0196850Y1407086D02*
X0196850Y1414960D01*
D10*
D11*
X0393701Y1407086D02*
X0393701Y1414960D01*
D10*
D11*
X0590551Y1407086D02*
X0590551Y1414960D01*
D10*
D11*
X0787401Y1407086D02*
X0787401Y1414960D01*
D10*
D11*
X0984252Y1407086D02*
X0984252Y1414960D01*
D10*
D11*
X1181102Y1407086D02*
X1181102Y1414960D01*
D10*
D11*
X1377953Y1407086D02*
X1377953Y1414960D01*
D10*
D11*
X1574803Y1407086D02*
X1574803Y1414960D01*
D10*
D11*
X0102713Y1408686D02*
X0099788Y1408686D01*
X0101251Y1408686D02*
X0101251Y1413804D01*
X0101251Y1413804D02*
X0100763Y1413073D01*
X0100763Y1413073D02*
X0100276Y1412586D01*
X0100276Y1412586D02*
X0099788Y1412342D01*
D10*
D11*
X0296639Y1413317D02*
X0296883Y1413561D01*
X0296883Y1413561D02*
X0297370Y1413804D01*
X0297370Y1413804D02*
X0298589Y1413804D01*
X0298589Y1413804D02*
X0299076Y1413561D01*
X0299076Y1413561D02*
X0299320Y1413317D01*
X0299320Y1413317D02*
X0299563Y1412829D01*
X0299563Y1412829D02*
X0299563Y1412342D01*
X0299563Y1412342D02*
X0299320Y1411611D01*
X0299320Y1411611D02*
X0296395Y1408686D01*
X0296395Y1408686D02*
X0299563Y1408686D01*
D10*
D11*
X0493245Y1413804D02*
X0496414Y1413804D01*
X0496414Y1413804D02*
X0494708Y1411854D01*
X0494708Y1411854D02*
X0495439Y1411854D01*
X0495439Y1411854D02*
X0495926Y1411611D01*
X0495926Y1411611D02*
X0496170Y1411367D01*
X0496170Y1411367D02*
X0496414Y1410880D01*
X0496414Y1410880D02*
X0496414Y1409661D01*
X0496414Y1409661D02*
X0496170Y1409174D01*
X0496170Y1409174D02*
X0495926Y1408930D01*
X0495926Y1408930D02*
X0495439Y1408686D01*
X0495439Y1408686D02*
X0493977Y1408686D01*
X0493977Y1408686D02*
X0493489Y1408930D01*
X0493489Y1408930D02*
X0493245Y1409174D01*
D10*
D11*
X0692777Y1412098D02*
X0692777Y1408686D01*
X0691558Y1414048D02*
X0690340Y1410392D01*
X0690340Y1410392D02*
X0693508Y1410392D01*
D10*
D11*
X0889871Y1413804D02*
X0887434Y1413804D01*
X0887434Y1413804D02*
X0887190Y1411367D01*
X0887190Y1411367D02*
X0887434Y1411611D01*
X0887434Y1411611D02*
X0887921Y1411854D01*
X0887921Y1411854D02*
X0889140Y1411854D01*
X0889140Y1411854D02*
X0889627Y1411611D01*
X0889627Y1411611D02*
X0889871Y1411367D01*
X0889871Y1411367D02*
X0890115Y1410880D01*
X0890115Y1410880D02*
X0890115Y1409661D01*
X0890115Y1409661D02*
X0889871Y1409174D01*
X0889871Y1409174D02*
X0889627Y1408930D01*
X0889627Y1408930D02*
X0889140Y1408686D01*
X0889140Y1408686D02*
X0887921Y1408686D01*
X0887921Y1408686D02*
X0887434Y1408930D01*
X0887434Y1408930D02*
X0887190Y1409174D01*
D10*
D11*
X1086478Y1413804D02*
X1085503Y1413804D01*
X1085503Y1413804D02*
X1085015Y1413561D01*
X1085015Y1413561D02*
X1084772Y1413317D01*
X1084772Y1413317D02*
X1084284Y1412586D01*
X1084284Y1412586D02*
X1084040Y1411611D01*
X1084040Y1411611D02*
X1084040Y1409661D01*
X1084040Y1409661D02*
X1084284Y1409174D01*
X1084284Y1409174D02*
X1084528Y1408930D01*
X1084528Y1408930D02*
X1085015Y1408686D01*
X1085015Y1408686D02*
X1085990Y1408686D01*
X1085990Y1408686D02*
X1086478Y1408930D01*
X1086478Y1408930D02*
X1086721Y1409174D01*
X1086721Y1409174D02*
X1086965Y1409661D01*
X1086965Y1409661D02*
X1086965Y1410880D01*
X1086965Y1410880D02*
X1086721Y1411367D01*
X1086721Y1411367D02*
X1086478Y1411611D01*
X1086478Y1411611D02*
X1085990Y1411854D01*
X1085990Y1411854D02*
X1085015Y1411854D01*
X1085015Y1411854D02*
X1084528Y1411611D01*
X1084528Y1411611D02*
X1084284Y1411367D01*
X1084284Y1411367D02*
X1084040Y1410880D01*
D10*
D11*
X1280647Y1413804D02*
X1284059Y1413804D01*
X1284059Y1413804D02*
X1281866Y1408686D01*
D10*
D11*
X1478716Y1411611D02*
X1478229Y1411854D01*
X1478229Y1411854D02*
X1477985Y1412098D01*
X1477985Y1412098D02*
X1477741Y1412586D01*
X1477741Y1412586D02*
X1477741Y1412829D01*
X1477741Y1412829D02*
X1477985Y1413317D01*
X1477985Y1413317D02*
X1478229Y1413561D01*
X1478229Y1413561D02*
X1478716Y1413804D01*
X1478716Y1413804D02*
X1479691Y1413804D01*
X1479691Y1413804D02*
X1480178Y1413561D01*
X1480178Y1413561D02*
X1480422Y1413317D01*
X1480422Y1413317D02*
X1480666Y1412829D01*
X1480666Y1412829D02*
X1480666Y1412586D01*
X1480666Y1412586D02*
X1480422Y1412098D01*
X1480422Y1412098D02*
X1480178Y1411854D01*
X1480178Y1411854D02*
X1479691Y1411611D01*
X1479691Y1411611D02*
X1478716Y1411611D01*
X1478716Y1411611D02*
X1478229Y1411367D01*
X1478229Y1411367D02*
X1477985Y1411123D01*
X1477985Y1411123D02*
X1477741Y1410636D01*
X1477741Y1410636D02*
X1477741Y1409661D01*
X1477741Y1409661D02*
X1477985Y1409174D01*
X1477985Y1409174D02*
X1478229Y1408930D01*
X1478229Y1408930D02*
X1478716Y1408686D01*
X1478716Y1408686D02*
X1479691Y1408686D01*
X1479691Y1408686D02*
X1480178Y1408930D01*
X1480178Y1408930D02*
X1480422Y1409174D01*
X1480422Y1409174D02*
X1480666Y1409661D01*
X1480666Y1409661D02*
X1480666Y1410636D01*
X1480666Y1410636D02*
X1480422Y1411123D01*
X1480422Y1411123D02*
X1480178Y1411367D01*
X1480178Y1411367D02*
X1479691Y1411611D01*
D10*
D11*
X0196850Y0007874D02*
X0196850Y0000000D01*
D10*
D11*
X0393701Y0007874D02*
X0393701Y0000000D01*
D10*
D11*
X0590551Y0007874D02*
X0590551Y0000000D01*
D10*
D11*
X0787401Y0007874D02*
X0787401Y0000000D01*
D10*
D11*
X0984252Y0007874D02*
X0984252Y0000000D01*
D10*
D11*
X1181102Y0007874D02*
X1181102Y0000000D01*
D10*
D11*
X1377953Y0007874D02*
X1377953Y0000000D01*
D10*
D11*
X1574803Y0007874D02*
X1574803Y0000000D01*
D10*
D11*
X0102713Y0001600D02*
X0099788Y0001600D01*
X0101251Y0001600D02*
X0101251Y0006718D01*
X0101251Y0006718D02*
X0100763Y0005986D01*
X0100763Y0005986D02*
X0100276Y0005499D01*
X0100276Y0005499D02*
X0099788Y0005255D01*
D10*
D11*
X0296639Y0006230D02*
X0296883Y0006474D01*
X0296883Y0006474D02*
X0297370Y0006718D01*
X0297370Y0006718D02*
X0298589Y0006718D01*
X0298589Y0006718D02*
X0299076Y0006474D01*
X0299076Y0006474D02*
X0299320Y0006230D01*
X0299320Y0006230D02*
X0299563Y0005743D01*
X0299563Y0005743D02*
X0299563Y0005255D01*
X0299563Y0005255D02*
X0299320Y0004524D01*
X0299320Y0004524D02*
X0296395Y0001600D01*
X0296395Y0001600D02*
X0299563Y0001600D01*
D10*
D11*
X0493245Y0006718D02*
X0496414Y0006718D01*
X0496414Y0006718D02*
X0494708Y0004768D01*
X0494708Y0004768D02*
X0495439Y0004768D01*
X0495439Y0004768D02*
X0495926Y0004524D01*
X0495926Y0004524D02*
X0496170Y0004280D01*
X0496170Y0004280D02*
X0496414Y0003793D01*
X0496414Y0003793D02*
X0496414Y0002574D01*
X0496414Y0002574D02*
X0496170Y0002087D01*
X0496170Y0002087D02*
X0495926Y0001843D01*
X0495926Y0001843D02*
X0495439Y0001600D01*
X0495439Y0001600D02*
X0493977Y0001600D01*
X0493977Y0001600D02*
X0493489Y0001843D01*
X0493489Y0001843D02*
X0493245Y0002087D01*
D10*
D11*
X0692777Y0005012D02*
X0692777Y0001600D01*
X0691558Y0006961D02*
X0690340Y0003306D01*
X0690340Y0003306D02*
X0693508Y0003306D01*
D10*
D11*
X0889871Y0006718D02*
X0887434Y0006718D01*
X0887434Y0006718D02*
X0887190Y0004280D01*
X0887190Y0004280D02*
X0887434Y0004524D01*
X0887434Y0004524D02*
X0887921Y0004768D01*
X0887921Y0004768D02*
X0889140Y0004768D01*
X0889140Y0004768D02*
X0889627Y0004524D01*
X0889627Y0004524D02*
X0889871Y0004280D01*
X0889871Y0004280D02*
X0890115Y0003793D01*
X0890115Y0003793D02*
X0890115Y0002574D01*
X0890115Y0002574D02*
X0889871Y0002087D01*
X0889871Y0002087D02*
X0889627Y0001843D01*
X0889627Y0001843D02*
X0889140Y0001600D01*
X0889140Y0001600D02*
X0887921Y0001600D01*
X0887921Y0001600D02*
X0887434Y0001843D01*
X0887434Y0001843D02*
X0887190Y0002087D01*
D10*
D11*
X1086478Y0006718D02*
X1085503Y0006718D01*
X1085503Y0006718D02*
X1085015Y0006474D01*
X1085015Y0006474D02*
X1084772Y0006230D01*
X1084772Y0006230D02*
X1084284Y0005499D01*
X1084284Y0005499D02*
X1084040Y0004524D01*
X1084040Y0004524D02*
X1084040Y0002574D01*
X1084040Y0002574D02*
X1084284Y0002087D01*
X1084284Y0002087D02*
X1084528Y0001843D01*
X1084528Y0001843D02*
X1085015Y0001600D01*
X1085015Y0001600D02*
X1085990Y0001600D01*
X1085990Y0001600D02*
X1086478Y0001843D01*
X1086478Y0001843D02*
X1086721Y0002087D01*
X1086721Y0002087D02*
X1086965Y0002574D01*
X1086965Y0002574D02*
X1086965Y0003793D01*
X1086965Y0003793D02*
X1086721Y0004280D01*
X1086721Y0004280D02*
X1086478Y0004524D01*
X1086478Y0004524D02*
X1085990Y0004768D01*
X1085990Y0004768D02*
X1085015Y0004768D01*
X1085015Y0004768D02*
X1084528Y0004524D01*
X1084528Y0004524D02*
X1084284Y0004280D01*
X1084284Y0004280D02*
X1084040Y0003793D01*
D10*
D11*
X1280647Y0006718D02*
X1284059Y0006718D01*
X1284059Y0006718D02*
X1281866Y0001600D01*
D10*
D11*
X1478716Y0004524D02*
X1478229Y0004768D01*
X1478229Y0004768D02*
X1477985Y0005012D01*
X1477985Y0005012D02*
X1477741Y0005499D01*
X1477741Y0005499D02*
X1477741Y0005743D01*
X1477741Y0005743D02*
X1477985Y0006230D01*
X1477985Y0006230D02*
X1478229Y0006474D01*
X1478229Y0006474D02*
X1478716Y0006718D01*
X1478716Y0006718D02*
X1479691Y0006718D01*
X1479691Y0006718D02*
X1480178Y0006474D01*
X1480178Y0006474D02*
X1480422Y0006230D01*
X1480422Y0006230D02*
X1480666Y0005743D01*
X1480666Y0005743D02*
X1480666Y0005499D01*
X1480666Y0005499D02*
X1480422Y0005012D01*
X1480422Y0005012D02*
X1480178Y0004768D01*
X1480178Y0004768D02*
X1479691Y0004524D01*
X1479691Y0004524D02*
X1478716Y0004524D01*
X1478716Y0004524D02*
X1478229Y0004280D01*
X1478229Y0004280D02*
X1477985Y0004037D01*
X1477985Y0004037D02*
X1477741Y0003549D01*
X1477741Y0003549D02*
X1477741Y0002574D01*
X1477741Y0002574D02*
X1477985Y0002087D01*
X1477985Y0002087D02*
X1478229Y0001843D01*
X1478229Y0001843D02*
X1478716Y0001600D01*
X1478716Y0001600D02*
X1479691Y0001600D01*
X1479691Y0001600D02*
X1480178Y0001843D01*
X1480178Y0001843D02*
X1480422Y0002087D01*
X1480422Y0002087D02*
X1480666Y0002574D01*
X1480666Y0002574D02*
X1480666Y0003549D01*
X1480666Y0003549D02*
X1480422Y0004037D01*
X1480422Y0004037D02*
X1480178Y0004280D01*
X1480178Y0004280D02*
X1479691Y0004524D01*
D10*
D11*
X0000000Y1218110D02*
X0007874Y1218110D01*
D10*
D11*
X0000000Y1021259D02*
X0007874Y1021259D01*
D10*
D11*
X0000000Y0824409D02*
X0007874Y0824409D01*
D10*
D11*
X0000000Y0627559D02*
X0007874Y0627559D01*
D10*
D11*
X0000000Y0430708D02*
X0007874Y0430708D01*
D10*
D11*
X0000000Y0233858D02*
X0007874Y0233858D01*
D10*
D11*
X0000000Y0037007D02*
X0007874Y0037007D01*
D10*
D11*
X0002718Y1315660D02*
X0005155Y1315660D01*
X0002231Y1314198D02*
X0003937Y1319316D01*
X0003937Y1319316D02*
X0005643Y1314198D01*
D10*
D11*
X0004302Y1120028D02*
X0005034Y1119785D01*
X0005034Y1119785D02*
X0005277Y1119541D01*
X0005277Y1119541D02*
X0005521Y1119054D01*
X0005521Y1119054D02*
X0005521Y1118322D01*
X0005521Y1118322D02*
X0005277Y1117835D01*
X0005277Y1117835D02*
X0005034Y1117591D01*
X0005034Y1117591D02*
X0004546Y1117348D01*
X0004546Y1117348D02*
X0002596Y1117348D01*
X0002596Y1117348D02*
X0002596Y1122466D01*
X0002596Y1122466D02*
X0004302Y1122466D01*
X0004302Y1122466D02*
X0004790Y1122222D01*
X0004790Y1122222D02*
X0005034Y1121978D01*
X0005034Y1121978D02*
X0005277Y1121491D01*
X0005277Y1121491D02*
X0005277Y1121003D01*
X0005277Y1121003D02*
X0005034Y1120516D01*
X0005034Y1120516D02*
X0004790Y1120272D01*
X0004790Y1120272D02*
X0004302Y1120028D01*
X0004302Y1120028D02*
X0002596Y1120028D01*
D10*
D11*
X0005521Y0920985D02*
X0005277Y0920741D01*
X0005277Y0920741D02*
X0004546Y0920497D01*
X0004546Y0920497D02*
X0004059Y0920497D01*
X0004059Y0920497D02*
X0003328Y0920741D01*
X0003328Y0920741D02*
X0002840Y0921228D01*
X0002840Y0921228D02*
X0002596Y0921716D01*
X0002596Y0921716D02*
X0002353Y0922691D01*
X0002353Y0922691D02*
X0002353Y0923422D01*
X0002353Y0923422D02*
X0002596Y0924397D01*
X0002596Y0924397D02*
X0002840Y0924884D01*
X0002840Y0924884D02*
X0003328Y0925372D01*
X0003328Y0925372D02*
X0004059Y0925615D01*
X0004059Y0925615D02*
X0004546Y0925615D01*
X0004546Y0925615D02*
X0005277Y0925372D01*
X0005277Y0925372D02*
X0005521Y0925128D01*
D10*
D11*
X0002596Y0723647D02*
X0002596Y0728765D01*
X0002596Y0728765D02*
X0003815Y0728765D01*
X0003815Y0728765D02*
X0004546Y0728521D01*
X0004546Y0728521D02*
X0005034Y0728034D01*
X0005034Y0728034D02*
X0005277Y0727546D01*
X0005277Y0727546D02*
X0005521Y0726571D01*
X0005521Y0726571D02*
X0005521Y0725840D01*
X0005521Y0725840D02*
X0005277Y0724865D01*
X0005277Y0724865D02*
X0005034Y0724378D01*
X0005034Y0724378D02*
X0004546Y0723890D01*
X0004546Y0723890D02*
X0003815Y0723647D01*
X0003815Y0723647D02*
X0002596Y0723647D01*
D10*
D11*
X0002840Y0529477D02*
X0004546Y0529477D01*
X0005277Y0526796D02*
X0002840Y0526796D01*
X0002840Y0526796D02*
X0002840Y0531914D01*
X0002840Y0531914D02*
X0005277Y0531914D01*
D10*
D11*
X0004668Y0332627D02*
X0002962Y0332627D01*
X0002962Y0329946D02*
X0002962Y0335064D01*
X0002962Y0335064D02*
X0005399Y0335064D01*
D10*
D11*
X0005277Y0137970D02*
X0004790Y0138214D01*
X0004790Y0138214D02*
X0004059Y0138214D01*
X0004059Y0138214D02*
X0003328Y0137970D01*
X0003328Y0137970D02*
X0002840Y0137483D01*
X0002840Y0137483D02*
X0002596Y0136995D01*
X0002596Y0136995D02*
X0002353Y0136020D01*
X0002353Y0136020D02*
X0002353Y0135289D01*
X0002353Y0135289D02*
X0002596Y0134314D01*
X0002596Y0134314D02*
X0002840Y0133827D01*
X0002840Y0133827D02*
X0003328Y0133339D01*
X0003328Y0133339D02*
X0004059Y0133096D01*
X0004059Y0133096D02*
X0004546Y0133096D01*
X0004546Y0133096D02*
X0005277Y0133339D01*
X0005277Y0133339D02*
X0005521Y0133583D01*
X0005521Y0133583D02*
X0005521Y0135289D01*
X0005521Y0135289D02*
X0004546Y0135289D01*
D10*
D11*
X1621260Y1218110D02*
X1613386Y1218110D01*
D10*
D11*
X1621260Y1021259D02*
X1613386Y1021259D01*
D10*
D11*
X1621260Y0824409D02*
X1613386Y0824409D01*
D10*
D11*
X1621260Y0627559D02*
X1613386Y0627559D01*
D10*
D11*
X1621260Y0430708D02*
X1613386Y0430708D01*
D10*
D11*
X1621260Y0233858D02*
X1613386Y0233858D01*
D10*
D11*
X1621260Y0037007D02*
X1613386Y0037007D01*
D10*
D11*
X1616104Y1315660D02*
X1618541Y1315660D01*
X1615617Y1314198D02*
X1617323Y1319316D01*
X1617323Y1319316D02*
X1619029Y1314198D01*
D10*
D11*
X1617688Y1120028D02*
X1618419Y1119785D01*
X1618419Y1119785D02*
X1618663Y1119541D01*
X1618663Y1119541D02*
X1618907Y1119054D01*
X1618907Y1119054D02*
X1618907Y1118322D01*
X1618907Y1118322D02*
X1618663Y1117835D01*
X1618663Y1117835D02*
X1618419Y1117591D01*
X1618419Y1117591D02*
X1617932Y1117348D01*
X1617932Y1117348D02*
X1615982Y1117348D01*
X1615982Y1117348D02*
X1615982Y1122466D01*
X1615982Y1122466D02*
X1617688Y1122466D01*
X1617688Y1122466D02*
X1618176Y1122222D01*
X1618176Y1122222D02*
X1618419Y1121978D01*
X1618419Y1121978D02*
X1618663Y1121491D01*
X1618663Y1121491D02*
X1618663Y1121003D01*
X1618663Y1121003D02*
X1618419Y1120516D01*
X1618419Y1120516D02*
X1618176Y1120272D01*
X1618176Y1120272D02*
X1617688Y1120028D01*
X1617688Y1120028D02*
X1615982Y1120028D01*
D10*
D11*
X1618907Y0920985D02*
X1618663Y0920741D01*
X1618663Y0920741D02*
X1617932Y0920497D01*
X1617932Y0920497D02*
X1617445Y0920497D01*
X1617445Y0920497D02*
X1616713Y0920741D01*
X1616713Y0920741D02*
X1616226Y0921228D01*
X1616226Y0921228D02*
X1615982Y0921716D01*
X1615982Y0921716D02*
X1615738Y0922691D01*
X1615738Y0922691D02*
X1615738Y0923422D01*
X1615738Y0923422D02*
X1615982Y0924397D01*
X1615982Y0924397D02*
X1616226Y0924884D01*
X1616226Y0924884D02*
X1616713Y0925372D01*
X1616713Y0925372D02*
X1617445Y0925615D01*
X1617445Y0925615D02*
X1617932Y0925615D01*
X1617932Y0925615D02*
X1618663Y0925372D01*
X1618663Y0925372D02*
X1618907Y0925128D01*
D10*
D11*
X1615982Y0723647D02*
X1615982Y0728765D01*
X1615982Y0728765D02*
X1617201Y0728765D01*
X1617201Y0728765D02*
X1617932Y0728521D01*
X1617932Y0728521D02*
X1618419Y0728034D01*
X1618419Y0728034D02*
X1618663Y0727546D01*
X1618663Y0727546D02*
X1618907Y0726571D01*
X1618907Y0726571D02*
X1618907Y0725840D01*
X1618907Y0725840D02*
X1618663Y0724865D01*
X1618663Y0724865D02*
X1618419Y0724378D01*
X1618419Y0724378D02*
X1617932Y0723890D01*
X1617932Y0723890D02*
X1617201Y0723647D01*
X1617201Y0723647D02*
X1615982Y0723647D01*
D10*
D11*
X1616226Y0529477D02*
X1617932Y0529477D01*
X1618663Y0526796D02*
X1616226Y0526796D01*
X1616226Y0526796D02*
X1616226Y0531914D01*
X1616226Y0531914D02*
X1618663Y0531914D01*
D10*
D11*
X1618054Y0332627D02*
X1616348Y0332627D01*
X1616348Y0329946D02*
X1616348Y0335064D01*
X1616348Y0335064D02*
X1618785Y0335064D01*
D10*
D11*
X1618663Y0137970D02*
X1618176Y0138214D01*
X1618176Y0138214D02*
X1617445Y0138214D01*
X1617445Y0138214D02*
X1616713Y0137970D01*
X1616713Y0137970D02*
X1616226Y0137483D01*
X1616226Y0137483D02*
X1615982Y0136995D01*
X1615982Y0136995D02*
X1615738Y0136020D01*
X1615738Y0136020D02*
X1615738Y0135289D01*
X1615738Y0135289D02*
X1615982Y0134314D01*
X1615982Y0134314D02*
X1616226Y0133827D01*
X1616226Y0133827D02*
X1616713Y0133339D01*
X1616713Y0133339D02*
X1617445Y0133096D01*
X1617445Y0133096D02*
X1617932Y0133096D01*
X1617932Y0133096D02*
X1618663Y0133339D01*
X1618663Y0133339D02*
X1618907Y0133583D01*
X1618907Y0133583D02*
X1618907Y0135289D01*
X1618907Y0135289D02*
X1617932Y0135289D01*
D10*
D11*
X1280535Y0024464D02*
X1280535Y0030369D01*
X1280535Y0030369D02*
X1281941Y0030369D01*
X1281941Y0030369D02*
X1282784Y0030088D01*
X1282784Y0030088D02*
X1283347Y0029525D01*
X1283347Y0029525D02*
X1283628Y0028963D01*
X1283628Y0028963D02*
X1283909Y0027838D01*
X1283909Y0027838D02*
X1283909Y0026995D01*
X1283909Y0026995D02*
X1283628Y0025870D01*
X1283628Y0025870D02*
X1283347Y0025307D01*
X1283347Y0025307D02*
X1282784Y0024745D01*
X1282784Y0024745D02*
X1281941Y0024464D01*
X1281941Y0024464D02*
X1280535Y0024464D01*
X1288971Y0024464D02*
X1288971Y0027557D01*
X1288971Y0027557D02*
X1288690Y0028119D01*
X1288690Y0028119D02*
X1288127Y0028401D01*
X1288127Y0028401D02*
X1287003Y0028401D01*
X1287003Y0028401D02*
X1286440Y0028119D01*
X1288971Y0024745D02*
X1288409Y0024464D01*
X1288409Y0024464D02*
X1287003Y0024464D01*
X1287003Y0024464D02*
X1286440Y0024745D01*
X1286440Y0024745D02*
X1286159Y0025307D01*
X1286159Y0025307D02*
X1286159Y0025870D01*
X1286159Y0025870D02*
X1286440Y0026432D01*
X1286440Y0026432D02*
X1287003Y0026713D01*
X1287003Y0026713D02*
X1288409Y0026713D01*
X1288409Y0026713D02*
X1288971Y0026995D01*
X1290940Y0028401D02*
X1293189Y0028401D01*
X1291783Y0030369D02*
X1291783Y0025307D01*
X1291783Y0025307D02*
X1292064Y0024745D01*
X1292064Y0024745D02*
X1292627Y0024464D01*
X1292627Y0024464D02*
X1293189Y0024464D01*
X1297407Y0024745D02*
X1296845Y0024464D01*
X1296845Y0024464D02*
X1295720Y0024464D01*
X1295720Y0024464D02*
X1295158Y0024745D01*
X1295158Y0024745D02*
X1294877Y0025307D01*
X1294877Y0025307D02*
X1294877Y0027557D01*
X1294877Y0027557D02*
X1295158Y0028119D01*
X1295158Y0028119D02*
X1295720Y0028401D01*
X1295720Y0028401D02*
X1296845Y0028401D01*
X1296845Y0028401D02*
X1297407Y0028119D01*
X1297407Y0028119D02*
X1297689Y0027557D01*
X1297689Y0027557D02*
X1297689Y0026995D01*
X1297689Y0026995D02*
X1294877Y0026432D01*
X1300220Y0025026D02*
X1300501Y0024745D01*
X1300501Y0024745D02*
X1300220Y0024464D01*
X1300220Y0024464D02*
X1299938Y0024745D01*
X1299938Y0024745D02*
X1300220Y0025026D01*
X1300220Y0025026D02*
X1300220Y0024464D01*
X1300220Y0028119D02*
X1300501Y0027838D01*
X1300501Y0027838D02*
X1300220Y0027557D01*
X1300220Y0027557D02*
X1299938Y0027838D01*
X1299938Y0027838D02*
X1300220Y0028119D01*
X1300220Y0028119D02*
X1300220Y0027557D01*
X1307250Y0029807D02*
X1307531Y0030088D01*
X1307531Y0030088D02*
X1308094Y0030369D01*
X1308094Y0030369D02*
X1309500Y0030369D01*
X1309500Y0030369D02*
X1310062Y0030088D01*
X1310062Y0030088D02*
X1310343Y0029807D01*
X1310343Y0029807D02*
X1310625Y0029244D01*
X1310625Y0029244D02*
X1310625Y0028682D01*
X1310625Y0028682D02*
X1310343Y0027838D01*
X1310343Y0027838D02*
X1306969Y0024464D01*
X1306969Y0024464D02*
X1310625Y0024464D01*
X1314280Y0030369D02*
X1314843Y0030369D01*
X1314843Y0030369D02*
X1315405Y0030088D01*
X1315405Y0030088D02*
X1315686Y0029807D01*
X1315686Y0029807D02*
X1315968Y0029244D01*
X1315968Y0029244D02*
X1316249Y0028119D01*
X1316249Y0028119D02*
X1316249Y0026713D01*
X1316249Y0026713D02*
X1315968Y0025588D01*
X1315968Y0025588D02*
X1315686Y0025026D01*
X1315686Y0025026D02*
X1315405Y0024745D01*
X1315405Y0024745D02*
X1314843Y0024464D01*
X1314843Y0024464D02*
X1314280Y0024464D01*
X1314280Y0024464D02*
X1313718Y0024745D01*
X1313718Y0024745D02*
X1313437Y0025026D01*
X1313437Y0025026D02*
X1313155Y0025588D01*
X1313155Y0025588D02*
X1312874Y0026713D01*
X1312874Y0026713D02*
X1312874Y0028119D01*
X1312874Y0028119D02*
X1313155Y0029244D01*
X1313155Y0029244D02*
X1313437Y0029807D01*
X1313437Y0029807D02*
X1313718Y0030088D01*
X1313718Y0030088D02*
X1314280Y0030369D01*
X1318499Y0029807D02*
X1318780Y0030088D01*
X1318780Y0030088D02*
X1319342Y0030369D01*
X1319342Y0030369D02*
X1320748Y0030369D01*
X1320748Y0030369D02*
X1321311Y0030088D01*
X1321311Y0030088D02*
X1321592Y0029807D01*
X1321592Y0029807D02*
X1321873Y0029244D01*
X1321873Y0029244D02*
X1321873Y0028682D01*
X1321873Y0028682D02*
X1321592Y0027838D01*
X1321592Y0027838D02*
X1318217Y0024464D01*
X1318217Y0024464D02*
X1321873Y0024464D01*
X1324123Y0029807D02*
X1324404Y0030088D01*
X1324404Y0030088D02*
X1324967Y0030369D01*
X1324967Y0030369D02*
X1326373Y0030369D01*
X1326373Y0030369D02*
X1326935Y0030088D01*
X1326935Y0030088D02*
X1327216Y0029807D01*
X1327216Y0029807D02*
X1327497Y0029244D01*
X1327497Y0029244D02*
X1327497Y0028682D01*
X1327497Y0028682D02*
X1327216Y0027838D01*
X1327216Y0027838D02*
X1323842Y0024464D01*
X1323842Y0024464D02*
X1327497Y0024464D01*
X1330028Y0026713D02*
X1334528Y0026713D01*
X1340433Y0024464D02*
X1337059Y0024464D01*
X1338746Y0024464D02*
X1338746Y0030369D01*
X1338746Y0030369D02*
X1338184Y0029525D01*
X1338184Y0029525D02*
X1337621Y0028963D01*
X1337621Y0028963D02*
X1337059Y0028682D01*
X1344089Y0030369D02*
X1344652Y0030369D01*
X1344652Y0030369D02*
X1345214Y0030088D01*
X1345214Y0030088D02*
X1345495Y0029807D01*
X1345495Y0029807D02*
X1345776Y0029244D01*
X1345776Y0029244D02*
X1346058Y0028119D01*
X1346058Y0028119D02*
X1346058Y0026713D01*
X1346058Y0026713D02*
X1345776Y0025588D01*
X1345776Y0025588D02*
X1345495Y0025026D01*
X1345495Y0025026D02*
X1345214Y0024745D01*
X1345214Y0024745D02*
X1344652Y0024464D01*
X1344652Y0024464D02*
X1344089Y0024464D01*
X1344089Y0024464D02*
X1343527Y0024745D01*
X1343527Y0024745D02*
X1343245Y0025026D01*
X1343245Y0025026D02*
X1342964Y0025588D01*
X1342964Y0025588D02*
X1342683Y0026713D01*
X1342683Y0026713D02*
X1342683Y0028119D01*
X1342683Y0028119D02*
X1342964Y0029244D01*
X1342964Y0029244D02*
X1343245Y0029807D01*
X1343245Y0029807D02*
X1343527Y0030088D01*
X1343527Y0030088D02*
X1344089Y0030369D01*
X1348589Y0026713D02*
X1353088Y0026713D01*
X1358994Y0024464D02*
X1355619Y0024464D01*
X1357306Y0024464D02*
X1357306Y0030369D01*
X1357306Y0030369D02*
X1356744Y0029525D01*
X1356744Y0029525D02*
X1356181Y0028963D01*
X1356181Y0028963D02*
X1355619Y0028682D01*
X1364055Y0028401D02*
X1364055Y0024464D01*
X1362649Y0030650D02*
X1361243Y0026432D01*
X1361243Y0026432D02*
X1364899Y0026432D01*
D10*
D11*
X1188189Y0021653D02*
X1613386Y0021653D01*
D10*
D11*
X1193920Y0013440D02*
X1193920Y0019345D01*
X1197295Y0013440D02*
X1194764Y0016815D01*
X1197295Y0019345D02*
X1193920Y0015971D01*
X1199826Y0013440D02*
X1199826Y0017377D01*
X1199826Y0019345D02*
X1199545Y0019064D01*
X1199545Y0019064D02*
X1199826Y0018783D01*
X1199826Y0018783D02*
X1200107Y0019064D01*
X1200107Y0019064D02*
X1199826Y0019345D01*
X1199826Y0019345D02*
X1199826Y0018783D01*
X1206013Y0014002D02*
X1205731Y0013721D01*
X1205731Y0013721D02*
X1204888Y0013440D01*
X1204888Y0013440D02*
X1204325Y0013440D01*
X1204325Y0013440D02*
X1203482Y0013721D01*
X1203482Y0013721D02*
X1202919Y0014284D01*
X1202919Y0014284D02*
X1202638Y0014846D01*
X1202638Y0014846D02*
X1202357Y0015971D01*
X1202357Y0015971D02*
X1202357Y0016815D01*
X1202357Y0016815D02*
X1202638Y0017939D01*
X1202638Y0017939D02*
X1202919Y0018502D01*
X1202919Y0018502D02*
X1203482Y0019064D01*
X1203482Y0019064D02*
X1204325Y0019345D01*
X1204325Y0019345D02*
X1204888Y0019345D01*
X1204888Y0019345D02*
X1205731Y0019064D01*
X1205731Y0019064D02*
X1206013Y0018783D01*
X1211075Y0013440D02*
X1211075Y0016533D01*
X1211075Y0016533D02*
X1210793Y0017096D01*
X1210793Y0017096D02*
X1210231Y0017377D01*
X1210231Y0017377D02*
X1209106Y0017377D01*
X1209106Y0017377D02*
X1208544Y0017096D01*
X1211075Y0013721D02*
X1210512Y0013440D01*
X1210512Y0013440D02*
X1209106Y0013440D01*
X1209106Y0013440D02*
X1208544Y0013721D01*
X1208544Y0013721D02*
X1208262Y0014284D01*
X1208262Y0014284D02*
X1208262Y0014846D01*
X1208262Y0014846D02*
X1208544Y0015408D01*
X1208544Y0015408D02*
X1209106Y0015690D01*
X1209106Y0015690D02*
X1210512Y0015690D01*
X1210512Y0015690D02*
X1211075Y0015971D01*
X1216418Y0013440D02*
X1216418Y0019345D01*
X1216418Y0013721D02*
X1215855Y0013440D01*
X1215855Y0013440D02*
X1214730Y0013440D01*
X1214730Y0013440D02*
X1214168Y0013721D01*
X1214168Y0013721D02*
X1213887Y0014002D01*
X1213887Y0014002D02*
X1213605Y0014565D01*
X1213605Y0014565D02*
X1213605Y0016252D01*
X1213605Y0016252D02*
X1213887Y0016815D01*
X1213887Y0016815D02*
X1214168Y0017096D01*
X1214168Y0017096D02*
X1214730Y0017377D01*
X1214730Y0017377D02*
X1215855Y0017377D01*
X1215855Y0017377D02*
X1216418Y0017096D01*
X1223729Y0016533D02*
X1225698Y0016533D01*
X1226541Y0013440D02*
X1223729Y0013440D01*
X1223729Y0013440D02*
X1223729Y0019345D01*
X1223729Y0019345D02*
X1226541Y0019345D01*
X1229072Y0014002D02*
X1229353Y0013721D01*
X1229353Y0013721D02*
X1229072Y0013440D01*
X1229072Y0013440D02*
X1228791Y0013721D01*
X1228791Y0013721D02*
X1229072Y0014002D01*
X1229072Y0014002D02*
X1229072Y0013440D01*
X1231884Y0013440D02*
X1231884Y0019345D01*
X1231884Y0019345D02*
X1233290Y0019345D01*
X1233290Y0019345D02*
X1234134Y0019064D01*
X1234134Y0019064D02*
X1234697Y0018502D01*
X1234697Y0018502D02*
X1234978Y0017939D01*
X1234978Y0017939D02*
X1235259Y0016815D01*
X1235259Y0016815D02*
X1235259Y0015971D01*
X1235259Y0015971D02*
X1234978Y0014846D01*
X1234978Y0014846D02*
X1234697Y0014284D01*
X1234697Y0014284D02*
X1234134Y0013721D01*
X1234134Y0013721D02*
X1233290Y0013440D01*
X1233290Y0013440D02*
X1231884Y0013440D01*
X1237790Y0014002D02*
X1238071Y0013721D01*
X1238071Y0013721D02*
X1237790Y0013440D01*
X1237790Y0013440D02*
X1237509Y0013721D01*
X1237509Y0013721D02*
X1237790Y0014002D01*
X1237790Y0014002D02*
X1237790Y0013440D01*
X1240321Y0015127D02*
X1243133Y0015127D01*
X1239758Y0013440D02*
X1241727Y0019345D01*
X1241727Y0019345D02*
X1243695Y0013440D01*
X1245664Y0014002D02*
X1245945Y0013721D01*
X1245945Y0013721D02*
X1245664Y0013440D01*
X1245664Y0013440D02*
X1245383Y0013721D01*
X1245383Y0013721D02*
X1245664Y0014002D01*
X1245664Y0014002D02*
X1245664Y0013440D01*
X1253819Y0016815D02*
X1253257Y0017096D01*
X1253257Y0017096D02*
X1252976Y0017377D01*
X1252976Y0017377D02*
X1252694Y0017939D01*
X1252694Y0017939D02*
X1252694Y0018221D01*
X1252694Y0018221D02*
X1252976Y0018783D01*
X1252976Y0018783D02*
X1253257Y0019064D01*
X1253257Y0019064D02*
X1253819Y0019345D01*
X1253819Y0019345D02*
X1254944Y0019345D01*
X1254944Y0019345D02*
X1255506Y0019064D01*
X1255506Y0019064D02*
X1255788Y0018783D01*
X1255788Y0018783D02*
X1256069Y0018221D01*
X1256069Y0018221D02*
X1256069Y0017939D01*
X1256069Y0017939D02*
X1255788Y0017377D01*
X1255788Y0017377D02*
X1255506Y0017096D01*
X1255506Y0017096D02*
X1254944Y0016815D01*
X1254944Y0016815D02*
X1253819Y0016815D01*
X1253819Y0016815D02*
X1253257Y0016533D01*
X1253257Y0016533D02*
X1252976Y0016252D01*
X1252976Y0016252D02*
X1252694Y0015690D01*
X1252694Y0015690D02*
X1252694Y0014565D01*
X1252694Y0014565D02*
X1252976Y0014002D01*
X1252976Y0014002D02*
X1253257Y0013721D01*
X1253257Y0013721D02*
X1253819Y0013440D01*
X1253819Y0013440D02*
X1254944Y0013440D01*
X1254944Y0013440D02*
X1255506Y0013721D01*
X1255506Y0013721D02*
X1255788Y0014002D01*
X1255788Y0014002D02*
X1256069Y0014565D01*
X1256069Y0014565D02*
X1256069Y0015690D01*
X1256069Y0015690D02*
X1255788Y0016252D01*
X1255788Y0016252D02*
X1255506Y0016533D01*
X1255506Y0016533D02*
X1254944Y0016815D01*
X1258600Y0014002D02*
X1258881Y0013721D01*
X1258881Y0013721D02*
X1258600Y0013440D01*
X1258600Y0013440D02*
X1258319Y0013721D01*
X1258319Y0013721D02*
X1258600Y0014002D01*
X1258600Y0014002D02*
X1258600Y0013440D01*
X1262537Y0019345D02*
X1263099Y0019345D01*
X1263099Y0019345D02*
X1263662Y0019064D01*
X1263662Y0019064D02*
X1263943Y0018783D01*
X1263943Y0018783D02*
X1264224Y0018221D01*
X1264224Y0018221D02*
X1264505Y0017096D01*
X1264505Y0017096D02*
X1264505Y0015690D01*
X1264505Y0015690D02*
X1264224Y0014565D01*
X1264224Y0014565D02*
X1263943Y0014002D01*
X1263943Y0014002D02*
X1263662Y0013721D01*
X1263662Y0013721D02*
X1263099Y0013440D01*
X1263099Y0013440D02*
X1262537Y0013440D01*
X1262537Y0013440D02*
X1261974Y0013721D01*
X1261974Y0013721D02*
X1261693Y0014002D01*
X1261693Y0014002D02*
X1261412Y0014565D01*
X1261412Y0014565D02*
X1261131Y0015690D01*
X1261131Y0015690D02*
X1261131Y0017096D01*
X1261131Y0017096D02*
X1261412Y0018221D01*
X1261412Y0018221D02*
X1261693Y0018783D01*
X1261693Y0018783D02*
X1261974Y0019064D01*
X1261974Y0019064D02*
X1262537Y0019345D01*
X1267036Y0014002D02*
X1267317Y0013721D01*
X1267317Y0013721D02*
X1267036Y0013440D01*
X1267036Y0013440D02*
X1266755Y0013721D01*
X1266755Y0013721D02*
X1267036Y0014002D01*
X1267036Y0014002D02*
X1267036Y0013440D01*
X1270692Y0016815D02*
X1270130Y0017096D01*
X1270130Y0017096D02*
X1269848Y0017377D01*
X1269848Y0017377D02*
X1269567Y0017939D01*
X1269567Y0017939D02*
X1269567Y0018221D01*
X1269567Y0018221D02*
X1269848Y0018783D01*
X1269848Y0018783D02*
X1270130Y0019064D01*
X1270130Y0019064D02*
X1270692Y0019345D01*
X1270692Y0019345D02*
X1271817Y0019345D01*
X1271817Y0019345D02*
X1272379Y0019064D01*
X1272379Y0019064D02*
X1272661Y0018783D01*
X1272661Y0018783D02*
X1272942Y0018221D01*
X1272942Y0018221D02*
X1272942Y0017939D01*
X1272942Y0017939D02*
X1272661Y0017377D01*
X1272661Y0017377D02*
X1272379Y0017096D01*
X1272379Y0017096D02*
X1271817Y0016815D01*
X1271817Y0016815D02*
X1270692Y0016815D01*
X1270692Y0016815D02*
X1270130Y0016533D01*
X1270130Y0016533D02*
X1269848Y0016252D01*
X1269848Y0016252D02*
X1269567Y0015690D01*
X1269567Y0015690D02*
X1269567Y0014565D01*
X1269567Y0014565D02*
X1269848Y0014002D01*
X1269848Y0014002D02*
X1270130Y0013721D01*
X1270130Y0013721D02*
X1270692Y0013440D01*
X1270692Y0013440D02*
X1271817Y0013440D01*
X1271817Y0013440D02*
X1272379Y0013721D01*
X1272379Y0013721D02*
X1272661Y0014002D01*
X1272661Y0014002D02*
X1272942Y0014565D01*
X1272942Y0014565D02*
X1272942Y0015690D01*
X1272942Y0015690D02*
X1272661Y0016252D01*
X1272661Y0016252D02*
X1272379Y0016533D01*
X1272379Y0016533D02*
X1271817Y0016815D01*
D10*
D11*
X1188189Y0033464D02*
X1613386Y0033464D01*
D10*
D12*
X1532329Y0024494D02*
X1530361Y0027306D01*
X1528955Y0024494D02*
X1528955Y0030400D01*
X1528955Y0030400D02*
X1531204Y0030400D01*
X1531204Y0030400D02*
X1531767Y0030119D01*
X1531767Y0030119D02*
X1532048Y0029837D01*
X1532048Y0029837D02*
X1532329Y0029275D01*
X1532329Y0029275D02*
X1532329Y0028431D01*
X1532329Y0028431D02*
X1532048Y0027869D01*
X1532048Y0027869D02*
X1531767Y0027588D01*
X1531767Y0027588D02*
X1531204Y0027306D01*
X1531204Y0027306D02*
X1528955Y0027306D01*
X1537110Y0024776D02*
X1536547Y0024494D01*
X1536547Y0024494D02*
X1535423Y0024494D01*
X1535423Y0024494D02*
X1534860Y0024776D01*
X1534860Y0024776D02*
X1534579Y0025338D01*
X1534579Y0025338D02*
X1534579Y0027588D01*
X1534579Y0027588D02*
X1534860Y0028150D01*
X1534860Y0028150D02*
X1535423Y0028431D01*
X1535423Y0028431D02*
X1536547Y0028431D01*
X1536547Y0028431D02*
X1537110Y0028150D01*
X1537110Y0028150D02*
X1537391Y0027588D01*
X1537391Y0027588D02*
X1537391Y0027025D01*
X1537391Y0027025D02*
X1534579Y0026463D01*
X1539360Y0028431D02*
X1540766Y0024494D01*
X1540766Y0024494D02*
X1542172Y0028431D01*
X1544421Y0025057D02*
X1544703Y0024776D01*
X1544703Y0024776D02*
X1544421Y0024494D01*
X1544421Y0024494D02*
X1544140Y0024776D01*
X1544140Y0024776D02*
X1544421Y0025057D01*
X1544421Y0025057D02*
X1544421Y0024494D01*
X1544421Y0028150D02*
X1544703Y0027869D01*
X1544703Y0027869D02*
X1544421Y0027588D01*
X1544421Y0027588D02*
X1544140Y0027869D01*
X1544140Y0027869D02*
X1544421Y0028150D01*
X1544421Y0028150D02*
X1544421Y0027588D01*
X1554264Y0024494D02*
X1554264Y0030400D01*
X1554264Y0024776D02*
X1553701Y0024494D01*
X1553701Y0024494D02*
X1552577Y0024494D01*
X1552577Y0024494D02*
X1552014Y0024776D01*
X1552014Y0024776D02*
X1551733Y0025057D01*
X1551733Y0025057D02*
X1551452Y0025619D01*
X1551452Y0025619D02*
X1551452Y0027306D01*
X1551452Y0027306D02*
X1551733Y0027869D01*
X1551733Y0027869D02*
X1552014Y0028150D01*
X1552014Y0028150D02*
X1552577Y0028431D01*
X1552577Y0028431D02*
X1553701Y0028431D01*
X1553701Y0028431D02*
X1554264Y0028150D01*
D10*
D11*
X1193639Y0024745D02*
X1194483Y0024464D01*
X1194483Y0024464D02*
X1195889Y0024464D01*
X1195889Y0024464D02*
X1196451Y0024745D01*
X1196451Y0024745D02*
X1196733Y0025026D01*
X1196733Y0025026D02*
X1197014Y0025588D01*
X1197014Y0025588D02*
X1197014Y0026151D01*
X1197014Y0026151D02*
X1196733Y0026713D01*
X1196733Y0026713D02*
X1196451Y0026995D01*
X1196451Y0026995D02*
X1195889Y0027276D01*
X1195889Y0027276D02*
X1194764Y0027557D01*
X1194764Y0027557D02*
X1194202Y0027838D01*
X1194202Y0027838D02*
X1193920Y0028119D01*
X1193920Y0028119D02*
X1193639Y0028682D01*
X1193639Y0028682D02*
X1193639Y0029244D01*
X1193639Y0029244D02*
X1193920Y0029807D01*
X1193920Y0029807D02*
X1194202Y0030088D01*
X1194202Y0030088D02*
X1194764Y0030369D01*
X1194764Y0030369D02*
X1196170Y0030369D01*
X1196170Y0030369D02*
X1197014Y0030088D01*
X1199545Y0024464D02*
X1199545Y0028401D01*
X1199545Y0030369D02*
X1199263Y0030088D01*
X1199263Y0030088D02*
X1199545Y0029807D01*
X1199545Y0029807D02*
X1199826Y0030088D01*
X1199826Y0030088D02*
X1199545Y0030369D01*
X1199545Y0030369D02*
X1199545Y0029807D01*
X1201794Y0028401D02*
X1204888Y0028401D01*
X1204888Y0028401D02*
X1201794Y0024464D01*
X1201794Y0024464D02*
X1204888Y0024464D01*
X1209387Y0024745D02*
X1208825Y0024464D01*
X1208825Y0024464D02*
X1207700Y0024464D01*
X1207700Y0024464D02*
X1207137Y0024745D01*
X1207137Y0024745D02*
X1206856Y0025307D01*
X1206856Y0025307D02*
X1206856Y0027557D01*
X1206856Y0027557D02*
X1207137Y0028119D01*
X1207137Y0028119D02*
X1207700Y0028401D01*
X1207700Y0028401D02*
X1208825Y0028401D01*
X1208825Y0028401D02*
X1209387Y0028119D01*
X1209387Y0028119D02*
X1209668Y0027557D01*
X1209668Y0027557D02*
X1209668Y0026995D01*
X1209668Y0026995D02*
X1206856Y0026432D01*
X1212199Y0025026D02*
X1212481Y0024745D01*
X1212481Y0024745D02*
X1212199Y0024464D01*
X1212199Y0024464D02*
X1211918Y0024745D01*
X1211918Y0024745D02*
X1212199Y0025026D01*
X1212199Y0025026D02*
X1212199Y0024464D01*
X1212199Y0028119D02*
X1212481Y0027838D01*
X1212481Y0027838D02*
X1212199Y0027557D01*
X1212199Y0027557D02*
X1211918Y0027838D01*
X1211918Y0027838D02*
X1212199Y0028119D01*
X1212199Y0028119D02*
X1212199Y0027557D01*
X1219511Y0030369D02*
X1219511Y0025588D01*
X1219511Y0025588D02*
X1219792Y0025026D01*
X1219792Y0025026D02*
X1220073Y0024745D01*
X1220073Y0024745D02*
X1220636Y0024464D01*
X1220636Y0024464D02*
X1221761Y0024464D01*
X1221761Y0024464D02*
X1222323Y0024745D01*
X1222323Y0024745D02*
X1222604Y0025026D01*
X1222604Y0025026D02*
X1222886Y0025588D01*
X1222886Y0025588D02*
X1222886Y0030369D01*
X1225416Y0024745D02*
X1225979Y0024464D01*
X1225979Y0024464D02*
X1227104Y0024464D01*
X1227104Y0024464D02*
X1227666Y0024745D01*
X1227666Y0024745D02*
X1227947Y0025307D01*
X1227947Y0025307D02*
X1227947Y0025588D01*
X1227947Y0025588D02*
X1227666Y0026151D01*
X1227666Y0026151D02*
X1227104Y0026432D01*
X1227104Y0026432D02*
X1226260Y0026432D01*
X1226260Y0026432D02*
X1225698Y0026713D01*
X1225698Y0026713D02*
X1225416Y0027276D01*
X1225416Y0027276D02*
X1225416Y0027557D01*
X1225416Y0027557D02*
X1225698Y0028119D01*
X1225698Y0028119D02*
X1226260Y0028401D01*
X1226260Y0028401D02*
X1227104Y0028401D01*
X1227104Y0028401D02*
X1227666Y0028119D01*
X1232728Y0024745D02*
X1232166Y0024464D01*
X1232166Y0024464D02*
X1231041Y0024464D01*
X1231041Y0024464D02*
X1230478Y0024745D01*
X1230478Y0024745D02*
X1230197Y0025307D01*
X1230197Y0025307D02*
X1230197Y0027557D01*
X1230197Y0027557D02*
X1230478Y0028119D01*
X1230478Y0028119D02*
X1231041Y0028401D01*
X1231041Y0028401D02*
X1232166Y0028401D01*
X1232166Y0028401D02*
X1232728Y0028119D01*
X1232728Y0028119D02*
X1233009Y0027557D01*
X1233009Y0027557D02*
X1233009Y0026995D01*
X1233009Y0026995D02*
X1230197Y0026432D01*
X1235540Y0024464D02*
X1235540Y0028401D01*
X1235540Y0027276D02*
X1235821Y0027838D01*
X1235821Y0027838D02*
X1236103Y0028119D01*
X1236103Y0028119D02*
X1236665Y0028401D01*
X1236665Y0028401D02*
X1237227Y0028401D01*
D10*
D11*
X1528566Y0013440D02*
X1528566Y0019345D01*
X1533909Y0013440D02*
X1533909Y0019345D01*
X1533909Y0013721D02*
X1533347Y0013440D01*
X1533347Y0013440D02*
X1532222Y0013440D01*
X1532222Y0013440D02*
X1531659Y0013721D01*
X1531659Y0013721D02*
X1531378Y0014002D01*
X1531378Y0014002D02*
X1531097Y0014565D01*
X1531097Y0014565D02*
X1531097Y0016252D01*
X1531097Y0016252D02*
X1531378Y0016815D01*
X1531378Y0016815D02*
X1531659Y0017096D01*
X1531659Y0017096D02*
X1532222Y0017377D01*
X1532222Y0017377D02*
X1533347Y0017377D01*
X1533347Y0017377D02*
X1533909Y0017096D01*
X1536721Y0014002D02*
X1537003Y0013721D01*
X1537003Y0013721D02*
X1536721Y0013440D01*
X1536721Y0013440D02*
X1536440Y0013721D01*
X1536440Y0013721D02*
X1536721Y0014002D01*
X1536721Y0014002D02*
X1536721Y0013440D01*
X1536721Y0017096D02*
X1537003Y0016815D01*
X1537003Y0016815D02*
X1536721Y0016533D01*
X1536721Y0016533D02*
X1536440Y0016815D01*
X1536440Y0016815D02*
X1536721Y0017096D01*
X1536721Y0017096D02*
X1536721Y0016533D01*
X1547126Y0013440D02*
X1543752Y0013440D01*
X1545439Y0013440D02*
X1545439Y0019345D01*
X1545439Y0019345D02*
X1544877Y0018502D01*
X1544877Y0018502D02*
X1544314Y0017939D01*
X1544314Y0017939D02*
X1543752Y0017658D01*
X1553875Y0019627D02*
X1548814Y0012034D01*
X1558937Y0013440D02*
X1555563Y0013440D01*
X1557250Y0013440D02*
X1557250Y0019345D01*
X1557250Y0019345D02*
X1556688Y0018502D01*
X1556688Y0018502D02*
X1556125Y0017939D01*
X1556125Y0017939D02*
X1555563Y0017658D01*
D10*
D11*
X1188189Y0049212D02*
X1613386Y0049212D01*
D10*
D13*
X1194849Y0046439D02*
X1199349Y0046439D01*
X1196115Y0038565D02*
X1197099Y0046439D01*
X1200989Y0038565D02*
X1201645Y0043814D01*
X1201973Y0046439D02*
X1201551Y0046064D01*
X1201551Y0046064D02*
X1201880Y0045689D01*
X1201880Y0045689D02*
X1202301Y0046064D01*
X1202301Y0046064D02*
X1201973Y0046439D01*
X1201973Y0046439D02*
X1201880Y0045689D01*
X1204270Y0043814D02*
X1207269Y0043814D01*
X1205723Y0046439D02*
X1204879Y0039690D01*
X1204879Y0039690D02*
X1205160Y0038940D01*
X1205160Y0038940D02*
X1205863Y0038565D01*
X1205863Y0038565D02*
X1206613Y0038565D01*
X1210363Y0038565D02*
X1209660Y0038940D01*
X1209660Y0038940D02*
X1209379Y0039690D01*
X1209379Y0039690D02*
X1210222Y0046439D01*
X1216409Y0038940D02*
X1215612Y0038565D01*
X1215612Y0038565D02*
X1214112Y0038565D01*
X1214112Y0038565D02*
X1213409Y0038940D01*
X1213409Y0038940D02*
X1213128Y0039690D01*
X1213128Y0039690D02*
X1213503Y0042689D01*
X1213503Y0042689D02*
X1213972Y0043439D01*
X1213972Y0043439D02*
X1214769Y0043814D01*
X1214769Y0043814D02*
X1216268Y0043814D01*
X1216268Y0043814D02*
X1216971Y0043439D01*
X1216971Y0043439D02*
X1217253Y0042689D01*
X1217253Y0042689D02*
X1217159Y0041939D01*
X1217159Y0041939D02*
X1213316Y0041189D01*
X1220205Y0039315D02*
X1220533Y0038940D01*
X1220533Y0038940D02*
X1220112Y0038565D01*
X1220112Y0038565D02*
X1219784Y0038940D01*
X1219784Y0038940D02*
X1220205Y0039315D01*
X1220205Y0039315D02*
X1220112Y0038565D01*
X1220721Y0043439D02*
X1221049Y0043064D01*
X1221049Y0043064D02*
X1220627Y0042689D01*
X1220627Y0042689D02*
X1220299Y0043064D01*
X1220299Y0043064D02*
X1220721Y0043439D01*
X1220721Y0043439D02*
X1220627Y0042689D01*
X1229860Y0038565D02*
X1230845Y0046439D01*
X1230376Y0042689D02*
X1234875Y0042689D01*
X1234360Y0038565D02*
X1235344Y0046439D01*
X1241156Y0038940D02*
X1240359Y0038565D01*
X1240359Y0038565D02*
X1238859Y0038565D01*
X1238859Y0038565D02*
X1238156Y0038940D01*
X1238156Y0038940D02*
X1237875Y0039690D01*
X1237875Y0039690D02*
X1238250Y0042689D01*
X1238250Y0042689D02*
X1238719Y0043439D01*
X1238719Y0043439D02*
X1239515Y0043814D01*
X1239515Y0043814D02*
X1241015Y0043814D01*
X1241015Y0043814D02*
X1241718Y0043439D01*
X1241718Y0043439D02*
X1241999Y0042689D01*
X1241999Y0042689D02*
X1241906Y0041939D01*
X1241906Y0041939D02*
X1238062Y0041189D01*
X1245983Y0038565D02*
X1245280Y0038940D01*
X1245280Y0038940D02*
X1244999Y0039690D01*
X1244999Y0039690D02*
X1245843Y0046439D01*
X1250108Y0038565D02*
X1249405Y0038940D01*
X1249405Y0038940D02*
X1249124Y0039690D01*
X1249124Y0039690D02*
X1249967Y0046439D01*
X1256154Y0038940D02*
X1255357Y0038565D01*
X1255357Y0038565D02*
X1253857Y0038565D01*
X1253857Y0038565D02*
X1253154Y0038940D01*
X1253154Y0038940D02*
X1252873Y0039690D01*
X1252873Y0039690D02*
X1253248Y0042689D01*
X1253248Y0042689D02*
X1253717Y0043439D01*
X1253717Y0043439D02*
X1254514Y0043814D01*
X1254514Y0043814D02*
X1256013Y0043814D01*
X1256013Y0043814D02*
X1256716Y0043439D01*
X1256716Y0043439D02*
X1256998Y0042689D01*
X1256998Y0042689D02*
X1256904Y0041939D01*
X1256904Y0041939D02*
X1253061Y0041189D01*
X1260513Y0043814D02*
X1259857Y0038565D01*
X1260419Y0043064D02*
X1260841Y0043439D01*
X1260841Y0043439D02*
X1261638Y0043814D01*
X1261638Y0043814D02*
X1262763Y0043814D01*
X1262763Y0043814D02*
X1263466Y0043439D01*
X1263466Y0043439D02*
X1263747Y0042689D01*
X1263747Y0042689D02*
X1263231Y0038565D01*
X1271105Y0038565D02*
X1266606Y0038565D01*
X1268856Y0038565D02*
X1269840Y0046439D01*
X1269840Y0046439D02*
X1268949Y0045314D01*
X1268949Y0045314D02*
X1268106Y0044564D01*
X1268106Y0044564D02*
X1267309Y0044189D01*
X1274995Y0045689D02*
X1275417Y0046064D01*
X1275417Y0046064D02*
X1276214Y0046439D01*
X1276214Y0046439D02*
X1278089Y0046439D01*
X1278089Y0046439D02*
X1278792Y0046064D01*
X1278792Y0046064D02*
X1279120Y0045689D01*
X1279120Y0045689D02*
X1279401Y0044939D01*
X1279401Y0044939D02*
X1279307Y0044189D01*
X1279307Y0044189D02*
X1278792Y0043064D01*
X1278792Y0043064D02*
X1273730Y0038565D01*
X1273730Y0038565D02*
X1278604Y0038565D01*
X1286103Y0038565D02*
X1281604Y0038565D01*
X1283854Y0038565D02*
X1284838Y0046439D01*
X1284838Y0046439D02*
X1283947Y0045314D01*
X1283947Y0045314D02*
X1283104Y0044564D01*
X1283104Y0044564D02*
X1282307Y0044189D01*
X1289384Y0043814D02*
X1290603Y0038565D01*
X1290603Y0038565D02*
X1293134Y0043814D01*
X1298852Y0038565D02*
X1299367Y0042689D01*
X1299367Y0042689D02*
X1299086Y0043439D01*
X1299086Y0043439D02*
X1298383Y0043814D01*
X1298383Y0043814D02*
X1296883Y0043814D01*
X1296883Y0043814D02*
X1296086Y0043439D01*
X1298899Y0038940D02*
X1298102Y0038565D01*
X1298102Y0038565D02*
X1296227Y0038565D01*
X1296227Y0038565D02*
X1295524Y0038940D01*
X1295524Y0038940D02*
X1295243Y0039690D01*
X1295243Y0039690D02*
X1295337Y0040440D01*
X1295337Y0040440D02*
X1295805Y0041189D01*
X1295805Y0041189D02*
X1296602Y0041564D01*
X1296602Y0041564D02*
X1298477Y0041564D01*
X1298477Y0041564D02*
X1299274Y0041939D01*
X1306632Y0043814D02*
X1305835Y0037440D01*
X1305835Y0037440D02*
X1305367Y0036690D01*
X1305367Y0036690D02*
X1304945Y0036315D01*
X1304945Y0036315D02*
X1304148Y0035940D01*
X1304148Y0035940D02*
X1303023Y0035940D01*
X1303023Y0035940D02*
X1302320Y0036315D01*
X1306023Y0038940D02*
X1305226Y0038565D01*
X1305226Y0038565D02*
X1303726Y0038565D01*
X1303726Y0038565D02*
X1303023Y0038940D01*
X1303023Y0038940D02*
X1302695Y0039315D01*
X1302695Y0039315D02*
X1302414Y0040065D01*
X1302414Y0040065D02*
X1302695Y0042314D01*
X1302695Y0042314D02*
X1303164Y0043064D01*
X1303164Y0043064D02*
X1303586Y0043439D01*
X1303586Y0043439D02*
X1304382Y0043814D01*
X1304382Y0043814D02*
X1305882Y0043814D01*
X1305882Y0043814D02*
X1306585Y0043439D01*
D10*
D11*
X1195889Y0056691D02*
X1193920Y0056691D01*
X1193920Y0053597D02*
X1193920Y0059503D01*
X1193920Y0059503D02*
X1196733Y0059503D01*
X1198982Y0053597D02*
X1198982Y0057534D01*
X1198982Y0059503D02*
X1198701Y0059222D01*
X1198701Y0059222D02*
X1198982Y0058941D01*
X1198982Y0058941D02*
X1199263Y0059222D01*
X1199263Y0059222D02*
X1198982Y0059503D01*
X1198982Y0059503D02*
X1198982Y0058941D01*
X1202638Y0053597D02*
X1202076Y0053879D01*
X1202076Y0053879D02*
X1201794Y0054441D01*
X1201794Y0054441D02*
X1201794Y0059503D01*
X1207137Y0053879D02*
X1206575Y0053597D01*
X1206575Y0053597D02*
X1205450Y0053597D01*
X1205450Y0053597D02*
X1204888Y0053879D01*
X1204888Y0053879D02*
X1204607Y0054441D01*
X1204607Y0054441D02*
X1204607Y0056691D01*
X1204607Y0056691D02*
X1204888Y0057253D01*
X1204888Y0057253D02*
X1205450Y0057534D01*
X1205450Y0057534D02*
X1206575Y0057534D01*
X1206575Y0057534D02*
X1207137Y0057253D01*
X1207137Y0057253D02*
X1207419Y0056691D01*
X1207419Y0056691D02*
X1207419Y0056128D01*
X1207419Y0056128D02*
X1204607Y0055566D01*
X1209950Y0054160D02*
X1210231Y0053879D01*
X1210231Y0053879D02*
X1209950Y0053597D01*
X1209950Y0053597D02*
X1209668Y0053879D01*
X1209668Y0053879D02*
X1209950Y0054160D01*
X1209950Y0054160D02*
X1209950Y0053597D01*
X1209950Y0057253D02*
X1210231Y0056972D01*
X1210231Y0056972D02*
X1209950Y0056691D01*
X1209950Y0056691D02*
X1209668Y0056972D01*
X1209668Y0056972D02*
X1209950Y0057253D01*
X1209950Y0057253D02*
X1209950Y0056691D01*
X1217261Y0053597D02*
X1217261Y0059503D01*
X1219792Y0053597D02*
X1219792Y0056691D01*
X1219792Y0056691D02*
X1219511Y0057253D01*
X1219511Y0057253D02*
X1218949Y0057534D01*
X1218949Y0057534D02*
X1218105Y0057534D01*
X1218105Y0057534D02*
X1217542Y0057253D01*
X1217542Y0057253D02*
X1217261Y0056972D01*
X1224854Y0053879D02*
X1224292Y0053597D01*
X1224292Y0053597D02*
X1223167Y0053597D01*
X1223167Y0053597D02*
X1222604Y0053879D01*
X1222604Y0053879D02*
X1222323Y0054441D01*
X1222323Y0054441D02*
X1222323Y0056691D01*
X1222323Y0056691D02*
X1222604Y0057253D01*
X1222604Y0057253D02*
X1223167Y0057534D01*
X1223167Y0057534D02*
X1224292Y0057534D01*
X1224292Y0057534D02*
X1224854Y0057253D01*
X1224854Y0057253D02*
X1225135Y0056691D01*
X1225135Y0056691D02*
X1225135Y0056128D01*
X1225135Y0056128D02*
X1222323Y0055566D01*
X1228510Y0053597D02*
X1227947Y0053879D01*
X1227947Y0053879D02*
X1227666Y0054441D01*
X1227666Y0054441D02*
X1227666Y0059503D01*
X1231603Y0053597D02*
X1231041Y0053879D01*
X1231041Y0053879D02*
X1230760Y0054441D01*
X1230760Y0054441D02*
X1230760Y0059503D01*
X1236103Y0053879D02*
X1235540Y0053597D01*
X1235540Y0053597D02*
X1234415Y0053597D01*
X1234415Y0053597D02*
X1233853Y0053879D01*
X1233853Y0053879D02*
X1233572Y0054441D01*
X1233572Y0054441D02*
X1233572Y0056691D01*
X1233572Y0056691D02*
X1233853Y0057253D01*
X1233853Y0057253D02*
X1234415Y0057534D01*
X1234415Y0057534D02*
X1235540Y0057534D01*
X1235540Y0057534D02*
X1236103Y0057253D01*
X1236103Y0057253D02*
X1236384Y0056691D01*
X1236384Y0056691D02*
X1236384Y0056128D01*
X1236384Y0056128D02*
X1233572Y0055566D01*
X1238915Y0057534D02*
X1238915Y0053597D01*
X1238915Y0056972D02*
X1239196Y0057253D01*
X1239196Y0057253D02*
X1239758Y0057534D01*
X1239758Y0057534D02*
X1240602Y0057534D01*
X1240602Y0057534D02*
X1241164Y0057253D01*
X1241164Y0057253D02*
X1241446Y0056691D01*
X1241446Y0056691D02*
X1241446Y0053597D01*
X1247351Y0053597D02*
X1243977Y0053597D01*
X1245664Y0053597D02*
X1245664Y0059503D01*
X1245664Y0059503D02*
X1245101Y0058659D01*
X1245101Y0058659D02*
X1244539Y0058097D01*
X1244539Y0058097D02*
X1243977Y0057816D01*
X1249601Y0058941D02*
X1249882Y0059222D01*
X1249882Y0059222D02*
X1250445Y0059503D01*
X1250445Y0059503D02*
X1251851Y0059503D01*
X1251851Y0059503D02*
X1252413Y0059222D01*
X1252413Y0059222D02*
X1252694Y0058941D01*
X1252694Y0058941D02*
X1252976Y0058378D01*
X1252976Y0058378D02*
X1252976Y0057816D01*
X1252976Y0057816D02*
X1252694Y0056972D01*
X1252694Y0056972D02*
X1249320Y0053597D01*
X1249320Y0053597D02*
X1252976Y0053597D01*
X1258600Y0053597D02*
X1255225Y0053597D01*
X1256913Y0053597D02*
X1256913Y0059503D01*
X1256913Y0059503D02*
X1256350Y0058659D01*
X1256350Y0058659D02*
X1255788Y0058097D01*
X1255788Y0058097D02*
X1255225Y0057816D01*
X1260568Y0057534D02*
X1261974Y0053597D01*
X1261974Y0053597D02*
X1263380Y0057534D01*
X1268161Y0053597D02*
X1268161Y0056691D01*
X1268161Y0056691D02*
X1267880Y0057253D01*
X1267880Y0057253D02*
X1267317Y0057534D01*
X1267317Y0057534D02*
X1266193Y0057534D01*
X1266193Y0057534D02*
X1265630Y0057253D01*
X1268161Y0053879D02*
X1267599Y0053597D01*
X1267599Y0053597D02*
X1266193Y0053597D01*
X1266193Y0053597D02*
X1265630Y0053879D01*
X1265630Y0053879D02*
X1265349Y0054441D01*
X1265349Y0054441D02*
X1265349Y0055004D01*
X1265349Y0055004D02*
X1265630Y0055566D01*
X1265630Y0055566D02*
X1266193Y0055847D01*
X1266193Y0055847D02*
X1267599Y0055847D01*
X1267599Y0055847D02*
X1268161Y0056128D01*
X1273504Y0057534D02*
X1273504Y0052754D01*
X1273504Y0052754D02*
X1273223Y0052191D01*
X1273223Y0052191D02*
X1272942Y0051910D01*
X1272942Y0051910D02*
X1272379Y0051629D01*
X1272379Y0051629D02*
X1271536Y0051629D01*
X1271536Y0051629D02*
X1270973Y0051910D01*
X1273504Y0053879D02*
X1272942Y0053597D01*
X1272942Y0053597D02*
X1271817Y0053597D01*
X1271817Y0053597D02*
X1271254Y0053879D01*
X1271254Y0053879D02*
X1270973Y0054160D01*
X1270973Y0054160D02*
X1270692Y0054722D01*
X1270692Y0054722D02*
X1270692Y0056410D01*
X1270692Y0056410D02*
X1270973Y0056972D01*
X1270973Y0056972D02*
X1271254Y0057253D01*
X1271254Y0057253D02*
X1271817Y0057534D01*
X1271817Y0057534D02*
X1272942Y0057534D01*
X1272942Y0057534D02*
X1273504Y0057253D01*
X1276316Y0054160D02*
X1276598Y0053879D01*
X1276598Y0053879D02*
X1276316Y0053597D01*
X1276316Y0053597D02*
X1276035Y0053879D01*
X1276035Y0053879D02*
X1276316Y0054160D01*
X1276316Y0054160D02*
X1276316Y0053597D01*
X1279128Y0053597D02*
X1279128Y0059503D01*
X1279691Y0055847D02*
X1281378Y0053597D01*
X1281378Y0057534D02*
X1279128Y0055285D01*
X1283909Y0053597D02*
X1283909Y0057534D01*
X1283909Y0059503D02*
X1283628Y0059222D01*
X1283628Y0059222D02*
X1283909Y0058941D01*
X1283909Y0058941D02*
X1284190Y0059222D01*
X1284190Y0059222D02*
X1283909Y0059503D01*
X1283909Y0059503D02*
X1283909Y0058941D01*
X1289252Y0053879D02*
X1288690Y0053597D01*
X1288690Y0053597D02*
X1287565Y0053597D01*
X1287565Y0053597D02*
X1287003Y0053879D01*
X1287003Y0053879D02*
X1286721Y0054160D01*
X1286721Y0054160D02*
X1286440Y0054722D01*
X1286440Y0054722D02*
X1286440Y0056410D01*
X1286440Y0056410D02*
X1286721Y0056972D01*
X1286721Y0056972D02*
X1287003Y0057253D01*
X1287003Y0057253D02*
X1287565Y0057534D01*
X1287565Y0057534D02*
X1288690Y0057534D01*
X1288690Y0057534D02*
X1289252Y0057253D01*
X1294314Y0053597D02*
X1294314Y0056691D01*
X1294314Y0056691D02*
X1294033Y0057253D01*
X1294033Y0057253D02*
X1293470Y0057534D01*
X1293470Y0057534D02*
X1292346Y0057534D01*
X1292346Y0057534D02*
X1291783Y0057253D01*
X1294314Y0053879D02*
X1293752Y0053597D01*
X1293752Y0053597D02*
X1292346Y0053597D01*
X1292346Y0053597D02*
X1291783Y0053879D01*
X1291783Y0053879D02*
X1291502Y0054441D01*
X1291502Y0054441D02*
X1291502Y0055004D01*
X1291502Y0055004D02*
X1291783Y0055566D01*
X1291783Y0055566D02*
X1292346Y0055847D01*
X1292346Y0055847D02*
X1293752Y0055847D01*
X1293752Y0055847D02*
X1294314Y0056128D01*
X1299657Y0053597D02*
X1299657Y0059503D01*
X1299657Y0053879D02*
X1299095Y0053597D01*
X1299095Y0053597D02*
X1297970Y0053597D01*
X1297970Y0053597D02*
X1297407Y0053879D01*
X1297407Y0053879D02*
X1297126Y0054160D01*
X1297126Y0054160D02*
X1296845Y0054722D01*
X1296845Y0054722D02*
X1296845Y0056410D01*
X1296845Y0056410D02*
X1297126Y0056972D01*
X1297126Y0056972D02*
X1297407Y0057253D01*
X1297407Y0057253D02*
X1297970Y0057534D01*
X1297970Y0057534D02*
X1299095Y0057534D01*
X1299095Y0057534D02*
X1299657Y0057253D01*
X1301063Y0053035D02*
X1305563Y0053035D01*
X1306969Y0057534D02*
X1306969Y0051629D01*
X1306969Y0057253D02*
X1307531Y0057534D01*
X1307531Y0057534D02*
X1308656Y0057534D01*
X1308656Y0057534D02*
X1309218Y0057253D01*
X1309218Y0057253D02*
X1309500Y0056972D01*
X1309500Y0056972D02*
X1309781Y0056410D01*
X1309781Y0056410D02*
X1309781Y0054722D01*
X1309781Y0054722D02*
X1309500Y0054160D01*
X1309500Y0054160D02*
X1309218Y0053879D01*
X1309218Y0053879D02*
X1308656Y0053597D01*
X1308656Y0053597D02*
X1307531Y0053597D01*
X1307531Y0053597D02*
X1306969Y0053879D01*
X1314843Y0053879D02*
X1314280Y0053597D01*
X1314280Y0053597D02*
X1313155Y0053597D01*
X1313155Y0053597D02*
X1312593Y0053879D01*
X1312593Y0053879D02*
X1312312Y0054160D01*
X1312312Y0054160D02*
X1312031Y0054722D01*
X1312031Y0054722D02*
X1312031Y0056410D01*
X1312031Y0056410D02*
X1312312Y0056972D01*
X1312312Y0056972D02*
X1312593Y0057253D01*
X1312593Y0057253D02*
X1313155Y0057534D01*
X1313155Y0057534D02*
X1314280Y0057534D01*
X1314280Y0057534D02*
X1314843Y0057253D01*
X1317374Y0053597D02*
X1317374Y0059503D01*
X1317374Y0057253D02*
X1317936Y0057534D01*
X1317936Y0057534D02*
X1319061Y0057534D01*
X1319061Y0057534D02*
X1319623Y0057253D01*
X1319623Y0057253D02*
X1319905Y0056972D01*
X1319905Y0056972D02*
X1320186Y0056410D01*
X1320186Y0056410D02*
X1320186Y0054722D01*
X1320186Y0054722D02*
X1319905Y0054160D01*
X1319905Y0054160D02*
X1319623Y0053879D01*
X1319623Y0053879D02*
X1319061Y0053597D01*
X1319061Y0053597D02*
X1317936Y0053597D01*
X1317936Y0053597D02*
X1317374Y0053879D01*
D10*
D11*
X1188189Y0072834D02*
X1613386Y0072834D01*
D10*
D11*
X1193639Y0064509D02*
X1194483Y0064227D01*
X1194483Y0064227D02*
X1195889Y0064227D01*
X1195889Y0064227D02*
X1196451Y0064509D01*
X1196451Y0064509D02*
X1196733Y0064790D01*
X1196733Y0064790D02*
X1197014Y0065352D01*
X1197014Y0065352D02*
X1197014Y0065915D01*
X1197014Y0065915D02*
X1196733Y0066477D01*
X1196733Y0066477D02*
X1196451Y0066758D01*
X1196451Y0066758D02*
X1195889Y0067040D01*
X1195889Y0067040D02*
X1194764Y0067321D01*
X1194764Y0067321D02*
X1194202Y0067602D01*
X1194202Y0067602D02*
X1193920Y0067883D01*
X1193920Y0067883D02*
X1193639Y0068446D01*
X1193639Y0068446D02*
X1193639Y0069008D01*
X1193639Y0069008D02*
X1193920Y0069570D01*
X1193920Y0069570D02*
X1194202Y0069852D01*
X1194202Y0069852D02*
X1194764Y0070133D01*
X1194764Y0070133D02*
X1196170Y0070133D01*
X1196170Y0070133D02*
X1197014Y0069852D01*
X1199545Y0064227D02*
X1199545Y0070133D01*
X1202076Y0064227D02*
X1202076Y0067321D01*
X1202076Y0067321D02*
X1201794Y0067883D01*
X1201794Y0067883D02*
X1201232Y0068164D01*
X1201232Y0068164D02*
X1200388Y0068164D01*
X1200388Y0068164D02*
X1199826Y0067883D01*
X1199826Y0067883D02*
X1199545Y0067602D01*
X1207137Y0064509D02*
X1206575Y0064227D01*
X1206575Y0064227D02*
X1205450Y0064227D01*
X1205450Y0064227D02*
X1204888Y0064509D01*
X1204888Y0064509D02*
X1204607Y0065071D01*
X1204607Y0065071D02*
X1204607Y0067321D01*
X1204607Y0067321D02*
X1204888Y0067883D01*
X1204888Y0067883D02*
X1205450Y0068164D01*
X1205450Y0068164D02*
X1206575Y0068164D01*
X1206575Y0068164D02*
X1207137Y0067883D01*
X1207137Y0067883D02*
X1207419Y0067321D01*
X1207419Y0067321D02*
X1207419Y0066758D01*
X1207419Y0066758D02*
X1204607Y0066196D01*
X1212199Y0064509D02*
X1211637Y0064227D01*
X1211637Y0064227D02*
X1210512Y0064227D01*
X1210512Y0064227D02*
X1209950Y0064509D01*
X1209950Y0064509D02*
X1209668Y0065071D01*
X1209668Y0065071D02*
X1209668Y0067321D01*
X1209668Y0067321D02*
X1209950Y0067883D01*
X1209950Y0067883D02*
X1210512Y0068164D01*
X1210512Y0068164D02*
X1211637Y0068164D01*
X1211637Y0068164D02*
X1212199Y0067883D01*
X1212199Y0067883D02*
X1212481Y0067321D01*
X1212481Y0067321D02*
X1212481Y0066758D01*
X1212481Y0066758D02*
X1209668Y0066196D01*
X1214168Y0068164D02*
X1216418Y0068164D01*
X1215012Y0070133D02*
X1215012Y0065071D01*
X1215012Y0065071D02*
X1215293Y0064509D01*
X1215293Y0064509D02*
X1215855Y0064227D01*
X1215855Y0064227D02*
X1216418Y0064227D01*
X1218386Y0064790D02*
X1218667Y0064509D01*
X1218667Y0064509D02*
X1218386Y0064227D01*
X1218386Y0064227D02*
X1218105Y0064509D01*
X1218105Y0064509D02*
X1218386Y0064790D01*
X1218386Y0064790D02*
X1218386Y0064227D01*
X1218386Y0067883D02*
X1218667Y0067602D01*
X1218667Y0067602D02*
X1218386Y0067321D01*
X1218386Y0067321D02*
X1218105Y0067602D01*
X1218105Y0067602D02*
X1218386Y0067883D01*
X1218386Y0067883D02*
X1218386Y0067321D01*
D10*
D12*
X1196840Y0076069D02*
X1196840Y0079162D01*
X1196840Y0079162D02*
X1196559Y0079725D01*
X1196559Y0079725D02*
X1195996Y0080006D01*
X1195996Y0080006D02*
X1194871Y0080006D01*
X1194871Y0080006D02*
X1194309Y0079725D01*
X1196840Y0076350D02*
X1196277Y0076069D01*
X1196277Y0076069D02*
X1194871Y0076069D01*
X1194871Y0076069D02*
X1194309Y0076350D01*
X1194309Y0076350D02*
X1194028Y0076913D01*
X1194028Y0076913D02*
X1194028Y0077475D01*
X1194028Y0077475D02*
X1194309Y0078038D01*
X1194309Y0078038D02*
X1194871Y0078319D01*
X1194871Y0078319D02*
X1196277Y0078319D01*
X1196277Y0078319D02*
X1196840Y0078600D01*
X1199652Y0080006D02*
X1199652Y0076069D01*
X1199652Y0079444D02*
X1199933Y0079725D01*
X1199933Y0079725D02*
X1200496Y0080006D01*
X1200496Y0080006D02*
X1201339Y0080006D01*
X1201339Y0080006D02*
X1201902Y0079725D01*
X1201902Y0079725D02*
X1202183Y0079162D01*
X1202183Y0079162D02*
X1202183Y0076069D01*
X1207526Y0076069D02*
X1207526Y0081975D01*
X1207526Y0076350D02*
X1206964Y0076069D01*
X1206964Y0076069D02*
X1205839Y0076069D01*
X1205839Y0076069D02*
X1205276Y0076350D01*
X1205276Y0076350D02*
X1204995Y0076632D01*
X1204995Y0076632D02*
X1204714Y0077194D01*
X1204714Y0077194D02*
X1204714Y0078881D01*
X1204714Y0078881D02*
X1204995Y0079444D01*
X1204995Y0079444D02*
X1205276Y0079725D01*
X1205276Y0079725D02*
X1205839Y0080006D01*
X1205839Y0080006D02*
X1206964Y0080006D01*
X1206964Y0080006D02*
X1207526Y0079725D01*
X1210338Y0076069D02*
X1210338Y0080006D01*
X1210338Y0078881D02*
X1210619Y0079444D01*
X1210619Y0079444D02*
X1210901Y0079725D01*
X1210901Y0079725D02*
X1211463Y0080006D01*
X1211463Y0080006D02*
X1212025Y0080006D01*
X1216244Y0076350D02*
X1215681Y0076069D01*
X1215681Y0076069D02*
X1214556Y0076069D01*
X1214556Y0076069D02*
X1213994Y0076350D01*
X1213994Y0076350D02*
X1213713Y0076913D01*
X1213713Y0076913D02*
X1213713Y0079162D01*
X1213713Y0079162D02*
X1213994Y0079725D01*
X1213994Y0079725D02*
X1214556Y0080006D01*
X1214556Y0080006D02*
X1215681Y0080006D01*
X1215681Y0080006D02*
X1216244Y0079725D01*
X1216244Y0079725D02*
X1216525Y0079162D01*
X1216525Y0079162D02*
X1216525Y0078600D01*
X1216525Y0078600D02*
X1213713Y0078038D01*
X1219056Y0076069D02*
X1219056Y0080006D01*
X1219056Y0081975D02*
X1218775Y0081693D01*
X1218775Y0081693D02*
X1219056Y0081412D01*
X1219056Y0081412D02*
X1219337Y0081693D01*
X1219337Y0081693D02*
X1219056Y0081975D01*
X1219056Y0081975D02*
X1219056Y0081412D01*
X1221868Y0076069D02*
X1221868Y0081975D01*
X1222430Y0078319D02*
X1224118Y0076069D01*
X1224118Y0080006D02*
X1221868Y0077756D01*
X1229180Y0076069D02*
X1229180Y0079162D01*
X1229180Y0079162D02*
X1228898Y0079725D01*
X1228898Y0079725D02*
X1228336Y0080006D01*
X1228336Y0080006D02*
X1227211Y0080006D01*
X1227211Y0080006D02*
X1226649Y0079725D01*
X1229180Y0076350D02*
X1228617Y0076069D01*
X1228617Y0076069D02*
X1227211Y0076069D01*
X1227211Y0076069D02*
X1226649Y0076350D01*
X1226649Y0076350D02*
X1226367Y0076913D01*
X1226367Y0076913D02*
X1226367Y0077475D01*
X1226367Y0077475D02*
X1226649Y0078038D01*
X1226649Y0078038D02*
X1227211Y0078319D01*
X1227211Y0078319D02*
X1228617Y0078319D01*
X1228617Y0078319D02*
X1229180Y0078600D01*
X1240147Y0078881D02*
X1239866Y0079162D01*
X1239866Y0079162D02*
X1239303Y0079444D01*
X1239303Y0079444D02*
X1238741Y0079444D01*
X1238741Y0079444D02*
X1238178Y0079162D01*
X1238178Y0079162D02*
X1237897Y0078881D01*
X1237897Y0078881D02*
X1237616Y0078319D01*
X1237616Y0078319D02*
X1237616Y0077756D01*
X1237616Y0077756D02*
X1237897Y0077194D01*
X1237897Y0077194D02*
X1238178Y0076913D01*
X1238178Y0076913D02*
X1238741Y0076632D01*
X1238741Y0076632D02*
X1239303Y0076632D01*
X1239303Y0076632D02*
X1239866Y0076913D01*
X1239866Y0076913D02*
X1240147Y0077194D01*
X1240147Y0079444D02*
X1240147Y0077194D01*
X1240147Y0077194D02*
X1240428Y0076913D01*
X1240428Y0076913D02*
X1240709Y0076913D01*
X1240709Y0076913D02*
X1241272Y0077194D01*
X1241272Y0077194D02*
X1241553Y0077756D01*
X1241553Y0077756D02*
X1241553Y0079162D01*
X1241553Y0079162D02*
X1240991Y0080006D01*
X1240991Y0080006D02*
X1240147Y0080569D01*
X1240147Y0080569D02*
X1239022Y0080850D01*
X1239022Y0080850D02*
X1237897Y0080569D01*
X1237897Y0080569D02*
X1237054Y0080006D01*
X1237054Y0080006D02*
X1236491Y0079162D01*
X1236491Y0079162D02*
X1236210Y0078038D01*
X1236210Y0078038D02*
X1236491Y0076913D01*
X1236491Y0076913D02*
X1237054Y0076069D01*
X1237054Y0076069D02*
X1237897Y0075507D01*
X1237897Y0075507D02*
X1239022Y0075225D01*
X1239022Y0075225D02*
X1240147Y0075507D01*
X1240147Y0075507D02*
X1240991Y0076069D01*
X1248583Y0076069D02*
X1248583Y0080006D01*
X1248583Y0078881D02*
X1248865Y0079444D01*
X1248865Y0079444D02*
X1249146Y0079725D01*
X1249146Y0079725D02*
X1249708Y0080006D01*
X1249708Y0080006D02*
X1250271Y0080006D01*
X1254770Y0080006D02*
X1254770Y0076069D01*
X1252239Y0080006D02*
X1252239Y0076913D01*
X1252239Y0076913D02*
X1252520Y0076350D01*
X1252520Y0076350D02*
X1253083Y0076069D01*
X1253083Y0076069D02*
X1253926Y0076069D01*
X1253926Y0076069D02*
X1254489Y0076350D01*
X1254489Y0076350D02*
X1254770Y0076632D01*
X1257301Y0076350D02*
X1257863Y0076069D01*
X1257863Y0076069D02*
X1258988Y0076069D01*
X1258988Y0076069D02*
X1259551Y0076350D01*
X1259551Y0076350D02*
X1259832Y0076913D01*
X1259832Y0076913D02*
X1259832Y0077194D01*
X1259832Y0077194D02*
X1259551Y0077756D01*
X1259551Y0077756D02*
X1258988Y0078038D01*
X1258988Y0078038D02*
X1258145Y0078038D01*
X1258145Y0078038D02*
X1257582Y0078319D01*
X1257582Y0078319D02*
X1257301Y0078881D01*
X1257301Y0078881D02*
X1257301Y0079162D01*
X1257301Y0079162D02*
X1257582Y0079725D01*
X1257582Y0079725D02*
X1258145Y0080006D01*
X1258145Y0080006D02*
X1258988Y0080006D01*
X1258988Y0080006D02*
X1259551Y0079725D01*
X1262363Y0079162D02*
X1264331Y0079162D01*
X1265175Y0076069D02*
X1262363Y0076069D01*
X1262363Y0076069D02*
X1262363Y0081975D01*
X1262363Y0081975D02*
X1265175Y0081975D01*
X1269674Y0079162D02*
X1267706Y0079162D01*
X1267706Y0076069D02*
X1267706Y0081975D01*
X1267706Y0081975D02*
X1270518Y0081975D01*
X1272768Y0076069D02*
X1272768Y0081975D01*
X1275580Y0076632D02*
X1275861Y0076350D01*
X1275861Y0076350D02*
X1275580Y0076069D01*
X1275580Y0076069D02*
X1275299Y0076350D01*
X1275299Y0076350D02*
X1275580Y0076632D01*
X1275580Y0076632D02*
X1275580Y0076069D01*
X1280923Y0076350D02*
X1280361Y0076069D01*
X1280361Y0076069D02*
X1279236Y0076069D01*
X1279236Y0076069D02*
X1278673Y0076350D01*
X1278673Y0076350D02*
X1278392Y0076632D01*
X1278392Y0076632D02*
X1278111Y0077194D01*
X1278111Y0077194D02*
X1278111Y0078881D01*
X1278111Y0078881D02*
X1278392Y0079444D01*
X1278392Y0079444D02*
X1278673Y0079725D01*
X1278673Y0079725D02*
X1279236Y0080006D01*
X1279236Y0080006D02*
X1280361Y0080006D01*
X1280361Y0080006D02*
X1280923Y0079725D01*
X1284298Y0076069D02*
X1283735Y0076350D01*
X1283735Y0076350D02*
X1283454Y0076632D01*
X1283454Y0076632D02*
X1283173Y0077194D01*
X1283173Y0077194D02*
X1283173Y0078881D01*
X1283173Y0078881D02*
X1283454Y0079444D01*
X1283454Y0079444D02*
X1283735Y0079725D01*
X1283735Y0079725D02*
X1284298Y0080006D01*
X1284298Y0080006D02*
X1285141Y0080006D01*
X1285141Y0080006D02*
X1285704Y0079725D01*
X1285704Y0079725D02*
X1285985Y0079444D01*
X1285985Y0079444D02*
X1286266Y0078881D01*
X1286266Y0078881D02*
X1286266Y0077194D01*
X1286266Y0077194D02*
X1285985Y0076632D01*
X1285985Y0076632D02*
X1285704Y0076350D01*
X1285704Y0076350D02*
X1285141Y0076069D01*
X1285141Y0076069D02*
X1284298Y0076069D01*
X1288797Y0076069D02*
X1288797Y0080006D01*
X1288797Y0079444D02*
X1289078Y0079725D01*
X1289078Y0079725D02*
X1289641Y0080006D01*
X1289641Y0080006D02*
X1290484Y0080006D01*
X1290484Y0080006D02*
X1291047Y0079725D01*
X1291047Y0079725D02*
X1291328Y0079162D01*
X1291328Y0079162D02*
X1291328Y0076069D01*
X1291328Y0079162D02*
X1291609Y0079725D01*
X1291609Y0079725D02*
X1292172Y0080006D01*
X1292172Y0080006D02*
X1293015Y0080006D01*
X1293015Y0080006D02*
X1293578Y0079725D01*
X1293578Y0079725D02*
X1293859Y0079162D01*
X1293859Y0079162D02*
X1293859Y0076069D01*
D10*
D11*
X1266929Y0033464D02*
X1266929Y0021653D01*
D10*
D11*
X1518897Y0033464D02*
X1518897Y0007874D01*
D14*
X0337598Y1208267D03*
X0337598Y1183070D03*
X0337598Y1175590D03*
X0337598Y1158661D03*
D15*
X0339370Y1149212D03*
X0339370Y1145275D03*
D14*
X0337598Y1134055D03*
X0276575Y1210039D03*
X0276575Y1202755D03*
X0276575Y1183267D03*
X0276575Y1135826D03*
D15*
X0570964Y1308366D03*
X0570964Y1312106D03*
X0570964Y1315846D03*
X0605216Y1311909D03*
X0605216Y1308366D03*
X0554331Y1260876D03*
X0549606Y1260876D03*
X0559055Y1260876D03*
X0563779Y1260876D03*
X0538346Y1317667D03*
X0534409Y1317667D03*
D32*
X0271653Y1316338D03*
X0271653Y1297047D03*
X0348425Y1127381D03*
X0348425Y1112381D03*
X0606102Y1222047D03*
X0586811Y1222047D03*
X0261811Y1316338D03*
X0261811Y1297047D03*
G36*
G01*
X0276181Y1075098D02*
X0276181Y1080413D01*
G75*
G02*
X0277165Y1081397I0000984J0000000D01*
G01*
X0281890Y1081397D01*
G75*
G02*
X0282874Y1080413I0000000J-000984D01*
G01*
X0282874Y1075098D01*
G75*
G02*
X0281890Y1074114I-000984J0000000D01*
G01*
X0277165Y1074114D01*
G75*
G02*
X0276181Y1075098I0000000J0000984D01*
G01*
G37*
D33*
X0289370Y1077755D03*
X0299212Y1077755D03*
X0309055Y1077755D03*
X0318897Y1077755D03*
D15*
X0514271Y1260137D03*
X0509547Y1260137D03*
X0518996Y1260137D03*
X0523720Y1260137D03*
X0498287Y1316929D03*
X0494350Y1316929D03*
D50*
X0347933Y1079330D03*
D51*
X0341043Y1082480D03*
X0347933Y1085629D03*
X0341043Y1088779D03*
X0347933Y1091929D03*
D52*
X0344488Y1071259D03*
X0344488Y1100000D03*
D15*
X0311565Y1103766D03*
X0308120Y1105833D03*
X0312746Y1108786D03*
X0312451Y1122762D03*
G36*
G01*
X0467913Y1279566D02*
X0467913Y1282637D01*
G75*
G02*
X0468189Y1282913I0000276J0000000D01*
G01*
X0470394Y1282913D01*
G75*
G02*
X0470669Y1282637I0000000J-000276D01*
G01*
X0470669Y1279566D01*
G75*
G02*
X0470394Y1279291I-000276J0000000D01*
G01*
X0468189Y1279291D01*
G75*
G02*
X0467913Y1279566I0000000J0000276D01*
G01*
G37*
G36*
G01*
X0474212Y1279566D02*
X0474212Y1282637D01*
G75*
G02*
X0474488Y1282913I0000276J0000000D01*
G01*
X0476693Y1282913D01*
G75*
G02*
X0476968Y1282637I0000000J-000276D01*
G01*
X0476968Y1279566D01*
G75*
G02*
X0476693Y1279291I-000276J0000000D01*
G01*
X0474488Y1279291D01*
G75*
G02*
X0474212Y1279566I0000000J0000276D01*
G01*
G37*
G36*
G01*
X0458228Y1239173D02*
X0455157Y1239173D01*
G75*
G02*
X0454882Y1239448I0000000J0000276D01*
G01*
X0454882Y1241653D01*
G75*
G02*
X0455157Y1241929I0000276J0000000D01*
G01*
X0458228Y1241929D01*
G75*
G02*
X0458504Y1241653I0000000J-000276D01*
G01*
X0458504Y1239448D01*
G75*
G02*
X0458228Y1239173I-000276J0000000D01*
G01*
G37*
G36*
G01*
X0458228Y1245472D02*
X0455157Y1245472D01*
G75*
G02*
X0454882Y1245748I0000000J0000276D01*
G01*
X0454882Y1247952D01*
G75*
G02*
X0455157Y1248228I0000276J0000000D01*
G01*
X0458228Y1248228D01*
G75*
G02*
X0458504Y1247952I0000000J-000276D01*
G01*
X0458504Y1245748D01*
G75*
G02*
X0458228Y1245472I-000276J0000000D01*
G01*
G37*
G36*
G01*
X0470039Y1239173D02*
X0466968Y1239173D01*
G75*
G02*
X0466693Y1239448I0000000J0000276D01*
G01*
X0466693Y1241653D01*
G75*
G02*
X0466968Y1241929I0000276J0000000D01*
G01*
X0470039Y1241929D01*
G75*
G02*
X0470315Y1241653I0000000J-000276D01*
G01*
X0470315Y1239448D01*
G75*
G02*
X0470039Y1239173I-000276J0000000D01*
G01*
G37*
G36*
G01*
X0470039Y1245472D02*
X0466968Y1245472D01*
G75*
G02*
X0466693Y1245748I0000000J0000276D01*
G01*
X0466693Y1247952D01*
G75*
G02*
X0466968Y1248228I0000276J0000000D01*
G01*
X0470039Y1248228D01*
G75*
G02*
X0470315Y1247952I0000000J-000276D01*
G01*
X0470315Y1245748D01*
G75*
G02*
X0470039Y1245472I-000276J0000000D01*
G01*
G37*
G36*
G01*
X0225945Y1111220D02*
X0222874Y1111220D01*
G75*
G02*
X0222598Y1111496I0000000J0000276D01*
G01*
X0222598Y1113700D01*
G75*
G02*
X0222874Y1113976I0000276J0000000D01*
G01*
X0225945Y1113976D01*
G75*
G02*
X0226220Y1113700I0000000J-000276D01*
G01*
X0226220Y1111496D01*
G75*
G02*
X0225945Y1111220I-000276J0000000D01*
G01*
G37*
G36*
G01*
X0225945Y1117519D02*
X0222874Y1117519D01*
G75*
G02*
X0222598Y1117795I0000000J0000276D01*
G01*
X0222598Y1120000D01*
G75*
G02*
X0222874Y1120275I0000276J0000000D01*
G01*
X0225945Y1120275D01*
G75*
G02*
X0226220Y1120000I0000000J-000276D01*
G01*
X0226220Y1117795D01*
G75*
G02*
X0225945Y1117519I-000276J0000000D01*
G01*
G37*
G36*
G01*
X0231850Y1111220D02*
X0228779Y1111220D01*
G75*
G02*
X0228504Y1111496I0000000J0000276D01*
G01*
X0228504Y1113700D01*
G75*
G02*
X0228779Y1113976I0000276J0000000D01*
G01*
X0231850Y1113976D01*
G75*
G02*
X0232126Y1113700I0000000J-000276D01*
G01*
X0232126Y1111496D01*
G75*
G02*
X0231850Y1111220I-000276J0000000D01*
G01*
G37*
G36*
G01*
X0231850Y1117519D02*
X0228779Y1117519D01*
G75*
G02*
X0228504Y1117795I0000000J0000276D01*
G01*
X0228504Y1120000D01*
G75*
G02*
X0228779Y1120275I0000276J0000000D01*
G01*
X0231850Y1120275D01*
G75*
G02*
X0232126Y1120000I0000000J-000276D01*
G01*
X0232126Y1117795D01*
G75*
G02*
X0231850Y1117519I-000276J0000000D01*
G01*
G37*
G36*
G01*
X0481850Y1239173D02*
X0478779Y1239173D01*
G75*
G02*
X0478504Y1239448I0000000J0000276D01*
G01*
X0478504Y1241653D01*
G75*
G02*
X0478779Y1241929I0000276J0000000D01*
G01*
X0481850Y1241929D01*
G75*
G02*
X0482126Y1241653I0000000J-000276D01*
G01*
X0482126Y1239448D01*
G75*
G02*
X0481850Y1239173I-000276J0000000D01*
G01*
G37*
G36*
G01*
X0481850Y1245472D02*
X0478779Y1245472D01*
G75*
G02*
X0478504Y1245748I0000000J0000276D01*
G01*
X0478504Y1247952D01*
G75*
G02*
X0478779Y1248228I0000276J0000000D01*
G01*
X0481850Y1248228D01*
G75*
G02*
X0482126Y1247952I0000000J-000276D01*
G01*
X0482126Y1245748D01*
G75*
G02*
X0481850Y1245472I-000276J0000000D01*
G01*
G37*
G36*
G01*
X0306496Y1279566D02*
X0306496Y1282637D01*
G75*
G02*
X0306771Y1282913I0000276J0000000D01*
G01*
X0308976Y1282913D01*
G75*
G02*
X0309252Y1282637I0000000J-000276D01*
G01*
X0309252Y1279566D01*
G75*
G02*
X0308976Y1279291I-000276J0000000D01*
G01*
X0306771Y1279291D01*
G75*
G02*
X0306496Y1279566I0000000J0000276D01*
G01*
G37*
G36*
G01*
X0312795Y1279566D02*
X0312795Y1282637D01*
G75*
G02*
X0313071Y1282913I0000276J0000000D01*
G01*
X0315275Y1282913D01*
G75*
G02*
X0315551Y1282637I0000000J-000276D01*
G01*
X0315551Y1279566D01*
G75*
G02*
X0315275Y1279291I-000276J0000000D01*
G01*
X0313071Y1279291D01*
G75*
G02*
X0312795Y1279566I0000000J0000276D01*
G01*
G37*
G36*
G01*
X0375551Y1239173D02*
X0372480Y1239173D01*
G75*
G02*
X0372205Y1239448I0000000J0000276D01*
G01*
X0372205Y1241653D01*
G75*
G02*
X0372480Y1241929I0000276J0000000D01*
G01*
X0375551Y1241929D01*
G75*
G02*
X0375827Y1241653I0000000J-000276D01*
G01*
X0375827Y1239448D01*
G75*
G02*
X0375551Y1239173I-000276J0000000D01*
G01*
G37*
G36*
G01*
X0375551Y1245472D02*
X0372480Y1245472D01*
G75*
G02*
X0372205Y1245748I0000000J0000276D01*
G01*
X0372205Y1247952D01*
G75*
G02*
X0372480Y1248228I0000276J0000000D01*
G01*
X0375551Y1248228D01*
G75*
G02*
X0375827Y1247952I0000000J-000276D01*
G01*
X0375827Y1245748D01*
G75*
G02*
X0375551Y1245472I-000276J0000000D01*
G01*
G37*
G36*
G01*
X0410984Y1239173D02*
X0407913Y1239173D01*
G75*
G02*
X0407638Y1239448I0000000J0000276D01*
G01*
X0407638Y1241653D01*
G75*
G02*
X0407913Y1241929I0000276J0000000D01*
G01*
X0410984Y1241929D01*
G75*
G02*
X0411260Y1241653I0000000J-000276D01*
G01*
X0411260Y1239448D01*
G75*
G02*
X0410984Y1239173I-000276J0000000D01*
G01*
G37*
G36*
G01*
X0410984Y1245472D02*
X0407913Y1245472D01*
G75*
G02*
X0407638Y1245748I0000000J0000276D01*
G01*
X0407638Y1247952D01*
G75*
G02*
X0407913Y1248228I0000276J0000000D01*
G01*
X0410984Y1248228D01*
G75*
G02*
X0411260Y1247952I0000000J-000276D01*
G01*
X0411260Y1245748D01*
G75*
G02*
X0410984Y1245472I-000276J0000000D01*
G01*
G37*
G36*
G01*
X0363740Y1239173D02*
X0360669Y1239173D01*
G75*
G02*
X0360394Y1239448I0000000J0000276D01*
G01*
X0360394Y1241653D01*
G75*
G02*
X0360669Y1241929I0000276J0000000D01*
G01*
X0363740Y1241929D01*
G75*
G02*
X0364016Y1241653I0000000J-000276D01*
G01*
X0364016Y1239448D01*
G75*
G02*
X0363740Y1239173I-000276J0000000D01*
G01*
G37*
G36*
G01*
X0363740Y1245472D02*
X0360669Y1245472D01*
G75*
G02*
X0360394Y1245748I0000000J0000276D01*
G01*
X0360394Y1247952D01*
G75*
G02*
X0360669Y1248228I0000276J0000000D01*
G01*
X0363740Y1248228D01*
G75*
G02*
X0364016Y1247952I0000000J-000276D01*
G01*
X0364016Y1245748D01*
G75*
G02*
X0363740Y1245472I-000276J0000000D01*
G01*
G37*
G36*
G01*
X0422795Y1239173D02*
X0419724Y1239173D01*
G75*
G02*
X0419449Y1239448I0000000J0000276D01*
G01*
X0419449Y1241653D01*
G75*
G02*
X0419724Y1241929I0000276J0000000D01*
G01*
X0422795Y1241929D01*
G75*
G02*
X0423071Y1241653I0000000J-000276D01*
G01*
X0423071Y1239448D01*
G75*
G02*
X0422795Y1239173I-000276J0000000D01*
G01*
G37*
G36*
G01*
X0422795Y1245472D02*
X0419724Y1245472D01*
G75*
G02*
X0419449Y1245748I0000000J0000276D01*
G01*
X0419449Y1247952D01*
G75*
G02*
X0419724Y1248228I0000276J0000000D01*
G01*
X0422795Y1248228D01*
G75*
G02*
X0423071Y1247952I0000000J-000276D01*
G01*
X0423071Y1245748D01*
G75*
G02*
X0422795Y1245472I-000276J0000000D01*
G01*
G37*
G36*
G01*
X0399173Y1239173D02*
X0396102Y1239173D01*
G75*
G02*
X0395827Y1239448I0000000J0000276D01*
G01*
X0395827Y1241653D01*
G75*
G02*
X0396102Y1241929I0000276J0000000D01*
G01*
X0399173Y1241929D01*
G75*
G02*
X0399449Y1241653I0000000J-000276D01*
G01*
X0399449Y1239448D01*
G75*
G02*
X0399173Y1239173I-000276J0000000D01*
G01*
G37*
G36*
G01*
X0399173Y1245472D02*
X0396102Y1245472D01*
G75*
G02*
X0395827Y1245748I0000000J0000276D01*
G01*
X0395827Y1247952D01*
G75*
G02*
X0396102Y1248228I0000276J0000000D01*
G01*
X0399173Y1248228D01*
G75*
G02*
X0399449Y1247952I0000000J-000276D01*
G01*
X0399449Y1245748D01*
G75*
G02*
X0399173Y1245472I-000276J0000000D01*
G01*
G37*
G36*
G01*
X0439016Y1251771D02*
X0435000Y1251771D01*
G75*
G02*
X0434645Y1252126I0000000J0000354D01*
G01*
X0434645Y1254960D01*
G75*
G02*
X0435000Y1255314I0000354J0000000D01*
G01*
X0439016Y1255314D01*
G75*
G02*
X0439370Y1254960I0000000J-000354D01*
G01*
X0439370Y1252126D01*
G75*
G02*
X0439016Y1251771I-000354J0000000D01*
G01*
G37*
G36*
G01*
X0439016Y1264763D02*
X0435000Y1264763D01*
G75*
G02*
X0434645Y1265118I0000000J0000354D01*
G01*
X0434645Y1267952D01*
G75*
G02*
X0435000Y1268307I0000354J0000000D01*
G01*
X0439016Y1268307D01*
G75*
G02*
X0439370Y1267952I0000000J-000354D01*
G01*
X0439370Y1265118D01*
G75*
G02*
X0439016Y1264763I-000354J0000000D01*
G01*
G37*
G36*
G01*
X0357834Y1239173D02*
X0354764Y1239173D01*
G75*
G02*
X0354488Y1239448I0000000J0000276D01*
G01*
X0354488Y1241653D01*
G75*
G02*
X0354764Y1241929I0000276J0000000D01*
G01*
X0357834Y1241929D01*
G75*
G02*
X0358110Y1241653I0000000J-000276D01*
G01*
X0358110Y1239448D01*
G75*
G02*
X0357834Y1239173I-000276J0000000D01*
G01*
G37*
G36*
G01*
X0357834Y1245472D02*
X0354764Y1245472D01*
G75*
G02*
X0354488Y1245748I0000000J0000276D01*
G01*
X0354488Y1247952D01*
G75*
G02*
X0354764Y1248228I0000276J0000000D01*
G01*
X0357834Y1248228D01*
G75*
G02*
X0358110Y1247952I0000000J-000276D01*
G01*
X0358110Y1245748D01*
G75*
G02*
X0357834Y1245472I-000276J0000000D01*
G01*
G37*
G36*
G01*
X0475945Y1239173D02*
X0472874Y1239173D01*
G75*
G02*
X0472598Y1239448I0000000J0000276D01*
G01*
X0472598Y1241653D01*
G75*
G02*
X0472874Y1241929I0000276J0000000D01*
G01*
X0475945Y1241929D01*
G75*
G02*
X0476220Y1241653I0000000J-000276D01*
G01*
X0476220Y1239448D01*
G75*
G02*
X0475945Y1239173I-000276J0000000D01*
G01*
G37*
G36*
G01*
X0475945Y1245472D02*
X0472874Y1245472D01*
G75*
G02*
X0472598Y1245748I0000000J0000276D01*
G01*
X0472598Y1247952D01*
G75*
G02*
X0472874Y1248228I0000276J0000000D01*
G01*
X0475945Y1248228D01*
G75*
G02*
X0476220Y1247952I0000000J-000276D01*
G01*
X0476220Y1245748D01*
G75*
G02*
X0475945Y1245472I-000276J0000000D01*
G01*
G37*
G36*
G01*
X0402953Y1279566D02*
X0402953Y1282637D01*
G75*
G02*
X0403228Y1282913I0000276J0000000D01*
G01*
X0405433Y1282913D01*
G75*
G02*
X0405708Y1282637I0000000J-000276D01*
G01*
X0405708Y1279566D01*
G75*
G02*
X0405433Y1279291I-000276J0000000D01*
G01*
X0403228Y1279291D01*
G75*
G02*
X0402953Y1279566I0000000J0000276D01*
G01*
G37*
G36*
G01*
X0409252Y1279566D02*
X0409252Y1282637D01*
G75*
G02*
X0409527Y1282913I0000276J0000000D01*
G01*
X0411732Y1282913D01*
G75*
G02*
X0412008Y1282637I0000000J-000276D01*
G01*
X0412008Y1279566D01*
G75*
G02*
X0411732Y1279291I-000276J0000000D01*
G01*
X0409527Y1279291D01*
G75*
G02*
X0409252Y1279566I0000000J0000276D01*
G01*
G37*
G36*
G01*
X0428701Y1239173D02*
X0425630Y1239173D01*
G75*
G02*
X0425354Y1239448I0000000J0000276D01*
G01*
X0425354Y1241653D01*
G75*
G02*
X0425630Y1241929I0000276J0000000D01*
G01*
X0428701Y1241929D01*
G75*
G02*
X0428976Y1241653I0000000J-000276D01*
G01*
X0428976Y1239448D01*
G75*
G02*
X0428701Y1239173I-000276J0000000D01*
G01*
G37*
G36*
G01*
X0428701Y1245472D02*
X0425630Y1245472D01*
G75*
G02*
X0425354Y1245748I0000000J0000276D01*
G01*
X0425354Y1247952D01*
G75*
G02*
X0425630Y1248228I0000276J0000000D01*
G01*
X0428701Y1248228D01*
G75*
G02*
X0428976Y1247952I0000000J-000276D01*
G01*
X0428976Y1245748D01*
G75*
G02*
X0428701Y1245472I-000276J0000000D01*
G01*
G37*
G36*
G01*
X0315846Y1274237D02*
X0315846Y1272219D01*
G75*
G02*
X0314985Y1271358I-000861J0000000D01*
G01*
X0313263Y1271358D01*
G75*
G02*
X0312401Y1272219I0000000J0000861D01*
G01*
X0312401Y1274237D01*
G75*
G02*
X0313263Y1275098I0000861J0000000D01*
G01*
X0314985Y1275098D01*
G75*
G02*
X0315846Y1274237I0000000J-000861D01*
G01*
G37*
G36*
G01*
X0309645Y1274237D02*
X0309645Y1272219D01*
G75*
G02*
X0308784Y1271358I-000861J0000000D01*
G01*
X0307062Y1271358D01*
G75*
G02*
X0306201Y1272219I0000000J0000861D01*
G01*
X0306201Y1274237D01*
G75*
G02*
X0307062Y1275098I0000861J0000000D01*
G01*
X0308784Y1275098D01*
G75*
G02*
X0309645Y1274237I0000000J-000861D01*
G01*
G37*
G36*
G01*
X0416890Y1239173D02*
X0413819Y1239173D01*
G75*
G02*
X0413543Y1239448I0000000J0000276D01*
G01*
X0413543Y1241653D01*
G75*
G02*
X0413819Y1241929I0000276J0000000D01*
G01*
X0416890Y1241929D01*
G75*
G02*
X0417165Y1241653I0000000J-000276D01*
G01*
X0417165Y1239448D01*
G75*
G02*
X0416890Y1239173I-000276J0000000D01*
G01*
G37*
G36*
G01*
X0416890Y1245472D02*
X0413819Y1245472D01*
G75*
G02*
X0413543Y1245748I0000000J0000276D01*
G01*
X0413543Y1247952D01*
G75*
G02*
X0413819Y1248228I0000276J0000000D01*
G01*
X0416890Y1248228D01*
G75*
G02*
X0417165Y1247952I0000000J-000276D01*
G01*
X0417165Y1245748D01*
G75*
G02*
X0416890Y1245472I-000276J0000000D01*
G01*
G37*
G36*
G01*
X0393268Y1239173D02*
X0390197Y1239173D01*
G75*
G02*
X0389921Y1239448I0000000J0000276D01*
G01*
X0389921Y1241653D01*
G75*
G02*
X0390197Y1241929I0000276J0000000D01*
G01*
X0393268Y1241929D01*
G75*
G02*
X0393543Y1241653I0000000J-000276D01*
G01*
X0393543Y1239448D01*
G75*
G02*
X0393268Y1239173I-000276J0000000D01*
G01*
G37*
G36*
G01*
X0393268Y1245472D02*
X0390197Y1245472D01*
G75*
G02*
X0389921Y1245748I0000000J0000276D01*
G01*
X0389921Y1247952D01*
G75*
G02*
X0390197Y1248228I0000276J0000000D01*
G01*
X0393268Y1248228D01*
G75*
G02*
X0393543Y1247952I0000000J-000276D01*
G01*
X0393543Y1245748D01*
G75*
G02*
X0393268Y1245472I-000276J0000000D01*
G01*
G37*
G36*
G01*
X0443799Y1274237D02*
X0443799Y1272219D01*
G75*
G02*
X0442938Y1271358I-000861J0000000D01*
G01*
X0441215Y1271358D01*
G75*
G02*
X0440354Y1272219I0000000J0000861D01*
G01*
X0440354Y1274237D01*
G75*
G02*
X0441215Y1275098I0000861J0000000D01*
G01*
X0442938Y1275098D01*
G75*
G02*
X0443799Y1274237I0000000J-000861D01*
G01*
G37*
G36*
G01*
X0437598Y1274237D02*
X0437598Y1272219D01*
G75*
G02*
X0436737Y1271358I-000861J0000000D01*
G01*
X0435015Y1271358D01*
G75*
G02*
X0434153Y1272219I0000000J0000861D01*
G01*
X0434153Y1274237D01*
G75*
G02*
X0435015Y1275098I0000861J0000000D01*
G01*
X0436737Y1275098D01*
G75*
G02*
X0437598Y1274237I0000000J-000861D01*
G01*
G37*
G36*
G01*
X0440512Y1239173D02*
X0437441Y1239173D01*
G75*
G02*
X0437165Y1239448I0000000J0000276D01*
G01*
X0437165Y1241653D01*
G75*
G02*
X0437441Y1241929I0000276J0000000D01*
G01*
X0440512Y1241929D01*
G75*
G02*
X0440787Y1241653I0000000J-000276D01*
G01*
X0440787Y1239448D01*
G75*
G02*
X0440512Y1239173I-000276J0000000D01*
G01*
G37*
G36*
G01*
X0440512Y1245472D02*
X0437441Y1245472D01*
G75*
G02*
X0437165Y1245748I0000000J0000276D01*
G01*
X0437165Y1247952D01*
G75*
G02*
X0437441Y1248228I0000276J0000000D01*
G01*
X0440512Y1248228D01*
G75*
G02*
X0440787Y1247952I0000000J-000276D01*
G01*
X0440787Y1245748D01*
G75*
G02*
X0440512Y1245472I-000276J0000000D01*
G01*
G37*
G36*
G01*
X0348130Y1286712D02*
X0336909Y1286712D01*
G75*
G02*
X0335925Y1287696I0000000J0000984D01*
G01*
X0335925Y1290551D01*
G75*
G02*
X0336909Y1291535I0000984J0000000D01*
G01*
X0348130Y1291535D01*
G75*
G02*
X0349114Y1290551I0000000J-000984D01*
G01*
X0349114Y1287696D01*
G75*
G02*
X0348130Y1286712I-000984J0000000D01*
G01*
G37*
G36*
G01*
X0348130Y1310039D02*
X0336909Y1310039D01*
G75*
G02*
X0335925Y1311023I0000000J0000984D01*
G01*
X0335925Y1313877D01*
G75*
G02*
X0336909Y1314862I0000984J0000000D01*
G01*
X0348130Y1314862D01*
G75*
G02*
X0349114Y1313877I0000000J-000984D01*
G01*
X0349114Y1311023D01*
G75*
G02*
X0348130Y1310039I-000984J0000000D01*
G01*
G37*
G36*
G01*
X0346023Y1239173D02*
X0342953Y1239173D01*
G75*
G02*
X0342677Y1239448I0000000J0000276D01*
G01*
X0342677Y1241653D01*
G75*
G02*
X0342953Y1241929I0000276J0000000D01*
G01*
X0346023Y1241929D01*
G75*
G02*
X0346299Y1241653I0000000J-000276D01*
G01*
X0346299Y1239448D01*
G75*
G02*
X0346023Y1239173I-000276J0000000D01*
G01*
G37*
G36*
G01*
X0346023Y1245472D02*
X0342953Y1245472D01*
G75*
G02*
X0342677Y1245748I0000000J0000276D01*
G01*
X0342677Y1247952D01*
G75*
G02*
X0342953Y1248228I0000276J0000000D01*
G01*
X0346023Y1248228D01*
G75*
G02*
X0346299Y1247952I0000000J-000276D01*
G01*
X0346299Y1245748D01*
G75*
G02*
X0346023Y1245472I-000276J0000000D01*
G01*
G37*
G36*
G01*
X0369488Y1279566D02*
X0369488Y1282637D01*
G75*
G02*
X0369764Y1282913I0000276J0000000D01*
G01*
X0371968Y1282913D01*
G75*
G02*
X0372244Y1282637I0000000J-000276D01*
G01*
X0372244Y1279566D01*
G75*
G02*
X0371968Y1279291I-000276J0000000D01*
G01*
X0369764Y1279291D01*
G75*
G02*
X0369488Y1279566I0000000J0000276D01*
G01*
G37*
G36*
G01*
X0375787Y1279566D02*
X0375787Y1282637D01*
G75*
G02*
X0376063Y1282913I0000276J0000000D01*
G01*
X0378268Y1282913D01*
G75*
G02*
X0378543Y1282637I0000000J-000276D01*
G01*
X0378543Y1279566D01*
G75*
G02*
X0378268Y1279291I-000276J0000000D01*
G01*
X0376063Y1279291D01*
G75*
G02*
X0375787Y1279566I0000000J0000276D01*
G01*
G37*
G36*
G01*
X0405079Y1239173D02*
X0402008Y1239173D01*
G75*
G02*
X0401732Y1239448I0000000J0000276D01*
G01*
X0401732Y1241653D01*
G75*
G02*
X0402008Y1241929I0000276J0000000D01*
G01*
X0405079Y1241929D01*
G75*
G02*
X0405354Y1241653I0000000J-000276D01*
G01*
X0405354Y1239448D01*
G75*
G02*
X0405079Y1239173I-000276J0000000D01*
G01*
G37*
G36*
G01*
X0405079Y1245472D02*
X0402008Y1245472D01*
G75*
G02*
X0401732Y1245748I0000000J0000276D01*
G01*
X0401732Y1247952D01*
G75*
G02*
X0402008Y1248228I0000276J0000000D01*
G01*
X0405079Y1248228D01*
G75*
G02*
X0405354Y1247952I0000000J-000276D01*
G01*
X0405354Y1245748D01*
G75*
G02*
X0405079Y1245472I-000276J0000000D01*
G01*
G37*
G36*
G01*
X0452323Y1239173D02*
X0449252Y1239173D01*
G75*
G02*
X0448976Y1239448I0000000J0000276D01*
G01*
X0448976Y1241653D01*
G75*
G02*
X0449252Y1241929I0000276J0000000D01*
G01*
X0452323Y1241929D01*
G75*
G02*
X0452598Y1241653I0000000J-000276D01*
G01*
X0452598Y1239448D01*
G75*
G02*
X0452323Y1239173I-000276J0000000D01*
G01*
G37*
G36*
G01*
X0452323Y1245472D02*
X0449252Y1245472D01*
G75*
G02*
X0448976Y1245748I0000000J0000276D01*
G01*
X0448976Y1247952D01*
G75*
G02*
X0449252Y1248228I0000276J0000000D01*
G01*
X0452323Y1248228D01*
G75*
G02*
X0452598Y1247952I0000000J-000276D01*
G01*
X0452598Y1245748D01*
G75*
G02*
X0452323Y1245472I-000276J0000000D01*
G01*
G37*
G36*
G01*
X0337992Y1279566D02*
X0337992Y1282637D01*
G75*
G02*
X0338268Y1282913I0000276J0000000D01*
G01*
X0340472Y1282913D01*
G75*
G02*
X0340748Y1282637I0000000J-000276D01*
G01*
X0340748Y1279566D01*
G75*
G02*
X0340472Y1279291I-000276J0000000D01*
G01*
X0338268Y1279291D01*
G75*
G02*
X0337992Y1279566I0000000J0000276D01*
G01*
G37*
G36*
G01*
X0344291Y1279566D02*
X0344291Y1282637D01*
G75*
G02*
X0344567Y1282913I0000276J0000000D01*
G01*
X0346771Y1282913D01*
G75*
G02*
X0347047Y1282637I0000000J-000276D01*
G01*
X0347047Y1279566D01*
G75*
G02*
X0346771Y1279291I-000276J0000000D01*
G01*
X0344567Y1279291D01*
G75*
G02*
X0344291Y1279566I0000000J0000276D01*
G01*
G37*
G36*
G01*
X0315866Y1286712D02*
X0304645Y1286712D01*
G75*
G02*
X0303661Y1287696I0000000J0000984D01*
G01*
X0303661Y1290551D01*
G75*
G02*
X0304645Y1291535I0000984J0000000D01*
G01*
X0315866Y1291535D01*
G75*
G02*
X0316850Y1290551I0000000J-000984D01*
G01*
X0316850Y1287696D01*
G75*
G02*
X0315866Y1286712I-000984J0000000D01*
G01*
G37*
G36*
G01*
X0315866Y1310039D02*
X0304645Y1310039D01*
G75*
G02*
X0303661Y1311023I0000000J0000984D01*
G01*
X0303661Y1313877D01*
G75*
G02*
X0304645Y1314862I0000984J0000000D01*
G01*
X0315866Y1314862D01*
G75*
G02*
X0316850Y1313877I0000000J-000984D01*
G01*
X0316850Y1311023D01*
G75*
G02*
X0315866Y1310039I-000984J0000000D01*
G01*
G37*
G36*
G01*
X0448858Y1251771D02*
X0444842Y1251771D01*
G75*
G02*
X0444488Y1252126I0000000J0000354D01*
G01*
X0444488Y1254960D01*
G75*
G02*
X0444842Y1255314I0000354J0000000D01*
G01*
X0448858Y1255314D01*
G75*
G02*
X0449212Y1254960I0000000J-000354D01*
G01*
X0449212Y1252126D01*
G75*
G02*
X0448858Y1251771I-000354J0000000D01*
G01*
G37*
G36*
G01*
X0448858Y1264763D02*
X0444842Y1264763D01*
G75*
G02*
X0444488Y1265118I0000000J0000354D01*
G01*
X0444488Y1267952D01*
G75*
G02*
X0444842Y1268307I0000354J0000000D01*
G01*
X0448858Y1268307D01*
G75*
G02*
X0449212Y1267952I0000000J-000354D01*
G01*
X0449212Y1265118D01*
G75*
G02*
X0448858Y1264763I-000354J0000000D01*
G01*
G37*
G36*
G01*
X0286023Y1308228D02*
X0286023Y1305157D01*
G75*
G02*
X0285748Y1304881I-000276J0000000D01*
G01*
X0283543Y1304881D01*
G75*
G02*
X0283268Y1305157I0000000J0000276D01*
G01*
X0283268Y1308228D01*
G75*
G02*
X0283543Y1308503I0000276J0000000D01*
G01*
X0285748Y1308503D01*
G75*
G02*
X0286023Y1308228I0000000J-000276D01*
G01*
G37*
G36*
G01*
X0279724Y1308228D02*
X0279724Y1305157D01*
G75*
G02*
X0279449Y1304881I-000276J0000000D01*
G01*
X0277244Y1304881D01*
G75*
G02*
X0276968Y1305157I0000000J0000276D01*
G01*
X0276968Y1308228D01*
G75*
G02*
X0277244Y1308503I0000276J0000000D01*
G01*
X0279449Y1308503D01*
G75*
G02*
X0279724Y1308228I0000000J-000276D01*
G01*
G37*
G36*
G01*
X0351929Y1239173D02*
X0348858Y1239173D01*
G75*
G02*
X0348582Y1239448I0000000J0000276D01*
G01*
X0348582Y1241653D01*
G75*
G02*
X0348858Y1241929I0000276J0000000D01*
G01*
X0351929Y1241929D01*
G75*
G02*
X0352205Y1241653I0000000J-000276D01*
G01*
X0352205Y1239448D01*
G75*
G02*
X0351929Y1239173I-000276J0000000D01*
G01*
G37*
G36*
G01*
X0351929Y1245472D02*
X0348858Y1245472D01*
G75*
G02*
X0348582Y1245748I0000000J0000276D01*
G01*
X0348582Y1247952D01*
G75*
G02*
X0348858Y1248228I0000276J0000000D01*
G01*
X0351929Y1248228D01*
G75*
G02*
X0352205Y1247952I0000000J-000276D01*
G01*
X0352205Y1245748D01*
G75*
G02*
X0351929Y1245472I-000276J0000000D01*
G01*
G37*
G36*
G01*
X0413090Y1286712D02*
X0401870Y1286712D01*
G75*
G02*
X0400886Y1287696I0000000J0000984D01*
G01*
X0400886Y1290551D01*
G75*
G02*
X0401870Y1291535I0000984J0000000D01*
G01*
X0413090Y1291535D01*
G75*
G02*
X0414075Y1290551I0000000J-000984D01*
G01*
X0414075Y1287696D01*
G75*
G02*
X0413090Y1286712I-000984J0000000D01*
G01*
G37*
G36*
G01*
X0413090Y1310039D02*
X0401870Y1310039D01*
G75*
G02*
X0400886Y1311023I0000000J0000984D01*
G01*
X0400886Y1313877D01*
G75*
G02*
X0401870Y1314862I0000984J0000000D01*
G01*
X0413090Y1314862D01*
G75*
G02*
X0414075Y1313877I0000000J-000984D01*
G01*
X0414075Y1311023D01*
G75*
G02*
X0413090Y1310039I-000984J0000000D01*
G01*
G37*
G36*
G01*
X0369645Y1239173D02*
X0366575Y1239173D01*
G75*
G02*
X0366299Y1239448I0000000J0000276D01*
G01*
X0366299Y1241653D01*
G75*
G02*
X0366575Y1241929I0000276J0000000D01*
G01*
X0369645Y1241929D01*
G75*
G02*
X0369921Y1241653I0000000J-000276D01*
G01*
X0369921Y1239448D01*
G75*
G02*
X0369645Y1239173I-000276J0000000D01*
G01*
G37*
G36*
G01*
X0369645Y1245472D02*
X0366575Y1245472D01*
G75*
G02*
X0366299Y1245748I0000000J0000276D01*
G01*
X0366299Y1247952D01*
G75*
G02*
X0366575Y1248228I0000276J0000000D01*
G01*
X0369645Y1248228D01*
G75*
G02*
X0369921Y1247952I0000000J-000276D01*
G01*
X0369921Y1245748D01*
G75*
G02*
X0369645Y1245472I-000276J0000000D01*
G01*
G37*
G36*
G01*
X0347342Y1274237D02*
X0347342Y1272219D01*
G75*
G02*
X0346481Y1271358I-000861J0000000D01*
G01*
X0344759Y1271358D01*
G75*
G02*
X0343897Y1272219I0000000J0000861D01*
G01*
X0343897Y1274237D01*
G75*
G02*
X0344759Y1275098I0000861J0000000D01*
G01*
X0346481Y1275098D01*
G75*
G02*
X0347342Y1274237I0000000J-000861D01*
G01*
G37*
G36*
G01*
X0341142Y1274237D02*
X0341142Y1272219D01*
G75*
G02*
X0340280Y1271358I-000861J0000000D01*
G01*
X0338558Y1271358D01*
G75*
G02*
X0337697Y1272219I0000000J0000861D01*
G01*
X0337697Y1274237D01*
G75*
G02*
X0338558Y1275098I0000861J0000000D01*
G01*
X0340280Y1275098D01*
G75*
G02*
X0341142Y1274237I0000000J-000861D01*
G01*
G37*
G36*
G01*
X0243661Y1111220D02*
X0240590Y1111220D01*
G75*
G02*
X0240315Y1111496I0000000J0000276D01*
G01*
X0240315Y1113700D01*
G75*
G02*
X0240590Y1113976I0000276J0000000D01*
G01*
X0243661Y1113976D01*
G75*
G02*
X0243937Y1113700I0000000J-000276D01*
G01*
X0243937Y1111496D01*
G75*
G02*
X0243661Y1111220I-000276J0000000D01*
G01*
G37*
G36*
G01*
X0243661Y1117519D02*
X0240590Y1117519D01*
G75*
G02*
X0240315Y1117795I0000000J0000276D01*
G01*
X0240315Y1120000D01*
G75*
G02*
X0240590Y1120275I0000276J0000000D01*
G01*
X0243661Y1120275D01*
G75*
G02*
X0243937Y1120000I0000000J-000276D01*
G01*
X0243937Y1117795D01*
G75*
G02*
X0243661Y1117519I-000276J0000000D01*
G01*
G37*
G36*
G01*
X0464134Y1239173D02*
X0461063Y1239173D01*
G75*
G02*
X0460787Y1239448I0000000J0000276D01*
G01*
X0460787Y1241653D01*
G75*
G02*
X0461063Y1241929I0000276J0000000D01*
G01*
X0464134Y1241929D01*
G75*
G02*
X0464409Y1241653I0000000J-000276D01*
G01*
X0464409Y1239448D01*
G75*
G02*
X0464134Y1239173I-000276J0000000D01*
G01*
G37*
G36*
G01*
X0464134Y1245472D02*
X0461063Y1245472D01*
G75*
G02*
X0460787Y1245748I0000000J0000276D01*
G01*
X0460787Y1247952D01*
G75*
G02*
X0461063Y1248228I0000276J0000000D01*
G01*
X0464134Y1248228D01*
G75*
G02*
X0464409Y1247952I0000000J-000276D01*
G01*
X0464409Y1245748D01*
G75*
G02*
X0464134Y1245472I-000276J0000000D01*
G01*
G37*
G36*
G01*
X0378838Y1274237D02*
X0378838Y1272219D01*
G75*
G02*
X0377977Y1271358I-000861J0000000D01*
G01*
X0376255Y1271358D01*
G75*
G02*
X0375394Y1272219I0000000J0000861D01*
G01*
X0375394Y1274237D01*
G75*
G02*
X0376255Y1275098I0000861J0000000D01*
G01*
X0377977Y1275098D01*
G75*
G02*
X0378838Y1274237I0000000J-000861D01*
G01*
G37*
G36*
G01*
X0372638Y1274237D02*
X0372638Y1272219D01*
G75*
G02*
X0371776Y1271358I-000861J0000000D01*
G01*
X0370054Y1271358D01*
G75*
G02*
X0369193Y1272219I0000000J0000861D01*
G01*
X0369193Y1274237D01*
G75*
G02*
X0370054Y1275098I0000861J0000000D01*
G01*
X0371776Y1275098D01*
G75*
G02*
X0372638Y1274237I0000000J-000861D01*
G01*
G37*
G36*
G01*
X0276968Y1311063D02*
X0276968Y1314133D01*
G75*
G02*
X0277244Y1314409I0000276J0000000D01*
G01*
X0279449Y1314409D01*
G75*
G02*
X0279724Y1314133I0000000J-000276D01*
G01*
X0279724Y1311063D01*
G75*
G02*
X0279449Y1310787I-000276J0000000D01*
G01*
X0277244Y1310787D01*
G75*
G02*
X0276968Y1311063I0000000J0000276D01*
G01*
G37*
G36*
G01*
X0283268Y1311063D02*
X0283268Y1314133D01*
G75*
G02*
X0283543Y1314409I0000276J0000000D01*
G01*
X0285748Y1314409D01*
G75*
G02*
X0286023Y1314133I0000000J-000276D01*
G01*
X0286023Y1311063D01*
G75*
G02*
X0285748Y1310787I-000276J0000000D01*
G01*
X0283543Y1310787D01*
G75*
G02*
X0283268Y1311063I0000000J0000276D01*
G01*
G37*
G36*
G01*
X0477264Y1274237D02*
X0477264Y1272219D01*
G75*
G02*
X0476402Y1271358I-000861J0000000D01*
G01*
X0474680Y1271358D01*
G75*
G02*
X0473819Y1272219I0000000J0000861D01*
G01*
X0473819Y1274237D01*
G75*
G02*
X0474680Y1275098I0000861J0000000D01*
G01*
X0476402Y1275098D01*
G75*
G02*
X0477264Y1274237I0000000J-000861D01*
G01*
G37*
G36*
G01*
X0471063Y1274237D02*
X0471063Y1272219D01*
G75*
G02*
X0470202Y1271358I-000861J0000000D01*
G01*
X0468479Y1271358D01*
G75*
G02*
X0467618Y1272219I0000000J0000861D01*
G01*
X0467618Y1274237D01*
G75*
G02*
X0468479Y1275098I0000861J0000000D01*
G01*
X0470202Y1275098D01*
G75*
G02*
X0471063Y1274237I0000000J-000861D01*
G01*
G37*
G36*
G01*
X0446417Y1239173D02*
X0443346Y1239173D01*
G75*
G02*
X0443071Y1239448I0000000J0000276D01*
G01*
X0443071Y1241653D01*
G75*
G02*
X0443346Y1241929I0000276J0000000D01*
G01*
X0446417Y1241929D01*
G75*
G02*
X0446693Y1241653I0000000J-000276D01*
G01*
X0446693Y1239448D01*
G75*
G02*
X0446417Y1239173I-000276J0000000D01*
G01*
G37*
G36*
G01*
X0446417Y1245472D02*
X0443346Y1245472D01*
G75*
G02*
X0443071Y1245748I0000000J0000276D01*
G01*
X0443071Y1247952D01*
G75*
G02*
X0443346Y1248228I0000276J0000000D01*
G01*
X0446417Y1248228D01*
G75*
G02*
X0446693Y1247952I0000000J-000276D01*
G01*
X0446693Y1245748D01*
G75*
G02*
X0446417Y1245472I-000276J0000000D01*
G01*
G37*
G36*
G01*
X0434449Y1279566D02*
X0434449Y1282637D01*
G75*
G02*
X0434724Y1282913I0000276J0000000D01*
G01*
X0436929Y1282913D01*
G75*
G02*
X0437205Y1282637I0000000J-000276D01*
G01*
X0437205Y1279566D01*
G75*
G02*
X0436929Y1279291I-000276J0000000D01*
G01*
X0434724Y1279291D01*
G75*
G02*
X0434449Y1279566I0000000J0000276D01*
G01*
G37*
G36*
G01*
X0440748Y1279566D02*
X0440748Y1282637D01*
G75*
G02*
X0441023Y1282913I0000276J0000000D01*
G01*
X0443228Y1282913D01*
G75*
G02*
X0443504Y1282637I0000000J-000276D01*
G01*
X0443504Y1279566D01*
G75*
G02*
X0443228Y1279291I-000276J0000000D01*
G01*
X0441023Y1279291D01*
G75*
G02*
X0440748Y1279566I0000000J0000276D01*
G01*
G37*
G36*
G01*
X0237756Y1111220D02*
X0234685Y1111220D01*
G75*
G02*
X0234409Y1111496I0000000J0000276D01*
G01*
X0234409Y1113700D01*
G75*
G02*
X0234685Y1113976I0000276J0000000D01*
G01*
X0237756Y1113976D01*
G75*
G02*
X0238031Y1113700I0000000J-000276D01*
G01*
X0238031Y1111496D01*
G75*
G02*
X0237756Y1111220I-000276J0000000D01*
G01*
G37*
G36*
G01*
X0237756Y1117519D02*
X0234685Y1117519D01*
G75*
G02*
X0234409Y1117795I0000000J0000276D01*
G01*
X0234409Y1120000D01*
G75*
G02*
X0234685Y1120275I0000276J0000000D01*
G01*
X0237756Y1120275D01*
G75*
G02*
X0238031Y1120000I0000000J-000276D01*
G01*
X0238031Y1117795D01*
G75*
G02*
X0237756Y1117519I-000276J0000000D01*
G01*
G37*
G36*
G01*
X0470512Y1251771D02*
X0466496Y1251771D01*
G75*
G02*
X0466142Y1252126I0000000J0000354D01*
G01*
X0466142Y1254960D01*
G75*
G02*
X0466496Y1255314I0000354J0000000D01*
G01*
X0470512Y1255314D01*
G75*
G02*
X0470866Y1254960I0000000J-000354D01*
G01*
X0470866Y1252126D01*
G75*
G02*
X0470512Y1251771I-000354J0000000D01*
G01*
G37*
G36*
G01*
X0470512Y1264763D02*
X0466496Y1264763D01*
G75*
G02*
X0466142Y1265118I0000000J0000354D01*
G01*
X0466142Y1267952D01*
G75*
G02*
X0466496Y1268307I0000354J0000000D01*
G01*
X0470512Y1268307D01*
G75*
G02*
X0470866Y1267952I0000000J-000354D01*
G01*
X0470866Y1265118D01*
G75*
G02*
X0470512Y1264763I-000354J0000000D01*
G01*
G37*
G36*
G01*
X0434606Y1239173D02*
X0431535Y1239173D01*
G75*
G02*
X0431260Y1239448I0000000J0000276D01*
G01*
X0431260Y1241653D01*
G75*
G02*
X0431535Y1241929I0000276J0000000D01*
G01*
X0434606Y1241929D01*
G75*
G02*
X0434882Y1241653I0000000J-000276D01*
G01*
X0434882Y1239448D01*
G75*
G02*
X0434606Y1239173I-000276J0000000D01*
G01*
G37*
G36*
G01*
X0434606Y1245472D02*
X0431535Y1245472D01*
G75*
G02*
X0431260Y1245748I0000000J0000276D01*
G01*
X0431260Y1247952D01*
G75*
G02*
X0431535Y1248228I0000276J0000000D01*
G01*
X0434606Y1248228D01*
G75*
G02*
X0434882Y1247952I0000000J-000276D01*
G01*
X0434882Y1245748D01*
G75*
G02*
X0434606Y1245472I-000276J0000000D01*
G01*
G37*
G36*
G01*
X0480354Y1251181D02*
X0476338Y1251181D01*
G75*
G02*
X0475984Y1251535I0000000J0000354D01*
G01*
X0475984Y1254370D01*
G75*
G02*
X0476338Y1254724I0000354J0000000D01*
G01*
X0480354Y1254724D01*
G75*
G02*
X0480708Y1254370I0000000J-000354D01*
G01*
X0480708Y1251535D01*
G75*
G02*
X0480354Y1251181I-000354J0000000D01*
G01*
G37*
G36*
G01*
X0480354Y1264173D02*
X0476338Y1264173D01*
G75*
G02*
X0475984Y1264527I0000000J0000354D01*
G01*
X0475984Y1267362D01*
G75*
G02*
X0476338Y1267716I0000354J0000000D01*
G01*
X0480354Y1267716D01*
G75*
G02*
X0480708Y1267362I0000000J-000354D01*
G01*
X0480708Y1264527D01*
G75*
G02*
X0480354Y1264173I-000354J0000000D01*
G01*
G37*
G36*
G01*
X0476082Y1286564D02*
X0464862Y1286564D01*
G75*
G02*
X0463878Y1287549I0000000J0000984D01*
G01*
X0463878Y1290403D01*
G75*
G02*
X0464862Y1291387I0000984J0000000D01*
G01*
X0476082Y1291387D01*
G75*
G02*
X0477067Y1290403I0000000J-000984D01*
G01*
X0477067Y1287549D01*
G75*
G02*
X0476082Y1286564I-000984J0000000D01*
G01*
G37*
G36*
G01*
X0476082Y1309891D02*
X0464862Y1309891D01*
G75*
G02*
X0463878Y1310876I0000000J0000984D01*
G01*
X0463878Y1313730D01*
G75*
G02*
X0464862Y1314714I0000984J0000000D01*
G01*
X0476082Y1314714D01*
G75*
G02*
X0477067Y1313730I0000000J-000984D01*
G01*
X0477067Y1310876D01*
G75*
G02*
X0476082Y1309891I-000984J0000000D01*
G01*
G37*
G36*
G01*
X0444586Y1286860D02*
X0433366Y1286860D01*
G75*
G02*
X0432382Y1287844I0000000J0000984D01*
G01*
X0432382Y1290698D01*
G75*
G02*
X0433366Y1291683I0000984J0000000D01*
G01*
X0444586Y1291683D01*
G75*
G02*
X0445571Y1290698I0000000J-000984D01*
G01*
X0445571Y1287844D01*
G75*
G02*
X0444586Y1286860I-000984J0000000D01*
G01*
G37*
G36*
G01*
X0444586Y1310187D02*
X0433366Y1310187D01*
G75*
G02*
X0432382Y1311171I0000000J0000984D01*
G01*
X0432382Y1314025D01*
G75*
G02*
X0433366Y1315009I0000984J0000000D01*
G01*
X0444586Y1315009D01*
G75*
G02*
X0445571Y1314025I0000000J-000984D01*
G01*
X0445571Y1311171D01*
G75*
G02*
X0444586Y1310187I-000984J0000000D01*
G01*
G37*
G36*
G01*
X0412303Y1274237D02*
X0412303Y1272219D01*
G75*
G02*
X0411442Y1271358I-000861J0000000D01*
G01*
X0409719Y1271358D01*
G75*
G02*
X0408858Y1272219I0000000J0000861D01*
G01*
X0408858Y1274237D01*
G75*
G02*
X0409719Y1275098I0000861J0000000D01*
G01*
X0411442Y1275098D01*
G75*
G02*
X0412303Y1274237I0000000J-000861D01*
G01*
G37*
G36*
G01*
X0406102Y1274237D02*
X0406102Y1272219D01*
G75*
G02*
X0405241Y1271358I-000861J0000000D01*
G01*
X0403519Y1271358D01*
G75*
G02*
X0402657Y1272219I0000000J0000861D01*
G01*
X0402657Y1274237D01*
G75*
G02*
X0403519Y1275098I0000861J0000000D01*
G01*
X0405241Y1275098D01*
G75*
G02*
X0406102Y1274237I0000000J-000861D01*
G01*
G37*
G36*
G01*
X0379626Y1286712D02*
X0368405Y1286712D01*
G75*
G02*
X0367421Y1287696I0000000J0000984D01*
G01*
X0367421Y1290551D01*
G75*
G02*
X0368405Y1291535I0000984J0000000D01*
G01*
X0379626Y1291535D01*
G75*
G02*
X0380610Y1290551I0000000J-000984D01*
G01*
X0380610Y1287696D01*
G75*
G02*
X0379626Y1286712I-000984J0000000D01*
G01*
G37*
G36*
G01*
X0379626Y1310039D02*
X0368405Y1310039D01*
G75*
G02*
X0367421Y1311023I0000000J0000984D01*
G01*
X0367421Y1313877D01*
G75*
G02*
X0368405Y1314862I0000984J0000000D01*
G01*
X0379626Y1314862D01*
G75*
G02*
X0380610Y1313877I0000000J-000984D01*
G01*
X0380610Y1311023D01*
G75*
G02*
X0379626Y1310039I-000984J0000000D01*
G01*
G37*
G36*
G01*
X0381457Y1239173D02*
X0378386Y1239173D01*
G75*
G02*
X0378110Y1239448I0000000J0000276D01*
G01*
X0378110Y1241653D01*
G75*
G02*
X0378386Y1241929I0000276J0000000D01*
G01*
X0381457Y1241929D01*
G75*
G02*
X0381732Y1241653I0000000J-000276D01*
G01*
X0381732Y1239448D01*
G75*
G02*
X0381457Y1239173I-000276J0000000D01*
G01*
G37*
G36*
G01*
X0381457Y1245472D02*
X0378386Y1245472D01*
G75*
G02*
X0378110Y1245748I0000000J0000276D01*
G01*
X0378110Y1247952D01*
G75*
G02*
X0378386Y1248228I0000276J0000000D01*
G01*
X0381457Y1248228D01*
G75*
G02*
X0381732Y1247952I0000000J-000276D01*
G01*
X0381732Y1245748D01*
G75*
G02*
X0381457Y1245472I-000276J0000000D01*
G01*
G37*
G36*
G01*
X0387362Y1239173D02*
X0384291Y1239173D01*
G75*
G02*
X0384016Y1239448I0000000J0000276D01*
G01*
X0384016Y1241653D01*
G75*
G02*
X0384291Y1241929I0000276J0000000D01*
G01*
X0387362Y1241929D01*
G75*
G02*
X0387638Y1241653I0000000J-000276D01*
G01*
X0387638Y1239448D01*
G75*
G02*
X0387362Y1239173I-000276J0000000D01*
G01*
G37*
G36*
G01*
X0387362Y1245472D02*
X0384291Y1245472D01*
G75*
G02*
X0384016Y1245748I0000000J0000276D01*
G01*
X0384016Y1247952D01*
G75*
G02*
X0384291Y1248228I0000276J0000000D01*
G01*
X0387362Y1248228D01*
G75*
G02*
X0387638Y1247952I0000000J-000276D01*
G01*
X0387638Y1245748D01*
G75*
G02*
X0387362Y1245472I-000276J0000000D01*
G01*
G37*
D59*
X0711228Y1465681D03*
D60*
X0701582Y1434972D03*
D59*
X0417921Y1465681D03*
D60*
X0222055Y1434972D03*
D59*
X0212409Y1465681D03*
D61*
X0683275Y1445996D03*
X0660441Y1445996D03*
X0671858Y1436822D03*
X0683275Y1413988D03*
X0660441Y1413988D03*
D14*
X0449338Y1413988D03*
X0459338Y1413988D03*
X0469338Y1413988D03*
X0479338Y1413988D03*
X0489338Y1413988D03*
X0499338Y1413988D03*
X0509338Y1413988D03*
X0519338Y1413988D03*
X0529338Y1413988D03*
X0539338Y1413988D03*
X0549338Y1413988D03*
X0559338Y1413988D03*
X0569338Y1413988D03*
X0579338Y1413988D03*
X0589338Y1413988D03*
X0599338Y1413988D03*
X0609338Y1413988D03*
X0619338Y1413988D03*
X0629338Y1413988D03*
X0449338Y1423988D03*
X0459338Y1423988D03*
X0469338Y1423988D03*
X0479338Y1423988D03*
X0489338Y1423988D03*
X0499338Y1423988D03*
X0509338Y1423988D03*
X0519338Y1423988D03*
X0529338Y1423988D03*
X0539338Y1423988D03*
X0549338Y1423988D03*
X0559338Y1423988D03*
X0569338Y1423988D03*
X0579338Y1423988D03*
X0589338Y1423988D03*
X0599338Y1423988D03*
X0609338Y1423988D03*
X0619338Y1423988D03*
X0629338Y1423988D03*
X0449338Y1447807D03*
X0459338Y1447807D03*
X0469338Y1447807D03*
X0479338Y1447807D03*
X0489338Y1447807D03*
X0499338Y1447807D03*
X0509338Y1447807D03*
X0519338Y1447807D03*
X0529338Y1447807D03*
X0539338Y1447807D03*
X0549338Y1447807D03*
X0559338Y1447807D03*
X0569338Y1447807D03*
X0579338Y1447807D03*
X0589338Y1447807D03*
X0599338Y1447807D03*
X0609338Y1447807D03*
X0619338Y1447807D03*
X0629338Y1447807D03*
X0449338Y1457807D03*
X0459338Y1457807D03*
X0469338Y1457807D03*
X0479338Y1457807D03*
X0489338Y1457807D03*
X0499338Y1457807D03*
X0509338Y1457807D03*
X0519338Y1457807D03*
X0529338Y1457807D03*
X0539338Y1457807D03*
X0549338Y1457807D03*
X0559338Y1457807D03*
X0569338Y1457807D03*
X0579338Y1457807D03*
X0589338Y1457807D03*
X0599338Y1457807D03*
X0609338Y1457807D03*
X0619338Y1457807D03*
X0629338Y1457807D03*
X0386464Y1457807D03*
X0376464Y1457807D03*
X0366464Y1457807D03*
X0356464Y1457807D03*
X0346464Y1457807D03*
X0336464Y1457807D03*
X0326464Y1457807D03*
X0316464Y1457807D03*
X0386464Y1447807D03*
X0376464Y1447807D03*
X0366464Y1447807D03*
X0356464Y1447807D03*
X0346464Y1447807D03*
X0336464Y1447807D03*
X0326464Y1447807D03*
X0316464Y1447807D03*
X0386464Y1423988D03*
X0376464Y1423988D03*
X0366464Y1423988D03*
X0356464Y1423988D03*
X0346464Y1423988D03*
X0336464Y1423988D03*
X0326464Y1423988D03*
X0316464Y1423988D03*
X0386464Y1413988D03*
X0376464Y1413988D03*
X0366464Y1413988D03*
X0356464Y1413988D03*
X0346464Y1413988D03*
X0336464Y1413988D03*
X0326464Y1413988D03*
X0316464Y1413988D03*
D61*
X0285638Y1445996D03*
X0262803Y1445996D03*
X0239575Y1445996D03*
X0274220Y1436822D03*
X0250992Y1436822D03*
X0285638Y1413988D03*
X0262803Y1413988D03*
X0239575Y1413988D03*
X0287205Y0240034D02*
G01*
G75*
D106*
X0317120Y0316412D02*
D03*
X0304128Y0316412D02*
D03*
D107*
X0336980Y0316806D02*
D03*
X0325563Y0316806D02*
D03*
X0336980Y0308774D02*
D03*
X0325563Y0308774D02*
D03*
D110*
X0299607Y0294758D02*
D03*
X0299607Y0298695D02*
D03*
X0296260Y0309325D02*
D03*
X0304922Y0309325D02*
D03*
X0295473Y0304077D02*
D03*
X0304134Y0304077D02*
D03*
D111*
X0307360Y0251451D02*
D03*
X0303816Y0251451D02*
D03*
X0316751Y0288184D02*
D03*
X0320295Y0288184D02*
D03*
X0308754Y0303289D02*
D03*
X0312297Y0303289D02*
D03*
X0315978Y0251451D02*
D03*
X0312435Y0251451D02*
D03*
X0295473Y0255388D02*
D03*
X0299016Y0255388D02*
D03*
D112*
X0320958Y0304864D02*
D03*
X0320958Y0308408D02*
D03*
X0300191Y0317266D02*
D03*
X0300191Y0313722D02*
D03*
X0348955Y0258949D02*
D03*
X0348955Y0262493D02*
D03*
D113*
X0352953Y0258144D02*
D03*
X0352953Y0254207D02*
D03*
D114*
X0290158Y0311687D02*
D03*
X0290158Y0244758D02*
D03*
X0290158Y0292199D02*
D03*
X0351181Y0292002D02*
D03*
X0351181Y0317199D02*
D03*
X0351181Y0267593D02*
D03*
X0351181Y0284522D02*
D03*
X0351181Y0242987D02*
D03*
X0290158Y0318971D02*
D03*
D123*
X0345079Y0317987D02*
D03*
X0345079Y0309325D02*
D03*
X0307163Y0255388D02*
D03*
X0303226Y0255388D02*
D03*
X0311844Y0255388D02*
D03*
X0315781Y0255388D02*
D03*
X0308557Y0309325D02*
D03*
X0312494Y0309325D02*
D03*
X0331490Y0287711D02*
D03*
X0335427Y0287711D02*
D03*
X0339266Y0250270D02*
D03*
X0335328Y0250270D02*
D03*
D124*
X0336418Y0296333D02*
D03*
X0325394Y0296333D02*
D03*
D125*
X0303740Y0292010D02*
D03*
X0303740Y0298230D02*
D03*
X0317834Y0292010D02*
D03*
X0317834Y0298230D02*
D03*
X0313143Y0292010D02*
D03*
X0313143Y0298230D02*
D03*
X0308451Y0292010D02*
D03*
X0308451Y0298230D02*
D03*
X0316653Y0304254D02*
D03*
X0316653Y0310475D02*
D03*
D126*
X0312277Y0262148D02*
D03*
X0307277Y0262148D02*
D03*
X0302277Y0262148D02*
D03*
X0297277Y0262148D02*
D03*
X0312277Y0284785D02*
D03*
X0307277Y0284785D02*
D03*
X0302277Y0284785D02*
D03*
X0297277Y0284785D02*
D03*
X0335344Y0256865D02*
D03*
X0330344Y0256865D02*
D03*
X0325344Y0256865D02*
D03*
X0320344Y0256865D02*
D03*
X0335344Y0280290D02*
D03*
X0330344Y0280290D02*
D03*
X0325344Y0280290D02*
D03*
X0320344Y0280290D02*
D03*
D127*
X0304777Y0273466D02*
D03*
D128*
X0327844Y0268577D02*
D03*
X0346457Y0194759D02*
G01*
G75*
D113*
X0381890Y0204995D02*
D03*
X0381890Y0201255D02*
D03*
X0381890Y0197515D02*
D03*
X0347638Y0201452D02*
D03*
X0347638Y0204995D02*
D03*
D131*
X0374410Y0204995D02*
D03*
X0378347Y0204995D02*
D03*
X0363287Y0204995D02*
D03*
X0359350Y0204995D02*
D03*
X0354921Y0204995D02*
D03*
X0350984Y0204995D02*
D03*
X0374410Y0197712D02*
D03*
X0378347Y0197712D02*
D03*
D112*
X0371025Y0197515D02*
D03*
X0371025Y0201058D02*
D03*
D125*
X0367140Y0204228D02*
D03*
X0367140Y0198007D02*
D03*
D111*
X0354528Y0201058D02*
D03*
X0350985Y0201058D02*
D03*
X0362894Y0197515D02*
D03*
X0359351Y0197515D02*
D03*
X0377756Y0201116D02*
D03*
X0374213Y0201116D02*
D03*
X0350985Y0197515D02*
D03*
X0354528Y0197515D02*
D03*
X0287205Y0370349D02*
%LPD*%
G01*
D15*
X0345473Y0397514D03*
X0345473Y0392790D03*
X0345473Y0402239D03*
X0345473Y0406963D03*
X0288681Y0381530D03*
X0288681Y0377593D03*
G36*
G01*
X0304134Y0400943D02*
X0304134Y0399762D01*
G75*
G02*
X0303544Y0399171I-000591J0000000D01*
G01*
X0299508Y0399171D01*
G75*
G02*
X0298918Y0399762I0000000J0000591D01*
G01*
X0298918Y0400943D01*
G75*
G02*
X0299508Y0401533I0000591J0000000D01*
G01*
X0303544Y0401533D01*
G75*
G02*
X0304134Y0400943I0000000J-000591D01*
G01*
G37*
G36*
G01*
X0304134Y0397202D02*
X0304134Y0396021D01*
G75*
G02*
X0303544Y0395431I-000591J0000000D01*
G01*
X0299508Y0395431D01*
G75*
G02*
X0298918Y0396021I0000000J0000591D01*
G01*
X0298918Y0397202D01*
G75*
G02*
X0299508Y0397793I0000591J0000000D01*
G01*
X0303544Y0397793D01*
G75*
G02*
X0304134Y0397202I0000000J-000591D01*
G01*
G37*
G36*
G01*
X0304134Y0393462D02*
X0304134Y0392281D01*
G75*
G02*
X0303544Y0391691I-000591J0000000D01*
G01*
X0299508Y0391691D01*
G75*
G02*
X0298918Y0392281I0000000J0000591D01*
G01*
X0298918Y0393462D01*
G75*
G02*
X0299508Y0394053I0000591J0000000D01*
G01*
X0303544Y0394053D01*
G75*
G02*
X0304134Y0393462I0000000J-000591D01*
G01*
G37*
G36*
G01*
X0295177Y0393462D02*
X0295177Y0392281D01*
G75*
G02*
X0294587Y0391691I-000591J0000000D01*
G01*
X0290551Y0391691D01*
G75*
G02*
X0289961Y0392281I0000000J0000591D01*
G01*
X0289961Y0393462D01*
G75*
G02*
X0290551Y0394053I0000591J0000000D01*
G01*
X0294587Y0394053D01*
G75*
G02*
X0295177Y0393462I0000000J-000591D01*
G01*
G37*
G36*
G01*
X0295177Y0400943D02*
X0295177Y0399762D01*
G75*
G02*
X0294587Y0399171I-000591J0000000D01*
G01*
X0290551Y0399171D01*
G75*
G02*
X0289961Y0399762I0000000J0000591D01*
G01*
X0289961Y0400943D01*
G75*
G02*
X0290551Y0401533I0000591J0000000D01*
G01*
X0294587Y0401533D01*
G75*
G02*
X0295177Y0400943I0000000J-000591D01*
G01*
G37*
G36*
G01*
X0303859Y0378656D02*
X0305197Y0378656D01*
G75*
G02*
X0305748Y0378105I0000000J-000551D01*
G01*
X0305748Y0377003D01*
G75*
G02*
X0305197Y0376451I-000551J0000000D01*
G01*
X0303859Y0376451D01*
G75*
G02*
X0303307Y0377003I0000000J0000551D01*
G01*
X0303307Y0378105D01*
G75*
G02*
X0303859Y0378656I0000551J0000000D01*
G01*
G37*
G36*
G01*
X0303859Y0374877D02*
X0305197Y0374877D01*
G75*
G02*
X0305748Y0374325I0000000J-000551D01*
G01*
X0305748Y0373223D01*
G75*
G02*
X0305197Y0372672I-000551J0000000D01*
G01*
X0303859Y0372672D01*
G75*
G02*
X0303307Y0373223I0000000J0000551D01*
G01*
X0303307Y0374325D01*
G75*
G02*
X0303859Y0374877I0000551J0000000D01*
G01*
G37*
G36*
G01*
X0330374Y0401373D02*
X0330374Y0402711D01*
G75*
G02*
X0330925Y0403262I0000551J0000000D01*
G01*
X0332028Y0403262D01*
G75*
G02*
X0332579Y0402711I0000000J-000551D01*
G01*
X0332579Y0401373D01*
G75*
G02*
X0332028Y0400821I-000551J0000000D01*
G01*
X0330925Y0400821D01*
G75*
G02*
X0330374Y0401373I0000000J0000551D01*
G01*
G37*
G36*
G01*
X0334154Y0401373D02*
X0334154Y0402711D01*
G75*
G02*
X0334705Y0403262I0000551J0000000D01*
G01*
X0335807Y0403262D01*
G75*
G02*
X0336359Y0402711I0000000J-000551D01*
G01*
X0336359Y0401373D01*
G75*
G02*
X0335807Y0400821I-000551J0000000D01*
G01*
X0334705Y0400821D01*
G75*
G02*
X0334154Y0401373I0000000J0000551D01*
G01*
G37*
G36*
G01*
X0343721Y0406373D02*
X0343721Y0405034D01*
G75*
G02*
X0343170Y0404483I-000551J0000000D01*
G01*
X0342067Y0404483D01*
G75*
G02*
X0341516Y0405034I0000000J0000551D01*
G01*
X0341516Y0406373D01*
G75*
G02*
X0342067Y0406924I0000551J0000000D01*
G01*
X0343170Y0406924D01*
G75*
G02*
X0343721Y0406373I0000000J-000551D01*
G01*
G37*
G36*
G01*
X0339941Y0406373D02*
X0339941Y0405034D01*
G75*
G02*
X0339390Y0404483I-000551J0000000D01*
G01*
X0338288Y0404483D01*
G75*
G02*
X0337736Y0405034I0000000J0000551D01*
G01*
X0337736Y0406373D01*
G75*
G02*
X0338288Y0406924I0000551J0000000D01*
G01*
X0339390Y0406924D01*
G75*
G02*
X0339941Y0406373I0000000J-000551D01*
G01*
G37*
G36*
G01*
X0321969Y0397632D02*
X0321969Y0398971D01*
G75*
G02*
X0322520Y0399522I0000551J0000000D01*
G01*
X0323622Y0399522D01*
G75*
G02*
X0324174Y0398971I0000000J-000551D01*
G01*
X0324174Y0397632D01*
G75*
G02*
X0323622Y0397081I-000551J0000000D01*
G01*
X0322520Y0397081D01*
G75*
G02*
X0321969Y0397632I0000000J0000551D01*
G01*
G37*
G36*
G01*
X0325748Y0397632D02*
X0325748Y0398971D01*
G75*
G02*
X0326299Y0399522I0000551J0000000D01*
G01*
X0327402Y0399522D01*
G75*
G02*
X0327953Y0398971I0000000J-000551D01*
G01*
X0327953Y0397632D01*
G75*
G02*
X0327402Y0397081I-000551J0000000D01*
G01*
X0326299Y0397081D01*
G75*
G02*
X0325748Y0397632I0000000J0000551D01*
G01*
G37*
G36*
G01*
X0343524Y0402711D02*
X0343524Y0401373D01*
G75*
G02*
X0342973Y0400821I-000551J0000000D01*
G01*
X0341870Y0400821D01*
G75*
G02*
X0341319Y0401373I0000000J0000551D01*
G01*
X0341319Y0402711D01*
G75*
G02*
X0341870Y0403262I0000551J0000000D01*
G01*
X0342973Y0403262D01*
G75*
G02*
X0343524Y0402711I0000000J-000551D01*
G01*
G37*
G36*
G01*
X0339744Y0402711D02*
X0339744Y0401373D01*
G75*
G02*
X0339193Y0400821I-000551J0000000D01*
G01*
X0338091Y0400821D01*
G75*
G02*
X0337540Y0401373I0000000J0000551D01*
G01*
X0337540Y0402711D01*
G75*
G02*
X0338091Y0403262I0000551J0000000D01*
G01*
X0339193Y0403262D01*
G75*
G02*
X0339744Y0402711I0000000J-000551D01*
G01*
G37*
G36*
G01*
X0338248Y0381195D02*
X0338248Y0382534D01*
G75*
G02*
X0338799Y0383085I0000551J0000000D01*
G01*
X0339902Y0383085D01*
G75*
G02*
X0340453Y0382534I0000000J-000551D01*
G01*
X0340453Y0381195D01*
G75*
G02*
X0339902Y0380644I-000551J0000000D01*
G01*
X0338799Y0380644D01*
G75*
G02*
X0338248Y0381195I0000000J0000551D01*
G01*
G37*
G36*
G01*
X0342028Y0381195D02*
X0342028Y0382534D01*
G75*
G02*
X0342579Y0383085I0000551J0000000D01*
G01*
X0343681Y0383085D01*
G75*
G02*
X0344233Y0382534I0000000J-000551D01*
G01*
X0344233Y0381195D01*
G75*
G02*
X0343681Y0380644I-000551J0000000D01*
G01*
X0342579Y0380644D01*
G75*
G02*
X0342028Y0381195I0000000J0000551D01*
G01*
G37*
G36*
G01*
X0307739Y0373695D02*
X0307739Y0374483D01*
G75*
G02*
X0308133Y0374877I0000394J0000000D01*
G01*
X0313153Y0374877D01*
G75*
G02*
X0313546Y0374483I0000000J-000394D01*
G01*
X0313546Y0373695D01*
G75*
G02*
X0313153Y0373302I-000394J0000000D01*
G01*
X0308133Y0373302D01*
G75*
G02*
X0307739Y0373695I0000000J0000394D01*
G01*
G37*
G36*
G01*
X0307739Y0376255D02*
X0307739Y0377042D01*
G75*
G02*
X0308133Y0377436I0000394J0000000D01*
G01*
X0313153Y0377436D01*
G75*
G02*
X0313546Y0377042I0000000J-000394D01*
G01*
X0313546Y0376255D01*
G75*
G02*
X0313153Y0375861I-000394J0000000D01*
G01*
X0308133Y0375861D01*
G75*
G02*
X0307739Y0376255I0000000J0000394D01*
G01*
G37*
G36*
G01*
X0307739Y0378814D02*
X0307739Y0379601D01*
G75*
G02*
X0308133Y0379995I0000394J0000000D01*
G01*
X0313153Y0379995D01*
G75*
G02*
X0313546Y0379601I0000000J-000394D01*
G01*
X0313546Y0378814D01*
G75*
G02*
X0313153Y0378420I-000394J0000000D01*
G01*
X0308133Y0378420D01*
G75*
G02*
X0307739Y0378814I0000000J0000394D01*
G01*
G37*
G36*
G01*
X0307739Y0381373D02*
X0307739Y0382160D01*
G75*
G02*
X0308133Y0382554I0000394J0000000D01*
G01*
X0313153Y0382554D01*
G75*
G02*
X0313546Y0382160I0000000J-000394D01*
G01*
X0313546Y0381373D01*
G75*
G02*
X0313153Y0380979I-000394J0000000D01*
G01*
X0308133Y0380979D01*
G75*
G02*
X0307739Y0381373I0000000J0000394D01*
G01*
G37*
G36*
G01*
X0307739Y0383932D02*
X0307739Y0384719D01*
G75*
G02*
X0308133Y0385113I0000394J0000000D01*
G01*
X0313153Y0385113D01*
G75*
G02*
X0313546Y0384719I0000000J-000394D01*
G01*
X0313546Y0383932D01*
G75*
G02*
X0313153Y0383538I-000394J0000000D01*
G01*
X0308133Y0383538D01*
G75*
G02*
X0307739Y0383932I0000000J0000394D01*
G01*
G37*
G36*
G01*
X0307739Y0386491D02*
X0307739Y0387278D01*
G75*
G02*
X0308133Y0387672I0000394J0000000D01*
G01*
X0313153Y0387672D01*
G75*
G02*
X0313546Y0387278I0000000J-000394D01*
G01*
X0313546Y0386491D01*
G75*
G02*
X0313153Y0386097I-000394J0000000D01*
G01*
X0308133Y0386097D01*
G75*
G02*
X0307739Y0386491I0000000J0000394D01*
G01*
G37*
G36*
G01*
X0307739Y0389050D02*
X0307739Y0389837D01*
G75*
G02*
X0308133Y0390231I0000394J0000000D01*
G01*
X0313153Y0390231D01*
G75*
G02*
X0313546Y0389837I0000000J-000394D01*
G01*
X0313546Y0389050D01*
G75*
G02*
X0313153Y0388656I-000394J0000000D01*
G01*
X0308133Y0388656D01*
G75*
G02*
X0307739Y0389050I0000000J0000394D01*
G01*
G37*
G36*
G01*
X0330279Y0389050D02*
X0330279Y0389837D01*
G75*
G02*
X0330672Y0390231I0000394J0000000D01*
G01*
X0335692Y0390231D01*
G75*
G02*
X0336086Y0389837I0000000J-000394D01*
G01*
X0336086Y0389050D01*
G75*
G02*
X0335692Y0388656I-000394J0000000D01*
G01*
X0330672Y0388656D01*
G75*
G02*
X0330279Y0389050I0000000J0000394D01*
G01*
G37*
G36*
G01*
X0330279Y0386491D02*
X0330279Y0387278D01*
G75*
G02*
X0330672Y0387672I0000394J0000000D01*
G01*
X0335692Y0387672D01*
G75*
G02*
X0336086Y0387278I0000000J-000394D01*
G01*
X0336086Y0386491D01*
G75*
G02*
X0335692Y0386097I-000394J0000000D01*
G01*
X0330672Y0386097D01*
G75*
G02*
X0330279Y0386491I0000000J0000394D01*
G01*
G37*
G36*
G01*
X0330279Y0383932D02*
X0330279Y0384719D01*
G75*
G02*
X0330672Y0385113I0000394J0000000D01*
G01*
X0335692Y0385113D01*
G75*
G02*
X0336086Y0384719I0000000J-000394D01*
G01*
X0336086Y0383932D01*
G75*
G02*
X0335692Y0383538I-000394J0000000D01*
G01*
X0330672Y0383538D01*
G75*
G02*
X0330279Y0383932I0000000J0000394D01*
G01*
G37*
G36*
G01*
X0330279Y0381373D02*
X0330279Y0382160D01*
G75*
G02*
X0330672Y0382554I0000394J0000000D01*
G01*
X0335692Y0382554D01*
G75*
G02*
X0336086Y0382160I0000000J-000394D01*
G01*
X0336086Y0381373D01*
G75*
G02*
X0335692Y0380979I-000394J0000000D01*
G01*
X0330672Y0380979D01*
G75*
G02*
X0330279Y0381373I0000000J0000394D01*
G01*
G37*
G36*
G01*
X0330279Y0378814D02*
X0330279Y0379601D01*
G75*
G02*
X0330672Y0379995I0000394J0000000D01*
G01*
X0335692Y0379995D01*
G75*
G02*
X0336086Y0379601I0000000J-000394D01*
G01*
X0336086Y0378814D01*
G75*
G02*
X0335692Y0378420I-000394J0000000D01*
G01*
X0330672Y0378420D01*
G75*
G02*
X0330279Y0378814I0000000J0000394D01*
G01*
G37*
G36*
G01*
X0330279Y0376255D02*
X0330279Y0377042D01*
G75*
G02*
X0330672Y0377436I0000394J0000000D01*
G01*
X0335692Y0377436D01*
G75*
G02*
X0336086Y0377042I0000000J-000394D01*
G01*
X0336086Y0376255D01*
G75*
G02*
X0335692Y0375861I-000394J0000000D01*
G01*
X0330672Y0375861D01*
G75*
G02*
X0330279Y0376255I0000000J0000394D01*
G01*
G37*
G36*
G01*
X0330279Y0373695D02*
X0330279Y0374483D01*
G75*
G02*
X0330672Y0374877I0000394J0000000D01*
G01*
X0335692Y0374877D01*
G75*
G02*
X0336086Y0374483I0000000J-000394D01*
G01*
X0336086Y0373695D01*
G75*
G02*
X0335692Y0373302I-000394J0000000D01*
G01*
X0330672Y0373302D01*
G75*
G02*
X0330279Y0373695I0000000J0000394D01*
G01*
G37*
G36*
G01*
X0290096Y0381566D02*
X0290096Y0385109D01*
G75*
G02*
X0291080Y0386093I0000984J0000000D01*
G01*
X0293147Y0386093D01*
G75*
G02*
X0294131Y0385109I0000000J-000984D01*
G01*
X0294131Y0381566D01*
G75*
G02*
X0293147Y0380581I-000984J0000000D01*
G01*
X0291080Y0380581D01*
G75*
G02*
X0290096Y0381566I0000000J0000984D01*
G01*
G37*
G36*
G01*
X0297281Y0381566D02*
X0297281Y0385109D01*
G75*
G02*
X0298265Y0386093I0000984J0000000D01*
G01*
X0300332Y0386093D01*
G75*
G02*
X0301316Y0385109I0000000J-000984D01*
G01*
X0301316Y0381566D01*
G75*
G02*
X0300332Y0380581I-000984J0000000D01*
G01*
X0298265Y0380581D01*
G75*
G02*
X0297281Y0381566I0000000J0000984D01*
G01*
G37*
G36*
G01*
X0336339Y0395290D02*
X0336339Y0393833D01*
G75*
G02*
X0335807Y0393302I-000531J0000000D01*
G01*
X0334744Y0393302D01*
G75*
G02*
X0334213Y0393833I0000000J0000531D01*
G01*
X0334213Y0395290D01*
G75*
G02*
X0334744Y0395821I0000531J0000000D01*
G01*
X0335807Y0395821D01*
G75*
G02*
X0336339Y0395290I0000000J-000531D01*
G01*
G37*
G36*
G01*
X0332323Y0395290D02*
X0332323Y0393833D01*
G75*
G02*
X0331792Y0393302I-000531J0000000D01*
G01*
X0330729Y0393302D01*
G75*
G02*
X0330197Y0393833I0000000J0000531D01*
G01*
X0330197Y0395290D01*
G75*
G02*
X0330729Y0395821I0000531J0000000D01*
G01*
X0331792Y0395821D01*
G75*
G02*
X0332323Y0395290I0000000J-000531D01*
G01*
G37*
G36*
G01*
X0295906Y0406215D02*
X0295906Y0404877D01*
G75*
G02*
X0295355Y0404325I-000551J0000000D01*
G01*
X0294252Y0404325D01*
G75*
G02*
X0293701Y0404877I0000000J0000551D01*
G01*
X0293701Y0406215D01*
G75*
G02*
X0294252Y0406766I0000551J0000000D01*
G01*
X0295355Y0406766D01*
G75*
G02*
X0295906Y0406215I0000000J-000551D01*
G01*
G37*
G36*
G01*
X0292126Y0406215D02*
X0292126Y0404877D01*
G75*
G02*
X0291575Y0404325I-000551J0000000D01*
G01*
X0290473Y0404325D01*
G75*
G02*
X0289922Y0404877I0000000J0000551D01*
G01*
X0289922Y0406215D01*
G75*
G02*
X0290473Y0406766I0000551J0000000D01*
G01*
X0291575Y0406766D01*
G75*
G02*
X0292126Y0406215I0000000J-000551D01*
G01*
G37*
G36*
G01*
X0344016Y0399030D02*
X0344016Y0397573D01*
G75*
G02*
X0343485Y0397042I-000531J0000000D01*
G01*
X0342422Y0397042D01*
G75*
G02*
X0341890Y0397573I0000000J0000531D01*
G01*
X0341890Y0399030D01*
G75*
G02*
X0342422Y0399562I0000531J0000000D01*
G01*
X0343485Y0399562D01*
G75*
G02*
X0344016Y0399030I0000000J-000531D01*
G01*
G37*
G36*
G01*
X0340000Y0399030D02*
X0340000Y0397573D01*
G75*
G02*
X0339469Y0397042I-000531J0000000D01*
G01*
X0338406Y0397042D01*
G75*
G02*
X0337874Y0397573I0000000J0000531D01*
G01*
X0337874Y0399030D01*
G75*
G02*
X0338406Y0399562I0000531J0000000D01*
G01*
X0339469Y0399562D01*
G75*
G02*
X0340000Y0399030I0000000J-000531D01*
G01*
G37*
G36*
G01*
X0328083Y0395290D02*
X0328083Y0393834D01*
G75*
G02*
X0327551Y0393302I-000531J0000000D01*
G01*
X0326488Y0393302D01*
G75*
G02*
X0325957Y0393834I0000000J0000531D01*
G01*
X0325957Y0395290D01*
G75*
G02*
X0326488Y0395822I0000531J0000000D01*
G01*
X0327551Y0395822D01*
G75*
G02*
X0328083Y0395290I0000000J-000531D01*
G01*
G37*
G36*
G01*
X0324067Y0395290D02*
X0324067Y0393834D01*
G75*
G02*
X0323535Y0393302I-000531J0000000D01*
G01*
X0322472Y0393302D01*
G75*
G02*
X0321941Y0393834I0000000J0000531D01*
G01*
X0321941Y0395290D01*
G75*
G02*
X0322472Y0395822I0000531J0000000D01*
G01*
X0323535Y0395822D01*
G75*
G02*
X0324067Y0395290I0000000J-000531D01*
G01*
G37*
G36*
G01*
X0301316Y0377534D02*
X0301316Y0373991D01*
G75*
G02*
X0300332Y0373006I-000984J0000000D01*
G01*
X0298265Y0373006D01*
G75*
G02*
X0297281Y0373991I0000000J0000984D01*
G01*
X0297281Y0377534D01*
G75*
G02*
X0298265Y0378518I0000984J0000000D01*
G01*
X0300332Y0378518D01*
G75*
G02*
X0301316Y0377534I0000000J-000984D01*
G01*
G37*
G36*
G01*
X0294131Y0377534D02*
X0294131Y0373991D01*
G75*
G02*
X0293147Y0373006I-000984J0000000D01*
G01*
X0291080Y0373006D01*
G75*
G02*
X0290096Y0373991I0000000J0000984D01*
G01*
X0290096Y0377534D01*
G75*
G02*
X0291080Y0378518I0000984J0000000D01*
G01*
X0293147Y0378518D01*
G75*
G02*
X0294131Y0377534I0000000J-000984D01*
G01*
G37*
G36*
G01*
X0328032Y0406432D02*
X0328032Y0404975D01*
G75*
G02*
X0327500Y0404443I-000531J0000000D01*
G01*
X0326437Y0404443D01*
G75*
G02*
X0325906Y0404975I0000000J0000531D01*
G01*
X0325906Y0406432D01*
G75*
G02*
X0326437Y0406963I0000531J0000000D01*
G01*
X0327500Y0406963D01*
G75*
G02*
X0328032Y0406432I0000000J-000531D01*
G01*
G37*
G36*
G01*
X0324016Y0406432D02*
X0324016Y0404975D01*
G75*
G02*
X0323485Y0404443I-000531J0000000D01*
G01*
X0322422Y0404443D01*
G75*
G02*
X0321890Y0404975I0000000J0000531D01*
G01*
X0321890Y0406432D01*
G75*
G02*
X0322422Y0406963I0000531J0000000D01*
G01*
X0323485Y0406963D01*
G75*
G02*
X0324016Y0406432I0000000J-000531D01*
G01*
G37*
G36*
G01*
X0337717Y0372928D02*
X0337717Y0374384D01*
G75*
G02*
X0338248Y0374916I0000531J0000000D01*
G01*
X0339311Y0374916D01*
G75*
G02*
X0339843Y0374384I0000000J-000531D01*
G01*
X0339843Y0372928D01*
G75*
G02*
X0339311Y0372396I-000531J0000000D01*
G01*
X0338248Y0372396D01*
G75*
G02*
X0337717Y0372928I0000000J0000531D01*
G01*
G37*
G36*
G01*
X0341733Y0372928D02*
X0341733Y0374384D01*
G75*
G02*
X0342264Y0374916I0000531J0000000D01*
G01*
X0343327Y0374916D01*
G75*
G02*
X0343859Y0374384I0000000J-000531D01*
G01*
X0343859Y0372928D01*
G75*
G02*
X0343327Y0372396I-000531J0000000D01*
G01*
X0342264Y0372396D01*
G75*
G02*
X0341733Y0372928I0000000J0000531D01*
G01*
G37*
G36*
G01*
X0338170Y0384877D02*
X0338170Y0386333D01*
G75*
G02*
X0338701Y0386865I0000531J0000000D01*
G01*
X0339764Y0386865D01*
G75*
G02*
X0340296Y0386333I0000000J-000531D01*
G01*
X0340296Y0384877D01*
G75*
G02*
X0339764Y0384345I-000531J0000000D01*
G01*
X0338701Y0384345D01*
G75*
G02*
X0338170Y0384877I0000000J0000531D01*
G01*
G37*
G36*
G01*
X0342185Y0384877D02*
X0342185Y0386333D01*
G75*
G02*
X0342717Y0386865I0000531J0000000D01*
G01*
X0343780Y0386865D01*
G75*
G02*
X0344311Y0386333I0000000J-000531D01*
G01*
X0344311Y0384877D01*
G75*
G02*
X0343780Y0384345I-000531J0000000D01*
G01*
X0342717Y0384345D01*
G75*
G02*
X0342185Y0384877I0000000J0000531D01*
G01*
G37*
G36*
G01*
X0336634Y0399030D02*
X0336634Y0397573D01*
G75*
G02*
X0336103Y0397042I-000531J0000000D01*
G01*
X0335040Y0397042D01*
G75*
G02*
X0334508Y0397573I0000000J0000531D01*
G01*
X0334508Y0399030D01*
G75*
G02*
X0335040Y0399562I0000531J0000000D01*
G01*
X0336103Y0399562D01*
G75*
G02*
X0336634Y0399030I0000000J-000531D01*
G01*
G37*
G36*
G01*
X0332618Y0399030D02*
X0332618Y0397573D01*
G75*
G02*
X0332087Y0397042I-000531J0000000D01*
G01*
X0331024Y0397042D01*
G75*
G02*
X0330492Y0397573I0000000J0000531D01*
G01*
X0330492Y0399030D01*
G75*
G02*
X0331024Y0399562I0000531J0000000D01*
G01*
X0332087Y0399562D01*
G75*
G02*
X0332618Y0399030I0000000J-000531D01*
G01*
G37*
G36*
G01*
X0344331Y0390113D02*
X0344331Y0388774D01*
G75*
G02*
X0343780Y0388223I-000551J0000000D01*
G01*
X0342677Y0388223D01*
G75*
G02*
X0342126Y0388774I0000000J0000551D01*
G01*
X0342126Y0390113D01*
G75*
G02*
X0342677Y0390664I0000551J0000000D01*
G01*
X0343780Y0390664D01*
G75*
G02*
X0344331Y0390113I0000000J-000551D01*
G01*
G37*
G36*
G01*
X0340551Y0390113D02*
X0340551Y0388774D01*
G75*
G02*
X0340000Y0388223I-000551J0000000D01*
G01*
X0338898Y0388223D01*
G75*
G02*
X0338347Y0388774I0000000J0000551D01*
G01*
X0338347Y0390113D01*
G75*
G02*
X0338898Y0390664I0000551J0000000D01*
G01*
X0340000Y0390664D01*
G75*
G02*
X0340551Y0390113I0000000J-000551D01*
G01*
G37*
G36*
G01*
X0305183Y0379898D02*
X0303845Y0379898D01*
G75*
G02*
X0303293Y0380449I0000000J0000551D01*
G01*
X0303293Y0381551D01*
G75*
G02*
X0303845Y0382103I0000551J0000000D01*
G01*
X0305183Y0382103D01*
G75*
G02*
X0305734Y0381551I0000000J-000551D01*
G01*
X0305734Y0380449D01*
G75*
G02*
X0305183Y0379898I-000551J0000000D01*
G01*
G37*
G36*
G01*
X0305183Y0383677D02*
X0303845Y0383677D01*
G75*
G02*
X0303293Y0384228I0000000J0000551D01*
G01*
X0303293Y0385331D01*
G75*
G02*
X0303845Y0385882I0000551J0000000D01*
G01*
X0305183Y0385882D01*
G75*
G02*
X0305734Y0385331I0000000J-000551D01*
G01*
X0305734Y0384228D01*
G75*
G02*
X0305183Y0383677I-000551J0000000D01*
G01*
G37*
G36*
G01*
X0337677Y0393833D02*
X0337677Y0395290D01*
G75*
G02*
X0338209Y0395821I0000531J0000000D01*
G01*
X0339272Y0395821D01*
G75*
G02*
X0339803Y0395290I0000000J-000531D01*
G01*
X0339803Y0393833D01*
G75*
G02*
X0339272Y0393302I-000531J0000000D01*
G01*
X0338209Y0393302D01*
G75*
G02*
X0337677Y0393833I0000000J0000531D01*
G01*
G37*
G36*
G01*
X0341693Y0393833D02*
X0341693Y0395290D01*
G75*
G02*
X0342225Y0395821I0000531J0000000D01*
G01*
X0343288Y0395821D01*
G75*
G02*
X0343819Y0395290I0000000J-000531D01*
G01*
X0343819Y0393833D01*
G75*
G02*
X0343288Y0393302I-000531J0000000D01*
G01*
X0342225Y0393302D01*
G75*
G02*
X0341693Y0393833I0000000J0000531D01*
G01*
G37*
G36*
G01*
X0320276Y0405192D02*
X0320276Y0404010D01*
G75*
G02*
X0319685Y0403420I-000591J0000000D01*
G01*
X0315650Y0403420D01*
G75*
G02*
X0315059Y0404010I0000000J0000591D01*
G01*
X0315059Y0405192D01*
G75*
G02*
X0315650Y0405782I0000591J0000000D01*
G01*
X0319685Y0405782D01*
G75*
G02*
X0320276Y0405192I0000000J-000591D01*
G01*
G37*
G36*
G01*
X0320276Y0401451D02*
X0320276Y0400270D01*
G75*
G02*
X0319685Y0399680I-000591J0000000D01*
G01*
X0315650Y0399680D01*
G75*
G02*
X0315059Y0400270I0000000J0000591D01*
G01*
X0315059Y0401451D01*
G75*
G02*
X0315650Y0402042I0000591J0000000D01*
G01*
X0319685Y0402042D01*
G75*
G02*
X0320276Y0401451I0000000J-000591D01*
G01*
G37*
G36*
G01*
X0320276Y0397711D02*
X0320276Y0396530D01*
G75*
G02*
X0319685Y0395940I-000591J0000000D01*
G01*
X0315650Y0395940D01*
G75*
G02*
X0315059Y0396530I0000000J0000591D01*
G01*
X0315059Y0397711D01*
G75*
G02*
X0315650Y0398302I0000591J0000000D01*
G01*
X0319685Y0398302D01*
G75*
G02*
X0320276Y0397711I0000000J-000591D01*
G01*
G37*
G36*
G01*
X0311319Y0397711D02*
X0311319Y0396530D01*
G75*
G02*
X0310729Y0395940I-000591J0000000D01*
G01*
X0306693Y0395940D01*
G75*
G02*
X0306103Y0396530I0000000J0000591D01*
G01*
X0306103Y0397711D01*
G75*
G02*
X0306693Y0398302I0000591J0000000D01*
G01*
X0310729Y0398302D01*
G75*
G02*
X0311319Y0397711I0000000J-000591D01*
G01*
G37*
G36*
G01*
X0311319Y0405192D02*
X0311319Y0404010D01*
G75*
G02*
X0310729Y0403420I-000591J0000000D01*
G01*
X0306693Y0403420D01*
G75*
G02*
X0306103Y0404010I0000000J0000591D01*
G01*
X0306103Y0405192D01*
G75*
G02*
X0306693Y0405782I0000591J0000000D01*
G01*
X0310729Y0405782D01*
G75*
G02*
X0311319Y0405192I0000000J-000591D01*
G01*
G37*
G36*
G01*
X0321969Y0401373D02*
X0321969Y0402711D01*
G75*
G02*
X0322520Y0403262I0000551J0000000D01*
G01*
X0323622Y0403262D01*
G75*
G02*
X0324174Y0402711I0000000J-000551D01*
G01*
X0324174Y0401373D01*
G75*
G02*
X0323622Y0400821I-000551J0000000D01*
G01*
X0322520Y0400821D01*
G75*
G02*
X0321969Y0401373I0000000J0000551D01*
G01*
G37*
G36*
G01*
X0325748Y0401373D02*
X0325748Y0402711D01*
G75*
G02*
X0326299Y0403262I0000551J0000000D01*
G01*
X0327402Y0403262D01*
G75*
G02*
X0327953Y0402711I0000000J-000551D01*
G01*
X0327953Y0401373D01*
G75*
G02*
X0327402Y0400821I-000551J0000000D01*
G01*
X0326299Y0400821D01*
G75*
G02*
X0325748Y0401373I0000000J0000551D01*
G01*
G37*
X0287205Y0326845D02*
%LPD*%
G01*
D15*
X0345473Y0354010D03*
X0345473Y0349286D03*
X0345473Y0358735D03*
X0345473Y0363459D03*
X0288681Y0338026D03*
X0288681Y0334089D03*
X0287205Y0168381D02*
%LPD*%
G01*
G36*
G01*
X0297835Y0185546D02*
X0294764Y0185546D01*
G75*
G02*
X0294488Y0185822I0000000J0000276D01*
G01*
X0294488Y0188027D01*
G75*
G02*
X0294764Y0188302I0000276J0000000D01*
G01*
X0297835Y0188302D01*
G75*
G02*
X0298111Y0188027I0000000J-000276D01*
G01*
X0298111Y0185822D01*
G75*
G02*
X0297835Y0185546I-000276J0000000D01*
G01*
G37*
G36*
G01*
X0297835Y0191846D02*
X0294764Y0191846D01*
G75*
G02*
X0294488Y0192121I0000000J0000276D01*
G01*
X0294488Y0194326D01*
G75*
G02*
X0294764Y0194601I0000276J0000000D01*
G01*
X0297835Y0194601D01*
G75*
G02*
X0298111Y0194326I0000000J-000276D01*
G01*
X0298111Y0192121D01*
G75*
G02*
X0297835Y0191846I-000276J0000000D01*
G01*
G37*
G36*
G01*
X0294764Y0206412D02*
X0297835Y0206412D01*
G75*
G02*
X0298111Y0206137I0000000J-000276D01*
G01*
X0298111Y0203932D01*
G75*
G02*
X0297835Y0203657I-000276J0000000D01*
G01*
X0294764Y0203657D01*
G75*
G02*
X0294488Y0203932I0000000J0000276D01*
G01*
X0294488Y0206137D01*
G75*
G02*
X0294764Y0206412I0000276J0000000D01*
G01*
G37*
G36*
G01*
X0294764Y0200113D02*
X0297835Y0200113D01*
G75*
G02*
X0298111Y0199838I0000000J-000276D01*
G01*
X0298111Y0197633D01*
G75*
G02*
X0297835Y0197357I-000276J0000000D01*
G01*
X0294764Y0197357D01*
G75*
G02*
X0294488Y0197633I0000000J0000276D01*
G01*
X0294488Y0199838D01*
G75*
G02*
X0294764Y0200113I0000276J0000000D01*
G01*
G37*
G36*
G01*
X0314016Y0203558D02*
X0314016Y0199424D01*
G75*
G02*
X0313622Y0199031I-000394J0000000D01*
G01*
X0310473Y0199031D01*
G75*
G02*
X0310079Y0199424I0000000J0000394D01*
G01*
X0310079Y0203558D01*
G75*
G02*
X0310473Y0203952I0000394J0000000D01*
G01*
X0313622Y0203952D01*
G75*
G02*
X0314016Y0203558I0000000J-000394D01*
G01*
G37*
G36*
G01*
X0306142Y0203558D02*
X0306142Y0199424D01*
G75*
G02*
X0305748Y0199031I-000394J0000000D01*
G01*
X0302599Y0199031D01*
G75*
G02*
X0302205Y0199424I0000000J0000394D01*
G01*
X0302205Y0203558D01*
G75*
G02*
X0302599Y0203952I0000394J0000000D01*
G01*
X0305748Y0203952D01*
G75*
G02*
X0306142Y0203558I0000000J-000394D01*
G01*
G37*
G36*
G01*
X0317166Y0185251D02*
X0317166Y0189385D01*
G75*
G02*
X0317559Y0189779I0000394J0000000D01*
G01*
X0320709Y0189779D01*
G75*
G02*
X0321103Y0189385I0000000J-000394D01*
G01*
X0321103Y0185251D01*
G75*
G02*
X0320709Y0184857I-000394J0000000D01*
G01*
X0317559Y0184857D01*
G75*
G02*
X0317166Y0185251I0000000J0000394D01*
G01*
G37*
G36*
G01*
X0325040Y0185251D02*
X0325040Y0189385D01*
G75*
G02*
X0325433Y0189779I0000394J0000000D01*
G01*
X0328583Y0189779D01*
G75*
G02*
X0328977Y0189385I0000000J-000394D01*
G01*
X0328977Y0185251D01*
G75*
G02*
X0328583Y0184857I-000394J0000000D01*
G01*
X0325433Y0184857D01*
G75*
G02*
X0325040Y0185251I0000000J0000394D01*
G01*
G37*
G36*
G01*
X0289055Y0183046D02*
X0291733Y0183046D01*
G75*
G02*
X0292067Y0182712I0000000J-000335D01*
G01*
X0292067Y0180035D01*
G75*
G02*
X0291733Y0179700I-000335J0000000D01*
G01*
X0289055Y0179700D01*
G75*
G02*
X0288721Y0180035I0000000J0000335D01*
G01*
X0288721Y0182712D01*
G75*
G02*
X0289055Y0183046I0000335J0000000D01*
G01*
G37*
G36*
G01*
X0289055Y0176826D02*
X0291733Y0176826D01*
G75*
G02*
X0292067Y0176491I0000000J-000335D01*
G01*
X0292067Y0173814D01*
G75*
G02*
X0291733Y0173479I-000335J0000000D01*
G01*
X0289055Y0173479D01*
G75*
G02*
X0288721Y0173814I0000000J0000335D01*
G01*
X0288721Y0176491D01*
G75*
G02*
X0289055Y0176826I0000335J0000000D01*
G01*
G37*
G36*
G01*
X0333150Y0180979D02*
X0335827Y0180979D01*
G75*
G02*
X0336162Y0180645I0000000J-000335D01*
G01*
X0336162Y0177968D01*
G75*
G02*
X0335827Y0177633I-000335J0000000D01*
G01*
X0333150Y0177633D01*
G75*
G02*
X0332815Y0177968I0000000J0000335D01*
G01*
X0332815Y0180645D01*
G75*
G02*
X0333150Y0180979I0000335J0000000D01*
G01*
G37*
G36*
G01*
X0333150Y0174759D02*
X0335827Y0174759D01*
G75*
G02*
X0336162Y0174424I0000000J-000335D01*
G01*
X0336162Y0171747D01*
G75*
G02*
X0335827Y0171412I-000335J0000000D01*
G01*
X0333150Y0171412D01*
G75*
G02*
X0332815Y0171747I0000000J0000335D01*
G01*
X0332815Y0174424D01*
G75*
G02*
X0333150Y0174759I0000335J0000000D01*
G01*
G37*
G36*
G01*
X0314016Y0196472D02*
X0314016Y0192338D01*
G75*
G02*
X0313622Y0191944I-000394J0000000D01*
G01*
X0310473Y0191944D01*
G75*
G02*
X0310079Y0192338I0000000J0000394D01*
G01*
X0310079Y0196472D01*
G75*
G02*
X0310473Y0196865I0000394J0000000D01*
G01*
X0313622Y0196865D01*
G75*
G02*
X0314016Y0196472I0000000J-000394D01*
G01*
G37*
G36*
G01*
X0306142Y0196472D02*
X0306142Y0192338D01*
G75*
G02*
X0305748Y0191944I-000394J0000000D01*
G01*
X0302599Y0191944D01*
G75*
G02*
X0302205Y0192338I0000000J0000394D01*
G01*
X0302205Y0196472D01*
G75*
G02*
X0302599Y0196865I0000394J0000000D01*
G01*
X0305748Y0196865D01*
G75*
G02*
X0306142Y0196472I0000000J-000394D01*
G01*
G37*
G36*
G01*
X0317166Y0192338D02*
X0317166Y0196472D01*
G75*
G02*
X0317559Y0196865I0000394J0000000D01*
G01*
X0320709Y0196865D01*
G75*
G02*
X0321103Y0196472I0000000J-000394D01*
G01*
X0321103Y0192338D01*
G75*
G02*
X0320709Y0191944I-000394J0000000D01*
G01*
X0317559Y0191944D01*
G75*
G02*
X0317166Y0192338I0000000J0000394D01*
G01*
G37*
G36*
G01*
X0325040Y0192338D02*
X0325040Y0196472D01*
G75*
G02*
X0325433Y0196865I0000394J0000000D01*
G01*
X0328583Y0196865D01*
G75*
G02*
X0328977Y0196472I0000000J-000394D01*
G01*
X0328977Y0192338D01*
G75*
G02*
X0328583Y0191944I-000394J0000000D01*
G01*
X0325433Y0191944D01*
G75*
G02*
X0325040Y0192338I0000000J0000394D01*
G01*
G37*
G36*
G01*
X0314016Y0182298D02*
X0314016Y0178164D01*
G75*
G02*
X0313622Y0177771I-000394J0000000D01*
G01*
X0310473Y0177771D01*
G75*
G02*
X0310079Y0178164I0000000J0000394D01*
G01*
X0310079Y0182298D01*
G75*
G02*
X0310473Y0182692I0000394J0000000D01*
G01*
X0313622Y0182692D01*
G75*
G02*
X0314016Y0182298I0000000J-000394D01*
G01*
G37*
G36*
G01*
X0306142Y0182298D02*
X0306142Y0178164D01*
G75*
G02*
X0305748Y0177771I-000394J0000000D01*
G01*
X0302599Y0177771D01*
G75*
G02*
X0302205Y0178164I0000000J0000394D01*
G01*
X0302205Y0182298D01*
G75*
G02*
X0302599Y0182692I0000394J0000000D01*
G01*
X0305748Y0182692D01*
G75*
G02*
X0306142Y0182298I0000000J-000394D01*
G01*
G37*
G36*
G01*
X0317166Y0171078D02*
X0317166Y0175212D01*
G75*
G02*
X0317559Y0175605I0000394J0000000D01*
G01*
X0320709Y0175605D01*
G75*
G02*
X0321103Y0175212I0000000J-000394D01*
G01*
X0321103Y0171078D01*
G75*
G02*
X0320709Y0170684I-000394J0000000D01*
G01*
X0317559Y0170684D01*
G75*
G02*
X0317166Y0171078I0000000J0000394D01*
G01*
G37*
G36*
G01*
X0325040Y0171078D02*
X0325040Y0175212D01*
G75*
G02*
X0325433Y0175605I0000394J0000000D01*
G01*
X0328583Y0175605D01*
G75*
G02*
X0328977Y0175212I0000000J-000394D01*
G01*
X0328977Y0171078D01*
G75*
G02*
X0328583Y0170684I-000394J0000000D01*
G01*
X0325433Y0170684D01*
G75*
G02*
X0325040Y0171078I0000000J0000394D01*
G01*
G37*
G36*
G01*
X0294961Y0183046D02*
X0297638Y0183046D01*
G75*
G02*
X0297973Y0182712I0000000J-000335D01*
G01*
X0297973Y0180035D01*
G75*
G02*
X0297638Y0179700I-000335J0000000D01*
G01*
X0294961Y0179700D01*
G75*
G02*
X0294626Y0180035I0000000J0000335D01*
G01*
X0294626Y0182712D01*
G75*
G02*
X0294961Y0183046I0000335J0000000D01*
G01*
G37*
G36*
G01*
X0294961Y0176826D02*
X0297638Y0176826D01*
G75*
G02*
X0297973Y0176491I0000000J-000335D01*
G01*
X0297973Y0173814D01*
G75*
G02*
X0297638Y0173479I-000335J0000000D01*
G01*
X0294961Y0173479D01*
G75*
G02*
X0294626Y0173814I0000000J0000335D01*
G01*
X0294626Y0176491D01*
G75*
G02*
X0294961Y0176826I0000335J0000000D01*
G01*
G37*
G36*
G01*
X0314016Y0175212D02*
X0314016Y0171078D01*
G75*
G02*
X0313622Y0170684I-000394J0000000D01*
G01*
X0310473Y0170684D01*
G75*
G02*
X0310079Y0171078I0000000J0000394D01*
G01*
X0310079Y0175212D01*
G75*
G02*
X0310473Y0175605I0000394J0000000D01*
G01*
X0313622Y0175605D01*
G75*
G02*
X0314016Y0175212I0000000J-000394D01*
G01*
G37*
G36*
G01*
X0306142Y0175212D02*
X0306142Y0171078D01*
G75*
G02*
X0305748Y0170684I-000394J0000000D01*
G01*
X0302599Y0170684D01*
G75*
G02*
X0302205Y0171078I0000000J0000394D01*
G01*
X0302205Y0175212D01*
G75*
G02*
X0302599Y0175605I0000394J0000000D01*
G01*
X0305748Y0175605D01*
G75*
G02*
X0306142Y0175212I0000000J-000394D01*
G01*
G37*
G36*
G01*
X0317166Y0178164D02*
X0317166Y0182298D01*
G75*
G02*
X0317559Y0182692I0000394J0000000D01*
G01*
X0320709Y0182692D01*
G75*
G02*
X0321103Y0182298I0000000J-000394D01*
G01*
X0321103Y0178164D01*
G75*
G02*
X0320709Y0177771I-000394J0000000D01*
G01*
X0317559Y0177771D01*
G75*
G02*
X0317166Y0178164I0000000J0000394D01*
G01*
G37*
G36*
G01*
X0325040Y0178164D02*
X0325040Y0182298D01*
G75*
G02*
X0325433Y0182692I0000394J0000000D01*
G01*
X0328583Y0182692D01*
G75*
G02*
X0328977Y0182298I0000000J-000394D01*
G01*
X0328977Y0178164D01*
G75*
G02*
X0328583Y0177771I-000394J0000000D01*
G01*
X0325433Y0177771D01*
G75*
G02*
X0325040Y0178164I0000000J0000394D01*
G01*
G37*
G36*
G01*
X0317166Y0199424D02*
X0317166Y0203558D01*
G75*
G02*
X0317559Y0203952I0000394J0000000D01*
G01*
X0320709Y0203952D01*
G75*
G02*
X0321103Y0203558I0000000J-000394D01*
G01*
X0321103Y0199424D01*
G75*
G02*
X0320709Y0199031I-000394J0000000D01*
G01*
X0317559Y0199031D01*
G75*
G02*
X0317166Y0199424I0000000J0000394D01*
G01*
G37*
G36*
G01*
X0325040Y0199424D02*
X0325040Y0203558D01*
G75*
G02*
X0325433Y0203952I0000394J0000000D01*
G01*
X0328583Y0203952D01*
G75*
G02*
X0328977Y0203558I0000000J-000394D01*
G01*
X0328977Y0199424D01*
G75*
G02*
X0328583Y0199031I-000394J0000000D01*
G01*
X0325433Y0199031D01*
G75*
G02*
X0325040Y0199424I0000000J0000394D01*
G01*
G37*
G36*
G01*
X0314016Y0189385D02*
X0314016Y0185251D01*
G75*
G02*
X0313622Y0184857I-000394J0000000D01*
G01*
X0310473Y0184857D01*
G75*
G02*
X0310079Y0185251I0000000J0000394D01*
G01*
X0310079Y0189385D01*
G75*
G02*
X0310473Y0189779I0000394J0000000D01*
G01*
X0313622Y0189779D01*
G75*
G02*
X0314016Y0189385I0000000J-000394D01*
G01*
G37*
G36*
G01*
X0306142Y0189385D02*
X0306142Y0185251D01*
G75*
G02*
X0305748Y0184857I-000394J0000000D01*
G01*
X0302599Y0184857D01*
G75*
G02*
X0302205Y0185251I0000000J0000394D01*
G01*
X0302205Y0189385D01*
G75*
G02*
X0302599Y0189779I0000394J0000000D01*
G01*
X0305748Y0189779D01*
G75*
G02*
X0306142Y0189385I0000000J-000394D01*
G01*
G37*
X0148425Y0206767D02*
%LPD*%
G01*
D152*
X0239606Y0218381D03*
X0231732Y0230192D03*
X0223858Y0218381D03*
D166*
X0152598Y0217594D03*
X0172598Y0213594D03*
X0172598Y0221594D03*
D163*
X0242086Y0256472D03*
D164*
X0232086Y0256472D03*
X0222086Y0256472D03*
G36*
G01*
X0228130Y0214126D02*
X0228130Y0215484D01*
G75*
G02*
X0228710Y0216065I0000581J0000000D01*
G01*
X0229872Y0216065D01*
G75*
G02*
X0230453Y0215484I0000000J-000581D01*
G01*
X0230453Y0214126D01*
G75*
G02*
X0229872Y0213545I-000581J0000000D01*
G01*
X0228710Y0213545D01*
G75*
G02*
X0228130Y0214126I0000000J0000581D01*
G01*
G37*
G36*
G01*
X0231949Y0214126D02*
X0231949Y0215484D01*
G75*
G02*
X0232529Y0216065I0000581J0000000D01*
G01*
X0233691Y0216065D01*
G75*
G02*
X0234271Y0215484I0000000J-000581D01*
G01*
X0234271Y0214126D01*
G75*
G02*
X0233691Y0213545I-000581J0000000D01*
G01*
X0232529Y0213545D01*
G75*
G02*
X0231949Y0214126I0000000J0000581D01*
G01*
G37*
G36*
G01*
X0242598Y0229415D02*
X0242598Y0230773D01*
G75*
G02*
X0243179Y0231354I0000581J0000000D01*
G01*
X0244340Y0231354D01*
G75*
G02*
X0244921Y0230773I0000000J-000581D01*
G01*
X0244921Y0229415D01*
G75*
G02*
X0244340Y0228834I-000581J0000000D01*
G01*
X0243179Y0228834D01*
G75*
G02*
X0242598Y0229415I0000000J0000581D01*
G01*
G37*
G36*
G01*
X0246417Y0229415D02*
X0246417Y0230773D01*
G75*
G02*
X0246998Y0231354I0000581J0000000D01*
G01*
X0248159Y0231354D01*
G75*
G02*
X0248740Y0230773I0000000J-000581D01*
G01*
X0248740Y0229415D01*
G75*
G02*
X0248159Y0228834I-000581J0000000D01*
G01*
X0246998Y0228834D01*
G75*
G02*
X0246417Y0229415I0000000J0000581D01*
G01*
G37*
G36*
G01*
X0192716Y0255611D02*
X0192716Y0253593D01*
G75*
G02*
X0191855Y0252732I-000861J0000000D01*
G01*
X0190133Y0252732D01*
G75*
G02*
X0189271Y0253593I0000000J0000861D01*
G01*
X0189271Y0255611D01*
G75*
G02*
X0190133Y0256472I0000861J0000000D01*
G01*
X0191855Y0256472D01*
G75*
G02*
X0192716Y0255611I0000000J-000861D01*
G01*
G37*
G36*
G01*
X0186516Y0255611D02*
X0186516Y0253593D01*
G75*
G02*
X0185654Y0252732I-000861J0000000D01*
G01*
X0183932Y0252732D01*
G75*
G02*
X0183071Y0253593I0000000J0000861D01*
G01*
X0183071Y0255611D01*
G75*
G02*
X0183932Y0256472I0000861J0000000D01*
G01*
X0185654Y0256472D01*
G75*
G02*
X0186516Y0255611I0000000J-000861D01*
G01*
G37*
G36*
G01*
X0234271Y0211285D02*
X0234271Y0209926D01*
G75*
G02*
X0233691Y0209346I-000581J0000000D01*
G01*
X0232529Y0209346D01*
G75*
G02*
X0231949Y0209926I0000000J0000581D01*
G01*
X0231949Y0211285D01*
G75*
G02*
X0232529Y0211865I0000581J0000000D01*
G01*
X0233691Y0211865D01*
G75*
G02*
X0234271Y0211285I0000000J-000581D01*
G01*
G37*
G36*
G01*
X0230453Y0211285D02*
X0230453Y0209926D01*
G75*
G02*
X0229872Y0209346I-000581J0000000D01*
G01*
X0228710Y0209346D01*
G75*
G02*
X0228130Y0209926I0000000J0000581D01*
G01*
X0228130Y0211285D01*
G75*
G02*
X0228710Y0211865I0000581J0000000D01*
G01*
X0229872Y0211865D01*
G75*
G02*
X0230453Y0211285I0000000J-000581D01*
G01*
G37*
G36*
G01*
X0174570Y0250281D02*
X0174570Y0251639D01*
G75*
G02*
X0175150Y0252220I0000581J0000000D01*
G01*
X0176312Y0252220D01*
G75*
G02*
X0176892Y0251639I0000000J-000581D01*
G01*
X0176892Y0250281D01*
G75*
G02*
X0176312Y0249700I-000581J0000000D01*
G01*
X0175150Y0249700D01*
G75*
G02*
X0174570Y0250281I0000000J0000581D01*
G01*
G37*
G36*
G01*
X0178388Y0250281D02*
X0178388Y0251639D01*
G75*
G02*
X0178969Y0252220I0000581J0000000D01*
G01*
X0180131Y0252220D01*
G75*
G02*
X0180711Y0251639I0000000J-000581D01*
G01*
X0180711Y0250281D01*
G75*
G02*
X0180131Y0249700I-000581J0000000D01*
G01*
X0178969Y0249700D01*
G75*
G02*
X0178388Y0250281I0000000J0000581D01*
G01*
G37*
G36*
G01*
X0182657Y0248411D02*
X0182657Y0249769D01*
G75*
G02*
X0183238Y0250350I0000581J0000000D01*
G01*
X0184399Y0250350D01*
G75*
G02*
X0184980Y0249769I0000000J-000581D01*
G01*
X0184980Y0248411D01*
G75*
G02*
X0184399Y0247830I-000581J0000000D01*
G01*
X0183238Y0247830D01*
G75*
G02*
X0182657Y0248411I0000000J0000581D01*
G01*
G37*
G36*
G01*
X0186476Y0248411D02*
X0186476Y0249769D01*
G75*
G02*
X0187057Y0250350I0000581J0000000D01*
G01*
X0188218Y0250350D01*
G75*
G02*
X0188799Y0249769I0000000J-000581D01*
G01*
X0188799Y0248411D01*
G75*
G02*
X0188218Y0247830I-000581J0000000D01*
G01*
X0187057Y0247830D01*
G75*
G02*
X0186476Y0248411I0000000J0000581D01*
G01*
G37*
G36*
G01*
X0154045Y0255743D02*
X0155403Y0255743D01*
G75*
G02*
X0155984Y0255163I0000000J-000581D01*
G01*
X0155984Y0254001D01*
G75*
G02*
X0155403Y0253421I-000581J0000000D01*
G01*
X0154045Y0253421D01*
G75*
G02*
X0153464Y0254001I0000000J0000581D01*
G01*
X0153464Y0255163D01*
G75*
G02*
X0154045Y0255743I0000581J0000000D01*
G01*
G37*
G36*
G01*
X0154045Y0251924D02*
X0155403Y0251924D01*
G75*
G02*
X0155984Y0251344I0000000J-000581D01*
G01*
X0155984Y0250182D01*
G75*
G02*
X0155403Y0249602I-000581J0000000D01*
G01*
X0154045Y0249602D01*
G75*
G02*
X0153464Y0250182I0000000J0000581D01*
G01*
X0153464Y0251344D01*
G75*
G02*
X0154045Y0251924I0000581J0000000D01*
G01*
G37*
G36*
G01*
X0203563Y0238155D02*
X0203563Y0236797D01*
G75*
G02*
X0202982Y0236216I-000581J0000000D01*
G01*
X0201821Y0236216D01*
G75*
G02*
X0201240Y0236797I0000000J0000581D01*
G01*
X0201240Y0238155D01*
G75*
G02*
X0201821Y0238736I0000581J0000000D01*
G01*
X0202982Y0238736D01*
G75*
G02*
X0203563Y0238155I0000000J-000581D01*
G01*
G37*
G36*
G01*
X0199744Y0238155D02*
X0199744Y0236797D01*
G75*
G02*
X0199163Y0236216I-000581J0000000D01*
G01*
X0198002Y0236216D01*
G75*
G02*
X0197421Y0236797I0000000J0000581D01*
G01*
X0197421Y0238155D01*
G75*
G02*
X0198002Y0238736I0000581J0000000D01*
G01*
X0199163Y0238736D01*
G75*
G02*
X0199744Y0238155I0000000J-000581D01*
G01*
G37*
G36*
G01*
X0197421Y0232860D02*
X0197421Y0234218D01*
G75*
G02*
X0198002Y0234798I0000581J0000000D01*
G01*
X0199163Y0234798D01*
G75*
G02*
X0199744Y0234218I0000000J-000581D01*
G01*
X0199744Y0232860D01*
G75*
G02*
X0199163Y0232279I-000581J0000000D01*
G01*
X0198002Y0232279D01*
G75*
G02*
X0197421Y0232860I0000000J0000581D01*
G01*
G37*
G36*
G01*
X0201240Y0232860D02*
X0201240Y0234218D01*
G75*
G02*
X0201821Y0234798I0000581J0000000D01*
G01*
X0202982Y0234798D01*
G75*
G02*
X0203563Y0234218I0000000J-000581D01*
G01*
X0203563Y0232860D01*
G75*
G02*
X0202982Y0232279I-000581J0000000D01*
G01*
X0201821Y0232279D01*
G75*
G02*
X0201240Y0232860I0000000J0000581D01*
G01*
G37*
G36*
G01*
X0244901Y0235300D02*
X0244901Y0233942D01*
G75*
G02*
X0244321Y0233361I-000581J0000000D01*
G01*
X0243159Y0233361D01*
G75*
G02*
X0242579Y0233942I0000000J0000581D01*
G01*
X0242579Y0235300D01*
G75*
G02*
X0243159Y0235881I0000581J0000000D01*
G01*
X0244321Y0235881D01*
G75*
G02*
X0244901Y0235300I0000000J-000581D01*
G01*
G37*
G36*
G01*
X0241082Y0235300D02*
X0241082Y0233942D01*
G75*
G02*
X0240502Y0233361I-000581J0000000D01*
G01*
X0239340Y0233361D01*
G75*
G02*
X0238760Y0233942I0000000J0000581D01*
G01*
X0238760Y0235300D01*
G75*
G02*
X0239340Y0235881I0000581J0000000D01*
G01*
X0240502Y0235881D01*
G75*
G02*
X0241082Y0235300I0000000J-000581D01*
G01*
G37*
D170*
X0190551Y0211885D03*
X0190551Y0214444D03*
X0190551Y0217003D03*
X0190551Y0219562D03*
X0190551Y0222121D03*
X0190551Y0224680D03*
X0190551Y0227239D03*
X0213779Y0227239D03*
X0213779Y0224680D03*
X0213779Y0222121D03*
X0213779Y0219562D03*
X0213779Y0217003D03*
X0213779Y0214444D03*
X0213779Y0211885D03*
G36*
G01*
X0180728Y0255379D02*
X0180728Y0254021D01*
G75*
G02*
X0180147Y0253440I-000581J0000000D01*
G01*
X0178986Y0253440D01*
G75*
G02*
X0178405Y0254021I0000000J0000581D01*
G01*
X0178405Y0255379D01*
G75*
G02*
X0178986Y0255960I0000581J0000000D01*
G01*
X0180147Y0255960D01*
G75*
G02*
X0180728Y0255379I0000000J-000581D01*
G01*
G37*
G36*
G01*
X0176909Y0255379D02*
X0176909Y0254021D01*
G75*
G02*
X0176329Y0253440I-000581J0000000D01*
G01*
X0175167Y0253440D01*
G75*
G02*
X0174586Y0254021I0000000J0000581D01*
G01*
X0174586Y0255379D01*
G75*
G02*
X0175167Y0255960I0000581J0000000D01*
G01*
X0176329Y0255960D01*
G75*
G02*
X0176909Y0255379I0000000J-000581D01*
G01*
G37*
G36*
G01*
X0174586Y0257761D02*
X0174586Y0259119D01*
G75*
G02*
X0175167Y0259700I0000581J0000000D01*
G01*
X0176329Y0259700D01*
G75*
G02*
X0176909Y0259119I0000000J-000581D01*
G01*
X0176909Y0257761D01*
G75*
G02*
X0176329Y0257180I-000581J0000000D01*
G01*
X0175167Y0257180D01*
G75*
G02*
X0174586Y0257761I0000000J0000581D01*
G01*
G37*
G36*
G01*
X0178405Y0257761D02*
X0178405Y0259119D01*
G75*
G02*
X0178986Y0259700I0000581J0000000D01*
G01*
X0180147Y0259700D01*
G75*
G02*
X0180728Y0259119I0000000J-000581D01*
G01*
X0180728Y0257761D01*
G75*
G02*
X0180147Y0257180I-000581J0000000D01*
G01*
X0178986Y0257180D01*
G75*
G02*
X0178405Y0257761I0000000J0000581D01*
G01*
G37*
G36*
G01*
X0234823Y0248312D02*
X0234823Y0249671D01*
G75*
G02*
X0235403Y0250251I0000581J0000000D01*
G01*
X0236565Y0250251D01*
G75*
G02*
X0237145Y0249671I0000000J-000581D01*
G01*
X0237145Y0248312D01*
G75*
G02*
X0236565Y0247732I-000581J0000000D01*
G01*
X0235403Y0247732D01*
G75*
G02*
X0234823Y0248312I0000000J0000581D01*
G01*
G37*
G36*
G01*
X0238642Y0248312D02*
X0238642Y0249671D01*
G75*
G02*
X0239222Y0250251I0000581J0000000D01*
G01*
X0240384Y0250251D01*
G75*
G02*
X0240964Y0249671I0000000J-000581D01*
G01*
X0240964Y0248312D01*
G75*
G02*
X0240384Y0247732I-000581J0000000D01*
G01*
X0239222Y0247732D01*
G75*
G02*
X0238642Y0248312I0000000J0000581D01*
G01*
G37*
G36*
G01*
X0228130Y0219014D02*
X0228130Y0220373D01*
G75*
G02*
X0228710Y0220953I0000581J0000000D01*
G01*
X0229872Y0220953D01*
G75*
G02*
X0230453Y0220373I0000000J-000581D01*
G01*
X0230453Y0219014D01*
G75*
G02*
X0229872Y0218434I-000581J0000000D01*
G01*
X0228710Y0218434D01*
G75*
G02*
X0228130Y0219014I0000000J0000581D01*
G01*
G37*
G36*
G01*
X0231949Y0219014D02*
X0231949Y0220373D01*
G75*
G02*
X0232529Y0220953I0000581J0000000D01*
G01*
X0233691Y0220953D01*
G75*
G02*
X0234271Y0220373I0000000J-000581D01*
G01*
X0234271Y0219014D01*
G75*
G02*
X0233691Y0218434I-000581J0000000D01*
G01*
X0232529Y0218434D01*
G75*
G02*
X0231949Y0219014I0000000J0000581D01*
G01*
G37*
G36*
G01*
X0200315Y0242092D02*
X0200315Y0240734D01*
G75*
G02*
X0199734Y0240153I-000581J0000000D01*
G01*
X0198573Y0240153D01*
G75*
G02*
X0197992Y0240734I0000000J0000581D01*
G01*
X0197992Y0242092D01*
G75*
G02*
X0198573Y0242673I0000581J0000000D01*
G01*
X0199734Y0242673D01*
G75*
G02*
X0200315Y0242092I0000000J-000581D01*
G01*
G37*
G36*
G01*
X0196496Y0242092D02*
X0196496Y0240734D01*
G75*
G02*
X0195915Y0240153I-000581J0000000D01*
G01*
X0194754Y0240153D01*
G75*
G02*
X0194173Y0240734I0000000J0000581D01*
G01*
X0194173Y0242092D01*
G75*
G02*
X0194754Y0242673I0000581J0000000D01*
G01*
X0195915Y0242673D01*
G75*
G02*
X0196496Y0242092I0000000J-000581D01*
G01*
G37*
G36*
G01*
X0248642Y0249671D02*
X0248642Y0248312D01*
G75*
G02*
X0248061Y0247732I-000581J0000000D01*
G01*
X0246899Y0247732D01*
G75*
G02*
X0246319Y0248312I0000000J0000581D01*
G01*
X0246319Y0249671D01*
G75*
G02*
X0246899Y0250251I0000581J0000000D01*
G01*
X0248061Y0250251D01*
G75*
G02*
X0248642Y0249671I0000000J-000581D01*
G01*
G37*
G36*
G01*
X0244823Y0249671D02*
X0244823Y0248312D01*
G75*
G02*
X0244242Y0247732I-000581J0000000D01*
G01*
X0243081Y0247732D01*
G75*
G02*
X0242500Y0248312I0000000J0000581D01*
G01*
X0242500Y0249671D01*
G75*
G02*
X0243081Y0250251I0000581J0000000D01*
G01*
X0244242Y0250251D01*
G75*
G02*
X0244823Y0249671I0000000J-000581D01*
G01*
G37*
G36*
G01*
X0196181Y0234218D02*
X0196181Y0232860D01*
G75*
G02*
X0195600Y0232279I-000581J0000000D01*
G01*
X0194439Y0232279D01*
G75*
G02*
X0193858Y0232860I0000000J0000581D01*
G01*
X0193858Y0234218D01*
G75*
G02*
X0194439Y0234798I0000581J0000000D01*
G01*
X0195600Y0234798D01*
G75*
G02*
X0196181Y0234218I0000000J-000581D01*
G01*
G37*
G36*
G01*
X0192362Y0234218D02*
X0192362Y0232860D01*
G75*
G02*
X0191781Y0232279I-000581J0000000D01*
G01*
X0190620Y0232279D01*
G75*
G02*
X0190039Y0232860I0000000J0000581D01*
G01*
X0190039Y0234218D01*
G75*
G02*
X0190620Y0234798I0000581J0000000D01*
G01*
X0191781Y0234798D01*
G75*
G02*
X0192362Y0234218I0000000J-000581D01*
G01*
G37*
G36*
G01*
X0184931Y0209602D02*
X0183573Y0209602D01*
G75*
G02*
X0182992Y0210182I0000000J0000581D01*
G01*
X0182992Y0211344D01*
G75*
G02*
X0183573Y0211924I0000581J0000000D01*
G01*
X0184931Y0211924D01*
G75*
G02*
X0185512Y0211344I0000000J-000581D01*
G01*
X0185512Y0210182D01*
G75*
G02*
X0184931Y0209602I-000581J0000000D01*
G01*
G37*
G36*
G01*
X0184931Y0213421D02*
X0183573Y0213421D01*
G75*
G02*
X0182992Y0214001I0000000J0000581D01*
G01*
X0182992Y0215163D01*
G75*
G02*
X0183573Y0215743I0000581J0000000D01*
G01*
X0184931Y0215743D01*
G75*
G02*
X0185512Y0215163I0000000J-000581D01*
G01*
X0185512Y0214001D01*
G75*
G02*
X0184931Y0213421I-000581J0000000D01*
G01*
G37*
G36*
G01*
X0211043Y0238155D02*
X0211043Y0236797D01*
G75*
G02*
X0210462Y0236216I-000581J0000000D01*
G01*
X0209301Y0236216D01*
G75*
G02*
X0208720Y0236797I0000000J0000581D01*
G01*
X0208720Y0238155D01*
G75*
G02*
X0209301Y0238736I0000581J0000000D01*
G01*
X0210462Y0238736D01*
G75*
G02*
X0211043Y0238155I0000000J-000581D01*
G01*
G37*
G36*
G01*
X0207224Y0238155D02*
X0207224Y0236797D01*
G75*
G02*
X0206644Y0236216I-000581J0000000D01*
G01*
X0205482Y0236216D01*
G75*
G02*
X0204901Y0236797I0000000J0000581D01*
G01*
X0204901Y0238155D01*
G75*
G02*
X0205482Y0238736I0000581J0000000D01*
G01*
X0206644Y0238736D01*
G75*
G02*
X0207224Y0238155I0000000J-000581D01*
G01*
G37*
G36*
G01*
X0212382Y0236797D02*
X0212382Y0238155D01*
G75*
G02*
X0212962Y0238736I0000581J0000000D01*
G01*
X0214124Y0238736D01*
G75*
G02*
X0214705Y0238155I0000000J-000581D01*
G01*
X0214705Y0236797D01*
G75*
G02*
X0214124Y0236216I-000581J0000000D01*
G01*
X0212962Y0236216D01*
G75*
G02*
X0212382Y0236797I0000000J0000581D01*
G01*
G37*
G36*
G01*
X0216201Y0236797D02*
X0216201Y0238155D01*
G75*
G02*
X0216781Y0238736I0000581J0000000D01*
G01*
X0217943Y0238736D01*
G75*
G02*
X0218523Y0238155I0000000J-000581D01*
G01*
X0218523Y0236797D01*
G75*
G02*
X0217943Y0236216I-000581J0000000D01*
G01*
X0216781Y0236216D01*
G75*
G02*
X0216201Y0236797I0000000J0000581D01*
G01*
G37*
G36*
G01*
X0181191Y0209602D02*
X0179832Y0209602D01*
G75*
G02*
X0179252Y0210182I0000000J0000581D01*
G01*
X0179252Y0211344D01*
G75*
G02*
X0179832Y0211924I0000581J0000000D01*
G01*
X0181191Y0211924D01*
G75*
G02*
X0181771Y0211344I0000000J-000581D01*
G01*
X0181771Y0210182D01*
G75*
G02*
X0181191Y0209602I-000581J0000000D01*
G01*
G37*
G36*
G01*
X0181191Y0213421D02*
X0179832Y0213421D01*
G75*
G02*
X0179252Y0214001I0000000J0000581D01*
G01*
X0179252Y0215163D01*
G75*
G02*
X0179832Y0215743I0000581J0000000D01*
G01*
X0181191Y0215743D01*
G75*
G02*
X0181771Y0215163I0000000J-000581D01*
G01*
X0181771Y0214001D01*
G75*
G02*
X0181191Y0213421I-000581J0000000D01*
G01*
G37*
D171*
X0170512Y0258440D03*
X0170512Y0254700D03*
X0170512Y0250960D03*
X0160197Y0250960D03*
X0160197Y0258440D03*
G36*
G01*
X0205000Y0240734D02*
X0205000Y0242092D01*
G75*
G02*
X0205581Y0242673I0000581J0000000D01*
G01*
X0206742Y0242673D01*
G75*
G02*
X0207323Y0242092I0000000J-000581D01*
G01*
X0207323Y0240734D01*
G75*
G02*
X0206742Y0240153I-000581J0000000D01*
G01*
X0205581Y0240153D01*
G75*
G02*
X0205000Y0240734I0000000J0000581D01*
G01*
G37*
G36*
G01*
X0208819Y0240734D02*
X0208819Y0242092D01*
G75*
G02*
X0209399Y0242673I0000581J0000000D01*
G01*
X0210561Y0242673D01*
G75*
G02*
X0211142Y0242092I0000000J-000581D01*
G01*
X0211142Y0240734D01*
G75*
G02*
X0210561Y0240153I-000581J0000000D01*
G01*
X0209399Y0240153D01*
G75*
G02*
X0208819Y0240734I0000000J0000581D01*
G01*
G37*
G36*
G01*
X0192411Y0244838D02*
X0191053Y0244838D01*
G75*
G02*
X0190472Y0245419I0000000J0000581D01*
G01*
X0190472Y0246580D01*
G75*
G02*
X0191053Y0247161I0000581J0000000D01*
G01*
X0192411Y0247161D01*
G75*
G02*
X0192992Y0246580I0000000J-000581D01*
G01*
X0192992Y0245419D01*
G75*
G02*
X0192411Y0244838I-000581J0000000D01*
G01*
G37*
G36*
G01*
X0192411Y0248657D02*
X0191053Y0248657D01*
G75*
G02*
X0190472Y0249237I0000000J0000581D01*
G01*
X0190472Y0250399D01*
G75*
G02*
X0191053Y0250980I0000581J0000000D01*
G01*
X0192411Y0250980D01*
G75*
G02*
X0192992Y0250399I0000000J-000581D01*
G01*
X0192992Y0249237D01*
G75*
G02*
X0192411Y0248657I-000581J0000000D01*
G01*
G37*
G36*
G01*
X0183573Y0224405D02*
X0184931Y0224405D01*
G75*
G02*
X0185512Y0223824I0000000J-000581D01*
G01*
X0185512Y0222663D01*
G75*
G02*
X0184931Y0222082I-000581J0000000D01*
G01*
X0183573Y0222082D01*
G75*
G02*
X0182992Y0222663I0000000J0000581D01*
G01*
X0182992Y0223824D01*
G75*
G02*
X0183573Y0224405I0000581J0000000D01*
G01*
G37*
G36*
G01*
X0183573Y0220586D02*
X0184931Y0220586D01*
G75*
G02*
X0185512Y0220005I0000000J-000581D01*
G01*
X0185512Y0218844D01*
G75*
G02*
X0184931Y0218263I-000581J0000000D01*
G01*
X0183573Y0218263D01*
G75*
G02*
X0182992Y0218844I0000000J0000581D01*
G01*
X0182992Y0220005D01*
G75*
G02*
X0183573Y0220586I0000581J0000000D01*
G01*
G37*
G36*
G01*
X0226693Y0225360D02*
X0226693Y0224001D01*
G75*
G02*
X0226112Y0223421I-000581J0000000D01*
G01*
X0224951Y0223421D01*
G75*
G02*
X0224370Y0224001I0000000J0000581D01*
G01*
X0224370Y0225360D01*
G75*
G02*
X0224951Y0225940I0000581J0000000D01*
G01*
X0226112Y0225940D01*
G75*
G02*
X0226693Y0225360I0000000J-000581D01*
G01*
G37*
G36*
G01*
X0222874Y0225360D02*
X0222874Y0224001D01*
G75*
G02*
X0222293Y0223421I-000581J0000000D01*
G01*
X0221132Y0223421D01*
G75*
G02*
X0220551Y0224001I0000000J0000581D01*
G01*
X0220551Y0225360D01*
G75*
G02*
X0221132Y0225940I0000581J0000000D01*
G01*
X0222293Y0225940D01*
G75*
G02*
X0222874Y0225360I0000000J-000581D01*
G01*
G37*
G36*
G01*
X0234271Y0225360D02*
X0234271Y0224001D01*
G75*
G02*
X0233691Y0223421I-000581J0000000D01*
G01*
X0232529Y0223421D01*
G75*
G02*
X0231949Y0224001I0000000J0000581D01*
G01*
X0231949Y0225360D01*
G75*
G02*
X0232529Y0225940I0000581J0000000D01*
G01*
X0233691Y0225940D01*
G75*
G02*
X0234271Y0225360I0000000J-000581D01*
G01*
G37*
G36*
G01*
X0230453Y0225360D02*
X0230453Y0224001D01*
G75*
G02*
X0229872Y0223421I-000581J0000000D01*
G01*
X0228710Y0223421D01*
G75*
G02*
X0228130Y0224001I0000000J0000581D01*
G01*
X0228130Y0225360D01*
G75*
G02*
X0228710Y0225940I0000581J0000000D01*
G01*
X0229872Y0225940D01*
G75*
G02*
X0230453Y0225360I0000000J-000581D01*
G01*
G37*
G36*
G01*
X0179832Y0224405D02*
X0181191Y0224405D01*
G75*
G02*
X0181771Y0223824I0000000J-000581D01*
G01*
X0181771Y0222663D01*
G75*
G02*
X0181191Y0222082I-000581J0000000D01*
G01*
X0179832Y0222082D01*
G75*
G02*
X0179252Y0222663I0000000J0000581D01*
G01*
X0179252Y0223824D01*
G75*
G02*
X0179832Y0224405I0000581J0000000D01*
G01*
G37*
G36*
G01*
X0179832Y0220586D02*
X0181191Y0220586D01*
G75*
G02*
X0181771Y0220005I0000000J-000581D01*
G01*
X0181771Y0218844D01*
G75*
G02*
X0181191Y0218263I-000581J0000000D01*
G01*
X0179832Y0218263D01*
G75*
G02*
X0179252Y0218844I0000000J0000581D01*
G01*
X0179252Y0220005D01*
G75*
G02*
X0179832Y0220586I0000581J0000000D01*
G01*
G37*
G36*
G01*
X0214193Y0234218D02*
X0214193Y0232860D01*
G75*
G02*
X0213612Y0232279I-000581J0000000D01*
G01*
X0212451Y0232279D01*
G75*
G02*
X0211870Y0232860I0000000J0000581D01*
G01*
X0211870Y0234218D01*
G75*
G02*
X0212451Y0234798I0000581J0000000D01*
G01*
X0213612Y0234798D01*
G75*
G02*
X0214193Y0234218I0000000J-000581D01*
G01*
G37*
G36*
G01*
X0210374Y0234218D02*
X0210374Y0232860D01*
G75*
G02*
X0209793Y0232279I-000581J0000000D01*
G01*
X0208632Y0232279D01*
G75*
G02*
X0208051Y0232860I0000000J0000581D01*
G01*
X0208051Y0234218D01*
G75*
G02*
X0208632Y0234798I0000581J0000000D01*
G01*
X0209793Y0234798D01*
G75*
G02*
X0210374Y0234218I0000000J-000581D01*
G01*
G37*
G36*
G01*
X0176092Y0224405D02*
X0177451Y0224405D01*
G75*
G02*
X0178031Y0223824I0000000J-000581D01*
G01*
X0178031Y0222663D01*
G75*
G02*
X0177451Y0222082I-000581J0000000D01*
G01*
X0176092Y0222082D01*
G75*
G02*
X0175512Y0222663I0000000J0000581D01*
G01*
X0175512Y0223824D01*
G75*
G02*
X0176092Y0224405I0000581J0000000D01*
G01*
G37*
G36*
G01*
X0176092Y0220586D02*
X0177451Y0220586D01*
G75*
G02*
X0178031Y0220005I0000000J-000581D01*
G01*
X0178031Y0218844D01*
G75*
G02*
X0177451Y0218263I-000581J0000000D01*
G01*
X0176092Y0218263D01*
G75*
G02*
X0175512Y0218844I0000000J0000581D01*
G01*
X0175512Y0220005D01*
G75*
G02*
X0176092Y0220586I0000581J0000000D01*
G01*
G37*
G36*
G01*
X0176092Y0215743D02*
X0177451Y0215743D01*
G75*
G02*
X0178031Y0215163I0000000J-000581D01*
G01*
X0178031Y0214001D01*
G75*
G02*
X0177451Y0213421I-000581J0000000D01*
G01*
X0176092Y0213421D01*
G75*
G02*
X0175512Y0214001I0000000J0000581D01*
G01*
X0175512Y0215163D01*
G75*
G02*
X0176092Y0215743I0000581J0000000D01*
G01*
G37*
G36*
G01*
X0176092Y0211924D02*
X0177451Y0211924D01*
G75*
G02*
X0178031Y0211344I0000000J-000581D01*
G01*
X0178031Y0210182D01*
G75*
G02*
X0177451Y0209602I-000581J0000000D01*
G01*
X0176092Y0209602D01*
G75*
G02*
X0175512Y0210182I0000000J0000581D01*
G01*
X0175512Y0211344D01*
G75*
G02*
X0176092Y0211924I0000581J0000000D01*
G01*
G37*
G36*
G01*
X0161279Y0221550D02*
X0161279Y0222889D01*
G75*
G02*
X0161830Y0223440I0000551J0000000D01*
G01*
X0162933Y0223440D01*
G75*
G02*
X0163484Y0222889I0000000J-000551D01*
G01*
X0163484Y0221550D01*
G75*
G02*
X0162933Y0220999I-000551J0000000D01*
G01*
X0161830Y0220999D01*
G75*
G02*
X0161279Y0221550I0000000J0000551D01*
G01*
G37*
G36*
G01*
X0165059Y0221550D02*
X0165059Y0222889D01*
G75*
G02*
X0165610Y0223440I0000551J0000000D01*
G01*
X0166712Y0223440D01*
G75*
G02*
X0167263Y0222889I0000000J-000551D01*
G01*
X0167263Y0221550D01*
G75*
G02*
X0166712Y0220999I-000551J0000000D01*
G01*
X0165610Y0220999D01*
G75*
G02*
X0165059Y0221550I0000000J0000551D01*
G01*
G37*
G36*
G01*
X0216220Y0247810D02*
X0216220Y0246354D01*
G75*
G02*
X0215689Y0245822I-000531J0000000D01*
G01*
X0214626Y0245822D01*
G75*
G02*
X0214094Y0246354I0000000J0000531D01*
G01*
X0214094Y0247810D01*
G75*
G02*
X0214626Y0248342I0000531J0000000D01*
G01*
X0215689Y0248342D01*
G75*
G02*
X0216220Y0247810I0000000J-000531D01*
G01*
G37*
G36*
G01*
X0212205Y0247810D02*
X0212205Y0246354D01*
G75*
G02*
X0211673Y0245822I-000531J0000000D01*
G01*
X0210610Y0245822D01*
G75*
G02*
X0210079Y0246354I0000000J0000531D01*
G01*
X0210079Y0247810D01*
G75*
G02*
X0210610Y0248342I0000531J0000000D01*
G01*
X0211673Y0248342D01*
G75*
G02*
X0212205Y0247810I0000000J-000531D01*
G01*
G37*
G36*
G01*
X0155492Y0233277D02*
X0154035Y0233277D01*
G75*
G02*
X0153504Y0233809I0000000J0000531D01*
G01*
X0153504Y0234872D01*
G75*
G02*
X0154035Y0235403I0000531J0000000D01*
G01*
X0155492Y0235403D01*
G75*
G02*
X0156023Y0234872I0000000J-000531D01*
G01*
X0156023Y0233809D01*
G75*
G02*
X0155492Y0233277I-000531J0000000D01*
G01*
G37*
G36*
G01*
X0155492Y0237293D02*
X0154035Y0237293D01*
G75*
G02*
X0153504Y0237825I0000000J0000531D01*
G01*
X0153504Y0238888D01*
G75*
G02*
X0154035Y0239419I0000531J0000000D01*
G01*
X0155492Y0239419D01*
G75*
G02*
X0156023Y0238888I0000000J-000531D01*
G01*
X0156023Y0237825D01*
G75*
G02*
X0155492Y0237293I-000531J0000000D01*
G01*
G37*
G36*
G01*
X0156102Y0209326D02*
X0156102Y0210507D01*
G75*
G02*
X0156693Y0211098I0000591J0000000D01*
G01*
X0161319Y0211098D01*
G75*
G02*
X0161909Y0210507I0000000J-000591D01*
G01*
X0161909Y0209326D01*
G75*
G02*
X0161319Y0208736I-000591J0000000D01*
G01*
X0156693Y0208736D01*
G75*
G02*
X0156102Y0209326I0000000J0000591D01*
G01*
G37*
G36*
G01*
X0156102Y0216806D02*
X0156102Y0217987D01*
G75*
G02*
X0156693Y0218578I0000591J0000000D01*
G01*
X0161319Y0218578D01*
G75*
G02*
X0161909Y0217987I0000000J-000591D01*
G01*
X0161909Y0216806D01*
G75*
G02*
X0161319Y0216216I-000591J0000000D01*
G01*
X0156693Y0216216D01*
G75*
G02*
X0156102Y0216806I0000000J0000591D01*
G01*
G37*
G36*
G01*
X0163484Y0213066D02*
X0163484Y0214247D01*
G75*
G02*
X0164075Y0214838I0000591J0000000D01*
G01*
X0168701Y0214838D01*
G75*
G02*
X0169291Y0214247I0000000J-000591D01*
G01*
X0169291Y0213066D01*
G75*
G02*
X0168701Y0212476I-000591J0000000D01*
G01*
X0164075Y0212476D01*
G75*
G02*
X0163484Y0213066I0000000J0000591D01*
G01*
G37*
G36*
G01*
X0154055Y0247258D02*
X0155394Y0247258D01*
G75*
G02*
X0155945Y0246706I0000000J-000551D01*
G01*
X0155945Y0245604D01*
G75*
G02*
X0155394Y0245053I-000551J0000000D01*
G01*
X0154055Y0245053D01*
G75*
G02*
X0153504Y0245604I0000000J0000551D01*
G01*
X0153504Y0246706D01*
G75*
G02*
X0154055Y0247258I0000551J0000000D01*
G01*
G37*
G36*
G01*
X0154055Y0243478D02*
X0155394Y0243478D01*
G75*
G02*
X0155945Y0242927I0000000J-000551D01*
G01*
X0155945Y0241825D01*
G75*
G02*
X0155394Y0241273I-000551J0000000D01*
G01*
X0154055Y0241273D01*
G75*
G02*
X0153504Y0241825I0000000J0000551D01*
G01*
X0153504Y0242927D01*
G75*
G02*
X0154055Y0243478I0000551J0000000D01*
G01*
G37*
G36*
G01*
X0184842Y0244187D02*
X0184842Y0243006D01*
G75*
G02*
X0184252Y0242415I-000591J0000000D01*
G01*
X0178543Y0242415D01*
G75*
G02*
X0177953Y0243006I0000000J0000591D01*
G01*
X0177953Y0244187D01*
G75*
G02*
X0178543Y0244777I0000591J0000000D01*
G01*
X0184252Y0244777D01*
G75*
G02*
X0184842Y0244187I0000000J-000591D01*
G01*
G37*
G36*
G01*
X0184842Y0239187D02*
X0184842Y0238006D01*
G75*
G02*
X0184252Y0237415I-000591J0000000D01*
G01*
X0178543Y0237415D01*
G75*
G02*
X0177953Y0238006I0000000J0000591D01*
G01*
X0177953Y0239187D01*
G75*
G02*
X0178543Y0239777I0000591J0000000D01*
G01*
X0184252Y0239777D01*
G75*
G02*
X0184842Y0239187I0000000J-000591D01*
G01*
G37*
G36*
G01*
X0184842Y0234187D02*
X0184842Y0233006D01*
G75*
G02*
X0184252Y0232415I-000591J0000000D01*
G01*
X0178543Y0232415D01*
G75*
G02*
X0177953Y0233006I0000000J0000591D01*
G01*
X0177953Y0234187D01*
G75*
G02*
X0178543Y0234777I0000591J0000000D01*
G01*
X0184252Y0234777D01*
G75*
G02*
X0184842Y0234187I0000000J-000591D01*
G01*
G37*
G36*
G01*
X0184842Y0229187D02*
X0184842Y0228006D01*
G75*
G02*
X0184252Y0227415I-000591J0000000D01*
G01*
X0178543Y0227415D01*
G75*
G02*
X0177953Y0228006I0000000J0000591D01*
G01*
X0177953Y0229187D01*
G75*
G02*
X0178543Y0229777I0000591J0000000D01*
G01*
X0184252Y0229777D01*
G75*
G02*
X0184842Y0229187I0000000J-000591D01*
G01*
G37*
G36*
G01*
X0164567Y0229187D02*
X0164567Y0228006D01*
G75*
G02*
X0163976Y0227415I-000591J0000000D01*
G01*
X0158268Y0227415D01*
G75*
G02*
X0157677Y0228006I0000000J0000591D01*
G01*
X0157677Y0229187D01*
G75*
G02*
X0158268Y0229777I0000591J0000000D01*
G01*
X0163976Y0229777D01*
G75*
G02*
X0164567Y0229187I0000000J-000591D01*
G01*
G37*
G36*
G01*
X0164567Y0234187D02*
X0164567Y0233006D01*
G75*
G02*
X0163976Y0232415I-000591J0000000D01*
G01*
X0158268Y0232415D01*
G75*
G02*
X0157677Y0233006I0000000J0000591D01*
G01*
X0157677Y0234187D01*
G75*
G02*
X0158268Y0234777I0000591J0000000D01*
G01*
X0163976Y0234777D01*
G75*
G02*
X0164567Y0234187I0000000J-000591D01*
G01*
G37*
G36*
G01*
X0164567Y0239187D02*
X0164567Y0238006D01*
G75*
G02*
X0163976Y0237415I-000591J0000000D01*
G01*
X0158268Y0237415D01*
G75*
G02*
X0157677Y0238006I0000000J0000591D01*
G01*
X0157677Y0239187D01*
G75*
G02*
X0158268Y0239777I0000591J0000000D01*
G01*
X0163976Y0239777D01*
G75*
G02*
X0164567Y0239187I0000000J-000591D01*
G01*
G37*
G36*
G01*
X0164567Y0244187D02*
X0164567Y0243006D01*
G75*
G02*
X0163976Y0242415I-000591J0000000D01*
G01*
X0158268Y0242415D01*
G75*
G02*
X0157677Y0243006I0000000J0000591D01*
G01*
X0157677Y0244187D01*
G75*
G02*
X0158268Y0244777I0000591J0000000D01*
G01*
X0163976Y0244777D01*
G75*
G02*
X0164567Y0244187I0000000J-000591D01*
G01*
G37*
X0148425Y0267200D02*
G01*
G75*
D197*
X0200394Y0352239D02*
D03*
X0200394Y0326944D02*
D03*
X0200394Y0342200D02*
D03*
X0200394Y0336984D02*
D03*
X0193307Y0367495D02*
D03*
X0200394Y0367495D02*
D03*
X0200394Y0357456D02*
D03*
X0193307Y0357456D02*
D03*
X0193307Y0326944D02*
D03*
X0193307Y0336984D02*
D03*
X0193307Y0342200D02*
D03*
X0193307Y0352239D02*
D03*
D198*
X0200394Y0348794D02*
D03*
X0200394Y0333539D02*
D03*
X0200394Y0345645D02*
D03*
X0200394Y0330389D02*
D03*
X0200394Y0360901D02*
D03*
X0200394Y0364050D02*
D03*
X0193307Y0364050D02*
D03*
X0193307Y0360901D02*
D03*
X0193307Y0333539D02*
D03*
X0193307Y0330389D02*
D03*
X0193307Y0348794D02*
D03*
X0193307Y0345645D02*
D03*
D205*
X0202362Y0405389D02*
D03*
X0198425Y0405389D02*
D03*
X0196850Y0401846D02*
D03*
X0192913Y0401846D02*
D03*
X0204724Y0384523D02*
D03*
X0200787Y0384523D02*
D03*
X0233377Y0326821D02*
D03*
X0229440Y0326821D02*
D03*
X0225181Y0326821D02*
D03*
X0221244Y0326821D02*
D03*
X0181859Y0359288D02*
D03*
X0177922Y0359288D02*
D03*
X0181859Y0355565D02*
D03*
X0177922Y0355565D02*
D03*
X0179443Y0392397D02*
D03*
X0183380Y0392397D02*
D03*
X0268077Y0403330D02*
D03*
X0232329Y0403091D02*
D03*
X0247244Y0326821D02*
D03*
X0214960Y0380979D02*
D03*
X0214960Y0376649D02*
D03*
X0211530Y0372430D02*
D03*
X0200253Y0372485D02*
D03*
X0220669Y0342825D02*
D03*
X0211880Y0342825D02*
D03*
X0207943Y0334340D02*
D03*
X0272860Y0304474D02*
D03*
X0247244Y0322318D02*
D03*
X0206299Y0405389D02*
D03*
X0192913Y0372394D02*
D03*
X0171260Y0373792D02*
D03*
X0157195Y0373792D02*
D03*
X0171260Y0369562D02*
D03*
X0157195Y0369562D02*
D03*
X0196898Y0322654D02*
D03*
X0152362Y0320743D02*
D03*
X0218897Y0380979D02*
D03*
X0207943Y0342825D02*
D03*
X0216732Y0342825D02*
D03*
X0216732Y0338337D02*
D03*
X0220669Y0338337D02*
D03*
X0274803Y0318381D02*
D03*
X0270866Y0318381D02*
D03*
X0268923Y0304474D02*
D03*
X0183478Y0375298D02*
D03*
X0179541Y0375298D02*
D03*
X0153257Y0373792D02*
D03*
X0196850Y0372394D02*
D03*
X0211880Y0334340D02*
D03*
X0204190Y0372485D02*
D03*
X0207593Y0372430D02*
D03*
X0167323Y0369562D02*
D03*
X0192961Y0322654D02*
D03*
X0156299Y0320743D02*
D03*
X0228392Y0403091D02*
D03*
X0202362Y0405389D02*
D03*
X0175590Y0380365D02*
D03*
X0171653Y0380365D02*
D03*
X0167323Y0373792D02*
D03*
X0251181Y0322318D02*
D03*
X0251181Y0326821D02*
D03*
X0218897Y0376649D02*
D03*
X0264140Y0403330D02*
D03*
X0254824Y0403330D02*
D03*
X0258761Y0403330D02*
D03*
X0161132Y0369562D02*
D03*
X0152362Y0324680D02*
D03*
X0156299Y0324680D02*
D03*
X0152362Y0337082D02*
D03*
X0156299Y0337082D02*
D03*
X0152362Y0341216D02*
D03*
X0156299Y0341216D02*
D03*
X0152362Y0349484D02*
D03*
X0156299Y0349484D02*
D03*
X0152362Y0345350D02*
D03*
X0156299Y0345350D02*
D03*
X0152362Y0353617D02*
D03*
X0156299Y0353617D02*
D03*
X0152362Y0332948D02*
D03*
X0156299Y0332948D02*
D03*
X0152362Y0328814D02*
D03*
X0156299Y0328814D02*
D03*
D209*
X0207352Y0356176D02*
D03*
X0207352Y0360409D02*
D03*
X0252756Y0272318D02*
D03*
X0248031Y0272318D02*
D03*
X0243307Y0272318D02*
D03*
X0238583Y0272318D02*
D03*
X0168504Y0400665D02*
D03*
X0172638Y0400665D02*
D03*
X0263818Y0308444D02*
D03*
X0263818Y0312381D02*
D03*
X0152889Y0399483D02*
D03*
X0152889Y0395547D02*
D03*
X0207352Y0364346D02*
D03*
X0207352Y0352239D02*
D03*
X0259646Y0307948D02*
D03*
X0259646Y0311885D02*
D03*
X0234873Y0280172D02*
D03*
X0234873Y0284109D02*
D03*
X0238583Y0284109D02*
D03*
X0238583Y0280172D02*
D03*
X0238583Y0294759D02*
D03*
X0238583Y0290822D02*
D03*
X0238583Y0276255D02*
D03*
X0243307Y0276255D02*
D03*
X0252756Y0276255D02*
D03*
X0248031Y0276255D02*
D03*
X0153924Y0309449D02*
D03*
X0153924Y0313386D02*
D03*
X0204134Y0312476D02*
D03*
X0204134Y0308539D02*
D03*
X0204134Y0302239D02*
D03*
X0204134Y0298302D02*
D03*
X0176181Y0312476D02*
D03*
X0176181Y0308539D02*
D03*
X0199606Y0287082D02*
D03*
X0199606Y0291019D02*
D03*
X0170276Y0287082D02*
D03*
X0170276Y0291019D02*
D03*
X0157480Y0287082D02*
D03*
X0157480Y0291019D02*
D03*
X0174372Y0280172D02*
D03*
X0174372Y0276235D02*
D03*
X0152756Y0279798D02*
D03*
X0152756Y0283735D02*
D03*
X0152953Y0276649D02*
D03*
X0152953Y0272712D02*
D03*
X0152889Y0387957D02*
D03*
X0152889Y0391894D02*
D03*
X0168504Y0404602D02*
D03*
X0172638Y0404602D02*
D03*
X0176378Y0291019D02*
D03*
X0176378Y0287082D02*
D03*
X0180708Y0291019D02*
D03*
X0180708Y0287082D02*
D03*
X0189173Y0291019D02*
D03*
X0189173Y0287082D02*
D03*
X0193339Y0276235D02*
D03*
X0193339Y0280172D02*
D03*
X0232086Y0308539D02*
D03*
X0232086Y0312476D02*
D03*
X0161811Y0291019D02*
D03*
X0161811Y0287082D02*
D03*
X0212182Y0276235D02*
D03*
X0212182Y0280172D02*
D03*
X0208071Y0291019D02*
D03*
X0208071Y0287082D02*
D03*
X0195276Y0291019D02*
D03*
X0195276Y0287082D02*
D03*
X0231162Y0276235D02*
D03*
X0231162Y0280172D02*
D03*
X0226969Y0291019D02*
D03*
X0226969Y0287082D02*
D03*
X0218504Y0291019D02*
D03*
X0218504Y0287082D02*
D03*
X0214173Y0291019D02*
D03*
X0214173Y0287082D02*
D03*
X0231950Y0294759D02*
D03*
X0231950Y0290822D02*
D03*
D211*
X0187982Y0397456D02*
D03*
X0180242Y0387981D02*
D03*
X0161909Y0364611D02*
D03*
D215*
X0235630Y0396039D02*
D03*
X0229330Y0396039D02*
D03*
X0199016Y0397417D02*
D03*
X0192716Y0397417D02*
D03*
X0199016Y0392791D02*
D03*
X0192716Y0392791D02*
D03*
D211*
X0171161Y0360870D02*
D03*
X0180242Y0380501D02*
D03*
X0189494Y0384241D02*
D03*
X0187982Y0404936D02*
D03*
X0178730Y0401196D02*
D03*
X0161909Y0357130D02*
D03*
D221*
X0226338Y0321334D02*
D03*
X0240551Y0321334D02*
D03*
X0210551Y0321334D02*
D03*
D222*
X0263543Y0398893D02*
D03*
X0243543Y0394893D02*
D03*
X0243543Y0402893D02*
D03*
D14*
X0152756Y0404602D02*
D03*
D240*
X0196456Y0387594D02*
D03*
X0196456Y0381373D02*
D03*
D241*
X0225886Y0316806D02*
D03*
X0225886Y0309720D02*
D03*
X0215846Y0309720D02*
D03*
X0215846Y0316806D02*
D03*
X0197933Y0309720D02*
D03*
X0169980Y0309720D02*
D03*
X0187894Y0305783D02*
D03*
X0243012Y0280586D02*
D03*
X0243012Y0287672D02*
D03*
X0253051Y0287672D02*
D03*
X0253051Y0280586D02*
D03*
X0159941Y0298696D02*
D03*
X0159941Y0305783D02*
D03*
X0169980Y0305783D02*
D03*
X0169980Y0298696D02*
D03*
X0169980Y0316806D02*
D03*
X0159941Y0309720D02*
D03*
X0159941Y0316806D02*
D03*
X0187894Y0298696D02*
D03*
X0197933Y0305783D02*
D03*
X0197933Y0298696D02*
D03*
X0197933Y0316806D02*
D03*
X0187894Y0309720D02*
D03*
X0187894Y0316806D02*
D03*
X0188878Y0274877D02*
D03*
X0188878Y0281964D02*
D03*
X0178838Y0281964D02*
D03*
X0178838Y0274877D02*
D03*
X0169980Y0274877D02*
D03*
X0169980Y0281964D02*
D03*
X0159941Y0281964D02*
D03*
X0159941Y0274877D02*
D03*
X0207776Y0274877D02*
D03*
X0207776Y0281964D02*
D03*
X0197736Y0281964D02*
D03*
X0197736Y0274877D02*
D03*
X0226673Y0274877D02*
D03*
X0226673Y0281964D02*
D03*
X0216634Y0281964D02*
D03*
X0216634Y0274877D02*
D03*
X0225886Y0298696D02*
D03*
X0225886Y0305783D02*
D03*
X0215846Y0305783D02*
D03*
X0215846Y0298696D02*
D03*
X0253445Y0298696D02*
D03*
X0253445Y0305783D02*
D03*
X0243405Y0305783D02*
D03*
X0243405Y0298696D02*
D03*
X0243405Y0316806D02*
D03*
X0243405Y0309720D02*
D03*
X0253445Y0309720D02*
D03*
X0253445Y0316806D02*
D03*
D242*
X0219291Y0309720D02*
D03*
X0222441Y0309720D02*
D03*
X0222441Y0316806D02*
D03*
X0219291Y0316806D02*
D03*
X0194488Y0309720D02*
D03*
X0166535Y0309720D02*
D03*
X0191338Y0305783D02*
D03*
X0249606Y0287672D02*
D03*
X0246457Y0287672D02*
D03*
X0246457Y0280586D02*
D03*
X0249606Y0280586D02*
D03*
X0166535Y0305783D02*
D03*
X0163386Y0305783D02*
D03*
X0163386Y0298696D02*
D03*
X0166535Y0298696D02*
D03*
X0163386Y0309720D02*
D03*
X0166535Y0316806D02*
D03*
X0163386Y0316806D02*
D03*
X0194488Y0305783D02*
D03*
X0191338Y0298696D02*
D03*
X0194488Y0298696D02*
D03*
X0191339Y0309720D02*
D03*
X0194488Y0316806D02*
D03*
X0191339Y0316806D02*
D03*
X0185433Y0274877D02*
D03*
X0182283Y0274877D02*
D03*
X0182283Y0281964D02*
D03*
X0185433Y0281964D02*
D03*
X0166536Y0274877D02*
D03*
X0163386Y0274877D02*
D03*
X0163386Y0281964D02*
D03*
X0166536Y0281964D02*
D03*
X0204331Y0274877D02*
D03*
X0201181Y0274877D02*
D03*
X0201181Y0281964D02*
D03*
X0204331Y0281964D02*
D03*
X0223228Y0274877D02*
D03*
X0220079Y0274877D02*
D03*
X0220079Y0281964D02*
D03*
X0223228Y0281964D02*
D03*
X0222441Y0298696D02*
D03*
X0219291Y0298696D02*
D03*
X0219291Y0305783D02*
D03*
X0222441Y0305783D02*
D03*
X0250000Y0298696D02*
D03*
X0246850Y0298696D02*
D03*
X0246850Y0305783D02*
D03*
X0250000Y0305783D02*
D03*
X0246850Y0316806D02*
D03*
X0250000Y0316806D02*
D03*
X0250000Y0309720D02*
D03*
X0246850Y0309720D02*
D03*
D243*
X0258228Y0394070D02*
D03*
X0258228Y0399060D02*
D03*
X0252008Y0399060D02*
D03*
X0252008Y0394070D02*
D03*
D244*
X0270866Y0387180D02*
D03*
X0238189Y0387180D02*
D03*
X0270866Y0333047D02*
D03*
X0238189Y0333047D02*
D03*
D245*
X0260630Y0369149D02*
D03*
X0260630Y0377810D02*
D03*
X0260630Y0373480D02*
D03*
X0260630Y0364818D02*
D03*
X0260630Y0360487D02*
D03*
X0260630Y0356157D02*
D03*
X0260630Y0351826D02*
D03*
X0260630Y0347495D02*
D03*
D246*
X0278937Y0288539D02*
D03*
X0265733Y0288539D02*
D03*
X0271456Y0280507D02*
D03*
X0258253Y0280507D02*
D03*
X0275197Y0297791D02*
D03*
X0261993Y0297791D02*
D03*
X0261993Y0271255D02*
D03*
X0173819Y0386176D02*
D03*
X0170079Y0395428D02*
D03*
X0275197Y0271255D02*
D03*
D247*
X0272860Y0314312D02*
D03*
X0268923Y0314312D02*
D03*
X0272860Y0308308D02*
D03*
X0270892Y0308308D02*
D03*
X0270892Y0314312D02*
D03*
X0268923Y0308308D02*
D03*
D248*
X0182295Y0370960D02*
D03*
X0177177Y0370960D02*
D03*
X0179736Y0370960D02*
D03*
X0182295Y0363479D02*
D03*
X0177177Y0363479D02*
D03*
D249*
X0185512Y0351452D02*
D03*
X0162520Y0348893D02*
D03*
X0162520Y0351452D02*
D03*
X0185512Y0328421D02*
D03*
X0162520Y0325862D02*
D03*
X0162520Y0323302D02*
D03*
X0162520Y0328421D02*
D03*
X0162520Y0330980D02*
D03*
X0162520Y0333539D02*
D03*
X0162520Y0336098D02*
D03*
X0162520Y0338657D02*
D03*
X0162520Y0341216D02*
D03*
X0162520Y0343775D02*
D03*
X0162520Y0346334D02*
D03*
X0185512Y0323302D02*
D03*
X0185512Y0325862D02*
D03*
X0185512Y0330980D02*
D03*
X0185512Y0333539D02*
D03*
X0185512Y0336098D02*
D03*
X0185512Y0338657D02*
D03*
X0185512Y0341216D02*
D03*
X0185512Y0343775D02*
D03*
X0185512Y0346334D02*
D03*
X0185512Y0348893D02*
D03*
D250*
X0159449Y0389039D02*
D03*
X0159449Y0400457D02*
D03*
D251*
X0217539Y0391174D02*
D03*
X0204547Y0391174D02*
D03*
X0153462Y0379974D02*
D03*
X0166454Y0379974D02*
D03*
D252*
X0216314Y0365769D02*
D03*
X0216314Y0351202D02*
D03*
D253*
X0267890Y0310326D02*
D03*
X0267890Y0312294D02*
D03*
X0273894Y0312294D02*
D03*
X0273894Y0310326D02*
D03*
D254*
X0202903Y0378292D02*
D03*
X0208808Y0378292D02*
D03*
D246*
X0271456Y0288539D02*
D03*
X0258253Y0288539D02*
D03*
X0265733Y0280507D02*
D03*
X0166338Y0386176D02*
D03*
X0278937Y0280507D02*
D03*
D255*
X0205706Y0327633D02*
D03*
X0212399Y0327633D02*
D03*
D256*
X0222067Y0401170D02*
D03*
X0210650Y0401170D02*
D03*
D257*
X0153150Y0366806D02*
D03*
X0153150Y0360507D02*
D03*
X0148425Y0173945D02*
G01*
G75*
D113*
X0179626Y0198354D02*
D03*
X0179921Y0184378D02*
D03*
X0178740Y0179358D02*
D03*
X0175295Y0181425D02*
D03*
M02*
