M48
INCH,TZ
T01C0.011800
T02C0.029550
T03C0.039200
T04C0.043300
T05C0.145700
%
T01
X7165Y44504
X7716Y44504
X8123Y44444
X8740Y44862
X9094Y44862
X16523Y44711
X20923Y44534
X24753Y45404
X25293Y44634
X26889Y44724
X28883Y44744
X35905Y43779
X40472Y44173
X29813Y24186
X29541Y24822
X29755Y25207
X29114Y25636
X29074Y25972
X29271Y26562
X29547Y26818
X29665Y27349
X29271Y27645
X29074Y27153
X29074Y28334
X29074Y29909
X29547Y29889
X30658Y30181
X31705Y30156
X32027Y29868
X33080Y29793
X34192Y29909
X34980Y29909
X34507Y28905
X33862Y28899
X33922Y27653
X34389Y27743
X34557Y27263
X34980Y27546
X34558Y26378
X35254Y26206
X35295Y25814
X35295Y25420
X34613Y25514
X34303Y25025
X34690Y24708
X34293Y24278
X33904Y24657
X33829Y25381
X33877Y25814
X32561Y24829
X32561Y24200
X31642Y24186
X30787Y24186
X31010Y24828
X31594Y25853
X31987Y27300
X31240Y27349
X31673Y27859
X32262Y28857
X33208Y30814
X34140Y30881
X34586Y30499
X34980Y31090
X34153Y31877
X32154Y32045
X32112Y31639
X31325Y31629
X31060Y31226
X29623Y31303
X30032Y30668
X29192Y30435
X34770Y19605
X34922Y19858
X34764Y20145
X34764Y20500
X35766Y20166
X36040Y20061
X36283Y20274
X35733Y19761
X37212Y20501
X38189Y20500
X38189Y20126
X38189Y19752
X28858Y38905
X28885Y40551
X28907Y39722
X29629Y37198
X29638Y37955
X29664Y38734
X29712Y40563
X29714Y39631
X29886Y38929
X30060Y40535
X30147Y37326
X30177Y38641
X30452Y37192
X30508Y40726
X30585Y39179
X30596Y37933
X30750Y40254
X30873Y39243
X31167Y39220
X31409Y39621
X31541Y38815
X31594Y39141
X31604Y38423
X31624Y37340
X31674Y37712
X31714Y38062
X31935Y38720
X32244Y37192
X32313Y38767
X32627Y39191
X32746Y38905
X32844Y38401
X32866Y39864
X32909Y37352
X32932Y39161
X33001Y40535
X33297Y40476
X33480Y39206
X33492Y40705
X33819Y37832
X34295Y37824
X34537Y37655
X34547Y38068
X34563Y37173
X28868Y38153
X28868Y37759
X34547Y40696
X34547Y40224
X34547Y39752
X34547Y39279
X28996Y34908
X28996Y32940
X29035Y36247
X29862Y34830
X30019Y33767
X30137Y32940
X30374Y36247
X30767Y35341
X30807Y34357
X31358Y33727
X31397Y32940
X31791Y36247
X32027Y35538
X32106Y32940
X32192Y34847
X32618Y33294
X33129Y34160
X33366Y33215
X33523Y36247
X33838Y32940
X34156Y35422
X34429Y34554
X34429Y33215
X28868Y33802
X28868Y33408
X34547Y36345
X34547Y35873
X34547Y35401
X34547Y34928
X28960Y17078
X29118Y18535
X30023Y20562
X30040Y17528
X30417Y19086
X30455Y18422
X30811Y20543
X30811Y17039
X30850Y19795
X30850Y17669
X31559Y20562
X31559Y19795
X31559Y19086
X31559Y18377
X31559Y17669
X32267Y19086
X32307Y17039
X32700Y18377
X32700Y17669
X33131Y20155
X33133Y20464
X33448Y19992
X33763Y20543
X33803Y17432
X33901Y18929
X33921Y17078
X33960Y20031
X28842Y20661
X28842Y20346
X28842Y20031
X28842Y19716
X28842Y19401
X28842Y19086
X28842Y18771
X29157Y20661
X14999Y23059
X15074Y25989
X15118Y24319
X15118Y20953
X15351Y21143
X15407Y22423
X15407Y22734
X15561Y25757
X15789Y24166
X15881Y24864
X15944Y22236
X16081Y21303
X16373Y21031
X16476Y26071
X16522Y25434
X16564Y25057
X16639Y23750
X16643Y22513
X16919Y20992
X17000Y23078
X17125Y21789
X17185Y23738
X17194Y24785
X17303Y23028
X17401Y20953
X18198Y26076
X18366Y21760
X18656Y23565
X18886Y24504
X18887Y23004
X18888Y23797
X19094Y24040
X19114Y20854
X19172Y23699
X19479Y25076
X19687Y22941
X19776Y25025
X19901Y20884
X19917Y24378
X20086Y25031
X20104Y21598
X20177Y22980
X20236Y23980
X20389Y24655
X20393Y21681
X20694Y22414
X20712Y25380
X20720Y25681
X21092Y20874
X21299Y25512
X21324Y26097
X21333Y25213
X21590Y25878
X21728Y24236
X21774Y23389
X21844Y22876
X21844Y21976
X21844Y21675
X21844Y21374
X21844Y21073
X21848Y22468
X22224Y24004
X22480Y23787
X24555Y20832
X24772Y22581
X24812Y25834
X24960Y25421
X25059Y22488
X25098Y24840
X25098Y24565
X25098Y24289
X25275Y25401
X25295Y20825
X25403Y24840
X25403Y24565
X25600Y25815
X15062Y25520
X15062Y25126
X15062Y24732
X15062Y23834
X15062Y23434
X25531Y22508
X25531Y22114
X25531Y21720
X25531Y21327
X15118Y26838
X15594Y26869
X15826Y27059
X16062Y26838
X16299Y27039
X16535Y26838
X16771Y27039
X17007Y26838
X17244Y27039
X17480Y26838
X17716Y27039
X17952Y26838
X18188Y27039
X18425Y26838
X18661Y27039
X18897Y26838
X19133Y27039
X19370Y26838
X19606Y27039
X19842Y26838
X20078Y27039
X20314Y26838
X20551Y27039
X20787Y26838
X21023Y27039
X21259Y26838
X21496Y27039
X21732Y26838
X21968Y27039
X22204Y26838
X22440Y27039
X22677Y26838
X22913Y27039
X23149Y26838
X23385Y27039
X23622Y26838
X23858Y27039
X24094Y26838
X24330Y27039
X24566Y26838
X24803Y27039
X25039Y26838
X25275Y27039
X25511Y26838
X25826Y26996
X25819Y27531
X25392Y27725
X24941Y27735
X24499Y27742
X24026Y27740
X23521Y28787
X23211Y28787
X22964Y28314
X22366Y28517
X22070Y28526
X22227Y28797
X22344Y29479
X22089Y29747
X21992Y30288
X22431Y30288
X22891Y30168
X22891Y30500
X22891Y30795
X22885Y31086
X23215Y31770
X23760Y31766
X23622Y32350
X22992Y32271
X22922Y33103
X22907Y33489
X22559Y33295
X22325Y33095
X22068Y33528
X21375Y33829
X20777Y33846
X20430Y33550
X19655Y33725
X19673Y33170
X19663Y32623
X18955Y32750
X19000Y33549
X18974Y34314
X18952Y35124
X19655Y35164
X19655Y34879
X19655Y34594
X19655Y35465
X20443Y35781
X20430Y36066
X20398Y36364
X20448Y36846
X20852Y36897
X21482Y37375
X21859Y37363
X22795Y37507
X23120Y36907
X23328Y37110
X23310Y36583
X23668Y36536
X23117Y36352
X22911Y35209
X22688Y34980
X22642Y34297
X22351Y34286
X22838Y34078
X23507Y34078
X24373Y33889
X24567Y33675
X24771Y33471
X24973Y33269
X24970Y34082
X24523Y34547
X24510Y35248
X24886Y35150
X24763Y35618
X24561Y36155
X24801Y36381
X24995Y36779
X24803Y37035
X24702Y37418
X24662Y37724
X24960Y37626
X25464Y37424
X25520Y37123
X25464Y36561
X25611Y36316
X25354Y35933
X25336Y35442
X26564Y35050
X26874Y34736
X26692Y34515
X26657Y33995
X28110Y33925
X28110Y34240
X28110Y34555
X28110Y34870
X28110Y35185
X28110Y35500
X28110Y35814
X27971Y36092
X28110Y36366
X28110Y36681
X28110Y36996
X28110Y37311
X28110Y37626
X28110Y37940
X27753Y38028
X27970Y38272
X27661Y38974
X27657Y39909
X27284Y39953
X27282Y39668
X26909Y39909
X27007Y40775
X26692Y40775
X26377Y40775
X26062Y40775
X25748Y40775
X25433Y40775
X25118Y40775
X24803Y40775
X24488Y40775
X23897Y40578
X23543Y40775
X23228Y40775
X22913Y40775
X22598Y40775
X22283Y40775
X21968Y40775
X21653Y40775
X21338Y40775
X21023Y40775
X20511Y40736
X20605Y40081
X20207Y40045
X19862Y40090
X19583Y39788
X19641Y40543
X19330Y40775
X18267Y40775
X17873Y40775
X17512Y40751
X17520Y40288
X17290Y39843
X17209Y38970
X16769Y39193
X17955Y39505
X18418Y39824
X18375Y38973
X18818Y38925
X19303Y38497
X19311Y38212
X19379Y37852
X19382Y37556
X18652Y37655
X18661Y37271
X18652Y36946
X18991Y36618
X18652Y36238
X18668Y35886
X18648Y35591
X18965Y35909
X17970Y36337
X17967Y36781
X16791Y36637
X16811Y36116
X16810Y35727
X17635Y35262
X17935Y35301
X17958Y34848
X17958Y34561
X17958Y34274
X17958Y33858
X17958Y33572
X17976Y33148
X17976Y32840
X17976Y32551
X18200Y31811
X18480Y31716
X18792Y31321
X18494Y31001
X18494Y30435
X18487Y30149
X18578Y29488
X18375Y28743
X18543Y28511
X18243Y28476
X17618Y28312
X17322Y28312
X16696Y28517
X16410Y28517
X16574Y28800
X16678Y29476
X16519Y29745
X16339Y30322
X16815Y30322
X17301Y30168
X17301Y30500
X17301Y30795
X17294Y31086
X16531Y31308
X16535Y31685
X15732Y31693
X15759Y31359
X15464Y31791
X14985Y31834
X14960Y32429
X14960Y32822
X14960Y33216
X14960Y33610
X14960Y34003
X14960Y34397
X14960Y34791
X14960Y35185
X14999Y35814
X14960Y36208
X14960Y36523
X14960Y36897
X15088Y37380
X14999Y37744
X14960Y38374
X15244Y38484
X14960Y38925
X14981Y40087
X14960Y40775
X15984Y37507
X16110Y37212
X16979Y37697
X18971Y37989
X19848Y38437
X19980Y38826
X20318Y38755
X20741Y38433
X21181Y38334
X21922Y38412
X22450Y39348
X22590Y39627
X22661Y39934
X22923Y39244
X23754Y39273
X23946Y39598
X24690Y39252
X24616Y38404
X24910Y38404
X25201Y38404
X26387Y38462
X26417Y38925
X26142Y39456
X26116Y40360
X25006Y40487
X27322Y40775
X27637Y40775
X27952Y40775
X26758Y37871
X26602Y37632
X26830Y37340
X27047Y36913
X26606Y36915
X26508Y36231
X27024Y35942
X27300Y36496
X27311Y35287
X28110Y33610
X28110Y33295
X28110Y32980
X28110Y32665
X28110Y32350
X28110Y32035
X28110Y31720
X28110Y31405
X28110Y31090
X27591Y30476
X28031Y29870
X28110Y29397
X27539Y28799
X27539Y28480
X27539Y28162
X27539Y27844
X27539Y27525
X27175Y27199
X27893Y27156
X26297Y27987
X26430Y28566
X25866Y29476
X25633Y30180
X25647Y30500
X25642Y30788
X25641Y31086
X24854Y31308
X24845Y31721
X24335Y31336
X24045Y31120
X24045Y30547
X24082Y30161
X24686Y30295
X25186Y30288
X24846Y29742
X24967Y29076
X24650Y29076
X24304Y29076
X25314Y29065
X23503Y29476
X21287Y30161
X21289Y30560
X21289Y30999
X21371Y31383
X22098Y31361
X22047Y31643
X20905Y31775
X20581Y31783
X20559Y32275
X20149Y31995
X20078Y31166
X20101Y30795
X20088Y30500
X20078Y30000
X19783Y30263
X19114Y30308
X19314Y29766
X19243Y28890
X19474Y28310
X20184Y28517
X20476Y28517
X20334Y28807
X20457Y29476
X21103Y28356
X21431Y28305
X19436Y31314
X19237Y31720
X17624Y31770
X17090Y32389
X17090Y33150
X17090Y33911
X17091Y34673
X20774Y34620
X20570Y34945
X20732Y35833
X19653Y36933
X20452Y39556
X20896Y39460
X20989Y39190
X21192Y39553
X23698Y38211
X23756Y37928
X25329Y32395
X25708Y32744
X26795Y32599
X26746Y31870
X26434Y31902
X25971Y31770
X27506Y32077
X21184Y33132
X15698Y30588
X15736Y30123
X15454Y29801
X14963Y29762
X15561Y29210
X15295Y28898
X14960Y28216
X14960Y27822
X14980Y27237
X15551Y27429
X15748Y28312
X15088Y31120
X17529Y18142
X17873Y17935
X17992Y18437
X17962Y19835
T02
X29472Y17039
X29944Y17039
X32307Y20582
X33173Y17039
X21055Y32133
X22633Y32133
X24055Y32133
T03
X29015Y24475
X29015Y29220
X35118Y29200
X35118Y28452
X35118Y26759
X35118Y24298
X35118Y31720
X29015Y31897
X29015Y31168
X22385Y21838
X23173Y23020
X23960Y21838
X15259Y21760
X17259Y22160
X17259Y21360
X15275Y40460
X24354Y39489
X24354Y40289
X26354Y39889
T04
X696Y46109
X1696Y46109
X2696Y46109
X3696Y46109
X4696Y46109
X5696Y46109
X6696Y46109
X7696Y46109
X8696Y46109
X9696Y46109
X10696Y46109
X11696Y46109
X12696Y46109
X13696Y46109
X14696Y46109
X15696Y46109
X21983Y46109
X22983Y46109
X23983Y46109
X24983Y46109
X25983Y46109
X26983Y46109
X27983Y46109
X28983Y46109
X22208Y25647
X23208Y25647
X24208Y25647
T05
X18837Y45321
X39389Y45321
M30
