G75*
G70*
%OFA0B0*%
%FSLAX25Y25*%
%IPPOS*%
%LPD*%
%AMOC8*
5,1,8,0,0,1.08239X$1,22.5*
%
%AMM155*
21,1,0.025590,0.026380,-0.000000,-0.000000,90.000000*
21,1,0.020470,0.031500,-0.000000,-0.000000,90.000000*
1,1,0.005120,0.013190,0.010240*
1,1,0.005120,0.013190,-0.010240*
1,1,0.005120,-0.013190,-0.010240*
1,1,0.005120,-0.013190,0.010240*
%
%AMM156*
21,1,0.017720,0.027950,-0.000000,-0.000000,90.000000*
21,1,0.014170,0.031500,-0.000000,-0.000000,90.000000*
1,1,0.003540,0.013980,0.007090*
1,1,0.003540,0.013980,-0.007090*
1,1,0.003540,-0.013980,-0.007090*
1,1,0.003540,-0.013980,0.007090*
%
%AMM159*
21,1,0.027560,0.018900,-0.000000,-0.000000,270.000000*
21,1,0.022840,0.023620,-0.000000,-0.000000,270.000000*
1,1,0.004720,-0.009450,-0.011420*
1,1,0.004720,-0.009450,0.011420*
1,1,0.004720,0.009450,0.011420*
1,1,0.004720,0.009450,-0.011420*
%
%AMM161*
21,1,0.027560,0.018900,-0.000000,-0.000000,0.000000*
21,1,0.022840,0.023620,-0.000000,-0.000000,0.000000*
1,1,0.004720,0.011420,-0.009450*
1,1,0.004720,-0.011420,-0.009450*
1,1,0.004720,-0.011420,0.009450*
1,1,0.004720,0.011420,0.009450*
%
%AMM163*
21,1,0.035430,0.030320,-0.000000,-0.000000,90.000000*
21,1,0.028350,0.037400,-0.000000,-0.000000,90.000000*
1,1,0.007090,0.015160,0.014170*
1,1,0.007090,0.015160,-0.014170*
1,1,0.007090,-0.015160,-0.014170*
1,1,0.007090,-0.015160,0.014170*
%
%AMM166*
21,1,0.027560,0.030710,-0.000000,-0.000000,180.000000*
21,1,0.022050,0.036220,-0.000000,-0.000000,180.000000*
1,1,0.005510,-0.011020,0.015350*
1,1,0.005510,0.011020,0.015350*
1,1,0.005510,0.011020,-0.015350*
1,1,0.005510,-0.011020,-0.015350*
%
%AMM187*
21,1,0.033470,0.026770,-0.000000,-0.000000,270.000000*
21,1,0.026770,0.033470,-0.000000,-0.000000,270.000000*
1,1,0.006690,-0.013390,-0.013390*
1,1,0.006690,-0.013390,0.013390*
1,1,0.006690,0.013390,0.013390*
1,1,0.006690,0.013390,-0.013390*
%
%AMM188*
21,1,0.025590,0.026380,-0.000000,-0.000000,180.000000*
21,1,0.020470,0.031500,-0.000000,-0.000000,180.000000*
1,1,0.005120,-0.010240,0.013190*
1,1,0.005120,0.010240,0.013190*
1,1,0.005120,0.010240,-0.013190*
1,1,0.005120,-0.010240,-0.013190*
%
%AMM189*
21,1,0.017720,0.027950,-0.000000,-0.000000,180.000000*
21,1,0.014170,0.031500,-0.000000,-0.000000,180.000000*
1,1,0.003540,-0.007090,0.013980*
1,1,0.003540,0.007090,0.013980*
1,1,0.003540,0.007090,-0.013980*
1,1,0.003540,-0.007090,-0.013980*
%
%AMM190*
21,1,0.033470,0.026770,-0.000000,-0.000000,180.000000*
21,1,0.026770,0.033470,-0.000000,-0.000000,180.000000*
1,1,0.006690,-0.013390,0.013390*
1,1,0.006690,0.013390,0.013390*
1,1,0.006690,0.013390,-0.013390*
1,1,0.006690,-0.013390,-0.013390*
%
%AMM191*
21,1,0.078740,0.045670,-0.000000,-0.000000,0.000000*
21,1,0.067320,0.057090,-0.000000,-0.000000,0.000000*
1,1,0.011420,0.033660,-0.022840*
1,1,0.011420,-0.033660,-0.022840*
1,1,0.011420,-0.033660,0.022840*
1,1,0.011420,0.033660,0.022840*
%
%AMM192*
21,1,0.059060,0.020470,-0.000000,-0.000000,0.000000*
21,1,0.053940,0.025590,-0.000000,-0.000000,0.000000*
1,1,0.005120,0.026970,-0.010240*
1,1,0.005120,-0.026970,-0.010240*
1,1,0.005120,-0.026970,0.010240*
1,1,0.005120,0.026970,0.010240*
%
%AMM193*
21,1,0.035430,0.030320,-0.000000,-0.000000,0.000000*
21,1,0.028350,0.037400,-0.000000,-0.000000,0.000000*
1,1,0.007090,0.014170,-0.015160*
1,1,0.007090,-0.014170,-0.015160*
1,1,0.007090,-0.014170,0.015160*
1,1,0.007090,0.014170,0.015160*
%
%AMM194*
21,1,0.012600,0.028980,-0.000000,-0.000000,0.000000*
21,1,0.010080,0.031500,-0.000000,-0.000000,0.000000*
1,1,0.002520,0.005040,-0.014490*
1,1,0.002520,-0.005040,-0.014490*
1,1,0.002520,-0.005040,0.014490*
1,1,0.002520,0.005040,0.014490*
%
%AMM195*
21,1,0.070870,0.036220,-0.000000,-0.000000,180.000000*
21,1,0.061810,0.045280,-0.000000,-0.000000,180.000000*
1,1,0.009060,-0.030910,0.018110*
1,1,0.009060,0.030910,0.018110*
1,1,0.009060,0.030910,-0.018110*
1,1,0.009060,-0.030910,-0.018110*
%
%AMM196*
21,1,0.035830,0.026770,-0.000000,-0.000000,180.000000*
21,1,0.029130,0.033470,-0.000000,-0.000000,180.000000*
1,1,0.006690,-0.014570,0.013390*
1,1,0.006690,0.014570,0.013390*
1,1,0.006690,0.014570,-0.013390*
1,1,0.006690,-0.014570,-0.013390*
%
%AMM197*
21,1,0.027560,0.049610,-0.000000,-0.000000,180.000000*
21,1,0.022050,0.055120,-0.000000,-0.000000,180.000000*
1,1,0.005510,-0.011020,0.024800*
1,1,0.005510,0.011020,0.024800*
1,1,0.005510,0.011020,-0.024800*
1,1,0.005510,-0.011020,-0.024800*
%
%AMM198*
21,1,0.070870,0.036220,-0.000000,-0.000000,270.000000*
21,1,0.061810,0.045280,-0.000000,-0.000000,270.000000*
1,1,0.009060,-0.018110,-0.030910*
1,1,0.009060,-0.018110,0.030910*
1,1,0.009060,0.018110,0.030910*
1,1,0.009060,0.018110,-0.030910*
%
%AMM199*
21,1,0.027560,0.030710,-0.000000,-0.000000,270.000000*
21,1,0.022050,0.036220,-0.000000,-0.000000,270.000000*
1,1,0.005510,-0.015350,-0.011020*
1,1,0.005510,-0.015350,0.011020*
1,1,0.005510,0.015350,0.011020*
1,1,0.005510,0.015350,-0.011020*
%
%AMM225*
21,1,0.023620,0.018900,-0.000000,-0.000000,0.000000*
21,1,0.018900,0.023620,-0.000000,-0.000000,0.000000*
1,1,0.004720,0.009450,-0.009450*
1,1,0.004720,-0.009450,-0.009450*
1,1,0.004720,-0.009450,0.009450*
1,1,0.004720,0.009450,0.009450*
%
%AMM226*
21,1,0.019680,0.019680,-0.000000,-0.000000,90.000000*
21,1,0.015750,0.023620,-0.000000,-0.000000,90.000000*
1,1,0.003940,0.009840,0.007870*
1,1,0.003940,0.009840,-0.007870*
1,1,0.003940,-0.009840,-0.007870*
1,1,0.003940,-0.009840,0.007870*
%
%AMM227*
21,1,0.033470,0.026770,-0.000000,-0.000000,90.000000*
21,1,0.026770,0.033470,-0.000000,-0.000000,90.000000*
1,1,0.006690,0.013390,0.013390*
1,1,0.006690,0.013390,-0.013390*
1,1,0.006690,-0.013390,-0.013390*
1,1,0.006690,-0.013390,0.013390*
%
%AMM228*
21,1,0.019680,0.019680,-0.000000,-0.000000,180.000000*
21,1,0.015750,0.023620,-0.000000,-0.000000,180.000000*
1,1,0.003940,-0.007870,0.009840*
1,1,0.003940,0.007870,0.009840*
1,1,0.003940,0.007870,-0.009840*
1,1,0.003940,-0.007870,-0.009840*
%
%AMM46*
21,1,0.035830,0.026770,0.000000,0.000000,0.000000*
21,1,0.029130,0.033470,0.000000,0.000000,0.000000*
1,1,0.006690,0.014570,-0.013390*
1,1,0.006690,-0.014570,-0.013390*
1,1,0.006690,-0.014570,0.013390*
1,1,0.006690,0.014570,0.013390*
%
%AMM48*
21,1,0.070870,0.036220,0.000000,0.000000,90.000000*
21,1,0.061810,0.045280,0.000000,0.000000,90.000000*
1,1,0.009060,0.018110,0.030910*
1,1,0.009060,0.018110,-0.030910*
1,1,0.009060,-0.018110,-0.030910*
1,1,0.009060,-0.018110,0.030910*
%
%AMM66*
21,1,0.019680,0.019680,0.000000,0.000000,270.000000*
21,1,0.015750,0.023620,0.000000,0.000000,270.000000*
1,1,0.003940,-0.009840,-0.007870*
1,1,0.003940,-0.009840,0.007870*
1,1,0.003940,0.009840,0.007870*
1,1,0.003940,0.009840,-0.007870*
%
%AMM67*
21,1,0.033470,0.026770,0.000000,0.000000,270.000000*
21,1,0.026770,0.033470,0.000000,0.000000,270.000000*
1,1,0.006690,-0.013390,-0.013390*
1,1,0.006690,-0.013390,0.013390*
1,1,0.006690,0.013390,0.013390*
1,1,0.006690,0.013390,-0.013390*
%
%AMM68*
21,1,0.019680,0.019680,0.000000,0.000000,0.000000*
21,1,0.015750,0.023620,0.000000,0.000000,0.000000*
1,1,0.003940,0.007870,-0.009840*
1,1,0.003940,-0.007870,-0.009840*
1,1,0.003940,-0.007870,0.009840*
1,1,0.003940,0.007870,0.009840*
%
%AMM79*
21,1,0.023620,0.018900,0.000000,0.000000,90.000000*
21,1,0.018900,0.023620,0.000000,0.000000,90.000000*
1,1,0.004720,0.009450,0.009450*
1,1,0.004720,0.009450,-0.009450*
1,1,0.004720,-0.009450,-0.009450*
1,1,0.004720,-0.009450,0.009450*
%
%AMM89*
21,1,0.023620,0.018900,0.000000,0.000000,0.000000*
21,1,0.018900,0.023620,0.000000,0.000000,0.000000*
1,1,0.004720,0.009450,-0.009450*
1,1,0.004720,-0.009450,-0.009450*
1,1,0.004720,-0.009450,0.009450*
1,1,0.004720,0.009450,0.009450*
%
%AMM90*
21,1,0.106300,0.050390,0.000000,0.000000,90.000000*
21,1,0.093700,0.062990,0.000000,0.000000,90.000000*
1,1,0.012600,0.025200,0.046850*
1,1,0.012600,0.025200,-0.046850*
1,1,0.012600,-0.025200,-0.046850*
1,1,0.012600,-0.025200,0.046850*
%
%AMM91*
21,1,0.122050,0.075590,0.000000,0.000000,180.000000*
21,1,0.103150,0.094490,0.000000,0.000000,180.000000*
1,1,0.018900,-0.051580,0.037800*
1,1,0.018900,0.051580,0.037800*
1,1,0.018900,0.051580,-0.037800*
1,1,0.018900,-0.051580,-0.037800*
%
%AMM92*
21,1,0.118110,0.083460,0.000000,0.000000,0.000000*
21,1,0.097240,0.104330,0.000000,0.000000,0.000000*
1,1,0.020870,0.048620,-0.041730*
1,1,0.020870,-0.048620,-0.041730*
1,1,0.020870,-0.048620,0.041730*
1,1,0.020870,0.048620,0.041730*
%
%ADD168R,0.01378X0.01476*%
%ADD171O,0.04961X0.00984*%
%ADD173M46*%
%ADD174R,0.09449X0.06693*%
%ADD175R,0.01476X0.01378*%
%ADD177R,0.03937X0.04331*%
%ADD178M48*%
%ADD232M66*%
%ADD233M67*%
%ADD234M68*%
%ADD245M79*%
%ADD257M89*%
%ADD258M90*%
%ADD259O,0.01968X0.08661*%
%ADD260M91*%
%ADD261M92*%
%ADD33R,0.00787X0.24803*%
%ADD34R,0.00787X0.12992*%
%ADD348M155*%
%ADD349M156*%
%ADD35R,0.00787X0.01575*%
%ADD352M159*%
%ADD354M161*%
%ADD356M163*%
%ADD359M166*%
%ADD36R,0.00787X0.27559*%
%ADD37R,0.25197X0.00787*%
%ADD38R,0.05512X0.00787*%
%ADD380M187*%
%ADD381M188*%
%ADD382M189*%
%ADD383M190*%
%ADD384M191*%
%ADD385M192*%
%ADD386M193*%
%ADD387M194*%
%ADD388M195*%
%ADD389M196*%
%ADD39R,0.12992X0.00787*%
%ADD390M197*%
%ADD391M198*%
%ADD392M199*%
%ADD40R,0.06693X0.00787*%
%ADD41R,0.00787X0.09055*%
%ADD411R,0.01772X0.05709*%
%ADD412R,0.02559X0.04803*%
%ADD42R,0.00787X0.38189*%
%ADD428M225*%
%ADD429M226*%
%ADD43R,0.00787X0.06299*%
%ADD430M227*%
%ADD431M228*%
%ADD44R,0.00787X0.14567*%
X0477067Y0222835D02*
%LPD*%
G01*
G36*
G01*
X0459902Y0233465D02*
X0459902Y0230394D01*
G75*
G02*
X0459626Y0230118I-000276J0000000D01*
G01*
X0457421Y0230118D01*
G75*
G02*
X0457146Y0230394I0000000J0000276D01*
G01*
X0457146Y0233465D01*
G75*
G02*
X0457421Y0233741I0000276J0000000D01*
G01*
X0459626Y0233741D01*
G75*
G02*
X0459902Y0233465I0000000J-000276D01*
G01*
G37*
G36*
G01*
X0453602Y0233465D02*
X0453602Y0230394D01*
G75*
G02*
X0453327Y0230118I-000276J0000000D01*
G01*
X0451122Y0230118D01*
G75*
G02*
X0450847Y0230394I0000000J0000276D01*
G01*
X0450847Y0233465D01*
G75*
G02*
X0451122Y0233741I0000276J0000000D01*
G01*
X0453327Y0233741D01*
G75*
G02*
X0453602Y0233465I0000000J-000276D01*
G01*
G37*
G36*
G01*
X0439036Y0230394D02*
X0439036Y0233465D01*
G75*
G02*
X0439311Y0233741I0000276J0000000D01*
G01*
X0441516Y0233741D01*
G75*
G02*
X0441791Y0233465I0000000J-000276D01*
G01*
X0441791Y0230394D01*
G75*
G02*
X0441516Y0230118I-000276J0000000D01*
G01*
X0439311Y0230118D01*
G75*
G02*
X0439036Y0230394I0000000J0000276D01*
G01*
G37*
G36*
G01*
X0445335Y0230394D02*
X0445335Y0233465D01*
G75*
G02*
X0445610Y0233741I0000276J0000000D01*
G01*
X0447815Y0233741D01*
G75*
G02*
X0448091Y0233465I0000000J-000276D01*
G01*
X0448091Y0230394D01*
G75*
G02*
X0447815Y0230118I-000276J0000000D01*
G01*
X0445610Y0230118D01*
G75*
G02*
X0445335Y0230394I0000000J0000276D01*
G01*
G37*
G36*
G01*
X0441890Y0249646D02*
X0446024Y0249646D01*
G75*
G02*
X0446417Y0249252I0000000J-000394D01*
G01*
X0446417Y0246103D01*
G75*
G02*
X0446024Y0245709I-000394J0000000D01*
G01*
X0441890Y0245709D01*
G75*
G02*
X0441496Y0246103I0000000J0000394D01*
G01*
X0441496Y0249252D01*
G75*
G02*
X0441890Y0249646I0000394J0000000D01*
G01*
G37*
G36*
G01*
X0441890Y0241772D02*
X0446024Y0241772D01*
G75*
G02*
X0446417Y0241378I0000000J-000394D01*
G01*
X0446417Y0238229D01*
G75*
G02*
X0446024Y0237835I-000394J0000000D01*
G01*
X0441890Y0237835D01*
G75*
G02*
X0441496Y0238229I0000000J0000394D01*
G01*
X0441496Y0241378D01*
G75*
G02*
X0441890Y0241772I0000394J0000000D01*
G01*
G37*
G36*
G01*
X0460197Y0252796D02*
X0456063Y0252796D01*
G75*
G02*
X0455669Y0253189I0000000J0000394D01*
G01*
X0455669Y0256339D01*
G75*
G02*
X0456063Y0256733I0000394J0000000D01*
G01*
X0460197Y0256733D01*
G75*
G02*
X0460591Y0256339I0000000J-000394D01*
G01*
X0460591Y0253189D01*
G75*
G02*
X0460197Y0252796I-000394J0000000D01*
G01*
G37*
G36*
G01*
X0460197Y0260670D02*
X0456063Y0260670D01*
G75*
G02*
X0455669Y0261063I0000000J0000394D01*
G01*
X0455669Y0264213D01*
G75*
G02*
X0456063Y0264607I0000394J0000000D01*
G01*
X0460197Y0264607D01*
G75*
G02*
X0460591Y0264213I0000000J-000394D01*
G01*
X0460591Y0261063D01*
G75*
G02*
X0460197Y0260670I-000394J0000000D01*
G01*
G37*
G36*
G01*
X0462402Y0224685D02*
X0462402Y0227363D01*
G75*
G02*
X0462736Y0227697I0000335J0000000D01*
G01*
X0465413Y0227697D01*
G75*
G02*
X0465748Y0227363I0000000J-000335D01*
G01*
X0465748Y0224685D01*
G75*
G02*
X0465413Y0224351I-000335J0000000D01*
G01*
X0462736Y0224351D01*
G75*
G02*
X0462402Y0224685I0000000J0000335D01*
G01*
G37*
G36*
G01*
X0468622Y0224685D02*
X0468622Y0227363D01*
G75*
G02*
X0468957Y0227697I0000335J0000000D01*
G01*
X0471634Y0227697D01*
G75*
G02*
X0471969Y0227363I0000000J-000335D01*
G01*
X0471969Y0224685D01*
G75*
G02*
X0471634Y0224351I-000335J0000000D01*
G01*
X0468957Y0224351D01*
G75*
G02*
X0468622Y0224685I0000000J0000335D01*
G01*
G37*
G36*
G01*
X0464469Y0268780D02*
X0464469Y0271457D01*
G75*
G02*
X0464803Y0271792I0000335J0000000D01*
G01*
X0467480Y0271792D01*
G75*
G02*
X0467815Y0271457I0000000J-000335D01*
G01*
X0467815Y0268780D01*
G75*
G02*
X0467480Y0268445I-000335J0000000D01*
G01*
X0464803Y0268445D01*
G75*
G02*
X0464469Y0268780I0000000J0000335D01*
G01*
G37*
G36*
G01*
X0470689Y0268780D02*
X0470689Y0271457D01*
G75*
G02*
X0471024Y0271792I0000335J0000000D01*
G01*
X0473701Y0271792D01*
G75*
G02*
X0474036Y0271457I0000000J-000335D01*
G01*
X0474036Y0268780D01*
G75*
G02*
X0473701Y0268445I-000335J0000000D01*
G01*
X0471024Y0268445D01*
G75*
G02*
X0470689Y0268780I0000000J0000335D01*
G01*
G37*
G36*
G01*
X0448976Y0249646D02*
X0453110Y0249646D01*
G75*
G02*
X0453504Y0249252I0000000J-000394D01*
G01*
X0453504Y0246103D01*
G75*
G02*
X0453110Y0245709I-000394J0000000D01*
G01*
X0448976Y0245709D01*
G75*
G02*
X0448583Y0246103I0000000J0000394D01*
G01*
X0448583Y0249252D01*
G75*
G02*
X0448976Y0249646I0000394J0000000D01*
G01*
G37*
G36*
G01*
X0448976Y0241772D02*
X0453110Y0241772D01*
G75*
G02*
X0453504Y0241378I0000000J-000394D01*
G01*
X0453504Y0238229D01*
G75*
G02*
X0453110Y0237835I-000394J0000000D01*
G01*
X0448976Y0237835D01*
G75*
G02*
X0448583Y0238229I0000000J0000394D01*
G01*
X0448583Y0241378D01*
G75*
G02*
X0448976Y0241772I0000394J0000000D01*
G01*
G37*
G36*
G01*
X0453110Y0252796D02*
X0448976Y0252796D01*
G75*
G02*
X0448583Y0253189I0000000J0000394D01*
G01*
X0448583Y0256339D01*
G75*
G02*
X0448976Y0256733I0000394J0000000D01*
G01*
X0453110Y0256733D01*
G75*
G02*
X0453504Y0256339I0000000J-000394D01*
G01*
X0453504Y0253189D01*
G75*
G02*
X0453110Y0252796I-000394J0000000D01*
G01*
G37*
G36*
G01*
X0453110Y0260670D02*
X0448976Y0260670D01*
G75*
G02*
X0448583Y0261063I0000000J0000394D01*
G01*
X0448583Y0264213D01*
G75*
G02*
X0448976Y0264607I0000394J0000000D01*
G01*
X0453110Y0264607D01*
G75*
G02*
X0453504Y0264213I0000000J-000394D01*
G01*
X0453504Y0261063D01*
G75*
G02*
X0453110Y0260670I-000394J0000000D01*
G01*
G37*
G36*
G01*
X0463150Y0249646D02*
X0467284Y0249646D01*
G75*
G02*
X0467677Y0249252I0000000J-000394D01*
G01*
X0467677Y0246103D01*
G75*
G02*
X0467284Y0245709I-000394J0000000D01*
G01*
X0463150Y0245709D01*
G75*
G02*
X0462756Y0246103I0000000J0000394D01*
G01*
X0462756Y0249252D01*
G75*
G02*
X0463150Y0249646I0000394J0000000D01*
G01*
G37*
G36*
G01*
X0463150Y0241772D02*
X0467284Y0241772D01*
G75*
G02*
X0467677Y0241378I0000000J-000394D01*
G01*
X0467677Y0238229D01*
G75*
G02*
X0467284Y0237835I-000394J0000000D01*
G01*
X0463150Y0237835D01*
G75*
G02*
X0462756Y0238229I0000000J0000394D01*
G01*
X0462756Y0241378D01*
G75*
G02*
X0463150Y0241772I0000394J0000000D01*
G01*
G37*
G36*
G01*
X0474370Y0252796D02*
X0470236Y0252796D01*
G75*
G02*
X0469843Y0253189I0000000J0000394D01*
G01*
X0469843Y0256339D01*
G75*
G02*
X0470236Y0256733I0000394J0000000D01*
G01*
X0474370Y0256733D01*
G75*
G02*
X0474764Y0256339I0000000J-000394D01*
G01*
X0474764Y0253189D01*
G75*
G02*
X0474370Y0252796I-000394J0000000D01*
G01*
G37*
G36*
G01*
X0474370Y0260670D02*
X0470236Y0260670D01*
G75*
G02*
X0469843Y0261063I0000000J0000394D01*
G01*
X0469843Y0264213D01*
G75*
G02*
X0470236Y0264607I0000394J0000000D01*
G01*
X0474370Y0264607D01*
G75*
G02*
X0474764Y0264213I0000000J-000394D01*
G01*
X0474764Y0261063D01*
G75*
G02*
X0474370Y0260670I-000394J0000000D01*
G01*
G37*
G36*
G01*
X0462402Y0230591D02*
X0462402Y0233268D01*
G75*
G02*
X0462736Y0233603I0000335J0000000D01*
G01*
X0465413Y0233603D01*
G75*
G02*
X0465748Y0233268I0000000J-000335D01*
G01*
X0465748Y0230591D01*
G75*
G02*
X0465413Y0230256I-000335J0000000D01*
G01*
X0462736Y0230256D01*
G75*
G02*
X0462402Y0230591I0000000J0000335D01*
G01*
G37*
G36*
G01*
X0468622Y0230591D02*
X0468622Y0233268D01*
G75*
G02*
X0468957Y0233603I0000335J0000000D01*
G01*
X0471634Y0233603D01*
G75*
G02*
X0471969Y0233268I0000000J-000335D01*
G01*
X0471969Y0230591D01*
G75*
G02*
X0471634Y0230256I-000335J0000000D01*
G01*
X0468957Y0230256D01*
G75*
G02*
X0468622Y0230591I0000000J0000335D01*
G01*
G37*
G36*
G01*
X0470236Y0249646D02*
X0474370Y0249646D01*
G75*
G02*
X0474764Y0249252I0000000J-000394D01*
G01*
X0474764Y0246103D01*
G75*
G02*
X0474370Y0245709I-000394J0000000D01*
G01*
X0470236Y0245709D01*
G75*
G02*
X0469843Y0246103I0000000J0000394D01*
G01*
X0469843Y0249252D01*
G75*
G02*
X0470236Y0249646I0000394J0000000D01*
G01*
G37*
G36*
G01*
X0470236Y0241772D02*
X0474370Y0241772D01*
G75*
G02*
X0474764Y0241378I0000000J-000394D01*
G01*
X0474764Y0238229D01*
G75*
G02*
X0474370Y0237835I-000394J0000000D01*
G01*
X0470236Y0237835D01*
G75*
G02*
X0469843Y0238229I0000000J0000394D01*
G01*
X0469843Y0241378D01*
G75*
G02*
X0470236Y0241772I0000394J0000000D01*
G01*
G37*
G36*
G01*
X0467284Y0252796D02*
X0463150Y0252796D01*
G75*
G02*
X0462756Y0253189I0000000J0000394D01*
G01*
X0462756Y0256339D01*
G75*
G02*
X0463150Y0256733I0000394J0000000D01*
G01*
X0467284Y0256733D01*
G75*
G02*
X0467677Y0256339I0000000J-000394D01*
G01*
X0467677Y0253189D01*
G75*
G02*
X0467284Y0252796I-000394J0000000D01*
G01*
G37*
G36*
G01*
X0467284Y0260670D02*
X0463150Y0260670D01*
G75*
G02*
X0462756Y0261063I0000000J0000394D01*
G01*
X0462756Y0264213D01*
G75*
G02*
X0463150Y0264607I0000394J0000000D01*
G01*
X0467284Y0264607D01*
G75*
G02*
X0467677Y0264213I0000000J-000394D01*
G01*
X0467677Y0261063D01*
G75*
G02*
X0467284Y0260670I-000394J0000000D01*
G01*
G37*
G36*
G01*
X0446024Y0252796D02*
X0441890Y0252796D01*
G75*
G02*
X0441496Y0253189I0000000J0000394D01*
G01*
X0441496Y0256339D01*
G75*
G02*
X0441890Y0256733I0000394J0000000D01*
G01*
X0446024Y0256733D01*
G75*
G02*
X0446417Y0256339I0000000J-000394D01*
G01*
X0446417Y0253189D01*
G75*
G02*
X0446024Y0252796I-000394J0000000D01*
G01*
G37*
G36*
G01*
X0446024Y0260670D02*
X0441890Y0260670D01*
G75*
G02*
X0441496Y0261063I0000000J0000394D01*
G01*
X0441496Y0264213D01*
G75*
G02*
X0441890Y0264607I0000394J0000000D01*
G01*
X0446024Y0264607D01*
G75*
G02*
X0446417Y0264213I0000000J-000394D01*
G01*
X0446417Y0261063D01*
G75*
G02*
X0446024Y0260670I-000394J0000000D01*
G01*
G37*
G36*
G01*
X0456063Y0249646D02*
X0460197Y0249646D01*
G75*
G02*
X0460591Y0249252I0000000J-000394D01*
G01*
X0460591Y0246103D01*
G75*
G02*
X0460197Y0245709I-000394J0000000D01*
G01*
X0456063Y0245709D01*
G75*
G02*
X0455669Y0246103I0000000J0000394D01*
G01*
X0455669Y0249252D01*
G75*
G02*
X0456063Y0249646I0000394J0000000D01*
G01*
G37*
G36*
G01*
X0456063Y0241772D02*
X0460197Y0241772D01*
G75*
G02*
X0460591Y0241378I0000000J-000394D01*
G01*
X0460591Y0238229D01*
G75*
G02*
X0460197Y0237835I-000394J0000000D01*
G01*
X0456063Y0237835D01*
G75*
G02*
X0455669Y0238229I0000000J0000394D01*
G01*
X0455669Y0241378D01*
G75*
G02*
X0456063Y0241772I0000394J0000000D01*
G01*
G37*
X0353051Y0189961D02*
G01*
G75*
D39*
X0299704Y0048622D02*
D03*
D40*
X0313484Y0048622D02*
D03*
D34*
X0219586Y0154725D02*
D03*
D38*
X0261319Y0048622D02*
D03*
X0345571Y0189567D02*
D03*
D37*
X0231791Y0189567D02*
D03*
X0337303Y0048622D02*
D03*
D42*
X0352657Y0153937D02*
D03*
D41*
X0352657Y0185433D02*
D03*
D43*
X0352657Y0100197D02*
D03*
D33*
X0219586Y0177559D02*
D03*
D36*
X0219586Y0062008D02*
D03*
D44*
X0352657Y0082678D02*
D03*
X0352657Y0058662D02*
D03*
D35*
X0352657Y0070670D02*
D03*
X0219586Y0096260D02*
D03*
D348*
X0301082Y0104922D02*
D03*
X0301082Y0130217D02*
D03*
X0301082Y0114961D02*
D03*
X0301082Y0120177D02*
D03*
X0308169Y0089666D02*
D03*
X0301082Y0089666D02*
D03*
X0301082Y0099705D02*
D03*
X0308169Y0099705D02*
D03*
X0308169Y0130217D02*
D03*
X0308169Y0120177D02*
D03*
X0308169Y0114961D02*
D03*
X0308169Y0104922D02*
D03*
D349*
X0301082Y0108367D02*
D03*
X0301082Y0123622D02*
D03*
X0301082Y0111516D02*
D03*
X0301082Y0126772D02*
D03*
X0301082Y0096260D02*
D03*
X0301082Y0093111D02*
D03*
X0308169Y0093111D02*
D03*
X0308169Y0096260D02*
D03*
X0308169Y0123622D02*
D03*
X0308169Y0126772D02*
D03*
X0308169Y0108367D02*
D03*
X0308169Y0111516D02*
D03*
D352*
X0299114Y0051772D02*
D03*
X0303051Y0051772D02*
D03*
X0304626Y0055315D02*
D03*
X0308563Y0055315D02*
D03*
X0296752Y0072638D02*
D03*
X0300689Y0072638D02*
D03*
X0268099Y0130340D02*
D03*
X0272036Y0130340D02*
D03*
X0276295Y0130340D02*
D03*
X0280232Y0130340D02*
D03*
X0319617Y0097873D02*
D03*
X0323554Y0097873D02*
D03*
X0319617Y0101596D02*
D03*
X0323554Y0101596D02*
D03*
X0322033Y0064764D02*
D03*
X0318096Y0064764D02*
D03*
X0233399Y0053831D02*
D03*
X0269147Y0054070D02*
D03*
X0254232Y0130340D02*
D03*
X0286516Y0076182D02*
D03*
X0286516Y0080512D02*
D03*
X0289946Y0084731D02*
D03*
X0301223Y0084676D02*
D03*
X0280807Y0114336D02*
D03*
X0289596Y0114336D02*
D03*
X0293533Y0122821D02*
D03*
X0228616Y0152687D02*
D03*
X0254232Y0134843D02*
D03*
X0295177Y0051772D02*
D03*
X0308563Y0084767D02*
D03*
X0330216Y0083369D02*
D03*
X0344281Y0083369D02*
D03*
X0330216Y0087599D02*
D03*
X0344281Y0087599D02*
D03*
X0304578Y0134507D02*
D03*
X0349114Y0136418D02*
D03*
X0282579Y0076182D02*
D03*
X0293533Y0114336D02*
D03*
X0284744Y0114336D02*
D03*
X0284744Y0118824D02*
D03*
X0280807Y0118824D02*
D03*
X0226673Y0138780D02*
D03*
X0230610Y0138780D02*
D03*
X0232553Y0152687D02*
D03*
X0317998Y0081863D02*
D03*
X0321935Y0081863D02*
D03*
X0348219Y0083369D02*
D03*
X0304626Y0084767D02*
D03*
X0289596Y0122821D02*
D03*
X0297286Y0084676D02*
D03*
X0293883Y0084731D02*
D03*
X0334153Y0087599D02*
D03*
X0308515Y0134507D02*
D03*
X0345177Y0136418D02*
D03*
X0273084Y0054070D02*
D03*
X0299114Y0051772D02*
D03*
X0325886Y0076796D02*
D03*
X0329823Y0076796D02*
D03*
X0334153Y0083369D02*
D03*
X0250295Y0134843D02*
D03*
X0250295Y0130340D02*
D03*
X0282579Y0080512D02*
D03*
X0237336Y0053831D02*
D03*
X0246652Y0053831D02*
D03*
X0242715Y0053831D02*
D03*
X0340344Y0087599D02*
D03*
X0349114Y0132481D02*
D03*
X0345177Y0132481D02*
D03*
X0349114Y0120079D02*
D03*
X0345177Y0120079D02*
D03*
X0349114Y0115945D02*
D03*
X0345177Y0115945D02*
D03*
X0349114Y0107677D02*
D03*
X0345177Y0107677D02*
D03*
X0349114Y0111811D02*
D03*
X0345177Y0111811D02*
D03*
X0349114Y0103544D02*
D03*
X0345177Y0103544D02*
D03*
X0349114Y0124213D02*
D03*
X0345177Y0124213D02*
D03*
X0349114Y0128347D02*
D03*
X0345177Y0128347D02*
D03*
D354*
X0294124Y0100985D02*
D03*
X0294124Y0096752D02*
D03*
X0248720Y0184843D02*
D03*
X0253445Y0184843D02*
D03*
X0258169Y0184843D02*
D03*
X0262893Y0184843D02*
D03*
X0332972Y0056496D02*
D03*
X0328838Y0056496D02*
D03*
X0237658Y0148717D02*
D03*
X0237658Y0144780D02*
D03*
X0348587Y0057678D02*
D03*
X0348587Y0061614D02*
D03*
X0294124Y0092815D02*
D03*
X0294124Y0104922D02*
D03*
X0241830Y0149213D02*
D03*
X0241830Y0145276D02*
D03*
X0266603Y0176989D02*
D03*
X0266603Y0173052D02*
D03*
X0262893Y0173052D02*
D03*
X0262893Y0176989D02*
D03*
X0262893Y0162402D02*
D03*
X0262893Y0166339D02*
D03*
X0262893Y0180906D02*
D03*
X0258169Y0180906D02*
D03*
X0248720Y0180906D02*
D03*
X0253445Y0180906D02*
D03*
X0347552Y0147712D02*
D03*
X0347552Y0143775D02*
D03*
X0297342Y0144685D02*
D03*
X0297342Y0148622D02*
D03*
X0297342Y0154922D02*
D03*
X0297342Y0158859D02*
D03*
X0325295Y0144685D02*
D03*
X0325295Y0148622D02*
D03*
X0301870Y0170079D02*
D03*
X0301870Y0166142D02*
D03*
X0331200Y0170079D02*
D03*
X0331200Y0166142D02*
D03*
X0343996Y0170079D02*
D03*
X0343996Y0166142D02*
D03*
X0327104Y0176989D02*
D03*
X0327104Y0180926D02*
D03*
X0348720Y0177363D02*
D03*
X0348720Y0173426D02*
D03*
X0348523Y0180512D02*
D03*
X0348523Y0184449D02*
D03*
X0348587Y0069204D02*
D03*
X0348587Y0065267D02*
D03*
X0332972Y0052559D02*
D03*
X0328838Y0052559D02*
D03*
X0325098Y0166142D02*
D03*
X0325098Y0170079D02*
D03*
X0320768Y0166142D02*
D03*
X0320768Y0170079D02*
D03*
X0312303Y0166142D02*
D03*
X0312303Y0170079D02*
D03*
X0308137Y0180926D02*
D03*
X0308137Y0176989D02*
D03*
X0269390Y0148622D02*
D03*
X0269390Y0144685D02*
D03*
X0339665Y0166142D02*
D03*
X0339665Y0170079D02*
D03*
X0289294Y0180926D02*
D03*
X0289294Y0176989D02*
D03*
X0293405Y0166142D02*
D03*
X0293405Y0170079D02*
D03*
X0306200Y0166142D02*
D03*
X0306200Y0170079D02*
D03*
X0270314Y0180926D02*
D03*
X0270314Y0176989D02*
D03*
X0274507Y0166142D02*
D03*
X0274507Y0170079D02*
D03*
X0282972Y0166142D02*
D03*
X0282972Y0170079D02*
D03*
X0287303Y0166142D02*
D03*
X0287303Y0170079D02*
D03*
X0269526Y0162402D02*
D03*
X0269526Y0166339D02*
D03*
D356*
X0313494Y0059705D02*
D03*
X0321234Y0069180D02*
D03*
X0339567Y0092550D02*
D03*
D359*
X0265846Y0061122D02*
D03*
X0272146Y0061122D02*
D03*
X0302460Y0059744D02*
D03*
X0308760Y0059744D02*
D03*
X0302460Y0064370D02*
D03*
X0308760Y0064370D02*
D03*
D356*
X0330315Y0096291D02*
D03*
X0321234Y0076660D02*
D03*
X0311982Y0072920D02*
D03*
X0313494Y0052225D02*
D03*
X0322746Y0055965D02*
D03*
X0339567Y0100031D02*
D03*
D380*
X0305020Y0069567D02*
D03*
X0305020Y0075788D02*
D03*
D381*
X0275590Y0140355D02*
D03*
X0275590Y0147441D02*
D03*
X0285630Y0147441D02*
D03*
X0285630Y0140355D02*
D03*
X0303543Y0147441D02*
D03*
X0331496Y0147441D02*
D03*
X0313582Y0151378D02*
D03*
X0258464Y0176575D02*
D03*
X0258464Y0169489D02*
D03*
X0248425Y0169489D02*
D03*
X0248425Y0176575D02*
D03*
X0341535Y0158465D02*
D03*
X0341535Y0151378D02*
D03*
X0331496Y0151378D02*
D03*
X0331496Y0158465D02*
D03*
X0331496Y0140355D02*
D03*
X0341535Y0147441D02*
D03*
X0341535Y0140355D02*
D03*
X0313582Y0158465D02*
D03*
X0303543Y0151378D02*
D03*
X0303543Y0158465D02*
D03*
X0303543Y0140355D02*
D03*
X0313582Y0147441D02*
D03*
X0313582Y0140355D02*
D03*
X0312598Y0182284D02*
D03*
X0312598Y0175197D02*
D03*
X0322638Y0175197D02*
D03*
X0322638Y0182284D02*
D03*
X0331496Y0182284D02*
D03*
X0331496Y0175197D02*
D03*
X0341535Y0175197D02*
D03*
X0341535Y0182284D02*
D03*
X0293700Y0182284D02*
D03*
X0293700Y0175197D02*
D03*
X0303740Y0175197D02*
D03*
X0303740Y0182284D02*
D03*
X0274803Y0182284D02*
D03*
X0274803Y0175197D02*
D03*
X0284842Y0175197D02*
D03*
X0284842Y0182284D02*
D03*
X0275590Y0158465D02*
D03*
X0275590Y0151378D02*
D03*
X0285630Y0151378D02*
D03*
X0285630Y0158465D02*
D03*
X0248031Y0158465D02*
D03*
X0248031Y0151378D02*
D03*
X0258071Y0151378D02*
D03*
X0258071Y0158465D02*
D03*
X0258071Y0140355D02*
D03*
X0258071Y0147441D02*
D03*
X0248031Y0147441D02*
D03*
X0248031Y0140355D02*
D03*
D382*
X0282185Y0147441D02*
D03*
X0279035Y0147441D02*
D03*
X0279035Y0140355D02*
D03*
X0282185Y0140355D02*
D03*
X0306988Y0147441D02*
D03*
X0334941Y0147441D02*
D03*
X0310138Y0151378D02*
D03*
X0251870Y0169489D02*
D03*
X0255019Y0169489D02*
D03*
X0255019Y0176575D02*
D03*
X0251870Y0176575D02*
D03*
X0334941Y0151378D02*
D03*
X0338090Y0151378D02*
D03*
X0338090Y0158465D02*
D03*
X0334941Y0158465D02*
D03*
X0338090Y0147441D02*
D03*
X0334941Y0140355D02*
D03*
X0338090Y0140355D02*
D03*
X0306988Y0151378D02*
D03*
X0310138Y0158465D02*
D03*
X0306988Y0158465D02*
D03*
X0310137Y0147441D02*
D03*
X0306988Y0140355D02*
D03*
X0310137Y0140355D02*
D03*
X0316043Y0182284D02*
D03*
X0319193Y0182284D02*
D03*
X0319193Y0175197D02*
D03*
X0316043Y0175197D02*
D03*
X0334940Y0182284D02*
D03*
X0338090Y0182284D02*
D03*
X0338090Y0175197D02*
D03*
X0334940Y0175197D02*
D03*
X0297145Y0182284D02*
D03*
X0300295Y0182284D02*
D03*
X0300295Y0175197D02*
D03*
X0297145Y0175197D02*
D03*
X0278248Y0182284D02*
D03*
X0281397Y0182284D02*
D03*
X0281397Y0175197D02*
D03*
X0278248Y0175197D02*
D03*
X0279035Y0158465D02*
D03*
X0282185Y0158465D02*
D03*
X0282185Y0151378D02*
D03*
X0279035Y0151378D02*
D03*
X0251476Y0158465D02*
D03*
X0254626Y0158465D02*
D03*
X0254626Y0151378D02*
D03*
X0251476Y0151378D02*
D03*
X0254626Y0140355D02*
D03*
X0251476Y0140355D02*
D03*
X0251476Y0147441D02*
D03*
X0254626Y0147441D02*
D03*
D383*
X0243248Y0063091D02*
D03*
X0243248Y0058101D02*
D03*
X0249468Y0058101D02*
D03*
X0249468Y0063091D02*
D03*
D384*
X0230610Y0069981D02*
D03*
X0263287Y0069981D02*
D03*
X0230610Y0124114D02*
D03*
X0263287Y0124114D02*
D03*
D385*
X0240846Y0088012D02*
D03*
X0240846Y0079351D02*
D03*
X0240846Y0083681D02*
D03*
X0240846Y0092343D02*
D03*
X0240846Y0096674D02*
D03*
X0240846Y0101004D02*
D03*
X0240846Y0105335D02*
D03*
X0240846Y0109666D02*
D03*
D386*
X0222539Y0168622D02*
D03*
X0235743Y0168622D02*
D03*
X0230020Y0176654D02*
D03*
X0243223Y0176654D02*
D03*
X0226279Y0159370D02*
D03*
X0239483Y0159370D02*
D03*
X0239483Y0185906D02*
D03*
X0327657Y0070985D02*
D03*
X0331397Y0061733D02*
D03*
X0226279Y0185906D02*
D03*
D168*
X0228616Y0142849D02*
D03*
X0232553Y0142849D02*
D03*
X0228616Y0148853D02*
D03*
X0230584Y0148853D02*
D03*
X0230584Y0142849D02*
D03*
X0232553Y0148853D02*
D03*
D387*
X0319181Y0086201D02*
D03*
X0324299Y0086201D02*
D03*
X0321740Y0086201D02*
D03*
X0319181Y0093682D02*
D03*
X0324299Y0093682D02*
D03*
D171*
X0315964Y0105709D02*
D03*
X0338956Y0108268D02*
D03*
X0338956Y0105709D02*
D03*
X0315964Y0128740D02*
D03*
X0338956Y0131299D02*
D03*
X0338956Y0133859D02*
D03*
X0338956Y0128740D02*
D03*
X0338956Y0126181D02*
D03*
X0338956Y0123622D02*
D03*
X0338956Y0121063D02*
D03*
X0338956Y0118504D02*
D03*
X0338956Y0115945D02*
D03*
X0338956Y0113386D02*
D03*
X0338956Y0110827D02*
D03*
X0315964Y0133859D02*
D03*
X0315964Y0131299D02*
D03*
X0315964Y0126181D02*
D03*
X0315964Y0123622D02*
D03*
X0315964Y0121063D02*
D03*
X0315964Y0118504D02*
D03*
X0315964Y0115945D02*
D03*
X0315964Y0113386D02*
D03*
X0315964Y0110827D02*
D03*
X0315964Y0108268D02*
D03*
D388*
X0342027Y0068122D02*
D03*
X0342027Y0056704D02*
D03*
D389*
X0283937Y0065987D02*
D03*
X0296929Y0065987D02*
D03*
X0348014Y0077187D02*
D03*
X0335022Y0077187D02*
D03*
D174*
X0285162Y0091392D02*
D03*
X0285162Y0105959D02*
D03*
D175*
X0233586Y0146835D02*
D03*
X0233586Y0144867D02*
D03*
X0227582Y0144867D02*
D03*
X0227582Y0146835D02*
D03*
D390*
X0298573Y0078869D02*
D03*
X0292668Y0078869D02*
D03*
D386*
X0230020Y0168622D02*
D03*
X0243223Y0168622D02*
D03*
X0235743Y0176654D02*
D03*
X0335138Y0070985D02*
D03*
X0222539Y0176654D02*
D03*
D177*
X0295770Y0129528D02*
D03*
X0289077Y0129528D02*
D03*
D391*
X0279409Y0055991D02*
D03*
X0290826Y0055991D02*
D03*
D392*
X0348326Y0090355D02*
D03*
X0348326Y0096654D02*
D03*
X0538287Y0191535D02*
%LPD*%
G01*
G36*
G01*
X0530928Y0271240D02*
X0529570Y0271240D01*
G75*
G02*
X0528989Y0271820I0000000J0000581D01*
G01*
X0528989Y0272982D01*
G75*
G02*
X0529570Y0273563I0000581J0000000D01*
G01*
X0530928Y0273563D01*
G75*
G02*
X0531509Y0272982I0000000J-000581D01*
G01*
X0531509Y0271820D01*
G75*
G02*
X0530928Y0271240I-000581J0000000D01*
G01*
G37*
G36*
G01*
X0530928Y0275059D02*
X0529570Y0275059D01*
G75*
G02*
X0528989Y0275639I0000000J0000581D01*
G01*
X0528989Y0276801D01*
G75*
G02*
X0529570Y0277381I0000581J0000000D01*
G01*
X0530928Y0277381D01*
G75*
G02*
X0531509Y0276801I0000000J-000581D01*
G01*
X0531509Y0275639D01*
G75*
G02*
X0530928Y0275059I-000581J0000000D01*
G01*
G37*
G36*
G01*
X0515639Y0285708D02*
X0514281Y0285708D01*
G75*
G02*
X0513700Y0286289I0000000J0000581D01*
G01*
X0513700Y0287450D01*
G75*
G02*
X0514281Y0288031I0000581J0000000D01*
G01*
X0515639Y0288031D01*
G75*
G02*
X0516220Y0287450I0000000J-000581D01*
G01*
X0516220Y0286289D01*
G75*
G02*
X0515639Y0285708I-000581J0000000D01*
G01*
G37*
G36*
G01*
X0515639Y0289527D02*
X0514281Y0289527D01*
G75*
G02*
X0513700Y0290108I0000000J0000581D01*
G01*
X0513700Y0291269D01*
G75*
G02*
X0514281Y0291850I0000581J0000000D01*
G01*
X0515639Y0291850D01*
G75*
G02*
X0516220Y0291269I0000000J-000581D01*
G01*
X0516220Y0290108D01*
G75*
G02*
X0515639Y0289527I-000581J0000000D01*
G01*
G37*
G36*
G01*
X0489443Y0235826D02*
X0491461Y0235826D01*
G75*
G02*
X0492322Y0234965I0000000J-000861D01*
G01*
X0492322Y0233243D01*
G75*
G02*
X0491461Y0232381I-000861J0000000D01*
G01*
X0489443Y0232381D01*
G75*
G02*
X0488582Y0233243I0000000J0000861D01*
G01*
X0488582Y0234965D01*
G75*
G02*
X0489443Y0235826I0000861J0000000D01*
G01*
G37*
G36*
G01*
X0489443Y0229626D02*
X0491461Y0229626D01*
G75*
G02*
X0492322Y0228764I0000000J-000861D01*
G01*
X0492322Y0227042D01*
G75*
G02*
X0491461Y0226181I-000861J0000000D01*
G01*
X0489443Y0226181D01*
G75*
G02*
X0488582Y0227042I0000000J0000861D01*
G01*
X0488582Y0228764D01*
G75*
G02*
X0489443Y0229626I0000861J0000000D01*
G01*
G37*
G36*
G01*
X0533769Y0277381D02*
X0535128Y0277381D01*
G75*
G02*
X0535708Y0276801I0000000J-000581D01*
G01*
X0535708Y0275639D01*
G75*
G02*
X0535128Y0275059I-000581J0000000D01*
G01*
X0533769Y0275059D01*
G75*
G02*
X0533189Y0275639I0000000J0000581D01*
G01*
X0533189Y0276801D01*
G75*
G02*
X0533769Y0277381I0000581J0000000D01*
G01*
G37*
G36*
G01*
X0533769Y0273563D02*
X0535128Y0273563D01*
G75*
G02*
X0535708Y0272982I0000000J-000581D01*
G01*
X0535708Y0271820D01*
G75*
G02*
X0535128Y0271240I-000581J0000000D01*
G01*
X0533769Y0271240D01*
G75*
G02*
X0533189Y0271820I0000000J0000581D01*
G01*
X0533189Y0272982D01*
G75*
G02*
X0533769Y0273563I0000581J0000000D01*
G01*
G37*
G36*
G01*
X0494773Y0217680D02*
X0493415Y0217680D01*
G75*
G02*
X0492834Y0218260I0000000J0000581D01*
G01*
X0492834Y0219422D01*
G75*
G02*
X0493415Y0220002I0000581J0000000D01*
G01*
X0494773Y0220002D01*
G75*
G02*
X0495354Y0219422I0000000J-000581D01*
G01*
X0495354Y0218260D01*
G75*
G02*
X0494773Y0217680I-000581J0000000D01*
G01*
G37*
G36*
G01*
X0494773Y0221498D02*
X0493415Y0221498D01*
G75*
G02*
X0492834Y0222079I0000000J0000581D01*
G01*
X0492834Y0223241D01*
G75*
G02*
X0493415Y0223821I0000581J0000000D01*
G01*
X0494773Y0223821D01*
G75*
G02*
X0495354Y0223241I0000000J-000581D01*
G01*
X0495354Y0222079D01*
G75*
G02*
X0494773Y0221498I-000581J0000000D01*
G01*
G37*
G36*
G01*
X0496643Y0225767D02*
X0495285Y0225767D01*
G75*
G02*
X0494704Y0226348I0000000J0000581D01*
G01*
X0494704Y0227509D01*
G75*
G02*
X0495285Y0228090I0000581J0000000D01*
G01*
X0496643Y0228090D01*
G75*
G02*
X0497224Y0227509I0000000J-000581D01*
G01*
X0497224Y0226348D01*
G75*
G02*
X0496643Y0225767I-000581J0000000D01*
G01*
G37*
G36*
G01*
X0496643Y0229586D02*
X0495285Y0229586D01*
G75*
G02*
X0494704Y0230167I0000000J0000581D01*
G01*
X0494704Y0231328D01*
G75*
G02*
X0495285Y0231909I0000581J0000000D01*
G01*
X0496643Y0231909D01*
G75*
G02*
X0497224Y0231328I0000000J-000581D01*
G01*
X0497224Y0230167D01*
G75*
G02*
X0496643Y0229586I-000581J0000000D01*
G01*
G37*
G36*
G01*
X0489311Y0197155D02*
X0489311Y0198513D01*
G75*
G02*
X0489891Y0199094I0000581J0000000D01*
G01*
X0491053Y0199094D01*
G75*
G02*
X0491633Y0198513I0000000J-000581D01*
G01*
X0491633Y0197155D01*
G75*
G02*
X0491053Y0196574I-000581J0000000D01*
G01*
X0489891Y0196574D01*
G75*
G02*
X0489311Y0197155I0000000J0000581D01*
G01*
G37*
G36*
G01*
X0493130Y0197155D02*
X0493130Y0198513D01*
G75*
G02*
X0493710Y0199094I0000581J0000000D01*
G01*
X0494872Y0199094D01*
G75*
G02*
X0495452Y0198513I0000000J-000581D01*
G01*
X0495452Y0197155D01*
G75*
G02*
X0494872Y0196574I-000581J0000000D01*
G01*
X0493710Y0196574D01*
G75*
G02*
X0493130Y0197155I0000000J0000581D01*
G01*
G37*
G36*
G01*
X0506899Y0246673D02*
X0508257Y0246673D01*
G75*
G02*
X0508838Y0246092I0000000J-000581D01*
G01*
X0508838Y0244931D01*
G75*
G02*
X0508257Y0244350I-000581J0000000D01*
G01*
X0506899Y0244350D01*
G75*
G02*
X0506318Y0244931I0000000J0000581D01*
G01*
X0506318Y0246092D01*
G75*
G02*
X0506899Y0246673I0000581J0000000D01*
G01*
G37*
G36*
G01*
X0506899Y0242854D02*
X0508257Y0242854D01*
G75*
G02*
X0508838Y0242273I0000000J-000581D01*
G01*
X0508838Y0241112D01*
G75*
G02*
X0508257Y0240531I-000581J0000000D01*
G01*
X0506899Y0240531D01*
G75*
G02*
X0506318Y0241112I0000000J0000581D01*
G01*
X0506318Y0242273D01*
G75*
G02*
X0506899Y0242854I0000581J0000000D01*
G01*
G37*
G36*
G01*
X0512194Y0240531D02*
X0510836Y0240531D01*
G75*
G02*
X0510256Y0241112I0000000J0000581D01*
G01*
X0510256Y0242273D01*
G75*
G02*
X0510836Y0242854I0000581J0000000D01*
G01*
X0512194Y0242854D01*
G75*
G02*
X0512775Y0242273I0000000J-000581D01*
G01*
X0512775Y0241112D01*
G75*
G02*
X0512194Y0240531I-000581J0000000D01*
G01*
G37*
G36*
G01*
X0512194Y0244350D02*
X0510836Y0244350D01*
G75*
G02*
X0510256Y0244931I0000000J0000581D01*
G01*
X0510256Y0246092D01*
G75*
G02*
X0510836Y0246673I0000581J0000000D01*
G01*
X0512194Y0246673D01*
G75*
G02*
X0512775Y0246092I0000000J-000581D01*
G01*
X0512775Y0244931D01*
G75*
G02*
X0512194Y0244350I-000581J0000000D01*
G01*
G37*
G36*
G01*
X0509754Y0288011D02*
X0511112Y0288011D01*
G75*
G02*
X0511693Y0287431I0000000J-000581D01*
G01*
X0511693Y0286269D01*
G75*
G02*
X0511112Y0285689I-000581J0000000D01*
G01*
X0509754Y0285689D01*
G75*
G02*
X0509173Y0286269I0000000J0000581D01*
G01*
X0509173Y0287431D01*
G75*
G02*
X0509754Y0288011I0000581J0000000D01*
G01*
G37*
G36*
G01*
X0509754Y0284192D02*
X0511112Y0284192D01*
G75*
G02*
X0511693Y0283612I0000000J-000581D01*
G01*
X0511693Y0282450D01*
G75*
G02*
X0511112Y0281870I-000581J0000000D01*
G01*
X0509754Y0281870D01*
G75*
G02*
X0509173Y0282450I0000000J0000581D01*
G01*
X0509173Y0283612D01*
G75*
G02*
X0509754Y0284192I0000581J0000000D01*
G01*
G37*
D411*
X0533169Y0233661D03*
X0530610Y0233661D03*
X0528051Y0233661D03*
X0525492Y0233661D03*
X0522933Y0233661D03*
X0520374Y0233661D03*
X0517815Y0233661D03*
X0517815Y0256889D03*
X0520374Y0256889D03*
X0522933Y0256889D03*
X0525492Y0256889D03*
X0528051Y0256889D03*
X0530610Y0256889D03*
X0533169Y0256889D03*
G36*
G01*
X0489675Y0223838D02*
X0491033Y0223838D01*
G75*
G02*
X0491614Y0223257I0000000J-000581D01*
G01*
X0491614Y0222096D01*
G75*
G02*
X0491033Y0221515I-000581J0000000D01*
G01*
X0489675Y0221515D01*
G75*
G02*
X0489094Y0222096I0000000J0000581D01*
G01*
X0489094Y0223257D01*
G75*
G02*
X0489675Y0223838I0000581J0000000D01*
G01*
G37*
G36*
G01*
X0489675Y0220019D02*
X0491033Y0220019D01*
G75*
G02*
X0491614Y0219439I0000000J-000581D01*
G01*
X0491614Y0218277D01*
G75*
G02*
X0491033Y0217696I-000581J0000000D01*
G01*
X0489675Y0217696D01*
G75*
G02*
X0489094Y0218277I0000000J0000581D01*
G01*
X0489094Y0219439D01*
G75*
G02*
X0489675Y0220019I0000581J0000000D01*
G01*
G37*
G36*
G01*
X0487293Y0217696D02*
X0485935Y0217696D01*
G75*
G02*
X0485354Y0218277I0000000J0000581D01*
G01*
X0485354Y0219439D01*
G75*
G02*
X0485935Y0220019I0000581J0000000D01*
G01*
X0487293Y0220019D01*
G75*
G02*
X0487874Y0219439I0000000J-000581D01*
G01*
X0487874Y0218277D01*
G75*
G02*
X0487293Y0217696I-000581J0000000D01*
G01*
G37*
G36*
G01*
X0487293Y0221515D02*
X0485935Y0221515D01*
G75*
G02*
X0485354Y0222096I0000000J0000581D01*
G01*
X0485354Y0223257D01*
G75*
G02*
X0485935Y0223838I0000581J0000000D01*
G01*
X0487293Y0223838D01*
G75*
G02*
X0487874Y0223257I0000000J-000581D01*
G01*
X0487874Y0222096D01*
G75*
G02*
X0487293Y0221515I-000581J0000000D01*
G01*
G37*
G36*
G01*
X0496742Y0277933D02*
X0495383Y0277933D01*
G75*
G02*
X0494803Y0278513I0000000J0000581D01*
G01*
X0494803Y0279675D01*
G75*
G02*
X0495383Y0280255I0000581J0000000D01*
G01*
X0496742Y0280255D01*
G75*
G02*
X0497322Y0279675I0000000J-000581D01*
G01*
X0497322Y0278513D01*
G75*
G02*
X0496742Y0277933I-000581J0000000D01*
G01*
G37*
G36*
G01*
X0496742Y0281752D02*
X0495383Y0281752D01*
G75*
G02*
X0494803Y0282332I0000000J0000581D01*
G01*
X0494803Y0283494D01*
G75*
G02*
X0495383Y0284074I0000581J0000000D01*
G01*
X0496742Y0284074D01*
G75*
G02*
X0497322Y0283494I0000000J-000581D01*
G01*
X0497322Y0282332D01*
G75*
G02*
X0496742Y0281752I-000581J0000000D01*
G01*
G37*
G36*
G01*
X0526040Y0271240D02*
X0524681Y0271240D01*
G75*
G02*
X0524101Y0271820I0000000J0000581D01*
G01*
X0524101Y0272982D01*
G75*
G02*
X0524681Y0273563I0000581J0000000D01*
G01*
X0526040Y0273563D01*
G75*
G02*
X0526620Y0272982I0000000J-000581D01*
G01*
X0526620Y0271820D01*
G75*
G02*
X0526040Y0271240I-000581J0000000D01*
G01*
G37*
G36*
G01*
X0526040Y0275059D02*
X0524681Y0275059D01*
G75*
G02*
X0524101Y0275639I0000000J0000581D01*
G01*
X0524101Y0276801D01*
G75*
G02*
X0524681Y0277381I0000581J0000000D01*
G01*
X0526040Y0277381D01*
G75*
G02*
X0526620Y0276801I0000000J-000581D01*
G01*
X0526620Y0275639D01*
G75*
G02*
X0526040Y0275059I-000581J0000000D01*
G01*
G37*
G36*
G01*
X0502962Y0243425D02*
X0504320Y0243425D01*
G75*
G02*
X0504901Y0242844I0000000J-000581D01*
G01*
X0504901Y0241683D01*
G75*
G02*
X0504320Y0241102I-000581J0000000D01*
G01*
X0502962Y0241102D01*
G75*
G02*
X0502381Y0241683I0000000J0000581D01*
G01*
X0502381Y0242844D01*
G75*
G02*
X0502962Y0243425I0000581J0000000D01*
G01*
G37*
G36*
G01*
X0502962Y0239606D02*
X0504320Y0239606D01*
G75*
G02*
X0504901Y0239025I0000000J-000581D01*
G01*
X0504901Y0237864D01*
G75*
G02*
X0504320Y0237283I-000581J0000000D01*
G01*
X0502962Y0237283D01*
G75*
G02*
X0502381Y0237864I0000000J0000581D01*
G01*
X0502381Y0239025D01*
G75*
G02*
X0502962Y0239606I0000581J0000000D01*
G01*
G37*
G36*
G01*
X0495383Y0291752D02*
X0496742Y0291752D01*
G75*
G02*
X0497322Y0291171I0000000J-000581D01*
G01*
X0497322Y0290009D01*
G75*
G02*
X0496742Y0289429I-000581J0000000D01*
G01*
X0495383Y0289429D01*
G75*
G02*
X0494803Y0290009I0000000J0000581D01*
G01*
X0494803Y0291171D01*
G75*
G02*
X0495383Y0291752I0000581J0000000D01*
G01*
G37*
G36*
G01*
X0495383Y0287933D02*
X0496742Y0287933D01*
G75*
G02*
X0497322Y0287352I0000000J-000581D01*
G01*
X0497322Y0286191D01*
G75*
G02*
X0496742Y0285610I-000581J0000000D01*
G01*
X0495383Y0285610D01*
G75*
G02*
X0494803Y0286191I0000000J0000581D01*
G01*
X0494803Y0287352D01*
G75*
G02*
X0495383Y0287933I0000581J0000000D01*
G01*
G37*
G36*
G01*
X0510836Y0239291D02*
X0512194Y0239291D01*
G75*
G02*
X0512775Y0238710I0000000J-000581D01*
G01*
X0512775Y0237549D01*
G75*
G02*
X0512194Y0236968I-000581J0000000D01*
G01*
X0510836Y0236968D01*
G75*
G02*
X0510256Y0237549I0000000J0000581D01*
G01*
X0510256Y0238710D01*
G75*
G02*
X0510836Y0239291I0000581J0000000D01*
G01*
G37*
G36*
G01*
X0510836Y0235472D02*
X0512194Y0235472D01*
G75*
G02*
X0512775Y0234891I0000000J-000581D01*
G01*
X0512775Y0233730D01*
G75*
G02*
X0512194Y0233149I-000581J0000000D01*
G01*
X0510836Y0233149D01*
G75*
G02*
X0510256Y0233730I0000000J0000581D01*
G01*
X0510256Y0234891D01*
G75*
G02*
X0510836Y0235472I0000581J0000000D01*
G01*
G37*
G36*
G01*
X0535452Y0228041D02*
X0535452Y0226683D01*
G75*
G02*
X0534872Y0226102I-000581J0000000D01*
G01*
X0533710Y0226102D01*
G75*
G02*
X0533130Y0226683I0000000J0000581D01*
G01*
X0533130Y0228041D01*
G75*
G02*
X0533710Y0228622I0000581J0000000D01*
G01*
X0534872Y0228622D01*
G75*
G02*
X0535452Y0228041I0000000J-000581D01*
G01*
G37*
G36*
G01*
X0531633Y0228041D02*
X0531633Y0226683D01*
G75*
G02*
X0531053Y0226102I-000581J0000000D01*
G01*
X0529891Y0226102D01*
G75*
G02*
X0529311Y0226683I0000000J0000581D01*
G01*
X0529311Y0228041D01*
G75*
G02*
X0529891Y0228622I0000581J0000000D01*
G01*
X0531053Y0228622D01*
G75*
G02*
X0531633Y0228041I0000000J-000581D01*
G01*
G37*
G36*
G01*
X0506899Y0254153D02*
X0508257Y0254153D01*
G75*
G02*
X0508838Y0253572I0000000J-000581D01*
G01*
X0508838Y0252411D01*
G75*
G02*
X0508257Y0251830I-000581J0000000D01*
G01*
X0506899Y0251830D01*
G75*
G02*
X0506318Y0252411I0000000J0000581D01*
G01*
X0506318Y0253572D01*
G75*
G02*
X0506899Y0254153I0000581J0000000D01*
G01*
G37*
G36*
G01*
X0506899Y0250334D02*
X0508257Y0250334D01*
G75*
G02*
X0508838Y0249754I0000000J-000581D01*
G01*
X0508838Y0248592D01*
G75*
G02*
X0508257Y0248011I-000581J0000000D01*
G01*
X0506899Y0248011D01*
G75*
G02*
X0506318Y0248592I0000000J0000581D01*
G01*
X0506318Y0249754D01*
G75*
G02*
X0506899Y0250334I0000581J0000000D01*
G01*
G37*
G36*
G01*
X0508257Y0255492D02*
X0506899Y0255492D01*
G75*
G02*
X0506318Y0256072I0000000J0000581D01*
G01*
X0506318Y0257234D01*
G75*
G02*
X0506899Y0257815I0000581J0000000D01*
G01*
X0508257Y0257815D01*
G75*
G02*
X0508838Y0257234I0000000J-000581D01*
G01*
X0508838Y0256072D01*
G75*
G02*
X0508257Y0255492I-000581J0000000D01*
G01*
G37*
G36*
G01*
X0508257Y0259311D02*
X0506899Y0259311D01*
G75*
G02*
X0506318Y0259891I0000000J0000581D01*
G01*
X0506318Y0261053D01*
G75*
G02*
X0506899Y0261633I0000581J0000000D01*
G01*
X0508257Y0261633D01*
G75*
G02*
X0508838Y0261053I0000000J-000581D01*
G01*
X0508838Y0259891D01*
G75*
G02*
X0508257Y0259311I-000581J0000000D01*
G01*
G37*
G36*
G01*
X0535452Y0224301D02*
X0535452Y0222942D01*
G75*
G02*
X0534872Y0222362I-000581J0000000D01*
G01*
X0533710Y0222362D01*
G75*
G02*
X0533130Y0222942I0000000J0000581D01*
G01*
X0533130Y0224301D01*
G75*
G02*
X0533710Y0224881I0000581J0000000D01*
G01*
X0534872Y0224881D01*
G75*
G02*
X0535452Y0224301I0000000J-000581D01*
G01*
G37*
G36*
G01*
X0531633Y0224301D02*
X0531633Y0222942D01*
G75*
G02*
X0531053Y0222362I-000581J0000000D01*
G01*
X0529891Y0222362D01*
G75*
G02*
X0529311Y0222942I0000000J0000581D01*
G01*
X0529311Y0224301D01*
G75*
G02*
X0529891Y0224881I0000581J0000000D01*
G01*
X0531053Y0224881D01*
G75*
G02*
X0531633Y0224301I0000000J-000581D01*
G01*
G37*
D412*
X0486614Y0213622D03*
X0490354Y0213622D03*
X0494094Y0213622D03*
X0494094Y0203307D03*
X0486614Y0203307D03*
G36*
G01*
X0504320Y0248110D02*
X0502962Y0248110D01*
G75*
G02*
X0502381Y0248691I0000000J0000581D01*
G01*
X0502381Y0249852D01*
G75*
G02*
X0502962Y0250433I0000581J0000000D01*
G01*
X0504320Y0250433D01*
G75*
G02*
X0504901Y0249852I0000000J-000581D01*
G01*
X0504901Y0248691D01*
G75*
G02*
X0504320Y0248110I-000581J0000000D01*
G01*
G37*
G36*
G01*
X0504320Y0251929D02*
X0502962Y0251929D01*
G75*
G02*
X0502381Y0252509I0000000J0000581D01*
G01*
X0502381Y0253671D01*
G75*
G02*
X0502962Y0254252I0000581J0000000D01*
G01*
X0504320Y0254252D01*
G75*
G02*
X0504901Y0253671I0000000J-000581D01*
G01*
X0504901Y0252509D01*
G75*
G02*
X0504320Y0251929I-000581J0000000D01*
G01*
G37*
G36*
G01*
X0500216Y0235521D02*
X0500216Y0234163D01*
G75*
G02*
X0499635Y0233582I-000581J0000000D01*
G01*
X0498474Y0233582D01*
G75*
G02*
X0497893Y0234163I0000000J0000581D01*
G01*
X0497893Y0235521D01*
G75*
G02*
X0498474Y0236102I0000581J0000000D01*
G01*
X0499635Y0236102D01*
G75*
G02*
X0500216Y0235521I0000000J-000581D01*
G01*
G37*
G36*
G01*
X0496397Y0235521D02*
X0496397Y0234163D01*
G75*
G02*
X0495817Y0233582I-000581J0000000D01*
G01*
X0494655Y0233582D01*
G75*
G02*
X0494074Y0234163I0000000J0000581D01*
G01*
X0494074Y0235521D01*
G75*
G02*
X0494655Y0236102I0000581J0000000D01*
G01*
X0495817Y0236102D01*
G75*
G02*
X0496397Y0235521I0000000J-000581D01*
G01*
G37*
G36*
G01*
X0520649Y0226683D02*
X0520649Y0228041D01*
G75*
G02*
X0521230Y0228622I0000581J0000000D01*
G01*
X0522391Y0228622D01*
G75*
G02*
X0522972Y0228041I0000000J-000581D01*
G01*
X0522972Y0226683D01*
G75*
G02*
X0522391Y0226102I-000581J0000000D01*
G01*
X0521230Y0226102D01*
G75*
G02*
X0520649Y0226683I0000000J0000581D01*
G01*
G37*
G36*
G01*
X0524468Y0226683D02*
X0524468Y0228041D01*
G75*
G02*
X0525049Y0228622I0000581J0000000D01*
G01*
X0526210Y0228622D01*
G75*
G02*
X0526791Y0228041I0000000J-000581D01*
G01*
X0526791Y0226683D01*
G75*
G02*
X0526210Y0226102I-000581J0000000D01*
G01*
X0525049Y0226102D01*
G75*
G02*
X0524468Y0226683I0000000J0000581D01*
G01*
G37*
G36*
G01*
X0519694Y0269803D02*
X0521053Y0269803D01*
G75*
G02*
X0521633Y0269222I0000000J-000581D01*
G01*
X0521633Y0268061D01*
G75*
G02*
X0521053Y0267480I-000581J0000000D01*
G01*
X0519694Y0267480D01*
G75*
G02*
X0519114Y0268061I0000000J0000581D01*
G01*
X0519114Y0269222D01*
G75*
G02*
X0519694Y0269803I0000581J0000000D01*
G01*
G37*
G36*
G01*
X0519694Y0265984D02*
X0521053Y0265984D01*
G75*
G02*
X0521633Y0265403I0000000J-000581D01*
G01*
X0521633Y0264242D01*
G75*
G02*
X0521053Y0263661I-000581J0000000D01*
G01*
X0519694Y0263661D01*
G75*
G02*
X0519114Y0264242I0000000J0000581D01*
G01*
X0519114Y0265403D01*
G75*
G02*
X0519694Y0265984I0000581J0000000D01*
G01*
G37*
G36*
G01*
X0519694Y0277381D02*
X0521053Y0277381D01*
G75*
G02*
X0521633Y0276801I0000000J-000581D01*
G01*
X0521633Y0275639D01*
G75*
G02*
X0521053Y0275059I-000581J0000000D01*
G01*
X0519694Y0275059D01*
G75*
G02*
X0519114Y0275639I0000000J0000581D01*
G01*
X0519114Y0276801D01*
G75*
G02*
X0519694Y0277381I0000581J0000000D01*
G01*
G37*
G36*
G01*
X0519694Y0273563D02*
X0521053Y0273563D01*
G75*
G02*
X0521633Y0272982I0000000J-000581D01*
G01*
X0521633Y0271820D01*
G75*
G02*
X0521053Y0271240I-000581J0000000D01*
G01*
X0519694Y0271240D01*
G75*
G02*
X0519114Y0271820I0000000J0000581D01*
G01*
X0519114Y0272982D01*
G75*
G02*
X0519694Y0273563I0000581J0000000D01*
G01*
G37*
G36*
G01*
X0520649Y0222942D02*
X0520649Y0224301D01*
G75*
G02*
X0521230Y0224881I0000581J0000000D01*
G01*
X0522391Y0224881D01*
G75*
G02*
X0522972Y0224301I0000000J-000581D01*
G01*
X0522972Y0222942D01*
G75*
G02*
X0522391Y0222362I-000581J0000000D01*
G01*
X0521230Y0222362D01*
G75*
G02*
X0520649Y0222942I0000000J0000581D01*
G01*
G37*
G36*
G01*
X0524468Y0222942D02*
X0524468Y0224301D01*
G75*
G02*
X0525049Y0224881I0000581J0000000D01*
G01*
X0526210Y0224881D01*
G75*
G02*
X0526791Y0224301I0000000J-000581D01*
G01*
X0526791Y0222942D01*
G75*
G02*
X0526210Y0222362I-000581J0000000D01*
G01*
X0525049Y0222362D01*
G75*
G02*
X0524468Y0222942I0000000J0000581D01*
G01*
G37*
G36*
G01*
X0510836Y0257303D02*
X0512194Y0257303D01*
G75*
G02*
X0512775Y0256722I0000000J-000581D01*
G01*
X0512775Y0255561D01*
G75*
G02*
X0512194Y0254980I-000581J0000000D01*
G01*
X0510836Y0254980D01*
G75*
G02*
X0510256Y0255561I0000000J0000581D01*
G01*
X0510256Y0256722D01*
G75*
G02*
X0510836Y0257303I0000581J0000000D01*
G01*
G37*
G36*
G01*
X0510836Y0253484D02*
X0512194Y0253484D01*
G75*
G02*
X0512775Y0252903I0000000J-000581D01*
G01*
X0512775Y0251742D01*
G75*
G02*
X0512194Y0251161I-000581J0000000D01*
G01*
X0510836Y0251161D01*
G75*
G02*
X0510256Y0251742I0000000J0000581D01*
G01*
X0510256Y0252903D01*
G75*
G02*
X0510836Y0253484I0000581J0000000D01*
G01*
G37*
G36*
G01*
X0520649Y0219202D02*
X0520649Y0220561D01*
G75*
G02*
X0521230Y0221141I0000581J0000000D01*
G01*
X0522391Y0221141D01*
G75*
G02*
X0522972Y0220561I0000000J-000581D01*
G01*
X0522972Y0219202D01*
G75*
G02*
X0522391Y0218622I-000581J0000000D01*
G01*
X0521230Y0218622D01*
G75*
G02*
X0520649Y0219202I0000000J0000581D01*
G01*
G37*
G36*
G01*
X0524468Y0219202D02*
X0524468Y0220561D01*
G75*
G02*
X0525049Y0221141I0000581J0000000D01*
G01*
X0526210Y0221141D01*
G75*
G02*
X0526791Y0220561I0000000J-000581D01*
G01*
X0526791Y0219202D01*
G75*
G02*
X0526210Y0218622I-000581J0000000D01*
G01*
X0525049Y0218622D01*
G75*
G02*
X0524468Y0219202I0000000J0000581D01*
G01*
G37*
G36*
G01*
X0529311Y0219202D02*
X0529311Y0220561D01*
G75*
G02*
X0529891Y0221141I0000581J0000000D01*
G01*
X0531053Y0221141D01*
G75*
G02*
X0531633Y0220561I0000000J-000581D01*
G01*
X0531633Y0219202D01*
G75*
G02*
X0531053Y0218622I-000581J0000000D01*
G01*
X0529891Y0218622D01*
G75*
G02*
X0529311Y0219202I0000000J0000581D01*
G01*
G37*
G36*
G01*
X0533130Y0219202D02*
X0533130Y0220561D01*
G75*
G02*
X0533710Y0221141I0000581J0000000D01*
G01*
X0534872Y0221141D01*
G75*
G02*
X0535452Y0220561I0000000J-000581D01*
G01*
X0535452Y0219202D01*
G75*
G02*
X0534872Y0218622I-000581J0000000D01*
G01*
X0533710Y0218622D01*
G75*
G02*
X0533130Y0219202I0000000J0000581D01*
G01*
G37*
G36*
G01*
X0523504Y0204389D02*
X0522165Y0204389D01*
G75*
G02*
X0521614Y0204940I0000000J0000551D01*
G01*
X0521614Y0206043D01*
G75*
G02*
X0522165Y0206594I0000551J0000000D01*
G01*
X0523504Y0206594D01*
G75*
G02*
X0524055Y0206043I0000000J-000551D01*
G01*
X0524055Y0204940D01*
G75*
G02*
X0523504Y0204389I-000551J0000000D01*
G01*
G37*
G36*
G01*
X0523504Y0208169D02*
X0522165Y0208169D01*
G75*
G02*
X0521614Y0208720I0000000J0000551D01*
G01*
X0521614Y0209822D01*
G75*
G02*
X0522165Y0210373I0000551J0000000D01*
G01*
X0523504Y0210373D01*
G75*
G02*
X0524055Y0209822I0000000J-000551D01*
G01*
X0524055Y0208720D01*
G75*
G02*
X0523504Y0208169I-000551J0000000D01*
G01*
G37*
G36*
G01*
X0497244Y0259330D02*
X0498700Y0259330D01*
G75*
G02*
X0499232Y0258799I0000000J-000531D01*
G01*
X0499232Y0257736D01*
G75*
G02*
X0498700Y0257204I-000531J0000000D01*
G01*
X0497244Y0257204D01*
G75*
G02*
X0496712Y0257736I0000000J0000531D01*
G01*
X0496712Y0258799D01*
G75*
G02*
X0497244Y0259330I0000531J0000000D01*
G01*
G37*
G36*
G01*
X0497244Y0255315D02*
X0498700Y0255315D01*
G75*
G02*
X0499232Y0254783I0000000J-000531D01*
G01*
X0499232Y0253720D01*
G75*
G02*
X0498700Y0253189I-000531J0000000D01*
G01*
X0497244Y0253189D01*
G75*
G02*
X0496712Y0253720I0000000J0000531D01*
G01*
X0496712Y0254783D01*
G75*
G02*
X0497244Y0255315I0000531J0000000D01*
G01*
G37*
G36*
G01*
X0511777Y0198602D02*
X0511777Y0197145D01*
G75*
G02*
X0511245Y0196614I-000531J0000000D01*
G01*
X0510182Y0196614D01*
G75*
G02*
X0509651Y0197145I0000000J0000531D01*
G01*
X0509651Y0198602D01*
G75*
G02*
X0510182Y0199133I0000531J0000000D01*
G01*
X0511245Y0199133D01*
G75*
G02*
X0511777Y0198602I0000000J-000531D01*
G01*
G37*
G36*
G01*
X0507761Y0198602D02*
X0507761Y0197145D01*
G75*
G02*
X0507229Y0196614I-000531J0000000D01*
G01*
X0506166Y0196614D01*
G75*
G02*
X0505635Y0197145I0000000J0000531D01*
G01*
X0505635Y0198602D01*
G75*
G02*
X0506166Y0199133I0000531J0000000D01*
G01*
X0507229Y0199133D01*
G75*
G02*
X0507761Y0198602I0000000J-000531D01*
G01*
G37*
G36*
G01*
X0535728Y0199212D02*
X0534547Y0199212D01*
G75*
G02*
X0533956Y0199803I0000000J0000591D01*
G01*
X0533956Y0204429D01*
G75*
G02*
X0534547Y0205019I0000591J0000000D01*
G01*
X0535728Y0205019D01*
G75*
G02*
X0536318Y0204429I0000000J-000591D01*
G01*
X0536318Y0199803D01*
G75*
G02*
X0535728Y0199212I-000591J0000000D01*
G01*
G37*
G36*
G01*
X0528248Y0199212D02*
X0527067Y0199212D01*
G75*
G02*
X0526476Y0199803I0000000J0000591D01*
G01*
X0526476Y0204429D01*
G75*
G02*
X0527067Y0205019I0000591J0000000D01*
G01*
X0528248Y0205019D01*
G75*
G02*
X0528838Y0204429I0000000J-000591D01*
G01*
X0528838Y0199803D01*
G75*
G02*
X0528248Y0199212I-000591J0000000D01*
G01*
G37*
G36*
G01*
X0531988Y0206594D02*
X0530807Y0206594D01*
G75*
G02*
X0530216Y0207185I0000000J0000591D01*
G01*
X0530216Y0211811D01*
G75*
G02*
X0530807Y0212401I0000591J0000000D01*
G01*
X0531988Y0212401D01*
G75*
G02*
X0532578Y0211811I0000000J-000591D01*
G01*
X0532578Y0207185D01*
G75*
G02*
X0531988Y0206594I-000591J0000000D01*
G01*
G37*
G36*
G01*
X0497796Y0197165D02*
X0497796Y0198504D01*
G75*
G02*
X0498348Y0199055I0000551J0000000D01*
G01*
X0499450Y0199055D01*
G75*
G02*
X0500001Y0198504I0000000J-000551D01*
G01*
X0500001Y0197165D01*
G75*
G02*
X0499450Y0196614I-000551J0000000D01*
G01*
X0498348Y0196614D01*
G75*
G02*
X0497796Y0197165I0000000J0000551D01*
G01*
G37*
G36*
G01*
X0501576Y0197165D02*
X0501576Y0198504D01*
G75*
G02*
X0502127Y0199055I0000551J0000000D01*
G01*
X0503229Y0199055D01*
G75*
G02*
X0503781Y0198504I0000000J-000551D01*
G01*
X0503781Y0197165D01*
G75*
G02*
X0503229Y0196614I-000551J0000000D01*
G01*
X0502127Y0196614D01*
G75*
G02*
X0501576Y0197165I0000000J0000551D01*
G01*
G37*
G36*
G01*
X0500867Y0227952D02*
X0502048Y0227952D01*
G75*
G02*
X0502639Y0227362I0000000J-000591D01*
G01*
X0502639Y0221653D01*
G75*
G02*
X0502048Y0221063I-000591J0000000D01*
G01*
X0500867Y0221063D01*
G75*
G02*
X0500277Y0221653I0000000J0000591D01*
G01*
X0500277Y0227362D01*
G75*
G02*
X0500867Y0227952I0000591J0000000D01*
G01*
G37*
G36*
G01*
X0505867Y0227952D02*
X0507048Y0227952D01*
G75*
G02*
X0507639Y0227362I0000000J-000591D01*
G01*
X0507639Y0221653D01*
G75*
G02*
X0507048Y0221063I-000591J0000000D01*
G01*
X0505867Y0221063D01*
G75*
G02*
X0505277Y0221653I0000000J0000591D01*
G01*
X0505277Y0227362D01*
G75*
G02*
X0505867Y0227952I0000591J0000000D01*
G01*
G37*
G36*
G01*
X0510867Y0227952D02*
X0512048Y0227952D01*
G75*
G02*
X0512639Y0227362I0000000J-000591D01*
G01*
X0512639Y0221653D01*
G75*
G02*
X0512048Y0221063I-000591J0000000D01*
G01*
X0510867Y0221063D01*
G75*
G02*
X0510277Y0221653I0000000J0000591D01*
G01*
X0510277Y0227362D01*
G75*
G02*
X0510867Y0227952I0000591J0000000D01*
G01*
G37*
G36*
G01*
X0515867Y0227952D02*
X0517048Y0227952D01*
G75*
G02*
X0517639Y0227362I0000000J-000591D01*
G01*
X0517639Y0221653D01*
G75*
G02*
X0517048Y0221063I-000591J0000000D01*
G01*
X0515867Y0221063D01*
G75*
G02*
X0515277Y0221653I0000000J0000591D01*
G01*
X0515277Y0227362D01*
G75*
G02*
X0515867Y0227952I0000591J0000000D01*
G01*
G37*
G36*
G01*
X0515867Y0207677D02*
X0517048Y0207677D01*
G75*
G02*
X0517639Y0207086I0000000J-000591D01*
G01*
X0517639Y0201378D01*
G75*
G02*
X0517048Y0200787I-000591J0000000D01*
G01*
X0515867Y0200787D01*
G75*
G02*
X0515277Y0201378I0000000J0000591D01*
G01*
X0515277Y0207086D01*
G75*
G02*
X0515867Y0207677I0000591J0000000D01*
G01*
G37*
G36*
G01*
X0510867Y0207677D02*
X0512048Y0207677D01*
G75*
G02*
X0512639Y0207086I0000000J-000591D01*
G01*
X0512639Y0201378D01*
G75*
G02*
X0512048Y0200787I-000591J0000000D01*
G01*
X0510867Y0200787D01*
G75*
G02*
X0510277Y0201378I0000000J0000591D01*
G01*
X0510277Y0207086D01*
G75*
G02*
X0510867Y0207677I0000591J0000000D01*
G01*
G37*
G36*
G01*
X0505867Y0207677D02*
X0507048Y0207677D01*
G75*
G02*
X0507639Y0207086I0000000J-000591D01*
G01*
X0507639Y0201378D01*
G75*
G02*
X0507048Y0200787I-000591J0000000D01*
G01*
X0505867Y0200787D01*
G75*
G02*
X0505277Y0201378I0000000J0000591D01*
G01*
X0505277Y0207086D01*
G75*
G02*
X0505867Y0207677I0000591J0000000D01*
G01*
G37*
G36*
G01*
X0500867Y0207677D02*
X0502048Y0207677D01*
G75*
G02*
X0502639Y0207086I0000000J-000591D01*
G01*
X0502639Y0201378D01*
G75*
G02*
X0502048Y0200787I-000591J0000000D01*
G01*
X0500867Y0200787D01*
G75*
G02*
X0500277Y0201378I0000000J0000591D01*
G01*
X0500277Y0207086D01*
G75*
G02*
X0500867Y0207677I0000591J0000000D01*
G01*
G37*
X0386614Y0299360D02*
%LPD*%
G01*
X0346555Y0298622D02*
%LPD*%
G01*
G36*
G01*
X0377149Y0281693D02*
X0375968Y0281693D01*
G75*
G02*
X0375377Y0282283I0000000J0000591D01*
G01*
X0375377Y0286319D01*
G75*
G02*
X0375968Y0286909I0000591J0000000D01*
G01*
X0377149Y0286909D01*
G75*
G02*
X0377739Y0286319I0000000J-000591D01*
G01*
X0377739Y0282283D01*
G75*
G02*
X0377149Y0281693I-000591J0000000D01*
G01*
G37*
G36*
G01*
X0373408Y0281693D02*
X0372227Y0281693D01*
G75*
G02*
X0371637Y0282283I0000000J0000591D01*
G01*
X0371637Y0286319D01*
G75*
G02*
X0372227Y0286909I0000591J0000000D01*
G01*
X0373408Y0286909D01*
G75*
G02*
X0373999Y0286319I0000000J-000591D01*
G01*
X0373999Y0282283D01*
G75*
G02*
X0373408Y0281693I-000591J0000000D01*
G01*
G37*
G36*
G01*
X0369668Y0281693D02*
X0368487Y0281693D01*
G75*
G02*
X0367897Y0282283I0000000J0000591D01*
G01*
X0367897Y0286319D01*
G75*
G02*
X0368487Y0286909I0000591J0000000D01*
G01*
X0369668Y0286909D01*
G75*
G02*
X0370259Y0286319I0000000J-000591D01*
G01*
X0370259Y0282283D01*
G75*
G02*
X0369668Y0281693I-000591J0000000D01*
G01*
G37*
G36*
G01*
X0369668Y0290650D02*
X0368487Y0290650D01*
G75*
G02*
X0367897Y0291240I0000000J0000591D01*
G01*
X0367897Y0295276D01*
G75*
G02*
X0368487Y0295866I0000591J0000000D01*
G01*
X0369668Y0295866D01*
G75*
G02*
X0370259Y0295276I0000000J-000591D01*
G01*
X0370259Y0291240D01*
G75*
G02*
X0369668Y0290650I-000591J0000000D01*
G01*
G37*
G36*
G01*
X0377149Y0290650D02*
X0375968Y0290650D01*
G75*
G02*
X0375377Y0291240I0000000J0000591D01*
G01*
X0375377Y0295276D01*
G75*
G02*
X0375968Y0295866I0000591J0000000D01*
G01*
X0377149Y0295866D01*
G75*
G02*
X0377739Y0295276I0000000J-000591D01*
G01*
X0377739Y0291240D01*
G75*
G02*
X0377149Y0290650I-000591J0000000D01*
G01*
G37*
G36*
G01*
X0354862Y0281968D02*
X0354862Y0280630D01*
G75*
G02*
X0354311Y0280079I-000551J0000000D01*
G01*
X0353209Y0280079D01*
G75*
G02*
X0352657Y0280630I0000000J0000551D01*
G01*
X0352657Y0281968D01*
G75*
G02*
X0353209Y0282520I0000551J0000000D01*
G01*
X0354311Y0282520D01*
G75*
G02*
X0354862Y0281968I0000000J-000551D01*
G01*
G37*
G36*
G01*
X0351083Y0281968D02*
X0351083Y0280630D01*
G75*
G02*
X0350531Y0280079I-000551J0000000D01*
G01*
X0349429Y0280079D01*
G75*
G02*
X0348878Y0280630I0000000J0000551D01*
G01*
X0348878Y0281968D01*
G75*
G02*
X0349429Y0282520I0000551J0000000D01*
G01*
X0350531Y0282520D01*
G75*
G02*
X0351083Y0281968I0000000J-000551D01*
G01*
G37*
G36*
G01*
X0377579Y0255453D02*
X0378917Y0255453D01*
G75*
G02*
X0379468Y0254902I0000000J-000551D01*
G01*
X0379468Y0253799D01*
G75*
G02*
X0378917Y0253248I-000551J0000000D01*
G01*
X0377579Y0253248D01*
G75*
G02*
X0377027Y0253799I0000000J0000551D01*
G01*
X0377027Y0254902D01*
G75*
G02*
X0377579Y0255453I0000551J0000000D01*
G01*
G37*
G36*
G01*
X0377579Y0251673D02*
X0378917Y0251673D01*
G75*
G02*
X0379468Y0251122I0000000J-000551D01*
G01*
X0379468Y0250020D01*
G75*
G02*
X0378917Y0249468I-000551J0000000D01*
G01*
X0377579Y0249468D01*
G75*
G02*
X0377027Y0250020I0000000J0000551D01*
G01*
X0377027Y0251122D01*
G75*
G02*
X0377579Y0251673I0000551J0000000D01*
G01*
G37*
G36*
G01*
X0382579Y0242106D02*
X0381240Y0242106D01*
G75*
G02*
X0380689Y0242657I0000000J0000551D01*
G01*
X0380689Y0243760D01*
G75*
G02*
X0381240Y0244311I0000551J0000000D01*
G01*
X0382579Y0244311D01*
G75*
G02*
X0383130Y0243760I0000000J-000551D01*
G01*
X0383130Y0242657D01*
G75*
G02*
X0382579Y0242106I-000551J0000000D01*
G01*
G37*
G36*
G01*
X0382579Y0245886D02*
X0381240Y0245886D01*
G75*
G02*
X0380689Y0246437I0000000J0000551D01*
G01*
X0380689Y0247539D01*
G75*
G02*
X0381240Y0248091I0000551J0000000D01*
G01*
X0382579Y0248091D01*
G75*
G02*
X0383130Y0247539I0000000J-000551D01*
G01*
X0383130Y0246437D01*
G75*
G02*
X0382579Y0245886I-000551J0000000D01*
G01*
G37*
G36*
G01*
X0373838Y0263858D02*
X0375177Y0263858D01*
G75*
G02*
X0375728Y0263307I0000000J-000551D01*
G01*
X0375728Y0262205D01*
G75*
G02*
X0375177Y0261653I-000551J0000000D01*
G01*
X0373838Y0261653D01*
G75*
G02*
X0373287Y0262205I0000000J0000551D01*
G01*
X0373287Y0263307D01*
G75*
G02*
X0373838Y0263858I0000551J0000000D01*
G01*
G37*
G36*
G01*
X0373838Y0260079D02*
X0375177Y0260079D01*
G75*
G02*
X0375728Y0259528I0000000J-000551D01*
G01*
X0375728Y0258425D01*
G75*
G02*
X0375177Y0257874I-000551J0000000D01*
G01*
X0373838Y0257874D01*
G75*
G02*
X0373287Y0258425I0000000J0000551D01*
G01*
X0373287Y0259528D01*
G75*
G02*
X0373838Y0260079I0000551J0000000D01*
G01*
G37*
G36*
G01*
X0378917Y0242303D02*
X0377579Y0242303D01*
G75*
G02*
X0377027Y0242854I0000000J0000551D01*
G01*
X0377027Y0243957D01*
G75*
G02*
X0377579Y0244508I0000551J0000000D01*
G01*
X0378917Y0244508D01*
G75*
G02*
X0379468Y0243957I0000000J-000551D01*
G01*
X0379468Y0242854D01*
G75*
G02*
X0378917Y0242303I-000551J0000000D01*
G01*
G37*
G36*
G01*
X0378917Y0246083D02*
X0377579Y0246083D01*
G75*
G02*
X0377027Y0246634I0000000J0000551D01*
G01*
X0377027Y0247736D01*
G75*
G02*
X0377579Y0248287I0000551J0000000D01*
G01*
X0378917Y0248287D01*
G75*
G02*
X0379468Y0247736I0000000J-000551D01*
G01*
X0379468Y0246634D01*
G75*
G02*
X0378917Y0246083I-000551J0000000D01*
G01*
G37*
G36*
G01*
X0357401Y0247579D02*
X0358740Y0247579D01*
G75*
G02*
X0359291Y0247028I0000000J-000551D01*
G01*
X0359291Y0245925D01*
G75*
G02*
X0358740Y0245374I-000551J0000000D01*
G01*
X0357401Y0245374D01*
G75*
G02*
X0356850Y0245925I0000000J0000551D01*
G01*
X0356850Y0247028D01*
G75*
G02*
X0357401Y0247579I0000551J0000000D01*
G01*
G37*
G36*
G01*
X0357401Y0243799D02*
X0358740Y0243799D01*
G75*
G02*
X0359291Y0243248I0000000J-000551D01*
G01*
X0359291Y0242146D01*
G75*
G02*
X0358740Y0241594I-000551J0000000D01*
G01*
X0357401Y0241594D01*
G75*
G02*
X0356850Y0242146I0000000J0000551D01*
G01*
X0356850Y0243248D01*
G75*
G02*
X0357401Y0243799I0000551J0000000D01*
G01*
G37*
G36*
G01*
X0349901Y0278088D02*
X0350689Y0278088D01*
G75*
G02*
X0351083Y0277694I0000000J-000394D01*
G01*
X0351083Y0272674D01*
G75*
G02*
X0350689Y0272281I-000394J0000000D01*
G01*
X0349901Y0272281D01*
G75*
G02*
X0349508Y0272674I0000000J0000394D01*
G01*
X0349508Y0277694D01*
G75*
G02*
X0349901Y0278088I0000394J0000000D01*
G01*
G37*
G36*
G01*
X0352461Y0278088D02*
X0353248Y0278088D01*
G75*
G02*
X0353642Y0277694I0000000J-000394D01*
G01*
X0353642Y0272674D01*
G75*
G02*
X0353248Y0272281I-000394J0000000D01*
G01*
X0352461Y0272281D01*
G75*
G02*
X0352067Y0272674I0000000J0000394D01*
G01*
X0352067Y0277694D01*
G75*
G02*
X0352461Y0278088I0000394J0000000D01*
G01*
G37*
G36*
G01*
X0355020Y0278088D02*
X0355807Y0278088D01*
G75*
G02*
X0356201Y0277694I0000000J-000394D01*
G01*
X0356201Y0272674D01*
G75*
G02*
X0355807Y0272281I-000394J0000000D01*
G01*
X0355020Y0272281D01*
G75*
G02*
X0354626Y0272674I0000000J0000394D01*
G01*
X0354626Y0277694D01*
G75*
G02*
X0355020Y0278088I0000394J0000000D01*
G01*
G37*
G36*
G01*
X0357579Y0278088D02*
X0358366Y0278088D01*
G75*
G02*
X0358760Y0277694I0000000J-000394D01*
G01*
X0358760Y0272674D01*
G75*
G02*
X0358366Y0272281I-000394J0000000D01*
G01*
X0357579Y0272281D01*
G75*
G02*
X0357185Y0272674I0000000J0000394D01*
G01*
X0357185Y0277694D01*
G75*
G02*
X0357579Y0278088I0000394J0000000D01*
G01*
G37*
G36*
G01*
X0360138Y0278088D02*
X0360925Y0278088D01*
G75*
G02*
X0361319Y0277694I0000000J-000394D01*
G01*
X0361319Y0272674D01*
G75*
G02*
X0360925Y0272281I-000394J0000000D01*
G01*
X0360138Y0272281D01*
G75*
G02*
X0359744Y0272674I0000000J0000394D01*
G01*
X0359744Y0277694D01*
G75*
G02*
X0360138Y0278088I0000394J0000000D01*
G01*
G37*
G36*
G01*
X0362697Y0278088D02*
X0363484Y0278088D01*
G75*
G02*
X0363878Y0277694I0000000J-000394D01*
G01*
X0363878Y0272674D01*
G75*
G02*
X0363484Y0272281I-000394J0000000D01*
G01*
X0362697Y0272281D01*
G75*
G02*
X0362303Y0272674I0000000J0000394D01*
G01*
X0362303Y0277694D01*
G75*
G02*
X0362697Y0278088I0000394J0000000D01*
G01*
G37*
G36*
G01*
X0365256Y0278088D02*
X0366043Y0278088D01*
G75*
G02*
X0366437Y0277694I0000000J-000394D01*
G01*
X0366437Y0272674D01*
G75*
G02*
X0366043Y0272281I-000394J0000000D01*
G01*
X0365256Y0272281D01*
G75*
G02*
X0364862Y0272674I0000000J0000394D01*
G01*
X0364862Y0277694D01*
G75*
G02*
X0365256Y0278088I0000394J0000000D01*
G01*
G37*
G36*
G01*
X0365256Y0255548D02*
X0366043Y0255548D01*
G75*
G02*
X0366437Y0255155I0000000J-000394D01*
G01*
X0366437Y0250135D01*
G75*
G02*
X0366043Y0249741I-000394J0000000D01*
G01*
X0365256Y0249741D01*
G75*
G02*
X0364862Y0250135I0000000J0000394D01*
G01*
X0364862Y0255155D01*
G75*
G02*
X0365256Y0255548I0000394J0000000D01*
G01*
G37*
G36*
G01*
X0362697Y0255548D02*
X0363484Y0255548D01*
G75*
G02*
X0363878Y0255155I0000000J-000394D01*
G01*
X0363878Y0250135D01*
G75*
G02*
X0363484Y0249741I-000394J0000000D01*
G01*
X0362697Y0249741D01*
G75*
G02*
X0362303Y0250135I0000000J0000394D01*
G01*
X0362303Y0255155D01*
G75*
G02*
X0362697Y0255548I0000394J0000000D01*
G01*
G37*
G36*
G01*
X0360138Y0255548D02*
X0360925Y0255548D01*
G75*
G02*
X0361319Y0255155I0000000J-000394D01*
G01*
X0361319Y0250135D01*
G75*
G02*
X0360925Y0249741I-000394J0000000D01*
G01*
X0360138Y0249741D01*
G75*
G02*
X0359744Y0250135I0000000J0000394D01*
G01*
X0359744Y0255155D01*
G75*
G02*
X0360138Y0255548I0000394J0000000D01*
G01*
G37*
G36*
G01*
X0357579Y0255548D02*
X0358366Y0255548D01*
G75*
G02*
X0358760Y0255155I0000000J-000394D01*
G01*
X0358760Y0250135D01*
G75*
G02*
X0358366Y0249741I-000394J0000000D01*
G01*
X0357579Y0249741D01*
G75*
G02*
X0357185Y0250135I0000000J0000394D01*
G01*
X0357185Y0255155D01*
G75*
G02*
X0357579Y0255548I0000394J0000000D01*
G01*
G37*
G36*
G01*
X0355020Y0255548D02*
X0355807Y0255548D01*
G75*
G02*
X0356201Y0255155I0000000J-000394D01*
G01*
X0356201Y0250135D01*
G75*
G02*
X0355807Y0249741I-000394J0000000D01*
G01*
X0355020Y0249741D01*
G75*
G02*
X0354626Y0250135I0000000J0000394D01*
G01*
X0354626Y0255155D01*
G75*
G02*
X0355020Y0255548I0000394J0000000D01*
G01*
G37*
G36*
G01*
X0352461Y0255548D02*
X0353248Y0255548D01*
G75*
G02*
X0353642Y0255155I0000000J-000394D01*
G01*
X0353642Y0250135D01*
G75*
G02*
X0353248Y0249741I-000394J0000000D01*
G01*
X0352461Y0249741D01*
G75*
G02*
X0352067Y0250135I0000000J0000394D01*
G01*
X0352067Y0255155D01*
G75*
G02*
X0352461Y0255548I0000394J0000000D01*
G01*
G37*
G36*
G01*
X0349901Y0255548D02*
X0350689Y0255548D01*
G75*
G02*
X0351083Y0255155I0000000J-000394D01*
G01*
X0351083Y0250135D01*
G75*
G02*
X0350689Y0249741I-000394J0000000D01*
G01*
X0349901Y0249741D01*
G75*
G02*
X0349508Y0250135I0000000J0000394D01*
G01*
X0349508Y0255155D01*
G75*
G02*
X0349901Y0255548I0000394J0000000D01*
G01*
G37*
G36*
G01*
X0357772Y0295731D02*
X0361315Y0295731D01*
G75*
G02*
X0362299Y0294747I0000000J-000984D01*
G01*
X0362299Y0292680D01*
G75*
G02*
X0361315Y0291696I-000984J0000000D01*
G01*
X0357772Y0291696D01*
G75*
G02*
X0356787Y0292680I0000000J0000984D01*
G01*
X0356787Y0294747D01*
G75*
G02*
X0357772Y0295731I0000984J0000000D01*
G01*
G37*
G36*
G01*
X0357772Y0288546D02*
X0361315Y0288546D01*
G75*
G02*
X0362299Y0287562I0000000J-000984D01*
G01*
X0362299Y0285495D01*
G75*
G02*
X0361315Y0284511I-000984J0000000D01*
G01*
X0357772Y0284511D01*
G75*
G02*
X0356787Y0285495I0000000J0000984D01*
G01*
X0356787Y0287562D01*
G75*
G02*
X0357772Y0288546I0000984J0000000D01*
G01*
G37*
G36*
G01*
X0371496Y0249488D02*
X0370039Y0249488D01*
G75*
G02*
X0369508Y0250020I0000000J0000531D01*
G01*
X0369508Y0251083D01*
G75*
G02*
X0370039Y0251614I0000531J0000000D01*
G01*
X0371496Y0251614D01*
G75*
G02*
X0372027Y0251083I0000000J-000531D01*
G01*
X0372027Y0250020D01*
G75*
G02*
X0371496Y0249488I-000531J0000000D01*
G01*
G37*
G36*
G01*
X0371496Y0253504D02*
X0370039Y0253504D01*
G75*
G02*
X0369508Y0254035I0000000J0000531D01*
G01*
X0369508Y0255098D01*
G75*
G02*
X0370039Y0255630I0000531J0000000D01*
G01*
X0371496Y0255630D01*
G75*
G02*
X0372027Y0255098I0000000J-000531D01*
G01*
X0372027Y0254035D01*
G75*
G02*
X0371496Y0253504I-000531J0000000D01*
G01*
G37*
G36*
G01*
X0382421Y0289921D02*
X0381083Y0289921D01*
G75*
G02*
X0380531Y0290472I0000000J0000551D01*
G01*
X0380531Y0291575D01*
G75*
G02*
X0381083Y0292126I0000551J0000000D01*
G01*
X0382421Y0292126D01*
G75*
G02*
X0382972Y0291575I0000000J-000551D01*
G01*
X0382972Y0290472D01*
G75*
G02*
X0382421Y0289921I-000551J0000000D01*
G01*
G37*
G36*
G01*
X0382421Y0293701D02*
X0381083Y0293701D01*
G75*
G02*
X0380531Y0294252I0000000J0000551D01*
G01*
X0380531Y0295354D01*
G75*
G02*
X0381083Y0295905I0000551J0000000D01*
G01*
X0382421Y0295905D01*
G75*
G02*
X0382972Y0295354I0000000J-000551D01*
G01*
X0382972Y0294252D01*
G75*
G02*
X0382421Y0293701I-000551J0000000D01*
G01*
G37*
G36*
G01*
X0375236Y0241811D02*
X0373779Y0241811D01*
G75*
G02*
X0373248Y0242342I0000000J0000531D01*
G01*
X0373248Y0243405D01*
G75*
G02*
X0373779Y0243937I0000531J0000000D01*
G01*
X0375236Y0243937D01*
G75*
G02*
X0375768Y0243405I0000000J-000531D01*
G01*
X0375768Y0242342D01*
G75*
G02*
X0375236Y0241811I-000531J0000000D01*
G01*
G37*
G36*
G01*
X0375236Y0245827D02*
X0373779Y0245827D01*
G75*
G02*
X0373248Y0246358I0000000J0000531D01*
G01*
X0373248Y0247421D01*
G75*
G02*
X0373779Y0247953I0000531J0000000D01*
G01*
X0375236Y0247953D01*
G75*
G02*
X0375768Y0247421I0000000J-000531D01*
G01*
X0375768Y0246358D01*
G75*
G02*
X0375236Y0245827I-000531J0000000D01*
G01*
G37*
G36*
G01*
X0371496Y0257744D02*
X0370040Y0257744D01*
G75*
G02*
X0369508Y0258276I0000000J0000531D01*
G01*
X0369508Y0259339D01*
G75*
G02*
X0370040Y0259870I0000531J0000000D01*
G01*
X0371496Y0259870D01*
G75*
G02*
X0372028Y0259339I0000000J-000531D01*
G01*
X0372028Y0258276D01*
G75*
G02*
X0371496Y0257744I-000531J0000000D01*
G01*
G37*
G36*
G01*
X0371496Y0261760D02*
X0370040Y0261760D01*
G75*
G02*
X0369508Y0262292I0000000J0000531D01*
G01*
X0369508Y0263355D01*
G75*
G02*
X0370040Y0263886I0000531J0000000D01*
G01*
X0371496Y0263886D01*
G75*
G02*
X0372028Y0263355I0000000J-000531D01*
G01*
X0372028Y0262292D01*
G75*
G02*
X0371496Y0261760I-000531J0000000D01*
G01*
G37*
G36*
G01*
X0353740Y0284511D02*
X0350197Y0284511D01*
G75*
G02*
X0349212Y0285495I0000000J0000984D01*
G01*
X0349212Y0287562D01*
G75*
G02*
X0350197Y0288546I0000984J0000000D01*
G01*
X0353740Y0288546D01*
G75*
G02*
X0354724Y0287562I0000000J-000984D01*
G01*
X0354724Y0285495D01*
G75*
G02*
X0353740Y0284511I-000984J0000000D01*
G01*
G37*
G36*
G01*
X0353740Y0291696D02*
X0350197Y0291696D01*
G75*
G02*
X0349212Y0292680I0000000J0000984D01*
G01*
X0349212Y0294747D01*
G75*
G02*
X0350197Y0295731I0000984J0000000D01*
G01*
X0353740Y0295731D01*
G75*
G02*
X0354724Y0294747I0000000J-000984D01*
G01*
X0354724Y0292680D01*
G75*
G02*
X0353740Y0291696I-000984J0000000D01*
G01*
G37*
G36*
G01*
X0382638Y0257795D02*
X0381181Y0257795D01*
G75*
G02*
X0380649Y0258327I0000000J0000531D01*
G01*
X0380649Y0259390D01*
G75*
G02*
X0381181Y0259921I0000531J0000000D01*
G01*
X0382638Y0259921D01*
G75*
G02*
X0383169Y0259390I0000000J-000531D01*
G01*
X0383169Y0258327D01*
G75*
G02*
X0382638Y0257795I-000531J0000000D01*
G01*
G37*
G36*
G01*
X0382638Y0261811D02*
X0381181Y0261811D01*
G75*
G02*
X0380649Y0262342I0000000J0000531D01*
G01*
X0380649Y0263405D01*
G75*
G02*
X0381181Y0263937I0000531J0000000D01*
G01*
X0382638Y0263937D01*
G75*
G02*
X0383169Y0263405I0000000J-000531D01*
G01*
X0383169Y0262342D01*
G75*
G02*
X0382638Y0261811I-000531J0000000D01*
G01*
G37*
G36*
G01*
X0349134Y0248110D02*
X0350590Y0248110D01*
G75*
G02*
X0351122Y0247579I0000000J-000531D01*
G01*
X0351122Y0246516D01*
G75*
G02*
X0350590Y0245984I-000531J0000000D01*
G01*
X0349134Y0245984D01*
G75*
G02*
X0348602Y0246516I0000000J0000531D01*
G01*
X0348602Y0247579D01*
G75*
G02*
X0349134Y0248110I0000531J0000000D01*
G01*
G37*
G36*
G01*
X0349134Y0244094D02*
X0350590Y0244094D01*
G75*
G02*
X0351122Y0243563I0000000J-000531D01*
G01*
X0351122Y0242500D01*
G75*
G02*
X0350590Y0241968I-000531J0000000D01*
G01*
X0349134Y0241968D01*
G75*
G02*
X0348602Y0242500I0000000J0000531D01*
G01*
X0348602Y0243563D01*
G75*
G02*
X0349134Y0244094I0000531J0000000D01*
G01*
G37*
G36*
G01*
X0361083Y0247657D02*
X0362539Y0247657D01*
G75*
G02*
X0363071Y0247126I0000000J-000531D01*
G01*
X0363071Y0246063D01*
G75*
G02*
X0362539Y0245531I-000531J0000000D01*
G01*
X0361083Y0245531D01*
G75*
G02*
X0360551Y0246063I0000000J0000531D01*
G01*
X0360551Y0247126D01*
G75*
G02*
X0361083Y0247657I0000531J0000000D01*
G01*
G37*
G36*
G01*
X0361083Y0243642D02*
X0362539Y0243642D01*
G75*
G02*
X0363071Y0243110I0000000J-000531D01*
G01*
X0363071Y0242047D01*
G75*
G02*
X0362539Y0241516I-000531J0000000D01*
G01*
X0361083Y0241516D01*
G75*
G02*
X0360551Y0242047I0000000J0000531D01*
G01*
X0360551Y0243110D01*
G75*
G02*
X0361083Y0243642I0000531J0000000D01*
G01*
G37*
G36*
G01*
X0375236Y0249193D02*
X0373779Y0249193D01*
G75*
G02*
X0373248Y0249724I0000000J0000531D01*
G01*
X0373248Y0250787D01*
G75*
G02*
X0373779Y0251319I0000531J0000000D01*
G01*
X0375236Y0251319D01*
G75*
G02*
X0375768Y0250787I0000000J-000531D01*
G01*
X0375768Y0249724D01*
G75*
G02*
X0375236Y0249193I-000531J0000000D01*
G01*
G37*
G36*
G01*
X0375236Y0253209D02*
X0373779Y0253209D01*
G75*
G02*
X0373248Y0253740I0000000J0000531D01*
G01*
X0373248Y0254803D01*
G75*
G02*
X0373779Y0255335I0000531J0000000D01*
G01*
X0375236Y0255335D01*
G75*
G02*
X0375768Y0254803I0000000J-000531D01*
G01*
X0375768Y0253740D01*
G75*
G02*
X0375236Y0253209I-000531J0000000D01*
G01*
G37*
G36*
G01*
X0366319Y0241496D02*
X0364980Y0241496D01*
G75*
G02*
X0364429Y0242047I0000000J0000551D01*
G01*
X0364429Y0243150D01*
G75*
G02*
X0364980Y0243701I0000551J0000000D01*
G01*
X0366319Y0243701D01*
G75*
G02*
X0366870Y0243150I0000000J-000551D01*
G01*
X0366870Y0242047D01*
G75*
G02*
X0366319Y0241496I-000551J0000000D01*
G01*
G37*
G36*
G01*
X0366319Y0245276D02*
X0364980Y0245276D01*
G75*
G02*
X0364429Y0245827I0000000J0000551D01*
G01*
X0364429Y0246929D01*
G75*
G02*
X0364980Y0247480I0000551J0000000D01*
G01*
X0366319Y0247480D01*
G75*
G02*
X0366870Y0246929I0000000J-000551D01*
G01*
X0366870Y0245827D01*
G75*
G02*
X0366319Y0245276I-000551J0000000D01*
G01*
G37*
G36*
G01*
X0356104Y0280644D02*
X0356104Y0281982D01*
G75*
G02*
X0356655Y0282534I0000551J0000000D01*
G01*
X0357757Y0282534D01*
G75*
G02*
X0358309Y0281982I0000000J-000551D01*
G01*
X0358309Y0280644D01*
G75*
G02*
X0357757Y0280093I-000551J0000000D01*
G01*
X0356655Y0280093D01*
G75*
G02*
X0356104Y0280644I0000000J0000551D01*
G01*
G37*
G36*
G01*
X0359883Y0280644D02*
X0359883Y0281982D01*
G75*
G02*
X0360434Y0282534I0000551J0000000D01*
G01*
X0361537Y0282534D01*
G75*
G02*
X0362088Y0281982I0000000J-000551D01*
G01*
X0362088Y0280644D01*
G75*
G02*
X0361537Y0280093I-000551J0000000D01*
G01*
X0360434Y0280093D01*
G75*
G02*
X0359883Y0280644I0000000J0000551D01*
G01*
G37*
G36*
G01*
X0370039Y0248150D02*
X0371496Y0248150D01*
G75*
G02*
X0372027Y0247618I0000000J-000531D01*
G01*
X0372027Y0246555D01*
G75*
G02*
X0371496Y0246024I-000531J0000000D01*
G01*
X0370039Y0246024D01*
G75*
G02*
X0369508Y0246555I0000000J0000531D01*
G01*
X0369508Y0247618D01*
G75*
G02*
X0370039Y0248150I0000531J0000000D01*
G01*
G37*
G36*
G01*
X0370039Y0244134D02*
X0371496Y0244134D01*
G75*
G02*
X0372027Y0243602I0000000J-000531D01*
G01*
X0372027Y0242539D01*
G75*
G02*
X0371496Y0242008I-000531J0000000D01*
G01*
X0370039Y0242008D01*
G75*
G02*
X0369508Y0242539I0000000J0000531D01*
G01*
X0369508Y0243602D01*
G75*
G02*
X0370039Y0244134I0000531J0000000D01*
G01*
G37*
G36*
G01*
X0381398Y0265551D02*
X0380216Y0265551D01*
G75*
G02*
X0379626Y0266142I0000000J0000591D01*
G01*
X0379626Y0270177D01*
G75*
G02*
X0380216Y0270768I0000591J0000000D01*
G01*
X0381398Y0270768D01*
G75*
G02*
X0381988Y0270177I0000000J-000591D01*
G01*
X0381988Y0266142D01*
G75*
G02*
X0381398Y0265551I-000591J0000000D01*
G01*
G37*
G36*
G01*
X0377657Y0265551D02*
X0376476Y0265551D01*
G75*
G02*
X0375886Y0266142I0000000J0000591D01*
G01*
X0375886Y0270177D01*
G75*
G02*
X0376476Y0270768I0000591J0000000D01*
G01*
X0377657Y0270768D01*
G75*
G02*
X0378248Y0270177I0000000J-000591D01*
G01*
X0378248Y0266142D01*
G75*
G02*
X0377657Y0265551I-000591J0000000D01*
G01*
G37*
G36*
G01*
X0373917Y0265551D02*
X0372736Y0265551D01*
G75*
G02*
X0372146Y0266142I0000000J0000591D01*
G01*
X0372146Y0270177D01*
G75*
G02*
X0372736Y0270768I0000591J0000000D01*
G01*
X0373917Y0270768D01*
G75*
G02*
X0374508Y0270177I0000000J-000591D01*
G01*
X0374508Y0266142D01*
G75*
G02*
X0373917Y0265551I-000591J0000000D01*
G01*
G37*
G36*
G01*
X0373917Y0274508D02*
X0372736Y0274508D01*
G75*
G02*
X0372146Y0275098I0000000J0000591D01*
G01*
X0372146Y0279134D01*
G75*
G02*
X0372736Y0279724I0000591J0000000D01*
G01*
X0373917Y0279724D01*
G75*
G02*
X0374508Y0279134I0000000J-000591D01*
G01*
X0374508Y0275098D01*
G75*
G02*
X0373917Y0274508I-000591J0000000D01*
G01*
G37*
G36*
G01*
X0381398Y0274508D02*
X0380216Y0274508D01*
G75*
G02*
X0379626Y0275098I0000000J0000591D01*
G01*
X0379626Y0279134D01*
G75*
G02*
X0380216Y0279724I0000591J0000000D01*
G01*
X0381398Y0279724D01*
G75*
G02*
X0381988Y0279134I0000000J-000591D01*
G01*
X0381988Y0275098D01*
G75*
G02*
X0381398Y0274508I-000591J0000000D01*
G01*
G37*
G36*
G01*
X0377579Y0263858D02*
X0378917Y0263858D01*
G75*
G02*
X0379468Y0263307I0000000J-000551D01*
G01*
X0379468Y0262205D01*
G75*
G02*
X0378917Y0261653I-000551J0000000D01*
G01*
X0377579Y0261653D01*
G75*
G02*
X0377027Y0262205I0000000J0000551D01*
G01*
X0377027Y0263307D01*
G75*
G02*
X0377579Y0263858I0000551J0000000D01*
G01*
G37*
G36*
G01*
X0377579Y0260079D02*
X0378917Y0260079D01*
G75*
G02*
X0379468Y0259528I0000000J-000551D01*
G01*
X0379468Y0258425D01*
G75*
G02*
X0378917Y0257874I-000551J0000000D01*
G01*
X0377579Y0257874D01*
G75*
G02*
X0377027Y0258425I0000000J0000551D01*
G01*
X0377027Y0259528D01*
G75*
G02*
X0377579Y0260079I0000551J0000000D01*
G01*
G37*
X0465846Y0298819D02*
G01*
G75*
D428*
X0437893Y0288583D02*
D03*
X0433956Y0288583D02*
D03*
X0449016Y0288583D02*
D03*
X0452953Y0288583D02*
D03*
X0457382Y0288583D02*
D03*
X0461319Y0288583D02*
D03*
X0437893Y0295866D02*
D03*
X0433956Y0295866D02*
D03*
D429*
X0441278Y0296063D02*
D03*
X0441278Y0292520D02*
D03*
D430*
X0445163Y0289350D02*
D03*
X0445163Y0295571D02*
D03*
D431*
X0457775Y0292520D02*
D03*
X0461318Y0292520D02*
D03*
X0449409Y0296063D02*
D03*
X0452952Y0296063D02*
D03*
X0434547Y0292462D02*
D03*
X0438090Y0292462D02*
D03*
X0461318Y0296063D02*
D03*
X0457775Y0296063D02*
D03*
X0133071Y0111319D02*
G01*
G75*
D173*
X0162986Y0187697D02*
D03*
X0149994Y0187697D02*
D03*
D178*
X0182846Y0188091D02*
D03*
X0171429Y0188091D02*
D03*
X0182846Y0180059D02*
D03*
X0171429Y0180059D02*
D03*
D245*
X0145473Y0166043D02*
D03*
X0145473Y0169980D02*
D03*
X0142126Y0180610D02*
D03*
X0150788Y0180610D02*
D03*
X0141339Y0175362D02*
D03*
X0150000Y0175362D02*
D03*
D234*
X0153226Y0122736D02*
D03*
X0149682Y0122736D02*
D03*
X0162617Y0159469D02*
D03*
X0166161Y0159469D02*
D03*
X0154620Y0174574D02*
D03*
X0158163Y0174574D02*
D03*
X0161844Y0122736D02*
D03*
X0158301Y0122736D02*
D03*
X0141339Y0126673D02*
D03*
X0144882Y0126673D02*
D03*
D232*
X0166824Y0176149D02*
D03*
X0166824Y0179693D02*
D03*
X0146057Y0188551D02*
D03*
X0146057Y0185007D02*
D03*
X0194821Y0130234D02*
D03*
X0194821Y0133778D02*
D03*
D257*
X0190945Y0189272D02*
D03*
X0190945Y0180610D02*
D03*
X0153029Y0126673D02*
D03*
X0149092Y0126673D02*
D03*
X0157710Y0126673D02*
D03*
X0161647Y0126673D02*
D03*
X0154423Y0180610D02*
D03*
X0158360Y0180610D02*
D03*
X0177356Y0158996D02*
D03*
X0181293Y0158996D02*
D03*
X0185132Y0121555D02*
D03*
X0181194Y0121555D02*
D03*
D258*
X0182284Y0167618D02*
D03*
X0171260Y0167618D02*
D03*
D233*
X0149606Y0163295D02*
D03*
X0149606Y0169515D02*
D03*
X0163700Y0163295D02*
D03*
X0163700Y0169515D02*
D03*
X0159009Y0163295D02*
D03*
X0159009Y0169515D02*
D03*
X0154317Y0163295D02*
D03*
X0154317Y0169515D02*
D03*
X0162519Y0175539D02*
D03*
X0162519Y0181760D02*
D03*
D259*
X0158143Y0133433D02*
D03*
X0153143Y0133433D02*
D03*
X0148143Y0133433D02*
D03*
X0143143Y0133433D02*
D03*
X0158143Y0156070D02*
D03*
X0153143Y0156070D02*
D03*
X0148143Y0156070D02*
D03*
X0143143Y0156070D02*
D03*
X0181210Y0128150D02*
D03*
X0176210Y0128150D02*
D03*
X0171210Y0128150D02*
D03*
X0166210Y0128150D02*
D03*
X0181210Y0151575D02*
D03*
X0176210Y0151575D02*
D03*
X0171210Y0151575D02*
D03*
X0166210Y0151575D02*
D03*
D260*
X0150643Y0144751D02*
D03*
D261*
X0173710Y0139862D02*
D03*
M02*
