G75*
G70*
%OFA0B0*%
%FSLAX25Y25*%
%IPPOS*%
%LPD*%
%AMOC8*
5,1,8,0,0,1.08239X$1,22.5*
%
%ADD68C,0.00787*%
X0000000Y0000000D02*
%LPD*%
G01*
D68*
X0102520Y0464567D02*
X0057814Y0456693D01*
X0595040Y0015197D02*
X0595040Y0005568D01*
X0636614Y0149016D02*
G75*
G02*
X0636614Y0160827I-000001J0005906D01*
G01*
X0015197Y0050630D02*
G75*
G02*
X0050630Y0015197I0000000J-035433D01*
G01*
X0587795Y0456693D02*
X0587795Y0432252D01*
X0605512Y0414764D02*
G75*
G02*
X0587795Y0432252I0000185J0017905D01*
G01*
X0009055Y0149015D02*
X0000000Y0149015D01*
X0057874Y0432724D02*
G75*
G02*
X0039814Y0414764I-017989J0000028D01*
G01*
X0645669Y0409196D02*
X0645669Y0160827D01*
X0630473Y0050630D02*
X0640102Y0050630D01*
X0056198Y0000000D02*
X0589472Y0000000D01*
X0005568Y0414764D02*
X0039814Y0414764D01*
X0636614Y0160827D02*
X0645669Y0160827D01*
X0057814Y0456693D02*
X0057874Y0432724D01*
X0102520Y0464567D02*
X0543150Y0464567D01*
X0000000Y0409196D02*
X0000000Y0160827D01*
X0595040Y0005568D02*
X0589472Y0000000D01*
X0000000Y0149015D02*
X0000000Y0056197D01*
X0050630Y0005568D02*
X0056198Y0000000D01*
X0636614Y0149016D02*
X0645669Y0149016D01*
X0543150Y0464567D02*
X0587795Y0456693D01*
X0000000Y0056197D02*
X0005568Y0050630D01*
X0015197Y0050630D02*
X0005568Y0050630D01*
X0009055Y0160827D02*
X0000000Y0160827D01*
X0000000Y0409196D02*
X0005568Y0414764D01*
X0595040Y0015197D02*
G75*
G02*
X0630473Y0050630I0035433J0000000D01*
G01*
X0645669Y0056197D02*
X0640102Y0050630D01*
X0050630Y0015197D02*
X0050630Y0005568D01*
X0009055Y0160827D02*
G75*
G02*
X0009055Y0149016I0000000J-005906D01*
G01*
X0645669Y0149015D02*
X0645669Y0056197D01*
X0645669Y0409196D02*
X0640102Y0414764D01*
X0640102Y0414764D02*
X0605512Y0414764D01*
X0140699Y0078570D02*
G01*
G75*
X0353051Y0189961D02*
G01*
G75*
X0538287Y0191535D02*
G01*
G75*
X0386614Y0299360D02*
G01*
G75*
X0346555Y0298622D02*
G01*
G75*
X0465846Y0298819D02*
G01*
G75*
X0133071Y0111319D02*
G01*
G75*
M02*
