M48
INCH,TZ
T01C0.013750
T02C0.029550
T03C0.032000
T04C0.039200
T05C0.043300
T06C0.078700
T07C0.086600
T08C0.145700
%
T01
X23396Y130472
X23425Y129074
X23514Y130974
X23858Y130767
X25243Y139818
X26769Y138568
X26847Y139700
X26853Y138224
X26853Y138952
X26883Y137889
X27060Y137249
X27576Y138785
X27576Y137761
X27576Y136993
X32308Y141016
X32652Y140809
X32741Y142709
X32771Y141311
X44859Y121560
X47004Y124256
X47011Y122196
X47752Y122002
X48986Y140777
X49532Y139281
X50242Y124778
X52169Y116166
X52169Y113213
X52169Y112898
X52169Y112583
X53814Y140777
X59069Y115811
X59069Y115418
X59404Y140777
X63696Y140777
X16863Y138533
X16867Y139537
X16963Y134833
X16963Y133833
X18663Y131333
X19252Y120630
X19291Y117283
X20650Y112750
X21263Y131533
X21968Y110354
X21970Y133130
X23779Y107992
X24003Y135553
X24122Y128382
X24567Y111712
X24772Y112294
X24853Y134303
X24901Y111712
X25236Y111712
X25236Y104330
X25335Y134606
X25513Y131713
X25723Y134483
X25793Y133913
X25853Y140473
X25905Y102441
X26063Y128263
X26398Y131742
X26420Y134333
X26772Y129576
X26840Y120303
X26883Y134383
X27533Y134173
X27833Y134393
X27953Y132332
X28100Y111653
X28135Y127048
X28163Y131133
X28346Y126732
X28779Y119056
X28779Y118189
X28963Y128633
X29035Y107736
X29063Y130633
X29094Y127165
X29115Y140120
X29439Y140025
X29468Y142008
X29933Y115563
X31260Y140039
X31594Y109960
X32057Y117795
X32490Y117391
X33189Y140039
X33553Y117343
X33833Y143533
X34449Y140157
X34636Y111712
X35335Y109931
X36023Y142883
X36053Y118513
X36142Y143828
X36426Y118513
X36563Y115473
X36959Y118395
X36968Y109980
X37303Y115553
X37333Y118730
X37333Y143613
X37343Y142083
X37499Y117854
X37648Y109911
X37863Y117343
X38013Y110013
X38483Y117813
X38713Y115163
X38753Y114663
X38923Y113743
X39055Y103323
X39293Y113363
X39313Y116387
X39370Y119035
X39606Y103323
X40000Y125118
X40013Y103263
X40069Y118700
X40128Y140078
X40590Y140057
X40630Y103681
X40984Y103681
X40993Y118853
X41409Y117673
X41455Y118051
X41601Y118733
X41850Y122175
X41883Y124897
X42071Y122716
X42077Y107027
X42233Y124853
X42303Y117283
X42393Y118843
X42523Y119548
X42783Y119283
X43033Y143713
X43098Y119548
X43293Y116201
X43593Y142363
X43663Y117239
X43683Y119263
X43976Y125118
X44026Y140994
X44068Y116201
X44134Y142017
X44537Y140876
X44583Y120433
X44603Y111273
X45098Y141309
X45935Y121112
X46457Y120078
X47716Y140984
X48003Y130103
X48031Y125630
X48053Y135083
X48071Y127165
X48110Y136299
X48169Y134222
X48169Y131702
X48327Y130128
X48386Y132175
X48413Y103530
X48425Y140748
X48602Y125984
X48622Y137057
X48813Y118213
X48813Y117873
X48893Y135039
X48893Y130933
X49094Y127362
X49242Y134547
X49242Y131340
X49449Y136023
X49478Y131930
X49528Y131209
X49567Y141259
X49764Y118622
X49764Y118385
X50039Y136732
X50183Y125773
X50213Y132293
X50221Y133230
X50263Y106893
X50293Y116993
X50457Y133505
X50570Y126250
X50590Y127165
X50693Y133781
X50853Y105603
X51173Y108073
X51243Y121983
X51250Y125718
X51283Y118103
X51299Y117165
X51303Y116343
X51575Y136102
X51693Y117063
X51783Y118073
X51827Y111116
X51836Y114689
X51953Y117073
X51968Y117519
X52053Y137393
X52233Y118093
X52233Y117793
X52373Y108773
X52445Y107284
X52813Y103353
X52963Y118473
X52963Y118193
X53847Y118599
X54481Y118575
X55013Y117023
X55373Y116803
X55905Y116732
X56279Y119006
X56283Y107333
X56476Y118809
X56643Y104223
X56673Y118612
X56733Y107333
X56968Y118878
X57183Y103453
X57273Y107333
X57274Y136452
X57963Y119124
X58779Y103543
X58783Y106593
X59493Y116293
X59514Y112534
X59567Y110866
X59763Y106893
X59824Y119115
X60773Y103563
X61024Y118937
X61024Y118622
X61024Y118267
X62193Y106743
X62795Y124605
X62827Y127888
X63031Y136348
X63071Y121378
X63307Y129685
X63346Y141378
X63701Y118819
X64143Y135543
X64469Y139330
X64793Y141303
X65236Y111259
X65923Y119093
X66403Y119093
X66698Y111889
X66717Y113110
X66717Y112618
X66816Y115236
X66835Y116458
X66859Y121699
X66973Y123249
X67209Y125749
X67229Y124942
X67249Y124115
X67795Y102598
X67898Y113937
X67898Y113110
X67898Y112283
X68449Y125356
X68449Y124529
X68449Y123702
X68735Y114690
X69646Y135590
X69688Y123943
X69764Y125236
X70400Y123357
X70406Y115439
X70593Y122369
X70704Y115833
X71009Y123485
X71009Y122369
X71105Y115794
X71206Y115323
X72362Y102992
X74133Y119153
X74158Y121871
X74212Y123582
X74335Y116300
X74633Y119103
X21415Y112767
X21809Y112767
X22203Y112767
X22596Y112767
X23029Y127826
X23423Y127826
X24821Y127826
X25214Y127826
X42534Y121276
X42534Y124583
X42869Y121276
X43085Y124583
X43203Y121276
X43299Y124140
X43509Y124583
X43538Y121276
X43779Y120706
X44060Y124583
X69522Y122999
X69522Y122684
X69522Y115044
X69522Y114729
X71985Y122762
X71985Y122408
X71993Y115794
X71993Y115439
X16323Y23599
X17780Y23441
X19807Y22536
X16773Y22519
X18331Y22142
X17667Y22104
X19788Y21748
X16284Y21748
X19040Y21709
X16914Y21709
X19807Y21000
X19040Y21000
X18331Y21000
X17622Y21000
X16914Y21000
X18331Y20292
X16284Y20252
X17622Y19859
X16914Y19859
X19400Y19428
X19709Y19426
X19237Y19111
X19788Y18796
X16677Y18756
X18174Y18658
X16323Y18638
X19276Y18599
X19906Y23717
X19591Y23717
X19276Y23717
X18961Y23717
X18646Y23717
X18331Y23717
X18016Y23717
X19906Y23402
X47033Y37517
X46689Y37724
X46570Y37222
X46600Y35824
X28760Y27244
X29236Y27275
X29468Y27465
X29704Y27244
X29941Y27445
X30177Y27244
X30413Y27445
X30649Y27244
X30886Y27445
X31122Y27244
X31358Y27445
X31594Y27244
X31830Y27445
X32067Y27244
X32303Y27445
X32539Y27244
X32775Y27445
X33012Y27244
X33248Y27445
X33484Y27244
X33720Y27445
X33956Y27244
X34193Y27445
X34429Y27244
X34665Y27445
X34901Y27244
X35138Y27445
X35374Y27244
X35610Y27445
X35846Y27244
X36082Y27445
X36319Y27244
X36555Y27445
X36791Y27244
X37027Y27445
X37264Y27244
X37500Y27445
X37736Y27244
X37972Y27445
X38208Y27244
X38445Y27445
X38681Y27244
X38917Y27445
X39153Y27244
X39468Y27402
X39461Y27937
X39034Y28131
X38583Y28141
X38141Y28148
X37668Y28146
X37163Y29193
X36853Y29193
X36606Y28720
X36008Y28923
X35712Y28932
X35869Y29203
X35986Y29885
X35731Y30153
X35634Y30694
X36073Y30694
X36533Y30574
X36533Y30906
X36533Y31201
X36527Y31492
X36857Y32176
X37402Y32172
X37264Y32756
X36634Y32677
X36564Y33509
X36549Y33895
X36201Y33701
X35967Y33501
X35710Y33934
X35017Y34235
X34419Y34252
X34072Y33956
X33297Y34131
X33315Y33576
X33305Y33029
X32597Y33156
X32642Y33955
X32616Y34720
X32594Y35530
X33297Y35570
X33297Y35285
X33297Y35000
X33297Y35871
X34085Y36187
X34072Y36472
X34040Y36770
X34090Y37252
X34494Y37303
X35124Y37781
X35501Y37769
X36437Y37913
X36762Y37313
X36970Y37516
X36952Y36989
X37310Y36942
X36759Y36758
X36553Y35615
X36330Y35386
X36284Y34703
X35993Y34692
X36480Y34484
X37149Y34484
X38015Y34295
X38209Y34081
X38413Y33877
X38615Y33675
X38612Y34488
X38165Y34953
X38152Y35654
X38528Y35556
X38405Y36024
X38203Y36561
X38443Y36787
X38637Y37185
X38445Y37441
X38344Y37824
X38304Y38130
X38602Y38032
X39106Y37830
X39162Y37529
X39106Y36967
X39253Y36722
X38996Y36339
X38978Y35848
X40206Y35456
X40516Y35142
X40334Y34921
X40299Y34401
X41752Y34331
X41752Y34646
X41752Y34961
X41752Y35276
X41752Y35591
X41752Y35906
X41752Y36220
X41613Y36498
X41752Y36772
X41752Y37087
X41752Y37402
X41752Y37717
X41752Y38032
X41752Y38346
X41395Y38434
X41612Y38678
X41303Y39380
X41299Y40315
X40926Y40359
X40924Y40074
X40551Y40315
X40649Y41181
X40334Y41181
X40019Y41181
X39704Y41181
X39390Y41181
X39075Y41181
X38760Y41181
X38445Y41181
X38130Y41181
X37539Y40984
X37185Y41181
X36870Y41181
X36555Y41181
X36240Y41181
X35925Y41181
X35610Y41181
X35295Y41181
X34980Y41181
X34665Y41181
X34153Y41142
X34247Y40487
X33849Y40451
X33504Y40496
X33225Y40194
X33283Y40949
X32972Y41181
X31909Y41181
X31515Y41181
X31154Y41157
X31162Y40694
X30932Y40249
X30851Y39376
X30411Y39599
X31597Y39911
X32060Y40230
X32017Y39379
X32460Y39331
X32945Y38903
X32953Y38618
X33021Y38258
X33024Y37962
X32294Y38061
X32303Y37677
X32294Y37352
X32633Y37024
X32294Y36644
X32310Y36292
X32290Y35997
X32607Y36315
X31612Y36743
X31609Y37187
X30433Y37043
X30453Y36522
X30452Y36133
X31277Y35668
X31577Y35707
X31600Y35254
X31600Y34967
X31600Y34680
X31600Y34264
X31600Y33978
X31618Y33554
X31618Y33246
X31618Y32957
X31842Y32217
X32122Y32122
X32434Y31727
X32136Y31407
X32136Y30841
X32129Y30555
X32220Y29894
X32017Y29149
X32185Y28917
X31885Y28882
X31260Y28718
X30964Y28718
X30338Y28923
X30052Y28923
X30216Y29206
X30320Y29882
X30161Y30151
X29981Y30728
X30457Y30728
X30943Y30574
X30943Y30906
X30943Y31201
X30936Y31492
X30173Y31714
X30177Y32091
X29374Y32099
X29401Y31765
X29106Y32197
X28627Y32240
X28602Y32835
X28602Y33228
X28602Y33622
X28602Y34016
X28602Y34409
X28602Y34803
X28602Y35197
X28602Y35591
X28641Y36220
X28602Y36614
X28602Y36929
X28602Y37303
X28730Y37786
X28641Y38150
X28602Y38780
X28886Y38890
X28602Y39331
X28623Y40493
X28602Y41181
X29626Y37913
X29752Y37618
X30621Y38103
X32613Y38395
X33490Y38843
X33622Y39232
X33960Y39161
X34383Y38839
X34823Y38740
X35564Y38818
X36092Y39754
X36232Y40033
X36303Y40340
X36565Y39650
X37396Y39679
X37588Y40004
X38332Y39658
X38258Y38810
X38552Y38810
X38843Y38810
X40029Y38868
X40059Y39331
X39784Y39862
X39758Y40766
X38648Y40893
X40964Y41181
X41279Y41181
X41594Y41181
X40400Y38277
X40244Y38038
X40472Y37746
X40689Y37319
X40248Y37321
X40150Y36637
X40666Y36348
X40942Y36902
X40953Y35693
X41752Y34016
X41752Y33701
X41752Y33386
X41752Y33071
X41752Y32756
X41752Y32441
X41752Y32126
X41752Y31811
X41752Y31496
X41233Y30882
X41673Y30276
X41752Y29803
X41181Y29205
X41181Y28886
X41181Y28568
X41181Y28250
X41181Y27931
X40817Y27605
X41535Y27562
X39939Y28393
X40072Y28972
X39508Y29882
X39275Y30586
X39289Y30906
X39284Y31194
X39283Y31492
X38496Y31714
X38487Y32127
X37977Y31742
X37687Y31526
X37687Y30953
X37724Y30567
X38328Y30701
X38828Y30694
X38488Y30148
X38609Y29482
X38292Y29482
X37946Y29482
X38956Y29471
X37145Y29882
X34929Y30567
X34931Y30966
X34931Y31405
X35013Y31789
X35740Y31767
X35689Y32049
X34547Y32181
X34223Y32189
X34201Y32681
X33791Y32401
X33720Y31572
X33743Y31201
X33730Y30906
X33720Y30406
X33425Y30669
X32756Y30714
X32956Y30172
X32885Y29296
X33116Y28716
X33826Y28923
X34118Y28923
X33976Y29213
X34099Y29882
X34745Y28762
X35073Y28711
X33078Y31720
X32879Y32126
X31266Y32176
X30732Y32795
X30732Y33556
X30732Y34317
X30733Y35079
X34416Y35026
X34212Y35351
X34374Y36239
X33295Y37339
X34094Y39962
X34538Y39866
X34631Y39596
X34834Y39959
X37340Y38617
X37398Y38334
X38971Y32801
X39350Y33150
X40437Y33005
X40388Y32276
X40076Y32308
X39613Y32176
X41148Y32483
X34826Y33538
X29340Y30994
X29378Y30529
X29096Y30207
X28605Y30168
X29203Y29616
X28937Y29304
X28602Y28622
X28602Y28228
X28622Y27643
X29193Y27835
X29390Y28718
X28730Y31526
X12343Y26811
X15273Y26736
X13603Y26692
X10237Y26692
X10427Y26459
X11707Y26403
X12018Y26403
X15041Y26249
X13450Y26021
X14148Y25929
X11520Y25866
X10587Y25729
X10315Y25437
X15355Y25334
X14718Y25288
X14341Y25246
X13034Y25171
X11797Y25167
X10276Y24891
X12362Y24810
X11073Y24685
X13022Y24625
X14069Y24616
X12312Y24507
X10237Y24409
X15360Y23612
X11044Y23444
X12849Y23154
X13788Y22924
X12288Y22923
X13081Y22922
X13324Y22716
X10138Y22696
X12983Y22638
X14360Y22331
X12225Y22123
X14309Y22034
X10168Y21909
X13662Y21893
X14315Y21724
X10882Y21706
X12264Y21633
X13264Y21574
X13939Y21421
X10965Y21417
X11698Y21116
X14664Y21098
X14965Y21090
X10158Y20718
X14796Y20511
X15381Y20486
X14497Y20477
X15162Y20220
X13520Y20082
X12673Y20036
X12160Y19966
X11260Y19966
X10959Y19966
X10658Y19966
X10357Y19966
X11752Y19962
X13288Y19586
X13071Y19330
X10116Y17255
X11865Y17038
X15118Y16998
X14705Y16850
X11772Y16751
X14124Y16712
X13849Y16712
X13573Y16712
X14685Y16535
X10109Y16515
X14124Y16407
X13849Y16407
X15099Y16210
X14804Y26748
X14410Y26748
X14016Y26748
X13118Y26748
X12718Y26748
X11792Y16279
X11398Y16279
X11004Y16279
X10611Y16279
X22904Y16462
X24872Y16462
X21565Y16501
X22982Y17328
X24045Y17485
X24872Y17603
X21565Y17840
X22471Y18233
X23455Y18273
X24085Y18824
X24872Y18863
X21565Y19257
X22274Y19493
X24872Y19572
X22965Y19658
X24518Y20084
X23652Y20595
X24597Y20832
X21565Y20989
X24872Y21304
X22390Y21622
X23258Y21895
X24597Y21895
X24010Y16334
X24404Y16334
X21467Y22013
X21939Y22013
X22411Y22013
X22884Y22013
X27264Y16398
X25618Y16425
X26447Y16447
X28971Y17169
X28214Y17178
X27435Y17204
X25606Y17252
X26538Y17254
X27240Y17426
X25634Y17600
X28843Y17687
X27528Y17717
X28977Y17992
X25443Y18048
X26990Y18125
X28236Y18136
X25915Y18290
X26926Y18413
X26949Y18707
X26548Y18949
X27354Y19081
X27028Y19134
X27746Y19144
X28829Y19164
X28457Y19214
X28107Y19254
X27449Y19475
X28977Y19784
X27402Y19853
X26978Y20167
X27264Y20286
X27768Y20384
X26305Y20406
X28817Y20449
X27008Y20472
X25634Y20541
X25693Y20837
X26963Y21020
X25464Y21032
X28337Y21359
X28345Y21835
X28514Y22077
X28101Y22087
X28996Y22103
X28016Y16408
X28410Y16408
X25473Y22087
X25945Y22087
X26417Y22087
X26890Y22087
X17329Y16369
X17481Y16622
X17323Y16909
X17323Y17264
X18325Y16930
X18599Y16825
X18842Y17038
X18292Y16525
X19771Y17265
X20748Y17264
X20748Y16890
X20748Y16516
X49389Y34807
X49661Y34171
X49447Y33786
X50088Y33357
X50128Y33021
X49931Y32431
X49655Y32175
X49537Y31644
X49931Y31348
X50128Y31840
X50128Y30659
X50128Y29084
X49655Y29104
X48544Y28812
X47497Y28837
X47175Y29125
X46122Y29200
X45010Y29084
X44222Y29084
X44695Y30088
X45340Y30094
X45280Y31340
X44813Y31250
X44645Y31730
X44222Y31447
X44644Y32615
X43948Y32787
X43907Y33179
X43907Y33573
X44589Y33479
X44899Y33968
X44512Y34285
X44909Y34715
X45298Y34336
X45373Y33612
X45325Y33179
X46641Y34164
X46641Y34793
X47560Y34807
X48415Y34807
X48192Y34165
X47608Y33140
X47215Y31693
X47962Y31644
X47529Y31134
X46940Y30136
X45994Y28179
X45062Y28112
X44616Y28494
X44222Y27903
X45049Y27116
X47048Y26948
X47090Y27354
X47877Y27364
X48142Y27767
X49579Y27690
X49170Y28325
X50010Y28558
T02
X46122Y142254
X46437Y142943
X46752Y142254
X47067Y142943
X47382Y142254
X45315Y142854G85X45315Y142342
X48189Y142854G85X48189Y142342
X16284Y23087
X16284Y22615
X19827Y20252
X16284Y19386
T03
X17480Y114509
X17480Y113009
X18386Y114529
X18386Y113029
X19291Y114529
X19291Y113029
X20197Y114529
X20197Y113029
X30512Y113754
X30512Y112254
X32293Y113779
X32293Y112279
X33090Y113771
X33090Y112271
X34370Y113771
X34370Y112271
X35551Y113830
X35551Y112330
X62903Y114448
X62903Y112519
X64045Y114448
X64045Y112519
X34697Y32539
X36275Y32539
X37697Y32539
T04
X15079Y140009
X15079Y135728
X15079Y130384
X15079Y126072
X15079Y122175
X15079Y118031
X15079Y114084
X15079Y110384
X15138Y107697
X20335Y147244
X24616Y147244
X28799Y147244
X33297Y147244
X37943Y147244
X41988Y147244
X46270Y147254
X50453Y147254
X54951Y147254
X59094Y147234
X63642Y147254
X67785Y147234
X72333Y147254
X77401Y140590
X77401Y136309
X77401Y130964
X77401Y126653
X77401Y122756
X77401Y118612
X77401Y114665
X77401Y110964
X77401Y107824
X19252Y128061
X19252Y127061
X19252Y126061
X19252Y125061
X19252Y124061
X19252Y123061
X28081Y114842
X29075Y114842
X30069Y114842
X31063Y114842
X31555Y118336
X32136Y114842
X32894Y118326
X33209Y114832
X34006Y118326
X34272Y114832
X35118Y118326
X35623Y114843
X35905Y141151
X36575Y113110
X36905Y141151
X37905Y141151
X38905Y141151
X39163Y112067
X39905Y141151
X40096Y113873
X40263Y117443
X40266Y112037
X40905Y141151
X41140Y113873
X41338Y112067
X41905Y141151
X42183Y113873
X42648Y112047
X42905Y141151
X43226Y113873
X43730Y112047
X44269Y113873
X44503Y118263
X45108Y112047
X45323Y113873
X45843Y118823
X46171Y112047
X46383Y113873
X47214Y112047
X47423Y113873
X48218Y112047
X48483Y113873
X49685Y117854
X60093Y115453
X69102Y143159
X69102Y142159
X69102Y141159
X69102Y140159
X69102Y139159
X70102Y143159
X70102Y142159
X70102Y141159
X70102Y140159
X70102Y139159
X71102Y143159
X71102Y142159
X71102Y141159
X71102Y140159
X71102Y139159
X73055Y139978
X73055Y138978
X73055Y137978
X73055Y136978
X73055Y135978
X73055Y134738
X73055Y133738
X73055Y132738
X73055Y131738
X73055Y130738
X73055Y129458
X73055Y128458
X73055Y127458
X73055Y126458
X73055Y125458
X74055Y139978
X74055Y138978
X74055Y137978
X74055Y136978
X74055Y135978
X74055Y134738
X74055Y133738
X74055Y132738
X74055Y131738
X74055Y130738
X74055Y129458
X74055Y128458
X74055Y127458
X74055Y126458
X74055Y125458
X75055Y139978
X75055Y138978
X75055Y137978
X75055Y136978
X75055Y135978
X75055Y134738
X75055Y133738
X75055Y132738
X75055Y131738
X75055Y130738
X75055Y129458
X75055Y128458
X75055Y127458
X75055Y126458
X75055Y125458
X28917Y40866
X37996Y39895
X37996Y40695
X39996Y40295
X11122Y19425
X12304Y18637
X11122Y17850
X11044Y26551
X11444Y24551
X10644Y24551
X50187Y34518
X50187Y29773
X44084Y29793
X44084Y30541
X44084Y32234
X44084Y34695
X44084Y27273
X50187Y27096
X50187Y27825
T05
X29586Y109309
X29586Y108309
X29586Y105928
X29586Y104928
X30586Y109309
X30586Y108309
X30586Y105928
X30586Y104928
X31586Y109309
X31586Y108309
X31586Y105928
X31586Y104928
X32586Y109309
X32586Y108309
X32586Y105928
X32586Y104928
X33586Y109309
X33586Y108309
X33586Y105928
X33586Y104928
X34586Y109309
X34586Y108309
X34586Y105928
X34586Y104928
X35586Y109309
X35586Y108309
X35586Y105928
X35586Y104928
X36586Y109309
X36586Y108309
X36586Y105928
X36586Y104928
X37586Y109309
X37586Y108309
X37586Y105928
X37586Y104928
X38586Y109309
X38586Y108309
X38586Y105928
X38586Y104928
X39586Y109309
X39586Y108309
X39586Y105928
X39586Y104928
X40586Y109309
X40586Y108309
X40586Y105928
X40586Y104928
X41586Y109309
X41586Y108309
X41586Y105928
X41586Y104928
X42586Y109309
X42586Y108309
X42586Y105928
X42586Y104928
X43586Y109309
X43586Y108309
X43586Y105928
X43586Y104928
X44586Y109309
X44586Y108309
X44586Y105928
X44586Y104928
X45586Y109309
X45586Y108309
X45586Y105928
X45586Y104928
X46586Y109309
X46586Y108309
X46586Y105928
X46586Y104928
X47586Y109309
X47586Y108309
X47586Y105928
X47586Y104928
X53873Y109309
X53873Y108309
X53873Y105928
X53873Y104928
X54873Y109309
X54873Y108309
X54873Y105928
X54873Y104928
X55873Y109309
X55873Y108309
X55873Y105928
X55873Y104928
X56873Y109309
X56873Y108309
X56873Y105928
X56873Y104928
X57873Y109309
X57873Y108309
X57873Y105928
X57873Y104928
X58873Y109309
X58873Y108309
X58873Y105928
X58873Y104928
X59873Y109309
X59873Y108309
X59873Y105928
X59873Y104928
X60873Y109309
X60873Y108309
X60873Y105928
X60873Y104928
X14931Y19602
X14931Y18602
X14931Y17602
T06
X49764Y143120
X51220Y142254
X51968Y143120
X53425Y142254
X54409Y143120
T07
X22361Y107211
X24192Y109309
X24192Y106109
X25334Y107026
X26475Y109309
X26475Y106109
X63956Y109309
X63956Y106109
X65098Y107026
X66239Y109309
X66239Y106109
X67420Y107026
X68562Y109309
X68562Y106109
X70314Y107211
T08
X21397Y104140
X50727Y104140
X71279Y104140
M30
