G75*
G70*
%OFA0B0*%
%FSLAX25Y25*%
%IPPOS*%
%LPD*%
%AMOC8*
5,1,8,0,0,1.08239X$1,22.5*
%
%ADD10C,0.14567*%
%ADD11C,0.08661*%
%ADD115C,0.00492*%
%ADD12C,0.10236*%
%ADD13C,0.05906*%
%ADD14C,0.02362*%
%ADD15O,0.00787X0.12992*%
%ADD16O,0.00787X0.40157*%
%ADD17O,0.00787X0.01181*%
%ADD18O,0.66929X0.00787*%
%ADD185C,0.05118*%
%ADD19O,0.60630X0.00787*%
%ADD20O,0.00787X0.18898*%
%ADD21O,0.00787X0.10236*%
%ADD22O,0.00787X0.03937*%
%ADD23O,0.00787X0.05906*%
%ADD230O,0.00787X0.40158*%
%ADD24O,0.00787X0.04823*%
%ADD25O,0.36614X0.00787*%
%ADD26R,0.24350X0.00984*%
%ADD27R,0.04390X0.00984*%
%ADD28R,0.00984X0.56201*%
%ADD29R,0.00984X0.59449*%
%ADD30R,0.20374X0.00984*%
%ADD31C,0.06000*%
%ADD32O,0.06693X0.07283*%
%ADD33R,0.00787X0.24803*%
%ADD34R,0.00787X0.12992*%
%ADD35R,0.00787X0.01575*%
%ADD36R,0.00787X0.27559*%
%ADD37R,0.25197X0.00787*%
%ADD38R,0.05512X0.00787*%
%ADD39R,0.12992X0.00787*%
%ADD390R,0.07874X0.07500*%
%ADD391O,0.07874X0.07500*%
%ADD40R,0.06693X0.00787*%
%ADD41R,0.00787X0.09055*%
%ADD42R,0.00787X0.38189*%
%ADD43R,0.00787X0.06299*%
%ADD44R,0.00787X0.14567*%
%ADD45C,0.02756*%
%ADD48R,0.04331X0.00984*%
%ADD49R,0.03858X0.00984*%
%ADD51R,0.00984X1.08661*%
%ADD53R,0.03740X0.00984*%
%ADD54R,0.04331X0.04331*%
%ADD55C,0.04331*%
%ADD56O,0.09449X0.04331*%
%ADD63C,0.07874*%
%ADD68C,0.00787*%
%ADD71C,0.00800*%
%ADD72R,0.24803X0.00984*%
%ADD73R,0.34449X0.00984*%
%ADD80C,0.01575*%
%ADD81C,0.01181*%
%ADD89C,0.00984*%
%ADD91C,0.01968*%
X0000000Y0000000D02*
%LPD*%
G01*
D10*
X0572252Y0442945D03*
D11*
X0562606Y0412236D03*
D10*
X0278945Y0442945D03*
D11*
X0083079Y0412236D03*
D10*
X0073433Y0442945D03*
D12*
X0544299Y0423260D03*
X0521465Y0423260D03*
X0532882Y0414086D03*
X0544299Y0391252D03*
X0521465Y0391252D03*
D13*
X0310362Y0391252D03*
X0320362Y0391252D03*
X0330362Y0391252D03*
X0340362Y0391252D03*
X0350362Y0391252D03*
X0360362Y0391252D03*
X0370362Y0391252D03*
X0380362Y0391252D03*
X0390362Y0391252D03*
X0400362Y0391252D03*
X0410362Y0391252D03*
X0420362Y0391252D03*
X0430362Y0391252D03*
X0440362Y0391252D03*
X0450362Y0391252D03*
X0460362Y0391252D03*
X0470362Y0391252D03*
X0480362Y0391252D03*
X0490362Y0391252D03*
X0310362Y0401252D03*
X0320362Y0401252D03*
X0330362Y0401252D03*
X0340362Y0401252D03*
X0350362Y0401252D03*
X0360362Y0401252D03*
X0370362Y0401252D03*
X0380362Y0401252D03*
X0390362Y0401252D03*
X0400362Y0401252D03*
X0410362Y0401252D03*
X0420362Y0401252D03*
X0430362Y0401252D03*
X0440362Y0401252D03*
X0450362Y0401252D03*
X0460362Y0401252D03*
X0470362Y0401252D03*
X0480362Y0401252D03*
X0490362Y0401252D03*
X0310362Y0425071D03*
X0320362Y0425071D03*
X0330362Y0425071D03*
X0340362Y0425071D03*
X0350362Y0425071D03*
X0360362Y0425071D03*
X0370362Y0425071D03*
X0380362Y0425071D03*
X0390362Y0425071D03*
X0400362Y0425071D03*
X0410362Y0425071D03*
X0420362Y0425071D03*
X0430362Y0425071D03*
X0440362Y0425071D03*
X0450362Y0425071D03*
X0460362Y0425071D03*
X0470362Y0425071D03*
X0480362Y0425071D03*
X0490362Y0425071D03*
X0310362Y0435071D03*
X0320362Y0435071D03*
X0330362Y0435071D03*
X0340362Y0435071D03*
X0350362Y0435071D03*
X0360362Y0435071D03*
X0370362Y0435071D03*
X0380362Y0435071D03*
X0390362Y0435071D03*
X0400362Y0435071D03*
X0410362Y0435071D03*
X0420362Y0435071D03*
X0430362Y0435071D03*
X0440362Y0435071D03*
X0450362Y0435071D03*
X0460362Y0435071D03*
X0470362Y0435071D03*
X0480362Y0435071D03*
X0490362Y0435071D03*
X0247488Y0435071D03*
X0237488Y0435071D03*
X0227488Y0435071D03*
X0217488Y0435071D03*
X0207488Y0435071D03*
X0197488Y0435071D03*
X0187488Y0435071D03*
X0177488Y0435071D03*
X0247488Y0425071D03*
X0237488Y0425071D03*
X0227488Y0425071D03*
X0217488Y0425071D03*
X0207488Y0425071D03*
X0197488Y0425071D03*
X0187488Y0425071D03*
X0177488Y0425071D03*
X0247488Y0401252D03*
X0237488Y0401252D03*
X0227488Y0401252D03*
X0217488Y0401252D03*
X0207488Y0401252D03*
X0197488Y0401252D03*
X0187488Y0401252D03*
X0177488Y0401252D03*
X0247488Y0391252D03*
X0237488Y0391252D03*
X0227488Y0391252D03*
X0217488Y0391252D03*
X0207488Y0391252D03*
X0197488Y0391252D03*
X0187488Y0391252D03*
X0177488Y0391252D03*
D12*
X0146662Y0423260D03*
X0123827Y0423260D03*
X0100599Y0423260D03*
X0135244Y0414086D03*
X0112016Y0414086D03*
X0146662Y0391252D03*
X0123827Y0391252D03*
X0100599Y0391252D03*
D13*
X0198622Y0185531D03*
X0198622Y0160334D03*
X0198622Y0152854D03*
X0198622Y0135925D03*
D14*
X0200394Y0126476D03*
X0200394Y0122539D03*
D15*
X0135040Y0170374D03*
D16*
X0135040Y0136909D03*
D17*
X0135040Y0108956D03*
D18*
X0168110Y0108760D03*
D19*
X0171260Y0189862D03*
D13*
X0198622Y0111319D03*
D17*
X0201181Y0189665D03*
D20*
X0201181Y0173130D03*
D21*
X0201181Y0144193D03*
D22*
X0201181Y0130413D03*
D23*
X0201181Y0117421D03*
D13*
X0137599Y0187303D03*
X0137599Y0180019D03*
X0137599Y0160531D03*
X0137599Y0113090D03*
D14*
X0431988Y0285630D03*
D24*
X0467028Y0293405D03*
D25*
X0449114Y0283267D03*
X0449114Y0295472D03*
D14*
X0431988Y0289370D03*
X0431988Y0293110D03*
X0466240Y0289173D03*
X0466240Y0285630D03*
X0415355Y0238140D03*
X0410630Y0238140D03*
X0420079Y0238140D03*
X0424803Y0238140D03*
D26*
X0414301Y0295817D03*
D27*
X0390482Y0295817D03*
D28*
X0425984Y0268208D03*
D29*
X0388780Y0266584D03*
D30*
X0398475Y0237352D03*
D14*
X0399370Y0294931D03*
X0395433Y0294931D03*
D31*
X0132677Y0293602D03*
X0132677Y0274311D03*
X0209449Y0104645D03*
X0209449Y0089645D03*
X0467126Y0199311D03*
X0447835Y0199311D03*
X0122835Y0293602D03*
X0122835Y0274311D03*
G36*
G01*
X0137205Y0052362D02*
X0137205Y0057677D01*
G75*
G02*
X0138189Y0058661I0000984J0000000D01*
G01*
X0142914Y0058661D01*
G75*
G02*
X0143898Y0057677I0000000J-000984D01*
G01*
X0143898Y0052362D01*
G75*
G02*
X0142914Y0051378I-000984J0000000D01*
G01*
X0138189Y0051378D01*
G75*
G02*
X0137205Y0052362I0000000J0000984D01*
G01*
G37*
D32*
X0150394Y0055019D03*
X0160236Y0055019D03*
X0170079Y0055019D03*
X0179921Y0055019D03*
D14*
X0353445Y0064960D03*
X0353445Y0070472D03*
X0353445Y0088976D03*
X0353445Y0092126D03*
X0353445Y0102362D03*
X0353445Y0106299D03*
X0353445Y0110236D03*
X0353445Y0114173D03*
X0353445Y0118110D03*
X0353445Y0122047D03*
X0353445Y0125984D03*
X0353445Y0129921D03*
X0353445Y0172047D03*
X0353445Y0175984D03*
X0351870Y0185827D03*
X0342421Y0185827D03*
X0337697Y0185827D03*
X0332973Y0185827D03*
X0328248Y0185827D03*
X0323524Y0185827D03*
X0318799Y0185827D03*
X0314075Y0185827D03*
X0309351Y0185827D03*
X0304626Y0185827D03*
X0299902Y0185827D03*
X0295177Y0185827D03*
X0290453Y0185827D03*
X0285729Y0185827D03*
X0281004Y0185827D03*
X0276280Y0185827D03*
X0271555Y0185827D03*
X0266831Y0185827D03*
X0262106Y0185827D03*
X0257382Y0185827D03*
X0252658Y0185827D03*
X0247933Y0185827D03*
X0353445Y0046457D03*
X0324311Y0046457D03*
X0320374Y0046457D03*
X0309744Y0046457D03*
X0292815Y0046457D03*
X0289666Y0046457D03*
X0286516Y0046456D03*
X0283366Y0046456D03*
X0280217Y0046456D03*
X0277067Y0046456D03*
X0273917Y0046456D03*
X0270768Y0046457D03*
X0267618Y0046457D03*
X0258169Y0046457D03*
X0255020Y0046457D03*
X0251870Y0046457D03*
X0248721Y0046457D03*
X0245571Y0046456D03*
X0242421Y0046456D03*
X0239272Y0046456D03*
X0236122Y0046456D03*
X0232973Y0046456D03*
X0229823Y0046456D03*
X0226673Y0046456D03*
X0223524Y0046456D03*
D33*
X0221162Y0174606D03*
D34*
X0221162Y0151771D03*
D35*
X0221162Y0093307D03*
D36*
X0221162Y0059055D03*
D37*
X0233366Y0186614D03*
D38*
X0262894Y0045669D03*
D39*
X0301280Y0045669D03*
D40*
X0315059Y0045669D03*
D37*
X0338878Y0045669D03*
D38*
X0347146Y0186614D03*
D41*
X0354233Y0182480D03*
D42*
X0354233Y0150984D03*
D43*
X0354233Y0097244D03*
D44*
X0354233Y0079724D03*
D35*
X0354233Y0067716D03*
D44*
X0354233Y0055708D03*
D14*
X0221949Y0074803D03*
X0221949Y0077953D03*
X0221949Y0081102D03*
X0221949Y0084252D03*
X0221949Y0087401D03*
X0221949Y0090551D03*
X0221949Y0096063D03*
X0221949Y0099212D03*
X0221949Y0102362D03*
X0221949Y0105512D03*
X0221949Y0108661D03*
X0221949Y0111811D03*
X0221949Y0114960D03*
X0221949Y0118110D03*
X0221949Y0121260D03*
X0221949Y0124409D03*
X0221949Y0127559D03*
X0221949Y0130708D03*
X0221949Y0133858D03*
X0221949Y0137008D03*
X0221949Y0140157D03*
X0221949Y0143307D03*
X0221949Y0160236D03*
X0375295Y0237401D03*
X0370571Y0237401D03*
X0380020Y0237401D03*
X0384744Y0237401D03*
D26*
X0374242Y0295078D03*
D27*
X0350423Y0295078D03*
D28*
X0385925Y0267470D03*
D29*
X0348721Y0265846D03*
D30*
X0358416Y0236614D03*
D14*
X0359311Y0294193D03*
X0355374Y0294193D03*
D45*
X0533366Y0295472D03*
X0521555Y0295472D03*
X0525492Y0295472D03*
X0529429Y0295472D03*
D48*
X0486713Y0189271D03*
X0486713Y0189271D03*
D49*
X0503799Y0189271D03*
D72*
X0527264Y0189271D03*
D51*
X0485040Y0243110D03*
X0539173Y0243110D03*
D73*
X0501772Y0296949D03*
D53*
X0537795Y0296949D03*
D45*
X0495374Y0190782D03*
X0499311Y0190782D03*
X0512288Y0190782D03*
X0508288Y0190782D03*
X0491437Y0190782D03*
D54*
X0208957Y0056594D03*
D55*
X0202067Y0059744D03*
X0208957Y0062893D03*
X0202067Y0066043D03*
X0208957Y0069193D03*
D56*
X0205512Y0048523D03*
X0205512Y0077264D03*
D14*
X0172589Y0081030D03*
X0169144Y0083097D03*
X0173770Y0086050D03*
X0173475Y0100026D03*
D63*
X0635433Y0343504D03*
X0635433Y0380512D03*
X0635433Y0127067D03*
X0635433Y0180512D03*
X0635433Y0084252D03*
X0195276Y0012008D03*
X0634843Y0407382D03*
X0236713Y0011811D03*
X0012205Y0337697D03*
X0635433Y0304035D03*
X0012205Y0298228D03*
X0540059Y0011909D03*
X0366339Y0011909D03*
X0453248Y0011909D03*
X0062894Y0011811D03*
X0012205Y0121260D03*
X0012205Y0256791D03*
X0012205Y0406102D03*
X0012205Y0078445D03*
X0012205Y0217815D03*
X0582874Y0011909D03*
X0406792Y0011909D03*
X0635433Y0262598D03*
X0012205Y0374704D03*
X0323524Y0011811D03*
X0108366Y0012008D03*
X0281693Y0011811D03*
X0635433Y0223622D03*
X0498229Y0011909D03*
X0012205Y0174704D03*
X0353051Y0189961D02*
G01*
G75*
G36*
X0324491Y0049016D02*
X0324508Y0049057D01*
X0324508Y0049762D01*
X0324399Y0050025D01*
X0324867Y0050813D01*
X0328985Y0050813D01*
X0328985Y0050813D01*
X0329446Y0050904D01*
X0329837Y0051166D01*
X0329837Y0051166D01*
X0331861Y0053190D01*
X0332122Y0053581D01*
X0332214Y0054042D01*
X0332214Y0054042D01*
X0332214Y0063177D01*
X0332378Y0063340D01*
X0333001Y0063637D01*
X0333424Y0063462D01*
X0334129Y0063462D01*
X0334780Y0063732D01*
X0335278Y0064230D01*
X0335548Y0064881D01*
X0335548Y0065586D01*
X0335479Y0065753D01*
X0344116Y0074391D01*
X0349486Y0074391D01*
X0350098Y0073778D01*
X0350098Y0073778D01*
X0350098Y0073073D01*
X0350368Y0072422D01*
X0350866Y0071924D01*
X0351517Y0071654D01*
X0352222Y0071654D01*
X0352264Y0071671D01*
X0353051Y0071145D01*
X0353051Y0070194D01*
X0352264Y0069668D01*
X0352222Y0069685D01*
X0351517Y0069685D01*
X0350866Y0069416D01*
X0350368Y0068917D01*
X0350098Y0068266D01*
X0350098Y0067561D01*
X0350368Y0066910D01*
X0350866Y0066412D01*
X0351517Y0066142D01*
X0352222Y0066142D01*
X0352264Y0066159D01*
X0353051Y0065633D01*
X0353051Y0052405D01*
X0352264Y0051865D01*
X0352030Y0051955D01*
X0352026Y0051969D01*
X0352067Y0052119D01*
X0352067Y0053000D01*
X0351839Y0053851D01*
X0351398Y0054614D01*
X0350775Y0055237D01*
X0350012Y0055678D01*
X0349161Y0055906D01*
X0348280Y0055906D01*
X0347429Y0055678D01*
X0346666Y0055237D01*
X0346042Y0054614D01*
X0345602Y0053851D01*
X0345374Y0053000D01*
X0345374Y0052119D01*
X0345602Y0051268D01*
X0346042Y0050505D01*
X0346666Y0049882D01*
X0347429Y0049441D01*
X0348280Y0049213D01*
X0349161Y0049213D01*
X0349311Y0049253D01*
X0349324Y0049250D01*
X0349415Y0049016D01*
X0348875Y0048229D01*
X0325017Y0048229D01*
X0324491Y0049016D01*
D02*
G37*
G36*
X0292994Y0049016D02*
X0293012Y0049057D01*
X0293012Y0049762D01*
X0292882Y0050076D01*
X0293321Y0050863D01*
X0303503Y0050863D01*
X0303559Y0050727D01*
X0304057Y0050228D01*
X0304709Y0049959D01*
X0305413Y0049959D01*
X0305671Y0050065D01*
X0305892Y0049973D01*
X0306397Y0049533D01*
X0306397Y0049057D01*
X0306414Y0049016D01*
X0305888Y0048229D01*
X0293521Y0048229D01*
X0292994Y0049016D01*
D02*
G37*
G36*
X0219193Y0048935D02*
X0219193Y0075476D01*
X0219980Y0076002D01*
X0220021Y0075985D01*
X0220726Y0075985D01*
X0221377Y0076254D01*
X0221446Y0076323D01*
X0222347Y0076110D01*
X0222444Y0075877D01*
X0222839Y0075481D01*
X0222839Y0072932D01*
X0222931Y0072471D01*
X0223192Y0072081D01*
X0223192Y0072080D01*
X0223652Y0071620D01*
X0223652Y0068723D01*
X0223354Y0068425D01*
X0223085Y0067774D01*
X0223085Y0067069D01*
X0223354Y0066418D01*
X0223652Y0066120D01*
X0223652Y0064182D01*
X0221491Y0062021D01*
X0221491Y0062021D01*
X0221230Y0061630D01*
X0221138Y0061169D01*
X0221138Y0061169D01*
X0221138Y0056398D01*
X0221230Y0055937D01*
X0221491Y0055546D01*
X0221491Y0055546D01*
X0224331Y0052706D01*
X0224722Y0052445D01*
X0225183Y0052353D01*
X0225183Y0052353D01*
X0239014Y0052353D01*
X0239311Y0052056D01*
X0239929Y0051800D01*
X0239976Y0051672D01*
X0240053Y0050999D01*
X0239843Y0050912D01*
X0239786Y0050855D01*
X0239272Y0050468D01*
X0238757Y0050855D01*
X0238700Y0050912D01*
X0238049Y0051182D01*
X0237344Y0051182D01*
X0236693Y0050912D01*
X0236636Y0050855D01*
X0236122Y0050468D01*
X0235607Y0050855D01*
X0235551Y0050912D01*
X0234899Y0051182D01*
X0234195Y0051182D01*
X0233543Y0050912D01*
X0233487Y0050855D01*
X0232972Y0050468D01*
X0232458Y0050855D01*
X0232401Y0050912D01*
X0231750Y0051182D01*
X0231045Y0051182D01*
X0230394Y0050912D01*
X0230337Y0050855D01*
X0229823Y0050468D01*
X0229308Y0050855D01*
X0229251Y0050912D01*
X0228600Y0051182D01*
X0227895Y0051182D01*
X0227244Y0050912D01*
X0227187Y0050855D01*
X0226673Y0050468D01*
X0226159Y0050855D01*
X0226102Y0050912D01*
X0225451Y0051182D01*
X0224746Y0051182D01*
X0224095Y0050912D01*
X0224038Y0050855D01*
X0223523Y0050468D01*
X0223009Y0050855D01*
X0222952Y0050912D01*
X0222301Y0051182D01*
X0221596Y0051182D01*
X0220945Y0050912D01*
X0220447Y0050413D01*
X0220177Y0049762D01*
X0220177Y0049459D01*
X0219502Y0048871D01*
X0219450Y0048857D01*
X0219193Y0048935D01*
D02*
G37*
G36*
X0258349Y0049016D02*
X0258366Y0049057D01*
X0258366Y0049762D01*
X0258096Y0050413D01*
X0257963Y0050546D01*
X0258289Y0051334D01*
X0258319Y0051334D01*
X0259065Y0051534D01*
X0259734Y0051920D01*
X0260281Y0052466D01*
X0260667Y0053135D01*
X0260867Y0053882D01*
X0260867Y0054654D01*
X0260667Y0055401D01*
X0260281Y0056070D01*
X0259988Y0056362D01*
X0259978Y0057250D01*
X0260028Y0057355D01*
X0260243Y0057677D01*
X0260331Y0057809D01*
X0260446Y0058385D01*
X0260331Y0058961D01*
X0260513Y0059519D01*
X0260632Y0059706D01*
X0260899Y0059785D01*
X0261005Y0059679D01*
X0261656Y0059410D01*
X0262361Y0059410D01*
X0263012Y0059679D01*
X0263511Y0060178D01*
X0263780Y0060829D01*
X0263780Y0061534D01*
X0263641Y0061871D01*
X0264038Y0062608D01*
X0264102Y0062659D01*
X0264286Y0062659D01*
X0264937Y0062928D01*
X0265435Y0063427D01*
X0265705Y0064078D01*
X0265705Y0064783D01*
X0265435Y0065434D01*
X0265338Y0065531D01*
X0265338Y0069094D01*
X0265232Y0069632D01*
X0264927Y0070088D01*
X0264368Y0070646D01*
X0264694Y0071434D01*
X0272298Y0071434D01*
X0277552Y0066181D01*
X0277460Y0065892D01*
X0277166Y0065453D01*
X0276616Y0065453D01*
X0275965Y0065183D01*
X0275466Y0064685D01*
X0275197Y0064034D01*
X0275197Y0063329D01*
X0275215Y0062658D01*
X0274564Y0062389D01*
X0274066Y0061890D01*
X0273796Y0061239D01*
X0273796Y0060534D01*
X0274066Y0059883D01*
X0274564Y0059385D01*
X0275215Y0059115D01*
X0275920Y0059115D01*
X0276571Y0059385D01*
X0277069Y0059883D01*
X0277339Y0060534D01*
X0278127Y0060820D01*
X0287155Y0051792D01*
X0287088Y0050929D01*
X0286450Y0050517D01*
X0286001Y0050855D01*
X0285944Y0050912D01*
X0285293Y0051182D01*
X0284588Y0051182D01*
X0283937Y0050912D01*
X0283880Y0050855D01*
X0283366Y0050468D01*
X0282852Y0050855D01*
X0282795Y0050912D01*
X0282144Y0051182D01*
X0281439Y0051182D01*
X0280788Y0050912D01*
X0280731Y0050855D01*
X0280216Y0050468D01*
X0279702Y0050855D01*
X0279645Y0050912D01*
X0278994Y0051182D01*
X0278289Y0051182D01*
X0277638Y0050912D01*
X0277581Y0050855D01*
X0277067Y0050468D01*
X0276552Y0050855D01*
X0276495Y0050912D01*
X0275844Y0051182D01*
X0275139Y0051182D01*
X0274488Y0050912D01*
X0274432Y0050855D01*
X0273917Y0050468D01*
X0273403Y0050855D01*
X0273346Y0050912D01*
X0272695Y0051182D01*
X0271990Y0051182D01*
X0271339Y0050912D01*
X0271282Y0050855D01*
X0270767Y0050468D01*
X0270253Y0050855D01*
X0270196Y0050912D01*
X0269545Y0051182D01*
X0268840Y0051182D01*
X0268189Y0050912D01*
X0268132Y0050855D01*
X0267618Y0050468D01*
X0267103Y0050855D01*
X0267047Y0050912D01*
X0266396Y0051182D01*
X0265691Y0051182D01*
X0265040Y0050912D01*
X0264541Y0050413D01*
X0264272Y0049762D01*
X0264272Y0049057D01*
X0264289Y0049016D01*
X0263762Y0048229D01*
X0258875Y0048229D01*
X0258349Y0049016D01*
D02*
G37*
G36*
X0328082Y0053866D02*
X0328043Y0053928D01*
X0328043Y0054633D01*
X0327773Y0055284D01*
X0327275Y0055783D01*
X0326624Y0056053D01*
X0326274Y0056053D01*
X0325021Y0057305D01*
X0324565Y0057610D01*
X0324027Y0057717D01*
X0313327Y0057717D01*
X0310796Y0060247D01*
X0311122Y0061035D01*
X0320486Y0061035D01*
X0320913Y0060608D01*
X0321564Y0060338D01*
X0322269Y0060338D01*
X0322920Y0060608D01*
X0323418Y0061106D01*
X0323688Y0061758D01*
X0323688Y0062462D01*
X0323418Y0063113D01*
X0322920Y0063612D01*
X0322269Y0063882D01*
X0321564Y0063882D01*
X0320913Y0063612D01*
X0320414Y0063113D01*
X0320384Y0063042D01*
X0311114Y0063042D01*
X0308780Y0065375D01*
X0308455Y0065593D01*
X0308071Y0065669D01*
X0299176Y0065669D01*
X0298858Y0066069D01*
X0298995Y0066539D01*
X0299171Y0066859D01*
X0299410Y0066907D01*
X0299686Y0067092D01*
X0300330Y0067736D01*
X0300670Y0067396D01*
X0301321Y0067126D01*
X0302025Y0067126D01*
X0302677Y0067396D01*
X0303175Y0067894D01*
X0303401Y0068440D01*
X0303837Y0068634D01*
X0304232Y0068723D01*
X0304269Y0068686D01*
X0304546Y0068501D01*
X0304872Y0068436D01*
X0310869Y0068436D01*
X0311196Y0068501D01*
X0311472Y0068686D01*
X0312079Y0069293D01*
X0315914Y0069293D01*
X0315968Y0069303D01*
X0316356Y0068578D01*
X0316216Y0068438D01*
X0315946Y0067787D01*
X0315946Y0067082D01*
X0316216Y0066431D01*
X0316714Y0065932D01*
X0317365Y0065663D01*
X0318070Y0065663D01*
X0318721Y0065932D01*
X0319220Y0066431D01*
X0319489Y0067082D01*
X0319489Y0067787D01*
X0319220Y0068438D01*
X0318721Y0068936D01*
X0318070Y0069206D01*
X0317365Y0069206D01*
X0317243Y0069155D01*
X0316797Y0069823D01*
X0331804Y0084830D01*
X0331989Y0085106D01*
X0332054Y0085433D01*
X0332054Y0088710D01*
X0332141Y0088810D01*
X0332841Y0089171D01*
X0333210Y0089018D01*
X0333915Y0089018D01*
X0334566Y0089288D01*
X0335065Y0089786D01*
X0335334Y0090437D01*
X0335334Y0091142D01*
X0335065Y0091793D01*
X0334566Y0092292D01*
X0333915Y0092561D01*
X0333210Y0092561D01*
X0332841Y0092408D01*
X0332141Y0092770D01*
X0332054Y0092869D01*
X0332054Y0097680D01*
X0332641Y0098130D01*
X0332841Y0098156D01*
X0338766Y0092231D01*
X0338766Y0085793D01*
X0338600Y0085392D01*
X0338600Y0084687D01*
X0338869Y0084036D01*
X0339368Y0083538D01*
X0340019Y0083268D01*
X0340724Y0083268D01*
X0341375Y0083538D01*
X0341873Y0084036D01*
X0342143Y0084687D01*
X0342143Y0085392D01*
X0341977Y0085793D01*
X0341977Y0092896D01*
X0341977Y0092896D01*
X0341855Y0093511D01*
X0341507Y0094032D01*
X0335040Y0100499D01*
X0334874Y0100900D01*
X0334375Y0101398D01*
X0334202Y0101470D01*
X0334014Y0102395D01*
X0334068Y0102448D01*
X0334252Y0102725D01*
X0334317Y0103051D01*
X0334317Y0119890D01*
X0334252Y0120216D01*
X0334068Y0120493D01*
X0323417Y0131144D01*
X0323480Y0131294D01*
X0323480Y0131999D01*
X0323210Y0132650D01*
X0322711Y0133148D01*
X0322703Y0133152D01*
X0322360Y0134085D01*
X0322415Y0134189D01*
X0322683Y0134384D01*
X0336222Y0134384D01*
X0336549Y0134449D01*
X0336825Y0134633D01*
X0339932Y0137740D01*
X0340117Y0138017D01*
X0340182Y0138343D01*
X0340182Y0152685D01*
X0340117Y0153011D01*
X0340203Y0153252D01*
X0341113Y0153456D01*
X0342783Y0151786D01*
X0342720Y0151636D01*
X0342720Y0150931D01*
X0342990Y0150280D01*
X0343488Y0149781D01*
X0344139Y0149511D01*
X0344844Y0149511D01*
X0345495Y0149781D01*
X0345994Y0150280D01*
X0346263Y0150931D01*
X0346263Y0151636D01*
X0345994Y0152287D01*
X0345495Y0152785D01*
X0344844Y0153055D01*
X0344184Y0153055D01*
X0343807Y0153423D01*
X0344184Y0154156D01*
X0344460Y0154156D01*
X0345111Y0154426D01*
X0345609Y0154924D01*
X0346508Y0155035D01*
X0349737Y0151805D01*
X0349737Y0147527D01*
X0349587Y0147464D01*
X0349088Y0146966D01*
X0348819Y0146315D01*
X0348819Y0145610D01*
X0349088Y0144959D01*
X0349587Y0144460D01*
X0350238Y0144191D01*
X0350943Y0144191D01*
X0351594Y0144460D01*
X0352092Y0144959D01*
X0352264Y0145372D01*
X0353051Y0145216D01*
X0353051Y0135155D01*
X0352264Y0134629D01*
X0352222Y0134646D01*
X0351517Y0134646D01*
X0350866Y0134376D01*
X0350368Y0133878D01*
X0350098Y0133227D01*
X0350098Y0132522D01*
X0350368Y0131871D01*
X0350866Y0131372D01*
X0350964Y0131332D01*
X0350964Y0130480D01*
X0350866Y0130439D01*
X0350368Y0129941D01*
X0350098Y0129290D01*
X0350098Y0128585D01*
X0350368Y0127934D01*
X0350866Y0127435D01*
X0350964Y0127395D01*
X0350964Y0126543D01*
X0350866Y0126502D01*
X0350368Y0126004D01*
X0350098Y0125353D01*
X0350098Y0124648D01*
X0350368Y0123997D01*
X0350866Y0123498D01*
X0350964Y0123458D01*
X0350964Y0122606D01*
X0350866Y0122565D01*
X0350368Y0122067D01*
X0350098Y0121416D01*
X0350098Y0120711D01*
X0350368Y0120060D01*
X0350866Y0119561D01*
X0350964Y0119521D01*
X0350964Y0118669D01*
X0350866Y0118628D01*
X0350368Y0118130D01*
X0350098Y0117479D01*
X0350098Y0116774D01*
X0350368Y0116123D01*
X0350866Y0115624D01*
X0350964Y0115584D01*
X0350964Y0114732D01*
X0350866Y0114691D01*
X0350368Y0114193D01*
X0350098Y0113542D01*
X0350098Y0112837D01*
X0350368Y0112186D01*
X0350866Y0111687D01*
X0350964Y0111647D01*
X0350964Y0110795D01*
X0350866Y0110754D01*
X0350368Y0110256D01*
X0350098Y0109605D01*
X0350098Y0108900D01*
X0350368Y0108249D01*
X0350866Y0107750D01*
X0350964Y0107710D01*
X0350964Y0106858D01*
X0350866Y0106817D01*
X0350368Y0106319D01*
X0350098Y0105668D01*
X0350098Y0104963D01*
X0350368Y0104312D01*
X0350866Y0103813D01*
X0351517Y0103544D01*
X0352222Y0103544D01*
X0352264Y0103561D01*
X0353051Y0103035D01*
X0353051Y0097360D01*
X0352264Y0096834D01*
X0352222Y0096851D01*
X0351517Y0096851D01*
X0350866Y0096581D01*
X0350368Y0096083D01*
X0350098Y0095432D01*
X0350098Y0094727D01*
X0350368Y0094076D01*
X0350425Y0094019D01*
X0350812Y0093504D01*
X0350425Y0092990D01*
X0350368Y0092933D01*
X0350098Y0092282D01*
X0350098Y0091577D01*
X0350368Y0090926D01*
X0350866Y0090428D01*
X0351517Y0090158D01*
X0352222Y0090158D01*
X0352264Y0090175D01*
X0353051Y0089649D01*
X0353051Y0084108D01*
X0352264Y0083951D01*
X0352092Y0084365D01*
X0351594Y0084863D01*
X0350943Y0085133D01*
X0350238Y0085133D01*
X0349587Y0084863D01*
X0349289Y0084566D01*
X0348500Y0084566D01*
X0348500Y0084566D01*
X0348039Y0084474D01*
X0347648Y0084213D01*
X0331788Y0068353D01*
X0330920Y0068465D01*
X0330839Y0068518D01*
X0330389Y0068967D01*
X0329738Y0069237D01*
X0329033Y0069237D01*
X0328382Y0068967D01*
X0327884Y0068469D01*
X0327614Y0067818D01*
X0327614Y0067113D01*
X0327884Y0066462D01*
X0328382Y0065963D01*
X0329033Y0065694D01*
X0329738Y0065694D01*
X0329805Y0065649D01*
X0329805Y0054540D01*
X0328894Y0053629D01*
X0328082Y0053866D01*
D02*
G37*
G36*
X0224931Y0055512D02*
X0225254Y0056300D01*
X0225905Y0056569D01*
X0226403Y0057068D01*
X0226673Y0057719D01*
X0226673Y0058424D01*
X0226403Y0059075D01*
X0225905Y0059573D01*
X0225254Y0059843D01*
X0224549Y0059843D01*
X0223873Y0060322D01*
X0223818Y0060942D01*
X0225708Y0062832D01*
X0225969Y0063222D01*
X0226061Y0063683D01*
X0226061Y0063683D01*
X0226061Y0066120D01*
X0226358Y0066418D01*
X0226628Y0067069D01*
X0226628Y0067774D01*
X0226358Y0068425D01*
X0226061Y0068723D01*
X0226061Y0072119D01*
X0226061Y0072119D01*
X0225969Y0072580D01*
X0225708Y0072970D01*
X0225247Y0073431D01*
X0225247Y0075676D01*
X0225447Y0075877D01*
X0225717Y0076528D01*
X0225717Y0077232D01*
X0225447Y0077884D01*
X0224949Y0078382D01*
X0224298Y0078652D01*
X0223593Y0078652D01*
X0223586Y0078649D01*
X0223140Y0079317D01*
X0228798Y0084974D01*
X0230902Y0084974D01*
X0231428Y0084187D01*
X0231398Y0084113D01*
X0231398Y0083408D01*
X0231667Y0082757D01*
X0232166Y0082258D01*
X0232817Y0081989D01*
X0233160Y0081989D01*
X0233698Y0081312D01*
X0233711Y0081261D01*
X0233683Y0081194D01*
X0233683Y0080489D01*
X0233953Y0079838D01*
X0234451Y0079339D01*
X0235103Y0079070D01*
X0235807Y0079070D01*
X0236458Y0079339D01*
X0236957Y0079838D01*
X0237227Y0080489D01*
X0237227Y0081194D01*
X0236957Y0081845D01*
X0236458Y0082343D01*
X0235807Y0082613D01*
X0235464Y0082613D01*
X0234926Y0083289D01*
X0234913Y0083340D01*
X0234941Y0083408D01*
X0234941Y0084113D01*
X0234910Y0084187D01*
X0235436Y0084974D01*
X0236745Y0084974D01*
X0237071Y0085039D01*
X0237348Y0085224D01*
X0239121Y0086997D01*
X0243945Y0086997D01*
X0244501Y0086283D01*
X0244501Y0085579D01*
X0244771Y0084927D01*
X0245269Y0084429D01*
X0245192Y0083609D01*
X0245055Y0083277D01*
X0245055Y0082572D01*
X0245324Y0081921D01*
X0245823Y0081422D01*
X0246474Y0081153D01*
X0247179Y0081153D01*
X0247830Y0081422D01*
X0248328Y0081921D01*
X0248598Y0082572D01*
X0248598Y0083277D01*
X0248328Y0083928D01*
X0248084Y0084172D01*
X0248167Y0084431D01*
X0249064Y0084648D01*
X0249423Y0084289D01*
X0249700Y0084104D01*
X0250026Y0084039D01*
X0252114Y0084039D01*
X0252676Y0083336D01*
X0252676Y0082632D01*
X0252945Y0081980D01*
X0253444Y0081482D01*
X0253521Y0081094D01*
X0253349Y0080923D01*
X0253079Y0080272D01*
X0253079Y0079567D01*
X0253086Y0079551D01*
X0252560Y0078764D01*
X0245964Y0078764D01*
X0245964Y0078764D01*
X0245504Y0078672D01*
X0245113Y0078411D01*
X0241469Y0074767D01*
X0241469Y0074767D01*
X0241208Y0074377D01*
X0241117Y0073916D01*
X0241117Y0069493D01*
X0236542Y0064919D01*
X0232119Y0064919D01*
X0232119Y0064919D01*
X0231658Y0064827D01*
X0231268Y0064566D01*
X0228957Y0062255D01*
X0228297Y0062255D01*
X0227646Y0061985D01*
X0227148Y0061487D01*
X0226878Y0060835D01*
X0226878Y0060130D01*
X0227148Y0059479D01*
X0227646Y0058981D01*
X0228297Y0058711D01*
X0229002Y0058711D01*
X0229653Y0058981D01*
X0230151Y0059479D01*
X0230421Y0060130D01*
X0230421Y0060313D01*
X0232618Y0062510D01*
X0237041Y0062510D01*
X0237041Y0062510D01*
X0237501Y0062602D01*
X0237892Y0062863D01*
X0242257Y0067228D01*
X0242985Y0066927D01*
X0242985Y0058214D01*
X0241126Y0056356D01*
X0240496Y0056840D01*
X0240667Y0057135D01*
X0240867Y0057882D01*
X0240867Y0058654D01*
X0240667Y0059401D01*
X0240281Y0060070D01*
X0239734Y0060616D01*
X0239065Y0061002D01*
X0238319Y0061202D01*
X0237546Y0061202D01*
X0236800Y0061002D01*
X0236131Y0060616D01*
X0235585Y0060070D01*
X0235199Y0059401D01*
X0234999Y0058654D01*
X0234999Y0057882D01*
X0235199Y0057135D01*
X0235585Y0056466D01*
X0236131Y0055920D01*
X0236800Y0055534D01*
X0236638Y0054762D01*
X0225682Y0054762D01*
X0224931Y0055512D01*
D02*
G37*
G36*
X0291038Y0064061D02*
X0290946Y0064153D01*
X0290669Y0064338D01*
X0290343Y0064403D01*
X0289374Y0064403D01*
X0283140Y0070636D01*
X0283251Y0071535D01*
X0283750Y0072033D01*
X0284019Y0072684D01*
X0284019Y0073389D01*
X0283750Y0074040D01*
X0283251Y0074539D01*
X0282600Y0074808D01*
X0281895Y0074808D01*
X0281244Y0074539D01*
X0280746Y0074040D01*
X0279847Y0073929D01*
X0271128Y0082648D01*
X0271128Y0086527D01*
X0271279Y0086589D01*
X0271777Y0087087D01*
X0272047Y0087738D01*
X0272047Y0088443D01*
X0271777Y0089095D01*
X0271279Y0089593D01*
X0270628Y0089863D01*
X0270724Y0090610D01*
X0284395Y0090610D01*
X0291230Y0083776D01*
X0291238Y0083754D01*
X0291196Y0082990D01*
X0291120Y0082827D01*
X0291036Y0082771D01*
X0285719Y0077454D01*
X0285414Y0076999D01*
X0285308Y0076461D01*
X0285308Y0071840D01*
X0285414Y0071303D01*
X0285719Y0070847D01*
X0288502Y0068064D01*
X0288957Y0067760D01*
X0289495Y0067653D01*
X0290677Y0067653D01*
X0293346Y0064984D01*
X0292900Y0064316D01*
X0292867Y0064330D01*
X0292162Y0064330D01*
X0291511Y0064061D01*
X0291038Y0064061D01*
D02*
G37*
G36*
X0251355Y0050855D02*
X0251299Y0050912D01*
X0250648Y0051182D01*
X0250230Y0051182D01*
X0250230Y0069773D01*
X0251033Y0070576D01*
X0251210Y0070549D01*
X0251799Y0070228D01*
X0251799Y0057779D01*
X0251863Y0057453D01*
X0252048Y0057176D01*
X0252592Y0056633D01*
X0252592Y0050974D01*
X0252441Y0050912D01*
X0252384Y0050855D01*
X0251870Y0050468D01*
X0251355Y0050855D01*
D02*
G37*
G36*
X0295637Y0071997D02*
X0295837Y0072480D01*
X0295837Y0073185D01*
X0295567Y0073836D01*
X0295069Y0074334D01*
X0294417Y0074604D01*
X0293713Y0074604D01*
X0293062Y0074334D01*
X0292563Y0073836D01*
X0291670Y0073738D01*
X0291437Y0073917D01*
X0291437Y0074172D01*
X0291167Y0074823D01*
X0290669Y0075321D01*
X0290018Y0075591D01*
X0289313Y0075591D01*
X0288696Y0076188D01*
X0288657Y0076419D01*
X0292611Y0080372D01*
X0298889Y0080372D01*
X0299427Y0080479D01*
X0299882Y0080784D01*
X0305155Y0086056D01*
X0305292Y0086056D01*
X0305943Y0086326D01*
X0306441Y0086824D01*
X0306711Y0087475D01*
X0307498Y0087752D01*
X0310869Y0084381D01*
X0310869Y0078823D01*
X0310755Y0078776D01*
X0310308Y0078329D01*
X0310237Y0078284D01*
X0310183Y0078296D01*
X0309450Y0078854D01*
X0309450Y0078991D01*
X0309181Y0079642D01*
X0308682Y0080141D01*
X0308031Y0080410D01*
X0307326Y0080410D01*
X0306675Y0080141D01*
X0306177Y0079642D01*
X0305907Y0078991D01*
X0305907Y0078286D01*
X0306177Y0077635D01*
X0306675Y0077137D01*
X0306790Y0077089D01*
X0306975Y0076160D01*
X0306864Y0076050D01*
X0306594Y0075398D01*
X0306594Y0074694D01*
X0306864Y0074042D01*
X0307324Y0073583D01*
X0306937Y0073196D01*
X0306667Y0072545D01*
X0306667Y0072489D01*
X0305880Y0071927D01*
X0305767Y0071966D01*
X0305767Y0073588D01*
X0305702Y0073914D01*
X0305517Y0074191D01*
X0304393Y0075315D01*
X0304116Y0075500D01*
X0303790Y0075565D01*
X0302200Y0075565D01*
X0301873Y0075500D01*
X0301597Y0075315D01*
X0298936Y0072655D01*
X0297761Y0072655D01*
X0297435Y0072590D01*
X0297158Y0072405D01*
X0296304Y0071551D01*
X0295637Y0071997D01*
D02*
G37*
G36*
X0352222Y0075197D02*
X0351517Y0075197D01*
X0351517Y0075197D01*
X0350611Y0076104D01*
X0350285Y0076321D01*
X0349901Y0076398D01*
X0344353Y0076398D01*
X0344026Y0077185D01*
X0348998Y0082157D01*
X0349289Y0082157D01*
X0349587Y0081859D01*
X0350238Y0081590D01*
X0350943Y0081590D01*
X0351594Y0081859D01*
X0352092Y0082358D01*
X0352264Y0082771D01*
X0353051Y0082615D01*
X0353051Y0075706D01*
X0352264Y0075180D01*
X0352222Y0075197D01*
D02*
G37*
G36*
X0312407Y0085216D02*
X0312326Y0085338D01*
X0308259Y0089404D01*
X0308560Y0090132D01*
X0309999Y0090132D01*
X0310061Y0089981D01*
X0310560Y0089483D01*
X0311211Y0089213D01*
X0311916Y0089213D01*
X0312567Y0089483D01*
X0313065Y0089981D01*
X0313335Y0090632D01*
X0313335Y0091337D01*
X0313065Y0091988D01*
X0312567Y0092487D01*
X0311916Y0092756D01*
X0311211Y0092756D01*
X0310560Y0092487D01*
X0310061Y0091988D01*
X0309999Y0091838D01*
X0303274Y0091838D01*
X0302947Y0091773D01*
X0302670Y0091588D01*
X0300029Y0088947D01*
X0299140Y0089171D01*
X0299034Y0089522D01*
X0299212Y0089830D01*
X0299488Y0090015D01*
X0303404Y0093931D01*
X0311275Y0093931D01*
X0311602Y0093996D01*
X0311878Y0094181D01*
X0312389Y0094692D01*
X0313177Y0094432D01*
X0313446Y0093781D01*
X0313945Y0093283D01*
X0314596Y0093013D01*
X0315301Y0093013D01*
X0315952Y0093283D01*
X0316146Y0093477D01*
X0316783Y0093266D01*
X0316944Y0093162D01*
X0317010Y0092832D01*
X0317228Y0092507D01*
X0320026Y0089708D01*
X0320026Y0089708D01*
X0320026Y0089003D01*
X0320296Y0088352D01*
X0320794Y0087854D01*
X0321445Y0087584D01*
X0322150Y0087584D01*
X0322801Y0087854D01*
X0323300Y0088352D01*
X0323569Y0089003D01*
X0323569Y0089708D01*
X0323300Y0090359D01*
X0322801Y0090858D01*
X0322150Y0091127D01*
X0321445Y0091127D01*
X0321445Y0091127D01*
X0318941Y0093632D01*
X0318941Y0101873D01*
X0319728Y0102199D01*
X0320555Y0101372D01*
X0320880Y0101155D01*
X0321264Y0101078D01*
X0322977Y0101078D01*
X0323361Y0101155D01*
X0323686Y0101372D01*
X0324639Y0102325D01*
X0325426Y0101999D01*
X0325426Y0087824D01*
X0322910Y0085308D01*
X0316425Y0085308D01*
X0316363Y0085458D01*
X0316303Y0085518D01*
X0315989Y0086124D01*
X0316303Y0086547D01*
X0316450Y0086694D01*
X0316720Y0087346D01*
X0316720Y0088051D01*
X0316450Y0088702D01*
X0315952Y0089200D01*
X0315301Y0089470D01*
X0314596Y0089470D01*
X0313945Y0089200D01*
X0313446Y0088702D01*
X0313177Y0088051D01*
X0313177Y0087346D01*
X0313446Y0086694D01*
X0313506Y0086635D01*
X0313820Y0086029D01*
X0313506Y0085606D01*
X0313359Y0085458D01*
X0313267Y0085237D01*
X0312992Y0085173D01*
X0312407Y0085216D01*
D02*
G37*
G36*
X0247671Y0088454D02*
X0247394Y0088638D01*
X0247068Y0088703D01*
X0238768Y0088703D01*
X0238441Y0088638D01*
X0238165Y0088454D01*
X0236391Y0086680D01*
X0233188Y0086680D01*
X0232688Y0087467D01*
X0232775Y0087678D01*
X0232775Y0088383D01*
X0232506Y0089034D01*
X0232007Y0089533D01*
X0231522Y0089734D01*
X0231299Y0090292D01*
X0231264Y0090590D01*
X0232648Y0091974D01*
X0237947Y0091974D01*
X0238274Y0092039D01*
X0238550Y0092224D01*
X0239765Y0093439D01*
X0243680Y0093439D01*
X0243864Y0092996D01*
X0244362Y0092498D01*
X0244437Y0092466D01*
X0245055Y0091900D01*
X0245055Y0091195D01*
X0245324Y0090544D01*
X0245823Y0090045D01*
X0246474Y0089776D01*
X0247179Y0089776D01*
X0247830Y0090045D01*
X0248328Y0090544D01*
X0248418Y0090761D01*
X0249223Y0090647D01*
X0249245Y0090537D01*
X0249430Y0090261D01*
X0249816Y0089874D01*
X0249754Y0089724D01*
X0249754Y0089019D01*
X0250024Y0088368D01*
X0250522Y0087870D01*
X0251027Y0087660D01*
X0251575Y0087239D01*
X0251642Y0086419D01*
X0251149Y0085787D01*
X0250366Y0085759D01*
X0247671Y0088454D01*
D02*
G37*
G36*
X0221377Y0095006D02*
X0220726Y0095276D01*
X0220021Y0095276D01*
X0219980Y0095259D01*
X0219193Y0095785D01*
X0219193Y0096735D01*
X0219980Y0097262D01*
X0220021Y0097245D01*
X0220726Y0097245D01*
X0221377Y0097514D01*
X0221876Y0098013D01*
X0222146Y0098664D01*
X0222146Y0099369D01*
X0222083Y0099519D01*
X0229389Y0106825D01*
X0233836Y0106825D01*
X0234005Y0106037D01*
X0231074Y0103106D01*
X0230253Y0103106D01*
X0229927Y0103041D01*
X0229650Y0102856D01*
X0225350Y0098556D01*
X0225165Y0098279D01*
X0225100Y0097953D01*
X0225100Y0097346D01*
X0222469Y0094715D01*
X0221668Y0094715D01*
X0221377Y0095006D01*
D02*
G37*
G36*
X0287034Y0097848D02*
X0286758Y0098033D01*
X0286431Y0098097D01*
X0266945Y0098097D01*
X0266643Y0098825D01*
X0268231Y0100413D01*
X0294716Y0100413D01*
X0295274Y0099702D01*
X0295274Y0098997D01*
X0295544Y0098346D01*
X0296031Y0097859D01*
X0295673Y0097502D01*
X0295403Y0096850D01*
X0295403Y0096146D01*
X0295673Y0095494D01*
X0296171Y0094996D01*
X0296823Y0094726D01*
X0297527Y0094726D01*
X0298179Y0094996D01*
X0298677Y0095494D01*
X0298947Y0096146D01*
X0298947Y0096850D01*
X0298677Y0097502D01*
X0298600Y0097578D01*
X0298802Y0098125D01*
X0299633Y0098280D01*
X0301624Y0096289D01*
X0301654Y0095985D01*
X0298124Y0092455D01*
X0292427Y0092455D01*
X0287034Y0097848D01*
D02*
G37*
G36*
X0258628Y0096487D02*
X0258628Y0097048D01*
X0258563Y0097374D01*
X0258379Y0097651D01*
X0255548Y0100482D01*
X0255610Y0100632D01*
X0255610Y0101337D01*
X0255340Y0101988D01*
X0254842Y0102486D01*
X0254191Y0102756D01*
X0253486Y0102756D01*
X0252912Y0102519D01*
X0252462Y0102666D01*
X0252092Y0102844D01*
X0252002Y0103207D01*
X0252478Y0103890D01*
X0252960Y0103890D01*
X0253611Y0104159D01*
X0253807Y0104356D01*
X0254061Y0104347D01*
X0254678Y0104129D01*
X0254865Y0103679D01*
X0255363Y0103180D01*
X0256014Y0102911D01*
X0256719Y0102911D01*
X0257370Y0103180D01*
X0257868Y0103679D01*
X0258138Y0104330D01*
X0258138Y0105035D01*
X0257868Y0105686D01*
X0257370Y0106184D01*
X0256719Y0106454D01*
X0256014Y0106454D01*
X0255363Y0106184D01*
X0255166Y0105988D01*
X0254914Y0105996D01*
X0254296Y0106214D01*
X0254109Y0106665D01*
X0253611Y0107163D01*
X0252960Y0107433D01*
X0252255Y0107433D01*
X0251604Y0107163D01*
X0251106Y0106665D01*
X0250975Y0106351D01*
X0250108Y0106104D01*
X0245963Y0110249D01*
X0245686Y0110434D01*
X0245360Y0110499D01*
X0243955Y0110499D01*
X0241845Y0112609D01*
X0242214Y0113319D01*
X0242231Y0113337D01*
X0254275Y0113337D01*
X0254471Y0113066D01*
X0254684Y0112549D01*
X0254473Y0112040D01*
X0254473Y0111335D01*
X0254742Y0110684D01*
X0255241Y0110186D01*
X0255892Y0109916D01*
X0256597Y0109916D01*
X0257248Y0110186D01*
X0257746Y0110684D01*
X0258016Y0111335D01*
X0258016Y0112040D01*
X0257805Y0112549D01*
X0258017Y0113066D01*
X0258214Y0113337D01*
X0273491Y0113337D01*
X0273553Y0113186D01*
X0274052Y0112688D01*
X0274703Y0112418D01*
X0275408Y0112418D01*
X0276059Y0112688D01*
X0276557Y0113186D01*
X0276827Y0113837D01*
X0276827Y0114542D01*
X0276557Y0115193D01*
X0276059Y0115692D01*
X0275408Y0115961D01*
X0274978Y0115961D01*
X0274868Y0116733D01*
X0275427Y0117428D01*
X0277250Y0117428D01*
X0284850Y0109828D01*
X0285371Y0109480D01*
X0285985Y0109358D01*
X0285985Y0109358D01*
X0292981Y0109358D01*
X0293381Y0109192D01*
X0293676Y0109192D01*
X0293749Y0109133D01*
X0294148Y0108430D01*
X0293995Y0108062D01*
X0293995Y0107357D01*
X0294121Y0107054D01*
X0293676Y0106267D01*
X0286955Y0106267D01*
X0285253Y0107968D01*
X0284977Y0108153D01*
X0284650Y0108218D01*
X0276155Y0108218D01*
X0276093Y0108369D01*
X0275594Y0108867D01*
X0274943Y0109137D01*
X0274239Y0109137D01*
X0273587Y0108867D01*
X0273089Y0108369D01*
X0272819Y0107718D01*
X0272819Y0107570D01*
X0272738Y0106994D01*
X0272092Y0106842D01*
X0272012Y0106842D01*
X0271360Y0106572D01*
X0270862Y0106074D01*
X0270592Y0105423D01*
X0270592Y0104718D01*
X0270688Y0104487D01*
X0270201Y0103699D01*
X0267286Y0103699D01*
X0266901Y0103623D01*
X0266576Y0103405D01*
X0259356Y0096185D01*
X0258628Y0096487D01*
D02*
G37*
G36*
X0310794Y0104252D02*
X0310794Y0106276D01*
X0319368Y0114850D01*
X0320123Y0114492D01*
X0320123Y0114069D01*
X0320393Y0113418D01*
X0320826Y0112985D01*
X0320393Y0112552D01*
X0320123Y0111901D01*
X0320123Y0111196D01*
X0320393Y0110545D01*
X0320826Y0110113D01*
X0320393Y0109680D01*
X0320123Y0109029D01*
X0320123Y0108324D01*
X0320393Y0107673D01*
X0320892Y0107174D01*
X0321543Y0106905D01*
X0322248Y0106905D01*
X0322899Y0107174D01*
X0323397Y0107673D01*
X0323487Y0107891D01*
X0324326Y0107891D01*
X0325115Y0107102D01*
X0324789Y0106314D01*
X0324770Y0106314D01*
X0324119Y0106045D01*
X0323621Y0105546D01*
X0323294Y0105481D01*
X0323124Y0105651D01*
X0322473Y0105921D01*
X0321768Y0105921D01*
X0321117Y0105651D01*
X0320619Y0105152D01*
X0319721Y0105044D01*
X0319417Y0105349D01*
X0319091Y0105566D01*
X0318707Y0105642D01*
X0313629Y0105642D01*
X0313245Y0105566D01*
X0312919Y0105349D01*
X0311521Y0103950D01*
X0310794Y0104252D01*
D02*
G37*
G36*
X0279637Y0119583D02*
X0280083Y0120251D01*
X0280434Y0120105D01*
X0281138Y0120105D01*
X0281790Y0120375D01*
X0282288Y0120873D01*
X0282558Y0121525D01*
X0282558Y0122229D01*
X0282288Y0122881D01*
X0281790Y0123379D01*
X0281138Y0123649D01*
X0280434Y0123649D01*
X0279782Y0123379D01*
X0279284Y0122881D01*
X0279014Y0122229D01*
X0279014Y0121525D01*
X0279234Y0120993D01*
X0278981Y0120638D01*
X0278688Y0120411D01*
X0278530Y0120517D01*
X0277916Y0120639D01*
X0277915Y0120639D01*
X0265195Y0120639D01*
X0254974Y0130860D01*
X0254974Y0130860D01*
X0254453Y0131208D01*
X0253838Y0131330D01*
X0249922Y0131330D01*
X0249596Y0132118D01*
X0249683Y0132204D01*
X0249952Y0132855D01*
X0249952Y0133560D01*
X0249683Y0134211D01*
X0249184Y0134710D01*
X0248533Y0134979D01*
X0247828Y0134979D01*
X0247177Y0134710D01*
X0246679Y0134211D01*
X0246409Y0133560D01*
X0246409Y0132855D01*
X0246679Y0132204D01*
X0246765Y0132118D01*
X0246439Y0131330D01*
X0245143Y0131330D01*
X0244742Y0131496D01*
X0244037Y0131496D01*
X0243386Y0131227D01*
X0242888Y0130728D01*
X0242618Y0130077D01*
X0242618Y0129372D01*
X0242888Y0128721D01*
X0243386Y0128223D01*
X0244037Y0127953D01*
X0244742Y0127953D01*
X0245143Y0128119D01*
X0253173Y0128119D01*
X0263394Y0117898D01*
X0263915Y0117550D01*
X0264101Y0117513D01*
X0264618Y0116743D01*
X0264628Y0116667D01*
X0264628Y0116024D01*
X0264708Y0115830D01*
X0264199Y0115043D01*
X0254000Y0115043D01*
X0253474Y0115830D01*
X0253538Y0115987D01*
X0253538Y0116691D01*
X0254091Y0117415D01*
X0256176Y0117415D01*
X0256238Y0117265D01*
X0256737Y0116766D01*
X0257388Y0116496D01*
X0258093Y0116496D01*
X0258744Y0116766D01*
X0259242Y0117265D01*
X0259512Y0117916D01*
X0259512Y0118621D01*
X0259242Y0119272D01*
X0258744Y0119770D01*
X0258301Y0119954D01*
X0258093Y0120040D01*
X0257573Y0120763D01*
X0257304Y0121414D01*
X0256805Y0121912D01*
X0256154Y0122182D01*
X0255533Y0122182D01*
X0255533Y0122803D01*
X0255263Y0123454D01*
X0254765Y0123953D01*
X0254114Y0124223D01*
X0253510Y0124223D01*
X0253510Y0124826D01*
X0253240Y0125478D01*
X0252742Y0125976D01*
X0252090Y0126246D01*
X0251386Y0126246D01*
X0250735Y0125976D01*
X0250236Y0125478D01*
X0250174Y0125327D01*
X0237860Y0125327D01*
X0234416Y0128771D01*
X0234527Y0129670D01*
X0235025Y0130168D01*
X0235295Y0130819D01*
X0235295Y0131524D01*
X0235025Y0132175D01*
X0234527Y0132673D01*
X0233876Y0132943D01*
X0233171Y0132943D01*
X0233044Y0132891D01*
X0232257Y0133417D01*
X0232257Y0136599D01*
X0233012Y0136957D01*
X0233663Y0136688D01*
X0234368Y0136688D01*
X0235019Y0136957D01*
X0235912Y0136854D01*
X0236125Y0136641D01*
X0236776Y0136372D01*
X0237481Y0136372D01*
X0238132Y0136641D01*
X0238630Y0137140D01*
X0238900Y0137791D01*
X0238900Y0138496D01*
X0238630Y0139147D01*
X0238132Y0139645D01*
X0237481Y0139915D01*
X0236776Y0139915D01*
X0236125Y0139645D01*
X0235872Y0139392D01*
X0235518Y0139463D01*
X0235019Y0139961D01*
X0234368Y0140231D01*
X0233663Y0140231D01*
X0233012Y0139961D01*
X0232257Y0140319D01*
X0232257Y0176589D01*
X0232192Y0176915D01*
X0232007Y0177192D01*
X0227793Y0181406D01*
X0227856Y0181558D01*
X0227856Y0182262D01*
X0227586Y0182914D01*
X0227088Y0183412D01*
X0226437Y0183682D01*
X0225732Y0183682D01*
X0225081Y0183412D01*
X0224582Y0182914D01*
X0224313Y0182262D01*
X0224313Y0181558D01*
X0224582Y0180906D01*
X0224657Y0180832D01*
X0225018Y0180318D01*
X0224657Y0179803D01*
X0224582Y0179729D01*
X0224313Y0179078D01*
X0224313Y0178374D01*
X0224582Y0177722D01*
X0224657Y0177648D01*
X0225018Y0177134D01*
X0224657Y0176619D01*
X0224582Y0176545D01*
X0224313Y0175894D01*
X0224313Y0175189D01*
X0224582Y0174538D01*
X0224657Y0174464D01*
X0225018Y0173950D01*
X0224657Y0173435D01*
X0224582Y0173361D01*
X0224313Y0172710D01*
X0224313Y0172005D01*
X0224582Y0171354D01*
X0225081Y0170856D01*
X0225732Y0170586D01*
X0226437Y0170586D01*
X0226587Y0170648D01*
X0227598Y0169638D01*
X0227598Y0138674D01*
X0226811Y0138148D01*
X0226767Y0138165D01*
X0226063Y0138165D01*
X0225412Y0137896D01*
X0224913Y0137397D01*
X0224643Y0136746D01*
X0224643Y0136041D01*
X0224913Y0135390D01*
X0225412Y0134892D01*
X0226063Y0134622D01*
X0226767Y0134622D01*
X0226811Y0134640D01*
X0227598Y0134114D01*
X0227598Y0131822D01*
X0226871Y0131521D01*
X0222083Y0136308D01*
X0222146Y0136459D01*
X0222146Y0137164D01*
X0221876Y0137815D01*
X0221819Y0137872D01*
X0221432Y0138386D01*
X0221819Y0138901D01*
X0221876Y0138957D01*
X0222146Y0139609D01*
X0222146Y0140313D01*
X0221876Y0140965D01*
X0221819Y0141021D01*
X0221432Y0141536D01*
X0221819Y0142050D01*
X0221876Y0142107D01*
X0222146Y0142758D01*
X0222146Y0143463D01*
X0221876Y0144114D01*
X0221819Y0144171D01*
X0221432Y0144685D01*
X0221819Y0145200D01*
X0221876Y0145257D01*
X0222146Y0145908D01*
X0222146Y0146613D01*
X0221876Y0147264D01*
X0221377Y0147762D01*
X0220726Y0148032D01*
X0220021Y0148032D01*
X0219980Y0148015D01*
X0219193Y0148541D01*
X0219193Y0160909D01*
X0219980Y0161435D01*
X0220021Y0161418D01*
X0220726Y0161418D01*
X0221377Y0161687D01*
X0221876Y0162186D01*
X0222146Y0162837D01*
X0222146Y0163542D01*
X0221876Y0164193D01*
X0221377Y0164691D01*
X0220726Y0164961D01*
X0220021Y0164961D01*
X0219980Y0164944D01*
X0219193Y0165470D01*
X0219193Y0189961D01*
X0244390Y0189961D01*
X0244390Y0187992D01*
X0244767Y0187992D01*
X0244856Y0187776D01*
X0245354Y0187278D01*
X0246006Y0187008D01*
X0246710Y0187008D01*
X0247362Y0187278D01*
X0247860Y0187776D01*
X0247949Y0187992D01*
X0249491Y0187992D01*
X0249580Y0187776D01*
X0250079Y0187278D01*
X0250730Y0187008D01*
X0251435Y0187008D01*
X0252086Y0187278D01*
X0252584Y0187776D01*
X0252674Y0187992D01*
X0254215Y0187992D01*
X0254305Y0187776D01*
X0254803Y0187278D01*
X0255454Y0187008D01*
X0256159Y0187008D01*
X0256810Y0187278D01*
X0257309Y0187776D01*
X0257398Y0187992D01*
X0258940Y0187992D01*
X0259029Y0187776D01*
X0259528Y0187278D01*
X0260179Y0187008D01*
X0260884Y0187008D01*
X0261535Y0187278D01*
X0262033Y0187776D01*
X0262123Y0187992D01*
X0263664Y0187992D01*
X0263754Y0187776D01*
X0264252Y0187278D01*
X0264903Y0187008D01*
X0265608Y0187008D01*
X0265846Y0186422D01*
X0265846Y0186419D01*
X0266012Y0186018D01*
X0266012Y0185827D01*
X0266134Y0185213D01*
X0266483Y0184692D01*
X0267003Y0184344D01*
X0267618Y0184221D01*
X0341603Y0184221D01*
X0341603Y0180906D01*
X0341603Y0180906D01*
X0341725Y0180291D01*
X0342073Y0179770D01*
X0342073Y0179770D01*
X0344042Y0177802D01*
X0344562Y0177454D01*
X0345177Y0177332D01*
X0345177Y0177332D01*
X0346418Y0177332D01*
X0346418Y0174880D01*
X0345630Y0174723D01*
X0345496Y0175049D01*
X0344997Y0175548D01*
X0344346Y0175817D01*
X0343641Y0175817D01*
X0342990Y0175548D01*
X0342492Y0175049D01*
X0342329Y0174657D01*
X0341621Y0174420D01*
X0341446Y0174426D01*
X0338587Y0177285D01*
X0338311Y0177469D01*
X0337984Y0177534D01*
X0334260Y0177534D01*
X0333933Y0177469D01*
X0333656Y0177285D01*
X0330796Y0174424D01*
X0330618Y0174418D01*
X0329913Y0174655D01*
X0329750Y0175049D01*
X0329251Y0175548D01*
X0328600Y0175817D01*
X0327895Y0175817D01*
X0327244Y0175548D01*
X0326771Y0175075D01*
X0326299Y0175548D01*
X0325647Y0175817D01*
X0324943Y0175817D01*
X0324792Y0175755D01*
X0319964Y0180583D01*
X0319688Y0180768D01*
X0319361Y0180833D01*
X0270235Y0180833D01*
X0269908Y0180768D01*
X0269632Y0180583D01*
X0261970Y0172921D01*
X0248186Y0172921D01*
X0247859Y0172856D01*
X0247583Y0172671D01*
X0244348Y0169437D01*
X0244163Y0169160D01*
X0244098Y0168834D01*
X0244098Y0164640D01*
X0243311Y0164114D01*
X0243167Y0164174D01*
X0242462Y0164174D01*
X0241811Y0163904D01*
X0241313Y0163406D01*
X0241043Y0162754D01*
X0241043Y0162050D01*
X0241313Y0161398D01*
X0241811Y0160900D01*
X0242462Y0160630D01*
X0243054Y0160630D01*
X0243281Y0160327D01*
X0243440Y0159903D01*
X0242482Y0158945D01*
X0242297Y0158668D01*
X0242232Y0158342D01*
X0242232Y0154079D01*
X0242297Y0153752D01*
X0242482Y0153475D01*
X0243289Y0152669D01*
X0243226Y0152518D01*
X0243226Y0151813D01*
X0243496Y0151162D01*
X0243960Y0150698D01*
X0243551Y0150289D01*
X0243281Y0149638D01*
X0243281Y0148933D01*
X0243551Y0148282D01*
X0244044Y0147790D01*
X0243561Y0147307D01*
X0243291Y0146655D01*
X0243291Y0145951D01*
X0243561Y0145299D01*
X0244059Y0144801D01*
X0244710Y0144531D01*
X0245415Y0144531D01*
X0246066Y0144801D01*
X0246565Y0145299D01*
X0246834Y0145951D01*
X0246834Y0146655D01*
X0246772Y0146806D01*
X0247749Y0147783D01*
X0247934Y0148059D01*
X0247999Y0148386D01*
X0247999Y0152265D01*
X0248210Y0152444D01*
X0248786Y0152699D01*
X0249254Y0152505D01*
X0249958Y0152505D01*
X0250610Y0152774D01*
X0251108Y0153273D01*
X0251378Y0153924D01*
X0251378Y0154629D01*
X0251108Y0155280D01*
X0250610Y0155778D01*
X0249958Y0156048D01*
X0249254Y0156048D01*
X0248786Y0155854D01*
X0248210Y0156109D01*
X0247999Y0156288D01*
X0247999Y0159217D01*
X0247934Y0159544D01*
X0247749Y0159821D01*
X0246817Y0160752D01*
X0246817Y0164431D01*
X0246908Y0164534D01*
X0247605Y0164893D01*
X0247977Y0164738D01*
X0248682Y0164738D01*
X0249333Y0165008D01*
X0249532Y0165207D01*
X0250140Y0165360D01*
X0250529Y0165176D01*
X0250802Y0164903D01*
X0251453Y0164633D01*
X0252158Y0164633D01*
X0252809Y0164903D01*
X0252873Y0164967D01*
X0253387Y0165343D01*
X0253902Y0164967D01*
X0253965Y0164903D01*
X0254616Y0164633D01*
X0255321Y0164633D01*
X0255972Y0164903D01*
X0256195Y0165126D01*
X0256702Y0165315D01*
X0257209Y0165126D01*
X0257431Y0164903D01*
X0258083Y0164633D01*
X0258787Y0164633D01*
X0259439Y0164903D01*
X0259937Y0165402D01*
X0260207Y0166053D01*
X0260207Y0166758D01*
X0259937Y0167409D01*
X0259439Y0167907D01*
X0258787Y0168177D01*
X0258083Y0168177D01*
X0257431Y0167907D01*
X0257209Y0167685D01*
X0256702Y0167495D01*
X0256195Y0167685D01*
X0255972Y0167907D01*
X0255321Y0168177D01*
X0254616Y0168177D01*
X0253965Y0167907D01*
X0253902Y0167843D01*
X0253387Y0167467D01*
X0252873Y0167843D01*
X0252809Y0167907D01*
X0252158Y0168177D01*
X0251453Y0168177D01*
X0250802Y0167907D01*
X0250603Y0167708D01*
X0249995Y0167555D01*
X0249606Y0167739D01*
X0249333Y0168012D01*
X0248682Y0168282D01*
X0248111Y0168282D01*
X0247849Y0168653D01*
X0247725Y0169009D01*
X0248947Y0170231D01*
X0262893Y0170231D01*
X0263220Y0170296D01*
X0263497Y0170481D01*
X0268738Y0175722D01*
X0269919Y0175722D01*
X0270150Y0175329D01*
X0270295Y0174935D01*
X0270061Y0174368D01*
X0270061Y0173664D01*
X0270330Y0173013D01*
X0270829Y0172514D01*
X0270979Y0172452D01*
X0270979Y0171288D01*
X0270754Y0171106D01*
X0270192Y0170861D01*
X0269714Y0171059D01*
X0269009Y0171059D01*
X0268358Y0170789D01*
X0267859Y0170291D01*
X0267590Y0169640D01*
X0267590Y0168935D01*
X0267859Y0168284D01*
X0268358Y0167785D01*
X0269009Y0167516D01*
X0269714Y0167516D01*
X0270192Y0167714D01*
X0270754Y0167469D01*
X0270979Y0167286D01*
X0270979Y0162852D01*
X0263152Y0155024D01*
X0263063Y0155045D01*
X0262424Y0155410D01*
X0262424Y0155901D01*
X0262155Y0156552D01*
X0261656Y0157050D01*
X0261005Y0157320D01*
X0260300Y0157320D01*
X0259649Y0157050D01*
X0259151Y0156552D01*
X0258881Y0155901D01*
X0258881Y0155196D01*
X0259151Y0154545D01*
X0259649Y0154046D01*
X0259838Y0153968D01*
X0259915Y0153638D01*
X0259913Y0153085D01*
X0259522Y0152693D01*
X0259252Y0152042D01*
X0259252Y0151337D01*
X0259522Y0150686D01*
X0260020Y0150187D01*
X0260671Y0149918D01*
X0261376Y0149918D01*
X0262027Y0150187D01*
X0262127Y0150288D01*
X0262915Y0149962D01*
X0262915Y0149060D01*
X0261526Y0147672D01*
X0261376Y0147734D01*
X0260671Y0147734D01*
X0260020Y0147464D01*
X0259522Y0146966D01*
X0259252Y0146315D01*
X0259252Y0146099D01*
X0258483Y0145565D01*
X0258472Y0145569D01*
X0257767Y0145569D01*
X0257054Y0146126D01*
X0257054Y0152618D01*
X0256989Y0152944D01*
X0256804Y0153221D01*
X0256321Y0153703D01*
X0256384Y0153854D01*
X0256384Y0154559D01*
X0256114Y0155210D01*
X0255616Y0155708D01*
X0254964Y0155978D01*
X0254260Y0155978D01*
X0253609Y0155708D01*
X0253110Y0155210D01*
X0252841Y0154559D01*
X0252841Y0153854D01*
X0253110Y0153203D01*
X0253609Y0152704D01*
X0254260Y0152435D01*
X0254964Y0152435D01*
X0255348Y0151741D01*
X0255348Y0144934D01*
X0254560Y0144777D01*
X0254431Y0145089D01*
X0253933Y0145587D01*
X0253282Y0145857D01*
X0252577Y0145857D01*
X0251926Y0145587D01*
X0251427Y0145089D01*
X0251158Y0144438D01*
X0251158Y0143733D01*
X0251427Y0143082D01*
X0251926Y0142583D01*
X0252305Y0142426D01*
X0252335Y0141586D01*
X0252016Y0141454D01*
X0251518Y0140956D01*
X0251248Y0140304D01*
X0251248Y0139600D01*
X0251518Y0138949D01*
X0252016Y0138450D01*
X0252667Y0138181D01*
X0253372Y0138181D01*
X0253379Y0138183D01*
X0254167Y0137657D01*
X0254167Y0133268D01*
X0254231Y0132942D01*
X0254416Y0132665D01*
X0263472Y0123610D01*
X0263748Y0123425D01*
X0264075Y0123360D01*
X0274321Y0123360D01*
X0274384Y0123209D01*
X0274882Y0122711D01*
X0275533Y0122441D01*
X0276238Y0122441D01*
X0276889Y0122711D01*
X0277388Y0123209D01*
X0277657Y0123861D01*
X0277657Y0123875D01*
X0277870Y0124436D01*
X0278574Y0124436D01*
X0279225Y0124705D01*
X0279724Y0125204D01*
X0279821Y0125438D01*
X0280721Y0125651D01*
X0285472Y0120901D01*
X0285749Y0120716D01*
X0285915Y0120683D01*
X0286157Y0120225D01*
X0286224Y0119877D01*
X0285954Y0119226D01*
X0285954Y0118522D01*
X0286224Y0117870D01*
X0286722Y0117372D01*
X0287373Y0117102D01*
X0288078Y0117102D01*
X0288729Y0117372D01*
X0289227Y0117870D01*
X0289497Y0118522D01*
X0289497Y0119226D01*
X0289227Y0119877D01*
X0289567Y0120651D01*
X0295677Y0120651D01*
X0296164Y0120164D01*
X0296815Y0119894D01*
X0297520Y0119894D01*
X0297589Y0119923D01*
X0298377Y0119397D01*
X0298377Y0117877D01*
X0293131Y0112632D01*
X0292981Y0112570D01*
X0286650Y0112570D01*
X0279637Y0119583D01*
D02*
G37*
G36*
X0306964Y0108756D02*
X0306912Y0109155D01*
X0308969Y0111212D01*
X0309154Y0111489D01*
X0309219Y0111816D01*
X0309219Y0114608D01*
X0315514Y0120903D01*
X0316242Y0120602D01*
X0316242Y0116920D01*
X0307794Y0108473D01*
X0306964Y0108756D01*
D02*
G37*
G36*
X0308235Y0117065D02*
X0308235Y0120316D01*
X0314266Y0126347D01*
X0314993Y0126046D01*
X0314993Y0122795D01*
X0308962Y0116763D01*
X0308235Y0117065D01*
D02*
G37*
G36*
X0278064Y0130722D02*
X0277787Y0130907D01*
X0277461Y0130971D01*
X0262881Y0130971D01*
X0261531Y0132321D01*
X0261766Y0133200D01*
X0261989Y0133259D01*
X0262617Y0133622D01*
X0263130Y0134135D01*
X0263493Y0134763D01*
X0263497Y0134777D01*
X0268799Y0134777D01*
X0269003Y0134818D01*
X0269457Y0134587D01*
X0269783Y0134335D01*
X0269783Y0134097D01*
X0270053Y0133446D01*
X0270551Y0132947D01*
X0271202Y0132677D01*
X0271907Y0132677D01*
X0272558Y0132947D01*
X0273057Y0133446D01*
X0273879Y0133372D01*
X0274074Y0133259D01*
X0274775Y0133071D01*
X0275500Y0133071D01*
X0276201Y0133259D01*
X0276830Y0133622D01*
X0277343Y0134135D01*
X0277706Y0134763D01*
X0277709Y0134777D01*
X0285256Y0134777D01*
X0285582Y0134842D01*
X0285859Y0135027D01*
X0287476Y0136644D01*
X0288182Y0136236D01*
X0288169Y0136190D01*
X0288169Y0135464D01*
X0288357Y0134763D01*
X0288720Y0134135D01*
X0289233Y0133622D01*
X0289861Y0133259D01*
X0290562Y0133071D01*
X0291288Y0133071D01*
X0291989Y0133259D01*
X0292617Y0133622D01*
X0293130Y0134135D01*
X0293319Y0134462D01*
X0294106Y0134251D01*
X0294106Y0134063D01*
X0294376Y0133412D01*
X0294875Y0132914D01*
X0295526Y0132644D01*
X0296231Y0132644D01*
X0296882Y0132914D01*
X0297380Y0133412D01*
X0297589Y0133917D01*
X0298377Y0133761D01*
X0298377Y0127450D01*
X0290381Y0127450D01*
X0289981Y0127616D01*
X0289276Y0127616D01*
X0288625Y0127346D01*
X0288126Y0126848D01*
X0287856Y0126197D01*
X0287856Y0125492D01*
X0288126Y0124841D01*
X0288625Y0124342D01*
X0289276Y0124073D01*
X0289981Y0124073D01*
X0290381Y0124239D01*
X0297414Y0124239D01*
X0297418Y0124225D01*
X0296834Y0123438D01*
X0296815Y0123438D01*
X0296164Y0123168D01*
X0295665Y0122670D01*
X0295536Y0122357D01*
X0286428Y0122357D01*
X0278064Y0130722D01*
D02*
G37*
G36*
X0323725Y0121685D02*
X0323667Y0121724D01*
X0323667Y0121792D01*
X0323397Y0122444D01*
X0322899Y0122942D01*
X0322318Y0123183D01*
X0322252Y0123449D01*
X0322262Y0123993D01*
X0322711Y0124180D01*
X0323210Y0124678D01*
X0323480Y0125329D01*
X0323480Y0126034D01*
X0323210Y0126685D01*
X0323189Y0126706D01*
X0322743Y0127220D01*
X0323189Y0127735D01*
X0323210Y0127756D01*
X0323230Y0127804D01*
X0324159Y0127989D01*
X0332611Y0119537D01*
X0332611Y0113828D01*
X0331884Y0113527D01*
X0323725Y0121685D01*
D02*
G37*
G36*
X0310489Y0127109D02*
X0310040Y0127386D01*
X0310040Y0134326D01*
X0314153Y0138440D01*
X0314338Y0138716D01*
X0314369Y0138870D01*
X0314933Y0139011D01*
X0315171Y0138996D01*
X0315665Y0138503D01*
X0316316Y0138233D01*
X0316425Y0138233D01*
X0316751Y0137446D01*
X0313240Y0133935D01*
X0313055Y0133658D01*
X0312990Y0133332D01*
X0312990Y0129223D01*
X0310812Y0127045D01*
X0310489Y0127109D01*
D02*
G37*
G36*
X0306240Y0126468D02*
X0305742Y0126967D01*
X0305091Y0127236D01*
X0304386Y0127236D01*
X0304235Y0127174D01*
X0303117Y0128293D01*
X0303117Y0139017D01*
X0306467Y0142368D01*
X0306758Y0142247D01*
X0307463Y0142247D01*
X0308114Y0142517D01*
X0308612Y0143016D01*
X0308882Y0143667D01*
X0308882Y0144372D01*
X0309439Y0145086D01*
X0311249Y0145086D01*
X0311778Y0144307D01*
X0311778Y0143603D01*
X0312048Y0142951D01*
X0312547Y0142453D01*
X0312697Y0142391D01*
X0312697Y0139396D01*
X0308584Y0135283D01*
X0308399Y0135006D01*
X0308334Y0134679D01*
X0308334Y0127552D01*
X0307138Y0126357D01*
X0306240Y0126468D01*
D02*
G37*
G36*
X0317584Y0144898D02*
X0317539Y0145644D01*
X0318037Y0146142D01*
X0318307Y0146794D01*
X0318307Y0147498D01*
X0318037Y0148150D01*
X0317539Y0148648D01*
X0316888Y0148918D01*
X0316241Y0148918D01*
X0314413Y0150746D01*
X0314475Y0151379D01*
X0315234Y0151602D01*
X0315528Y0151308D01*
X0316180Y0151038D01*
X0316884Y0151038D01*
X0317536Y0151308D01*
X0318034Y0151806D01*
X0318096Y0151957D01*
X0319837Y0151957D01*
X0320163Y0152022D01*
X0320440Y0152207D01*
X0327493Y0159260D01*
X0327678Y0159537D01*
X0327743Y0159863D01*
X0327743Y0164017D01*
X0334005Y0170279D01*
X0334155Y0170216D01*
X0334860Y0170216D01*
X0335511Y0170486D01*
X0335940Y0170915D01*
X0336369Y0170486D01*
X0336941Y0170249D01*
X0336941Y0166790D01*
X0336556Y0166404D01*
X0334153Y0166404D01*
X0333827Y0166340D01*
X0333550Y0166155D01*
X0329779Y0162383D01*
X0329594Y0162107D01*
X0329529Y0161780D01*
X0329529Y0157807D01*
X0328815Y0157250D01*
X0328110Y0157250D01*
X0327459Y0156980D01*
X0326961Y0156482D01*
X0326691Y0155831D01*
X0326691Y0155126D01*
X0326961Y0154475D01*
X0327099Y0154336D01*
X0327376Y0153822D01*
X0327099Y0153308D01*
X0326961Y0153169D01*
X0326691Y0152518D01*
X0326691Y0151813D01*
X0326961Y0151162D01*
X0327433Y0150689D01*
X0326961Y0150217D01*
X0326691Y0149565D01*
X0326691Y0148861D01*
X0326961Y0148209D01*
X0327444Y0147726D01*
X0327025Y0147307D01*
X0326756Y0146655D01*
X0326756Y0145951D01*
X0327025Y0145299D01*
X0327122Y0145203D01*
X0326796Y0144415D01*
X0317997Y0144415D01*
X0317584Y0144898D01*
D02*
G37*
G36*
X0273983Y0163361D02*
X0273983Y0170316D01*
X0275269Y0171603D01*
X0275435Y0171610D01*
X0276152Y0171372D01*
X0276313Y0170984D01*
X0276811Y0170486D01*
X0277462Y0170216D01*
X0278167Y0170216D01*
X0278818Y0170486D01*
X0279764Y0170398D01*
X0280272Y0170188D01*
X0280272Y0168537D01*
X0274770Y0163035D01*
X0273983Y0163361D01*
D02*
G37*
G36*
X0352092Y0146966D02*
X0351594Y0147464D01*
X0351443Y0147527D01*
X0351443Y0152159D01*
X0351378Y0152485D01*
X0351194Y0152762D01*
X0347338Y0156618D01*
X0347329Y0156744D01*
X0347568Y0157500D01*
X0347934Y0157652D01*
X0348433Y0158150D01*
X0348702Y0158802D01*
X0348702Y0159506D01*
X0348433Y0160158D01*
X0347934Y0160656D01*
X0347283Y0160926D01*
X0346579Y0160926D01*
X0346428Y0160863D01*
X0345127Y0162164D01*
X0345168Y0162581D01*
X0345514Y0163290D01*
X0346218Y0163290D01*
X0346869Y0163559D01*
X0347368Y0164058D01*
X0347638Y0164709D01*
X0347638Y0165414D01*
X0347458Y0165847D01*
X0347471Y0165877D01*
X0348171Y0166404D01*
X0348876Y0166404D01*
X0349527Y0166674D01*
X0350025Y0167172D01*
X0350295Y0167824D01*
X0350295Y0168528D01*
X0350025Y0169180D01*
X0349527Y0169678D01*
X0348953Y0169916D01*
X0348786Y0170274D01*
X0348659Y0170735D01*
X0349159Y0171235D01*
X0349507Y0171756D01*
X0349629Y0172371D01*
X0349629Y0172371D01*
X0349629Y0173723D01*
X0350181Y0173928D01*
X0350417Y0173948D01*
X0350866Y0173498D01*
X0351517Y0173229D01*
X0352222Y0173229D01*
X0352264Y0173246D01*
X0353051Y0172720D01*
X0353051Y0146709D01*
X0352264Y0146552D01*
X0352092Y0146966D01*
D02*
G37*
G36*
X0346864Y0181330D02*
X0346966Y0181372D01*
X0347464Y0181871D01*
X0347734Y0182522D01*
X0347734Y0183227D01*
X0347464Y0183878D01*
X0346966Y0184376D01*
X0346315Y0184646D01*
X0345610Y0184646D01*
X0345601Y0184643D01*
X0344814Y0185169D01*
X0344814Y0185821D01*
X0344980Y0186222D01*
X0344980Y0186927D01*
X0344710Y0187578D01*
X0344212Y0188076D01*
X0343561Y0188346D01*
X0342856Y0188346D01*
X0342815Y0188374D01*
X0342815Y0189961D01*
X0348014Y0189961D01*
X0348541Y0189173D01*
X0348523Y0189132D01*
X0348523Y0188427D01*
X0348793Y0187776D01*
X0349291Y0187278D01*
X0349943Y0187008D01*
X0350648Y0187008D01*
X0351299Y0187278D01*
X0351797Y0187776D01*
X0352067Y0188427D01*
X0352067Y0188731D01*
X0352742Y0189318D01*
X0352794Y0189333D01*
X0353051Y0189255D01*
X0353051Y0181218D01*
X0352264Y0180692D01*
X0352222Y0180709D01*
X0351517Y0180709D01*
X0351117Y0180543D01*
X0347021Y0180543D01*
X0346864Y0181330D01*
D02*
G37*
%LPC*%
G36*
X0271889Y0062950D02*
X0272594Y0062950D01*
X0273245Y0063220D01*
X0273743Y0063719D01*
X0274013Y0064370D01*
X0274013Y0065075D01*
X0273743Y0065726D01*
X0273245Y0066224D01*
X0272594Y0066494D01*
X0271889Y0066494D01*
X0271238Y0066224D01*
X0270740Y0065726D01*
X0270470Y0065075D01*
X0270470Y0064370D01*
X0270740Y0063719D01*
X0271238Y0063220D01*
X0271889Y0062950D01*
D02*
G37*
G36*
X0331327Y0078415D02*
X0332031Y0078415D01*
X0332682Y0078685D01*
X0333181Y0079183D01*
X0333450Y0079835D01*
X0333450Y0080539D01*
X0333181Y0081190D01*
X0332682Y0081689D01*
X0332031Y0081959D01*
X0331327Y0081959D01*
X0330675Y0081689D01*
X0330177Y0081190D01*
X0329907Y0080539D01*
X0329907Y0079835D01*
X0330177Y0079183D01*
X0330675Y0078685D01*
X0331327Y0078415D01*
D02*
G37*
G36*
X0346478Y0137481D02*
X0347182Y0137481D01*
X0347833Y0137751D01*
X0348332Y0138250D01*
X0348601Y0138901D01*
X0348601Y0139605D01*
X0348332Y0140257D01*
X0347833Y0140755D01*
X0347182Y0141025D01*
X0346478Y0141025D01*
X0345844Y0140762D01*
X0345649Y0141232D01*
X0345361Y0141520D01*
X0345156Y0141755D01*
X0345323Y0142511D01*
X0345381Y0142569D01*
X0345650Y0143220D01*
X0345650Y0143924D01*
X0345381Y0144576D01*
X0344882Y0145074D01*
X0344231Y0145344D01*
X0343526Y0145344D01*
X0342875Y0145074D01*
X0342377Y0144576D01*
X0342107Y0143924D01*
X0342107Y0143220D01*
X0342377Y0142569D01*
X0342665Y0142280D01*
X0342870Y0142045D01*
X0342703Y0141289D01*
X0342645Y0141232D01*
X0342376Y0140581D01*
X0342376Y0139876D01*
X0342645Y0139225D01*
X0343144Y0138726D01*
X0343795Y0138457D01*
X0344500Y0138457D01*
X0345133Y0138719D01*
X0345328Y0138250D01*
X0345826Y0137751D01*
X0346478Y0137481D01*
D02*
G37*
G36*
X0232029Y0056300D02*
X0232734Y0056300D01*
X0233385Y0056569D01*
X0233884Y0057068D01*
X0234153Y0057719D01*
X0234153Y0058424D01*
X0233884Y0059075D01*
X0233385Y0059573D01*
X0232734Y0059843D01*
X0232029Y0059843D01*
X0231378Y0059573D01*
X0230880Y0059075D01*
X0230610Y0058424D01*
X0230610Y0057719D01*
X0230880Y0057068D01*
X0231378Y0056569D01*
X0232029Y0056300D01*
D02*
G37*
G36*
X0237246Y0070768D02*
X0237951Y0070768D01*
X0238602Y0071038D01*
X0239100Y0071536D01*
X0239370Y0072187D01*
X0239370Y0072892D01*
X0239100Y0073543D01*
X0238602Y0074042D01*
X0237951Y0074311D01*
X0237246Y0074311D01*
X0236595Y0074042D01*
X0236096Y0073543D01*
X0235827Y0072892D01*
X0235827Y0072187D01*
X0236096Y0071536D01*
X0236595Y0071038D01*
X0237246Y0070768D01*
D02*
G37*
G36*
X0282528Y0081756D02*
X0283233Y0081756D01*
X0283884Y0082025D01*
X0284382Y0082524D01*
X0284652Y0083175D01*
X0284652Y0083880D01*
X0284382Y0084531D01*
X0283884Y0085029D01*
X0283233Y0085299D01*
X0282528Y0085299D01*
X0281877Y0085029D01*
X0281379Y0084531D01*
X0281109Y0083880D01*
X0281109Y0083175D01*
X0281379Y0082524D01*
X0281877Y0082025D01*
X0282528Y0081756D01*
D02*
G37*
G36*
X0241410Y0137691D02*
X0242115Y0137691D01*
X0242766Y0137961D01*
X0243265Y0138459D01*
X0243534Y0139111D01*
X0243534Y0139815D01*
X0243265Y0140467D01*
X0242766Y0140965D01*
X0242115Y0141235D01*
X0241410Y0141235D01*
X0240759Y0140965D01*
X0240261Y0140467D01*
X0239991Y0139815D01*
X0239991Y0139111D01*
X0240261Y0138459D01*
X0240759Y0137961D01*
X0241410Y0137691D01*
D02*
G37*
G36*
X0252661Y0157966D02*
X0253366Y0157966D01*
X0254017Y0158236D01*
X0254516Y0158734D01*
X0254786Y0159385D01*
X0254786Y0160090D01*
X0254516Y0160741D01*
X0254017Y0161239D01*
X0253366Y0161509D01*
X0252661Y0161509D01*
X0252010Y0161239D01*
X0251512Y0160741D01*
X0251242Y0160090D01*
X0251242Y0159385D01*
X0251512Y0158734D01*
X0252010Y0158236D01*
X0252661Y0157966D01*
D02*
G37*
G36*
X0266084Y0160630D02*
X0266789Y0160630D01*
X0267440Y0160900D01*
X0267939Y0161398D01*
X0268209Y0162050D01*
X0268209Y0162754D01*
X0267939Y0163406D01*
X0267440Y0163904D01*
X0266789Y0164174D01*
X0266084Y0164174D01*
X0265433Y0163904D01*
X0264935Y0163406D01*
X0264665Y0162754D01*
X0264665Y0162050D01*
X0264935Y0161398D01*
X0265433Y0160900D01*
X0266084Y0160630D01*
D02*
G37*
G36*
X0238147Y0175515D02*
X0238851Y0175515D01*
X0239502Y0175784D01*
X0240001Y0176282D01*
X0240271Y0176934D01*
X0240271Y0177638D01*
X0240001Y0178290D01*
X0239502Y0178788D01*
X0238851Y0179058D01*
X0238147Y0179058D01*
X0237495Y0178788D01*
X0236997Y0178290D01*
X0236727Y0177638D01*
X0236727Y0176934D01*
X0236997Y0176282D01*
X0237495Y0175784D01*
X0238147Y0175515D01*
D02*
G37*
G36*
X0256131Y0177973D02*
X0256836Y0177973D01*
X0257487Y0178242D01*
X0257985Y0178741D01*
X0258255Y0179392D01*
X0258255Y0180096D01*
X0257985Y0180748D01*
X0257487Y0181246D01*
X0256836Y0181516D01*
X0256131Y0181516D01*
X0255480Y0181246D01*
X0254982Y0180748D01*
X0254712Y0180096D01*
X0254712Y0179392D01*
X0254982Y0178741D01*
X0255480Y0178242D01*
X0256131Y0177973D01*
D02*
G37*
G36*
X0260858Y0177993D02*
X0261563Y0177993D01*
X0262214Y0178263D01*
X0262712Y0178761D01*
X0262982Y0179412D01*
X0262982Y0180117D01*
X0262712Y0180768D01*
X0262214Y0181267D01*
X0261563Y0181536D01*
X0260858Y0181536D01*
X0260207Y0181267D01*
X0259708Y0180768D01*
X0259439Y0180117D01*
X0259439Y0179412D01*
X0259708Y0178761D01*
X0260207Y0178263D01*
X0260858Y0177993D01*
D02*
G37*
G36*
X0251705Y0178036D02*
X0252410Y0178036D01*
X0253061Y0178305D01*
X0253559Y0178804D01*
X0253829Y0179455D01*
X0253829Y0180160D01*
X0253559Y0180811D01*
X0253061Y0181309D01*
X0252410Y0181579D01*
X0251705Y0181579D01*
X0251054Y0181309D01*
X0250556Y0180811D01*
X0250286Y0180160D01*
X0250286Y0179455D01*
X0250556Y0178804D01*
X0251054Y0178305D01*
X0251705Y0178036D01*
D02*
G37*
G36*
X0247194Y0178136D02*
X0247899Y0178136D01*
X0248550Y0178406D01*
X0249048Y0178904D01*
X0249318Y0179555D01*
X0249318Y0180260D01*
X0249048Y0180911D01*
X0248550Y0181410D01*
X0247899Y0181679D01*
X0247194Y0181679D01*
X0246543Y0181410D01*
X0246044Y0180911D01*
X0245775Y0180260D01*
X0245775Y0179555D01*
X0246044Y0178904D01*
X0246543Y0178406D01*
X0247194Y0178136D01*
D02*
G37*
G36*
X0222187Y0183830D02*
X0222892Y0183830D01*
X0223543Y0184099D01*
X0224041Y0184598D01*
X0224311Y0185249D01*
X0224311Y0185954D01*
X0224041Y0186605D01*
X0223543Y0187103D01*
X0222892Y0187373D01*
X0222187Y0187373D01*
X0221536Y0187103D01*
X0221037Y0186605D01*
X0220768Y0185954D01*
X0220768Y0185249D01*
X0221037Y0184598D01*
X0221536Y0184099D01*
X0222187Y0183830D01*
D02*
G37*
G36*
X0308752Y0138189D02*
X0309456Y0138189D01*
X0310108Y0138459D01*
X0310606Y0138957D01*
X0310876Y0139609D01*
X0310876Y0140313D01*
X0310606Y0140965D01*
X0310108Y0141463D01*
X0309456Y0141733D01*
X0308752Y0141733D01*
X0308101Y0141463D01*
X0307602Y0140965D01*
X0307332Y0140313D01*
X0307332Y0139609D01*
X0307602Y0138957D01*
X0308101Y0138459D01*
X0308752Y0138189D01*
D02*
G37*
%LPD*%
D68*
X0321844Y0062038D02*
X0310698Y0062038D01*
X0308071Y0064666D01*
X0321916Y0062110D02*
X0321844Y0062038D01*
X0308071Y0064666D02*
X0298622Y0064666D01*
X0289665Y0073622D01*
X0289665Y0073819D02*
X0289665Y0073622D01*
X0333776Y0065470D02*
X0333776Y0065234D01*
X0343701Y0075394D02*
X0333776Y0065470D01*
X0349901Y0075394D02*
X0343701Y0075394D01*
X0351870Y0073426D02*
X0349901Y0075394D01*
X0317476Y0103359D02*
X0314184Y0103359D01*
X0317937Y0102898D02*
X0317476Y0103359D01*
X0321798Y0089356D02*
X0317937Y0093216D01*
X0317937Y0102898D02*
X0317937Y0093216D01*
X0313629Y0104639D02*
X0307268Y0098278D01*
X0318707Y0104639D02*
X0313629Y0104639D01*
X0314184Y0103359D02*
X0307823Y0096998D01*
X0307268Y0098278D02*
X0302864Y0098278D01*
X0307823Y0096998D02*
X0302333Y0096998D01*
X0258907Y0094318D02*
X0258907Y0087444D01*
X0254447Y0082984D01*
X0297915Y0101416D02*
X0267815Y0101416D01*
X0260187Y0093788D02*
X0260187Y0085255D01*
X0267286Y0102696D02*
X0258907Y0094318D01*
X0267815Y0101416D02*
X0260187Y0093788D01*
X0298445Y0102696D02*
X0267286Y0102696D01*
X0260187Y0085255D02*
X0254851Y0079919D01*
X0325122Y0104543D02*
X0325122Y0104228D01*
X0322977Y0102082D02*
X0321264Y0102082D01*
X0318707Y0104639D01*
X0325122Y0104228D02*
X0322977Y0102082D01*
X0302333Y0096998D02*
X0297915Y0101416D01*
X0302864Y0098278D02*
X0298445Y0102696D01*
D91*
X0340372Y0092896D02*
X0333372Y0099896D01*
X0267618Y0186811D02*
X0267618Y0185827D01*
X0277067Y0185827D02*
X0272342Y0185827D01*
X0281791Y0185827D02*
X0277067Y0185827D01*
X0272342Y0185827D02*
X0267618Y0185827D01*
X0272342Y0186811D02*
X0272342Y0185827D01*
X0277067Y0186811D02*
X0277067Y0185827D01*
X0281791Y0186811D02*
X0281791Y0185827D01*
X0286515Y0186968D02*
X0286515Y0185984D01*
X0300689Y0185827D02*
X0295964Y0185827D01*
X0291240Y0185827D02*
X0281791Y0185827D01*
X0295964Y0185827D02*
X0291240Y0185827D01*
X0291240Y0186811D02*
X0291240Y0185827D01*
X0295964Y0186811D02*
X0295964Y0185827D01*
X0300689Y0186811D02*
X0300689Y0185827D01*
X0310138Y0185827D02*
X0300689Y0185827D01*
X0310138Y0186968D02*
X0310138Y0185984D01*
X0342355Y0185827D02*
X0310138Y0185827D01*
X0314862Y0186968D02*
X0314862Y0185984D01*
X0324311Y0186968D02*
X0324311Y0185984D01*
X0329035Y0186968D02*
X0329035Y0185984D01*
X0338591Y0186696D02*
X0338484Y0186589D01*
X0253838Y0129725D02*
X0244390Y0129725D01*
X0264530Y0119034D02*
X0253838Y0129725D01*
X0277916Y0119034D02*
X0264530Y0119034D01*
X0285985Y0110964D02*
X0277916Y0119034D01*
X0299958Y0125844D02*
X0289628Y0125844D01*
X0299982Y0125869D02*
X0299958Y0125844D01*
X0299982Y0137207D02*
X0299982Y0125869D01*
X0319586Y0186771D02*
X0319586Y0185984D01*
X0305413Y0186771D02*
X0305413Y0185984D01*
X0343208Y0186574D02*
X0343208Y0180906D01*
X0299982Y0125869D02*
X0299982Y0117212D01*
X0293734Y0110964D01*
X0285985Y0110964D01*
X0345866Y0165061D02*
X0345846Y0165081D01*
X0345846Y0170193D02*
X0345846Y0165081D01*
X0348023Y0172371D02*
X0345846Y0170193D01*
X0348023Y0178937D02*
X0348023Y0172371D01*
X0340372Y0092896D02*
X0340372Y0085040D01*
X0343102Y0186574D02*
X0342355Y0185827D01*
X0343208Y0186574D02*
X0343102Y0186574D01*
X0345177Y0178937D02*
X0343208Y0180906D01*
X0351870Y0178937D02*
X0348023Y0178937D01*
X0345177Y0178937D01*
D39*
X0299704Y0048622D02*
D03*
D40*
X0313484Y0048622D02*
D03*
D34*
X0219586Y0154725D02*
D03*
D38*
X0261319Y0048622D02*
D03*
X0345571Y0189567D02*
D03*
D37*
X0231791Y0189567D02*
D03*
X0337303Y0048622D02*
D03*
D42*
X0352657Y0153937D02*
D03*
D41*
X0352657Y0185433D02*
D03*
D43*
X0352657Y0100197D02*
D03*
D33*
X0219586Y0177559D02*
D03*
D36*
X0219586Y0062008D02*
D03*
D44*
X0352657Y0082678D02*
D03*
X0352657Y0058662D02*
D03*
D35*
X0352657Y0070670D02*
D03*
X0219586Y0096260D02*
D03*
D115*
X0254571Y0059665D02*
X0255211Y0059025D01*
X0259580Y0058385D02*
X0258941Y0059025D01*
X0258941Y0057745D02*
X0259580Y0058385D01*
X0255211Y0057745D02*
X0254571Y0057106D01*
X0311722Y0084734D02*
X0311722Y0077309D01*
X0314598Y0074398D02*
X0311920Y0074398D01*
X0307679Y0078639D01*
X0311758Y0077274D02*
X0311722Y0077309D01*
X0304914Y0073588D02*
X0303790Y0074712D01*
X0304914Y0073588D02*
X0304914Y0070639D01*
X0303790Y0074712D02*
X0302200Y0074712D01*
X0305280Y0070273D02*
X0304914Y0070639D01*
X0303344Y0070817D02*
X0299536Y0070817D01*
X0304872Y0069289D02*
X0303344Y0070817D01*
X0299289Y0071802D02*
X0297761Y0071802D01*
X0302200Y0074712D02*
X0299289Y0071802D01*
X0310461Y0070273D02*
X0305280Y0070273D01*
X0301673Y0068898D02*
X0301501Y0068726D01*
X0300115Y0068726D02*
X0299083Y0067695D01*
X0301501Y0068726D02*
X0300115Y0068726D01*
X0297761Y0071802D02*
X0296369Y0070409D01*
X0299536Y0070817D02*
X0298333Y0069614D01*
X0299083Y0067695D02*
X0297493Y0067695D01*
X0296369Y0070409D02*
X0296369Y0068819D01*
X0297493Y0067695D02*
X0296369Y0068819D01*
X0308366Y0075046D02*
X0308366Y0074990D01*
X0309942Y0073414D02*
X0308366Y0074990D01*
X0311726Y0070146D02*
X0310869Y0069289D01*
X0329232Y0086248D02*
X0315298Y0072314D01*
X0310869Y0069289D02*
X0304872Y0069289D01*
X0315298Y0072314D02*
X0308560Y0072314D01*
X0308439Y0072193D01*
X0311318Y0071130D02*
X0310461Y0070273D01*
X0315006Y0073414D02*
X0309942Y0073414D01*
X0298333Y0069614D02*
X0298288Y0069614D01*
X0292157Y0062916D02*
X0290976Y0062916D01*
X0290343Y0063550D02*
X0289020Y0063550D01*
X0290976Y0062916D02*
X0290343Y0063550D01*
X0292514Y0062559D02*
X0292157Y0062916D01*
X0289020Y0063550D02*
X0270275Y0082295D01*
X0305642Y0059286D02*
X0288647Y0059286D01*
X0264485Y0083448D01*
X0310384Y0049910D02*
X0310384Y0048770D01*
X0310531Y0048622D02*
X0310384Y0048770D01*
X0313484Y0048622D02*
X0310531Y0048622D01*
X0307374Y0051329D02*
X0305955Y0049910D01*
X0308964Y0051329D02*
X0307374Y0051329D01*
X0310384Y0049910D02*
X0308964Y0051329D01*
X0305807Y0048622D02*
X0299704Y0048622D01*
X0305955Y0048770D02*
X0305807Y0048622D01*
X0305955Y0049910D02*
X0305955Y0048770D01*
X0271555Y0136811D02*
X0271555Y0134449D01*
X0268799Y0135630D02*
X0260925Y0135630D01*
X0273559Y0138816D02*
X0271555Y0136811D01*
X0229035Y0107677D02*
X0220374Y0099016D01*
X0234137Y0107677D02*
X0229035Y0107677D01*
X0283960Y0093644D02*
X0270299Y0093644D01*
X0292466Y0085138D02*
X0283960Y0093644D01*
X0332480Y0103618D02*
X0330216Y0101354D01*
X0333464Y0119890D02*
X0321708Y0131646D01*
X0333464Y0103051D02*
X0331201Y0100788D01*
X0323122Y0121082D02*
X0322253Y0121082D01*
X0321895Y0121440D01*
X0332480Y0111724D02*
X0332480Y0103618D01*
X0332480Y0111724D02*
X0323122Y0121082D01*
X0333464Y0119890D02*
X0333464Y0103051D01*
X0324679Y0108744D02*
X0321895Y0108744D01*
X0306912Y0144019D02*
X0302264Y0139371D01*
X0302264Y0127939D01*
X0304738Y0125465D02*
X0302264Y0127939D01*
X0242223Y0114190D02*
X0227213Y0129200D01*
X0227213Y0129972D02*
X0220374Y0136811D01*
X0227213Y0129972D02*
X0227213Y0129200D01*
X0237507Y0124474D02*
X0231404Y0130577D01*
X0231404Y0176589D02*
X0231404Y0130577D01*
X0230420Y0174391D02*
X0230420Y0130169D01*
X0238138Y0122451D02*
X0230420Y0130169D01*
X0251738Y0124474D02*
X0237507Y0124474D01*
X0238786Y0120410D02*
X0229435Y0129762D01*
X0228451Y0169991D02*
X0228451Y0129354D01*
X0229435Y0172191D02*
X0229435Y0129762D01*
X0275055Y0114190D02*
X0242223Y0114190D01*
X0257740Y0118268D02*
X0239537Y0118268D01*
X0228451Y0129354D01*
X0253761Y0122451D02*
X0238138Y0122451D01*
X0255802Y0120410D02*
X0238786Y0120410D01*
X0223130Y0114371D02*
X0220374Y0111614D01*
X0243602Y0109646D02*
X0238878Y0114371D01*
X0223130Y0114371D01*
X0234547Y0112008D02*
X0223917Y0112008D01*
X0232734Y0109802D02*
X0224860Y0109802D01*
X0231427Y0102253D02*
X0230253Y0102253D01*
X0235833Y0106659D02*
X0231427Y0102253D01*
X0230253Y0102253D02*
X0225953Y0097953D01*
X0245921Y0101008D02*
X0230400Y0101008D01*
X0247654Y0102740D02*
X0245921Y0101008D01*
X0230400Y0101008D02*
X0226937Y0097545D01*
X0247933Y0097835D02*
X0246112Y0099656D01*
X0230440Y0099656D01*
X0226937Y0097545D02*
X0226937Y0096585D01*
X0225953Y0096992D02*
X0222823Y0093862D01*
X0220732Y0093862D01*
X0226937Y0096585D02*
X0220707Y0090355D01*
X0227921Y0097138D02*
X0227921Y0096145D01*
X0225953Y0097953D02*
X0225953Y0096992D01*
X0224901Y0093125D02*
X0224901Y0089468D01*
X0227921Y0096145D02*
X0224901Y0093125D01*
X0220707Y0090355D02*
X0220374Y0090355D01*
X0225886Y0092717D02*
X0225886Y0088088D01*
X0236394Y0094850D02*
X0228019Y0094850D01*
X0225886Y0092717D01*
X0228472Y0092198D02*
X0228418Y0092198D01*
X0235038Y0108579D02*
X0234137Y0107677D01*
X0250033Y0103581D02*
X0245035Y0108579D01*
X0235038Y0108579D01*
X0220732Y0093862D02*
X0220374Y0093504D01*
X0230440Y0099656D02*
X0227921Y0097138D01*
X0237947Y0092827D02*
X0232295Y0092827D01*
X0220374Y0080906D01*
X0239412Y0094292D02*
X0237947Y0092827D01*
X0223917Y0112008D02*
X0220374Y0108465D01*
X0224860Y0109802D02*
X0220374Y0105315D01*
X0224901Y0089468D02*
X0222638Y0087205D01*
X0225886Y0088088D02*
X0221978Y0084181D01*
X0222638Y0087205D02*
X0220374Y0087205D01*
X0221978Y0084181D02*
X0220499Y0084181D01*
X0220374Y0084056D01*
X0252260Y0073009D02*
X0249377Y0070126D01*
X0250295Y0049877D02*
X0249377Y0050795D01*
X0249377Y0070126D02*
X0249377Y0050795D01*
X0253445Y0056986D02*
X0253445Y0049410D01*
X0250295Y0049877D02*
X0250295Y0049410D01*
X0253445Y0056986D02*
X0252652Y0057779D01*
X0255313Y0073120D02*
X0252652Y0070459D01*
X0252652Y0057779D01*
X0254571Y0053021D02*
X0254571Y0051433D01*
X0256594Y0049410D02*
X0254571Y0051433D01*
X0264075Y0124213D02*
X0255019Y0133268D01*
X0275886Y0124213D02*
X0264075Y0124213D01*
X0290317Y0142084D02*
X0287049Y0138816D01*
X0273559Y0138816D01*
X0297005Y0121504D02*
X0286075Y0121504D01*
X0297167Y0121666D02*
X0297005Y0121504D01*
X0247146Y0159217D02*
X0245964Y0160398D01*
X0245964Y0168455D02*
X0245964Y0160398D01*
X0247146Y0159217D02*
X0247146Y0148386D01*
X0243085Y0158342D02*
X0243085Y0154079D01*
X0244951Y0160208D02*
X0243085Y0158342D01*
X0244998Y0152166D02*
X0243085Y0154079D01*
X0248186Y0172068D02*
X0244951Y0168834D01*
X0244951Y0160208D01*
X0248594Y0171084D02*
X0245964Y0168455D01*
X0247146Y0148386D02*
X0245063Y0146303D01*
X0262324Y0172068D02*
X0248186Y0172068D01*
X0262893Y0171084D02*
X0248594Y0171084D01*
X0270235Y0179979D02*
X0262324Y0172068D01*
X0284698Y0176575D02*
X0268385Y0176575D01*
X0262893Y0171084D01*
X0325295Y0174046D02*
X0319361Y0179979D01*
X0297041Y0178995D02*
X0292815Y0174769D01*
X0319361Y0179979D02*
X0270235Y0179979D01*
X0322939Y0171851D02*
X0315794Y0178995D01*
X0297041Y0178995D01*
X0300709Y0175985D02*
X0296712Y0171988D01*
X0309130Y0174067D02*
X0306735Y0174067D01*
X0316043Y0172047D02*
X0311121Y0176969D01*
X0309817Y0171988D02*
X0299636Y0171988D01*
X0313484Y0168321D02*
X0309817Y0171988D01*
X0297861Y0176969D02*
X0294783Y0173892D01*
X0308605Y0175985D02*
X0300709Y0175985D01*
X0306735Y0174067D02*
X0306733Y0174065D01*
X0297391Y0177953D02*
X0293799Y0174361D01*
X0316922Y0167667D02*
X0308605Y0175985D01*
X0311121Y0176969D02*
X0297861Y0176969D01*
X0313487Y0177953D02*
X0297391Y0177953D01*
X0319043Y0172397D02*
X0313487Y0177953D01*
X0271832Y0174016D02*
X0271832Y0162498D01*
X0287159Y0174115D02*
X0284698Y0176575D01*
X0249606Y0154276D02*
X0249508Y0154178D01*
X0286122Y0171457D02*
X0282579Y0175000D01*
X0281125Y0171542D02*
X0280767Y0171900D01*
X0281791Y0173819D02*
X0279646Y0173819D01*
X0284941Y0170670D02*
X0281791Y0173819D01*
X0279646Y0173819D02*
X0277815Y0171988D01*
X0277461Y0175000D02*
X0273130Y0170670D01*
X0282579Y0175000D02*
X0277461Y0175000D01*
X0281125Y0171542D02*
X0281125Y0168183D01*
X0273130Y0161711D02*
X0263768Y0152349D01*
X0263768Y0148707D02*
X0261024Y0145962D01*
X0263768Y0152349D02*
X0263768Y0148707D01*
X0273130Y0170670D02*
X0273130Y0161711D01*
X0271832Y0162498D02*
X0261024Y0151689D01*
X0288296Y0171457D02*
X0286122Y0171457D01*
X0290444Y0173605D02*
X0288296Y0171457D01*
X0284941Y0170670D02*
X0284941Y0155201D01*
X0286075Y0121504D02*
X0277461Y0130119D01*
X0262527Y0130119D01*
X0258021Y0134625D01*
X0258021Y0143699D02*
X0258021Y0134625D01*
X0258120Y0143798D02*
X0258021Y0143699D01*
X0261712Y0128544D02*
X0256201Y0134056D01*
X0255019Y0141995D02*
X0255019Y0133268D01*
X0275886Y0128544D02*
X0261712Y0128544D01*
X0256201Y0152618D02*
X0256201Y0134056D01*
X0292815Y0151624D02*
X0288583Y0147392D01*
X0288583Y0147168D01*
X0289567Y0145249D02*
X0282015Y0145249D01*
X0293799Y0149481D02*
X0289567Y0145249D01*
X0282015Y0145249D02*
X0280961Y0146303D01*
X0290317Y0144607D02*
X0290317Y0142084D01*
X0285256Y0135630D02*
X0275925Y0135630D01*
X0291303Y0141677D02*
X0285256Y0135630D01*
X0291303Y0142878D02*
X0291303Y0141677D01*
X0317238Y0143563D02*
X0314862Y0145938D01*
X0331397Y0145474D02*
X0329486Y0143563D01*
X0317238Y0143563D01*
X0331397Y0155709D02*
X0331397Y0145474D01*
X0316535Y0147417D02*
X0316535Y0147146D01*
X0305485Y0145938D02*
X0296358Y0136811D01*
X0316535Y0147417D02*
X0313484Y0150468D01*
X0314862Y0145938D02*
X0305485Y0145938D01*
X0350590Y0152159D02*
X0350590Y0145962D01*
X0350590Y0152159D02*
X0341815Y0160934D01*
X0341815Y0172850D02*
X0341815Y0160934D01*
X0308087Y0149124D02*
X0304322Y0149124D01*
X0300694Y0145497D01*
X0300238Y0154528D02*
X0290317Y0144607D01*
X0300590Y0152166D02*
X0291303Y0142878D01*
X0303642Y0154528D02*
X0300238Y0154528D01*
X0304626Y0152166D02*
X0300590Y0152166D01*
X0307110Y0144019D02*
X0306912Y0144019D01*
X0313550Y0143955D02*
X0313550Y0139043D01*
X0309187Y0134679D01*
X0256201Y0152618D02*
X0254612Y0154206D01*
X0255019Y0141995D02*
X0252929Y0144085D01*
X0278222Y0126207D02*
X0275886Y0128544D01*
X0273093Y0116376D02*
X0266400Y0116376D01*
X0272622Y0139453D02*
X0268799Y0135630D01*
X0272622Y0146303D02*
X0272622Y0139453D01*
X0294783Y0173892D02*
X0294783Y0169727D01*
X0297778Y0166733D02*
X0294783Y0169727D01*
X0292815Y0174769D02*
X0292815Y0151624D01*
X0293799Y0174361D02*
X0293799Y0149481D01*
X0288583Y0151560D02*
X0284941Y0155201D01*
X0281125Y0168183D02*
X0274704Y0161763D01*
X0274704Y0154313D01*
X0272557Y0152166D01*
X0301476Y0166733D02*
X0297778Y0166733D01*
X0326053Y0171851D02*
X0322939Y0171851D01*
X0328248Y0174046D02*
X0326053Y0171851D01*
X0280961Y0146303D02*
X0272622Y0146303D01*
X0308763Y0167985D02*
X0305807Y0165029D01*
X0309041Y0168263D02*
X0308763Y0167985D01*
X0305807Y0165029D02*
X0305807Y0153347D01*
X0304626Y0152166D01*
X0340536Y0156663D02*
X0340536Y0155239D01*
X0344492Y0151283D02*
X0340536Y0155239D01*
X0340536Y0172321D02*
X0340536Y0156663D01*
X0332352Y0156663D02*
X0331397Y0155709D01*
X0340536Y0156663D02*
X0332352Y0156663D01*
X0339329Y0152685D02*
X0338077Y0153937D01*
X0338090Y0148912D02*
X0333317Y0153685D01*
X0339329Y0152685D02*
X0339329Y0138343D01*
X0333317Y0153939D02*
X0333317Y0153685D01*
X0334153Y0165552D02*
X0330382Y0161780D01*
X0330382Y0148158D02*
X0328527Y0146303D01*
X0330382Y0161780D02*
X0330382Y0148158D01*
X0336157Y0144085D02*
X0329277Y0137205D01*
X0319980Y0137205D01*
X0313484Y0168321D02*
X0313484Y0150468D01*
X0326890Y0159863D02*
X0319837Y0152810D01*
X0326890Y0164370D02*
X0326890Y0159863D01*
X0319837Y0152810D02*
X0316532Y0152810D01*
X0312500Y0153537D02*
X0308087Y0149124D01*
X0312500Y0167914D02*
X0312500Y0153537D01*
X0296358Y0136811D02*
X0289468Y0136811D01*
X0290649Y0135630D02*
X0289468Y0136811D01*
X0290925Y0135630D02*
X0290649Y0135630D01*
X0305413Y0170670D02*
X0301476Y0166733D01*
X0337990Y0174866D02*
X0334253Y0174866D01*
X0337984Y0176681D02*
X0334260Y0176681D01*
X0325245Y0167667D01*
X0334253Y0174866D02*
X0325727Y0166339D01*
X0325245Y0167667D02*
X0316922Y0167667D01*
X0325727Y0166339D02*
X0316858Y0166339D01*
X0312500Y0167914D02*
X0309744Y0170670D01*
X0305413Y0170670D01*
X0316858Y0166339D02*
X0309130Y0174067D01*
X0309187Y0127199D02*
X0302264Y0120276D01*
X0309187Y0134679D02*
X0309187Y0127199D01*
X0302264Y0120276D02*
X0302264Y0108173D01*
X0313843Y0128869D02*
X0304921Y0119947D01*
X0319466Y0138955D02*
X0313843Y0133332D01*
X0313843Y0128869D01*
X0319466Y0139054D02*
X0319466Y0138955D01*
X0320388Y0136221D02*
X0315846Y0131679D01*
X0319980Y0137205D02*
X0314862Y0132087D01*
X0307382Y0120670D02*
X0307382Y0113686D01*
X0315846Y0131679D02*
X0315846Y0122441D01*
X0314862Y0128150D02*
X0307382Y0120670D01*
X0314862Y0132087D02*
X0314862Y0128150D01*
X0321766Y0135237D02*
X0317095Y0130565D01*
X0317095Y0116567D01*
X0304921Y0105516D02*
X0302264Y0108173D01*
X0304921Y0119947D02*
X0304921Y0119908D01*
X0315846Y0122441D02*
X0308366Y0114961D01*
X0308366Y0111816D02*
X0304921Y0108371D01*
X0307382Y0113686D02*
X0304921Y0111225D01*
X0334508Y0171988D02*
X0326890Y0164370D01*
X0341815Y0172850D02*
X0337984Y0176681D01*
X0340536Y0172321D02*
X0337990Y0174866D01*
X0337794Y0171566D02*
X0337794Y0166436D01*
X0337794Y0171566D02*
X0337372Y0171988D01*
X0337794Y0166436D02*
X0336909Y0165552D01*
X0308366Y0114961D02*
X0308366Y0111816D01*
X0338090Y0148912D02*
X0338090Y0138780D01*
X0339329Y0138343D02*
X0336222Y0135237D01*
X0338090Y0138780D02*
X0335531Y0136221D01*
X0320388Y0136221D01*
X0336222Y0135237D02*
X0321766Y0135237D01*
X0321708Y0128759D02*
X0318208Y0125260D01*
X0318208Y0116289D01*
X0319193Y0123166D02*
X0319193Y0115881D01*
X0321708Y0125682D02*
X0319193Y0123166D01*
X0317095Y0116567D02*
X0307972Y0107445D01*
X0318208Y0116289D02*
X0308957Y0107037D01*
X0319193Y0115881D02*
X0309941Y0106629D01*
X0336909Y0165552D02*
X0334153Y0165552D01*
X0343799Y0173851D02*
X0343799Y0162286D01*
X0346931Y0159154D02*
X0343799Y0162286D01*
X0343994Y0174046D02*
X0343799Y0173851D01*
X0307972Y0107445D02*
X0307972Y0105562D01*
X0308957Y0107037D02*
X0308957Y0103052D01*
X0309941Y0106629D02*
X0309941Y0102644D01*
X0307972Y0105562D02*
X0304921Y0102510D01*
X0308957Y0103052D02*
X0306299Y0100394D01*
X0309941Y0102644D02*
X0306707Y0099410D01*
X0314791Y0098300D02*
X0311275Y0094784D01*
X0306299Y0100394D02*
X0303740Y0100394D01*
X0306707Y0099410D02*
X0303332Y0099410D01*
X0311817Y0098070D02*
X0311813Y0098070D01*
X0311275Y0094784D02*
X0303051Y0094784D01*
X0311813Y0098070D02*
X0309611Y0095866D01*
X0229435Y0172191D02*
X0226084Y0175542D01*
X0228451Y0169991D02*
X0226084Y0172358D01*
X0230420Y0174391D02*
X0226084Y0178726D01*
X0253445Y0090355D02*
X0253445Y0086811D01*
X0257775Y0088428D02*
X0254240Y0084892D01*
X0250026Y0084892D02*
X0247068Y0087850D01*
X0254240Y0084892D02*
X0250026Y0084892D01*
X0257775Y0097048D02*
X0257775Y0088428D01*
X0236745Y0085827D02*
X0228445Y0085827D01*
X0247068Y0087850D02*
X0238768Y0087850D01*
X0236745Y0085827D01*
X0250033Y0103581D02*
X0250033Y0090864D01*
X0228445Y0085827D02*
X0220374Y0077756D01*
X0253445Y0090355D02*
X0251018Y0092782D01*
X0251525Y0089371D02*
X0250033Y0090864D01*
X0251018Y0103988D02*
X0251018Y0092782D01*
X0251018Y0103988D02*
X0245360Y0109646D01*
X0248114Y0102740D02*
X0247654Y0102740D01*
X0257775Y0097048D02*
X0253838Y0100985D01*
X0245360Y0109646D02*
X0243602Y0109646D01*
X0264788Y0091801D02*
X0264485Y0091498D01*
X0264485Y0083448D01*
X0268193Y0086062D02*
X0268193Y0082985D01*
X0262697Y0092914D02*
X0262697Y0083746D01*
X0265830Y0080612D02*
X0262697Y0083746D01*
X0263911Y0081140D02*
X0261712Y0083338D01*
X0261712Y0093321D02*
X0261712Y0083338D01*
X0266043Y0096260D02*
X0262697Y0092914D01*
X0265635Y0097245D02*
X0261712Y0093321D01*
X0245073Y0094292D02*
X0239412Y0094292D01*
X0245366Y0094000D02*
X0245073Y0094292D01*
X0268506Y0091463D02*
X0268375Y0091332D01*
X0284749Y0091463D02*
X0268506Y0091463D01*
X0270275Y0088091D02*
X0270275Y0082295D01*
X0231404Y0176589D02*
X0226082Y0181910D01*
X0286602Y0105414D02*
X0284650Y0107365D01*
X0298720Y0105414D02*
X0286602Y0105414D01*
X0285271Y0105071D02*
X0272364Y0105071D01*
X0298313Y0104429D02*
X0285912Y0104429D01*
X0284650Y0107365D02*
X0274591Y0107365D01*
X0285912Y0104429D02*
X0285271Y0105071D01*
X0303740Y0100394D02*
X0298720Y0105414D01*
X0303332Y0099410D02*
X0298313Y0104429D01*
X0303051Y0094784D02*
X0298885Y0090618D01*
X0302742Y0095866D02*
X0298477Y0091602D01*
X0309611Y0095866D02*
X0302742Y0095866D01*
X0292058Y0084154D02*
X0284749Y0091463D01*
X0326279Y0102985D02*
X0326279Y0087471D01*
X0327264Y0087063D02*
X0314598Y0074398D01*
X0327264Y0102577D02*
X0327264Y0087063D01*
X0331201Y0100788D02*
X0331201Y0085433D01*
X0330216Y0085840D02*
X0315506Y0071130D01*
X0331201Y0085433D02*
X0315914Y0070146D01*
X0311726Y0070146D01*
X0328248Y0086656D02*
X0315006Y0073414D01*
X0330216Y0101354D02*
X0330216Y0085840D01*
X0328248Y0102170D02*
X0328248Y0086656D01*
X0329232Y0101762D02*
X0329232Y0086248D01*
X0315506Y0071130D02*
X0311318Y0071130D01*
X0326279Y0087471D02*
X0323263Y0084455D01*
X0314861Y0084455D01*
X0322070Y0114247D02*
X0321895Y0114421D01*
X0323450Y0114247D02*
X0322070Y0114247D01*
X0324409Y0113288D02*
X0323450Y0114247D01*
X0324409Y0113288D02*
X0324409Y0111797D01*
X0328234Y0103548D02*
X0327264Y0102577D01*
X0327250Y0106173D02*
X0327250Y0103955D01*
X0330203Y0107396D02*
X0330203Y0102732D01*
X0329218Y0103140D02*
X0328248Y0102170D01*
X0330203Y0102732D02*
X0329232Y0101762D01*
X0327250Y0103955D02*
X0326279Y0102985D01*
X0328234Y0106581D02*
X0328234Y0103548D01*
X0329218Y0106988D02*
X0329218Y0103140D01*
X0330203Y0107396D02*
X0327018Y0110581D01*
X0327250Y0106173D02*
X0324679Y0108744D01*
X0328234Y0106581D02*
X0323575Y0111240D01*
X0329218Y0106988D02*
X0324409Y0111797D01*
X0327018Y0113464D02*
X0327018Y0110581D01*
X0327018Y0113464D02*
X0321895Y0118586D01*
X0321818Y0112503D02*
X0321630Y0112503D01*
X0323575Y0111240D02*
X0323082Y0111240D01*
X0321818Y0112503D01*
X0311722Y0084734D02*
X0306496Y0089961D01*
X0292073Y0091602D02*
X0286431Y0097245D01*
X0298477Y0091602D02*
X0292073Y0091602D01*
X0298885Y0090618D02*
X0291666Y0090618D01*
X0286024Y0096260D01*
X0297427Y0085138D02*
X0292466Y0085138D01*
X0297835Y0084154D02*
X0292058Y0084154D01*
X0306496Y0089961D02*
X0303642Y0089961D01*
X0311563Y0090985D02*
X0303274Y0090985D01*
X0297427Y0085138D01*
X0303642Y0089961D02*
X0297835Y0084154D01*
X0286431Y0097245D02*
X0265635Y0097245D01*
X0263911Y0081140D02*
X0263911Y0077881D01*
X0265830Y0080612D02*
X0265830Y0076390D01*
X0264496Y0075055D01*
X0286024Y0096260D02*
X0266043Y0096260D01*
X0289548Y0061630D02*
X0268193Y0082985D01*
X0252371Y0073009D02*
X0252260Y0073009D01*
X0249462Y0073120D02*
X0247146Y0070803D01*
X0254571Y0064469D02*
X0254571Y0059665D01*
X0258941Y0059025D02*
X0255211Y0059025D01*
X0259580Y0058385D02*
X0259580Y0058385D01*
X0258941Y0057745D02*
X0255211Y0057745D01*
X0254571Y0057106D02*
X0254571Y0053021D01*
X0254571Y0064641D02*
X0254571Y0064469D01*
X0247146Y0070803D02*
X0247146Y0049410D01*
D80*
X0296904Y0063413D02*
X0296904Y0061649D01*
X0296952Y0061601D02*
X0296904Y0061649D01*
X0296904Y0063413D02*
X0291259Y0069058D01*
X0307273Y0061784D02*
X0297693Y0061784D01*
X0312745Y0056312D02*
X0307273Y0061784D01*
X0324027Y0056312D02*
X0312745Y0056312D01*
X0289495Y0069058D02*
X0286712Y0071840D01*
X0291259Y0069058D02*
X0289495Y0069058D01*
X0286712Y0076461D02*
X0286712Y0071840D01*
X0298889Y0081777D02*
X0292029Y0081777D01*
X0286712Y0076461D01*
X0326058Y0054281D02*
X0324027Y0056312D01*
X0297103Y0061751D02*
X0296952Y0061601D01*
X0297660Y0061751D02*
X0297103Y0061751D01*
X0297693Y0061784D02*
X0297660Y0061751D01*
X0326272Y0054281D02*
X0326058Y0054281D01*
X0304939Y0087828D02*
X0298889Y0081777D01*
X0263934Y0069094D02*
X0257338Y0075689D01*
X0247638Y0075689D02*
X0244390Y0072441D01*
X0257338Y0075689D02*
X0247638Y0075689D01*
X0263934Y0069094D02*
X0263934Y0064430D01*
X0244390Y0072441D02*
X0244390Y0057632D01*
X0240315Y0053558D01*
D81*
X0305061Y0051730D02*
X0304835Y0051956D01*
X0304000Y0051956D01*
X0303889Y0052067D02*
X0288583Y0052067D01*
X0304000Y0051956D02*
X0303889Y0052067D01*
X0305367Y0051730D02*
X0305061Y0051730D01*
X0288583Y0052067D02*
X0276968Y0063682D01*
X0319439Y0052707D02*
X0306344Y0052707D01*
X0305367Y0051730D01*
X0291501Y0053934D02*
X0272797Y0072638D01*
X0304509Y0054380D02*
X0304063Y0053934D01*
X0320132Y0054380D02*
X0304509Y0054380D01*
X0304063Y0053934D02*
X0291501Y0053934D01*
X0322495Y0052017D02*
X0320132Y0054380D01*
X0328985Y0052017D02*
X0322495Y0052017D01*
X0331010Y0065871D02*
X0331010Y0054042D01*
X0322736Y0049410D02*
X0319439Y0052707D01*
X0272797Y0072638D02*
X0263583Y0072638D01*
X0258661Y0077559D01*
X0348500Y0083361D02*
X0331010Y0065871D01*
X0350590Y0083361D02*
X0348500Y0083361D01*
X0331010Y0054042D02*
X0328985Y0052017D01*
X0224043Y0076782D02*
X0223945Y0076880D01*
X0224043Y0076782D02*
X0224043Y0072932D01*
X0232119Y0063714D02*
X0228888Y0060483D01*
X0245964Y0077559D02*
X0242321Y0073916D01*
X0242321Y0068995D01*
X0237041Y0063714D01*
X0232119Y0063714D01*
X0224856Y0072119D02*
X0224043Y0072932D01*
X0224856Y0072119D02*
X0224856Y0067422D01*
X0224856Y0063683D01*
X0258661Y0077559D02*
X0245964Y0077559D01*
X0224856Y0063683D02*
X0222342Y0061169D01*
X0228888Y0060483D02*
X0228649Y0060483D01*
X0222342Y0061169D02*
X0222342Y0056398D01*
X0225183Y0053558D02*
X0222342Y0056398D01*
X0240315Y0053558D02*
X0225183Y0053558D01*
D14*
X0322736Y0049410D02*
D03*
X0351870Y0073426D02*
D03*
X0351870Y0178937D02*
D03*
X0220374Y0136811D02*
D03*
X0220374Y0105315D02*
D03*
X0220374Y0093504D02*
D03*
X0220374Y0108465D02*
D03*
X0220374Y0111614D02*
D03*
X0220374Y0077756D02*
D03*
X0220374Y0099016D02*
D03*
X0220374Y0080906D02*
D03*
X0220374Y0084056D02*
D03*
X0220374Y0087205D02*
D03*
X0220374Y0090355D02*
D03*
X0256594Y0049410D02*
D03*
X0250295Y0049410D02*
D03*
X0253445Y0049410D02*
D03*
X0247146Y0049410D02*
D03*
X0311758Y0077274D02*
D03*
X0301673Y0068898D02*
D03*
X0307648Y0081602D02*
D03*
X0308439Y0072193D02*
D03*
X0308366Y0075046D02*
D03*
X0307679Y0078639D02*
D03*
X0298288Y0069614D02*
D03*
X0305642Y0059286D02*
D03*
X0317290Y0058918D02*
D03*
X0274860Y0057825D02*
D03*
X0305061Y0051730D02*
D03*
X0296358Y0049804D02*
D03*
X0265256Y0133662D02*
D03*
X0271555Y0134449D02*
D03*
X0289665Y0073819D02*
D03*
X0291581Y0065256D02*
D03*
X0262500Y0051378D02*
D03*
X0243208Y0187205D02*
D03*
X0228364Y0104292D02*
D03*
X0350590Y0083361D02*
D03*
X0296952Y0061601D02*
D03*
X0351476Y0099016D02*
D03*
X0333776Y0065234D02*
D03*
X0328567Y0058726D02*
D03*
X0333372Y0099896D02*
D03*
X0326272Y0054281D02*
D03*
X0326354Y0049650D02*
D03*
X0321916Y0062110D02*
D03*
X0221161Y0158465D02*
D03*
X0351661Y0056291D02*
D03*
X0349036Y0072317D02*
D03*
X0351476Y0079725D02*
D03*
X0251870Y0080906D02*
D03*
X0273523Y0082087D02*
D03*
X0304838Y0130931D02*
D03*
X0304738Y0125465D02*
D03*
X0234547Y0112008D02*
D03*
X0232734Y0109802D02*
D03*
X0223945Y0076880D02*
D03*
X0221763Y0096237D02*
D03*
X0228472Y0092198D02*
D03*
X0235833Y0106659D02*
D03*
X0236394Y0094850D02*
D03*
X0233895Y0078450D02*
D03*
X0251416Y0052288D02*
D03*
X0272404Y0122270D02*
D03*
X0321768Y0093789D02*
D03*
X0321798Y0089356D02*
D03*
X0341634Y0082087D02*
D03*
X0237303Y0067914D02*
D03*
X0221766Y0074446D02*
D03*
X0297167Y0121666D02*
D03*
X0293704Y0118702D02*
D03*
X0306733Y0174065D02*
D03*
X0271832Y0174016D02*
D03*
X0249606Y0154276D02*
D03*
X0266266Y0169287D02*
D03*
X0280767Y0171900D02*
D03*
X0277815Y0171988D02*
D03*
X0288583Y0147168D02*
D03*
X0316535Y0147146D02*
D03*
X0300694Y0145497D02*
D03*
X0300590Y0152166D02*
D03*
X0307110Y0144019D02*
D03*
X0313550Y0143955D02*
D03*
X0258120Y0143798D02*
D03*
X0266400Y0116376D02*
D03*
X0273093Y0116376D02*
D03*
X0261024Y0145962D02*
D03*
X0279206Y0169193D02*
D03*
X0299636Y0171988D02*
D03*
X0296712Y0171988D02*
D03*
X0290444Y0173605D02*
D03*
X0288583Y0151560D02*
D03*
X0287159Y0174115D02*
D03*
X0272557Y0152166D02*
D03*
X0272622Y0146303D02*
D03*
X0275886Y0124213D02*
D03*
X0278222Y0126207D02*
D03*
X0255802Y0120410D02*
D03*
X0251738Y0124474D02*
D03*
X0253761Y0122451D02*
D03*
X0257740Y0118268D02*
D03*
X0275055Y0114190D02*
D03*
X0338077Y0153937D02*
D03*
X0333317Y0153939D02*
D03*
X0328527Y0146303D02*
D03*
X0289628Y0125844D02*
D03*
X0299982Y0137207D02*
D03*
X0325295Y0174046D02*
D03*
X0316043Y0172047D02*
D03*
X0319043Y0172397D02*
D03*
X0309041Y0168263D02*
D03*
X0311924Y0129664D02*
D03*
X0304921Y0111225D02*
D03*
X0304921Y0108371D02*
D03*
X0304921Y0119908D02*
D03*
X0316532Y0152810D02*
D03*
X0335727Y0169160D02*
D03*
X0337372Y0171988D02*
D03*
X0334508Y0171988D02*
D03*
X0311475Y0121670D02*
D03*
X0330566Y0133270D02*
D03*
X0319466Y0139054D02*
D03*
X0336157Y0144085D02*
D03*
X0345866Y0165061D02*
D03*
X0343994Y0174046D02*
D03*
X0344492Y0151283D02*
D03*
X0346931Y0159154D02*
D03*
X0351836Y0159539D02*
D03*
X0311733Y0114026D02*
D03*
X0311946Y0105921D02*
D03*
X0321708Y0125682D02*
D03*
X0314791Y0098300D02*
D03*
X0311817Y0098070D02*
D03*
X0277960Y0114304D02*
D03*
X0253445Y0086811D02*
D03*
X0254447Y0082984D02*
D03*
X0251525Y0089371D02*
D03*
X0248114Y0102740D02*
D03*
X0253838Y0100985D02*
D03*
X0264788Y0091801D02*
D03*
X0268193Y0086062D02*
D03*
X0247933Y0097835D02*
D03*
X0245366Y0094000D02*
D03*
X0270299Y0093644D02*
D03*
X0268375Y0091332D02*
D03*
X0270275Y0088091D02*
D03*
X0224856Y0067422D02*
D03*
X0321708Y0128759D02*
D03*
X0321708Y0131646D02*
D03*
X0304921Y0105516D02*
D03*
X0304921Y0102510D02*
D03*
X0274591Y0107365D02*
D03*
X0272364Y0105071D02*
D03*
X0294156Y0098833D02*
D03*
X0304939Y0087828D02*
D03*
X0293734Y0110964D02*
D03*
X0286648Y0083408D02*
D03*
X0292514Y0062559D02*
D03*
X0325122Y0104543D02*
D03*
X0321895Y0108676D02*
D03*
X0321895Y0114421D02*
D03*
X0321895Y0111549D02*
D03*
X0333357Y0096002D02*
D03*
X0330566Y0125658D02*
D03*
X0314861Y0084455D02*
D03*
X0330566Y0118047D02*
D03*
X0297490Y0093521D02*
D03*
X0263911Y0077881D02*
D03*
X0264496Y0075055D02*
D03*
X0255313Y0073120D02*
D03*
X0225559Y0152401D02*
D03*
X0254851Y0079919D02*
D03*
X0252371Y0073120D02*
D03*
X0263934Y0064430D02*
D03*
X0289548Y0061630D02*
D03*
X0311563Y0090985D02*
D03*
X0276968Y0063682D02*
D03*
X0240315Y0053558D02*
D03*
X0249462Y0073120D02*
D03*
X0254571Y0064641D02*
D03*
X0240050Y0062603D02*
D03*
X0228634Y0057629D02*
D03*
X0235413Y0088012D02*
D03*
X0228649Y0060483D02*
D03*
X0340372Y0085040D02*
D03*
X0313287Y0067914D02*
D03*
X0226084Y0169174D02*
D03*
X0345533Y0188468D02*
D03*
X0237172Y0171506D02*
D03*
X0229724Y0185172D02*
D03*
X0243278Y0181850D02*
D03*
X0248720Y0186771D02*
D03*
X0253445Y0186771D02*
D03*
X0262893Y0186771D02*
D03*
X0258169Y0186771D02*
D03*
X0351870Y0088193D02*
D03*
X0351619Y0138826D02*
D03*
X0351673Y0184793D02*
D03*
X0226084Y0172358D02*
D03*
X0244390Y0129725D02*
D03*
X0343208Y0186574D02*
D03*
X0261024Y0151689D02*
D03*
X0226084Y0181910D02*
D03*
X0226084Y0178726D02*
D03*
X0226084Y0175542D02*
D03*
X0245063Y0146303D02*
D03*
X0244998Y0152166D02*
D03*
X0321895Y0118586D02*
D03*
X0321895Y0121440D02*
D03*
X0254612Y0154206D02*
D03*
X0267618Y0186771D02*
D03*
X0252929Y0144085D02*
D03*
X0303642Y0154528D02*
D03*
X0350590Y0145962D02*
D03*
X0329035Y0186771D02*
D03*
X0333760Y0186771D02*
D03*
X0277067Y0186771D02*
D03*
X0291240Y0186771D02*
D03*
X0310138Y0186771D02*
D03*
X0328248Y0174046D02*
D03*
X0338484Y0186771D02*
D03*
X0286515Y0186771D02*
D03*
X0281791Y0186771D02*
D03*
X0272342Y0186771D02*
D03*
X0305413Y0186771D02*
D03*
X0300689Y0186771D02*
D03*
X0295964Y0186771D02*
D03*
X0324311Y0186771D02*
D03*
X0319586Y0186771D02*
D03*
X0314862Y0186771D02*
D03*
D55*
X0275138Y0135827D02*
D03*
X0260925Y0135827D02*
D03*
X0290925Y0135827D02*
D03*
X0538287Y0191535D02*
%LPD*%
G01*
D185*
X0526673Y0282716D03*
X0514862Y0274842D03*
X0526673Y0266968D03*
D45*
X0531791Y0298425D03*
X0519980Y0298425D03*
X0523917Y0298425D03*
X0527854Y0298425D03*
D51*
X0483464Y0246063D03*
D72*
X0525689Y0192224D03*
D49*
X0502224Y0192224D03*
D51*
X0537598Y0246063D03*
D48*
X0485137Y0192224D03*
X0485137Y0192224D03*
D73*
X0500196Y0299901D03*
D53*
X0536220Y0299901D03*
D45*
X0493799Y0193735D03*
X0497736Y0193735D03*
X0510712Y0193735D03*
X0506712Y0193735D03*
X0489862Y0193735D03*
D390*
X0488582Y0285196D03*
D391*
X0488582Y0275196D03*
X0488582Y0265196D03*
D14*
X0501870Y0194291D03*
X0536318Y0254035D03*
X0519250Y0290836D03*
X0484293Y0225098D03*
X0484350Y0207874D03*
X0504661Y0234055D03*
X0535531Y0194291D03*
X0514468Y0193110D03*
X0505019Y0265354D03*
X0503400Y0201010D03*
X0519922Y0209547D03*
X0486712Y0291240D03*
X0525295Y0261556D03*
X0486909Y0299114D03*
X0535137Y0212303D03*
X0536811Y0296063D03*
X0528246Y0247047D03*
X0536739Y0288661D03*
X0535531Y0217126D03*
X0489937Y0256105D03*
X0515256Y0244881D03*
X0507558Y0209506D03*
X0527460Y0226771D03*
X0536515Y0234252D03*
X0507677Y0214960D03*
X0536220Y0242126D03*
X0494742Y0243976D03*
X0484092Y0256357D03*
X0490716Y0208334D03*
X0485166Y0193854D03*
X0501281Y0242283D03*
X0488246Y0250315D03*
X0494803Y0240873D03*
X0527165Y0214370D03*
X0487491Y0198722D03*
X0534744Y0206848D03*
X0520374Y0261596D03*
X0497203Y0215059D03*
X0515649Y0239987D03*
X0517716Y0197184D03*
X0532029Y0203928D03*
X0528305Y0261556D03*
X0516297Y0261556D03*
X0505256Y0245472D03*
X0531315Y0261556D03*
X0507185Y0267913D03*
X0498503Y0247007D03*
X0491255Y0250233D03*
X0508071Y0234837D03*
X0491043Y0295866D03*
X0520177Y0293700D03*
X0511171Y0260858D03*
X0494301Y0237905D03*
X0534326Y0261556D03*
X0529078Y0244154D03*
X0509405Y0229671D03*
X0507084Y0231993D03*
X0490846Y0292716D03*
X0486281Y0259014D03*
X0515018Y0231989D03*
X0514280Y0213111D03*
X0500017Y0231970D03*
X0496418Y0201926D03*
X0520826Y0197182D03*
X0514782Y0216141D03*
X0522701Y0202560D03*
X0502698Y0260396D03*
X0494488Y0208759D03*
X0520918Y0250059D03*
X0496653Y0297145D03*
X0499409Y0294094D03*
X0496653Y0294094D03*
X0502165Y0294094D03*
X0499409Y0297145D03*
X0533625Y0196621D03*
X0492928Y0256448D03*
D89*
X0495263Y0235393D02*
X0501281Y0241411D01*
X0488246Y0250315D02*
X0488208Y0250277D01*
X0488208Y0238700D02*
X0491515Y0235393D01*
X0501281Y0241411D02*
X0501281Y0242283D01*
X0488208Y0250277D02*
X0488208Y0238700D01*
X0491515Y0235393D02*
X0495263Y0235393D01*
X0523917Y0290995D02*
X0523917Y0298425D01*
X0491830Y0246417D02*
X0496672Y0251258D01*
X0496672Y0251258D02*
X0496672Y0263750D01*
X0491830Y0241889D02*
X0491830Y0246417D01*
X0496672Y0263750D02*
X0523917Y0290995D01*
X0494803Y0240873D02*
X0492847Y0240873D01*
X0492847Y0240873D02*
X0491830Y0241889D01*
X0497244Y0215100D02*
X0497244Y0232500D01*
X0520374Y0258169D02*
X0525059Y0253483D01*
X0497637Y0193700D02*
X0497736Y0193700D01*
X0497145Y0208131D02*
X0492539Y0203525D01*
X0507263Y0242519D02*
X0524901Y0242519D01*
X0492616Y0198722D02*
X0497637Y0193700D01*
X0497203Y0215059D02*
X0497145Y0215001D01*
X0525059Y0222676D02*
X0527165Y0220570D01*
X0525059Y0253483D02*
X0525059Y0222676D01*
X0527165Y0220570D02*
X0527165Y0214370D01*
X0492539Y0203525D02*
X0492539Y0198661D01*
X0487491Y0198722D02*
X0492616Y0198722D01*
X0497244Y0232500D02*
X0507263Y0242519D01*
X0534744Y0206848D02*
X0534588Y0206848D01*
X0520374Y0261596D02*
X0520374Y0258169D01*
X0527165Y0214271D02*
X0527165Y0214370D01*
X0497203Y0215059D02*
X0497244Y0215100D01*
X0534588Y0206848D02*
X0527165Y0214271D01*
X0497145Y0215001D02*
X0497145Y0208131D01*
X0515649Y0239987D02*
X0518237Y0237399D01*
X0520126Y0205118D02*
X0530839Y0205118D01*
X0510826Y0204074D02*
X0517716Y0197184D01*
X0512696Y0225787D02*
X0510826Y0223917D01*
X0518237Y0211472D02*
X0517599Y0210834D01*
X0530839Y0205118D02*
X0532029Y0203928D01*
X0512696Y0237034D02*
X0512696Y0225787D01*
X0517599Y0210834D02*
X0517599Y0207644D01*
X0518237Y0237399D02*
X0518237Y0211472D01*
X0515649Y0239987D02*
X0512696Y0237034D01*
X0517599Y0207644D02*
X0520126Y0205118D01*
X0510826Y0223917D02*
X0510826Y0204074D01*
X0510395Y0247441D02*
X0522244Y0247441D01*
X0523425Y0248622D02*
X0523425Y0251082D01*
X0508427Y0245472D02*
X0510395Y0247441D01*
X0522244Y0247441D02*
X0523425Y0248622D01*
X0516297Y0258210D02*
X0516297Y0261556D01*
X0505256Y0245472D02*
X0508427Y0245472D01*
X0523425Y0251082D02*
X0516297Y0258210D01*
X0507480Y0267618D02*
X0520669Y0267618D01*
X0507185Y0267913D02*
X0507480Y0267618D01*
X0531315Y0268389D02*
X0531315Y0261556D01*
X0528838Y0270866D02*
X0531315Y0268389D01*
X0523917Y0270866D02*
X0528838Y0270866D01*
X0498503Y0247007D02*
X0498444Y0247066D01*
X0498444Y0263212D02*
X0503146Y0267913D01*
X0498444Y0247066D02*
X0498444Y0263212D01*
X0520669Y0267618D02*
X0523917Y0270866D01*
X0503146Y0267913D02*
X0507185Y0267913D01*
X0496592Y0290255D02*
X0504822Y0290255D01*
X0491043Y0295866D02*
X0491043Y0295805D01*
X0508267Y0293700D02*
X0520177Y0293700D01*
X0491043Y0295805D02*
X0496592Y0290255D01*
X0504822Y0290255D02*
X0508267Y0293700D01*
X0498729Y0243513D02*
X0500826Y0245609D01*
X0500826Y0247970D02*
X0500375Y0248421D01*
X0500375Y0262166D02*
X0501299Y0263090D01*
X0495463Y0237905D02*
X0498729Y0241171D01*
X0503543Y0263090D02*
X0505775Y0260858D01*
X0500375Y0248421D02*
X0500375Y0262166D01*
X0498729Y0241171D02*
X0498729Y0243513D01*
X0501299Y0263090D02*
X0503543Y0263090D01*
X0500826Y0245609D02*
X0500826Y0247970D01*
X0494301Y0237905D02*
X0495463Y0237905D01*
X0505775Y0260858D02*
X0511171Y0260858D01*
X0533366Y0248441D02*
X0533366Y0256496D01*
X0529078Y0244154D02*
X0533366Y0248441D01*
X0533366Y0256496D02*
X0534326Y0257456D01*
X0534326Y0257456D02*
X0534326Y0261556D01*
X0495037Y0262183D02*
X0495037Y0264427D01*
X0495669Y0265059D02*
X0495669Y0287893D01*
X0491835Y0258980D02*
X0495037Y0262183D01*
X0486314Y0258980D02*
X0491835Y0258980D01*
X0486281Y0259014D02*
X0486314Y0258980D01*
X0495037Y0264427D02*
X0495669Y0265059D01*
X0495669Y0287893D02*
X0490846Y0292716D01*
X0515018Y0225746D02*
X0512461Y0223189D01*
X0512461Y0223189D02*
X0512461Y0214930D01*
X0515018Y0231989D02*
X0515018Y0225746D01*
X0512461Y0214930D02*
X0514280Y0213111D01*
X0496418Y0201926D02*
X0496418Y0205093D01*
X0500573Y0209248D02*
X0500573Y0232084D01*
X0496418Y0205093D02*
X0500573Y0209248D01*
X0516603Y0214320D02*
X0516603Y0212149D01*
X0515965Y0206967D02*
X0520372Y0202560D01*
D71*
X0522701Y0202560D02*
X0522701Y0198685D01*
D89*
X0520372Y0202560D02*
X0522701Y0202560D01*
X0514782Y0216141D02*
X0516603Y0214320D01*
D71*
X0522701Y0198685D02*
X0521198Y0197182D01*
D89*
X0515965Y0211511D02*
X0515965Y0206967D01*
X0516603Y0212149D02*
X0515965Y0211511D01*
X0502460Y0244743D02*
X0503602Y0243601D01*
X0520760Y0249901D02*
X0503543Y0249901D01*
X0503602Y0243601D02*
X0503602Y0241169D01*
X0503346Y0259748D02*
X0503346Y0249704D01*
X0503602Y0241169D02*
X0494488Y0232055D01*
X0494488Y0232055D02*
X0494488Y0208759D01*
X0503543Y0249901D02*
X0503346Y0249704D01*
X0502698Y0260396D02*
X0503346Y0259748D01*
X0520918Y0250059D02*
X0520760Y0249901D01*
X0502460Y0248818D02*
X0502460Y0244743D01*
X0503346Y0249704D02*
X0502460Y0248818D01*
X0529232Y0199409D02*
X0526378Y0199409D01*
X0532020Y0196621D02*
X0529232Y0199409D01*
X0509827Y0196850D02*
X0506712Y0193735D01*
X0533625Y0196621D02*
X0532020Y0196621D01*
X0516263Y0194859D02*
X0514271Y0196850D01*
X0526378Y0199409D02*
X0521827Y0194859D01*
X0521827Y0194859D02*
X0516263Y0194859D01*
X0514271Y0196850D02*
X0509827Y0196850D01*
X0487815Y0195826D02*
X0489783Y0193858D01*
X0487933Y0204173D02*
X0485098Y0201339D01*
X0485374Y0237716D02*
X0487933Y0235157D01*
X0485098Y0201339D02*
X0485098Y0197149D01*
X0492928Y0256448D02*
X0492928Y0255810D01*
X0485098Y0197149D02*
X0486421Y0195826D01*
X0485374Y0251456D02*
X0485374Y0237716D01*
X0489783Y0193858D02*
X0489862Y0193858D01*
X0486421Y0195826D02*
X0487815Y0195826D01*
X0490424Y0253307D02*
X0487224Y0253307D01*
X0487933Y0235157D02*
X0487933Y0204173D01*
X0492928Y0255810D02*
X0490424Y0253307D01*
X0487224Y0253307D02*
X0485374Y0251456D01*
G36*
X0502082Y0265037D02*
G01*
X0503562Y0266517D01*
X0503777Y0266627D01*
X0503838Y0266631D01*
X0505511Y0266631D01*
X0505740Y0266557D01*
X0505769Y0266534D01*
X0506092Y0266249D01*
X0506603Y0266009D01*
X0506630Y0266005D01*
X0506630Y0266005D01*
X0506926Y0265959D01*
X0507160Y0265922D01*
X0507188Y0265926D01*
X0507188Y0265926D01*
X0507692Y0265992D01*
X0507720Y0265996D01*
X0507745Y0266007D01*
X0507745Y0266007D01*
X0508071Y0266150D01*
X0508237Y0266223D01*
X0508263Y0266245D01*
X0508263Y0266245D01*
X0508267Y0266247D01*
X0508281Y0266255D01*
X0508283Y0266253D01*
X0508486Y0266335D01*
X0508513Y0266336D01*
X0520596Y0266336D01*
X0520630Y0266335D01*
X0520782Y0266321D01*
X0520815Y0266330D01*
X0520930Y0266361D01*
X0520963Y0266368D01*
X0521073Y0266388D01*
X0521114Y0266395D01*
X0521143Y0266412D01*
X0521165Y0266420D01*
X0521186Y0266430D01*
X0521219Y0266438D01*
X0521311Y0266503D01*
X0521344Y0266526D01*
X0521373Y0266544D01*
X0521505Y0266621D01*
X0521541Y0266664D01*
X0521604Y0266738D01*
X0521627Y0266763D01*
X0522702Y0267838D01*
X0522917Y0267948D01*
X0523154Y0267910D01*
X0523325Y0267740D01*
X0523359Y0267482D01*
X0523329Y0267340D01*
X0523329Y0267340D01*
X0523324Y0267320D01*
X0523324Y0266616D01*
X0523438Y0266081D01*
X0523467Y0265948D01*
X0523467Y0265948D01*
X0523471Y0265928D01*
X0523479Y0265909D01*
X0523479Y0265909D01*
X0523749Y0265303D01*
X0523749Y0265303D01*
X0523757Y0265285D01*
X0524171Y0264715D01*
X0524186Y0264702D01*
X0524186Y0264702D01*
X0524542Y0264381D01*
X0524694Y0264244D01*
X0524712Y0264234D01*
X0524712Y0264234D01*
X0524771Y0264199D01*
X0525303Y0263892D01*
X0525323Y0263886D01*
X0525323Y0263886D01*
X0525953Y0263681D01*
X0525953Y0263681D01*
X0525973Y0263675D01*
X0526610Y0263608D01*
X0526655Y0263603D01*
X0526875Y0263505D01*
X0526996Y0263296D01*
X0526971Y0263057D01*
X0526869Y0262920D01*
X0526826Y0262883D01*
X0526826Y0262883D01*
X0526805Y0262865D01*
X0526498Y0262391D01*
X0526336Y0261851D01*
X0526334Y0261523D01*
X0526333Y0261314D01*
X0526333Y0261314D01*
X0526333Y0261286D01*
X0526340Y0261259D01*
X0526340Y0261259D01*
X0526480Y0260770D01*
X0526480Y0260770D01*
X0526488Y0260743D01*
X0526789Y0260266D01*
X0526810Y0260248D01*
X0526810Y0260248D01*
X0527191Y0259911D01*
X0527191Y0259911D01*
X0527212Y0259892D01*
X0527237Y0259881D01*
X0527237Y0259881D01*
X0527313Y0259845D01*
X0527723Y0259653D01*
X0527751Y0259648D01*
X0527751Y0259648D01*
X0528031Y0259605D01*
X0528281Y0259566D01*
X0528308Y0259569D01*
X0528308Y0259569D01*
X0528422Y0259584D01*
X0528840Y0259639D01*
X0528866Y0259650D01*
X0528866Y0259650D01*
X0529311Y0259846D01*
X0529357Y0259866D01*
X0529559Y0260036D01*
X0529782Y0260126D01*
X0530016Y0260068D01*
X0530067Y0260029D01*
X0530202Y0259911D01*
X0530202Y0259911D01*
X0530222Y0259892D01*
X0530733Y0259653D01*
X0530761Y0259648D01*
X0530761Y0259648D01*
X0531043Y0259604D01*
X0531291Y0259566D01*
X0531851Y0259639D01*
X0531876Y0259650D01*
X0531876Y0259650D01*
X0532339Y0259854D01*
X0532367Y0259866D01*
X0532396Y0259890D01*
X0532404Y0259897D01*
X0532627Y0259987D01*
X0532861Y0259929D01*
X0533016Y0259745D01*
X0533044Y0259598D01*
X0533044Y0258148D01*
X0532970Y0257919D01*
X0532930Y0257872D01*
X0532511Y0257453D01*
X0532486Y0257430D01*
X0532475Y0257421D01*
X0532369Y0257332D01*
X0532292Y0257200D01*
X0532274Y0257171D01*
X0532267Y0257161D01*
X0532186Y0257046D01*
X0532178Y0257013D01*
X0532168Y0256992D01*
X0532160Y0256970D01*
X0532143Y0256941D01*
X0532137Y0256907D01*
X0532137Y0256907D01*
X0532116Y0256790D01*
X0532109Y0256757D01*
X0532078Y0256642D01*
X0532069Y0256609D01*
X0532072Y0256575D01*
X0532083Y0256457D01*
X0532084Y0256423D01*
X0532084Y0249134D01*
X0532010Y0248905D01*
X0531970Y0248858D01*
X0529371Y0246259D01*
X0529156Y0246149D01*
X0529108Y0246146D01*
X0529108Y0246146D01*
X0529093Y0246145D01*
X0529078Y0246145D01*
X0528520Y0246065D01*
X0528238Y0245937D01*
X0528031Y0245843D01*
X0528031Y0245843D01*
X0528006Y0245831D01*
X0527578Y0245463D01*
X0527271Y0244989D01*
X0527109Y0244448D01*
X0527108Y0244449D01*
X0527008Y0244248D01*
X0526827Y0244154D01*
X0526851Y0244154D01*
X0527046Y0244013D01*
X0527098Y0243882D01*
X0527106Y0243884D01*
X0527253Y0243368D01*
X0527253Y0243368D01*
X0527261Y0243341D01*
X0527562Y0242864D01*
X0527583Y0242845D01*
X0527583Y0242845D01*
X0527965Y0242509D01*
X0527965Y0242509D01*
X0527985Y0242490D01*
X0528010Y0242478D01*
X0528010Y0242478D01*
X0528031Y0242469D01*
X0528496Y0242250D01*
X0528524Y0242246D01*
X0528524Y0242246D01*
X0528697Y0242219D01*
X0529054Y0242163D01*
X0529082Y0242167D01*
X0529082Y0242167D01*
X0529509Y0242223D01*
X0529614Y0242237D01*
X0529639Y0242248D01*
X0529639Y0242248D01*
X0530090Y0242446D01*
X0530130Y0242464D01*
X0530274Y0242585D01*
X0530541Y0242809D01*
X0530541Y0242809D01*
X0530562Y0242827D01*
X0530875Y0243297D01*
X0530985Y0243648D01*
X0531035Y0243809D01*
X0531035Y0243809D01*
X0531043Y0243836D01*
X0531047Y0244006D01*
X0531049Y0244158D01*
X0531128Y0244386D01*
X0531163Y0244427D01*
X0534220Y0247484D01*
X0534245Y0247507D01*
X0534363Y0247605D01*
X0534439Y0247738D01*
X0534457Y0247766D01*
X0534545Y0247891D01*
X0534554Y0247924D01*
X0534564Y0247945D01*
X0534571Y0247967D01*
X0534589Y0247996D01*
X0534594Y0248030D01*
X0534594Y0248030D01*
X0534615Y0248147D01*
X0534622Y0248180D01*
X0534662Y0248328D01*
X0534649Y0248480D01*
X0534647Y0248514D01*
X0534647Y0255803D01*
X0534722Y0256032D01*
X0534761Y0256079D01*
X0535180Y0256498D01*
X0535205Y0256521D01*
X0535322Y0256619D01*
X0535399Y0256752D01*
X0535417Y0256780D01*
X0535505Y0256906D01*
X0535514Y0256939D01*
X0535523Y0256959D01*
X0535531Y0256981D01*
X0535548Y0257010D01*
X0535554Y0257044D01*
X0535554Y0257044D01*
X0535575Y0257161D01*
X0535582Y0257194D01*
X0535622Y0257342D01*
X0535619Y0257376D01*
X0535609Y0257495D01*
X0535607Y0257528D01*
X0535607Y0259878D01*
X0535682Y0260107D01*
X0535746Y0260176D01*
X0535810Y0260229D01*
X0535825Y0260252D01*
X0535825Y0260252D01*
X0535908Y0260377D01*
X0536122Y0260699D01*
X0536243Y0261086D01*
X0536282Y0261211D01*
X0536282Y0261211D01*
X0536291Y0261238D01*
X0536296Y0261520D01*
X0536301Y0261775D01*
X0536301Y0261775D01*
X0536301Y0261802D01*
X0536294Y0261829D01*
X0536294Y0261829D01*
X0536206Y0262149D01*
X0536153Y0262347D01*
X0535857Y0262828D01*
X0535825Y0262857D01*
X0535459Y0263188D01*
X0535439Y0263207D01*
X0534931Y0263453D01*
X0534761Y0263481D01*
X0534389Y0263544D01*
X0534389Y0263544D01*
X0534374Y0263546D01*
X0534326Y0263547D01*
X0533767Y0263467D01*
X0533578Y0263381D01*
X0533278Y0263245D01*
X0533278Y0263245D01*
X0533253Y0263233D01*
X0533232Y0263215D01*
X0533209Y0263200D01*
X0533204Y0263207D01*
X0533019Y0263130D01*
X0532784Y0263185D01*
X0532627Y0263368D01*
X0532597Y0263518D01*
X0532597Y0268316D01*
X0532598Y0268350D01*
X0532612Y0268502D01*
X0532572Y0268650D01*
X0532565Y0268683D01*
X0532564Y0268687D01*
X0532562Y0268701D01*
X0532544Y0268800D01*
X0532544Y0268800D01*
X0532538Y0268834D01*
X0532521Y0268863D01*
X0532513Y0268885D01*
X0532504Y0268906D01*
X0532495Y0268938D01*
X0532407Y0269064D01*
X0532389Y0269092D01*
X0532312Y0269225D01*
X0532195Y0269323D01*
X0532170Y0269346D01*
X0529796Y0271720D01*
X0529773Y0271745D01*
X0529751Y0271771D01*
X0529675Y0271863D01*
X0529542Y0271939D01*
X0529513Y0271957D01*
X0529493Y0271972D01*
X0529388Y0272045D01*
X0529355Y0272054D01*
X0529334Y0272064D01*
X0529313Y0272071D01*
X0529283Y0272088D01*
X0529238Y0272097D01*
X0529133Y0272115D01*
X0529099Y0272122D01*
X0528985Y0272153D01*
X0528952Y0272162D01*
X0528799Y0272149D01*
X0528765Y0272147D01*
X0526673Y0272147D01*
X0526673Y0279349D01*
X0527373Y0279423D01*
X0527392Y0279429D01*
X0527392Y0279429D01*
X0528010Y0279630D01*
X0528042Y0279640D01*
X0528060Y0279651D01*
X0528060Y0279651D01*
X0528504Y0279907D01*
X0528652Y0279992D01*
X0529175Y0280463D01*
X0529187Y0280480D01*
X0529187Y0280480D01*
X0529238Y0280549D01*
X0529589Y0281033D01*
X0529677Y0281231D01*
X0529867Y0281657D01*
X0529867Y0281657D01*
X0529875Y0281676D01*
X0529879Y0281696D01*
X0529879Y0281696D01*
X0529892Y0281757D01*
X0530021Y0282364D01*
X0530021Y0283068D01*
X0529892Y0283675D01*
X0529879Y0283737D01*
X0529879Y0283737D01*
X0529875Y0283757D01*
X0529867Y0283775D01*
X0529867Y0283775D01*
X0529677Y0284201D01*
X0529589Y0284400D01*
X0529238Y0284883D01*
X0529187Y0284952D01*
X0529187Y0284952D01*
X0529175Y0284969D01*
X0528652Y0285440D01*
X0528504Y0285525D01*
X0528060Y0285782D01*
X0528060Y0285782D01*
X0528042Y0285792D01*
X0528010Y0285802D01*
X0527392Y0286003D01*
X0527392Y0286003D01*
X0527373Y0286009D01*
X0526673Y0286083D01*
X0525973Y0286009D01*
X0525953Y0286003D01*
X0525953Y0286003D01*
X0525323Y0285798D01*
X0525323Y0285798D01*
X0525303Y0285792D01*
X0524771Y0285485D01*
X0524712Y0285450D01*
X0524712Y0285450D01*
X0524694Y0285440D01*
X0524171Y0284969D01*
X0524088Y0284856D01*
X0524030Y0284775D01*
X0523757Y0284400D01*
X0523614Y0284078D01*
X0523479Y0283775D01*
X0523479Y0283775D01*
X0523471Y0283757D01*
X0523467Y0283737D01*
X0523467Y0283737D01*
X0523438Y0283603D01*
X0523324Y0283068D01*
X0523324Y0282364D01*
X0523438Y0281829D01*
X0523467Y0281696D01*
X0523467Y0281696D01*
X0523471Y0281676D01*
X0523479Y0281657D01*
X0523479Y0281657D01*
X0523749Y0281051D01*
X0523749Y0281051D01*
X0523757Y0281033D01*
X0524171Y0280463D01*
X0524186Y0280450D01*
X0524186Y0280450D01*
X0524542Y0280129D01*
X0524694Y0279992D01*
X0524712Y0279982D01*
X0524712Y0279982D01*
X0524771Y0279947D01*
X0525303Y0279640D01*
X0525323Y0279634D01*
X0525323Y0279634D01*
X0525953Y0279429D01*
X0525953Y0279429D01*
X0525973Y0279423D01*
X0526673Y0279349D01*
X0526673Y0272147D01*
X0523990Y0272147D01*
X0523956Y0272149D01*
X0523837Y0272159D01*
X0523804Y0272162D01*
X0523771Y0272153D01*
X0523771Y0272153D01*
X0523656Y0272122D01*
X0523623Y0272115D01*
X0523505Y0272094D01*
X0523472Y0272088D01*
X0523442Y0272071D01*
X0523421Y0272064D01*
X0523400Y0272054D01*
X0523367Y0272045D01*
X0523242Y0271957D01*
X0523213Y0271939D01*
X0523080Y0271863D01*
X0522982Y0271745D01*
X0522959Y0271720D01*
X0521615Y0270376D01*
X0520252Y0269013D01*
X0520038Y0268904D01*
X0519977Y0268899D01*
X0509110Y0268899D01*
X0508880Y0268974D01*
X0508777Y0269085D01*
X0508716Y0269185D01*
X0508298Y0269563D01*
X0507856Y0269777D01*
X0507815Y0269797D01*
X0507790Y0269809D01*
X0507734Y0269819D01*
X0507248Y0269901D01*
X0507248Y0269901D01*
X0507233Y0269903D01*
X0507185Y0269904D01*
X0506626Y0269824D01*
X0506238Y0269647D01*
X0506137Y0269602D01*
X0506137Y0269602D01*
X0506112Y0269590D01*
X0505763Y0269289D01*
X0505540Y0269196D01*
X0505508Y0269194D01*
X0504869Y0269194D01*
X0504640Y0269269D01*
X0504498Y0269464D01*
X0504498Y0269705D01*
X0504594Y0269860D01*
X0511017Y0276284D01*
X0511232Y0276393D01*
X0511470Y0276355D01*
X0511640Y0276185D01*
X0511678Y0275947D01*
X0511666Y0275895D01*
X0511660Y0275883D01*
X0511655Y0275863D01*
X0511655Y0275863D01*
X0511605Y0275624D01*
X0511513Y0275194D01*
X0511513Y0274490D01*
X0511605Y0274060D01*
X0511655Y0273822D01*
X0511655Y0273822D01*
X0511660Y0273802D01*
X0511668Y0273783D01*
X0511668Y0273783D01*
X0511938Y0273177D01*
X0511938Y0273177D01*
X0511946Y0273159D01*
X0512360Y0272589D01*
X0512375Y0272576D01*
X0512375Y0272576D01*
X0512703Y0272280D01*
X0512883Y0272118D01*
X0512900Y0272108D01*
X0512900Y0272108D01*
X0513443Y0271795D01*
X0513492Y0271766D01*
X0513512Y0271760D01*
X0513512Y0271760D01*
X0514142Y0271555D01*
X0514142Y0271555D01*
X0514162Y0271549D01*
X0514495Y0271514D01*
X0514797Y0271482D01*
X0514862Y0271475D01*
X0515562Y0271549D01*
X0515581Y0271555D01*
X0515581Y0271555D01*
X0516151Y0271740D01*
X0516231Y0271766D01*
X0516249Y0271777D01*
X0516249Y0271777D01*
X0516609Y0271984D01*
X0516841Y0272118D01*
X0517364Y0272589D01*
X0517376Y0272606D01*
X0517376Y0272606D01*
X0517425Y0272673D01*
X0517778Y0273159D01*
X0517861Y0273346D01*
X0518056Y0273783D01*
X0518056Y0273783D01*
X0518064Y0273802D01*
X0518068Y0273822D01*
X0518068Y0273822D01*
X0518082Y0273889D01*
X0518210Y0274490D01*
X0518210Y0275194D01*
X0518082Y0275795D01*
X0518068Y0275863D01*
X0518068Y0275863D01*
X0518064Y0275883D01*
X0518056Y0275901D01*
X0518056Y0275901D01*
X0517861Y0276338D01*
X0517778Y0276526D01*
X0517425Y0277011D01*
X0517376Y0277078D01*
X0517376Y0277078D01*
X0517364Y0277095D01*
X0516841Y0277566D01*
X0516609Y0277700D01*
X0516249Y0277908D01*
X0516249Y0277908D01*
X0516231Y0277918D01*
X0516151Y0277944D01*
X0515581Y0278129D01*
X0515581Y0278129D01*
X0515562Y0278135D01*
X0514862Y0278209D01*
X0514797Y0278202D01*
X0514495Y0278170D01*
X0514162Y0278135D01*
X0514142Y0278129D01*
X0514142Y0278129D01*
X0513791Y0278015D01*
X0513550Y0278015D01*
X0513355Y0278156D01*
X0513281Y0278386D01*
X0513355Y0278615D01*
X0513395Y0278661D01*
X0524771Y0290038D01*
X0524797Y0290061D01*
X0524914Y0290159D01*
X0524990Y0290292D01*
X0525009Y0290320D01*
X0525096Y0290446D01*
X0525105Y0290478D01*
X0525115Y0290499D01*
X0525123Y0290521D01*
X0525140Y0290550D01*
X0525166Y0290701D01*
X0525174Y0290734D01*
X0525204Y0290849D01*
X0525204Y0290849D01*
X0525213Y0290882D01*
X0525200Y0291034D01*
X0525198Y0291068D01*
X0525198Y0296484D01*
X0525273Y0296713D01*
X0525351Y0296793D01*
X0525463Y0296879D01*
X0525478Y0296899D01*
X0525478Y0296899D01*
X0525576Y0297027D01*
X0525775Y0297163D01*
X0526016Y0297157D01*
X0526195Y0297027D01*
X0526293Y0296899D01*
X0526293Y0296899D01*
X0526308Y0296879D01*
X0526761Y0296532D01*
X0527288Y0296313D01*
X0527313Y0296310D01*
X0527313Y0296310D01*
X0527578Y0296275D01*
X0527854Y0296239D01*
X0527879Y0296242D01*
X0528359Y0296305D01*
X0528420Y0296313D01*
X0528947Y0296532D01*
X0529400Y0296879D01*
X0529415Y0296899D01*
X0529415Y0296899D01*
X0529513Y0297027D01*
X0529712Y0297163D01*
X0529953Y0297157D01*
X0530132Y0297027D01*
X0530230Y0296899D01*
X0530230Y0296899D01*
X0530245Y0296879D01*
X0530698Y0296532D01*
X0531225Y0296313D01*
X0531250Y0296310D01*
X0531250Y0296310D01*
X0531575Y0296267D01*
X0531791Y0296239D01*
X0531816Y0296242D01*
X0532286Y0296304D01*
X0532357Y0296313D01*
X0532884Y0296532D01*
X0533337Y0296879D01*
X0533352Y0296899D01*
X0533669Y0297311D01*
X0533669Y0297312D01*
X0533684Y0297332D01*
X0533690Y0297347D01*
X0533866Y0297505D01*
X0534025Y0297539D01*
X0534350Y0297539D01*
X0534350Y0299411D01*
X0534424Y0299640D01*
X0534619Y0299782D01*
X0534740Y0299801D01*
X0537108Y0299801D01*
X0537337Y0299726D01*
X0537479Y0299531D01*
X0537498Y0299411D01*
X0537498Y0207095D01*
X0537488Y0207065D01*
X0537498Y0207033D01*
X0537498Y0192714D01*
X0537423Y0192485D01*
X0537228Y0192343D01*
X0537108Y0192324D01*
X0528394Y0192324D01*
X0528165Y0192399D01*
X0528023Y0192594D01*
X0528023Y0192835D01*
X0528165Y0193029D01*
X0528303Y0193093D01*
X0528422Y0193122D01*
X0528634Y0193231D01*
X0528952Y0193395D01*
X0529011Y0193426D01*
X0529511Y0193862D01*
X0529524Y0193881D01*
X0529524Y0193881D01*
X0529784Y0194250D01*
X0529892Y0194404D01*
X0530013Y0194713D01*
X0530067Y0194854D01*
X0530133Y0195022D01*
X0530136Y0195045D01*
X0530136Y0195045D01*
X0530198Y0195515D01*
X0530200Y0195528D01*
X0530200Y0195688D01*
X0530274Y0195917D01*
X0530469Y0196059D01*
X0530710Y0196059D01*
X0530865Y0195964D01*
X0531062Y0195766D01*
X0531085Y0195741D01*
X0531184Y0195624D01*
X0531250Y0195585D01*
X0531316Y0195547D01*
X0531345Y0195529D01*
X0531470Y0195441D01*
X0531503Y0195433D01*
X0531524Y0195423D01*
X0531546Y0195415D01*
X0531575Y0195398D01*
X0531609Y0195392D01*
X0531609Y0195392D01*
X0531726Y0195371D01*
X0531759Y0195364D01*
X0531907Y0195324D01*
X0531941Y0195327D01*
X0531975Y0195324D01*
X0531974Y0195316D01*
X0532165Y0195272D01*
X0532222Y0195230D01*
X0532532Y0194957D01*
X0533043Y0194717D01*
X0533070Y0194713D01*
X0533070Y0194713D01*
X0533337Y0194671D01*
X0533601Y0194630D01*
X0533628Y0194634D01*
X0533628Y0194634D01*
X0533669Y0194639D01*
X0534160Y0194703D01*
X0534186Y0194714D01*
X0534186Y0194714D01*
X0534647Y0194918D01*
X0534677Y0194931D01*
X0534792Y0195028D01*
X0535088Y0195276D01*
X0535088Y0195276D01*
X0535109Y0195294D01*
X0535124Y0195317D01*
X0535124Y0195317D01*
X0535157Y0195365D01*
X0535422Y0195764D01*
X0535523Y0196090D01*
X0535582Y0196276D01*
X0535582Y0196276D01*
X0535590Y0196302D01*
X0535595Y0196585D01*
X0535600Y0196839D01*
X0535600Y0196839D01*
X0535600Y0196867D01*
X0535593Y0196894D01*
X0535593Y0196894D01*
X0535512Y0197190D01*
X0535452Y0197411D01*
X0535157Y0197892D01*
X0535124Y0197922D01*
X0534759Y0198252D01*
X0534738Y0198271D01*
X0534230Y0198517D01*
X0534200Y0198522D01*
X0533688Y0198608D01*
X0533688Y0198608D01*
X0533674Y0198611D01*
X0533625Y0198611D01*
X0533066Y0198531D01*
X0532825Y0198422D01*
X0532578Y0198309D01*
X0532578Y0198309D01*
X0532572Y0198307D01*
X0532552Y0198298D01*
X0532550Y0198302D01*
X0532344Y0198248D01*
X0532120Y0198336D01*
X0532091Y0198362D01*
X0530190Y0200264D01*
X0530167Y0200289D01*
X0530068Y0200406D01*
X0530034Y0200426D01*
X0529944Y0200477D01*
X0529936Y0200482D01*
X0529907Y0200501D01*
X0529901Y0200505D01*
X0529782Y0200588D01*
X0529749Y0200597D01*
X0529728Y0200607D01*
X0529706Y0200615D01*
X0529677Y0200632D01*
X0529526Y0200658D01*
X0529493Y0200666D01*
X0529427Y0200683D01*
X0529345Y0200705D01*
X0529193Y0200692D01*
X0529159Y0200691D01*
X0526451Y0200691D01*
X0526417Y0200692D01*
X0526311Y0200701D01*
X0526264Y0200705D01*
X0526116Y0200666D01*
X0526083Y0200658D01*
X0525966Y0200638D01*
X0525966Y0200638D01*
X0525932Y0200632D01*
X0525903Y0200615D01*
X0525881Y0200607D01*
X0525861Y0200597D01*
X0525828Y0200588D01*
X0525702Y0200501D01*
X0525674Y0200482D01*
X0525593Y0200436D01*
X0525541Y0200406D01*
X0525443Y0200289D01*
X0525420Y0200264D01*
X0524556Y0199400D01*
X0524341Y0199290D01*
X0524103Y0199328D01*
X0523933Y0199498D01*
X0523891Y0199675D01*
X0523891Y0200804D01*
X0523965Y0201033D01*
X0524030Y0201102D01*
X0524164Y0201215D01*
X0524164Y0201215D01*
X0524185Y0201233D01*
X0524201Y0201256D01*
X0524201Y0201256D01*
X0524228Y0201297D01*
X0524498Y0201703D01*
X0524622Y0202099D01*
X0524658Y0202215D01*
X0524658Y0202215D01*
X0524666Y0202242D01*
X0524671Y0202524D01*
X0524676Y0202778D01*
X0524676Y0202778D01*
X0524677Y0202806D01*
X0524669Y0202833D01*
X0524669Y0202833D01*
X0524530Y0203344D01*
X0524542Y0203585D01*
X0524692Y0203772D01*
X0524906Y0203836D01*
X0529711Y0203836D01*
X0529940Y0203762D01*
X0530086Y0203554D01*
X0530204Y0203141D01*
X0530204Y0203141D01*
X0530212Y0203115D01*
X0530513Y0202637D01*
X0530534Y0202619D01*
X0530534Y0202619D01*
X0530915Y0202282D01*
X0530915Y0202282D01*
X0530936Y0202264D01*
X0530961Y0202252D01*
X0530961Y0202252D01*
X0531044Y0202213D01*
X0531447Y0202024D01*
X0532004Y0201937D01*
X0532032Y0201941D01*
X0532032Y0201941D01*
X0532449Y0201995D01*
X0532564Y0202010D01*
X0532589Y0202021D01*
X0532590Y0202021D01*
X0533044Y0202221D01*
X0533081Y0202237D01*
X0533142Y0202289D01*
X0533492Y0202583D01*
X0533492Y0202583D01*
X0533513Y0202601D01*
X0533528Y0202624D01*
X0533528Y0202624D01*
X0533610Y0202747D01*
X0533826Y0203071D01*
X0533936Y0203424D01*
X0533986Y0203583D01*
X0533986Y0203583D01*
X0533994Y0203609D01*
X0533999Y0203891D01*
X0534004Y0204146D01*
X0534004Y0204146D01*
X0534004Y0204174D01*
X0533936Y0204424D01*
X0533947Y0204665D01*
X0534098Y0204853D01*
X0534331Y0204916D01*
X0534372Y0204912D01*
X0534719Y0204858D01*
X0534747Y0204861D01*
X0534747Y0204861D01*
X0534956Y0204889D01*
X0535279Y0204931D01*
X0535304Y0204942D01*
X0535304Y0204942D01*
X0535593Y0205069D01*
X0535796Y0205158D01*
X0535877Y0205227D01*
X0536206Y0205504D01*
X0536206Y0205504D01*
X0536228Y0205521D01*
X0536243Y0205545D01*
X0536243Y0205545D01*
X0536294Y0205621D01*
X0536541Y0205991D01*
X0536664Y0206387D01*
X0536701Y0206504D01*
X0536701Y0206504D01*
X0536709Y0206530D01*
X0536718Y0207031D01*
X0536718Y0207040D01*
X0536721Y0207048D01*
X0536719Y0207067D01*
X0536719Y0207094D01*
X0536712Y0207121D01*
X0536712Y0207121D01*
X0536631Y0207417D01*
X0536571Y0207639D01*
X0536301Y0208079D01*
X0536290Y0208096D01*
X0536275Y0208120D01*
X0536243Y0208149D01*
X0535877Y0208480D01*
X0535857Y0208499D01*
X0535459Y0208691D01*
X0535374Y0208733D01*
X0535349Y0208745D01*
X0535296Y0208754D01*
X0534807Y0208836D01*
X0534807Y0208836D01*
X0534792Y0208839D01*
X0534744Y0208839D01*
X0534644Y0208825D01*
X0534407Y0208866D01*
X0534313Y0208935D01*
X0530944Y0212305D01*
X0530835Y0212519D01*
X0530872Y0212757D01*
X0531043Y0212927D01*
X0531222Y0212970D01*
X0531743Y0212967D01*
X0531777Y0212967D01*
X0532109Y0213047D01*
X0532380Y0213112D01*
X0532422Y0213122D01*
X0532612Y0213220D01*
X0532884Y0213360D01*
X0533011Y0213426D01*
X0533511Y0213862D01*
X0533524Y0213881D01*
X0533524Y0213881D01*
X0533834Y0214321D01*
X0533892Y0214404D01*
X0534004Y0214690D01*
X0534098Y0214933D01*
X0534133Y0215022D01*
X0534136Y0215045D01*
X0534136Y0215045D01*
X0534198Y0215515D01*
X0534200Y0215528D01*
X0534200Y0215874D01*
X0534198Y0215888D01*
X0534143Y0216343D01*
X0534143Y0216343D01*
X0534140Y0216366D01*
X0534124Y0216408D01*
X0534060Y0216577D01*
X0533906Y0216987D01*
X0533892Y0217006D01*
X0533892Y0217006D01*
X0533543Y0217514D01*
X0533530Y0217533D01*
X0533035Y0217974D01*
X0532449Y0218284D01*
X0532103Y0218371D01*
X0531829Y0218440D01*
X0531829Y0218440D01*
X0531806Y0218446D01*
X0531416Y0218448D01*
X0531167Y0218449D01*
X0531167Y0218449D01*
X0531143Y0218449D01*
X0530498Y0218295D01*
X0530152Y0218116D01*
X0529930Y0218001D01*
X0529930Y0218001D01*
X0529909Y0217991D01*
X0529410Y0217555D01*
X0529155Y0217193D01*
X0528962Y0217048D01*
X0528722Y0217044D01*
X0528525Y0217183D01*
X0528446Y0217417D01*
X0528446Y0220497D01*
X0528448Y0220531D01*
X0528461Y0220684D01*
X0528422Y0220832D01*
X0528414Y0220865D01*
X0528394Y0220982D01*
X0528394Y0220982D01*
X0528388Y0221015D01*
X0528371Y0221045D01*
X0528363Y0221067D01*
X0528353Y0221087D01*
X0528344Y0221120D01*
X0528257Y0221246D01*
X0528238Y0221274D01*
X0528162Y0221407D01*
X0528045Y0221505D01*
X0528020Y0221528D01*
X0526455Y0223093D01*
X0526345Y0223308D01*
X0526341Y0223369D01*
X0526341Y0243784D01*
X0526415Y0244013D01*
X0526610Y0244154D01*
X0526681Y0244154D01*
X0526556Y0244173D01*
X0526385Y0244342D01*
X0526341Y0244522D01*
X0526341Y0253410D01*
X0526342Y0253444D01*
X0526355Y0253597D01*
X0526345Y0253634D01*
X0526316Y0253745D01*
X0526308Y0253778D01*
X0526288Y0253895D01*
X0526288Y0253895D01*
X0526282Y0253928D01*
X0526265Y0253958D01*
X0526257Y0253980D01*
X0526247Y0254000D01*
X0526238Y0254033D01*
X0526151Y0254159D01*
X0526132Y0254187D01*
X0526116Y0254215D01*
X0526056Y0254320D01*
X0525939Y0254418D01*
X0525914Y0254441D01*
X0521769Y0258586D01*
X0521660Y0258800D01*
X0521655Y0258861D01*
X0521655Y0259917D01*
X0521730Y0260146D01*
X0521794Y0260215D01*
X0521858Y0260269D01*
X0521873Y0260292D01*
X0521873Y0260292D01*
X0521914Y0260353D01*
X0522170Y0260739D01*
X0522258Y0261018D01*
X0522330Y0261251D01*
X0522330Y0261251D01*
X0522339Y0261277D01*
X0522344Y0261560D01*
X0522349Y0261814D01*
X0522349Y0261814D01*
X0522349Y0261842D01*
X0522342Y0261868D01*
X0522342Y0261868D01*
X0522239Y0262247D01*
X0522201Y0262386D01*
X0521905Y0262867D01*
X0521873Y0262896D01*
X0521507Y0263227D01*
X0521487Y0263246D01*
X0520979Y0263492D01*
X0520826Y0263518D01*
X0520437Y0263583D01*
X0520437Y0263583D01*
X0520422Y0263586D01*
X0520374Y0263586D01*
X0519815Y0263506D01*
X0519518Y0263372D01*
X0519326Y0263284D01*
X0519326Y0263284D01*
X0519301Y0263273D01*
X0518873Y0262904D01*
X0518649Y0262558D01*
X0518462Y0262406D01*
X0518221Y0262393D01*
X0518019Y0262524D01*
X0517990Y0262566D01*
X0517843Y0262804D01*
X0517829Y0262828D01*
X0517797Y0262857D01*
X0517431Y0263188D01*
X0517410Y0263207D01*
X0516902Y0263453D01*
X0516856Y0263461D01*
X0516361Y0263544D01*
X0516361Y0263544D01*
X0516346Y0263546D01*
X0516297Y0263547D01*
X0515739Y0263467D01*
X0515300Y0263268D01*
X0515250Y0263245D01*
X0515250Y0263245D01*
X0515225Y0263233D01*
X0514949Y0262996D01*
X0514818Y0262883D01*
X0514818Y0262883D01*
X0514797Y0262865D01*
X0514490Y0262391D01*
X0514328Y0261851D01*
X0514326Y0261523D01*
X0514325Y0261314D01*
X0514325Y0261314D01*
X0514325Y0261286D01*
X0514333Y0261259D01*
X0514333Y0261259D01*
X0514472Y0260770D01*
X0514472Y0260770D01*
X0514480Y0260743D01*
X0514781Y0260266D01*
X0514802Y0260248D01*
X0514802Y0260248D01*
X0514884Y0260175D01*
X0515006Y0259968D01*
X0515016Y0259883D01*
X0515016Y0258283D01*
X0515014Y0258249D01*
X0515013Y0258236D01*
X0515001Y0258096D01*
X0515010Y0258063D01*
X0515010Y0258063D01*
X0515041Y0257949D01*
X0515048Y0257915D01*
X0515074Y0257765D01*
X0515091Y0257735D01*
X0515099Y0257714D01*
X0515109Y0257693D01*
X0515118Y0257660D01*
X0515204Y0257537D01*
X0515206Y0257535D01*
X0515224Y0257506D01*
X0515300Y0257373D01*
X0515327Y0257351D01*
X0515418Y0257275D01*
X0515443Y0257252D01*
X0518025Y0254669D01*
X0520213Y0252482D01*
X0520322Y0252267D01*
X0520285Y0252029D01*
X0520099Y0251851D01*
X0519871Y0251748D01*
X0519871Y0251748D01*
X0519846Y0251736D01*
X0519530Y0251465D01*
X0519439Y0251386D01*
X0519439Y0251386D01*
X0519418Y0251368D01*
X0519403Y0251344D01*
X0519385Y0251323D01*
X0519376Y0251331D01*
X0519226Y0251209D01*
X0519086Y0251183D01*
X0505017Y0251183D01*
X0504788Y0251257D01*
X0504647Y0251452D01*
X0504628Y0251572D01*
X0504628Y0259352D01*
X0504702Y0259581D01*
X0504897Y0259723D01*
X0505138Y0259723D01*
X0505182Y0259705D01*
X0505197Y0259699D01*
X0505225Y0259679D01*
X0505258Y0259670D01*
X0505278Y0259661D01*
X0505300Y0259653D01*
X0505330Y0259636D01*
X0505363Y0259630D01*
X0505363Y0259630D01*
X0505480Y0259609D01*
X0505513Y0259602D01*
X0505661Y0259562D01*
X0505695Y0259565D01*
X0505814Y0259575D01*
X0505848Y0259577D01*
X0509498Y0259577D01*
X0509727Y0259502D01*
X0509755Y0259479D01*
X0510078Y0259195D01*
X0510589Y0258955D01*
X0510616Y0258950D01*
X0510616Y0258950D01*
X0510937Y0258900D01*
X0511147Y0258868D01*
X0511174Y0258871D01*
X0511174Y0258871D01*
X0511605Y0258928D01*
X0511706Y0258941D01*
X0511732Y0258952D01*
X0511732Y0258952D01*
X0511938Y0259043D01*
X0512223Y0259168D01*
X0512377Y0259298D01*
X0512634Y0259514D01*
X0512634Y0259514D01*
X0512655Y0259531D01*
X0512670Y0259555D01*
X0512670Y0259555D01*
X0512697Y0259595D01*
X0512968Y0260001D01*
X0513091Y0260397D01*
X0513128Y0260514D01*
X0513128Y0260514D01*
X0513136Y0260540D01*
X0513141Y0260822D01*
X0513146Y0261077D01*
X0513146Y0261077D01*
X0513146Y0261104D01*
X0513139Y0261131D01*
X0513139Y0261131D01*
X0513057Y0261432D01*
X0512998Y0261649D01*
X0512703Y0262130D01*
X0512670Y0262159D01*
X0512305Y0262490D01*
X0512284Y0262509D01*
X0511776Y0262755D01*
X0511726Y0262763D01*
X0511234Y0262846D01*
X0511234Y0262846D01*
X0511220Y0262849D01*
X0511171Y0262849D01*
X0510612Y0262769D01*
X0510098Y0262535D01*
X0509749Y0262234D01*
X0509527Y0262141D01*
X0509494Y0262140D01*
X0506467Y0262140D01*
X0506238Y0262214D01*
X0506191Y0262254D01*
X0504501Y0263945D01*
X0504478Y0263970D01*
X0504406Y0264055D01*
X0504379Y0264087D01*
X0504247Y0264163D01*
X0504218Y0264182D01*
X0504174Y0264213D01*
X0504093Y0264269D01*
X0504060Y0264278D01*
X0504039Y0264288D01*
X0504017Y0264296D01*
X0503988Y0264313D01*
X0503837Y0264339D01*
X0503804Y0264347D01*
X0503689Y0264378D01*
X0503656Y0264386D01*
X0503504Y0264373D01*
X0503470Y0264372D01*
X0502358Y0264372D01*
X0502128Y0264446D01*
X0501987Y0264641D01*
X0501987Y0264882D01*
X0502082Y0265037D01*
G37*
G36*
X0517497Y0240986D02*
G01*
X0517647Y0241174D01*
X0517861Y0241238D01*
X0523388Y0241238D01*
X0523617Y0241163D01*
X0523758Y0240968D01*
X0523778Y0240848D01*
X0523778Y0222749D01*
X0523776Y0222715D01*
X0523766Y0222597D01*
X0523763Y0222563D01*
X0523772Y0222530D01*
X0523802Y0222415D01*
X0523810Y0222382D01*
X0523830Y0222265D01*
X0523830Y0222265D01*
X0523836Y0222231D01*
X0523853Y0222202D01*
X0523861Y0222180D01*
X0523871Y0222159D01*
X0523880Y0222126D01*
X0523933Y0222050D01*
X0523967Y0222001D01*
X0523986Y0221972D01*
X0524062Y0221840D01*
X0524164Y0221755D01*
X0524179Y0221742D01*
X0524204Y0221719D01*
X0525769Y0220154D01*
X0525879Y0219939D01*
X0525883Y0219878D01*
X0525883Y0218088D01*
X0525809Y0217859D01*
X0525614Y0217717D01*
X0525373Y0217717D01*
X0525234Y0217797D01*
X0525204Y0217823D01*
X0525035Y0217974D01*
X0525009Y0217988D01*
X0524899Y0218046D01*
X0524449Y0218284D01*
X0524088Y0218375D01*
X0523829Y0218440D01*
X0523829Y0218440D01*
X0523806Y0218446D01*
X0523421Y0218448D01*
X0523167Y0218449D01*
X0523167Y0218449D01*
X0523143Y0218449D01*
X0522498Y0218295D01*
X0522105Y0218092D01*
X0521930Y0218001D01*
X0521930Y0218001D01*
X0521909Y0217991D01*
X0521410Y0217555D01*
X0521377Y0217508D01*
X0521042Y0217031D01*
X0521042Y0217031D01*
X0521028Y0217012D01*
X0520815Y0216466D01*
X0520796Y0216416D01*
X0520796Y0216416D01*
X0520787Y0216394D01*
X0520784Y0216371D01*
X0520784Y0216371D01*
X0520723Y0215901D01*
X0520721Y0215889D01*
X0520721Y0215542D01*
X0520722Y0215530D01*
X0520722Y0215530D01*
X0520778Y0215073D01*
X0520778Y0215073D01*
X0520780Y0215050D01*
X0520789Y0215028D01*
X0520789Y0215028D01*
X0520815Y0214958D01*
X0521015Y0214430D01*
X0521028Y0214410D01*
X0521028Y0214410D01*
X0521185Y0214182D01*
X0521390Y0213883D01*
X0521885Y0213442D01*
X0521906Y0213431D01*
X0521906Y0213431D01*
X0521930Y0213419D01*
X0522471Y0213132D01*
X0522685Y0213078D01*
X0523080Y0212979D01*
X0523114Y0212971D01*
X0523138Y0212970D01*
X0523718Y0212967D01*
X0523777Y0212967D01*
X0524422Y0213122D01*
X0524734Y0213283D01*
X0525010Y0213425D01*
X0525247Y0213464D01*
X0525463Y0213356D01*
X0525518Y0213287D01*
X0525593Y0213168D01*
X0525649Y0213079D01*
X0525670Y0213061D01*
X0525670Y0213061D01*
X0526051Y0212724D01*
X0526051Y0212724D01*
X0526072Y0212706D01*
X0526097Y0212694D01*
X0526097Y0212694D01*
X0526116Y0212685D01*
X0526583Y0212466D01*
X0526610Y0212462D01*
X0526610Y0212462D01*
X0526834Y0212427D01*
X0527117Y0212383D01*
X0527138Y0212379D01*
X0527354Y0212270D01*
X0532658Y0206966D01*
X0532767Y0206751D01*
X0532772Y0206688D01*
X0532772Y0206606D01*
X0532772Y0206606D01*
X0532771Y0206578D01*
X0532779Y0206552D01*
X0532835Y0206356D01*
X0532826Y0206115D01*
X0532678Y0205925D01*
X0532446Y0205859D01*
X0532396Y0205864D01*
X0532389Y0205865D01*
X0532077Y0205918D01*
X0532029Y0205918D01*
X0532029Y0205923D01*
X0531814Y0205978D01*
X0531724Y0206057D01*
X0531697Y0206088D01*
X0531675Y0206115D01*
X0531542Y0206191D01*
X0531514Y0206209D01*
X0531474Y0206237D01*
X0531389Y0206297D01*
X0531356Y0206306D01*
X0531335Y0206316D01*
X0531313Y0206323D01*
X0531284Y0206340D01*
X0531133Y0206367D01*
X0531100Y0206374D01*
X0530985Y0206405D01*
X0530985Y0206405D01*
X0530952Y0206414D01*
X0530800Y0206401D01*
X0530766Y0206399D01*
X0520818Y0206399D01*
X0520589Y0206474D01*
X0520542Y0206513D01*
X0518995Y0208061D01*
X0518885Y0208275D01*
X0518881Y0208336D01*
X0518881Y0210142D01*
X0518955Y0210371D01*
X0518995Y0210418D01*
X0519092Y0210514D01*
X0519117Y0210537D01*
X0519234Y0210636D01*
X0519275Y0210707D01*
X0519310Y0210768D01*
X0519329Y0210797D01*
X0519416Y0210922D01*
X0519425Y0210955D01*
X0519435Y0210976D01*
X0519443Y0210997D01*
X0519460Y0211027D01*
X0519466Y0211061D01*
X0519466Y0211061D01*
X0519486Y0211178D01*
X0519494Y0211211D01*
X0519533Y0211359D01*
X0519520Y0211511D01*
X0519518Y0211545D01*
X0519518Y0237326D01*
X0519520Y0237360D01*
X0519533Y0237513D01*
X0519494Y0237660D01*
X0519486Y0237694D01*
X0519466Y0237811D01*
X0519466Y0237811D01*
X0519460Y0237844D01*
X0519443Y0237874D01*
X0519435Y0237895D01*
X0519425Y0237916D01*
X0519416Y0237949D01*
X0519329Y0238074D01*
X0519310Y0238103D01*
X0519275Y0238165D01*
X0519234Y0238236D01*
X0519117Y0238334D01*
X0519092Y0238357D01*
X0517734Y0239714D01*
X0517625Y0239929D01*
X0517620Y0239997D01*
X0517622Y0240063D01*
X0517624Y0240205D01*
X0517624Y0240205D01*
X0517625Y0240233D01*
X0517617Y0240260D01*
X0517617Y0240260D01*
X0517485Y0240745D01*
X0517497Y0240986D01*
G37*
G36*
X0512506Y0195399D02*
G01*
X0512697Y0195546D01*
X0512828Y0195568D01*
X0513579Y0195568D01*
X0513808Y0195494D01*
X0513855Y0195454D01*
X0515305Y0194004D01*
X0515328Y0193979D01*
X0515426Y0193862D01*
X0515559Y0193785D01*
X0515587Y0193767D01*
X0515713Y0193679D01*
X0515746Y0193670D01*
X0515766Y0193661D01*
X0515788Y0193653D01*
X0515818Y0193636D01*
X0515851Y0193630D01*
X0515851Y0193630D01*
X0515968Y0193609D01*
X0516001Y0193602D01*
X0516149Y0193562D01*
X0516183Y0193565D01*
X0516302Y0193576D01*
X0516336Y0193577D01*
X0521754Y0193577D01*
X0521788Y0193576D01*
X0521941Y0193562D01*
X0521973Y0193571D01*
X0522088Y0193602D01*
X0522122Y0193609D01*
X0522208Y0193624D01*
X0522272Y0193636D01*
X0522302Y0193653D01*
X0522323Y0193661D01*
X0522344Y0193670D01*
X0522377Y0193679D01*
X0522451Y0193731D01*
X0522502Y0193767D01*
X0522531Y0193785D01*
X0522664Y0193862D01*
X0522702Y0193907D01*
X0522762Y0193979D01*
X0522785Y0194004D01*
X0524112Y0195331D01*
X0524326Y0195440D01*
X0524564Y0195402D01*
X0524734Y0195232D01*
X0524774Y0195102D01*
X0524775Y0195094D01*
X0524778Y0195073D01*
X0524778Y0195073D01*
X0524780Y0195050D01*
X0524789Y0195028D01*
X0524789Y0195028D01*
X0524860Y0194839D01*
X0525015Y0194430D01*
X0525028Y0194410D01*
X0525028Y0194410D01*
X0525234Y0194110D01*
X0525390Y0193883D01*
X0525885Y0193442D01*
X0526471Y0193132D01*
X0526494Y0193126D01*
X0526494Y0193126D01*
X0526630Y0193092D01*
X0526834Y0192964D01*
X0526924Y0192741D01*
X0526865Y0192507D01*
X0526680Y0192352D01*
X0526535Y0192324D01*
X0513057Y0192324D01*
X0512828Y0192399D01*
X0512686Y0192594D01*
X0512686Y0192835D01*
X0512697Y0192863D01*
X0512758Y0193011D01*
X0512824Y0193169D01*
X0512827Y0193195D01*
X0512827Y0193195D01*
X0512895Y0193710D01*
X0512898Y0193735D01*
X0512895Y0193760D01*
X0512827Y0194275D01*
X0512827Y0194275D01*
X0512824Y0194301D01*
X0512605Y0194828D01*
X0512590Y0194848D01*
X0512590Y0194848D01*
X0512518Y0194941D01*
X0512438Y0195168D01*
X0512506Y0195399D01*
G37*
G36*
X0509260Y0244473D02*
G01*
X0509263Y0244475D01*
X0509333Y0244558D01*
X0509361Y0244592D01*
X0509384Y0244617D01*
X0510812Y0246045D01*
X0511026Y0246154D01*
X0511087Y0246159D01*
X0522171Y0246159D01*
X0522205Y0246158D01*
X0522357Y0246144D01*
X0522390Y0246153D01*
X0522505Y0246184D01*
X0522538Y0246191D01*
X0522635Y0246208D01*
X0522689Y0246218D01*
X0522718Y0246235D01*
X0522740Y0246243D01*
X0522761Y0246252D01*
X0522794Y0246261D01*
X0522909Y0246342D01*
X0522919Y0246349D01*
X0522948Y0246367D01*
X0523080Y0246444D01*
X0523102Y0246470D01*
X0523128Y0246492D01*
X0523135Y0246483D01*
X0523294Y0246582D01*
X0523534Y0246565D01*
X0523718Y0246410D01*
X0523778Y0246204D01*
X0523778Y0244191D01*
X0523703Y0243961D01*
X0523508Y0243820D01*
X0523388Y0243801D01*
X0509521Y0243801D01*
X0509292Y0243875D01*
X0509150Y0244070D01*
X0509150Y0244311D01*
X0509260Y0244473D01*
G37*
G36*
X0496940Y0288869D02*
G01*
X0497158Y0288971D01*
X0497206Y0288974D01*
X0504749Y0288974D01*
X0504783Y0288972D01*
X0504936Y0288959D01*
X0504969Y0288968D01*
X0505084Y0288999D01*
X0505117Y0289006D01*
X0505225Y0289025D01*
X0505267Y0289033D01*
X0505297Y0289050D01*
X0505319Y0289058D01*
X0505339Y0289067D01*
X0505372Y0289076D01*
X0505480Y0289152D01*
X0505498Y0289164D01*
X0505526Y0289182D01*
X0505659Y0289259D01*
X0505740Y0289356D01*
X0505757Y0289376D01*
X0505780Y0289401D01*
X0508684Y0292305D01*
X0508899Y0292414D01*
X0508960Y0292419D01*
X0518503Y0292419D01*
X0518732Y0292344D01*
X0518761Y0292321D01*
X0519084Y0292036D01*
X0519595Y0291797D01*
X0519622Y0291792D01*
X0519622Y0291792D01*
X0519822Y0291761D01*
X0520152Y0291710D01*
X0520180Y0291713D01*
X0520180Y0291713D01*
X0520679Y0291779D01*
X0520712Y0291783D01*
X0520738Y0291794D01*
X0520738Y0291794D01*
X0521185Y0291991D01*
X0521229Y0292010D01*
X0521390Y0292146D01*
X0521640Y0292356D01*
X0521640Y0292356D01*
X0521661Y0292373D01*
X0521676Y0292397D01*
X0521676Y0292397D01*
X0521921Y0292765D01*
X0522110Y0292914D01*
X0522351Y0292924D01*
X0522551Y0292791D01*
X0522635Y0292549D01*
X0522635Y0291688D01*
X0522561Y0291459D01*
X0522521Y0291412D01*
X0497616Y0266507D01*
X0497401Y0266397D01*
X0497163Y0266435D01*
X0496993Y0266605D01*
X0496950Y0266782D01*
X0496950Y0287820D01*
X0496952Y0287854D01*
X0496965Y0288007D01*
X0496954Y0288049D01*
X0496926Y0288154D01*
X0496918Y0288188D01*
X0496898Y0288305D01*
X0496898Y0288305D01*
X0496892Y0288338D01*
X0496875Y0288368D01*
X0496867Y0288389D01*
X0496857Y0288410D01*
X0496851Y0288432D01*
X0496851Y0288435D01*
X0496850Y0288437D01*
X0496848Y0288443D01*
X0496850Y0288444D01*
X0496823Y0288659D01*
X0496940Y0288869D01*
G37*
G36*
X0499810Y0299638D02*
G01*
X0500004Y0299781D01*
X0500126Y0299801D01*
X0517031Y0299801D01*
X0517260Y0299726D01*
X0517402Y0299531D01*
X0517421Y0299411D01*
X0517421Y0297539D01*
X0517746Y0297539D01*
X0517975Y0297465D01*
X0518080Y0297348D01*
X0518087Y0297332D01*
X0518102Y0297312D01*
X0518102Y0297311D01*
X0518304Y0297049D01*
X0518434Y0296879D01*
X0518887Y0296532D01*
X0519414Y0296313D01*
X0519439Y0296310D01*
X0519464Y0296303D01*
X0519461Y0296293D01*
X0519637Y0296209D01*
X0519752Y0295997D01*
X0519721Y0295758D01*
X0519555Y0295584D01*
X0519530Y0295571D01*
X0519130Y0295389D01*
X0519129Y0295389D01*
X0519104Y0295377D01*
X0518755Y0295076D01*
X0518533Y0294983D01*
X0518500Y0294982D01*
X0508340Y0294982D01*
X0508306Y0294983D01*
X0508188Y0294994D01*
X0508154Y0294997D01*
X0508006Y0294957D01*
X0507973Y0294950D01*
X0507856Y0294929D01*
X0507856Y0294929D01*
X0507822Y0294923D01*
X0507793Y0294906D01*
X0507771Y0294898D01*
X0507750Y0294889D01*
X0507717Y0294880D01*
X0507592Y0294792D01*
X0507563Y0294774D01*
X0507512Y0294744D01*
X0507431Y0294697D01*
X0507333Y0294580D01*
X0507310Y0294555D01*
X0504406Y0291651D01*
X0504191Y0291542D01*
X0504130Y0291537D01*
X0503100Y0291537D01*
X0502871Y0291611D01*
X0502729Y0291806D01*
X0502729Y0292047D01*
X0502871Y0292242D01*
X0502943Y0292283D01*
X0503217Y0292404D01*
X0503278Y0292455D01*
X0503628Y0292749D01*
X0503628Y0292749D01*
X0503649Y0292767D01*
X0503664Y0292790D01*
X0503664Y0292790D01*
X0503689Y0292828D01*
X0503962Y0293237D01*
X0504074Y0293595D01*
X0504122Y0293749D01*
X0504122Y0293749D01*
X0504130Y0293776D01*
X0504135Y0294058D01*
X0504140Y0294312D01*
X0504140Y0294312D01*
X0504140Y0294340D01*
X0504133Y0294367D01*
X0504133Y0294367D01*
X0504038Y0294717D01*
X0503992Y0294885D01*
X0503697Y0295366D01*
X0503664Y0295395D01*
X0503299Y0295726D01*
X0503278Y0295744D01*
X0502770Y0295991D01*
X0502214Y0296084D01*
X0502165Y0296085D01*
X0501706Y0296019D01*
X0501469Y0296060D01*
X0501301Y0296233D01*
X0501267Y0296472D01*
X0501279Y0296521D01*
X0501366Y0296800D01*
X0501366Y0296800D01*
X0501374Y0296827D01*
X0501379Y0297109D01*
X0501384Y0297364D01*
X0501384Y0297364D01*
X0501385Y0297391D01*
X0501377Y0297418D01*
X0501377Y0297418D01*
X0501267Y0297824D01*
X0501236Y0297936D01*
X0500941Y0298417D01*
X0500522Y0298796D01*
X0500014Y0299042D01*
X0500002Y0299044D01*
X0499812Y0299180D01*
X0499737Y0299409D01*
X0499810Y0299638D01*
G37*
G36*
X0493895Y0201292D02*
G01*
X0494090Y0201434D01*
X0494331Y0201434D01*
X0494526Y0201292D01*
X0494585Y0201170D01*
X0494594Y0201140D01*
X0494594Y0201140D01*
X0494601Y0201113D01*
X0494616Y0201090D01*
X0494838Y0200738D01*
X0494902Y0200636D01*
X0494923Y0200618D01*
X0494923Y0200618D01*
X0495305Y0200281D01*
X0495305Y0200281D01*
X0495326Y0200262D01*
X0495836Y0200022D01*
X0495864Y0200018D01*
X0495864Y0200018D01*
X0496086Y0199983D01*
X0496394Y0199936D01*
X0496422Y0199939D01*
X0496422Y0199939D01*
X0496648Y0199969D01*
X0496954Y0200009D01*
X0496979Y0200020D01*
X0496979Y0200020D01*
X0497435Y0200220D01*
X0497470Y0200236D01*
X0497638Y0200377D01*
X0497881Y0200581D01*
X0497881Y0200581D01*
X0497903Y0200599D01*
X0498215Y0201069D01*
X0498339Y0201465D01*
X0498375Y0201581D01*
X0498375Y0201581D01*
X0498384Y0201608D01*
X0498389Y0201890D01*
X0498393Y0202144D01*
X0498393Y0202144D01*
X0498394Y0202172D01*
X0498387Y0202199D01*
X0498387Y0202199D01*
X0498306Y0202495D01*
X0498246Y0202717D01*
X0497950Y0203198D01*
X0497928Y0203218D01*
X0497828Y0203308D01*
X0497708Y0203517D01*
X0497700Y0203597D01*
X0497700Y0204401D01*
X0497774Y0204630D01*
X0497814Y0204677D01*
X0501427Y0208290D01*
X0501452Y0208313D01*
X0501570Y0208411D01*
X0501646Y0208544D01*
X0501664Y0208572D01*
X0501752Y0208698D01*
X0501761Y0208731D01*
X0501771Y0208752D01*
X0501779Y0208773D01*
X0501796Y0208803D01*
X0501801Y0208836D01*
X0501801Y0208836D01*
X0501822Y0208953D01*
X0501829Y0208986D01*
X0501844Y0209041D01*
X0501869Y0209134D01*
X0501856Y0209287D01*
X0501854Y0209321D01*
X0501854Y0231184D01*
X0501872Y0231300D01*
X0501974Y0231626D01*
X0501974Y0231626D01*
X0501982Y0231652D01*
X0501987Y0231934D01*
X0501992Y0232189D01*
X0501992Y0232189D01*
X0501992Y0232216D01*
X0501985Y0232243D01*
X0501985Y0232243D01*
X0501869Y0232669D01*
X0501844Y0232761D01*
X0501549Y0233242D01*
X0501439Y0233341D01*
X0501151Y0233602D01*
X0501130Y0233621D01*
X0500981Y0233693D01*
X0500808Y0233860D01*
X0500765Y0234097D01*
X0500876Y0234319D01*
X0507680Y0241124D01*
X0507895Y0241233D01*
X0507956Y0241238D01*
X0513443Y0241238D01*
X0513672Y0241163D01*
X0513814Y0240968D01*
X0513816Y0240736D01*
X0513742Y0240488D01*
X0513680Y0240281D01*
X0513680Y0240192D01*
X0513679Y0239988D01*
X0513603Y0239759D01*
X0513564Y0239714D01*
X0511842Y0237992D01*
X0511817Y0237969D01*
X0511732Y0237898D01*
X0511700Y0237871D01*
X0511623Y0237738D01*
X0511605Y0237709D01*
X0511598Y0237700D01*
X0511517Y0237584D01*
X0511508Y0237551D01*
X0511499Y0237530D01*
X0511491Y0237509D01*
X0511474Y0237479D01*
X0511468Y0237446D01*
X0511468Y0237446D01*
X0511447Y0237329D01*
X0511440Y0237295D01*
X0511409Y0237181D01*
X0511400Y0237148D01*
X0511403Y0237114D01*
X0511413Y0236995D01*
X0511415Y0236961D01*
X0511415Y0231389D01*
X0511341Y0231160D01*
X0511146Y0231018D01*
X0510905Y0231018D01*
X0510764Y0231100D01*
X0510539Y0231303D01*
X0510518Y0231322D01*
X0510010Y0231568D01*
X0509960Y0231577D01*
X0509469Y0231659D01*
X0509469Y0231659D01*
X0509454Y0231662D01*
X0509439Y0231662D01*
X0509424Y0231663D01*
X0509424Y0231667D01*
X0509213Y0231739D01*
X0509074Y0231936D01*
X0509056Y0232059D01*
X0509057Y0232106D01*
X0509059Y0232211D01*
X0509059Y0232211D01*
X0509059Y0232239D01*
X0509052Y0232266D01*
X0509052Y0232266D01*
X0508932Y0232705D01*
X0508944Y0232946D01*
X0509101Y0233137D01*
X0509123Y0233147D01*
X0509144Y0233164D01*
X0509144Y0233164D01*
X0509533Y0233492D01*
X0509533Y0233492D01*
X0509555Y0233510D01*
X0509570Y0233533D01*
X0509570Y0233533D01*
X0509653Y0233658D01*
X0509867Y0233980D01*
X0509983Y0234350D01*
X0510027Y0234492D01*
X0510027Y0234492D01*
X0510036Y0234518D01*
X0510041Y0234801D01*
X0510046Y0235055D01*
X0510046Y0235055D01*
X0510046Y0235083D01*
X0510039Y0235110D01*
X0510039Y0235110D01*
X0509941Y0235470D01*
X0509898Y0235627D01*
X0509602Y0236108D01*
X0509570Y0236137D01*
X0509204Y0236468D01*
X0509184Y0236487D01*
X0508798Y0236674D01*
X0508701Y0236721D01*
X0508676Y0236733D01*
X0508605Y0236745D01*
X0508134Y0236824D01*
X0508134Y0236824D01*
X0508119Y0236827D01*
X0508071Y0236827D01*
X0507512Y0236747D01*
X0507178Y0236596D01*
X0507023Y0236525D01*
X0507023Y0236525D01*
X0506998Y0236514D01*
X0506687Y0236246D01*
X0506592Y0236163D01*
X0506592Y0236163D01*
X0506570Y0236145D01*
X0506263Y0235672D01*
X0506102Y0235131D01*
X0506100Y0234803D01*
X0506098Y0234594D01*
X0506098Y0234594D01*
X0506098Y0234567D01*
X0506223Y0234131D01*
X0506214Y0233890D01*
X0506058Y0233695D01*
X0506037Y0233681D01*
X0506011Y0233670D01*
X0505663Y0233370D01*
X0505605Y0233320D01*
X0505605Y0233320D01*
X0505584Y0233301D01*
X0505277Y0232828D01*
X0505115Y0232287D01*
X0505113Y0231959D01*
X0505112Y0231750D01*
X0505112Y0231750D01*
X0505112Y0231723D01*
X0505119Y0231696D01*
X0505119Y0231696D01*
X0505259Y0231207D01*
X0505259Y0231207D01*
X0505267Y0231180D01*
X0505568Y0230703D01*
X0505589Y0230684D01*
X0505589Y0230684D01*
X0505970Y0230347D01*
X0505970Y0230347D01*
X0505991Y0230329D01*
X0506016Y0230317D01*
X0506016Y0230317D01*
X0506091Y0230282D01*
X0506502Y0230089D01*
X0506529Y0230085D01*
X0506529Y0230085D01*
X0506770Y0230047D01*
X0507060Y0230002D01*
X0507061Y0230002D01*
X0507277Y0229929D01*
X0507417Y0229732D01*
X0507434Y0229614D01*
X0507433Y0229429D01*
X0507433Y0229429D01*
X0507433Y0229401D01*
X0507440Y0229375D01*
X0507440Y0229375D01*
X0507580Y0228885D01*
X0507580Y0228885D01*
X0507588Y0228859D01*
X0507889Y0228381D01*
X0507910Y0228363D01*
X0507910Y0228363D01*
X0508291Y0228026D01*
X0508291Y0228026D01*
X0508312Y0228008D01*
X0508823Y0227768D01*
X0508851Y0227763D01*
X0508851Y0227763D01*
X0509192Y0227710D01*
X0509381Y0227681D01*
X0509408Y0227685D01*
X0509408Y0227685D01*
X0509830Y0227740D01*
X0509941Y0227754D01*
X0509966Y0227765D01*
X0509966Y0227765D01*
X0510124Y0227835D01*
X0510457Y0227981D01*
X0510764Y0228239D01*
X0510774Y0228248D01*
X0510998Y0228339D01*
X0511231Y0228280D01*
X0511386Y0228096D01*
X0511415Y0227950D01*
X0511415Y0226479D01*
X0511341Y0226250D01*
X0511301Y0226204D01*
X0509972Y0224875D01*
X0509947Y0224852D01*
X0509900Y0224813D01*
X0509830Y0224753D01*
X0509753Y0224621D01*
X0509735Y0224592D01*
X0509714Y0224562D01*
X0509647Y0224467D01*
X0509638Y0224434D01*
X0509628Y0224413D01*
X0509621Y0224391D01*
X0509604Y0224362D01*
X0509598Y0224328D01*
X0509598Y0224328D01*
X0509577Y0224211D01*
X0509570Y0224178D01*
X0509566Y0224164D01*
X0509555Y0224122D01*
X0509539Y0224063D01*
X0509530Y0224030D01*
X0509533Y0223996D01*
X0509543Y0223878D01*
X0509545Y0223844D01*
X0509545Y0204147D01*
X0509543Y0204113D01*
X0509533Y0203994D01*
X0509530Y0203960D01*
X0509539Y0203927D01*
X0509555Y0203868D01*
X0509566Y0203826D01*
X0509570Y0203812D01*
X0509577Y0203779D01*
X0509598Y0203662D01*
X0509598Y0203662D01*
X0509604Y0203628D01*
X0509621Y0203599D01*
X0509628Y0203577D01*
X0509638Y0203557D01*
X0509647Y0203524D01*
X0509714Y0203428D01*
X0509735Y0203398D01*
X0509753Y0203370D01*
X0509830Y0203237D01*
X0509913Y0203167D01*
X0509947Y0203139D01*
X0509972Y0203116D01*
X0514291Y0198797D01*
X0514400Y0198582D01*
X0514362Y0198344D01*
X0514192Y0198174D01*
X0514015Y0198131D01*
X0509900Y0198131D01*
X0509866Y0198133D01*
X0509748Y0198143D01*
X0509714Y0198146D01*
X0509566Y0198107D01*
X0509533Y0198099D01*
X0509416Y0198079D01*
X0509416Y0198079D01*
X0509382Y0198073D01*
X0509353Y0198056D01*
X0509331Y0198048D01*
X0509310Y0198038D01*
X0509277Y0198029D01*
X0509152Y0197942D01*
X0509123Y0197923D01*
X0509116Y0197919D01*
X0508991Y0197847D01*
X0508892Y0197730D01*
X0508869Y0197705D01*
X0507178Y0196013D01*
X0506964Y0195904D01*
X0506852Y0195903D01*
X0506712Y0195921D01*
X0506389Y0195879D01*
X0506172Y0195850D01*
X0506172Y0195850D01*
X0506146Y0195847D01*
X0505619Y0195628D01*
X0505166Y0195281D01*
X0504819Y0194828D01*
X0504601Y0194301D01*
X0504597Y0194275D01*
X0504597Y0194275D01*
X0504530Y0193760D01*
X0504526Y0193735D01*
X0504530Y0193710D01*
X0504597Y0193195D01*
X0504597Y0193195D01*
X0504601Y0193169D01*
X0504647Y0193058D01*
X0504727Y0192863D01*
X0504746Y0192623D01*
X0504620Y0192418D01*
X0504398Y0192326D01*
X0504367Y0192324D01*
X0500081Y0192324D01*
X0499852Y0192399D01*
X0499710Y0192594D01*
X0499710Y0192835D01*
X0499721Y0192863D01*
X0499794Y0193040D01*
X0499847Y0193169D01*
X0499851Y0193195D01*
X0499851Y0193195D01*
X0499919Y0193710D01*
X0499922Y0193735D01*
X0499919Y0193760D01*
X0499851Y0194275D01*
X0499851Y0194275D01*
X0499847Y0194301D01*
X0499629Y0194828D01*
X0499282Y0195281D01*
X0498829Y0195628D01*
X0498302Y0195847D01*
X0498200Y0195860D01*
X0497761Y0195918D01*
X0497736Y0195921D01*
X0497479Y0195887D01*
X0497242Y0195931D01*
X0497152Y0195998D01*
X0493935Y0199215D01*
X0493825Y0199430D01*
X0493820Y0199491D01*
X0493820Y0201063D01*
X0493895Y0201292D01*
G37*
G36*
X0493186Y0245954D02*
G01*
X0493226Y0246000D01*
X0496498Y0249272D01*
X0496712Y0249381D01*
X0496950Y0249344D01*
X0497121Y0249173D01*
X0497163Y0248996D01*
X0497163Y0248633D01*
X0497089Y0248404D01*
X0497028Y0248338D01*
X0497024Y0248334D01*
X0497024Y0248334D01*
X0497003Y0248316D01*
X0496696Y0247842D01*
X0496534Y0247302D01*
X0496532Y0246974D01*
X0496531Y0246765D01*
X0496531Y0246765D01*
X0496530Y0246737D01*
X0496538Y0246711D01*
X0496538Y0246711D01*
X0496678Y0246221D01*
X0496678Y0246221D01*
X0496686Y0246195D01*
X0496712Y0246152D01*
X0496956Y0245765D01*
X0496987Y0245717D01*
X0497008Y0245699D01*
X0497008Y0245699D01*
X0497389Y0245362D01*
X0497389Y0245362D01*
X0497410Y0245344D01*
X0497818Y0245152D01*
X0497994Y0244987D01*
X0498039Y0244751D01*
X0497928Y0244524D01*
X0497875Y0244470D01*
X0497850Y0244447D01*
X0497776Y0244386D01*
X0497732Y0244349D01*
X0497656Y0244217D01*
X0497638Y0244188D01*
X0497616Y0244157D01*
X0497550Y0244063D01*
X0497541Y0244030D01*
X0497531Y0244009D01*
X0497523Y0243987D01*
X0497506Y0243958D01*
X0497501Y0243924D01*
X0497501Y0243924D01*
X0497480Y0243807D01*
X0497473Y0243774D01*
X0497442Y0243659D01*
X0497433Y0243626D01*
X0497436Y0243592D01*
X0497446Y0243474D01*
X0497448Y0243440D01*
X0497448Y0241863D01*
X0497373Y0241634D01*
X0497334Y0241587D01*
X0497268Y0241522D01*
X0497054Y0241413D01*
X0496816Y0241451D01*
X0496636Y0241641D01*
X0496630Y0241664D01*
X0496335Y0242145D01*
X0495917Y0242523D01*
X0495409Y0242769D01*
X0495219Y0242801D01*
X0494867Y0242861D01*
X0494867Y0242861D01*
X0494852Y0242863D01*
X0494803Y0242864D01*
X0494245Y0242784D01*
X0493731Y0242550D01*
X0493711Y0242533D01*
X0493478Y0242472D01*
X0493254Y0242560D01*
X0493124Y0242763D01*
X0493112Y0242861D01*
X0493112Y0245725D01*
X0493186Y0245954D01*
G37*
G36*
X0483639Y0299640D02*
G01*
X0483834Y0299782D01*
X0483954Y0299801D01*
X0495934Y0299801D01*
X0496163Y0299726D01*
X0496305Y0299531D01*
X0496305Y0299291D01*
X0496163Y0299096D01*
X0496092Y0299061D01*
X0496094Y0299056D01*
X0495606Y0298834D01*
X0495606Y0298834D01*
X0495581Y0298822D01*
X0495153Y0298454D01*
X0494846Y0297980D01*
X0494684Y0297439D01*
X0494682Y0297112D01*
X0494681Y0296903D01*
X0494681Y0296903D01*
X0494681Y0296875D01*
X0494688Y0296848D01*
X0494688Y0296848D01*
X0494828Y0296359D01*
X0494828Y0296359D01*
X0494836Y0296332D01*
X0495137Y0295855D01*
X0495135Y0295854D01*
X0495219Y0295650D01*
X0495162Y0295416D01*
X0495153Y0295403D01*
X0495153Y0295403D01*
X0494923Y0295048D01*
X0494846Y0294929D01*
X0494776Y0294697D01*
X0494639Y0294498D01*
X0494412Y0294419D01*
X0494181Y0294488D01*
X0494127Y0294533D01*
X0493127Y0295533D01*
X0493018Y0295748D01*
X0493013Y0295816D01*
X0493015Y0295950D01*
X0493018Y0296084D01*
X0493018Y0296084D01*
X0493018Y0296112D01*
X0493011Y0296139D01*
X0493011Y0296139D01*
X0492890Y0296582D01*
X0492870Y0296656D01*
X0492575Y0297137D01*
X0492467Y0297235D01*
X0492177Y0297497D01*
X0492156Y0297516D01*
X0491648Y0297762D01*
X0491589Y0297772D01*
X0491106Y0297853D01*
X0491106Y0297853D01*
X0491092Y0297856D01*
X0491043Y0297856D01*
X0490484Y0297776D01*
X0490118Y0297610D01*
X0489996Y0297554D01*
X0489996Y0297554D01*
X0489970Y0297543D01*
X0489604Y0297227D01*
X0489564Y0297193D01*
X0489564Y0297192D01*
X0489543Y0297174D01*
X0489236Y0296701D01*
X0489074Y0296160D01*
X0489072Y0295832D01*
X0489071Y0295623D01*
X0489071Y0295623D01*
X0489071Y0295596D01*
X0489078Y0295569D01*
X0489078Y0295569D01*
X0489218Y0295080D01*
X0489218Y0295080D01*
X0489226Y0295053D01*
X0489241Y0295029D01*
X0489241Y0295029D01*
X0489509Y0294604D01*
X0489568Y0294370D01*
X0489479Y0294147D01*
X0489434Y0294101D01*
X0489367Y0294043D01*
X0489367Y0294043D01*
X0489346Y0294025D01*
X0489039Y0293551D01*
X0488877Y0293010D01*
X0488875Y0292683D01*
X0488874Y0292474D01*
X0488874Y0292474D01*
X0488874Y0292446D01*
X0488881Y0292419D01*
X0488881Y0292419D01*
X0489021Y0291930D01*
X0489021Y0291930D01*
X0489029Y0291903D01*
X0489330Y0291426D01*
X0489351Y0291407D01*
X0489351Y0291407D01*
X0489732Y0291071D01*
X0489732Y0291071D01*
X0489753Y0291052D01*
X0490264Y0290812D01*
X0490291Y0290808D01*
X0490291Y0290808D01*
X0490748Y0290737D01*
X0490822Y0290726D01*
X0490849Y0290729D01*
X0490864Y0290729D01*
X0491092Y0290652D01*
X0491135Y0290615D01*
X0491349Y0290401D01*
X0491458Y0290187D01*
X0491420Y0289949D01*
X0491250Y0289778D01*
X0491073Y0289736D01*
X0484568Y0289736D01*
X0484456Y0289714D01*
X0484375Y0289697D01*
X0484375Y0289697D01*
X0484337Y0289690D01*
X0484205Y0289602D01*
X0484171Y0289579D01*
X0483939Y0289513D01*
X0483713Y0289597D01*
X0483579Y0289797D01*
X0483565Y0289903D01*
X0483565Y0299411D01*
X0483639Y0299640D01*
G37*
G36*
X0486910Y0201338D02*
G01*
X0488787Y0203215D01*
X0488812Y0203238D01*
X0488929Y0203336D01*
X0489006Y0203469D01*
X0489024Y0203497D01*
X0489112Y0203623D01*
X0489121Y0203656D01*
X0489131Y0203677D01*
X0489138Y0203698D01*
X0489155Y0203728D01*
X0489182Y0203878D01*
X0489189Y0203912D01*
X0489220Y0204026D01*
X0489220Y0204026D01*
X0489229Y0204059D01*
X0489216Y0204212D01*
X0489214Y0204246D01*
X0489214Y0234941D01*
X0489289Y0235170D01*
X0489483Y0235312D01*
X0489724Y0235312D01*
X0489880Y0235217D01*
X0490558Y0234539D01*
X0490581Y0234514D01*
X0490636Y0234447D01*
X0490679Y0234396D01*
X0490811Y0234320D01*
X0490840Y0234302D01*
X0490965Y0234214D01*
X0490998Y0234205D01*
X0491019Y0234195D01*
X0491041Y0234188D01*
X0491070Y0234170D01*
X0491104Y0234165D01*
X0491104Y0234165D01*
X0491221Y0234144D01*
X0491254Y0234137D01*
X0491402Y0234097D01*
X0491436Y0234100D01*
X0491554Y0234110D01*
X0491588Y0234112D01*
X0493791Y0234112D01*
X0494021Y0234037D01*
X0494162Y0233842D01*
X0494162Y0233602D01*
X0494067Y0233446D01*
X0493633Y0233013D01*
X0493608Y0232990D01*
X0493533Y0232927D01*
X0493491Y0232891D01*
X0493414Y0232759D01*
X0493396Y0232730D01*
X0493374Y0232698D01*
X0493308Y0232605D01*
X0493300Y0232572D01*
X0493290Y0232551D01*
X0493282Y0232529D01*
X0493265Y0232500D01*
X0493259Y0232466D01*
X0493259Y0232466D01*
X0493238Y0232349D01*
X0493231Y0232316D01*
X0493200Y0232201D01*
X0493191Y0232168D01*
X0493194Y0232134D01*
X0493205Y0232016D01*
X0493206Y0231982D01*
X0493206Y0210435D01*
X0493132Y0210206D01*
X0493071Y0210140D01*
X0493009Y0210086D01*
X0493009Y0210086D01*
X0492988Y0210068D01*
X0492681Y0209594D01*
X0492519Y0209054D01*
X0492517Y0208726D01*
X0492516Y0208517D01*
X0492516Y0208517D01*
X0492515Y0208489D01*
X0492523Y0208463D01*
X0492523Y0208463D01*
X0492663Y0207973D01*
X0492663Y0207973D01*
X0492671Y0207947D01*
X0492972Y0207469D01*
X0492993Y0207451D01*
X0492993Y0207451D01*
X0493374Y0207114D01*
X0493374Y0207114D01*
X0493395Y0207096D01*
X0493491Y0207050D01*
X0493506Y0207043D01*
X0493682Y0206878D01*
X0493727Y0206642D01*
X0493616Y0206415D01*
X0491684Y0204483D01*
X0491659Y0204460D01*
X0491589Y0204400D01*
X0491542Y0204361D01*
X0491466Y0204229D01*
X0491447Y0204200D01*
X0491423Y0204166D01*
X0491360Y0204075D01*
X0491351Y0204042D01*
X0491341Y0204021D01*
X0491333Y0204000D01*
X0491316Y0203970D01*
X0491310Y0203937D01*
X0491310Y0203937D01*
X0491293Y0203837D01*
X0491290Y0203819D01*
X0491282Y0203786D01*
X0491251Y0203671D01*
X0491243Y0203638D01*
X0491246Y0203604D01*
X0491256Y0203486D01*
X0491257Y0203452D01*
X0491257Y0200393D01*
X0491183Y0200164D01*
X0490988Y0200022D01*
X0490868Y0200003D01*
X0489161Y0200003D01*
X0488932Y0200078D01*
X0488900Y0200104D01*
X0488885Y0200117D01*
X0488604Y0200372D01*
X0488136Y0200599D01*
X0488121Y0200606D01*
X0488096Y0200618D01*
X0487896Y0200652D01*
X0487554Y0200709D01*
X0487554Y0200709D01*
X0487539Y0200712D01*
X0487491Y0200712D01*
X0487241Y0200677D01*
X0487004Y0200718D01*
X0486836Y0200891D01*
X0486802Y0201129D01*
X0486910Y0201338D01*
G37*
G36*
X0483639Y0258793D02*
G01*
X0483834Y0258934D01*
X0484075Y0258934D01*
X0484270Y0258793D01*
X0484329Y0258671D01*
X0484456Y0258228D01*
X0484456Y0258228D01*
X0484463Y0258201D01*
X0484764Y0257724D01*
X0484785Y0257705D01*
X0484785Y0257705D01*
X0485167Y0257368D01*
X0485167Y0257368D01*
X0485188Y0257350D01*
X0485698Y0257110D01*
X0485726Y0257106D01*
X0485726Y0257106D01*
X0486010Y0257062D01*
X0486256Y0257023D01*
X0486284Y0257027D01*
X0486284Y0257027D01*
X0486729Y0257085D01*
X0486816Y0257097D01*
X0486841Y0257108D01*
X0486841Y0257108D01*
X0487280Y0257301D01*
X0487332Y0257324D01*
X0487582Y0257534D01*
X0487670Y0257607D01*
X0487893Y0257698D01*
X0487921Y0257699D01*
X0490722Y0257699D01*
X0490951Y0257624D01*
X0491093Y0257430D01*
X0491095Y0257197D01*
X0490959Y0256742D01*
X0490957Y0256414D01*
X0490956Y0256206D01*
X0490956Y0256206D01*
X0490956Y0256178D01*
X0490963Y0256151D01*
X0490963Y0256151D01*
X0490967Y0256138D01*
X0491010Y0255988D01*
X0491001Y0255747D01*
X0490911Y0255605D01*
X0490008Y0254702D01*
X0489793Y0254593D01*
X0489732Y0254588D01*
X0487297Y0254588D01*
X0487263Y0254590D01*
X0487145Y0254600D01*
X0487111Y0254603D01*
X0487078Y0254594D01*
X0487078Y0254594D01*
X0486963Y0254563D01*
X0486930Y0254556D01*
X0486836Y0254540D01*
X0486779Y0254529D01*
X0486749Y0254512D01*
X0486728Y0254505D01*
X0486707Y0254495D01*
X0486674Y0254486D01*
X0486549Y0254398D01*
X0486520Y0254380D01*
X0486388Y0254303D01*
X0486289Y0254186D01*
X0486266Y0254161D01*
X0484519Y0252414D01*
X0484494Y0252391D01*
X0484488Y0252386D01*
X0484377Y0252293D01*
X0484300Y0252160D01*
X0484282Y0252132D01*
X0484274Y0252120D01*
X0484081Y0251975D01*
X0483840Y0251970D01*
X0483643Y0252108D01*
X0483565Y0252343D01*
X0483565Y0258564D01*
X0483639Y0258793D01*
G37*
G36*
X0483639Y0196157D02*
G01*
X0483834Y0196298D01*
X0484075Y0196298D01*
X0484205Y0196226D01*
X0484219Y0196214D01*
X0484244Y0196192D01*
X0485464Y0194972D01*
X0485487Y0194947D01*
X0485585Y0194830D01*
X0485676Y0194777D01*
X0485717Y0194753D01*
X0485746Y0194735D01*
X0485871Y0194647D01*
X0485904Y0194638D01*
X0485925Y0194628D01*
X0485947Y0194621D01*
X0485976Y0194604D01*
X0486010Y0194598D01*
X0486010Y0194598D01*
X0486127Y0194577D01*
X0486160Y0194570D01*
X0486256Y0194544D01*
X0486308Y0194530D01*
X0486342Y0194533D01*
X0486460Y0194543D01*
X0486494Y0194545D01*
X0487122Y0194545D01*
X0487351Y0194470D01*
X0487398Y0194431D01*
X0487588Y0194240D01*
X0487698Y0194025D01*
X0487699Y0193914D01*
X0487679Y0193760D01*
X0487679Y0193760D01*
X0487676Y0193735D01*
X0487679Y0193710D01*
X0487747Y0193195D01*
X0487747Y0193195D01*
X0487750Y0193169D01*
X0487804Y0193040D01*
X0487877Y0192863D01*
X0487896Y0192623D01*
X0487770Y0192418D01*
X0487547Y0192326D01*
X0487517Y0192324D01*
X0483954Y0192324D01*
X0483725Y0192399D01*
X0483584Y0192594D01*
X0483565Y0192714D01*
X0483565Y0195928D01*
X0483639Y0196157D01*
G37*
G36*
X0483639Y0237058D02*
G01*
X0483834Y0237200D01*
X0484075Y0237200D01*
X0484274Y0237053D01*
X0484282Y0237041D01*
X0484300Y0237012D01*
X0484377Y0236880D01*
X0484403Y0236858D01*
X0484494Y0236781D01*
X0484519Y0236758D01*
X0486537Y0234740D01*
X0486646Y0234526D01*
X0486651Y0234465D01*
X0486651Y0204865D01*
X0486577Y0204636D01*
X0486537Y0204589D01*
X0484244Y0202296D01*
X0484219Y0202273D01*
X0484205Y0202262D01*
X0483982Y0202171D01*
X0483748Y0202230D01*
X0483593Y0202414D01*
X0483565Y0202560D01*
X0483565Y0236829D01*
X0483639Y0237058D01*
G37*
X0386614Y0299360D02*
%LPD*%
G01*
D14*
X0413779Y0241092D03*
X0409055Y0241092D03*
X0418504Y0241092D03*
X0423228Y0241092D03*
D26*
X0412726Y0298769D03*
D27*
X0388907Y0298769D03*
D28*
X0424409Y0271161D03*
D29*
X0387205Y0269537D03*
D30*
X0396899Y0240305D03*
D14*
X0397795Y0297884D03*
X0393858Y0297884D03*
D14*
X0413992Y0244997D03*
X0408858Y0296604D03*
X0415157Y0266289D03*
X0405315Y0242273D03*
X0422244Y0268651D03*
X0389173Y0272588D03*
X0389173Y0285187D03*
X0422244Y0282825D03*
X0422244Y0251329D03*
X0422244Y0296210D03*
X0391929Y0242273D03*
X0413189Y0278888D03*
X0408240Y0264644D03*
X0389173Y0248179D03*
X0397441Y0286368D03*
X0389173Y0265502D03*
X0397047Y0272982D03*
X0401378Y0255266D03*
X0391929Y0252903D03*
X0408071Y0287943D03*
X0389173Y0296604D03*
X0392716Y0260384D03*
X0403346Y0278494D03*
G36*
X0424827Y0243221D02*
G01*
X0424632Y0243080D01*
X0424512Y0243061D01*
X0407086Y0243061D01*
X0407086Y0243061D01*
X0407086Y0240203D01*
X0407012Y0239973D01*
X0406817Y0239832D01*
X0406697Y0239813D01*
X0387104Y0239813D01*
X0386875Y0239887D01*
X0386733Y0240082D01*
X0386714Y0240203D01*
X0386714Y0298870D01*
X0386789Y0299099D01*
X0386984Y0299241D01*
X0387104Y0299260D01*
X0390712Y0299260D01*
X0390942Y0299185D01*
X0391083Y0298990D01*
X0391102Y0298870D01*
X0391102Y0298247D01*
X0391101Y0298223D01*
X0391100Y0298218D01*
X0391100Y0297549D01*
X0391100Y0297549D01*
X0391260Y0296898D01*
X0391572Y0296305D01*
X0392016Y0295804D01*
X0392567Y0295424D01*
X0393193Y0295186D01*
X0393858Y0295105D01*
X0394523Y0295186D01*
X0395149Y0295424D01*
X0395605Y0295738D01*
X0395836Y0295807D01*
X0396048Y0295738D01*
X0396504Y0295424D01*
X0397130Y0295186D01*
X0397795Y0295105D01*
X0398460Y0295186D01*
X0399086Y0295424D01*
X0399637Y0295804D01*
X0400081Y0296305D01*
X0400393Y0296898D01*
X0400393Y0296898D01*
X0400393Y0296898D01*
X0400553Y0297549D01*
X0400553Y0297549D01*
X0400553Y0298218D01*
X0400552Y0298223D01*
X0400551Y0298247D01*
X0400551Y0298870D01*
X0400625Y0299099D01*
X0400820Y0299241D01*
X0400941Y0299260D01*
X0424512Y0299260D01*
X0424741Y0299185D01*
X0424882Y0298990D01*
X0424901Y0298870D01*
X0424901Y0243451D01*
X0424827Y0243221D01*
G37*
X0346555Y0298622D02*
%LPD*%
G01*
D14*
X0373720Y0240354D03*
X0368996Y0240354D03*
X0378445Y0240354D03*
X0383169Y0240354D03*
D26*
X0372667Y0298031D03*
D27*
X0348848Y0298031D03*
D28*
X0384350Y0270423D03*
D29*
X0347146Y0268799D03*
D30*
X0356840Y0239567D03*
D14*
X0357736Y0297146D03*
X0353799Y0297146D03*
D14*
X0365492Y0286965D03*
X0383462Y0280738D03*
X0347933Y0240197D03*
X0381712Y0296968D03*
X0373425Y0296752D03*
X0348130Y0263386D03*
X0372410Y0271733D03*
X0355756Y0289438D03*
X0368637Y0277097D03*
X0348130Y0281299D03*
X0348185Y0289529D03*
X0368110Y0259547D03*
X0360214Y0257377D03*
X0365256Y0297244D03*
X0367618Y0269882D03*
X0356890Y0240354D03*
X0363878Y0262697D03*
X0383253Y0250901D03*
X0352756Y0240453D03*
X0362613Y0284053D03*
X0349467Y0284349D03*
X0363407Y0266473D03*
X0355535Y0279857D03*
X0363546Y0289184D03*
X0381831Y0288701D03*
X0354440Y0242875D03*
X0378745Y0278322D03*
X0367994Y0279975D03*
X0353324Y0269087D03*
X0354529Y0247637D03*
X0380964Y0252856D03*
X0381551Y0285222D03*
X0381559Y0255807D03*
X0367814Y0256499D03*
X0374849Y0257164D03*
X0356828Y0268683D03*
X0372520Y0288678D03*
X0368401Y0274154D03*
X0364359Y0270409D03*
X0360433Y0269783D03*
X0365256Y0258366D03*
X0368266Y0251018D03*
X0349726Y0256730D03*
X0349606Y0269587D03*
D89*
X0369862Y0284764D02*
X0369862Y0291142D01*
X0371555Y0283071D02*
X0369862Y0284764D01*
X0369862Y0291142D02*
X0365504Y0291142D01*
X0373327Y0291142D02*
X0369862Y0291142D01*
X0350553Y0284349D02*
X0349467Y0284349D01*
X0352657Y0279094D02*
X0352657Y0282244D01*
X0352657Y0282244D02*
X0350553Y0284349D01*
X0354468Y0277283D02*
X0352657Y0279094D01*
X0365492Y0286965D02*
X0365492Y0283700D01*
X0365492Y0283700D02*
X0359075Y0277283D01*
X0359075Y0277283D02*
X0354468Y0277283D01*
X0371555Y0274077D02*
X0371555Y0283071D01*
X0369862Y0268924D02*
X0369882Y0268944D01*
X0369862Y0260997D02*
X0369862Y0268924D01*
X0370530Y0248975D02*
X0370530Y0260329D01*
X0354843Y0242997D02*
X0364552Y0242997D01*
X0365504Y0291142D02*
X0363546Y0289184D01*
X0364552Y0242997D02*
X0370530Y0248975D01*
X0378838Y0285630D02*
X0373327Y0291142D01*
X0361034Y0289184D02*
X0363546Y0289184D01*
X0355535Y0283685D02*
X0361034Y0289184D01*
X0369882Y0268944D02*
X0369882Y0272403D01*
X0355535Y0279857D02*
X0355535Y0283685D01*
X0370530Y0260329D02*
X0369862Y0260997D01*
X0369882Y0272403D02*
X0371555Y0274077D01*
X0375634Y0282830D02*
X0375634Y0272091D01*
X0372520Y0285945D02*
X0375634Y0282830D01*
X0372520Y0288678D02*
X0372520Y0285945D01*
X0353346Y0250528D02*
X0355512Y0248362D01*
X0353346Y0268405D02*
X0353346Y0250528D01*
X0364916Y0279975D02*
X0353346Y0268405D01*
X0367994Y0279975D02*
X0364916Y0279975D01*
X0363407Y0266473D02*
X0363430Y0266496D01*
X0378740Y0270866D02*
X0377172Y0269298D01*
X0378740Y0285610D02*
X0378740Y0270866D01*
X0363430Y0266496D02*
X0369783Y0266496D01*
X0377172Y0246351D02*
X0383169Y0240354D01*
X0381831Y0288701D02*
X0378740Y0285610D01*
X0377172Y0269298D02*
X0377172Y0246351D01*
X0379035Y0254785D02*
X0380964Y0252856D01*
X0381551Y0285222D02*
X0381201Y0284872D01*
X0381201Y0269882D02*
X0379035Y0267716D01*
X0379035Y0267716D02*
X0379035Y0254785D01*
X0381201Y0284872D02*
X0381201Y0269882D01*
X0375634Y0272091D02*
X0375634Y0271199D01*
X0375634Y0272091D02*
X0375634Y0271413D01*
X0372224Y0267788D02*
X0372224Y0246477D01*
X0372224Y0246477D02*
X0378346Y0240354D01*
X0375634Y0271199D02*
X0372224Y0267788D01*
X0368266Y0251018D02*
X0365256Y0254029D01*
X0365256Y0254029D02*
X0365256Y0258366D01*
G36*
X0384768Y0241871D02*
G01*
X0384573Y0241730D01*
X0384332Y0241730D01*
X0384197Y0241806D01*
X0384136Y0241859D01*
X0383673Y0242071D01*
X0383673Y0242071D01*
X0383169Y0242143D01*
X0383169Y0242143D01*
X0383136Y0242138D01*
X0382898Y0242179D01*
X0382805Y0242248D01*
X0378368Y0246685D01*
X0378259Y0246900D01*
X0378254Y0246961D01*
X0378254Y0253096D01*
X0378328Y0253325D01*
X0378523Y0253466D01*
X0378764Y0253466D01*
X0378919Y0253371D01*
X0379079Y0253211D01*
X0379188Y0252997D01*
X0379193Y0252936D01*
X0379193Y0252602D01*
X0379193Y0252602D01*
X0379337Y0252113D01*
X0379612Y0251685D01*
X0379997Y0251351D01*
X0380460Y0251140D01*
X0380479Y0251137D01*
X0380964Y0251067D01*
X0380964Y0251067D01*
X0381468Y0251140D01*
X0381468Y0251140D01*
X0381468Y0251140D01*
X0381931Y0251351D01*
X0382316Y0251685D01*
X0382399Y0251814D01*
X0382591Y0252113D01*
X0382734Y0252602D01*
X0382734Y0252602D01*
X0382734Y0253111D01*
X0382734Y0253111D01*
X0382591Y0253599D01*
X0382460Y0253803D01*
X0382399Y0254036D01*
X0382486Y0254260D01*
X0382532Y0254308D01*
X0382910Y0254636D01*
X0383186Y0255064D01*
X0383329Y0255552D01*
X0383329Y0255552D01*
X0383329Y0256062D01*
X0383329Y0256062D01*
X0383186Y0256550D01*
X0383186Y0256550D01*
X0382910Y0256978D01*
X0382910Y0256978D01*
X0382910Y0256978D01*
X0382591Y0257255D01*
X0382526Y0257312D01*
X0382062Y0257523D01*
X0382062Y0257523D01*
X0381559Y0257596D01*
X0381559Y0257596D01*
X0381055Y0257523D01*
X0381055Y0257523D01*
X0381055Y0257523D01*
X0381055Y0257523D01*
X0380964Y0257482D01*
X0380668Y0257347D01*
X0380429Y0257319D01*
X0380219Y0257438D01*
X0380119Y0257657D01*
X0380117Y0257701D01*
X0380117Y0267107D01*
X0380191Y0267336D01*
X0380231Y0267383D01*
X0381863Y0269015D01*
X0381922Y0269063D01*
X0381980Y0269102D01*
X0382219Y0269460D01*
X0382219Y0269460D01*
X0382219Y0269460D01*
X0382242Y0269571D01*
X0382253Y0269627D01*
X0382303Y0269882D01*
X0382303Y0269882D01*
X0382290Y0269951D01*
X0382282Y0270027D01*
X0382282Y0283359D01*
X0382357Y0283588D01*
X0382495Y0283701D01*
X0382494Y0283702D01*
X0382502Y0283707D01*
X0382510Y0283714D01*
X0382518Y0283717D01*
X0382518Y0283717D01*
X0382902Y0284051D01*
X0383178Y0284479D01*
X0383186Y0284506D01*
X0383321Y0284968D01*
X0383321Y0284968D01*
X0383321Y0285477D01*
X0383321Y0285477D01*
X0383178Y0285965D01*
X0383178Y0285965D01*
X0382902Y0286393D01*
X0382718Y0286553D01*
X0382594Y0286759D01*
X0382614Y0286999D01*
X0382772Y0287182D01*
X0382789Y0287191D01*
X0382798Y0287196D01*
X0382798Y0287196D01*
X0382798Y0287196D01*
X0383182Y0287529D01*
X0383458Y0287958D01*
X0383601Y0288446D01*
X0383601Y0288446D01*
X0383601Y0288955D01*
X0383601Y0288955D01*
X0383458Y0289444D01*
X0383458Y0289444D01*
X0383182Y0289872D01*
X0383182Y0289872D01*
X0383182Y0289872D01*
X0383169Y0289884D01*
X0382798Y0290205D01*
X0382335Y0290417D01*
X0382335Y0290417D01*
X0381831Y0290489D01*
X0381831Y0290489D01*
X0381327Y0290417D01*
X0381327Y0290417D01*
X0381327Y0290417D01*
X0381327Y0290417D01*
X0380864Y0290205D01*
X0380479Y0289872D01*
X0380204Y0289444D01*
X0380060Y0288955D01*
X0380060Y0288621D01*
X0379986Y0288392D01*
X0379946Y0288346D01*
X0379075Y0287474D01*
X0378860Y0287365D01*
X0378622Y0287403D01*
X0378523Y0287474D01*
X0374194Y0291804D01*
X0374145Y0291863D01*
X0374106Y0291921D01*
X0373994Y0291996D01*
X0373882Y0292071D01*
X0373851Y0292092D01*
X0373749Y0292160D01*
X0373749Y0292160D01*
X0373327Y0292244D01*
X0373258Y0292231D01*
X0373182Y0292223D01*
X0370007Y0292223D01*
X0369931Y0292231D01*
X0369862Y0292244D01*
X0369793Y0292231D01*
X0369717Y0292223D01*
X0365649Y0292223D01*
X0365573Y0292231D01*
X0365504Y0292244D01*
X0365464Y0292236D01*
X0365398Y0292223D01*
X0365082Y0292160D01*
X0364779Y0291958D01*
X0364724Y0291921D01*
X0364685Y0291863D01*
X0364637Y0291804D01*
X0363911Y0291078D01*
X0363696Y0290968D01*
X0363580Y0290967D01*
X0363546Y0290972D01*
X0363546Y0290972D01*
X0363042Y0290900D01*
X0363042Y0290900D01*
X0363042Y0290900D01*
X0363042Y0290900D01*
X0362579Y0290688D01*
X0362200Y0290360D01*
X0361978Y0290266D01*
X0361945Y0290265D01*
X0361179Y0290265D01*
X0361103Y0290273D01*
X0361034Y0290286D01*
X0360927Y0290265D01*
X0360612Y0290202D01*
X0360374Y0290043D01*
X0360254Y0289963D01*
X0360215Y0289905D01*
X0360167Y0289846D01*
X0354873Y0284552D01*
X0354814Y0284504D01*
X0354756Y0284465D01*
X0354568Y0284184D01*
X0354517Y0284107D01*
X0354433Y0283685D01*
X0354444Y0283627D01*
X0354446Y0283616D01*
X0354454Y0283540D01*
X0354454Y0282714D01*
X0354379Y0282485D01*
X0354184Y0282343D01*
X0353944Y0282343D01*
X0353749Y0282485D01*
X0353682Y0282638D01*
X0353676Y0282666D01*
X0353437Y0283024D01*
X0353437Y0283024D01*
X0353379Y0283063D01*
X0353320Y0283111D01*
X0351420Y0285011D01*
X0351371Y0285070D01*
X0351332Y0285128D01*
X0351332Y0285128D01*
X0351171Y0285236D01*
X0351094Y0285288D01*
X0350975Y0285368D01*
X0350975Y0285368D01*
X0350943Y0285389D01*
X0350951Y0285401D01*
X0350830Y0285503D01*
X0350819Y0285520D01*
X0350434Y0285854D01*
X0349971Y0286065D01*
X0349971Y0286065D01*
X0349467Y0286137D01*
X0349467Y0286137D01*
X0348963Y0286065D01*
X0348963Y0286065D01*
X0348963Y0286065D01*
X0348963Y0286065D01*
X0348500Y0285854D01*
X0348115Y0285520D01*
X0347840Y0285092D01*
X0347696Y0284603D01*
X0347696Y0284603D01*
X0347696Y0284094D01*
X0347696Y0284094D01*
X0347840Y0283606D01*
X0348115Y0283177D01*
X0348500Y0282844D01*
X0348963Y0282633D01*
X0348963Y0282633D01*
X0349467Y0282560D01*
X0349467Y0282560D01*
X0349971Y0282633D01*
X0349971Y0282633D01*
X0349971Y0282633D01*
X0350252Y0282761D01*
X0350492Y0282789D01*
X0350690Y0282682D01*
X0351462Y0281910D01*
X0351571Y0281696D01*
X0351576Y0281635D01*
X0351576Y0279239D01*
X0351568Y0279163D01*
X0351566Y0279150D01*
X0351555Y0279094D01*
X0351639Y0278672D01*
X0351655Y0278647D01*
X0351878Y0278315D01*
X0351936Y0278276D01*
X0351995Y0278227D01*
X0353601Y0276621D01*
X0353650Y0276562D01*
X0353689Y0276504D01*
X0354046Y0276265D01*
X0354362Y0276202D01*
X0354468Y0276181D01*
X0354517Y0276190D01*
X0354537Y0276194D01*
X0354613Y0276202D01*
X0358672Y0276202D01*
X0358901Y0276127D01*
X0359043Y0275933D01*
X0359043Y0275692D01*
X0358948Y0275537D01*
X0354285Y0270873D01*
X0354070Y0270764D01*
X0353847Y0270794D01*
X0353828Y0270803D01*
X0353828Y0270803D01*
X0353324Y0270875D01*
X0353324Y0270875D01*
X0352820Y0270803D01*
X0352820Y0270803D01*
X0352820Y0270803D01*
X0352820Y0270803D01*
X0352357Y0270591D01*
X0351972Y0270258D01*
X0351941Y0270209D01*
X0351754Y0270057D01*
X0351514Y0270043D01*
X0351311Y0270173D01*
X0351239Y0270310D01*
X0351233Y0270330D01*
X0351233Y0270330D01*
X0350958Y0270758D01*
X0350958Y0270758D01*
X0350958Y0270758D01*
X0350800Y0270894D01*
X0350573Y0271091D01*
X0350110Y0271303D01*
X0350110Y0271303D01*
X0349606Y0271375D01*
X0349606Y0271375D01*
X0349102Y0271303D01*
X0349102Y0271303D01*
X0349102Y0271303D01*
X0349102Y0271303D01*
X0348639Y0271091D01*
X0348254Y0270758D01*
X0347979Y0270330D01*
X0347836Y0269841D01*
X0347836Y0269841D01*
X0347836Y0269332D01*
X0347836Y0269332D01*
X0347979Y0268844D01*
X0348254Y0268415D01*
X0348639Y0268082D01*
X0349102Y0267870D01*
X0349223Y0267853D01*
X0349606Y0267798D01*
X0349606Y0267798D01*
X0349726Y0267815D01*
X0349726Y0258519D01*
X0349223Y0258446D01*
X0349223Y0258446D01*
X0349223Y0258446D01*
X0349223Y0258446D01*
X0348759Y0258235D01*
X0348375Y0257902D01*
X0348099Y0257473D01*
X0347956Y0256985D01*
X0347956Y0256985D01*
X0347956Y0256476D01*
X0347956Y0256476D01*
X0348099Y0255987D01*
X0348375Y0255559D01*
X0348759Y0255226D01*
X0349223Y0255014D01*
X0349223Y0255014D01*
X0349726Y0254942D01*
X0349726Y0254942D01*
X0350230Y0255014D01*
X0350230Y0255014D01*
X0350230Y0255014D01*
X0350693Y0255226D01*
X0351078Y0255559D01*
X0351239Y0255809D01*
X0351353Y0255987D01*
X0351501Y0256490D01*
X0351637Y0256689D01*
X0351735Y0256724D01*
X0351560Y0256851D01*
X0351501Y0256971D01*
X0351353Y0257473D01*
X0351353Y0257473D01*
X0351078Y0257902D01*
X0351078Y0257902D01*
X0351078Y0257902D01*
X0350908Y0258049D01*
X0350693Y0258235D01*
X0350230Y0258446D01*
X0350230Y0258446D01*
X0349726Y0258519D01*
X0349726Y0258519D01*
X0349726Y0267815D01*
X0350110Y0267870D01*
X0350110Y0267870D01*
X0350110Y0267870D01*
X0350573Y0268082D01*
X0350958Y0268415D01*
X0350989Y0268464D01*
X0351176Y0268617D01*
X0351416Y0268630D01*
X0351619Y0268500D01*
X0351691Y0268363D01*
X0351697Y0268344D01*
X0351972Y0267915D01*
X0352130Y0267778D01*
X0352255Y0267572D01*
X0352265Y0267484D01*
X0352265Y0257080D01*
X0352190Y0256851D01*
X0352017Y0256725D01*
X0352095Y0256702D01*
X0352242Y0256511D01*
X0352265Y0256380D01*
X0352265Y0250673D01*
X0352257Y0250597D01*
X0352255Y0250583D01*
X0352244Y0250528D01*
X0352328Y0250106D01*
X0352567Y0249748D01*
X0352625Y0249709D01*
X0352684Y0249660D01*
X0353096Y0249249D01*
X0353205Y0249034D01*
X0353167Y0248796D01*
X0353148Y0248763D01*
X0352902Y0248380D01*
X0352902Y0248380D01*
X0352758Y0247891D01*
X0352758Y0247891D01*
X0352758Y0247382D01*
X0352758Y0247382D01*
X0352902Y0246894D01*
X0353177Y0246465D01*
X0353562Y0246132D01*
X0354025Y0245921D01*
X0354093Y0245911D01*
X0354529Y0245848D01*
X0354529Y0245848D01*
X0355033Y0245921D01*
X0355033Y0245921D01*
X0355033Y0245921D01*
X0355496Y0246132D01*
X0355881Y0246465D01*
X0355894Y0246486D01*
X0356156Y0246894D01*
X0356299Y0247382D01*
X0356299Y0247382D01*
X0356299Y0247476D01*
X0356365Y0247693D01*
X0356530Y0247940D01*
X0356530Y0247940D01*
X0356530Y0247940D01*
X0356614Y0248362D01*
X0356614Y0248362D01*
X0356530Y0248784D01*
X0356530Y0248784D01*
X0356352Y0249052D01*
X0354542Y0250861D01*
X0354433Y0251076D01*
X0354428Y0251137D01*
X0354428Y0267523D01*
X0354502Y0267752D01*
X0354562Y0267817D01*
X0354575Y0267828D01*
X0354676Y0267915D01*
X0354676Y0267915D01*
X0354684Y0267922D01*
X0354906Y0268016D01*
X0355140Y0267961D01*
X0355267Y0267838D01*
X0355477Y0267512D01*
X0355861Y0267179D01*
X0356325Y0266967D01*
X0356516Y0266939D01*
X0356828Y0266895D01*
X0356828Y0266895D01*
X0357332Y0266967D01*
X0357332Y0266967D01*
X0357332Y0266967D01*
X0357795Y0267179D01*
X0358180Y0267512D01*
X0358455Y0267940D01*
X0358557Y0268285D01*
X0358569Y0268326D01*
X0358705Y0268525D01*
X0358932Y0268606D01*
X0359163Y0268538D01*
X0359198Y0268511D01*
X0359466Y0268279D01*
X0359929Y0268067D01*
X0360254Y0268020D01*
X0360433Y0267995D01*
X0360433Y0267995D01*
X0360937Y0268067D01*
X0360937Y0268067D01*
X0360937Y0268067D01*
X0361400Y0268279D01*
X0361785Y0268612D01*
X0362060Y0269040D01*
X0362060Y0269040D01*
X0362156Y0269369D01*
X0362292Y0269568D01*
X0362519Y0269649D01*
X0362750Y0269581D01*
X0362858Y0269470D01*
X0363007Y0269238D01*
X0363385Y0268910D01*
X0363510Y0268704D01*
X0363489Y0268464D01*
X0363331Y0268282D01*
X0363186Y0268230D01*
X0362903Y0268189D01*
X0362903Y0268189D01*
X0362903Y0268189D01*
X0362903Y0268189D01*
X0362440Y0267978D01*
X0362055Y0267644D01*
X0361780Y0267216D01*
X0361636Y0266728D01*
X0361636Y0266728D01*
X0361636Y0266218D01*
X0361636Y0266218D01*
X0361780Y0265730D01*
X0362055Y0265302D01*
X0362440Y0264968D01*
X0362903Y0264757D01*
X0363042Y0264737D01*
X0363407Y0264684D01*
X0363407Y0264684D01*
X0363911Y0264757D01*
X0363911Y0264757D01*
X0363911Y0264757D01*
X0364374Y0264968D01*
X0364374Y0264968D01*
X0364374Y0264968D01*
X0364779Y0265319D01*
X0365001Y0265413D01*
X0365034Y0265415D01*
X0368391Y0265415D01*
X0368620Y0265340D01*
X0368762Y0265145D01*
X0368781Y0265025D01*
X0368781Y0261142D01*
X0368773Y0261066D01*
X0368770Y0261052D01*
X0368759Y0260997D01*
X0368843Y0260575D01*
X0368885Y0260512D01*
X0368897Y0260495D01*
X0368961Y0260398D01*
X0369082Y0260217D01*
X0369141Y0260178D01*
X0369200Y0260129D01*
X0369260Y0260070D01*
X0369334Y0259995D01*
X0369444Y0259781D01*
X0369448Y0259720D01*
X0369448Y0258278D01*
X0369374Y0258049D01*
X0369179Y0257908D01*
X0368938Y0257908D01*
X0368803Y0257984D01*
X0368782Y0258002D01*
X0368781Y0258003D01*
X0368318Y0258215D01*
X0368318Y0258215D01*
X0367814Y0258287D01*
X0367814Y0258287D01*
X0367471Y0258238D01*
X0367234Y0258279D01*
X0367066Y0258452D01*
X0367033Y0258594D01*
X0367030Y0258593D01*
X0367026Y0258621D01*
X0366883Y0259109D01*
X0366883Y0259109D01*
X0366608Y0259537D01*
X0366608Y0259537D01*
X0366608Y0259537D01*
X0366496Y0259634D01*
X0366223Y0259871D01*
X0365760Y0260082D01*
X0365760Y0260082D01*
X0365256Y0260155D01*
X0365256Y0260155D01*
X0364752Y0260082D01*
X0364752Y0260082D01*
X0364752Y0260082D01*
X0364752Y0260082D01*
X0364289Y0259871D01*
X0363904Y0259537D01*
X0363629Y0259109D01*
X0363485Y0258621D01*
X0363485Y0258621D01*
X0363485Y0258112D01*
X0363485Y0258112D01*
X0363629Y0257623D01*
X0363904Y0257195D01*
X0364040Y0257077D01*
X0364164Y0256871D01*
X0364174Y0256783D01*
X0364174Y0254174D01*
X0364167Y0254098D01*
X0364164Y0254084D01*
X0364153Y0254029D01*
X0364237Y0253607D01*
X0364238Y0253605D01*
X0364240Y0253602D01*
X0364334Y0253461D01*
X0364476Y0253249D01*
X0364534Y0253210D01*
X0364594Y0253161D01*
X0366381Y0251374D01*
X0366491Y0251159D01*
X0366496Y0251098D01*
X0366496Y0250764D01*
X0366496Y0250764D01*
X0366639Y0250275D01*
X0366914Y0249847D01*
X0367299Y0249514D01*
X0367762Y0249302D01*
X0367762Y0249302D01*
X0368266Y0249230D01*
X0368294Y0249230D01*
X0368294Y0249224D01*
X0368500Y0249188D01*
X0368668Y0249015D01*
X0368702Y0248777D01*
X0368593Y0248568D01*
X0364218Y0244192D01*
X0364003Y0244083D01*
X0363942Y0244078D01*
X0355901Y0244078D01*
X0355672Y0244153D01*
X0355646Y0244173D01*
X0355407Y0244380D01*
X0354944Y0244592D01*
X0354944Y0244592D01*
X0354440Y0244664D01*
X0354440Y0244664D01*
X0353936Y0244592D01*
X0353936Y0244592D01*
X0353936Y0244592D01*
X0353936Y0244592D01*
X0353473Y0244380D01*
X0353088Y0244047D01*
X0352813Y0243619D01*
X0352670Y0243130D01*
X0352670Y0243130D01*
X0352670Y0242621D01*
X0352670Y0242621D01*
X0352813Y0242132D01*
X0353088Y0241704D01*
X0353473Y0241371D01*
X0353936Y0241159D01*
X0353936Y0241159D01*
X0354440Y0241087D01*
X0354440Y0241087D01*
X0354944Y0241159D01*
X0354944Y0241159D01*
X0354944Y0241159D01*
X0355407Y0241371D01*
X0355792Y0241704D01*
X0355792Y0241704D01*
X0355813Y0241736D01*
X0355999Y0241889D01*
X0356140Y0241915D01*
X0364407Y0241915D01*
X0364483Y0241908D01*
X0364494Y0241906D01*
X0364552Y0241894D01*
X0364974Y0241978D01*
X0365001Y0241996D01*
X0365034Y0242018D01*
X0365318Y0242208D01*
X0365331Y0242217D01*
X0365370Y0242275D01*
X0365419Y0242334D01*
X0370477Y0247392D01*
X0370691Y0247501D01*
X0370929Y0247464D01*
X0371100Y0247293D01*
X0371142Y0247117D01*
X0371142Y0246622D01*
X0371135Y0246546D01*
X0371132Y0246533D01*
X0371121Y0246477D01*
X0371205Y0246055D01*
X0371444Y0245697D01*
X0371502Y0245658D01*
X0371561Y0245610D01*
X0374420Y0242751D01*
X0374529Y0242537D01*
X0374491Y0242299D01*
X0374321Y0242129D01*
X0374089Y0242090D01*
X0373720Y0242143D01*
X0373720Y0242143D01*
X0373216Y0242071D01*
X0373216Y0242071D01*
X0373216Y0242071D01*
X0373216Y0242071D01*
X0372753Y0241859D01*
X0372490Y0241631D01*
X0372268Y0241537D01*
X0372234Y0241535D01*
X0370482Y0241535D01*
X0370253Y0241610D01*
X0370227Y0241631D01*
X0369963Y0241859D01*
X0369500Y0242071D01*
X0369500Y0242071D01*
X0368996Y0242143D01*
X0368996Y0242143D01*
X0368492Y0242071D01*
X0368492Y0242071D01*
X0368492Y0242071D01*
X0368492Y0242071D01*
X0368029Y0241859D01*
X0367644Y0241526D01*
X0367369Y0241097D01*
X0367225Y0240609D01*
X0367225Y0240609D01*
X0367225Y0240100D01*
X0367225Y0240100D01*
X0367369Y0239611D01*
X0367369Y0239611D01*
X0367377Y0239584D01*
X0367367Y0239582D01*
X0367389Y0239387D01*
X0367271Y0239177D01*
X0367052Y0239077D01*
X0367007Y0239075D01*
X0347045Y0239075D01*
X0346816Y0239149D01*
X0346674Y0239344D01*
X0346655Y0239465D01*
X0346655Y0298132D01*
X0346730Y0298361D01*
X0346925Y0298503D01*
X0347045Y0298522D01*
X0350800Y0298522D01*
X0351029Y0298447D01*
X0351171Y0298252D01*
X0351179Y0298039D01*
X0351041Y0297480D01*
X0351041Y0297480D01*
X0351041Y0296811D01*
X0351041Y0296811D01*
X0351201Y0296160D01*
X0351513Y0295567D01*
X0351957Y0295066D01*
X0352508Y0294686D01*
X0353134Y0294448D01*
X0353799Y0294367D01*
X0353801Y0294368D01*
X0354025Y0294395D01*
X0354464Y0294448D01*
X0355090Y0294686D01*
X0355546Y0295000D01*
X0355777Y0295069D01*
X0355989Y0295000D01*
X0356445Y0294686D01*
X0357071Y0294448D01*
X0357736Y0294367D01*
X0358401Y0294448D01*
X0359027Y0294686D01*
X0359578Y0295066D01*
X0360022Y0295567D01*
X0360334Y0296160D01*
X0360334Y0296160D01*
X0360334Y0296160D01*
X0360494Y0296811D01*
X0360494Y0296811D01*
X0360494Y0297480D01*
X0360494Y0297480D01*
X0360356Y0298039D01*
X0360374Y0298279D01*
X0360529Y0298463D01*
X0360735Y0298522D01*
X0384453Y0298522D01*
X0384682Y0298447D01*
X0384823Y0298252D01*
X0384842Y0298132D01*
X0384842Y0242101D01*
X0384768Y0241871D01*
G37*
G36*
X0370399Y0275301D02*
G01*
X0370204Y0275160D01*
X0369963Y0275160D01*
X0369768Y0275301D01*
X0369756Y0275320D01*
X0369753Y0275325D01*
X0369753Y0275325D01*
X0369753Y0275325D01*
X0369448Y0275588D01*
X0369368Y0275658D01*
X0368905Y0275870D01*
X0368905Y0275870D01*
X0368401Y0275942D01*
X0368401Y0275942D01*
X0367897Y0275870D01*
X0367897Y0275870D01*
X0367897Y0275870D01*
X0367897Y0275870D01*
X0367434Y0275658D01*
X0367049Y0275325D01*
X0366774Y0274897D01*
X0366630Y0274408D01*
X0366630Y0274408D01*
X0366630Y0273899D01*
X0366630Y0273899D01*
X0366774Y0273410D01*
X0367049Y0272982D01*
X0367434Y0272649D01*
X0367897Y0272437D01*
X0367901Y0272437D01*
X0368401Y0272365D01*
X0368411Y0272365D01*
X0368418Y0272362D01*
X0368428Y0272361D01*
X0368428Y0272359D01*
X0368640Y0272290D01*
X0368781Y0272096D01*
X0368800Y0271975D01*
X0368800Y0269168D01*
X0368793Y0269092D01*
X0368759Y0268924D01*
X0368771Y0268867D01*
X0368773Y0268856D01*
X0368781Y0268780D01*
X0368781Y0267967D01*
X0368706Y0267738D01*
X0368511Y0267597D01*
X0368391Y0267578D01*
X0364981Y0267578D01*
X0364752Y0267652D01*
X0364726Y0267673D01*
X0364381Y0267972D01*
X0364256Y0268178D01*
X0364277Y0268418D01*
X0364435Y0268600D01*
X0364581Y0268652D01*
X0364863Y0268693D01*
X0364863Y0268693D01*
X0364863Y0268693D01*
X0365326Y0268904D01*
X0365711Y0269238D01*
X0365760Y0269313D01*
X0365986Y0269666D01*
X0366130Y0270154D01*
X0366130Y0270154D01*
X0366130Y0270664D01*
X0366130Y0270664D01*
X0365986Y0271152D01*
X0365986Y0271152D01*
X0365711Y0271580D01*
X0365711Y0271580D01*
X0365711Y0271580D01*
X0365504Y0271760D01*
X0365326Y0271914D01*
X0364863Y0272125D01*
X0364863Y0272125D01*
X0364359Y0272198D01*
X0364359Y0272198D01*
X0363855Y0272125D01*
X0363855Y0272125D01*
X0363855Y0272125D01*
X0363855Y0272125D01*
X0363392Y0271914D01*
X0363007Y0271580D01*
X0362732Y0271152D01*
X0362636Y0270824D01*
X0362500Y0270625D01*
X0362273Y0270544D01*
X0362042Y0270612D01*
X0361934Y0270723D01*
X0361785Y0270955D01*
X0361785Y0270955D01*
X0361785Y0270955D01*
X0361636Y0271083D01*
X0361400Y0271288D01*
X0360937Y0271500D01*
X0360937Y0271500D01*
X0360433Y0271572D01*
X0360433Y0271572D01*
X0359929Y0271500D01*
X0359929Y0271500D01*
X0359929Y0271500D01*
X0359929Y0271500D01*
X0359466Y0271288D01*
X0359081Y0270955D01*
X0358806Y0270526D01*
X0358693Y0270141D01*
X0358557Y0269942D01*
X0358330Y0269861D01*
X0358099Y0269929D01*
X0358063Y0269956D01*
X0357795Y0270188D01*
X0357525Y0270311D01*
X0357348Y0270474D01*
X0357300Y0270710D01*
X0357400Y0270929D01*
X0357412Y0270941D01*
X0365250Y0278779D01*
X0365464Y0278889D01*
X0365525Y0278893D01*
X0366393Y0278893D01*
X0366623Y0278819D01*
X0366649Y0278798D01*
X0367027Y0278470D01*
X0367490Y0278259D01*
X0367490Y0278259D01*
X0367994Y0278186D01*
X0367994Y0278186D01*
X0368498Y0278259D01*
X0368498Y0278259D01*
X0368498Y0278259D01*
X0368961Y0278470D01*
X0369346Y0278804D01*
X0369621Y0279232D01*
X0369710Y0279533D01*
X0369846Y0279732D01*
X0370073Y0279813D01*
X0370304Y0279745D01*
X0370451Y0279554D01*
X0370474Y0279423D01*
X0370474Y0275530D01*
X0370399Y0275301D01*
G37*
G36*
X0374478Y0271579D02*
G01*
X0374438Y0271533D01*
X0371644Y0268738D01*
X0371429Y0268629D01*
X0371191Y0268666D01*
X0371021Y0268837D01*
X0370986Y0268938D01*
X0370971Y0269013D01*
X0370963Y0269089D01*
X0370963Y0271794D01*
X0371038Y0272023D01*
X0371077Y0272070D01*
X0372217Y0273209D01*
X0372276Y0273258D01*
X0372335Y0273297D01*
X0372335Y0273297D01*
X0372336Y0273299D01*
X0372574Y0273655D01*
X0372636Y0273970D01*
X0372644Y0274008D01*
X0372658Y0274077D01*
X0372658Y0274077D01*
X0372644Y0274145D01*
X0372636Y0274222D01*
X0372636Y0282926D01*
X0372644Y0283002D01*
X0372658Y0283071D01*
X0372636Y0283177D01*
X0372609Y0283317D01*
X0372637Y0283556D01*
X0372801Y0283733D01*
X0373037Y0283780D01*
X0373256Y0283679D01*
X0373267Y0283668D01*
X0374438Y0282497D01*
X0374548Y0282282D01*
X0374553Y0282221D01*
X0374553Y0272197D01*
X0374553Y0271808D01*
X0374478Y0271579D01*
G37*
X0465846Y0298819D02*
G01*
G75*
G36*
X0430626Y0286417D02*
X0431258Y0286543D01*
X0431974Y0287022D01*
X0432078Y0287178D01*
X0436576Y0287178D01*
X0437114Y0287285D01*
X0437570Y0287589D01*
X0437945Y0287964D01*
X0438590Y0287774D01*
X0438909Y0287296D01*
X0439495Y0286905D01*
X0440186Y0286767D01*
X0440877Y0286905D01*
X0441463Y0287296D01*
X0441855Y0287882D01*
X0441992Y0288573D01*
X0441855Y0289265D01*
X0441671Y0289540D01*
X0441987Y0290131D01*
X0443418Y0290131D01*
X0443701Y0289848D01*
X0444157Y0289543D01*
X0444694Y0289436D01*
X0448387Y0289436D01*
X0448782Y0289172D01*
X0449473Y0289035D01*
X0450164Y0289172D01*
X0450750Y0289564D01*
X0451142Y0290150D01*
X0451279Y0290841D01*
X0451142Y0291532D01*
X0450750Y0292118D01*
X0450164Y0292510D01*
X0449473Y0292647D01*
X0448782Y0292510D01*
X0448387Y0292246D01*
X0445276Y0292246D01*
X0444993Y0292529D01*
X0444537Y0292834D01*
X0444000Y0292941D01*
X0439529Y0292941D01*
X0438991Y0292834D01*
X0438536Y0292529D01*
X0435995Y0289988D01*
X0432078Y0289988D01*
X0431974Y0290144D01*
X0431258Y0290623D01*
X0430413Y0290791D01*
X0430413Y0293855D01*
X0431258Y0294023D01*
X0431974Y0294502D01*
X0432453Y0295218D01*
X0432621Y0296063D01*
X0432453Y0296908D01*
X0431974Y0297624D01*
X0431258Y0298103D01*
X0430626Y0298228D01*
X0430685Y0298819D01*
X0465846Y0298819D01*
X0465846Y0294597D01*
X0465353Y0294280D01*
X0464798Y0294514D01*
X0464895Y0295001D01*
X0464757Y0295692D01*
X0464366Y0296278D01*
X0463780Y0296670D01*
X0463089Y0296807D01*
X0462397Y0296670D01*
X0461811Y0296278D01*
X0461420Y0295692D01*
X0461282Y0295001D01*
X0461420Y0294310D01*
X0461811Y0293724D01*
X0462231Y0293443D01*
X0462433Y0293201D01*
X0462570Y0292695D01*
X0462457Y0292126D01*
X0462625Y0291281D01*
X0462970Y0290765D01*
X0463058Y0290354D01*
X0462970Y0289944D01*
X0462625Y0289428D01*
X0462457Y0288583D01*
X0462625Y0287738D01*
X0463104Y0287022D01*
X0463820Y0286543D01*
X0464452Y0286417D01*
X0464393Y0285827D01*
X0430684Y0285827D01*
X0430626Y0286417D01*
D02*
G37*
%LPC*%
G36*
X0454980Y0294158D02*
X0455671Y0294296D01*
X0456257Y0294687D01*
X0456649Y0295273D01*
X0456786Y0295965D01*
X0456649Y0296656D01*
X0456257Y0297242D01*
X0455671Y0297634D01*
X0454980Y0297771D01*
X0454289Y0297634D01*
X0453703Y0297242D01*
X0453311Y0296656D01*
X0453173Y0295965D01*
X0453311Y0295273D01*
X0453703Y0294687D01*
X0454289Y0294296D01*
X0454980Y0294158D01*
D02*
G37*
%LPD*%
D25*
X0447539Y0286221D02*
D03*
X0447539Y0298425D02*
D03*
D24*
X0465452Y0296358D02*
D03*
D80*
X0436576Y0288583D02*
X0430413Y0288583D01*
X0444000Y0291536D02*
X0439529Y0291536D01*
X0436576Y0288583D01*
X0449473Y0290841D02*
X0444694Y0290841D01*
X0444000Y0291536D01*
D14*
X0430413Y0288583D02*
D03*
X0430413Y0292323D02*
D03*
X0449473Y0290841D02*
D03*
X0464606Y0297534D02*
D03*
X0451904Y0292972D02*
D03*
X0454643Y0291916D02*
D03*
X0133071Y0111319D02*
G01*
G75*
G36*
X0195152Y0192618D02*
X0194267Y0192107D01*
X0193424Y0191264D01*
X0192828Y0190232D01*
X0192520Y0189080D01*
X0192520Y0187888D01*
X0192828Y0186737D01*
X0193424Y0185704D01*
X0194267Y0184861D01*
X0195300Y0184265D01*
X0196451Y0183957D01*
X0197643Y0183957D01*
X0198795Y0184265D01*
X0199410Y0184620D01*
X0200000Y0184279D01*
X0200000Y0167493D01*
X0199410Y0167152D01*
X0198795Y0167506D01*
X0197643Y0167815D01*
X0196451Y0167815D01*
X0195300Y0167506D01*
X0194267Y0166910D01*
X0193424Y0166067D01*
X0192828Y0165035D01*
X0192790Y0164893D01*
X0190075Y0164893D01*
X0173981Y0180987D01*
X0173460Y0181335D01*
X0172845Y0181458D01*
X0172845Y0181458D01*
X0167520Y0181458D01*
X0166789Y0182188D01*
X0167034Y0182779D01*
X0182121Y0182779D01*
X0182121Y0182779D01*
X0182735Y0182901D01*
X0183256Y0183249D01*
X0188143Y0188136D01*
X0188143Y0188136D01*
X0188235Y0188274D01*
X0188517Y0188390D01*
X0189070Y0188944D01*
X0189370Y0189668D01*
X0189370Y0190451D01*
X0189070Y0191174D01*
X0188517Y0191728D01*
X0187793Y0192028D01*
X0187010Y0192028D01*
X0186287Y0191728D01*
X0185733Y0191174D01*
X0185433Y0190451D01*
X0185433Y0189968D01*
X0181456Y0185990D01*
X0167058Y0185990D01*
X0161473Y0191575D01*
X0160952Y0191923D01*
X0160338Y0192045D01*
X0160338Y0192045D01*
X0148227Y0192045D01*
X0148227Y0192045D01*
X0147612Y0191923D01*
X0147091Y0191575D01*
X0141802Y0186286D01*
X0141712Y0186286D01*
X0140989Y0185986D01*
X0140485Y0185482D01*
X0140168Y0185415D01*
X0139854Y0185394D01*
X0139647Y0185752D01*
X0139177Y0186223D01*
X0138821Y0186614D01*
X0139177Y0187006D01*
X0139647Y0187476D01*
X0140243Y0188508D01*
X0140551Y0189660D01*
X0140551Y0190852D01*
X0140243Y0192004D01*
X0139888Y0192618D01*
X0140229Y0193209D01*
X0194994Y0193209D01*
X0195152Y0192618D01*
D02*
G37*
G36*
X0155675Y0185988D02*
X0155537Y0185291D01*
X0155361Y0185219D01*
X0154807Y0184665D01*
X0154507Y0183941D01*
X0154507Y0183852D01*
X0148564Y0177909D01*
X0148216Y0177388D01*
X0148093Y0176773D01*
X0148093Y0176773D01*
X0148093Y0162777D01*
X0148093Y0162777D01*
X0148216Y0162163D01*
X0148564Y0161642D01*
X0160629Y0149576D01*
X0160629Y0149487D01*
X0160929Y0148763D01*
X0161483Y0148210D01*
X0162206Y0147910D01*
X0162989Y0147910D01*
X0163713Y0148210D01*
X0164267Y0148763D01*
X0164566Y0149487D01*
X0164566Y0150270D01*
X0164267Y0150994D01*
X0163713Y0151547D01*
X0162989Y0151847D01*
X0162900Y0151847D01*
X0160976Y0153771D01*
X0161290Y0154292D01*
X0161745Y0154201D01*
X0192790Y0154201D01*
X0192828Y0154060D01*
X0193424Y0153027D01*
X0194267Y0152184D01*
X0195300Y0151588D01*
X0196451Y0151280D01*
X0197643Y0151280D01*
X0198795Y0151588D01*
X0199410Y0151943D01*
X0200000Y0151602D01*
X0200000Y0143083D01*
X0199410Y0142742D01*
X0198795Y0143097D01*
X0197643Y0143406D01*
X0196451Y0143406D01*
X0195300Y0143097D01*
X0194267Y0142501D01*
X0193424Y0141658D01*
X0192828Y0140626D01*
X0192520Y0139474D01*
X0192520Y0138282D01*
X0192828Y0137130D01*
X0193424Y0136098D01*
X0194267Y0135255D01*
X0195300Y0134659D01*
X0196451Y0134350D01*
X0197643Y0134350D01*
X0198795Y0134659D01*
X0199410Y0135014D01*
X0200000Y0134673D01*
X0200000Y0132577D01*
X0199410Y0132124D01*
X0199182Y0132185D01*
X0198456Y0132185D01*
X0197755Y0131997D01*
X0197127Y0131634D01*
X0196614Y0131121D01*
X0196332Y0130634D01*
X0192172Y0130634D01*
X0186244Y0136562D01*
X0186244Y0146184D01*
X0186764Y0146704D01*
X0187064Y0147428D01*
X0187064Y0148211D01*
X0186764Y0148934D01*
X0186210Y0149488D01*
X0185487Y0149788D01*
X0184704Y0149788D01*
X0183980Y0149488D01*
X0183426Y0148934D01*
X0183127Y0148211D01*
X0183127Y0147428D01*
X0183426Y0146704D01*
X0183835Y0146295D01*
X0183835Y0136063D01*
X0183835Y0136063D01*
X0183927Y0135602D01*
X0184188Y0135211D01*
X0190821Y0128578D01*
X0190822Y0128578D01*
X0191212Y0128317D01*
X0191673Y0128225D01*
X0196332Y0128225D01*
X0196614Y0127737D01*
X0196890Y0127461D01*
X0196614Y0127184D01*
X0196251Y0126556D01*
X0196063Y0125855D01*
X0196063Y0125129D01*
X0196251Y0124429D01*
X0196614Y0123800D01*
X0197127Y0123287D01*
X0197755Y0122924D01*
X0198456Y0122736D01*
X0199182Y0122736D01*
X0199410Y0122797D01*
X0200000Y0122344D01*
X0200000Y0111319D01*
X0138077Y0111319D01*
X0137919Y0111910D01*
X0138804Y0112420D01*
X0139647Y0113263D01*
X0140243Y0114296D01*
X0140551Y0115447D01*
X0140551Y0116639D01*
X0140243Y0117791D01*
X0139647Y0118823D01*
X0138804Y0119666D01*
X0137771Y0120262D01*
X0136620Y0120571D01*
X0135428Y0120571D01*
X0134276Y0120262D01*
X0133662Y0119908D01*
X0133071Y0120248D01*
X0133071Y0159279D01*
X0133662Y0159620D01*
X0134276Y0159265D01*
X0135428Y0158957D01*
X0136620Y0158957D01*
X0137771Y0159265D01*
X0138804Y0159861D01*
X0139647Y0160704D01*
X0140243Y0161737D01*
X0140551Y0162888D01*
X0140551Y0164080D01*
X0140243Y0165232D01*
X0139647Y0166264D01*
X0138804Y0167107D01*
X0137771Y0167703D01*
X0136620Y0168012D01*
X0135428Y0168012D01*
X0134276Y0167703D01*
X0133662Y0167348D01*
X0133071Y0167690D01*
X0133071Y0178767D01*
X0133662Y0179108D01*
X0134276Y0178754D01*
X0135428Y0178445D01*
X0136620Y0178445D01*
X0137771Y0178754D01*
X0138804Y0179350D01*
X0139647Y0180193D01*
X0139915Y0180658D01*
X0140177Y0180786D01*
X0140665Y0180842D01*
X0141126Y0180751D01*
X0144524Y0180751D01*
X0144524Y0180751D01*
X0144985Y0180842D01*
X0145376Y0181103D01*
X0151378Y0187106D01*
X0154557Y0187106D01*
X0155675Y0185988D01*
D02*
G37*
G36*
X0164631Y0177032D02*
X0165022Y0176771D01*
X0165483Y0176679D01*
X0165483Y0176679D01*
X0171531Y0176679D01*
X0188426Y0159784D01*
X0188816Y0159523D01*
X0189180Y0159451D01*
X0189276Y0159220D01*
X0189830Y0158666D01*
X0190553Y0158366D01*
X0191337Y0158366D01*
X0192060Y0158666D01*
X0192614Y0159220D01*
X0192913Y0159943D01*
X0192913Y0160212D01*
X0193180Y0160366D01*
X0193504Y0160428D01*
X0193984Y0159948D01*
X0194203Y0159547D01*
X0193984Y0159146D01*
X0193424Y0158587D01*
X0192828Y0157555D01*
X0192790Y0157413D01*
X0162410Y0157413D01*
X0154061Y0165762D01*
X0154061Y0171918D01*
X0154124Y0171982D01*
X0154423Y0172705D01*
X0154423Y0173488D01*
X0154124Y0174212D01*
X0153570Y0174765D01*
X0152846Y0175065D01*
X0152063Y0175065D01*
X0151895Y0174995D01*
X0151305Y0175390D01*
X0151305Y0176108D01*
X0156778Y0181581D01*
X0156867Y0181581D01*
X0157591Y0181881D01*
X0158145Y0182435D01*
X0158217Y0182611D01*
X0158914Y0182749D01*
X0164631Y0177032D01*
D02*
G37*
%LPC*%
G36*
X0187667Y0182064D02*
X0186884Y0182064D01*
X0186160Y0181765D01*
X0185607Y0181211D01*
X0185307Y0180487D01*
X0185307Y0179704D01*
X0185607Y0178981D01*
X0186160Y0178427D01*
X0186884Y0178127D01*
X0187667Y0178127D01*
X0188391Y0178427D01*
X0188944Y0178981D01*
X0189244Y0179704D01*
X0189244Y0180487D01*
X0188944Y0181211D01*
X0188391Y0181765D01*
X0187667Y0182064D01*
D02*
G37*
G36*
X0141730Y0172149D02*
X0140947Y0172149D01*
X0140224Y0171849D01*
X0139670Y0171295D01*
X0139370Y0170572D01*
X0139370Y0169788D01*
X0139670Y0169065D01*
X0140224Y0168511D01*
X0140947Y0168212D01*
X0141320Y0168212D01*
X0143871Y0165661D01*
X0143871Y0143989D01*
X0141320Y0141439D01*
X0140947Y0141439D01*
X0140224Y0141139D01*
X0139670Y0140585D01*
X0139370Y0139862D01*
X0139370Y0139079D01*
X0139670Y0138355D01*
X0140224Y0137801D01*
X0140947Y0137502D01*
X0141730Y0137502D01*
X0142454Y0137801D01*
X0143008Y0138355D01*
X0143307Y0139079D01*
X0143307Y0139452D01*
X0146269Y0142414D01*
X0146574Y0142869D01*
X0146681Y0143407D01*
X0146681Y0166243D01*
X0146574Y0166781D01*
X0146269Y0167237D01*
X0143307Y0170199D01*
X0143307Y0170572D01*
X0143008Y0171295D01*
X0142454Y0171849D01*
X0141730Y0172149D01*
D02*
G37*
G36*
X0162203Y0131791D02*
X0161420Y0131791D01*
X0160696Y0131492D01*
X0160142Y0130938D01*
X0159843Y0130214D01*
X0159843Y0129431D01*
X0160142Y0128708D01*
X0160696Y0128154D01*
X0161420Y0127854D01*
X0162203Y0127854D01*
X0162926Y0128154D01*
X0163480Y0128708D01*
X0163780Y0129431D01*
X0163780Y0130214D01*
X0163480Y0130938D01*
X0162926Y0131492D01*
X0162203Y0131791D01*
D02*
G37*
G36*
X0137400Y0129619D02*
X0136616Y0129619D01*
X0135893Y0129319D01*
X0135339Y0128766D01*
X0135040Y0128042D01*
X0135040Y0127259D01*
X0135339Y0126536D01*
X0135893Y0125982D01*
X0136616Y0125682D01*
X0137400Y0125682D01*
X0138123Y0125982D01*
X0138677Y0126536D01*
X0138977Y0127259D01*
X0138977Y0128042D01*
X0138677Y0128766D01*
X0138123Y0129319D01*
X0137400Y0129619D01*
D02*
G37*
%LPD*%
D68*
X0155056Y0188310D02*
X0165483Y0177883D01*
X0172030Y0177883D01*
X0140108Y0182972D02*
X0141126Y0181955D01*
X0144524Y0181955D02*
X0150880Y0188310D01*
X0136024Y0182972D02*
X0140108Y0182972D01*
X0141126Y0181955D02*
X0144524Y0181955D01*
X0150880Y0188310D02*
X0155056Y0188310D01*
X0172030Y0177883D02*
X0189277Y0160636D01*
X0190644Y0160636D01*
X0190945Y0160335D01*
X0185039Y0136063D02*
X0185039Y0147763D01*
X0185095Y0147819D01*
X0191673Y0129429D02*
X0198819Y0129429D01*
X0185039Y0136063D02*
X0191673Y0129429D01*
D80*
X0187008Y0189272D02*
X0187008Y0189452D01*
X0187402Y0189846D01*
X0187402Y0190059D01*
X0182121Y0184385D02*
X0187008Y0189272D01*
X0166393Y0184385D02*
X0182121Y0184385D01*
X0149699Y0162777D02*
X0149699Y0176773D01*
X0156476Y0183550D01*
X0159125Y0187581D02*
X0166855Y0179852D01*
X0160338Y0190440D02*
X0166393Y0184385D01*
X0166855Y0179852D02*
X0172845Y0179852D01*
X0148227Y0190440D02*
X0160338Y0190440D01*
X0172845Y0179852D02*
X0189410Y0163287D01*
X0197047Y0163287D01*
X0149699Y0162777D02*
X0162598Y0149879D01*
X0152455Y0165097D02*
X0161745Y0155807D01*
X0152455Y0165097D02*
X0152455Y0173097D01*
X0161745Y0155807D02*
X0197047Y0155807D01*
X0142104Y0184317D02*
X0148227Y0190440D01*
D23*
X0199606Y0120374D02*
D03*
D22*
X0199606Y0133366D02*
D03*
D230*
X0133465Y0139862D02*
D03*
D18*
X0166536Y0111713D02*
D03*
D20*
X0199606Y0176083D02*
D03*
D21*
X0199606Y0147146D02*
D03*
D15*
X0133465Y0173327D02*
D03*
D19*
X0169685Y0192815D02*
D03*
D17*
X0133465Y0111910D02*
D03*
X0199606Y0192618D02*
D03*
D14*
X0198819Y0129429D02*
D03*
X0187402Y0190059D02*
D03*
X0166993Y0187681D02*
D03*
X0159125Y0187581D02*
D03*
X0156476Y0183550D02*
D03*
X0190945Y0160335D02*
D03*
X0198416Y0133348D02*
D03*
X0185095Y0147819D02*
D03*
X0184646Y0129429D02*
D03*
X0191439Y0143924D02*
D03*
X0191447Y0135073D02*
D03*
X0162598Y0149879D02*
D03*
X0168486Y0159858D02*
D03*
X0165737Y0144286D02*
D03*
X0138583Y0147736D02*
D03*
X0142520Y0144784D02*
D03*
X0162922Y0172854D02*
D03*
X0184162Y0125099D02*
D03*
X0171477Y0119581D02*
D03*
X0192004Y0126428D02*
D03*
X0141277Y0119512D02*
D03*
X0143996Y0113147D02*
D03*
X0153740Y0113147D02*
D03*
X0188797Y0114068D02*
D03*
X0192770Y0118373D02*
D03*
X0184490Y0160283D02*
D03*
X0189764Y0148721D02*
D03*
X0195669Y0146752D02*
D03*
X0195669Y0182185D02*
D03*
X0191732Y0176280D02*
D03*
X0195669Y0170374D02*
D03*
X0146189Y0177968D02*
D03*
X0137794Y0175641D02*
D03*
X0136614Y0170374D02*
D03*
X0136614Y0154626D02*
D03*
X0136614Y0142815D02*
D03*
X0138583Y0136910D02*
D03*
X0136614Y0131004D02*
D03*
X0142104Y0184317D02*
D03*
X0152455Y0173097D02*
D03*
X0143425Y0123363D02*
D03*
X0171477Y0113288D02*
D03*
X0177953Y0179429D02*
D03*
X0166142Y0169972D02*
D03*
X0141339Y0170180D02*
D03*
X0141339Y0139470D02*
D03*
X0176673Y0169224D02*
D03*
X0187795Y0170374D02*
D03*
X0188905Y0121541D02*
D03*
X0167414Y0191744D02*
D03*
X0155966Y0119569D02*
D03*
X0158268Y0144784D02*
D03*
X0162293Y0113147D02*
D03*
X0184915Y0117857D02*
D03*
D13*
X0136024Y0182972D02*
D03*
X0197047Y0163287D02*
D03*
X0197047Y0155807D02*
D03*
X0197047Y0114272D02*
D03*
D81*
X0145276Y0143407D02*
X0145276Y0166243D01*
X0141339Y0170180D02*
X0145276Y0166243D01*
X0141339Y0139470D02*
X0145276Y0143407D01*
X0141339Y0139470D02*
X0141339Y0139470D01*
M02*
