G75*
G70*
%OFA0B0*%
%FSLAX25Y25*%
%IPPOS*%
%LPD*%
%AMOC8*
5,1,8,0,0,1.08239X$1,22.5*
%
%AMM14*
21,1,0.092130,0.073230,0.000000,0.000000,270.000000*
21,1,0.069290,0.096060,0.000000,0.000000,270.000000*
1,1,0.022840,-0.036610,-0.034650*
1,1,0.022840,-0.036610,0.034650*
1,1,0.022840,0.036610,0.034650*
1,1,0.022840,0.036610,-0.034650*
%
%AMM15*
21,1,0.100000,0.111020,0.000000,0.000000,0.000000*
21,1,0.075590,0.135430,0.000000,0.000000,0.000000*
1,1,0.024410,0.037800,-0.055510*
1,1,0.024410,-0.037800,-0.055510*
1,1,0.024410,-0.037800,0.055510*
1,1,0.024410,0.037800,0.055510*
%
%AMM16*
21,1,0.080320,0.083460,0.000000,0.000000,0.000000*
21,1,0.059840,0.103940,0.000000,0.000000,0.000000*
1,1,0.020470,0.029920,-0.041730*
1,1,0.020470,-0.029920,-0.041730*
1,1,0.020470,-0.029920,0.041730*
1,1,0.020470,0.029920,0.041730*
%
%AMM17*
21,1,0.084250,0.053540,0.000000,0.000000,180.000000*
21,1,0.065350,0.072440,0.000000,0.000000,180.000000*
1,1,0.018900,-0.032680,0.026770*
1,1,0.018900,0.032680,0.026770*
1,1,0.018900,0.032680,-0.026770*
1,1,0.018900,-0.032680,-0.026770*
%
%AMM18*
21,1,0.040950,0.030320,0.000000,0.000000,90.000000*
21,1,0.028350,0.042910,0.000000,0.000000,90.000000*
1,1,0.012600,0.015160,0.014170*
1,1,0.012600,0.015160,-0.014170*
1,1,0.012600,-0.015160,-0.014170*
1,1,0.012600,-0.015160,0.014170*
%
%AMM19*
21,1,0.027170,0.052760,0.000000,0.000000,270.000000*
21,1,0.017320,0.062600,0.000000,0.000000,270.000000*
1,1,0.009840,-0.026380,-0.008660*
1,1,0.009840,-0.026380,0.008660*
1,1,0.009840,0.026380,0.008660*
1,1,0.009840,0.026380,-0.008660*
%
%AMM20*
21,1,0.041340,0.026770,0.000000,0.000000,0.000000*
21,1,0.029130,0.038980,0.000000,0.000000,0.000000*
1,1,0.012210,0.014570,-0.013390*
1,1,0.012210,-0.014570,-0.013390*
1,1,0.012210,-0.014570,0.013390*
1,1,0.012210,0.014570,0.013390*
%
%AMM21*
21,1,0.076380,0.036220,0.000000,0.000000,90.000000*
21,1,0.061810,0.050790,0.000000,0.000000,90.000000*
1,1,0.014570,0.018110,0.030910*
1,1,0.014570,0.018110,-0.030910*
1,1,0.014570,-0.018110,-0.030910*
1,1,0.014570,-0.018110,0.030910*
%
%AMM22*
21,1,0.038980,0.026770,0.000000,0.000000,0.000000*
21,1,0.026770,0.038980,0.000000,0.000000,0.000000*
1,1,0.012210,0.013390,-0.013390*
1,1,0.012210,-0.013390,-0.013390*
1,1,0.012210,-0.013390,0.013390*
1,1,0.012210,0.013390,0.013390*
%
%AMM23*
21,1,0.021260,0.016540,0.000000,0.000000,270.000000*
21,1,0.012600,0.025200,0.000000,0.000000,270.000000*
1,1,0.008660,-0.008270,-0.006300*
1,1,0.008660,-0.008270,0.006300*
1,1,0.008660,0.008270,0.006300*
1,1,0.008660,0.008270,-0.006300*
%
%AMM24*
21,1,0.029130,0.018900,0.000000,0.000000,90.000000*
21,1,0.018900,0.029130,0.000000,0.000000,90.000000*
1,1,0.010240,0.009450,0.009450*
1,1,0.010240,0.009450,-0.009450*
1,1,0.010240,-0.009450,-0.009450*
1,1,0.010240,-0.009450,0.009450*
%
%AMM25*
21,1,0.025200,0.019680,0.000000,0.000000,0.000000*
21,1,0.015750,0.029130,0.000000,0.000000,0.000000*
1,1,0.009450,0.007870,-0.009840*
1,1,0.009450,-0.007870,-0.009840*
1,1,0.009450,-0.007870,0.009840*
1,1,0.009450,0.007870,0.009840*
%
%AMM26*
21,1,0.025200,0.019680,0.000000,0.000000,270.000000*
21,1,0.015750,0.029130,0.000000,0.000000,270.000000*
1,1,0.009450,-0.009840,-0.007870*
1,1,0.009450,-0.009840,0.007870*
1,1,0.009450,0.009840,0.007870*
1,1,0.009450,0.009840,-0.007870*
%
%AMM55*
21,1,0.029530,0.026380,0.000000,0.000000,270.000000*
21,1,0.020470,0.035430,0.000000,0.000000,270.000000*
1,1,0.009060,-0.013190,-0.010240*
1,1,0.009060,-0.013190,0.010240*
1,1,0.009060,0.013190,0.010240*
1,1,0.009060,0.013190,-0.010240*
%
%AMM56*
21,1,0.021650,0.027950,0.000000,0.000000,270.000000*
21,1,0.014170,0.035430,0.000000,0.000000,270.000000*
1,1,0.007480,-0.013980,-0.007090*
1,1,0.007480,-0.013980,0.007090*
1,1,0.007480,0.013980,0.007090*
1,1,0.007480,0.013980,-0.007090*
%
%AMM57*
21,1,0.016540,0.028980,0.000000,0.000000,90.000000*
21,1,0.010080,0.035430,0.000000,0.000000,90.000000*
1,1,0.006460,0.014490,0.005040*
1,1,0.006460,0.014490,-0.005040*
1,1,0.006460,-0.014490,-0.005040*
1,1,0.006460,-0.014490,0.005040*
%
%AMM58*
21,1,0.027560,0.030710,0.000000,0.000000,180.000000*
21,1,0.018900,0.039370,0.000000,0.000000,180.000000*
1,1,0.008660,-0.009450,0.015350*
1,1,0.008660,0.009450,0.015350*
1,1,0.008660,0.009450,-0.015350*
1,1,0.008660,-0.009450,-0.015350*
%
%AMM59*
21,1,0.031500,0.018900,0.000000,0.000000,90.000000*
21,1,0.022840,0.027560,0.000000,0.000000,90.000000*
1,1,0.008660,0.009450,0.011420*
1,1,0.008660,0.009450,-0.011420*
1,1,0.008660,-0.009450,-0.011420*
1,1,0.008660,-0.009450,0.011420*
%
%AMM60*
21,1,0.035430,0.072440,0.000000,0.000000,90.000000*
21,1,0.025200,0.082680,0.000000,0.000000,90.000000*
1,1,0.010240,0.036220,0.012600*
1,1,0.010240,0.036220,-0.012600*
1,1,0.010240,-0.036220,-0.012600*
1,1,0.010240,-0.036220,0.012600*
%
%AMM61*
21,1,0.031500,0.018900,0.000000,0.000000,180.000000*
21,1,0.022840,0.027560,0.000000,0.000000,180.000000*
1,1,0.008660,-0.011420,0.009450*
1,1,0.008660,0.011420,0.009450*
1,1,0.008660,0.011420,-0.009450*
1,1,0.008660,-0.011420,-0.009450*
%
%AMM62*
21,1,0.027560,0.030710,0.000000,0.000000,270.000000*
21,1,0.018900,0.039370,0.000000,0.000000,270.000000*
1,1,0.008660,-0.015350,-0.009450*
1,1,0.008660,-0.015350,0.009450*
1,1,0.008660,0.015350,0.009450*
1,1,0.008660,0.015350,-0.009450*
%
%AMM63*
21,1,0.039370,0.030320,0.000000,0.000000,270.000000*
21,1,0.028350,0.041340,0.000000,0.000000,270.000000*
1,1,0.011020,-0.015160,-0.014170*
1,1,0.011020,-0.015160,0.014170*
1,1,0.011020,0.015160,0.014170*
1,1,0.011020,0.015160,-0.014170*
%
%AMM64*
21,1,0.047240,0.075980,0.000000,0.000000,0.000000*
21,1,0.034650,0.088580,0.000000,0.000000,0.000000*
1,1,0.012600,0.017320,-0.037990*
1,1,0.012600,-0.017320,-0.037990*
1,1,0.012600,-0.017320,0.037990*
1,1,0.012600,0.017320,0.037990*
%
%AMM65*
21,1,0.043310,0.035430,0.000000,0.000000,0.000000*
21,1,0.031500,0.047240,0.000000,0.000000,0.000000*
1,1,0.011810,0.015750,-0.017720*
1,1,0.011810,-0.015750,-0.017720*
1,1,0.011810,-0.015750,0.017720*
1,1,0.011810,0.015750,0.017720*
%
%AMM66*
21,1,0.031500,0.030710,0.000000,0.000000,0.000000*
21,1,0.022050,0.040160,0.000000,0.000000,0.000000*
1,1,0.009450,0.011020,-0.015350*
1,1,0.009450,-0.011020,-0.015350*
1,1,0.009450,-0.011020,0.015350*
1,1,0.009450,0.011020,0.015350*
%
%AMM67*
21,1,0.035430,0.072440,0.000000,0.000000,0.000000*
21,1,0.025200,0.082680,0.000000,0.000000,0.000000*
1,1,0.010240,0.012600,-0.036220*
1,1,0.010240,-0.012600,-0.036220*
1,1,0.010240,-0.012600,0.036220*
1,1,0.010240,0.012600,0.036220*
%
%AMM68*
21,1,0.141730,0.067720,0.000000,0.000000,0.000000*
21,1,0.120870,0.088580,0.000000,0.000000,0.000000*
1,1,0.020870,0.060430,-0.033860*
1,1,0.020870,-0.060430,-0.033860*
1,1,0.020870,-0.060430,0.033860*
1,1,0.020870,0.060430,0.033860*
%
%AMM69*
21,1,0.047240,0.075990,0.000000,0.000000,0.000000*
21,1,0.034650,0.088580,0.000000,0.000000,0.000000*
1,1,0.012600,0.017320,-0.037990*
1,1,0.012600,-0.017320,-0.037990*
1,1,0.012600,-0.017320,0.037990*
1,1,0.012600,0.017320,0.037990*
%
%AMM70*
21,1,0.090550,0.073230,0.000000,0.000000,90.000000*
21,1,0.069290,0.094490,0.000000,0.000000,90.000000*
1,1,0.021260,0.036610,0.034650*
1,1,0.021260,0.036610,-0.034650*
1,1,0.021260,-0.036610,-0.034650*
1,1,0.021260,-0.036610,0.034650*
%
%AMM95*
21,1,0.040950,0.030320,0.000000,0.000000,180.000000*
21,1,0.028350,0.042910,0.000000,0.000000,180.000000*
1,1,0.012600,-0.014170,0.015160*
1,1,0.012600,0.014170,0.015160*
1,1,0.012600,0.014170,-0.015160*
1,1,0.012600,-0.014170,-0.015160*
%
%AMM96*
21,1,0.033070,0.030710,0.000000,0.000000,180.000000*
21,1,0.022050,0.041730,0.000000,0.000000,180.000000*
1,1,0.011020,-0.011020,0.015350*
1,1,0.011020,0.011020,0.015350*
1,1,0.011020,0.011020,-0.015350*
1,1,0.011020,-0.011020,-0.015350*
%
%ADD10C,0.05906*%
%ADD100M15*%
%ADD101M16*%
%ADD102M17*%
%ADD103M18*%
%ADD104M19*%
%ADD105M20*%
%ADD106M21*%
%ADD107M22*%
%ADD108M23*%
%ADD109M24*%
%ADD11C,0.02362*%
%ADD110M25*%
%ADD111M26*%
%ADD112C,0.02913*%
%ADD113C,0.06457*%
%ADD137R,0.02559X0.01575*%
%ADD138R,0.01575X0.02559*%
%ADD140R,0.05512X0.01181*%
%ADD147R,0.07874X0.02559*%
%ADD148R,0.17717X0.31890*%
%ADD150R,0.03543X0.03150*%
%ADD151R,0.04724X0.08661*%
%ADD152C,0.05118*%
%ADD153R,0.22835X0.25197*%
%ADD154R,0.03150X0.03543*%
%ADD162C,0.03100*%
%ADD163R,0.07500X0.07874*%
%ADD164O,0.07500X0.07874*%
%ADD166C,0.03900*%
%ADD197M55*%
%ADD198M56*%
%ADD199M57*%
%ADD200O,0.05118X0.01260*%
%ADD201O,0.01260X0.05118*%
%ADD202O,0.04724X0.01575*%
%ADD203C,0.03494*%
%ADD204M58*%
%ADD205M59*%
%ADD206R,0.01772X0.01378*%
%ADD207R,0.01378X0.01772*%
%ADD208M60*%
%ADD209M61*%
%ADD210M62*%
%ADD211M63*%
%ADD212O,0.09055X0.02756*%
%ADD213M64*%
%ADD214M65*%
%ADD215M66*%
%ADD216M67*%
%ADD217M68*%
%ADD218M69*%
%ADD219C,0.03543*%
%ADD220M70*%
%ADD221C,0.04724*%
%ADD222C,0.04294*%
%ADD262O,0.02520X0.01535*%
%ADD263O,0.01535X0.02520*%
%ADD264M95*%
%ADD265O,0.09213X0.02913*%
%ADD266M96*%
%ADD28C,0.06000*%
%ADD29O,0.06693X0.07283*%
%ADD46R,0.04331X0.04331*%
%ADD47C,0.04331*%
%ADD48O,0.09449X0.04331*%
%ADD52O,0.01969X0.00984*%
%ADD54O,0.00984X0.01969*%
%ADD55C,0.14567*%
%ADD56C,0.08661*%
%ADD57C,0.10236*%
%ADD99M14*%
X0000000Y0000000D02*
%LPD*%
G01*
G36*
G01*
X0392717Y0198818D02*
X0392717Y0203740D01*
G75*
G02*
X0393111Y0204133I0000394J0000000D01*
G01*
X0396260Y0204133D01*
G75*
G02*
X0396654Y0203740I0000000J-000394D01*
G01*
X0396654Y0198818D01*
G75*
G02*
X0396260Y0198425I-000394J0000000D01*
G01*
X0393111Y0198425D01*
G75*
G02*
X0392717Y0198818I0000000J0000394D01*
G01*
G37*
G36*
G01*
X0400197Y0198818D02*
X0400197Y0203740D01*
G75*
G02*
X0400591Y0204133I0000394J0000000D01*
G01*
X0403741Y0204133D01*
G75*
G02*
X0404134Y0203740I0000000J-000394D01*
G01*
X0404134Y0198818D01*
G75*
G02*
X0403741Y0198425I-000394J0000000D01*
G01*
X0400591Y0198425D01*
G75*
G02*
X0400197Y0198818I0000000J0000394D01*
G01*
G37*
G36*
G01*
X0151354Y0294685D02*
X0153372Y0294685D01*
G75*
G02*
X0154233Y0293823I0000000J-000861D01*
G01*
X0154233Y0292101D01*
G75*
G02*
X0153372Y0291240I-000861J0000000D01*
G01*
X0151354Y0291240D01*
G75*
G02*
X0150493Y0292101I0000000J0000861D01*
G01*
X0150493Y0293823D01*
G75*
G02*
X0151354Y0294685I0000861J0000000D01*
G01*
G37*
G36*
G01*
X0151354Y0288484D02*
X0153372Y0288484D01*
G75*
G02*
X0154233Y0287623I0000000J-000861D01*
G01*
X0154233Y0285900D01*
G75*
G02*
X0153372Y0285039I-000861J0000000D01*
G01*
X0151354Y0285039D01*
G75*
G02*
X0150493Y0285900I0000000J0000861D01*
G01*
X0150493Y0287623D01*
G75*
G02*
X0151354Y0288484I0000861J0000000D01*
G01*
G37*
G36*
G01*
X0325000Y0250196D02*
X0322245Y0250196D01*
G75*
G02*
X0321260Y0251181I0000000J0000984D01*
G01*
X0321260Y0257874D01*
G75*
G02*
X0322245Y0258858I0000984J0000000D01*
G01*
X0325000Y0258858D01*
G75*
G02*
X0325985Y0257874I0000000J-000984D01*
G01*
X0325985Y0251181D01*
G75*
G02*
X0325000Y0250196I-000984J0000000D01*
G01*
G37*
G36*
G01*
X0343032Y0266732D02*
X0322166Y0266732D01*
G75*
G02*
X0321182Y0267716I0000000J0000984D01*
G01*
X0321182Y0290944D01*
G75*
G02*
X0322166Y0291929I0000984J0000000D01*
G01*
X0343032Y0291929D01*
G75*
G02*
X0344016Y0290944I0000000J-000984D01*
G01*
X0344016Y0267716D01*
G75*
G02*
X0343032Y0266732I-000984J0000000D01*
G01*
G37*
G36*
G01*
X0342953Y0250196D02*
X0340197Y0250196D01*
G75*
G02*
X0339213Y0251181I0000000J0000984D01*
G01*
X0339213Y0257874D01*
G75*
G02*
X0340197Y0258858I0000984J0000000D01*
G01*
X0342953Y0258858D01*
G75*
G02*
X0343937Y0257874I0000000J-000984D01*
G01*
X0343937Y0251181D01*
G75*
G02*
X0342953Y0250196I-000984J0000000D01*
G01*
G37*
G36*
G01*
X0228209Y0250196D02*
X0225453Y0250196D01*
G75*
G02*
X0224469Y0251181I0000000J0000984D01*
G01*
X0224469Y0257874D01*
G75*
G02*
X0225453Y0258858I0000984J0000000D01*
G01*
X0228209Y0258858D01*
G75*
G02*
X0229193Y0257874I0000000J-000984D01*
G01*
X0229193Y0251181D01*
G75*
G02*
X0228209Y0250196I-000984J0000000D01*
G01*
G37*
G36*
G01*
X0246241Y0266732D02*
X0225374Y0266732D01*
G75*
G02*
X0224390Y0267716I0000000J0000984D01*
G01*
X0224390Y0290944D01*
G75*
G02*
X0225374Y0291929I0000984J0000000D01*
G01*
X0246241Y0291929D01*
G75*
G02*
X0247225Y0290944I0000000J-000984D01*
G01*
X0247225Y0267716D01*
G75*
G02*
X0246241Y0266732I-000984J0000000D01*
G01*
G37*
G36*
G01*
X0246162Y0250196D02*
X0243406Y0250196D01*
G75*
G02*
X0242422Y0251181I0000000J0000984D01*
G01*
X0242422Y0257874D01*
G75*
G02*
X0243406Y0258858I0000984J0000000D01*
G01*
X0246162Y0258858D01*
G75*
G02*
X0247146Y0257874I0000000J-000984D01*
G01*
X0247146Y0251181D01*
G75*
G02*
X0246162Y0250196I-000984J0000000D01*
G01*
G37*
G36*
G01*
X0146752Y0274744D02*
X0146752Y0277421D01*
G75*
G02*
X0147087Y0277755I0000335J0000000D01*
G01*
X0149764Y0277755D01*
G75*
G02*
X0150099Y0277421I0000000J-000335D01*
G01*
X0150099Y0274744D01*
G75*
G02*
X0149764Y0274409I-000335J0000000D01*
G01*
X0147087Y0274409D01*
G75*
G02*
X0146752Y0274744I0000000J0000335D01*
G01*
G37*
G36*
G01*
X0152973Y0274744D02*
X0152973Y0277421D01*
G75*
G02*
X0153308Y0277755I0000335J0000000D01*
G01*
X0155985Y0277755D01*
G75*
G02*
X0156319Y0277421I0000000J-000335D01*
G01*
X0156319Y0274744D01*
G75*
G02*
X0155985Y0274409I-000335J0000000D01*
G01*
X0153308Y0274409D01*
G75*
G02*
X0152973Y0274744I0000000J0000335D01*
G01*
G37*
G36*
G01*
X0185197Y0215255D02*
X0184016Y0215255D01*
G75*
G02*
X0183426Y0215846I0000000J0000591D01*
G01*
X0183426Y0222342D01*
G75*
G02*
X0184016Y0222933I0000591J0000000D01*
G01*
X0185197Y0222933D01*
G75*
G02*
X0185788Y0222342I0000000J-000591D01*
G01*
X0185788Y0215846D01*
G75*
G02*
X0185197Y0215255I-000591J0000000D01*
G01*
G37*
G36*
G01*
X0190197Y0215255D02*
X0189016Y0215255D01*
G75*
G02*
X0188426Y0215846I0000000J0000591D01*
G01*
X0188426Y0222342D01*
G75*
G02*
X0189016Y0222933I0000591J0000000D01*
G01*
X0190197Y0222933D01*
G75*
G02*
X0190788Y0222342I0000000J-000591D01*
G01*
X0190788Y0215846D01*
G75*
G02*
X0190197Y0215255I-000591J0000000D01*
G01*
G37*
G36*
G01*
X0195197Y0215255D02*
X0194016Y0215255D01*
G75*
G02*
X0193426Y0215846I0000000J0000591D01*
G01*
X0193426Y0222342D01*
G75*
G02*
X0194016Y0222933I0000591J0000000D01*
G01*
X0195197Y0222933D01*
G75*
G02*
X0195788Y0222342I0000000J-000591D01*
G01*
X0195788Y0215846D01*
G75*
G02*
X0195197Y0215255I-000591J0000000D01*
G01*
G37*
G36*
G01*
X0200197Y0215255D02*
X0199016Y0215255D01*
G75*
G02*
X0198426Y0215846I0000000J0000591D01*
G01*
X0198426Y0222342D01*
G75*
G02*
X0199016Y0222933I0000591J0000000D01*
G01*
X0200197Y0222933D01*
G75*
G02*
X0200788Y0222342I0000000J-000591D01*
G01*
X0200788Y0215846D01*
G75*
G02*
X0200197Y0215255I-000591J0000000D01*
G01*
G37*
G36*
G01*
X0200197Y0234744D02*
X0199016Y0234744D01*
G75*
G02*
X0198426Y0235334I0000000J0000591D01*
G01*
X0198426Y0241830D01*
G75*
G02*
X0199016Y0242421I0000591J0000000D01*
G01*
X0200197Y0242421D01*
G75*
G02*
X0200788Y0241830I0000000J-000591D01*
G01*
X0200788Y0235334D01*
G75*
G02*
X0200197Y0234744I-000591J0000000D01*
G01*
G37*
G36*
G01*
X0195197Y0234744D02*
X0194016Y0234744D01*
G75*
G02*
X0193426Y0235334I0000000J0000591D01*
G01*
X0193426Y0241830D01*
G75*
G02*
X0194016Y0242421I0000591J0000000D01*
G01*
X0195197Y0242421D01*
G75*
G02*
X0195788Y0241830I0000000J-000591D01*
G01*
X0195788Y0235334D01*
G75*
G02*
X0195197Y0234744I-000591J0000000D01*
G01*
G37*
G36*
G01*
X0190197Y0234744D02*
X0189016Y0234744D01*
G75*
G02*
X0188426Y0235334I0000000J0000591D01*
G01*
X0188426Y0241830D01*
G75*
G02*
X0189016Y0242421I0000591J0000000D01*
G01*
X0190197Y0242421D01*
G75*
G02*
X0190788Y0241830I0000000J-000591D01*
G01*
X0190788Y0235334D01*
G75*
G02*
X0190197Y0234744I-000591J0000000D01*
G01*
G37*
G36*
G01*
X0185197Y0234744D02*
X0184016Y0234744D01*
G75*
G02*
X0183426Y0235334I0000000J0000591D01*
G01*
X0183426Y0241830D01*
G75*
G02*
X0184016Y0242421I0000591J0000000D01*
G01*
X0185197Y0242421D01*
G75*
G02*
X0185788Y0241830I0000000J-000591D01*
G01*
X0185788Y0235334D01*
G75*
G02*
X0185197Y0234744I-000591J0000000D01*
G01*
G37*
D10*
X0198622Y0185531D03*
X0198622Y0160334D03*
X0198622Y0152854D03*
X0198622Y0135925D03*
D11*
X0200394Y0126476D03*
X0200394Y0122539D03*
D10*
X0198622Y0111318D03*
X0137599Y0187303D03*
X0137599Y0180019D03*
X0137599Y0160531D03*
X0137599Y0113090D03*
D11*
X0431989Y0285629D03*
X0431989Y0289370D03*
X0431989Y0293110D03*
X0466241Y0289173D03*
X0466241Y0285629D03*
G36*
G01*
X0561497Y0312303D02*
X0559922Y0312303D01*
G75*
G02*
X0559134Y0313090I0000000J0000787D01*
G01*
X0559134Y0320177D01*
G75*
G02*
X0559922Y0320964I0000787J0000000D01*
G01*
X0561497Y0320964D01*
G75*
G02*
X0562284Y0320177I0000000J-000787D01*
G01*
X0562284Y0313090D01*
G75*
G02*
X0561497Y0312303I-000787J0000000D01*
G01*
G37*
G36*
G01*
X0565985Y0312303D02*
X0564410Y0312303D01*
G75*
G02*
X0563623Y0313090I0000000J0000787D01*
G01*
X0563623Y0320177D01*
G75*
G02*
X0564410Y0320964I0000787J0000000D01*
G01*
X0565985Y0320964D01*
G75*
G02*
X0566772Y0320177I0000000J-000787D01*
G01*
X0566772Y0313090D01*
G75*
G02*
X0565985Y0312303I-000787J0000000D01*
G01*
G37*
G36*
G01*
X0580119Y0328838D02*
X0559252Y0328838D01*
G75*
G02*
X0558268Y0329822I0000000J0000984D01*
G01*
X0558268Y0353051D01*
G75*
G02*
X0559252Y0354035I0000984J0000000D01*
G01*
X0580119Y0354035D01*
G75*
G02*
X0581103Y0353051I0000000J-000984D01*
G01*
X0581103Y0329822D01*
G75*
G02*
X0580119Y0328838I-000984J0000000D01*
G01*
G37*
G36*
G01*
X0574961Y0312303D02*
X0573386Y0312303D01*
G75*
G02*
X0572599Y0313090I0000000J0000787D01*
G01*
X0572599Y0320177D01*
G75*
G02*
X0573386Y0320964I0000787J0000000D01*
G01*
X0574961Y0320964D01*
G75*
G02*
X0575748Y0320177I0000000J-000787D01*
G01*
X0575748Y0313090D01*
G75*
G02*
X0574961Y0312303I-000787J0000000D01*
G01*
G37*
G36*
G01*
X0579449Y0312303D02*
X0577874Y0312303D01*
G75*
G02*
X0577087Y0313090I0000000J0000787D01*
G01*
X0577087Y0320177D01*
G75*
G02*
X0577874Y0320964I0000787J0000000D01*
G01*
X0579449Y0320964D01*
G75*
G02*
X0580237Y0320177I0000000J-000787D01*
G01*
X0580237Y0313090D01*
G75*
G02*
X0579449Y0312303I-000787J0000000D01*
G01*
G37*
G36*
G01*
X0163682Y0250196D02*
X0160926Y0250196D01*
G75*
G02*
X0159941Y0251181I0000000J0000984D01*
G01*
X0159941Y0257874D01*
G75*
G02*
X0160926Y0258858I0000984J0000000D01*
G01*
X0163682Y0258858D01*
G75*
G02*
X0164666Y0257874I0000000J-000984D01*
G01*
X0164666Y0251181D01*
G75*
G02*
X0163682Y0250196I-000984J0000000D01*
G01*
G37*
G36*
G01*
X0181713Y0266732D02*
X0160847Y0266732D01*
G75*
G02*
X0159863Y0267716I0000000J0000984D01*
G01*
X0159863Y0290944D01*
G75*
G02*
X0160847Y0291929I0000984J0000000D01*
G01*
X0181713Y0291929D01*
G75*
G02*
X0182697Y0290944I0000000J-000984D01*
G01*
X0182697Y0267716D01*
G75*
G02*
X0181713Y0266732I-000984J0000000D01*
G01*
G37*
G36*
G01*
X0181634Y0250196D02*
X0178878Y0250196D01*
G75*
G02*
X0177894Y0251181I0000000J0000984D01*
G01*
X0177894Y0257874D01*
G75*
G02*
X0178878Y0258858I0000984J0000000D01*
G01*
X0181634Y0258858D01*
G75*
G02*
X0182619Y0257874I0000000J-000984D01*
G01*
X0182619Y0251181D01*
G75*
G02*
X0181634Y0250196I-000984J0000000D01*
G01*
G37*
G36*
G01*
X0147304Y0247893D02*
X0147304Y0245216D01*
G75*
G02*
X0146969Y0244881I-000335J0000000D01*
G01*
X0144292Y0244881D01*
G75*
G02*
X0143957Y0245216I0000000J0000335D01*
G01*
X0143957Y0247893D01*
G75*
G02*
X0144292Y0248228I0000335J0000000D01*
G01*
X0146969Y0248228D01*
G75*
G02*
X0147304Y0247893I0000000J-000335D01*
G01*
G37*
G36*
G01*
X0141083Y0247893D02*
X0141083Y0245216D01*
G75*
G02*
X0140748Y0244881I-000335J0000000D01*
G01*
X0138071Y0244881D01*
G75*
G02*
X0137737Y0245216I0000000J0000335D01*
G01*
X0137737Y0247893D01*
G75*
G02*
X0138071Y0248228I0000335J0000000D01*
G01*
X0140748Y0248228D01*
G75*
G02*
X0141083Y0247893I0000000J-000335D01*
G01*
G37*
X0415355Y0238139D03*
X0410630Y0238139D03*
X0420079Y0238139D03*
X0424804Y0238139D03*
X0399371Y0294931D03*
X0395434Y0294931D03*
G36*
G01*
X0139922Y0226023D02*
X0137245Y0226023D01*
G75*
G02*
X0136910Y0226358I0000000J0000335D01*
G01*
X0136910Y0229035D01*
G75*
G02*
X0137245Y0229370I0000335J0000000D01*
G01*
X0139922Y0229370D01*
G75*
G02*
X0140256Y0229035I0000000J-000335D01*
G01*
X0140256Y0226358D01*
G75*
G02*
X0139922Y0226023I-000335J0000000D01*
G01*
G37*
G36*
G01*
X0139922Y0232244D02*
X0137245Y0232244D01*
G75*
G02*
X0136910Y0232578I0000000J0000335D01*
G01*
X0136910Y0235255D01*
G75*
G02*
X0137245Y0235590I0000335J0000000D01*
G01*
X0139922Y0235590D01*
G75*
G02*
X0140256Y0235255I0000000J-000335D01*
G01*
X0140256Y0232578D01*
G75*
G02*
X0139922Y0232244I-000335J0000000D01*
G01*
G37*
G36*
G01*
X0406497Y0210629D02*
X0406497Y0215551D01*
G75*
G02*
X0406890Y0215944I0000394J0000000D01*
G01*
X0410040Y0215944D01*
G75*
G02*
X0410434Y0215551I0000000J-000394D01*
G01*
X0410434Y0210629D01*
G75*
G02*
X0410040Y0210236I-000394J0000000D01*
G01*
X0406890Y0210236D01*
G75*
G02*
X0406497Y0210629I0000000J0000394D01*
G01*
G37*
G36*
G01*
X0413977Y0210629D02*
X0413977Y0215551D01*
G75*
G02*
X0414371Y0215944I0000394J0000000D01*
G01*
X0417520Y0215944D01*
G75*
G02*
X0417914Y0215551I0000000J-000394D01*
G01*
X0417914Y0210629D01*
G75*
G02*
X0417520Y0210236I-000394J0000000D01*
G01*
X0414371Y0210236D01*
G75*
G02*
X0413977Y0210629I0000000J0000394D01*
G01*
G37*
G36*
G01*
X0392717Y0222440D02*
X0392717Y0227362D01*
G75*
G02*
X0393111Y0227755I0000394J0000000D01*
G01*
X0396260Y0227755D01*
G75*
G02*
X0396654Y0227362I0000000J-000394D01*
G01*
X0396654Y0222440D01*
G75*
G02*
X0396260Y0222047I-000394J0000000D01*
G01*
X0393111Y0222047D01*
G75*
G02*
X0392717Y0222440I0000000J0000394D01*
G01*
G37*
G36*
G01*
X0400197Y0222440D02*
X0400197Y0227362D01*
G75*
G02*
X0400591Y0227755I0000394J0000000D01*
G01*
X0403741Y0227755D01*
G75*
G02*
X0404134Y0227362I0000000J-000394D01*
G01*
X0404134Y0222440D01*
G75*
G02*
X0403741Y0222047I-000394J0000000D01*
G01*
X0400591Y0222047D01*
G75*
G02*
X0400197Y0222440I0000000J0000394D01*
G01*
G37*
G36*
G01*
X0239941Y0215255D02*
X0238760Y0215255D01*
G75*
G02*
X0238170Y0215846I0000000J0000591D01*
G01*
X0238170Y0222342D01*
G75*
G02*
X0238760Y0222933I0000591J0000000D01*
G01*
X0239941Y0222933D01*
G75*
G02*
X0240532Y0222342I0000000J-000591D01*
G01*
X0240532Y0215846D01*
G75*
G02*
X0239941Y0215255I-000591J0000000D01*
G01*
G37*
G36*
G01*
X0244941Y0215255D02*
X0243760Y0215255D01*
G75*
G02*
X0243170Y0215846I0000000J0000591D01*
G01*
X0243170Y0222342D01*
G75*
G02*
X0243760Y0222933I0000591J0000000D01*
G01*
X0244941Y0222933D01*
G75*
G02*
X0245532Y0222342I0000000J-000591D01*
G01*
X0245532Y0215846D01*
G75*
G02*
X0244941Y0215255I-000591J0000000D01*
G01*
G37*
G36*
G01*
X0249941Y0215255D02*
X0248760Y0215255D01*
G75*
G02*
X0248170Y0215846I0000000J0000591D01*
G01*
X0248170Y0222342D01*
G75*
G02*
X0248760Y0222933I0000591J0000000D01*
G01*
X0249941Y0222933D01*
G75*
G02*
X0250532Y0222342I0000000J-000591D01*
G01*
X0250532Y0215846D01*
G75*
G02*
X0249941Y0215255I-000591J0000000D01*
G01*
G37*
G36*
G01*
X0254941Y0215255D02*
X0253760Y0215255D01*
G75*
G02*
X0253170Y0215846I0000000J0000591D01*
G01*
X0253170Y0222342D01*
G75*
G02*
X0253760Y0222933I0000591J0000000D01*
G01*
X0254941Y0222933D01*
G75*
G02*
X0255532Y0222342I0000000J-000591D01*
G01*
X0255532Y0215846D01*
G75*
G02*
X0254941Y0215255I-000591J0000000D01*
G01*
G37*
G36*
G01*
X0254941Y0234744D02*
X0253760Y0234744D01*
G75*
G02*
X0253170Y0235334I0000000J0000591D01*
G01*
X0253170Y0241830D01*
G75*
G02*
X0253760Y0242421I0000591J0000000D01*
G01*
X0254941Y0242421D01*
G75*
G02*
X0255532Y0241830I0000000J-000591D01*
G01*
X0255532Y0235334D01*
G75*
G02*
X0254941Y0234744I-000591J0000000D01*
G01*
G37*
G36*
G01*
X0249941Y0234744D02*
X0248760Y0234744D01*
G75*
G02*
X0248170Y0235334I0000000J0000591D01*
G01*
X0248170Y0241830D01*
G75*
G02*
X0248760Y0242421I0000591J0000000D01*
G01*
X0249941Y0242421D01*
G75*
G02*
X0250532Y0241830I0000000J-000591D01*
G01*
X0250532Y0235334D01*
G75*
G02*
X0249941Y0234744I-000591J0000000D01*
G01*
G37*
G36*
G01*
X0244941Y0234744D02*
X0243760Y0234744D01*
G75*
G02*
X0243170Y0235334I0000000J0000591D01*
G01*
X0243170Y0241830D01*
G75*
G02*
X0243760Y0242421I0000591J0000000D01*
G01*
X0244941Y0242421D01*
G75*
G02*
X0245532Y0241830I0000000J-000591D01*
G01*
X0245532Y0235334D01*
G75*
G02*
X0244941Y0234744I-000591J0000000D01*
G01*
G37*
G36*
G01*
X0239941Y0234744D02*
X0238760Y0234744D01*
G75*
G02*
X0238170Y0235334I0000000J0000591D01*
G01*
X0238170Y0241830D01*
G75*
G02*
X0238760Y0242421I0000591J0000000D01*
G01*
X0239941Y0242421D01*
G75*
G02*
X0240532Y0241830I0000000J-000591D01*
G01*
X0240532Y0235334D01*
G75*
G02*
X0239941Y0234744I-000591J0000000D01*
G01*
G37*
D28*
X0132678Y0293602D03*
G36*
G01*
X0129134Y0288307D02*
X0129134Y0291023D01*
G75*
G02*
X0130040Y0291929I0000906J0000000D01*
G01*
X0135315Y0291929D01*
G75*
G02*
X0136221Y0291023I0000000J-000906D01*
G01*
X0136221Y0288307D01*
G75*
G02*
X0135315Y0287401I-000906J0000000D01*
G01*
X0130040Y0287401D01*
G75*
G02*
X0129134Y0288307I0000000J0000906D01*
G01*
G37*
G36*
G01*
X0129134Y0276889D02*
X0129134Y0279606D01*
G75*
G02*
X0130040Y0280511I0000906J0000000D01*
G01*
X0135315Y0280511D01*
G75*
G02*
X0136221Y0279606I0000000J-000906D01*
G01*
X0136221Y0276889D01*
G75*
G02*
X0135315Y0275984I-000906J0000000D01*
G01*
X0130040Y0275984D01*
G75*
G02*
X0129134Y0276889I0000000J0000906D01*
G01*
G37*
X0132678Y0274311D03*
G36*
G01*
X0260473Y0250196D02*
X0257717Y0250196D01*
G75*
G02*
X0256733Y0251181I0000000J0000984D01*
G01*
X0256733Y0257874D01*
G75*
G02*
X0257717Y0258858I0000984J0000000D01*
G01*
X0260473Y0258858D01*
G75*
G02*
X0261457Y0257874I0000000J-000984D01*
G01*
X0261457Y0251181D01*
G75*
G02*
X0260473Y0250196I-000984J0000000D01*
G01*
G37*
G36*
G01*
X0278504Y0266732D02*
X0257638Y0266732D01*
G75*
G02*
X0256654Y0267716I0000000J0000984D01*
G01*
X0256654Y0290944D01*
G75*
G02*
X0257638Y0291929I0000984J0000000D01*
G01*
X0278504Y0291929D01*
G75*
G02*
X0279489Y0290944I0000000J-000984D01*
G01*
X0279489Y0267716D01*
G75*
G02*
X0278504Y0266732I-000984J0000000D01*
G01*
G37*
G36*
G01*
X0278426Y0250196D02*
X0275670Y0250196D01*
G75*
G02*
X0274685Y0251181I0000000J0000984D01*
G01*
X0274685Y0257874D01*
G75*
G02*
X0275670Y0258858I0000984J0000000D01*
G01*
X0278426Y0258858D01*
G75*
G02*
X0279410Y0257874I0000000J-000984D01*
G01*
X0279410Y0251181D01*
G75*
G02*
X0278426Y0250196I-000984J0000000D01*
G01*
G37*
X0209449Y0104645D03*
G36*
G01*
X0206989Y0102854D02*
X0211910Y0102854D01*
G75*
G02*
X0212304Y0102460I0000000J-000394D01*
G01*
X0212304Y0099311D01*
G75*
G02*
X0211910Y0098917I-000394J0000000D01*
G01*
X0206989Y0098917D01*
G75*
G02*
X0206595Y0099311I0000000J0000394D01*
G01*
X0206595Y0102460D01*
G75*
G02*
X0206989Y0102854I0000394J0000000D01*
G01*
G37*
G36*
G01*
X0206989Y0095373D02*
X0211910Y0095373D01*
G75*
G02*
X0212304Y0094980I0000000J-000394D01*
G01*
X0212304Y0091830D01*
G75*
G02*
X0211910Y0091436I-000394J0000000D01*
G01*
X0206989Y0091436D01*
G75*
G02*
X0206595Y0091830I0000000J0000394D01*
G01*
X0206595Y0094980D01*
G75*
G02*
X0206989Y0095373I0000394J0000000D01*
G01*
G37*
X0209449Y0089645D03*
G36*
G01*
X0406497Y0198818D02*
X0406497Y0203740D01*
G75*
G02*
X0406890Y0204133I0000394J0000000D01*
G01*
X0410040Y0204133D01*
G75*
G02*
X0410434Y0203740I0000000J-000394D01*
G01*
X0410434Y0198818D01*
G75*
G02*
X0410040Y0198425I-000394J0000000D01*
G01*
X0406890Y0198425D01*
G75*
G02*
X0406497Y0198818I0000000J0000394D01*
G01*
G37*
G36*
G01*
X0413977Y0198818D02*
X0413977Y0203740D01*
G75*
G02*
X0414371Y0204133I0000394J0000000D01*
G01*
X0417520Y0204133D01*
G75*
G02*
X0417914Y0203740I0000000J-000394D01*
G01*
X0417914Y0198818D01*
G75*
G02*
X0417520Y0198425I-000394J0000000D01*
G01*
X0414371Y0198425D01*
G75*
G02*
X0413977Y0198818I0000000J0000394D01*
G01*
G37*
X0467126Y0199311D03*
G36*
G01*
X0461831Y0202854D02*
X0464548Y0202854D01*
G75*
G02*
X0465453Y0201948I0000000J-000906D01*
G01*
X0465453Y0196673D01*
G75*
G02*
X0464548Y0195767I-000906J0000000D01*
G01*
X0461831Y0195767D01*
G75*
G02*
X0460926Y0196673I0000000J0000906D01*
G01*
X0460926Y0201948D01*
G75*
G02*
X0461831Y0202854I0000906J0000000D01*
G01*
G37*
G36*
G01*
X0450414Y0202854D02*
X0453130Y0202854D01*
G75*
G02*
X0454036Y0201948I0000000J-000906D01*
G01*
X0454036Y0196673D01*
G75*
G02*
X0453130Y0195767I-000906J0000000D01*
G01*
X0450414Y0195767D01*
G75*
G02*
X0449508Y0196673I0000000J0000906D01*
G01*
X0449508Y0201948D01*
G75*
G02*
X0450414Y0202854I0000906J0000000D01*
G01*
G37*
X0447835Y0199311D03*
X0122835Y0293602D03*
G36*
G01*
X0119292Y0288307D02*
X0119292Y0291023D01*
G75*
G02*
X0120197Y0291929I0000906J0000000D01*
G01*
X0125473Y0291929D01*
G75*
G02*
X0126378Y0291023I0000000J-000906D01*
G01*
X0126378Y0288307D01*
G75*
G02*
X0125473Y0287401I-000906J0000000D01*
G01*
X0120197Y0287401D01*
G75*
G02*
X0119292Y0288307I0000000J0000906D01*
G01*
G37*
G36*
G01*
X0119292Y0276889D02*
X0119292Y0279606D01*
G75*
G02*
X0120197Y0280511I0000906J0000000D01*
G01*
X0125473Y0280511D01*
G75*
G02*
X0126378Y0279606I0000000J-000906D01*
G01*
X0126378Y0276889D01*
G75*
G02*
X0125473Y0275984I-000906J0000000D01*
G01*
X0120197Y0275984D01*
G75*
G02*
X0119292Y0276889I0000000J0000906D01*
G01*
G37*
X0122835Y0274311D03*
G36*
G01*
X0562599Y0293110D02*
X0561418Y0293110D01*
G75*
G02*
X0560827Y0293700I0000000J0000591D01*
G01*
X0560827Y0298326D01*
G75*
G02*
X0561418Y0298917I0000591J0000000D01*
G01*
X0562599Y0298917D01*
G75*
G02*
X0563189Y0298326I0000000J-000591D01*
G01*
X0563189Y0293700D01*
G75*
G02*
X0562599Y0293110I-000591J0000000D01*
G01*
G37*
G36*
G01*
X0570079Y0293110D02*
X0568898Y0293110D01*
G75*
G02*
X0568308Y0293700I0000000J0000591D01*
G01*
X0568308Y0298326D01*
G75*
G02*
X0568898Y0298917I0000591J0000000D01*
G01*
X0570079Y0298917D01*
G75*
G02*
X0570670Y0298326I0000000J-000591D01*
G01*
X0570670Y0293700D01*
G75*
G02*
X0570079Y0293110I-000591J0000000D01*
G01*
G37*
G36*
G01*
X0566339Y0300492D02*
X0565158Y0300492D01*
G75*
G02*
X0564567Y0301082I0000000J0000591D01*
G01*
X0564567Y0305708D01*
G75*
G02*
X0565158Y0306299I0000591J0000000D01*
G01*
X0566339Y0306299D01*
G75*
G02*
X0566930Y0305708I0000000J-000591D01*
G01*
X0566930Y0301082D01*
G75*
G02*
X0566339Y0300492I-000591J0000000D01*
G01*
G37*
G36*
G01*
X0137205Y0052362D02*
X0137205Y0057677D01*
G75*
G02*
X0138189Y0058661I0000984J0000000D01*
G01*
X0142914Y0058661D01*
G75*
G02*
X0143898Y0057677I0000000J-000984D01*
G01*
X0143898Y0052362D01*
G75*
G02*
X0142914Y0051377I-000984J0000000D01*
G01*
X0138189Y0051377D01*
G75*
G02*
X0137205Y0052362I0000000J0000984D01*
G01*
G37*
D29*
X0150394Y0055019D03*
X0160237Y0055019D03*
X0170079Y0055019D03*
X0179922Y0055019D03*
G36*
G01*
X0561221Y0282421D02*
X0561221Y0285492D01*
G75*
G02*
X0561497Y0285767I0000276J0000000D01*
G01*
X0563701Y0285767D01*
G75*
G02*
X0563977Y0285492I0000000J-000276D01*
G01*
X0563977Y0282421D01*
G75*
G02*
X0563701Y0282145I-000276J0000000D01*
G01*
X0561497Y0282145D01*
G75*
G02*
X0561221Y0282421I0000000J0000276D01*
G01*
G37*
G36*
G01*
X0567520Y0282421D02*
X0567520Y0285492D01*
G75*
G02*
X0567796Y0285767I0000276J0000000D01*
G01*
X0570000Y0285767D01*
G75*
G02*
X0570276Y0285492I0000000J-000276D01*
G01*
X0570276Y0282421D01*
G75*
G02*
X0570000Y0282145I-000276J0000000D01*
G01*
X0567796Y0282145D01*
G75*
G02*
X0567520Y0282421I0000000J0000276D01*
G01*
G37*
G36*
G01*
X0148130Y0273484D02*
X0148130Y0270807D01*
G75*
G02*
X0147796Y0270472I-000335J0000000D01*
G01*
X0145119Y0270472D01*
G75*
G02*
X0144784Y0270807I0000000J0000335D01*
G01*
X0144784Y0273484D01*
G75*
G02*
X0145119Y0273818I0000335J0000000D01*
G01*
X0147796Y0273818D01*
G75*
G02*
X0148130Y0273484I0000000J-000335D01*
G01*
G37*
G36*
G01*
X0141910Y0273484D02*
X0141910Y0270807D01*
G75*
G02*
X0141575Y0270472I-000335J0000000D01*
G01*
X0138898Y0270472D01*
G75*
G02*
X0138563Y0270807I0000000J0000335D01*
G01*
X0138563Y0273484D01*
G75*
G02*
X0138898Y0273818I0000335J0000000D01*
G01*
X0141575Y0273818D01*
G75*
G02*
X0141910Y0273484I0000000J-000335D01*
G01*
G37*
G36*
G01*
X0145670Y0264960D02*
X0146851Y0264960D01*
G75*
G02*
X0147441Y0264370I0000000J-000591D01*
G01*
X0147441Y0259744D01*
G75*
G02*
X0146851Y0259153I-000591J0000000D01*
G01*
X0145670Y0259153D01*
G75*
G02*
X0145079Y0259744I0000000J0000591D01*
G01*
X0145079Y0264370D01*
G75*
G02*
X0145670Y0264960I0000591J0000000D01*
G01*
G37*
G36*
G01*
X0138189Y0264960D02*
X0139371Y0264960D01*
G75*
G02*
X0139961Y0264370I0000000J-000591D01*
G01*
X0139961Y0259744D01*
G75*
G02*
X0139371Y0259153I-000591J0000000D01*
G01*
X0138189Y0259153D01*
G75*
G02*
X0137599Y0259744I0000000J0000591D01*
G01*
X0137599Y0264370D01*
G75*
G02*
X0138189Y0264960I0000591J0000000D01*
G01*
G37*
G36*
G01*
X0141930Y0257578D02*
X0143111Y0257578D01*
G75*
G02*
X0143701Y0256988I0000000J-000591D01*
G01*
X0143701Y0252362D01*
G75*
G02*
X0143111Y0251771I-000591J0000000D01*
G01*
X0141930Y0251771D01*
G75*
G02*
X0141339Y0252362I0000000J0000591D01*
G01*
X0141339Y0256988D01*
G75*
G02*
X0141930Y0257578I0000591J0000000D01*
G01*
G37*
G36*
G01*
X0297028Y0215255D02*
X0295847Y0215255D01*
G75*
G02*
X0295256Y0215846I0000000J0000591D01*
G01*
X0295256Y0222342D01*
G75*
G02*
X0295847Y0222933I0000591J0000000D01*
G01*
X0297028Y0222933D01*
G75*
G02*
X0297619Y0222342I0000000J-000591D01*
G01*
X0297619Y0215846D01*
G75*
G02*
X0297028Y0215255I-000591J0000000D01*
G01*
G37*
G36*
G01*
X0302028Y0215255D02*
X0300847Y0215255D01*
G75*
G02*
X0300256Y0215846I0000000J0000591D01*
G01*
X0300256Y0222342D01*
G75*
G02*
X0300847Y0222933I0000591J0000000D01*
G01*
X0302028Y0222933D01*
G75*
G02*
X0302619Y0222342I0000000J-000591D01*
G01*
X0302619Y0215846D01*
G75*
G02*
X0302028Y0215255I-000591J0000000D01*
G01*
G37*
G36*
G01*
X0307028Y0215255D02*
X0305847Y0215255D01*
G75*
G02*
X0305256Y0215846I0000000J0000591D01*
G01*
X0305256Y0222342D01*
G75*
G02*
X0305847Y0222933I0000591J0000000D01*
G01*
X0307028Y0222933D01*
G75*
G02*
X0307619Y0222342I0000000J-000591D01*
G01*
X0307619Y0215846D01*
G75*
G02*
X0307028Y0215255I-000591J0000000D01*
G01*
G37*
G36*
G01*
X0312028Y0215255D02*
X0310847Y0215255D01*
G75*
G02*
X0310256Y0215846I0000000J0000591D01*
G01*
X0310256Y0222342D01*
G75*
G02*
X0310847Y0222933I0000591J0000000D01*
G01*
X0312028Y0222933D01*
G75*
G02*
X0312619Y0222342I0000000J-000591D01*
G01*
X0312619Y0215846D01*
G75*
G02*
X0312028Y0215255I-000591J0000000D01*
G01*
G37*
G36*
G01*
X0312028Y0234744D02*
X0310847Y0234744D01*
G75*
G02*
X0310256Y0235334I0000000J0000591D01*
G01*
X0310256Y0241830D01*
G75*
G02*
X0310847Y0242421I0000591J0000000D01*
G01*
X0312028Y0242421D01*
G75*
G02*
X0312619Y0241830I0000000J-000591D01*
G01*
X0312619Y0235334D01*
G75*
G02*
X0312028Y0234744I-000591J0000000D01*
G01*
G37*
G36*
G01*
X0307028Y0234744D02*
X0305847Y0234744D01*
G75*
G02*
X0305256Y0235334I0000000J0000591D01*
G01*
X0305256Y0241830D01*
G75*
G02*
X0305847Y0242421I0000591J0000000D01*
G01*
X0307028Y0242421D01*
G75*
G02*
X0307619Y0241830I0000000J-000591D01*
G01*
X0307619Y0235334D01*
G75*
G02*
X0307028Y0234744I-000591J0000000D01*
G01*
G37*
G36*
G01*
X0302028Y0234744D02*
X0300847Y0234744D01*
G75*
G02*
X0300256Y0235334I0000000J0000591D01*
G01*
X0300256Y0241830D01*
G75*
G02*
X0300847Y0242421I0000591J0000000D01*
G01*
X0302028Y0242421D01*
G75*
G02*
X0302619Y0241830I0000000J-000591D01*
G01*
X0302619Y0235334D01*
G75*
G02*
X0302028Y0234744I-000591J0000000D01*
G01*
G37*
G36*
G01*
X0297028Y0234744D02*
X0295847Y0234744D01*
G75*
G02*
X0295256Y0235334I0000000J0000591D01*
G01*
X0295256Y0241830D01*
G75*
G02*
X0295847Y0242421I0000591J0000000D01*
G01*
X0297028Y0242421D01*
G75*
G02*
X0297619Y0241830I0000000J-000591D01*
G01*
X0297619Y0235334D01*
G75*
G02*
X0297028Y0234744I-000591J0000000D01*
G01*
G37*
G36*
G01*
X0195945Y0250196D02*
X0193189Y0250196D01*
G75*
G02*
X0192205Y0251181I0000000J0000984D01*
G01*
X0192205Y0257874D01*
G75*
G02*
X0193189Y0258858I0000984J0000000D01*
G01*
X0195945Y0258858D01*
G75*
G02*
X0196930Y0257874I0000000J-000984D01*
G01*
X0196930Y0251181D01*
G75*
G02*
X0195945Y0250196I-000984J0000000D01*
G01*
G37*
G36*
G01*
X0213977Y0266732D02*
X0193111Y0266732D01*
G75*
G02*
X0192126Y0267716I0000000J0000984D01*
G01*
X0192126Y0290944D01*
G75*
G02*
X0193111Y0291929I0000984J0000000D01*
G01*
X0213977Y0291929D01*
G75*
G02*
X0214961Y0290944I0000000J-000984D01*
G01*
X0214961Y0267716D01*
G75*
G02*
X0213977Y0266732I-000984J0000000D01*
G01*
G37*
G36*
G01*
X0213898Y0250196D02*
X0211142Y0250196D01*
G75*
G02*
X0210158Y0251181I0000000J0000984D01*
G01*
X0210158Y0257874D01*
G75*
G02*
X0211142Y0258858I0000984J0000000D01*
G01*
X0213898Y0258858D01*
G75*
G02*
X0214882Y0257874I0000000J-000984D01*
G01*
X0214882Y0251181D01*
G75*
G02*
X0213898Y0250196I-000984J0000000D01*
G01*
G37*
D11*
X0375296Y0237401D03*
X0370571Y0237401D03*
X0380020Y0237401D03*
X0384745Y0237401D03*
X0359311Y0294192D03*
X0355374Y0294192D03*
G36*
G01*
X0435394Y0269586D02*
X0432323Y0269586D01*
G75*
G02*
X0432048Y0269862I0000000J0000276D01*
G01*
X0432048Y0272066D01*
G75*
G02*
X0432323Y0272342I0000276J0000000D01*
G01*
X0435394Y0272342D01*
G75*
G02*
X0435670Y0272066I0000000J-000276D01*
G01*
X0435670Y0269862D01*
G75*
G02*
X0435394Y0269586I-000276J0000000D01*
G01*
G37*
G36*
G01*
X0435394Y0275885D02*
X0432323Y0275885D01*
G75*
G02*
X0432048Y0276161I0000000J0000276D01*
G01*
X0432048Y0278366D01*
G75*
G02*
X0432323Y0278641I0000276J0000000D01*
G01*
X0435394Y0278641D01*
G75*
G02*
X0435670Y0278366I0000000J-000276D01*
G01*
X0435670Y0276161D01*
G75*
G02*
X0435394Y0275885I-000276J0000000D01*
G01*
G37*
G36*
G01*
X0576024Y0304232D02*
X0579095Y0304232D01*
G75*
G02*
X0579371Y0303956I0000000J-000276D01*
G01*
X0579371Y0301751D01*
G75*
G02*
X0579095Y0301476I-000276J0000000D01*
G01*
X0576024Y0301476D01*
G75*
G02*
X0575748Y0301751I0000000J0000276D01*
G01*
X0575748Y0303956D01*
G75*
G02*
X0576024Y0304232I0000276J0000000D01*
G01*
G37*
G36*
G01*
X0576024Y0297933D02*
X0579095Y0297933D01*
G75*
G02*
X0579371Y0297657I0000000J-000276D01*
G01*
X0579371Y0295452D01*
G75*
G02*
X0579095Y0295177I-000276J0000000D01*
G01*
X0576024Y0295177D01*
G75*
G02*
X0575748Y0295452I0000000J0000276D01*
G01*
X0575748Y0297657D01*
G75*
G02*
X0576024Y0297933I0000276J0000000D01*
G01*
G37*
G36*
G01*
X0371300Y0230216D02*
X0374371Y0230216D01*
G75*
G02*
X0374646Y0229940I0000000J-000276D01*
G01*
X0374646Y0227736D01*
G75*
G02*
X0374371Y0227460I-000276J0000000D01*
G01*
X0371300Y0227460D01*
G75*
G02*
X0371024Y0227736I0000000J0000276D01*
G01*
X0371024Y0229940D01*
G75*
G02*
X0371300Y0230216I0000276J0000000D01*
G01*
G37*
G36*
G01*
X0371300Y0223917D02*
X0374371Y0223917D01*
G75*
G02*
X0374646Y0223641I0000000J-000276D01*
G01*
X0374646Y0221437D01*
G75*
G02*
X0374371Y0221161I-000276J0000000D01*
G01*
X0371300Y0221161D01*
G75*
G02*
X0371024Y0221437I0000000J0000276D01*
G01*
X0371024Y0223641D01*
G75*
G02*
X0371300Y0223917I0000276J0000000D01*
G01*
G37*
G36*
G01*
X0268032Y0215255D02*
X0266851Y0215255D01*
G75*
G02*
X0266260Y0215846I0000000J0000591D01*
G01*
X0266260Y0222342D01*
G75*
G02*
X0266851Y0222933I0000591J0000000D01*
G01*
X0268032Y0222933D01*
G75*
G02*
X0268623Y0222342I0000000J-000591D01*
G01*
X0268623Y0215846D01*
G75*
G02*
X0268032Y0215255I-000591J0000000D01*
G01*
G37*
G36*
G01*
X0273032Y0215255D02*
X0271851Y0215255D01*
G75*
G02*
X0271260Y0215846I0000000J0000591D01*
G01*
X0271260Y0222342D01*
G75*
G02*
X0271851Y0222933I0000591J0000000D01*
G01*
X0273032Y0222933D01*
G75*
G02*
X0273623Y0222342I0000000J-000591D01*
G01*
X0273623Y0215846D01*
G75*
G02*
X0273032Y0215255I-000591J0000000D01*
G01*
G37*
G36*
G01*
X0278032Y0215255D02*
X0276851Y0215255D01*
G75*
G02*
X0276260Y0215846I0000000J0000591D01*
G01*
X0276260Y0222342D01*
G75*
G02*
X0276851Y0222933I0000591J0000000D01*
G01*
X0278032Y0222933D01*
G75*
G02*
X0278623Y0222342I0000000J-000591D01*
G01*
X0278623Y0215846D01*
G75*
G02*
X0278032Y0215255I-000591J0000000D01*
G01*
G37*
G36*
G01*
X0283032Y0215255D02*
X0281851Y0215255D01*
G75*
G02*
X0281260Y0215846I0000000J0000591D01*
G01*
X0281260Y0222342D01*
G75*
G02*
X0281851Y0222933I0000591J0000000D01*
G01*
X0283032Y0222933D01*
G75*
G02*
X0283623Y0222342I0000000J-000591D01*
G01*
X0283623Y0215846D01*
G75*
G02*
X0283032Y0215255I-000591J0000000D01*
G01*
G37*
G36*
G01*
X0283032Y0234744D02*
X0281851Y0234744D01*
G75*
G02*
X0281260Y0235334I0000000J0000591D01*
G01*
X0281260Y0241830D01*
G75*
G02*
X0281851Y0242421I0000591J0000000D01*
G01*
X0283032Y0242421D01*
G75*
G02*
X0283623Y0241830I0000000J-000591D01*
G01*
X0283623Y0235334D01*
G75*
G02*
X0283032Y0234744I-000591J0000000D01*
G01*
G37*
G36*
G01*
X0278032Y0234744D02*
X0276851Y0234744D01*
G75*
G02*
X0276260Y0235334I0000000J0000591D01*
G01*
X0276260Y0241830D01*
G75*
G02*
X0276851Y0242421I0000591J0000000D01*
G01*
X0278032Y0242421D01*
G75*
G02*
X0278623Y0241830I0000000J-000591D01*
G01*
X0278623Y0235334D01*
G75*
G02*
X0278032Y0234744I-000591J0000000D01*
G01*
G37*
G36*
G01*
X0273032Y0234744D02*
X0271851Y0234744D01*
G75*
G02*
X0271260Y0235334I0000000J0000591D01*
G01*
X0271260Y0241830D01*
G75*
G02*
X0271851Y0242421I0000591J0000000D01*
G01*
X0273032Y0242421D01*
G75*
G02*
X0273623Y0241830I0000000J-000591D01*
G01*
X0273623Y0235334D01*
G75*
G02*
X0273032Y0234744I-000591J0000000D01*
G01*
G37*
G36*
G01*
X0268032Y0234744D02*
X0266851Y0234744D01*
G75*
G02*
X0266260Y0235334I0000000J0000591D01*
G01*
X0266260Y0241830D01*
G75*
G02*
X0266851Y0242421I0000591J0000000D01*
G01*
X0268032Y0242421D01*
G75*
G02*
X0268623Y0241830I0000000J-000591D01*
G01*
X0268623Y0235334D01*
G75*
G02*
X0268032Y0234744I-000591J0000000D01*
G01*
G37*
G36*
G01*
X0143480Y0294685D02*
X0145498Y0294685D01*
G75*
G02*
X0146359Y0293823I0000000J-000861D01*
G01*
X0146359Y0292101D01*
G75*
G02*
X0145498Y0291240I-000861J0000000D01*
G01*
X0143480Y0291240D01*
G75*
G02*
X0142619Y0292101I0000000J0000861D01*
G01*
X0142619Y0293823D01*
G75*
G02*
X0143480Y0294685I0000861J0000000D01*
G01*
G37*
G36*
G01*
X0143480Y0288484D02*
X0145498Y0288484D01*
G75*
G02*
X0146359Y0287623I0000000J-000861D01*
G01*
X0146359Y0285900D01*
G75*
G02*
X0145498Y0285039I-000861J0000000D01*
G01*
X0143480Y0285039D01*
G75*
G02*
X0142619Y0285900I0000000J0000861D01*
G01*
X0142619Y0287623D01*
G75*
G02*
X0143480Y0288484I0000861J0000000D01*
G01*
G37*
G36*
G01*
X0406497Y0222440D02*
X0406497Y0227362D01*
G75*
G02*
X0406890Y0227755I0000394J0000000D01*
G01*
X0410040Y0227755D01*
G75*
G02*
X0410434Y0227362I0000000J-000394D01*
G01*
X0410434Y0222440D01*
G75*
G02*
X0410040Y0222047I-000394J0000000D01*
G01*
X0406890Y0222047D01*
G75*
G02*
X0406497Y0222440I0000000J0000394D01*
G01*
G37*
G36*
G01*
X0413977Y0222440D02*
X0413977Y0227362D01*
G75*
G02*
X0414371Y0227755I0000394J0000000D01*
G01*
X0417520Y0227755D01*
G75*
G02*
X0417914Y0227362I0000000J-000394D01*
G01*
X0417914Y0222440D01*
G75*
G02*
X0417520Y0222047I-000394J0000000D01*
G01*
X0414371Y0222047D01*
G75*
G02*
X0413977Y0222440I0000000J0000394D01*
G01*
G37*
G36*
G01*
X0392717Y0210629D02*
X0392717Y0215551D01*
G75*
G02*
X0393111Y0215944I0000394J0000000D01*
G01*
X0396260Y0215944D01*
G75*
G02*
X0396654Y0215551I0000000J-000394D01*
G01*
X0396654Y0210629D01*
G75*
G02*
X0396260Y0210236I-000394J0000000D01*
G01*
X0393111Y0210236D01*
G75*
G02*
X0392717Y0210629I0000000J0000394D01*
G01*
G37*
G36*
G01*
X0400197Y0210629D02*
X0400197Y0215551D01*
G75*
G02*
X0400591Y0215944I0000394J0000000D01*
G01*
X0403741Y0215944D01*
G75*
G02*
X0404134Y0215551I0000000J-000394D01*
G01*
X0404134Y0210629D01*
G75*
G02*
X0403741Y0210236I-000394J0000000D01*
G01*
X0400591Y0210236D01*
G75*
G02*
X0400197Y0210629I0000000J0000394D01*
G01*
G37*
G36*
G01*
X0214351Y0215255D02*
X0213170Y0215255D01*
G75*
G02*
X0212579Y0215846I0000000J0000591D01*
G01*
X0212579Y0222342D01*
G75*
G02*
X0213170Y0222933I0000591J0000000D01*
G01*
X0214351Y0222933D01*
G75*
G02*
X0214941Y0222342I0000000J-000591D01*
G01*
X0214941Y0215846D01*
G75*
G02*
X0214351Y0215255I-000591J0000000D01*
G01*
G37*
G36*
G01*
X0219351Y0215255D02*
X0218170Y0215255D01*
G75*
G02*
X0217579Y0215846I0000000J0000591D01*
G01*
X0217579Y0222342D01*
G75*
G02*
X0218170Y0222933I0000591J0000000D01*
G01*
X0219351Y0222933D01*
G75*
G02*
X0219941Y0222342I0000000J-000591D01*
G01*
X0219941Y0215846D01*
G75*
G02*
X0219351Y0215255I-000591J0000000D01*
G01*
G37*
G36*
G01*
X0224351Y0215255D02*
X0223170Y0215255D01*
G75*
G02*
X0222579Y0215846I0000000J0000591D01*
G01*
X0222579Y0222342D01*
G75*
G02*
X0223170Y0222933I0000591J0000000D01*
G01*
X0224351Y0222933D01*
G75*
G02*
X0224941Y0222342I0000000J-000591D01*
G01*
X0224941Y0215846D01*
G75*
G02*
X0224351Y0215255I-000591J0000000D01*
G01*
G37*
G36*
G01*
X0229351Y0215255D02*
X0228170Y0215255D01*
G75*
G02*
X0227579Y0215846I0000000J0000591D01*
G01*
X0227579Y0222342D01*
G75*
G02*
X0228170Y0222933I0000591J0000000D01*
G01*
X0229351Y0222933D01*
G75*
G02*
X0229941Y0222342I0000000J-000591D01*
G01*
X0229941Y0215846D01*
G75*
G02*
X0229351Y0215255I-000591J0000000D01*
G01*
G37*
G36*
G01*
X0229351Y0234744D02*
X0228170Y0234744D01*
G75*
G02*
X0227579Y0235334I0000000J0000591D01*
G01*
X0227579Y0241830D01*
G75*
G02*
X0228170Y0242421I0000591J0000000D01*
G01*
X0229351Y0242421D01*
G75*
G02*
X0229941Y0241830I0000000J-000591D01*
G01*
X0229941Y0235334D01*
G75*
G02*
X0229351Y0234744I-000591J0000000D01*
G01*
G37*
G36*
G01*
X0224351Y0234744D02*
X0223170Y0234744D01*
G75*
G02*
X0222579Y0235334I0000000J0000591D01*
G01*
X0222579Y0241830D01*
G75*
G02*
X0223170Y0242421I0000591J0000000D01*
G01*
X0224351Y0242421D01*
G75*
G02*
X0224941Y0241830I0000000J-000591D01*
G01*
X0224941Y0235334D01*
G75*
G02*
X0224351Y0234744I-000591J0000000D01*
G01*
G37*
G36*
G01*
X0219351Y0234744D02*
X0218170Y0234744D01*
G75*
G02*
X0217579Y0235334I0000000J0000591D01*
G01*
X0217579Y0241830D01*
G75*
G02*
X0218170Y0242421I0000591J0000000D01*
G01*
X0219351Y0242421D01*
G75*
G02*
X0219941Y0241830I0000000J-000591D01*
G01*
X0219941Y0235334D01*
G75*
G02*
X0219351Y0234744I-000591J0000000D01*
G01*
G37*
G36*
G01*
X0214351Y0234744D02*
X0213170Y0234744D01*
G75*
G02*
X0212579Y0235334I0000000J0000591D01*
G01*
X0212579Y0241830D01*
G75*
G02*
X0213170Y0242421I0000591J0000000D01*
G01*
X0214351Y0242421D01*
G75*
G02*
X0214941Y0241830I0000000J-000591D01*
G01*
X0214941Y0235334D01*
G75*
G02*
X0214351Y0234744I-000591J0000000D01*
G01*
G37*
G36*
G01*
X0603741Y0312500D02*
X0598623Y0312500D01*
G75*
G02*
X0597638Y0313484I0000000J0000984D01*
G01*
X0597638Y0321358D01*
G75*
G02*
X0598623Y0322342I0000984J0000000D01*
G01*
X0603741Y0322342D01*
G75*
G02*
X0604725Y0321358I0000000J-000984D01*
G01*
X0604725Y0313484D01*
G75*
G02*
X0603741Y0312500I-000984J0000000D01*
G01*
G37*
G36*
G01*
X0603741Y0328248D02*
X0598623Y0328248D01*
G75*
G02*
X0597638Y0329232I0000000J0000984D01*
G01*
X0597638Y0337106D01*
G75*
G02*
X0598623Y0338090I0000984J0000000D01*
G01*
X0603741Y0338090D01*
G75*
G02*
X0604725Y0337106I0000000J-000984D01*
G01*
X0604725Y0329232D01*
G75*
G02*
X0603741Y0328248I-000984J0000000D01*
G01*
G37*
D46*
X0208957Y0056594D03*
D47*
X0202067Y0059744D03*
X0208957Y0062893D03*
X0202067Y0066043D03*
X0208957Y0069192D03*
D48*
X0205512Y0048523D03*
X0205512Y0077263D03*
G36*
G01*
X0292737Y0250196D02*
X0289981Y0250196D01*
G75*
G02*
X0288997Y0251181I0000000J0000984D01*
G01*
X0288997Y0257874D01*
G75*
G02*
X0289981Y0258858I0000984J0000000D01*
G01*
X0292737Y0258858D01*
G75*
G02*
X0293721Y0257874I0000000J-000984D01*
G01*
X0293721Y0251181D01*
G75*
G02*
X0292737Y0250196I-000984J0000000D01*
G01*
G37*
G36*
G01*
X0310768Y0266732D02*
X0289902Y0266732D01*
G75*
G02*
X0288918Y0267716I0000000J0000984D01*
G01*
X0288918Y0290944D01*
G75*
G02*
X0289902Y0291929I0000984J0000000D01*
G01*
X0310768Y0291929D01*
G75*
G02*
X0311752Y0290944I0000000J-000984D01*
G01*
X0311752Y0267716D01*
G75*
G02*
X0310768Y0266732I-000984J0000000D01*
G01*
G37*
G36*
G01*
X0310689Y0250196D02*
X0307934Y0250196D01*
G75*
G02*
X0306949Y0251181I0000000J0000984D01*
G01*
X0306949Y0257874D01*
G75*
G02*
X0307934Y0258858I0000984J0000000D01*
G01*
X0310689Y0258858D01*
G75*
G02*
X0311674Y0257874I0000000J-000984D01*
G01*
X0311674Y0251181D01*
G75*
G02*
X0310689Y0250196I-000984J0000000D01*
G01*
G37*
G36*
G01*
X0134016Y0226023D02*
X0131339Y0226023D01*
G75*
G02*
X0131004Y0226358I0000000J0000335D01*
G01*
X0131004Y0229035D01*
G75*
G02*
X0131339Y0229370I0000335J0000000D01*
G01*
X0134016Y0229370D01*
G75*
G02*
X0134351Y0229035I0000000J-000335D01*
G01*
X0134351Y0226358D01*
G75*
G02*
X0134016Y0226023I-000335J0000000D01*
G01*
G37*
G36*
G01*
X0134016Y0232244D02*
X0131339Y0232244D01*
G75*
G02*
X0131004Y0232578I0000000J0000335D01*
G01*
X0131004Y0235255D01*
G75*
G02*
X0131339Y0235590I0000335J0000000D01*
G01*
X0134016Y0235590D01*
G75*
G02*
X0134351Y0235255I0000000J-000335D01*
G01*
X0134351Y0232578D01*
G75*
G02*
X0134016Y0232244I-000335J0000000D01*
G01*
G37*
D52*
X0185581Y0076699D03*
D54*
X0144833Y0076896D03*
X0146802Y0076896D03*
D11*
X0172589Y0081030D03*
X0169144Y0083097D03*
X0173770Y0086049D03*
X0173475Y0100026D03*
G36*
G01*
X0379174Y0230216D02*
X0382245Y0230216D01*
G75*
G02*
X0382520Y0229940I0000000J-000276D01*
G01*
X0382520Y0227736D01*
G75*
G02*
X0382245Y0227460I-000276J0000000D01*
G01*
X0379174Y0227460D01*
G75*
G02*
X0378898Y0227736I0000000J0000276D01*
G01*
X0378898Y0229940D01*
G75*
G02*
X0379174Y0230216I0000276J0000000D01*
G01*
G37*
G36*
G01*
X0379174Y0223917D02*
X0382245Y0223917D01*
G75*
G02*
X0382520Y0223641I0000000J-000276D01*
G01*
X0382520Y0221437D01*
G75*
G02*
X0382245Y0221161I-000276J0000000D01*
G01*
X0379174Y0221161D01*
G75*
G02*
X0378898Y0221437I0000000J0000276D01*
G01*
X0378898Y0223641D01*
G75*
G02*
X0379174Y0223917I0000276J0000000D01*
G01*
G37*
G36*
G01*
X0326556Y0215255D02*
X0325374Y0215255D01*
G75*
G02*
X0324784Y0215846I0000000J0000591D01*
G01*
X0324784Y0222342D01*
G75*
G02*
X0325374Y0222933I0000591J0000000D01*
G01*
X0326556Y0222933D01*
G75*
G02*
X0327146Y0222342I0000000J-000591D01*
G01*
X0327146Y0215846D01*
G75*
G02*
X0326556Y0215255I-000591J0000000D01*
G01*
G37*
G36*
G01*
X0331556Y0215255D02*
X0330374Y0215255D01*
G75*
G02*
X0329784Y0215846I0000000J0000591D01*
G01*
X0329784Y0222342D01*
G75*
G02*
X0330374Y0222933I0000591J0000000D01*
G01*
X0331556Y0222933D01*
G75*
G02*
X0332146Y0222342I0000000J-000591D01*
G01*
X0332146Y0215846D01*
G75*
G02*
X0331556Y0215255I-000591J0000000D01*
G01*
G37*
G36*
G01*
X0336556Y0215255D02*
X0335374Y0215255D01*
G75*
G02*
X0334784Y0215846I0000000J0000591D01*
G01*
X0334784Y0222342D01*
G75*
G02*
X0335374Y0222933I0000591J0000000D01*
G01*
X0336556Y0222933D01*
G75*
G02*
X0337146Y0222342I0000000J-000591D01*
G01*
X0337146Y0215846D01*
G75*
G02*
X0336556Y0215255I-000591J0000000D01*
G01*
G37*
G36*
G01*
X0341556Y0215255D02*
X0340374Y0215255D01*
G75*
G02*
X0339784Y0215846I0000000J0000591D01*
G01*
X0339784Y0222342D01*
G75*
G02*
X0340374Y0222933I0000591J0000000D01*
G01*
X0341556Y0222933D01*
G75*
G02*
X0342146Y0222342I0000000J-000591D01*
G01*
X0342146Y0215846D01*
G75*
G02*
X0341556Y0215255I-000591J0000000D01*
G01*
G37*
G36*
G01*
X0341556Y0234744D02*
X0340374Y0234744D01*
G75*
G02*
X0339784Y0235334I0000000J0000591D01*
G01*
X0339784Y0241830D01*
G75*
G02*
X0340374Y0242421I0000591J0000000D01*
G01*
X0341556Y0242421D01*
G75*
G02*
X0342146Y0241830I0000000J-000591D01*
G01*
X0342146Y0235334D01*
G75*
G02*
X0341556Y0234744I-000591J0000000D01*
G01*
G37*
G36*
G01*
X0336556Y0234744D02*
X0335374Y0234744D01*
G75*
G02*
X0334784Y0235334I0000000J0000591D01*
G01*
X0334784Y0241830D01*
G75*
G02*
X0335374Y0242421I0000591J0000000D01*
G01*
X0336556Y0242421D01*
G75*
G02*
X0337146Y0241830I0000000J-000591D01*
G01*
X0337146Y0235334D01*
G75*
G02*
X0336556Y0234744I-000591J0000000D01*
G01*
G37*
G36*
G01*
X0331556Y0234744D02*
X0330374Y0234744D01*
G75*
G02*
X0329784Y0235334I0000000J0000591D01*
G01*
X0329784Y0241830D01*
G75*
G02*
X0330374Y0242421I0000591J0000000D01*
G01*
X0331556Y0242421D01*
G75*
G02*
X0332146Y0241830I0000000J-000591D01*
G01*
X0332146Y0235334D01*
G75*
G02*
X0331556Y0234744I-000591J0000000D01*
G01*
G37*
G36*
G01*
X0326556Y0234744D02*
X0325374Y0234744D01*
G75*
G02*
X0324784Y0235334I0000000J0000591D01*
G01*
X0324784Y0241830D01*
G75*
G02*
X0325374Y0242421I0000591J0000000D01*
G01*
X0326556Y0242421D01*
G75*
G02*
X0327146Y0241830I0000000J-000591D01*
G01*
X0327146Y0235334D01*
G75*
G02*
X0326556Y0234744I-000591J0000000D01*
G01*
G37*
G36*
G01*
X0088367Y0103051D02*
X0087185Y0103051D01*
G75*
G02*
X0086595Y0103641I0000000J0000591D01*
G01*
X0086595Y0110137D01*
G75*
G02*
X0087185Y0110728I0000591J0000000D01*
G01*
X0088367Y0110728D01*
G75*
G02*
X0088957Y0110137I0000000J-000591D01*
G01*
X0088957Y0103641D01*
G75*
G02*
X0088367Y0103051I-000591J0000000D01*
G01*
G37*
G36*
G01*
X0093367Y0103051D02*
X0092185Y0103051D01*
G75*
G02*
X0091595Y0103641I0000000J0000591D01*
G01*
X0091595Y0110137D01*
G75*
G02*
X0092185Y0110728I0000591J0000000D01*
G01*
X0093367Y0110728D01*
G75*
G02*
X0093957Y0110137I0000000J-000591D01*
G01*
X0093957Y0103641D01*
G75*
G02*
X0093367Y0103051I-000591J0000000D01*
G01*
G37*
G36*
G01*
X0098367Y0103051D02*
X0097185Y0103051D01*
G75*
G02*
X0096595Y0103641I0000000J0000591D01*
G01*
X0096595Y0110137D01*
G75*
G02*
X0097185Y0110728I0000591J0000000D01*
G01*
X0098367Y0110728D01*
G75*
G02*
X0098957Y0110137I0000000J-000591D01*
G01*
X0098957Y0103641D01*
G75*
G02*
X0098367Y0103051I-000591J0000000D01*
G01*
G37*
G36*
G01*
X0103367Y0103051D02*
X0102185Y0103051D01*
G75*
G02*
X0101595Y0103641I0000000J0000591D01*
G01*
X0101595Y0110137D01*
G75*
G02*
X0102185Y0110728I0000591J0000000D01*
G01*
X0103367Y0110728D01*
G75*
G02*
X0103957Y0110137I0000000J-000591D01*
G01*
X0103957Y0103641D01*
G75*
G02*
X0103367Y0103051I-000591J0000000D01*
G01*
G37*
G36*
G01*
X0103367Y0122539D02*
X0102185Y0122539D01*
G75*
G02*
X0101595Y0123129I0000000J0000591D01*
G01*
X0101595Y0129625D01*
G75*
G02*
X0102185Y0130216I0000591J0000000D01*
G01*
X0103367Y0130216D01*
G75*
G02*
X0103957Y0129625I0000000J-000591D01*
G01*
X0103957Y0123129D01*
G75*
G02*
X0103367Y0122539I-000591J0000000D01*
G01*
G37*
G36*
G01*
X0098367Y0122539D02*
X0097185Y0122539D01*
G75*
G02*
X0096595Y0123129I0000000J0000591D01*
G01*
X0096595Y0129625D01*
G75*
G02*
X0097185Y0130216I0000591J0000000D01*
G01*
X0098367Y0130216D01*
G75*
G02*
X0098957Y0129625I0000000J-000591D01*
G01*
X0098957Y0123129D01*
G75*
G02*
X0098367Y0122539I-000591J0000000D01*
G01*
G37*
G36*
G01*
X0093367Y0122539D02*
X0092185Y0122539D01*
G75*
G02*
X0091595Y0123129I0000000J0000591D01*
G01*
X0091595Y0129625D01*
G75*
G02*
X0092185Y0130216I0000591J0000000D01*
G01*
X0093367Y0130216D01*
G75*
G02*
X0093957Y0129625I0000000J-000591D01*
G01*
X0093957Y0123129D01*
G75*
G02*
X0093367Y0122539I-000591J0000000D01*
G01*
G37*
G36*
G01*
X0088367Y0122539D02*
X0087185Y0122539D01*
G75*
G02*
X0086595Y0123129I0000000J0000591D01*
G01*
X0086595Y0129625D01*
G75*
G02*
X0087185Y0130216I0000591J0000000D01*
G01*
X0088367Y0130216D01*
G75*
G02*
X0088957Y0129625I0000000J-000591D01*
G01*
X0088957Y0123129D01*
G75*
G02*
X0088367Y0122539I-000591J0000000D01*
G01*
G37*
G36*
G01*
X0161241Y0238484D02*
X0162422Y0238484D01*
G75*
G02*
X0163012Y0237893I0000000J-000591D01*
G01*
X0163012Y0231397D01*
G75*
G02*
X0162422Y0230807I-000591J0000000D01*
G01*
X0161241Y0230807D01*
G75*
G02*
X0160650Y0231397I0000000J0000591D01*
G01*
X0160650Y0237893D01*
G75*
G02*
X0161241Y0238484I0000591J0000000D01*
G01*
G37*
G36*
G01*
X0156241Y0238484D02*
X0157422Y0238484D01*
G75*
G02*
X0158012Y0237893I0000000J-000591D01*
G01*
X0158012Y0231397D01*
G75*
G02*
X0157422Y0230807I-000591J0000000D01*
G01*
X0156241Y0230807D01*
G75*
G02*
X0155650Y0231397I0000000J0000591D01*
G01*
X0155650Y0237893D01*
G75*
G02*
X0156241Y0238484I0000591J0000000D01*
G01*
G37*
G36*
G01*
X0151241Y0238484D02*
X0152422Y0238484D01*
G75*
G02*
X0153012Y0237893I0000000J-000591D01*
G01*
X0153012Y0231397D01*
G75*
G02*
X0152422Y0230807I-000591J0000000D01*
G01*
X0151241Y0230807D01*
G75*
G02*
X0150650Y0231397I0000000J0000591D01*
G01*
X0150650Y0237893D01*
G75*
G02*
X0151241Y0238484I0000591J0000000D01*
G01*
G37*
G36*
G01*
X0146241Y0238484D02*
X0147422Y0238484D01*
G75*
G02*
X0148012Y0237893I0000000J-000591D01*
G01*
X0148012Y0231397D01*
G75*
G02*
X0147422Y0230807I-000591J0000000D01*
G01*
X0146241Y0230807D01*
G75*
G02*
X0145650Y0231397I0000000J0000591D01*
G01*
X0145650Y0237893D01*
G75*
G02*
X0146241Y0238484I0000591J0000000D01*
G01*
G37*
G36*
G01*
X0146241Y0218996D02*
X0147422Y0218996D01*
G75*
G02*
X0148012Y0218405I0000000J-000591D01*
G01*
X0148012Y0211909D01*
G75*
G02*
X0147422Y0211318I-000591J0000000D01*
G01*
X0146241Y0211318D01*
G75*
G02*
X0145650Y0211909I0000000J0000591D01*
G01*
X0145650Y0218405D01*
G75*
G02*
X0146241Y0218996I0000591J0000000D01*
G01*
G37*
G36*
G01*
X0151241Y0218996D02*
X0152422Y0218996D01*
G75*
G02*
X0153012Y0218405I0000000J-000591D01*
G01*
X0153012Y0211909D01*
G75*
G02*
X0152422Y0211318I-000591J0000000D01*
G01*
X0151241Y0211318D01*
G75*
G02*
X0150650Y0211909I0000000J0000591D01*
G01*
X0150650Y0218405D01*
G75*
G02*
X0151241Y0218996I0000591J0000000D01*
G01*
G37*
G36*
G01*
X0156241Y0218996D02*
X0157422Y0218996D01*
G75*
G02*
X0158012Y0218405I0000000J-000591D01*
G01*
X0158012Y0211909D01*
G75*
G02*
X0157422Y0211318I-000591J0000000D01*
G01*
X0156241Y0211318D01*
G75*
G02*
X0155650Y0211909I0000000J0000591D01*
G01*
X0155650Y0218405D01*
G75*
G02*
X0156241Y0218996I0000591J0000000D01*
G01*
G37*
G36*
G01*
X0161241Y0218996D02*
X0162422Y0218996D01*
G75*
G02*
X0163012Y0218405I0000000J-000591D01*
G01*
X0163012Y0211909D01*
G75*
G02*
X0162422Y0211318I-000591J0000000D01*
G01*
X0161241Y0211318D01*
G75*
G02*
X0160650Y0211909I0000000J0000591D01*
G01*
X0160650Y0218405D01*
G75*
G02*
X0161241Y0218996I0000591J0000000D01*
G01*
G37*
D55*
X0572252Y0442944D03*
D56*
X0562607Y0412236D03*
D55*
X0278945Y0442944D03*
D56*
X0083079Y0412236D03*
D55*
X0073434Y0442944D03*
D57*
X0544300Y0423259D03*
X0521465Y0423259D03*
X0532882Y0414086D03*
X0544300Y0391251D03*
X0521465Y0391251D03*
D10*
X0310363Y0391251D03*
X0320363Y0391251D03*
X0330363Y0391251D03*
X0340363Y0391251D03*
X0350363Y0391251D03*
X0360363Y0391251D03*
X0370363Y0391251D03*
X0380363Y0391251D03*
X0390363Y0391251D03*
X0400363Y0391251D03*
X0410363Y0391251D03*
X0420363Y0391251D03*
X0430363Y0391251D03*
X0440363Y0391251D03*
X0450363Y0391251D03*
X0460363Y0391251D03*
X0470363Y0391251D03*
X0480363Y0391251D03*
X0490363Y0391251D03*
X0310363Y0401251D03*
X0320363Y0401251D03*
X0330363Y0401251D03*
X0340363Y0401251D03*
X0350363Y0401251D03*
X0360363Y0401251D03*
X0370363Y0401251D03*
X0380363Y0401251D03*
X0390363Y0401251D03*
X0400363Y0401251D03*
X0410363Y0401251D03*
X0420363Y0401251D03*
X0430363Y0401251D03*
X0440363Y0401251D03*
X0450363Y0401251D03*
X0460363Y0401251D03*
X0470363Y0401251D03*
X0480363Y0401251D03*
X0490363Y0401251D03*
X0310363Y0425070D03*
X0320363Y0425070D03*
X0330363Y0425070D03*
X0340363Y0425070D03*
X0350363Y0425070D03*
X0360363Y0425070D03*
X0370363Y0425070D03*
X0380363Y0425070D03*
X0390363Y0425070D03*
X0400363Y0425070D03*
X0410363Y0425070D03*
X0420363Y0425070D03*
X0430363Y0425070D03*
X0440363Y0425070D03*
X0450363Y0425070D03*
X0460363Y0425070D03*
X0470363Y0425070D03*
X0480363Y0425070D03*
X0490363Y0425070D03*
X0310363Y0435070D03*
X0320363Y0435070D03*
X0330363Y0435070D03*
X0340363Y0435070D03*
X0350363Y0435070D03*
X0360363Y0435070D03*
X0370363Y0435070D03*
X0380363Y0435070D03*
X0390363Y0435070D03*
X0400363Y0435070D03*
X0410363Y0435070D03*
X0420363Y0435070D03*
X0430363Y0435070D03*
X0440363Y0435070D03*
X0450363Y0435070D03*
X0460363Y0435070D03*
X0470363Y0435070D03*
X0480363Y0435070D03*
X0490363Y0435070D03*
X0247489Y0435070D03*
X0237489Y0435070D03*
X0227489Y0435070D03*
X0217489Y0435070D03*
X0207489Y0435070D03*
X0197489Y0435070D03*
X0187489Y0435070D03*
X0177489Y0435070D03*
X0247489Y0425070D03*
X0237489Y0425070D03*
X0227489Y0425070D03*
X0217489Y0425070D03*
X0207489Y0425070D03*
X0197489Y0425070D03*
X0187489Y0425070D03*
X0177489Y0425070D03*
X0247489Y0401251D03*
X0237489Y0401251D03*
X0227489Y0401251D03*
X0217489Y0401251D03*
X0207489Y0401251D03*
X0197489Y0401251D03*
X0187489Y0401251D03*
X0177489Y0401251D03*
X0247489Y0391251D03*
X0237489Y0391251D03*
X0227489Y0391251D03*
X0217489Y0391251D03*
X0207489Y0391251D03*
X0197489Y0391251D03*
X0187489Y0391251D03*
X0177489Y0391251D03*
D57*
X0146662Y0423259D03*
X0123827Y0423259D03*
X0100599Y0423259D03*
X0135245Y0414086D03*
X0112016Y0414086D03*
X0146662Y0391251D03*
X0123827Y0391251D03*
X0100599Y0391251D03*
G36*
X0023516Y0072747D02*
G01*
X0023619Y0072530D01*
X0023623Y0072479D01*
X0023623Y0072137D01*
X0026886Y0071577D01*
X0026912Y0071572D01*
X0030530Y0070692D01*
X0030551Y0070686D01*
X0033775Y0069709D01*
X0033802Y0069700D01*
X0036339Y0068724D01*
X0036356Y0068717D01*
X0038802Y0067641D01*
X0038814Y0067635D01*
X0041652Y0066265D01*
X0041673Y0066254D01*
X0044796Y0064498D01*
X0044828Y0064478D01*
X0048053Y0062230D01*
X0048067Y0062219D01*
X0050999Y0059972D01*
X0051026Y0059949D01*
X0053468Y0057703D01*
X0053479Y0057691D01*
X0056217Y0054954D01*
X0056241Y0054928D01*
X0058681Y0051999D01*
X0058698Y0051977D01*
X0060458Y0049534D01*
X0060466Y0049522D01*
X0062226Y0046881D01*
X0062240Y0046859D01*
X0063705Y0044319D01*
X0063714Y0044303D01*
X0065179Y0041470D01*
X0065192Y0041443D01*
X0066561Y0038217D01*
X0066567Y0038201D01*
X0068033Y0034292D01*
X0068046Y0034252D01*
X0069021Y0030448D01*
X0069027Y0030419D01*
X0069614Y0027095D01*
X0069616Y0027079D01*
X0070008Y0024138D01*
X0070010Y0024130D01*
X0070055Y0023720D01*
X0070055Y0023720D01*
X0070497Y0023720D01*
X0070726Y0023646D01*
X0070868Y0023451D01*
X0070884Y0023286D01*
X0070860Y0023076D01*
X0070803Y0022912D01*
X0070711Y0022766D01*
X0070588Y0022643D01*
X0070432Y0022546D01*
X0070290Y0022492D01*
X0070140Y0022466D01*
X0070075Y0022461D01*
X0050882Y0022461D01*
X0050653Y0022535D01*
X0050512Y0022730D01*
X0050493Y0022851D01*
X0050493Y0023248D01*
X0050493Y0023248D01*
X0050012Y0023248D01*
X0049783Y0023323D01*
X0049642Y0023518D01*
X0049636Y0023537D01*
X0049114Y0025485D01*
X0048368Y0027681D01*
X0047481Y0029824D01*
X0047481Y0029824D01*
X0046455Y0031904D01*
X0045295Y0033913D01*
X0045295Y0033913D01*
X0044007Y0035841D01*
X0042595Y0037681D01*
X0042595Y0037681D01*
X0041066Y0039425D01*
X0041066Y0039425D01*
X0039426Y0041065D01*
X0039426Y0041065D01*
X0037682Y0042594D01*
X0037682Y0042594D01*
X0035842Y0044006D01*
X0033914Y0045294D01*
X0033913Y0045294D01*
X0031905Y0046454D01*
X0029825Y0047480D01*
X0029825Y0047480D01*
X0027682Y0048367D01*
X0025486Y0049113D01*
X0023651Y0049605D01*
X0023449Y0049736D01*
X0023400Y0049862D01*
X0023362Y0049901D01*
X0022966Y0049901D01*
X0022736Y0049976D01*
X0022595Y0050170D01*
X0022576Y0050292D01*
X0022666Y0072125D01*
X0022676Y0072212D01*
X0022726Y0072424D01*
X0022802Y0072580D01*
X0022910Y0072714D01*
X0023046Y0072822D01*
X0023065Y0072831D01*
X0023304Y0072862D01*
X0023516Y0072747D01*
G37*
G36*
X0023237Y0414175D02*
G01*
X0023465Y0414099D01*
X0023606Y0413904D01*
X0023624Y0413785D01*
X0023623Y0072137D01*
X0024086Y0072057D01*
X0024299Y0071945D01*
X0024406Y0071729D01*
X0024410Y0071673D01*
X0024410Y0049945D01*
X0024400Y0049858D01*
X0024392Y0049825D01*
X0024269Y0049618D01*
X0024047Y0049523D01*
X0023912Y0049535D01*
X0023651Y0049605D01*
X0023449Y0049736D01*
X0023400Y0049862D01*
X0023362Y0049901D01*
X0022340Y0049901D01*
X0022264Y0049909D01*
X0020971Y0050166D01*
X0020971Y0050166D01*
X0018671Y0050468D01*
X0016357Y0050620D01*
X0016357Y0050620D01*
X0015197Y0050629D01*
X0005730Y0050629D01*
X0005501Y0050704D01*
X0005454Y0050744D01*
X0000902Y0055296D01*
X0000793Y0055510D01*
X0000788Y0055571D01*
X0000788Y0148625D01*
X0000862Y0148855D01*
X0001057Y0148996D01*
X0001178Y0149015D01*
X0009056Y0149015D01*
X0009544Y0149025D01*
X0010508Y0149186D01*
X0011432Y0149503D01*
X0012291Y0149968D01*
X0012291Y0149968D01*
X0013062Y0150568D01*
X0013724Y0151287D01*
X0014258Y0152105D01*
X0014651Y0153000D01*
X0014891Y0153947D01*
X0014971Y0154921D01*
X0014891Y0155894D01*
X0014651Y0156842D01*
X0014258Y0157736D01*
X0013724Y0158554D01*
X0013062Y0159273D01*
X0012291Y0159873D01*
X0012291Y0159873D01*
X0011432Y0160338D01*
X0010508Y0160655D01*
X0009544Y0160816D01*
X0009056Y0160826D01*
X0001178Y0160826D01*
X0000949Y0160901D01*
X0000807Y0161096D01*
X0000788Y0161216D01*
X0000788Y0408604D01*
X0000862Y0408833D01*
X0000895Y0408872D01*
X0005890Y0414148D01*
X0006101Y0414264D01*
X0006175Y0414270D01*
X0023237Y0414175D01*
G37*
G36*
X0622890Y0070757D02*
G01*
X0623106Y0070733D01*
X0623270Y0070675D01*
X0623416Y0070583D01*
X0623538Y0070460D01*
X0623636Y0070304D01*
X0623690Y0070162D01*
X0623715Y0070012D01*
X0623721Y0069947D01*
X0623721Y0050881D01*
X0623646Y0050652D01*
X0623452Y0050511D01*
X0623331Y0050492D01*
X0622934Y0050492D01*
X0622934Y0050492D01*
X0622934Y0050134D01*
X0622859Y0049905D01*
X0622664Y0049763D01*
X0622620Y0049752D01*
X0622425Y0049713D01*
X0620184Y0049113D01*
X0617988Y0048367D01*
X0615845Y0047480D01*
X0615845Y0047480D01*
X0613765Y0046454D01*
X0611757Y0045294D01*
X0611757Y0045294D01*
X0609828Y0044006D01*
X0609828Y0044006D01*
X0607988Y0042594D01*
X0607988Y0042594D01*
X0606245Y0041065D01*
X0606245Y0041065D01*
X0604605Y0039425D01*
X0604605Y0039425D01*
X0603075Y0037681D01*
X0603075Y0037681D01*
X0601664Y0035841D01*
X0601663Y0035841D01*
X0600375Y0033912D01*
X0600375Y0033912D01*
X0599215Y0031904D01*
X0598190Y0029824D01*
X0598190Y0029824D01*
X0597302Y0027681D01*
X0596556Y0025485D01*
X0595956Y0023245D01*
X0595861Y0022764D01*
X0595743Y0022553D01*
X0595524Y0022453D01*
X0595477Y0022450D01*
X0574057Y0022539D01*
X0573970Y0022549D01*
X0573758Y0022598D01*
X0573602Y0022674D01*
X0573468Y0022782D01*
X0573360Y0022918D01*
X0573284Y0023079D01*
X0573246Y0023237D01*
X0573244Y0023320D01*
X0573312Y0023551D01*
X0573504Y0023698D01*
X0573633Y0023720D01*
X0574084Y0023720D01*
X0574604Y0026758D01*
X0574610Y0026784D01*
X0575490Y0030402D01*
X0575496Y0030423D01*
X0576473Y0033647D01*
X0576482Y0033674D01*
X0577458Y0036211D01*
X0577465Y0036228D01*
X0578541Y0038674D01*
X0578547Y0038687D01*
X0579916Y0041524D01*
X0579928Y0041546D01*
X0581684Y0044668D01*
X0581704Y0044700D01*
X0583952Y0047925D01*
X0583962Y0047940D01*
X0586210Y0050871D01*
X0586233Y0050898D01*
X0588479Y0053340D01*
X0588490Y0053352D01*
X0591228Y0056089D01*
X0591254Y0056113D01*
X0594183Y0058554D01*
X0594205Y0058571D01*
X0596648Y0060330D01*
X0596660Y0060338D01*
X0599301Y0062099D01*
X0599322Y0062112D01*
X0601863Y0063578D01*
X0601878Y0063586D01*
X0604712Y0065052D01*
X0604739Y0065064D01*
X0607965Y0066433D01*
X0607981Y0066439D01*
X0611890Y0067906D01*
X0611930Y0067918D01*
X0615734Y0068893D01*
X0615763Y0068900D01*
X0619087Y0069486D01*
X0619103Y0069489D01*
X0622044Y0069881D01*
X0622052Y0069882D01*
X0622053Y0069882D01*
X0622053Y0070326D01*
X0622128Y0070555D01*
X0622323Y0070696D01*
X0622400Y0070713D01*
X0622803Y0070758D01*
X0622890Y0070757D01*
G37*
G36*
X0640170Y0414689D02*
G01*
X0640216Y0414649D01*
X0644802Y0410063D01*
X0644912Y0409848D01*
X0644917Y0409787D01*
X0644893Y0161216D01*
X0644818Y0160987D01*
X0644624Y0160845D01*
X0644503Y0160826D01*
X0636615Y0160826D01*
X0636126Y0160817D01*
X0635162Y0160656D01*
X0635162Y0160656D01*
X0634238Y0160339D01*
X0634238Y0160339D01*
X0633378Y0159874D01*
X0632607Y0159274D01*
X0632607Y0159274D01*
X0631945Y0158555D01*
X0631411Y0157737D01*
X0631018Y0156842D01*
X0631018Y0156842D01*
X0630778Y0155895D01*
X0630778Y0155895D01*
X0630698Y0154921D01*
X0630778Y0153947D01*
X0630778Y0153947D01*
X0631018Y0153000D01*
X0631018Y0153000D01*
X0631411Y0152105D01*
X0631945Y0151287D01*
X0632607Y0150568D01*
X0632607Y0150568D01*
X0633378Y0149968D01*
X0634238Y0149503D01*
X0634238Y0149503D01*
X0635162Y0149185D01*
X0636126Y0149025D01*
X0636615Y0149015D01*
X0644502Y0149015D01*
X0644731Y0148941D01*
X0644873Y0148746D01*
X0644892Y0148625D01*
X0644883Y0055572D01*
X0644808Y0055343D01*
X0644769Y0055296D01*
X0640216Y0050744D01*
X0640002Y0050634D01*
X0639941Y0050629D01*
X0630473Y0050629D01*
X0629313Y0050620D01*
X0627368Y0050492D01*
X0627343Y0050492D01*
X0622934Y0050492D01*
X0622934Y0050492D01*
X0622934Y0050134D01*
X0622859Y0049905D01*
X0622664Y0049763D01*
X0622620Y0049752D01*
X0622418Y0049712D01*
X0622418Y0049713D01*
X0622342Y0049704D01*
X0622092Y0049704D01*
X0622005Y0049714D01*
X0621793Y0049762D01*
X0621636Y0049838D01*
X0621502Y0049945D01*
X0621393Y0050081D01*
X0621309Y0050257D01*
X0621273Y0050382D01*
X0621263Y0050470D01*
X0621260Y0050514D01*
X0621265Y0069436D01*
X0621340Y0069665D01*
X0621535Y0069807D01*
X0621604Y0069822D01*
X0622044Y0069881D01*
X0622052Y0069882D01*
X0622053Y0069882D01*
X0622146Y0410137D01*
X0622146Y0414374D01*
X0622221Y0414603D01*
X0622415Y0414744D01*
X0622536Y0414763D01*
X0639941Y0414763D01*
X0640170Y0414689D01*
G37*
G36*
X0069847Y0024433D02*
G01*
X0069989Y0024238D01*
X0070004Y0024169D01*
X0070008Y0024138D01*
X0070010Y0024130D01*
X0070055Y0023720D01*
X0070055Y0023720D01*
X0574084Y0023720D01*
X0574163Y0024183D01*
X0574275Y0024397D01*
X0574491Y0024503D01*
X0574547Y0024507D01*
X0595787Y0024507D01*
X0596016Y0024433D01*
X0596157Y0024238D01*
X0596163Y0024017D01*
X0595956Y0023245D01*
X0595504Y0020970D01*
X0595504Y0020970D01*
X0595201Y0018670D01*
X0595049Y0016356D01*
X0595040Y0015196D01*
X0595040Y0005729D01*
X0594965Y0005500D01*
X0594926Y0005453D01*
X0590276Y0000804D01*
X0590062Y0000694D01*
X0590001Y0000690D01*
X0055573Y0000786D01*
X0055344Y0000860D01*
X0055297Y0000900D01*
X0050745Y0005453D01*
X0050635Y0005668D01*
X0050630Y0005729D01*
X0050630Y0015196D01*
X0050621Y0016356D01*
X0050621Y0016356D01*
X0050493Y0018304D01*
X0050493Y0018329D01*
X0050493Y0023248D01*
X0050493Y0023248D01*
X0050095Y0023248D01*
X0049866Y0023323D01*
X0049724Y0023518D01*
X0049705Y0023638D01*
X0049705Y0023676D01*
X0049715Y0023763D01*
X0049763Y0023975D01*
X0049839Y0024131D01*
X0049946Y0024266D01*
X0050082Y0024374D01*
X0050258Y0024459D01*
X0050383Y0024495D01*
X0050471Y0024505D01*
X0050514Y0024507D01*
X0069618Y0024507D01*
X0069847Y0024433D01*
G37*
X0287205Y0240034D02*
G01*
G75*
D99*
X0332284Y0264401D02*
D03*
X0332284Y0246684D02*
D03*
D100*
X0328957Y0288853D02*
D03*
X0301595Y0288853D02*
D03*
D101*
X0317717Y0265625D02*
D03*
X0301575Y0265625D02*
D03*
D102*
X0319488Y0247514D02*
D03*
X0303740Y0247514D02*
D03*
D103*
X0296549Y0309292D02*
D03*
X0305801Y0305552D02*
D03*
D103*
X0305801Y0313032D02*
D03*
D104*
X0328636Y0318971D02*
D03*
D104*
X0328636Y0315231D02*
D03*
X0328636Y0311491D02*
D03*
X0337100Y0311491D02*
D03*
X0337100Y0318971D02*
D03*
D105*
X0340952Y0304970D02*
D03*
X0327960Y0304970D02*
D03*
D106*
X0322666Y0305258D02*
D03*
X0311248Y0305258D02*
D03*
D107*
X0341851Y0272711D02*
D03*
X0335630Y0272711D02*
D03*
X0331260Y0272711D02*
D03*
X0325040Y0272711D02*
D03*
D108*
X0291174Y0249822D02*
D03*
X0291174Y0253956D02*
D03*
X0341729Y0291696D02*
D03*
X0341729Y0295830D02*
D03*
X0341729Y0286983D02*
D03*
X0341729Y0282849D02*
D03*
X0342621Y0267334D02*
D03*
X0342621Y0263200D02*
D03*
D109*
X0323518Y0311541D02*
D03*
X0323518Y0315478D02*
D03*
X0309843Y0312443D02*
D03*
X0318504Y0312443D02*
D03*
X0309843Y0318840D02*
D03*
X0318504Y0318840D02*
D03*
D110*
X0301470Y0318971D02*
D03*
X0305014Y0318971D02*
D03*
D111*
X0337471Y0295633D02*
D03*
X0337471Y0292089D02*
D03*
X0337471Y0286589D02*
D03*
X0337471Y0283046D02*
D03*
X0342621Y0255033D02*
D03*
X0342621Y0258577D02*
D03*
D112*
X0352953Y0258144D02*
D03*
X0352953Y0254207D02*
D03*
D113*
X0290158Y0311687D02*
D03*
X0290158Y0244758D02*
D03*
X0290158Y0292199D02*
D03*
X0351181Y0292002D02*
D03*
X0351181Y0317199D02*
D03*
X0351181Y0267593D02*
D03*
X0351181Y0284522D02*
D03*
X0351181Y0242987D02*
D03*
X0290158Y0318971D02*
D03*
X0346457Y0194759D02*
G01*
G75*
D104*
X0361162Y0204983D02*
D03*
X0361162Y0197503D02*
D03*
X0352697Y0197503D02*
D03*
X0352697Y0201243D02*
D03*
X0376811Y0204983D02*
D03*
X0376811Y0197503D02*
D03*
X0368347Y0197503D02*
D03*
X0368347Y0201243D02*
D03*
D104*
X0352697Y0204983D02*
D03*
X0368347Y0204983D02*
D03*
D112*
X0381890Y0204995D02*
D03*
X0381890Y0201255D02*
D03*
X0381890Y0197515D02*
D03*
X0347638Y0201452D02*
D03*
X0347638Y0204995D02*
D03*
X0287205Y0370349D02*
%LPD*%
G01*
D11*
X0345473Y0397514D03*
X0345473Y0392790D03*
X0345473Y0402239D03*
X0345473Y0406963D03*
X0288681Y0381530D03*
X0288681Y0377593D03*
G36*
G01*
X0304646Y0387967D02*
X0304646Y0389424D01*
G75*
G02*
X0305177Y0389955I0000531J0000000D01*
G01*
X0306240Y0389955D01*
G75*
G02*
X0306772Y0389424I0000000J-000531D01*
G01*
X0306772Y0387967D01*
G75*
G02*
X0306240Y0387436I-000531J0000000D01*
G01*
X0305177Y0387436D01*
G75*
G02*
X0304646Y0387967I0000000J0000531D01*
G01*
G37*
G36*
G01*
X0300630Y0387967D02*
X0300630Y0389424D01*
G75*
G02*
X0301162Y0389955I0000531J0000000D01*
G01*
X0302225Y0389955D01*
G75*
G02*
X0302756Y0389424I0000000J-000531D01*
G01*
X0302756Y0387967D01*
G75*
G02*
X0302225Y0387436I-000531J0000000D01*
G01*
X0301162Y0387436D01*
G75*
G02*
X0300630Y0387967I0000000J0000531D01*
G01*
G37*
G36*
G01*
X0327894Y0372278D02*
X0326437Y0372278D01*
G75*
G02*
X0325906Y0372810I0000000J0000531D01*
G01*
X0325906Y0373873D01*
G75*
G02*
X0326437Y0374404I0000531J0000000D01*
G01*
X0327894Y0374404D01*
G75*
G02*
X0328425Y0373873I0000000J-000531D01*
G01*
X0328425Y0372810D01*
G75*
G02*
X0327894Y0372278I-000531J0000000D01*
G01*
G37*
G36*
G01*
X0327894Y0376294D02*
X0326437Y0376294D01*
G75*
G02*
X0325906Y0376825I0000000J0000531D01*
G01*
X0325906Y0377888D01*
G75*
G02*
X0326437Y0378420I0000531J0000000D01*
G01*
X0327894Y0378420D01*
G75*
G02*
X0328425Y0377888I0000000J-000531D01*
G01*
X0328425Y0376825D01*
G75*
G02*
X0327894Y0376294I-000531J0000000D01*
G01*
G37*
G36*
G01*
X0316922Y0404621D02*
X0316922Y0405802D01*
G75*
G02*
X0317512Y0406392I0000591J0000000D01*
G01*
X0324008Y0406392D01*
G75*
G02*
X0324599Y0405802I0000000J-000591D01*
G01*
X0324599Y0404621D01*
G75*
G02*
X0324008Y0404030I-000591J0000000D01*
G01*
X0317512Y0404030D01*
G75*
G02*
X0316922Y0404621I0000000J0000591D01*
G01*
G37*
G36*
G01*
X0316922Y0399621D02*
X0316922Y0400802D01*
G75*
G02*
X0317512Y0401392I0000591J0000000D01*
G01*
X0324008Y0401392D01*
G75*
G02*
X0324599Y0400802I0000000J-000591D01*
G01*
X0324599Y0399621D01*
G75*
G02*
X0324008Y0399030I-000591J0000000D01*
G01*
X0317512Y0399030D01*
G75*
G02*
X0316922Y0399621I0000000J0000591D01*
G01*
G37*
G36*
G01*
X0316922Y0394621D02*
X0316922Y0395802D01*
G75*
G02*
X0317512Y0396392I0000591J0000000D01*
G01*
X0324008Y0396392D01*
G75*
G02*
X0324599Y0395802I0000000J-000591D01*
G01*
X0324599Y0394621D01*
G75*
G02*
X0324008Y0394030I-000591J0000000D01*
G01*
X0317512Y0394030D01*
G75*
G02*
X0316922Y0394621I0000000J0000591D01*
G01*
G37*
G36*
G01*
X0316922Y0389621D02*
X0316922Y0390802D01*
G75*
G02*
X0317512Y0391392I0000591J0000000D01*
G01*
X0324008Y0391392D01*
G75*
G02*
X0324599Y0390802I0000000J-000591D01*
G01*
X0324599Y0389621D01*
G75*
G02*
X0324008Y0389030I-000591J0000000D01*
G01*
X0317512Y0389030D01*
G75*
G02*
X0316922Y0389621I0000000J0000591D01*
G01*
G37*
G36*
G01*
X0336410Y0389621D02*
X0336410Y0390802D01*
G75*
G02*
X0337000Y0391392I0000591J0000000D01*
G01*
X0343496Y0391392D01*
G75*
G02*
X0344087Y0390802I0000000J-000591D01*
G01*
X0344087Y0389621D01*
G75*
G02*
X0343496Y0389030I-000591J0000000D01*
G01*
X0337000Y0389030D01*
G75*
G02*
X0336410Y0389621I0000000J0000591D01*
G01*
G37*
G36*
G01*
X0336410Y0394621D02*
X0336410Y0395802D01*
G75*
G02*
X0337000Y0396392I0000591J0000000D01*
G01*
X0343496Y0396392D01*
G75*
G02*
X0344087Y0395802I0000000J-000591D01*
G01*
X0344087Y0394621D01*
G75*
G02*
X0343496Y0394030I-000591J0000000D01*
G01*
X0337000Y0394030D01*
G75*
G02*
X0336410Y0394621I0000000J0000591D01*
G01*
G37*
G36*
G01*
X0336410Y0399621D02*
X0336410Y0400802D01*
G75*
G02*
X0337000Y0401392I0000591J0000000D01*
G01*
X0343496Y0401392D01*
G75*
G02*
X0344087Y0400802I0000000J-000591D01*
G01*
X0344087Y0399621D01*
G75*
G02*
X0343496Y0399030I-000591J0000000D01*
G01*
X0337000Y0399030D01*
G75*
G02*
X0336410Y0399621I0000000J0000591D01*
G01*
G37*
G36*
G01*
X0336410Y0404621D02*
X0336410Y0405802D01*
G75*
G02*
X0337000Y0406392I0000591J0000000D01*
G01*
X0343496Y0406392D01*
G75*
G02*
X0344087Y0405802I0000000J-000591D01*
G01*
X0344087Y0404621D01*
G75*
G02*
X0343496Y0404030I-000591J0000000D01*
G01*
X0337000Y0404030D01*
G75*
G02*
X0336410Y0404621I0000000J0000591D01*
G01*
G37*
D137*
X0302402Y0405349D03*
X0302402Y0402790D03*
X0302402Y0400231D03*
X0309882Y0400231D03*
X0309882Y0402790D03*
X0309882Y0405349D03*
G36*
G01*
X0318563Y0386261D02*
X0320020Y0386261D01*
G75*
G02*
X0320551Y0385729I0000000J-000531D01*
G01*
X0320551Y0384666D01*
G75*
G02*
X0320020Y0384135I-000531J0000000D01*
G01*
X0318563Y0384135D01*
G75*
G02*
X0318032Y0384666I0000000J0000531D01*
G01*
X0318032Y0385729D01*
G75*
G02*
X0318563Y0386261I0000531J0000000D01*
G01*
G37*
G36*
G01*
X0318563Y0382245D02*
X0320020Y0382245D01*
G75*
G02*
X0320551Y0381714I0000000J-000531D01*
G01*
X0320551Y0380651D01*
G75*
G02*
X0320020Y0380119I-000531J0000000D01*
G01*
X0318563Y0380119D01*
G75*
G02*
X0318032Y0380651I0000000J0000531D01*
G01*
X0318032Y0381714D01*
G75*
G02*
X0318563Y0382245I0000531J0000000D01*
G01*
G37*
G36*
G01*
X0323898Y0380198D02*
X0322559Y0380198D01*
G75*
G02*
X0322008Y0380749I0000000J0000551D01*
G01*
X0322008Y0381851D01*
G75*
G02*
X0322559Y0382403I0000551J0000000D01*
G01*
X0323898Y0382403D01*
G75*
G02*
X0324449Y0381851I0000000J-000551D01*
G01*
X0324449Y0380749D01*
G75*
G02*
X0323898Y0380198I-000551J0000000D01*
G01*
G37*
G36*
G01*
X0323898Y0383977D02*
X0322559Y0383977D01*
G75*
G02*
X0322008Y0384529I0000000J0000551D01*
G01*
X0322008Y0385631D01*
G75*
G02*
X0322559Y0386182I0000551J0000000D01*
G01*
X0323898Y0386182D01*
G75*
G02*
X0324449Y0385631I0000000J-000551D01*
G01*
X0324449Y0384529D01*
G75*
G02*
X0323898Y0383977I-000551J0000000D01*
G01*
G37*
G36*
G01*
X0320020Y0372278D02*
X0318563Y0372278D01*
G75*
G02*
X0318032Y0372810I0000000J0000531D01*
G01*
X0318032Y0373873D01*
G75*
G02*
X0318563Y0374404I0000531J0000000D01*
G01*
X0320020Y0374404D01*
G75*
G02*
X0320551Y0373873I0000000J-000531D01*
G01*
X0320551Y0372810D01*
G75*
G02*
X0320020Y0372278I-000531J0000000D01*
G01*
G37*
G36*
G01*
X0320020Y0376294D02*
X0318563Y0376294D01*
G75*
G02*
X0318032Y0376825I0000000J0000531D01*
G01*
X0318032Y0377888D01*
G75*
G02*
X0318563Y0378420I0000531J0000000D01*
G01*
X0320020Y0378420D01*
G75*
G02*
X0320551Y0377888I0000000J-000531D01*
G01*
X0320551Y0376825D01*
G75*
G02*
X0320020Y0376294I-000531J0000000D01*
G01*
G37*
G36*
G01*
X0331614Y0378341D02*
X0332953Y0378341D01*
G75*
G02*
X0333504Y0377790I0000000J-000551D01*
G01*
X0333504Y0376688D01*
G75*
G02*
X0332953Y0376136I-000551J0000000D01*
G01*
X0331614Y0376136D01*
G75*
G02*
X0331063Y0376688I0000000J0000551D01*
G01*
X0331063Y0377790D01*
G75*
G02*
X0331614Y0378341I0000551J0000000D01*
G01*
G37*
G36*
G01*
X0331614Y0374562D02*
X0332953Y0374562D01*
G75*
G02*
X0333504Y0374010I0000000J-000551D01*
G01*
X0333504Y0372908D01*
G75*
G02*
X0332953Y0372357I-000551J0000000D01*
G01*
X0331614Y0372357D01*
G75*
G02*
X0331063Y0372908I0000000J0000551D01*
G01*
X0331063Y0374010D01*
G75*
G02*
X0331614Y0374562I0000551J0000000D01*
G01*
G37*
G36*
G01*
X0308485Y0382199D02*
X0309823Y0382199D01*
G75*
G02*
X0310374Y0381648I0000000J-000551D01*
G01*
X0310374Y0380546D01*
G75*
G02*
X0309823Y0379995I-000551J0000000D01*
G01*
X0308485Y0379995D01*
G75*
G02*
X0307933Y0380546I0000000J0000551D01*
G01*
X0307933Y0381648D01*
G75*
G02*
X0308485Y0382199I0000551J0000000D01*
G01*
G37*
G36*
G01*
X0308485Y0378420D02*
X0309823Y0378420D01*
G75*
G02*
X0310374Y0377869I0000000J-000551D01*
G01*
X0310374Y0376766D01*
G75*
G02*
X0309823Y0376215I-000551J0000000D01*
G01*
X0308485Y0376215D01*
G75*
G02*
X0307933Y0376766I0000000J0000551D01*
G01*
X0307933Y0377869D01*
G75*
G02*
X0308485Y0378420I0000551J0000000D01*
G01*
G37*
G36*
G01*
X0314252Y0385447D02*
X0314252Y0383991D01*
G75*
G02*
X0313721Y0383459I-000531J0000000D01*
G01*
X0312658Y0383459D01*
G75*
G02*
X0312126Y0383991I0000000J0000531D01*
G01*
X0312126Y0385447D01*
G75*
G02*
X0312658Y0385979I0000531J0000000D01*
G01*
X0313721Y0385979D01*
G75*
G02*
X0314252Y0385447I0000000J-000531D01*
G01*
G37*
G36*
G01*
X0310236Y0385447D02*
X0310236Y0383991D01*
G75*
G02*
X0309705Y0383459I-000531J0000000D01*
G01*
X0308642Y0383459D01*
G75*
G02*
X0308111Y0383991I0000000J0000531D01*
G01*
X0308111Y0385447D01*
G75*
G02*
X0308642Y0385979I0000531J0000000D01*
G01*
X0309705Y0385979D01*
G75*
G02*
X0310236Y0385447I0000000J-000531D01*
G01*
G37*
G36*
G01*
X0345079Y0386176D02*
X0345079Y0384837D01*
G75*
G02*
X0344528Y0384286I-000551J0000000D01*
G01*
X0343425Y0384286D01*
G75*
G02*
X0342874Y0384837I0000000J0000551D01*
G01*
X0342874Y0386176D01*
G75*
G02*
X0343425Y0386727I0000551J0000000D01*
G01*
X0344528Y0386727D01*
G75*
G02*
X0345079Y0386176I0000000J-000551D01*
G01*
G37*
G36*
G01*
X0341299Y0386176D02*
X0341299Y0384837D01*
G75*
G02*
X0340748Y0384286I-000551J0000000D01*
G01*
X0339646Y0384286D01*
G75*
G02*
X0339095Y0384837I0000000J0000551D01*
G01*
X0339095Y0386176D01*
G75*
G02*
X0339646Y0386727I0000551J0000000D01*
G01*
X0340748Y0386727D01*
G75*
G02*
X0341299Y0386176I0000000J-000551D01*
G01*
G37*
G36*
G01*
X0296024Y0391939D02*
X0296024Y0393956D01*
G75*
G02*
X0296885Y0394818I0000861J0000000D01*
G01*
X0298608Y0394818D01*
G75*
G02*
X0299469Y0393956I0000000J-000861D01*
G01*
X0299469Y0391939D01*
G75*
G02*
X0298608Y0391077I-000861J0000000D01*
G01*
X0296885Y0391077D01*
G75*
G02*
X0296024Y0391939I0000000J0000861D01*
G01*
G37*
G36*
G01*
X0289823Y0391939D02*
X0289823Y0393956D01*
G75*
G02*
X0290684Y0394818I0000861J0000000D01*
G01*
X0292407Y0394818D01*
G75*
G02*
X0293268Y0393956I0000000J-000861D01*
G01*
X0293268Y0391939D01*
G75*
G02*
X0292407Y0391077I-000861J0000000D01*
G01*
X0290684Y0391077D01*
G75*
G02*
X0289823Y0391939I0000000J0000861D01*
G01*
G37*
G36*
G01*
X0314803Y0397160D02*
X0313465Y0397160D01*
G75*
G02*
X0312914Y0397711I0000000J0000551D01*
G01*
X0312914Y0398814D01*
G75*
G02*
X0313465Y0399365I0000551J0000000D01*
G01*
X0314803Y0399365D01*
G75*
G02*
X0315355Y0398814I0000000J-000551D01*
G01*
X0315355Y0397711D01*
G75*
G02*
X0314803Y0397160I-000551J0000000D01*
G01*
G37*
G36*
G01*
X0314803Y0400940D02*
X0313465Y0400940D01*
G75*
G02*
X0312914Y0401491I0000000J0000551D01*
G01*
X0312914Y0402593D01*
G75*
G02*
X0313465Y0403144I0000551J0000000D01*
G01*
X0314803Y0403144D01*
G75*
G02*
X0315355Y0402593I0000000J-000551D01*
G01*
X0315355Y0401491D01*
G75*
G02*
X0314803Y0400940I-000551J0000000D01*
G01*
G37*
G36*
G01*
X0297166Y0400014D02*
X0297166Y0398558D01*
G75*
G02*
X0296634Y0398026I-000531J0000000D01*
G01*
X0295571Y0398026D01*
G75*
G02*
X0295040Y0398558I0000000J0000531D01*
G01*
X0295040Y0400014D01*
G75*
G02*
X0295571Y0400546I0000531J0000000D01*
G01*
X0296634Y0400546D01*
G75*
G02*
X0297166Y0400014I0000000J-000531D01*
G01*
G37*
G36*
G01*
X0293150Y0400014D02*
X0293150Y0398558D01*
G75*
G02*
X0292618Y0398026I-000531J0000000D01*
G01*
X0291555Y0398026D01*
G75*
G02*
X0291024Y0398558I0000000J0000531D01*
G01*
X0291024Y0400014D01*
G75*
G02*
X0291555Y0400546I0000531J0000000D01*
G01*
X0292618Y0400546D01*
G75*
G02*
X0293150Y0400014I0000000J-000531D01*
G01*
G37*
G36*
G01*
X0308111Y0387928D02*
X0308111Y0389384D01*
G75*
G02*
X0308642Y0389916I0000531J0000000D01*
G01*
X0309705Y0389916D01*
G75*
G02*
X0310236Y0389384I0000000J-000531D01*
G01*
X0310236Y0387928D01*
G75*
G02*
X0309705Y0387396I-000531J0000000D01*
G01*
X0308642Y0387396D01*
G75*
G02*
X0308111Y0387928I0000000J0000531D01*
G01*
G37*
G36*
G01*
X0312126Y0387928D02*
X0312126Y0389384D01*
G75*
G02*
X0312658Y0389916I0000531J0000000D01*
G01*
X0313721Y0389916D01*
G75*
G02*
X0314252Y0389384I0000000J-000531D01*
G01*
X0314252Y0387928D01*
G75*
G02*
X0313721Y0387396I-000531J0000000D01*
G01*
X0312658Y0387396D01*
G75*
G02*
X0312126Y0387928I0000000J0000531D01*
G01*
G37*
G36*
G01*
X0313248Y0382137D02*
X0314705Y0382137D01*
G75*
G02*
X0315236Y0381606I0000000J-000531D01*
G01*
X0315236Y0380543D01*
G75*
G02*
X0314705Y0380011I-000531J0000000D01*
G01*
X0313248Y0380011D01*
G75*
G02*
X0312717Y0380543I0000000J0000531D01*
G01*
X0312717Y0381606D01*
G75*
G02*
X0313248Y0382137I0000531J0000000D01*
G01*
G37*
G36*
G01*
X0313248Y0378121D02*
X0314705Y0378121D01*
G75*
G02*
X0315236Y0377590I0000000J-000531D01*
G01*
X0315236Y0376527D01*
G75*
G02*
X0314705Y0375996I-000531J0000000D01*
G01*
X0313248Y0375996D01*
G75*
G02*
X0312717Y0376527I0000000J0000531D01*
G01*
X0312717Y0377590D01*
G75*
G02*
X0313248Y0378121I0000531J0000000D01*
G01*
G37*
G36*
G01*
X0295906Y0388735D02*
X0295906Y0387396D01*
G75*
G02*
X0295355Y0386845I-000551J0000000D01*
G01*
X0294252Y0386845D01*
G75*
G02*
X0293701Y0387396I0000000J0000551D01*
G01*
X0293701Y0388735D01*
G75*
G02*
X0294252Y0389286I0000551J0000000D01*
G01*
X0295355Y0389286D01*
G75*
G02*
X0295906Y0388735I0000000J-000551D01*
G01*
G37*
G36*
G01*
X0292126Y0388735D02*
X0292126Y0387396D01*
G75*
G02*
X0291575Y0386845I-000551J0000000D01*
G01*
X0290473Y0386845D01*
G75*
G02*
X0289922Y0387396I0000000J0000551D01*
G01*
X0289922Y0388735D01*
G75*
G02*
X0290473Y0389286I0000551J0000000D01*
G01*
X0291575Y0389286D01*
G75*
G02*
X0292126Y0388735I0000000J-000551D01*
G01*
G37*
G36*
G01*
X0332953Y0380198D02*
X0331614Y0380198D01*
G75*
G02*
X0331063Y0380749I0000000J0000551D01*
G01*
X0331063Y0381851D01*
G75*
G02*
X0331614Y0382403I0000551J0000000D01*
G01*
X0332953Y0382403D01*
G75*
G02*
X0333504Y0381851I0000000J-000551D01*
G01*
X0333504Y0380749D01*
G75*
G02*
X0332953Y0380198I-000551J0000000D01*
G01*
G37*
G36*
G01*
X0332953Y0383977D02*
X0331614Y0383977D01*
G75*
G02*
X0331063Y0384529I0000000J0000551D01*
G01*
X0331063Y0385631D01*
G75*
G02*
X0331614Y0386182I0000551J0000000D01*
G01*
X0332953Y0386182D01*
G75*
G02*
X0333504Y0385631I0000000J-000551D01*
G01*
X0333504Y0384529D01*
G75*
G02*
X0332953Y0383977I-000551J0000000D01*
G01*
G37*
G36*
G01*
X0307933Y0372672D02*
X0307933Y0374129D01*
G75*
G02*
X0308465Y0374660I0000531J0000000D01*
G01*
X0309528Y0374660D01*
G75*
G02*
X0310059Y0374129I0000000J-000531D01*
G01*
X0310059Y0372672D01*
G75*
G02*
X0309528Y0372140I-000531J0000000D01*
G01*
X0308465Y0372140D01*
G75*
G02*
X0307933Y0372672I0000000J0000531D01*
G01*
G37*
G36*
G01*
X0311949Y0372672D02*
X0311949Y0374129D01*
G75*
G02*
X0312481Y0374660I0000531J0000000D01*
G01*
X0313544Y0374660D01*
G75*
G02*
X0314075Y0374129I0000000J-000531D01*
G01*
X0314075Y0372672D01*
G75*
G02*
X0313544Y0372140I-000531J0000000D01*
G01*
X0312481Y0372140D01*
G75*
G02*
X0311949Y0372672I0000000J0000531D01*
G01*
G37*
D138*
X0337192Y0373892D03*
X0339751Y0373892D03*
X0342310Y0373892D03*
X0342310Y0381373D03*
X0339751Y0381373D03*
X0337192Y0381373D03*
G36*
G01*
X0291243Y0382678D02*
X0291243Y0383859D01*
G75*
G02*
X0291834Y0384450I0000591J0000000D01*
G01*
X0295869Y0384450D01*
G75*
G02*
X0296460Y0383859I0000000J-000591D01*
G01*
X0296460Y0382678D01*
G75*
G02*
X0295869Y0382088I-000591J0000000D01*
G01*
X0291834Y0382088D01*
G75*
G02*
X0291243Y0382678I0000000J0000591D01*
G01*
G37*
G36*
G01*
X0291243Y0378938D02*
X0291243Y0380119D01*
G75*
G02*
X0291834Y0380710I0000591J0000000D01*
G01*
X0295869Y0380710D01*
G75*
G02*
X0296460Y0380119I0000000J-000591D01*
G01*
X0296460Y0378938D01*
G75*
G02*
X0295869Y0378347I-000591J0000000D01*
G01*
X0291834Y0378347D01*
G75*
G02*
X0291243Y0378938I0000000J0000591D01*
G01*
G37*
G36*
G01*
X0291243Y0375198D02*
X0291243Y0376379D01*
G75*
G02*
X0291834Y0376969I0000591J0000000D01*
G01*
X0295869Y0376969D01*
G75*
G02*
X0296460Y0376379I0000000J-000591D01*
G01*
X0296460Y0375198D01*
G75*
G02*
X0295869Y0374607I-000591J0000000D01*
G01*
X0291834Y0374607D01*
G75*
G02*
X0291243Y0375198I0000000J0000591D01*
G01*
G37*
G36*
G01*
X0300200Y0375198D02*
X0300200Y0376379D01*
G75*
G02*
X0300790Y0376969I0000591J0000000D01*
G01*
X0304826Y0376969D01*
G75*
G02*
X0305416Y0376379I0000000J-000591D01*
G01*
X0305416Y0375198D01*
G75*
G02*
X0304826Y0374607I-000591J0000000D01*
G01*
X0300790Y0374607D01*
G75*
G02*
X0300200Y0375198I0000000J0000591D01*
G01*
G37*
G36*
G01*
X0300200Y0378938D02*
X0300200Y0380119D01*
G75*
G02*
X0300790Y0380710I0000591J0000000D01*
G01*
X0304826Y0380710D01*
G75*
G02*
X0305416Y0380119I0000000J-000591D01*
G01*
X0305416Y0378938D01*
G75*
G02*
X0304826Y0378347I-000591J0000000D01*
G01*
X0300790Y0378347D01*
G75*
G02*
X0300200Y0378938I0000000J0000591D01*
G01*
G37*
G36*
G01*
X0300200Y0382678D02*
X0300200Y0383859D01*
G75*
G02*
X0300790Y0384450I0000591J0000000D01*
G01*
X0304826Y0384450D01*
G75*
G02*
X0305416Y0383859I0000000J-000591D01*
G01*
X0305416Y0382678D01*
G75*
G02*
X0304826Y0382088I-000591J0000000D01*
G01*
X0300790Y0382088D01*
G75*
G02*
X0300200Y0382678I0000000J0000591D01*
G01*
G37*
G36*
G01*
X0302362Y0394562D02*
X0302362Y0395900D01*
G75*
G02*
X0302914Y0396451I0000551J0000000D01*
G01*
X0304016Y0396451D01*
G75*
G02*
X0304567Y0395900I0000000J-000551D01*
G01*
X0304567Y0394562D01*
G75*
G02*
X0304016Y0394010I-000551J0000000D01*
G01*
X0302914Y0394010D01*
G75*
G02*
X0302362Y0394562I0000000J0000551D01*
G01*
G37*
G36*
G01*
X0306142Y0394562D02*
X0306142Y0395900D01*
G75*
G02*
X0306693Y0396451I0000551J0000000D01*
G01*
X0307796Y0396451D01*
G75*
G02*
X0308347Y0395900I0000000J-000551D01*
G01*
X0308347Y0394562D01*
G75*
G02*
X0307796Y0394010I-000551J0000000D01*
G01*
X0306693Y0394010D01*
G75*
G02*
X0306142Y0394562I0000000J0000551D01*
G01*
G37*
G36*
G01*
X0323898Y0372357D02*
X0322559Y0372357D01*
G75*
G02*
X0322008Y0372908I0000000J0000551D01*
G01*
X0322008Y0374010D01*
G75*
G02*
X0322559Y0374562I0000551J0000000D01*
G01*
X0323898Y0374562D01*
G75*
G02*
X0324449Y0374010I0000000J-000551D01*
G01*
X0324449Y0372908D01*
G75*
G02*
X0323898Y0372357I-000551J0000000D01*
G01*
G37*
G36*
G01*
X0323898Y0376136D02*
X0322559Y0376136D01*
G75*
G02*
X0322008Y0376688I0000000J0000551D01*
G01*
X0322008Y0377790D01*
G75*
G02*
X0322559Y0378341I0000551J0000000D01*
G01*
X0323898Y0378341D01*
G75*
G02*
X0324449Y0377790I0000000J-000551D01*
G01*
X0324449Y0376688D01*
G75*
G02*
X0323898Y0376136I-000551J0000000D01*
G01*
G37*
G36*
G01*
X0327894Y0380119D02*
X0326437Y0380119D01*
G75*
G02*
X0325906Y0380651I0000000J0000531D01*
G01*
X0325906Y0381714D01*
G75*
G02*
X0326437Y0382245I0000531J0000000D01*
G01*
X0327894Y0382245D01*
G75*
G02*
X0328425Y0381714I0000000J-000531D01*
G01*
X0328425Y0380651D01*
G75*
G02*
X0327894Y0380119I-000531J0000000D01*
G01*
G37*
G36*
G01*
X0327894Y0384135D02*
X0326437Y0384135D01*
G75*
G02*
X0325906Y0384666I0000000J0000531D01*
G01*
X0325906Y0385729D01*
G75*
G02*
X0326437Y0386261I0000531J0000000D01*
G01*
X0327894Y0386261D01*
G75*
G02*
X0328425Y0385729I0000000J-000531D01*
G01*
X0328425Y0384666D01*
G75*
G02*
X0327894Y0384135I-000531J0000000D01*
G01*
G37*
X0287205Y0326845D02*
%LPD*%
G01*
D11*
X0345473Y0354010D03*
X0345473Y0349286D03*
X0345473Y0358735D03*
X0345473Y0363459D03*
X0288681Y0338026D03*
X0288681Y0334089D03*
D140*
X0321063Y0339837D03*
X0321063Y0337869D03*
X0321063Y0335900D03*
X0321063Y0333932D03*
X0321063Y0331963D03*
X0338386Y0331963D03*
X0338386Y0333932D03*
X0338386Y0335900D03*
X0338386Y0337869D03*
X0338386Y0339837D03*
G36*
G01*
X0328583Y0353026D02*
X0331654Y0353026D01*
G75*
G02*
X0331929Y0352751I0000000J-000276D01*
G01*
X0331929Y0350546D01*
G75*
G02*
X0331654Y0350270I-000276J0000000D01*
G01*
X0328583Y0350270D01*
G75*
G02*
X0328307Y0350546I0000000J0000276D01*
G01*
X0328307Y0352751D01*
G75*
G02*
X0328583Y0353026I0000276J0000000D01*
G01*
G37*
G36*
G01*
X0328583Y0346727D02*
X0331654Y0346727D01*
G75*
G02*
X0331929Y0346451I0000000J-000276D01*
G01*
X0331929Y0344247D01*
G75*
G02*
X0331654Y0343971I-000276J0000000D01*
G01*
X0328583Y0343971D01*
G75*
G02*
X0328307Y0344247I0000000J0000276D01*
G01*
X0328307Y0346451D01*
G75*
G02*
X0328583Y0346727I0000276J0000000D01*
G01*
G37*
G36*
G01*
X0342914Y0359680D02*
X0342914Y0356609D01*
G75*
G02*
X0342638Y0356333I-000276J0000000D01*
G01*
X0340433Y0356333D01*
G75*
G02*
X0340158Y0356609I0000000J0000276D01*
G01*
X0340158Y0359680D01*
G75*
G02*
X0340433Y0359955I0000276J0000000D01*
G01*
X0342638Y0359955D01*
G75*
G02*
X0342914Y0359680I0000000J-000276D01*
G01*
G37*
G36*
G01*
X0336614Y0359680D02*
X0336614Y0356609D01*
G75*
G02*
X0336339Y0356333I-000276J0000000D01*
G01*
X0334134Y0356333D01*
G75*
G02*
X0333859Y0356609I0000000J0000276D01*
G01*
X0333859Y0359680D01*
G75*
G02*
X0334134Y0359955I0000276J0000000D01*
G01*
X0336339Y0359955D01*
G75*
G02*
X0336614Y0359680I0000000J-000276D01*
G01*
G37*
G36*
G01*
X0322677Y0353026D02*
X0325748Y0353026D01*
G75*
G02*
X0326024Y0352751I0000000J-000276D01*
G01*
X0326024Y0350546D01*
G75*
G02*
X0325748Y0350270I-000276J0000000D01*
G01*
X0322677Y0350270D01*
G75*
G02*
X0322402Y0350546I0000000J0000276D01*
G01*
X0322402Y0352751D01*
G75*
G02*
X0322677Y0353026I0000276J0000000D01*
G01*
G37*
G36*
G01*
X0322677Y0346727D02*
X0325748Y0346727D01*
G75*
G02*
X0326024Y0346451I0000000J-000276D01*
G01*
X0326024Y0344247D01*
G75*
G02*
X0325748Y0343971I-000276J0000000D01*
G01*
X0322677Y0343971D01*
G75*
G02*
X0322402Y0344247I0000000J0000276D01*
G01*
X0322402Y0346451D01*
G75*
G02*
X0322677Y0346727I0000276J0000000D01*
G01*
G37*
G36*
G01*
X0312028Y0356766D02*
X0314744Y0356766D01*
G75*
G02*
X0315650Y0355861I0000000J-000906D01*
G01*
X0315650Y0350585D01*
G75*
G02*
X0314744Y0349680I-000906J0000000D01*
G01*
X0312028Y0349680D01*
G75*
G02*
X0311122Y0350585I0000000J0000906D01*
G01*
X0311122Y0355861D01*
G75*
G02*
X0312028Y0356766I0000906J0000000D01*
G01*
G37*
G36*
G01*
X0300610Y0356766D02*
X0303327Y0356766D01*
G75*
G02*
X0304233Y0355861I0000000J-000906D01*
G01*
X0304233Y0350585D01*
G75*
G02*
X0303327Y0349680I-000906J0000000D01*
G01*
X0300610Y0349680D01*
G75*
G02*
X0299705Y0350585I0000000J0000906D01*
G01*
X0299705Y0355861D01*
G75*
G02*
X0300610Y0356766I0000906J0000000D01*
G01*
G37*
G36*
G01*
X0312028Y0346924D02*
X0314744Y0346924D01*
G75*
G02*
X0315650Y0346018I0000000J-000906D01*
G01*
X0315650Y0340743D01*
G75*
G02*
X0314744Y0339837I-000906J0000000D01*
G01*
X0312028Y0339837D01*
G75*
G02*
X0311122Y0340743I0000000J0000906D01*
G01*
X0311122Y0346018D01*
G75*
G02*
X0312028Y0346924I0000906J0000000D01*
G01*
G37*
G36*
G01*
X0300610Y0346924D02*
X0303327Y0346924D01*
G75*
G02*
X0304233Y0346018I0000000J-000906D01*
G01*
X0304233Y0340743D01*
G75*
G02*
X0303327Y0339837I-000906J0000000D01*
G01*
X0300610Y0339837D01*
G75*
G02*
X0299705Y0340743I0000000J0000906D01*
G01*
X0299705Y0346018D01*
G75*
G02*
X0300610Y0346924I0000906J0000000D01*
G01*
G37*
G36*
G01*
X0289961Y0353243D02*
X0289961Y0355959D01*
G75*
G02*
X0290866Y0356865I0000906J0000000D01*
G01*
X0296142Y0356865D01*
G75*
G02*
X0297048Y0355959I0000000J-000906D01*
G01*
X0297048Y0353243D01*
G75*
G02*
X0296142Y0352337I-000906J0000000D01*
G01*
X0290866Y0352337D01*
G75*
G02*
X0289961Y0353243I0000000J0000906D01*
G01*
G37*
G36*
G01*
X0289961Y0341825D02*
X0289961Y0344542D01*
G75*
G02*
X0290866Y0345447I0000906J0000000D01*
G01*
X0296142Y0345447D01*
G75*
G02*
X0297048Y0344542I0000000J-000906D01*
G01*
X0297048Y0341825D01*
G75*
G02*
X0296142Y0340920I-000906J0000000D01*
G01*
X0290866Y0340920D01*
G75*
G02*
X0289961Y0341825I0000000J0000906D01*
G01*
G37*
G36*
G01*
X0305335Y0337475D02*
X0308051Y0337475D01*
G75*
G02*
X0308957Y0336569I0000000J-000906D01*
G01*
X0308957Y0331294D01*
G75*
G02*
X0308051Y0330388I-000906J0000000D01*
G01*
X0305335Y0330388D01*
G75*
G02*
X0304429Y0331294I0000000J0000906D01*
G01*
X0304429Y0336569D01*
G75*
G02*
X0305335Y0337475I0000906J0000000D01*
G01*
G37*
G36*
G01*
X0293918Y0337475D02*
X0296634Y0337475D01*
G75*
G02*
X0297540Y0336569I0000000J-000906D01*
G01*
X0297540Y0331294D01*
G75*
G02*
X0296634Y0330388I-000906J0000000D01*
G01*
X0293918Y0330388D01*
G75*
G02*
X0293012Y0331294I0000000J0000906D01*
G01*
X0293012Y0336569D01*
G75*
G02*
X0293918Y0337475I0000906J0000000D01*
G01*
G37*
G36*
G01*
X0331004Y0359350D02*
X0331004Y0357332D01*
G75*
G02*
X0330143Y0356471I-000861J0000000D01*
G01*
X0328421Y0356471D01*
G75*
G02*
X0327559Y0357332I0000000J0000861D01*
G01*
X0327559Y0359350D01*
G75*
G02*
X0328421Y0360211I0000861J0000000D01*
G01*
X0330143Y0360211D01*
G75*
G02*
X0331004Y0359350I0000000J-000861D01*
G01*
G37*
G36*
G01*
X0324803Y0359350D02*
X0324803Y0357332D01*
G75*
G02*
X0323942Y0356471I-000861J0000000D01*
G01*
X0322220Y0356471D01*
G75*
G02*
X0321359Y0357332I0000000J0000861D01*
G01*
X0321359Y0359350D01*
G75*
G02*
X0322220Y0360211I0000861J0000000D01*
G01*
X0323942Y0360211D01*
G75*
G02*
X0324803Y0359350I0000000J-000861D01*
G01*
G37*
G36*
G01*
X0336949Y0352388D02*
X0336949Y0349711D01*
G75*
G02*
X0336614Y0349376I-000335J0000000D01*
G01*
X0333937Y0349376D01*
G75*
G02*
X0333603Y0349711I0000000J0000335D01*
G01*
X0333603Y0352388D01*
G75*
G02*
X0333937Y0352723I0000335J0000000D01*
G01*
X0336614Y0352723D01*
G75*
G02*
X0336949Y0352388I0000000J-000335D01*
G01*
G37*
G36*
G01*
X0343170Y0352388D02*
X0343170Y0349711D01*
G75*
G02*
X0342835Y0349376I-000335J0000000D01*
G01*
X0340158Y0349376D01*
G75*
G02*
X0339823Y0349711I0000000J0000335D01*
G01*
X0339823Y0352388D01*
G75*
G02*
X0340158Y0352723I0000335J0000000D01*
G01*
X0342835Y0352723D01*
G75*
G02*
X0343170Y0352388I0000000J-000335D01*
G01*
G37*
G36*
G01*
X0343170Y0347081D02*
X0343170Y0344404D01*
G75*
G02*
X0342835Y0344069I-000335J0000000D01*
G01*
X0340158Y0344069D01*
G75*
G02*
X0339823Y0344404I0000000J0000335D01*
G01*
X0339823Y0347081D01*
G75*
G02*
X0340158Y0347416I0000335J0000000D01*
G01*
X0342835Y0347416D01*
G75*
G02*
X0343170Y0347081I0000000J-000335D01*
G01*
G37*
G36*
G01*
X0336949Y0347081D02*
X0336949Y0344404D01*
G75*
G02*
X0336614Y0344069I-000335J0000000D01*
G01*
X0333937Y0344069D01*
G75*
G02*
X0333603Y0344404I0000000J0000335D01*
G01*
X0333603Y0347081D01*
G75*
G02*
X0333937Y0347416I0000335J0000000D01*
G01*
X0336614Y0347416D01*
G75*
G02*
X0336949Y0347081I0000000J-000335D01*
G01*
G37*
G36*
G01*
X0317756Y0353282D02*
X0320433Y0353282D01*
G75*
G02*
X0320768Y0352947I0000000J-000335D01*
G01*
X0320768Y0350270D01*
G75*
G02*
X0320433Y0349936I-000335J0000000D01*
G01*
X0317756Y0349936D01*
G75*
G02*
X0317422Y0350270I0000000J0000335D01*
G01*
X0317422Y0352947D01*
G75*
G02*
X0317756Y0353282I0000335J0000000D01*
G01*
G37*
G36*
G01*
X0317756Y0347062D02*
X0320433Y0347062D01*
G75*
G02*
X0320768Y0346727I0000000J-000335D01*
G01*
X0320768Y0344050D01*
G75*
G02*
X0320433Y0343715I-000335J0000000D01*
G01*
X0317756Y0343715D01*
G75*
G02*
X0317422Y0344050I0000000J0000335D01*
G01*
X0317422Y0346727D01*
G75*
G02*
X0317756Y0347062I0000335J0000000D01*
G01*
G37*
X0287205Y0168381D02*
%LPD*%
G01*
D147*
X0296693Y0197161D03*
X0296693Y0193224D03*
X0296693Y0189287D03*
X0296693Y0185350D03*
X0296693Y0181412D03*
X0296693Y0177475D03*
X0334488Y0177475D03*
X0334488Y0181412D03*
X0334488Y0185350D03*
X0334488Y0189287D03*
X0334488Y0193224D03*
X0334488Y0197161D03*
D148*
X0315591Y0187318D03*
X0148425Y0206767D02*
%LPD*%
G01*
G36*
G01*
X0216033Y0242476D02*
X0214675Y0242476D01*
G75*
G02*
X0214094Y0243056I0000000J0000581D01*
G01*
X0214094Y0244218D01*
G75*
G02*
X0214675Y0244798I0000581J0000000D01*
G01*
X0216033Y0244798D01*
G75*
G02*
X0216614Y0244218I0000000J-000581D01*
G01*
X0216614Y0243056D01*
G75*
G02*
X0216033Y0242476I-000581J0000000D01*
G01*
G37*
G36*
G01*
X0216033Y0246295D02*
X0214675Y0246295D01*
G75*
G02*
X0214094Y0246875I0000000J0000581D01*
G01*
X0214094Y0248037D01*
G75*
G02*
X0214675Y0248617I0000581J0000000D01*
G01*
X0216033Y0248617D01*
G75*
G02*
X0216614Y0248037I0000000J-000581D01*
G01*
X0216614Y0246875D01*
G75*
G02*
X0216033Y0246295I-000581J0000000D01*
G01*
G37*
G36*
G01*
X0157460Y0227052D02*
X0157460Y0228411D01*
G75*
G02*
X0158041Y0228991I0000581J0000000D01*
G01*
X0159203Y0228991D01*
G75*
G02*
X0159783Y0228411I0000000J-000581D01*
G01*
X0159783Y0227052D01*
G75*
G02*
X0159203Y0226472I-000581J0000000D01*
G01*
X0158041Y0226472D01*
G75*
G02*
X0157460Y0227052I0000000J0000581D01*
G01*
G37*
G36*
G01*
X0161279Y0227052D02*
X0161279Y0228411D01*
G75*
G02*
X0161860Y0228991I0000581J0000000D01*
G01*
X0163021Y0228991D01*
G75*
G02*
X0163602Y0228411I0000000J-000581D01*
G01*
X0163602Y0227052D01*
G75*
G02*
X0163021Y0226472I-000581J0000000D01*
G01*
X0161860Y0226472D01*
G75*
G02*
X0161279Y0227052I0000000J0000581D01*
G01*
G37*
G36*
G01*
X0167987Y0242249D02*
X0170005Y0242249D01*
G75*
G02*
X0170866Y0241388I0000000J-000861D01*
G01*
X0170866Y0239666D01*
G75*
G02*
X0170005Y0238804I-000861J0000000D01*
G01*
X0167987Y0238804D01*
G75*
G02*
X0167126Y0239666I0000000J0000861D01*
G01*
X0167126Y0241388D01*
G75*
G02*
X0167987Y0242249I0000861J0000000D01*
G01*
G37*
G36*
G01*
X0167987Y0236048D02*
X0170005Y0236048D01*
G75*
G02*
X0170866Y0235187I0000000J-000861D01*
G01*
X0170866Y0233465D01*
G75*
G02*
X0170005Y0232604I-000861J0000000D01*
G01*
X0167987Y0232604D01*
G75*
G02*
X0167126Y0233465I0000000J0000861D01*
G01*
X0167126Y0235187D01*
G75*
G02*
X0167987Y0236048I0000861J0000000D01*
G01*
G37*
G36*
G01*
X0214478Y0217220D02*
X0215836Y0217220D01*
G75*
G02*
X0216417Y0216639I0000000J-000581D01*
G01*
X0216417Y0215478D01*
G75*
G02*
X0215836Y0214897I-000581J0000000D01*
G01*
X0214478Y0214897D01*
G75*
G02*
X0213897Y0215478I0000000J0000581D01*
G01*
X0213897Y0216639D01*
G75*
G02*
X0214478Y0217220I0000581J0000000D01*
G01*
G37*
G36*
G01*
X0214478Y0213401D02*
X0215836Y0213401D01*
G75*
G02*
X0216417Y0212820I0000000J-000581D01*
G01*
X0216417Y0211659D01*
G75*
G02*
X0215836Y0211078I-000581J0000000D01*
G01*
X0214478Y0211078D01*
G75*
G02*
X0213897Y0211659I0000000J0000581D01*
G01*
X0213897Y0212820D01*
G75*
G02*
X0214478Y0213401I0000581J0000000D01*
G01*
G37*
D150*
X0163287Y0233047D03*
X0163287Y0240527D03*
X0155413Y0236787D03*
G36*
G01*
X0210295Y0217220D02*
X0211653Y0217220D01*
G75*
G02*
X0212234Y0216639I0000000J-000581D01*
G01*
X0212234Y0215478D01*
G75*
G02*
X0211653Y0214897I-000581J0000000D01*
G01*
X0210295Y0214897D01*
G75*
G02*
X0209714Y0215478I0000000J0000581D01*
G01*
X0209714Y0216639D01*
G75*
G02*
X0210295Y0217220I0000581J0000000D01*
G01*
G37*
G36*
G01*
X0210295Y0213401D02*
X0211653Y0213401D01*
G75*
G02*
X0212234Y0212820I0000000J-000581D01*
G01*
X0212234Y0211659D01*
G75*
G02*
X0211653Y0211078I-000581J0000000D01*
G01*
X0210295Y0211078D01*
G75*
G02*
X0209714Y0211659I0000000J0000581D01*
G01*
X0209714Y0212820D01*
G75*
G02*
X0210295Y0213401I0000581J0000000D01*
G01*
G37*
G36*
G01*
X0214675Y0241137D02*
X0216033Y0241137D01*
G75*
G02*
X0216614Y0240556I0000000J-000581D01*
G01*
X0216614Y0239395D01*
G75*
G02*
X0216033Y0238814I-000581J0000000D01*
G01*
X0214675Y0238814D01*
G75*
G02*
X0214094Y0239395I0000000J0000581D01*
G01*
X0214094Y0240556D01*
G75*
G02*
X0214675Y0241137I0000581J0000000D01*
G01*
G37*
G36*
G01*
X0214675Y0237318D02*
X0216033Y0237318D01*
G75*
G02*
X0216614Y0236737I0000000J-000581D01*
G01*
X0216614Y0235576D01*
G75*
G02*
X0216033Y0234995I-000581J0000000D01*
G01*
X0214675Y0234995D01*
G75*
G02*
X0214094Y0235576I0000000J0000581D01*
G01*
X0214094Y0236737D01*
G75*
G02*
X0214675Y0237318I0000581J0000000D01*
G01*
G37*
G36*
G01*
X0210915Y0253401D02*
X0209557Y0253401D01*
G75*
G02*
X0208976Y0253982I0000000J0000581D01*
G01*
X0208976Y0255143D01*
G75*
G02*
X0209557Y0255724I0000581J0000000D01*
G01*
X0210915Y0255724D01*
G75*
G02*
X0211496Y0255143I0000000J-000581D01*
G01*
X0211496Y0253982D01*
G75*
G02*
X0210915Y0253401I-000581J0000000D01*
G01*
G37*
G36*
G01*
X0210915Y0257220D02*
X0209557Y0257220D01*
G75*
G02*
X0208976Y0257800I0000000J0000581D01*
G01*
X0208976Y0258962D01*
G75*
G02*
X0209557Y0259543I0000581J0000000D01*
G01*
X0210915Y0259543D01*
G75*
G02*
X0211496Y0258962I0000000J-000581D01*
G01*
X0211496Y0257800D01*
G75*
G02*
X0210915Y0257220I-000581J0000000D01*
G01*
G37*
G36*
G01*
X0216033Y0226629D02*
X0214675Y0226629D01*
G75*
G02*
X0214094Y0227210I0000000J0000581D01*
G01*
X0214094Y0228371D01*
G75*
G02*
X0214675Y0228952I0000581J0000000D01*
G01*
X0216033Y0228952D01*
G75*
G02*
X0216614Y0228371I0000000J-000581D01*
G01*
X0216614Y0227210D01*
G75*
G02*
X0216033Y0226629I-000581J0000000D01*
G01*
G37*
G36*
G01*
X0216033Y0230448D02*
X0214675Y0230448D01*
G75*
G02*
X0214094Y0231029I0000000J0000581D01*
G01*
X0214094Y0232190D01*
G75*
G02*
X0214675Y0232771I0000581J0000000D01*
G01*
X0216033Y0232771D01*
G75*
G02*
X0216614Y0232190I0000000J-000581D01*
G01*
X0216614Y0231029D01*
G75*
G02*
X0216033Y0230448I-000581J0000000D01*
G01*
G37*
G36*
G01*
X0176269Y0253401D02*
X0174911Y0253401D01*
G75*
G02*
X0174331Y0253982I0000000J0000581D01*
G01*
X0174331Y0255143D01*
G75*
G02*
X0174911Y0255724I0000581J0000000D01*
G01*
X0176269Y0255724D01*
G75*
G02*
X0176850Y0255143I0000000J-000581D01*
G01*
X0176850Y0253982D01*
G75*
G02*
X0176269Y0253401I-000581J0000000D01*
G01*
G37*
G36*
G01*
X0176269Y0257220D02*
X0174911Y0257220D01*
G75*
G02*
X0174331Y0257800I0000000J0000581D01*
G01*
X0174331Y0258962D01*
G75*
G02*
X0174911Y0259543I0000581J0000000D01*
G01*
X0176269Y0259543D01*
G75*
G02*
X0176850Y0258962I0000000J-000581D01*
G01*
X0176850Y0257800D01*
G75*
G02*
X0176269Y0257220I-000581J0000000D01*
G01*
G37*
D151*
X0240708Y0246728D03*
D152*
X0239606Y0218381D03*
X0231732Y0230192D03*
X0223858Y0218381D03*
D153*
X0231732Y0221924D03*
D151*
X0222756Y0246728D03*
G36*
G01*
X0165236Y0226954D02*
X0165236Y0228312D01*
G75*
G02*
X0165817Y0228893I0000581J0000000D01*
G01*
X0166978Y0228893D01*
G75*
G02*
X0167559Y0228312I0000000J-000581D01*
G01*
X0167559Y0226954D01*
G75*
G02*
X0166978Y0226373I-000581J0000000D01*
G01*
X0165817Y0226373D01*
G75*
G02*
X0165236Y0226954I0000000J0000581D01*
G01*
G37*
G36*
G01*
X0169055Y0226954D02*
X0169055Y0228312D01*
G75*
G02*
X0169636Y0228893I0000581J0000000D01*
G01*
X0170797Y0228893D01*
G75*
G02*
X0171378Y0228312I0000000J-000581D01*
G01*
X0171378Y0226954D01*
G75*
G02*
X0170797Y0226373I-000581J0000000D01*
G01*
X0169636Y0226373D01*
G75*
G02*
X0169055Y0226954I0000000J0000581D01*
G01*
G37*
G36*
G01*
X0203740Y0213288D02*
X0203740Y0211270D01*
G75*
G02*
X0202879Y0210409I-000861J0000000D01*
G01*
X0201156Y0210409D01*
G75*
G02*
X0200295Y0211270I0000000J0000861D01*
G01*
X0200295Y0213288D01*
G75*
G02*
X0201156Y0214149I0000861J0000000D01*
G01*
X0202879Y0214149D01*
G75*
G02*
X0203740Y0213288I0000000J-000861D01*
G01*
G37*
G36*
G01*
X0197539Y0213288D02*
X0197539Y0211270D01*
G75*
G02*
X0196678Y0210409I-000861J0000000D01*
G01*
X0194956Y0210409D01*
G75*
G02*
X0194094Y0211270I0000000J0000861D01*
G01*
X0194094Y0213288D01*
G75*
G02*
X0194956Y0214149I0000861J0000000D01*
G01*
X0196678Y0214149D01*
G75*
G02*
X0197539Y0213288I0000000J-000861D01*
G01*
G37*
G36*
G01*
X0206112Y0217220D02*
X0207470Y0217220D01*
G75*
G02*
X0208051Y0216639I0000000J-000581D01*
G01*
X0208051Y0215478D01*
G75*
G02*
X0207470Y0214897I-000581J0000000D01*
G01*
X0206112Y0214897D01*
G75*
G02*
X0205531Y0215478I0000000J0000581D01*
G01*
X0205531Y0216639D01*
G75*
G02*
X0206112Y0217220I0000581J0000000D01*
G01*
G37*
G36*
G01*
X0206112Y0213401D02*
X0207470Y0213401D01*
G75*
G02*
X0208051Y0212820I0000000J-000581D01*
G01*
X0208051Y0211659D01*
G75*
G02*
X0207470Y0211078I-000581J0000000D01*
G01*
X0206112Y0211078D01*
G75*
G02*
X0205531Y0211659I0000000J0000581D01*
G01*
X0205531Y0212820D01*
G75*
G02*
X0206112Y0213401I0000581J0000000D01*
G01*
G37*
G36*
G01*
X0250221Y0212673D02*
X0248204Y0212673D01*
G75*
G02*
X0247342Y0213534I0000000J0000861D01*
G01*
X0247342Y0215256D01*
G75*
G02*
X0248204Y0216117I0000861J0000000D01*
G01*
X0250221Y0216117D01*
G75*
G02*
X0251082Y0215256I0000000J-000861D01*
G01*
X0251082Y0213534D01*
G75*
G02*
X0250221Y0212673I-000861J0000000D01*
G01*
G37*
G36*
G01*
X0250221Y0218873D02*
X0248204Y0218873D01*
G75*
G02*
X0247342Y0219735I0000000J0000861D01*
G01*
X0247342Y0221457D01*
G75*
G02*
X0248204Y0222318I0000861J0000000D01*
G01*
X0250221Y0222318D01*
G75*
G02*
X0251082Y0221457I0000000J-000861D01*
G01*
X0251082Y0219735D01*
G75*
G02*
X0250221Y0218873I-000861J0000000D01*
G01*
G37*
G36*
G01*
X0182382Y0211270D02*
X0182382Y0213288D01*
G75*
G02*
X0183243Y0214149I0000861J0000000D01*
G01*
X0184965Y0214149D01*
G75*
G02*
X0185827Y0213288I0000000J-000861D01*
G01*
X0185827Y0211270D01*
G75*
G02*
X0184965Y0210409I-000861J0000000D01*
G01*
X0183243Y0210409D01*
G75*
G02*
X0182382Y0211270I0000000J0000861D01*
G01*
G37*
G36*
G01*
X0188582Y0211270D02*
X0188582Y0213288D01*
G75*
G02*
X0189444Y0214149I0000861J0000000D01*
G01*
X0191166Y0214149D01*
G75*
G02*
X0192027Y0213288I0000000J-000861D01*
G01*
X0192027Y0211270D01*
G75*
G02*
X0191166Y0210409I-000861J0000000D01*
G01*
X0189444Y0210409D01*
G75*
G02*
X0188582Y0211270I0000000J0000861D01*
G01*
G37*
G36*
G01*
X0178061Y0215448D02*
X0179419Y0215448D01*
G75*
G02*
X0180000Y0214867I0000000J-000581D01*
G01*
X0180000Y0213706D01*
G75*
G02*
X0179419Y0213125I-000581J0000000D01*
G01*
X0178061Y0213125D01*
G75*
G02*
X0177480Y0213706I0000000J0000581D01*
G01*
X0177480Y0214867D01*
G75*
G02*
X0178061Y0215448I0000581J0000000D01*
G01*
G37*
G36*
G01*
X0178061Y0211629D02*
X0179419Y0211629D01*
G75*
G02*
X0180000Y0211048I0000000J-000581D01*
G01*
X0180000Y0209887D01*
G75*
G02*
X0179419Y0209306I-000581J0000000D01*
G01*
X0178061Y0209306D01*
G75*
G02*
X0177480Y0209887I0000000J0000581D01*
G01*
X0177480Y0211048D01*
G75*
G02*
X0178061Y0211629I0000581J0000000D01*
G01*
G37*
G36*
G01*
X0212500Y0228125D02*
X0212500Y0227141D01*
G75*
G02*
X0212008Y0226649I-000492J0000000D01*
G01*
X0207086Y0226649D01*
G75*
G02*
X0206594Y0227141I0000000J0000492D01*
G01*
X0206594Y0228125D01*
G75*
G02*
X0207086Y0228617I0000492J0000000D01*
G01*
X0212008Y0228617D01*
G75*
G02*
X0212500Y0228125I0000000J-000492D01*
G01*
G37*
G36*
G01*
X0212500Y0231275D02*
X0212500Y0230291D01*
G75*
G02*
X0212008Y0229798I-000492J0000000D01*
G01*
X0207086Y0229798D01*
G75*
G02*
X0206594Y0230291I0000000J0000492D01*
G01*
X0206594Y0231275D01*
G75*
G02*
X0207086Y0231767I0000492J0000000D01*
G01*
X0212008Y0231767D01*
G75*
G02*
X0212500Y0231275I0000000J-000492D01*
G01*
G37*
G36*
G01*
X0212500Y0234424D02*
X0212500Y0233440D01*
G75*
G02*
X0212008Y0232948I-000492J0000000D01*
G01*
X0207086Y0232948D01*
G75*
G02*
X0206594Y0233440I0000000J0000492D01*
G01*
X0206594Y0234424D01*
G75*
G02*
X0207086Y0234917I0000492J0000000D01*
G01*
X0212008Y0234917D01*
G75*
G02*
X0212500Y0234424I0000000J-000492D01*
G01*
G37*
G36*
G01*
X0212500Y0237574D02*
X0212500Y0236590D01*
G75*
G02*
X0212008Y0236098I-000492J0000000D01*
G01*
X0207086Y0236098D01*
G75*
G02*
X0206594Y0236590I0000000J0000492D01*
G01*
X0206594Y0237574D01*
G75*
G02*
X0207086Y0238066I0000492J0000000D01*
G01*
X0212008Y0238066D01*
G75*
G02*
X0212500Y0237574I0000000J-000492D01*
G01*
G37*
G36*
G01*
X0212500Y0240724D02*
X0212500Y0239739D01*
G75*
G02*
X0212008Y0239247I-000492J0000000D01*
G01*
X0207086Y0239247D01*
G75*
G02*
X0206594Y0239739I0000000J0000492D01*
G01*
X0206594Y0240724D01*
G75*
G02*
X0207086Y0241216I0000492J0000000D01*
G01*
X0212008Y0241216D01*
G75*
G02*
X0212500Y0240724I0000000J-000492D01*
G01*
G37*
G36*
G01*
X0212500Y0243873D02*
X0212500Y0242889D01*
G75*
G02*
X0212008Y0242397I-000492J0000000D01*
G01*
X0207086Y0242397D01*
G75*
G02*
X0206594Y0242889I0000000J0000492D01*
G01*
X0206594Y0243873D01*
G75*
G02*
X0207086Y0244365I0000492J0000000D01*
G01*
X0212008Y0244365D01*
G75*
G02*
X0212500Y0243873I0000000J-000492D01*
G01*
G37*
G36*
G01*
X0212500Y0247023D02*
X0212500Y0246039D01*
G75*
G02*
X0212008Y0245547I-000492J0000000D01*
G01*
X0207086Y0245547D01*
G75*
G02*
X0206594Y0246039I0000000J0000492D01*
G01*
X0206594Y0247023D01*
G75*
G02*
X0207086Y0247515I0000492J0000000D01*
G01*
X0212008Y0247515D01*
G75*
G02*
X0212500Y0247023I0000000J-000492D01*
G01*
G37*
G36*
G01*
X0212500Y0250173D02*
X0212500Y0249188D01*
G75*
G02*
X0212008Y0248696I-000492J0000000D01*
G01*
X0207086Y0248696D01*
G75*
G02*
X0206594Y0249188I0000000J0000492D01*
G01*
X0206594Y0250173D01*
G75*
G02*
X0207086Y0250665I0000492J0000000D01*
G01*
X0212008Y0250665D01*
G75*
G02*
X0212500Y0250173I0000000J-000492D01*
G01*
G37*
G36*
G01*
X0205118Y0257554D02*
X0205118Y0252633D01*
G75*
G02*
X0204626Y0252141I-000492J0000000D01*
G01*
X0203642Y0252141D01*
G75*
G02*
X0203149Y0252633I0000000J0000492D01*
G01*
X0203149Y0257554D01*
G75*
G02*
X0203642Y0258047I0000492J0000000D01*
G01*
X0204626Y0258047D01*
G75*
G02*
X0205118Y0257554I0000000J-000492D01*
G01*
G37*
G36*
G01*
X0201968Y0257554D02*
X0201968Y0252633D01*
G75*
G02*
X0201476Y0252141I-000492J0000000D01*
G01*
X0200492Y0252141D01*
G75*
G02*
X0200000Y0252633I0000000J0000492D01*
G01*
X0200000Y0257554D01*
G75*
G02*
X0200492Y0258047I0000492J0000000D01*
G01*
X0201476Y0258047D01*
G75*
G02*
X0201968Y0257554I0000000J-000492D01*
G01*
G37*
G36*
G01*
X0198819Y0257554D02*
X0198819Y0252633D01*
G75*
G02*
X0198327Y0252141I-000492J0000000D01*
G01*
X0197342Y0252141D01*
G75*
G02*
X0196850Y0252633I0000000J0000492D01*
G01*
X0196850Y0257554D01*
G75*
G02*
X0197342Y0258047I0000492J0000000D01*
G01*
X0198327Y0258047D01*
G75*
G02*
X0198819Y0257554I0000000J-000492D01*
G01*
G37*
G36*
G01*
X0195669Y0257554D02*
X0195669Y0252633D01*
G75*
G02*
X0195177Y0252141I-000492J0000000D01*
G01*
X0194193Y0252141D01*
G75*
G02*
X0193701Y0252633I0000000J0000492D01*
G01*
X0193701Y0257554D01*
G75*
G02*
X0194193Y0258047I0000492J0000000D01*
G01*
X0195177Y0258047D01*
G75*
G02*
X0195669Y0257554I0000000J-000492D01*
G01*
G37*
G36*
G01*
X0192519Y0257554D02*
X0192519Y0252633D01*
G75*
G02*
X0192027Y0252141I-000492J0000000D01*
G01*
X0191043Y0252141D01*
G75*
G02*
X0190551Y0252633I0000000J0000492D01*
G01*
X0190551Y0257554D01*
G75*
G02*
X0191043Y0258047I0000492J0000000D01*
G01*
X0192027Y0258047D01*
G75*
G02*
X0192519Y0257554I0000000J-000492D01*
G01*
G37*
G36*
G01*
X0189370Y0257554D02*
X0189370Y0252633D01*
G75*
G02*
X0188878Y0252141I-000492J0000000D01*
G01*
X0187894Y0252141D01*
G75*
G02*
X0187401Y0252633I0000000J0000492D01*
G01*
X0187401Y0257554D01*
G75*
G02*
X0187894Y0258047I0000492J0000000D01*
G01*
X0188878Y0258047D01*
G75*
G02*
X0189370Y0257554I0000000J-000492D01*
G01*
G37*
G36*
G01*
X0186220Y0257554D02*
X0186220Y0252633D01*
G75*
G02*
X0185728Y0252141I-000492J0000000D01*
G01*
X0184744Y0252141D01*
G75*
G02*
X0184252Y0252633I0000000J0000492D01*
G01*
X0184252Y0257554D01*
G75*
G02*
X0184744Y0258047I0000492J0000000D01*
G01*
X0185728Y0258047D01*
G75*
G02*
X0186220Y0257554I0000000J-000492D01*
G01*
G37*
G36*
G01*
X0183071Y0257554D02*
X0183071Y0252633D01*
G75*
G02*
X0182579Y0252141I-000492J0000000D01*
G01*
X0181594Y0252141D01*
G75*
G02*
X0181102Y0252633I0000000J0000492D01*
G01*
X0181102Y0257554D01*
G75*
G02*
X0181594Y0258047I0000492J0000000D01*
G01*
X0182579Y0258047D01*
G75*
G02*
X0183071Y0257554I0000000J-000492D01*
G01*
G37*
G36*
G01*
X0179626Y0250173D02*
X0179626Y0249188D01*
G75*
G02*
X0179134Y0248696I-000492J0000000D01*
G01*
X0174212Y0248696D01*
G75*
G02*
X0173720Y0249188I0000000J0000492D01*
G01*
X0173720Y0250173D01*
G75*
G02*
X0174212Y0250665I0000492J0000000D01*
G01*
X0179134Y0250665D01*
G75*
G02*
X0179626Y0250173I0000000J-000492D01*
G01*
G37*
G36*
G01*
X0179626Y0247023D02*
X0179626Y0246039D01*
G75*
G02*
X0179134Y0245547I-000492J0000000D01*
G01*
X0174212Y0245547D01*
G75*
G02*
X0173720Y0246039I0000000J0000492D01*
G01*
X0173720Y0247023D01*
G75*
G02*
X0174212Y0247515I0000492J0000000D01*
G01*
X0179134Y0247515D01*
G75*
G02*
X0179626Y0247023I0000000J-000492D01*
G01*
G37*
G36*
G01*
X0179626Y0243873D02*
X0179626Y0242889D01*
G75*
G02*
X0179134Y0242397I-000492J0000000D01*
G01*
X0174212Y0242397D01*
G75*
G02*
X0173720Y0242889I0000000J0000492D01*
G01*
X0173720Y0243873D01*
G75*
G02*
X0174212Y0244365I0000492J0000000D01*
G01*
X0179134Y0244365D01*
G75*
G02*
X0179626Y0243873I0000000J-000492D01*
G01*
G37*
G36*
G01*
X0179626Y0240724D02*
X0179626Y0239739D01*
G75*
G02*
X0179134Y0239247I-000492J0000000D01*
G01*
X0174212Y0239247D01*
G75*
G02*
X0173720Y0239739I0000000J0000492D01*
G01*
X0173720Y0240724D01*
G75*
G02*
X0174212Y0241216I0000492J0000000D01*
G01*
X0179134Y0241216D01*
G75*
G02*
X0179626Y0240724I0000000J-000492D01*
G01*
G37*
G36*
G01*
X0179626Y0237574D02*
X0179626Y0236590D01*
G75*
G02*
X0179134Y0236098I-000492J0000000D01*
G01*
X0174212Y0236098D01*
G75*
G02*
X0173720Y0236590I0000000J0000492D01*
G01*
X0173720Y0237574D01*
G75*
G02*
X0174212Y0238066I0000492J0000000D01*
G01*
X0179134Y0238066D01*
G75*
G02*
X0179626Y0237574I0000000J-000492D01*
G01*
G37*
G36*
G01*
X0179626Y0234424D02*
X0179626Y0233440D01*
G75*
G02*
X0179134Y0232948I-000492J0000000D01*
G01*
X0174212Y0232948D01*
G75*
G02*
X0173720Y0233440I0000000J0000492D01*
G01*
X0173720Y0234424D01*
G75*
G02*
X0174212Y0234917I0000492J0000000D01*
G01*
X0179134Y0234917D01*
G75*
G02*
X0179626Y0234424I0000000J-000492D01*
G01*
G37*
G36*
G01*
X0179626Y0231275D02*
X0179626Y0230291D01*
G75*
G02*
X0179134Y0229798I-000492J0000000D01*
G01*
X0174212Y0229798D01*
G75*
G02*
X0173720Y0230291I0000000J0000492D01*
G01*
X0173720Y0231275D01*
G75*
G02*
X0174212Y0231767I0000492J0000000D01*
G01*
X0179134Y0231767D01*
G75*
G02*
X0179626Y0231275I0000000J-000492D01*
G01*
G37*
G36*
G01*
X0179626Y0228125D02*
X0179626Y0227141D01*
G75*
G02*
X0179134Y0226649I-000492J0000000D01*
G01*
X0174212Y0226649D01*
G75*
G02*
X0173720Y0227141I0000000J0000492D01*
G01*
X0173720Y0228125D01*
G75*
G02*
X0174212Y0228617I0000492J0000000D01*
G01*
X0179134Y0228617D01*
G75*
G02*
X0179626Y0228125I0000000J-000492D01*
G01*
G37*
G36*
G01*
X0183071Y0224680D02*
X0183071Y0219759D01*
G75*
G02*
X0182579Y0219267I-000492J0000000D01*
G01*
X0181594Y0219267D01*
G75*
G02*
X0181102Y0219759I0000000J0000492D01*
G01*
X0181102Y0224680D01*
G75*
G02*
X0181594Y0225173I0000492J0000000D01*
G01*
X0182579Y0225173D01*
G75*
G02*
X0183071Y0224680I0000000J-000492D01*
G01*
G37*
G36*
G01*
X0186220Y0224680D02*
X0186220Y0219759D01*
G75*
G02*
X0185728Y0219267I-000492J0000000D01*
G01*
X0184744Y0219267D01*
G75*
G02*
X0184252Y0219759I0000000J0000492D01*
G01*
X0184252Y0224680D01*
G75*
G02*
X0184744Y0225173I0000492J0000000D01*
G01*
X0185728Y0225173D01*
G75*
G02*
X0186220Y0224680I0000000J-000492D01*
G01*
G37*
G36*
G01*
X0189370Y0224680D02*
X0189370Y0219759D01*
G75*
G02*
X0188878Y0219267I-000492J0000000D01*
G01*
X0187894Y0219267D01*
G75*
G02*
X0187401Y0219759I0000000J0000492D01*
G01*
X0187401Y0224680D01*
G75*
G02*
X0187894Y0225173I0000492J0000000D01*
G01*
X0188878Y0225173D01*
G75*
G02*
X0189370Y0224680I0000000J-000492D01*
G01*
G37*
G36*
G01*
X0192519Y0224680D02*
X0192519Y0219759D01*
G75*
G02*
X0192027Y0219267I-000492J0000000D01*
G01*
X0191043Y0219267D01*
G75*
G02*
X0190551Y0219759I0000000J0000492D01*
G01*
X0190551Y0224680D01*
G75*
G02*
X0191043Y0225173I0000492J0000000D01*
G01*
X0192027Y0225173D01*
G75*
G02*
X0192519Y0224680I0000000J-000492D01*
G01*
G37*
G36*
G01*
X0195669Y0224680D02*
X0195669Y0219759D01*
G75*
G02*
X0195177Y0219267I-000492J0000000D01*
G01*
X0194193Y0219267D01*
G75*
G02*
X0193701Y0219759I0000000J0000492D01*
G01*
X0193701Y0224680D01*
G75*
G02*
X0194193Y0225173I0000492J0000000D01*
G01*
X0195177Y0225173D01*
G75*
G02*
X0195669Y0224680I0000000J-000492D01*
G01*
G37*
G36*
G01*
X0198819Y0224680D02*
X0198819Y0219759D01*
G75*
G02*
X0198327Y0219267I-000492J0000000D01*
G01*
X0197342Y0219267D01*
G75*
G02*
X0196850Y0219759I0000000J0000492D01*
G01*
X0196850Y0224680D01*
G75*
G02*
X0197342Y0225173I0000492J0000000D01*
G01*
X0198327Y0225173D01*
G75*
G02*
X0198819Y0224680I0000000J-000492D01*
G01*
G37*
G36*
G01*
X0201968Y0224680D02*
X0201968Y0219759D01*
G75*
G02*
X0201476Y0219267I-000492J0000000D01*
G01*
X0200492Y0219267D01*
G75*
G02*
X0200000Y0219759I0000000J0000492D01*
G01*
X0200000Y0224680D01*
G75*
G02*
X0200492Y0225173I0000492J0000000D01*
G01*
X0201476Y0225173D01*
G75*
G02*
X0201968Y0224680I0000000J-000492D01*
G01*
G37*
G36*
G01*
X0205118Y0224680D02*
X0205118Y0219759D01*
G75*
G02*
X0204626Y0219267I-000492J0000000D01*
G01*
X0203642Y0219267D01*
G75*
G02*
X0203149Y0219759I0000000J0000492D01*
G01*
X0203149Y0224680D01*
G75*
G02*
X0203642Y0225173I0000492J0000000D01*
G01*
X0204626Y0225173D01*
G75*
G02*
X0205118Y0224680I0000000J-000492D01*
G01*
G37*
G36*
G01*
X0170492Y0246226D02*
X0170492Y0244867D01*
G75*
G02*
X0169911Y0244287I-000581J0000000D01*
G01*
X0168750Y0244287D01*
G75*
G02*
X0168169Y0244867I0000000J0000581D01*
G01*
X0168169Y0246226D01*
G75*
G02*
X0168750Y0246806I0000581J0000000D01*
G01*
X0169911Y0246806D01*
G75*
G02*
X0170492Y0246226I0000000J-000581D01*
G01*
G37*
G36*
G01*
X0166673Y0246226D02*
X0166673Y0244867D01*
G75*
G02*
X0166092Y0244287I-000581J0000000D01*
G01*
X0164931Y0244287D01*
G75*
G02*
X0164350Y0244867I0000000J0000581D01*
G01*
X0164350Y0246226D01*
G75*
G02*
X0164931Y0246806I0000581J0000000D01*
G01*
X0166092Y0246806D01*
G75*
G02*
X0166673Y0246226I0000000J-000581D01*
G01*
G37*
G36*
G01*
X0177569Y0222830D02*
X0178927Y0222830D01*
G75*
G02*
X0179508Y0222249I0000000J-000581D01*
G01*
X0179508Y0221088D01*
G75*
G02*
X0178927Y0220507I-000581J0000000D01*
G01*
X0177569Y0220507D01*
G75*
G02*
X0176988Y0221088I0000000J0000581D01*
G01*
X0176988Y0222249D01*
G75*
G02*
X0177569Y0222830I0000581J0000000D01*
G01*
G37*
G36*
G01*
X0177569Y0219011D02*
X0178927Y0219011D01*
G75*
G02*
X0179508Y0218430I0000000J-000581D01*
G01*
X0179508Y0217269D01*
G75*
G02*
X0178927Y0216688I-000581J0000000D01*
G01*
X0177569Y0216688D01*
G75*
G02*
X0176988Y0217269I0000000J0000581D01*
G01*
X0176988Y0218430D01*
G75*
G02*
X0177569Y0219011I0000581J0000000D01*
G01*
G37*
G36*
G01*
X0153925Y0244867D02*
X0153925Y0246226D01*
G75*
G02*
X0154506Y0246806I0000581J0000000D01*
G01*
X0155667Y0246806D01*
G75*
G02*
X0156248Y0246226I0000000J-000581D01*
G01*
X0156248Y0244867D01*
G75*
G02*
X0155667Y0244287I-000581J0000000D01*
G01*
X0154506Y0244287D01*
G75*
G02*
X0153925Y0244867I0000000J0000581D01*
G01*
G37*
G36*
G01*
X0157744Y0244867D02*
X0157744Y0246226D01*
G75*
G02*
X0158325Y0246806I0000581J0000000D01*
G01*
X0159486Y0246806D01*
G75*
G02*
X0160067Y0246226I0000000J-000581D01*
G01*
X0160067Y0244867D01*
G75*
G02*
X0159486Y0244287I-000581J0000000D01*
G01*
X0158325Y0244287D01*
G75*
G02*
X0157744Y0244867I0000000J0000581D01*
G01*
G37*
D154*
X0155413Y0250468D03*
X0162894Y0250468D03*
X0159153Y0258342D03*
G36*
G01*
X0214478Y0224700D02*
X0215836Y0224700D01*
G75*
G02*
X0216417Y0224119I0000000J-000581D01*
G01*
X0216417Y0222958D01*
G75*
G02*
X0215836Y0222377I-000581J0000000D01*
G01*
X0214478Y0222377D01*
G75*
G02*
X0213897Y0222958I0000000J0000581D01*
G01*
X0213897Y0224119D01*
G75*
G02*
X0214478Y0224700I0000581J0000000D01*
G01*
G37*
G36*
G01*
X0214478Y0220881D02*
X0215836Y0220881D01*
G75*
G02*
X0216417Y0220300I0000000J-000581D01*
G01*
X0216417Y0219139D01*
G75*
G02*
X0215836Y0218558I-000581J0000000D01*
G01*
X0214478Y0218558D01*
G75*
G02*
X0213897Y0219139I0000000J0000581D01*
G01*
X0213897Y0220300D01*
G75*
G02*
X0214478Y0220881I0000581J0000000D01*
G01*
G37*
G36*
G01*
X0168351Y0259739D02*
X0170369Y0259739D01*
G75*
G02*
X0171230Y0258878I0000000J-000861D01*
G01*
X0171230Y0257156D01*
G75*
G02*
X0170369Y0256295I-000861J0000000D01*
G01*
X0168351Y0256295D01*
G75*
G02*
X0167490Y0257156I0000000J0000861D01*
G01*
X0167490Y0258878D01*
G75*
G02*
X0168351Y0259739I0000861J0000000D01*
G01*
G37*
G36*
G01*
X0168351Y0253539D02*
X0170369Y0253539D01*
G75*
G02*
X0171230Y0252677I0000000J-000861D01*
G01*
X0171230Y0250955D01*
G75*
G02*
X0170369Y0250094I-000861J0000000D01*
G01*
X0168351Y0250094D01*
G75*
G02*
X0167490Y0250955I0000000J0000861D01*
G01*
X0167490Y0252677D01*
G75*
G02*
X0168351Y0253539I0000861J0000000D01*
G01*
G37*
D166*
X0152598Y0217594D03*
X0172598Y0213594D03*
X0172598Y0221594D03*
D162*
X0157598Y0215094D03*
X0157598Y0220094D03*
X0162598Y0215094D03*
X0162598Y0220094D03*
X0167598Y0215094D03*
X0167598Y0220094D03*
D163*
X0242086Y0256472D03*
D164*
X0232086Y0256472D03*
X0222086Y0256472D03*
X0148425Y0267200D02*
G01*
G75*
D197*
X0272047Y0285290D02*
D03*
X0279134Y0285290D02*
D03*
X0279134Y0275251D02*
D03*
X0272047Y0275251D02*
D03*
X0160236Y0334031D02*
D03*
X0153149Y0334031D02*
D03*
X0153149Y0323991D02*
D03*
X0160236Y0323991D02*
D03*
X0160236Y0340133D02*
D03*
X0153149Y0340133D02*
D03*
X0153149Y0350173D02*
D03*
X0160236Y0350173D02*
D03*
D198*
X0272047Y0281846D02*
D03*
X0272047Y0278696D02*
D03*
X0279134Y0278696D02*
D03*
X0279134Y0281846D02*
D03*
X0153149Y0327436D02*
D03*
X0153149Y0330586D02*
D03*
X0160236Y0330586D02*
D03*
X0160236Y0327436D02*
D03*
X0160236Y0343578D02*
D03*
X0160236Y0346728D02*
D03*
X0153149Y0346728D02*
D03*
X0153149Y0343578D02*
D03*
D199*
X0267835Y0282294D02*
D03*
X0267835Y0284853D02*
D03*
X0267835Y0287413D02*
D03*
X0260355Y0282294D02*
D03*
X0260355Y0287413D02*
D03*
X0260355Y0284853D02*
D03*
X0260355Y0277669D02*
D03*
X0260355Y0272550D02*
D03*
X0267835Y0277669D02*
D03*
X0267835Y0275109D02*
D03*
X0267835Y0272550D02*
D03*
X0260355Y0275109D02*
D03*
D200*
X0200627Y0381570D02*
D03*
X0200627Y0379602D02*
D03*
X0200627Y0377633D02*
D03*
X0200627Y0375665D02*
D03*
X0200627Y0373696D02*
D03*
X0200627Y0371728D02*
D03*
X0200627Y0369759D02*
D03*
X0200627Y0367791D02*
D03*
X0200627Y0365822D02*
D03*
X0200627Y0361885D02*
D03*
X0200627Y0359916D02*
D03*
X0200627Y0357948D02*
D03*
X0200627Y0355979D02*
D03*
X0200627Y0354011D02*
D03*
X0200627Y0352042D02*
D03*
X0200627Y0350074D02*
D03*
X0200627Y0348105D02*
D03*
X0200627Y0346137D02*
D03*
X0200627Y0344168D02*
D03*
X0200627Y0342200D02*
D03*
X0200627Y0340232D02*
D03*
X0200627Y0338263D02*
D03*
X0200627Y0336295D02*
D03*
X0200627Y0334326D02*
D03*
X0261651Y0334326D02*
D03*
X0261651Y0336295D02*
D03*
X0261651Y0338263D02*
D03*
X0261651Y0340232D02*
D03*
X0261651Y0342200D02*
D03*
X0261651Y0344168D02*
D03*
X0261651Y0346137D02*
D03*
X0261651Y0348105D02*
D03*
X0261651Y0350074D02*
D03*
X0261651Y0352042D02*
D03*
X0261651Y0354011D02*
D03*
X0261651Y0355979D02*
D03*
X0261651Y0357948D02*
D03*
X0261651Y0359916D02*
D03*
X0261651Y0361885D02*
D03*
X0261651Y0363853D02*
D03*
X0261651Y0365822D02*
D03*
X0261651Y0367791D02*
D03*
X0261651Y0369759D02*
D03*
X0261651Y0371728D02*
D03*
X0261651Y0373696D02*
D03*
X0261651Y0375665D02*
D03*
X0261651Y0377633D02*
D03*
X0261651Y0381570D02*
D03*
X0200627Y0363853D02*
D03*
X0261651Y0379602D02*
D03*
D201*
X0207517Y0327436D02*
D03*
X0211454Y0327436D02*
D03*
X0213423Y0327436D02*
D03*
X0215391Y0327436D02*
D03*
X0217360Y0327436D02*
D03*
X0219328Y0327436D02*
D03*
X0221297Y0327436D02*
D03*
X0223265Y0327436D02*
D03*
X0225234Y0327436D02*
D03*
X0227202Y0327436D02*
D03*
X0229171Y0327436D02*
D03*
X0231139Y0327436D02*
D03*
X0233108Y0327436D02*
D03*
X0235076Y0327436D02*
D03*
X0237045Y0327436D02*
D03*
X0239013Y0327436D02*
D03*
X0240982Y0327436D02*
D03*
X0242950Y0327436D02*
D03*
X0244919Y0327436D02*
D03*
X0246887Y0327436D02*
D03*
X0248856Y0327436D02*
D03*
X0250824Y0327436D02*
D03*
X0252793Y0327436D02*
D03*
X0254761Y0327436D02*
D03*
X0254761Y0388460D02*
D03*
X0252793Y0388460D02*
D03*
X0250824Y0388460D02*
D03*
X0248856Y0388460D02*
D03*
X0246887Y0388460D02*
D03*
X0244919Y0388460D02*
D03*
X0242950Y0388460D02*
D03*
X0240982Y0388460D02*
D03*
X0239013Y0388460D02*
D03*
X0237045Y0388460D02*
D03*
X0235076Y0388460D02*
D03*
X0233108Y0388460D02*
D03*
X0231139Y0388460D02*
D03*
X0229171Y0388460D02*
D03*
X0227202Y0388460D02*
D03*
X0225234Y0388460D02*
D03*
X0223265Y0388460D02*
D03*
X0221297Y0388460D02*
D03*
X0219328Y0388460D02*
D03*
X0217360Y0388460D02*
D03*
X0215391Y0388460D02*
D03*
X0213423Y0388460D02*
D03*
X0211454Y0388460D02*
D03*
X0209486Y0388460D02*
D03*
X0207517Y0388460D02*
D03*
X0209486Y0327436D02*
D03*
D202*
X0204134Y0310507D02*
D03*
X0232086Y0310507D02*
D03*
X0176181Y0310507D02*
D03*
X0181693Y0305389D02*
D03*
X0209646Y0315625D02*
D03*
X0209646Y0313066D02*
D03*
X0209646Y0310507D02*
D03*
X0209646Y0307948D02*
D03*
X0209646Y0305389D02*
D03*
X0209646Y0302830D02*
D03*
X0209646Y0300271D02*
D03*
X0232086Y0315625D02*
D03*
X0232086Y0313066D02*
D03*
X0232086Y0307948D02*
D03*
X0232086Y0305389D02*
D03*
X0232086Y0302830D02*
D03*
X0232086Y0300271D02*
D03*
X0153740Y0315625D02*
D03*
X0153740Y0313066D02*
D03*
X0153740Y0310507D02*
D03*
X0153740Y0307948D02*
D03*
X0153740Y0305389D02*
D03*
X0153740Y0302830D02*
D03*
X0153740Y0300271D02*
D03*
X0176181Y0315625D02*
D03*
X0176181Y0313066D02*
D03*
X0176181Y0307948D02*
D03*
X0176181Y0305389D02*
D03*
X0176181Y0302830D02*
D03*
X0176181Y0300271D02*
D03*
X0181693Y0315625D02*
D03*
X0181693Y0313066D02*
D03*
X0181693Y0310507D02*
D03*
X0181693Y0307948D02*
D03*
X0181693Y0302830D02*
D03*
X0181693Y0300271D02*
D03*
X0204134Y0315625D02*
D03*
X0204134Y0313066D02*
D03*
X0204134Y0307948D02*
D03*
X0204134Y0305389D02*
D03*
X0204134Y0302830D02*
D03*
X0204134Y0300271D02*
D03*
X0260039Y0300271D02*
D03*
X0260039Y0302830D02*
D03*
X0260039Y0305389D02*
D03*
X0260039Y0307948D02*
D03*
X0260039Y0310507D02*
D03*
X0260039Y0313066D02*
D03*
X0260039Y0315625D02*
D03*
X0237598Y0300271D02*
D03*
X0237598Y0302830D02*
D03*
X0237598Y0305389D02*
D03*
X0237598Y0307948D02*
D03*
X0237598Y0310507D02*
D03*
X0237598Y0313066D02*
D03*
X0237598Y0315625D02*
D03*
D203*
X0258543Y0401393D02*
D03*
X0258543Y0396393D02*
D03*
X0253543Y0401393D02*
D03*
X0253543Y0396393D02*
D03*
X0248543Y0401393D02*
D03*
X0248543Y0396393D02*
D03*
D204*
X0272834Y0402633D02*
D03*
X0276575Y0402633D02*
D03*
X0269094Y0402633D02*
D03*
X0269094Y0393184D02*
D03*
X0272834Y0393184D02*
D03*
X0276575Y0393184D02*
D03*
D205*
X0274284Y0381373D02*
D03*
X0274284Y0386098D02*
D03*
X0272815Y0371826D02*
D03*
X0186275Y0398611D02*
D03*
X0199587Y0322745D02*
D03*
X0270348Y0381373D02*
D03*
X0276753Y0371826D02*
D03*
X0271453Y0334842D02*
D03*
X0275390Y0334842D02*
D03*
X0271453Y0325787D02*
D03*
X0275390Y0325787D02*
D03*
X0270348Y0386098D02*
D03*
X0190212Y0398611D02*
D03*
X0183135Y0381896D02*
D03*
X0187072Y0381896D02*
D03*
X0203524Y0322745D02*
D03*
X0203543Y0327041D02*
D03*
X0199606Y0327041D02*
D03*
D206*
X0276741Y0363191D02*
D03*
X0276741Y0361223D02*
D03*
X0270442Y0365160D02*
D03*
X0270442Y0363191D02*
D03*
X0270442Y0367128D02*
D03*
X0270442Y0361223D02*
D03*
X0276741Y0367128D02*
D03*
X0276741Y0365160D02*
D03*
D207*
X0274576Y0361026D02*
D03*
X0272607Y0361026D02*
D03*
X0272607Y0367325D02*
D03*
X0274576Y0367325D02*
D03*
D208*
X0271836Y0356176D02*
D03*
X0271836Y0339641D02*
D03*
D209*
X0243307Y0283735D02*
D03*
X0252756Y0283735D02*
D03*
X0248031Y0283735D02*
D03*
X0238583Y0283735D02*
D03*
X0252756Y0272318D02*
D03*
X0243307Y0272318D02*
D03*
X0248031Y0272318D02*
D03*
X0238583Y0272318D02*
D03*
X0232373Y0290715D02*
D03*
X0232373Y0294652D02*
D03*
X0238583Y0276255D02*
D03*
D03*
X0238583Y0280192D02*
D03*
X0243307Y0276255D02*
D03*
X0243307Y0280192D02*
D03*
X0238583Y0287672D02*
D03*
X0248031Y0276255D02*
D03*
X0248031Y0280192D02*
D03*
X0243307Y0287672D02*
D03*
X0248031Y0287672D02*
D03*
X0252756Y0276255D02*
D03*
X0252756Y0280192D02*
D03*
X0252756Y0276255D02*
D03*
X0252756Y0287672D02*
D03*
X0243307Y0276255D02*
D03*
X0248031Y0276255D02*
D03*
X0152559Y0278617D02*
D03*
X0152559Y0274680D02*
D03*
X0177165Y0276255D02*
D03*
X0177165Y0272318D02*
D03*
X0191338Y0276255D02*
D03*
X0191338Y0272318D02*
D03*
X0210236Y0280192D02*
D03*
X0210236Y0276255D02*
D03*
X0210236Y0272318D02*
D03*
X0210236Y0276255D02*
D03*
X0224409Y0280192D02*
D03*
X0224409Y0276255D02*
D03*
X0152559Y0295350D02*
D03*
X0152559Y0291413D02*
D03*
X0158268Y0276255D02*
D03*
X0158268Y0280192D02*
D03*
X0162992Y0276255D02*
D03*
X0162992Y0280192D02*
D03*
X0167716Y0276255D02*
D03*
X0167716Y0280192D02*
D03*
X0172441Y0276255D02*
D03*
X0172441Y0280192D02*
D03*
X0158268Y0276255D02*
D03*
X0158268Y0272318D02*
D03*
X0162992Y0276255D02*
D03*
X0162992Y0272318D02*
D03*
X0167716Y0276255D02*
D03*
X0167716Y0272318D02*
D03*
X0172441Y0276255D02*
D03*
X0172441Y0272318D02*
D03*
X0177165Y0276255D02*
D03*
X0177165Y0280192D02*
D03*
X0181890Y0276255D02*
D03*
X0181890Y0280192D02*
D03*
X0186614Y0276255D02*
D03*
X0186614Y0280192D02*
D03*
X0191338Y0276255D02*
D03*
X0191338Y0280192D02*
D03*
X0181890Y0276255D02*
D03*
X0181890Y0272318D02*
D03*
X0186614Y0276255D02*
D03*
X0186614Y0272318D02*
D03*
X0196063Y0280192D02*
D03*
X0196063Y0276255D02*
D03*
X0200787Y0280192D02*
D03*
X0200787Y0276255D02*
D03*
X0205512Y0280192D02*
D03*
X0205512Y0276255D02*
D03*
X0196063Y0272318D02*
D03*
X0196063Y0276255D02*
D03*
X0200787Y0272318D02*
D03*
X0200787Y0276255D02*
D03*
X0205512Y0272318D02*
D03*
X0205512Y0276255D02*
D03*
X0214961Y0280192D02*
D03*
X0214961Y0276255D02*
D03*
X0219685Y0280192D02*
D03*
X0219685Y0276255D02*
D03*
X0229134Y0280192D02*
D03*
X0229134Y0276255D02*
D03*
X0214961Y0272318D02*
D03*
X0214961Y0276255D02*
D03*
X0219685Y0272318D02*
D03*
X0219685Y0276255D02*
D03*
X0224409Y0272318D02*
D03*
X0224409Y0276255D02*
D03*
X0229134Y0272318D02*
D03*
X0229134Y0276255D02*
D03*
X0152559Y0286294D02*
D03*
X0152559Y0282357D02*
D03*
D210*
X0217323Y0289247D02*
D03*
X0198425Y0289247D02*
D03*
X0179527Y0289247D02*
D03*
X0160630Y0289247D02*
D03*
X0188976Y0292987D02*
D03*
X0188976Y0289247D02*
D03*
X0188976Y0285507D02*
D03*
X0179527Y0285507D02*
D03*
X0179527Y0292987D02*
D03*
X0170079Y0292987D02*
D03*
X0170079Y0289247D02*
D03*
X0170079Y0285507D02*
D03*
X0160630Y0285507D02*
D03*
X0160630Y0292987D02*
D03*
X0207874Y0292987D02*
D03*
X0207874Y0289247D02*
D03*
X0207874Y0285507D02*
D03*
X0198425Y0285507D02*
D03*
X0198425Y0292987D02*
D03*
X0226772Y0292987D02*
D03*
X0226772Y0289247D02*
D03*
X0226772Y0285507D02*
D03*
X0217323Y0285507D02*
D03*
X0217323Y0292987D02*
D03*
D211*
X0183338Y0386282D02*
D03*
X0201260Y0396531D02*
D03*
D212*
X0174016Y0361159D02*
D03*
X0155118Y0356159D02*
D03*
X0155118Y0371159D02*
D03*
X0155118Y0366159D02*
D03*
X0155118Y0361159D02*
D03*
X0174016Y0371159D02*
D03*
X0174016Y0366159D02*
D03*
X0174016Y0356159D02*
D03*
D213*
X0155708Y0378800D02*
D03*
X0173819Y0378800D02*
D03*
D214*
X0190170Y0347274D02*
D03*
X0173961Y0346726D02*
D03*
X0190647Y0339114D02*
D03*
X0190647Y0331503D02*
D03*
X0173961Y0339114D02*
D03*
X0173961Y0331503D02*
D03*
X0190647Y0323891D02*
D03*
X0173961Y0323891D02*
D03*
X0183477Y0347274D02*
D03*
X0183954Y0339114D02*
D03*
X0183954Y0331503D02*
D03*
X0183954Y0323891D02*
D03*
X0167268Y0339114D02*
D03*
X0167268Y0346726D02*
D03*
X0183477Y0355251D02*
D03*
X0190170Y0355251D02*
D03*
X0190170Y0362338D02*
D03*
X0183477Y0362338D02*
D03*
X0183477Y0369424D02*
D03*
X0190170Y0369424D02*
D03*
X0190170Y0376511D02*
D03*
X0183477Y0376511D02*
D03*
X0167268Y0331503D02*
D03*
X0167268Y0323891D02*
D03*
X0190170Y0404011D02*
D03*
X0183477Y0404011D02*
D03*
D215*
X0276844Y0376598D02*
D03*
X0270544Y0376598D02*
D03*
X0269484Y0330157D02*
D03*
X0275784Y0330157D02*
D03*
D216*
X0236219Y0399540D02*
D03*
X0219684Y0399540D02*
D03*
D211*
X0201260Y0404011D02*
D03*
X0210512Y0400271D02*
D03*
X0183338Y0393762D02*
D03*
X0192590Y0390022D02*
D03*
D217*
X0164764Y0403210D02*
D03*
D218*
X0164764Y0378800D02*
D03*
D219*
X0234055Y0276255D02*
D03*
X0153149Y0270350D02*
D03*
D220*
X0271246Y0293997D02*
D03*
X0271246Y0311713D02*
D03*
D221*
X0226338Y0321334D02*
D03*
X0240551Y0321334D02*
D03*
X0210551Y0321334D02*
D03*
D222*
X0263543Y0398893D02*
D03*
X0243543Y0394893D02*
D03*
X0243543Y0402893D02*
D03*
D10*
X0152756Y0404602D02*
D03*
X0148425Y0173945D02*
G01*
G75*
D262*
X0191732Y0175028D02*
D03*
D263*
X0150984Y0175225D02*
D03*
X0152953Y0175225D02*
D03*
D264*
X0159842Y0186957D02*
D03*
X0156102Y0177705D02*
D03*
D264*
X0152362Y0186957D02*
D03*
D265*
X0167401Y0198571D02*
D03*
X0167401Y0193571D02*
D03*
X0167401Y0188571D02*
D03*
X0167401Y0183571D02*
D03*
X0186299Y0198571D02*
D03*
X0186299Y0193571D02*
D03*
X0186299Y0188571D02*
D03*
X0186299Y0183571D02*
D03*
D107*
X0183110Y0178276D02*
D03*
X0189330Y0178276D02*
D03*
X0174764Y0178276D02*
D03*
X0168543Y0178276D02*
D03*
D266*
X0152952Y0191858D02*
D03*
X0159252Y0191858D02*
D03*
D112*
X0163582Y0175815D02*
D03*
X0179626Y0198354D02*
D03*
X0179921Y0184378D02*
D03*
X0178740Y0179358D02*
D03*
X0175295Y0181425D02*
D03*
M02*
