M48
INCH,TZ
T01C0.013750
T02C0.029550
T03C0.032000
T04C0.039200
T05C0.043300
T06C0.078700
T07C0.086600
T08C0.145700
%
T01
X23396Y130472
X23425Y129074
X23514Y130974
X23858Y130767
X25243Y139818
X26769Y138568
X26847Y139700
X26853Y138224
X26853Y138952
X26883Y137889
X27060Y137249
X27576Y138785
X27576Y137761
X27576Y136993
X32308Y141016
X32652Y140809
X32741Y142709
X32771Y141311
X44859Y121560
X47004Y124256
X47011Y122196
X47752Y122002
X48986Y140777
X49532Y139281
X50242Y124778
X52169Y116166
X52169Y113213
X52169Y112898
X52169Y112583
X53814Y140777
X59069Y115811
X59069Y115418
X59404Y140777
X63696Y140777
X16863Y138533
X16867Y139537
X16963Y134833
X16963Y133833
X18663Y131333
X19252Y120630
X19291Y117283
X20650Y112750
X21263Y131533
X21968Y110354
X21970Y133130
X23779Y107992
X24003Y135553
X24122Y128382
X24567Y111712
X24772Y112294
X24853Y134303
X24901Y111712
X25236Y111712
X25236Y104330
X25335Y134606
X25513Y131713
X25723Y134483
X25793Y133913
X25853Y140473
X25905Y102441
X26063Y128263
X26398Y131742
X26420Y134333
X26772Y129576
X26840Y120303
X26883Y134383
X27533Y134173
X27833Y134393
X27953Y132332
X28100Y111653
X28135Y127048
X28163Y131133
X28346Y126732
X28779Y119056
X28779Y118189
X28963Y128633
X29035Y107736
X29063Y130633
X29094Y127165
X29115Y140120
X29439Y140025
X29468Y142008
X29933Y115563
X31260Y140039
X31594Y109960
X32057Y117795
X32490Y117391
X33189Y140039
X33553Y117343
X33833Y143533
X34449Y140157
X34636Y111712
X35335Y109931
X36023Y142883
X36053Y118513
X36142Y143828
X36426Y118513
X36563Y115473
X36959Y118395
X36968Y109980
X37303Y115553
X37333Y118730
X37333Y143613
X37343Y142083
X37499Y117854
X37648Y109911
X37863Y117343
X38013Y110013
X38483Y117813
X38713Y115163
X38753Y114663
X38923Y113743
X39055Y103323
X39293Y113363
X39313Y116387
X39370Y119035
X39606Y103323
X40000Y125118
X40013Y103263
X40069Y118700
X40128Y140078
X40590Y140057
X40630Y103681
X40984Y103681
X40993Y118853
X41409Y117673
X41455Y118051
X41601Y118733
X41850Y122175
X41883Y124897
X42071Y122716
X42077Y107027
X42233Y124853
X42303Y117283
X42393Y118843
X42523Y119548
X42783Y119283
X43033Y143713
X43098Y119548
X43293Y116201
X43593Y142363
X43663Y117239
X43683Y119263
X43976Y125118
X44026Y140994
X44068Y116201
X44134Y142017
X44537Y140876
X44583Y120433
X44603Y111273
X45098Y141309
X45935Y121112
X46457Y120078
X47716Y140984
X48003Y130103
X48031Y125630
X48053Y135083
X48071Y127165
X48110Y136299
X48169Y134222
X48169Y131702
X48327Y130128
X48386Y132175
X48413Y103530
X48425Y140748
X48602Y125984
X48622Y137057
X48813Y118213
X48813Y117873
X48893Y135039
X48893Y130933
X49094Y127362
X49242Y134547
X49242Y131340
X49449Y136023
X49478Y131930
X49528Y131209
X49567Y141259
X49764Y118622
X49764Y118385
X50039Y136732
X50183Y125773
X50213Y132293
X50221Y133230
X50263Y106893
X50293Y116993
X50457Y133505
X50570Y126250
X50590Y127165
X50693Y133781
X50853Y105603
X51173Y108073
X51243Y121983
X51250Y125718
X51283Y118103
X51299Y117165
X51303Y116343
X51575Y136102
X51693Y117063
X51783Y118073
X51827Y111116
X51836Y114689
X51953Y117073
X51968Y117519
X52053Y137393
X52233Y118093
X52233Y117793
X52373Y108773
X52445Y107284
X52813Y103353
X52963Y118473
X52963Y118193
X53847Y118599
X54481Y118575
X55013Y117023
X55373Y116803
X55905Y116732
X56279Y119006
X56283Y107333
X56476Y118809
X56643Y104223
X56673Y118612
X56733Y107333
X56968Y118878
X57183Y103453
X57273Y107333
X57274Y136452
X57963Y119124
X58779Y103543
X58783Y106593
X59493Y116293
X59514Y112534
X59567Y110866
X59763Y106893
X59824Y119115
X60773Y103563
X61024Y118937
X61024Y118622
X61024Y118267
X62193Y106743
X62795Y124605
X62827Y127888
X63031Y136348
X63071Y121378
X63307Y129685
X63346Y141378
X63701Y118819
X64143Y135543
X64469Y139330
X64793Y141303
X65236Y111259
X65923Y119093
X66403Y119093
X66698Y111889
X66717Y113110
X66717Y112618
X66816Y115236
X66835Y116458
X66859Y121699
X66973Y123249
X67209Y125749
X67229Y124942
X67249Y124115
X67795Y102598
X67898Y113937
X67898Y113110
X67898Y112283
X68449Y125356
X68449Y124529
X68449Y123702
X68735Y114690
X69646Y135590
X69688Y123943
X69764Y125236
X70400Y123357
X70406Y115439
X70593Y122369
X70704Y115833
X71009Y123485
X71009Y122369
X71105Y115794
X71206Y115323
X72362Y102992
X74133Y119153
X74158Y121871
X74212Y123582
X74335Y116300
X74633Y119103
X21415Y112767
X21809Y112767
X22203Y112767
X22596Y112767
X23029Y127826
X23423Y127826
X24821Y127826
X25214Y127826
X42534Y121276
X42534Y124583
X42869Y121276
X43085Y124583
X43203Y121276
X43299Y124140
X43509Y124583
X43538Y121276
X43779Y120706
X44060Y124583
X69522Y122999
X69522Y122684
X69522Y115044
X69522Y114729
X71985Y122762
X71985Y122408
X71993Y115794
X71993Y115439
X29813Y24186
X29541Y24822
X29755Y25207
X29114Y25636
X29074Y25972
X29271Y26562
X29547Y26818
X29665Y27349
X29271Y27645
X29074Y27153
X29074Y28334
X29074Y29909
X29547Y29889
X30658Y30181
X31705Y30156
X32027Y29868
X33080Y29793
X34192Y29909
X34980Y29909
X34507Y28905
X33862Y28899
X33922Y27653
X34389Y27743
X34557Y27263
X34980Y27546
X34558Y26378
X35254Y26206
X35295Y25814
X35295Y25420
X34613Y25514
X34303Y25025
X34690Y24708
X34293Y24278
X33904Y24657
X33829Y25381
X33877Y25814
X32561Y24829
X32561Y24200
X31642Y24186
X30787Y24186
X31010Y24828
X31594Y25853
X31987Y27300
X31240Y27349
X31673Y27859
X32262Y28857
X33208Y30814
X34140Y30881
X34586Y30499
X34980Y31090
X34153Y31877
X32154Y32045
X32112Y31639
X31325Y31629
X31060Y31226
X29623Y31303
X30032Y30668
X29192Y30435
X34770Y19605
X34922Y19858
X34764Y20145
X34764Y20500
X35766Y20166
X36040Y20061
X36283Y20274
X35733Y19761
X37212Y20501
X38189Y20500
X38189Y20126
X38189Y19752
X28858Y38905
X28885Y40551
X28907Y39722
X29629Y37198
X29638Y37955
X29664Y38734
X29712Y40563
X29714Y39631
X29886Y38929
X30060Y40535
X30147Y37326
X30177Y38641
X30452Y37192
X30508Y40726
X30585Y39179
X30596Y37933
X30750Y40254
X30873Y39243
X31167Y39220
X31409Y39621
X31541Y38815
X31594Y39141
X31604Y38423
X31624Y37340
X31674Y37712
X31714Y38062
X31935Y38720
X32244Y37192
X32313Y38767
X32627Y39191
X32746Y38905
X32844Y38401
X32866Y39864
X32909Y37352
X32932Y39161
X33001Y40535
X33297Y40476
X33480Y39206
X33492Y40705
X33819Y37832
X34295Y37824
X34537Y37655
X34547Y38068
X34563Y37173
X28868Y38153
X28868Y37759
X34547Y40696
X34547Y40224
X34547Y39752
X34547Y39279
X28996Y34908
X28996Y32940
X29035Y36247
X29862Y34830
X30019Y33767
X30137Y32940
X30374Y36247
X30767Y35341
X30807Y34357
X31358Y33727
X31397Y32940
X31791Y36247
X32027Y35538
X32106Y32940
X32192Y34847
X32618Y33294
X33129Y34160
X33366Y33215
X33523Y36247
X33838Y32940
X34156Y35422
X34429Y34554
X34429Y33215
X28868Y33802
X28868Y33408
X34547Y36345
X34547Y35873
X34547Y35401
X34547Y34928
X28960Y17078
X29118Y18535
X30023Y20562
X30040Y17528
X30417Y19086
X30455Y18422
X30811Y20543
X30811Y17039
X30850Y19795
X30850Y17669
X31559Y20562
X31559Y19795
X31559Y19086
X31559Y18377
X31559Y17669
X32267Y19086
X32307Y17039
X32700Y18377
X32700Y17669
X33131Y20155
X33133Y20464
X33448Y19992
X33763Y20543
X33803Y17432
X33901Y18929
X33921Y17078
X33960Y20031
X28842Y20661
X28842Y20346
X28842Y20031
X28842Y19716
X28842Y19401
X28842Y19086
X28842Y18771
X29157Y20661
X14999Y23059
X15074Y25989
X15118Y24319
X15118Y20953
X15351Y21143
X15407Y22423
X15407Y22734
X15561Y25757
X15789Y24166
X15881Y24864
X15944Y22236
X16081Y21303
X16373Y21031
X16476Y26071
X16522Y25434
X16564Y25057
X16639Y23750
X16643Y22513
X16919Y20992
X17000Y23078
X17125Y21789
X17185Y23738
X17194Y24785
X17303Y23028
X17401Y20953
X18198Y26076
X18366Y21760
X18656Y23565
X18886Y24504
X18887Y23004
X18888Y23797
X19094Y24040
X19114Y20854
X19172Y23699
X19479Y25076
X19687Y22941
X19776Y25025
X19901Y20884
X19917Y24378
X20086Y25031
X20104Y21598
X20177Y22980
X20236Y23980
X20389Y24655
X20393Y21681
X20694Y22414
X20712Y25380
X20720Y25681
X21092Y20874
X21299Y25512
X21324Y26097
X21333Y25213
X21590Y25878
X21728Y24236
X21774Y23389
X21844Y22876
X21844Y21976
X21844Y21675
X21844Y21374
X21844Y21073
X21848Y22468
X22224Y24004
X22480Y23787
X24555Y20832
X24772Y22581
X24812Y25834
X24960Y25421
X25059Y22488
X25098Y24840
X25098Y24565
X25098Y24289
X25275Y25401
X25295Y20825
X25403Y24840
X25403Y24565
X25600Y25815
X15062Y25520
X15062Y25126
X15062Y24732
X15062Y23834
X15062Y23434
X25531Y22508
X25531Y22114
X25531Y21720
X25531Y21327
X15118Y26838
X15594Y26869
X15826Y27059
X16062Y26838
X16299Y27039
X16535Y26838
X16771Y27039
X17007Y26838
X17244Y27039
X17480Y26838
X17716Y27039
X17952Y26838
X18188Y27039
X18425Y26838
X18661Y27039
X18897Y26838
X19133Y27039
X19370Y26838
X19606Y27039
X19842Y26838
X20078Y27039
X20314Y26838
X20551Y27039
X20787Y26838
X21023Y27039
X21259Y26838
X21496Y27039
X21732Y26838
X21968Y27039
X22204Y26838
X22440Y27039
X22677Y26838
X22913Y27039
X23149Y26838
X23385Y27039
X23622Y26838
X23858Y27039
X24094Y26838
X24330Y27039
X24566Y26838
X24803Y27039
X25039Y26838
X25275Y27039
X25511Y26838
X25826Y26996
X25819Y27531
X25392Y27725
X24941Y27735
X24499Y27742
X24026Y27740
X23521Y28787
X23211Y28787
X22964Y28314
X22366Y28517
X22070Y28526
X22227Y28797
X22344Y29479
X22089Y29747
X21992Y30288
X22431Y30288
X22891Y30168
X22891Y30500
X22891Y30795
X22885Y31086
X23215Y31770
X23760Y31766
X23622Y32350
X22992Y32271
X22922Y33103
X22907Y33489
X22559Y33295
X22325Y33095
X22068Y33528
X21375Y33829
X20777Y33846
X20430Y33550
X19655Y33725
X19673Y33170
X19663Y32623
X18955Y32750
X19000Y33549
X18974Y34314
X18952Y35124
X19655Y35164
X19655Y34879
X19655Y34594
X19655Y35465
X20443Y35781
X20430Y36066
X20398Y36364
X20448Y36846
X20852Y36897
X21482Y37375
X21859Y37363
X22795Y37507
X23120Y36907
X23328Y37110
X23310Y36583
X23668Y36536
X23117Y36352
X22911Y35209
X22688Y34980
X22642Y34297
X22351Y34286
X22838Y34078
X23507Y34078
X24373Y33889
X24567Y33675
X24771Y33471
X24973Y33269
X24970Y34082
X24523Y34547
X24510Y35248
X24886Y35150
X24763Y35618
X24561Y36155
X24801Y36381
X24995Y36779
X24803Y37035
X24702Y37418
X24662Y37724
X24960Y37626
X25464Y37424
X25520Y37123
X25464Y36561
X25611Y36316
X25354Y35933
X25336Y35442
X26564Y35050
X26874Y34736
X26692Y34515
X26657Y33995
X28110Y33925
X28110Y34240
X28110Y34555
X28110Y34870
X28110Y35185
X28110Y35500
X28110Y35814
X27971Y36092
X28110Y36366
X28110Y36681
X28110Y36996
X28110Y37311
X28110Y37626
X28110Y37940
X27753Y38028
X27970Y38272
X27661Y38974
X27657Y39909
X27284Y39953
X27282Y39668
X26909Y39909
X27007Y40775
X26692Y40775
X26377Y40775
X26062Y40775
X25748Y40775
X25433Y40775
X25118Y40775
X24803Y40775
X24488Y40775
X23897Y40578
X23543Y40775
X23228Y40775
X22913Y40775
X22598Y40775
X22283Y40775
X21968Y40775
X21653Y40775
X21338Y40775
X21023Y40775
X20511Y40736
X20605Y40081
X20207Y40045
X19862Y40090
X19583Y39788
X19641Y40543
X19330Y40775
X18267Y40775
X17873Y40775
X17512Y40751
X17520Y40288
X17290Y39843
X17209Y38970
X16769Y39193
X17955Y39505
X18418Y39824
X18375Y38973
X18818Y38925
X19303Y38497
X19311Y38212
X19379Y37852
X19382Y37556
X18652Y37655
X18661Y37271
X18652Y36946
X18991Y36618
X18652Y36238
X18668Y35886
X18648Y35591
X18965Y35909
X17970Y36337
X17967Y36781
X16791Y36637
X16811Y36116
X16810Y35727
X17635Y35262
X17935Y35301
X17958Y34848
X17958Y34561
X17958Y34274
X17958Y33858
X17958Y33572
X17976Y33148
X17976Y32840
X17976Y32551
X18200Y31811
X18480Y31716
X18792Y31321
X18494Y31001
X18494Y30435
X18487Y30149
X18578Y29488
X18375Y28743
X18543Y28511
X18243Y28476
X17618Y28312
X17322Y28312
X16696Y28517
X16410Y28517
X16574Y28800
X16678Y29476
X16519Y29745
X16339Y30322
X16815Y30322
X17301Y30168
X17301Y30500
X17301Y30795
X17294Y31086
X16531Y31308
X16535Y31685
X15732Y31693
X15759Y31359
X15464Y31791
X14985Y31834
X14960Y32429
X14960Y32822
X14960Y33216
X14960Y33610
X14960Y34003
X14960Y34397
X14960Y34791
X14960Y35185
X14999Y35814
X14960Y36208
X14960Y36523
X14960Y36897
X15088Y37380
X14999Y37744
X14960Y38374
X15244Y38484
X14960Y38925
X14981Y40087
X14960Y40775
X15984Y37507
X16110Y37212
X16979Y37697
X18971Y37989
X19848Y38437
X19980Y38826
X20318Y38755
X20741Y38433
X21181Y38334
X21922Y38412
X22450Y39348
X22590Y39627
X22661Y39934
X22923Y39244
X23754Y39273
X23946Y39598
X24690Y39252
X24616Y38404
X24910Y38404
X25201Y38404
X26387Y38462
X26417Y38925
X26142Y39456
X26116Y40360
X25006Y40487
X27322Y40775
X27637Y40775
X27952Y40775
X26758Y37871
X26602Y37632
X26830Y37340
X27047Y36913
X26606Y36915
X26508Y36231
X27024Y35942
X27300Y36496
X27311Y35287
X28110Y33610
X28110Y33295
X28110Y32980
X28110Y32665
X28110Y32350
X28110Y32035
X28110Y31720
X28110Y31405
X28110Y31090
X27591Y30476
X28031Y29870
X28110Y29397
X27539Y28799
X27539Y28480
X27539Y28162
X27539Y27844
X27539Y27525
X27175Y27199
X27893Y27156
X26297Y27987
X26430Y28566
X25866Y29476
X25633Y30180
X25647Y30500
X25642Y30788
X25641Y31086
X24854Y31308
X24845Y31721
X24335Y31336
X24045Y31120
X24045Y30547
X24082Y30161
X24686Y30295
X25186Y30288
X24846Y29742
X24967Y29076
X24650Y29076
X24304Y29076
X25314Y29065
X23503Y29476
X21287Y30161
X21289Y30560
X21289Y30999
X21371Y31383
X22098Y31361
X22047Y31643
X20905Y31775
X20581Y31783
X20559Y32275
X20149Y31995
X20078Y31166
X20101Y30795
X20088Y30500
X20078Y30000
X19783Y30263
X19114Y30308
X19314Y29766
X19243Y28890
X19474Y28310
X20184Y28517
X20476Y28517
X20334Y28807
X20457Y29476
X21103Y28356
X21431Y28305
X19436Y31314
X19237Y31720
X17624Y31770
X17090Y32389
X17090Y33150
X17090Y33911
X17091Y34673
X20774Y34620
X20570Y34945
X20732Y35833
X19653Y36933
X20452Y39556
X20896Y39460
X20989Y39190
X21192Y39553
X23698Y38211
X23756Y37928
X25329Y32395
X25708Y32744
X26795Y32599
X26746Y31870
X26434Y31902
X25971Y31770
X27506Y32077
X21184Y33132
X15698Y30588
X15736Y30123
X15454Y29801
X14963Y29762
X15561Y29210
X15295Y28898
X14960Y28216
X14960Y27822
X14980Y27237
X15551Y27429
X15748Y28312
X15088Y31120
X17529Y18142
X17873Y17935
X17992Y18437
X17962Y19835
T02
X46122Y142254
X46437Y142943
X46752Y142254
X47067Y142943
X47382Y142254
X45315Y142854G85X45315Y142342
X48189Y142854G85X48189Y142342
X29472Y17039
X29944Y17039
X32307Y20582
X33173Y17039
T03
X17480Y114509
X17480Y113009
X18386Y114529
X18386Y113029
X19291Y114529
X19291Y113029
X20197Y114529
X20197Y113029
X30512Y113754
X30512Y112254
X32293Y113779
X32293Y112279
X33090Y113771
X33090Y112271
X34370Y113771
X34370Y112271
X35551Y113830
X35551Y112330
X62903Y114448
X62903Y112519
X64045Y114448
X64045Y112519
X21055Y32133
X22633Y32133
X24055Y32133
T04
X15079Y140009
X15079Y135728
X15079Y130384
X15079Y126072
X15079Y122175
X15079Y118031
X15079Y114084
X15079Y110384
X15138Y107697
X20335Y147244
X24616Y147244
X28799Y147244
X33297Y147244
X37943Y147244
X41988Y147244
X46270Y147254
X50453Y147254
X54951Y147254
X59094Y147234
X63642Y147254
X67785Y147234
X72333Y147254
X77401Y140590
X77401Y136309
X77401Y130964
X77401Y126653
X77401Y122756
X77401Y118612
X77401Y114665
X77401Y110964
X77401Y107824
X19252Y128061
X19252Y127061
X19252Y126061
X19252Y125061
X19252Y124061
X19252Y123061
X28081Y114842
X29075Y114842
X30069Y114842
X31063Y114842
X31555Y118336
X32136Y114842
X32894Y118326
X33209Y114832
X34006Y118326
X34272Y114832
X35118Y118326
X35623Y114843
X35905Y141151
X36575Y113110
X36905Y141151
X37905Y141151
X38905Y141151
X39163Y112067
X39905Y141151
X40096Y113873
X40263Y117443
X40266Y112037
X40905Y141151
X41140Y113873
X41338Y112067
X41905Y141151
X42183Y113873
X42648Y112047
X42905Y141151
X43226Y113873
X43730Y112047
X44269Y113873
X44503Y118263
X45108Y112047
X45323Y113873
X45843Y118823
X46171Y112047
X46383Y113873
X47214Y112047
X47423Y113873
X48218Y112047
X48483Y113873
X49685Y117854
X60093Y115453
X69102Y143159
X69102Y142159
X69102Y141159
X69102Y140159
X69102Y139159
X70102Y143159
X70102Y142159
X70102Y141159
X70102Y140159
X70102Y139159
X71102Y143159
X71102Y142159
X71102Y141159
X71102Y140159
X71102Y139159
X73055Y139978
X73055Y138978
X73055Y137978
X73055Y136978
X73055Y135978
X73055Y134738
X73055Y133738
X73055Y132738
X73055Y131738
X73055Y130738
X73055Y129458
X73055Y128458
X73055Y127458
X73055Y126458
X73055Y125458
X74055Y139978
X74055Y138978
X74055Y137978
X74055Y136978
X74055Y135978
X74055Y134738
X74055Y133738
X74055Y132738
X74055Y131738
X74055Y130738
X74055Y129458
X74055Y128458
X74055Y127458
X74055Y126458
X74055Y125458
X75055Y139978
X75055Y138978
X75055Y137978
X75055Y136978
X75055Y135978
X75055Y134738
X75055Y133738
X75055Y132738
X75055Y131738
X75055Y130738
X75055Y129458
X75055Y128458
X75055Y127458
X75055Y126458
X75055Y125458
X29015Y24475
X29015Y29220
X35118Y29200
X35118Y28452
X35118Y26759
X35118Y24298
X35118Y31720
X29015Y31897
X29015Y31168
X22385Y21838
X23173Y23020
X23960Y21838
X15259Y21760
X17259Y22160
X17259Y21360
X15275Y40460
X24354Y39489
X24354Y40289
X26354Y39889
T05
X29586Y109309
X29586Y108309
X29586Y105928
X29586Y104928
X30586Y109309
X30586Y108309
X30586Y105928
X30586Y104928
X31586Y109309
X31586Y108309
X31586Y105928
X31586Y104928
X32586Y109309
X32586Y108309
X32586Y105928
X32586Y104928
X33586Y109309
X33586Y108309
X33586Y105928
X33586Y104928
X34586Y109309
X34586Y108309
X34586Y105928
X34586Y104928
X35586Y109309
X35586Y108309
X35586Y105928
X35586Y104928
X36586Y109309
X36586Y108309
X36586Y105928
X36586Y104928
X37586Y109309
X37586Y108309
X37586Y105928
X37586Y104928
X38586Y109309
X38586Y108309
X38586Y105928
X38586Y104928
X39586Y109309
X39586Y108309
X39586Y105928
X39586Y104928
X40586Y109309
X40586Y108309
X40586Y105928
X40586Y104928
X41586Y109309
X41586Y108309
X41586Y105928
X41586Y104928
X42586Y109309
X42586Y108309
X42586Y105928
X42586Y104928
X43586Y109309
X43586Y108309
X43586Y105928
X43586Y104928
X44586Y109309
X44586Y108309
X44586Y105928
X44586Y104928
X45586Y109309
X45586Y108309
X45586Y105928
X45586Y104928
X46586Y109309
X46586Y108309
X46586Y105928
X46586Y104928
X47586Y109309
X47586Y108309
X47586Y105928
X47586Y104928
X53873Y109309
X53873Y108309
X53873Y105928
X53873Y104928
X54873Y109309
X54873Y108309
X54873Y105928
X54873Y104928
X55873Y109309
X55873Y108309
X55873Y105928
X55873Y104928
X56873Y109309
X56873Y108309
X56873Y105928
X56873Y104928
X57873Y109309
X57873Y108309
X57873Y105928
X57873Y104928
X58873Y109309
X58873Y108309
X58873Y105928
X58873Y104928
X59873Y109309
X59873Y108309
X59873Y105928
X59873Y104928
X60873Y109309
X60873Y108309
X60873Y105928
X60873Y104928
X22208Y25647
X23208Y25647
X24208Y25647
T06
X49764Y143120
X51220Y142254
X51968Y143120
X53425Y142254
X54409Y143120
T07
X22361Y107211
X24192Y109309
X24192Y106109
X25334Y107026
X26475Y109309
X26475Y106109
X63956Y109309
X63956Y106109
X65098Y107026
X66239Y109309
X66239Y106109
X67420Y107026
X68562Y109309
X68562Y106109
X70314Y107211
T08
X21397Y104140
X50727Y104140
X71279Y104140
M30
