G75*
G70*
%OFA0B0*%
%FSLAX25Y25*%
%IPPOS*%
%LPD*%
%AMOC8*
5,1,8,0,0,1.08239X$1,22.5*
%
%AMM14*
21,1,0.092130,0.073230,0.000000,0.000000,270.000000*
21,1,0.069290,0.096060,0.000000,0.000000,270.000000*
1,1,0.022840,-0.036610,-0.034650*
1,1,0.022840,-0.036610,0.034650*
1,1,0.022840,0.036610,0.034650*
1,1,0.022840,0.036610,-0.034650*
%
%AMM15*
21,1,0.100000,0.111020,0.000000,0.000000,0.000000*
21,1,0.075590,0.135430,0.000000,0.000000,0.000000*
1,1,0.024410,0.037800,-0.055510*
1,1,0.024410,-0.037800,-0.055510*
1,1,0.024410,-0.037800,0.055510*
1,1,0.024410,0.037800,0.055510*
%
%AMM16*
21,1,0.080320,0.083460,0.000000,0.000000,0.000000*
21,1,0.059840,0.103940,0.000000,0.000000,0.000000*
1,1,0.020470,0.029920,-0.041730*
1,1,0.020470,-0.029920,-0.041730*
1,1,0.020470,-0.029920,0.041730*
1,1,0.020470,0.029920,0.041730*
%
%AMM17*
21,1,0.084250,0.053540,0.000000,0.000000,180.000000*
21,1,0.065350,0.072440,0.000000,0.000000,180.000000*
1,1,0.018900,-0.032680,0.026770*
1,1,0.018900,0.032680,0.026770*
1,1,0.018900,0.032680,-0.026770*
1,1,0.018900,-0.032680,-0.026770*
%
%AMM18*
21,1,0.040950,0.030320,0.000000,0.000000,90.000000*
21,1,0.028350,0.042910,0.000000,0.000000,90.000000*
1,1,0.012600,0.015160,0.014170*
1,1,0.012600,0.015160,-0.014170*
1,1,0.012600,-0.015160,-0.014170*
1,1,0.012600,-0.015160,0.014170*
%
%AMM19*
21,1,0.027170,0.052760,0.000000,0.000000,270.000000*
21,1,0.017320,0.062600,0.000000,0.000000,270.000000*
1,1,0.009840,-0.026380,-0.008660*
1,1,0.009840,-0.026380,0.008660*
1,1,0.009840,0.026380,0.008660*
1,1,0.009840,0.026380,-0.008660*
%
%AMM20*
21,1,0.041340,0.026770,0.000000,0.000000,0.000000*
21,1,0.029130,0.038980,0.000000,0.000000,0.000000*
1,1,0.012210,0.014570,-0.013390*
1,1,0.012210,-0.014570,-0.013390*
1,1,0.012210,-0.014570,0.013390*
1,1,0.012210,0.014570,0.013390*
%
%AMM21*
21,1,0.076380,0.036220,0.000000,0.000000,90.000000*
21,1,0.061810,0.050790,0.000000,0.000000,90.000000*
1,1,0.014570,0.018110,0.030910*
1,1,0.014570,0.018110,-0.030910*
1,1,0.014570,-0.018110,-0.030910*
1,1,0.014570,-0.018110,0.030910*
%
%AMM22*
21,1,0.038980,0.026770,0.000000,0.000000,0.000000*
21,1,0.026770,0.038980,0.000000,0.000000,0.000000*
1,1,0.012210,0.013390,-0.013390*
1,1,0.012210,-0.013390,-0.013390*
1,1,0.012210,-0.013390,0.013390*
1,1,0.012210,0.013390,0.013390*
%
%AMM23*
21,1,0.021260,0.016540,0.000000,0.000000,270.000000*
21,1,0.012600,0.025200,0.000000,0.000000,270.000000*
1,1,0.008660,-0.008270,-0.006300*
1,1,0.008660,-0.008270,0.006300*
1,1,0.008660,0.008270,0.006300*
1,1,0.008660,0.008270,-0.006300*
%
%AMM24*
21,1,0.029130,0.018900,0.000000,0.000000,90.000000*
21,1,0.018900,0.029130,0.000000,0.000000,90.000000*
1,1,0.010240,0.009450,0.009450*
1,1,0.010240,0.009450,-0.009450*
1,1,0.010240,-0.009450,-0.009450*
1,1,0.010240,-0.009450,0.009450*
%
%AMM25*
21,1,0.025200,0.019680,0.000000,0.000000,0.000000*
21,1,0.015750,0.029130,0.000000,0.000000,0.000000*
1,1,0.009450,0.007870,-0.009840*
1,1,0.009450,-0.007870,-0.009840*
1,1,0.009450,-0.007870,0.009840*
1,1,0.009450,0.007870,0.009840*
%
%AMM26*
21,1,0.025200,0.019680,0.000000,0.000000,270.000000*
21,1,0.015750,0.029130,0.000000,0.000000,270.000000*
1,1,0.009450,-0.009840,-0.007870*
1,1,0.009450,-0.009840,0.007870*
1,1,0.009450,0.009840,0.007870*
1,1,0.009450,0.009840,-0.007870*
%
%AMM55*
21,1,0.029530,0.026380,0.000000,0.000000,270.000000*
21,1,0.020470,0.035430,0.000000,0.000000,270.000000*
1,1,0.009060,-0.013190,-0.010240*
1,1,0.009060,-0.013190,0.010240*
1,1,0.009060,0.013190,0.010240*
1,1,0.009060,0.013190,-0.010240*
%
%AMM56*
21,1,0.021650,0.027950,0.000000,0.000000,270.000000*
21,1,0.014170,0.035430,0.000000,0.000000,270.000000*
1,1,0.007480,-0.013980,-0.007090*
1,1,0.007480,-0.013980,0.007090*
1,1,0.007480,0.013980,0.007090*
1,1,0.007480,0.013980,-0.007090*
%
%AMM57*
21,1,0.016540,0.028980,0.000000,0.000000,90.000000*
21,1,0.010080,0.035430,0.000000,0.000000,90.000000*
1,1,0.006460,0.014490,0.005040*
1,1,0.006460,0.014490,-0.005040*
1,1,0.006460,-0.014490,-0.005040*
1,1,0.006460,-0.014490,0.005040*
%
%AMM58*
21,1,0.027560,0.030710,0.000000,0.000000,180.000000*
21,1,0.018900,0.039370,0.000000,0.000000,180.000000*
1,1,0.008660,-0.009450,0.015350*
1,1,0.008660,0.009450,0.015350*
1,1,0.008660,0.009450,-0.015350*
1,1,0.008660,-0.009450,-0.015350*
%
%AMM59*
21,1,0.031500,0.018900,0.000000,0.000000,90.000000*
21,1,0.022840,0.027560,0.000000,0.000000,90.000000*
1,1,0.008660,0.009450,0.011420*
1,1,0.008660,0.009450,-0.011420*
1,1,0.008660,-0.009450,-0.011420*
1,1,0.008660,-0.009450,0.011420*
%
%AMM60*
21,1,0.035430,0.072440,0.000000,0.000000,90.000000*
21,1,0.025200,0.082680,0.000000,0.000000,90.000000*
1,1,0.010240,0.036220,0.012600*
1,1,0.010240,0.036220,-0.012600*
1,1,0.010240,-0.036220,-0.012600*
1,1,0.010240,-0.036220,0.012600*
%
%AMM61*
21,1,0.031500,0.018900,0.000000,0.000000,180.000000*
21,1,0.022840,0.027560,0.000000,0.000000,180.000000*
1,1,0.008660,-0.011420,0.009450*
1,1,0.008660,0.011420,0.009450*
1,1,0.008660,0.011420,-0.009450*
1,1,0.008660,-0.011420,-0.009450*
%
%AMM62*
21,1,0.027560,0.030710,0.000000,0.000000,270.000000*
21,1,0.018900,0.039370,0.000000,0.000000,270.000000*
1,1,0.008660,-0.015350,-0.009450*
1,1,0.008660,-0.015350,0.009450*
1,1,0.008660,0.015350,0.009450*
1,1,0.008660,0.015350,-0.009450*
%
%AMM63*
21,1,0.039370,0.030320,0.000000,0.000000,270.000000*
21,1,0.028350,0.041340,0.000000,0.000000,270.000000*
1,1,0.011020,-0.015160,-0.014170*
1,1,0.011020,-0.015160,0.014170*
1,1,0.011020,0.015160,0.014170*
1,1,0.011020,0.015160,-0.014170*
%
%AMM64*
21,1,0.047240,0.075980,0.000000,0.000000,0.000000*
21,1,0.034650,0.088580,0.000000,0.000000,0.000000*
1,1,0.012600,0.017320,-0.037990*
1,1,0.012600,-0.017320,-0.037990*
1,1,0.012600,-0.017320,0.037990*
1,1,0.012600,0.017320,0.037990*
%
%AMM65*
21,1,0.043310,0.035430,0.000000,0.000000,0.000000*
21,1,0.031500,0.047240,0.000000,0.000000,0.000000*
1,1,0.011810,0.015750,-0.017720*
1,1,0.011810,-0.015750,-0.017720*
1,1,0.011810,-0.015750,0.017720*
1,1,0.011810,0.015750,0.017720*
%
%AMM66*
21,1,0.031500,0.030710,0.000000,0.000000,0.000000*
21,1,0.022050,0.040160,0.000000,0.000000,0.000000*
1,1,0.009450,0.011020,-0.015350*
1,1,0.009450,-0.011020,-0.015350*
1,1,0.009450,-0.011020,0.015350*
1,1,0.009450,0.011020,0.015350*
%
%AMM67*
21,1,0.035430,0.072440,0.000000,0.000000,0.000000*
21,1,0.025200,0.082680,0.000000,0.000000,0.000000*
1,1,0.010240,0.012600,-0.036220*
1,1,0.010240,-0.012600,-0.036220*
1,1,0.010240,-0.012600,0.036220*
1,1,0.010240,0.012600,0.036220*
%
%AMM68*
21,1,0.141730,0.067720,0.000000,0.000000,0.000000*
21,1,0.120870,0.088580,0.000000,0.000000,0.000000*
1,1,0.020870,0.060430,-0.033860*
1,1,0.020870,-0.060430,-0.033860*
1,1,0.020870,-0.060430,0.033860*
1,1,0.020870,0.060430,0.033860*
%
%AMM69*
21,1,0.047240,0.075990,0.000000,0.000000,0.000000*
21,1,0.034650,0.088580,0.000000,0.000000,0.000000*
1,1,0.012600,0.017320,-0.037990*
1,1,0.012600,-0.017320,-0.037990*
1,1,0.012600,-0.017320,0.037990*
1,1,0.012600,0.017320,0.037990*
%
%AMM70*
21,1,0.090550,0.073230,0.000000,0.000000,90.000000*
21,1,0.069290,0.094490,0.000000,0.000000,90.000000*
1,1,0.021260,0.036610,0.034650*
1,1,0.021260,0.036610,-0.034650*
1,1,0.021260,-0.036610,-0.034650*
1,1,0.021260,-0.036610,0.034650*
%
%AMM95*
21,1,0.040950,0.030320,0.000000,0.000000,180.000000*
21,1,0.028350,0.042910,0.000000,0.000000,180.000000*
1,1,0.012600,-0.014170,0.015160*
1,1,0.012600,0.014170,0.015160*
1,1,0.012600,0.014170,-0.015160*
1,1,0.012600,-0.014170,-0.015160*
%
%AMM96*
21,1,0.033070,0.030710,0.000000,0.000000,180.000000*
21,1,0.022050,0.041730,0.000000,0.000000,180.000000*
1,1,0.011020,-0.011020,0.015350*
1,1,0.011020,0.011020,0.015350*
1,1,0.011020,0.011020,-0.015350*
1,1,0.011020,-0.011020,-0.015350*
%
%ADD10C,0.00394*%
%ADD100M14*%
%ADD101M15*%
%ADD102M16*%
%ADD103M17*%
%ADD104M18*%
%ADD105M19*%
%ADD106M20*%
%ADD107M21*%
%ADD108M22*%
%ADD109M23*%
%ADD11C,0.00591*%
%ADD110M24*%
%ADD111M25*%
%ADD112M26*%
%ADD113C,0.02913*%
%ADD114C,0.06457*%
%ADD12C,0.01181*%
%ADD13C,0.01575*%
%ADD137R,0.02559X0.01575*%
%ADD138R,0.01575X0.02559*%
%ADD14C,0.05906*%
%ADD140R,0.05512X0.01181*%
%ADD147R,0.07874X0.02559*%
%ADD148R,0.17717X0.31890*%
%ADD15C,0.02362*%
%ADD150R,0.03543X0.03150*%
%ADD151R,0.04724X0.08661*%
%ADD152C,0.05118*%
%ADD153R,0.22835X0.25197*%
%ADD154R,0.03150X0.03543*%
%ADD162C,0.03100*%
%ADD163R,0.07500X0.07874*%
%ADD164O,0.07500X0.07874*%
%ADD166C,0.03900*%
%ADD197M55*%
%ADD198M56*%
%ADD199M57*%
%ADD200O,0.05118X0.01260*%
%ADD201O,0.01260X0.05118*%
%ADD202O,0.04724X0.01575*%
%ADD203C,0.03494*%
%ADD204M58*%
%ADD205M59*%
%ADD206R,0.01772X0.01378*%
%ADD207R,0.01378X0.01772*%
%ADD208M60*%
%ADD209M61*%
%ADD210M62*%
%ADD211M63*%
%ADD212O,0.09055X0.02756*%
%ADD213M64*%
%ADD214M65*%
%ADD215M66*%
%ADD216M67*%
%ADD217M68*%
%ADD218M69*%
%ADD219C,0.03543*%
%ADD220M70*%
%ADD221C,0.04724*%
%ADD222C,0.04294*%
%ADD262O,0.02520X0.01535*%
%ADD263O,0.01535X0.02520*%
%ADD264M95*%
%ADD265O,0.09213X0.02913*%
%ADD266M96*%
%ADD32C,0.06000*%
%ADD33O,0.06693X0.07283*%
%ADD50R,0.04331X0.04331*%
%ADD51C,0.04331*%
%ADD52O,0.09449X0.04331*%
%ADD56O,0.01969X0.00984*%
%ADD58O,0.00984X0.01969*%
%ADD59C,0.14567*%
%ADD60C,0.08661*%
%ADD61C,0.10236*%
X0000000Y0000000D02*
%LPD*%
G01*
D10*
D11*
X1188189Y0133858D02*
X1613386Y0133858D01*
X1613386Y0007874D01*
X1188189Y0007874D01*
X1188189Y0133858D01*
D10*
D11*
X0000000Y1414960D02*
X1621260Y1414960D01*
X1621260Y0000000D01*
X0000000Y0000000D01*
X0000000Y1414960D01*
D10*
D11*
X0007874Y1407086D02*
X1613386Y1407086D01*
X1613386Y0007874D01*
X0007874Y0007874D01*
X0007874Y1407086D01*
D10*
D11*
X0196850Y1407086D02*
X0196850Y1414960D01*
D10*
D11*
X0393701Y1407086D02*
X0393701Y1414960D01*
D10*
D11*
X0590551Y1407086D02*
X0590551Y1414960D01*
D10*
D11*
X0787401Y1407086D02*
X0787401Y1414960D01*
D10*
D11*
X0984252Y1407086D02*
X0984252Y1414960D01*
D10*
D11*
X1181102Y1407086D02*
X1181102Y1414960D01*
D10*
D11*
X1377953Y1407086D02*
X1377953Y1414960D01*
D10*
D11*
X1574803Y1407086D02*
X1574803Y1414960D01*
D10*
D11*
X0102713Y1408686D02*
X0099788Y1408686D01*
X0101251Y1408686D02*
X0101251Y1413804D01*
X0101251Y1413804D02*
X0100763Y1413073D01*
X0100763Y1413073D02*
X0100276Y1412586D01*
X0100276Y1412586D02*
X0099788Y1412342D01*
D10*
D11*
X0296639Y1413317D02*
X0296883Y1413561D01*
X0296883Y1413561D02*
X0297370Y1413804D01*
X0297370Y1413804D02*
X0298589Y1413804D01*
X0298589Y1413804D02*
X0299076Y1413561D01*
X0299076Y1413561D02*
X0299320Y1413317D01*
X0299320Y1413317D02*
X0299563Y1412829D01*
X0299563Y1412829D02*
X0299563Y1412342D01*
X0299563Y1412342D02*
X0299320Y1411611D01*
X0299320Y1411611D02*
X0296395Y1408686D01*
X0296395Y1408686D02*
X0299563Y1408686D01*
D10*
D11*
X0493245Y1413804D02*
X0496414Y1413804D01*
X0496414Y1413804D02*
X0494708Y1411854D01*
X0494708Y1411854D02*
X0495439Y1411854D01*
X0495439Y1411854D02*
X0495926Y1411611D01*
X0495926Y1411611D02*
X0496170Y1411367D01*
X0496170Y1411367D02*
X0496414Y1410880D01*
X0496414Y1410880D02*
X0496414Y1409661D01*
X0496414Y1409661D02*
X0496170Y1409174D01*
X0496170Y1409174D02*
X0495926Y1408930D01*
X0495926Y1408930D02*
X0495439Y1408686D01*
X0495439Y1408686D02*
X0493977Y1408686D01*
X0493977Y1408686D02*
X0493489Y1408930D01*
X0493489Y1408930D02*
X0493245Y1409174D01*
D10*
D11*
X0692777Y1412098D02*
X0692777Y1408686D01*
X0691558Y1414048D02*
X0690340Y1410392D01*
X0690340Y1410392D02*
X0693508Y1410392D01*
D10*
D11*
X0889871Y1413804D02*
X0887434Y1413804D01*
X0887434Y1413804D02*
X0887190Y1411367D01*
X0887190Y1411367D02*
X0887434Y1411611D01*
X0887434Y1411611D02*
X0887921Y1411854D01*
X0887921Y1411854D02*
X0889140Y1411854D01*
X0889140Y1411854D02*
X0889627Y1411611D01*
X0889627Y1411611D02*
X0889871Y1411367D01*
X0889871Y1411367D02*
X0890115Y1410880D01*
X0890115Y1410880D02*
X0890115Y1409661D01*
X0890115Y1409661D02*
X0889871Y1409174D01*
X0889871Y1409174D02*
X0889627Y1408930D01*
X0889627Y1408930D02*
X0889140Y1408686D01*
X0889140Y1408686D02*
X0887921Y1408686D01*
X0887921Y1408686D02*
X0887434Y1408930D01*
X0887434Y1408930D02*
X0887190Y1409174D01*
D10*
D11*
X1086478Y1413804D02*
X1085503Y1413804D01*
X1085503Y1413804D02*
X1085015Y1413561D01*
X1085015Y1413561D02*
X1084772Y1413317D01*
X1084772Y1413317D02*
X1084284Y1412586D01*
X1084284Y1412586D02*
X1084040Y1411611D01*
X1084040Y1411611D02*
X1084040Y1409661D01*
X1084040Y1409661D02*
X1084284Y1409174D01*
X1084284Y1409174D02*
X1084528Y1408930D01*
X1084528Y1408930D02*
X1085015Y1408686D01*
X1085015Y1408686D02*
X1085990Y1408686D01*
X1085990Y1408686D02*
X1086478Y1408930D01*
X1086478Y1408930D02*
X1086721Y1409174D01*
X1086721Y1409174D02*
X1086965Y1409661D01*
X1086965Y1409661D02*
X1086965Y1410880D01*
X1086965Y1410880D02*
X1086721Y1411367D01*
X1086721Y1411367D02*
X1086478Y1411611D01*
X1086478Y1411611D02*
X1085990Y1411854D01*
X1085990Y1411854D02*
X1085015Y1411854D01*
X1085015Y1411854D02*
X1084528Y1411611D01*
X1084528Y1411611D02*
X1084284Y1411367D01*
X1084284Y1411367D02*
X1084040Y1410880D01*
D10*
D11*
X1280647Y1413804D02*
X1284059Y1413804D01*
X1284059Y1413804D02*
X1281866Y1408686D01*
D10*
D11*
X1478716Y1411611D02*
X1478229Y1411854D01*
X1478229Y1411854D02*
X1477985Y1412098D01*
X1477985Y1412098D02*
X1477741Y1412586D01*
X1477741Y1412586D02*
X1477741Y1412829D01*
X1477741Y1412829D02*
X1477985Y1413317D01*
X1477985Y1413317D02*
X1478229Y1413561D01*
X1478229Y1413561D02*
X1478716Y1413804D01*
X1478716Y1413804D02*
X1479691Y1413804D01*
X1479691Y1413804D02*
X1480178Y1413561D01*
X1480178Y1413561D02*
X1480422Y1413317D01*
X1480422Y1413317D02*
X1480666Y1412829D01*
X1480666Y1412829D02*
X1480666Y1412586D01*
X1480666Y1412586D02*
X1480422Y1412098D01*
X1480422Y1412098D02*
X1480178Y1411854D01*
X1480178Y1411854D02*
X1479691Y1411611D01*
X1479691Y1411611D02*
X1478716Y1411611D01*
X1478716Y1411611D02*
X1478229Y1411367D01*
X1478229Y1411367D02*
X1477985Y1411123D01*
X1477985Y1411123D02*
X1477741Y1410636D01*
X1477741Y1410636D02*
X1477741Y1409661D01*
X1477741Y1409661D02*
X1477985Y1409174D01*
X1477985Y1409174D02*
X1478229Y1408930D01*
X1478229Y1408930D02*
X1478716Y1408686D01*
X1478716Y1408686D02*
X1479691Y1408686D01*
X1479691Y1408686D02*
X1480178Y1408930D01*
X1480178Y1408930D02*
X1480422Y1409174D01*
X1480422Y1409174D02*
X1480666Y1409661D01*
X1480666Y1409661D02*
X1480666Y1410636D01*
X1480666Y1410636D02*
X1480422Y1411123D01*
X1480422Y1411123D02*
X1480178Y1411367D01*
X1480178Y1411367D02*
X1479691Y1411611D01*
D10*
D11*
X0196850Y0007874D02*
X0196850Y0000000D01*
D10*
D11*
X0393701Y0007874D02*
X0393701Y0000000D01*
D10*
D11*
X0590551Y0007874D02*
X0590551Y0000000D01*
D10*
D11*
X0787401Y0007874D02*
X0787401Y0000000D01*
D10*
D11*
X0984252Y0007874D02*
X0984252Y0000000D01*
D10*
D11*
X1181102Y0007874D02*
X1181102Y0000000D01*
D10*
D11*
X1377953Y0007874D02*
X1377953Y0000000D01*
D10*
D11*
X1574803Y0007874D02*
X1574803Y0000000D01*
D10*
D11*
X0102713Y0001600D02*
X0099788Y0001600D01*
X0101251Y0001600D02*
X0101251Y0006718D01*
X0101251Y0006718D02*
X0100763Y0005986D01*
X0100763Y0005986D02*
X0100276Y0005499D01*
X0100276Y0005499D02*
X0099788Y0005255D01*
D10*
D11*
X0296639Y0006230D02*
X0296883Y0006474D01*
X0296883Y0006474D02*
X0297370Y0006718D01*
X0297370Y0006718D02*
X0298589Y0006718D01*
X0298589Y0006718D02*
X0299076Y0006474D01*
X0299076Y0006474D02*
X0299320Y0006230D01*
X0299320Y0006230D02*
X0299563Y0005743D01*
X0299563Y0005743D02*
X0299563Y0005255D01*
X0299563Y0005255D02*
X0299320Y0004524D01*
X0299320Y0004524D02*
X0296395Y0001600D01*
X0296395Y0001600D02*
X0299563Y0001600D01*
D10*
D11*
X0493245Y0006718D02*
X0496414Y0006718D01*
X0496414Y0006718D02*
X0494708Y0004768D01*
X0494708Y0004768D02*
X0495439Y0004768D01*
X0495439Y0004768D02*
X0495926Y0004524D01*
X0495926Y0004524D02*
X0496170Y0004280D01*
X0496170Y0004280D02*
X0496414Y0003793D01*
X0496414Y0003793D02*
X0496414Y0002574D01*
X0496414Y0002574D02*
X0496170Y0002087D01*
X0496170Y0002087D02*
X0495926Y0001843D01*
X0495926Y0001843D02*
X0495439Y0001600D01*
X0495439Y0001600D02*
X0493977Y0001600D01*
X0493977Y0001600D02*
X0493489Y0001843D01*
X0493489Y0001843D02*
X0493245Y0002087D01*
D10*
D11*
X0692777Y0005012D02*
X0692777Y0001600D01*
X0691558Y0006961D02*
X0690340Y0003306D01*
X0690340Y0003306D02*
X0693508Y0003306D01*
D10*
D11*
X0889871Y0006718D02*
X0887434Y0006718D01*
X0887434Y0006718D02*
X0887190Y0004280D01*
X0887190Y0004280D02*
X0887434Y0004524D01*
X0887434Y0004524D02*
X0887921Y0004768D01*
X0887921Y0004768D02*
X0889140Y0004768D01*
X0889140Y0004768D02*
X0889627Y0004524D01*
X0889627Y0004524D02*
X0889871Y0004280D01*
X0889871Y0004280D02*
X0890115Y0003793D01*
X0890115Y0003793D02*
X0890115Y0002574D01*
X0890115Y0002574D02*
X0889871Y0002087D01*
X0889871Y0002087D02*
X0889627Y0001843D01*
X0889627Y0001843D02*
X0889140Y0001600D01*
X0889140Y0001600D02*
X0887921Y0001600D01*
X0887921Y0001600D02*
X0887434Y0001843D01*
X0887434Y0001843D02*
X0887190Y0002087D01*
D10*
D11*
X1086478Y0006718D02*
X1085503Y0006718D01*
X1085503Y0006718D02*
X1085015Y0006474D01*
X1085015Y0006474D02*
X1084772Y0006230D01*
X1084772Y0006230D02*
X1084284Y0005499D01*
X1084284Y0005499D02*
X1084040Y0004524D01*
X1084040Y0004524D02*
X1084040Y0002574D01*
X1084040Y0002574D02*
X1084284Y0002087D01*
X1084284Y0002087D02*
X1084528Y0001843D01*
X1084528Y0001843D02*
X1085015Y0001600D01*
X1085015Y0001600D02*
X1085990Y0001600D01*
X1085990Y0001600D02*
X1086478Y0001843D01*
X1086478Y0001843D02*
X1086721Y0002087D01*
X1086721Y0002087D02*
X1086965Y0002574D01*
X1086965Y0002574D02*
X1086965Y0003793D01*
X1086965Y0003793D02*
X1086721Y0004280D01*
X1086721Y0004280D02*
X1086478Y0004524D01*
X1086478Y0004524D02*
X1085990Y0004768D01*
X1085990Y0004768D02*
X1085015Y0004768D01*
X1085015Y0004768D02*
X1084528Y0004524D01*
X1084528Y0004524D02*
X1084284Y0004280D01*
X1084284Y0004280D02*
X1084040Y0003793D01*
D10*
D11*
X1280647Y0006718D02*
X1284059Y0006718D01*
X1284059Y0006718D02*
X1281866Y0001600D01*
D10*
D11*
X1478716Y0004524D02*
X1478229Y0004768D01*
X1478229Y0004768D02*
X1477985Y0005012D01*
X1477985Y0005012D02*
X1477741Y0005499D01*
X1477741Y0005499D02*
X1477741Y0005743D01*
X1477741Y0005743D02*
X1477985Y0006230D01*
X1477985Y0006230D02*
X1478229Y0006474D01*
X1478229Y0006474D02*
X1478716Y0006718D01*
X1478716Y0006718D02*
X1479691Y0006718D01*
X1479691Y0006718D02*
X1480178Y0006474D01*
X1480178Y0006474D02*
X1480422Y0006230D01*
X1480422Y0006230D02*
X1480666Y0005743D01*
X1480666Y0005743D02*
X1480666Y0005499D01*
X1480666Y0005499D02*
X1480422Y0005012D01*
X1480422Y0005012D02*
X1480178Y0004768D01*
X1480178Y0004768D02*
X1479691Y0004524D01*
X1479691Y0004524D02*
X1478716Y0004524D01*
X1478716Y0004524D02*
X1478229Y0004280D01*
X1478229Y0004280D02*
X1477985Y0004037D01*
X1477985Y0004037D02*
X1477741Y0003549D01*
X1477741Y0003549D02*
X1477741Y0002574D01*
X1477741Y0002574D02*
X1477985Y0002087D01*
X1477985Y0002087D02*
X1478229Y0001843D01*
X1478229Y0001843D02*
X1478716Y0001600D01*
X1478716Y0001600D02*
X1479691Y0001600D01*
X1479691Y0001600D02*
X1480178Y0001843D01*
X1480178Y0001843D02*
X1480422Y0002087D01*
X1480422Y0002087D02*
X1480666Y0002574D01*
X1480666Y0002574D02*
X1480666Y0003549D01*
X1480666Y0003549D02*
X1480422Y0004037D01*
X1480422Y0004037D02*
X1480178Y0004280D01*
X1480178Y0004280D02*
X1479691Y0004524D01*
D10*
D11*
X0000000Y1218110D02*
X0007874Y1218110D01*
D10*
D11*
X0000000Y1021259D02*
X0007874Y1021259D01*
D10*
D11*
X0000000Y0824409D02*
X0007874Y0824409D01*
D10*
D11*
X0000000Y0627559D02*
X0007874Y0627559D01*
D10*
D11*
X0000000Y0430708D02*
X0007874Y0430708D01*
D10*
D11*
X0000000Y0233858D02*
X0007874Y0233858D01*
D10*
D11*
X0000000Y0037007D02*
X0007874Y0037007D01*
D10*
D11*
X0002718Y1315660D02*
X0005155Y1315660D01*
X0002231Y1314198D02*
X0003937Y1319316D01*
X0003937Y1319316D02*
X0005643Y1314198D01*
D10*
D11*
X0004302Y1120028D02*
X0005034Y1119785D01*
X0005034Y1119785D02*
X0005277Y1119541D01*
X0005277Y1119541D02*
X0005521Y1119054D01*
X0005521Y1119054D02*
X0005521Y1118322D01*
X0005521Y1118322D02*
X0005277Y1117835D01*
X0005277Y1117835D02*
X0005034Y1117591D01*
X0005034Y1117591D02*
X0004546Y1117348D01*
X0004546Y1117348D02*
X0002596Y1117348D01*
X0002596Y1117348D02*
X0002596Y1122466D01*
X0002596Y1122466D02*
X0004302Y1122466D01*
X0004302Y1122466D02*
X0004790Y1122222D01*
X0004790Y1122222D02*
X0005034Y1121978D01*
X0005034Y1121978D02*
X0005277Y1121491D01*
X0005277Y1121491D02*
X0005277Y1121003D01*
X0005277Y1121003D02*
X0005034Y1120516D01*
X0005034Y1120516D02*
X0004790Y1120272D01*
X0004790Y1120272D02*
X0004302Y1120028D01*
X0004302Y1120028D02*
X0002596Y1120028D01*
D10*
D11*
X0005521Y0920985D02*
X0005277Y0920741D01*
X0005277Y0920741D02*
X0004546Y0920497D01*
X0004546Y0920497D02*
X0004059Y0920497D01*
X0004059Y0920497D02*
X0003328Y0920741D01*
X0003328Y0920741D02*
X0002840Y0921228D01*
X0002840Y0921228D02*
X0002596Y0921716D01*
X0002596Y0921716D02*
X0002353Y0922691D01*
X0002353Y0922691D02*
X0002353Y0923422D01*
X0002353Y0923422D02*
X0002596Y0924397D01*
X0002596Y0924397D02*
X0002840Y0924884D01*
X0002840Y0924884D02*
X0003328Y0925372D01*
X0003328Y0925372D02*
X0004059Y0925615D01*
X0004059Y0925615D02*
X0004546Y0925615D01*
X0004546Y0925615D02*
X0005277Y0925372D01*
X0005277Y0925372D02*
X0005521Y0925128D01*
D10*
D11*
X0002596Y0723647D02*
X0002596Y0728765D01*
X0002596Y0728765D02*
X0003815Y0728765D01*
X0003815Y0728765D02*
X0004546Y0728521D01*
X0004546Y0728521D02*
X0005034Y0728034D01*
X0005034Y0728034D02*
X0005277Y0727546D01*
X0005277Y0727546D02*
X0005521Y0726571D01*
X0005521Y0726571D02*
X0005521Y0725840D01*
X0005521Y0725840D02*
X0005277Y0724865D01*
X0005277Y0724865D02*
X0005034Y0724378D01*
X0005034Y0724378D02*
X0004546Y0723890D01*
X0004546Y0723890D02*
X0003815Y0723647D01*
X0003815Y0723647D02*
X0002596Y0723647D01*
D10*
D11*
X0002840Y0529477D02*
X0004546Y0529477D01*
X0005277Y0526796D02*
X0002840Y0526796D01*
X0002840Y0526796D02*
X0002840Y0531914D01*
X0002840Y0531914D02*
X0005277Y0531914D01*
D10*
D11*
X0004668Y0332627D02*
X0002962Y0332627D01*
X0002962Y0329946D02*
X0002962Y0335064D01*
X0002962Y0335064D02*
X0005399Y0335064D01*
D10*
D11*
X0005277Y0137970D02*
X0004790Y0138214D01*
X0004790Y0138214D02*
X0004059Y0138214D01*
X0004059Y0138214D02*
X0003328Y0137970D01*
X0003328Y0137970D02*
X0002840Y0137483D01*
X0002840Y0137483D02*
X0002596Y0136995D01*
X0002596Y0136995D02*
X0002353Y0136020D01*
X0002353Y0136020D02*
X0002353Y0135289D01*
X0002353Y0135289D02*
X0002596Y0134314D01*
X0002596Y0134314D02*
X0002840Y0133827D01*
X0002840Y0133827D02*
X0003328Y0133339D01*
X0003328Y0133339D02*
X0004059Y0133096D01*
X0004059Y0133096D02*
X0004546Y0133096D01*
X0004546Y0133096D02*
X0005277Y0133339D01*
X0005277Y0133339D02*
X0005521Y0133583D01*
X0005521Y0133583D02*
X0005521Y0135289D01*
X0005521Y0135289D02*
X0004546Y0135289D01*
D10*
D11*
X1621260Y1218110D02*
X1613386Y1218110D01*
D10*
D11*
X1621260Y1021259D02*
X1613386Y1021259D01*
D10*
D11*
X1621260Y0824409D02*
X1613386Y0824409D01*
D10*
D11*
X1621260Y0627559D02*
X1613386Y0627559D01*
D10*
D11*
X1621260Y0430708D02*
X1613386Y0430708D01*
D10*
D11*
X1621260Y0233858D02*
X1613386Y0233858D01*
D10*
D11*
X1621260Y0037007D02*
X1613386Y0037007D01*
D10*
D11*
X1616104Y1315660D02*
X1618541Y1315660D01*
X1615617Y1314198D02*
X1617323Y1319316D01*
X1617323Y1319316D02*
X1619029Y1314198D01*
D10*
D11*
X1617688Y1120028D02*
X1618419Y1119785D01*
X1618419Y1119785D02*
X1618663Y1119541D01*
X1618663Y1119541D02*
X1618907Y1119054D01*
X1618907Y1119054D02*
X1618907Y1118322D01*
X1618907Y1118322D02*
X1618663Y1117835D01*
X1618663Y1117835D02*
X1618419Y1117591D01*
X1618419Y1117591D02*
X1617932Y1117348D01*
X1617932Y1117348D02*
X1615982Y1117348D01*
X1615982Y1117348D02*
X1615982Y1122466D01*
X1615982Y1122466D02*
X1617688Y1122466D01*
X1617688Y1122466D02*
X1618176Y1122222D01*
X1618176Y1122222D02*
X1618419Y1121978D01*
X1618419Y1121978D02*
X1618663Y1121491D01*
X1618663Y1121491D02*
X1618663Y1121003D01*
X1618663Y1121003D02*
X1618419Y1120516D01*
X1618419Y1120516D02*
X1618176Y1120272D01*
X1618176Y1120272D02*
X1617688Y1120028D01*
X1617688Y1120028D02*
X1615982Y1120028D01*
D10*
D11*
X1618907Y0920985D02*
X1618663Y0920741D01*
X1618663Y0920741D02*
X1617932Y0920497D01*
X1617932Y0920497D02*
X1617445Y0920497D01*
X1617445Y0920497D02*
X1616713Y0920741D01*
X1616713Y0920741D02*
X1616226Y0921228D01*
X1616226Y0921228D02*
X1615982Y0921716D01*
X1615982Y0921716D02*
X1615738Y0922691D01*
X1615738Y0922691D02*
X1615738Y0923422D01*
X1615738Y0923422D02*
X1615982Y0924397D01*
X1615982Y0924397D02*
X1616226Y0924884D01*
X1616226Y0924884D02*
X1616713Y0925372D01*
X1616713Y0925372D02*
X1617445Y0925615D01*
X1617445Y0925615D02*
X1617932Y0925615D01*
X1617932Y0925615D02*
X1618663Y0925372D01*
X1618663Y0925372D02*
X1618907Y0925128D01*
D10*
D11*
X1615982Y0723647D02*
X1615982Y0728765D01*
X1615982Y0728765D02*
X1617201Y0728765D01*
X1617201Y0728765D02*
X1617932Y0728521D01*
X1617932Y0728521D02*
X1618419Y0728034D01*
X1618419Y0728034D02*
X1618663Y0727546D01*
X1618663Y0727546D02*
X1618907Y0726571D01*
X1618907Y0726571D02*
X1618907Y0725840D01*
X1618907Y0725840D02*
X1618663Y0724865D01*
X1618663Y0724865D02*
X1618419Y0724378D01*
X1618419Y0724378D02*
X1617932Y0723890D01*
X1617932Y0723890D02*
X1617201Y0723647D01*
X1617201Y0723647D02*
X1615982Y0723647D01*
D10*
D11*
X1616226Y0529477D02*
X1617932Y0529477D01*
X1618663Y0526796D02*
X1616226Y0526796D01*
X1616226Y0526796D02*
X1616226Y0531914D01*
X1616226Y0531914D02*
X1618663Y0531914D01*
D10*
D11*
X1618054Y0332627D02*
X1616348Y0332627D01*
X1616348Y0329946D02*
X1616348Y0335064D01*
X1616348Y0335064D02*
X1618785Y0335064D01*
D10*
D11*
X1618663Y0137970D02*
X1618176Y0138214D01*
X1618176Y0138214D02*
X1617445Y0138214D01*
X1617445Y0138214D02*
X1616713Y0137970D01*
X1616713Y0137970D02*
X1616226Y0137483D01*
X1616226Y0137483D02*
X1615982Y0136995D01*
X1615982Y0136995D02*
X1615738Y0136020D01*
X1615738Y0136020D02*
X1615738Y0135289D01*
X1615738Y0135289D02*
X1615982Y0134314D01*
X1615982Y0134314D02*
X1616226Y0133827D01*
X1616226Y0133827D02*
X1616713Y0133339D01*
X1616713Y0133339D02*
X1617445Y0133096D01*
X1617445Y0133096D02*
X1617932Y0133096D01*
X1617932Y0133096D02*
X1618663Y0133339D01*
X1618663Y0133339D02*
X1618907Y0133583D01*
X1618907Y0133583D02*
X1618907Y0135289D01*
X1618907Y0135289D02*
X1617932Y0135289D01*
D10*
D11*
X1280535Y0024464D02*
X1280535Y0030369D01*
X1280535Y0030369D02*
X1281941Y0030369D01*
X1281941Y0030369D02*
X1282784Y0030088D01*
X1282784Y0030088D02*
X1283347Y0029525D01*
X1283347Y0029525D02*
X1283628Y0028963D01*
X1283628Y0028963D02*
X1283909Y0027838D01*
X1283909Y0027838D02*
X1283909Y0026995D01*
X1283909Y0026995D02*
X1283628Y0025870D01*
X1283628Y0025870D02*
X1283347Y0025307D01*
X1283347Y0025307D02*
X1282784Y0024745D01*
X1282784Y0024745D02*
X1281941Y0024464D01*
X1281941Y0024464D02*
X1280535Y0024464D01*
X1288971Y0024464D02*
X1288971Y0027557D01*
X1288971Y0027557D02*
X1288690Y0028119D01*
X1288690Y0028119D02*
X1288127Y0028401D01*
X1288127Y0028401D02*
X1287003Y0028401D01*
X1287003Y0028401D02*
X1286440Y0028119D01*
X1288971Y0024745D02*
X1288409Y0024464D01*
X1288409Y0024464D02*
X1287003Y0024464D01*
X1287003Y0024464D02*
X1286440Y0024745D01*
X1286440Y0024745D02*
X1286159Y0025307D01*
X1286159Y0025307D02*
X1286159Y0025870D01*
X1286159Y0025870D02*
X1286440Y0026432D01*
X1286440Y0026432D02*
X1287003Y0026713D01*
X1287003Y0026713D02*
X1288409Y0026713D01*
X1288409Y0026713D02*
X1288971Y0026995D01*
X1290940Y0028401D02*
X1293189Y0028401D01*
X1291783Y0030369D02*
X1291783Y0025307D01*
X1291783Y0025307D02*
X1292064Y0024745D01*
X1292064Y0024745D02*
X1292627Y0024464D01*
X1292627Y0024464D02*
X1293189Y0024464D01*
X1297407Y0024745D02*
X1296845Y0024464D01*
X1296845Y0024464D02*
X1295720Y0024464D01*
X1295720Y0024464D02*
X1295158Y0024745D01*
X1295158Y0024745D02*
X1294877Y0025307D01*
X1294877Y0025307D02*
X1294877Y0027557D01*
X1294877Y0027557D02*
X1295158Y0028119D01*
X1295158Y0028119D02*
X1295720Y0028401D01*
X1295720Y0028401D02*
X1296845Y0028401D01*
X1296845Y0028401D02*
X1297407Y0028119D01*
X1297407Y0028119D02*
X1297689Y0027557D01*
X1297689Y0027557D02*
X1297689Y0026995D01*
X1297689Y0026995D02*
X1294877Y0026432D01*
X1300220Y0025026D02*
X1300501Y0024745D01*
X1300501Y0024745D02*
X1300220Y0024464D01*
X1300220Y0024464D02*
X1299938Y0024745D01*
X1299938Y0024745D02*
X1300220Y0025026D01*
X1300220Y0025026D02*
X1300220Y0024464D01*
X1300220Y0028119D02*
X1300501Y0027838D01*
X1300501Y0027838D02*
X1300220Y0027557D01*
X1300220Y0027557D02*
X1299938Y0027838D01*
X1299938Y0027838D02*
X1300220Y0028119D01*
X1300220Y0028119D02*
X1300220Y0027557D01*
X1307250Y0029807D02*
X1307531Y0030088D01*
X1307531Y0030088D02*
X1308094Y0030369D01*
X1308094Y0030369D02*
X1309500Y0030369D01*
X1309500Y0030369D02*
X1310062Y0030088D01*
X1310062Y0030088D02*
X1310343Y0029807D01*
X1310343Y0029807D02*
X1310625Y0029244D01*
X1310625Y0029244D02*
X1310625Y0028682D01*
X1310625Y0028682D02*
X1310343Y0027838D01*
X1310343Y0027838D02*
X1306969Y0024464D01*
X1306969Y0024464D02*
X1310625Y0024464D01*
X1314280Y0030369D02*
X1314843Y0030369D01*
X1314843Y0030369D02*
X1315405Y0030088D01*
X1315405Y0030088D02*
X1315686Y0029807D01*
X1315686Y0029807D02*
X1315968Y0029244D01*
X1315968Y0029244D02*
X1316249Y0028119D01*
X1316249Y0028119D02*
X1316249Y0026713D01*
X1316249Y0026713D02*
X1315968Y0025588D01*
X1315968Y0025588D02*
X1315686Y0025026D01*
X1315686Y0025026D02*
X1315405Y0024745D01*
X1315405Y0024745D02*
X1314843Y0024464D01*
X1314843Y0024464D02*
X1314280Y0024464D01*
X1314280Y0024464D02*
X1313718Y0024745D01*
X1313718Y0024745D02*
X1313437Y0025026D01*
X1313437Y0025026D02*
X1313155Y0025588D01*
X1313155Y0025588D02*
X1312874Y0026713D01*
X1312874Y0026713D02*
X1312874Y0028119D01*
X1312874Y0028119D02*
X1313155Y0029244D01*
X1313155Y0029244D02*
X1313437Y0029807D01*
X1313437Y0029807D02*
X1313718Y0030088D01*
X1313718Y0030088D02*
X1314280Y0030369D01*
X1318499Y0029807D02*
X1318780Y0030088D01*
X1318780Y0030088D02*
X1319342Y0030369D01*
X1319342Y0030369D02*
X1320748Y0030369D01*
X1320748Y0030369D02*
X1321311Y0030088D01*
X1321311Y0030088D02*
X1321592Y0029807D01*
X1321592Y0029807D02*
X1321873Y0029244D01*
X1321873Y0029244D02*
X1321873Y0028682D01*
X1321873Y0028682D02*
X1321592Y0027838D01*
X1321592Y0027838D02*
X1318217Y0024464D01*
X1318217Y0024464D02*
X1321873Y0024464D01*
X1324123Y0029807D02*
X1324404Y0030088D01*
X1324404Y0030088D02*
X1324967Y0030369D01*
X1324967Y0030369D02*
X1326373Y0030369D01*
X1326373Y0030369D02*
X1326935Y0030088D01*
X1326935Y0030088D02*
X1327216Y0029807D01*
X1327216Y0029807D02*
X1327497Y0029244D01*
X1327497Y0029244D02*
X1327497Y0028682D01*
X1327497Y0028682D02*
X1327216Y0027838D01*
X1327216Y0027838D02*
X1323842Y0024464D01*
X1323842Y0024464D02*
X1327497Y0024464D01*
X1330028Y0026713D02*
X1334528Y0026713D01*
X1340433Y0024464D02*
X1337059Y0024464D01*
X1338746Y0024464D02*
X1338746Y0030369D01*
X1338746Y0030369D02*
X1338184Y0029525D01*
X1338184Y0029525D02*
X1337621Y0028963D01*
X1337621Y0028963D02*
X1337059Y0028682D01*
X1344089Y0030369D02*
X1344652Y0030369D01*
X1344652Y0030369D02*
X1345214Y0030088D01*
X1345214Y0030088D02*
X1345495Y0029807D01*
X1345495Y0029807D02*
X1345776Y0029244D01*
X1345776Y0029244D02*
X1346058Y0028119D01*
X1346058Y0028119D02*
X1346058Y0026713D01*
X1346058Y0026713D02*
X1345776Y0025588D01*
X1345776Y0025588D02*
X1345495Y0025026D01*
X1345495Y0025026D02*
X1345214Y0024745D01*
X1345214Y0024745D02*
X1344652Y0024464D01*
X1344652Y0024464D02*
X1344089Y0024464D01*
X1344089Y0024464D02*
X1343527Y0024745D01*
X1343527Y0024745D02*
X1343245Y0025026D01*
X1343245Y0025026D02*
X1342964Y0025588D01*
X1342964Y0025588D02*
X1342683Y0026713D01*
X1342683Y0026713D02*
X1342683Y0028119D01*
X1342683Y0028119D02*
X1342964Y0029244D01*
X1342964Y0029244D02*
X1343245Y0029807D01*
X1343245Y0029807D02*
X1343527Y0030088D01*
X1343527Y0030088D02*
X1344089Y0030369D01*
X1348589Y0026713D02*
X1353088Y0026713D01*
X1358994Y0024464D02*
X1355619Y0024464D01*
X1357306Y0024464D02*
X1357306Y0030369D01*
X1357306Y0030369D02*
X1356744Y0029525D01*
X1356744Y0029525D02*
X1356181Y0028963D01*
X1356181Y0028963D02*
X1355619Y0028682D01*
X1364055Y0028401D02*
X1364055Y0024464D01*
X1362649Y0030650D02*
X1361243Y0026432D01*
X1361243Y0026432D02*
X1364899Y0026432D01*
D10*
D11*
X1188189Y0021653D02*
X1613386Y0021653D01*
D10*
D11*
X1193920Y0013440D02*
X1193920Y0019345D01*
X1197295Y0013440D02*
X1194764Y0016815D01*
X1197295Y0019345D02*
X1193920Y0015971D01*
X1199826Y0013440D02*
X1199826Y0017377D01*
X1199826Y0019345D02*
X1199545Y0019064D01*
X1199545Y0019064D02*
X1199826Y0018783D01*
X1199826Y0018783D02*
X1200107Y0019064D01*
X1200107Y0019064D02*
X1199826Y0019345D01*
X1199826Y0019345D02*
X1199826Y0018783D01*
X1206013Y0014002D02*
X1205731Y0013721D01*
X1205731Y0013721D02*
X1204888Y0013440D01*
X1204888Y0013440D02*
X1204325Y0013440D01*
X1204325Y0013440D02*
X1203482Y0013721D01*
X1203482Y0013721D02*
X1202919Y0014284D01*
X1202919Y0014284D02*
X1202638Y0014846D01*
X1202638Y0014846D02*
X1202357Y0015971D01*
X1202357Y0015971D02*
X1202357Y0016815D01*
X1202357Y0016815D02*
X1202638Y0017939D01*
X1202638Y0017939D02*
X1202919Y0018502D01*
X1202919Y0018502D02*
X1203482Y0019064D01*
X1203482Y0019064D02*
X1204325Y0019345D01*
X1204325Y0019345D02*
X1204888Y0019345D01*
X1204888Y0019345D02*
X1205731Y0019064D01*
X1205731Y0019064D02*
X1206013Y0018783D01*
X1211075Y0013440D02*
X1211075Y0016533D01*
X1211075Y0016533D02*
X1210793Y0017096D01*
X1210793Y0017096D02*
X1210231Y0017377D01*
X1210231Y0017377D02*
X1209106Y0017377D01*
X1209106Y0017377D02*
X1208544Y0017096D01*
X1211075Y0013721D02*
X1210512Y0013440D01*
X1210512Y0013440D02*
X1209106Y0013440D01*
X1209106Y0013440D02*
X1208544Y0013721D01*
X1208544Y0013721D02*
X1208262Y0014284D01*
X1208262Y0014284D02*
X1208262Y0014846D01*
X1208262Y0014846D02*
X1208544Y0015408D01*
X1208544Y0015408D02*
X1209106Y0015690D01*
X1209106Y0015690D02*
X1210512Y0015690D01*
X1210512Y0015690D02*
X1211075Y0015971D01*
X1216418Y0013440D02*
X1216418Y0019345D01*
X1216418Y0013721D02*
X1215855Y0013440D01*
X1215855Y0013440D02*
X1214730Y0013440D01*
X1214730Y0013440D02*
X1214168Y0013721D01*
X1214168Y0013721D02*
X1213887Y0014002D01*
X1213887Y0014002D02*
X1213605Y0014565D01*
X1213605Y0014565D02*
X1213605Y0016252D01*
X1213605Y0016252D02*
X1213887Y0016815D01*
X1213887Y0016815D02*
X1214168Y0017096D01*
X1214168Y0017096D02*
X1214730Y0017377D01*
X1214730Y0017377D02*
X1215855Y0017377D01*
X1215855Y0017377D02*
X1216418Y0017096D01*
X1223729Y0016533D02*
X1225698Y0016533D01*
X1226541Y0013440D02*
X1223729Y0013440D01*
X1223729Y0013440D02*
X1223729Y0019345D01*
X1223729Y0019345D02*
X1226541Y0019345D01*
X1229072Y0014002D02*
X1229353Y0013721D01*
X1229353Y0013721D02*
X1229072Y0013440D01*
X1229072Y0013440D02*
X1228791Y0013721D01*
X1228791Y0013721D02*
X1229072Y0014002D01*
X1229072Y0014002D02*
X1229072Y0013440D01*
X1231884Y0013440D02*
X1231884Y0019345D01*
X1231884Y0019345D02*
X1233290Y0019345D01*
X1233290Y0019345D02*
X1234134Y0019064D01*
X1234134Y0019064D02*
X1234697Y0018502D01*
X1234697Y0018502D02*
X1234978Y0017939D01*
X1234978Y0017939D02*
X1235259Y0016815D01*
X1235259Y0016815D02*
X1235259Y0015971D01*
X1235259Y0015971D02*
X1234978Y0014846D01*
X1234978Y0014846D02*
X1234697Y0014284D01*
X1234697Y0014284D02*
X1234134Y0013721D01*
X1234134Y0013721D02*
X1233290Y0013440D01*
X1233290Y0013440D02*
X1231884Y0013440D01*
X1237790Y0014002D02*
X1238071Y0013721D01*
X1238071Y0013721D02*
X1237790Y0013440D01*
X1237790Y0013440D02*
X1237509Y0013721D01*
X1237509Y0013721D02*
X1237790Y0014002D01*
X1237790Y0014002D02*
X1237790Y0013440D01*
X1240321Y0015127D02*
X1243133Y0015127D01*
X1239758Y0013440D02*
X1241727Y0019345D01*
X1241727Y0019345D02*
X1243695Y0013440D01*
X1245664Y0014002D02*
X1245945Y0013721D01*
X1245945Y0013721D02*
X1245664Y0013440D01*
X1245664Y0013440D02*
X1245383Y0013721D01*
X1245383Y0013721D02*
X1245664Y0014002D01*
X1245664Y0014002D02*
X1245664Y0013440D01*
X1253819Y0016815D02*
X1253257Y0017096D01*
X1253257Y0017096D02*
X1252976Y0017377D01*
X1252976Y0017377D02*
X1252694Y0017939D01*
X1252694Y0017939D02*
X1252694Y0018221D01*
X1252694Y0018221D02*
X1252976Y0018783D01*
X1252976Y0018783D02*
X1253257Y0019064D01*
X1253257Y0019064D02*
X1253819Y0019345D01*
X1253819Y0019345D02*
X1254944Y0019345D01*
X1254944Y0019345D02*
X1255506Y0019064D01*
X1255506Y0019064D02*
X1255788Y0018783D01*
X1255788Y0018783D02*
X1256069Y0018221D01*
X1256069Y0018221D02*
X1256069Y0017939D01*
X1256069Y0017939D02*
X1255788Y0017377D01*
X1255788Y0017377D02*
X1255506Y0017096D01*
X1255506Y0017096D02*
X1254944Y0016815D01*
X1254944Y0016815D02*
X1253819Y0016815D01*
X1253819Y0016815D02*
X1253257Y0016533D01*
X1253257Y0016533D02*
X1252976Y0016252D01*
X1252976Y0016252D02*
X1252694Y0015690D01*
X1252694Y0015690D02*
X1252694Y0014565D01*
X1252694Y0014565D02*
X1252976Y0014002D01*
X1252976Y0014002D02*
X1253257Y0013721D01*
X1253257Y0013721D02*
X1253819Y0013440D01*
X1253819Y0013440D02*
X1254944Y0013440D01*
X1254944Y0013440D02*
X1255506Y0013721D01*
X1255506Y0013721D02*
X1255788Y0014002D01*
X1255788Y0014002D02*
X1256069Y0014565D01*
X1256069Y0014565D02*
X1256069Y0015690D01*
X1256069Y0015690D02*
X1255788Y0016252D01*
X1255788Y0016252D02*
X1255506Y0016533D01*
X1255506Y0016533D02*
X1254944Y0016815D01*
X1258600Y0014002D02*
X1258881Y0013721D01*
X1258881Y0013721D02*
X1258600Y0013440D01*
X1258600Y0013440D02*
X1258319Y0013721D01*
X1258319Y0013721D02*
X1258600Y0014002D01*
X1258600Y0014002D02*
X1258600Y0013440D01*
X1262537Y0019345D02*
X1263099Y0019345D01*
X1263099Y0019345D02*
X1263662Y0019064D01*
X1263662Y0019064D02*
X1263943Y0018783D01*
X1263943Y0018783D02*
X1264224Y0018221D01*
X1264224Y0018221D02*
X1264505Y0017096D01*
X1264505Y0017096D02*
X1264505Y0015690D01*
X1264505Y0015690D02*
X1264224Y0014565D01*
X1264224Y0014565D02*
X1263943Y0014002D01*
X1263943Y0014002D02*
X1263662Y0013721D01*
X1263662Y0013721D02*
X1263099Y0013440D01*
X1263099Y0013440D02*
X1262537Y0013440D01*
X1262537Y0013440D02*
X1261974Y0013721D01*
X1261974Y0013721D02*
X1261693Y0014002D01*
X1261693Y0014002D02*
X1261412Y0014565D01*
X1261412Y0014565D02*
X1261131Y0015690D01*
X1261131Y0015690D02*
X1261131Y0017096D01*
X1261131Y0017096D02*
X1261412Y0018221D01*
X1261412Y0018221D02*
X1261693Y0018783D01*
X1261693Y0018783D02*
X1261974Y0019064D01*
X1261974Y0019064D02*
X1262537Y0019345D01*
X1267036Y0014002D02*
X1267317Y0013721D01*
X1267317Y0013721D02*
X1267036Y0013440D01*
X1267036Y0013440D02*
X1266755Y0013721D01*
X1266755Y0013721D02*
X1267036Y0014002D01*
X1267036Y0014002D02*
X1267036Y0013440D01*
X1270692Y0016815D02*
X1270130Y0017096D01*
X1270130Y0017096D02*
X1269848Y0017377D01*
X1269848Y0017377D02*
X1269567Y0017939D01*
X1269567Y0017939D02*
X1269567Y0018221D01*
X1269567Y0018221D02*
X1269848Y0018783D01*
X1269848Y0018783D02*
X1270130Y0019064D01*
X1270130Y0019064D02*
X1270692Y0019345D01*
X1270692Y0019345D02*
X1271817Y0019345D01*
X1271817Y0019345D02*
X1272379Y0019064D01*
X1272379Y0019064D02*
X1272661Y0018783D01*
X1272661Y0018783D02*
X1272942Y0018221D01*
X1272942Y0018221D02*
X1272942Y0017939D01*
X1272942Y0017939D02*
X1272661Y0017377D01*
X1272661Y0017377D02*
X1272379Y0017096D01*
X1272379Y0017096D02*
X1271817Y0016815D01*
X1271817Y0016815D02*
X1270692Y0016815D01*
X1270692Y0016815D02*
X1270130Y0016533D01*
X1270130Y0016533D02*
X1269848Y0016252D01*
X1269848Y0016252D02*
X1269567Y0015690D01*
X1269567Y0015690D02*
X1269567Y0014565D01*
X1269567Y0014565D02*
X1269848Y0014002D01*
X1269848Y0014002D02*
X1270130Y0013721D01*
X1270130Y0013721D02*
X1270692Y0013440D01*
X1270692Y0013440D02*
X1271817Y0013440D01*
X1271817Y0013440D02*
X1272379Y0013721D01*
X1272379Y0013721D02*
X1272661Y0014002D01*
X1272661Y0014002D02*
X1272942Y0014565D01*
X1272942Y0014565D02*
X1272942Y0015690D01*
X1272942Y0015690D02*
X1272661Y0016252D01*
X1272661Y0016252D02*
X1272379Y0016533D01*
X1272379Y0016533D02*
X1271817Y0016815D01*
D10*
D11*
X1188189Y0033464D02*
X1613386Y0033464D01*
D10*
D12*
X1532329Y0024494D02*
X1530361Y0027306D01*
X1528955Y0024494D02*
X1528955Y0030400D01*
X1528955Y0030400D02*
X1531204Y0030400D01*
X1531204Y0030400D02*
X1531767Y0030119D01*
X1531767Y0030119D02*
X1532048Y0029837D01*
X1532048Y0029837D02*
X1532329Y0029275D01*
X1532329Y0029275D02*
X1532329Y0028431D01*
X1532329Y0028431D02*
X1532048Y0027869D01*
X1532048Y0027869D02*
X1531767Y0027588D01*
X1531767Y0027588D02*
X1531204Y0027306D01*
X1531204Y0027306D02*
X1528955Y0027306D01*
X1537110Y0024776D02*
X1536547Y0024494D01*
X1536547Y0024494D02*
X1535423Y0024494D01*
X1535423Y0024494D02*
X1534860Y0024776D01*
X1534860Y0024776D02*
X1534579Y0025338D01*
X1534579Y0025338D02*
X1534579Y0027588D01*
X1534579Y0027588D02*
X1534860Y0028150D01*
X1534860Y0028150D02*
X1535423Y0028431D01*
X1535423Y0028431D02*
X1536547Y0028431D01*
X1536547Y0028431D02*
X1537110Y0028150D01*
X1537110Y0028150D02*
X1537391Y0027588D01*
X1537391Y0027588D02*
X1537391Y0027025D01*
X1537391Y0027025D02*
X1534579Y0026463D01*
X1539360Y0028431D02*
X1540766Y0024494D01*
X1540766Y0024494D02*
X1542172Y0028431D01*
X1544421Y0025057D02*
X1544703Y0024776D01*
X1544703Y0024776D02*
X1544421Y0024494D01*
X1544421Y0024494D02*
X1544140Y0024776D01*
X1544140Y0024776D02*
X1544421Y0025057D01*
X1544421Y0025057D02*
X1544421Y0024494D01*
X1544421Y0028150D02*
X1544703Y0027869D01*
X1544703Y0027869D02*
X1544421Y0027588D01*
X1544421Y0027588D02*
X1544140Y0027869D01*
X1544140Y0027869D02*
X1544421Y0028150D01*
X1544421Y0028150D02*
X1544421Y0027588D01*
X1554264Y0024494D02*
X1554264Y0030400D01*
X1554264Y0024776D02*
X1553701Y0024494D01*
X1553701Y0024494D02*
X1552577Y0024494D01*
X1552577Y0024494D02*
X1552014Y0024776D01*
X1552014Y0024776D02*
X1551733Y0025057D01*
X1551733Y0025057D02*
X1551452Y0025619D01*
X1551452Y0025619D02*
X1551452Y0027306D01*
X1551452Y0027306D02*
X1551733Y0027869D01*
X1551733Y0027869D02*
X1552014Y0028150D01*
X1552014Y0028150D02*
X1552577Y0028431D01*
X1552577Y0028431D02*
X1553701Y0028431D01*
X1553701Y0028431D02*
X1554264Y0028150D01*
D10*
D11*
X1193639Y0024745D02*
X1194483Y0024464D01*
X1194483Y0024464D02*
X1195889Y0024464D01*
X1195889Y0024464D02*
X1196451Y0024745D01*
X1196451Y0024745D02*
X1196733Y0025026D01*
X1196733Y0025026D02*
X1197014Y0025588D01*
X1197014Y0025588D02*
X1197014Y0026151D01*
X1197014Y0026151D02*
X1196733Y0026713D01*
X1196733Y0026713D02*
X1196451Y0026995D01*
X1196451Y0026995D02*
X1195889Y0027276D01*
X1195889Y0027276D02*
X1194764Y0027557D01*
X1194764Y0027557D02*
X1194202Y0027838D01*
X1194202Y0027838D02*
X1193920Y0028119D01*
X1193920Y0028119D02*
X1193639Y0028682D01*
X1193639Y0028682D02*
X1193639Y0029244D01*
X1193639Y0029244D02*
X1193920Y0029807D01*
X1193920Y0029807D02*
X1194202Y0030088D01*
X1194202Y0030088D02*
X1194764Y0030369D01*
X1194764Y0030369D02*
X1196170Y0030369D01*
X1196170Y0030369D02*
X1197014Y0030088D01*
X1199545Y0024464D02*
X1199545Y0028401D01*
X1199545Y0030369D02*
X1199263Y0030088D01*
X1199263Y0030088D02*
X1199545Y0029807D01*
X1199545Y0029807D02*
X1199826Y0030088D01*
X1199826Y0030088D02*
X1199545Y0030369D01*
X1199545Y0030369D02*
X1199545Y0029807D01*
X1201794Y0028401D02*
X1204888Y0028401D01*
X1204888Y0028401D02*
X1201794Y0024464D01*
X1201794Y0024464D02*
X1204888Y0024464D01*
X1209387Y0024745D02*
X1208825Y0024464D01*
X1208825Y0024464D02*
X1207700Y0024464D01*
X1207700Y0024464D02*
X1207137Y0024745D01*
X1207137Y0024745D02*
X1206856Y0025307D01*
X1206856Y0025307D02*
X1206856Y0027557D01*
X1206856Y0027557D02*
X1207137Y0028119D01*
X1207137Y0028119D02*
X1207700Y0028401D01*
X1207700Y0028401D02*
X1208825Y0028401D01*
X1208825Y0028401D02*
X1209387Y0028119D01*
X1209387Y0028119D02*
X1209668Y0027557D01*
X1209668Y0027557D02*
X1209668Y0026995D01*
X1209668Y0026995D02*
X1206856Y0026432D01*
X1212199Y0025026D02*
X1212481Y0024745D01*
X1212481Y0024745D02*
X1212199Y0024464D01*
X1212199Y0024464D02*
X1211918Y0024745D01*
X1211918Y0024745D02*
X1212199Y0025026D01*
X1212199Y0025026D02*
X1212199Y0024464D01*
X1212199Y0028119D02*
X1212481Y0027838D01*
X1212481Y0027838D02*
X1212199Y0027557D01*
X1212199Y0027557D02*
X1211918Y0027838D01*
X1211918Y0027838D02*
X1212199Y0028119D01*
X1212199Y0028119D02*
X1212199Y0027557D01*
X1219511Y0030369D02*
X1219511Y0025588D01*
X1219511Y0025588D02*
X1219792Y0025026D01*
X1219792Y0025026D02*
X1220073Y0024745D01*
X1220073Y0024745D02*
X1220636Y0024464D01*
X1220636Y0024464D02*
X1221761Y0024464D01*
X1221761Y0024464D02*
X1222323Y0024745D01*
X1222323Y0024745D02*
X1222604Y0025026D01*
X1222604Y0025026D02*
X1222886Y0025588D01*
X1222886Y0025588D02*
X1222886Y0030369D01*
X1225416Y0024745D02*
X1225979Y0024464D01*
X1225979Y0024464D02*
X1227104Y0024464D01*
X1227104Y0024464D02*
X1227666Y0024745D01*
X1227666Y0024745D02*
X1227947Y0025307D01*
X1227947Y0025307D02*
X1227947Y0025588D01*
X1227947Y0025588D02*
X1227666Y0026151D01*
X1227666Y0026151D02*
X1227104Y0026432D01*
X1227104Y0026432D02*
X1226260Y0026432D01*
X1226260Y0026432D02*
X1225698Y0026713D01*
X1225698Y0026713D02*
X1225416Y0027276D01*
X1225416Y0027276D02*
X1225416Y0027557D01*
X1225416Y0027557D02*
X1225698Y0028119D01*
X1225698Y0028119D02*
X1226260Y0028401D01*
X1226260Y0028401D02*
X1227104Y0028401D01*
X1227104Y0028401D02*
X1227666Y0028119D01*
X1232728Y0024745D02*
X1232166Y0024464D01*
X1232166Y0024464D02*
X1231041Y0024464D01*
X1231041Y0024464D02*
X1230478Y0024745D01*
X1230478Y0024745D02*
X1230197Y0025307D01*
X1230197Y0025307D02*
X1230197Y0027557D01*
X1230197Y0027557D02*
X1230478Y0028119D01*
X1230478Y0028119D02*
X1231041Y0028401D01*
X1231041Y0028401D02*
X1232166Y0028401D01*
X1232166Y0028401D02*
X1232728Y0028119D01*
X1232728Y0028119D02*
X1233009Y0027557D01*
X1233009Y0027557D02*
X1233009Y0026995D01*
X1233009Y0026995D02*
X1230197Y0026432D01*
X1235540Y0024464D02*
X1235540Y0028401D01*
X1235540Y0027276D02*
X1235821Y0027838D01*
X1235821Y0027838D02*
X1236103Y0028119D01*
X1236103Y0028119D02*
X1236665Y0028401D01*
X1236665Y0028401D02*
X1237227Y0028401D01*
D10*
D11*
X1528566Y0013440D02*
X1528566Y0019345D01*
X1533909Y0013440D02*
X1533909Y0019345D01*
X1533909Y0013721D02*
X1533347Y0013440D01*
X1533347Y0013440D02*
X1532222Y0013440D01*
X1532222Y0013440D02*
X1531659Y0013721D01*
X1531659Y0013721D02*
X1531378Y0014002D01*
X1531378Y0014002D02*
X1531097Y0014565D01*
X1531097Y0014565D02*
X1531097Y0016252D01*
X1531097Y0016252D02*
X1531378Y0016815D01*
X1531378Y0016815D02*
X1531659Y0017096D01*
X1531659Y0017096D02*
X1532222Y0017377D01*
X1532222Y0017377D02*
X1533347Y0017377D01*
X1533347Y0017377D02*
X1533909Y0017096D01*
X1536721Y0014002D02*
X1537003Y0013721D01*
X1537003Y0013721D02*
X1536721Y0013440D01*
X1536721Y0013440D02*
X1536440Y0013721D01*
X1536440Y0013721D02*
X1536721Y0014002D01*
X1536721Y0014002D02*
X1536721Y0013440D01*
X1536721Y0017096D02*
X1537003Y0016815D01*
X1537003Y0016815D02*
X1536721Y0016533D01*
X1536721Y0016533D02*
X1536440Y0016815D01*
X1536440Y0016815D02*
X1536721Y0017096D01*
X1536721Y0017096D02*
X1536721Y0016533D01*
X1547126Y0013440D02*
X1543752Y0013440D01*
X1545439Y0013440D02*
X1545439Y0019345D01*
X1545439Y0019345D02*
X1544877Y0018502D01*
X1544877Y0018502D02*
X1544314Y0017939D01*
X1544314Y0017939D02*
X1543752Y0017658D01*
X1553875Y0019627D02*
X1548814Y0012034D01*
X1558937Y0013440D02*
X1555563Y0013440D01*
X1557250Y0013440D02*
X1557250Y0019345D01*
X1557250Y0019345D02*
X1556688Y0018502D01*
X1556688Y0018502D02*
X1556125Y0017939D01*
X1556125Y0017939D02*
X1555563Y0017658D01*
D10*
D11*
X1188189Y0049212D02*
X1613386Y0049212D01*
D10*
D13*
X1194849Y0046439D02*
X1199349Y0046439D01*
X1196115Y0038565D02*
X1197099Y0046439D01*
X1200989Y0038565D02*
X1201645Y0043814D01*
X1201973Y0046439D02*
X1201551Y0046064D01*
X1201551Y0046064D02*
X1201880Y0045689D01*
X1201880Y0045689D02*
X1202301Y0046064D01*
X1202301Y0046064D02*
X1201973Y0046439D01*
X1201973Y0046439D02*
X1201880Y0045689D01*
X1204270Y0043814D02*
X1207269Y0043814D01*
X1205723Y0046439D02*
X1204879Y0039690D01*
X1204879Y0039690D02*
X1205160Y0038940D01*
X1205160Y0038940D02*
X1205863Y0038565D01*
X1205863Y0038565D02*
X1206613Y0038565D01*
X1210363Y0038565D02*
X1209660Y0038940D01*
X1209660Y0038940D02*
X1209379Y0039690D01*
X1209379Y0039690D02*
X1210222Y0046439D01*
X1216409Y0038940D02*
X1215612Y0038565D01*
X1215612Y0038565D02*
X1214112Y0038565D01*
X1214112Y0038565D02*
X1213409Y0038940D01*
X1213409Y0038940D02*
X1213128Y0039690D01*
X1213128Y0039690D02*
X1213503Y0042689D01*
X1213503Y0042689D02*
X1213972Y0043439D01*
X1213972Y0043439D02*
X1214769Y0043814D01*
X1214769Y0043814D02*
X1216268Y0043814D01*
X1216268Y0043814D02*
X1216971Y0043439D01*
X1216971Y0043439D02*
X1217253Y0042689D01*
X1217253Y0042689D02*
X1217159Y0041939D01*
X1217159Y0041939D02*
X1213316Y0041189D01*
X1220205Y0039315D02*
X1220533Y0038940D01*
X1220533Y0038940D02*
X1220112Y0038565D01*
X1220112Y0038565D02*
X1219784Y0038940D01*
X1219784Y0038940D02*
X1220205Y0039315D01*
X1220205Y0039315D02*
X1220112Y0038565D01*
X1220721Y0043439D02*
X1221049Y0043064D01*
X1221049Y0043064D02*
X1220627Y0042689D01*
X1220627Y0042689D02*
X1220299Y0043064D01*
X1220299Y0043064D02*
X1220721Y0043439D01*
X1220721Y0043439D02*
X1220627Y0042689D01*
X1229860Y0038565D02*
X1230845Y0046439D01*
X1230376Y0042689D02*
X1234875Y0042689D01*
X1234360Y0038565D02*
X1235344Y0046439D01*
X1241156Y0038940D02*
X1240359Y0038565D01*
X1240359Y0038565D02*
X1238859Y0038565D01*
X1238859Y0038565D02*
X1238156Y0038940D01*
X1238156Y0038940D02*
X1237875Y0039690D01*
X1237875Y0039690D02*
X1238250Y0042689D01*
X1238250Y0042689D02*
X1238719Y0043439D01*
X1238719Y0043439D02*
X1239515Y0043814D01*
X1239515Y0043814D02*
X1241015Y0043814D01*
X1241015Y0043814D02*
X1241718Y0043439D01*
X1241718Y0043439D02*
X1241999Y0042689D01*
X1241999Y0042689D02*
X1241906Y0041939D01*
X1241906Y0041939D02*
X1238062Y0041189D01*
X1245983Y0038565D02*
X1245280Y0038940D01*
X1245280Y0038940D02*
X1244999Y0039690D01*
X1244999Y0039690D02*
X1245843Y0046439D01*
X1250108Y0038565D02*
X1249405Y0038940D01*
X1249405Y0038940D02*
X1249124Y0039690D01*
X1249124Y0039690D02*
X1249967Y0046439D01*
X1256154Y0038940D02*
X1255357Y0038565D01*
X1255357Y0038565D02*
X1253857Y0038565D01*
X1253857Y0038565D02*
X1253154Y0038940D01*
X1253154Y0038940D02*
X1252873Y0039690D01*
X1252873Y0039690D02*
X1253248Y0042689D01*
X1253248Y0042689D02*
X1253717Y0043439D01*
X1253717Y0043439D02*
X1254514Y0043814D01*
X1254514Y0043814D02*
X1256013Y0043814D01*
X1256013Y0043814D02*
X1256716Y0043439D01*
X1256716Y0043439D02*
X1256998Y0042689D01*
X1256998Y0042689D02*
X1256904Y0041939D01*
X1256904Y0041939D02*
X1253061Y0041189D01*
X1260513Y0043814D02*
X1259857Y0038565D01*
X1260419Y0043064D02*
X1260841Y0043439D01*
X1260841Y0043439D02*
X1261638Y0043814D01*
X1261638Y0043814D02*
X1262763Y0043814D01*
X1262763Y0043814D02*
X1263466Y0043439D01*
X1263466Y0043439D02*
X1263747Y0042689D01*
X1263747Y0042689D02*
X1263231Y0038565D01*
X1271105Y0038565D02*
X1266606Y0038565D01*
X1268856Y0038565D02*
X1269840Y0046439D01*
X1269840Y0046439D02*
X1268949Y0045314D01*
X1268949Y0045314D02*
X1268106Y0044564D01*
X1268106Y0044564D02*
X1267309Y0044189D01*
X1274995Y0045689D02*
X1275417Y0046064D01*
X1275417Y0046064D02*
X1276214Y0046439D01*
X1276214Y0046439D02*
X1278089Y0046439D01*
X1278089Y0046439D02*
X1278792Y0046064D01*
X1278792Y0046064D02*
X1279120Y0045689D01*
X1279120Y0045689D02*
X1279401Y0044939D01*
X1279401Y0044939D02*
X1279307Y0044189D01*
X1279307Y0044189D02*
X1278792Y0043064D01*
X1278792Y0043064D02*
X1273730Y0038565D01*
X1273730Y0038565D02*
X1278604Y0038565D01*
X1286103Y0038565D02*
X1281604Y0038565D01*
X1283854Y0038565D02*
X1284838Y0046439D01*
X1284838Y0046439D02*
X1283947Y0045314D01*
X1283947Y0045314D02*
X1283104Y0044564D01*
X1283104Y0044564D02*
X1282307Y0044189D01*
X1289384Y0043814D02*
X1290603Y0038565D01*
X1290603Y0038565D02*
X1293134Y0043814D01*
X1298852Y0038565D02*
X1299367Y0042689D01*
X1299367Y0042689D02*
X1299086Y0043439D01*
X1299086Y0043439D02*
X1298383Y0043814D01*
X1298383Y0043814D02*
X1296883Y0043814D01*
X1296883Y0043814D02*
X1296086Y0043439D01*
X1298899Y0038940D02*
X1298102Y0038565D01*
X1298102Y0038565D02*
X1296227Y0038565D01*
X1296227Y0038565D02*
X1295524Y0038940D01*
X1295524Y0038940D02*
X1295243Y0039690D01*
X1295243Y0039690D02*
X1295337Y0040440D01*
X1295337Y0040440D02*
X1295805Y0041189D01*
X1295805Y0041189D02*
X1296602Y0041564D01*
X1296602Y0041564D02*
X1298477Y0041564D01*
X1298477Y0041564D02*
X1299274Y0041939D01*
X1306632Y0043814D02*
X1305835Y0037440D01*
X1305835Y0037440D02*
X1305367Y0036690D01*
X1305367Y0036690D02*
X1304945Y0036315D01*
X1304945Y0036315D02*
X1304148Y0035940D01*
X1304148Y0035940D02*
X1303023Y0035940D01*
X1303023Y0035940D02*
X1302320Y0036315D01*
X1306023Y0038940D02*
X1305226Y0038565D01*
X1305226Y0038565D02*
X1303726Y0038565D01*
X1303726Y0038565D02*
X1303023Y0038940D01*
X1303023Y0038940D02*
X1302695Y0039315D01*
X1302695Y0039315D02*
X1302414Y0040065D01*
X1302414Y0040065D02*
X1302695Y0042314D01*
X1302695Y0042314D02*
X1303164Y0043064D01*
X1303164Y0043064D02*
X1303586Y0043439D01*
X1303586Y0043439D02*
X1304382Y0043814D01*
X1304382Y0043814D02*
X1305882Y0043814D01*
X1305882Y0043814D02*
X1306585Y0043439D01*
D10*
D11*
X1195889Y0056691D02*
X1193920Y0056691D01*
X1193920Y0053597D02*
X1193920Y0059503D01*
X1193920Y0059503D02*
X1196733Y0059503D01*
X1198982Y0053597D02*
X1198982Y0057534D01*
X1198982Y0059503D02*
X1198701Y0059222D01*
X1198701Y0059222D02*
X1198982Y0058941D01*
X1198982Y0058941D02*
X1199263Y0059222D01*
X1199263Y0059222D02*
X1198982Y0059503D01*
X1198982Y0059503D02*
X1198982Y0058941D01*
X1202638Y0053597D02*
X1202076Y0053879D01*
X1202076Y0053879D02*
X1201794Y0054441D01*
X1201794Y0054441D02*
X1201794Y0059503D01*
X1207137Y0053879D02*
X1206575Y0053597D01*
X1206575Y0053597D02*
X1205450Y0053597D01*
X1205450Y0053597D02*
X1204888Y0053879D01*
X1204888Y0053879D02*
X1204607Y0054441D01*
X1204607Y0054441D02*
X1204607Y0056691D01*
X1204607Y0056691D02*
X1204888Y0057253D01*
X1204888Y0057253D02*
X1205450Y0057534D01*
X1205450Y0057534D02*
X1206575Y0057534D01*
X1206575Y0057534D02*
X1207137Y0057253D01*
X1207137Y0057253D02*
X1207419Y0056691D01*
X1207419Y0056691D02*
X1207419Y0056128D01*
X1207419Y0056128D02*
X1204607Y0055566D01*
X1209950Y0054160D02*
X1210231Y0053879D01*
X1210231Y0053879D02*
X1209950Y0053597D01*
X1209950Y0053597D02*
X1209668Y0053879D01*
X1209668Y0053879D02*
X1209950Y0054160D01*
X1209950Y0054160D02*
X1209950Y0053597D01*
X1209950Y0057253D02*
X1210231Y0056972D01*
X1210231Y0056972D02*
X1209950Y0056691D01*
X1209950Y0056691D02*
X1209668Y0056972D01*
X1209668Y0056972D02*
X1209950Y0057253D01*
X1209950Y0057253D02*
X1209950Y0056691D01*
X1217261Y0053597D02*
X1217261Y0059503D01*
X1219792Y0053597D02*
X1219792Y0056691D01*
X1219792Y0056691D02*
X1219511Y0057253D01*
X1219511Y0057253D02*
X1218949Y0057534D01*
X1218949Y0057534D02*
X1218105Y0057534D01*
X1218105Y0057534D02*
X1217542Y0057253D01*
X1217542Y0057253D02*
X1217261Y0056972D01*
X1224854Y0053879D02*
X1224292Y0053597D01*
X1224292Y0053597D02*
X1223167Y0053597D01*
X1223167Y0053597D02*
X1222604Y0053879D01*
X1222604Y0053879D02*
X1222323Y0054441D01*
X1222323Y0054441D02*
X1222323Y0056691D01*
X1222323Y0056691D02*
X1222604Y0057253D01*
X1222604Y0057253D02*
X1223167Y0057534D01*
X1223167Y0057534D02*
X1224292Y0057534D01*
X1224292Y0057534D02*
X1224854Y0057253D01*
X1224854Y0057253D02*
X1225135Y0056691D01*
X1225135Y0056691D02*
X1225135Y0056128D01*
X1225135Y0056128D02*
X1222323Y0055566D01*
X1228510Y0053597D02*
X1227947Y0053879D01*
X1227947Y0053879D02*
X1227666Y0054441D01*
X1227666Y0054441D02*
X1227666Y0059503D01*
X1231603Y0053597D02*
X1231041Y0053879D01*
X1231041Y0053879D02*
X1230760Y0054441D01*
X1230760Y0054441D02*
X1230760Y0059503D01*
X1236103Y0053879D02*
X1235540Y0053597D01*
X1235540Y0053597D02*
X1234415Y0053597D01*
X1234415Y0053597D02*
X1233853Y0053879D01*
X1233853Y0053879D02*
X1233572Y0054441D01*
X1233572Y0054441D02*
X1233572Y0056691D01*
X1233572Y0056691D02*
X1233853Y0057253D01*
X1233853Y0057253D02*
X1234415Y0057534D01*
X1234415Y0057534D02*
X1235540Y0057534D01*
X1235540Y0057534D02*
X1236103Y0057253D01*
X1236103Y0057253D02*
X1236384Y0056691D01*
X1236384Y0056691D02*
X1236384Y0056128D01*
X1236384Y0056128D02*
X1233572Y0055566D01*
X1238915Y0057534D02*
X1238915Y0053597D01*
X1238915Y0056972D02*
X1239196Y0057253D01*
X1239196Y0057253D02*
X1239758Y0057534D01*
X1239758Y0057534D02*
X1240602Y0057534D01*
X1240602Y0057534D02*
X1241164Y0057253D01*
X1241164Y0057253D02*
X1241446Y0056691D01*
X1241446Y0056691D02*
X1241446Y0053597D01*
X1247351Y0053597D02*
X1243977Y0053597D01*
X1245664Y0053597D02*
X1245664Y0059503D01*
X1245664Y0059503D02*
X1245101Y0058659D01*
X1245101Y0058659D02*
X1244539Y0058097D01*
X1244539Y0058097D02*
X1243977Y0057816D01*
X1249601Y0058941D02*
X1249882Y0059222D01*
X1249882Y0059222D02*
X1250445Y0059503D01*
X1250445Y0059503D02*
X1251851Y0059503D01*
X1251851Y0059503D02*
X1252413Y0059222D01*
X1252413Y0059222D02*
X1252694Y0058941D01*
X1252694Y0058941D02*
X1252976Y0058378D01*
X1252976Y0058378D02*
X1252976Y0057816D01*
X1252976Y0057816D02*
X1252694Y0056972D01*
X1252694Y0056972D02*
X1249320Y0053597D01*
X1249320Y0053597D02*
X1252976Y0053597D01*
X1258600Y0053597D02*
X1255225Y0053597D01*
X1256913Y0053597D02*
X1256913Y0059503D01*
X1256913Y0059503D02*
X1256350Y0058659D01*
X1256350Y0058659D02*
X1255788Y0058097D01*
X1255788Y0058097D02*
X1255225Y0057816D01*
X1260568Y0057534D02*
X1261974Y0053597D01*
X1261974Y0053597D02*
X1263380Y0057534D01*
X1268161Y0053597D02*
X1268161Y0056691D01*
X1268161Y0056691D02*
X1267880Y0057253D01*
X1267880Y0057253D02*
X1267317Y0057534D01*
X1267317Y0057534D02*
X1266193Y0057534D01*
X1266193Y0057534D02*
X1265630Y0057253D01*
X1268161Y0053879D02*
X1267599Y0053597D01*
X1267599Y0053597D02*
X1266193Y0053597D01*
X1266193Y0053597D02*
X1265630Y0053879D01*
X1265630Y0053879D02*
X1265349Y0054441D01*
X1265349Y0054441D02*
X1265349Y0055004D01*
X1265349Y0055004D02*
X1265630Y0055566D01*
X1265630Y0055566D02*
X1266193Y0055847D01*
X1266193Y0055847D02*
X1267599Y0055847D01*
X1267599Y0055847D02*
X1268161Y0056128D01*
X1273504Y0057534D02*
X1273504Y0052754D01*
X1273504Y0052754D02*
X1273223Y0052191D01*
X1273223Y0052191D02*
X1272942Y0051910D01*
X1272942Y0051910D02*
X1272379Y0051629D01*
X1272379Y0051629D02*
X1271536Y0051629D01*
X1271536Y0051629D02*
X1270973Y0051910D01*
X1273504Y0053879D02*
X1272942Y0053597D01*
X1272942Y0053597D02*
X1271817Y0053597D01*
X1271817Y0053597D02*
X1271254Y0053879D01*
X1271254Y0053879D02*
X1270973Y0054160D01*
X1270973Y0054160D02*
X1270692Y0054722D01*
X1270692Y0054722D02*
X1270692Y0056410D01*
X1270692Y0056410D02*
X1270973Y0056972D01*
X1270973Y0056972D02*
X1271254Y0057253D01*
X1271254Y0057253D02*
X1271817Y0057534D01*
X1271817Y0057534D02*
X1272942Y0057534D01*
X1272942Y0057534D02*
X1273504Y0057253D01*
X1276316Y0054160D02*
X1276598Y0053879D01*
X1276598Y0053879D02*
X1276316Y0053597D01*
X1276316Y0053597D02*
X1276035Y0053879D01*
X1276035Y0053879D02*
X1276316Y0054160D01*
X1276316Y0054160D02*
X1276316Y0053597D01*
X1279128Y0053597D02*
X1279128Y0059503D01*
X1279691Y0055847D02*
X1281378Y0053597D01*
X1281378Y0057534D02*
X1279128Y0055285D01*
X1283909Y0053597D02*
X1283909Y0057534D01*
X1283909Y0059503D02*
X1283628Y0059222D01*
X1283628Y0059222D02*
X1283909Y0058941D01*
X1283909Y0058941D02*
X1284190Y0059222D01*
X1284190Y0059222D02*
X1283909Y0059503D01*
X1283909Y0059503D02*
X1283909Y0058941D01*
X1289252Y0053879D02*
X1288690Y0053597D01*
X1288690Y0053597D02*
X1287565Y0053597D01*
X1287565Y0053597D02*
X1287003Y0053879D01*
X1287003Y0053879D02*
X1286721Y0054160D01*
X1286721Y0054160D02*
X1286440Y0054722D01*
X1286440Y0054722D02*
X1286440Y0056410D01*
X1286440Y0056410D02*
X1286721Y0056972D01*
X1286721Y0056972D02*
X1287003Y0057253D01*
X1287003Y0057253D02*
X1287565Y0057534D01*
X1287565Y0057534D02*
X1288690Y0057534D01*
X1288690Y0057534D02*
X1289252Y0057253D01*
X1294314Y0053597D02*
X1294314Y0056691D01*
X1294314Y0056691D02*
X1294033Y0057253D01*
X1294033Y0057253D02*
X1293470Y0057534D01*
X1293470Y0057534D02*
X1292346Y0057534D01*
X1292346Y0057534D02*
X1291783Y0057253D01*
X1294314Y0053879D02*
X1293752Y0053597D01*
X1293752Y0053597D02*
X1292346Y0053597D01*
X1292346Y0053597D02*
X1291783Y0053879D01*
X1291783Y0053879D02*
X1291502Y0054441D01*
X1291502Y0054441D02*
X1291502Y0055004D01*
X1291502Y0055004D02*
X1291783Y0055566D01*
X1291783Y0055566D02*
X1292346Y0055847D01*
X1292346Y0055847D02*
X1293752Y0055847D01*
X1293752Y0055847D02*
X1294314Y0056128D01*
X1299657Y0053597D02*
X1299657Y0059503D01*
X1299657Y0053879D02*
X1299095Y0053597D01*
X1299095Y0053597D02*
X1297970Y0053597D01*
X1297970Y0053597D02*
X1297407Y0053879D01*
X1297407Y0053879D02*
X1297126Y0054160D01*
X1297126Y0054160D02*
X1296845Y0054722D01*
X1296845Y0054722D02*
X1296845Y0056410D01*
X1296845Y0056410D02*
X1297126Y0056972D01*
X1297126Y0056972D02*
X1297407Y0057253D01*
X1297407Y0057253D02*
X1297970Y0057534D01*
X1297970Y0057534D02*
X1299095Y0057534D01*
X1299095Y0057534D02*
X1299657Y0057253D01*
X1301063Y0053035D02*
X1305563Y0053035D01*
X1306969Y0057534D02*
X1306969Y0051629D01*
X1306969Y0057253D02*
X1307531Y0057534D01*
X1307531Y0057534D02*
X1308656Y0057534D01*
X1308656Y0057534D02*
X1309218Y0057253D01*
X1309218Y0057253D02*
X1309500Y0056972D01*
X1309500Y0056972D02*
X1309781Y0056410D01*
X1309781Y0056410D02*
X1309781Y0054722D01*
X1309781Y0054722D02*
X1309500Y0054160D01*
X1309500Y0054160D02*
X1309218Y0053879D01*
X1309218Y0053879D02*
X1308656Y0053597D01*
X1308656Y0053597D02*
X1307531Y0053597D01*
X1307531Y0053597D02*
X1306969Y0053879D01*
X1314843Y0053879D02*
X1314280Y0053597D01*
X1314280Y0053597D02*
X1313155Y0053597D01*
X1313155Y0053597D02*
X1312593Y0053879D01*
X1312593Y0053879D02*
X1312312Y0054160D01*
X1312312Y0054160D02*
X1312031Y0054722D01*
X1312031Y0054722D02*
X1312031Y0056410D01*
X1312031Y0056410D02*
X1312312Y0056972D01*
X1312312Y0056972D02*
X1312593Y0057253D01*
X1312593Y0057253D02*
X1313155Y0057534D01*
X1313155Y0057534D02*
X1314280Y0057534D01*
X1314280Y0057534D02*
X1314843Y0057253D01*
X1317374Y0053597D02*
X1317374Y0059503D01*
X1317374Y0057253D02*
X1317936Y0057534D01*
X1317936Y0057534D02*
X1319061Y0057534D01*
X1319061Y0057534D02*
X1319623Y0057253D01*
X1319623Y0057253D02*
X1319905Y0056972D01*
X1319905Y0056972D02*
X1320186Y0056410D01*
X1320186Y0056410D02*
X1320186Y0054722D01*
X1320186Y0054722D02*
X1319905Y0054160D01*
X1319905Y0054160D02*
X1319623Y0053879D01*
X1319623Y0053879D02*
X1319061Y0053597D01*
X1319061Y0053597D02*
X1317936Y0053597D01*
X1317936Y0053597D02*
X1317374Y0053879D01*
D10*
D11*
X1188189Y0072834D02*
X1613386Y0072834D01*
D10*
D11*
X1193639Y0064509D02*
X1194483Y0064227D01*
X1194483Y0064227D02*
X1195889Y0064227D01*
X1195889Y0064227D02*
X1196451Y0064509D01*
X1196451Y0064509D02*
X1196733Y0064790D01*
X1196733Y0064790D02*
X1197014Y0065352D01*
X1197014Y0065352D02*
X1197014Y0065915D01*
X1197014Y0065915D02*
X1196733Y0066477D01*
X1196733Y0066477D02*
X1196451Y0066758D01*
X1196451Y0066758D02*
X1195889Y0067040D01*
X1195889Y0067040D02*
X1194764Y0067321D01*
X1194764Y0067321D02*
X1194202Y0067602D01*
X1194202Y0067602D02*
X1193920Y0067883D01*
X1193920Y0067883D02*
X1193639Y0068446D01*
X1193639Y0068446D02*
X1193639Y0069008D01*
X1193639Y0069008D02*
X1193920Y0069570D01*
X1193920Y0069570D02*
X1194202Y0069852D01*
X1194202Y0069852D02*
X1194764Y0070133D01*
X1194764Y0070133D02*
X1196170Y0070133D01*
X1196170Y0070133D02*
X1197014Y0069852D01*
X1199545Y0064227D02*
X1199545Y0070133D01*
X1202076Y0064227D02*
X1202076Y0067321D01*
X1202076Y0067321D02*
X1201794Y0067883D01*
X1201794Y0067883D02*
X1201232Y0068164D01*
X1201232Y0068164D02*
X1200388Y0068164D01*
X1200388Y0068164D02*
X1199826Y0067883D01*
X1199826Y0067883D02*
X1199545Y0067602D01*
X1207137Y0064509D02*
X1206575Y0064227D01*
X1206575Y0064227D02*
X1205450Y0064227D01*
X1205450Y0064227D02*
X1204888Y0064509D01*
X1204888Y0064509D02*
X1204607Y0065071D01*
X1204607Y0065071D02*
X1204607Y0067321D01*
X1204607Y0067321D02*
X1204888Y0067883D01*
X1204888Y0067883D02*
X1205450Y0068164D01*
X1205450Y0068164D02*
X1206575Y0068164D01*
X1206575Y0068164D02*
X1207137Y0067883D01*
X1207137Y0067883D02*
X1207419Y0067321D01*
X1207419Y0067321D02*
X1207419Y0066758D01*
X1207419Y0066758D02*
X1204607Y0066196D01*
X1212199Y0064509D02*
X1211637Y0064227D01*
X1211637Y0064227D02*
X1210512Y0064227D01*
X1210512Y0064227D02*
X1209950Y0064509D01*
X1209950Y0064509D02*
X1209668Y0065071D01*
X1209668Y0065071D02*
X1209668Y0067321D01*
X1209668Y0067321D02*
X1209950Y0067883D01*
X1209950Y0067883D02*
X1210512Y0068164D01*
X1210512Y0068164D02*
X1211637Y0068164D01*
X1211637Y0068164D02*
X1212199Y0067883D01*
X1212199Y0067883D02*
X1212481Y0067321D01*
X1212481Y0067321D02*
X1212481Y0066758D01*
X1212481Y0066758D02*
X1209668Y0066196D01*
X1214168Y0068164D02*
X1216418Y0068164D01*
X1215012Y0070133D02*
X1215012Y0065071D01*
X1215012Y0065071D02*
X1215293Y0064509D01*
X1215293Y0064509D02*
X1215855Y0064227D01*
X1215855Y0064227D02*
X1216418Y0064227D01*
X1218386Y0064790D02*
X1218667Y0064509D01*
X1218667Y0064509D02*
X1218386Y0064227D01*
X1218386Y0064227D02*
X1218105Y0064509D01*
X1218105Y0064509D02*
X1218386Y0064790D01*
X1218386Y0064790D02*
X1218386Y0064227D01*
X1218386Y0067883D02*
X1218667Y0067602D01*
X1218667Y0067602D02*
X1218386Y0067321D01*
X1218386Y0067321D02*
X1218105Y0067602D01*
X1218105Y0067602D02*
X1218386Y0067883D01*
X1218386Y0067883D02*
X1218386Y0067321D01*
D10*
D12*
X1196840Y0076069D02*
X1196840Y0079162D01*
X1196840Y0079162D02*
X1196559Y0079725D01*
X1196559Y0079725D02*
X1195996Y0080006D01*
X1195996Y0080006D02*
X1194871Y0080006D01*
X1194871Y0080006D02*
X1194309Y0079725D01*
X1196840Y0076350D02*
X1196277Y0076069D01*
X1196277Y0076069D02*
X1194871Y0076069D01*
X1194871Y0076069D02*
X1194309Y0076350D01*
X1194309Y0076350D02*
X1194028Y0076913D01*
X1194028Y0076913D02*
X1194028Y0077475D01*
X1194028Y0077475D02*
X1194309Y0078038D01*
X1194309Y0078038D02*
X1194871Y0078319D01*
X1194871Y0078319D02*
X1196277Y0078319D01*
X1196277Y0078319D02*
X1196840Y0078600D01*
X1199652Y0080006D02*
X1199652Y0076069D01*
X1199652Y0079444D02*
X1199933Y0079725D01*
X1199933Y0079725D02*
X1200496Y0080006D01*
X1200496Y0080006D02*
X1201339Y0080006D01*
X1201339Y0080006D02*
X1201902Y0079725D01*
X1201902Y0079725D02*
X1202183Y0079162D01*
X1202183Y0079162D02*
X1202183Y0076069D01*
X1207526Y0076069D02*
X1207526Y0081975D01*
X1207526Y0076350D02*
X1206964Y0076069D01*
X1206964Y0076069D02*
X1205839Y0076069D01*
X1205839Y0076069D02*
X1205276Y0076350D01*
X1205276Y0076350D02*
X1204995Y0076632D01*
X1204995Y0076632D02*
X1204714Y0077194D01*
X1204714Y0077194D02*
X1204714Y0078881D01*
X1204714Y0078881D02*
X1204995Y0079444D01*
X1204995Y0079444D02*
X1205276Y0079725D01*
X1205276Y0079725D02*
X1205839Y0080006D01*
X1205839Y0080006D02*
X1206964Y0080006D01*
X1206964Y0080006D02*
X1207526Y0079725D01*
X1210338Y0076069D02*
X1210338Y0080006D01*
X1210338Y0078881D02*
X1210619Y0079444D01*
X1210619Y0079444D02*
X1210901Y0079725D01*
X1210901Y0079725D02*
X1211463Y0080006D01*
X1211463Y0080006D02*
X1212025Y0080006D01*
X1216244Y0076350D02*
X1215681Y0076069D01*
X1215681Y0076069D02*
X1214556Y0076069D01*
X1214556Y0076069D02*
X1213994Y0076350D01*
X1213994Y0076350D02*
X1213713Y0076913D01*
X1213713Y0076913D02*
X1213713Y0079162D01*
X1213713Y0079162D02*
X1213994Y0079725D01*
X1213994Y0079725D02*
X1214556Y0080006D01*
X1214556Y0080006D02*
X1215681Y0080006D01*
X1215681Y0080006D02*
X1216244Y0079725D01*
X1216244Y0079725D02*
X1216525Y0079162D01*
X1216525Y0079162D02*
X1216525Y0078600D01*
X1216525Y0078600D02*
X1213713Y0078038D01*
X1219056Y0076069D02*
X1219056Y0080006D01*
X1219056Y0081975D02*
X1218775Y0081693D01*
X1218775Y0081693D02*
X1219056Y0081412D01*
X1219056Y0081412D02*
X1219337Y0081693D01*
X1219337Y0081693D02*
X1219056Y0081975D01*
X1219056Y0081975D02*
X1219056Y0081412D01*
X1221868Y0076069D02*
X1221868Y0081975D01*
X1222430Y0078319D02*
X1224118Y0076069D01*
X1224118Y0080006D02*
X1221868Y0077756D01*
X1229180Y0076069D02*
X1229180Y0079162D01*
X1229180Y0079162D02*
X1228898Y0079725D01*
X1228898Y0079725D02*
X1228336Y0080006D01*
X1228336Y0080006D02*
X1227211Y0080006D01*
X1227211Y0080006D02*
X1226649Y0079725D01*
X1229180Y0076350D02*
X1228617Y0076069D01*
X1228617Y0076069D02*
X1227211Y0076069D01*
X1227211Y0076069D02*
X1226649Y0076350D01*
X1226649Y0076350D02*
X1226367Y0076913D01*
X1226367Y0076913D02*
X1226367Y0077475D01*
X1226367Y0077475D02*
X1226649Y0078038D01*
X1226649Y0078038D02*
X1227211Y0078319D01*
X1227211Y0078319D02*
X1228617Y0078319D01*
X1228617Y0078319D02*
X1229180Y0078600D01*
X1240147Y0078881D02*
X1239866Y0079162D01*
X1239866Y0079162D02*
X1239303Y0079444D01*
X1239303Y0079444D02*
X1238741Y0079444D01*
X1238741Y0079444D02*
X1238178Y0079162D01*
X1238178Y0079162D02*
X1237897Y0078881D01*
X1237897Y0078881D02*
X1237616Y0078319D01*
X1237616Y0078319D02*
X1237616Y0077756D01*
X1237616Y0077756D02*
X1237897Y0077194D01*
X1237897Y0077194D02*
X1238178Y0076913D01*
X1238178Y0076913D02*
X1238741Y0076632D01*
X1238741Y0076632D02*
X1239303Y0076632D01*
X1239303Y0076632D02*
X1239866Y0076913D01*
X1239866Y0076913D02*
X1240147Y0077194D01*
X1240147Y0079444D02*
X1240147Y0077194D01*
X1240147Y0077194D02*
X1240428Y0076913D01*
X1240428Y0076913D02*
X1240709Y0076913D01*
X1240709Y0076913D02*
X1241272Y0077194D01*
X1241272Y0077194D02*
X1241553Y0077756D01*
X1241553Y0077756D02*
X1241553Y0079162D01*
X1241553Y0079162D02*
X1240991Y0080006D01*
X1240991Y0080006D02*
X1240147Y0080569D01*
X1240147Y0080569D02*
X1239022Y0080850D01*
X1239022Y0080850D02*
X1237897Y0080569D01*
X1237897Y0080569D02*
X1237054Y0080006D01*
X1237054Y0080006D02*
X1236491Y0079162D01*
X1236491Y0079162D02*
X1236210Y0078038D01*
X1236210Y0078038D02*
X1236491Y0076913D01*
X1236491Y0076913D02*
X1237054Y0076069D01*
X1237054Y0076069D02*
X1237897Y0075507D01*
X1237897Y0075507D02*
X1239022Y0075225D01*
X1239022Y0075225D02*
X1240147Y0075507D01*
X1240147Y0075507D02*
X1240991Y0076069D01*
X1248583Y0076069D02*
X1248583Y0080006D01*
X1248583Y0078881D02*
X1248865Y0079444D01*
X1248865Y0079444D02*
X1249146Y0079725D01*
X1249146Y0079725D02*
X1249708Y0080006D01*
X1249708Y0080006D02*
X1250271Y0080006D01*
X1254770Y0080006D02*
X1254770Y0076069D01*
X1252239Y0080006D02*
X1252239Y0076913D01*
X1252239Y0076913D02*
X1252520Y0076350D01*
X1252520Y0076350D02*
X1253083Y0076069D01*
X1253083Y0076069D02*
X1253926Y0076069D01*
X1253926Y0076069D02*
X1254489Y0076350D01*
X1254489Y0076350D02*
X1254770Y0076632D01*
X1257301Y0076350D02*
X1257863Y0076069D01*
X1257863Y0076069D02*
X1258988Y0076069D01*
X1258988Y0076069D02*
X1259551Y0076350D01*
X1259551Y0076350D02*
X1259832Y0076913D01*
X1259832Y0076913D02*
X1259832Y0077194D01*
X1259832Y0077194D02*
X1259551Y0077756D01*
X1259551Y0077756D02*
X1258988Y0078038D01*
X1258988Y0078038D02*
X1258145Y0078038D01*
X1258145Y0078038D02*
X1257582Y0078319D01*
X1257582Y0078319D02*
X1257301Y0078881D01*
X1257301Y0078881D02*
X1257301Y0079162D01*
X1257301Y0079162D02*
X1257582Y0079725D01*
X1257582Y0079725D02*
X1258145Y0080006D01*
X1258145Y0080006D02*
X1258988Y0080006D01*
X1258988Y0080006D02*
X1259551Y0079725D01*
X1262363Y0079162D02*
X1264331Y0079162D01*
X1265175Y0076069D02*
X1262363Y0076069D01*
X1262363Y0076069D02*
X1262363Y0081975D01*
X1262363Y0081975D02*
X1265175Y0081975D01*
X1269674Y0079162D02*
X1267706Y0079162D01*
X1267706Y0076069D02*
X1267706Y0081975D01*
X1267706Y0081975D02*
X1270518Y0081975D01*
X1272768Y0076069D02*
X1272768Y0081975D01*
X1275580Y0076632D02*
X1275861Y0076350D01*
X1275861Y0076350D02*
X1275580Y0076069D01*
X1275580Y0076069D02*
X1275299Y0076350D01*
X1275299Y0076350D02*
X1275580Y0076632D01*
X1275580Y0076632D02*
X1275580Y0076069D01*
X1280923Y0076350D02*
X1280361Y0076069D01*
X1280361Y0076069D02*
X1279236Y0076069D01*
X1279236Y0076069D02*
X1278673Y0076350D01*
X1278673Y0076350D02*
X1278392Y0076632D01*
X1278392Y0076632D02*
X1278111Y0077194D01*
X1278111Y0077194D02*
X1278111Y0078881D01*
X1278111Y0078881D02*
X1278392Y0079444D01*
X1278392Y0079444D02*
X1278673Y0079725D01*
X1278673Y0079725D02*
X1279236Y0080006D01*
X1279236Y0080006D02*
X1280361Y0080006D01*
X1280361Y0080006D02*
X1280923Y0079725D01*
X1284298Y0076069D02*
X1283735Y0076350D01*
X1283735Y0076350D02*
X1283454Y0076632D01*
X1283454Y0076632D02*
X1283173Y0077194D01*
X1283173Y0077194D02*
X1283173Y0078881D01*
X1283173Y0078881D02*
X1283454Y0079444D01*
X1283454Y0079444D02*
X1283735Y0079725D01*
X1283735Y0079725D02*
X1284298Y0080006D01*
X1284298Y0080006D02*
X1285141Y0080006D01*
X1285141Y0080006D02*
X1285704Y0079725D01*
X1285704Y0079725D02*
X1285985Y0079444D01*
X1285985Y0079444D02*
X1286266Y0078881D01*
X1286266Y0078881D02*
X1286266Y0077194D01*
X1286266Y0077194D02*
X1285985Y0076632D01*
X1285985Y0076632D02*
X1285704Y0076350D01*
X1285704Y0076350D02*
X1285141Y0076069D01*
X1285141Y0076069D02*
X1284298Y0076069D01*
X1288797Y0076069D02*
X1288797Y0080006D01*
X1288797Y0079444D02*
X1289078Y0079725D01*
X1289078Y0079725D02*
X1289641Y0080006D01*
X1289641Y0080006D02*
X1290484Y0080006D01*
X1290484Y0080006D02*
X1291047Y0079725D01*
X1291047Y0079725D02*
X1291328Y0079162D01*
X1291328Y0079162D02*
X1291328Y0076069D01*
X1291328Y0079162D02*
X1291609Y0079725D01*
X1291609Y0079725D02*
X1292172Y0080006D01*
X1292172Y0080006D02*
X1293015Y0080006D01*
X1293015Y0080006D02*
X1293578Y0079725D01*
X1293578Y0079725D02*
X1293859Y0079162D01*
X1293859Y0079162D02*
X1293859Y0076069D01*
D10*
D11*
X1266929Y0033464D02*
X1266929Y0021653D01*
D10*
D11*
X1518897Y0033464D02*
X1518897Y0007874D01*
G36*
G01*
X0531693Y1221555D02*
X0531693Y1226476D01*
G75*
G02*
X0532086Y1226870I0000394J0000000D01*
G01*
X0535236Y1226870D01*
G75*
G02*
X0535630Y1226476I0000000J-000394D01*
G01*
X0535630Y1221555D01*
G75*
G02*
X0535236Y1221161I-000394J0000000D01*
G01*
X0532086Y1221161D01*
G75*
G02*
X0531693Y1221555I0000000J0000394D01*
G01*
G37*
G36*
G01*
X0539173Y1221555D02*
X0539173Y1226476D01*
G75*
G02*
X0539567Y1226870I0000394J0000000D01*
G01*
X0542716Y1226870D01*
G75*
G02*
X0543110Y1226476I0000000J-000394D01*
G01*
X0543110Y1221555D01*
G75*
G02*
X0542716Y1221161I-000394J0000000D01*
G01*
X0539567Y1221161D01*
G75*
G02*
X0539173Y1221555I0000000J0000394D01*
G01*
G37*
G36*
G01*
X0290330Y1317421D02*
X0292347Y1317421D01*
G75*
G02*
X0293208Y1316560I0000000J-000861D01*
G01*
X0293208Y1314837D01*
G75*
G02*
X0292347Y1313976I-000861J0000000D01*
G01*
X0290330Y1313976D01*
G75*
G02*
X0289468Y1314837I0000000J0000861D01*
G01*
X0289468Y1316560D01*
G75*
G02*
X0290330Y1317421I0000861J0000000D01*
G01*
G37*
G36*
G01*
X0290330Y1311220D02*
X0292347Y1311220D01*
G75*
G02*
X0293208Y1310359I0000000J-000861D01*
G01*
X0293208Y1308636D01*
G75*
G02*
X0292347Y1307775I-000861J0000000D01*
G01*
X0290330Y1307775D01*
G75*
G02*
X0289468Y1308636I0000000J0000861D01*
G01*
X0289468Y1310359D01*
G75*
G02*
X0290330Y1311220I0000861J0000000D01*
G01*
G37*
G36*
G01*
X0463976Y1272933D02*
X0461220Y1272933D01*
G75*
G02*
X0460236Y1273917I0000000J0000984D01*
G01*
X0460236Y1280610D01*
G75*
G02*
X0461220Y1281594I0000984J0000000D01*
G01*
X0463976Y1281594D01*
G75*
G02*
X0464960Y1280610I0000000J-000984D01*
G01*
X0464960Y1273917D01*
G75*
G02*
X0463976Y1272933I-000984J0000000D01*
G01*
G37*
G36*
G01*
X0482008Y1289468D02*
X0461142Y1289468D01*
G75*
G02*
X0460157Y1290452I0000000J0000984D01*
G01*
X0460157Y1313681D01*
G75*
G02*
X0461142Y1314665I0000984J0000000D01*
G01*
X0482008Y1314665D01*
G75*
G02*
X0482992Y1313681I0000000J-000984D01*
G01*
X0482992Y1290452D01*
G75*
G02*
X0482008Y1289468I-000984J0000000D01*
G01*
G37*
G36*
G01*
X0481929Y1272933D02*
X0479173Y1272933D01*
G75*
G02*
X0478189Y1273917I0000000J0000984D01*
G01*
X0478189Y1280610D01*
G75*
G02*
X0479173Y1281594I0000984J0000000D01*
G01*
X0481929Y1281594D01*
G75*
G02*
X0482913Y1280610I0000000J-000984D01*
G01*
X0482913Y1273917D01*
G75*
G02*
X0481929Y1272933I-000984J0000000D01*
G01*
G37*
G36*
G01*
X0367185Y1272933D02*
X0364429Y1272933D01*
G75*
G02*
X0363445Y1273917I0000000J0000984D01*
G01*
X0363445Y1280610D01*
G75*
G02*
X0364429Y1281594I0000984J0000000D01*
G01*
X0367185Y1281594D01*
G75*
G02*
X0368169Y1280610I0000000J-000984D01*
G01*
X0368169Y1273917D01*
G75*
G02*
X0367185Y1272933I-000984J0000000D01*
G01*
G37*
G36*
G01*
X0385216Y1289468D02*
X0364350Y1289468D01*
G75*
G02*
X0363366Y1290452I0000000J0000984D01*
G01*
X0363366Y1313681D01*
G75*
G02*
X0364350Y1314665I0000984J0000000D01*
G01*
X0385216Y1314665D01*
G75*
G02*
X0386201Y1313681I0000000J-000984D01*
G01*
X0386201Y1290452D01*
G75*
G02*
X0385216Y1289468I-000984J0000000D01*
G01*
G37*
G36*
G01*
X0385138Y1272933D02*
X0382382Y1272933D01*
G75*
G02*
X0381397Y1273917I0000000J0000984D01*
G01*
X0381397Y1280610D01*
G75*
G02*
X0382382Y1281594I0000984J0000000D01*
G01*
X0385138Y1281594D01*
G75*
G02*
X0386122Y1280610I0000000J-000984D01*
G01*
X0386122Y1273917D01*
G75*
G02*
X0385138Y1272933I-000984J0000000D01*
G01*
G37*
G36*
G01*
X0285728Y1297480D02*
X0285728Y1300157D01*
G75*
G02*
X0286063Y1300492I0000335J0000000D01*
G01*
X0288740Y1300492D01*
G75*
G02*
X0289075Y1300157I0000000J-000335D01*
G01*
X0289075Y1297480D01*
G75*
G02*
X0288740Y1297145I-000335J0000000D01*
G01*
X0286063Y1297145D01*
G75*
G02*
X0285728Y1297480I0000000J0000335D01*
G01*
G37*
G36*
G01*
X0291949Y1297480D02*
X0291949Y1300157D01*
G75*
G02*
X0292283Y1300492I0000335J0000000D01*
G01*
X0294960Y1300492D01*
G75*
G02*
X0295295Y1300157I0000000J-000335D01*
G01*
X0295295Y1297480D01*
G75*
G02*
X0294960Y1297145I-000335J0000000D01*
G01*
X0292283Y1297145D01*
G75*
G02*
X0291949Y1297480I0000000J0000335D01*
G01*
G37*
G36*
G01*
X0324173Y1237992D02*
X0322992Y1237992D01*
G75*
G02*
X0322401Y1238582I0000000J0000591D01*
G01*
X0322401Y1245078D01*
G75*
G02*
X0322992Y1245669I0000591J0000000D01*
G01*
X0324173Y1245669D01*
G75*
G02*
X0324764Y1245078I0000000J-000591D01*
G01*
X0324764Y1238582D01*
G75*
G02*
X0324173Y1237992I-000591J0000000D01*
G01*
G37*
G36*
G01*
X0329173Y1237992D02*
X0327992Y1237992D01*
G75*
G02*
X0327401Y1238582I0000000J0000591D01*
G01*
X0327401Y1245078D01*
G75*
G02*
X0327992Y1245669I0000591J0000000D01*
G01*
X0329173Y1245669D01*
G75*
G02*
X0329764Y1245078I0000000J-000591D01*
G01*
X0329764Y1238582D01*
G75*
G02*
X0329173Y1237992I-000591J0000000D01*
G01*
G37*
G36*
G01*
X0334173Y1237992D02*
X0332992Y1237992D01*
G75*
G02*
X0332401Y1238582I0000000J0000591D01*
G01*
X0332401Y1245078D01*
G75*
G02*
X0332992Y1245669I0000591J0000000D01*
G01*
X0334173Y1245669D01*
G75*
G02*
X0334764Y1245078I0000000J-000591D01*
G01*
X0334764Y1238582D01*
G75*
G02*
X0334173Y1237992I-000591J0000000D01*
G01*
G37*
G36*
G01*
X0339173Y1237992D02*
X0337992Y1237992D01*
G75*
G02*
X0337401Y1238582I0000000J0000591D01*
G01*
X0337401Y1245078D01*
G75*
G02*
X0337992Y1245669I0000591J0000000D01*
G01*
X0339173Y1245669D01*
G75*
G02*
X0339764Y1245078I0000000J-000591D01*
G01*
X0339764Y1238582D01*
G75*
G02*
X0339173Y1237992I-000591J0000000D01*
G01*
G37*
G36*
G01*
X0339173Y1257480D02*
X0337992Y1257480D01*
G75*
G02*
X0337401Y1258070I0000000J0000591D01*
G01*
X0337401Y1264566D01*
G75*
G02*
X0337992Y1265157I0000591J0000000D01*
G01*
X0339173Y1265157D01*
G75*
G02*
X0339764Y1264566I0000000J-000591D01*
G01*
X0339764Y1258070D01*
G75*
G02*
X0339173Y1257480I-000591J0000000D01*
G01*
G37*
G36*
G01*
X0334173Y1257480D02*
X0332992Y1257480D01*
G75*
G02*
X0332401Y1258070I0000000J0000591D01*
G01*
X0332401Y1264566D01*
G75*
G02*
X0332992Y1265157I0000591J0000000D01*
G01*
X0334173Y1265157D01*
G75*
G02*
X0334764Y1264566I0000000J-000591D01*
G01*
X0334764Y1258070D01*
G75*
G02*
X0334173Y1257480I-000591J0000000D01*
G01*
G37*
G36*
G01*
X0329173Y1257480D02*
X0327992Y1257480D01*
G75*
G02*
X0327401Y1258070I0000000J0000591D01*
G01*
X0327401Y1264566D01*
G75*
G02*
X0327992Y1265157I0000591J0000000D01*
G01*
X0329173Y1265157D01*
G75*
G02*
X0329764Y1264566I0000000J-000591D01*
G01*
X0329764Y1258070D01*
G75*
G02*
X0329173Y1257480I-000591J0000000D01*
G01*
G37*
G36*
G01*
X0324173Y1257480D02*
X0322992Y1257480D01*
G75*
G02*
X0322401Y1258070I0000000J0000591D01*
G01*
X0322401Y1264566D01*
G75*
G02*
X0322992Y1265157I0000591J0000000D01*
G01*
X0324173Y1265157D01*
G75*
G02*
X0324764Y1264566I0000000J-000591D01*
G01*
X0324764Y1258070D01*
G75*
G02*
X0324173Y1257480I-000591J0000000D01*
G01*
G37*
D14*
X0337598Y1208267D03*
X0337598Y1183070D03*
X0337598Y1175590D03*
X0337598Y1158661D03*
D15*
X0339370Y1149212D03*
X0339370Y1145275D03*
D14*
X0337598Y1134055D03*
X0276575Y1210039D03*
X0276575Y1202755D03*
X0276575Y1183267D03*
X0276575Y1135826D03*
D15*
X0570964Y1308366D03*
X0570964Y1312106D03*
X0570964Y1315846D03*
X0605216Y1311909D03*
X0605216Y1308366D03*
G36*
G01*
X0700472Y1335039D02*
X0698897Y1335039D01*
G75*
G02*
X0698110Y1335826I0000000J0000787D01*
G01*
X0698110Y1342913D01*
G75*
G02*
X0698897Y1343700I0000787J0000000D01*
G01*
X0700472Y1343700D01*
G75*
G02*
X0701260Y1342913I0000000J-000787D01*
G01*
X0701260Y1335826D01*
G75*
G02*
X0700472Y1335039I-000787J0000000D01*
G01*
G37*
G36*
G01*
X0704960Y1335039D02*
X0703386Y1335039D01*
G75*
G02*
X0702598Y1335826I0000000J0000787D01*
G01*
X0702598Y1342913D01*
G75*
G02*
X0703386Y1343700I0000787J0000000D01*
G01*
X0704960Y1343700D01*
G75*
G02*
X0705748Y1342913I0000000J-000787D01*
G01*
X0705748Y1335826D01*
G75*
G02*
X0704960Y1335039I-000787J0000000D01*
G01*
G37*
G36*
G01*
X0719094Y1351574D02*
X0698228Y1351574D01*
G75*
G02*
X0697244Y1352559I0000000J0000984D01*
G01*
X0697244Y1375787D01*
G75*
G02*
X0698228Y1376771I0000984J0000000D01*
G01*
X0719094Y1376771D01*
G75*
G02*
X0720079Y1375787I0000000J-000984D01*
G01*
X0720079Y1352559D01*
G75*
G02*
X0719094Y1351574I-000984J0000000D01*
G01*
G37*
G36*
G01*
X0713937Y1335039D02*
X0712362Y1335039D01*
G75*
G02*
X0711575Y1335826I0000000J0000787D01*
G01*
X0711575Y1342913D01*
G75*
G02*
X0712362Y1343700I0000787J0000000D01*
G01*
X0713937Y1343700D01*
G75*
G02*
X0714724Y1342913I0000000J-000787D01*
G01*
X0714724Y1335826D01*
G75*
G02*
X0713937Y1335039I-000787J0000000D01*
G01*
G37*
G36*
G01*
X0718425Y1335039D02*
X0716850Y1335039D01*
G75*
G02*
X0716063Y1335826I0000000J0000787D01*
G01*
X0716063Y1342913D01*
G75*
G02*
X0716850Y1343700I0000787J0000000D01*
G01*
X0718425Y1343700D01*
G75*
G02*
X0719212Y1342913I0000000J-000787D01*
G01*
X0719212Y1335826D01*
G75*
G02*
X0718425Y1335039I-000787J0000000D01*
G01*
G37*
G36*
G01*
X0302657Y1272933D02*
X0299901Y1272933D01*
G75*
G02*
X0298917Y1273917I0000000J0000984D01*
G01*
X0298917Y1280610D01*
G75*
G02*
X0299901Y1281594I0000984J0000000D01*
G01*
X0302657Y1281594D01*
G75*
G02*
X0303642Y1280610I0000000J-000984D01*
G01*
X0303642Y1273917D01*
G75*
G02*
X0302657Y1272933I-000984J0000000D01*
G01*
G37*
G36*
G01*
X0320689Y1289468D02*
X0299823Y1289468D01*
G75*
G02*
X0298838Y1290452I0000000J0000984D01*
G01*
X0298838Y1313681D01*
G75*
G02*
X0299823Y1314665I0000984J0000000D01*
G01*
X0320689Y1314665D01*
G75*
G02*
X0321673Y1313681I0000000J-000984D01*
G01*
X0321673Y1290452D01*
G75*
G02*
X0320689Y1289468I-000984J0000000D01*
G01*
G37*
G36*
G01*
X0320610Y1272933D02*
X0317854Y1272933D01*
G75*
G02*
X0316870Y1273917I0000000J0000984D01*
G01*
X0316870Y1280610D01*
G75*
G02*
X0317854Y1281594I0000984J0000000D01*
G01*
X0320610Y1281594D01*
G75*
G02*
X0321594Y1280610I0000000J-000984D01*
G01*
X0321594Y1273917D01*
G75*
G02*
X0320610Y1272933I-000984J0000000D01*
G01*
G37*
G36*
G01*
X0286279Y1270629D02*
X0286279Y1267952D01*
G75*
G02*
X0285945Y1267618I-000335J0000000D01*
G01*
X0283268Y1267618D01*
G75*
G02*
X0282933Y1267952I0000000J0000335D01*
G01*
X0282933Y1270629D01*
G75*
G02*
X0283268Y1270964I0000335J0000000D01*
G01*
X0285945Y1270964D01*
G75*
G02*
X0286279Y1270629I0000000J-000335D01*
G01*
G37*
G36*
G01*
X0280059Y1270629D02*
X0280059Y1267952D01*
G75*
G02*
X0279724Y1267618I-000335J0000000D01*
G01*
X0277047Y1267618D01*
G75*
G02*
X0276712Y1267952I0000000J0000335D01*
G01*
X0276712Y1270629D01*
G75*
G02*
X0277047Y1270964I0000335J0000000D01*
G01*
X0279724Y1270964D01*
G75*
G02*
X0280059Y1270629I0000000J-000335D01*
G01*
G37*
X0554331Y1260876D03*
X0549606Y1260876D03*
X0559055Y1260876D03*
X0563779Y1260876D03*
X0538346Y1317667D03*
X0534409Y1317667D03*
G36*
G01*
X0278897Y1248759D02*
X0276220Y1248759D01*
G75*
G02*
X0275886Y1249094I0000000J0000335D01*
G01*
X0275886Y1251771D01*
G75*
G02*
X0276220Y1252106I0000335J0000000D01*
G01*
X0278897Y1252106D01*
G75*
G02*
X0279232Y1251771I0000000J-000335D01*
G01*
X0279232Y1249094D01*
G75*
G02*
X0278897Y1248759I-000335J0000000D01*
G01*
G37*
G36*
G01*
X0278897Y1254980D02*
X0276220Y1254980D01*
G75*
G02*
X0275886Y1255315I0000000J0000335D01*
G01*
X0275886Y1257992D01*
G75*
G02*
X0276220Y1258326I0000335J0000000D01*
G01*
X0278897Y1258326D01*
G75*
G02*
X0279232Y1257992I0000000J-000335D01*
G01*
X0279232Y1255315D01*
G75*
G02*
X0278897Y1254980I-000335J0000000D01*
G01*
G37*
G36*
G01*
X0545472Y1233366D02*
X0545472Y1238287D01*
G75*
G02*
X0545866Y1238681I0000394J0000000D01*
G01*
X0549016Y1238681D01*
G75*
G02*
X0549409Y1238287I0000000J-000394D01*
G01*
X0549409Y1233366D01*
G75*
G02*
X0549016Y1232972I-000394J0000000D01*
G01*
X0545866Y1232972D01*
G75*
G02*
X0545472Y1233366I0000000J0000394D01*
G01*
G37*
G36*
G01*
X0552953Y1233366D02*
X0552953Y1238287D01*
G75*
G02*
X0553346Y1238681I0000394J0000000D01*
G01*
X0556496Y1238681D01*
G75*
G02*
X0556890Y1238287I0000000J-000394D01*
G01*
X0556890Y1233366D01*
G75*
G02*
X0556496Y1232972I-000394J0000000D01*
G01*
X0553346Y1232972D01*
G75*
G02*
X0552953Y1233366I0000000J0000394D01*
G01*
G37*
G36*
G01*
X0531693Y1245177D02*
X0531693Y1250098D01*
G75*
G02*
X0532086Y1250492I0000394J0000000D01*
G01*
X0535236Y1250492D01*
G75*
G02*
X0535630Y1250098I0000000J-000394D01*
G01*
X0535630Y1245177D01*
G75*
G02*
X0535236Y1244783I-000394J0000000D01*
G01*
X0532086Y1244783D01*
G75*
G02*
X0531693Y1245177I0000000J0000394D01*
G01*
G37*
G36*
G01*
X0539173Y1245177D02*
X0539173Y1250098D01*
G75*
G02*
X0539567Y1250492I0000394J0000000D01*
G01*
X0542716Y1250492D01*
G75*
G02*
X0543110Y1250098I0000000J-000394D01*
G01*
X0543110Y1245177D01*
G75*
G02*
X0542716Y1244783I-000394J0000000D01*
G01*
X0539567Y1244783D01*
G75*
G02*
X0539173Y1245177I0000000J0000394D01*
G01*
G37*
G36*
G01*
X0378917Y1237992D02*
X0377736Y1237992D01*
G75*
G02*
X0377145Y1238582I0000000J0000591D01*
G01*
X0377145Y1245078D01*
G75*
G02*
X0377736Y1245669I0000591J0000000D01*
G01*
X0378917Y1245669D01*
G75*
G02*
X0379508Y1245078I0000000J-000591D01*
G01*
X0379508Y1238582D01*
G75*
G02*
X0378917Y1237992I-000591J0000000D01*
G01*
G37*
G36*
G01*
X0383917Y1237992D02*
X0382736Y1237992D01*
G75*
G02*
X0382145Y1238582I0000000J0000591D01*
G01*
X0382145Y1245078D01*
G75*
G02*
X0382736Y1245669I0000591J0000000D01*
G01*
X0383917Y1245669D01*
G75*
G02*
X0384508Y1245078I0000000J-000591D01*
G01*
X0384508Y1238582D01*
G75*
G02*
X0383917Y1237992I-000591J0000000D01*
G01*
G37*
G36*
G01*
X0388917Y1237992D02*
X0387736Y1237992D01*
G75*
G02*
X0387145Y1238582I0000000J0000591D01*
G01*
X0387145Y1245078D01*
G75*
G02*
X0387736Y1245669I0000591J0000000D01*
G01*
X0388917Y1245669D01*
G75*
G02*
X0389508Y1245078I0000000J-000591D01*
G01*
X0389508Y1238582D01*
G75*
G02*
X0388917Y1237992I-000591J0000000D01*
G01*
G37*
G36*
G01*
X0393917Y1237992D02*
X0392736Y1237992D01*
G75*
G02*
X0392145Y1238582I0000000J0000591D01*
G01*
X0392145Y1245078D01*
G75*
G02*
X0392736Y1245669I0000591J0000000D01*
G01*
X0393917Y1245669D01*
G75*
G02*
X0394508Y1245078I0000000J-000591D01*
G01*
X0394508Y1238582D01*
G75*
G02*
X0393917Y1237992I-000591J0000000D01*
G01*
G37*
G36*
G01*
X0393917Y1257480D02*
X0392736Y1257480D01*
G75*
G02*
X0392145Y1258070I0000000J0000591D01*
G01*
X0392145Y1264566D01*
G75*
G02*
X0392736Y1265157I0000591J0000000D01*
G01*
X0393917Y1265157D01*
G75*
G02*
X0394508Y1264566I0000000J-000591D01*
G01*
X0394508Y1258070D01*
G75*
G02*
X0393917Y1257480I-000591J0000000D01*
G01*
G37*
G36*
G01*
X0388917Y1257480D02*
X0387736Y1257480D01*
G75*
G02*
X0387145Y1258070I0000000J0000591D01*
G01*
X0387145Y1264566D01*
G75*
G02*
X0387736Y1265157I0000591J0000000D01*
G01*
X0388917Y1265157D01*
G75*
G02*
X0389508Y1264566I0000000J-000591D01*
G01*
X0389508Y1258070D01*
G75*
G02*
X0388917Y1257480I-000591J0000000D01*
G01*
G37*
G36*
G01*
X0383917Y1257480D02*
X0382736Y1257480D01*
G75*
G02*
X0382145Y1258070I0000000J0000591D01*
G01*
X0382145Y1264566D01*
G75*
G02*
X0382736Y1265157I0000591J0000000D01*
G01*
X0383917Y1265157D01*
G75*
G02*
X0384508Y1264566I0000000J-000591D01*
G01*
X0384508Y1258070D01*
G75*
G02*
X0383917Y1257480I-000591J0000000D01*
G01*
G37*
G36*
G01*
X0378917Y1257480D02*
X0377736Y1257480D01*
G75*
G02*
X0377145Y1258070I0000000J0000591D01*
G01*
X0377145Y1264566D01*
G75*
G02*
X0377736Y1265157I0000591J0000000D01*
G01*
X0378917Y1265157D01*
G75*
G02*
X0379508Y1264566I0000000J-000591D01*
G01*
X0379508Y1258070D01*
G75*
G02*
X0378917Y1257480I-000591J0000000D01*
G01*
G37*
D32*
X0271653Y1316338D03*
G36*
G01*
X0268110Y1311043D02*
X0268110Y1313759D01*
G75*
G02*
X0269016Y1314665I0000906J0000000D01*
G01*
X0274291Y1314665D01*
G75*
G02*
X0275197Y1313759I0000000J-000906D01*
G01*
X0275197Y1311043D01*
G75*
G02*
X0274291Y1310137I-000906J0000000D01*
G01*
X0269016Y1310137D01*
G75*
G02*
X0268110Y1311043I0000000J0000906D01*
G01*
G37*
G36*
G01*
X0268110Y1299625D02*
X0268110Y1302342D01*
G75*
G02*
X0269016Y1303248I0000906J0000000D01*
G01*
X0274291Y1303248D01*
G75*
G02*
X0275197Y1302342I0000000J-000906D01*
G01*
X0275197Y1299625D01*
G75*
G02*
X0274291Y1298720I-000906J0000000D01*
G01*
X0269016Y1298720D01*
G75*
G02*
X0268110Y1299625I0000000J0000906D01*
G01*
G37*
X0271653Y1297047D03*
G36*
G01*
X0399449Y1272933D02*
X0396693Y1272933D01*
G75*
G02*
X0395708Y1273917I0000000J0000984D01*
G01*
X0395708Y1280610D01*
G75*
G02*
X0396693Y1281594I0000984J0000000D01*
G01*
X0399449Y1281594D01*
G75*
G02*
X0400433Y1280610I0000000J-000984D01*
G01*
X0400433Y1273917D01*
G75*
G02*
X0399449Y1272933I-000984J0000000D01*
G01*
G37*
G36*
G01*
X0417480Y1289468D02*
X0396614Y1289468D01*
G75*
G02*
X0395630Y1290452I0000000J0000984D01*
G01*
X0395630Y1313681D01*
G75*
G02*
X0396614Y1314665I0000984J0000000D01*
G01*
X0417480Y1314665D01*
G75*
G02*
X0418464Y1313681I0000000J-000984D01*
G01*
X0418464Y1290452D01*
G75*
G02*
X0417480Y1289468I-000984J0000000D01*
G01*
G37*
G36*
G01*
X0417401Y1272933D02*
X0414645Y1272933D01*
G75*
G02*
X0413661Y1273917I0000000J0000984D01*
G01*
X0413661Y1280610D01*
G75*
G02*
X0414645Y1281594I0000984J0000000D01*
G01*
X0417401Y1281594D01*
G75*
G02*
X0418386Y1280610I0000000J-000984D01*
G01*
X0418386Y1273917D01*
G75*
G02*
X0417401Y1272933I-000984J0000000D01*
G01*
G37*
X0348425Y1127381D03*
G36*
G01*
X0345964Y1125590D02*
X0350886Y1125590D01*
G75*
G02*
X0351279Y1125196I0000000J-000394D01*
G01*
X0351279Y1122047D01*
G75*
G02*
X0350886Y1121653I-000394J0000000D01*
G01*
X0345964Y1121653D01*
G75*
G02*
X0345571Y1122047I0000000J0000394D01*
G01*
X0345571Y1125196D01*
G75*
G02*
X0345964Y1125590I0000394J0000000D01*
G01*
G37*
G36*
G01*
X0345964Y1118110D02*
X0350886Y1118110D01*
G75*
G02*
X0351279Y1117716I0000000J-000394D01*
G01*
X0351279Y1114566D01*
G75*
G02*
X0350886Y1114173I-000394J0000000D01*
G01*
X0345964Y1114173D01*
G75*
G02*
X0345571Y1114566I0000000J0000394D01*
G01*
X0345571Y1117716D01*
G75*
G02*
X0345964Y1118110I0000394J0000000D01*
G01*
G37*
X0348425Y1112381D03*
G36*
G01*
X0545472Y1221555D02*
X0545472Y1226476D01*
G75*
G02*
X0545866Y1226870I0000394J0000000D01*
G01*
X0549016Y1226870D01*
G75*
G02*
X0549409Y1226476I0000000J-000394D01*
G01*
X0549409Y1221555D01*
G75*
G02*
X0549016Y1221161I-000394J0000000D01*
G01*
X0545866Y1221161D01*
G75*
G02*
X0545472Y1221555I0000000J0000394D01*
G01*
G37*
G36*
G01*
X0552953Y1221555D02*
X0552953Y1226476D01*
G75*
G02*
X0553346Y1226870I0000394J0000000D01*
G01*
X0556496Y1226870D01*
G75*
G02*
X0556890Y1226476I0000000J-000394D01*
G01*
X0556890Y1221555D01*
G75*
G02*
X0556496Y1221161I-000394J0000000D01*
G01*
X0553346Y1221161D01*
G75*
G02*
X0552953Y1221555I0000000J0000394D01*
G01*
G37*
X0606102Y1222047D03*
G36*
G01*
X0600807Y1225590D02*
X0603523Y1225590D01*
G75*
G02*
X0604429Y1224685I0000000J-000906D01*
G01*
X0604429Y1219409D01*
G75*
G02*
X0603523Y1218503I-000906J0000000D01*
G01*
X0600807Y1218503D01*
G75*
G02*
X0599901Y1219409I0000000J0000906D01*
G01*
X0599901Y1224685D01*
G75*
G02*
X0600807Y1225590I0000906J0000000D01*
G01*
G37*
G36*
G01*
X0589390Y1225590D02*
X0592106Y1225590D01*
G75*
G02*
X0593012Y1224685I0000000J-000906D01*
G01*
X0593012Y1219409D01*
G75*
G02*
X0592106Y1218503I-000906J0000000D01*
G01*
X0589390Y1218503D01*
G75*
G02*
X0588484Y1219409I0000000J0000906D01*
G01*
X0588484Y1224685D01*
G75*
G02*
X0589390Y1225590I0000906J0000000D01*
G01*
G37*
X0586811Y1222047D03*
X0261811Y1316338D03*
G36*
G01*
X0258268Y1311043D02*
X0258268Y1313759D01*
G75*
G02*
X0259173Y1314665I0000906J0000000D01*
G01*
X0264449Y1314665D01*
G75*
G02*
X0265354Y1313759I0000000J-000906D01*
G01*
X0265354Y1311043D01*
G75*
G02*
X0264449Y1310137I-000906J0000000D01*
G01*
X0259173Y1310137D01*
G75*
G02*
X0258268Y1311043I0000000J0000906D01*
G01*
G37*
G36*
G01*
X0258268Y1299625D02*
X0258268Y1302342D01*
G75*
G02*
X0259173Y1303248I0000906J0000000D01*
G01*
X0264449Y1303248D01*
G75*
G02*
X0265354Y1302342I0000000J-000906D01*
G01*
X0265354Y1299625D01*
G75*
G02*
X0264449Y1298720I-000906J0000000D01*
G01*
X0259173Y1298720D01*
G75*
G02*
X0258268Y1299625I0000000J0000906D01*
G01*
G37*
X0261811Y1297047D03*
G36*
G01*
X0701575Y1315846D02*
X0700394Y1315846D01*
G75*
G02*
X0699803Y1316437I0000000J0000591D01*
G01*
X0699803Y1321063D01*
G75*
G02*
X0700394Y1321653I0000591J0000000D01*
G01*
X0701575Y1321653D01*
G75*
G02*
X0702165Y1321063I0000000J-000591D01*
G01*
X0702165Y1316437D01*
G75*
G02*
X0701575Y1315846I-000591J0000000D01*
G01*
G37*
G36*
G01*
X0709055Y1315846D02*
X0707874Y1315846D01*
G75*
G02*
X0707283Y1316437I0000000J0000591D01*
G01*
X0707283Y1321063D01*
G75*
G02*
X0707874Y1321653I0000591J0000000D01*
G01*
X0709055Y1321653D01*
G75*
G02*
X0709645Y1321063I0000000J-000591D01*
G01*
X0709645Y1316437D01*
G75*
G02*
X0709055Y1315846I-000591J0000000D01*
G01*
G37*
G36*
G01*
X0705315Y1323228D02*
X0704134Y1323228D01*
G75*
G02*
X0703543Y1323818I0000000J0000591D01*
G01*
X0703543Y1328444D01*
G75*
G02*
X0704134Y1329035I0000591J0000000D01*
G01*
X0705315Y1329035D01*
G75*
G02*
X0705905Y1328444I0000000J-000591D01*
G01*
X0705905Y1323818D01*
G75*
G02*
X0705315Y1323228I-000591J0000000D01*
G01*
G37*
G36*
G01*
X0276181Y1075098D02*
X0276181Y1080413D01*
G75*
G02*
X0277165Y1081397I0000984J0000000D01*
G01*
X0281890Y1081397D01*
G75*
G02*
X0282874Y1080413I0000000J-000984D01*
G01*
X0282874Y1075098D01*
G75*
G02*
X0281890Y1074114I-000984J0000000D01*
G01*
X0277165Y1074114D01*
G75*
G02*
X0276181Y1075098I0000000J0000984D01*
G01*
G37*
D33*
X0289370Y1077755D03*
X0299212Y1077755D03*
X0309055Y1077755D03*
X0318897Y1077755D03*
G36*
G01*
X0700197Y1305157D02*
X0700197Y1308228D01*
G75*
G02*
X0700472Y1308503I0000276J0000000D01*
G01*
X0702677Y1308503D01*
G75*
G02*
X0702953Y1308228I0000000J-000276D01*
G01*
X0702953Y1305157D01*
G75*
G02*
X0702677Y1304881I-000276J0000000D01*
G01*
X0700472Y1304881D01*
G75*
G02*
X0700197Y1305157I0000000J0000276D01*
G01*
G37*
G36*
G01*
X0706496Y1305157D02*
X0706496Y1308228D01*
G75*
G02*
X0706771Y1308503I0000276J0000000D01*
G01*
X0708976Y1308503D01*
G75*
G02*
X0709252Y1308228I0000000J-000276D01*
G01*
X0709252Y1305157D01*
G75*
G02*
X0708976Y1304881I-000276J0000000D01*
G01*
X0706771Y1304881D01*
G75*
G02*
X0706496Y1305157I0000000J0000276D01*
G01*
G37*
G36*
G01*
X0287106Y1296220D02*
X0287106Y1293543D01*
G75*
G02*
X0286771Y1293208I-000335J0000000D01*
G01*
X0284094Y1293208D01*
G75*
G02*
X0283760Y1293543I0000000J0000335D01*
G01*
X0283760Y1296220D01*
G75*
G02*
X0284094Y1296555I0000335J0000000D01*
G01*
X0286771Y1296555D01*
G75*
G02*
X0287106Y1296220I0000000J-000335D01*
G01*
G37*
G36*
G01*
X0280886Y1296220D02*
X0280886Y1293543D01*
G75*
G02*
X0280551Y1293208I-000335J0000000D01*
G01*
X0277874Y1293208D01*
G75*
G02*
X0277539Y1293543I0000000J0000335D01*
G01*
X0277539Y1296220D01*
G75*
G02*
X0277874Y1296555I0000335J0000000D01*
G01*
X0280551Y1296555D01*
G75*
G02*
X0280886Y1296220I0000000J-000335D01*
G01*
G37*
G36*
G01*
X0284645Y1287696D02*
X0285827Y1287696D01*
G75*
G02*
X0286417Y1287106I0000000J-000591D01*
G01*
X0286417Y1282480D01*
G75*
G02*
X0285827Y1281889I-000591J0000000D01*
G01*
X0284645Y1281889D01*
G75*
G02*
X0284055Y1282480I0000000J0000591D01*
G01*
X0284055Y1287106D01*
G75*
G02*
X0284645Y1287696I0000591J0000000D01*
G01*
G37*
G36*
G01*
X0277165Y1287696D02*
X0278346Y1287696D01*
G75*
G02*
X0278937Y1287106I0000000J-000591D01*
G01*
X0278937Y1282480D01*
G75*
G02*
X0278346Y1281889I-000591J0000000D01*
G01*
X0277165Y1281889D01*
G75*
G02*
X0276575Y1282480I0000000J0000591D01*
G01*
X0276575Y1287106D01*
G75*
G02*
X0277165Y1287696I0000591J0000000D01*
G01*
G37*
G36*
G01*
X0280905Y1280314D02*
X0282086Y1280314D01*
G75*
G02*
X0282677Y1279724I0000000J-000591D01*
G01*
X0282677Y1275098D01*
G75*
G02*
X0282086Y1274507I-000591J0000000D01*
G01*
X0280905Y1274507D01*
G75*
G02*
X0280315Y1275098I0000000J0000591D01*
G01*
X0280315Y1279724D01*
G75*
G02*
X0280905Y1280314I0000591J0000000D01*
G01*
G37*
G36*
G01*
X0436004Y1237992D02*
X0434823Y1237992D01*
G75*
G02*
X0434232Y1238582I0000000J0000591D01*
G01*
X0434232Y1245078D01*
G75*
G02*
X0434823Y1245669I0000591J0000000D01*
G01*
X0436004Y1245669D01*
G75*
G02*
X0436594Y1245078I0000000J-000591D01*
G01*
X0436594Y1238582D01*
G75*
G02*
X0436004Y1237992I-000591J0000000D01*
G01*
G37*
G36*
G01*
X0441004Y1237992D02*
X0439823Y1237992D01*
G75*
G02*
X0439232Y1238582I0000000J0000591D01*
G01*
X0439232Y1245078D01*
G75*
G02*
X0439823Y1245669I0000591J0000000D01*
G01*
X0441004Y1245669D01*
G75*
G02*
X0441594Y1245078I0000000J-000591D01*
G01*
X0441594Y1238582D01*
G75*
G02*
X0441004Y1237992I-000591J0000000D01*
G01*
G37*
G36*
G01*
X0446004Y1237992D02*
X0444823Y1237992D01*
G75*
G02*
X0444232Y1238582I0000000J0000591D01*
G01*
X0444232Y1245078D01*
G75*
G02*
X0444823Y1245669I0000591J0000000D01*
G01*
X0446004Y1245669D01*
G75*
G02*
X0446594Y1245078I0000000J-000591D01*
G01*
X0446594Y1238582D01*
G75*
G02*
X0446004Y1237992I-000591J0000000D01*
G01*
G37*
G36*
G01*
X0451004Y1237992D02*
X0449823Y1237992D01*
G75*
G02*
X0449232Y1238582I0000000J0000591D01*
G01*
X0449232Y1245078D01*
G75*
G02*
X0449823Y1245669I0000591J0000000D01*
G01*
X0451004Y1245669D01*
G75*
G02*
X0451594Y1245078I0000000J-000591D01*
G01*
X0451594Y1238582D01*
G75*
G02*
X0451004Y1237992I-000591J0000000D01*
G01*
G37*
G36*
G01*
X0451004Y1257480D02*
X0449823Y1257480D01*
G75*
G02*
X0449232Y1258070I0000000J0000591D01*
G01*
X0449232Y1264566D01*
G75*
G02*
X0449823Y1265157I0000591J0000000D01*
G01*
X0451004Y1265157D01*
G75*
G02*
X0451594Y1264566I0000000J-000591D01*
G01*
X0451594Y1258070D01*
G75*
G02*
X0451004Y1257480I-000591J0000000D01*
G01*
G37*
G36*
G01*
X0446004Y1257480D02*
X0444823Y1257480D01*
G75*
G02*
X0444232Y1258070I0000000J0000591D01*
G01*
X0444232Y1264566D01*
G75*
G02*
X0444823Y1265157I0000591J0000000D01*
G01*
X0446004Y1265157D01*
G75*
G02*
X0446594Y1264566I0000000J-000591D01*
G01*
X0446594Y1258070D01*
G75*
G02*
X0446004Y1257480I-000591J0000000D01*
G01*
G37*
G36*
G01*
X0441004Y1257480D02*
X0439823Y1257480D01*
G75*
G02*
X0439232Y1258070I0000000J0000591D01*
G01*
X0439232Y1264566D01*
G75*
G02*
X0439823Y1265157I0000591J0000000D01*
G01*
X0441004Y1265157D01*
G75*
G02*
X0441594Y1264566I0000000J-000591D01*
G01*
X0441594Y1258070D01*
G75*
G02*
X0441004Y1257480I-000591J0000000D01*
G01*
G37*
G36*
G01*
X0436004Y1257480D02*
X0434823Y1257480D01*
G75*
G02*
X0434232Y1258070I0000000J0000591D01*
G01*
X0434232Y1264566D01*
G75*
G02*
X0434823Y1265157I0000591J0000000D01*
G01*
X0436004Y1265157D01*
G75*
G02*
X0436594Y1264566I0000000J-000591D01*
G01*
X0436594Y1258070D01*
G75*
G02*
X0436004Y1257480I-000591J0000000D01*
G01*
G37*
G36*
G01*
X0334921Y1272933D02*
X0332165Y1272933D01*
G75*
G02*
X0331181Y1273917I0000000J0000984D01*
G01*
X0331181Y1280610D01*
G75*
G02*
X0332165Y1281594I0000984J0000000D01*
G01*
X0334921Y1281594D01*
G75*
G02*
X0335905Y1280610I0000000J-000984D01*
G01*
X0335905Y1273917D01*
G75*
G02*
X0334921Y1272933I-000984J0000000D01*
G01*
G37*
G36*
G01*
X0352953Y1289468D02*
X0332086Y1289468D01*
G75*
G02*
X0331102Y1290452I0000000J0000984D01*
G01*
X0331102Y1313681D01*
G75*
G02*
X0332086Y1314665I0000984J0000000D01*
G01*
X0352953Y1314665D01*
G75*
G02*
X0353937Y1313681I0000000J-000984D01*
G01*
X0353937Y1290452D01*
G75*
G02*
X0352953Y1289468I-000984J0000000D01*
G01*
G37*
G36*
G01*
X0352874Y1272933D02*
X0350118Y1272933D01*
G75*
G02*
X0349134Y1273917I0000000J0000984D01*
G01*
X0349134Y1280610D01*
G75*
G02*
X0350118Y1281594I0000984J0000000D01*
G01*
X0352874Y1281594D01*
G75*
G02*
X0353858Y1280610I0000000J-000984D01*
G01*
X0353858Y1273917D01*
G75*
G02*
X0352874Y1272933I-000984J0000000D01*
G01*
G37*
D15*
X0514271Y1260137D03*
X0509547Y1260137D03*
X0518996Y1260137D03*
X0523720Y1260137D03*
X0498287Y1316929D03*
X0494350Y1316929D03*
G36*
G01*
X0574370Y1292322D02*
X0571299Y1292322D01*
G75*
G02*
X0571023Y1292598I0000000J0000276D01*
G01*
X0571023Y1294803D01*
G75*
G02*
X0571299Y1295078I0000276J0000000D01*
G01*
X0574370Y1295078D01*
G75*
G02*
X0574645Y1294803I0000000J-000276D01*
G01*
X0574645Y1292598D01*
G75*
G02*
X0574370Y1292322I-000276J0000000D01*
G01*
G37*
G36*
G01*
X0574370Y1298622D02*
X0571299Y1298622D01*
G75*
G02*
X0571023Y1298897I0000000J0000276D01*
G01*
X0571023Y1301102D01*
G75*
G02*
X0571299Y1301377I0000276J0000000D01*
G01*
X0574370Y1301377D01*
G75*
G02*
X0574645Y1301102I0000000J-000276D01*
G01*
X0574645Y1298897D01*
G75*
G02*
X0574370Y1298622I-000276J0000000D01*
G01*
G37*
G36*
G01*
X0715000Y1326968D02*
X0718071Y1326968D01*
G75*
G02*
X0718346Y1326692I0000000J-000276D01*
G01*
X0718346Y1324488D01*
G75*
G02*
X0718071Y1324212I-000276J0000000D01*
G01*
X0715000Y1324212D01*
G75*
G02*
X0714724Y1324488I0000000J0000276D01*
G01*
X0714724Y1326692D01*
G75*
G02*
X0715000Y1326968I0000276J0000000D01*
G01*
G37*
G36*
G01*
X0715000Y1320669D02*
X0718071Y1320669D01*
G75*
G02*
X0718346Y1320393I0000000J-000276D01*
G01*
X0718346Y1318189D01*
G75*
G02*
X0718071Y1317913I-000276J0000000D01*
G01*
X0715000Y1317913D01*
G75*
G02*
X0714724Y1318189I0000000J0000276D01*
G01*
X0714724Y1320393D01*
G75*
G02*
X0715000Y1320669I0000276J0000000D01*
G01*
G37*
G36*
G01*
X0510275Y1252952D02*
X0513346Y1252952D01*
G75*
G02*
X0513622Y1252677I0000000J-000276D01*
G01*
X0513622Y1250472D01*
G75*
G02*
X0513346Y1250196I-000276J0000000D01*
G01*
X0510275Y1250196D01*
G75*
G02*
X0510000Y1250472I0000000J0000276D01*
G01*
X0510000Y1252677D01*
G75*
G02*
X0510275Y1252952I0000276J0000000D01*
G01*
G37*
G36*
G01*
X0510275Y1246653D02*
X0513346Y1246653D01*
G75*
G02*
X0513622Y1246377I0000000J-000276D01*
G01*
X0513622Y1244173D01*
G75*
G02*
X0513346Y1243897I-000276J0000000D01*
G01*
X0510275Y1243897D01*
G75*
G02*
X0510000Y1244173I0000000J0000276D01*
G01*
X0510000Y1246377D01*
G75*
G02*
X0510275Y1246653I0000276J0000000D01*
G01*
G37*
G36*
G01*
X0407008Y1237992D02*
X0405827Y1237992D01*
G75*
G02*
X0405236Y1238582I0000000J0000591D01*
G01*
X0405236Y1245078D01*
G75*
G02*
X0405827Y1245669I0000591J0000000D01*
G01*
X0407008Y1245669D01*
G75*
G02*
X0407598Y1245078I0000000J-000591D01*
G01*
X0407598Y1238582D01*
G75*
G02*
X0407008Y1237992I-000591J0000000D01*
G01*
G37*
G36*
G01*
X0412008Y1237992D02*
X0410827Y1237992D01*
G75*
G02*
X0410236Y1238582I0000000J0000591D01*
G01*
X0410236Y1245078D01*
G75*
G02*
X0410827Y1245669I0000591J0000000D01*
G01*
X0412008Y1245669D01*
G75*
G02*
X0412598Y1245078I0000000J-000591D01*
G01*
X0412598Y1238582D01*
G75*
G02*
X0412008Y1237992I-000591J0000000D01*
G01*
G37*
G36*
G01*
X0417008Y1237992D02*
X0415827Y1237992D01*
G75*
G02*
X0415236Y1238582I0000000J0000591D01*
G01*
X0415236Y1245078D01*
G75*
G02*
X0415827Y1245669I0000591J0000000D01*
G01*
X0417008Y1245669D01*
G75*
G02*
X0417598Y1245078I0000000J-000591D01*
G01*
X0417598Y1238582D01*
G75*
G02*
X0417008Y1237992I-000591J0000000D01*
G01*
G37*
G36*
G01*
X0422008Y1237992D02*
X0420827Y1237992D01*
G75*
G02*
X0420236Y1238582I0000000J0000591D01*
G01*
X0420236Y1245078D01*
G75*
G02*
X0420827Y1245669I0000591J0000000D01*
G01*
X0422008Y1245669D01*
G75*
G02*
X0422598Y1245078I0000000J-000591D01*
G01*
X0422598Y1238582D01*
G75*
G02*
X0422008Y1237992I-000591J0000000D01*
G01*
G37*
G36*
G01*
X0422008Y1257480D02*
X0420827Y1257480D01*
G75*
G02*
X0420236Y1258070I0000000J0000591D01*
G01*
X0420236Y1264566D01*
G75*
G02*
X0420827Y1265157I0000591J0000000D01*
G01*
X0422008Y1265157D01*
G75*
G02*
X0422598Y1264566I0000000J-000591D01*
G01*
X0422598Y1258070D01*
G75*
G02*
X0422008Y1257480I-000591J0000000D01*
G01*
G37*
G36*
G01*
X0417008Y1257480D02*
X0415827Y1257480D01*
G75*
G02*
X0415236Y1258070I0000000J0000591D01*
G01*
X0415236Y1264566D01*
G75*
G02*
X0415827Y1265157I0000591J0000000D01*
G01*
X0417008Y1265157D01*
G75*
G02*
X0417598Y1264566I0000000J-000591D01*
G01*
X0417598Y1258070D01*
G75*
G02*
X0417008Y1257480I-000591J0000000D01*
G01*
G37*
G36*
G01*
X0412008Y1257480D02*
X0410827Y1257480D01*
G75*
G02*
X0410236Y1258070I0000000J0000591D01*
G01*
X0410236Y1264566D01*
G75*
G02*
X0410827Y1265157I0000591J0000000D01*
G01*
X0412008Y1265157D01*
G75*
G02*
X0412598Y1264566I0000000J-000591D01*
G01*
X0412598Y1258070D01*
G75*
G02*
X0412008Y1257480I-000591J0000000D01*
G01*
G37*
G36*
G01*
X0407008Y1257480D02*
X0405827Y1257480D01*
G75*
G02*
X0405236Y1258070I0000000J0000591D01*
G01*
X0405236Y1264566D01*
G75*
G02*
X0405827Y1265157I0000591J0000000D01*
G01*
X0407008Y1265157D01*
G75*
G02*
X0407598Y1264566I0000000J-000591D01*
G01*
X0407598Y1258070D01*
G75*
G02*
X0407008Y1257480I-000591J0000000D01*
G01*
G37*
G36*
G01*
X0282456Y1317421D02*
X0284473Y1317421D01*
G75*
G02*
X0285334Y1316560I0000000J-000861D01*
G01*
X0285334Y1314837D01*
G75*
G02*
X0284473Y1313976I-000861J0000000D01*
G01*
X0282456Y1313976D01*
G75*
G02*
X0281594Y1314837I0000000J0000861D01*
G01*
X0281594Y1316560D01*
G75*
G02*
X0282456Y1317421I0000861J0000000D01*
G01*
G37*
G36*
G01*
X0282456Y1311220D02*
X0284473Y1311220D01*
G75*
G02*
X0285334Y1310359I0000000J-000861D01*
G01*
X0285334Y1308636D01*
G75*
G02*
X0284473Y1307775I-000861J0000000D01*
G01*
X0282456Y1307775D01*
G75*
G02*
X0281594Y1308636I0000000J0000861D01*
G01*
X0281594Y1310359D01*
G75*
G02*
X0282456Y1311220I0000861J0000000D01*
G01*
G37*
G36*
G01*
X0545472Y1245177D02*
X0545472Y1250098D01*
G75*
G02*
X0545866Y1250492I0000394J0000000D01*
G01*
X0549016Y1250492D01*
G75*
G02*
X0549409Y1250098I0000000J-000394D01*
G01*
X0549409Y1245177D01*
G75*
G02*
X0549016Y1244783I-000394J0000000D01*
G01*
X0545866Y1244783D01*
G75*
G02*
X0545472Y1245177I0000000J0000394D01*
G01*
G37*
G36*
G01*
X0552953Y1245177D02*
X0552953Y1250098D01*
G75*
G02*
X0553346Y1250492I0000394J0000000D01*
G01*
X0556496Y1250492D01*
G75*
G02*
X0556890Y1250098I0000000J-000394D01*
G01*
X0556890Y1245177D01*
G75*
G02*
X0556496Y1244783I-000394J0000000D01*
G01*
X0553346Y1244783D01*
G75*
G02*
X0552953Y1245177I0000000J0000394D01*
G01*
G37*
G36*
G01*
X0531693Y1233366D02*
X0531693Y1238287D01*
G75*
G02*
X0532086Y1238681I0000394J0000000D01*
G01*
X0535236Y1238681D01*
G75*
G02*
X0535630Y1238287I0000000J-000394D01*
G01*
X0535630Y1233366D01*
G75*
G02*
X0535236Y1232972I-000394J0000000D01*
G01*
X0532086Y1232972D01*
G75*
G02*
X0531693Y1233366I0000000J0000394D01*
G01*
G37*
G36*
G01*
X0539173Y1233366D02*
X0539173Y1238287D01*
G75*
G02*
X0539567Y1238681I0000394J0000000D01*
G01*
X0542716Y1238681D01*
G75*
G02*
X0543110Y1238287I0000000J-000394D01*
G01*
X0543110Y1233366D01*
G75*
G02*
X0542716Y1232972I-000394J0000000D01*
G01*
X0539567Y1232972D01*
G75*
G02*
X0539173Y1233366I0000000J0000394D01*
G01*
G37*
G36*
G01*
X0353327Y1237992D02*
X0352145Y1237992D01*
G75*
G02*
X0351555Y1238582I0000000J0000591D01*
G01*
X0351555Y1245078D01*
G75*
G02*
X0352145Y1245669I0000591J0000000D01*
G01*
X0353327Y1245669D01*
G75*
G02*
X0353917Y1245078I0000000J-000591D01*
G01*
X0353917Y1238582D01*
G75*
G02*
X0353327Y1237992I-000591J0000000D01*
G01*
G37*
G36*
G01*
X0358327Y1237992D02*
X0357145Y1237992D01*
G75*
G02*
X0356555Y1238582I0000000J0000591D01*
G01*
X0356555Y1245078D01*
G75*
G02*
X0357145Y1245669I0000591J0000000D01*
G01*
X0358327Y1245669D01*
G75*
G02*
X0358917Y1245078I0000000J-000591D01*
G01*
X0358917Y1238582D01*
G75*
G02*
X0358327Y1237992I-000591J0000000D01*
G01*
G37*
G36*
G01*
X0363327Y1237992D02*
X0362145Y1237992D01*
G75*
G02*
X0361555Y1238582I0000000J0000591D01*
G01*
X0361555Y1245078D01*
G75*
G02*
X0362145Y1245669I0000591J0000000D01*
G01*
X0363327Y1245669D01*
G75*
G02*
X0363917Y1245078I0000000J-000591D01*
G01*
X0363917Y1238582D01*
G75*
G02*
X0363327Y1237992I-000591J0000000D01*
G01*
G37*
G36*
G01*
X0368327Y1237992D02*
X0367145Y1237992D01*
G75*
G02*
X0366555Y1238582I0000000J0000591D01*
G01*
X0366555Y1245078D01*
G75*
G02*
X0367145Y1245669I0000591J0000000D01*
G01*
X0368327Y1245669D01*
G75*
G02*
X0368917Y1245078I0000000J-000591D01*
G01*
X0368917Y1238582D01*
G75*
G02*
X0368327Y1237992I-000591J0000000D01*
G01*
G37*
G36*
G01*
X0368327Y1257480D02*
X0367145Y1257480D01*
G75*
G02*
X0366555Y1258070I0000000J0000591D01*
G01*
X0366555Y1264566D01*
G75*
G02*
X0367145Y1265157I0000591J0000000D01*
G01*
X0368327Y1265157D01*
G75*
G02*
X0368917Y1264566I0000000J-000591D01*
G01*
X0368917Y1258070D01*
G75*
G02*
X0368327Y1257480I-000591J0000000D01*
G01*
G37*
G36*
G01*
X0363327Y1257480D02*
X0362145Y1257480D01*
G75*
G02*
X0361555Y1258070I0000000J0000591D01*
G01*
X0361555Y1264566D01*
G75*
G02*
X0362145Y1265157I0000591J0000000D01*
G01*
X0363327Y1265157D01*
G75*
G02*
X0363917Y1264566I0000000J-000591D01*
G01*
X0363917Y1258070D01*
G75*
G02*
X0363327Y1257480I-000591J0000000D01*
G01*
G37*
G36*
G01*
X0358327Y1257480D02*
X0357145Y1257480D01*
G75*
G02*
X0356555Y1258070I0000000J0000591D01*
G01*
X0356555Y1264566D01*
G75*
G02*
X0357145Y1265157I0000591J0000000D01*
G01*
X0358327Y1265157D01*
G75*
G02*
X0358917Y1264566I0000000J-000591D01*
G01*
X0358917Y1258070D01*
G75*
G02*
X0358327Y1257480I-000591J0000000D01*
G01*
G37*
G36*
G01*
X0353327Y1257480D02*
X0352145Y1257480D01*
G75*
G02*
X0351555Y1258070I0000000J0000591D01*
G01*
X0351555Y1264566D01*
G75*
G02*
X0352145Y1265157I0000591J0000000D01*
G01*
X0353327Y1265157D01*
G75*
G02*
X0353917Y1264566I0000000J-000591D01*
G01*
X0353917Y1258070D01*
G75*
G02*
X0353327Y1257480I-000591J0000000D01*
G01*
G37*
G36*
G01*
X0742716Y1335236D02*
X0737598Y1335236D01*
G75*
G02*
X0736614Y1336220I0000000J0000984D01*
G01*
X0736614Y1344094D01*
G75*
G02*
X0737598Y1345078I0000984J0000000D01*
G01*
X0742716Y1345078D01*
G75*
G02*
X0743701Y1344094I0000000J-000984D01*
G01*
X0743701Y1336220D01*
G75*
G02*
X0742716Y1335236I-000984J0000000D01*
G01*
G37*
G36*
G01*
X0742716Y1350984D02*
X0737598Y1350984D01*
G75*
G02*
X0736614Y1351968I0000000J0000984D01*
G01*
X0736614Y1359842D01*
G75*
G02*
X0737598Y1360826I0000984J0000000D01*
G01*
X0742716Y1360826D01*
G75*
G02*
X0743701Y1359842I0000000J-000984D01*
G01*
X0743701Y1351968D01*
G75*
G02*
X0742716Y1350984I-000984J0000000D01*
G01*
G37*
D50*
X0347933Y1079330D03*
D51*
X0341043Y1082480D03*
X0347933Y1085629D03*
X0341043Y1088779D03*
X0347933Y1091929D03*
D52*
X0344488Y1071259D03*
X0344488Y1100000D03*
G36*
G01*
X0431712Y1272933D02*
X0428957Y1272933D01*
G75*
G02*
X0427972Y1273917I0000000J0000984D01*
G01*
X0427972Y1280610D01*
G75*
G02*
X0428957Y1281594I0000984J0000000D01*
G01*
X0431712Y1281594D01*
G75*
G02*
X0432697Y1280610I0000000J-000984D01*
G01*
X0432697Y1273917D01*
G75*
G02*
X0431712Y1272933I-000984J0000000D01*
G01*
G37*
G36*
G01*
X0449744Y1289468D02*
X0428878Y1289468D01*
G75*
G02*
X0427894Y1290452I0000000J0000984D01*
G01*
X0427894Y1313681D01*
G75*
G02*
X0428878Y1314665I0000984J0000000D01*
G01*
X0449744Y1314665D01*
G75*
G02*
X0450728Y1313681I0000000J-000984D01*
G01*
X0450728Y1290452D01*
G75*
G02*
X0449744Y1289468I-000984J0000000D01*
G01*
G37*
G36*
G01*
X0449665Y1272933D02*
X0446909Y1272933D01*
G75*
G02*
X0445925Y1273917I0000000J0000984D01*
G01*
X0445925Y1280610D01*
G75*
G02*
X0446909Y1281594I0000984J0000000D01*
G01*
X0449665Y1281594D01*
G75*
G02*
X0450649Y1280610I0000000J-000984D01*
G01*
X0450649Y1273917D01*
G75*
G02*
X0449665Y1272933I-000984J0000000D01*
G01*
G37*
G36*
G01*
X0272992Y1248759D02*
X0270315Y1248759D01*
G75*
G02*
X0269980Y1249094I0000000J0000335D01*
G01*
X0269980Y1251771D01*
G75*
G02*
X0270315Y1252106I0000335J0000000D01*
G01*
X0272992Y1252106D01*
G75*
G02*
X0273327Y1251771I0000000J-000335D01*
G01*
X0273327Y1249094D01*
G75*
G02*
X0272992Y1248759I-000335J0000000D01*
G01*
G37*
G36*
G01*
X0272992Y1254980D02*
X0270315Y1254980D01*
G75*
G02*
X0269980Y1255315I0000000J0000335D01*
G01*
X0269980Y1257992D01*
G75*
G02*
X0270315Y1258326I0000335J0000000D01*
G01*
X0272992Y1258326D01*
G75*
G02*
X0273327Y1257992I0000000J-000335D01*
G01*
X0273327Y1255315D01*
G75*
G02*
X0272992Y1254980I-000335J0000000D01*
G01*
G37*
D56*
X0324557Y1099435D03*
D58*
X0283809Y1099632D03*
X0285777Y1099632D03*
D15*
X0311565Y1103766D03*
X0308120Y1105833D03*
X0312746Y1108786D03*
X0312451Y1122762D03*
G36*
G01*
X0518149Y1252952D02*
X0521220Y1252952D01*
G75*
G02*
X0521496Y1252677I0000000J-000276D01*
G01*
X0521496Y1250472D01*
G75*
G02*
X0521220Y1250196I-000276J0000000D01*
G01*
X0518149Y1250196D01*
G75*
G02*
X0517874Y1250472I0000000J0000276D01*
G01*
X0517874Y1252677D01*
G75*
G02*
X0518149Y1252952I0000276J0000000D01*
G01*
G37*
G36*
G01*
X0518149Y1246653D02*
X0521220Y1246653D01*
G75*
G02*
X0521496Y1246377I0000000J-000276D01*
G01*
X0521496Y1244173D01*
G75*
G02*
X0521220Y1243897I-000276J0000000D01*
G01*
X0518149Y1243897D01*
G75*
G02*
X0517874Y1244173I0000000J0000276D01*
G01*
X0517874Y1246377D01*
G75*
G02*
X0518149Y1246653I0000276J0000000D01*
G01*
G37*
G36*
G01*
X0465531Y1237992D02*
X0464350Y1237992D01*
G75*
G02*
X0463760Y1238582I0000000J0000591D01*
G01*
X0463760Y1245078D01*
G75*
G02*
X0464350Y1245669I0000591J0000000D01*
G01*
X0465531Y1245669D01*
G75*
G02*
X0466122Y1245078I0000000J-000591D01*
G01*
X0466122Y1238582D01*
G75*
G02*
X0465531Y1237992I-000591J0000000D01*
G01*
G37*
G36*
G01*
X0470531Y1237992D02*
X0469350Y1237992D01*
G75*
G02*
X0468760Y1238582I0000000J0000591D01*
G01*
X0468760Y1245078D01*
G75*
G02*
X0469350Y1245669I0000591J0000000D01*
G01*
X0470531Y1245669D01*
G75*
G02*
X0471122Y1245078I0000000J-000591D01*
G01*
X0471122Y1238582D01*
G75*
G02*
X0470531Y1237992I-000591J0000000D01*
G01*
G37*
G36*
G01*
X0475531Y1237992D02*
X0474350Y1237992D01*
G75*
G02*
X0473760Y1238582I0000000J0000591D01*
G01*
X0473760Y1245078D01*
G75*
G02*
X0474350Y1245669I0000591J0000000D01*
G01*
X0475531Y1245669D01*
G75*
G02*
X0476122Y1245078I0000000J-000591D01*
G01*
X0476122Y1238582D01*
G75*
G02*
X0475531Y1237992I-000591J0000000D01*
G01*
G37*
G36*
G01*
X0480531Y1237992D02*
X0479350Y1237992D01*
G75*
G02*
X0478760Y1238582I0000000J0000591D01*
G01*
X0478760Y1245078D01*
G75*
G02*
X0479350Y1245669I0000591J0000000D01*
G01*
X0480531Y1245669D01*
G75*
G02*
X0481122Y1245078I0000000J-000591D01*
G01*
X0481122Y1238582D01*
G75*
G02*
X0480531Y1237992I-000591J0000000D01*
G01*
G37*
G36*
G01*
X0480531Y1257480D02*
X0479350Y1257480D01*
G75*
G02*
X0478760Y1258070I0000000J0000591D01*
G01*
X0478760Y1264566D01*
G75*
G02*
X0479350Y1265157I0000591J0000000D01*
G01*
X0480531Y1265157D01*
G75*
G02*
X0481122Y1264566I0000000J-000591D01*
G01*
X0481122Y1258070D01*
G75*
G02*
X0480531Y1257480I-000591J0000000D01*
G01*
G37*
G36*
G01*
X0475531Y1257480D02*
X0474350Y1257480D01*
G75*
G02*
X0473760Y1258070I0000000J0000591D01*
G01*
X0473760Y1264566D01*
G75*
G02*
X0474350Y1265157I0000591J0000000D01*
G01*
X0475531Y1265157D01*
G75*
G02*
X0476122Y1264566I0000000J-000591D01*
G01*
X0476122Y1258070D01*
G75*
G02*
X0475531Y1257480I-000591J0000000D01*
G01*
G37*
G36*
G01*
X0470531Y1257480D02*
X0469350Y1257480D01*
G75*
G02*
X0468760Y1258070I0000000J0000591D01*
G01*
X0468760Y1264566D01*
G75*
G02*
X0469350Y1265157I0000591J0000000D01*
G01*
X0470531Y1265157D01*
G75*
G02*
X0471122Y1264566I0000000J-000591D01*
G01*
X0471122Y1258070D01*
G75*
G02*
X0470531Y1257480I-000591J0000000D01*
G01*
G37*
G36*
G01*
X0465531Y1257480D02*
X0464350Y1257480D01*
G75*
G02*
X0463760Y1258070I0000000J0000591D01*
G01*
X0463760Y1264566D01*
G75*
G02*
X0464350Y1265157I0000591J0000000D01*
G01*
X0465531Y1265157D01*
G75*
G02*
X0466122Y1264566I0000000J-000591D01*
G01*
X0466122Y1258070D01*
G75*
G02*
X0465531Y1257480I-000591J0000000D01*
G01*
G37*
G36*
G01*
X0227342Y1125787D02*
X0226161Y1125787D01*
G75*
G02*
X0225571Y1126377I0000000J0000591D01*
G01*
X0225571Y1132874D01*
G75*
G02*
X0226161Y1133464I0000591J0000000D01*
G01*
X0227342Y1133464D01*
G75*
G02*
X0227933Y1132874I0000000J-000591D01*
G01*
X0227933Y1126377D01*
G75*
G02*
X0227342Y1125787I-000591J0000000D01*
G01*
G37*
G36*
G01*
X0232342Y1125787D02*
X0231161Y1125787D01*
G75*
G02*
X0230571Y1126377I0000000J0000591D01*
G01*
X0230571Y1132874D01*
G75*
G02*
X0231161Y1133464I0000591J0000000D01*
G01*
X0232342Y1133464D01*
G75*
G02*
X0232933Y1132874I0000000J-000591D01*
G01*
X0232933Y1126377D01*
G75*
G02*
X0232342Y1125787I-000591J0000000D01*
G01*
G37*
G36*
G01*
X0237342Y1125787D02*
X0236161Y1125787D01*
G75*
G02*
X0235571Y1126377I0000000J0000591D01*
G01*
X0235571Y1132874D01*
G75*
G02*
X0236161Y1133464I0000591J0000000D01*
G01*
X0237342Y1133464D01*
G75*
G02*
X0237933Y1132874I0000000J-000591D01*
G01*
X0237933Y1126377D01*
G75*
G02*
X0237342Y1125787I-000591J0000000D01*
G01*
G37*
G36*
G01*
X0242342Y1125787D02*
X0241161Y1125787D01*
G75*
G02*
X0240571Y1126377I0000000J0000591D01*
G01*
X0240571Y1132874D01*
G75*
G02*
X0241161Y1133464I0000591J0000000D01*
G01*
X0242342Y1133464D01*
G75*
G02*
X0242933Y1132874I0000000J-000591D01*
G01*
X0242933Y1126377D01*
G75*
G02*
X0242342Y1125787I-000591J0000000D01*
G01*
G37*
G36*
G01*
X0242342Y1145275D02*
X0241161Y1145275D01*
G75*
G02*
X0240571Y1145866I0000000J0000591D01*
G01*
X0240571Y1152362D01*
G75*
G02*
X0241161Y1152952I0000591J0000000D01*
G01*
X0242342Y1152952D01*
G75*
G02*
X0242933Y1152362I0000000J-000591D01*
G01*
X0242933Y1145866D01*
G75*
G02*
X0242342Y1145275I-000591J0000000D01*
G01*
G37*
G36*
G01*
X0237342Y1145275D02*
X0236161Y1145275D01*
G75*
G02*
X0235571Y1145866I0000000J0000591D01*
G01*
X0235571Y1152362D01*
G75*
G02*
X0236161Y1152952I0000591J0000000D01*
G01*
X0237342Y1152952D01*
G75*
G02*
X0237933Y1152362I0000000J-000591D01*
G01*
X0237933Y1145866D01*
G75*
G02*
X0237342Y1145275I-000591J0000000D01*
G01*
G37*
G36*
G01*
X0232342Y1145275D02*
X0231161Y1145275D01*
G75*
G02*
X0230571Y1145866I0000000J0000591D01*
G01*
X0230571Y1152362D01*
G75*
G02*
X0231161Y1152952I0000591J0000000D01*
G01*
X0232342Y1152952D01*
G75*
G02*
X0232933Y1152362I0000000J-000591D01*
G01*
X0232933Y1145866D01*
G75*
G02*
X0232342Y1145275I-000591J0000000D01*
G01*
G37*
G36*
G01*
X0227342Y1145275D02*
X0226161Y1145275D01*
G75*
G02*
X0225571Y1145866I0000000J0000591D01*
G01*
X0225571Y1152362D01*
G75*
G02*
X0226161Y1152952I0000591J0000000D01*
G01*
X0227342Y1152952D01*
G75*
G02*
X0227933Y1152362I0000000J-000591D01*
G01*
X0227933Y1145866D01*
G75*
G02*
X0227342Y1145275I-000591J0000000D01*
G01*
G37*
G36*
G01*
X0300216Y1261220D02*
X0301397Y1261220D01*
G75*
G02*
X0301988Y1260629I0000000J-000591D01*
G01*
X0301988Y1254133D01*
G75*
G02*
X0301397Y1253543I-000591J0000000D01*
G01*
X0300216Y1253543D01*
G75*
G02*
X0299626Y1254133I0000000J0000591D01*
G01*
X0299626Y1260629D01*
G75*
G02*
X0300216Y1261220I0000591J0000000D01*
G01*
G37*
G36*
G01*
X0295216Y1261220D02*
X0296397Y1261220D01*
G75*
G02*
X0296988Y1260629I0000000J-000591D01*
G01*
X0296988Y1254133D01*
G75*
G02*
X0296397Y1253543I-000591J0000000D01*
G01*
X0295216Y1253543D01*
G75*
G02*
X0294626Y1254133I0000000J0000591D01*
G01*
X0294626Y1260629D01*
G75*
G02*
X0295216Y1261220I0000591J0000000D01*
G01*
G37*
G36*
G01*
X0290216Y1261220D02*
X0291397Y1261220D01*
G75*
G02*
X0291988Y1260629I0000000J-000591D01*
G01*
X0291988Y1254133D01*
G75*
G02*
X0291397Y1253543I-000591J0000000D01*
G01*
X0290216Y1253543D01*
G75*
G02*
X0289626Y1254133I0000000J0000591D01*
G01*
X0289626Y1260629D01*
G75*
G02*
X0290216Y1261220I0000591J0000000D01*
G01*
G37*
G36*
G01*
X0285216Y1261220D02*
X0286397Y1261220D01*
G75*
G02*
X0286988Y1260629I0000000J-000591D01*
G01*
X0286988Y1254133D01*
G75*
G02*
X0286397Y1253543I-000591J0000000D01*
G01*
X0285216Y1253543D01*
G75*
G02*
X0284626Y1254133I0000000J0000591D01*
G01*
X0284626Y1260629D01*
G75*
G02*
X0285216Y1261220I0000591J0000000D01*
G01*
G37*
G36*
G01*
X0285216Y1241732D02*
X0286397Y1241732D01*
G75*
G02*
X0286988Y1241141I0000000J-000591D01*
G01*
X0286988Y1234645D01*
G75*
G02*
X0286397Y1234055I-000591J0000000D01*
G01*
X0285216Y1234055D01*
G75*
G02*
X0284626Y1234645I0000000J0000591D01*
G01*
X0284626Y1241141D01*
G75*
G02*
X0285216Y1241732I0000591J0000000D01*
G01*
G37*
G36*
G01*
X0290216Y1241732D02*
X0291397Y1241732D01*
G75*
G02*
X0291988Y1241141I0000000J-000591D01*
G01*
X0291988Y1234645D01*
G75*
G02*
X0291397Y1234055I-000591J0000000D01*
G01*
X0290216Y1234055D01*
G75*
G02*
X0289626Y1234645I0000000J0000591D01*
G01*
X0289626Y1241141D01*
G75*
G02*
X0290216Y1241732I0000591J0000000D01*
G01*
G37*
G36*
G01*
X0295216Y1241732D02*
X0296397Y1241732D01*
G75*
G02*
X0296988Y1241141I0000000J-000591D01*
G01*
X0296988Y1234645D01*
G75*
G02*
X0296397Y1234055I-000591J0000000D01*
G01*
X0295216Y1234055D01*
G75*
G02*
X0294626Y1234645I0000000J0000591D01*
G01*
X0294626Y1241141D01*
G75*
G02*
X0295216Y1241732I0000591J0000000D01*
G01*
G37*
G36*
G01*
X0300216Y1241732D02*
X0301397Y1241732D01*
G75*
G02*
X0301988Y1241141I0000000J-000591D01*
G01*
X0301988Y1234645D01*
G75*
G02*
X0301397Y1234055I-000591J0000000D01*
G01*
X0300216Y1234055D01*
G75*
G02*
X0299626Y1234645I0000000J0000591D01*
G01*
X0299626Y1241141D01*
G75*
G02*
X0300216Y1241732I0000591J0000000D01*
G01*
G37*
D59*
X0711228Y1465681D03*
D60*
X0701582Y1434972D03*
D59*
X0417921Y1465681D03*
D60*
X0222055Y1434972D03*
D59*
X0212409Y1465681D03*
D61*
X0683275Y1445996D03*
X0660441Y1445996D03*
X0671858Y1436822D03*
X0683275Y1413988D03*
X0660441Y1413988D03*
D14*
X0449338Y1413988D03*
X0459338Y1413988D03*
X0469338Y1413988D03*
X0479338Y1413988D03*
X0489338Y1413988D03*
X0499338Y1413988D03*
X0509338Y1413988D03*
X0519338Y1413988D03*
X0529338Y1413988D03*
X0539338Y1413988D03*
X0549338Y1413988D03*
X0559338Y1413988D03*
X0569338Y1413988D03*
X0579338Y1413988D03*
X0589338Y1413988D03*
X0599338Y1413988D03*
X0609338Y1413988D03*
X0619338Y1413988D03*
X0629338Y1413988D03*
X0449338Y1423988D03*
X0459338Y1423988D03*
X0469338Y1423988D03*
X0479338Y1423988D03*
X0489338Y1423988D03*
X0499338Y1423988D03*
X0509338Y1423988D03*
X0519338Y1423988D03*
X0529338Y1423988D03*
X0539338Y1423988D03*
X0549338Y1423988D03*
X0559338Y1423988D03*
X0569338Y1423988D03*
X0579338Y1423988D03*
X0589338Y1423988D03*
X0599338Y1423988D03*
X0609338Y1423988D03*
X0619338Y1423988D03*
X0629338Y1423988D03*
X0449338Y1447807D03*
X0459338Y1447807D03*
X0469338Y1447807D03*
X0479338Y1447807D03*
X0489338Y1447807D03*
X0499338Y1447807D03*
X0509338Y1447807D03*
X0519338Y1447807D03*
X0529338Y1447807D03*
X0539338Y1447807D03*
X0549338Y1447807D03*
X0559338Y1447807D03*
X0569338Y1447807D03*
X0579338Y1447807D03*
X0589338Y1447807D03*
X0599338Y1447807D03*
X0609338Y1447807D03*
X0619338Y1447807D03*
X0629338Y1447807D03*
X0449338Y1457807D03*
X0459338Y1457807D03*
X0469338Y1457807D03*
X0479338Y1457807D03*
X0489338Y1457807D03*
X0499338Y1457807D03*
X0509338Y1457807D03*
X0519338Y1457807D03*
X0529338Y1457807D03*
X0539338Y1457807D03*
X0549338Y1457807D03*
X0559338Y1457807D03*
X0569338Y1457807D03*
X0579338Y1457807D03*
X0589338Y1457807D03*
X0599338Y1457807D03*
X0609338Y1457807D03*
X0619338Y1457807D03*
X0629338Y1457807D03*
X0386464Y1457807D03*
X0376464Y1457807D03*
X0366464Y1457807D03*
X0356464Y1457807D03*
X0346464Y1457807D03*
X0336464Y1457807D03*
X0326464Y1457807D03*
X0316464Y1457807D03*
X0386464Y1447807D03*
X0376464Y1447807D03*
X0366464Y1447807D03*
X0356464Y1447807D03*
X0346464Y1447807D03*
X0336464Y1447807D03*
X0326464Y1447807D03*
X0316464Y1447807D03*
X0386464Y1423988D03*
X0376464Y1423988D03*
X0366464Y1423988D03*
X0356464Y1423988D03*
X0346464Y1423988D03*
X0336464Y1423988D03*
X0326464Y1423988D03*
X0316464Y1423988D03*
X0386464Y1413988D03*
X0376464Y1413988D03*
X0366464Y1413988D03*
X0356464Y1413988D03*
X0346464Y1413988D03*
X0336464Y1413988D03*
X0326464Y1413988D03*
X0316464Y1413988D03*
D61*
X0285638Y1445996D03*
X0262803Y1445996D03*
X0239575Y1445996D03*
X0274220Y1436822D03*
X0250992Y1436822D03*
X0285638Y1413988D03*
X0262803Y1413988D03*
X0239575Y1413988D03*
G36*
X0162491Y1095483D02*
G01*
X0162595Y1095266D01*
X0162598Y1095215D01*
X0162598Y1094873D01*
X0165861Y1094314D01*
X0165888Y1094308D01*
X0169506Y1093428D01*
X0169527Y1093422D01*
X0172751Y1092445D01*
X0172778Y1092436D01*
X0175315Y1091460D01*
X0175332Y1091453D01*
X0177778Y1090377D01*
X0177790Y1090371D01*
X0180627Y1089002D01*
X0180649Y1088990D01*
X0183772Y1087234D01*
X0183803Y1087214D01*
X0187029Y1084966D01*
X0187043Y1084956D01*
X0189975Y1082708D01*
X0190002Y1082685D01*
X0192443Y1080439D01*
X0192455Y1080428D01*
X0195193Y1077690D01*
X0195217Y1077664D01*
X0197657Y1074735D01*
X0197674Y1074714D01*
X0199433Y1072270D01*
X0199441Y1072258D01*
X0201202Y1069617D01*
X0201215Y1069596D01*
X0202681Y1067055D01*
X0202690Y1067040D01*
X0204155Y1064206D01*
X0204168Y1064180D01*
X0205537Y1060953D01*
X0205543Y1060937D01*
X0207009Y1057028D01*
X0207021Y1056988D01*
X0207997Y1053184D01*
X0208003Y1053155D01*
X0208590Y1049831D01*
X0208592Y1049815D01*
X0208984Y1046874D01*
X0208985Y1046866D01*
X0209031Y1046456D01*
X0209031Y1046456D01*
X0209473Y1046456D01*
X0209702Y1046382D01*
X0209844Y1046187D01*
X0209860Y1046022D01*
X0209836Y1045812D01*
X0209779Y1045648D01*
X0209687Y1045502D01*
X0209564Y1045380D01*
X0209408Y1045282D01*
X0209266Y1045228D01*
X0209115Y1045203D01*
X0209050Y1045197D01*
X0189858Y1045197D01*
X0189629Y1045272D01*
X0189487Y1045466D01*
X0189468Y1045587D01*
X0189468Y1045985D01*
X0189468Y1045985D01*
X0188988Y1045985D01*
X0188759Y1046059D01*
X0188617Y1046254D01*
X0188612Y1046273D01*
X0188090Y1048221D01*
X0187344Y1050417D01*
X0186457Y1052560D01*
X0186457Y1052560D01*
X0185431Y1054640D01*
X0184271Y1056649D01*
X0184271Y1056649D01*
X0182983Y1058577D01*
X0181571Y1060417D01*
X0181571Y1060417D01*
X0180042Y1062161D01*
X0180041Y1062161D01*
X0178401Y1063801D01*
X0178401Y1063801D01*
X0176658Y1065330D01*
X0176658Y1065330D01*
X0174818Y1066742D01*
X0172889Y1068031D01*
X0172889Y1068031D01*
X0170881Y1069190D01*
X0168801Y1070216D01*
X0168801Y1070216D01*
X0166658Y1071104D01*
X0164462Y1071849D01*
X0162626Y1072341D01*
X0162424Y1072472D01*
X0162376Y1072598D01*
X0162337Y1072637D01*
X0161941Y1072637D01*
X0161712Y1072712D01*
X0161571Y1072907D01*
X0161551Y1073029D01*
X0161642Y1094861D01*
X0161652Y1094948D01*
X0161702Y1095160D01*
X0161777Y1095316D01*
X0161886Y1095450D01*
X0162022Y1095558D01*
X0162041Y1095567D01*
X0162280Y1095598D01*
X0162491Y1095483D01*
G37*
G36*
X0162212Y1436911D02*
G01*
X0162441Y1436835D01*
X0162581Y1436640D01*
X0162600Y1436521D01*
X0162598Y1094873D01*
X0163062Y1094794D01*
X0163275Y1094681D01*
X0163382Y1094465D01*
X0163386Y1094409D01*
X0163386Y1072681D01*
X0163376Y1072595D01*
X0163368Y1072561D01*
X0163245Y1072354D01*
X0163023Y1072259D01*
X0162887Y1072271D01*
X0162626Y1072341D01*
X0162424Y1072472D01*
X0162376Y1072598D01*
X0162337Y1072637D01*
X0161315Y1072637D01*
X0161239Y1072645D01*
X0159946Y1072902D01*
X0159946Y1072902D01*
X0157647Y1073205D01*
X0155333Y1073356D01*
X0155333Y1073356D01*
X0154173Y1073366D01*
X0144705Y1073366D01*
X0144476Y1073440D01*
X0144430Y1073480D01*
X0139878Y1078032D01*
X0139768Y1078247D01*
X0139764Y1078307D01*
X0139764Y1171362D01*
X0139838Y1171591D01*
X0140033Y1171732D01*
X0140153Y1171751D01*
X0148031Y1171751D01*
X0148520Y1171762D01*
X0149483Y1171922D01*
X0150408Y1172240D01*
X0151267Y1172705D01*
X0151267Y1172705D01*
X0152038Y1173305D01*
X0152700Y1174024D01*
X0153234Y1174841D01*
X0153626Y1175736D01*
X0153866Y1176683D01*
X0153947Y1177657D01*
X0153866Y1178631D01*
X0153626Y1179578D01*
X0153234Y1180473D01*
X0152700Y1181290D01*
X0152038Y1182009D01*
X0151267Y1182609D01*
X0151267Y1182609D01*
X0150408Y1183074D01*
X0149483Y1183392D01*
X0148520Y1183552D01*
X0148031Y1183563D01*
X0140153Y1183563D01*
X0139924Y1183637D01*
X0139783Y1183832D01*
X0139764Y1183952D01*
X0139764Y1431340D01*
X0139838Y1431569D01*
X0139870Y1431608D01*
X0144866Y1436885D01*
X0145077Y1437000D01*
X0145151Y1437006D01*
X0162212Y1436911D01*
G37*
G36*
X0761866Y1093494D02*
G01*
X0762082Y1093469D01*
X0762246Y1093411D01*
X0762392Y1093319D01*
X0762514Y1093197D01*
X0762612Y1093041D01*
X0762666Y1092899D01*
X0762691Y1092748D01*
X0762697Y1092683D01*
X0762697Y1073618D01*
X0762622Y1073389D01*
X0762427Y1073247D01*
X0762307Y1073228D01*
X0761909Y1073228D01*
X0761909Y1073228D01*
X0761909Y1072870D01*
X0761835Y1072641D01*
X0761640Y1072500D01*
X0761596Y1072488D01*
X0761401Y1072449D01*
X0759160Y1071849D01*
X0756964Y1071104D01*
X0754821Y1070216D01*
X0754821Y1070216D01*
X0752741Y1069190D01*
X0750733Y1068031D01*
X0750733Y1068030D01*
X0748804Y1066742D01*
X0748804Y1066742D01*
X0746964Y1065330D01*
X0746964Y1065330D01*
X0745220Y1063801D01*
X0745220Y1063801D01*
X0743580Y1062161D01*
X0743580Y1062161D01*
X0742051Y1060417D01*
X0742051Y1060417D01*
X0740639Y1058577D01*
X0740639Y1058577D01*
X0739351Y1056649D01*
X0739351Y1056649D01*
X0738191Y1054640D01*
X0737165Y1052560D01*
X0737165Y1052560D01*
X0736278Y1050417D01*
X0735532Y1048221D01*
X0734932Y1045981D01*
X0734836Y1045500D01*
X0734719Y1045290D01*
X0734500Y1045189D01*
X0734452Y1045186D01*
X0713033Y1045275D01*
X0712946Y1045285D01*
X0712734Y1045334D01*
X0712578Y1045410D01*
X0712444Y1045518D01*
X0712336Y1045654D01*
X0712259Y1045816D01*
X0712221Y1045973D01*
X0712219Y1046057D01*
X0712288Y1046288D01*
X0712479Y1046434D01*
X0712609Y1046456D01*
X0713059Y1046456D01*
X0713580Y1049494D01*
X0713586Y1049520D01*
X0714466Y1053139D01*
X0714471Y1053160D01*
X0715448Y1056384D01*
X0715458Y1056410D01*
X0716434Y1058948D01*
X0716441Y1058965D01*
X0717517Y1061411D01*
X0717522Y1061423D01*
X0718892Y1064260D01*
X0718903Y1064282D01*
X0720660Y1067404D01*
X0720680Y1067436D01*
X0722928Y1070662D01*
X0722938Y1070676D01*
X0725186Y1073608D01*
X0725209Y1073634D01*
X0727455Y1076076D01*
X0727466Y1076088D01*
X0730204Y1078826D01*
X0730230Y1078849D01*
X0733159Y1081290D01*
X0733180Y1081307D01*
X0735624Y1083066D01*
X0735636Y1083074D01*
X0738277Y1084835D01*
X0738298Y1084848D01*
X0740838Y1086314D01*
X0740854Y1086323D01*
X0743687Y1087788D01*
X0743714Y1087801D01*
X0746941Y1089170D01*
X0746956Y1089176D01*
X0750866Y1090642D01*
X0750906Y1090654D01*
X0754710Y1091630D01*
X0754739Y1091636D01*
X0758063Y1092223D01*
X0758079Y1092225D01*
X0761019Y1092617D01*
X0761028Y1092618D01*
X0761029Y1092618D01*
X0761029Y1093062D01*
X0761103Y1093291D01*
X0761298Y1093432D01*
X0761376Y1093449D01*
X0761779Y1093494D01*
X0761866Y1093494D01*
G37*
G36*
X0779145Y1437425D02*
G01*
X0779192Y1437385D01*
X0783778Y1432799D01*
X0783888Y1432584D01*
X0783892Y1432523D01*
X0783869Y1183952D01*
X0783794Y1183723D01*
X0783599Y1183582D01*
X0783479Y1183563D01*
X0775590Y1183563D01*
X0775102Y1183553D01*
X0774138Y1183392D01*
X0774138Y1183392D01*
X0773214Y1183075D01*
X0773214Y1183075D01*
X0772354Y1182610D01*
X0771583Y1182010D01*
X0771583Y1182010D01*
X0770921Y1181291D01*
X0770387Y1180473D01*
X0769994Y1179578D01*
X0769994Y1179578D01*
X0769754Y1178631D01*
X0769754Y1178631D01*
X0769673Y1177657D01*
X0769754Y1176683D01*
X0769754Y1176683D01*
X0769994Y1175736D01*
X0769994Y1175736D01*
X0770387Y1174841D01*
X0770921Y1174023D01*
X0771583Y1173304D01*
X0771583Y1173304D01*
X0772354Y1172704D01*
X0773214Y1172239D01*
X0773214Y1172239D01*
X0774138Y1171922D01*
X0775102Y1171761D01*
X0775590Y1171752D01*
X0783478Y1171752D01*
X0783707Y1171677D01*
X0783848Y1171482D01*
X0783867Y1171362D01*
X0783859Y1078308D01*
X0783784Y1078079D01*
X0783744Y1078032D01*
X0779192Y1073480D01*
X0778977Y1073370D01*
X0778916Y1073366D01*
X0769449Y1073366D01*
X0768289Y1073356D01*
X0766344Y1073229D01*
X0766319Y1073228D01*
X0761909Y1073228D01*
X0761909Y1073228D01*
X0761909Y1072870D01*
X0761835Y1072641D01*
X0761640Y1072500D01*
X0761596Y1072488D01*
X0761394Y1072448D01*
X0761394Y1072449D01*
X0761318Y1072440D01*
X0761067Y1072440D01*
X0760981Y1072450D01*
X0760769Y1072499D01*
X0760612Y1072574D01*
X0760477Y1072681D01*
X0760369Y1072817D01*
X0760285Y1072993D01*
X0760248Y1073119D01*
X0760238Y1073206D01*
X0760236Y1073250D01*
X0760241Y1092172D01*
X0760316Y1092401D01*
X0760511Y1092543D01*
X0760579Y1092558D01*
X0761019Y1092617D01*
X0761028Y1092618D01*
X0761029Y1092618D01*
X0761122Y1432874D01*
X0761122Y1437110D01*
X0761196Y1437339D01*
X0761391Y1437480D01*
X0761512Y1437500D01*
X0778916Y1437500D01*
X0779145Y1437425D01*
G37*
G36*
X0208823Y1047169D02*
G01*
X0208964Y1046974D01*
X0208980Y1046905D01*
X0208984Y1046875D01*
X0208985Y1046866D01*
X0209031Y1046456D01*
X0209031Y1046456D01*
X0713059Y1046456D01*
X0713139Y1046920D01*
X0713251Y1047133D01*
X0713467Y1047240D01*
X0713523Y1047244D01*
X0734762Y1047244D01*
X0734991Y1047169D01*
X0735133Y1046974D01*
X0735139Y1046753D01*
X0734932Y1045981D01*
X0734479Y1043706D01*
X0734479Y1043706D01*
X0734177Y1041407D01*
X0734025Y1039092D01*
X0734016Y1037932D01*
X0734016Y1028465D01*
X0733941Y1028236D01*
X0733901Y1028189D01*
X0729252Y1023540D01*
X0729037Y1023431D01*
X0728976Y1023426D01*
X0194549Y1023522D01*
X0194320Y1023597D01*
X0194273Y1023636D01*
X0189720Y1028189D01*
X0189611Y1028404D01*
X0189606Y1028465D01*
X0189606Y1037933D01*
X0189597Y1039092D01*
X0189597Y1039092D01*
X0189469Y1041040D01*
X0189468Y1041066D01*
X0189468Y1045985D01*
X0189468Y1045985D01*
X0189071Y1045985D01*
X0188842Y1046059D01*
X0188700Y1046254D01*
X0188681Y1046374D01*
X0188681Y1046412D01*
X0188691Y1046499D01*
X0188739Y1046711D01*
X0188814Y1046867D01*
X0188922Y1047002D01*
X0189058Y1047110D01*
X0189233Y1047195D01*
X0189359Y1047231D01*
X0189447Y1047241D01*
X0189490Y1047244D01*
X0208594Y1047244D01*
X0208823Y1047169D01*
G37*
X0287205Y0240034D02*
G01*
G75*
D100*
X0332284Y0264401D02*
D03*
X0332284Y0246684D02*
D03*
D101*
X0328957Y0288853D02*
D03*
X0301595Y0288853D02*
D03*
D102*
X0317717Y0265625D02*
D03*
X0301575Y0265625D02*
D03*
D103*
X0319488Y0247514D02*
D03*
X0303740Y0247514D02*
D03*
D104*
X0296549Y0309292D02*
D03*
X0305801Y0305552D02*
D03*
D104*
X0305801Y0313032D02*
D03*
D105*
X0328636Y0318971D02*
D03*
D105*
X0328636Y0315231D02*
D03*
X0328636Y0311491D02*
D03*
X0337100Y0311491D02*
D03*
X0337100Y0318971D02*
D03*
D106*
X0340952Y0304970D02*
D03*
X0327960Y0304970D02*
D03*
D107*
X0322666Y0305258D02*
D03*
X0311248Y0305258D02*
D03*
D108*
X0341851Y0272711D02*
D03*
X0335630Y0272711D02*
D03*
X0331260Y0272711D02*
D03*
X0325040Y0272711D02*
D03*
D109*
X0291174Y0249822D02*
D03*
X0291174Y0253956D02*
D03*
X0341729Y0291696D02*
D03*
X0341729Y0295830D02*
D03*
X0341729Y0286983D02*
D03*
X0341729Y0282849D02*
D03*
X0342621Y0267334D02*
D03*
X0342621Y0263200D02*
D03*
D110*
X0323518Y0311541D02*
D03*
X0323518Y0315478D02*
D03*
X0309843Y0312443D02*
D03*
X0318504Y0312443D02*
D03*
X0309843Y0318840D02*
D03*
X0318504Y0318840D02*
D03*
D111*
X0301470Y0318971D02*
D03*
X0305014Y0318971D02*
D03*
D112*
X0337471Y0295633D02*
D03*
X0337471Y0292089D02*
D03*
X0337471Y0286589D02*
D03*
X0337471Y0283046D02*
D03*
X0342621Y0255033D02*
D03*
X0342621Y0258577D02*
D03*
D113*
X0352953Y0258144D02*
D03*
X0352953Y0254207D02*
D03*
D114*
X0290158Y0311687D02*
D03*
X0290158Y0244758D02*
D03*
X0290158Y0292199D02*
D03*
X0351181Y0292002D02*
D03*
X0351181Y0317199D02*
D03*
X0351181Y0267593D02*
D03*
X0351181Y0284522D02*
D03*
X0351181Y0242987D02*
D03*
X0290158Y0318971D02*
D03*
X0346457Y0194759D02*
G01*
G75*
D105*
X0361162Y0204983D02*
D03*
X0361162Y0197503D02*
D03*
X0352697Y0197503D02*
D03*
X0352697Y0201243D02*
D03*
X0376811Y0204983D02*
D03*
X0376811Y0197503D02*
D03*
X0368347Y0197503D02*
D03*
X0368347Y0201243D02*
D03*
D105*
X0352697Y0204983D02*
D03*
X0368347Y0204983D02*
D03*
D113*
X0381890Y0204995D02*
D03*
X0381890Y0201255D02*
D03*
X0381890Y0197515D02*
D03*
X0347638Y0201452D02*
D03*
X0347638Y0204995D02*
D03*
X0287205Y0370349D02*
%LPD*%
G01*
D15*
X0345473Y0397514D03*
X0345473Y0392790D03*
X0345473Y0402239D03*
X0345473Y0406963D03*
X0288681Y0381530D03*
X0288681Y0377593D03*
G36*
G01*
X0304646Y0387967D02*
X0304646Y0389424D01*
G75*
G02*
X0305177Y0389955I0000531J0000000D01*
G01*
X0306240Y0389955D01*
G75*
G02*
X0306772Y0389424I0000000J-000531D01*
G01*
X0306772Y0387967D01*
G75*
G02*
X0306240Y0387436I-000531J0000000D01*
G01*
X0305177Y0387436D01*
G75*
G02*
X0304646Y0387967I0000000J0000531D01*
G01*
G37*
G36*
G01*
X0300630Y0387967D02*
X0300630Y0389424D01*
G75*
G02*
X0301162Y0389955I0000531J0000000D01*
G01*
X0302225Y0389955D01*
G75*
G02*
X0302756Y0389424I0000000J-000531D01*
G01*
X0302756Y0387967D01*
G75*
G02*
X0302225Y0387436I-000531J0000000D01*
G01*
X0301162Y0387436D01*
G75*
G02*
X0300630Y0387967I0000000J0000531D01*
G01*
G37*
G36*
G01*
X0327894Y0372278D02*
X0326437Y0372278D01*
G75*
G02*
X0325906Y0372810I0000000J0000531D01*
G01*
X0325906Y0373873D01*
G75*
G02*
X0326437Y0374404I0000531J0000000D01*
G01*
X0327894Y0374404D01*
G75*
G02*
X0328425Y0373873I0000000J-000531D01*
G01*
X0328425Y0372810D01*
G75*
G02*
X0327894Y0372278I-000531J0000000D01*
G01*
G37*
G36*
G01*
X0327894Y0376294D02*
X0326437Y0376294D01*
G75*
G02*
X0325906Y0376825I0000000J0000531D01*
G01*
X0325906Y0377888D01*
G75*
G02*
X0326437Y0378420I0000531J0000000D01*
G01*
X0327894Y0378420D01*
G75*
G02*
X0328425Y0377888I0000000J-000531D01*
G01*
X0328425Y0376825D01*
G75*
G02*
X0327894Y0376294I-000531J0000000D01*
G01*
G37*
G36*
G01*
X0316922Y0404621D02*
X0316922Y0405802D01*
G75*
G02*
X0317512Y0406392I0000591J0000000D01*
G01*
X0324008Y0406392D01*
G75*
G02*
X0324599Y0405802I0000000J-000591D01*
G01*
X0324599Y0404621D01*
G75*
G02*
X0324008Y0404030I-000591J0000000D01*
G01*
X0317512Y0404030D01*
G75*
G02*
X0316922Y0404621I0000000J0000591D01*
G01*
G37*
G36*
G01*
X0316922Y0399621D02*
X0316922Y0400802D01*
G75*
G02*
X0317512Y0401392I0000591J0000000D01*
G01*
X0324008Y0401392D01*
G75*
G02*
X0324599Y0400802I0000000J-000591D01*
G01*
X0324599Y0399621D01*
G75*
G02*
X0324008Y0399030I-000591J0000000D01*
G01*
X0317512Y0399030D01*
G75*
G02*
X0316922Y0399621I0000000J0000591D01*
G01*
G37*
G36*
G01*
X0316922Y0394621D02*
X0316922Y0395802D01*
G75*
G02*
X0317512Y0396392I0000591J0000000D01*
G01*
X0324008Y0396392D01*
G75*
G02*
X0324599Y0395802I0000000J-000591D01*
G01*
X0324599Y0394621D01*
G75*
G02*
X0324008Y0394030I-000591J0000000D01*
G01*
X0317512Y0394030D01*
G75*
G02*
X0316922Y0394621I0000000J0000591D01*
G01*
G37*
G36*
G01*
X0316922Y0389621D02*
X0316922Y0390802D01*
G75*
G02*
X0317512Y0391392I0000591J0000000D01*
G01*
X0324008Y0391392D01*
G75*
G02*
X0324599Y0390802I0000000J-000591D01*
G01*
X0324599Y0389621D01*
G75*
G02*
X0324008Y0389030I-000591J0000000D01*
G01*
X0317512Y0389030D01*
G75*
G02*
X0316922Y0389621I0000000J0000591D01*
G01*
G37*
G36*
G01*
X0336410Y0389621D02*
X0336410Y0390802D01*
G75*
G02*
X0337000Y0391392I0000591J0000000D01*
G01*
X0343496Y0391392D01*
G75*
G02*
X0344087Y0390802I0000000J-000591D01*
G01*
X0344087Y0389621D01*
G75*
G02*
X0343496Y0389030I-000591J0000000D01*
G01*
X0337000Y0389030D01*
G75*
G02*
X0336410Y0389621I0000000J0000591D01*
G01*
G37*
G36*
G01*
X0336410Y0394621D02*
X0336410Y0395802D01*
G75*
G02*
X0337000Y0396392I0000591J0000000D01*
G01*
X0343496Y0396392D01*
G75*
G02*
X0344087Y0395802I0000000J-000591D01*
G01*
X0344087Y0394621D01*
G75*
G02*
X0343496Y0394030I-000591J0000000D01*
G01*
X0337000Y0394030D01*
G75*
G02*
X0336410Y0394621I0000000J0000591D01*
G01*
G37*
G36*
G01*
X0336410Y0399621D02*
X0336410Y0400802D01*
G75*
G02*
X0337000Y0401392I0000591J0000000D01*
G01*
X0343496Y0401392D01*
G75*
G02*
X0344087Y0400802I0000000J-000591D01*
G01*
X0344087Y0399621D01*
G75*
G02*
X0343496Y0399030I-000591J0000000D01*
G01*
X0337000Y0399030D01*
G75*
G02*
X0336410Y0399621I0000000J0000591D01*
G01*
G37*
G36*
G01*
X0336410Y0404621D02*
X0336410Y0405802D01*
G75*
G02*
X0337000Y0406392I0000591J0000000D01*
G01*
X0343496Y0406392D01*
G75*
G02*
X0344087Y0405802I0000000J-000591D01*
G01*
X0344087Y0404621D01*
G75*
G02*
X0343496Y0404030I-000591J0000000D01*
G01*
X0337000Y0404030D01*
G75*
G02*
X0336410Y0404621I0000000J0000591D01*
G01*
G37*
D137*
X0302402Y0405349D03*
X0302402Y0402790D03*
X0302402Y0400231D03*
X0309882Y0400231D03*
X0309882Y0402790D03*
X0309882Y0405349D03*
G36*
G01*
X0318563Y0386261D02*
X0320020Y0386261D01*
G75*
G02*
X0320551Y0385729I0000000J-000531D01*
G01*
X0320551Y0384666D01*
G75*
G02*
X0320020Y0384135I-000531J0000000D01*
G01*
X0318563Y0384135D01*
G75*
G02*
X0318032Y0384666I0000000J0000531D01*
G01*
X0318032Y0385729D01*
G75*
G02*
X0318563Y0386261I0000531J0000000D01*
G01*
G37*
G36*
G01*
X0318563Y0382245D02*
X0320020Y0382245D01*
G75*
G02*
X0320551Y0381714I0000000J-000531D01*
G01*
X0320551Y0380651D01*
G75*
G02*
X0320020Y0380119I-000531J0000000D01*
G01*
X0318563Y0380119D01*
G75*
G02*
X0318032Y0380651I0000000J0000531D01*
G01*
X0318032Y0381714D01*
G75*
G02*
X0318563Y0382245I0000531J0000000D01*
G01*
G37*
G36*
G01*
X0323898Y0380198D02*
X0322559Y0380198D01*
G75*
G02*
X0322008Y0380749I0000000J0000551D01*
G01*
X0322008Y0381851D01*
G75*
G02*
X0322559Y0382403I0000551J0000000D01*
G01*
X0323898Y0382403D01*
G75*
G02*
X0324449Y0381851I0000000J-000551D01*
G01*
X0324449Y0380749D01*
G75*
G02*
X0323898Y0380198I-000551J0000000D01*
G01*
G37*
G36*
G01*
X0323898Y0383977D02*
X0322559Y0383977D01*
G75*
G02*
X0322008Y0384529I0000000J0000551D01*
G01*
X0322008Y0385631D01*
G75*
G02*
X0322559Y0386182I0000551J0000000D01*
G01*
X0323898Y0386182D01*
G75*
G02*
X0324449Y0385631I0000000J-000551D01*
G01*
X0324449Y0384529D01*
G75*
G02*
X0323898Y0383977I-000551J0000000D01*
G01*
G37*
G36*
G01*
X0320020Y0372278D02*
X0318563Y0372278D01*
G75*
G02*
X0318032Y0372810I0000000J0000531D01*
G01*
X0318032Y0373873D01*
G75*
G02*
X0318563Y0374404I0000531J0000000D01*
G01*
X0320020Y0374404D01*
G75*
G02*
X0320551Y0373873I0000000J-000531D01*
G01*
X0320551Y0372810D01*
G75*
G02*
X0320020Y0372278I-000531J0000000D01*
G01*
G37*
G36*
G01*
X0320020Y0376294D02*
X0318563Y0376294D01*
G75*
G02*
X0318032Y0376825I0000000J0000531D01*
G01*
X0318032Y0377888D01*
G75*
G02*
X0318563Y0378420I0000531J0000000D01*
G01*
X0320020Y0378420D01*
G75*
G02*
X0320551Y0377888I0000000J-000531D01*
G01*
X0320551Y0376825D01*
G75*
G02*
X0320020Y0376294I-000531J0000000D01*
G01*
G37*
G36*
G01*
X0331614Y0378341D02*
X0332953Y0378341D01*
G75*
G02*
X0333504Y0377790I0000000J-000551D01*
G01*
X0333504Y0376688D01*
G75*
G02*
X0332953Y0376136I-000551J0000000D01*
G01*
X0331614Y0376136D01*
G75*
G02*
X0331063Y0376688I0000000J0000551D01*
G01*
X0331063Y0377790D01*
G75*
G02*
X0331614Y0378341I0000551J0000000D01*
G01*
G37*
G36*
G01*
X0331614Y0374562D02*
X0332953Y0374562D01*
G75*
G02*
X0333504Y0374010I0000000J-000551D01*
G01*
X0333504Y0372908D01*
G75*
G02*
X0332953Y0372357I-000551J0000000D01*
G01*
X0331614Y0372357D01*
G75*
G02*
X0331063Y0372908I0000000J0000551D01*
G01*
X0331063Y0374010D01*
G75*
G02*
X0331614Y0374562I0000551J0000000D01*
G01*
G37*
G36*
G01*
X0308485Y0382199D02*
X0309823Y0382199D01*
G75*
G02*
X0310374Y0381648I0000000J-000551D01*
G01*
X0310374Y0380546D01*
G75*
G02*
X0309823Y0379995I-000551J0000000D01*
G01*
X0308485Y0379995D01*
G75*
G02*
X0307933Y0380546I0000000J0000551D01*
G01*
X0307933Y0381648D01*
G75*
G02*
X0308485Y0382199I0000551J0000000D01*
G01*
G37*
G36*
G01*
X0308485Y0378420D02*
X0309823Y0378420D01*
G75*
G02*
X0310374Y0377869I0000000J-000551D01*
G01*
X0310374Y0376766D01*
G75*
G02*
X0309823Y0376215I-000551J0000000D01*
G01*
X0308485Y0376215D01*
G75*
G02*
X0307933Y0376766I0000000J0000551D01*
G01*
X0307933Y0377869D01*
G75*
G02*
X0308485Y0378420I0000551J0000000D01*
G01*
G37*
G36*
G01*
X0314252Y0385447D02*
X0314252Y0383991D01*
G75*
G02*
X0313721Y0383459I-000531J0000000D01*
G01*
X0312658Y0383459D01*
G75*
G02*
X0312126Y0383991I0000000J0000531D01*
G01*
X0312126Y0385447D01*
G75*
G02*
X0312658Y0385979I0000531J0000000D01*
G01*
X0313721Y0385979D01*
G75*
G02*
X0314252Y0385447I0000000J-000531D01*
G01*
G37*
G36*
G01*
X0310236Y0385447D02*
X0310236Y0383991D01*
G75*
G02*
X0309705Y0383459I-000531J0000000D01*
G01*
X0308642Y0383459D01*
G75*
G02*
X0308111Y0383991I0000000J0000531D01*
G01*
X0308111Y0385447D01*
G75*
G02*
X0308642Y0385979I0000531J0000000D01*
G01*
X0309705Y0385979D01*
G75*
G02*
X0310236Y0385447I0000000J-000531D01*
G01*
G37*
G36*
G01*
X0345079Y0386176D02*
X0345079Y0384837D01*
G75*
G02*
X0344528Y0384286I-000551J0000000D01*
G01*
X0343425Y0384286D01*
G75*
G02*
X0342874Y0384837I0000000J0000551D01*
G01*
X0342874Y0386176D01*
G75*
G02*
X0343425Y0386727I0000551J0000000D01*
G01*
X0344528Y0386727D01*
G75*
G02*
X0345079Y0386176I0000000J-000551D01*
G01*
G37*
G36*
G01*
X0341299Y0386176D02*
X0341299Y0384837D01*
G75*
G02*
X0340748Y0384286I-000551J0000000D01*
G01*
X0339646Y0384286D01*
G75*
G02*
X0339095Y0384837I0000000J0000551D01*
G01*
X0339095Y0386176D01*
G75*
G02*
X0339646Y0386727I0000551J0000000D01*
G01*
X0340748Y0386727D01*
G75*
G02*
X0341299Y0386176I0000000J-000551D01*
G01*
G37*
G36*
G01*
X0296024Y0391939D02*
X0296024Y0393956D01*
G75*
G02*
X0296885Y0394818I0000861J0000000D01*
G01*
X0298608Y0394818D01*
G75*
G02*
X0299469Y0393956I0000000J-000861D01*
G01*
X0299469Y0391939D01*
G75*
G02*
X0298608Y0391077I-000861J0000000D01*
G01*
X0296885Y0391077D01*
G75*
G02*
X0296024Y0391939I0000000J0000861D01*
G01*
G37*
G36*
G01*
X0289823Y0391939D02*
X0289823Y0393956D01*
G75*
G02*
X0290684Y0394818I0000861J0000000D01*
G01*
X0292407Y0394818D01*
G75*
G02*
X0293268Y0393956I0000000J-000861D01*
G01*
X0293268Y0391939D01*
G75*
G02*
X0292407Y0391077I-000861J0000000D01*
G01*
X0290684Y0391077D01*
G75*
G02*
X0289823Y0391939I0000000J0000861D01*
G01*
G37*
G36*
G01*
X0314803Y0397160D02*
X0313465Y0397160D01*
G75*
G02*
X0312914Y0397711I0000000J0000551D01*
G01*
X0312914Y0398814D01*
G75*
G02*
X0313465Y0399365I0000551J0000000D01*
G01*
X0314803Y0399365D01*
G75*
G02*
X0315355Y0398814I0000000J-000551D01*
G01*
X0315355Y0397711D01*
G75*
G02*
X0314803Y0397160I-000551J0000000D01*
G01*
G37*
G36*
G01*
X0314803Y0400940D02*
X0313465Y0400940D01*
G75*
G02*
X0312914Y0401491I0000000J0000551D01*
G01*
X0312914Y0402593D01*
G75*
G02*
X0313465Y0403144I0000551J0000000D01*
G01*
X0314803Y0403144D01*
G75*
G02*
X0315355Y0402593I0000000J-000551D01*
G01*
X0315355Y0401491D01*
G75*
G02*
X0314803Y0400940I-000551J0000000D01*
G01*
G37*
G36*
G01*
X0297166Y0400014D02*
X0297166Y0398558D01*
G75*
G02*
X0296634Y0398026I-000531J0000000D01*
G01*
X0295571Y0398026D01*
G75*
G02*
X0295040Y0398558I0000000J0000531D01*
G01*
X0295040Y0400014D01*
G75*
G02*
X0295571Y0400546I0000531J0000000D01*
G01*
X0296634Y0400546D01*
G75*
G02*
X0297166Y0400014I0000000J-000531D01*
G01*
G37*
G36*
G01*
X0293150Y0400014D02*
X0293150Y0398558D01*
G75*
G02*
X0292618Y0398026I-000531J0000000D01*
G01*
X0291555Y0398026D01*
G75*
G02*
X0291024Y0398558I0000000J0000531D01*
G01*
X0291024Y0400014D01*
G75*
G02*
X0291555Y0400546I0000531J0000000D01*
G01*
X0292618Y0400546D01*
G75*
G02*
X0293150Y0400014I0000000J-000531D01*
G01*
G37*
G36*
G01*
X0308111Y0387928D02*
X0308111Y0389384D01*
G75*
G02*
X0308642Y0389916I0000531J0000000D01*
G01*
X0309705Y0389916D01*
G75*
G02*
X0310236Y0389384I0000000J-000531D01*
G01*
X0310236Y0387928D01*
G75*
G02*
X0309705Y0387396I-000531J0000000D01*
G01*
X0308642Y0387396D01*
G75*
G02*
X0308111Y0387928I0000000J0000531D01*
G01*
G37*
G36*
G01*
X0312126Y0387928D02*
X0312126Y0389384D01*
G75*
G02*
X0312658Y0389916I0000531J0000000D01*
G01*
X0313721Y0389916D01*
G75*
G02*
X0314252Y0389384I0000000J-000531D01*
G01*
X0314252Y0387928D01*
G75*
G02*
X0313721Y0387396I-000531J0000000D01*
G01*
X0312658Y0387396D01*
G75*
G02*
X0312126Y0387928I0000000J0000531D01*
G01*
G37*
G36*
G01*
X0313248Y0382137D02*
X0314705Y0382137D01*
G75*
G02*
X0315236Y0381606I0000000J-000531D01*
G01*
X0315236Y0380543D01*
G75*
G02*
X0314705Y0380011I-000531J0000000D01*
G01*
X0313248Y0380011D01*
G75*
G02*
X0312717Y0380543I0000000J0000531D01*
G01*
X0312717Y0381606D01*
G75*
G02*
X0313248Y0382137I0000531J0000000D01*
G01*
G37*
G36*
G01*
X0313248Y0378121D02*
X0314705Y0378121D01*
G75*
G02*
X0315236Y0377590I0000000J-000531D01*
G01*
X0315236Y0376527D01*
G75*
G02*
X0314705Y0375996I-000531J0000000D01*
G01*
X0313248Y0375996D01*
G75*
G02*
X0312717Y0376527I0000000J0000531D01*
G01*
X0312717Y0377590D01*
G75*
G02*
X0313248Y0378121I0000531J0000000D01*
G01*
G37*
G36*
G01*
X0295906Y0388735D02*
X0295906Y0387396D01*
G75*
G02*
X0295355Y0386845I-000551J0000000D01*
G01*
X0294252Y0386845D01*
G75*
G02*
X0293701Y0387396I0000000J0000551D01*
G01*
X0293701Y0388735D01*
G75*
G02*
X0294252Y0389286I0000551J0000000D01*
G01*
X0295355Y0389286D01*
G75*
G02*
X0295906Y0388735I0000000J-000551D01*
G01*
G37*
G36*
G01*
X0292126Y0388735D02*
X0292126Y0387396D01*
G75*
G02*
X0291575Y0386845I-000551J0000000D01*
G01*
X0290473Y0386845D01*
G75*
G02*
X0289922Y0387396I0000000J0000551D01*
G01*
X0289922Y0388735D01*
G75*
G02*
X0290473Y0389286I0000551J0000000D01*
G01*
X0291575Y0389286D01*
G75*
G02*
X0292126Y0388735I0000000J-000551D01*
G01*
G37*
G36*
G01*
X0332953Y0380198D02*
X0331614Y0380198D01*
G75*
G02*
X0331063Y0380749I0000000J0000551D01*
G01*
X0331063Y0381851D01*
G75*
G02*
X0331614Y0382403I0000551J0000000D01*
G01*
X0332953Y0382403D01*
G75*
G02*
X0333504Y0381851I0000000J-000551D01*
G01*
X0333504Y0380749D01*
G75*
G02*
X0332953Y0380198I-000551J0000000D01*
G01*
G37*
G36*
G01*
X0332953Y0383977D02*
X0331614Y0383977D01*
G75*
G02*
X0331063Y0384529I0000000J0000551D01*
G01*
X0331063Y0385631D01*
G75*
G02*
X0331614Y0386182I0000551J0000000D01*
G01*
X0332953Y0386182D01*
G75*
G02*
X0333504Y0385631I0000000J-000551D01*
G01*
X0333504Y0384529D01*
G75*
G02*
X0332953Y0383977I-000551J0000000D01*
G01*
G37*
G36*
G01*
X0307933Y0372672D02*
X0307933Y0374129D01*
G75*
G02*
X0308465Y0374660I0000531J0000000D01*
G01*
X0309528Y0374660D01*
G75*
G02*
X0310059Y0374129I0000000J-000531D01*
G01*
X0310059Y0372672D01*
G75*
G02*
X0309528Y0372140I-000531J0000000D01*
G01*
X0308465Y0372140D01*
G75*
G02*
X0307933Y0372672I0000000J0000531D01*
G01*
G37*
G36*
G01*
X0311949Y0372672D02*
X0311949Y0374129D01*
G75*
G02*
X0312481Y0374660I0000531J0000000D01*
G01*
X0313544Y0374660D01*
G75*
G02*
X0314075Y0374129I0000000J-000531D01*
G01*
X0314075Y0372672D01*
G75*
G02*
X0313544Y0372140I-000531J0000000D01*
G01*
X0312481Y0372140D01*
G75*
G02*
X0311949Y0372672I0000000J0000531D01*
G01*
G37*
D138*
X0337192Y0373892D03*
X0339751Y0373892D03*
X0342310Y0373892D03*
X0342310Y0381373D03*
X0339751Y0381373D03*
X0337192Y0381373D03*
G36*
G01*
X0291243Y0382678D02*
X0291243Y0383859D01*
G75*
G02*
X0291834Y0384450I0000591J0000000D01*
G01*
X0295869Y0384450D01*
G75*
G02*
X0296460Y0383859I0000000J-000591D01*
G01*
X0296460Y0382678D01*
G75*
G02*
X0295869Y0382088I-000591J0000000D01*
G01*
X0291834Y0382088D01*
G75*
G02*
X0291243Y0382678I0000000J0000591D01*
G01*
G37*
G36*
G01*
X0291243Y0378938D02*
X0291243Y0380119D01*
G75*
G02*
X0291834Y0380710I0000591J0000000D01*
G01*
X0295869Y0380710D01*
G75*
G02*
X0296460Y0380119I0000000J-000591D01*
G01*
X0296460Y0378938D01*
G75*
G02*
X0295869Y0378347I-000591J0000000D01*
G01*
X0291834Y0378347D01*
G75*
G02*
X0291243Y0378938I0000000J0000591D01*
G01*
G37*
G36*
G01*
X0291243Y0375198D02*
X0291243Y0376379D01*
G75*
G02*
X0291834Y0376969I0000591J0000000D01*
G01*
X0295869Y0376969D01*
G75*
G02*
X0296460Y0376379I0000000J-000591D01*
G01*
X0296460Y0375198D01*
G75*
G02*
X0295869Y0374607I-000591J0000000D01*
G01*
X0291834Y0374607D01*
G75*
G02*
X0291243Y0375198I0000000J0000591D01*
G01*
G37*
G36*
G01*
X0300200Y0375198D02*
X0300200Y0376379D01*
G75*
G02*
X0300790Y0376969I0000591J0000000D01*
G01*
X0304826Y0376969D01*
G75*
G02*
X0305416Y0376379I0000000J-000591D01*
G01*
X0305416Y0375198D01*
G75*
G02*
X0304826Y0374607I-000591J0000000D01*
G01*
X0300790Y0374607D01*
G75*
G02*
X0300200Y0375198I0000000J0000591D01*
G01*
G37*
G36*
G01*
X0300200Y0378938D02*
X0300200Y0380119D01*
G75*
G02*
X0300790Y0380710I0000591J0000000D01*
G01*
X0304826Y0380710D01*
G75*
G02*
X0305416Y0380119I0000000J-000591D01*
G01*
X0305416Y0378938D01*
G75*
G02*
X0304826Y0378347I-000591J0000000D01*
G01*
X0300790Y0378347D01*
G75*
G02*
X0300200Y0378938I0000000J0000591D01*
G01*
G37*
G36*
G01*
X0300200Y0382678D02*
X0300200Y0383859D01*
G75*
G02*
X0300790Y0384450I0000591J0000000D01*
G01*
X0304826Y0384450D01*
G75*
G02*
X0305416Y0383859I0000000J-000591D01*
G01*
X0305416Y0382678D01*
G75*
G02*
X0304826Y0382088I-000591J0000000D01*
G01*
X0300790Y0382088D01*
G75*
G02*
X0300200Y0382678I0000000J0000591D01*
G01*
G37*
G36*
G01*
X0302362Y0394562D02*
X0302362Y0395900D01*
G75*
G02*
X0302914Y0396451I0000551J0000000D01*
G01*
X0304016Y0396451D01*
G75*
G02*
X0304567Y0395900I0000000J-000551D01*
G01*
X0304567Y0394562D01*
G75*
G02*
X0304016Y0394010I-000551J0000000D01*
G01*
X0302914Y0394010D01*
G75*
G02*
X0302362Y0394562I0000000J0000551D01*
G01*
G37*
G36*
G01*
X0306142Y0394562D02*
X0306142Y0395900D01*
G75*
G02*
X0306693Y0396451I0000551J0000000D01*
G01*
X0307796Y0396451D01*
G75*
G02*
X0308347Y0395900I0000000J-000551D01*
G01*
X0308347Y0394562D01*
G75*
G02*
X0307796Y0394010I-000551J0000000D01*
G01*
X0306693Y0394010D01*
G75*
G02*
X0306142Y0394562I0000000J0000551D01*
G01*
G37*
G36*
G01*
X0323898Y0372357D02*
X0322559Y0372357D01*
G75*
G02*
X0322008Y0372908I0000000J0000551D01*
G01*
X0322008Y0374010D01*
G75*
G02*
X0322559Y0374562I0000551J0000000D01*
G01*
X0323898Y0374562D01*
G75*
G02*
X0324449Y0374010I0000000J-000551D01*
G01*
X0324449Y0372908D01*
G75*
G02*
X0323898Y0372357I-000551J0000000D01*
G01*
G37*
G36*
G01*
X0323898Y0376136D02*
X0322559Y0376136D01*
G75*
G02*
X0322008Y0376688I0000000J0000551D01*
G01*
X0322008Y0377790D01*
G75*
G02*
X0322559Y0378341I0000551J0000000D01*
G01*
X0323898Y0378341D01*
G75*
G02*
X0324449Y0377790I0000000J-000551D01*
G01*
X0324449Y0376688D01*
G75*
G02*
X0323898Y0376136I-000551J0000000D01*
G01*
G37*
G36*
G01*
X0327894Y0380119D02*
X0326437Y0380119D01*
G75*
G02*
X0325906Y0380651I0000000J0000531D01*
G01*
X0325906Y0381714D01*
G75*
G02*
X0326437Y0382245I0000531J0000000D01*
G01*
X0327894Y0382245D01*
G75*
G02*
X0328425Y0381714I0000000J-000531D01*
G01*
X0328425Y0380651D01*
G75*
G02*
X0327894Y0380119I-000531J0000000D01*
G01*
G37*
G36*
G01*
X0327894Y0384135D02*
X0326437Y0384135D01*
G75*
G02*
X0325906Y0384666I0000000J0000531D01*
G01*
X0325906Y0385729D01*
G75*
G02*
X0326437Y0386261I0000531J0000000D01*
G01*
X0327894Y0386261D01*
G75*
G02*
X0328425Y0385729I0000000J-000531D01*
G01*
X0328425Y0384666D01*
G75*
G02*
X0327894Y0384135I-000531J0000000D01*
G01*
G37*
X0287205Y0326845D02*
%LPD*%
G01*
D15*
X0345473Y0354010D03*
X0345473Y0349286D03*
X0345473Y0358735D03*
X0345473Y0363459D03*
X0288681Y0338026D03*
X0288681Y0334089D03*
D140*
X0321063Y0339837D03*
X0321063Y0337869D03*
X0321063Y0335900D03*
X0321063Y0333932D03*
X0321063Y0331963D03*
X0338386Y0331963D03*
X0338386Y0333932D03*
X0338386Y0335900D03*
X0338386Y0337869D03*
X0338386Y0339837D03*
G36*
G01*
X0328583Y0353026D02*
X0331654Y0353026D01*
G75*
G02*
X0331929Y0352751I0000000J-000276D01*
G01*
X0331929Y0350546D01*
G75*
G02*
X0331654Y0350270I-000276J0000000D01*
G01*
X0328583Y0350270D01*
G75*
G02*
X0328307Y0350546I0000000J0000276D01*
G01*
X0328307Y0352751D01*
G75*
G02*
X0328583Y0353026I0000276J0000000D01*
G01*
G37*
G36*
G01*
X0328583Y0346727D02*
X0331654Y0346727D01*
G75*
G02*
X0331929Y0346451I0000000J-000276D01*
G01*
X0331929Y0344247D01*
G75*
G02*
X0331654Y0343971I-000276J0000000D01*
G01*
X0328583Y0343971D01*
G75*
G02*
X0328307Y0344247I0000000J0000276D01*
G01*
X0328307Y0346451D01*
G75*
G02*
X0328583Y0346727I0000276J0000000D01*
G01*
G37*
G36*
G01*
X0342914Y0359680D02*
X0342914Y0356609D01*
G75*
G02*
X0342638Y0356333I-000276J0000000D01*
G01*
X0340433Y0356333D01*
G75*
G02*
X0340158Y0356609I0000000J0000276D01*
G01*
X0340158Y0359680D01*
G75*
G02*
X0340433Y0359955I0000276J0000000D01*
G01*
X0342638Y0359955D01*
G75*
G02*
X0342914Y0359680I0000000J-000276D01*
G01*
G37*
G36*
G01*
X0336614Y0359680D02*
X0336614Y0356609D01*
G75*
G02*
X0336339Y0356333I-000276J0000000D01*
G01*
X0334134Y0356333D01*
G75*
G02*
X0333859Y0356609I0000000J0000276D01*
G01*
X0333859Y0359680D01*
G75*
G02*
X0334134Y0359955I0000276J0000000D01*
G01*
X0336339Y0359955D01*
G75*
G02*
X0336614Y0359680I0000000J-000276D01*
G01*
G37*
G36*
G01*
X0322677Y0353026D02*
X0325748Y0353026D01*
G75*
G02*
X0326024Y0352751I0000000J-000276D01*
G01*
X0326024Y0350546D01*
G75*
G02*
X0325748Y0350270I-000276J0000000D01*
G01*
X0322677Y0350270D01*
G75*
G02*
X0322402Y0350546I0000000J0000276D01*
G01*
X0322402Y0352751D01*
G75*
G02*
X0322677Y0353026I0000276J0000000D01*
G01*
G37*
G36*
G01*
X0322677Y0346727D02*
X0325748Y0346727D01*
G75*
G02*
X0326024Y0346451I0000000J-000276D01*
G01*
X0326024Y0344247D01*
G75*
G02*
X0325748Y0343971I-000276J0000000D01*
G01*
X0322677Y0343971D01*
G75*
G02*
X0322402Y0344247I0000000J0000276D01*
G01*
X0322402Y0346451D01*
G75*
G02*
X0322677Y0346727I0000276J0000000D01*
G01*
G37*
G36*
G01*
X0312028Y0356766D02*
X0314744Y0356766D01*
G75*
G02*
X0315650Y0355861I0000000J-000906D01*
G01*
X0315650Y0350585D01*
G75*
G02*
X0314744Y0349680I-000906J0000000D01*
G01*
X0312028Y0349680D01*
G75*
G02*
X0311122Y0350585I0000000J0000906D01*
G01*
X0311122Y0355861D01*
G75*
G02*
X0312028Y0356766I0000906J0000000D01*
G01*
G37*
G36*
G01*
X0300610Y0356766D02*
X0303327Y0356766D01*
G75*
G02*
X0304233Y0355861I0000000J-000906D01*
G01*
X0304233Y0350585D01*
G75*
G02*
X0303327Y0349680I-000906J0000000D01*
G01*
X0300610Y0349680D01*
G75*
G02*
X0299705Y0350585I0000000J0000906D01*
G01*
X0299705Y0355861D01*
G75*
G02*
X0300610Y0356766I0000906J0000000D01*
G01*
G37*
G36*
G01*
X0312028Y0346924D02*
X0314744Y0346924D01*
G75*
G02*
X0315650Y0346018I0000000J-000906D01*
G01*
X0315650Y0340743D01*
G75*
G02*
X0314744Y0339837I-000906J0000000D01*
G01*
X0312028Y0339837D01*
G75*
G02*
X0311122Y0340743I0000000J0000906D01*
G01*
X0311122Y0346018D01*
G75*
G02*
X0312028Y0346924I0000906J0000000D01*
G01*
G37*
G36*
G01*
X0300610Y0346924D02*
X0303327Y0346924D01*
G75*
G02*
X0304233Y0346018I0000000J-000906D01*
G01*
X0304233Y0340743D01*
G75*
G02*
X0303327Y0339837I-000906J0000000D01*
G01*
X0300610Y0339837D01*
G75*
G02*
X0299705Y0340743I0000000J0000906D01*
G01*
X0299705Y0346018D01*
G75*
G02*
X0300610Y0346924I0000906J0000000D01*
G01*
G37*
G36*
G01*
X0289961Y0353243D02*
X0289961Y0355959D01*
G75*
G02*
X0290866Y0356865I0000906J0000000D01*
G01*
X0296142Y0356865D01*
G75*
G02*
X0297048Y0355959I0000000J-000906D01*
G01*
X0297048Y0353243D01*
G75*
G02*
X0296142Y0352337I-000906J0000000D01*
G01*
X0290866Y0352337D01*
G75*
G02*
X0289961Y0353243I0000000J0000906D01*
G01*
G37*
G36*
G01*
X0289961Y0341825D02*
X0289961Y0344542D01*
G75*
G02*
X0290866Y0345447I0000906J0000000D01*
G01*
X0296142Y0345447D01*
G75*
G02*
X0297048Y0344542I0000000J-000906D01*
G01*
X0297048Y0341825D01*
G75*
G02*
X0296142Y0340920I-000906J0000000D01*
G01*
X0290866Y0340920D01*
G75*
G02*
X0289961Y0341825I0000000J0000906D01*
G01*
G37*
G36*
G01*
X0305335Y0337475D02*
X0308051Y0337475D01*
G75*
G02*
X0308957Y0336569I0000000J-000906D01*
G01*
X0308957Y0331294D01*
G75*
G02*
X0308051Y0330388I-000906J0000000D01*
G01*
X0305335Y0330388D01*
G75*
G02*
X0304429Y0331294I0000000J0000906D01*
G01*
X0304429Y0336569D01*
G75*
G02*
X0305335Y0337475I0000906J0000000D01*
G01*
G37*
G36*
G01*
X0293918Y0337475D02*
X0296634Y0337475D01*
G75*
G02*
X0297540Y0336569I0000000J-000906D01*
G01*
X0297540Y0331294D01*
G75*
G02*
X0296634Y0330388I-000906J0000000D01*
G01*
X0293918Y0330388D01*
G75*
G02*
X0293012Y0331294I0000000J0000906D01*
G01*
X0293012Y0336569D01*
G75*
G02*
X0293918Y0337475I0000906J0000000D01*
G01*
G37*
G36*
G01*
X0331004Y0359350D02*
X0331004Y0357332D01*
G75*
G02*
X0330143Y0356471I-000861J0000000D01*
G01*
X0328421Y0356471D01*
G75*
G02*
X0327559Y0357332I0000000J0000861D01*
G01*
X0327559Y0359350D01*
G75*
G02*
X0328421Y0360211I0000861J0000000D01*
G01*
X0330143Y0360211D01*
G75*
G02*
X0331004Y0359350I0000000J-000861D01*
G01*
G37*
G36*
G01*
X0324803Y0359350D02*
X0324803Y0357332D01*
G75*
G02*
X0323942Y0356471I-000861J0000000D01*
G01*
X0322220Y0356471D01*
G75*
G02*
X0321359Y0357332I0000000J0000861D01*
G01*
X0321359Y0359350D01*
G75*
G02*
X0322220Y0360211I0000861J0000000D01*
G01*
X0323942Y0360211D01*
G75*
G02*
X0324803Y0359350I0000000J-000861D01*
G01*
G37*
G36*
G01*
X0336949Y0352388D02*
X0336949Y0349711D01*
G75*
G02*
X0336614Y0349376I-000335J0000000D01*
G01*
X0333937Y0349376D01*
G75*
G02*
X0333603Y0349711I0000000J0000335D01*
G01*
X0333603Y0352388D01*
G75*
G02*
X0333937Y0352723I0000335J0000000D01*
G01*
X0336614Y0352723D01*
G75*
G02*
X0336949Y0352388I0000000J-000335D01*
G01*
G37*
G36*
G01*
X0343170Y0352388D02*
X0343170Y0349711D01*
G75*
G02*
X0342835Y0349376I-000335J0000000D01*
G01*
X0340158Y0349376D01*
G75*
G02*
X0339823Y0349711I0000000J0000335D01*
G01*
X0339823Y0352388D01*
G75*
G02*
X0340158Y0352723I0000335J0000000D01*
G01*
X0342835Y0352723D01*
G75*
G02*
X0343170Y0352388I0000000J-000335D01*
G01*
G37*
G36*
G01*
X0343170Y0347081D02*
X0343170Y0344404D01*
G75*
G02*
X0342835Y0344069I-000335J0000000D01*
G01*
X0340158Y0344069D01*
G75*
G02*
X0339823Y0344404I0000000J0000335D01*
G01*
X0339823Y0347081D01*
G75*
G02*
X0340158Y0347416I0000335J0000000D01*
G01*
X0342835Y0347416D01*
G75*
G02*
X0343170Y0347081I0000000J-000335D01*
G01*
G37*
G36*
G01*
X0336949Y0347081D02*
X0336949Y0344404D01*
G75*
G02*
X0336614Y0344069I-000335J0000000D01*
G01*
X0333937Y0344069D01*
G75*
G02*
X0333603Y0344404I0000000J0000335D01*
G01*
X0333603Y0347081D01*
G75*
G02*
X0333937Y0347416I0000335J0000000D01*
G01*
X0336614Y0347416D01*
G75*
G02*
X0336949Y0347081I0000000J-000335D01*
G01*
G37*
G36*
G01*
X0317756Y0353282D02*
X0320433Y0353282D01*
G75*
G02*
X0320768Y0352947I0000000J-000335D01*
G01*
X0320768Y0350270D01*
G75*
G02*
X0320433Y0349936I-000335J0000000D01*
G01*
X0317756Y0349936D01*
G75*
G02*
X0317422Y0350270I0000000J0000335D01*
G01*
X0317422Y0352947D01*
G75*
G02*
X0317756Y0353282I0000335J0000000D01*
G01*
G37*
G36*
G01*
X0317756Y0347062D02*
X0320433Y0347062D01*
G75*
G02*
X0320768Y0346727I0000000J-000335D01*
G01*
X0320768Y0344050D01*
G75*
G02*
X0320433Y0343715I-000335J0000000D01*
G01*
X0317756Y0343715D01*
G75*
G02*
X0317422Y0344050I0000000J0000335D01*
G01*
X0317422Y0346727D01*
G75*
G02*
X0317756Y0347062I0000335J0000000D01*
G01*
G37*
X0287205Y0168381D02*
%LPD*%
G01*
D147*
X0296693Y0197161D03*
X0296693Y0193224D03*
X0296693Y0189287D03*
X0296693Y0185350D03*
X0296693Y0181412D03*
X0296693Y0177475D03*
X0334488Y0177475D03*
X0334488Y0181412D03*
X0334488Y0185350D03*
X0334488Y0189287D03*
X0334488Y0193224D03*
X0334488Y0197161D03*
D148*
X0315591Y0187318D03*
X0148425Y0206767D02*
%LPD*%
G01*
G36*
G01*
X0216033Y0242476D02*
X0214675Y0242476D01*
G75*
G02*
X0214094Y0243056I0000000J0000581D01*
G01*
X0214094Y0244218D01*
G75*
G02*
X0214675Y0244798I0000581J0000000D01*
G01*
X0216033Y0244798D01*
G75*
G02*
X0216614Y0244218I0000000J-000581D01*
G01*
X0216614Y0243056D01*
G75*
G02*
X0216033Y0242476I-000581J0000000D01*
G01*
G37*
G36*
G01*
X0216033Y0246295D02*
X0214675Y0246295D01*
G75*
G02*
X0214094Y0246875I0000000J0000581D01*
G01*
X0214094Y0248037D01*
G75*
G02*
X0214675Y0248617I0000581J0000000D01*
G01*
X0216033Y0248617D01*
G75*
G02*
X0216614Y0248037I0000000J-000581D01*
G01*
X0216614Y0246875D01*
G75*
G02*
X0216033Y0246295I-000581J0000000D01*
G01*
G37*
G36*
G01*
X0157460Y0227052D02*
X0157460Y0228411D01*
G75*
G02*
X0158041Y0228991I0000581J0000000D01*
G01*
X0159203Y0228991D01*
G75*
G02*
X0159783Y0228411I0000000J-000581D01*
G01*
X0159783Y0227052D01*
G75*
G02*
X0159203Y0226472I-000581J0000000D01*
G01*
X0158041Y0226472D01*
G75*
G02*
X0157460Y0227052I0000000J0000581D01*
G01*
G37*
G36*
G01*
X0161279Y0227052D02*
X0161279Y0228411D01*
G75*
G02*
X0161860Y0228991I0000581J0000000D01*
G01*
X0163021Y0228991D01*
G75*
G02*
X0163602Y0228411I0000000J-000581D01*
G01*
X0163602Y0227052D01*
G75*
G02*
X0163021Y0226472I-000581J0000000D01*
G01*
X0161860Y0226472D01*
G75*
G02*
X0161279Y0227052I0000000J0000581D01*
G01*
G37*
G36*
G01*
X0167987Y0242249D02*
X0170005Y0242249D01*
G75*
G02*
X0170866Y0241388I0000000J-000861D01*
G01*
X0170866Y0239666D01*
G75*
G02*
X0170005Y0238804I-000861J0000000D01*
G01*
X0167987Y0238804D01*
G75*
G02*
X0167126Y0239666I0000000J0000861D01*
G01*
X0167126Y0241388D01*
G75*
G02*
X0167987Y0242249I0000861J0000000D01*
G01*
G37*
G36*
G01*
X0167987Y0236048D02*
X0170005Y0236048D01*
G75*
G02*
X0170866Y0235187I0000000J-000861D01*
G01*
X0170866Y0233465D01*
G75*
G02*
X0170005Y0232604I-000861J0000000D01*
G01*
X0167987Y0232604D01*
G75*
G02*
X0167126Y0233465I0000000J0000861D01*
G01*
X0167126Y0235187D01*
G75*
G02*
X0167987Y0236048I0000861J0000000D01*
G01*
G37*
G36*
G01*
X0214478Y0217220D02*
X0215836Y0217220D01*
G75*
G02*
X0216417Y0216639I0000000J-000581D01*
G01*
X0216417Y0215478D01*
G75*
G02*
X0215836Y0214897I-000581J0000000D01*
G01*
X0214478Y0214897D01*
G75*
G02*
X0213897Y0215478I0000000J0000581D01*
G01*
X0213897Y0216639D01*
G75*
G02*
X0214478Y0217220I0000581J0000000D01*
G01*
G37*
G36*
G01*
X0214478Y0213401D02*
X0215836Y0213401D01*
G75*
G02*
X0216417Y0212820I0000000J-000581D01*
G01*
X0216417Y0211659D01*
G75*
G02*
X0215836Y0211078I-000581J0000000D01*
G01*
X0214478Y0211078D01*
G75*
G02*
X0213897Y0211659I0000000J0000581D01*
G01*
X0213897Y0212820D01*
G75*
G02*
X0214478Y0213401I0000581J0000000D01*
G01*
G37*
D150*
X0163287Y0233047D03*
X0163287Y0240527D03*
X0155413Y0236787D03*
G36*
G01*
X0210295Y0217220D02*
X0211653Y0217220D01*
G75*
G02*
X0212234Y0216639I0000000J-000581D01*
G01*
X0212234Y0215478D01*
G75*
G02*
X0211653Y0214897I-000581J0000000D01*
G01*
X0210295Y0214897D01*
G75*
G02*
X0209714Y0215478I0000000J0000581D01*
G01*
X0209714Y0216639D01*
G75*
G02*
X0210295Y0217220I0000581J0000000D01*
G01*
G37*
G36*
G01*
X0210295Y0213401D02*
X0211653Y0213401D01*
G75*
G02*
X0212234Y0212820I0000000J-000581D01*
G01*
X0212234Y0211659D01*
G75*
G02*
X0211653Y0211078I-000581J0000000D01*
G01*
X0210295Y0211078D01*
G75*
G02*
X0209714Y0211659I0000000J0000581D01*
G01*
X0209714Y0212820D01*
G75*
G02*
X0210295Y0213401I0000581J0000000D01*
G01*
G37*
G36*
G01*
X0214675Y0241137D02*
X0216033Y0241137D01*
G75*
G02*
X0216614Y0240556I0000000J-000581D01*
G01*
X0216614Y0239395D01*
G75*
G02*
X0216033Y0238814I-000581J0000000D01*
G01*
X0214675Y0238814D01*
G75*
G02*
X0214094Y0239395I0000000J0000581D01*
G01*
X0214094Y0240556D01*
G75*
G02*
X0214675Y0241137I0000581J0000000D01*
G01*
G37*
G36*
G01*
X0214675Y0237318D02*
X0216033Y0237318D01*
G75*
G02*
X0216614Y0236737I0000000J-000581D01*
G01*
X0216614Y0235576D01*
G75*
G02*
X0216033Y0234995I-000581J0000000D01*
G01*
X0214675Y0234995D01*
G75*
G02*
X0214094Y0235576I0000000J0000581D01*
G01*
X0214094Y0236737D01*
G75*
G02*
X0214675Y0237318I0000581J0000000D01*
G01*
G37*
G36*
G01*
X0210915Y0253401D02*
X0209557Y0253401D01*
G75*
G02*
X0208976Y0253982I0000000J0000581D01*
G01*
X0208976Y0255143D01*
G75*
G02*
X0209557Y0255724I0000581J0000000D01*
G01*
X0210915Y0255724D01*
G75*
G02*
X0211496Y0255143I0000000J-000581D01*
G01*
X0211496Y0253982D01*
G75*
G02*
X0210915Y0253401I-000581J0000000D01*
G01*
G37*
G36*
G01*
X0210915Y0257220D02*
X0209557Y0257220D01*
G75*
G02*
X0208976Y0257800I0000000J0000581D01*
G01*
X0208976Y0258962D01*
G75*
G02*
X0209557Y0259543I0000581J0000000D01*
G01*
X0210915Y0259543D01*
G75*
G02*
X0211496Y0258962I0000000J-000581D01*
G01*
X0211496Y0257800D01*
G75*
G02*
X0210915Y0257220I-000581J0000000D01*
G01*
G37*
G36*
G01*
X0216033Y0226629D02*
X0214675Y0226629D01*
G75*
G02*
X0214094Y0227210I0000000J0000581D01*
G01*
X0214094Y0228371D01*
G75*
G02*
X0214675Y0228952I0000581J0000000D01*
G01*
X0216033Y0228952D01*
G75*
G02*
X0216614Y0228371I0000000J-000581D01*
G01*
X0216614Y0227210D01*
G75*
G02*
X0216033Y0226629I-000581J0000000D01*
G01*
G37*
G36*
G01*
X0216033Y0230448D02*
X0214675Y0230448D01*
G75*
G02*
X0214094Y0231029I0000000J0000581D01*
G01*
X0214094Y0232190D01*
G75*
G02*
X0214675Y0232771I0000581J0000000D01*
G01*
X0216033Y0232771D01*
G75*
G02*
X0216614Y0232190I0000000J-000581D01*
G01*
X0216614Y0231029D01*
G75*
G02*
X0216033Y0230448I-000581J0000000D01*
G01*
G37*
G36*
G01*
X0176269Y0253401D02*
X0174911Y0253401D01*
G75*
G02*
X0174331Y0253982I0000000J0000581D01*
G01*
X0174331Y0255143D01*
G75*
G02*
X0174911Y0255724I0000581J0000000D01*
G01*
X0176269Y0255724D01*
G75*
G02*
X0176850Y0255143I0000000J-000581D01*
G01*
X0176850Y0253982D01*
G75*
G02*
X0176269Y0253401I-000581J0000000D01*
G01*
G37*
G36*
G01*
X0176269Y0257220D02*
X0174911Y0257220D01*
G75*
G02*
X0174331Y0257800I0000000J0000581D01*
G01*
X0174331Y0258962D01*
G75*
G02*
X0174911Y0259543I0000581J0000000D01*
G01*
X0176269Y0259543D01*
G75*
G02*
X0176850Y0258962I0000000J-000581D01*
G01*
X0176850Y0257800D01*
G75*
G02*
X0176269Y0257220I-000581J0000000D01*
G01*
G37*
D151*
X0240708Y0246728D03*
D152*
X0239606Y0218381D03*
X0231732Y0230192D03*
X0223858Y0218381D03*
D153*
X0231732Y0221924D03*
D151*
X0222756Y0246728D03*
G36*
G01*
X0165236Y0226954D02*
X0165236Y0228312D01*
G75*
G02*
X0165817Y0228893I0000581J0000000D01*
G01*
X0166978Y0228893D01*
G75*
G02*
X0167559Y0228312I0000000J-000581D01*
G01*
X0167559Y0226954D01*
G75*
G02*
X0166978Y0226373I-000581J0000000D01*
G01*
X0165817Y0226373D01*
G75*
G02*
X0165236Y0226954I0000000J0000581D01*
G01*
G37*
G36*
G01*
X0169055Y0226954D02*
X0169055Y0228312D01*
G75*
G02*
X0169636Y0228893I0000581J0000000D01*
G01*
X0170797Y0228893D01*
G75*
G02*
X0171378Y0228312I0000000J-000581D01*
G01*
X0171378Y0226954D01*
G75*
G02*
X0170797Y0226373I-000581J0000000D01*
G01*
X0169636Y0226373D01*
G75*
G02*
X0169055Y0226954I0000000J0000581D01*
G01*
G37*
G36*
G01*
X0203740Y0213288D02*
X0203740Y0211270D01*
G75*
G02*
X0202879Y0210409I-000861J0000000D01*
G01*
X0201156Y0210409D01*
G75*
G02*
X0200295Y0211270I0000000J0000861D01*
G01*
X0200295Y0213288D01*
G75*
G02*
X0201156Y0214149I0000861J0000000D01*
G01*
X0202879Y0214149D01*
G75*
G02*
X0203740Y0213288I0000000J-000861D01*
G01*
G37*
G36*
G01*
X0197539Y0213288D02*
X0197539Y0211270D01*
G75*
G02*
X0196678Y0210409I-000861J0000000D01*
G01*
X0194956Y0210409D01*
G75*
G02*
X0194094Y0211270I0000000J0000861D01*
G01*
X0194094Y0213288D01*
G75*
G02*
X0194956Y0214149I0000861J0000000D01*
G01*
X0196678Y0214149D01*
G75*
G02*
X0197539Y0213288I0000000J-000861D01*
G01*
G37*
G36*
G01*
X0206112Y0217220D02*
X0207470Y0217220D01*
G75*
G02*
X0208051Y0216639I0000000J-000581D01*
G01*
X0208051Y0215478D01*
G75*
G02*
X0207470Y0214897I-000581J0000000D01*
G01*
X0206112Y0214897D01*
G75*
G02*
X0205531Y0215478I0000000J0000581D01*
G01*
X0205531Y0216639D01*
G75*
G02*
X0206112Y0217220I0000581J0000000D01*
G01*
G37*
G36*
G01*
X0206112Y0213401D02*
X0207470Y0213401D01*
G75*
G02*
X0208051Y0212820I0000000J-000581D01*
G01*
X0208051Y0211659D01*
G75*
G02*
X0207470Y0211078I-000581J0000000D01*
G01*
X0206112Y0211078D01*
G75*
G02*
X0205531Y0211659I0000000J0000581D01*
G01*
X0205531Y0212820D01*
G75*
G02*
X0206112Y0213401I0000581J0000000D01*
G01*
G37*
G36*
G01*
X0250221Y0212673D02*
X0248204Y0212673D01*
G75*
G02*
X0247342Y0213534I0000000J0000861D01*
G01*
X0247342Y0215256D01*
G75*
G02*
X0248204Y0216117I0000861J0000000D01*
G01*
X0250221Y0216117D01*
G75*
G02*
X0251082Y0215256I0000000J-000861D01*
G01*
X0251082Y0213534D01*
G75*
G02*
X0250221Y0212673I-000861J0000000D01*
G01*
G37*
G36*
G01*
X0250221Y0218873D02*
X0248204Y0218873D01*
G75*
G02*
X0247342Y0219735I0000000J0000861D01*
G01*
X0247342Y0221457D01*
G75*
G02*
X0248204Y0222318I0000861J0000000D01*
G01*
X0250221Y0222318D01*
G75*
G02*
X0251082Y0221457I0000000J-000861D01*
G01*
X0251082Y0219735D01*
G75*
G02*
X0250221Y0218873I-000861J0000000D01*
G01*
G37*
G36*
G01*
X0182382Y0211270D02*
X0182382Y0213288D01*
G75*
G02*
X0183243Y0214149I0000861J0000000D01*
G01*
X0184965Y0214149D01*
G75*
G02*
X0185827Y0213288I0000000J-000861D01*
G01*
X0185827Y0211270D01*
G75*
G02*
X0184965Y0210409I-000861J0000000D01*
G01*
X0183243Y0210409D01*
G75*
G02*
X0182382Y0211270I0000000J0000861D01*
G01*
G37*
G36*
G01*
X0188582Y0211270D02*
X0188582Y0213288D01*
G75*
G02*
X0189444Y0214149I0000861J0000000D01*
G01*
X0191166Y0214149D01*
G75*
G02*
X0192027Y0213288I0000000J-000861D01*
G01*
X0192027Y0211270D01*
G75*
G02*
X0191166Y0210409I-000861J0000000D01*
G01*
X0189444Y0210409D01*
G75*
G02*
X0188582Y0211270I0000000J0000861D01*
G01*
G37*
G36*
G01*
X0178061Y0215448D02*
X0179419Y0215448D01*
G75*
G02*
X0180000Y0214867I0000000J-000581D01*
G01*
X0180000Y0213706D01*
G75*
G02*
X0179419Y0213125I-000581J0000000D01*
G01*
X0178061Y0213125D01*
G75*
G02*
X0177480Y0213706I0000000J0000581D01*
G01*
X0177480Y0214867D01*
G75*
G02*
X0178061Y0215448I0000581J0000000D01*
G01*
G37*
G36*
G01*
X0178061Y0211629D02*
X0179419Y0211629D01*
G75*
G02*
X0180000Y0211048I0000000J-000581D01*
G01*
X0180000Y0209887D01*
G75*
G02*
X0179419Y0209306I-000581J0000000D01*
G01*
X0178061Y0209306D01*
G75*
G02*
X0177480Y0209887I0000000J0000581D01*
G01*
X0177480Y0211048D01*
G75*
G02*
X0178061Y0211629I0000581J0000000D01*
G01*
G37*
G36*
G01*
X0212500Y0228125D02*
X0212500Y0227141D01*
G75*
G02*
X0212008Y0226649I-000492J0000000D01*
G01*
X0207086Y0226649D01*
G75*
G02*
X0206594Y0227141I0000000J0000492D01*
G01*
X0206594Y0228125D01*
G75*
G02*
X0207086Y0228617I0000492J0000000D01*
G01*
X0212008Y0228617D01*
G75*
G02*
X0212500Y0228125I0000000J-000492D01*
G01*
G37*
G36*
G01*
X0212500Y0231275D02*
X0212500Y0230291D01*
G75*
G02*
X0212008Y0229798I-000492J0000000D01*
G01*
X0207086Y0229798D01*
G75*
G02*
X0206594Y0230291I0000000J0000492D01*
G01*
X0206594Y0231275D01*
G75*
G02*
X0207086Y0231767I0000492J0000000D01*
G01*
X0212008Y0231767D01*
G75*
G02*
X0212500Y0231275I0000000J-000492D01*
G01*
G37*
G36*
G01*
X0212500Y0234424D02*
X0212500Y0233440D01*
G75*
G02*
X0212008Y0232948I-000492J0000000D01*
G01*
X0207086Y0232948D01*
G75*
G02*
X0206594Y0233440I0000000J0000492D01*
G01*
X0206594Y0234424D01*
G75*
G02*
X0207086Y0234917I0000492J0000000D01*
G01*
X0212008Y0234917D01*
G75*
G02*
X0212500Y0234424I0000000J-000492D01*
G01*
G37*
G36*
G01*
X0212500Y0237574D02*
X0212500Y0236590D01*
G75*
G02*
X0212008Y0236098I-000492J0000000D01*
G01*
X0207086Y0236098D01*
G75*
G02*
X0206594Y0236590I0000000J0000492D01*
G01*
X0206594Y0237574D01*
G75*
G02*
X0207086Y0238066I0000492J0000000D01*
G01*
X0212008Y0238066D01*
G75*
G02*
X0212500Y0237574I0000000J-000492D01*
G01*
G37*
G36*
G01*
X0212500Y0240724D02*
X0212500Y0239739D01*
G75*
G02*
X0212008Y0239247I-000492J0000000D01*
G01*
X0207086Y0239247D01*
G75*
G02*
X0206594Y0239739I0000000J0000492D01*
G01*
X0206594Y0240724D01*
G75*
G02*
X0207086Y0241216I0000492J0000000D01*
G01*
X0212008Y0241216D01*
G75*
G02*
X0212500Y0240724I0000000J-000492D01*
G01*
G37*
G36*
G01*
X0212500Y0243873D02*
X0212500Y0242889D01*
G75*
G02*
X0212008Y0242397I-000492J0000000D01*
G01*
X0207086Y0242397D01*
G75*
G02*
X0206594Y0242889I0000000J0000492D01*
G01*
X0206594Y0243873D01*
G75*
G02*
X0207086Y0244365I0000492J0000000D01*
G01*
X0212008Y0244365D01*
G75*
G02*
X0212500Y0243873I0000000J-000492D01*
G01*
G37*
G36*
G01*
X0212500Y0247023D02*
X0212500Y0246039D01*
G75*
G02*
X0212008Y0245547I-000492J0000000D01*
G01*
X0207086Y0245547D01*
G75*
G02*
X0206594Y0246039I0000000J0000492D01*
G01*
X0206594Y0247023D01*
G75*
G02*
X0207086Y0247515I0000492J0000000D01*
G01*
X0212008Y0247515D01*
G75*
G02*
X0212500Y0247023I0000000J-000492D01*
G01*
G37*
G36*
G01*
X0212500Y0250173D02*
X0212500Y0249188D01*
G75*
G02*
X0212008Y0248696I-000492J0000000D01*
G01*
X0207086Y0248696D01*
G75*
G02*
X0206594Y0249188I0000000J0000492D01*
G01*
X0206594Y0250173D01*
G75*
G02*
X0207086Y0250665I0000492J0000000D01*
G01*
X0212008Y0250665D01*
G75*
G02*
X0212500Y0250173I0000000J-000492D01*
G01*
G37*
G36*
G01*
X0205118Y0257554D02*
X0205118Y0252633D01*
G75*
G02*
X0204626Y0252141I-000492J0000000D01*
G01*
X0203642Y0252141D01*
G75*
G02*
X0203149Y0252633I0000000J0000492D01*
G01*
X0203149Y0257554D01*
G75*
G02*
X0203642Y0258047I0000492J0000000D01*
G01*
X0204626Y0258047D01*
G75*
G02*
X0205118Y0257554I0000000J-000492D01*
G01*
G37*
G36*
G01*
X0201968Y0257554D02*
X0201968Y0252633D01*
G75*
G02*
X0201476Y0252141I-000492J0000000D01*
G01*
X0200492Y0252141D01*
G75*
G02*
X0200000Y0252633I0000000J0000492D01*
G01*
X0200000Y0257554D01*
G75*
G02*
X0200492Y0258047I0000492J0000000D01*
G01*
X0201476Y0258047D01*
G75*
G02*
X0201968Y0257554I0000000J-000492D01*
G01*
G37*
G36*
G01*
X0198819Y0257554D02*
X0198819Y0252633D01*
G75*
G02*
X0198327Y0252141I-000492J0000000D01*
G01*
X0197342Y0252141D01*
G75*
G02*
X0196850Y0252633I0000000J0000492D01*
G01*
X0196850Y0257554D01*
G75*
G02*
X0197342Y0258047I0000492J0000000D01*
G01*
X0198327Y0258047D01*
G75*
G02*
X0198819Y0257554I0000000J-000492D01*
G01*
G37*
G36*
G01*
X0195669Y0257554D02*
X0195669Y0252633D01*
G75*
G02*
X0195177Y0252141I-000492J0000000D01*
G01*
X0194193Y0252141D01*
G75*
G02*
X0193701Y0252633I0000000J0000492D01*
G01*
X0193701Y0257554D01*
G75*
G02*
X0194193Y0258047I0000492J0000000D01*
G01*
X0195177Y0258047D01*
G75*
G02*
X0195669Y0257554I0000000J-000492D01*
G01*
G37*
G36*
G01*
X0192519Y0257554D02*
X0192519Y0252633D01*
G75*
G02*
X0192027Y0252141I-000492J0000000D01*
G01*
X0191043Y0252141D01*
G75*
G02*
X0190551Y0252633I0000000J0000492D01*
G01*
X0190551Y0257554D01*
G75*
G02*
X0191043Y0258047I0000492J0000000D01*
G01*
X0192027Y0258047D01*
G75*
G02*
X0192519Y0257554I0000000J-000492D01*
G01*
G37*
G36*
G01*
X0189370Y0257554D02*
X0189370Y0252633D01*
G75*
G02*
X0188878Y0252141I-000492J0000000D01*
G01*
X0187894Y0252141D01*
G75*
G02*
X0187401Y0252633I0000000J0000492D01*
G01*
X0187401Y0257554D01*
G75*
G02*
X0187894Y0258047I0000492J0000000D01*
G01*
X0188878Y0258047D01*
G75*
G02*
X0189370Y0257554I0000000J-000492D01*
G01*
G37*
G36*
G01*
X0186220Y0257554D02*
X0186220Y0252633D01*
G75*
G02*
X0185728Y0252141I-000492J0000000D01*
G01*
X0184744Y0252141D01*
G75*
G02*
X0184252Y0252633I0000000J0000492D01*
G01*
X0184252Y0257554D01*
G75*
G02*
X0184744Y0258047I0000492J0000000D01*
G01*
X0185728Y0258047D01*
G75*
G02*
X0186220Y0257554I0000000J-000492D01*
G01*
G37*
G36*
G01*
X0183071Y0257554D02*
X0183071Y0252633D01*
G75*
G02*
X0182579Y0252141I-000492J0000000D01*
G01*
X0181594Y0252141D01*
G75*
G02*
X0181102Y0252633I0000000J0000492D01*
G01*
X0181102Y0257554D01*
G75*
G02*
X0181594Y0258047I0000492J0000000D01*
G01*
X0182579Y0258047D01*
G75*
G02*
X0183071Y0257554I0000000J-000492D01*
G01*
G37*
G36*
G01*
X0179626Y0250173D02*
X0179626Y0249188D01*
G75*
G02*
X0179134Y0248696I-000492J0000000D01*
G01*
X0174212Y0248696D01*
G75*
G02*
X0173720Y0249188I0000000J0000492D01*
G01*
X0173720Y0250173D01*
G75*
G02*
X0174212Y0250665I0000492J0000000D01*
G01*
X0179134Y0250665D01*
G75*
G02*
X0179626Y0250173I0000000J-000492D01*
G01*
G37*
G36*
G01*
X0179626Y0247023D02*
X0179626Y0246039D01*
G75*
G02*
X0179134Y0245547I-000492J0000000D01*
G01*
X0174212Y0245547D01*
G75*
G02*
X0173720Y0246039I0000000J0000492D01*
G01*
X0173720Y0247023D01*
G75*
G02*
X0174212Y0247515I0000492J0000000D01*
G01*
X0179134Y0247515D01*
G75*
G02*
X0179626Y0247023I0000000J-000492D01*
G01*
G37*
G36*
G01*
X0179626Y0243873D02*
X0179626Y0242889D01*
G75*
G02*
X0179134Y0242397I-000492J0000000D01*
G01*
X0174212Y0242397D01*
G75*
G02*
X0173720Y0242889I0000000J0000492D01*
G01*
X0173720Y0243873D01*
G75*
G02*
X0174212Y0244365I0000492J0000000D01*
G01*
X0179134Y0244365D01*
G75*
G02*
X0179626Y0243873I0000000J-000492D01*
G01*
G37*
G36*
G01*
X0179626Y0240724D02*
X0179626Y0239739D01*
G75*
G02*
X0179134Y0239247I-000492J0000000D01*
G01*
X0174212Y0239247D01*
G75*
G02*
X0173720Y0239739I0000000J0000492D01*
G01*
X0173720Y0240724D01*
G75*
G02*
X0174212Y0241216I0000492J0000000D01*
G01*
X0179134Y0241216D01*
G75*
G02*
X0179626Y0240724I0000000J-000492D01*
G01*
G37*
G36*
G01*
X0179626Y0237574D02*
X0179626Y0236590D01*
G75*
G02*
X0179134Y0236098I-000492J0000000D01*
G01*
X0174212Y0236098D01*
G75*
G02*
X0173720Y0236590I0000000J0000492D01*
G01*
X0173720Y0237574D01*
G75*
G02*
X0174212Y0238066I0000492J0000000D01*
G01*
X0179134Y0238066D01*
G75*
G02*
X0179626Y0237574I0000000J-000492D01*
G01*
G37*
G36*
G01*
X0179626Y0234424D02*
X0179626Y0233440D01*
G75*
G02*
X0179134Y0232948I-000492J0000000D01*
G01*
X0174212Y0232948D01*
G75*
G02*
X0173720Y0233440I0000000J0000492D01*
G01*
X0173720Y0234424D01*
G75*
G02*
X0174212Y0234917I0000492J0000000D01*
G01*
X0179134Y0234917D01*
G75*
G02*
X0179626Y0234424I0000000J-000492D01*
G01*
G37*
G36*
G01*
X0179626Y0231275D02*
X0179626Y0230291D01*
G75*
G02*
X0179134Y0229798I-000492J0000000D01*
G01*
X0174212Y0229798D01*
G75*
G02*
X0173720Y0230291I0000000J0000492D01*
G01*
X0173720Y0231275D01*
G75*
G02*
X0174212Y0231767I0000492J0000000D01*
G01*
X0179134Y0231767D01*
G75*
G02*
X0179626Y0231275I0000000J-000492D01*
G01*
G37*
G36*
G01*
X0179626Y0228125D02*
X0179626Y0227141D01*
G75*
G02*
X0179134Y0226649I-000492J0000000D01*
G01*
X0174212Y0226649D01*
G75*
G02*
X0173720Y0227141I0000000J0000492D01*
G01*
X0173720Y0228125D01*
G75*
G02*
X0174212Y0228617I0000492J0000000D01*
G01*
X0179134Y0228617D01*
G75*
G02*
X0179626Y0228125I0000000J-000492D01*
G01*
G37*
G36*
G01*
X0183071Y0224680D02*
X0183071Y0219759D01*
G75*
G02*
X0182579Y0219267I-000492J0000000D01*
G01*
X0181594Y0219267D01*
G75*
G02*
X0181102Y0219759I0000000J0000492D01*
G01*
X0181102Y0224680D01*
G75*
G02*
X0181594Y0225173I0000492J0000000D01*
G01*
X0182579Y0225173D01*
G75*
G02*
X0183071Y0224680I0000000J-000492D01*
G01*
G37*
G36*
G01*
X0186220Y0224680D02*
X0186220Y0219759D01*
G75*
G02*
X0185728Y0219267I-000492J0000000D01*
G01*
X0184744Y0219267D01*
G75*
G02*
X0184252Y0219759I0000000J0000492D01*
G01*
X0184252Y0224680D01*
G75*
G02*
X0184744Y0225173I0000492J0000000D01*
G01*
X0185728Y0225173D01*
G75*
G02*
X0186220Y0224680I0000000J-000492D01*
G01*
G37*
G36*
G01*
X0189370Y0224680D02*
X0189370Y0219759D01*
G75*
G02*
X0188878Y0219267I-000492J0000000D01*
G01*
X0187894Y0219267D01*
G75*
G02*
X0187401Y0219759I0000000J0000492D01*
G01*
X0187401Y0224680D01*
G75*
G02*
X0187894Y0225173I0000492J0000000D01*
G01*
X0188878Y0225173D01*
G75*
G02*
X0189370Y0224680I0000000J-000492D01*
G01*
G37*
G36*
G01*
X0192519Y0224680D02*
X0192519Y0219759D01*
G75*
G02*
X0192027Y0219267I-000492J0000000D01*
G01*
X0191043Y0219267D01*
G75*
G02*
X0190551Y0219759I0000000J0000492D01*
G01*
X0190551Y0224680D01*
G75*
G02*
X0191043Y0225173I0000492J0000000D01*
G01*
X0192027Y0225173D01*
G75*
G02*
X0192519Y0224680I0000000J-000492D01*
G01*
G37*
G36*
G01*
X0195669Y0224680D02*
X0195669Y0219759D01*
G75*
G02*
X0195177Y0219267I-000492J0000000D01*
G01*
X0194193Y0219267D01*
G75*
G02*
X0193701Y0219759I0000000J0000492D01*
G01*
X0193701Y0224680D01*
G75*
G02*
X0194193Y0225173I0000492J0000000D01*
G01*
X0195177Y0225173D01*
G75*
G02*
X0195669Y0224680I0000000J-000492D01*
G01*
G37*
G36*
G01*
X0198819Y0224680D02*
X0198819Y0219759D01*
G75*
G02*
X0198327Y0219267I-000492J0000000D01*
G01*
X0197342Y0219267D01*
G75*
G02*
X0196850Y0219759I0000000J0000492D01*
G01*
X0196850Y0224680D01*
G75*
G02*
X0197342Y0225173I0000492J0000000D01*
G01*
X0198327Y0225173D01*
G75*
G02*
X0198819Y0224680I0000000J-000492D01*
G01*
G37*
G36*
G01*
X0201968Y0224680D02*
X0201968Y0219759D01*
G75*
G02*
X0201476Y0219267I-000492J0000000D01*
G01*
X0200492Y0219267D01*
G75*
G02*
X0200000Y0219759I0000000J0000492D01*
G01*
X0200000Y0224680D01*
G75*
G02*
X0200492Y0225173I0000492J0000000D01*
G01*
X0201476Y0225173D01*
G75*
G02*
X0201968Y0224680I0000000J-000492D01*
G01*
G37*
G36*
G01*
X0205118Y0224680D02*
X0205118Y0219759D01*
G75*
G02*
X0204626Y0219267I-000492J0000000D01*
G01*
X0203642Y0219267D01*
G75*
G02*
X0203149Y0219759I0000000J0000492D01*
G01*
X0203149Y0224680D01*
G75*
G02*
X0203642Y0225173I0000492J0000000D01*
G01*
X0204626Y0225173D01*
G75*
G02*
X0205118Y0224680I0000000J-000492D01*
G01*
G37*
G36*
G01*
X0170492Y0246226D02*
X0170492Y0244867D01*
G75*
G02*
X0169911Y0244287I-000581J0000000D01*
G01*
X0168750Y0244287D01*
G75*
G02*
X0168169Y0244867I0000000J0000581D01*
G01*
X0168169Y0246226D01*
G75*
G02*
X0168750Y0246806I0000581J0000000D01*
G01*
X0169911Y0246806D01*
G75*
G02*
X0170492Y0246226I0000000J-000581D01*
G01*
G37*
G36*
G01*
X0166673Y0246226D02*
X0166673Y0244867D01*
G75*
G02*
X0166092Y0244287I-000581J0000000D01*
G01*
X0164931Y0244287D01*
G75*
G02*
X0164350Y0244867I0000000J0000581D01*
G01*
X0164350Y0246226D01*
G75*
G02*
X0164931Y0246806I0000581J0000000D01*
G01*
X0166092Y0246806D01*
G75*
G02*
X0166673Y0246226I0000000J-000581D01*
G01*
G37*
G36*
G01*
X0177569Y0222830D02*
X0178927Y0222830D01*
G75*
G02*
X0179508Y0222249I0000000J-000581D01*
G01*
X0179508Y0221088D01*
G75*
G02*
X0178927Y0220507I-000581J0000000D01*
G01*
X0177569Y0220507D01*
G75*
G02*
X0176988Y0221088I0000000J0000581D01*
G01*
X0176988Y0222249D01*
G75*
G02*
X0177569Y0222830I0000581J0000000D01*
G01*
G37*
G36*
G01*
X0177569Y0219011D02*
X0178927Y0219011D01*
G75*
G02*
X0179508Y0218430I0000000J-000581D01*
G01*
X0179508Y0217269D01*
G75*
G02*
X0178927Y0216688I-000581J0000000D01*
G01*
X0177569Y0216688D01*
G75*
G02*
X0176988Y0217269I0000000J0000581D01*
G01*
X0176988Y0218430D01*
G75*
G02*
X0177569Y0219011I0000581J0000000D01*
G01*
G37*
G36*
G01*
X0153925Y0244867D02*
X0153925Y0246226D01*
G75*
G02*
X0154506Y0246806I0000581J0000000D01*
G01*
X0155667Y0246806D01*
G75*
G02*
X0156248Y0246226I0000000J-000581D01*
G01*
X0156248Y0244867D01*
G75*
G02*
X0155667Y0244287I-000581J0000000D01*
G01*
X0154506Y0244287D01*
G75*
G02*
X0153925Y0244867I0000000J0000581D01*
G01*
G37*
G36*
G01*
X0157744Y0244867D02*
X0157744Y0246226D01*
G75*
G02*
X0158325Y0246806I0000581J0000000D01*
G01*
X0159486Y0246806D01*
G75*
G02*
X0160067Y0246226I0000000J-000581D01*
G01*
X0160067Y0244867D01*
G75*
G02*
X0159486Y0244287I-000581J0000000D01*
G01*
X0158325Y0244287D01*
G75*
G02*
X0157744Y0244867I0000000J0000581D01*
G01*
G37*
D154*
X0155413Y0250468D03*
X0162894Y0250468D03*
X0159153Y0258342D03*
G36*
G01*
X0214478Y0224700D02*
X0215836Y0224700D01*
G75*
G02*
X0216417Y0224119I0000000J-000581D01*
G01*
X0216417Y0222958D01*
G75*
G02*
X0215836Y0222377I-000581J0000000D01*
G01*
X0214478Y0222377D01*
G75*
G02*
X0213897Y0222958I0000000J0000581D01*
G01*
X0213897Y0224119D01*
G75*
G02*
X0214478Y0224700I0000581J0000000D01*
G01*
G37*
G36*
G01*
X0214478Y0220881D02*
X0215836Y0220881D01*
G75*
G02*
X0216417Y0220300I0000000J-000581D01*
G01*
X0216417Y0219139D01*
G75*
G02*
X0215836Y0218558I-000581J0000000D01*
G01*
X0214478Y0218558D01*
G75*
G02*
X0213897Y0219139I0000000J0000581D01*
G01*
X0213897Y0220300D01*
G75*
G02*
X0214478Y0220881I0000581J0000000D01*
G01*
G37*
G36*
G01*
X0168351Y0259739D02*
X0170369Y0259739D01*
G75*
G02*
X0171230Y0258878I0000000J-000861D01*
G01*
X0171230Y0257156D01*
G75*
G02*
X0170369Y0256295I-000861J0000000D01*
G01*
X0168351Y0256295D01*
G75*
G02*
X0167490Y0257156I0000000J0000861D01*
G01*
X0167490Y0258878D01*
G75*
G02*
X0168351Y0259739I0000861J0000000D01*
G01*
G37*
G36*
G01*
X0168351Y0253539D02*
X0170369Y0253539D01*
G75*
G02*
X0171230Y0252677I0000000J-000861D01*
G01*
X0171230Y0250955D01*
G75*
G02*
X0170369Y0250094I-000861J0000000D01*
G01*
X0168351Y0250094D01*
G75*
G02*
X0167490Y0250955I0000000J0000861D01*
G01*
X0167490Y0252677D01*
G75*
G02*
X0168351Y0253539I0000861J0000000D01*
G01*
G37*
D166*
X0152598Y0217594D03*
X0172598Y0213594D03*
X0172598Y0221594D03*
D162*
X0157598Y0215094D03*
X0157598Y0220094D03*
X0162598Y0215094D03*
X0162598Y0220094D03*
X0167598Y0215094D03*
X0167598Y0220094D03*
D163*
X0242086Y0256472D03*
D164*
X0232086Y0256472D03*
X0222086Y0256472D03*
X0148425Y0267200D02*
G01*
G75*
D197*
X0272047Y0285290D02*
D03*
X0279134Y0285290D02*
D03*
X0279134Y0275251D02*
D03*
X0272047Y0275251D02*
D03*
X0160236Y0334031D02*
D03*
X0153149Y0334031D02*
D03*
X0153149Y0323991D02*
D03*
X0160236Y0323991D02*
D03*
X0160236Y0340133D02*
D03*
X0153149Y0340133D02*
D03*
X0153149Y0350173D02*
D03*
X0160236Y0350173D02*
D03*
D198*
X0272047Y0281846D02*
D03*
X0272047Y0278696D02*
D03*
X0279134Y0278696D02*
D03*
X0279134Y0281846D02*
D03*
X0153149Y0327436D02*
D03*
X0153149Y0330586D02*
D03*
X0160236Y0330586D02*
D03*
X0160236Y0327436D02*
D03*
X0160236Y0343578D02*
D03*
X0160236Y0346728D02*
D03*
X0153149Y0346728D02*
D03*
X0153149Y0343578D02*
D03*
D199*
X0267835Y0282294D02*
D03*
X0267835Y0284853D02*
D03*
X0267835Y0287413D02*
D03*
X0260355Y0282294D02*
D03*
X0260355Y0287413D02*
D03*
X0260355Y0284853D02*
D03*
X0260355Y0277669D02*
D03*
X0260355Y0272550D02*
D03*
X0267835Y0277669D02*
D03*
X0267835Y0275109D02*
D03*
X0267835Y0272550D02*
D03*
X0260355Y0275109D02*
D03*
D200*
X0200627Y0381570D02*
D03*
X0200627Y0379602D02*
D03*
X0200627Y0377633D02*
D03*
X0200627Y0375665D02*
D03*
X0200627Y0373696D02*
D03*
X0200627Y0371728D02*
D03*
X0200627Y0369759D02*
D03*
X0200627Y0367791D02*
D03*
X0200627Y0365822D02*
D03*
X0200627Y0361885D02*
D03*
X0200627Y0359916D02*
D03*
X0200627Y0357948D02*
D03*
X0200627Y0355979D02*
D03*
X0200627Y0354011D02*
D03*
X0200627Y0352042D02*
D03*
X0200627Y0350074D02*
D03*
X0200627Y0348105D02*
D03*
X0200627Y0346137D02*
D03*
X0200627Y0344168D02*
D03*
X0200627Y0342200D02*
D03*
X0200627Y0340232D02*
D03*
X0200627Y0338263D02*
D03*
X0200627Y0336295D02*
D03*
X0200627Y0334326D02*
D03*
X0261651Y0334326D02*
D03*
X0261651Y0336295D02*
D03*
X0261651Y0338263D02*
D03*
X0261651Y0340232D02*
D03*
X0261651Y0342200D02*
D03*
X0261651Y0344168D02*
D03*
X0261651Y0346137D02*
D03*
X0261651Y0348105D02*
D03*
X0261651Y0350074D02*
D03*
X0261651Y0352042D02*
D03*
X0261651Y0354011D02*
D03*
X0261651Y0355979D02*
D03*
X0261651Y0357948D02*
D03*
X0261651Y0359916D02*
D03*
X0261651Y0361885D02*
D03*
X0261651Y0363853D02*
D03*
X0261651Y0365822D02*
D03*
X0261651Y0367791D02*
D03*
X0261651Y0369759D02*
D03*
X0261651Y0371728D02*
D03*
X0261651Y0373696D02*
D03*
X0261651Y0375665D02*
D03*
X0261651Y0377633D02*
D03*
X0261651Y0381570D02*
D03*
X0200627Y0363853D02*
D03*
X0261651Y0379602D02*
D03*
D201*
X0207517Y0327436D02*
D03*
X0211454Y0327436D02*
D03*
X0213423Y0327436D02*
D03*
X0215391Y0327436D02*
D03*
X0217360Y0327436D02*
D03*
X0219328Y0327436D02*
D03*
X0221297Y0327436D02*
D03*
X0223265Y0327436D02*
D03*
X0225234Y0327436D02*
D03*
X0227202Y0327436D02*
D03*
X0229171Y0327436D02*
D03*
X0231139Y0327436D02*
D03*
X0233108Y0327436D02*
D03*
X0235076Y0327436D02*
D03*
X0237045Y0327436D02*
D03*
X0239013Y0327436D02*
D03*
X0240982Y0327436D02*
D03*
X0242950Y0327436D02*
D03*
X0244919Y0327436D02*
D03*
X0246887Y0327436D02*
D03*
X0248856Y0327436D02*
D03*
X0250824Y0327436D02*
D03*
X0252793Y0327436D02*
D03*
X0254761Y0327436D02*
D03*
X0254761Y0388460D02*
D03*
X0252793Y0388460D02*
D03*
X0250824Y0388460D02*
D03*
X0248856Y0388460D02*
D03*
X0246887Y0388460D02*
D03*
X0244919Y0388460D02*
D03*
X0242950Y0388460D02*
D03*
X0240982Y0388460D02*
D03*
X0239013Y0388460D02*
D03*
X0237045Y0388460D02*
D03*
X0235076Y0388460D02*
D03*
X0233108Y0388460D02*
D03*
X0231139Y0388460D02*
D03*
X0229171Y0388460D02*
D03*
X0227202Y0388460D02*
D03*
X0225234Y0388460D02*
D03*
X0223265Y0388460D02*
D03*
X0221297Y0388460D02*
D03*
X0219328Y0388460D02*
D03*
X0217360Y0388460D02*
D03*
X0215391Y0388460D02*
D03*
X0213423Y0388460D02*
D03*
X0211454Y0388460D02*
D03*
X0209486Y0388460D02*
D03*
X0207517Y0388460D02*
D03*
X0209486Y0327436D02*
D03*
D202*
X0204134Y0310507D02*
D03*
X0232086Y0310507D02*
D03*
X0176181Y0310507D02*
D03*
X0181693Y0305389D02*
D03*
X0209646Y0315625D02*
D03*
X0209646Y0313066D02*
D03*
X0209646Y0310507D02*
D03*
X0209646Y0307948D02*
D03*
X0209646Y0305389D02*
D03*
X0209646Y0302830D02*
D03*
X0209646Y0300271D02*
D03*
X0232086Y0315625D02*
D03*
X0232086Y0313066D02*
D03*
X0232086Y0307948D02*
D03*
X0232086Y0305389D02*
D03*
X0232086Y0302830D02*
D03*
X0232086Y0300271D02*
D03*
X0153740Y0315625D02*
D03*
X0153740Y0313066D02*
D03*
X0153740Y0310507D02*
D03*
X0153740Y0307948D02*
D03*
X0153740Y0305389D02*
D03*
X0153740Y0302830D02*
D03*
X0153740Y0300271D02*
D03*
X0176181Y0315625D02*
D03*
X0176181Y0313066D02*
D03*
X0176181Y0307948D02*
D03*
X0176181Y0305389D02*
D03*
X0176181Y0302830D02*
D03*
X0176181Y0300271D02*
D03*
X0181693Y0315625D02*
D03*
X0181693Y0313066D02*
D03*
X0181693Y0310507D02*
D03*
X0181693Y0307948D02*
D03*
X0181693Y0302830D02*
D03*
X0181693Y0300271D02*
D03*
X0204134Y0315625D02*
D03*
X0204134Y0313066D02*
D03*
X0204134Y0307948D02*
D03*
X0204134Y0305389D02*
D03*
X0204134Y0302830D02*
D03*
X0204134Y0300271D02*
D03*
X0260039Y0300271D02*
D03*
X0260039Y0302830D02*
D03*
X0260039Y0305389D02*
D03*
X0260039Y0307948D02*
D03*
X0260039Y0310507D02*
D03*
X0260039Y0313066D02*
D03*
X0260039Y0315625D02*
D03*
X0237598Y0300271D02*
D03*
X0237598Y0302830D02*
D03*
X0237598Y0305389D02*
D03*
X0237598Y0307948D02*
D03*
X0237598Y0310507D02*
D03*
X0237598Y0313066D02*
D03*
X0237598Y0315625D02*
D03*
D203*
X0258543Y0401393D02*
D03*
X0258543Y0396393D02*
D03*
X0253543Y0401393D02*
D03*
X0253543Y0396393D02*
D03*
X0248543Y0401393D02*
D03*
X0248543Y0396393D02*
D03*
D204*
X0272834Y0402633D02*
D03*
X0276575Y0402633D02*
D03*
X0269094Y0402633D02*
D03*
X0269094Y0393184D02*
D03*
X0272834Y0393184D02*
D03*
X0276575Y0393184D02*
D03*
D205*
X0274284Y0381373D02*
D03*
X0274284Y0386098D02*
D03*
X0272815Y0371826D02*
D03*
X0186275Y0398611D02*
D03*
X0199587Y0322745D02*
D03*
X0270348Y0381373D02*
D03*
X0276753Y0371826D02*
D03*
X0271453Y0334842D02*
D03*
X0275390Y0334842D02*
D03*
X0271453Y0325787D02*
D03*
X0275390Y0325787D02*
D03*
X0270348Y0386098D02*
D03*
X0190212Y0398611D02*
D03*
X0183135Y0381896D02*
D03*
X0187072Y0381896D02*
D03*
X0203524Y0322745D02*
D03*
X0203543Y0327041D02*
D03*
X0199606Y0327041D02*
D03*
D206*
X0276741Y0363191D02*
D03*
X0276741Y0361223D02*
D03*
X0270442Y0365160D02*
D03*
X0270442Y0363191D02*
D03*
X0270442Y0367128D02*
D03*
X0270442Y0361223D02*
D03*
X0276741Y0367128D02*
D03*
X0276741Y0365160D02*
D03*
D207*
X0274576Y0361026D02*
D03*
X0272607Y0361026D02*
D03*
X0272607Y0367325D02*
D03*
X0274576Y0367325D02*
D03*
D208*
X0271836Y0356176D02*
D03*
X0271836Y0339641D02*
D03*
D209*
X0243307Y0283735D02*
D03*
X0252756Y0283735D02*
D03*
X0248031Y0283735D02*
D03*
X0238583Y0283735D02*
D03*
X0252756Y0272318D02*
D03*
X0243307Y0272318D02*
D03*
X0248031Y0272318D02*
D03*
X0238583Y0272318D02*
D03*
X0232373Y0290715D02*
D03*
X0232373Y0294652D02*
D03*
X0238583Y0276255D02*
D03*
D03*
X0238583Y0280192D02*
D03*
X0243307Y0276255D02*
D03*
X0243307Y0280192D02*
D03*
X0238583Y0287672D02*
D03*
X0248031Y0276255D02*
D03*
X0248031Y0280192D02*
D03*
X0243307Y0287672D02*
D03*
X0248031Y0287672D02*
D03*
X0252756Y0276255D02*
D03*
X0252756Y0280192D02*
D03*
X0252756Y0276255D02*
D03*
X0252756Y0287672D02*
D03*
X0243307Y0276255D02*
D03*
X0248031Y0276255D02*
D03*
X0152559Y0278617D02*
D03*
X0152559Y0274680D02*
D03*
X0177165Y0276255D02*
D03*
X0177165Y0272318D02*
D03*
X0191338Y0276255D02*
D03*
X0191338Y0272318D02*
D03*
X0210236Y0280192D02*
D03*
X0210236Y0276255D02*
D03*
X0210236Y0272318D02*
D03*
X0210236Y0276255D02*
D03*
X0224409Y0280192D02*
D03*
X0224409Y0276255D02*
D03*
X0152559Y0295350D02*
D03*
X0152559Y0291413D02*
D03*
X0158268Y0276255D02*
D03*
X0158268Y0280192D02*
D03*
X0162992Y0276255D02*
D03*
X0162992Y0280192D02*
D03*
X0167716Y0276255D02*
D03*
X0167716Y0280192D02*
D03*
X0172441Y0276255D02*
D03*
X0172441Y0280192D02*
D03*
X0158268Y0276255D02*
D03*
X0158268Y0272318D02*
D03*
X0162992Y0276255D02*
D03*
X0162992Y0272318D02*
D03*
X0167716Y0276255D02*
D03*
X0167716Y0272318D02*
D03*
X0172441Y0276255D02*
D03*
X0172441Y0272318D02*
D03*
X0177165Y0276255D02*
D03*
X0177165Y0280192D02*
D03*
X0181890Y0276255D02*
D03*
X0181890Y0280192D02*
D03*
X0186614Y0276255D02*
D03*
X0186614Y0280192D02*
D03*
X0191338Y0276255D02*
D03*
X0191338Y0280192D02*
D03*
X0181890Y0276255D02*
D03*
X0181890Y0272318D02*
D03*
X0186614Y0276255D02*
D03*
X0186614Y0272318D02*
D03*
X0196063Y0280192D02*
D03*
X0196063Y0276255D02*
D03*
X0200787Y0280192D02*
D03*
X0200787Y0276255D02*
D03*
X0205512Y0280192D02*
D03*
X0205512Y0276255D02*
D03*
X0196063Y0272318D02*
D03*
X0196063Y0276255D02*
D03*
X0200787Y0272318D02*
D03*
X0200787Y0276255D02*
D03*
X0205512Y0272318D02*
D03*
X0205512Y0276255D02*
D03*
X0214961Y0280192D02*
D03*
X0214961Y0276255D02*
D03*
X0219685Y0280192D02*
D03*
X0219685Y0276255D02*
D03*
X0229134Y0280192D02*
D03*
X0229134Y0276255D02*
D03*
X0214961Y0272318D02*
D03*
X0214961Y0276255D02*
D03*
X0219685Y0272318D02*
D03*
X0219685Y0276255D02*
D03*
X0224409Y0272318D02*
D03*
X0224409Y0276255D02*
D03*
X0229134Y0272318D02*
D03*
X0229134Y0276255D02*
D03*
X0152559Y0286294D02*
D03*
X0152559Y0282357D02*
D03*
D210*
X0217323Y0289247D02*
D03*
X0198425Y0289247D02*
D03*
X0179527Y0289247D02*
D03*
X0160630Y0289247D02*
D03*
X0188976Y0292987D02*
D03*
X0188976Y0289247D02*
D03*
X0188976Y0285507D02*
D03*
X0179527Y0285507D02*
D03*
X0179527Y0292987D02*
D03*
X0170079Y0292987D02*
D03*
X0170079Y0289247D02*
D03*
X0170079Y0285507D02*
D03*
X0160630Y0285507D02*
D03*
X0160630Y0292987D02*
D03*
X0207874Y0292987D02*
D03*
X0207874Y0289247D02*
D03*
X0207874Y0285507D02*
D03*
X0198425Y0285507D02*
D03*
X0198425Y0292987D02*
D03*
X0226772Y0292987D02*
D03*
X0226772Y0289247D02*
D03*
X0226772Y0285507D02*
D03*
X0217323Y0285507D02*
D03*
X0217323Y0292987D02*
D03*
D211*
X0183338Y0386282D02*
D03*
X0201260Y0396531D02*
D03*
D212*
X0174016Y0361159D02*
D03*
X0155118Y0356159D02*
D03*
X0155118Y0371159D02*
D03*
X0155118Y0366159D02*
D03*
X0155118Y0361159D02*
D03*
X0174016Y0371159D02*
D03*
X0174016Y0366159D02*
D03*
X0174016Y0356159D02*
D03*
D213*
X0155708Y0378800D02*
D03*
X0173819Y0378800D02*
D03*
D214*
X0190170Y0347274D02*
D03*
X0173961Y0346726D02*
D03*
X0190647Y0339114D02*
D03*
X0190647Y0331503D02*
D03*
X0173961Y0339114D02*
D03*
X0173961Y0331503D02*
D03*
X0190647Y0323891D02*
D03*
X0173961Y0323891D02*
D03*
X0183477Y0347274D02*
D03*
X0183954Y0339114D02*
D03*
X0183954Y0331503D02*
D03*
X0183954Y0323891D02*
D03*
X0167268Y0339114D02*
D03*
X0167268Y0346726D02*
D03*
X0183477Y0355251D02*
D03*
X0190170Y0355251D02*
D03*
X0190170Y0362338D02*
D03*
X0183477Y0362338D02*
D03*
X0183477Y0369424D02*
D03*
X0190170Y0369424D02*
D03*
X0190170Y0376511D02*
D03*
X0183477Y0376511D02*
D03*
X0167268Y0331503D02*
D03*
X0167268Y0323891D02*
D03*
X0190170Y0404011D02*
D03*
X0183477Y0404011D02*
D03*
D215*
X0276844Y0376598D02*
D03*
X0270544Y0376598D02*
D03*
X0269484Y0330157D02*
D03*
X0275784Y0330157D02*
D03*
D216*
X0236219Y0399540D02*
D03*
X0219684Y0399540D02*
D03*
D211*
X0201260Y0404011D02*
D03*
X0210512Y0400271D02*
D03*
X0183338Y0393762D02*
D03*
X0192590Y0390022D02*
D03*
D217*
X0164764Y0403210D02*
D03*
D218*
X0164764Y0378800D02*
D03*
D219*
X0234055Y0276255D02*
D03*
X0153149Y0270350D02*
D03*
D220*
X0271246Y0293997D02*
D03*
X0271246Y0311713D02*
D03*
D221*
X0226338Y0321334D02*
D03*
X0240551Y0321334D02*
D03*
X0210551Y0321334D02*
D03*
D222*
X0263543Y0398893D02*
D03*
X0243543Y0394893D02*
D03*
X0243543Y0402893D02*
D03*
D14*
X0152756Y0404602D02*
D03*
X0148425Y0173945D02*
G01*
G75*
D262*
X0191732Y0175028D02*
D03*
D263*
X0150984Y0175225D02*
D03*
X0152953Y0175225D02*
D03*
D264*
X0159842Y0186957D02*
D03*
X0156102Y0177705D02*
D03*
D264*
X0152362Y0186957D02*
D03*
D265*
X0167401Y0198571D02*
D03*
X0167401Y0193571D02*
D03*
X0167401Y0188571D02*
D03*
X0167401Y0183571D02*
D03*
X0186299Y0198571D02*
D03*
X0186299Y0193571D02*
D03*
X0186299Y0188571D02*
D03*
X0186299Y0183571D02*
D03*
D108*
X0183110Y0178276D02*
D03*
X0189330Y0178276D02*
D03*
X0174764Y0178276D02*
D03*
X0168543Y0178276D02*
D03*
D266*
X0152952Y0191858D02*
D03*
X0159252Y0191858D02*
D03*
D113*
X0163582Y0175815D02*
D03*
X0179626Y0198354D02*
D03*
X0179921Y0184378D02*
D03*
X0178740Y0179358D02*
D03*
X0175295Y0181425D02*
D03*
M02*
