G75*
G70*
%OFA0B0*%
%FSLAX25Y25*%
%IPPOS*%
%LPD*%
%AMOC8*
5,1,8,0,0,1.08239X$1,22.5*
%
%ADD10C,0.00394*%
%ADD11C,0.00591*%
%ADD12C,0.01181*%
%ADD13C,0.01575*%
%ADD78C,0.00787*%
X0000000Y0000000D02*
%LPD*%
G01*
D10*
D11*
X1188189Y0133858D02*
X1613386Y0133858D01*
X1613386Y0007874D01*
X1188189Y0007874D01*
X1188189Y0133858D01*
D10*
D11*
X0000000Y1414960D02*
X1621260Y1414960D01*
X1621260Y0000000D01*
X0000000Y0000000D01*
X0000000Y1414960D01*
D10*
D11*
X0007874Y1407086D02*
X1613386Y1407086D01*
X1613386Y0007874D01*
X0007874Y0007874D01*
X0007874Y1407086D01*
D10*
D11*
X0196850Y1407086D02*
X0196850Y1414960D01*
D10*
D11*
X0393701Y1407086D02*
X0393701Y1414960D01*
D10*
D11*
X0590551Y1407086D02*
X0590551Y1414960D01*
D10*
D11*
X0787401Y1407086D02*
X0787401Y1414960D01*
D10*
D11*
X0984252Y1407086D02*
X0984252Y1414960D01*
D10*
D11*
X1181102Y1407086D02*
X1181102Y1414960D01*
D10*
D11*
X1377953Y1407086D02*
X1377953Y1414960D01*
D10*
D11*
X1574803Y1407086D02*
X1574803Y1414960D01*
D10*
D11*
X0102713Y1408686D02*
X0099788Y1408686D01*
X0101251Y1408686D02*
X0101251Y1413804D01*
X0101251Y1413804D02*
X0100763Y1413073D01*
X0100763Y1413073D02*
X0100276Y1412586D01*
X0100276Y1412586D02*
X0099788Y1412342D01*
D10*
D11*
X0296639Y1413317D02*
X0296883Y1413561D01*
X0296883Y1413561D02*
X0297370Y1413804D01*
X0297370Y1413804D02*
X0298589Y1413804D01*
X0298589Y1413804D02*
X0299076Y1413561D01*
X0299076Y1413561D02*
X0299320Y1413317D01*
X0299320Y1413317D02*
X0299563Y1412829D01*
X0299563Y1412829D02*
X0299563Y1412342D01*
X0299563Y1412342D02*
X0299320Y1411611D01*
X0299320Y1411611D02*
X0296395Y1408686D01*
X0296395Y1408686D02*
X0299563Y1408686D01*
D10*
D11*
X0493245Y1413804D02*
X0496414Y1413804D01*
X0496414Y1413804D02*
X0494708Y1411854D01*
X0494708Y1411854D02*
X0495439Y1411854D01*
X0495439Y1411854D02*
X0495926Y1411611D01*
X0495926Y1411611D02*
X0496170Y1411367D01*
X0496170Y1411367D02*
X0496414Y1410880D01*
X0496414Y1410880D02*
X0496414Y1409661D01*
X0496414Y1409661D02*
X0496170Y1409174D01*
X0496170Y1409174D02*
X0495926Y1408930D01*
X0495926Y1408930D02*
X0495439Y1408686D01*
X0495439Y1408686D02*
X0493977Y1408686D01*
X0493977Y1408686D02*
X0493489Y1408930D01*
X0493489Y1408930D02*
X0493245Y1409174D01*
D10*
D11*
X0692777Y1412098D02*
X0692777Y1408686D01*
X0691558Y1414048D02*
X0690340Y1410392D01*
X0690340Y1410392D02*
X0693508Y1410392D01*
D10*
D11*
X0889871Y1413804D02*
X0887434Y1413804D01*
X0887434Y1413804D02*
X0887190Y1411367D01*
X0887190Y1411367D02*
X0887434Y1411611D01*
X0887434Y1411611D02*
X0887921Y1411854D01*
X0887921Y1411854D02*
X0889140Y1411854D01*
X0889140Y1411854D02*
X0889627Y1411611D01*
X0889627Y1411611D02*
X0889871Y1411367D01*
X0889871Y1411367D02*
X0890115Y1410880D01*
X0890115Y1410880D02*
X0890115Y1409661D01*
X0890115Y1409661D02*
X0889871Y1409174D01*
X0889871Y1409174D02*
X0889627Y1408930D01*
X0889627Y1408930D02*
X0889140Y1408686D01*
X0889140Y1408686D02*
X0887921Y1408686D01*
X0887921Y1408686D02*
X0887434Y1408930D01*
X0887434Y1408930D02*
X0887190Y1409174D01*
D10*
D11*
X1086478Y1413804D02*
X1085503Y1413804D01*
X1085503Y1413804D02*
X1085015Y1413561D01*
X1085015Y1413561D02*
X1084772Y1413317D01*
X1084772Y1413317D02*
X1084284Y1412586D01*
X1084284Y1412586D02*
X1084040Y1411611D01*
X1084040Y1411611D02*
X1084040Y1409661D01*
X1084040Y1409661D02*
X1084284Y1409174D01*
X1084284Y1409174D02*
X1084528Y1408930D01*
X1084528Y1408930D02*
X1085015Y1408686D01*
X1085015Y1408686D02*
X1085990Y1408686D01*
X1085990Y1408686D02*
X1086478Y1408930D01*
X1086478Y1408930D02*
X1086721Y1409174D01*
X1086721Y1409174D02*
X1086965Y1409661D01*
X1086965Y1409661D02*
X1086965Y1410880D01*
X1086965Y1410880D02*
X1086721Y1411367D01*
X1086721Y1411367D02*
X1086478Y1411611D01*
X1086478Y1411611D02*
X1085990Y1411854D01*
X1085990Y1411854D02*
X1085015Y1411854D01*
X1085015Y1411854D02*
X1084528Y1411611D01*
X1084528Y1411611D02*
X1084284Y1411367D01*
X1084284Y1411367D02*
X1084040Y1410880D01*
D10*
D11*
X1280647Y1413804D02*
X1284059Y1413804D01*
X1284059Y1413804D02*
X1281866Y1408686D01*
D10*
D11*
X1478716Y1411611D02*
X1478229Y1411854D01*
X1478229Y1411854D02*
X1477985Y1412098D01*
X1477985Y1412098D02*
X1477741Y1412586D01*
X1477741Y1412586D02*
X1477741Y1412829D01*
X1477741Y1412829D02*
X1477985Y1413317D01*
X1477985Y1413317D02*
X1478229Y1413561D01*
X1478229Y1413561D02*
X1478716Y1413804D01*
X1478716Y1413804D02*
X1479691Y1413804D01*
X1479691Y1413804D02*
X1480178Y1413561D01*
X1480178Y1413561D02*
X1480422Y1413317D01*
X1480422Y1413317D02*
X1480666Y1412829D01*
X1480666Y1412829D02*
X1480666Y1412586D01*
X1480666Y1412586D02*
X1480422Y1412098D01*
X1480422Y1412098D02*
X1480178Y1411854D01*
X1480178Y1411854D02*
X1479691Y1411611D01*
X1479691Y1411611D02*
X1478716Y1411611D01*
X1478716Y1411611D02*
X1478229Y1411367D01*
X1478229Y1411367D02*
X1477985Y1411123D01*
X1477985Y1411123D02*
X1477741Y1410636D01*
X1477741Y1410636D02*
X1477741Y1409661D01*
X1477741Y1409661D02*
X1477985Y1409174D01*
X1477985Y1409174D02*
X1478229Y1408930D01*
X1478229Y1408930D02*
X1478716Y1408686D01*
X1478716Y1408686D02*
X1479691Y1408686D01*
X1479691Y1408686D02*
X1480178Y1408930D01*
X1480178Y1408930D02*
X1480422Y1409174D01*
X1480422Y1409174D02*
X1480666Y1409661D01*
X1480666Y1409661D02*
X1480666Y1410636D01*
X1480666Y1410636D02*
X1480422Y1411123D01*
X1480422Y1411123D02*
X1480178Y1411367D01*
X1480178Y1411367D02*
X1479691Y1411611D01*
D10*
D11*
X0196850Y0007874D02*
X0196850Y0000000D01*
D10*
D11*
X0393701Y0007874D02*
X0393701Y0000000D01*
D10*
D11*
X0590551Y0007874D02*
X0590551Y0000000D01*
D10*
D11*
X0787401Y0007874D02*
X0787401Y0000000D01*
D10*
D11*
X0984252Y0007874D02*
X0984252Y0000000D01*
D10*
D11*
X1181102Y0007874D02*
X1181102Y0000000D01*
D10*
D11*
X1377953Y0007874D02*
X1377953Y0000000D01*
D10*
D11*
X1574803Y0007874D02*
X1574803Y0000000D01*
D10*
D11*
X0102713Y0001600D02*
X0099788Y0001600D01*
X0101251Y0001600D02*
X0101251Y0006718D01*
X0101251Y0006718D02*
X0100763Y0005986D01*
X0100763Y0005986D02*
X0100276Y0005499D01*
X0100276Y0005499D02*
X0099788Y0005255D01*
D10*
D11*
X0296639Y0006230D02*
X0296883Y0006474D01*
X0296883Y0006474D02*
X0297370Y0006718D01*
X0297370Y0006718D02*
X0298589Y0006718D01*
X0298589Y0006718D02*
X0299076Y0006474D01*
X0299076Y0006474D02*
X0299320Y0006230D01*
X0299320Y0006230D02*
X0299563Y0005743D01*
X0299563Y0005743D02*
X0299563Y0005255D01*
X0299563Y0005255D02*
X0299320Y0004524D01*
X0299320Y0004524D02*
X0296395Y0001600D01*
X0296395Y0001600D02*
X0299563Y0001600D01*
D10*
D11*
X0493245Y0006718D02*
X0496414Y0006718D01*
X0496414Y0006718D02*
X0494708Y0004768D01*
X0494708Y0004768D02*
X0495439Y0004768D01*
X0495439Y0004768D02*
X0495926Y0004524D01*
X0495926Y0004524D02*
X0496170Y0004280D01*
X0496170Y0004280D02*
X0496414Y0003793D01*
X0496414Y0003793D02*
X0496414Y0002574D01*
X0496414Y0002574D02*
X0496170Y0002087D01*
X0496170Y0002087D02*
X0495926Y0001843D01*
X0495926Y0001843D02*
X0495439Y0001600D01*
X0495439Y0001600D02*
X0493977Y0001600D01*
X0493977Y0001600D02*
X0493489Y0001843D01*
X0493489Y0001843D02*
X0493245Y0002087D01*
D10*
D11*
X0692777Y0005012D02*
X0692777Y0001600D01*
X0691558Y0006961D02*
X0690340Y0003306D01*
X0690340Y0003306D02*
X0693508Y0003306D01*
D10*
D11*
X0889871Y0006718D02*
X0887434Y0006718D01*
X0887434Y0006718D02*
X0887190Y0004280D01*
X0887190Y0004280D02*
X0887434Y0004524D01*
X0887434Y0004524D02*
X0887921Y0004768D01*
X0887921Y0004768D02*
X0889140Y0004768D01*
X0889140Y0004768D02*
X0889627Y0004524D01*
X0889627Y0004524D02*
X0889871Y0004280D01*
X0889871Y0004280D02*
X0890115Y0003793D01*
X0890115Y0003793D02*
X0890115Y0002574D01*
X0890115Y0002574D02*
X0889871Y0002087D01*
X0889871Y0002087D02*
X0889627Y0001843D01*
X0889627Y0001843D02*
X0889140Y0001600D01*
X0889140Y0001600D02*
X0887921Y0001600D01*
X0887921Y0001600D02*
X0887434Y0001843D01*
X0887434Y0001843D02*
X0887190Y0002087D01*
D10*
D11*
X1086478Y0006718D02*
X1085503Y0006718D01*
X1085503Y0006718D02*
X1085015Y0006474D01*
X1085015Y0006474D02*
X1084772Y0006230D01*
X1084772Y0006230D02*
X1084284Y0005499D01*
X1084284Y0005499D02*
X1084040Y0004524D01*
X1084040Y0004524D02*
X1084040Y0002574D01*
X1084040Y0002574D02*
X1084284Y0002087D01*
X1084284Y0002087D02*
X1084528Y0001843D01*
X1084528Y0001843D02*
X1085015Y0001600D01*
X1085015Y0001600D02*
X1085990Y0001600D01*
X1085990Y0001600D02*
X1086478Y0001843D01*
X1086478Y0001843D02*
X1086721Y0002087D01*
X1086721Y0002087D02*
X1086965Y0002574D01*
X1086965Y0002574D02*
X1086965Y0003793D01*
X1086965Y0003793D02*
X1086721Y0004280D01*
X1086721Y0004280D02*
X1086478Y0004524D01*
X1086478Y0004524D02*
X1085990Y0004768D01*
X1085990Y0004768D02*
X1085015Y0004768D01*
X1085015Y0004768D02*
X1084528Y0004524D01*
X1084528Y0004524D02*
X1084284Y0004280D01*
X1084284Y0004280D02*
X1084040Y0003793D01*
D10*
D11*
X1280647Y0006718D02*
X1284059Y0006718D01*
X1284059Y0006718D02*
X1281866Y0001600D01*
D10*
D11*
X1478716Y0004524D02*
X1478229Y0004768D01*
X1478229Y0004768D02*
X1477985Y0005012D01*
X1477985Y0005012D02*
X1477741Y0005499D01*
X1477741Y0005499D02*
X1477741Y0005743D01*
X1477741Y0005743D02*
X1477985Y0006230D01*
X1477985Y0006230D02*
X1478229Y0006474D01*
X1478229Y0006474D02*
X1478716Y0006718D01*
X1478716Y0006718D02*
X1479691Y0006718D01*
X1479691Y0006718D02*
X1480178Y0006474D01*
X1480178Y0006474D02*
X1480422Y0006230D01*
X1480422Y0006230D02*
X1480666Y0005743D01*
X1480666Y0005743D02*
X1480666Y0005499D01*
X1480666Y0005499D02*
X1480422Y0005012D01*
X1480422Y0005012D02*
X1480178Y0004768D01*
X1480178Y0004768D02*
X1479691Y0004524D01*
X1479691Y0004524D02*
X1478716Y0004524D01*
X1478716Y0004524D02*
X1478229Y0004280D01*
X1478229Y0004280D02*
X1477985Y0004037D01*
X1477985Y0004037D02*
X1477741Y0003549D01*
X1477741Y0003549D02*
X1477741Y0002574D01*
X1477741Y0002574D02*
X1477985Y0002087D01*
X1477985Y0002087D02*
X1478229Y0001843D01*
X1478229Y0001843D02*
X1478716Y0001600D01*
X1478716Y0001600D02*
X1479691Y0001600D01*
X1479691Y0001600D02*
X1480178Y0001843D01*
X1480178Y0001843D02*
X1480422Y0002087D01*
X1480422Y0002087D02*
X1480666Y0002574D01*
X1480666Y0002574D02*
X1480666Y0003549D01*
X1480666Y0003549D02*
X1480422Y0004037D01*
X1480422Y0004037D02*
X1480178Y0004280D01*
X1480178Y0004280D02*
X1479691Y0004524D01*
D10*
D11*
X0000000Y1218110D02*
X0007874Y1218110D01*
D10*
D11*
X0000000Y1021259D02*
X0007874Y1021259D01*
D10*
D11*
X0000000Y0824409D02*
X0007874Y0824409D01*
D10*
D11*
X0000000Y0627559D02*
X0007874Y0627559D01*
D10*
D11*
X0000000Y0430708D02*
X0007874Y0430708D01*
D10*
D11*
X0000000Y0233858D02*
X0007874Y0233858D01*
D10*
D11*
X0000000Y0037007D02*
X0007874Y0037007D01*
D10*
D11*
X0002718Y1315660D02*
X0005155Y1315660D01*
X0002231Y1314198D02*
X0003937Y1319316D01*
X0003937Y1319316D02*
X0005643Y1314198D01*
D10*
D11*
X0004302Y1120028D02*
X0005034Y1119785D01*
X0005034Y1119785D02*
X0005277Y1119541D01*
X0005277Y1119541D02*
X0005521Y1119054D01*
X0005521Y1119054D02*
X0005521Y1118322D01*
X0005521Y1118322D02*
X0005277Y1117835D01*
X0005277Y1117835D02*
X0005034Y1117591D01*
X0005034Y1117591D02*
X0004546Y1117348D01*
X0004546Y1117348D02*
X0002596Y1117348D01*
X0002596Y1117348D02*
X0002596Y1122466D01*
X0002596Y1122466D02*
X0004302Y1122466D01*
X0004302Y1122466D02*
X0004790Y1122222D01*
X0004790Y1122222D02*
X0005034Y1121978D01*
X0005034Y1121978D02*
X0005277Y1121491D01*
X0005277Y1121491D02*
X0005277Y1121003D01*
X0005277Y1121003D02*
X0005034Y1120516D01*
X0005034Y1120516D02*
X0004790Y1120272D01*
X0004790Y1120272D02*
X0004302Y1120028D01*
X0004302Y1120028D02*
X0002596Y1120028D01*
D10*
D11*
X0005521Y0920985D02*
X0005277Y0920741D01*
X0005277Y0920741D02*
X0004546Y0920497D01*
X0004546Y0920497D02*
X0004059Y0920497D01*
X0004059Y0920497D02*
X0003328Y0920741D01*
X0003328Y0920741D02*
X0002840Y0921228D01*
X0002840Y0921228D02*
X0002596Y0921716D01*
X0002596Y0921716D02*
X0002353Y0922691D01*
X0002353Y0922691D02*
X0002353Y0923422D01*
X0002353Y0923422D02*
X0002596Y0924397D01*
X0002596Y0924397D02*
X0002840Y0924884D01*
X0002840Y0924884D02*
X0003328Y0925372D01*
X0003328Y0925372D02*
X0004059Y0925615D01*
X0004059Y0925615D02*
X0004546Y0925615D01*
X0004546Y0925615D02*
X0005277Y0925372D01*
X0005277Y0925372D02*
X0005521Y0925128D01*
D10*
D11*
X0002596Y0723647D02*
X0002596Y0728765D01*
X0002596Y0728765D02*
X0003815Y0728765D01*
X0003815Y0728765D02*
X0004546Y0728521D01*
X0004546Y0728521D02*
X0005034Y0728034D01*
X0005034Y0728034D02*
X0005277Y0727546D01*
X0005277Y0727546D02*
X0005521Y0726571D01*
X0005521Y0726571D02*
X0005521Y0725840D01*
X0005521Y0725840D02*
X0005277Y0724865D01*
X0005277Y0724865D02*
X0005034Y0724378D01*
X0005034Y0724378D02*
X0004546Y0723890D01*
X0004546Y0723890D02*
X0003815Y0723647D01*
X0003815Y0723647D02*
X0002596Y0723647D01*
D10*
D11*
X0002840Y0529477D02*
X0004546Y0529477D01*
X0005277Y0526796D02*
X0002840Y0526796D01*
X0002840Y0526796D02*
X0002840Y0531914D01*
X0002840Y0531914D02*
X0005277Y0531914D01*
D10*
D11*
X0004668Y0332627D02*
X0002962Y0332627D01*
X0002962Y0329946D02*
X0002962Y0335064D01*
X0002962Y0335064D02*
X0005399Y0335064D01*
D10*
D11*
X0005277Y0137970D02*
X0004790Y0138214D01*
X0004790Y0138214D02*
X0004059Y0138214D01*
X0004059Y0138214D02*
X0003328Y0137970D01*
X0003328Y0137970D02*
X0002840Y0137483D01*
X0002840Y0137483D02*
X0002596Y0136995D01*
X0002596Y0136995D02*
X0002353Y0136020D01*
X0002353Y0136020D02*
X0002353Y0135289D01*
X0002353Y0135289D02*
X0002596Y0134314D01*
X0002596Y0134314D02*
X0002840Y0133827D01*
X0002840Y0133827D02*
X0003328Y0133339D01*
X0003328Y0133339D02*
X0004059Y0133096D01*
X0004059Y0133096D02*
X0004546Y0133096D01*
X0004546Y0133096D02*
X0005277Y0133339D01*
X0005277Y0133339D02*
X0005521Y0133583D01*
X0005521Y0133583D02*
X0005521Y0135289D01*
X0005521Y0135289D02*
X0004546Y0135289D01*
D10*
D11*
X1621260Y1218110D02*
X1613386Y1218110D01*
D10*
D11*
X1621260Y1021259D02*
X1613386Y1021259D01*
D10*
D11*
X1621260Y0824409D02*
X1613386Y0824409D01*
D10*
D11*
X1621260Y0627559D02*
X1613386Y0627559D01*
D10*
D11*
X1621260Y0430708D02*
X1613386Y0430708D01*
D10*
D11*
X1621260Y0233858D02*
X1613386Y0233858D01*
D10*
D11*
X1621260Y0037007D02*
X1613386Y0037007D01*
D10*
D11*
X1616104Y1315660D02*
X1618541Y1315660D01*
X1615617Y1314198D02*
X1617323Y1319316D01*
X1617323Y1319316D02*
X1619029Y1314198D01*
D10*
D11*
X1617688Y1120028D02*
X1618419Y1119785D01*
X1618419Y1119785D02*
X1618663Y1119541D01*
X1618663Y1119541D02*
X1618907Y1119054D01*
X1618907Y1119054D02*
X1618907Y1118322D01*
X1618907Y1118322D02*
X1618663Y1117835D01*
X1618663Y1117835D02*
X1618419Y1117591D01*
X1618419Y1117591D02*
X1617932Y1117348D01*
X1617932Y1117348D02*
X1615982Y1117348D01*
X1615982Y1117348D02*
X1615982Y1122466D01*
X1615982Y1122466D02*
X1617688Y1122466D01*
X1617688Y1122466D02*
X1618176Y1122222D01*
X1618176Y1122222D02*
X1618419Y1121978D01*
X1618419Y1121978D02*
X1618663Y1121491D01*
X1618663Y1121491D02*
X1618663Y1121003D01*
X1618663Y1121003D02*
X1618419Y1120516D01*
X1618419Y1120516D02*
X1618176Y1120272D01*
X1618176Y1120272D02*
X1617688Y1120028D01*
X1617688Y1120028D02*
X1615982Y1120028D01*
D10*
D11*
X1618907Y0920985D02*
X1618663Y0920741D01*
X1618663Y0920741D02*
X1617932Y0920497D01*
X1617932Y0920497D02*
X1617445Y0920497D01*
X1617445Y0920497D02*
X1616713Y0920741D01*
X1616713Y0920741D02*
X1616226Y0921228D01*
X1616226Y0921228D02*
X1615982Y0921716D01*
X1615982Y0921716D02*
X1615738Y0922691D01*
X1615738Y0922691D02*
X1615738Y0923422D01*
X1615738Y0923422D02*
X1615982Y0924397D01*
X1615982Y0924397D02*
X1616226Y0924884D01*
X1616226Y0924884D02*
X1616713Y0925372D01*
X1616713Y0925372D02*
X1617445Y0925615D01*
X1617445Y0925615D02*
X1617932Y0925615D01*
X1617932Y0925615D02*
X1618663Y0925372D01*
X1618663Y0925372D02*
X1618907Y0925128D01*
D10*
D11*
X1615982Y0723647D02*
X1615982Y0728765D01*
X1615982Y0728765D02*
X1617201Y0728765D01*
X1617201Y0728765D02*
X1617932Y0728521D01*
X1617932Y0728521D02*
X1618419Y0728034D01*
X1618419Y0728034D02*
X1618663Y0727546D01*
X1618663Y0727546D02*
X1618907Y0726571D01*
X1618907Y0726571D02*
X1618907Y0725840D01*
X1618907Y0725840D02*
X1618663Y0724865D01*
X1618663Y0724865D02*
X1618419Y0724378D01*
X1618419Y0724378D02*
X1617932Y0723890D01*
X1617932Y0723890D02*
X1617201Y0723647D01*
X1617201Y0723647D02*
X1615982Y0723647D01*
D10*
D11*
X1616226Y0529477D02*
X1617932Y0529477D01*
X1618663Y0526796D02*
X1616226Y0526796D01*
X1616226Y0526796D02*
X1616226Y0531914D01*
X1616226Y0531914D02*
X1618663Y0531914D01*
D10*
D11*
X1618054Y0332627D02*
X1616348Y0332627D01*
X1616348Y0329946D02*
X1616348Y0335064D01*
X1616348Y0335064D02*
X1618785Y0335064D01*
D10*
D11*
X1618663Y0137970D02*
X1618176Y0138214D01*
X1618176Y0138214D02*
X1617445Y0138214D01*
X1617445Y0138214D02*
X1616713Y0137970D01*
X1616713Y0137970D02*
X1616226Y0137483D01*
X1616226Y0137483D02*
X1615982Y0136995D01*
X1615982Y0136995D02*
X1615738Y0136020D01*
X1615738Y0136020D02*
X1615738Y0135289D01*
X1615738Y0135289D02*
X1615982Y0134314D01*
X1615982Y0134314D02*
X1616226Y0133827D01*
X1616226Y0133827D02*
X1616713Y0133339D01*
X1616713Y0133339D02*
X1617445Y0133096D01*
X1617445Y0133096D02*
X1617932Y0133096D01*
X1617932Y0133096D02*
X1618663Y0133339D01*
X1618663Y0133339D02*
X1618907Y0133583D01*
X1618907Y0133583D02*
X1618907Y0135289D01*
X1618907Y0135289D02*
X1617932Y0135289D01*
D10*
D11*
X1280535Y0024464D02*
X1280535Y0030369D01*
X1280535Y0030369D02*
X1281941Y0030369D01*
X1281941Y0030369D02*
X1282784Y0030088D01*
X1282784Y0030088D02*
X1283347Y0029525D01*
X1283347Y0029525D02*
X1283628Y0028963D01*
X1283628Y0028963D02*
X1283909Y0027838D01*
X1283909Y0027838D02*
X1283909Y0026995D01*
X1283909Y0026995D02*
X1283628Y0025870D01*
X1283628Y0025870D02*
X1283347Y0025307D01*
X1283347Y0025307D02*
X1282784Y0024745D01*
X1282784Y0024745D02*
X1281941Y0024464D01*
X1281941Y0024464D02*
X1280535Y0024464D01*
X1288971Y0024464D02*
X1288971Y0027557D01*
X1288971Y0027557D02*
X1288690Y0028119D01*
X1288690Y0028119D02*
X1288127Y0028401D01*
X1288127Y0028401D02*
X1287003Y0028401D01*
X1287003Y0028401D02*
X1286440Y0028119D01*
X1288971Y0024745D02*
X1288409Y0024464D01*
X1288409Y0024464D02*
X1287003Y0024464D01*
X1287003Y0024464D02*
X1286440Y0024745D01*
X1286440Y0024745D02*
X1286159Y0025307D01*
X1286159Y0025307D02*
X1286159Y0025870D01*
X1286159Y0025870D02*
X1286440Y0026432D01*
X1286440Y0026432D02*
X1287003Y0026713D01*
X1287003Y0026713D02*
X1288409Y0026713D01*
X1288409Y0026713D02*
X1288971Y0026995D01*
X1290940Y0028401D02*
X1293189Y0028401D01*
X1291783Y0030369D02*
X1291783Y0025307D01*
X1291783Y0025307D02*
X1292064Y0024745D01*
X1292064Y0024745D02*
X1292627Y0024464D01*
X1292627Y0024464D02*
X1293189Y0024464D01*
X1297407Y0024745D02*
X1296845Y0024464D01*
X1296845Y0024464D02*
X1295720Y0024464D01*
X1295720Y0024464D02*
X1295158Y0024745D01*
X1295158Y0024745D02*
X1294877Y0025307D01*
X1294877Y0025307D02*
X1294877Y0027557D01*
X1294877Y0027557D02*
X1295158Y0028119D01*
X1295158Y0028119D02*
X1295720Y0028401D01*
X1295720Y0028401D02*
X1296845Y0028401D01*
X1296845Y0028401D02*
X1297407Y0028119D01*
X1297407Y0028119D02*
X1297689Y0027557D01*
X1297689Y0027557D02*
X1297689Y0026995D01*
X1297689Y0026995D02*
X1294877Y0026432D01*
X1300220Y0025026D02*
X1300501Y0024745D01*
X1300501Y0024745D02*
X1300220Y0024464D01*
X1300220Y0024464D02*
X1299938Y0024745D01*
X1299938Y0024745D02*
X1300220Y0025026D01*
X1300220Y0025026D02*
X1300220Y0024464D01*
X1300220Y0028119D02*
X1300501Y0027838D01*
X1300501Y0027838D02*
X1300220Y0027557D01*
X1300220Y0027557D02*
X1299938Y0027838D01*
X1299938Y0027838D02*
X1300220Y0028119D01*
X1300220Y0028119D02*
X1300220Y0027557D01*
X1307250Y0029807D02*
X1307531Y0030088D01*
X1307531Y0030088D02*
X1308094Y0030369D01*
X1308094Y0030369D02*
X1309500Y0030369D01*
X1309500Y0030369D02*
X1310062Y0030088D01*
X1310062Y0030088D02*
X1310343Y0029807D01*
X1310343Y0029807D02*
X1310625Y0029244D01*
X1310625Y0029244D02*
X1310625Y0028682D01*
X1310625Y0028682D02*
X1310343Y0027838D01*
X1310343Y0027838D02*
X1306969Y0024464D01*
X1306969Y0024464D02*
X1310625Y0024464D01*
X1314280Y0030369D02*
X1314843Y0030369D01*
X1314843Y0030369D02*
X1315405Y0030088D01*
X1315405Y0030088D02*
X1315686Y0029807D01*
X1315686Y0029807D02*
X1315968Y0029244D01*
X1315968Y0029244D02*
X1316249Y0028119D01*
X1316249Y0028119D02*
X1316249Y0026713D01*
X1316249Y0026713D02*
X1315968Y0025588D01*
X1315968Y0025588D02*
X1315686Y0025026D01*
X1315686Y0025026D02*
X1315405Y0024745D01*
X1315405Y0024745D02*
X1314843Y0024464D01*
X1314843Y0024464D02*
X1314280Y0024464D01*
X1314280Y0024464D02*
X1313718Y0024745D01*
X1313718Y0024745D02*
X1313437Y0025026D01*
X1313437Y0025026D02*
X1313155Y0025588D01*
X1313155Y0025588D02*
X1312874Y0026713D01*
X1312874Y0026713D02*
X1312874Y0028119D01*
X1312874Y0028119D02*
X1313155Y0029244D01*
X1313155Y0029244D02*
X1313437Y0029807D01*
X1313437Y0029807D02*
X1313718Y0030088D01*
X1313718Y0030088D02*
X1314280Y0030369D01*
X1318499Y0029807D02*
X1318780Y0030088D01*
X1318780Y0030088D02*
X1319342Y0030369D01*
X1319342Y0030369D02*
X1320748Y0030369D01*
X1320748Y0030369D02*
X1321311Y0030088D01*
X1321311Y0030088D02*
X1321592Y0029807D01*
X1321592Y0029807D02*
X1321873Y0029244D01*
X1321873Y0029244D02*
X1321873Y0028682D01*
X1321873Y0028682D02*
X1321592Y0027838D01*
X1321592Y0027838D02*
X1318217Y0024464D01*
X1318217Y0024464D02*
X1321873Y0024464D01*
X1324123Y0029807D02*
X1324404Y0030088D01*
X1324404Y0030088D02*
X1324967Y0030369D01*
X1324967Y0030369D02*
X1326373Y0030369D01*
X1326373Y0030369D02*
X1326935Y0030088D01*
X1326935Y0030088D02*
X1327216Y0029807D01*
X1327216Y0029807D02*
X1327497Y0029244D01*
X1327497Y0029244D02*
X1327497Y0028682D01*
X1327497Y0028682D02*
X1327216Y0027838D01*
X1327216Y0027838D02*
X1323842Y0024464D01*
X1323842Y0024464D02*
X1327497Y0024464D01*
X1330028Y0026713D02*
X1334528Y0026713D01*
X1340433Y0024464D02*
X1337059Y0024464D01*
X1338746Y0024464D02*
X1338746Y0030369D01*
X1338746Y0030369D02*
X1338184Y0029525D01*
X1338184Y0029525D02*
X1337621Y0028963D01*
X1337621Y0028963D02*
X1337059Y0028682D01*
X1344089Y0030369D02*
X1344652Y0030369D01*
X1344652Y0030369D02*
X1345214Y0030088D01*
X1345214Y0030088D02*
X1345495Y0029807D01*
X1345495Y0029807D02*
X1345776Y0029244D01*
X1345776Y0029244D02*
X1346058Y0028119D01*
X1346058Y0028119D02*
X1346058Y0026713D01*
X1346058Y0026713D02*
X1345776Y0025588D01*
X1345776Y0025588D02*
X1345495Y0025026D01*
X1345495Y0025026D02*
X1345214Y0024745D01*
X1345214Y0024745D02*
X1344652Y0024464D01*
X1344652Y0024464D02*
X1344089Y0024464D01*
X1344089Y0024464D02*
X1343527Y0024745D01*
X1343527Y0024745D02*
X1343245Y0025026D01*
X1343245Y0025026D02*
X1342964Y0025588D01*
X1342964Y0025588D02*
X1342683Y0026713D01*
X1342683Y0026713D02*
X1342683Y0028119D01*
X1342683Y0028119D02*
X1342964Y0029244D01*
X1342964Y0029244D02*
X1343245Y0029807D01*
X1343245Y0029807D02*
X1343527Y0030088D01*
X1343527Y0030088D02*
X1344089Y0030369D01*
X1348589Y0026713D02*
X1353088Y0026713D01*
X1358994Y0024464D02*
X1355619Y0024464D01*
X1357306Y0024464D02*
X1357306Y0030369D01*
X1357306Y0030369D02*
X1356744Y0029525D01*
X1356744Y0029525D02*
X1356181Y0028963D01*
X1356181Y0028963D02*
X1355619Y0028682D01*
X1364055Y0028401D02*
X1364055Y0024464D01*
X1362649Y0030650D02*
X1361243Y0026432D01*
X1361243Y0026432D02*
X1364899Y0026432D01*
D10*
D11*
X1188189Y0021653D02*
X1613386Y0021653D01*
D10*
D11*
X1193920Y0013440D02*
X1193920Y0019345D01*
X1197295Y0013440D02*
X1194764Y0016815D01*
X1197295Y0019345D02*
X1193920Y0015971D01*
X1199826Y0013440D02*
X1199826Y0017377D01*
X1199826Y0019345D02*
X1199545Y0019064D01*
X1199545Y0019064D02*
X1199826Y0018783D01*
X1199826Y0018783D02*
X1200107Y0019064D01*
X1200107Y0019064D02*
X1199826Y0019345D01*
X1199826Y0019345D02*
X1199826Y0018783D01*
X1206013Y0014002D02*
X1205731Y0013721D01*
X1205731Y0013721D02*
X1204888Y0013440D01*
X1204888Y0013440D02*
X1204325Y0013440D01*
X1204325Y0013440D02*
X1203482Y0013721D01*
X1203482Y0013721D02*
X1202919Y0014284D01*
X1202919Y0014284D02*
X1202638Y0014846D01*
X1202638Y0014846D02*
X1202357Y0015971D01*
X1202357Y0015971D02*
X1202357Y0016815D01*
X1202357Y0016815D02*
X1202638Y0017939D01*
X1202638Y0017939D02*
X1202919Y0018502D01*
X1202919Y0018502D02*
X1203482Y0019064D01*
X1203482Y0019064D02*
X1204325Y0019345D01*
X1204325Y0019345D02*
X1204888Y0019345D01*
X1204888Y0019345D02*
X1205731Y0019064D01*
X1205731Y0019064D02*
X1206013Y0018783D01*
X1211075Y0013440D02*
X1211075Y0016533D01*
X1211075Y0016533D02*
X1210793Y0017096D01*
X1210793Y0017096D02*
X1210231Y0017377D01*
X1210231Y0017377D02*
X1209106Y0017377D01*
X1209106Y0017377D02*
X1208544Y0017096D01*
X1211075Y0013721D02*
X1210512Y0013440D01*
X1210512Y0013440D02*
X1209106Y0013440D01*
X1209106Y0013440D02*
X1208544Y0013721D01*
X1208544Y0013721D02*
X1208262Y0014284D01*
X1208262Y0014284D02*
X1208262Y0014846D01*
X1208262Y0014846D02*
X1208544Y0015408D01*
X1208544Y0015408D02*
X1209106Y0015690D01*
X1209106Y0015690D02*
X1210512Y0015690D01*
X1210512Y0015690D02*
X1211075Y0015971D01*
X1216418Y0013440D02*
X1216418Y0019345D01*
X1216418Y0013721D02*
X1215855Y0013440D01*
X1215855Y0013440D02*
X1214730Y0013440D01*
X1214730Y0013440D02*
X1214168Y0013721D01*
X1214168Y0013721D02*
X1213887Y0014002D01*
X1213887Y0014002D02*
X1213605Y0014565D01*
X1213605Y0014565D02*
X1213605Y0016252D01*
X1213605Y0016252D02*
X1213887Y0016815D01*
X1213887Y0016815D02*
X1214168Y0017096D01*
X1214168Y0017096D02*
X1214730Y0017377D01*
X1214730Y0017377D02*
X1215855Y0017377D01*
X1215855Y0017377D02*
X1216418Y0017096D01*
X1223729Y0016533D02*
X1225698Y0016533D01*
X1226541Y0013440D02*
X1223729Y0013440D01*
X1223729Y0013440D02*
X1223729Y0019345D01*
X1223729Y0019345D02*
X1226541Y0019345D01*
X1229072Y0014002D02*
X1229353Y0013721D01*
X1229353Y0013721D02*
X1229072Y0013440D01*
X1229072Y0013440D02*
X1228791Y0013721D01*
X1228791Y0013721D02*
X1229072Y0014002D01*
X1229072Y0014002D02*
X1229072Y0013440D01*
X1231884Y0013440D02*
X1231884Y0019345D01*
X1231884Y0019345D02*
X1233290Y0019345D01*
X1233290Y0019345D02*
X1234134Y0019064D01*
X1234134Y0019064D02*
X1234697Y0018502D01*
X1234697Y0018502D02*
X1234978Y0017939D01*
X1234978Y0017939D02*
X1235259Y0016815D01*
X1235259Y0016815D02*
X1235259Y0015971D01*
X1235259Y0015971D02*
X1234978Y0014846D01*
X1234978Y0014846D02*
X1234697Y0014284D01*
X1234697Y0014284D02*
X1234134Y0013721D01*
X1234134Y0013721D02*
X1233290Y0013440D01*
X1233290Y0013440D02*
X1231884Y0013440D01*
X1237790Y0014002D02*
X1238071Y0013721D01*
X1238071Y0013721D02*
X1237790Y0013440D01*
X1237790Y0013440D02*
X1237509Y0013721D01*
X1237509Y0013721D02*
X1237790Y0014002D01*
X1237790Y0014002D02*
X1237790Y0013440D01*
X1240321Y0015127D02*
X1243133Y0015127D01*
X1239758Y0013440D02*
X1241727Y0019345D01*
X1241727Y0019345D02*
X1243695Y0013440D01*
X1245664Y0014002D02*
X1245945Y0013721D01*
X1245945Y0013721D02*
X1245664Y0013440D01*
X1245664Y0013440D02*
X1245383Y0013721D01*
X1245383Y0013721D02*
X1245664Y0014002D01*
X1245664Y0014002D02*
X1245664Y0013440D01*
X1253819Y0016815D02*
X1253257Y0017096D01*
X1253257Y0017096D02*
X1252976Y0017377D01*
X1252976Y0017377D02*
X1252694Y0017939D01*
X1252694Y0017939D02*
X1252694Y0018221D01*
X1252694Y0018221D02*
X1252976Y0018783D01*
X1252976Y0018783D02*
X1253257Y0019064D01*
X1253257Y0019064D02*
X1253819Y0019345D01*
X1253819Y0019345D02*
X1254944Y0019345D01*
X1254944Y0019345D02*
X1255506Y0019064D01*
X1255506Y0019064D02*
X1255788Y0018783D01*
X1255788Y0018783D02*
X1256069Y0018221D01*
X1256069Y0018221D02*
X1256069Y0017939D01*
X1256069Y0017939D02*
X1255788Y0017377D01*
X1255788Y0017377D02*
X1255506Y0017096D01*
X1255506Y0017096D02*
X1254944Y0016815D01*
X1254944Y0016815D02*
X1253819Y0016815D01*
X1253819Y0016815D02*
X1253257Y0016533D01*
X1253257Y0016533D02*
X1252976Y0016252D01*
X1252976Y0016252D02*
X1252694Y0015690D01*
X1252694Y0015690D02*
X1252694Y0014565D01*
X1252694Y0014565D02*
X1252976Y0014002D01*
X1252976Y0014002D02*
X1253257Y0013721D01*
X1253257Y0013721D02*
X1253819Y0013440D01*
X1253819Y0013440D02*
X1254944Y0013440D01*
X1254944Y0013440D02*
X1255506Y0013721D01*
X1255506Y0013721D02*
X1255788Y0014002D01*
X1255788Y0014002D02*
X1256069Y0014565D01*
X1256069Y0014565D02*
X1256069Y0015690D01*
X1256069Y0015690D02*
X1255788Y0016252D01*
X1255788Y0016252D02*
X1255506Y0016533D01*
X1255506Y0016533D02*
X1254944Y0016815D01*
X1258600Y0014002D02*
X1258881Y0013721D01*
X1258881Y0013721D02*
X1258600Y0013440D01*
X1258600Y0013440D02*
X1258319Y0013721D01*
X1258319Y0013721D02*
X1258600Y0014002D01*
X1258600Y0014002D02*
X1258600Y0013440D01*
X1262537Y0019345D02*
X1263099Y0019345D01*
X1263099Y0019345D02*
X1263662Y0019064D01*
X1263662Y0019064D02*
X1263943Y0018783D01*
X1263943Y0018783D02*
X1264224Y0018221D01*
X1264224Y0018221D02*
X1264505Y0017096D01*
X1264505Y0017096D02*
X1264505Y0015690D01*
X1264505Y0015690D02*
X1264224Y0014565D01*
X1264224Y0014565D02*
X1263943Y0014002D01*
X1263943Y0014002D02*
X1263662Y0013721D01*
X1263662Y0013721D02*
X1263099Y0013440D01*
X1263099Y0013440D02*
X1262537Y0013440D01*
X1262537Y0013440D02*
X1261974Y0013721D01*
X1261974Y0013721D02*
X1261693Y0014002D01*
X1261693Y0014002D02*
X1261412Y0014565D01*
X1261412Y0014565D02*
X1261131Y0015690D01*
X1261131Y0015690D02*
X1261131Y0017096D01*
X1261131Y0017096D02*
X1261412Y0018221D01*
X1261412Y0018221D02*
X1261693Y0018783D01*
X1261693Y0018783D02*
X1261974Y0019064D01*
X1261974Y0019064D02*
X1262537Y0019345D01*
X1267036Y0014002D02*
X1267317Y0013721D01*
X1267317Y0013721D02*
X1267036Y0013440D01*
X1267036Y0013440D02*
X1266755Y0013721D01*
X1266755Y0013721D02*
X1267036Y0014002D01*
X1267036Y0014002D02*
X1267036Y0013440D01*
X1270692Y0016815D02*
X1270130Y0017096D01*
X1270130Y0017096D02*
X1269848Y0017377D01*
X1269848Y0017377D02*
X1269567Y0017939D01*
X1269567Y0017939D02*
X1269567Y0018221D01*
X1269567Y0018221D02*
X1269848Y0018783D01*
X1269848Y0018783D02*
X1270130Y0019064D01*
X1270130Y0019064D02*
X1270692Y0019345D01*
X1270692Y0019345D02*
X1271817Y0019345D01*
X1271817Y0019345D02*
X1272379Y0019064D01*
X1272379Y0019064D02*
X1272661Y0018783D01*
X1272661Y0018783D02*
X1272942Y0018221D01*
X1272942Y0018221D02*
X1272942Y0017939D01*
X1272942Y0017939D02*
X1272661Y0017377D01*
X1272661Y0017377D02*
X1272379Y0017096D01*
X1272379Y0017096D02*
X1271817Y0016815D01*
X1271817Y0016815D02*
X1270692Y0016815D01*
X1270692Y0016815D02*
X1270130Y0016533D01*
X1270130Y0016533D02*
X1269848Y0016252D01*
X1269848Y0016252D02*
X1269567Y0015690D01*
X1269567Y0015690D02*
X1269567Y0014565D01*
X1269567Y0014565D02*
X1269848Y0014002D01*
X1269848Y0014002D02*
X1270130Y0013721D01*
X1270130Y0013721D02*
X1270692Y0013440D01*
X1270692Y0013440D02*
X1271817Y0013440D01*
X1271817Y0013440D02*
X1272379Y0013721D01*
X1272379Y0013721D02*
X1272661Y0014002D01*
X1272661Y0014002D02*
X1272942Y0014565D01*
X1272942Y0014565D02*
X1272942Y0015690D01*
X1272942Y0015690D02*
X1272661Y0016252D01*
X1272661Y0016252D02*
X1272379Y0016533D01*
X1272379Y0016533D02*
X1271817Y0016815D01*
D10*
D11*
X1188189Y0033464D02*
X1613386Y0033464D01*
D10*
D12*
X1532329Y0024494D02*
X1530361Y0027306D01*
X1528955Y0024494D02*
X1528955Y0030400D01*
X1528955Y0030400D02*
X1531204Y0030400D01*
X1531204Y0030400D02*
X1531767Y0030119D01*
X1531767Y0030119D02*
X1532048Y0029837D01*
X1532048Y0029837D02*
X1532329Y0029275D01*
X1532329Y0029275D02*
X1532329Y0028431D01*
X1532329Y0028431D02*
X1532048Y0027869D01*
X1532048Y0027869D02*
X1531767Y0027588D01*
X1531767Y0027588D02*
X1531204Y0027306D01*
X1531204Y0027306D02*
X1528955Y0027306D01*
X1537110Y0024776D02*
X1536547Y0024494D01*
X1536547Y0024494D02*
X1535423Y0024494D01*
X1535423Y0024494D02*
X1534860Y0024776D01*
X1534860Y0024776D02*
X1534579Y0025338D01*
X1534579Y0025338D02*
X1534579Y0027588D01*
X1534579Y0027588D02*
X1534860Y0028150D01*
X1534860Y0028150D02*
X1535423Y0028431D01*
X1535423Y0028431D02*
X1536547Y0028431D01*
X1536547Y0028431D02*
X1537110Y0028150D01*
X1537110Y0028150D02*
X1537391Y0027588D01*
X1537391Y0027588D02*
X1537391Y0027025D01*
X1537391Y0027025D02*
X1534579Y0026463D01*
X1539360Y0028431D02*
X1540766Y0024494D01*
X1540766Y0024494D02*
X1542172Y0028431D01*
X1544421Y0025057D02*
X1544703Y0024776D01*
X1544703Y0024776D02*
X1544421Y0024494D01*
X1544421Y0024494D02*
X1544140Y0024776D01*
X1544140Y0024776D02*
X1544421Y0025057D01*
X1544421Y0025057D02*
X1544421Y0024494D01*
X1544421Y0028150D02*
X1544703Y0027869D01*
X1544703Y0027869D02*
X1544421Y0027588D01*
X1544421Y0027588D02*
X1544140Y0027869D01*
X1544140Y0027869D02*
X1544421Y0028150D01*
X1544421Y0028150D02*
X1544421Y0027588D01*
X1554264Y0024494D02*
X1554264Y0030400D01*
X1554264Y0024776D02*
X1553701Y0024494D01*
X1553701Y0024494D02*
X1552577Y0024494D01*
X1552577Y0024494D02*
X1552014Y0024776D01*
X1552014Y0024776D02*
X1551733Y0025057D01*
X1551733Y0025057D02*
X1551452Y0025619D01*
X1551452Y0025619D02*
X1551452Y0027306D01*
X1551452Y0027306D02*
X1551733Y0027869D01*
X1551733Y0027869D02*
X1552014Y0028150D01*
X1552014Y0028150D02*
X1552577Y0028431D01*
X1552577Y0028431D02*
X1553701Y0028431D01*
X1553701Y0028431D02*
X1554264Y0028150D01*
D10*
D11*
X1193639Y0024745D02*
X1194483Y0024464D01*
X1194483Y0024464D02*
X1195889Y0024464D01*
X1195889Y0024464D02*
X1196451Y0024745D01*
X1196451Y0024745D02*
X1196733Y0025026D01*
X1196733Y0025026D02*
X1197014Y0025588D01*
X1197014Y0025588D02*
X1197014Y0026151D01*
X1197014Y0026151D02*
X1196733Y0026713D01*
X1196733Y0026713D02*
X1196451Y0026995D01*
X1196451Y0026995D02*
X1195889Y0027276D01*
X1195889Y0027276D02*
X1194764Y0027557D01*
X1194764Y0027557D02*
X1194202Y0027838D01*
X1194202Y0027838D02*
X1193920Y0028119D01*
X1193920Y0028119D02*
X1193639Y0028682D01*
X1193639Y0028682D02*
X1193639Y0029244D01*
X1193639Y0029244D02*
X1193920Y0029807D01*
X1193920Y0029807D02*
X1194202Y0030088D01*
X1194202Y0030088D02*
X1194764Y0030369D01*
X1194764Y0030369D02*
X1196170Y0030369D01*
X1196170Y0030369D02*
X1197014Y0030088D01*
X1199545Y0024464D02*
X1199545Y0028401D01*
X1199545Y0030369D02*
X1199263Y0030088D01*
X1199263Y0030088D02*
X1199545Y0029807D01*
X1199545Y0029807D02*
X1199826Y0030088D01*
X1199826Y0030088D02*
X1199545Y0030369D01*
X1199545Y0030369D02*
X1199545Y0029807D01*
X1201794Y0028401D02*
X1204888Y0028401D01*
X1204888Y0028401D02*
X1201794Y0024464D01*
X1201794Y0024464D02*
X1204888Y0024464D01*
X1209387Y0024745D02*
X1208825Y0024464D01*
X1208825Y0024464D02*
X1207700Y0024464D01*
X1207700Y0024464D02*
X1207137Y0024745D01*
X1207137Y0024745D02*
X1206856Y0025307D01*
X1206856Y0025307D02*
X1206856Y0027557D01*
X1206856Y0027557D02*
X1207137Y0028119D01*
X1207137Y0028119D02*
X1207700Y0028401D01*
X1207700Y0028401D02*
X1208825Y0028401D01*
X1208825Y0028401D02*
X1209387Y0028119D01*
X1209387Y0028119D02*
X1209668Y0027557D01*
X1209668Y0027557D02*
X1209668Y0026995D01*
X1209668Y0026995D02*
X1206856Y0026432D01*
X1212199Y0025026D02*
X1212481Y0024745D01*
X1212481Y0024745D02*
X1212199Y0024464D01*
X1212199Y0024464D02*
X1211918Y0024745D01*
X1211918Y0024745D02*
X1212199Y0025026D01*
X1212199Y0025026D02*
X1212199Y0024464D01*
X1212199Y0028119D02*
X1212481Y0027838D01*
X1212481Y0027838D02*
X1212199Y0027557D01*
X1212199Y0027557D02*
X1211918Y0027838D01*
X1211918Y0027838D02*
X1212199Y0028119D01*
X1212199Y0028119D02*
X1212199Y0027557D01*
X1219511Y0030369D02*
X1219511Y0025588D01*
X1219511Y0025588D02*
X1219792Y0025026D01*
X1219792Y0025026D02*
X1220073Y0024745D01*
X1220073Y0024745D02*
X1220636Y0024464D01*
X1220636Y0024464D02*
X1221761Y0024464D01*
X1221761Y0024464D02*
X1222323Y0024745D01*
X1222323Y0024745D02*
X1222604Y0025026D01*
X1222604Y0025026D02*
X1222886Y0025588D01*
X1222886Y0025588D02*
X1222886Y0030369D01*
X1225416Y0024745D02*
X1225979Y0024464D01*
X1225979Y0024464D02*
X1227104Y0024464D01*
X1227104Y0024464D02*
X1227666Y0024745D01*
X1227666Y0024745D02*
X1227947Y0025307D01*
X1227947Y0025307D02*
X1227947Y0025588D01*
X1227947Y0025588D02*
X1227666Y0026151D01*
X1227666Y0026151D02*
X1227104Y0026432D01*
X1227104Y0026432D02*
X1226260Y0026432D01*
X1226260Y0026432D02*
X1225698Y0026713D01*
X1225698Y0026713D02*
X1225416Y0027276D01*
X1225416Y0027276D02*
X1225416Y0027557D01*
X1225416Y0027557D02*
X1225698Y0028119D01*
X1225698Y0028119D02*
X1226260Y0028401D01*
X1226260Y0028401D02*
X1227104Y0028401D01*
X1227104Y0028401D02*
X1227666Y0028119D01*
X1232728Y0024745D02*
X1232166Y0024464D01*
X1232166Y0024464D02*
X1231041Y0024464D01*
X1231041Y0024464D02*
X1230478Y0024745D01*
X1230478Y0024745D02*
X1230197Y0025307D01*
X1230197Y0025307D02*
X1230197Y0027557D01*
X1230197Y0027557D02*
X1230478Y0028119D01*
X1230478Y0028119D02*
X1231041Y0028401D01*
X1231041Y0028401D02*
X1232166Y0028401D01*
X1232166Y0028401D02*
X1232728Y0028119D01*
X1232728Y0028119D02*
X1233009Y0027557D01*
X1233009Y0027557D02*
X1233009Y0026995D01*
X1233009Y0026995D02*
X1230197Y0026432D01*
X1235540Y0024464D02*
X1235540Y0028401D01*
X1235540Y0027276D02*
X1235821Y0027838D01*
X1235821Y0027838D02*
X1236103Y0028119D01*
X1236103Y0028119D02*
X1236665Y0028401D01*
X1236665Y0028401D02*
X1237227Y0028401D01*
D10*
D11*
X1528566Y0013440D02*
X1528566Y0019345D01*
X1533909Y0013440D02*
X1533909Y0019345D01*
X1533909Y0013721D02*
X1533347Y0013440D01*
X1533347Y0013440D02*
X1532222Y0013440D01*
X1532222Y0013440D02*
X1531659Y0013721D01*
X1531659Y0013721D02*
X1531378Y0014002D01*
X1531378Y0014002D02*
X1531097Y0014565D01*
X1531097Y0014565D02*
X1531097Y0016252D01*
X1531097Y0016252D02*
X1531378Y0016815D01*
X1531378Y0016815D02*
X1531659Y0017096D01*
X1531659Y0017096D02*
X1532222Y0017377D01*
X1532222Y0017377D02*
X1533347Y0017377D01*
X1533347Y0017377D02*
X1533909Y0017096D01*
X1536721Y0014002D02*
X1537003Y0013721D01*
X1537003Y0013721D02*
X1536721Y0013440D01*
X1536721Y0013440D02*
X1536440Y0013721D01*
X1536440Y0013721D02*
X1536721Y0014002D01*
X1536721Y0014002D02*
X1536721Y0013440D01*
X1536721Y0017096D02*
X1537003Y0016815D01*
X1537003Y0016815D02*
X1536721Y0016533D01*
X1536721Y0016533D02*
X1536440Y0016815D01*
X1536440Y0016815D02*
X1536721Y0017096D01*
X1536721Y0017096D02*
X1536721Y0016533D01*
X1547126Y0013440D02*
X1543752Y0013440D01*
X1545439Y0013440D02*
X1545439Y0019345D01*
X1545439Y0019345D02*
X1544877Y0018502D01*
X1544877Y0018502D02*
X1544314Y0017939D01*
X1544314Y0017939D02*
X1543752Y0017658D01*
X1553875Y0019627D02*
X1548814Y0012034D01*
X1558937Y0013440D02*
X1555563Y0013440D01*
X1557250Y0013440D02*
X1557250Y0019345D01*
X1557250Y0019345D02*
X1556688Y0018502D01*
X1556688Y0018502D02*
X1556125Y0017939D01*
X1556125Y0017939D02*
X1555563Y0017658D01*
D10*
D11*
X1188189Y0049212D02*
X1613386Y0049212D01*
D10*
D13*
X1194849Y0046439D02*
X1199349Y0046439D01*
X1196115Y0038565D02*
X1197099Y0046439D01*
X1200989Y0038565D02*
X1201645Y0043814D01*
X1201973Y0046439D02*
X1201551Y0046064D01*
X1201551Y0046064D02*
X1201880Y0045689D01*
X1201880Y0045689D02*
X1202301Y0046064D01*
X1202301Y0046064D02*
X1201973Y0046439D01*
X1201973Y0046439D02*
X1201880Y0045689D01*
X1204270Y0043814D02*
X1207269Y0043814D01*
X1205723Y0046439D02*
X1204879Y0039690D01*
X1204879Y0039690D02*
X1205160Y0038940D01*
X1205160Y0038940D02*
X1205863Y0038565D01*
X1205863Y0038565D02*
X1206613Y0038565D01*
X1210363Y0038565D02*
X1209660Y0038940D01*
X1209660Y0038940D02*
X1209379Y0039690D01*
X1209379Y0039690D02*
X1210222Y0046439D01*
X1216409Y0038940D02*
X1215612Y0038565D01*
X1215612Y0038565D02*
X1214112Y0038565D01*
X1214112Y0038565D02*
X1213409Y0038940D01*
X1213409Y0038940D02*
X1213128Y0039690D01*
X1213128Y0039690D02*
X1213503Y0042689D01*
X1213503Y0042689D02*
X1213972Y0043439D01*
X1213972Y0043439D02*
X1214769Y0043814D01*
X1214769Y0043814D02*
X1216268Y0043814D01*
X1216268Y0043814D02*
X1216971Y0043439D01*
X1216971Y0043439D02*
X1217253Y0042689D01*
X1217253Y0042689D02*
X1217159Y0041939D01*
X1217159Y0041939D02*
X1213316Y0041189D01*
X1220205Y0039315D02*
X1220533Y0038940D01*
X1220533Y0038940D02*
X1220112Y0038565D01*
X1220112Y0038565D02*
X1219784Y0038940D01*
X1219784Y0038940D02*
X1220205Y0039315D01*
X1220205Y0039315D02*
X1220112Y0038565D01*
X1220721Y0043439D02*
X1221049Y0043064D01*
X1221049Y0043064D02*
X1220627Y0042689D01*
X1220627Y0042689D02*
X1220299Y0043064D01*
X1220299Y0043064D02*
X1220721Y0043439D01*
X1220721Y0043439D02*
X1220627Y0042689D01*
X1229860Y0038565D02*
X1230845Y0046439D01*
X1230376Y0042689D02*
X1234875Y0042689D01*
X1234360Y0038565D02*
X1235344Y0046439D01*
X1241156Y0038940D02*
X1240359Y0038565D01*
X1240359Y0038565D02*
X1238859Y0038565D01*
X1238859Y0038565D02*
X1238156Y0038940D01*
X1238156Y0038940D02*
X1237875Y0039690D01*
X1237875Y0039690D02*
X1238250Y0042689D01*
X1238250Y0042689D02*
X1238719Y0043439D01*
X1238719Y0043439D02*
X1239515Y0043814D01*
X1239515Y0043814D02*
X1241015Y0043814D01*
X1241015Y0043814D02*
X1241718Y0043439D01*
X1241718Y0043439D02*
X1241999Y0042689D01*
X1241999Y0042689D02*
X1241906Y0041939D01*
X1241906Y0041939D02*
X1238062Y0041189D01*
X1245983Y0038565D02*
X1245280Y0038940D01*
X1245280Y0038940D02*
X1244999Y0039690D01*
X1244999Y0039690D02*
X1245843Y0046439D01*
X1250108Y0038565D02*
X1249405Y0038940D01*
X1249405Y0038940D02*
X1249124Y0039690D01*
X1249124Y0039690D02*
X1249967Y0046439D01*
X1256154Y0038940D02*
X1255357Y0038565D01*
X1255357Y0038565D02*
X1253857Y0038565D01*
X1253857Y0038565D02*
X1253154Y0038940D01*
X1253154Y0038940D02*
X1252873Y0039690D01*
X1252873Y0039690D02*
X1253248Y0042689D01*
X1253248Y0042689D02*
X1253717Y0043439D01*
X1253717Y0043439D02*
X1254514Y0043814D01*
X1254514Y0043814D02*
X1256013Y0043814D01*
X1256013Y0043814D02*
X1256716Y0043439D01*
X1256716Y0043439D02*
X1256998Y0042689D01*
X1256998Y0042689D02*
X1256904Y0041939D01*
X1256904Y0041939D02*
X1253061Y0041189D01*
X1260513Y0043814D02*
X1259857Y0038565D01*
X1260419Y0043064D02*
X1260841Y0043439D01*
X1260841Y0043439D02*
X1261638Y0043814D01*
X1261638Y0043814D02*
X1262763Y0043814D01*
X1262763Y0043814D02*
X1263466Y0043439D01*
X1263466Y0043439D02*
X1263747Y0042689D01*
X1263747Y0042689D02*
X1263231Y0038565D01*
X1271105Y0038565D02*
X1266606Y0038565D01*
X1268856Y0038565D02*
X1269840Y0046439D01*
X1269840Y0046439D02*
X1268949Y0045314D01*
X1268949Y0045314D02*
X1268106Y0044564D01*
X1268106Y0044564D02*
X1267309Y0044189D01*
X1274995Y0045689D02*
X1275417Y0046064D01*
X1275417Y0046064D02*
X1276214Y0046439D01*
X1276214Y0046439D02*
X1278089Y0046439D01*
X1278089Y0046439D02*
X1278792Y0046064D01*
X1278792Y0046064D02*
X1279120Y0045689D01*
X1279120Y0045689D02*
X1279401Y0044939D01*
X1279401Y0044939D02*
X1279307Y0044189D01*
X1279307Y0044189D02*
X1278792Y0043064D01*
X1278792Y0043064D02*
X1273730Y0038565D01*
X1273730Y0038565D02*
X1278604Y0038565D01*
X1286103Y0038565D02*
X1281604Y0038565D01*
X1283854Y0038565D02*
X1284838Y0046439D01*
X1284838Y0046439D02*
X1283947Y0045314D01*
X1283947Y0045314D02*
X1283104Y0044564D01*
X1283104Y0044564D02*
X1282307Y0044189D01*
X1289384Y0043814D02*
X1290603Y0038565D01*
X1290603Y0038565D02*
X1293134Y0043814D01*
X1298852Y0038565D02*
X1299367Y0042689D01*
X1299367Y0042689D02*
X1299086Y0043439D01*
X1299086Y0043439D02*
X1298383Y0043814D01*
X1298383Y0043814D02*
X1296883Y0043814D01*
X1296883Y0043814D02*
X1296086Y0043439D01*
X1298899Y0038940D02*
X1298102Y0038565D01*
X1298102Y0038565D02*
X1296227Y0038565D01*
X1296227Y0038565D02*
X1295524Y0038940D01*
X1295524Y0038940D02*
X1295243Y0039690D01*
X1295243Y0039690D02*
X1295337Y0040440D01*
X1295337Y0040440D02*
X1295805Y0041189D01*
X1295805Y0041189D02*
X1296602Y0041564D01*
X1296602Y0041564D02*
X1298477Y0041564D01*
X1298477Y0041564D02*
X1299274Y0041939D01*
X1306632Y0043814D02*
X1305835Y0037440D01*
X1305835Y0037440D02*
X1305367Y0036690D01*
X1305367Y0036690D02*
X1304945Y0036315D01*
X1304945Y0036315D02*
X1304148Y0035940D01*
X1304148Y0035940D02*
X1303023Y0035940D01*
X1303023Y0035940D02*
X1302320Y0036315D01*
X1306023Y0038940D02*
X1305226Y0038565D01*
X1305226Y0038565D02*
X1303726Y0038565D01*
X1303726Y0038565D02*
X1303023Y0038940D01*
X1303023Y0038940D02*
X1302695Y0039315D01*
X1302695Y0039315D02*
X1302414Y0040065D01*
X1302414Y0040065D02*
X1302695Y0042314D01*
X1302695Y0042314D02*
X1303164Y0043064D01*
X1303164Y0043064D02*
X1303586Y0043439D01*
X1303586Y0043439D02*
X1304382Y0043814D01*
X1304382Y0043814D02*
X1305882Y0043814D01*
X1305882Y0043814D02*
X1306585Y0043439D01*
D10*
D11*
X1195889Y0056691D02*
X1193920Y0056691D01*
X1193920Y0053597D02*
X1193920Y0059503D01*
X1193920Y0059503D02*
X1196733Y0059503D01*
X1198982Y0053597D02*
X1198982Y0057534D01*
X1198982Y0059503D02*
X1198701Y0059222D01*
X1198701Y0059222D02*
X1198982Y0058941D01*
X1198982Y0058941D02*
X1199263Y0059222D01*
X1199263Y0059222D02*
X1198982Y0059503D01*
X1198982Y0059503D02*
X1198982Y0058941D01*
X1202638Y0053597D02*
X1202076Y0053879D01*
X1202076Y0053879D02*
X1201794Y0054441D01*
X1201794Y0054441D02*
X1201794Y0059503D01*
X1207137Y0053879D02*
X1206575Y0053597D01*
X1206575Y0053597D02*
X1205450Y0053597D01*
X1205450Y0053597D02*
X1204888Y0053879D01*
X1204888Y0053879D02*
X1204607Y0054441D01*
X1204607Y0054441D02*
X1204607Y0056691D01*
X1204607Y0056691D02*
X1204888Y0057253D01*
X1204888Y0057253D02*
X1205450Y0057534D01*
X1205450Y0057534D02*
X1206575Y0057534D01*
X1206575Y0057534D02*
X1207137Y0057253D01*
X1207137Y0057253D02*
X1207419Y0056691D01*
X1207419Y0056691D02*
X1207419Y0056128D01*
X1207419Y0056128D02*
X1204607Y0055566D01*
X1209950Y0054160D02*
X1210231Y0053879D01*
X1210231Y0053879D02*
X1209950Y0053597D01*
X1209950Y0053597D02*
X1209668Y0053879D01*
X1209668Y0053879D02*
X1209950Y0054160D01*
X1209950Y0054160D02*
X1209950Y0053597D01*
X1209950Y0057253D02*
X1210231Y0056972D01*
X1210231Y0056972D02*
X1209950Y0056691D01*
X1209950Y0056691D02*
X1209668Y0056972D01*
X1209668Y0056972D02*
X1209950Y0057253D01*
X1209950Y0057253D02*
X1209950Y0056691D01*
X1217261Y0053597D02*
X1217261Y0059503D01*
X1219792Y0053597D02*
X1219792Y0056691D01*
X1219792Y0056691D02*
X1219511Y0057253D01*
X1219511Y0057253D02*
X1218949Y0057534D01*
X1218949Y0057534D02*
X1218105Y0057534D01*
X1218105Y0057534D02*
X1217542Y0057253D01*
X1217542Y0057253D02*
X1217261Y0056972D01*
X1224854Y0053879D02*
X1224292Y0053597D01*
X1224292Y0053597D02*
X1223167Y0053597D01*
X1223167Y0053597D02*
X1222604Y0053879D01*
X1222604Y0053879D02*
X1222323Y0054441D01*
X1222323Y0054441D02*
X1222323Y0056691D01*
X1222323Y0056691D02*
X1222604Y0057253D01*
X1222604Y0057253D02*
X1223167Y0057534D01*
X1223167Y0057534D02*
X1224292Y0057534D01*
X1224292Y0057534D02*
X1224854Y0057253D01*
X1224854Y0057253D02*
X1225135Y0056691D01*
X1225135Y0056691D02*
X1225135Y0056128D01*
X1225135Y0056128D02*
X1222323Y0055566D01*
X1228510Y0053597D02*
X1227947Y0053879D01*
X1227947Y0053879D02*
X1227666Y0054441D01*
X1227666Y0054441D02*
X1227666Y0059503D01*
X1231603Y0053597D02*
X1231041Y0053879D01*
X1231041Y0053879D02*
X1230760Y0054441D01*
X1230760Y0054441D02*
X1230760Y0059503D01*
X1236103Y0053879D02*
X1235540Y0053597D01*
X1235540Y0053597D02*
X1234415Y0053597D01*
X1234415Y0053597D02*
X1233853Y0053879D01*
X1233853Y0053879D02*
X1233572Y0054441D01*
X1233572Y0054441D02*
X1233572Y0056691D01*
X1233572Y0056691D02*
X1233853Y0057253D01*
X1233853Y0057253D02*
X1234415Y0057534D01*
X1234415Y0057534D02*
X1235540Y0057534D01*
X1235540Y0057534D02*
X1236103Y0057253D01*
X1236103Y0057253D02*
X1236384Y0056691D01*
X1236384Y0056691D02*
X1236384Y0056128D01*
X1236384Y0056128D02*
X1233572Y0055566D01*
X1238915Y0057534D02*
X1238915Y0053597D01*
X1238915Y0056972D02*
X1239196Y0057253D01*
X1239196Y0057253D02*
X1239758Y0057534D01*
X1239758Y0057534D02*
X1240602Y0057534D01*
X1240602Y0057534D02*
X1241164Y0057253D01*
X1241164Y0057253D02*
X1241446Y0056691D01*
X1241446Y0056691D02*
X1241446Y0053597D01*
X1247351Y0053597D02*
X1243977Y0053597D01*
X1245664Y0053597D02*
X1245664Y0059503D01*
X1245664Y0059503D02*
X1245101Y0058659D01*
X1245101Y0058659D02*
X1244539Y0058097D01*
X1244539Y0058097D02*
X1243977Y0057816D01*
X1249601Y0058941D02*
X1249882Y0059222D01*
X1249882Y0059222D02*
X1250445Y0059503D01*
X1250445Y0059503D02*
X1251851Y0059503D01*
X1251851Y0059503D02*
X1252413Y0059222D01*
X1252413Y0059222D02*
X1252694Y0058941D01*
X1252694Y0058941D02*
X1252976Y0058378D01*
X1252976Y0058378D02*
X1252976Y0057816D01*
X1252976Y0057816D02*
X1252694Y0056972D01*
X1252694Y0056972D02*
X1249320Y0053597D01*
X1249320Y0053597D02*
X1252976Y0053597D01*
X1258600Y0053597D02*
X1255225Y0053597D01*
X1256913Y0053597D02*
X1256913Y0059503D01*
X1256913Y0059503D02*
X1256350Y0058659D01*
X1256350Y0058659D02*
X1255788Y0058097D01*
X1255788Y0058097D02*
X1255225Y0057816D01*
X1260568Y0057534D02*
X1261974Y0053597D01*
X1261974Y0053597D02*
X1263380Y0057534D01*
X1268161Y0053597D02*
X1268161Y0056691D01*
X1268161Y0056691D02*
X1267880Y0057253D01*
X1267880Y0057253D02*
X1267317Y0057534D01*
X1267317Y0057534D02*
X1266193Y0057534D01*
X1266193Y0057534D02*
X1265630Y0057253D01*
X1268161Y0053879D02*
X1267599Y0053597D01*
X1267599Y0053597D02*
X1266193Y0053597D01*
X1266193Y0053597D02*
X1265630Y0053879D01*
X1265630Y0053879D02*
X1265349Y0054441D01*
X1265349Y0054441D02*
X1265349Y0055004D01*
X1265349Y0055004D02*
X1265630Y0055566D01*
X1265630Y0055566D02*
X1266193Y0055847D01*
X1266193Y0055847D02*
X1267599Y0055847D01*
X1267599Y0055847D02*
X1268161Y0056128D01*
X1273504Y0057534D02*
X1273504Y0052754D01*
X1273504Y0052754D02*
X1273223Y0052191D01*
X1273223Y0052191D02*
X1272942Y0051910D01*
X1272942Y0051910D02*
X1272379Y0051629D01*
X1272379Y0051629D02*
X1271536Y0051629D01*
X1271536Y0051629D02*
X1270973Y0051910D01*
X1273504Y0053879D02*
X1272942Y0053597D01*
X1272942Y0053597D02*
X1271817Y0053597D01*
X1271817Y0053597D02*
X1271254Y0053879D01*
X1271254Y0053879D02*
X1270973Y0054160D01*
X1270973Y0054160D02*
X1270692Y0054722D01*
X1270692Y0054722D02*
X1270692Y0056410D01*
X1270692Y0056410D02*
X1270973Y0056972D01*
X1270973Y0056972D02*
X1271254Y0057253D01*
X1271254Y0057253D02*
X1271817Y0057534D01*
X1271817Y0057534D02*
X1272942Y0057534D01*
X1272942Y0057534D02*
X1273504Y0057253D01*
X1276316Y0054160D02*
X1276598Y0053879D01*
X1276598Y0053879D02*
X1276316Y0053597D01*
X1276316Y0053597D02*
X1276035Y0053879D01*
X1276035Y0053879D02*
X1276316Y0054160D01*
X1276316Y0054160D02*
X1276316Y0053597D01*
X1279128Y0053597D02*
X1279128Y0059503D01*
X1279691Y0055847D02*
X1281378Y0053597D01*
X1281378Y0057534D02*
X1279128Y0055285D01*
X1283909Y0053597D02*
X1283909Y0057534D01*
X1283909Y0059503D02*
X1283628Y0059222D01*
X1283628Y0059222D02*
X1283909Y0058941D01*
X1283909Y0058941D02*
X1284190Y0059222D01*
X1284190Y0059222D02*
X1283909Y0059503D01*
X1283909Y0059503D02*
X1283909Y0058941D01*
X1289252Y0053879D02*
X1288690Y0053597D01*
X1288690Y0053597D02*
X1287565Y0053597D01*
X1287565Y0053597D02*
X1287003Y0053879D01*
X1287003Y0053879D02*
X1286721Y0054160D01*
X1286721Y0054160D02*
X1286440Y0054722D01*
X1286440Y0054722D02*
X1286440Y0056410D01*
X1286440Y0056410D02*
X1286721Y0056972D01*
X1286721Y0056972D02*
X1287003Y0057253D01*
X1287003Y0057253D02*
X1287565Y0057534D01*
X1287565Y0057534D02*
X1288690Y0057534D01*
X1288690Y0057534D02*
X1289252Y0057253D01*
X1294314Y0053597D02*
X1294314Y0056691D01*
X1294314Y0056691D02*
X1294033Y0057253D01*
X1294033Y0057253D02*
X1293470Y0057534D01*
X1293470Y0057534D02*
X1292346Y0057534D01*
X1292346Y0057534D02*
X1291783Y0057253D01*
X1294314Y0053879D02*
X1293752Y0053597D01*
X1293752Y0053597D02*
X1292346Y0053597D01*
X1292346Y0053597D02*
X1291783Y0053879D01*
X1291783Y0053879D02*
X1291502Y0054441D01*
X1291502Y0054441D02*
X1291502Y0055004D01*
X1291502Y0055004D02*
X1291783Y0055566D01*
X1291783Y0055566D02*
X1292346Y0055847D01*
X1292346Y0055847D02*
X1293752Y0055847D01*
X1293752Y0055847D02*
X1294314Y0056128D01*
X1299657Y0053597D02*
X1299657Y0059503D01*
X1299657Y0053879D02*
X1299095Y0053597D01*
X1299095Y0053597D02*
X1297970Y0053597D01*
X1297970Y0053597D02*
X1297407Y0053879D01*
X1297407Y0053879D02*
X1297126Y0054160D01*
X1297126Y0054160D02*
X1296845Y0054722D01*
X1296845Y0054722D02*
X1296845Y0056410D01*
X1296845Y0056410D02*
X1297126Y0056972D01*
X1297126Y0056972D02*
X1297407Y0057253D01*
X1297407Y0057253D02*
X1297970Y0057534D01*
X1297970Y0057534D02*
X1299095Y0057534D01*
X1299095Y0057534D02*
X1299657Y0057253D01*
X1301063Y0053035D02*
X1305563Y0053035D01*
X1306969Y0057534D02*
X1306969Y0051629D01*
X1306969Y0057253D02*
X1307531Y0057534D01*
X1307531Y0057534D02*
X1308656Y0057534D01*
X1308656Y0057534D02*
X1309218Y0057253D01*
X1309218Y0057253D02*
X1309500Y0056972D01*
X1309500Y0056972D02*
X1309781Y0056410D01*
X1309781Y0056410D02*
X1309781Y0054722D01*
X1309781Y0054722D02*
X1309500Y0054160D01*
X1309500Y0054160D02*
X1309218Y0053879D01*
X1309218Y0053879D02*
X1308656Y0053597D01*
X1308656Y0053597D02*
X1307531Y0053597D01*
X1307531Y0053597D02*
X1306969Y0053879D01*
X1314843Y0053879D02*
X1314280Y0053597D01*
X1314280Y0053597D02*
X1313155Y0053597D01*
X1313155Y0053597D02*
X1312593Y0053879D01*
X1312593Y0053879D02*
X1312312Y0054160D01*
X1312312Y0054160D02*
X1312031Y0054722D01*
X1312031Y0054722D02*
X1312031Y0056410D01*
X1312031Y0056410D02*
X1312312Y0056972D01*
X1312312Y0056972D02*
X1312593Y0057253D01*
X1312593Y0057253D02*
X1313155Y0057534D01*
X1313155Y0057534D02*
X1314280Y0057534D01*
X1314280Y0057534D02*
X1314843Y0057253D01*
X1317374Y0053597D02*
X1317374Y0059503D01*
X1317374Y0057253D02*
X1317936Y0057534D01*
X1317936Y0057534D02*
X1319061Y0057534D01*
X1319061Y0057534D02*
X1319623Y0057253D01*
X1319623Y0057253D02*
X1319905Y0056972D01*
X1319905Y0056972D02*
X1320186Y0056410D01*
X1320186Y0056410D02*
X1320186Y0054722D01*
X1320186Y0054722D02*
X1319905Y0054160D01*
X1319905Y0054160D02*
X1319623Y0053879D01*
X1319623Y0053879D02*
X1319061Y0053597D01*
X1319061Y0053597D02*
X1317936Y0053597D01*
X1317936Y0053597D02*
X1317374Y0053879D01*
D10*
D11*
X1188189Y0072834D02*
X1613386Y0072834D01*
D10*
D11*
X1193639Y0064509D02*
X1194483Y0064227D01*
X1194483Y0064227D02*
X1195889Y0064227D01*
X1195889Y0064227D02*
X1196451Y0064509D01*
X1196451Y0064509D02*
X1196733Y0064790D01*
X1196733Y0064790D02*
X1197014Y0065352D01*
X1197014Y0065352D02*
X1197014Y0065915D01*
X1197014Y0065915D02*
X1196733Y0066477D01*
X1196733Y0066477D02*
X1196451Y0066758D01*
X1196451Y0066758D02*
X1195889Y0067040D01*
X1195889Y0067040D02*
X1194764Y0067321D01*
X1194764Y0067321D02*
X1194202Y0067602D01*
X1194202Y0067602D02*
X1193920Y0067883D01*
X1193920Y0067883D02*
X1193639Y0068446D01*
X1193639Y0068446D02*
X1193639Y0069008D01*
X1193639Y0069008D02*
X1193920Y0069570D01*
X1193920Y0069570D02*
X1194202Y0069852D01*
X1194202Y0069852D02*
X1194764Y0070133D01*
X1194764Y0070133D02*
X1196170Y0070133D01*
X1196170Y0070133D02*
X1197014Y0069852D01*
X1199545Y0064227D02*
X1199545Y0070133D01*
X1202076Y0064227D02*
X1202076Y0067321D01*
X1202076Y0067321D02*
X1201794Y0067883D01*
X1201794Y0067883D02*
X1201232Y0068164D01*
X1201232Y0068164D02*
X1200388Y0068164D01*
X1200388Y0068164D02*
X1199826Y0067883D01*
X1199826Y0067883D02*
X1199545Y0067602D01*
X1207137Y0064509D02*
X1206575Y0064227D01*
X1206575Y0064227D02*
X1205450Y0064227D01*
X1205450Y0064227D02*
X1204888Y0064509D01*
X1204888Y0064509D02*
X1204607Y0065071D01*
X1204607Y0065071D02*
X1204607Y0067321D01*
X1204607Y0067321D02*
X1204888Y0067883D01*
X1204888Y0067883D02*
X1205450Y0068164D01*
X1205450Y0068164D02*
X1206575Y0068164D01*
X1206575Y0068164D02*
X1207137Y0067883D01*
X1207137Y0067883D02*
X1207419Y0067321D01*
X1207419Y0067321D02*
X1207419Y0066758D01*
X1207419Y0066758D02*
X1204607Y0066196D01*
X1212199Y0064509D02*
X1211637Y0064227D01*
X1211637Y0064227D02*
X1210512Y0064227D01*
X1210512Y0064227D02*
X1209950Y0064509D01*
X1209950Y0064509D02*
X1209668Y0065071D01*
X1209668Y0065071D02*
X1209668Y0067321D01*
X1209668Y0067321D02*
X1209950Y0067883D01*
X1209950Y0067883D02*
X1210512Y0068164D01*
X1210512Y0068164D02*
X1211637Y0068164D01*
X1211637Y0068164D02*
X1212199Y0067883D01*
X1212199Y0067883D02*
X1212481Y0067321D01*
X1212481Y0067321D02*
X1212481Y0066758D01*
X1212481Y0066758D02*
X1209668Y0066196D01*
X1214168Y0068164D02*
X1216418Y0068164D01*
X1215012Y0070133D02*
X1215012Y0065071D01*
X1215012Y0065071D02*
X1215293Y0064509D01*
X1215293Y0064509D02*
X1215855Y0064227D01*
X1215855Y0064227D02*
X1216418Y0064227D01*
X1218386Y0064790D02*
X1218667Y0064509D01*
X1218667Y0064509D02*
X1218386Y0064227D01*
X1218386Y0064227D02*
X1218105Y0064509D01*
X1218105Y0064509D02*
X1218386Y0064790D01*
X1218386Y0064790D02*
X1218386Y0064227D01*
X1218386Y0067883D02*
X1218667Y0067602D01*
X1218667Y0067602D02*
X1218386Y0067321D01*
X1218386Y0067321D02*
X1218105Y0067602D01*
X1218105Y0067602D02*
X1218386Y0067883D01*
X1218386Y0067883D02*
X1218386Y0067321D01*
D10*
D12*
X1196840Y0076069D02*
X1196840Y0079162D01*
X1196840Y0079162D02*
X1196559Y0079725D01*
X1196559Y0079725D02*
X1195996Y0080006D01*
X1195996Y0080006D02*
X1194871Y0080006D01*
X1194871Y0080006D02*
X1194309Y0079725D01*
X1196840Y0076350D02*
X1196277Y0076069D01*
X1196277Y0076069D02*
X1194871Y0076069D01*
X1194871Y0076069D02*
X1194309Y0076350D01*
X1194309Y0076350D02*
X1194028Y0076913D01*
X1194028Y0076913D02*
X1194028Y0077475D01*
X1194028Y0077475D02*
X1194309Y0078038D01*
X1194309Y0078038D02*
X1194871Y0078319D01*
X1194871Y0078319D02*
X1196277Y0078319D01*
X1196277Y0078319D02*
X1196840Y0078600D01*
X1199652Y0080006D02*
X1199652Y0076069D01*
X1199652Y0079444D02*
X1199933Y0079725D01*
X1199933Y0079725D02*
X1200496Y0080006D01*
X1200496Y0080006D02*
X1201339Y0080006D01*
X1201339Y0080006D02*
X1201902Y0079725D01*
X1201902Y0079725D02*
X1202183Y0079162D01*
X1202183Y0079162D02*
X1202183Y0076069D01*
X1207526Y0076069D02*
X1207526Y0081975D01*
X1207526Y0076350D02*
X1206964Y0076069D01*
X1206964Y0076069D02*
X1205839Y0076069D01*
X1205839Y0076069D02*
X1205276Y0076350D01*
X1205276Y0076350D02*
X1204995Y0076632D01*
X1204995Y0076632D02*
X1204714Y0077194D01*
X1204714Y0077194D02*
X1204714Y0078881D01*
X1204714Y0078881D02*
X1204995Y0079444D01*
X1204995Y0079444D02*
X1205276Y0079725D01*
X1205276Y0079725D02*
X1205839Y0080006D01*
X1205839Y0080006D02*
X1206964Y0080006D01*
X1206964Y0080006D02*
X1207526Y0079725D01*
X1210338Y0076069D02*
X1210338Y0080006D01*
X1210338Y0078881D02*
X1210619Y0079444D01*
X1210619Y0079444D02*
X1210901Y0079725D01*
X1210901Y0079725D02*
X1211463Y0080006D01*
X1211463Y0080006D02*
X1212025Y0080006D01*
X1216244Y0076350D02*
X1215681Y0076069D01*
X1215681Y0076069D02*
X1214556Y0076069D01*
X1214556Y0076069D02*
X1213994Y0076350D01*
X1213994Y0076350D02*
X1213713Y0076913D01*
X1213713Y0076913D02*
X1213713Y0079162D01*
X1213713Y0079162D02*
X1213994Y0079725D01*
X1213994Y0079725D02*
X1214556Y0080006D01*
X1214556Y0080006D02*
X1215681Y0080006D01*
X1215681Y0080006D02*
X1216244Y0079725D01*
X1216244Y0079725D02*
X1216525Y0079162D01*
X1216525Y0079162D02*
X1216525Y0078600D01*
X1216525Y0078600D02*
X1213713Y0078038D01*
X1219056Y0076069D02*
X1219056Y0080006D01*
X1219056Y0081975D02*
X1218775Y0081693D01*
X1218775Y0081693D02*
X1219056Y0081412D01*
X1219056Y0081412D02*
X1219337Y0081693D01*
X1219337Y0081693D02*
X1219056Y0081975D01*
X1219056Y0081975D02*
X1219056Y0081412D01*
X1221868Y0076069D02*
X1221868Y0081975D01*
X1222430Y0078319D02*
X1224118Y0076069D01*
X1224118Y0080006D02*
X1221868Y0077756D01*
X1229180Y0076069D02*
X1229180Y0079162D01*
X1229180Y0079162D02*
X1228898Y0079725D01*
X1228898Y0079725D02*
X1228336Y0080006D01*
X1228336Y0080006D02*
X1227211Y0080006D01*
X1227211Y0080006D02*
X1226649Y0079725D01*
X1229180Y0076350D02*
X1228617Y0076069D01*
X1228617Y0076069D02*
X1227211Y0076069D01*
X1227211Y0076069D02*
X1226649Y0076350D01*
X1226649Y0076350D02*
X1226367Y0076913D01*
X1226367Y0076913D02*
X1226367Y0077475D01*
X1226367Y0077475D02*
X1226649Y0078038D01*
X1226649Y0078038D02*
X1227211Y0078319D01*
X1227211Y0078319D02*
X1228617Y0078319D01*
X1228617Y0078319D02*
X1229180Y0078600D01*
X1240147Y0078881D02*
X1239866Y0079162D01*
X1239866Y0079162D02*
X1239303Y0079444D01*
X1239303Y0079444D02*
X1238741Y0079444D01*
X1238741Y0079444D02*
X1238178Y0079162D01*
X1238178Y0079162D02*
X1237897Y0078881D01*
X1237897Y0078881D02*
X1237616Y0078319D01*
X1237616Y0078319D02*
X1237616Y0077756D01*
X1237616Y0077756D02*
X1237897Y0077194D01*
X1237897Y0077194D02*
X1238178Y0076913D01*
X1238178Y0076913D02*
X1238741Y0076632D01*
X1238741Y0076632D02*
X1239303Y0076632D01*
X1239303Y0076632D02*
X1239866Y0076913D01*
X1239866Y0076913D02*
X1240147Y0077194D01*
X1240147Y0079444D02*
X1240147Y0077194D01*
X1240147Y0077194D02*
X1240428Y0076913D01*
X1240428Y0076913D02*
X1240709Y0076913D01*
X1240709Y0076913D02*
X1241272Y0077194D01*
X1241272Y0077194D02*
X1241553Y0077756D01*
X1241553Y0077756D02*
X1241553Y0079162D01*
X1241553Y0079162D02*
X1240991Y0080006D01*
X1240991Y0080006D02*
X1240147Y0080569D01*
X1240147Y0080569D02*
X1239022Y0080850D01*
X1239022Y0080850D02*
X1237897Y0080569D01*
X1237897Y0080569D02*
X1237054Y0080006D01*
X1237054Y0080006D02*
X1236491Y0079162D01*
X1236491Y0079162D02*
X1236210Y0078038D01*
X1236210Y0078038D02*
X1236491Y0076913D01*
X1236491Y0076913D02*
X1237054Y0076069D01*
X1237054Y0076069D02*
X1237897Y0075507D01*
X1237897Y0075507D02*
X1239022Y0075225D01*
X1239022Y0075225D02*
X1240147Y0075507D01*
X1240147Y0075507D02*
X1240991Y0076069D01*
X1248583Y0076069D02*
X1248583Y0080006D01*
X1248583Y0078881D02*
X1248865Y0079444D01*
X1248865Y0079444D02*
X1249146Y0079725D01*
X1249146Y0079725D02*
X1249708Y0080006D01*
X1249708Y0080006D02*
X1250271Y0080006D01*
X1254770Y0080006D02*
X1254770Y0076069D01*
X1252239Y0080006D02*
X1252239Y0076913D01*
X1252239Y0076913D02*
X1252520Y0076350D01*
X1252520Y0076350D02*
X1253083Y0076069D01*
X1253083Y0076069D02*
X1253926Y0076069D01*
X1253926Y0076069D02*
X1254489Y0076350D01*
X1254489Y0076350D02*
X1254770Y0076632D01*
X1257301Y0076350D02*
X1257863Y0076069D01*
X1257863Y0076069D02*
X1258988Y0076069D01*
X1258988Y0076069D02*
X1259551Y0076350D01*
X1259551Y0076350D02*
X1259832Y0076913D01*
X1259832Y0076913D02*
X1259832Y0077194D01*
X1259832Y0077194D02*
X1259551Y0077756D01*
X1259551Y0077756D02*
X1258988Y0078038D01*
X1258988Y0078038D02*
X1258145Y0078038D01*
X1258145Y0078038D02*
X1257582Y0078319D01*
X1257582Y0078319D02*
X1257301Y0078881D01*
X1257301Y0078881D02*
X1257301Y0079162D01*
X1257301Y0079162D02*
X1257582Y0079725D01*
X1257582Y0079725D02*
X1258145Y0080006D01*
X1258145Y0080006D02*
X1258988Y0080006D01*
X1258988Y0080006D02*
X1259551Y0079725D01*
X1262363Y0079162D02*
X1264331Y0079162D01*
X1265175Y0076069D02*
X1262363Y0076069D01*
X1262363Y0076069D02*
X1262363Y0081975D01*
X1262363Y0081975D02*
X1265175Y0081975D01*
X1269674Y0079162D02*
X1267706Y0079162D01*
X1267706Y0076069D02*
X1267706Y0081975D01*
X1267706Y0081975D02*
X1270518Y0081975D01*
X1272768Y0076069D02*
X1272768Y0081975D01*
X1275580Y0076632D02*
X1275861Y0076350D01*
X1275861Y0076350D02*
X1275580Y0076069D01*
X1275580Y0076069D02*
X1275299Y0076350D01*
X1275299Y0076350D02*
X1275580Y0076632D01*
X1275580Y0076632D02*
X1275580Y0076069D01*
X1280923Y0076350D02*
X1280361Y0076069D01*
X1280361Y0076069D02*
X1279236Y0076069D01*
X1279236Y0076069D02*
X1278673Y0076350D01*
X1278673Y0076350D02*
X1278392Y0076632D01*
X1278392Y0076632D02*
X1278111Y0077194D01*
X1278111Y0077194D02*
X1278111Y0078881D01*
X1278111Y0078881D02*
X1278392Y0079444D01*
X1278392Y0079444D02*
X1278673Y0079725D01*
X1278673Y0079725D02*
X1279236Y0080006D01*
X1279236Y0080006D02*
X1280361Y0080006D01*
X1280361Y0080006D02*
X1280923Y0079725D01*
X1284298Y0076069D02*
X1283735Y0076350D01*
X1283735Y0076350D02*
X1283454Y0076632D01*
X1283454Y0076632D02*
X1283173Y0077194D01*
X1283173Y0077194D02*
X1283173Y0078881D01*
X1283173Y0078881D02*
X1283454Y0079444D01*
X1283454Y0079444D02*
X1283735Y0079725D01*
X1283735Y0079725D02*
X1284298Y0080006D01*
X1284298Y0080006D02*
X1285141Y0080006D01*
X1285141Y0080006D02*
X1285704Y0079725D01*
X1285704Y0079725D02*
X1285985Y0079444D01*
X1285985Y0079444D02*
X1286266Y0078881D01*
X1286266Y0078881D02*
X1286266Y0077194D01*
X1286266Y0077194D02*
X1285985Y0076632D01*
X1285985Y0076632D02*
X1285704Y0076350D01*
X1285704Y0076350D02*
X1285141Y0076069D01*
X1285141Y0076069D02*
X1284298Y0076069D01*
X1288797Y0076069D02*
X1288797Y0080006D01*
X1288797Y0079444D02*
X1289078Y0079725D01*
X1289078Y0079725D02*
X1289641Y0080006D01*
X1289641Y0080006D02*
X1290484Y0080006D01*
X1290484Y0080006D02*
X1291047Y0079725D01*
X1291047Y0079725D02*
X1291328Y0079162D01*
X1291328Y0079162D02*
X1291328Y0076069D01*
X1291328Y0079162D02*
X1291609Y0079725D01*
X1291609Y0079725D02*
X1292172Y0080006D01*
X1292172Y0080006D02*
X1293015Y0080006D01*
X1293015Y0080006D02*
X1293578Y0079725D01*
X1293578Y0079725D02*
X1293859Y0079162D01*
X1293859Y0079162D02*
X1293859Y0076069D01*
D10*
D11*
X1266929Y0033464D02*
X1266929Y0021653D01*
D10*
D11*
X1518897Y0033464D02*
X1518897Y0007874D01*
D78*
X0677500Y1013484D02*
X0722205Y1021358D01*
X0184980Y1462854D02*
X0184980Y1472483D01*
X0143405Y1329035D02*
G75*
G02*
X0143405Y1317224I0000001J-005906D01*
G01*
X0764823Y1427421D02*
G75*
G02*
X0729390Y1462854I0000000J0035433D01*
G01*
X0192224Y1021358D02*
X0192224Y1045799D01*
X0174508Y1063287D02*
G75*
G02*
X0192224Y1045799I-000185J-017905D01*
G01*
X0770964Y1329035D02*
X0780020Y1329035D01*
X0722145Y1045326D02*
G75*
G02*
X0740205Y1063287I0017989J-000028D01*
G01*
X0134350Y1068855D02*
X0134350Y1317224D01*
X0149547Y1427421D02*
X0139918Y1427421D01*
X0723822Y1478051D02*
X0190548Y1478051D01*
X0774452Y1063287D02*
X0740205Y1063287D01*
X0143405Y1317224D02*
X0134350Y1317224D01*
X0722205Y1021358D02*
X0722145Y1045326D01*
X0677500Y1013484D02*
X0236870Y1013484D01*
X0780020Y1068855D02*
X0780020Y1317224D01*
X0184980Y1472483D02*
X0190548Y1478051D01*
X0780020Y1329035D02*
X0780020Y1421853D01*
X0729390Y1472483D02*
X0723822Y1478051D01*
X0143405Y1329035D02*
X0134350Y1329035D01*
X0236870Y1013484D02*
X0192224Y1021358D01*
X0780020Y1421853D02*
X0774452Y1427421D01*
X0764823Y1427421D02*
X0774452Y1427421D01*
X0770964Y1317224D02*
X0780020Y1317224D01*
X0780020Y1068855D02*
X0774452Y1063287D01*
X0184980Y1462854D02*
G75*
G02*
X0149547Y1427421I-035433J0000000D01*
G01*
X0134350Y1421853D02*
X0139918Y1427421D01*
X0729390Y1462854D02*
X0729390Y1472483D01*
X0770964Y1317224D02*
G75*
G02*
X0770964Y1329035I0000000J0005906D01*
G01*
X0134350Y1329035D02*
X0134350Y1421853D01*
X0134350Y1068855D02*
X0139918Y1063287D01*
X0139918Y1063287D02*
X0174508Y1063287D01*
X0160827Y0238386D02*
G01*
G75*
X0497195Y0382651D02*
G01*
G75*
X0284843Y0271260D02*
G01*
G75*
X0099606Y0269685D02*
G01*
G75*
X0251280Y0161860D02*
G01*
G75*
X0291339Y0162598D02*
G01*
G75*
X0172047Y0162402D02*
G01*
G75*
X0504823Y0349902D02*
G01*
G75*
M02*
