M48
INCH,TZ
T01C0.013750
T02C0.029550
T03C0.032000
T04C0.039200
T05C0.043300
T06C0.078700
T07C0.086600
T08C0.145700
%
T01
X9498Y28199
X9527Y26801
X9616Y28701
X9960Y28494
X11345Y37545
X12871Y36295
X12949Y37427
X12955Y35951
X12955Y36679
X12985Y35616
X13162Y34976
X13678Y36512
X13678Y35488
X13678Y34720
X18410Y38743
X18754Y38536
X18843Y40436
X18873Y39038
X30961Y19287
X33106Y21983
X33113Y19923
X33854Y19729
X35088Y38504
X35634Y37008
X36344Y22505
X38271Y13893
X38271Y10940
X38271Y10625
X38271Y10310
X39916Y38504
X45171Y13538
X45171Y13145
X45506Y38504
X49798Y38504
X2965Y36260
X2969Y37264
X3065Y32560
X3065Y31560
X4765Y29060
X5354Y18357
X5393Y15010
X6752Y10477
X7365Y29260
X8070Y8081
X8072Y30857
X9881Y5719
X10105Y33280
X10224Y26109
X10669Y9439
X10874Y10021
X10955Y32030
X11003Y9439
X11338Y9439
X11338Y2057
X11437Y32333
X11615Y29440
X11825Y32210
X11895Y31640
X11955Y38200
X12007Y168
X12165Y25990
X12500Y29469
X12522Y32060
X12874Y27303
X12942Y18030
X12985Y32110
X13635Y31900
X13935Y32120
X14055Y30059
X14202Y9380
X14237Y24775
X14265Y28860
X14448Y24459
X14881Y16783
X14881Y15916
X15065Y26360
X15137Y5463
X15165Y28360
X15196Y24892
X15217Y37847
X15541Y37752
X15570Y39735
X16035Y13290
X17362Y37766
X17696Y7687
X18159Y15522
X18592Y15118
X19291Y37766
X19655Y15070
X19935Y41260
X20551Y37884
X20738Y9439
X21437Y7658
X22125Y40610
X22155Y16240
X22244Y41555
X22528Y16240
X22665Y13200
X23061Y16122
X23070Y7707
X23405Y13280
X23435Y16457
X23435Y41340
X23445Y39810
X23601Y15581
X23750Y7638
X23965Y15070
X24115Y7740
X24585Y15540
X24815Y12890
X24855Y12390
X25025Y11470
X25157Y1050
X25395Y11090
X25415Y14114
X25472Y16762
X25708Y1050
X26102Y22845
X26115Y990
X26171Y16427
X26230Y37805
X26692Y37784
X26732Y1408
X27086Y1408
X27095Y16580
X27511Y15400
X27557Y15778
X27703Y16460
X27952Y19902
X27985Y22624
X28173Y20443
X28179Y4754
X28335Y22580
X28405Y15010
X28495Y16570
X28625Y17275
X28885Y17010
X29135Y41440
X29200Y17275
X29395Y13928
X29695Y40090
X29765Y14966
X29785Y16990
X30078Y22845
X30128Y38721
X30170Y13928
X30236Y39744
X30639Y38603
X30685Y18160
X30705Y9000
X31200Y39036
X32037Y18839
X32559Y17805
X33818Y38711
X34105Y27830
X34133Y23357
X34155Y32810
X34173Y24892
X34212Y34026
X34271Y31949
X34271Y29429
X34429Y27855
X34488Y29902
X34515Y1257
X34527Y38475
X34704Y23711
X34724Y34784
X34915Y15940
X34915Y15600
X34995Y32766
X34995Y28660
X35196Y25089
X35344Y32274
X35344Y29067
X35551Y33750
X35580Y29657
X35630Y28936
X35669Y38986
X35866Y16349
X35866Y16112
X36141Y34459
X36285Y23500
X36315Y30020
X36323Y30957
X36365Y4620
X36395Y14720
X36559Y31232
X36672Y23977
X36692Y24892
X36795Y31508
X36955Y3330
X37275Y5800
X37345Y19710
X37352Y23445
X37385Y15830
X37401Y14892
X37405Y14070
X37677Y33829
X37795Y14790
X37885Y15800
X37929Y8843
X37938Y12416
X38055Y14800
X38070Y15246
X38155Y35120
X38335Y15820
X38335Y15520
X38475Y6500
X38547Y5011
X38915Y1080
X39065Y16200
X39065Y15920
X39949Y16326
X40583Y16302
X41115Y14750
X41475Y14530
X42007Y14459
X42381Y16733
X42385Y5060
X42578Y16536
X42745Y1950
X42775Y16339
X42835Y5060
X43070Y16605
X43285Y1180
X43375Y5060
X43376Y34179
X44065Y16851
X44881Y1270
X44885Y4320
X45595Y14020
X45616Y10261
X45669Y8593
X45865Y4620
X45926Y16842
X46875Y1290
X47126Y16664
X47126Y16349
X47126Y15994
X48295Y4470
X48897Y22332
X48929Y25615
X49133Y34075
X49173Y19105
X49409Y27412
X49448Y39105
X49803Y16546
X50245Y33270
X50571Y37057
X50895Y39030
X51338Y8986
X52025Y16820
X52505Y16820
X52800Y9616
X52819Y10837
X52819Y10345
X52918Y12963
X52937Y14185
X52961Y19426
X53075Y20976
X53311Y23476
X53331Y22669
X53351Y21842
X53897Y325
X54000Y11664
X54000Y10837
X54000Y10010
X54551Y23083
X54551Y22256
X54551Y21429
X54837Y12417
X55748Y33317
X55790Y21670
X55866Y22963
X56502Y21084
X56508Y13166
X56695Y20096
X56806Y13560
X57111Y21212
X57111Y20096
X57207Y13521
X57308Y13050
X58464Y719
X60235Y16880
X60260Y19598
X60314Y21309
X60437Y14027
X60735Y16830
X7517Y10494
X7911Y10494
X8305Y10494
X8698Y10494
X9131Y25553
X9525Y25553
X10923Y25553
X11316Y25553
X28636Y19003
X28636Y22310
X28971Y19003
X29187Y22310
X29305Y19003
X29401Y21867
X29611Y22310
X29640Y19003
X29881Y18433
X30162Y22310
X55624Y20726
X55624Y20411
X55624Y12771
X55624Y12456
X58087Y20489
X58087Y20135
X58095Y13521
X58095Y13166
X47467Y22524
X46010Y22682
X43983Y23587
X47017Y23604
X45459Y23981
X46123Y24019
X44002Y24375
X47506Y24375
X44750Y24414
X46876Y24414
X43983Y25123
X44750Y25123
X45459Y25123
X46168Y25123
X46876Y25123
X45459Y25831
X47506Y25871
X46168Y26264
X46876Y26264
X44390Y26695
X44081Y26697
X44553Y27012
X44002Y27327
X47113Y27367
X45616Y27465
X47467Y27485
X44514Y27524
X43884Y22406
X44199Y22406
X44514Y22406
X44829Y22406
X45144Y22406
X45459Y22406
X45774Y22406
X43884Y22721
X16757Y8605
X17101Y8398
X17220Y8900
X17190Y10298
X35029Y18878
X34553Y18847
X34321Y18657
X34085Y18878
X33848Y18677
X33612Y18878
X33376Y18677
X33140Y18878
X32903Y18677
X32667Y18878
X32431Y18677
X32195Y18878
X31959Y18677
X31722Y18878
X31486Y18677
X31250Y18878
X31014Y18677
X30777Y18878
X30541Y18677
X30305Y18878
X30069Y18677
X29833Y18878
X29596Y18677
X29360Y18878
X29124Y18677
X28888Y18878
X28651Y18677
X28415Y18878
X28179Y18677
X27943Y18878
X27707Y18677
X27470Y18878
X27234Y18677
X26998Y18878
X26762Y18677
X26525Y18878
X26289Y18677
X26053Y18878
X25817Y18677
X25581Y18878
X25344Y18677
X25108Y18878
X24872Y18677
X24636Y18878
X24321Y18720
X24328Y18185
X24755Y17991
X25206Y17981
X25648Y17974
X26121Y17976
X26626Y16929
X26936Y16929
X27183Y17402
X27781Y17199
X28077Y17190
X27920Y16919
X27803Y16237
X28058Y15969
X28155Y15428
X27716Y15428
X27256Y15548
X27256Y15216
X27256Y14921
X27262Y14630
X26932Y13946
X26387Y13950
X26525Y13366
X27155Y13445
X27225Y12613
X27240Y12227
X27588Y12421
X27822Y12621
X28079Y12188
X28772Y11887
X29370Y11870
X29717Y12166
X30492Y11991
X30474Y12546
X30484Y13093
X31192Y12966
X31147Y12167
X31173Y11402
X31195Y10592
X30492Y10552
X30492Y10837
X30492Y11122
X30492Y10251
X29704Y9935
X29717Y9650
X29749Y9352
X29699Y8870
X29295Y8819
X28665Y8341
X28288Y8353
X27352Y8209
X27027Y8809
X26819Y8606
X26837Y9133
X26479Y9180
X27030Y9364
X27236Y10507
X27459Y10736
X27505Y11419
X27796Y11430
X27309Y11638
X26640Y11638
X25774Y11827
X25580Y12041
X25376Y12245
X25174Y12447
X25177Y11634
X25624Y11169
X25637Y10468
X25261Y10566
X25384Y10098
X25586Y9561
X25346Y9335
X25152Y8937
X25344Y8681
X25445Y8298
X25485Y7992
X25187Y8090
X24683Y8292
X24627Y8593
X24683Y9155
X24536Y9400
X24793Y9783
X24811Y10274
X23583Y10666
X23273Y10980
X23455Y11201
X23490Y11721
X22037Y11791
X22037Y11476
X22037Y11161
X22037Y10846
X22037Y10531
X22037Y10216
X22037Y9902
X22176Y9624
X22037Y9350
X22037Y9035
X22037Y8720
X22037Y8405
X22037Y8090
X22037Y7776
X22394Y7688
X22177Y7444
X22486Y6742
X22490Y5807
X22863Y5763
X22865Y6048
X23238Y5807
X23140Y4941
X23455Y4941
X23770Y4941
X24085Y4941
X24399Y4941
X24714Y4941
X25029Y4941
X25344Y4941
X25659Y4941
X26250Y5138
X26604Y4941
X26919Y4941
X27234Y4941
X27549Y4941
X27864Y4941
X28179Y4941
X28494Y4941
X28809Y4941
X29124Y4941
X29636Y4980
X29542Y5635
X29940Y5671
X30285Y5626
X30564Y5928
X30506Y5173
X30817Y4941
X31880Y4941
X32274Y4941
X32635Y4965
X32627Y5428
X32857Y5873
X32938Y6746
X33378Y6523
X32192Y6211
X31729Y5892
X31772Y6743
X31329Y6791
X30844Y7219
X30836Y7504
X30768Y7864
X30765Y8160
X31495Y8061
X31486Y8445
X31495Y8770
X31156Y9098
X31495Y9478
X31479Y9830
X31499Y10125
X31182Y9807
X32177Y9379
X32180Y8935
X33356Y9079
X33336Y9600
X33337Y9989
X32512Y10454
X32212Y10415
X32189Y10868
X32189Y11155
X32189Y11442
X32189Y11858
X32189Y12144
X32171Y12568
X32171Y12876
X32171Y13165
X31947Y13905
X31667Y14000
X31355Y14395
X31653Y14715
X31653Y15281
X31660Y15567
X31569Y16228
X31772Y16973
X31604Y17205
X31904Y17240
X32529Y17404
X32825Y17404
X33451Y17199
X33737Y17199
X33573Y16916
X33469Y16240
X33628Y15971
X33808Y15394
X33332Y15394
X32846Y15548
X32846Y15216
X32846Y14921
X32853Y14630
X33616Y14408
X33612Y14031
X34415Y14023
X34388Y14357
X34683Y13925
X35162Y13882
X35187Y13287
X35187Y12894
X35187Y12500
X35187Y12106
X35187Y11713
X35187Y11319
X35187Y10925
X35187Y10531
X35148Y9902
X35187Y9508
X35187Y9193
X35187Y8819
X35059Y8336
X35148Y7972
X35187Y7342
X34903Y7232
X35187Y6791
X35166Y5629
X35187Y4941
X34163Y8209
X34037Y8504
X33168Y8019
X31176Y7727
X30299Y7279
X30167Y6890
X29829Y6961
X29406Y7283
X28966Y7382
X28225Y7304
X27697Y6368
X27557Y6089
X27486Y5782
X27224Y6472
X26393Y6443
X26201Y6118
X25457Y6464
X25531Y7312
X25237Y7312
X24946Y7312
X23760Y7254
X23730Y6791
X24005Y6260
X24031Y5356
X25141Y5229
X22825Y4941
X22510Y4941
X22195Y4941
X23389Y7845
X23545Y8084
X23317Y8376
X23100Y8803
X23541Y8801
X23639Y9485
X23123Y9774
X22847Y9220
X22836Y10429
X22037Y12106
X22037Y12421
X22037Y12736
X22037Y13051
X22037Y13366
X22037Y13681
X22037Y13996
X22037Y14311
X22037Y14626
X22556Y15240
X22116Y15846
X22037Y16319
X22608Y16917
X22608Y17236
X22608Y17554
X22608Y17872
X22608Y18191
X22972Y18517
X22254Y18560
X23850Y17729
X23717Y17150
X24281Y16240
X24514Y15536
X24500Y15216
X24505Y14928
X24506Y14630
X25293Y14408
X25302Y13995
X25812Y14380
X26102Y14596
X26102Y15169
X26065Y15555
X25461Y15421
X24961Y15428
X25301Y15974
X25180Y16640
X25497Y16640
X25843Y16640
X24833Y16651
X26644Y16240
X28860Y15555
X28858Y15156
X28858Y14717
X28776Y14333
X28049Y14355
X28100Y14073
X29242Y13941
X29566Y13933
X29588Y13441
X29998Y13721
X30069Y14550
X30046Y14921
X30059Y15216
X30069Y15716
X30364Y15453
X31033Y15408
X30833Y15950
X30904Y16826
X30673Y17406
X29963Y17199
X29671Y17199
X29813Y16909
X29690Y16240
X29044Y17360
X28716Y17411
X30711Y14402
X30910Y13996
X32523Y13946
X33057Y13327
X33057Y12566
X33057Y11805
X33056Y11043
X29373Y11096
X29577Y10771
X29415Y9883
X30494Y8783
X29695Y6160
X29251Y6256
X29158Y6526
X28955Y6163
X26449Y7505
X26391Y7788
X24818Y13321
X24439Y12972
X23352Y13117
X23401Y13846
X23713Y13814
X24176Y13946
X22641Y13639
X28963Y12584
X34449Y15128
X34411Y15593
X34693Y15915
X35184Y15954
X34586Y16506
X34852Y16818
X35187Y17500
X35187Y17894
X35167Y18479
X34596Y18287
X34399Y17404
X35059Y14596
X51447Y19311
X48517Y19386
X50187Y19430
X53553Y19430
X53363Y19663
X52083Y19719
X51772Y19719
X48749Y19873
X50340Y20101
X49642Y20193
X52270Y20256
X53203Y20393
X53475Y20685
X48435Y20788
X49072Y20834
X49449Y20876
X50756Y20951
X51993Y20955
X53514Y21231
X51428Y21312
X52717Y21437
X50768Y21497
X49721Y21506
X51478Y21615
X53553Y21713
X48430Y22510
X52746Y22678
X50941Y22968
X50002Y23198
X51502Y23199
X50709Y23200
X50466Y23406
X53652Y23426
X50807Y23484
X49430Y23791
X51565Y23999
X49481Y24088
X53622Y24213
X50128Y24229
X49475Y24398
X52908Y24416
X51526Y24489
X50526Y24548
X49851Y24701
X52825Y24705
X52092Y25006
X49126Y25024
X48825Y25032
X53632Y25404
X48994Y25611
X48409Y25636
X49293Y25645
X48628Y25902
X50270Y26040
X51117Y26086
X51630Y26156
X52530Y26156
X52831Y26156
X53132Y26156
X53433Y26156
X52038Y26160
X50502Y26536
X50719Y26792
X53674Y28867
X51925Y29084
X48672Y29124
X49085Y29272
X52018Y29371
X49666Y29410
X49941Y29410
X50217Y29410
X49105Y29587
X53681Y29607
X49666Y29715
X49941Y29715
X48691Y29912
X48986Y19374
X49380Y19374
X49774Y19374
X50672Y19374
X51072Y19374
X51998Y29843
X52392Y29843
X52786Y29843
X53179Y29843
X40885Y29660
X38917Y29660
X42224Y29621
X40807Y28794
X39744Y28637
X38917Y28519
X42224Y28282
X41318Y27889
X40334Y27849
X39704Y27298
X38917Y27259
X42224Y26865
X41515Y26629
X38917Y26550
X40824Y26464
X39271Y26038
X40137Y25527
X39192Y25290
X42224Y25133
X38917Y24818
X41399Y24500
X40531Y24227
X39192Y24227
X39779Y29788
X39385Y29788
X42322Y24109
X41850Y24109
X41378Y24109
X40905Y24109
X36526Y29724
X38172Y29697
X37343Y29675
X34819Y28953
X35576Y28944
X36355Y28918
X38184Y28870
X37252Y28868
X36550Y28696
X38156Y28522
X34947Y28435
X36262Y28405
X34813Y28130
X38347Y28074
X36800Y27997
X35554Y27986
X37875Y27832
X36864Y27709
X36841Y27415
X37242Y27173
X36436Y27041
X36762Y26988
X36044Y26978
X34961Y26958
X35333Y26908
X35683Y26868
X36341Y26647
X34813Y26338
X36388Y26269
X36812Y25955
X36526Y25836
X36022Y25738
X37485Y25716
X34973Y25673
X36782Y25650
X38156Y25581
X38097Y25285
X36827Y25102
X38326Y25090
X35453Y24763
X35445Y24287
X35276Y24045
X35689Y24035
X34794Y24019
X35774Y29714
X35380Y29714
X38317Y24035
X37845Y24035
X37373Y24035
X36900Y24035
X46461Y29753
X46309Y29500
X46467Y29213
X46467Y28858
X45465Y29192
X45191Y29297
X44948Y29084
X45498Y29597
X44019Y28857
X43042Y28858
X43042Y29232
X43042Y29606
X14400Y11315
X14128Y11951
X14342Y12336
X13701Y12765
X13661Y13101
X13858Y13691
X14134Y13947
X14252Y14478
X13858Y14774
X13661Y14282
X13661Y15463
X13661Y17038
X14134Y17018
X15245Y17310
X16292Y17285
X16614Y16997
X17667Y16922
X18779Y17038
X19567Y17038
X19094Y16034
X18449Y16028
X18509Y14782
X18976Y14872
X19144Y14392
X19567Y14675
X19145Y13507
X19841Y13335
X19882Y12943
X19882Y12549
X19200Y12643
X18890Y12154
X19277Y11837
X18880Y11407
X18491Y11786
X18416Y12510
X18464Y12943
X17148Y11958
X17148Y11329
X16229Y11315
X15374Y11315
X15597Y11957
X16181Y12982
X16574Y14429
X15827Y14478
X16260Y14988
X16849Y15986
X17795Y17943
X18727Y18010
X19173Y17628
X19567Y18219
X18740Y19006
X16741Y19174
X16699Y18768
X15912Y18758
X15647Y18355
X14210Y18432
X14619Y17797
X13779Y17564
T02
X32224Y39981
X32539Y40670
X32854Y39981
X33169Y40670
X33484Y39981
X31417Y40581G85X31417Y40069
X34291Y40581G85X34291Y40069
X47506Y23036
X47506Y23508
X43963Y25871
X47506Y26737
T03
X3582Y12236
X3582Y10736
X4488Y12256
X4488Y10756
X5393Y12256
X5393Y10756
X6299Y12256
X6299Y10756
X16614Y11481
X16614Y9981
X18395Y11506
X18395Y10006
X19192Y11498
X19192Y9998
X20472Y11498
X20472Y9998
X21653Y11557
X21653Y10057
X49005Y12175
X49005Y10246
X50147Y12175
X50147Y10246
X29092Y13583
X27514Y13583
X26092Y13583
T04
X1181Y37736
X1181Y33455
X1181Y28111
X1181Y23799
X1181Y19902
X1181Y15758
X1181Y11811
X1181Y8111
X1240Y5424
X6437Y44971
X10718Y44971
X14901Y44971
X19399Y44971
X24045Y44971
X28090Y44971
X32372Y44981
X36555Y44981
X41053Y44981
X45196Y44961
X49744Y44981
X53887Y44961
X58435Y44981
X63503Y38317
X63503Y34036
X63503Y28691
X63503Y24380
X63503Y20483
X63503Y16339
X63503Y12392
X63503Y8691
X63503Y5551
X5354Y25788
X5354Y24788
X5354Y23788
X5354Y22788
X5354Y21788
X5354Y20788
X14183Y12569
X15177Y12569
X16171Y12569
X17165Y12569
X17657Y16063
X18238Y12569
X18996Y16053
X19311Y12559
X20108Y16053
X20374Y12559
X21220Y16053
X21725Y12570
X22007Y38878
X22677Y10837
X23007Y38878
X24007Y38878
X25007Y38878
X25265Y9794
X26007Y38878
X26198Y11600
X26365Y15170
X26368Y9764
X27007Y38878
X27242Y11600
X27440Y9794
X28007Y38878
X28285Y11600
X28750Y9774
X29007Y38878
X29328Y11600
X29832Y9774
X30371Y11600
X30605Y15990
X31210Y9774
X31425Y11600
X31945Y16550
X32273Y9774
X32485Y11600
X33316Y9774
X33525Y11600
X34320Y9774
X34585Y11600
X35787Y15581
X46195Y13180
X55204Y40886
X55204Y39886
X55204Y38886
X55204Y37886
X55204Y36886
X56204Y40886
X56204Y39886
X56204Y38886
X56204Y37886
X56204Y36886
X57204Y40886
X57204Y39886
X57204Y38886
X57204Y37886
X57204Y36886
X59157Y37705
X59157Y36705
X59157Y35705
X59157Y34705
X59157Y33705
X59157Y32465
X59157Y31465
X59157Y30465
X59157Y29465
X59157Y28465
X59157Y27185
X59157Y26185
X59157Y25185
X59157Y24185
X59157Y23185
X60157Y37705
X60157Y36705
X60157Y35705
X60157Y34705
X60157Y33705
X60157Y32465
X60157Y31465
X60157Y30465
X60157Y29465
X60157Y28465
X60157Y27185
X60157Y26185
X60157Y25185
X60157Y24185
X60157Y23185
X61157Y37705
X61157Y36705
X61157Y35705
X61157Y34705
X61157Y33705
X61157Y32465
X61157Y31465
X61157Y30465
X61157Y29465
X61157Y28465
X61157Y27185
X61157Y26185
X61157Y25185
X61157Y24185
X61157Y23185
X34872Y5256
X25793Y6227
X25793Y5427
X23793Y5827
X52668Y26697
X51486Y27485
X52668Y28272
X52746Y19571
X52346Y21571
X53146Y21571
X13602Y11604
X13602Y16349
X19705Y16329
X19705Y15581
X19705Y13888
X19705Y11427
X19705Y18849
X13602Y19026
X13602Y18297
T05
X15688Y7036
X15688Y6036
X15688Y3655
X15688Y2655
X16688Y7036
X16688Y6036
X16688Y3655
X16688Y2655
X17688Y7036
X17688Y6036
X17688Y3655
X17688Y2655
X18688Y7036
X18688Y6036
X18688Y3655
X18688Y2655
X19688Y7036
X19688Y6036
X19688Y3655
X19688Y2655
X20688Y7036
X20688Y6036
X20688Y3655
X20688Y2655
X21688Y7036
X21688Y6036
X21688Y3655
X21688Y2655
X22688Y7036
X22688Y6036
X22688Y3655
X22688Y2655
X23688Y7036
X23688Y6036
X23688Y3655
X23688Y2655
X24688Y7036
X24688Y6036
X24688Y3655
X24688Y2655
X25688Y7036
X25688Y6036
X25688Y3655
X25688Y2655
X26688Y7036
X26688Y6036
X26688Y3655
X26688Y2655
X27688Y7036
X27688Y6036
X27688Y3655
X27688Y2655
X28688Y7036
X28688Y6036
X28688Y3655
X28688Y2655
X29688Y7036
X29688Y6036
X29688Y3655
X29688Y2655
X30688Y7036
X30688Y6036
X30688Y3655
X30688Y2655
X31688Y7036
X31688Y6036
X31688Y3655
X31688Y2655
X32688Y7036
X32688Y6036
X32688Y3655
X32688Y2655
X33688Y7036
X33688Y6036
X33688Y3655
X33688Y2655
X39975Y7036
X39975Y6036
X39975Y3655
X39975Y2655
X40975Y7036
X40975Y6036
X40975Y3655
X40975Y2655
X41975Y7036
X41975Y6036
X41975Y3655
X41975Y2655
X42975Y7036
X42975Y6036
X42975Y3655
X42975Y2655
X43975Y7036
X43975Y6036
X43975Y3655
X43975Y2655
X44975Y7036
X44975Y6036
X44975Y3655
X44975Y2655
X45975Y7036
X45975Y6036
X45975Y3655
X45975Y2655
X46975Y7036
X46975Y6036
X46975Y3655
X46975Y2655
X48859Y26520
X48859Y27520
X48859Y28520
T06
X35866Y40847
X37322Y39981
X38070Y40847
X39527Y39981
X40511Y40847
T07
X8463Y4938
X10294Y7036
X10294Y3836
X11436Y4753
X12577Y7036
X12577Y3836
X50058Y7036
X50058Y3836
X51200Y4753
X52341Y7036
X52341Y3836
X53522Y4753
X54664Y7036
X54664Y3836
X56416Y4938
T08
X7499Y1867
X36829Y1867
X57381Y1867
M30
