G75*
G70*
%OFA0B0*%
%FSLAX25Y25*%
%IPPOS*%
%LPD*%
%AMOC8*
5,1,8,0,0,1.08239X$1,22.5*
%
%AMM171*
21,1,0.029530,0.026380,-0.000000,-0.000000,90.000000*
21,1,0.020470,0.035430,-0.000000,-0.000000,90.000000*
1,1,0.009060,0.013190,0.010240*
1,1,0.009060,0.013190,-0.010240*
1,1,0.009060,-0.013190,-0.010240*
1,1,0.009060,-0.013190,0.010240*
%
%AMM172*
21,1,0.021650,0.027950,-0.000000,-0.000000,90.000000*
21,1,0.014170,0.035430,-0.000000,-0.000000,90.000000*
1,1,0.007480,0.013980,0.007090*
1,1,0.007480,0.013980,-0.007090*
1,1,0.007480,-0.013980,-0.007090*
1,1,0.007480,-0.013980,0.007090*
%
%AMM173*
21,1,0.016540,0.028980,-0.000000,-0.000000,270.000000*
21,1,0.010080,0.035430,-0.000000,-0.000000,270.000000*
1,1,0.006460,-0.014490,-0.005040*
1,1,0.006460,-0.014490,0.005040*
1,1,0.006460,0.014490,0.005040*
1,1,0.006460,0.014490,-0.005040*
%
%AMM174*
21,1,0.027560,0.030710,-0.000000,-0.000000,0.000000*
21,1,0.018900,0.039370,-0.000000,-0.000000,0.000000*
1,1,0.008660,0.009450,-0.015350*
1,1,0.008660,-0.009450,-0.015350*
1,1,0.008660,-0.009450,0.015350*
1,1,0.008660,0.009450,0.015350*
%
%AMM175*
21,1,0.031500,0.018900,-0.000000,-0.000000,270.000000*
21,1,0.022840,0.027560,-0.000000,-0.000000,270.000000*
1,1,0.008660,-0.009450,-0.011420*
1,1,0.008660,-0.009450,0.011420*
1,1,0.008660,0.009450,0.011420*
1,1,0.008660,0.009450,-0.011420*
%
%AMM176*
21,1,0.035430,0.072440,-0.000000,-0.000000,270.000000*
21,1,0.025200,0.082680,-0.000000,-0.000000,270.000000*
1,1,0.010240,-0.036220,-0.012600*
1,1,0.010240,-0.036220,0.012600*
1,1,0.010240,0.036220,0.012600*
1,1,0.010240,0.036220,-0.012600*
%
%AMM177*
21,1,0.031500,0.018900,-0.000000,-0.000000,0.000000*
21,1,0.022840,0.027560,-0.000000,-0.000000,0.000000*
1,1,0.008660,0.011420,-0.009450*
1,1,0.008660,-0.011420,-0.009450*
1,1,0.008660,-0.011420,0.009450*
1,1,0.008660,0.011420,0.009450*
%
%AMM178*
21,1,0.027560,0.030710,-0.000000,-0.000000,90.000000*
21,1,0.018900,0.039370,-0.000000,-0.000000,90.000000*
1,1,0.008660,0.015350,0.009450*
1,1,0.008660,0.015350,-0.009450*
1,1,0.008660,-0.015350,-0.009450*
1,1,0.008660,-0.015350,0.009450*
%
%AMM179*
21,1,0.039370,0.030320,-0.000000,-0.000000,90.000000*
21,1,0.028350,0.041340,-0.000000,-0.000000,90.000000*
1,1,0.011020,0.015160,0.014170*
1,1,0.011020,0.015160,-0.014170*
1,1,0.011020,-0.015160,-0.014170*
1,1,0.011020,-0.015160,0.014170*
%
%AMM180*
21,1,0.047240,0.075980,-0.000000,-0.000000,180.000000*
21,1,0.034650,0.088580,-0.000000,-0.000000,180.000000*
1,1,0.012600,-0.017320,0.037990*
1,1,0.012600,0.017320,0.037990*
1,1,0.012600,0.017320,-0.037990*
1,1,0.012600,-0.017320,-0.037990*
%
%AMM181*
21,1,0.043310,0.035430,-0.000000,-0.000000,180.000000*
21,1,0.031500,0.047240,-0.000000,-0.000000,180.000000*
1,1,0.011810,-0.015750,0.017720*
1,1,0.011810,0.015750,0.017720*
1,1,0.011810,0.015750,-0.017720*
1,1,0.011810,-0.015750,-0.017720*
%
%AMM182*
21,1,0.031500,0.030710,-0.000000,-0.000000,180.000000*
21,1,0.022050,0.040160,-0.000000,-0.000000,180.000000*
1,1,0.009450,-0.011020,0.015350*
1,1,0.009450,0.011020,0.015350*
1,1,0.009450,0.011020,-0.015350*
1,1,0.009450,-0.011020,-0.015350*
%
%AMM183*
21,1,0.035430,0.072440,-0.000000,-0.000000,180.000000*
21,1,0.025200,0.082680,-0.000000,-0.000000,180.000000*
1,1,0.010240,-0.012600,0.036220*
1,1,0.010240,0.012600,0.036220*
1,1,0.010240,0.012600,-0.036220*
1,1,0.010240,-0.012600,-0.036220*
%
%AMM184*
21,1,0.141730,0.067720,-0.000000,-0.000000,180.000000*
21,1,0.120870,0.088580,-0.000000,-0.000000,180.000000*
1,1,0.020870,-0.060430,0.033860*
1,1,0.020870,0.060430,0.033860*
1,1,0.020870,0.060430,-0.033860*
1,1,0.020870,-0.060430,-0.033860*
%
%AMM185*
21,1,0.047240,0.075990,-0.000000,-0.000000,180.000000*
21,1,0.034650,0.088580,-0.000000,-0.000000,180.000000*
1,1,0.012600,-0.017320,0.037990*
1,1,0.012600,0.017320,0.037990*
1,1,0.012600,0.017320,-0.037990*
1,1,0.012600,-0.017320,-0.037990*
%
%AMM186*
21,1,0.090550,0.073230,-0.000000,-0.000000,270.000000*
21,1,0.069290,0.094490,-0.000000,-0.000000,270.000000*
1,1,0.021260,-0.036610,-0.034650*
1,1,0.021260,-0.036610,0.034650*
1,1,0.021260,0.036610,0.034650*
1,1,0.021260,0.036610,-0.034650*
%
%AMM224*
21,1,0.027170,0.052760,-0.000000,-0.000000,90.000000*
21,1,0.017320,0.062600,-0.000000,-0.000000,90.000000*
1,1,0.009840,0.026380,0.008660*
1,1,0.009840,0.026380,-0.008660*
1,1,0.009840,-0.026380,-0.008660*
1,1,0.009840,-0.026380,0.008660*
%
%AMM4*
21,1,0.040950,0.030320,0.000000,0.000000,180.000000*
21,1,0.028350,0.042910,0.000000,0.000000,180.000000*
1,1,0.012600,-0.014170,0.015160*
1,1,0.012600,0.014170,0.015160*
1,1,0.012600,0.014170,-0.015160*
1,1,0.012600,-0.014170,-0.015160*
%
%AMM5*
21,1,0.038980,0.026770,0.000000,0.000000,0.000000*
21,1,0.026770,0.038980,0.000000,0.000000,0.000000*
1,1,0.012210,0.013390,-0.013390*
1,1,0.012210,-0.013390,-0.013390*
1,1,0.012210,-0.013390,0.013390*
1,1,0.012210,0.013390,0.013390*
%
%AMM6*
21,1,0.033070,0.030710,0.000000,0.000000,180.000000*
21,1,0.022050,0.041730,0.000000,0.000000,180.000000*
1,1,0.011020,-0.011020,0.015350*
1,1,0.011020,0.011020,0.015350*
1,1,0.011020,0.011020,-0.015350*
1,1,0.011020,-0.011020,-0.015350*
%
%AMM64*
21,1,0.027170,0.052760,0.000000,0.000000,270.000000*
21,1,0.017320,0.062600,0.000000,0.000000,270.000000*
1,1,0.009840,-0.026380,-0.008660*
1,1,0.009840,-0.026380,0.008660*
1,1,0.009840,0.026380,0.008660*
1,1,0.009840,0.026380,-0.008660*
%
%AMM70*
21,1,0.025200,0.019680,0.000000,0.000000,270.000000*
21,1,0.015750,0.029130,0.000000,0.000000,270.000000*
1,1,0.009450,-0.009840,-0.007870*
1,1,0.009450,-0.009840,0.007870*
1,1,0.009450,0.009840,0.007870*
1,1,0.009450,0.009840,-0.007870*
%
%AMM72*
21,1,0.025200,0.019680,0.000000,0.000000,0.000000*
21,1,0.015750,0.029130,0.000000,0.000000,0.000000*
1,1,0.009450,0.007870,-0.009840*
1,1,0.009450,-0.007870,-0.009840*
1,1,0.009450,-0.007870,0.009840*
1,1,0.009450,0.007870,0.009840*
%
%AMM80*
21,1,0.092130,0.073230,0.000000,0.000000,270.000000*
21,1,0.069290,0.096060,0.000000,0.000000,270.000000*
1,1,0.022840,-0.036610,-0.034650*
1,1,0.022840,-0.036610,0.034650*
1,1,0.022840,0.036610,0.034650*
1,1,0.022840,0.036610,-0.034650*
%
%AMM81*
21,1,0.100000,0.111020,0.000000,0.000000,0.000000*
21,1,0.075590,0.135430,0.000000,0.000000,0.000000*
1,1,0.024410,0.037800,-0.055510*
1,1,0.024410,-0.037800,-0.055510*
1,1,0.024410,-0.037800,0.055510*
1,1,0.024410,0.037800,0.055510*
%
%AMM82*
21,1,0.080320,0.083460,0.000000,0.000000,0.000000*
21,1,0.059840,0.103940,0.000000,0.000000,0.000000*
1,1,0.020470,0.029920,-0.041730*
1,1,0.020470,-0.029920,-0.041730*
1,1,0.020470,-0.029920,0.041730*
1,1,0.020470,0.029920,0.041730*
%
%AMM83*
21,1,0.084250,0.053540,0.000000,0.000000,180.000000*
21,1,0.065350,0.072440,0.000000,0.000000,180.000000*
1,1,0.018900,-0.032680,0.026770*
1,1,0.018900,0.032680,0.026770*
1,1,0.018900,0.032680,-0.026770*
1,1,0.018900,-0.032680,-0.026770*
%
%AMM84*
21,1,0.040950,0.030320,0.000000,0.000000,90.000000*
21,1,0.028350,0.042910,0.000000,0.000000,90.000000*
1,1,0.012600,0.015160,0.014170*
1,1,0.012600,0.015160,-0.014170*
1,1,0.012600,-0.015160,-0.014170*
1,1,0.012600,-0.015160,0.014170*
%
%AMM85*
21,1,0.041340,0.026770,0.000000,0.000000,0.000000*
21,1,0.029130,0.038980,0.000000,0.000000,0.000000*
1,1,0.012210,0.014570,-0.013390*
1,1,0.012210,-0.014570,-0.013390*
1,1,0.012210,-0.014570,0.013390*
1,1,0.012210,0.014570,0.013390*
%
%AMM86*
21,1,0.076380,0.036220,0.000000,0.000000,90.000000*
21,1,0.061810,0.050790,0.000000,0.000000,90.000000*
1,1,0.014570,0.018110,0.030910*
1,1,0.014570,0.018110,-0.030910*
1,1,0.014570,-0.018110,-0.030910*
1,1,0.014570,-0.018110,0.030910*
%
%AMM87*
21,1,0.021260,0.016540,0.000000,0.000000,270.000000*
21,1,0.012600,0.025200,0.000000,0.000000,270.000000*
1,1,0.008660,-0.008270,-0.006300*
1,1,0.008660,-0.008270,0.006300*
1,1,0.008660,0.008270,0.006300*
1,1,0.008660,0.008270,-0.006300*
%
%AMM88*
21,1,0.029130,0.018900,0.000000,0.000000,90.000000*
21,1,0.018900,0.029130,0.000000,0.000000,90.000000*
1,1,0.010240,0.009450,0.009450*
1,1,0.010240,0.009450,-0.009450*
1,1,0.010240,-0.009450,-0.009450*
1,1,0.010240,-0.009450,0.009450*
%
%ADD10C,0.05906*%
%ADD100O,0.02520X0.01535*%
%ADD101O,0.01535X0.02520*%
%ADD102M4*%
%ADD103O,0.09213X0.02913*%
%ADD104M5*%
%ADD105M6*%
%ADD106C,0.02913*%
%ADD11C,0.02362*%
%ADD131C,0.03100*%
%ADD134C,0.03900*%
%ADD139O,0.05118X0.01260*%
%ADD140O,0.01260X0.05118*%
%ADD141O,0.04724X0.01575*%
%ADD142C,0.03494*%
%ADD145R,0.01772X0.01378*%
%ADD146R,0.01378X0.01772*%
%ADD151O,0.09055X0.02756*%
%ADD158C,0.03543*%
%ADD160C,0.04724*%
%ADD161C,0.04294*%
%ADD199R,0.03543X0.03150*%
%ADD201C,0.05118*%
%ADD203R,0.03150X0.03543*%
%ADD226R,0.02559X0.01575*%
%ADD227R,0.01575X0.02559*%
%ADD230M64*%
%ADD236M70*%
%ADD238M72*%
%ADD247M80*%
%ADD248M81*%
%ADD249M82*%
%ADD250M83*%
%ADD251M84*%
%ADD252M85*%
%ADD253M86*%
%ADD254M87*%
%ADD255M88*%
%ADD256C,0.06457*%
%ADD267R,0.02559X0.07874*%
%ADD268R,0.31890X0.17717*%
%ADD28C,0.06000*%
%ADD29O,0.06693X0.07283*%
%ADD364M171*%
%ADD365M172*%
%ADD366M173*%
%ADD367M174*%
%ADD368M175*%
%ADD369M176*%
%ADD370M177*%
%ADD371M178*%
%ADD372M179*%
%ADD373M180*%
%ADD374M181*%
%ADD375M182*%
%ADD376M183*%
%ADD377M184*%
%ADD378M185*%
%ADD379M186*%
%ADD406R,0.08661X0.04724*%
%ADD407R,0.25197X0.22835*%
%ADD408R,0.07874X0.07500*%
%ADD409O,0.07874X0.07500*%
%ADD413R,0.01181X0.05512*%
%ADD427M224*%
%ADD46R,0.04331X0.04331*%
%ADD47C,0.04331*%
%ADD48O,0.09449X0.04331*%
%ADD52O,0.01969X0.00984*%
%ADD54O,0.00984X0.01969*%
%ADD55C,0.14567*%
%ADD56C,0.08661*%
%ADD57C,0.10236*%
X0000000Y0000000D02*
%LPD*%
G01*
G36*
G01*
X0392717Y0198818D02*
X0392717Y0203740D01*
G75*
G02*
X0393111Y0204133I0000394J0000000D01*
G01*
X0396260Y0204133D01*
G75*
G02*
X0396654Y0203740I0000000J-000394D01*
G01*
X0396654Y0198818D01*
G75*
G02*
X0396260Y0198425I-000394J0000000D01*
G01*
X0393111Y0198425D01*
G75*
G02*
X0392717Y0198818I0000000J0000394D01*
G01*
G37*
G36*
G01*
X0400197Y0198818D02*
X0400197Y0203740D01*
G75*
G02*
X0400591Y0204133I0000394J0000000D01*
G01*
X0403741Y0204133D01*
G75*
G02*
X0404134Y0203740I0000000J-000394D01*
G01*
X0404134Y0198818D01*
G75*
G02*
X0403741Y0198425I-000394J0000000D01*
G01*
X0400591Y0198425D01*
G75*
G02*
X0400197Y0198818I0000000J0000394D01*
G01*
G37*
G36*
G01*
X0151354Y0294685D02*
X0153372Y0294685D01*
G75*
G02*
X0154233Y0293823I0000000J-000861D01*
G01*
X0154233Y0292101D01*
G75*
G02*
X0153372Y0291240I-000861J0000000D01*
G01*
X0151354Y0291240D01*
G75*
G02*
X0150493Y0292101I0000000J0000861D01*
G01*
X0150493Y0293823D01*
G75*
G02*
X0151354Y0294685I0000861J0000000D01*
G01*
G37*
G36*
G01*
X0151354Y0288484D02*
X0153372Y0288484D01*
G75*
G02*
X0154233Y0287623I0000000J-000861D01*
G01*
X0154233Y0285900D01*
G75*
G02*
X0153372Y0285039I-000861J0000000D01*
G01*
X0151354Y0285039D01*
G75*
G02*
X0150493Y0285900I0000000J0000861D01*
G01*
X0150493Y0287623D01*
G75*
G02*
X0151354Y0288484I0000861J0000000D01*
G01*
G37*
G36*
G01*
X0325000Y0250196D02*
X0322245Y0250196D01*
G75*
G02*
X0321260Y0251181I0000000J0000984D01*
G01*
X0321260Y0257874D01*
G75*
G02*
X0322245Y0258858I0000984J0000000D01*
G01*
X0325000Y0258858D01*
G75*
G02*
X0325985Y0257874I0000000J-000984D01*
G01*
X0325985Y0251181D01*
G75*
G02*
X0325000Y0250196I-000984J0000000D01*
G01*
G37*
G36*
G01*
X0343032Y0266732D02*
X0322166Y0266732D01*
G75*
G02*
X0321182Y0267716I0000000J0000984D01*
G01*
X0321182Y0290944D01*
G75*
G02*
X0322166Y0291929I0000984J0000000D01*
G01*
X0343032Y0291929D01*
G75*
G02*
X0344016Y0290944I0000000J-000984D01*
G01*
X0344016Y0267716D01*
G75*
G02*
X0343032Y0266732I-000984J0000000D01*
G01*
G37*
G36*
G01*
X0342953Y0250196D02*
X0340197Y0250196D01*
G75*
G02*
X0339213Y0251181I0000000J0000984D01*
G01*
X0339213Y0257874D01*
G75*
G02*
X0340197Y0258858I0000984J0000000D01*
G01*
X0342953Y0258858D01*
G75*
G02*
X0343937Y0257874I0000000J-000984D01*
G01*
X0343937Y0251181D01*
G75*
G02*
X0342953Y0250196I-000984J0000000D01*
G01*
G37*
G36*
G01*
X0228209Y0250196D02*
X0225453Y0250196D01*
G75*
G02*
X0224469Y0251181I0000000J0000984D01*
G01*
X0224469Y0257874D01*
G75*
G02*
X0225453Y0258858I0000984J0000000D01*
G01*
X0228209Y0258858D01*
G75*
G02*
X0229193Y0257874I0000000J-000984D01*
G01*
X0229193Y0251181D01*
G75*
G02*
X0228209Y0250196I-000984J0000000D01*
G01*
G37*
G36*
G01*
X0246241Y0266732D02*
X0225374Y0266732D01*
G75*
G02*
X0224390Y0267716I0000000J0000984D01*
G01*
X0224390Y0290944D01*
G75*
G02*
X0225374Y0291929I0000984J0000000D01*
G01*
X0246241Y0291929D01*
G75*
G02*
X0247225Y0290944I0000000J-000984D01*
G01*
X0247225Y0267716D01*
G75*
G02*
X0246241Y0266732I-000984J0000000D01*
G01*
G37*
G36*
G01*
X0246162Y0250196D02*
X0243406Y0250196D01*
G75*
G02*
X0242422Y0251181I0000000J0000984D01*
G01*
X0242422Y0257874D01*
G75*
G02*
X0243406Y0258858I0000984J0000000D01*
G01*
X0246162Y0258858D01*
G75*
G02*
X0247146Y0257874I0000000J-000984D01*
G01*
X0247146Y0251181D01*
G75*
G02*
X0246162Y0250196I-000984J0000000D01*
G01*
G37*
G36*
G01*
X0146752Y0274744D02*
X0146752Y0277421D01*
G75*
G02*
X0147087Y0277755I0000335J0000000D01*
G01*
X0149764Y0277755D01*
G75*
G02*
X0150099Y0277421I0000000J-000335D01*
G01*
X0150099Y0274744D01*
G75*
G02*
X0149764Y0274409I-000335J0000000D01*
G01*
X0147087Y0274409D01*
G75*
G02*
X0146752Y0274744I0000000J0000335D01*
G01*
G37*
G36*
G01*
X0152973Y0274744D02*
X0152973Y0277421D01*
G75*
G02*
X0153308Y0277755I0000335J0000000D01*
G01*
X0155985Y0277755D01*
G75*
G02*
X0156319Y0277421I0000000J-000335D01*
G01*
X0156319Y0274744D01*
G75*
G02*
X0155985Y0274409I-000335J0000000D01*
G01*
X0153308Y0274409D01*
G75*
G02*
X0152973Y0274744I0000000J0000335D01*
G01*
G37*
G36*
G01*
X0185197Y0215255D02*
X0184016Y0215255D01*
G75*
G02*
X0183426Y0215846I0000000J0000591D01*
G01*
X0183426Y0222342D01*
G75*
G02*
X0184016Y0222933I0000591J0000000D01*
G01*
X0185197Y0222933D01*
G75*
G02*
X0185788Y0222342I0000000J-000591D01*
G01*
X0185788Y0215846D01*
G75*
G02*
X0185197Y0215255I-000591J0000000D01*
G01*
G37*
G36*
G01*
X0190197Y0215255D02*
X0189016Y0215255D01*
G75*
G02*
X0188426Y0215846I0000000J0000591D01*
G01*
X0188426Y0222342D01*
G75*
G02*
X0189016Y0222933I0000591J0000000D01*
G01*
X0190197Y0222933D01*
G75*
G02*
X0190788Y0222342I0000000J-000591D01*
G01*
X0190788Y0215846D01*
G75*
G02*
X0190197Y0215255I-000591J0000000D01*
G01*
G37*
G36*
G01*
X0195197Y0215255D02*
X0194016Y0215255D01*
G75*
G02*
X0193426Y0215846I0000000J0000591D01*
G01*
X0193426Y0222342D01*
G75*
G02*
X0194016Y0222933I0000591J0000000D01*
G01*
X0195197Y0222933D01*
G75*
G02*
X0195788Y0222342I0000000J-000591D01*
G01*
X0195788Y0215846D01*
G75*
G02*
X0195197Y0215255I-000591J0000000D01*
G01*
G37*
G36*
G01*
X0200197Y0215255D02*
X0199016Y0215255D01*
G75*
G02*
X0198426Y0215846I0000000J0000591D01*
G01*
X0198426Y0222342D01*
G75*
G02*
X0199016Y0222933I0000591J0000000D01*
G01*
X0200197Y0222933D01*
G75*
G02*
X0200788Y0222342I0000000J-000591D01*
G01*
X0200788Y0215846D01*
G75*
G02*
X0200197Y0215255I-000591J0000000D01*
G01*
G37*
G36*
G01*
X0200197Y0234744D02*
X0199016Y0234744D01*
G75*
G02*
X0198426Y0235334I0000000J0000591D01*
G01*
X0198426Y0241830D01*
G75*
G02*
X0199016Y0242421I0000591J0000000D01*
G01*
X0200197Y0242421D01*
G75*
G02*
X0200788Y0241830I0000000J-000591D01*
G01*
X0200788Y0235334D01*
G75*
G02*
X0200197Y0234744I-000591J0000000D01*
G01*
G37*
G36*
G01*
X0195197Y0234744D02*
X0194016Y0234744D01*
G75*
G02*
X0193426Y0235334I0000000J0000591D01*
G01*
X0193426Y0241830D01*
G75*
G02*
X0194016Y0242421I0000591J0000000D01*
G01*
X0195197Y0242421D01*
G75*
G02*
X0195788Y0241830I0000000J-000591D01*
G01*
X0195788Y0235334D01*
G75*
G02*
X0195197Y0234744I-000591J0000000D01*
G01*
G37*
G36*
G01*
X0190197Y0234744D02*
X0189016Y0234744D01*
G75*
G02*
X0188426Y0235334I0000000J0000591D01*
G01*
X0188426Y0241830D01*
G75*
G02*
X0189016Y0242421I0000591J0000000D01*
G01*
X0190197Y0242421D01*
G75*
G02*
X0190788Y0241830I0000000J-000591D01*
G01*
X0190788Y0235334D01*
G75*
G02*
X0190197Y0234744I-000591J0000000D01*
G01*
G37*
G36*
G01*
X0185197Y0234744D02*
X0184016Y0234744D01*
G75*
G02*
X0183426Y0235334I0000000J0000591D01*
G01*
X0183426Y0241830D01*
G75*
G02*
X0184016Y0242421I0000591J0000000D01*
G01*
X0185197Y0242421D01*
G75*
G02*
X0185788Y0241830I0000000J-000591D01*
G01*
X0185788Y0235334D01*
G75*
G02*
X0185197Y0234744I-000591J0000000D01*
G01*
G37*
D10*
X0198622Y0185531D03*
X0198622Y0160334D03*
X0198622Y0152854D03*
X0198622Y0135925D03*
D11*
X0200394Y0126476D03*
X0200394Y0122539D03*
D10*
X0198622Y0111318D03*
X0137599Y0187303D03*
X0137599Y0180019D03*
X0137599Y0160531D03*
X0137599Y0113090D03*
D11*
X0431989Y0285629D03*
X0431989Y0289370D03*
X0431989Y0293110D03*
X0466241Y0289173D03*
X0466241Y0285629D03*
G36*
G01*
X0561497Y0312303D02*
X0559922Y0312303D01*
G75*
G02*
X0559134Y0313090I0000000J0000787D01*
G01*
X0559134Y0320177D01*
G75*
G02*
X0559922Y0320964I0000787J0000000D01*
G01*
X0561497Y0320964D01*
G75*
G02*
X0562284Y0320177I0000000J-000787D01*
G01*
X0562284Y0313090D01*
G75*
G02*
X0561497Y0312303I-000787J0000000D01*
G01*
G37*
G36*
G01*
X0565985Y0312303D02*
X0564410Y0312303D01*
G75*
G02*
X0563623Y0313090I0000000J0000787D01*
G01*
X0563623Y0320177D01*
G75*
G02*
X0564410Y0320964I0000787J0000000D01*
G01*
X0565985Y0320964D01*
G75*
G02*
X0566772Y0320177I0000000J-000787D01*
G01*
X0566772Y0313090D01*
G75*
G02*
X0565985Y0312303I-000787J0000000D01*
G01*
G37*
G36*
G01*
X0580119Y0328838D02*
X0559252Y0328838D01*
G75*
G02*
X0558268Y0329822I0000000J0000984D01*
G01*
X0558268Y0353051D01*
G75*
G02*
X0559252Y0354035I0000984J0000000D01*
G01*
X0580119Y0354035D01*
G75*
G02*
X0581103Y0353051I0000000J-000984D01*
G01*
X0581103Y0329822D01*
G75*
G02*
X0580119Y0328838I-000984J0000000D01*
G01*
G37*
G36*
G01*
X0574961Y0312303D02*
X0573386Y0312303D01*
G75*
G02*
X0572599Y0313090I0000000J0000787D01*
G01*
X0572599Y0320177D01*
G75*
G02*
X0573386Y0320964I0000787J0000000D01*
G01*
X0574961Y0320964D01*
G75*
G02*
X0575748Y0320177I0000000J-000787D01*
G01*
X0575748Y0313090D01*
G75*
G02*
X0574961Y0312303I-000787J0000000D01*
G01*
G37*
G36*
G01*
X0579449Y0312303D02*
X0577874Y0312303D01*
G75*
G02*
X0577087Y0313090I0000000J0000787D01*
G01*
X0577087Y0320177D01*
G75*
G02*
X0577874Y0320964I0000787J0000000D01*
G01*
X0579449Y0320964D01*
G75*
G02*
X0580237Y0320177I0000000J-000787D01*
G01*
X0580237Y0313090D01*
G75*
G02*
X0579449Y0312303I-000787J0000000D01*
G01*
G37*
G36*
G01*
X0163682Y0250196D02*
X0160926Y0250196D01*
G75*
G02*
X0159941Y0251181I0000000J0000984D01*
G01*
X0159941Y0257874D01*
G75*
G02*
X0160926Y0258858I0000984J0000000D01*
G01*
X0163682Y0258858D01*
G75*
G02*
X0164666Y0257874I0000000J-000984D01*
G01*
X0164666Y0251181D01*
G75*
G02*
X0163682Y0250196I-000984J0000000D01*
G01*
G37*
G36*
G01*
X0181713Y0266732D02*
X0160847Y0266732D01*
G75*
G02*
X0159863Y0267716I0000000J0000984D01*
G01*
X0159863Y0290944D01*
G75*
G02*
X0160847Y0291929I0000984J0000000D01*
G01*
X0181713Y0291929D01*
G75*
G02*
X0182697Y0290944I0000000J-000984D01*
G01*
X0182697Y0267716D01*
G75*
G02*
X0181713Y0266732I-000984J0000000D01*
G01*
G37*
G36*
G01*
X0181634Y0250196D02*
X0178878Y0250196D01*
G75*
G02*
X0177894Y0251181I0000000J0000984D01*
G01*
X0177894Y0257874D01*
G75*
G02*
X0178878Y0258858I0000984J0000000D01*
G01*
X0181634Y0258858D01*
G75*
G02*
X0182619Y0257874I0000000J-000984D01*
G01*
X0182619Y0251181D01*
G75*
G02*
X0181634Y0250196I-000984J0000000D01*
G01*
G37*
G36*
G01*
X0147304Y0247893D02*
X0147304Y0245216D01*
G75*
G02*
X0146969Y0244881I-000335J0000000D01*
G01*
X0144292Y0244881D01*
G75*
G02*
X0143957Y0245216I0000000J0000335D01*
G01*
X0143957Y0247893D01*
G75*
G02*
X0144292Y0248228I0000335J0000000D01*
G01*
X0146969Y0248228D01*
G75*
G02*
X0147304Y0247893I0000000J-000335D01*
G01*
G37*
G36*
G01*
X0141083Y0247893D02*
X0141083Y0245216D01*
G75*
G02*
X0140748Y0244881I-000335J0000000D01*
G01*
X0138071Y0244881D01*
G75*
G02*
X0137737Y0245216I0000000J0000335D01*
G01*
X0137737Y0247893D01*
G75*
G02*
X0138071Y0248228I0000335J0000000D01*
G01*
X0140748Y0248228D01*
G75*
G02*
X0141083Y0247893I0000000J-000335D01*
G01*
G37*
X0415355Y0238139D03*
X0410630Y0238139D03*
X0420079Y0238139D03*
X0424804Y0238139D03*
X0399371Y0294931D03*
X0395434Y0294931D03*
G36*
G01*
X0139922Y0226023D02*
X0137245Y0226023D01*
G75*
G02*
X0136910Y0226358I0000000J0000335D01*
G01*
X0136910Y0229035D01*
G75*
G02*
X0137245Y0229370I0000335J0000000D01*
G01*
X0139922Y0229370D01*
G75*
G02*
X0140256Y0229035I0000000J-000335D01*
G01*
X0140256Y0226358D01*
G75*
G02*
X0139922Y0226023I-000335J0000000D01*
G01*
G37*
G36*
G01*
X0139922Y0232244D02*
X0137245Y0232244D01*
G75*
G02*
X0136910Y0232578I0000000J0000335D01*
G01*
X0136910Y0235255D01*
G75*
G02*
X0137245Y0235590I0000335J0000000D01*
G01*
X0139922Y0235590D01*
G75*
G02*
X0140256Y0235255I0000000J-000335D01*
G01*
X0140256Y0232578D01*
G75*
G02*
X0139922Y0232244I-000335J0000000D01*
G01*
G37*
G36*
G01*
X0406497Y0210629D02*
X0406497Y0215551D01*
G75*
G02*
X0406890Y0215944I0000394J0000000D01*
G01*
X0410040Y0215944D01*
G75*
G02*
X0410434Y0215551I0000000J-000394D01*
G01*
X0410434Y0210629D01*
G75*
G02*
X0410040Y0210236I-000394J0000000D01*
G01*
X0406890Y0210236D01*
G75*
G02*
X0406497Y0210629I0000000J0000394D01*
G01*
G37*
G36*
G01*
X0413977Y0210629D02*
X0413977Y0215551D01*
G75*
G02*
X0414371Y0215944I0000394J0000000D01*
G01*
X0417520Y0215944D01*
G75*
G02*
X0417914Y0215551I0000000J-000394D01*
G01*
X0417914Y0210629D01*
G75*
G02*
X0417520Y0210236I-000394J0000000D01*
G01*
X0414371Y0210236D01*
G75*
G02*
X0413977Y0210629I0000000J0000394D01*
G01*
G37*
G36*
G01*
X0392717Y0222440D02*
X0392717Y0227362D01*
G75*
G02*
X0393111Y0227755I0000394J0000000D01*
G01*
X0396260Y0227755D01*
G75*
G02*
X0396654Y0227362I0000000J-000394D01*
G01*
X0396654Y0222440D01*
G75*
G02*
X0396260Y0222047I-000394J0000000D01*
G01*
X0393111Y0222047D01*
G75*
G02*
X0392717Y0222440I0000000J0000394D01*
G01*
G37*
G36*
G01*
X0400197Y0222440D02*
X0400197Y0227362D01*
G75*
G02*
X0400591Y0227755I0000394J0000000D01*
G01*
X0403741Y0227755D01*
G75*
G02*
X0404134Y0227362I0000000J-000394D01*
G01*
X0404134Y0222440D01*
G75*
G02*
X0403741Y0222047I-000394J0000000D01*
G01*
X0400591Y0222047D01*
G75*
G02*
X0400197Y0222440I0000000J0000394D01*
G01*
G37*
G36*
G01*
X0239941Y0215255D02*
X0238760Y0215255D01*
G75*
G02*
X0238170Y0215846I0000000J0000591D01*
G01*
X0238170Y0222342D01*
G75*
G02*
X0238760Y0222933I0000591J0000000D01*
G01*
X0239941Y0222933D01*
G75*
G02*
X0240532Y0222342I0000000J-000591D01*
G01*
X0240532Y0215846D01*
G75*
G02*
X0239941Y0215255I-000591J0000000D01*
G01*
G37*
G36*
G01*
X0244941Y0215255D02*
X0243760Y0215255D01*
G75*
G02*
X0243170Y0215846I0000000J0000591D01*
G01*
X0243170Y0222342D01*
G75*
G02*
X0243760Y0222933I0000591J0000000D01*
G01*
X0244941Y0222933D01*
G75*
G02*
X0245532Y0222342I0000000J-000591D01*
G01*
X0245532Y0215846D01*
G75*
G02*
X0244941Y0215255I-000591J0000000D01*
G01*
G37*
G36*
G01*
X0249941Y0215255D02*
X0248760Y0215255D01*
G75*
G02*
X0248170Y0215846I0000000J0000591D01*
G01*
X0248170Y0222342D01*
G75*
G02*
X0248760Y0222933I0000591J0000000D01*
G01*
X0249941Y0222933D01*
G75*
G02*
X0250532Y0222342I0000000J-000591D01*
G01*
X0250532Y0215846D01*
G75*
G02*
X0249941Y0215255I-000591J0000000D01*
G01*
G37*
G36*
G01*
X0254941Y0215255D02*
X0253760Y0215255D01*
G75*
G02*
X0253170Y0215846I0000000J0000591D01*
G01*
X0253170Y0222342D01*
G75*
G02*
X0253760Y0222933I0000591J0000000D01*
G01*
X0254941Y0222933D01*
G75*
G02*
X0255532Y0222342I0000000J-000591D01*
G01*
X0255532Y0215846D01*
G75*
G02*
X0254941Y0215255I-000591J0000000D01*
G01*
G37*
G36*
G01*
X0254941Y0234744D02*
X0253760Y0234744D01*
G75*
G02*
X0253170Y0235334I0000000J0000591D01*
G01*
X0253170Y0241830D01*
G75*
G02*
X0253760Y0242421I0000591J0000000D01*
G01*
X0254941Y0242421D01*
G75*
G02*
X0255532Y0241830I0000000J-000591D01*
G01*
X0255532Y0235334D01*
G75*
G02*
X0254941Y0234744I-000591J0000000D01*
G01*
G37*
G36*
G01*
X0249941Y0234744D02*
X0248760Y0234744D01*
G75*
G02*
X0248170Y0235334I0000000J0000591D01*
G01*
X0248170Y0241830D01*
G75*
G02*
X0248760Y0242421I0000591J0000000D01*
G01*
X0249941Y0242421D01*
G75*
G02*
X0250532Y0241830I0000000J-000591D01*
G01*
X0250532Y0235334D01*
G75*
G02*
X0249941Y0234744I-000591J0000000D01*
G01*
G37*
G36*
G01*
X0244941Y0234744D02*
X0243760Y0234744D01*
G75*
G02*
X0243170Y0235334I0000000J0000591D01*
G01*
X0243170Y0241830D01*
G75*
G02*
X0243760Y0242421I0000591J0000000D01*
G01*
X0244941Y0242421D01*
G75*
G02*
X0245532Y0241830I0000000J-000591D01*
G01*
X0245532Y0235334D01*
G75*
G02*
X0244941Y0234744I-000591J0000000D01*
G01*
G37*
G36*
G01*
X0239941Y0234744D02*
X0238760Y0234744D01*
G75*
G02*
X0238170Y0235334I0000000J0000591D01*
G01*
X0238170Y0241830D01*
G75*
G02*
X0238760Y0242421I0000591J0000000D01*
G01*
X0239941Y0242421D01*
G75*
G02*
X0240532Y0241830I0000000J-000591D01*
G01*
X0240532Y0235334D01*
G75*
G02*
X0239941Y0234744I-000591J0000000D01*
G01*
G37*
D28*
X0132678Y0293602D03*
G36*
G01*
X0129134Y0288307D02*
X0129134Y0291023D01*
G75*
G02*
X0130040Y0291929I0000906J0000000D01*
G01*
X0135315Y0291929D01*
G75*
G02*
X0136221Y0291023I0000000J-000906D01*
G01*
X0136221Y0288307D01*
G75*
G02*
X0135315Y0287401I-000906J0000000D01*
G01*
X0130040Y0287401D01*
G75*
G02*
X0129134Y0288307I0000000J0000906D01*
G01*
G37*
G36*
G01*
X0129134Y0276889D02*
X0129134Y0279606D01*
G75*
G02*
X0130040Y0280511I0000906J0000000D01*
G01*
X0135315Y0280511D01*
G75*
G02*
X0136221Y0279606I0000000J-000906D01*
G01*
X0136221Y0276889D01*
G75*
G02*
X0135315Y0275984I-000906J0000000D01*
G01*
X0130040Y0275984D01*
G75*
G02*
X0129134Y0276889I0000000J0000906D01*
G01*
G37*
X0132678Y0274311D03*
G36*
G01*
X0260473Y0250196D02*
X0257717Y0250196D01*
G75*
G02*
X0256733Y0251181I0000000J0000984D01*
G01*
X0256733Y0257874D01*
G75*
G02*
X0257717Y0258858I0000984J0000000D01*
G01*
X0260473Y0258858D01*
G75*
G02*
X0261457Y0257874I0000000J-000984D01*
G01*
X0261457Y0251181D01*
G75*
G02*
X0260473Y0250196I-000984J0000000D01*
G01*
G37*
G36*
G01*
X0278504Y0266732D02*
X0257638Y0266732D01*
G75*
G02*
X0256654Y0267716I0000000J0000984D01*
G01*
X0256654Y0290944D01*
G75*
G02*
X0257638Y0291929I0000984J0000000D01*
G01*
X0278504Y0291929D01*
G75*
G02*
X0279489Y0290944I0000000J-000984D01*
G01*
X0279489Y0267716D01*
G75*
G02*
X0278504Y0266732I-000984J0000000D01*
G01*
G37*
G36*
G01*
X0278426Y0250196D02*
X0275670Y0250196D01*
G75*
G02*
X0274685Y0251181I0000000J0000984D01*
G01*
X0274685Y0257874D01*
G75*
G02*
X0275670Y0258858I0000984J0000000D01*
G01*
X0278426Y0258858D01*
G75*
G02*
X0279410Y0257874I0000000J-000984D01*
G01*
X0279410Y0251181D01*
G75*
G02*
X0278426Y0250196I-000984J0000000D01*
G01*
G37*
X0209449Y0104645D03*
G36*
G01*
X0206989Y0102854D02*
X0211910Y0102854D01*
G75*
G02*
X0212304Y0102460I0000000J-000394D01*
G01*
X0212304Y0099311D01*
G75*
G02*
X0211910Y0098917I-000394J0000000D01*
G01*
X0206989Y0098917D01*
G75*
G02*
X0206595Y0099311I0000000J0000394D01*
G01*
X0206595Y0102460D01*
G75*
G02*
X0206989Y0102854I0000394J0000000D01*
G01*
G37*
G36*
G01*
X0206989Y0095373D02*
X0211910Y0095373D01*
G75*
G02*
X0212304Y0094980I0000000J-000394D01*
G01*
X0212304Y0091830D01*
G75*
G02*
X0211910Y0091436I-000394J0000000D01*
G01*
X0206989Y0091436D01*
G75*
G02*
X0206595Y0091830I0000000J0000394D01*
G01*
X0206595Y0094980D01*
G75*
G02*
X0206989Y0095373I0000394J0000000D01*
G01*
G37*
X0209449Y0089645D03*
G36*
G01*
X0406497Y0198818D02*
X0406497Y0203740D01*
G75*
G02*
X0406890Y0204133I0000394J0000000D01*
G01*
X0410040Y0204133D01*
G75*
G02*
X0410434Y0203740I0000000J-000394D01*
G01*
X0410434Y0198818D01*
G75*
G02*
X0410040Y0198425I-000394J0000000D01*
G01*
X0406890Y0198425D01*
G75*
G02*
X0406497Y0198818I0000000J0000394D01*
G01*
G37*
G36*
G01*
X0413977Y0198818D02*
X0413977Y0203740D01*
G75*
G02*
X0414371Y0204133I0000394J0000000D01*
G01*
X0417520Y0204133D01*
G75*
G02*
X0417914Y0203740I0000000J-000394D01*
G01*
X0417914Y0198818D01*
G75*
G02*
X0417520Y0198425I-000394J0000000D01*
G01*
X0414371Y0198425D01*
G75*
G02*
X0413977Y0198818I0000000J0000394D01*
G01*
G37*
X0467126Y0199311D03*
G36*
G01*
X0461831Y0202854D02*
X0464548Y0202854D01*
G75*
G02*
X0465453Y0201948I0000000J-000906D01*
G01*
X0465453Y0196673D01*
G75*
G02*
X0464548Y0195767I-000906J0000000D01*
G01*
X0461831Y0195767D01*
G75*
G02*
X0460926Y0196673I0000000J0000906D01*
G01*
X0460926Y0201948D01*
G75*
G02*
X0461831Y0202854I0000906J0000000D01*
G01*
G37*
G36*
G01*
X0450414Y0202854D02*
X0453130Y0202854D01*
G75*
G02*
X0454036Y0201948I0000000J-000906D01*
G01*
X0454036Y0196673D01*
G75*
G02*
X0453130Y0195767I-000906J0000000D01*
G01*
X0450414Y0195767D01*
G75*
G02*
X0449508Y0196673I0000000J0000906D01*
G01*
X0449508Y0201948D01*
G75*
G02*
X0450414Y0202854I0000906J0000000D01*
G01*
G37*
X0447835Y0199311D03*
X0122835Y0293602D03*
G36*
G01*
X0119292Y0288307D02*
X0119292Y0291023D01*
G75*
G02*
X0120197Y0291929I0000906J0000000D01*
G01*
X0125473Y0291929D01*
G75*
G02*
X0126378Y0291023I0000000J-000906D01*
G01*
X0126378Y0288307D01*
G75*
G02*
X0125473Y0287401I-000906J0000000D01*
G01*
X0120197Y0287401D01*
G75*
G02*
X0119292Y0288307I0000000J0000906D01*
G01*
G37*
G36*
G01*
X0119292Y0276889D02*
X0119292Y0279606D01*
G75*
G02*
X0120197Y0280511I0000906J0000000D01*
G01*
X0125473Y0280511D01*
G75*
G02*
X0126378Y0279606I0000000J-000906D01*
G01*
X0126378Y0276889D01*
G75*
G02*
X0125473Y0275984I-000906J0000000D01*
G01*
X0120197Y0275984D01*
G75*
G02*
X0119292Y0276889I0000000J0000906D01*
G01*
G37*
X0122835Y0274311D03*
G36*
G01*
X0562599Y0293110D02*
X0561418Y0293110D01*
G75*
G02*
X0560827Y0293700I0000000J0000591D01*
G01*
X0560827Y0298326D01*
G75*
G02*
X0561418Y0298917I0000591J0000000D01*
G01*
X0562599Y0298917D01*
G75*
G02*
X0563189Y0298326I0000000J-000591D01*
G01*
X0563189Y0293700D01*
G75*
G02*
X0562599Y0293110I-000591J0000000D01*
G01*
G37*
G36*
G01*
X0570079Y0293110D02*
X0568898Y0293110D01*
G75*
G02*
X0568308Y0293700I0000000J0000591D01*
G01*
X0568308Y0298326D01*
G75*
G02*
X0568898Y0298917I0000591J0000000D01*
G01*
X0570079Y0298917D01*
G75*
G02*
X0570670Y0298326I0000000J-000591D01*
G01*
X0570670Y0293700D01*
G75*
G02*
X0570079Y0293110I-000591J0000000D01*
G01*
G37*
G36*
G01*
X0566339Y0300492D02*
X0565158Y0300492D01*
G75*
G02*
X0564567Y0301082I0000000J0000591D01*
G01*
X0564567Y0305708D01*
G75*
G02*
X0565158Y0306299I0000591J0000000D01*
G01*
X0566339Y0306299D01*
G75*
G02*
X0566930Y0305708I0000000J-000591D01*
G01*
X0566930Y0301082D01*
G75*
G02*
X0566339Y0300492I-000591J0000000D01*
G01*
G37*
G36*
G01*
X0137205Y0052362D02*
X0137205Y0057677D01*
G75*
G02*
X0138189Y0058661I0000984J0000000D01*
G01*
X0142914Y0058661D01*
G75*
G02*
X0143898Y0057677I0000000J-000984D01*
G01*
X0143898Y0052362D01*
G75*
G02*
X0142914Y0051377I-000984J0000000D01*
G01*
X0138189Y0051377D01*
G75*
G02*
X0137205Y0052362I0000000J0000984D01*
G01*
G37*
D29*
X0150394Y0055019D03*
X0160237Y0055019D03*
X0170079Y0055019D03*
X0179922Y0055019D03*
G36*
G01*
X0561221Y0282421D02*
X0561221Y0285492D01*
G75*
G02*
X0561497Y0285767I0000276J0000000D01*
G01*
X0563701Y0285767D01*
G75*
G02*
X0563977Y0285492I0000000J-000276D01*
G01*
X0563977Y0282421D01*
G75*
G02*
X0563701Y0282145I-000276J0000000D01*
G01*
X0561497Y0282145D01*
G75*
G02*
X0561221Y0282421I0000000J0000276D01*
G01*
G37*
G36*
G01*
X0567520Y0282421D02*
X0567520Y0285492D01*
G75*
G02*
X0567796Y0285767I0000276J0000000D01*
G01*
X0570000Y0285767D01*
G75*
G02*
X0570276Y0285492I0000000J-000276D01*
G01*
X0570276Y0282421D01*
G75*
G02*
X0570000Y0282145I-000276J0000000D01*
G01*
X0567796Y0282145D01*
G75*
G02*
X0567520Y0282421I0000000J0000276D01*
G01*
G37*
G36*
G01*
X0148130Y0273484D02*
X0148130Y0270807D01*
G75*
G02*
X0147796Y0270472I-000335J0000000D01*
G01*
X0145119Y0270472D01*
G75*
G02*
X0144784Y0270807I0000000J0000335D01*
G01*
X0144784Y0273484D01*
G75*
G02*
X0145119Y0273818I0000335J0000000D01*
G01*
X0147796Y0273818D01*
G75*
G02*
X0148130Y0273484I0000000J-000335D01*
G01*
G37*
G36*
G01*
X0141910Y0273484D02*
X0141910Y0270807D01*
G75*
G02*
X0141575Y0270472I-000335J0000000D01*
G01*
X0138898Y0270472D01*
G75*
G02*
X0138563Y0270807I0000000J0000335D01*
G01*
X0138563Y0273484D01*
G75*
G02*
X0138898Y0273818I0000335J0000000D01*
G01*
X0141575Y0273818D01*
G75*
G02*
X0141910Y0273484I0000000J-000335D01*
G01*
G37*
G36*
G01*
X0145670Y0264960D02*
X0146851Y0264960D01*
G75*
G02*
X0147441Y0264370I0000000J-000591D01*
G01*
X0147441Y0259744D01*
G75*
G02*
X0146851Y0259153I-000591J0000000D01*
G01*
X0145670Y0259153D01*
G75*
G02*
X0145079Y0259744I0000000J0000591D01*
G01*
X0145079Y0264370D01*
G75*
G02*
X0145670Y0264960I0000591J0000000D01*
G01*
G37*
G36*
G01*
X0138189Y0264960D02*
X0139371Y0264960D01*
G75*
G02*
X0139961Y0264370I0000000J-000591D01*
G01*
X0139961Y0259744D01*
G75*
G02*
X0139371Y0259153I-000591J0000000D01*
G01*
X0138189Y0259153D01*
G75*
G02*
X0137599Y0259744I0000000J0000591D01*
G01*
X0137599Y0264370D01*
G75*
G02*
X0138189Y0264960I0000591J0000000D01*
G01*
G37*
G36*
G01*
X0141930Y0257578D02*
X0143111Y0257578D01*
G75*
G02*
X0143701Y0256988I0000000J-000591D01*
G01*
X0143701Y0252362D01*
G75*
G02*
X0143111Y0251771I-000591J0000000D01*
G01*
X0141930Y0251771D01*
G75*
G02*
X0141339Y0252362I0000000J0000591D01*
G01*
X0141339Y0256988D01*
G75*
G02*
X0141930Y0257578I0000591J0000000D01*
G01*
G37*
G36*
G01*
X0297028Y0215255D02*
X0295847Y0215255D01*
G75*
G02*
X0295256Y0215846I0000000J0000591D01*
G01*
X0295256Y0222342D01*
G75*
G02*
X0295847Y0222933I0000591J0000000D01*
G01*
X0297028Y0222933D01*
G75*
G02*
X0297619Y0222342I0000000J-000591D01*
G01*
X0297619Y0215846D01*
G75*
G02*
X0297028Y0215255I-000591J0000000D01*
G01*
G37*
G36*
G01*
X0302028Y0215255D02*
X0300847Y0215255D01*
G75*
G02*
X0300256Y0215846I0000000J0000591D01*
G01*
X0300256Y0222342D01*
G75*
G02*
X0300847Y0222933I0000591J0000000D01*
G01*
X0302028Y0222933D01*
G75*
G02*
X0302619Y0222342I0000000J-000591D01*
G01*
X0302619Y0215846D01*
G75*
G02*
X0302028Y0215255I-000591J0000000D01*
G01*
G37*
G36*
G01*
X0307028Y0215255D02*
X0305847Y0215255D01*
G75*
G02*
X0305256Y0215846I0000000J0000591D01*
G01*
X0305256Y0222342D01*
G75*
G02*
X0305847Y0222933I0000591J0000000D01*
G01*
X0307028Y0222933D01*
G75*
G02*
X0307619Y0222342I0000000J-000591D01*
G01*
X0307619Y0215846D01*
G75*
G02*
X0307028Y0215255I-000591J0000000D01*
G01*
G37*
G36*
G01*
X0312028Y0215255D02*
X0310847Y0215255D01*
G75*
G02*
X0310256Y0215846I0000000J0000591D01*
G01*
X0310256Y0222342D01*
G75*
G02*
X0310847Y0222933I0000591J0000000D01*
G01*
X0312028Y0222933D01*
G75*
G02*
X0312619Y0222342I0000000J-000591D01*
G01*
X0312619Y0215846D01*
G75*
G02*
X0312028Y0215255I-000591J0000000D01*
G01*
G37*
G36*
G01*
X0312028Y0234744D02*
X0310847Y0234744D01*
G75*
G02*
X0310256Y0235334I0000000J0000591D01*
G01*
X0310256Y0241830D01*
G75*
G02*
X0310847Y0242421I0000591J0000000D01*
G01*
X0312028Y0242421D01*
G75*
G02*
X0312619Y0241830I0000000J-000591D01*
G01*
X0312619Y0235334D01*
G75*
G02*
X0312028Y0234744I-000591J0000000D01*
G01*
G37*
G36*
G01*
X0307028Y0234744D02*
X0305847Y0234744D01*
G75*
G02*
X0305256Y0235334I0000000J0000591D01*
G01*
X0305256Y0241830D01*
G75*
G02*
X0305847Y0242421I0000591J0000000D01*
G01*
X0307028Y0242421D01*
G75*
G02*
X0307619Y0241830I0000000J-000591D01*
G01*
X0307619Y0235334D01*
G75*
G02*
X0307028Y0234744I-000591J0000000D01*
G01*
G37*
G36*
G01*
X0302028Y0234744D02*
X0300847Y0234744D01*
G75*
G02*
X0300256Y0235334I0000000J0000591D01*
G01*
X0300256Y0241830D01*
G75*
G02*
X0300847Y0242421I0000591J0000000D01*
G01*
X0302028Y0242421D01*
G75*
G02*
X0302619Y0241830I0000000J-000591D01*
G01*
X0302619Y0235334D01*
G75*
G02*
X0302028Y0234744I-000591J0000000D01*
G01*
G37*
G36*
G01*
X0297028Y0234744D02*
X0295847Y0234744D01*
G75*
G02*
X0295256Y0235334I0000000J0000591D01*
G01*
X0295256Y0241830D01*
G75*
G02*
X0295847Y0242421I0000591J0000000D01*
G01*
X0297028Y0242421D01*
G75*
G02*
X0297619Y0241830I0000000J-000591D01*
G01*
X0297619Y0235334D01*
G75*
G02*
X0297028Y0234744I-000591J0000000D01*
G01*
G37*
G36*
G01*
X0195945Y0250196D02*
X0193189Y0250196D01*
G75*
G02*
X0192205Y0251181I0000000J0000984D01*
G01*
X0192205Y0257874D01*
G75*
G02*
X0193189Y0258858I0000984J0000000D01*
G01*
X0195945Y0258858D01*
G75*
G02*
X0196930Y0257874I0000000J-000984D01*
G01*
X0196930Y0251181D01*
G75*
G02*
X0195945Y0250196I-000984J0000000D01*
G01*
G37*
G36*
G01*
X0213977Y0266732D02*
X0193111Y0266732D01*
G75*
G02*
X0192126Y0267716I0000000J0000984D01*
G01*
X0192126Y0290944D01*
G75*
G02*
X0193111Y0291929I0000984J0000000D01*
G01*
X0213977Y0291929D01*
G75*
G02*
X0214961Y0290944I0000000J-000984D01*
G01*
X0214961Y0267716D01*
G75*
G02*
X0213977Y0266732I-000984J0000000D01*
G01*
G37*
G36*
G01*
X0213898Y0250196D02*
X0211142Y0250196D01*
G75*
G02*
X0210158Y0251181I0000000J0000984D01*
G01*
X0210158Y0257874D01*
G75*
G02*
X0211142Y0258858I0000984J0000000D01*
G01*
X0213898Y0258858D01*
G75*
G02*
X0214882Y0257874I0000000J-000984D01*
G01*
X0214882Y0251181D01*
G75*
G02*
X0213898Y0250196I-000984J0000000D01*
G01*
G37*
D11*
X0375296Y0237401D03*
X0370571Y0237401D03*
X0380020Y0237401D03*
X0384745Y0237401D03*
X0359311Y0294192D03*
X0355374Y0294192D03*
G36*
G01*
X0435394Y0269586D02*
X0432323Y0269586D01*
G75*
G02*
X0432048Y0269862I0000000J0000276D01*
G01*
X0432048Y0272066D01*
G75*
G02*
X0432323Y0272342I0000276J0000000D01*
G01*
X0435394Y0272342D01*
G75*
G02*
X0435670Y0272066I0000000J-000276D01*
G01*
X0435670Y0269862D01*
G75*
G02*
X0435394Y0269586I-000276J0000000D01*
G01*
G37*
G36*
G01*
X0435394Y0275885D02*
X0432323Y0275885D01*
G75*
G02*
X0432048Y0276161I0000000J0000276D01*
G01*
X0432048Y0278366D01*
G75*
G02*
X0432323Y0278641I0000276J0000000D01*
G01*
X0435394Y0278641D01*
G75*
G02*
X0435670Y0278366I0000000J-000276D01*
G01*
X0435670Y0276161D01*
G75*
G02*
X0435394Y0275885I-000276J0000000D01*
G01*
G37*
G36*
G01*
X0576024Y0304232D02*
X0579095Y0304232D01*
G75*
G02*
X0579371Y0303956I0000000J-000276D01*
G01*
X0579371Y0301751D01*
G75*
G02*
X0579095Y0301476I-000276J0000000D01*
G01*
X0576024Y0301476D01*
G75*
G02*
X0575748Y0301751I0000000J0000276D01*
G01*
X0575748Y0303956D01*
G75*
G02*
X0576024Y0304232I0000276J0000000D01*
G01*
G37*
G36*
G01*
X0576024Y0297933D02*
X0579095Y0297933D01*
G75*
G02*
X0579371Y0297657I0000000J-000276D01*
G01*
X0579371Y0295452D01*
G75*
G02*
X0579095Y0295177I-000276J0000000D01*
G01*
X0576024Y0295177D01*
G75*
G02*
X0575748Y0295452I0000000J0000276D01*
G01*
X0575748Y0297657D01*
G75*
G02*
X0576024Y0297933I0000276J0000000D01*
G01*
G37*
G36*
G01*
X0371300Y0230216D02*
X0374371Y0230216D01*
G75*
G02*
X0374646Y0229940I0000000J-000276D01*
G01*
X0374646Y0227736D01*
G75*
G02*
X0374371Y0227460I-000276J0000000D01*
G01*
X0371300Y0227460D01*
G75*
G02*
X0371024Y0227736I0000000J0000276D01*
G01*
X0371024Y0229940D01*
G75*
G02*
X0371300Y0230216I0000276J0000000D01*
G01*
G37*
G36*
G01*
X0371300Y0223917D02*
X0374371Y0223917D01*
G75*
G02*
X0374646Y0223641I0000000J-000276D01*
G01*
X0374646Y0221437D01*
G75*
G02*
X0374371Y0221161I-000276J0000000D01*
G01*
X0371300Y0221161D01*
G75*
G02*
X0371024Y0221437I0000000J0000276D01*
G01*
X0371024Y0223641D01*
G75*
G02*
X0371300Y0223917I0000276J0000000D01*
G01*
G37*
G36*
G01*
X0268032Y0215255D02*
X0266851Y0215255D01*
G75*
G02*
X0266260Y0215846I0000000J0000591D01*
G01*
X0266260Y0222342D01*
G75*
G02*
X0266851Y0222933I0000591J0000000D01*
G01*
X0268032Y0222933D01*
G75*
G02*
X0268623Y0222342I0000000J-000591D01*
G01*
X0268623Y0215846D01*
G75*
G02*
X0268032Y0215255I-000591J0000000D01*
G01*
G37*
G36*
G01*
X0273032Y0215255D02*
X0271851Y0215255D01*
G75*
G02*
X0271260Y0215846I0000000J0000591D01*
G01*
X0271260Y0222342D01*
G75*
G02*
X0271851Y0222933I0000591J0000000D01*
G01*
X0273032Y0222933D01*
G75*
G02*
X0273623Y0222342I0000000J-000591D01*
G01*
X0273623Y0215846D01*
G75*
G02*
X0273032Y0215255I-000591J0000000D01*
G01*
G37*
G36*
G01*
X0278032Y0215255D02*
X0276851Y0215255D01*
G75*
G02*
X0276260Y0215846I0000000J0000591D01*
G01*
X0276260Y0222342D01*
G75*
G02*
X0276851Y0222933I0000591J0000000D01*
G01*
X0278032Y0222933D01*
G75*
G02*
X0278623Y0222342I0000000J-000591D01*
G01*
X0278623Y0215846D01*
G75*
G02*
X0278032Y0215255I-000591J0000000D01*
G01*
G37*
G36*
G01*
X0283032Y0215255D02*
X0281851Y0215255D01*
G75*
G02*
X0281260Y0215846I0000000J0000591D01*
G01*
X0281260Y0222342D01*
G75*
G02*
X0281851Y0222933I0000591J0000000D01*
G01*
X0283032Y0222933D01*
G75*
G02*
X0283623Y0222342I0000000J-000591D01*
G01*
X0283623Y0215846D01*
G75*
G02*
X0283032Y0215255I-000591J0000000D01*
G01*
G37*
G36*
G01*
X0283032Y0234744D02*
X0281851Y0234744D01*
G75*
G02*
X0281260Y0235334I0000000J0000591D01*
G01*
X0281260Y0241830D01*
G75*
G02*
X0281851Y0242421I0000591J0000000D01*
G01*
X0283032Y0242421D01*
G75*
G02*
X0283623Y0241830I0000000J-000591D01*
G01*
X0283623Y0235334D01*
G75*
G02*
X0283032Y0234744I-000591J0000000D01*
G01*
G37*
G36*
G01*
X0278032Y0234744D02*
X0276851Y0234744D01*
G75*
G02*
X0276260Y0235334I0000000J0000591D01*
G01*
X0276260Y0241830D01*
G75*
G02*
X0276851Y0242421I0000591J0000000D01*
G01*
X0278032Y0242421D01*
G75*
G02*
X0278623Y0241830I0000000J-000591D01*
G01*
X0278623Y0235334D01*
G75*
G02*
X0278032Y0234744I-000591J0000000D01*
G01*
G37*
G36*
G01*
X0273032Y0234744D02*
X0271851Y0234744D01*
G75*
G02*
X0271260Y0235334I0000000J0000591D01*
G01*
X0271260Y0241830D01*
G75*
G02*
X0271851Y0242421I0000591J0000000D01*
G01*
X0273032Y0242421D01*
G75*
G02*
X0273623Y0241830I0000000J-000591D01*
G01*
X0273623Y0235334D01*
G75*
G02*
X0273032Y0234744I-000591J0000000D01*
G01*
G37*
G36*
G01*
X0268032Y0234744D02*
X0266851Y0234744D01*
G75*
G02*
X0266260Y0235334I0000000J0000591D01*
G01*
X0266260Y0241830D01*
G75*
G02*
X0266851Y0242421I0000591J0000000D01*
G01*
X0268032Y0242421D01*
G75*
G02*
X0268623Y0241830I0000000J-000591D01*
G01*
X0268623Y0235334D01*
G75*
G02*
X0268032Y0234744I-000591J0000000D01*
G01*
G37*
G36*
G01*
X0143480Y0294685D02*
X0145498Y0294685D01*
G75*
G02*
X0146359Y0293823I0000000J-000861D01*
G01*
X0146359Y0292101D01*
G75*
G02*
X0145498Y0291240I-000861J0000000D01*
G01*
X0143480Y0291240D01*
G75*
G02*
X0142619Y0292101I0000000J0000861D01*
G01*
X0142619Y0293823D01*
G75*
G02*
X0143480Y0294685I0000861J0000000D01*
G01*
G37*
G36*
G01*
X0143480Y0288484D02*
X0145498Y0288484D01*
G75*
G02*
X0146359Y0287623I0000000J-000861D01*
G01*
X0146359Y0285900D01*
G75*
G02*
X0145498Y0285039I-000861J0000000D01*
G01*
X0143480Y0285039D01*
G75*
G02*
X0142619Y0285900I0000000J0000861D01*
G01*
X0142619Y0287623D01*
G75*
G02*
X0143480Y0288484I0000861J0000000D01*
G01*
G37*
G36*
G01*
X0406497Y0222440D02*
X0406497Y0227362D01*
G75*
G02*
X0406890Y0227755I0000394J0000000D01*
G01*
X0410040Y0227755D01*
G75*
G02*
X0410434Y0227362I0000000J-000394D01*
G01*
X0410434Y0222440D01*
G75*
G02*
X0410040Y0222047I-000394J0000000D01*
G01*
X0406890Y0222047D01*
G75*
G02*
X0406497Y0222440I0000000J0000394D01*
G01*
G37*
G36*
G01*
X0413977Y0222440D02*
X0413977Y0227362D01*
G75*
G02*
X0414371Y0227755I0000394J0000000D01*
G01*
X0417520Y0227755D01*
G75*
G02*
X0417914Y0227362I0000000J-000394D01*
G01*
X0417914Y0222440D01*
G75*
G02*
X0417520Y0222047I-000394J0000000D01*
G01*
X0414371Y0222047D01*
G75*
G02*
X0413977Y0222440I0000000J0000394D01*
G01*
G37*
G36*
G01*
X0392717Y0210629D02*
X0392717Y0215551D01*
G75*
G02*
X0393111Y0215944I0000394J0000000D01*
G01*
X0396260Y0215944D01*
G75*
G02*
X0396654Y0215551I0000000J-000394D01*
G01*
X0396654Y0210629D01*
G75*
G02*
X0396260Y0210236I-000394J0000000D01*
G01*
X0393111Y0210236D01*
G75*
G02*
X0392717Y0210629I0000000J0000394D01*
G01*
G37*
G36*
G01*
X0400197Y0210629D02*
X0400197Y0215551D01*
G75*
G02*
X0400591Y0215944I0000394J0000000D01*
G01*
X0403741Y0215944D01*
G75*
G02*
X0404134Y0215551I0000000J-000394D01*
G01*
X0404134Y0210629D01*
G75*
G02*
X0403741Y0210236I-000394J0000000D01*
G01*
X0400591Y0210236D01*
G75*
G02*
X0400197Y0210629I0000000J0000394D01*
G01*
G37*
G36*
G01*
X0214351Y0215255D02*
X0213170Y0215255D01*
G75*
G02*
X0212579Y0215846I0000000J0000591D01*
G01*
X0212579Y0222342D01*
G75*
G02*
X0213170Y0222933I0000591J0000000D01*
G01*
X0214351Y0222933D01*
G75*
G02*
X0214941Y0222342I0000000J-000591D01*
G01*
X0214941Y0215846D01*
G75*
G02*
X0214351Y0215255I-000591J0000000D01*
G01*
G37*
G36*
G01*
X0219351Y0215255D02*
X0218170Y0215255D01*
G75*
G02*
X0217579Y0215846I0000000J0000591D01*
G01*
X0217579Y0222342D01*
G75*
G02*
X0218170Y0222933I0000591J0000000D01*
G01*
X0219351Y0222933D01*
G75*
G02*
X0219941Y0222342I0000000J-000591D01*
G01*
X0219941Y0215846D01*
G75*
G02*
X0219351Y0215255I-000591J0000000D01*
G01*
G37*
G36*
G01*
X0224351Y0215255D02*
X0223170Y0215255D01*
G75*
G02*
X0222579Y0215846I0000000J0000591D01*
G01*
X0222579Y0222342D01*
G75*
G02*
X0223170Y0222933I0000591J0000000D01*
G01*
X0224351Y0222933D01*
G75*
G02*
X0224941Y0222342I0000000J-000591D01*
G01*
X0224941Y0215846D01*
G75*
G02*
X0224351Y0215255I-000591J0000000D01*
G01*
G37*
G36*
G01*
X0229351Y0215255D02*
X0228170Y0215255D01*
G75*
G02*
X0227579Y0215846I0000000J0000591D01*
G01*
X0227579Y0222342D01*
G75*
G02*
X0228170Y0222933I0000591J0000000D01*
G01*
X0229351Y0222933D01*
G75*
G02*
X0229941Y0222342I0000000J-000591D01*
G01*
X0229941Y0215846D01*
G75*
G02*
X0229351Y0215255I-000591J0000000D01*
G01*
G37*
G36*
G01*
X0229351Y0234744D02*
X0228170Y0234744D01*
G75*
G02*
X0227579Y0235334I0000000J0000591D01*
G01*
X0227579Y0241830D01*
G75*
G02*
X0228170Y0242421I0000591J0000000D01*
G01*
X0229351Y0242421D01*
G75*
G02*
X0229941Y0241830I0000000J-000591D01*
G01*
X0229941Y0235334D01*
G75*
G02*
X0229351Y0234744I-000591J0000000D01*
G01*
G37*
G36*
G01*
X0224351Y0234744D02*
X0223170Y0234744D01*
G75*
G02*
X0222579Y0235334I0000000J0000591D01*
G01*
X0222579Y0241830D01*
G75*
G02*
X0223170Y0242421I0000591J0000000D01*
G01*
X0224351Y0242421D01*
G75*
G02*
X0224941Y0241830I0000000J-000591D01*
G01*
X0224941Y0235334D01*
G75*
G02*
X0224351Y0234744I-000591J0000000D01*
G01*
G37*
G36*
G01*
X0219351Y0234744D02*
X0218170Y0234744D01*
G75*
G02*
X0217579Y0235334I0000000J0000591D01*
G01*
X0217579Y0241830D01*
G75*
G02*
X0218170Y0242421I0000591J0000000D01*
G01*
X0219351Y0242421D01*
G75*
G02*
X0219941Y0241830I0000000J-000591D01*
G01*
X0219941Y0235334D01*
G75*
G02*
X0219351Y0234744I-000591J0000000D01*
G01*
G37*
G36*
G01*
X0214351Y0234744D02*
X0213170Y0234744D01*
G75*
G02*
X0212579Y0235334I0000000J0000591D01*
G01*
X0212579Y0241830D01*
G75*
G02*
X0213170Y0242421I0000591J0000000D01*
G01*
X0214351Y0242421D01*
G75*
G02*
X0214941Y0241830I0000000J-000591D01*
G01*
X0214941Y0235334D01*
G75*
G02*
X0214351Y0234744I-000591J0000000D01*
G01*
G37*
G36*
G01*
X0603741Y0312500D02*
X0598623Y0312500D01*
G75*
G02*
X0597638Y0313484I0000000J0000984D01*
G01*
X0597638Y0321358D01*
G75*
G02*
X0598623Y0322342I0000984J0000000D01*
G01*
X0603741Y0322342D01*
G75*
G02*
X0604725Y0321358I0000000J-000984D01*
G01*
X0604725Y0313484D01*
G75*
G02*
X0603741Y0312500I-000984J0000000D01*
G01*
G37*
G36*
G01*
X0603741Y0328248D02*
X0598623Y0328248D01*
G75*
G02*
X0597638Y0329232I0000000J0000984D01*
G01*
X0597638Y0337106D01*
G75*
G02*
X0598623Y0338090I0000984J0000000D01*
G01*
X0603741Y0338090D01*
G75*
G02*
X0604725Y0337106I0000000J-000984D01*
G01*
X0604725Y0329232D01*
G75*
G02*
X0603741Y0328248I-000984J0000000D01*
G01*
G37*
D46*
X0208957Y0056594D03*
D47*
X0202067Y0059744D03*
X0208957Y0062893D03*
X0202067Y0066043D03*
X0208957Y0069192D03*
D48*
X0205512Y0048523D03*
X0205512Y0077263D03*
G36*
G01*
X0292737Y0250196D02*
X0289981Y0250196D01*
G75*
G02*
X0288997Y0251181I0000000J0000984D01*
G01*
X0288997Y0257874D01*
G75*
G02*
X0289981Y0258858I0000984J0000000D01*
G01*
X0292737Y0258858D01*
G75*
G02*
X0293721Y0257874I0000000J-000984D01*
G01*
X0293721Y0251181D01*
G75*
G02*
X0292737Y0250196I-000984J0000000D01*
G01*
G37*
G36*
G01*
X0310768Y0266732D02*
X0289902Y0266732D01*
G75*
G02*
X0288918Y0267716I0000000J0000984D01*
G01*
X0288918Y0290944D01*
G75*
G02*
X0289902Y0291929I0000984J0000000D01*
G01*
X0310768Y0291929D01*
G75*
G02*
X0311752Y0290944I0000000J-000984D01*
G01*
X0311752Y0267716D01*
G75*
G02*
X0310768Y0266732I-000984J0000000D01*
G01*
G37*
G36*
G01*
X0310689Y0250196D02*
X0307934Y0250196D01*
G75*
G02*
X0306949Y0251181I0000000J0000984D01*
G01*
X0306949Y0257874D01*
G75*
G02*
X0307934Y0258858I0000984J0000000D01*
G01*
X0310689Y0258858D01*
G75*
G02*
X0311674Y0257874I0000000J-000984D01*
G01*
X0311674Y0251181D01*
G75*
G02*
X0310689Y0250196I-000984J0000000D01*
G01*
G37*
G36*
G01*
X0134016Y0226023D02*
X0131339Y0226023D01*
G75*
G02*
X0131004Y0226358I0000000J0000335D01*
G01*
X0131004Y0229035D01*
G75*
G02*
X0131339Y0229370I0000335J0000000D01*
G01*
X0134016Y0229370D01*
G75*
G02*
X0134351Y0229035I0000000J-000335D01*
G01*
X0134351Y0226358D01*
G75*
G02*
X0134016Y0226023I-000335J0000000D01*
G01*
G37*
G36*
G01*
X0134016Y0232244D02*
X0131339Y0232244D01*
G75*
G02*
X0131004Y0232578I0000000J0000335D01*
G01*
X0131004Y0235255D01*
G75*
G02*
X0131339Y0235590I0000335J0000000D01*
G01*
X0134016Y0235590D01*
G75*
G02*
X0134351Y0235255I0000000J-000335D01*
G01*
X0134351Y0232578D01*
G75*
G02*
X0134016Y0232244I-000335J0000000D01*
G01*
G37*
D52*
X0185581Y0076699D03*
D54*
X0144833Y0076896D03*
X0146802Y0076896D03*
D11*
X0172589Y0081030D03*
X0169144Y0083097D03*
X0173770Y0086049D03*
X0173475Y0100026D03*
G36*
G01*
X0379174Y0230216D02*
X0382245Y0230216D01*
G75*
G02*
X0382520Y0229940I0000000J-000276D01*
G01*
X0382520Y0227736D01*
G75*
G02*
X0382245Y0227460I-000276J0000000D01*
G01*
X0379174Y0227460D01*
G75*
G02*
X0378898Y0227736I0000000J0000276D01*
G01*
X0378898Y0229940D01*
G75*
G02*
X0379174Y0230216I0000276J0000000D01*
G01*
G37*
G36*
G01*
X0379174Y0223917D02*
X0382245Y0223917D01*
G75*
G02*
X0382520Y0223641I0000000J-000276D01*
G01*
X0382520Y0221437D01*
G75*
G02*
X0382245Y0221161I-000276J0000000D01*
G01*
X0379174Y0221161D01*
G75*
G02*
X0378898Y0221437I0000000J0000276D01*
G01*
X0378898Y0223641D01*
G75*
G02*
X0379174Y0223917I0000276J0000000D01*
G01*
G37*
G36*
G01*
X0326556Y0215255D02*
X0325374Y0215255D01*
G75*
G02*
X0324784Y0215846I0000000J0000591D01*
G01*
X0324784Y0222342D01*
G75*
G02*
X0325374Y0222933I0000591J0000000D01*
G01*
X0326556Y0222933D01*
G75*
G02*
X0327146Y0222342I0000000J-000591D01*
G01*
X0327146Y0215846D01*
G75*
G02*
X0326556Y0215255I-000591J0000000D01*
G01*
G37*
G36*
G01*
X0331556Y0215255D02*
X0330374Y0215255D01*
G75*
G02*
X0329784Y0215846I0000000J0000591D01*
G01*
X0329784Y0222342D01*
G75*
G02*
X0330374Y0222933I0000591J0000000D01*
G01*
X0331556Y0222933D01*
G75*
G02*
X0332146Y0222342I0000000J-000591D01*
G01*
X0332146Y0215846D01*
G75*
G02*
X0331556Y0215255I-000591J0000000D01*
G01*
G37*
G36*
G01*
X0336556Y0215255D02*
X0335374Y0215255D01*
G75*
G02*
X0334784Y0215846I0000000J0000591D01*
G01*
X0334784Y0222342D01*
G75*
G02*
X0335374Y0222933I0000591J0000000D01*
G01*
X0336556Y0222933D01*
G75*
G02*
X0337146Y0222342I0000000J-000591D01*
G01*
X0337146Y0215846D01*
G75*
G02*
X0336556Y0215255I-000591J0000000D01*
G01*
G37*
G36*
G01*
X0341556Y0215255D02*
X0340374Y0215255D01*
G75*
G02*
X0339784Y0215846I0000000J0000591D01*
G01*
X0339784Y0222342D01*
G75*
G02*
X0340374Y0222933I0000591J0000000D01*
G01*
X0341556Y0222933D01*
G75*
G02*
X0342146Y0222342I0000000J-000591D01*
G01*
X0342146Y0215846D01*
G75*
G02*
X0341556Y0215255I-000591J0000000D01*
G01*
G37*
G36*
G01*
X0341556Y0234744D02*
X0340374Y0234744D01*
G75*
G02*
X0339784Y0235334I0000000J0000591D01*
G01*
X0339784Y0241830D01*
G75*
G02*
X0340374Y0242421I0000591J0000000D01*
G01*
X0341556Y0242421D01*
G75*
G02*
X0342146Y0241830I0000000J-000591D01*
G01*
X0342146Y0235334D01*
G75*
G02*
X0341556Y0234744I-000591J0000000D01*
G01*
G37*
G36*
G01*
X0336556Y0234744D02*
X0335374Y0234744D01*
G75*
G02*
X0334784Y0235334I0000000J0000591D01*
G01*
X0334784Y0241830D01*
G75*
G02*
X0335374Y0242421I0000591J0000000D01*
G01*
X0336556Y0242421D01*
G75*
G02*
X0337146Y0241830I0000000J-000591D01*
G01*
X0337146Y0235334D01*
G75*
G02*
X0336556Y0234744I-000591J0000000D01*
G01*
G37*
G36*
G01*
X0331556Y0234744D02*
X0330374Y0234744D01*
G75*
G02*
X0329784Y0235334I0000000J0000591D01*
G01*
X0329784Y0241830D01*
G75*
G02*
X0330374Y0242421I0000591J0000000D01*
G01*
X0331556Y0242421D01*
G75*
G02*
X0332146Y0241830I0000000J-000591D01*
G01*
X0332146Y0235334D01*
G75*
G02*
X0331556Y0234744I-000591J0000000D01*
G01*
G37*
G36*
G01*
X0326556Y0234744D02*
X0325374Y0234744D01*
G75*
G02*
X0324784Y0235334I0000000J0000591D01*
G01*
X0324784Y0241830D01*
G75*
G02*
X0325374Y0242421I0000591J0000000D01*
G01*
X0326556Y0242421D01*
G75*
G02*
X0327146Y0241830I0000000J-000591D01*
G01*
X0327146Y0235334D01*
G75*
G02*
X0326556Y0234744I-000591J0000000D01*
G01*
G37*
G36*
G01*
X0088367Y0103051D02*
X0087185Y0103051D01*
G75*
G02*
X0086595Y0103641I0000000J0000591D01*
G01*
X0086595Y0110137D01*
G75*
G02*
X0087185Y0110728I0000591J0000000D01*
G01*
X0088367Y0110728D01*
G75*
G02*
X0088957Y0110137I0000000J-000591D01*
G01*
X0088957Y0103641D01*
G75*
G02*
X0088367Y0103051I-000591J0000000D01*
G01*
G37*
G36*
G01*
X0093367Y0103051D02*
X0092185Y0103051D01*
G75*
G02*
X0091595Y0103641I0000000J0000591D01*
G01*
X0091595Y0110137D01*
G75*
G02*
X0092185Y0110728I0000591J0000000D01*
G01*
X0093367Y0110728D01*
G75*
G02*
X0093957Y0110137I0000000J-000591D01*
G01*
X0093957Y0103641D01*
G75*
G02*
X0093367Y0103051I-000591J0000000D01*
G01*
G37*
G36*
G01*
X0098367Y0103051D02*
X0097185Y0103051D01*
G75*
G02*
X0096595Y0103641I0000000J0000591D01*
G01*
X0096595Y0110137D01*
G75*
G02*
X0097185Y0110728I0000591J0000000D01*
G01*
X0098367Y0110728D01*
G75*
G02*
X0098957Y0110137I0000000J-000591D01*
G01*
X0098957Y0103641D01*
G75*
G02*
X0098367Y0103051I-000591J0000000D01*
G01*
G37*
G36*
G01*
X0103367Y0103051D02*
X0102185Y0103051D01*
G75*
G02*
X0101595Y0103641I0000000J0000591D01*
G01*
X0101595Y0110137D01*
G75*
G02*
X0102185Y0110728I0000591J0000000D01*
G01*
X0103367Y0110728D01*
G75*
G02*
X0103957Y0110137I0000000J-000591D01*
G01*
X0103957Y0103641D01*
G75*
G02*
X0103367Y0103051I-000591J0000000D01*
G01*
G37*
G36*
G01*
X0103367Y0122539D02*
X0102185Y0122539D01*
G75*
G02*
X0101595Y0123129I0000000J0000591D01*
G01*
X0101595Y0129625D01*
G75*
G02*
X0102185Y0130216I0000591J0000000D01*
G01*
X0103367Y0130216D01*
G75*
G02*
X0103957Y0129625I0000000J-000591D01*
G01*
X0103957Y0123129D01*
G75*
G02*
X0103367Y0122539I-000591J0000000D01*
G01*
G37*
G36*
G01*
X0098367Y0122539D02*
X0097185Y0122539D01*
G75*
G02*
X0096595Y0123129I0000000J0000591D01*
G01*
X0096595Y0129625D01*
G75*
G02*
X0097185Y0130216I0000591J0000000D01*
G01*
X0098367Y0130216D01*
G75*
G02*
X0098957Y0129625I0000000J-000591D01*
G01*
X0098957Y0123129D01*
G75*
G02*
X0098367Y0122539I-000591J0000000D01*
G01*
G37*
G36*
G01*
X0093367Y0122539D02*
X0092185Y0122539D01*
G75*
G02*
X0091595Y0123129I0000000J0000591D01*
G01*
X0091595Y0129625D01*
G75*
G02*
X0092185Y0130216I0000591J0000000D01*
G01*
X0093367Y0130216D01*
G75*
G02*
X0093957Y0129625I0000000J-000591D01*
G01*
X0093957Y0123129D01*
G75*
G02*
X0093367Y0122539I-000591J0000000D01*
G01*
G37*
G36*
G01*
X0088367Y0122539D02*
X0087185Y0122539D01*
G75*
G02*
X0086595Y0123129I0000000J0000591D01*
G01*
X0086595Y0129625D01*
G75*
G02*
X0087185Y0130216I0000591J0000000D01*
G01*
X0088367Y0130216D01*
G75*
G02*
X0088957Y0129625I0000000J-000591D01*
G01*
X0088957Y0123129D01*
G75*
G02*
X0088367Y0122539I-000591J0000000D01*
G01*
G37*
G36*
G01*
X0161241Y0238484D02*
X0162422Y0238484D01*
G75*
G02*
X0163012Y0237893I0000000J-000591D01*
G01*
X0163012Y0231397D01*
G75*
G02*
X0162422Y0230807I-000591J0000000D01*
G01*
X0161241Y0230807D01*
G75*
G02*
X0160650Y0231397I0000000J0000591D01*
G01*
X0160650Y0237893D01*
G75*
G02*
X0161241Y0238484I0000591J0000000D01*
G01*
G37*
G36*
G01*
X0156241Y0238484D02*
X0157422Y0238484D01*
G75*
G02*
X0158012Y0237893I0000000J-000591D01*
G01*
X0158012Y0231397D01*
G75*
G02*
X0157422Y0230807I-000591J0000000D01*
G01*
X0156241Y0230807D01*
G75*
G02*
X0155650Y0231397I0000000J0000591D01*
G01*
X0155650Y0237893D01*
G75*
G02*
X0156241Y0238484I0000591J0000000D01*
G01*
G37*
G36*
G01*
X0151241Y0238484D02*
X0152422Y0238484D01*
G75*
G02*
X0153012Y0237893I0000000J-000591D01*
G01*
X0153012Y0231397D01*
G75*
G02*
X0152422Y0230807I-000591J0000000D01*
G01*
X0151241Y0230807D01*
G75*
G02*
X0150650Y0231397I0000000J0000591D01*
G01*
X0150650Y0237893D01*
G75*
G02*
X0151241Y0238484I0000591J0000000D01*
G01*
G37*
G36*
G01*
X0146241Y0238484D02*
X0147422Y0238484D01*
G75*
G02*
X0148012Y0237893I0000000J-000591D01*
G01*
X0148012Y0231397D01*
G75*
G02*
X0147422Y0230807I-000591J0000000D01*
G01*
X0146241Y0230807D01*
G75*
G02*
X0145650Y0231397I0000000J0000591D01*
G01*
X0145650Y0237893D01*
G75*
G02*
X0146241Y0238484I0000591J0000000D01*
G01*
G37*
G36*
G01*
X0146241Y0218996D02*
X0147422Y0218996D01*
G75*
G02*
X0148012Y0218405I0000000J-000591D01*
G01*
X0148012Y0211909D01*
G75*
G02*
X0147422Y0211318I-000591J0000000D01*
G01*
X0146241Y0211318D01*
G75*
G02*
X0145650Y0211909I0000000J0000591D01*
G01*
X0145650Y0218405D01*
G75*
G02*
X0146241Y0218996I0000591J0000000D01*
G01*
G37*
G36*
G01*
X0151241Y0218996D02*
X0152422Y0218996D01*
G75*
G02*
X0153012Y0218405I0000000J-000591D01*
G01*
X0153012Y0211909D01*
G75*
G02*
X0152422Y0211318I-000591J0000000D01*
G01*
X0151241Y0211318D01*
G75*
G02*
X0150650Y0211909I0000000J0000591D01*
G01*
X0150650Y0218405D01*
G75*
G02*
X0151241Y0218996I0000591J0000000D01*
G01*
G37*
G36*
G01*
X0156241Y0218996D02*
X0157422Y0218996D01*
G75*
G02*
X0158012Y0218405I0000000J-000591D01*
G01*
X0158012Y0211909D01*
G75*
G02*
X0157422Y0211318I-000591J0000000D01*
G01*
X0156241Y0211318D01*
G75*
G02*
X0155650Y0211909I0000000J0000591D01*
G01*
X0155650Y0218405D01*
G75*
G02*
X0156241Y0218996I0000591J0000000D01*
G01*
G37*
G36*
G01*
X0161241Y0218996D02*
X0162422Y0218996D01*
G75*
G02*
X0163012Y0218405I0000000J-000591D01*
G01*
X0163012Y0211909D01*
G75*
G02*
X0162422Y0211318I-000591J0000000D01*
G01*
X0161241Y0211318D01*
G75*
G02*
X0160650Y0211909I0000000J0000591D01*
G01*
X0160650Y0218405D01*
G75*
G02*
X0161241Y0218996I0000591J0000000D01*
G01*
G37*
D55*
X0572252Y0442944D03*
D56*
X0562607Y0412236D03*
D55*
X0278945Y0442944D03*
D56*
X0083079Y0412236D03*
D55*
X0073434Y0442944D03*
D57*
X0544300Y0423259D03*
X0521465Y0423259D03*
X0532882Y0414086D03*
X0544300Y0391251D03*
X0521465Y0391251D03*
D10*
X0310363Y0391251D03*
X0320363Y0391251D03*
X0330363Y0391251D03*
X0340363Y0391251D03*
X0350363Y0391251D03*
X0360363Y0391251D03*
X0370363Y0391251D03*
X0380363Y0391251D03*
X0390363Y0391251D03*
X0400363Y0391251D03*
X0410363Y0391251D03*
X0420363Y0391251D03*
X0430363Y0391251D03*
X0440363Y0391251D03*
X0450363Y0391251D03*
X0460363Y0391251D03*
X0470363Y0391251D03*
X0480363Y0391251D03*
X0490363Y0391251D03*
X0310363Y0401251D03*
X0320363Y0401251D03*
X0330363Y0401251D03*
X0340363Y0401251D03*
X0350363Y0401251D03*
X0360363Y0401251D03*
X0370363Y0401251D03*
X0380363Y0401251D03*
X0390363Y0401251D03*
X0400363Y0401251D03*
X0410363Y0401251D03*
X0420363Y0401251D03*
X0430363Y0401251D03*
X0440363Y0401251D03*
X0450363Y0401251D03*
X0460363Y0401251D03*
X0470363Y0401251D03*
X0480363Y0401251D03*
X0490363Y0401251D03*
X0310363Y0425070D03*
X0320363Y0425070D03*
X0330363Y0425070D03*
X0340363Y0425070D03*
X0350363Y0425070D03*
X0360363Y0425070D03*
X0370363Y0425070D03*
X0380363Y0425070D03*
X0390363Y0425070D03*
X0400363Y0425070D03*
X0410363Y0425070D03*
X0420363Y0425070D03*
X0430363Y0425070D03*
X0440363Y0425070D03*
X0450363Y0425070D03*
X0460363Y0425070D03*
X0470363Y0425070D03*
X0480363Y0425070D03*
X0490363Y0425070D03*
X0310363Y0435070D03*
X0320363Y0435070D03*
X0330363Y0435070D03*
X0340363Y0435070D03*
X0350363Y0435070D03*
X0360363Y0435070D03*
X0370363Y0435070D03*
X0380363Y0435070D03*
X0390363Y0435070D03*
X0400363Y0435070D03*
X0410363Y0435070D03*
X0420363Y0435070D03*
X0430363Y0435070D03*
X0440363Y0435070D03*
X0450363Y0435070D03*
X0460363Y0435070D03*
X0470363Y0435070D03*
X0480363Y0435070D03*
X0490363Y0435070D03*
X0247489Y0435070D03*
X0237489Y0435070D03*
X0227489Y0435070D03*
X0217489Y0435070D03*
X0207489Y0435070D03*
X0197489Y0435070D03*
X0187489Y0435070D03*
X0177489Y0435070D03*
X0247489Y0425070D03*
X0237489Y0425070D03*
X0227489Y0425070D03*
X0217489Y0425070D03*
X0207489Y0425070D03*
X0197489Y0425070D03*
X0187489Y0425070D03*
X0177489Y0425070D03*
X0247489Y0401251D03*
X0237489Y0401251D03*
X0227489Y0401251D03*
X0217489Y0401251D03*
X0207489Y0401251D03*
X0197489Y0401251D03*
X0187489Y0401251D03*
X0177489Y0401251D03*
X0247489Y0391251D03*
X0237489Y0391251D03*
X0227489Y0391251D03*
X0217489Y0391251D03*
X0207489Y0391251D03*
X0197489Y0391251D03*
X0187489Y0391251D03*
X0177489Y0391251D03*
D57*
X0146662Y0423259D03*
X0123827Y0423259D03*
X0100599Y0423259D03*
X0135245Y0414086D03*
X0112016Y0414086D03*
X0146662Y0391251D03*
X0123827Y0391251D03*
X0100599Y0391251D03*
G36*
X0023516Y0072747D02*
G01*
X0023619Y0072530D01*
X0023623Y0072479D01*
X0023623Y0072137D01*
X0026886Y0071577D01*
X0026912Y0071572D01*
X0030530Y0070692D01*
X0030551Y0070686D01*
X0033775Y0069709D01*
X0033802Y0069700D01*
X0036339Y0068724D01*
X0036356Y0068717D01*
X0038802Y0067641D01*
X0038814Y0067635D01*
X0041652Y0066265D01*
X0041673Y0066254D01*
X0044796Y0064498D01*
X0044828Y0064478D01*
X0048053Y0062230D01*
X0048067Y0062219D01*
X0050999Y0059972D01*
X0051026Y0059949D01*
X0053468Y0057703D01*
X0053479Y0057691D01*
X0056217Y0054954D01*
X0056241Y0054928D01*
X0058681Y0051999D01*
X0058698Y0051977D01*
X0060458Y0049534D01*
X0060466Y0049522D01*
X0062226Y0046881D01*
X0062240Y0046859D01*
X0063705Y0044319D01*
X0063714Y0044303D01*
X0065179Y0041470D01*
X0065192Y0041443D01*
X0066561Y0038217D01*
X0066567Y0038201D01*
X0068033Y0034292D01*
X0068046Y0034252D01*
X0069021Y0030448D01*
X0069027Y0030419D01*
X0069614Y0027095D01*
X0069616Y0027079D01*
X0070008Y0024138D01*
X0070010Y0024130D01*
X0070055Y0023720D01*
X0070055Y0023720D01*
X0070497Y0023720D01*
X0070726Y0023646D01*
X0070868Y0023451D01*
X0070884Y0023286D01*
X0070860Y0023076D01*
X0070803Y0022912D01*
X0070711Y0022766D01*
X0070588Y0022643D01*
X0070432Y0022546D01*
X0070290Y0022492D01*
X0070140Y0022466D01*
X0070075Y0022461D01*
X0050882Y0022461D01*
X0050653Y0022535D01*
X0050512Y0022730D01*
X0050493Y0022851D01*
X0050493Y0023248D01*
X0050493Y0023248D01*
X0050012Y0023248D01*
X0049783Y0023323D01*
X0049642Y0023518D01*
X0049636Y0023537D01*
X0049114Y0025485D01*
X0048368Y0027681D01*
X0047481Y0029824D01*
X0047481Y0029824D01*
X0046455Y0031904D01*
X0045295Y0033913D01*
X0045295Y0033913D01*
X0044007Y0035841D01*
X0042595Y0037681D01*
X0042595Y0037681D01*
X0041066Y0039425D01*
X0041066Y0039425D01*
X0039426Y0041065D01*
X0039426Y0041065D01*
X0037682Y0042594D01*
X0037682Y0042594D01*
X0035842Y0044006D01*
X0033914Y0045294D01*
X0033913Y0045294D01*
X0031905Y0046454D01*
X0029825Y0047480D01*
X0029825Y0047480D01*
X0027682Y0048367D01*
X0025486Y0049113D01*
X0023651Y0049605D01*
X0023449Y0049736D01*
X0023400Y0049862D01*
X0023362Y0049901D01*
X0022966Y0049901D01*
X0022736Y0049976D01*
X0022595Y0050170D01*
X0022576Y0050292D01*
X0022666Y0072125D01*
X0022676Y0072212D01*
X0022726Y0072424D01*
X0022802Y0072580D01*
X0022910Y0072714D01*
X0023046Y0072822D01*
X0023065Y0072831D01*
X0023304Y0072862D01*
X0023516Y0072747D01*
G37*
G36*
X0023237Y0414175D02*
G01*
X0023465Y0414099D01*
X0023606Y0413904D01*
X0023624Y0413785D01*
X0023623Y0072137D01*
X0024086Y0072057D01*
X0024299Y0071945D01*
X0024406Y0071729D01*
X0024410Y0071673D01*
X0024410Y0049945D01*
X0024400Y0049858D01*
X0024392Y0049825D01*
X0024269Y0049618D01*
X0024047Y0049523D01*
X0023912Y0049535D01*
X0023651Y0049605D01*
X0023449Y0049736D01*
X0023400Y0049862D01*
X0023362Y0049901D01*
X0022340Y0049901D01*
X0022264Y0049909D01*
X0020971Y0050166D01*
X0020971Y0050166D01*
X0018671Y0050468D01*
X0016357Y0050620D01*
X0016357Y0050620D01*
X0015197Y0050629D01*
X0005730Y0050629D01*
X0005501Y0050704D01*
X0005454Y0050744D01*
X0000902Y0055296D01*
X0000793Y0055510D01*
X0000788Y0055571D01*
X0000788Y0148625D01*
X0000862Y0148855D01*
X0001057Y0148996D01*
X0001178Y0149015D01*
X0009056Y0149015D01*
X0009544Y0149025D01*
X0010508Y0149186D01*
X0011432Y0149503D01*
X0012291Y0149968D01*
X0012291Y0149968D01*
X0013062Y0150568D01*
X0013724Y0151287D01*
X0014258Y0152105D01*
X0014651Y0153000D01*
X0014891Y0153947D01*
X0014971Y0154921D01*
X0014891Y0155894D01*
X0014651Y0156842D01*
X0014258Y0157736D01*
X0013724Y0158554D01*
X0013062Y0159273D01*
X0012291Y0159873D01*
X0012291Y0159873D01*
X0011432Y0160338D01*
X0010508Y0160655D01*
X0009544Y0160816D01*
X0009056Y0160826D01*
X0001178Y0160826D01*
X0000949Y0160901D01*
X0000807Y0161096D01*
X0000788Y0161216D01*
X0000788Y0408604D01*
X0000862Y0408833D01*
X0000895Y0408872D01*
X0005890Y0414148D01*
X0006101Y0414264D01*
X0006175Y0414270D01*
X0023237Y0414175D01*
G37*
G36*
X0622890Y0070757D02*
G01*
X0623106Y0070733D01*
X0623270Y0070675D01*
X0623416Y0070583D01*
X0623538Y0070460D01*
X0623636Y0070304D01*
X0623690Y0070162D01*
X0623715Y0070012D01*
X0623721Y0069947D01*
X0623721Y0050881D01*
X0623646Y0050652D01*
X0623452Y0050511D01*
X0623331Y0050492D01*
X0622934Y0050492D01*
X0622934Y0050492D01*
X0622934Y0050134D01*
X0622859Y0049905D01*
X0622664Y0049763D01*
X0622620Y0049752D01*
X0622425Y0049713D01*
X0620184Y0049113D01*
X0617988Y0048367D01*
X0615845Y0047480D01*
X0615845Y0047480D01*
X0613765Y0046454D01*
X0611757Y0045294D01*
X0611757Y0045294D01*
X0609828Y0044006D01*
X0609828Y0044006D01*
X0607988Y0042594D01*
X0607988Y0042594D01*
X0606245Y0041065D01*
X0606245Y0041065D01*
X0604605Y0039425D01*
X0604605Y0039425D01*
X0603075Y0037681D01*
X0603075Y0037681D01*
X0601664Y0035841D01*
X0601663Y0035841D01*
X0600375Y0033912D01*
X0600375Y0033912D01*
X0599215Y0031904D01*
X0598190Y0029824D01*
X0598190Y0029824D01*
X0597302Y0027681D01*
X0596556Y0025485D01*
X0595956Y0023245D01*
X0595861Y0022764D01*
X0595743Y0022553D01*
X0595524Y0022453D01*
X0595477Y0022450D01*
X0574057Y0022539D01*
X0573970Y0022549D01*
X0573758Y0022598D01*
X0573602Y0022674D01*
X0573468Y0022782D01*
X0573360Y0022918D01*
X0573284Y0023079D01*
X0573246Y0023237D01*
X0573244Y0023320D01*
X0573312Y0023551D01*
X0573504Y0023698D01*
X0573633Y0023720D01*
X0574084Y0023720D01*
X0574604Y0026758D01*
X0574610Y0026784D01*
X0575490Y0030402D01*
X0575496Y0030423D01*
X0576473Y0033647D01*
X0576482Y0033674D01*
X0577458Y0036211D01*
X0577465Y0036228D01*
X0578541Y0038674D01*
X0578547Y0038687D01*
X0579916Y0041524D01*
X0579928Y0041546D01*
X0581684Y0044668D01*
X0581704Y0044700D01*
X0583952Y0047925D01*
X0583962Y0047940D01*
X0586210Y0050871D01*
X0586233Y0050898D01*
X0588479Y0053340D01*
X0588490Y0053352D01*
X0591228Y0056089D01*
X0591254Y0056113D01*
X0594183Y0058554D01*
X0594205Y0058571D01*
X0596648Y0060330D01*
X0596660Y0060338D01*
X0599301Y0062099D01*
X0599322Y0062112D01*
X0601863Y0063578D01*
X0601878Y0063586D01*
X0604712Y0065052D01*
X0604739Y0065064D01*
X0607965Y0066433D01*
X0607981Y0066439D01*
X0611890Y0067906D01*
X0611930Y0067918D01*
X0615734Y0068893D01*
X0615763Y0068900D01*
X0619087Y0069486D01*
X0619103Y0069489D01*
X0622044Y0069881D01*
X0622052Y0069882D01*
X0622053Y0069882D01*
X0622053Y0070326D01*
X0622128Y0070555D01*
X0622323Y0070696D01*
X0622400Y0070713D01*
X0622803Y0070758D01*
X0622890Y0070757D01*
G37*
G36*
X0640170Y0414689D02*
G01*
X0640216Y0414649D01*
X0644802Y0410063D01*
X0644912Y0409848D01*
X0644917Y0409787D01*
X0644893Y0161216D01*
X0644818Y0160987D01*
X0644624Y0160845D01*
X0644503Y0160826D01*
X0636615Y0160826D01*
X0636126Y0160817D01*
X0635162Y0160656D01*
X0635162Y0160656D01*
X0634238Y0160339D01*
X0634238Y0160339D01*
X0633378Y0159874D01*
X0632607Y0159274D01*
X0632607Y0159274D01*
X0631945Y0158555D01*
X0631411Y0157737D01*
X0631018Y0156842D01*
X0631018Y0156842D01*
X0630778Y0155895D01*
X0630778Y0155895D01*
X0630698Y0154921D01*
X0630778Y0153947D01*
X0630778Y0153947D01*
X0631018Y0153000D01*
X0631018Y0153000D01*
X0631411Y0152105D01*
X0631945Y0151287D01*
X0632607Y0150568D01*
X0632607Y0150568D01*
X0633378Y0149968D01*
X0634238Y0149503D01*
X0634238Y0149503D01*
X0635162Y0149185D01*
X0636126Y0149025D01*
X0636615Y0149015D01*
X0644502Y0149015D01*
X0644731Y0148941D01*
X0644873Y0148746D01*
X0644892Y0148625D01*
X0644883Y0055572D01*
X0644808Y0055343D01*
X0644769Y0055296D01*
X0640216Y0050744D01*
X0640002Y0050634D01*
X0639941Y0050629D01*
X0630473Y0050629D01*
X0629313Y0050620D01*
X0627368Y0050492D01*
X0627343Y0050492D01*
X0622934Y0050492D01*
X0622934Y0050492D01*
X0622934Y0050134D01*
X0622859Y0049905D01*
X0622664Y0049763D01*
X0622620Y0049752D01*
X0622418Y0049712D01*
X0622418Y0049713D01*
X0622342Y0049704D01*
X0622092Y0049704D01*
X0622005Y0049714D01*
X0621793Y0049762D01*
X0621636Y0049838D01*
X0621502Y0049945D01*
X0621393Y0050081D01*
X0621309Y0050257D01*
X0621273Y0050382D01*
X0621263Y0050470D01*
X0621260Y0050514D01*
X0621265Y0069436D01*
X0621340Y0069665D01*
X0621535Y0069807D01*
X0621604Y0069822D01*
X0622044Y0069881D01*
X0622052Y0069882D01*
X0622053Y0069882D01*
X0622146Y0410137D01*
X0622146Y0414374D01*
X0622221Y0414603D01*
X0622415Y0414744D01*
X0622536Y0414763D01*
X0639941Y0414763D01*
X0640170Y0414689D01*
G37*
G36*
X0069847Y0024433D02*
G01*
X0069989Y0024238D01*
X0070004Y0024169D01*
X0070008Y0024138D01*
X0070010Y0024130D01*
X0070055Y0023720D01*
X0070055Y0023720D01*
X0574084Y0023720D01*
X0574163Y0024183D01*
X0574275Y0024397D01*
X0574491Y0024503D01*
X0574547Y0024507D01*
X0595787Y0024507D01*
X0596016Y0024433D01*
X0596157Y0024238D01*
X0596163Y0024017D01*
X0595956Y0023245D01*
X0595504Y0020970D01*
X0595504Y0020970D01*
X0595201Y0018670D01*
X0595049Y0016356D01*
X0595040Y0015196D01*
X0595040Y0005729D01*
X0594965Y0005500D01*
X0594926Y0005453D01*
X0590276Y0000804D01*
X0590062Y0000694D01*
X0590001Y0000690D01*
X0055573Y0000786D01*
X0055344Y0000860D01*
X0055297Y0000900D01*
X0050745Y0005453D01*
X0050635Y0005668D01*
X0050630Y0005729D01*
X0050630Y0015196D01*
X0050621Y0016356D01*
X0050621Y0016356D01*
X0050493Y0018304D01*
X0050493Y0018329D01*
X0050493Y0023248D01*
X0050493Y0023248D01*
X0050095Y0023248D01*
X0049866Y0023323D01*
X0049724Y0023518D01*
X0049705Y0023638D01*
X0049705Y0023676D01*
X0049715Y0023763D01*
X0049763Y0023975D01*
X0049839Y0024131D01*
X0049946Y0024266D01*
X0050082Y0024374D01*
X0050258Y0024459D01*
X0050383Y0024495D01*
X0050471Y0024505D01*
X0050514Y0024507D01*
X0069618Y0024507D01*
X0069847Y0024433D01*
G37*
X0477067Y0222835D02*
%LPD*%
G01*
D267*
X0448287Y0232323D03*
X0452224Y0232323D03*
X0456161Y0232323D03*
X0460098Y0232323D03*
X0464036Y0232323D03*
X0467973Y0232323D03*
X0467973Y0270118D03*
X0464036Y0270118D03*
X0460098Y0270118D03*
X0456161Y0270118D03*
X0452224Y0270118D03*
X0448287Y0270118D03*
D268*
X0458130Y0251221D03*
X0140699Y0078570D02*
G01*
G75*
D100*
X0184006Y0079653D02*
D03*
D101*
X0143258Y0079850D02*
D03*
X0145227Y0079850D02*
D03*
D102*
X0152116Y0091582D02*
D03*
X0148376Y0082330D02*
D03*
D102*
X0144636Y0091582D02*
D03*
D103*
X0159675Y0103196D02*
D03*
X0159675Y0098196D02*
D03*
X0159675Y0093196D02*
D03*
X0159675Y0088196D02*
D03*
X0178573Y0103196D02*
D03*
X0178573Y0098196D02*
D03*
X0178573Y0093196D02*
D03*
X0178573Y0088196D02*
D03*
D104*
X0175384Y0082901D02*
D03*
X0181604Y0082901D02*
D03*
X0167038Y0082901D02*
D03*
X0160817Y0082901D02*
D03*
D105*
X0145226Y0096483D02*
D03*
X0151526Y0096483D02*
D03*
D106*
X0155856Y0080440D02*
D03*
X0171900Y0102979D02*
D03*
X0172195Y0089003D02*
D03*
X0171014Y0083983D02*
D03*
X0167569Y0086050D02*
D03*
X0353051Y0189961D02*
G01*
G75*
D364*
X0229429Y0171871D02*
D03*
X0222342Y0171871D02*
D03*
X0222342Y0181910D02*
D03*
X0229429Y0181910D02*
D03*
X0341240Y0123130D02*
D03*
X0348327Y0123130D02*
D03*
X0348327Y0133170D02*
D03*
X0341240Y0133170D02*
D03*
X0341240Y0117028D02*
D03*
X0348327Y0117028D02*
D03*
X0348327Y0106988D02*
D03*
X0341240Y0106988D02*
D03*
D365*
X0229429Y0175315D02*
D03*
X0229429Y0178465D02*
D03*
X0222342Y0178465D02*
D03*
X0222342Y0175315D02*
D03*
X0348327Y0129725D02*
D03*
X0348327Y0126575D02*
D03*
X0341240Y0126575D02*
D03*
X0341240Y0129725D02*
D03*
X0341240Y0113583D02*
D03*
X0341240Y0110433D02*
D03*
X0348327Y0110433D02*
D03*
X0348327Y0113583D02*
D03*
D366*
X0233641Y0174867D02*
D03*
X0233641Y0172308D02*
D03*
X0233641Y0169748D02*
D03*
X0241121Y0174867D02*
D03*
X0241121Y0169748D02*
D03*
X0241121Y0172308D02*
D03*
X0241121Y0179492D02*
D03*
X0241121Y0184611D02*
D03*
X0233641Y0179492D02*
D03*
X0233641Y0182052D02*
D03*
X0233641Y0184611D02*
D03*
X0241121Y0182052D02*
D03*
D139*
X0300849Y0075591D02*
D03*
X0300849Y0077559D02*
D03*
X0300849Y0079528D02*
D03*
X0300849Y0081496D02*
D03*
X0300849Y0083465D02*
D03*
X0300849Y0085433D02*
D03*
X0300849Y0087402D02*
D03*
X0300849Y0089370D02*
D03*
X0300849Y0091339D02*
D03*
X0300849Y0095276D02*
D03*
X0300849Y0097245D02*
D03*
X0300849Y0099213D02*
D03*
X0300849Y0101182D02*
D03*
X0300849Y0103150D02*
D03*
X0300849Y0105119D02*
D03*
X0300849Y0107087D02*
D03*
X0300849Y0109056D02*
D03*
X0300849Y0111024D02*
D03*
X0300849Y0112993D02*
D03*
X0300849Y0114961D02*
D03*
X0300849Y0116929D02*
D03*
X0300849Y0118898D02*
D03*
X0300849Y0120866D02*
D03*
X0300849Y0122835D02*
D03*
X0239825Y0122835D02*
D03*
X0239825Y0120866D02*
D03*
X0239825Y0118898D02*
D03*
X0239825Y0116929D02*
D03*
X0239825Y0114961D02*
D03*
X0239825Y0112993D02*
D03*
X0239825Y0111024D02*
D03*
X0239825Y0109056D02*
D03*
X0239825Y0107087D02*
D03*
X0239825Y0105119D02*
D03*
X0239825Y0103150D02*
D03*
X0239825Y0101182D02*
D03*
X0239825Y0099213D02*
D03*
X0239825Y0097245D02*
D03*
X0239825Y0095276D02*
D03*
X0239825Y0093308D02*
D03*
X0239825Y0091339D02*
D03*
X0239825Y0089370D02*
D03*
X0239825Y0087402D02*
D03*
X0239825Y0085433D02*
D03*
X0239825Y0083465D02*
D03*
X0239825Y0081496D02*
D03*
X0239825Y0079528D02*
D03*
X0239825Y0075591D02*
D03*
X0300849Y0093308D02*
D03*
X0239825Y0077559D02*
D03*
D140*
X0293959Y0129725D02*
D03*
X0290022Y0129725D02*
D03*
X0288053Y0129725D02*
D03*
X0286085Y0129725D02*
D03*
X0284116Y0129725D02*
D03*
X0282148Y0129725D02*
D03*
X0280179Y0129725D02*
D03*
X0278211Y0129725D02*
D03*
X0276242Y0129725D02*
D03*
X0274274Y0129725D02*
D03*
X0272305Y0129725D02*
D03*
X0270337Y0129725D02*
D03*
X0268368Y0129725D02*
D03*
X0266400Y0129725D02*
D03*
X0264431Y0129725D02*
D03*
X0262463Y0129725D02*
D03*
X0260494Y0129725D02*
D03*
X0258526Y0129725D02*
D03*
X0256557Y0129725D02*
D03*
X0254589Y0129725D02*
D03*
X0252620Y0129725D02*
D03*
X0250652Y0129725D02*
D03*
X0248683Y0129725D02*
D03*
X0246715Y0129725D02*
D03*
X0246715Y0068701D02*
D03*
X0248683Y0068701D02*
D03*
X0250652Y0068701D02*
D03*
X0252620Y0068701D02*
D03*
X0254589Y0068701D02*
D03*
X0256557Y0068701D02*
D03*
X0258526Y0068701D02*
D03*
X0260494Y0068701D02*
D03*
X0262463Y0068701D02*
D03*
X0264431Y0068701D02*
D03*
X0266400Y0068701D02*
D03*
X0268368Y0068701D02*
D03*
X0270337Y0068701D02*
D03*
X0272305Y0068701D02*
D03*
X0274274Y0068701D02*
D03*
X0276242Y0068701D02*
D03*
X0278211Y0068701D02*
D03*
X0280179Y0068701D02*
D03*
X0282148Y0068701D02*
D03*
X0284116Y0068701D02*
D03*
X0286085Y0068701D02*
D03*
X0288053Y0068701D02*
D03*
X0290022Y0068701D02*
D03*
X0291990Y0068701D02*
D03*
X0293959Y0068701D02*
D03*
X0291990Y0129725D02*
D03*
D141*
X0297342Y0146654D02*
D03*
X0269390Y0146654D02*
D03*
X0325295Y0146654D02*
D03*
X0319783Y0151772D02*
D03*
X0291830Y0141536D02*
D03*
X0291830Y0144095D02*
D03*
X0291830Y0146654D02*
D03*
X0291830Y0149213D02*
D03*
X0291830Y0151772D02*
D03*
X0291830Y0154331D02*
D03*
X0291830Y0156890D02*
D03*
X0269390Y0141536D02*
D03*
X0269390Y0144095D02*
D03*
X0269390Y0149213D02*
D03*
X0269390Y0151772D02*
D03*
X0269390Y0154331D02*
D03*
X0269390Y0156890D02*
D03*
X0347736Y0141536D02*
D03*
X0347736Y0144095D02*
D03*
X0347736Y0146654D02*
D03*
X0347736Y0149213D02*
D03*
X0347736Y0151772D02*
D03*
X0347736Y0154331D02*
D03*
X0347736Y0156890D02*
D03*
X0325295Y0141536D02*
D03*
X0325295Y0144095D02*
D03*
X0325295Y0149213D02*
D03*
X0325295Y0151772D02*
D03*
X0325295Y0154331D02*
D03*
X0325295Y0156890D02*
D03*
X0319783Y0141536D02*
D03*
X0319783Y0144095D02*
D03*
X0319783Y0146654D02*
D03*
X0319783Y0149213D02*
D03*
X0319783Y0154331D02*
D03*
X0319783Y0156890D02*
D03*
X0297342Y0141536D02*
D03*
X0297342Y0144095D02*
D03*
X0297342Y0149213D02*
D03*
X0297342Y0151772D02*
D03*
X0297342Y0154331D02*
D03*
X0297342Y0156890D02*
D03*
X0241437Y0156890D02*
D03*
X0241437Y0154331D02*
D03*
X0241437Y0151772D02*
D03*
X0241437Y0149213D02*
D03*
X0241437Y0146654D02*
D03*
X0241437Y0144095D02*
D03*
X0241437Y0141536D02*
D03*
X0263878Y0156890D02*
D03*
X0263878Y0154331D02*
D03*
X0263878Y0151772D02*
D03*
X0263878Y0149213D02*
D03*
X0263878Y0146654D02*
D03*
X0263878Y0144095D02*
D03*
X0263878Y0141536D02*
D03*
D142*
X0242933Y0055768D02*
D03*
X0242933Y0060768D02*
D03*
X0247933Y0055768D02*
D03*
X0247933Y0060768D02*
D03*
X0252933Y0055768D02*
D03*
X0252933Y0060768D02*
D03*
D367*
X0228642Y0054528D02*
D03*
X0224901Y0054528D02*
D03*
X0232382Y0054528D02*
D03*
X0232382Y0063977D02*
D03*
X0228642Y0063977D02*
D03*
X0224901Y0063977D02*
D03*
D368*
X0227192Y0075788D02*
D03*
X0227192Y0071063D02*
D03*
X0228661Y0085335D02*
D03*
X0315201Y0058550D02*
D03*
X0301889Y0134416D02*
D03*
X0231128Y0075788D02*
D03*
X0224723Y0085335D02*
D03*
X0230023Y0122319D02*
D03*
X0226086Y0122319D02*
D03*
X0230023Y0131374D02*
D03*
X0226086Y0131374D02*
D03*
X0231128Y0071063D02*
D03*
X0311264Y0058550D02*
D03*
X0318341Y0075265D02*
D03*
X0314404Y0075265D02*
D03*
X0297952Y0134416D02*
D03*
X0297933Y0130120D02*
D03*
X0301870Y0130120D02*
D03*
D145*
X0224735Y0093970D02*
D03*
X0224735Y0095938D02*
D03*
X0231034Y0092001D02*
D03*
X0231034Y0093970D02*
D03*
X0231034Y0090033D02*
D03*
X0231034Y0095938D02*
D03*
X0224735Y0090033D02*
D03*
X0224735Y0092001D02*
D03*
D146*
X0226900Y0096135D02*
D03*
X0228869Y0096135D02*
D03*
X0228869Y0089836D02*
D03*
X0226900Y0089836D02*
D03*
D369*
X0229640Y0100985D02*
D03*
X0229640Y0117520D02*
D03*
D370*
X0258169Y0173426D02*
D03*
X0248720Y0173426D02*
D03*
X0253445Y0173426D02*
D03*
X0262893Y0173426D02*
D03*
X0248720Y0184843D02*
D03*
X0258169Y0184843D02*
D03*
X0253445Y0184843D02*
D03*
X0262893Y0184843D02*
D03*
X0269103Y0166446D02*
D03*
X0269103Y0162509D02*
D03*
X0262893Y0180906D02*
D03*
D03*
X0262893Y0176969D02*
D03*
X0258169Y0180906D02*
D03*
X0258169Y0176969D02*
D03*
X0262893Y0169489D02*
D03*
X0253445Y0180906D02*
D03*
X0253445Y0176969D02*
D03*
X0258169Y0169489D02*
D03*
X0253445Y0169489D02*
D03*
X0248720Y0180906D02*
D03*
X0248720Y0176969D02*
D03*
X0248720Y0180906D02*
D03*
X0248720Y0169489D02*
D03*
X0258169Y0180906D02*
D03*
X0253445Y0180906D02*
D03*
X0348917Y0178544D02*
D03*
X0348917Y0182481D02*
D03*
X0324311Y0180906D02*
D03*
X0324311Y0184843D02*
D03*
X0310138Y0180906D02*
D03*
X0310138Y0184843D02*
D03*
X0291240Y0176969D02*
D03*
X0291240Y0180906D02*
D03*
X0291240Y0184843D02*
D03*
X0291240Y0180906D02*
D03*
X0277067Y0176969D02*
D03*
X0277067Y0180906D02*
D03*
X0348917Y0161811D02*
D03*
X0348917Y0165748D02*
D03*
X0343208Y0180906D02*
D03*
X0343208Y0176969D02*
D03*
X0338484Y0180906D02*
D03*
X0338484Y0176969D02*
D03*
X0333760Y0180906D02*
D03*
X0333760Y0176969D02*
D03*
X0329035Y0180906D02*
D03*
X0329035Y0176969D02*
D03*
X0343208Y0180906D02*
D03*
X0343208Y0184843D02*
D03*
X0338484Y0180906D02*
D03*
X0338484Y0184843D02*
D03*
X0333760Y0180906D02*
D03*
X0333760Y0184843D02*
D03*
X0329035Y0180906D02*
D03*
X0329035Y0184843D02*
D03*
X0324311Y0180906D02*
D03*
X0324311Y0176969D02*
D03*
X0319586Y0180906D02*
D03*
X0319586Y0176969D02*
D03*
X0314862Y0180906D02*
D03*
X0314862Y0176969D02*
D03*
X0310138Y0180906D02*
D03*
X0310138Y0176969D02*
D03*
X0319586Y0180906D02*
D03*
X0319586Y0184843D02*
D03*
X0314862Y0180906D02*
D03*
X0314862Y0184843D02*
D03*
X0305413Y0176969D02*
D03*
X0305413Y0180906D02*
D03*
X0300689Y0176969D02*
D03*
X0300689Y0180906D02*
D03*
X0295964Y0176969D02*
D03*
X0295964Y0180906D02*
D03*
X0305413Y0184843D02*
D03*
X0305413Y0180906D02*
D03*
X0300689Y0184843D02*
D03*
X0300689Y0180906D02*
D03*
X0295964Y0184843D02*
D03*
X0295964Y0180906D02*
D03*
X0286515Y0176969D02*
D03*
X0286515Y0180906D02*
D03*
X0281791Y0176969D02*
D03*
X0281791Y0180906D02*
D03*
X0272342Y0176969D02*
D03*
X0272342Y0180906D02*
D03*
X0286515Y0184843D02*
D03*
X0286515Y0180906D02*
D03*
X0281791Y0184843D02*
D03*
X0281791Y0180906D02*
D03*
X0277067Y0184843D02*
D03*
X0277067Y0180906D02*
D03*
X0272342Y0184843D02*
D03*
X0272342Y0180906D02*
D03*
X0348917Y0170867D02*
D03*
X0348917Y0174804D02*
D03*
D371*
X0284153Y0167914D02*
D03*
X0303051Y0167914D02*
D03*
X0321949Y0167914D02*
D03*
X0340846Y0167914D02*
D03*
X0312500Y0164174D02*
D03*
X0312500Y0167914D02*
D03*
X0312500Y0171654D02*
D03*
X0321949Y0171654D02*
D03*
X0321949Y0164174D02*
D03*
X0331397Y0164174D02*
D03*
X0331397Y0167914D02*
D03*
X0331397Y0171654D02*
D03*
X0340846Y0171654D02*
D03*
X0340846Y0164174D02*
D03*
X0293602Y0164174D02*
D03*
X0293602Y0167914D02*
D03*
X0293602Y0171654D02*
D03*
X0303051Y0171654D02*
D03*
X0303051Y0164174D02*
D03*
X0274704Y0164174D02*
D03*
X0274704Y0167914D02*
D03*
X0274704Y0171654D02*
D03*
X0284153Y0171654D02*
D03*
X0284153Y0164174D02*
D03*
D372*
X0318138Y0070879D02*
D03*
X0300216Y0060630D02*
D03*
D151*
X0327460Y0096002D02*
D03*
X0346358Y0101002D02*
D03*
X0346358Y0086002D02*
D03*
X0346358Y0091002D02*
D03*
X0346358Y0096002D02*
D03*
X0327460Y0086002D02*
D03*
X0327460Y0091002D02*
D03*
X0327460Y0101002D02*
D03*
D373*
X0345768Y0078361D02*
D03*
X0327657Y0078361D02*
D03*
D374*
X0311306Y0109887D02*
D03*
X0327515Y0110435D02*
D03*
X0310829Y0118047D02*
D03*
X0310829Y0125658D02*
D03*
X0327515Y0118047D02*
D03*
X0327515Y0125658D02*
D03*
X0310829Y0133270D02*
D03*
X0327515Y0133270D02*
D03*
X0317999Y0109887D02*
D03*
X0317522Y0118047D02*
D03*
X0317522Y0125658D02*
D03*
X0317522Y0133270D02*
D03*
X0334208Y0118047D02*
D03*
X0334208Y0110435D02*
D03*
X0317999Y0101910D02*
D03*
X0311306Y0101910D02*
D03*
X0311306Y0094823D02*
D03*
X0317999Y0094823D02*
D03*
X0317999Y0087737D02*
D03*
X0311306Y0087737D02*
D03*
X0311306Y0080650D02*
D03*
X0317999Y0080650D02*
D03*
X0334208Y0125658D02*
D03*
X0334208Y0133270D02*
D03*
X0311306Y0053150D02*
D03*
X0317999Y0053150D02*
D03*
D375*
X0224632Y0080563D02*
D03*
X0230932Y0080563D02*
D03*
X0231992Y0127004D02*
D03*
X0225692Y0127004D02*
D03*
D376*
X0265257Y0057621D02*
D03*
X0281792Y0057621D02*
D03*
D372*
X0300216Y0053150D02*
D03*
X0290964Y0056890D02*
D03*
X0318138Y0063399D02*
D03*
X0308886Y0067139D02*
D03*
D377*
X0336712Y0053951D02*
D03*
D378*
X0336712Y0078361D02*
D03*
D158*
X0267421Y0180906D02*
D03*
X0348327Y0186811D02*
D03*
D379*
X0230230Y0163164D02*
D03*
X0230230Y0145448D02*
D03*
D160*
X0275138Y0135827D02*
D03*
X0260925Y0135827D02*
D03*
X0290925Y0135827D02*
D03*
D161*
X0237933Y0058268D02*
D03*
X0257933Y0062268D02*
D03*
X0257933Y0054268D02*
D03*
D10*
X0348720Y0052559D02*
D03*
X0538287Y0191535D02*
%LPD*%
G01*
G36*
G01*
X0502578Y0259143D02*
X0502578Y0257785D01*
G75*
G02*
X0501998Y0257204I-000581J0000000D01*
G01*
X0500836Y0257204D01*
G75*
G02*
X0500256Y0257785I0000000J0000581D01*
G01*
X0500256Y0259143D01*
G75*
G02*
X0500836Y0259724I0000581J0000000D01*
G01*
X0501998Y0259724D01*
G75*
G02*
X0502578Y0259143I0000000J-000581D01*
G01*
G37*
G36*
G01*
X0498759Y0259143D02*
X0498759Y0257785D01*
G75*
G02*
X0498179Y0257204I-000581J0000000D01*
G01*
X0497017Y0257204D01*
G75*
G02*
X0496437Y0257785I0000000J0000581D01*
G01*
X0496437Y0259143D01*
G75*
G02*
X0497017Y0259724I0000581J0000000D01*
G01*
X0498179Y0259724D01*
G75*
G02*
X0498759Y0259143I0000000J-000581D01*
G01*
G37*
G36*
G01*
X0518002Y0200570D02*
X0516643Y0200570D01*
G75*
G02*
X0516063Y0201151I0000000J0000581D01*
G01*
X0516063Y0202313D01*
G75*
G02*
X0516643Y0202893I0000581J0000000D01*
G01*
X0518002Y0202893D01*
G75*
G02*
X0518582Y0202313I0000000J-000581D01*
G01*
X0518582Y0201151D01*
G75*
G02*
X0518002Y0200570I-000581J0000000D01*
G01*
G37*
G36*
G01*
X0518002Y0204389D02*
X0516643Y0204389D01*
G75*
G02*
X0516063Y0204970I0000000J0000581D01*
G01*
X0516063Y0206131D01*
G75*
G02*
X0516643Y0206712I0000581J0000000D01*
G01*
X0518002Y0206712D01*
G75*
G02*
X0518582Y0206131I0000000J-000581D01*
G01*
X0518582Y0204970D01*
G75*
G02*
X0518002Y0204389I-000581J0000000D01*
G01*
G37*
G36*
G01*
X0502805Y0211097D02*
X0502805Y0213115D01*
G75*
G02*
X0503666Y0213976I0000861J0000000D01*
G01*
X0505388Y0213976D01*
G75*
G02*
X0506250Y0213115I0000000J-000861D01*
G01*
X0506250Y0211097D01*
G75*
G02*
X0505388Y0210236I-000861J0000000D01*
G01*
X0503666Y0210236D01*
G75*
G02*
X0502805Y0211097I0000000J0000861D01*
G01*
G37*
G36*
G01*
X0509006Y0211097D02*
X0509006Y0213115D01*
G75*
G02*
X0509867Y0213976I0000861J0000000D01*
G01*
X0511589Y0213976D01*
G75*
G02*
X0512450Y0213115I0000000J-000861D01*
G01*
X0512450Y0211097D01*
G75*
G02*
X0511589Y0210236I-000861J0000000D01*
G01*
X0509867Y0210236D01*
G75*
G02*
X0509006Y0211097I0000000J0000861D01*
G01*
G37*
G36*
G01*
X0527834Y0257588D02*
X0527834Y0258946D01*
G75*
G02*
X0528415Y0259527I0000581J0000000D01*
G01*
X0529576Y0259527D01*
G75*
G02*
X0530157Y0258946I0000000J-000581D01*
G01*
X0530157Y0257588D01*
G75*
G02*
X0529576Y0257007I-000581J0000000D01*
G01*
X0528415Y0257007D01*
G75*
G02*
X0527834Y0257588I0000000J0000581D01*
G01*
G37*
G36*
G01*
X0531653Y0257588D02*
X0531653Y0258946D01*
G75*
G02*
X0532234Y0259527I0000581J0000000D01*
G01*
X0533395Y0259527D01*
G75*
G02*
X0533976Y0258946I0000000J-000581D01*
G01*
X0533976Y0257588D01*
G75*
G02*
X0533395Y0257007I-000581J0000000D01*
G01*
X0532234Y0257007D01*
G75*
G02*
X0531653Y0257588I0000000J0000581D01*
G01*
G37*
D203*
X0512007Y0206397D03*
X0504527Y0206397D03*
X0508267Y0198523D03*
G36*
G01*
X0527834Y0253405D02*
X0527834Y0254763D01*
G75*
G02*
X0528415Y0255344I0000581J0000000D01*
G01*
X0529576Y0255344D01*
G75*
G02*
X0530157Y0254763I0000000J-000581D01*
G01*
X0530157Y0253405D01*
G75*
G02*
X0529576Y0252824I-000581J0000000D01*
G01*
X0528415Y0252824D01*
G75*
G02*
X0527834Y0253405I0000000J0000581D01*
G01*
G37*
G36*
G01*
X0531653Y0253405D02*
X0531653Y0254763D01*
G75*
G02*
X0532234Y0255344I0000581J0000000D01*
G01*
X0533395Y0255344D01*
G75*
G02*
X0533976Y0254763I0000000J-000581D01*
G01*
X0533976Y0253405D01*
G75*
G02*
X0533395Y0252824I-000581J0000000D01*
G01*
X0532234Y0252824D01*
G75*
G02*
X0531653Y0253405I0000000J0000581D01*
G01*
G37*
G36*
G01*
X0503917Y0257785D02*
X0503917Y0259143D01*
G75*
G02*
X0504498Y0259724I0000581J0000000D01*
G01*
X0505659Y0259724D01*
G75*
G02*
X0506240Y0259143I0000000J-000581D01*
G01*
X0506240Y0257785D01*
G75*
G02*
X0505659Y0257204I-000581J0000000D01*
G01*
X0504498Y0257204D01*
G75*
G02*
X0503917Y0257785I0000000J0000581D01*
G01*
G37*
G36*
G01*
X0507736Y0257785D02*
X0507736Y0259143D01*
G75*
G02*
X0508317Y0259724I0000581J0000000D01*
G01*
X0509478Y0259724D01*
G75*
G02*
X0510059Y0259143I0000000J-000581D01*
G01*
X0510059Y0257785D01*
G75*
G02*
X0509478Y0257204I-000581J0000000D01*
G01*
X0508317Y0257204D01*
G75*
G02*
X0507736Y0257785I0000000J0000581D01*
G01*
G37*
G36*
G01*
X0491653Y0254025D02*
X0491653Y0252667D01*
G75*
G02*
X0491072Y0252086I-000581J0000000D01*
G01*
X0489911Y0252086D01*
G75*
G02*
X0489330Y0252667I0000000J0000581D01*
G01*
X0489330Y0254025D01*
G75*
G02*
X0489911Y0254606I0000581J0000000D01*
G01*
X0491072Y0254606D01*
G75*
G02*
X0491653Y0254025I0000000J-000581D01*
G01*
G37*
G36*
G01*
X0487834Y0254025D02*
X0487834Y0252667D01*
G75*
G02*
X0487254Y0252086I-000581J0000000D01*
G01*
X0486092Y0252086D01*
G75*
G02*
X0485511Y0252667I0000000J0000581D01*
G01*
X0485511Y0254025D01*
G75*
G02*
X0486092Y0254606I0000581J0000000D01*
G01*
X0487254Y0254606D01*
G75*
G02*
X0487834Y0254025I0000000J-000581D01*
G01*
G37*
G36*
G01*
X0518425Y0259143D02*
X0518425Y0257785D01*
G75*
G02*
X0517844Y0257204I-000581J0000000D01*
G01*
X0516683Y0257204D01*
G75*
G02*
X0516102Y0257785I0000000J0000581D01*
G01*
X0516102Y0259143D01*
G75*
G02*
X0516683Y0259724I0000581J0000000D01*
G01*
X0517844Y0259724D01*
G75*
G02*
X0518425Y0259143I0000000J-000581D01*
G01*
G37*
G36*
G01*
X0514606Y0259143D02*
X0514606Y0257785D01*
G75*
G02*
X0514025Y0257204I-000581J0000000D01*
G01*
X0512864Y0257204D01*
G75*
G02*
X0512283Y0257785I0000000J0000581D01*
G01*
X0512283Y0259143D01*
G75*
G02*
X0512864Y0259724I0000581J0000000D01*
G01*
X0514025Y0259724D01*
G75*
G02*
X0514606Y0259143I0000000J-000581D01*
G01*
G37*
G36*
G01*
X0491653Y0219379D02*
X0491653Y0218021D01*
G75*
G02*
X0491072Y0217441I-000581J0000000D01*
G01*
X0489911Y0217441D01*
G75*
G02*
X0489330Y0218021I0000000J0000581D01*
G01*
X0489330Y0219379D01*
G75*
G02*
X0489911Y0219960I0000581J0000000D01*
G01*
X0491072Y0219960D01*
G75*
G02*
X0491653Y0219379I0000000J-000581D01*
G01*
G37*
G36*
G01*
X0487834Y0219379D02*
X0487834Y0218021D01*
G75*
G02*
X0487254Y0217441I-000581J0000000D01*
G01*
X0486092Y0217441D01*
G75*
G02*
X0485511Y0218021I0000000J0000581D01*
G01*
X0485511Y0219379D01*
G75*
G02*
X0486092Y0219960I0000581J0000000D01*
G01*
X0487254Y0219960D01*
G75*
G02*
X0487834Y0219379I0000000J-000581D01*
G01*
G37*
D406*
X0498326Y0283818D03*
D201*
X0526673Y0282716D03*
X0514862Y0274842D03*
X0526673Y0266968D03*
D407*
X0523130Y0274842D03*
D406*
X0498326Y0265866D03*
G36*
G01*
X0518100Y0208346D02*
X0516742Y0208346D01*
G75*
G02*
X0516161Y0208927I0000000J0000581D01*
G01*
X0516161Y0210088D01*
G75*
G02*
X0516742Y0210669I0000581J0000000D01*
G01*
X0518100Y0210669D01*
G75*
G02*
X0518681Y0210088I0000000J-000581D01*
G01*
X0518681Y0208927D01*
G75*
G02*
X0518100Y0208346I-000581J0000000D01*
G01*
G37*
G36*
G01*
X0518100Y0212165D02*
X0516742Y0212165D01*
G75*
G02*
X0516161Y0212746I0000000J0000581D01*
G01*
X0516161Y0213907D01*
G75*
G02*
X0516742Y0214488I0000581J0000000D01*
G01*
X0518100Y0214488D01*
G75*
G02*
X0518681Y0213907I0000000J-000581D01*
G01*
X0518681Y0212746D01*
G75*
G02*
X0518100Y0212165I-000581J0000000D01*
G01*
G37*
G36*
G01*
X0531766Y0246850D02*
X0533784Y0246850D01*
G75*
G02*
X0534645Y0245989I0000000J-000861D01*
G01*
X0534645Y0244266D01*
G75*
G02*
X0533784Y0243405I-000861J0000000D01*
G01*
X0531766Y0243405D01*
G75*
G02*
X0530905Y0244266I0000000J0000861D01*
G01*
X0530905Y0245989D01*
G75*
G02*
X0531766Y0246850I0000861J0000000D01*
G01*
G37*
G36*
G01*
X0531766Y0240649D02*
X0533784Y0240649D01*
G75*
G02*
X0534645Y0239788I0000000J-000861D01*
G01*
X0534645Y0238066D01*
G75*
G02*
X0533784Y0237204I-000861J0000000D01*
G01*
X0531766Y0237204D01*
G75*
G02*
X0530905Y0238066I0000000J0000861D01*
G01*
X0530905Y0239788D01*
G75*
G02*
X0531766Y0240649I0000861J0000000D01*
G01*
G37*
G36*
G01*
X0527834Y0249222D02*
X0527834Y0250580D01*
G75*
G02*
X0528415Y0251161I0000581J0000000D01*
G01*
X0529576Y0251161D01*
G75*
G02*
X0530157Y0250580I0000000J-000581D01*
G01*
X0530157Y0249222D01*
G75*
G02*
X0529576Y0248641I-000581J0000000D01*
G01*
X0528415Y0248641D01*
G75*
G02*
X0527834Y0249222I0000000J0000581D01*
G01*
G37*
G36*
G01*
X0531653Y0249222D02*
X0531653Y0250580D01*
G75*
G02*
X0532234Y0251161I0000581J0000000D01*
G01*
X0533395Y0251161D01*
G75*
G02*
X0533976Y0250580I0000000J-000581D01*
G01*
X0533976Y0249222D01*
G75*
G02*
X0533395Y0248641I-000581J0000000D01*
G01*
X0532234Y0248641D01*
G75*
G02*
X0531653Y0249222I0000000J0000581D01*
G01*
G37*
G36*
G01*
X0532381Y0293331D02*
X0532381Y0291314D01*
G75*
G02*
X0531520Y0290452I-000861J0000000D01*
G01*
X0529798Y0290452D01*
G75*
G02*
X0528937Y0291314I0000000J0000861D01*
G01*
X0528937Y0293331D01*
G75*
G02*
X0529798Y0294192I0000861J0000000D01*
G01*
X0531520Y0294192D01*
G75*
G02*
X0532381Y0293331I0000000J-000861D01*
G01*
G37*
G36*
G01*
X0526181Y0293331D02*
X0526181Y0291314D01*
G75*
G02*
X0525319Y0290452I-000861J0000000D01*
G01*
X0523597Y0290452D01*
G75*
G02*
X0522736Y0291314I0000000J0000861D01*
G01*
X0522736Y0293331D01*
G75*
G02*
X0523597Y0294192I0000861J0000000D01*
G01*
X0525319Y0294192D01*
G75*
G02*
X0526181Y0293331I0000000J-000861D01*
G01*
G37*
G36*
G01*
X0533784Y0225492D02*
X0531766Y0225492D01*
G75*
G02*
X0530905Y0226353I0000000J0000861D01*
G01*
X0530905Y0228075D01*
G75*
G02*
X0531766Y0228937I0000861J0000000D01*
G01*
X0533784Y0228937D01*
G75*
G02*
X0534645Y0228075I0000000J-000861D01*
G01*
X0534645Y0226353D01*
G75*
G02*
X0533784Y0225492I-000861J0000000D01*
G01*
G37*
G36*
G01*
X0533784Y0231692D02*
X0531766Y0231692D01*
G75*
G02*
X0530905Y0232554I0000000J0000861D01*
G01*
X0530905Y0234276D01*
G75*
G02*
X0531766Y0235137I0000861J0000000D01*
G01*
X0533784Y0235137D01*
G75*
G02*
X0534645Y0234276I0000000J-000861D01*
G01*
X0534645Y0232554D01*
G75*
G02*
X0533784Y0231692I-000861J0000000D01*
G01*
G37*
G36*
G01*
X0529606Y0221171D02*
X0529606Y0222529D01*
G75*
G02*
X0530187Y0223110I0000581J0000000D01*
G01*
X0531348Y0223110D01*
G75*
G02*
X0531929Y0222529I0000000J-000581D01*
G01*
X0531929Y0221171D01*
G75*
G02*
X0531348Y0220590I-000581J0000000D01*
G01*
X0530187Y0220590D01*
G75*
G02*
X0529606Y0221171I0000000J0000581D01*
G01*
G37*
G36*
G01*
X0533425Y0221171D02*
X0533425Y0222529D01*
G75*
G02*
X0534006Y0223110I0000581J0000000D01*
G01*
X0535167Y0223110D01*
G75*
G02*
X0535748Y0222529I0000000J-000581D01*
G01*
X0535748Y0221171D01*
G75*
G02*
X0535167Y0220590I-000581J0000000D01*
G01*
X0534006Y0220590D01*
G75*
G02*
X0533425Y0221171I0000000J0000581D01*
G01*
G37*
G36*
G01*
X0516929Y0255610D02*
X0517913Y0255610D01*
G75*
G02*
X0518405Y0255118I0000000J-000492D01*
G01*
X0518405Y0250196D01*
G75*
G02*
X0517913Y0249704I-000492J0000000D01*
G01*
X0516929Y0249704D01*
G75*
G02*
X0516437Y0250196I0000000J0000492D01*
G01*
X0516437Y0255118D01*
G75*
G02*
X0516929Y0255610I0000492J0000000D01*
G01*
G37*
G36*
G01*
X0513779Y0255610D02*
X0514763Y0255610D01*
G75*
G02*
X0515256Y0255118I0000000J-000492D01*
G01*
X0515256Y0250196D01*
G75*
G02*
X0514763Y0249704I-000492J0000000D01*
G01*
X0513779Y0249704D01*
G75*
G02*
X0513287Y0250196I0000000J0000492D01*
G01*
X0513287Y0255118D01*
G75*
G02*
X0513779Y0255610I0000492J0000000D01*
G01*
G37*
G36*
G01*
X0510630Y0255610D02*
X0511614Y0255610D01*
G75*
G02*
X0512106Y0255118I0000000J-000492D01*
G01*
X0512106Y0250196D01*
G75*
G02*
X0511614Y0249704I-000492J0000000D01*
G01*
X0510630Y0249704D01*
G75*
G02*
X0510137Y0250196I0000000J0000492D01*
G01*
X0510137Y0255118D01*
G75*
G02*
X0510630Y0255610I0000492J0000000D01*
G01*
G37*
G36*
G01*
X0507480Y0255610D02*
X0508464Y0255610D01*
G75*
G02*
X0508956Y0255118I0000000J-000492D01*
G01*
X0508956Y0250196D01*
G75*
G02*
X0508464Y0249704I-000492J0000000D01*
G01*
X0507480Y0249704D01*
G75*
G02*
X0506988Y0250196I0000000J0000492D01*
G01*
X0506988Y0255118D01*
G75*
G02*
X0507480Y0255610I0000492J0000000D01*
G01*
G37*
G36*
G01*
X0504330Y0255610D02*
X0505315Y0255610D01*
G75*
G02*
X0505807Y0255118I0000000J-000492D01*
G01*
X0505807Y0250196D01*
G75*
G02*
X0505315Y0249704I-000492J0000000D01*
G01*
X0504330Y0249704D01*
G75*
G02*
X0503838Y0250196I0000000J0000492D01*
G01*
X0503838Y0255118D01*
G75*
G02*
X0504330Y0255610I0000492J0000000D01*
G01*
G37*
G36*
G01*
X0501181Y0255610D02*
X0502165Y0255610D01*
G75*
G02*
X0502657Y0255118I0000000J-000492D01*
G01*
X0502657Y0250196D01*
G75*
G02*
X0502165Y0249704I-000492J0000000D01*
G01*
X0501181Y0249704D01*
G75*
G02*
X0500689Y0250196I0000000J0000492D01*
G01*
X0500689Y0255118D01*
G75*
G02*
X0501181Y0255610I0000492J0000000D01*
G01*
G37*
G36*
G01*
X0498031Y0255610D02*
X0499015Y0255610D01*
G75*
G02*
X0499507Y0255118I0000000J-000492D01*
G01*
X0499507Y0250196D01*
G75*
G02*
X0499015Y0249704I-000492J0000000D01*
G01*
X0498031Y0249704D01*
G75*
G02*
X0497539Y0250196I0000000J0000492D01*
G01*
X0497539Y0255118D01*
G75*
G02*
X0498031Y0255610I0000492J0000000D01*
G01*
G37*
G36*
G01*
X0494881Y0255610D02*
X0495866Y0255610D01*
G75*
G02*
X0496358Y0255118I0000000J-000492D01*
G01*
X0496358Y0250196D01*
G75*
G02*
X0495866Y0249704I-000492J0000000D01*
G01*
X0494881Y0249704D01*
G75*
G02*
X0494389Y0250196I0000000J0000492D01*
G01*
X0494389Y0255118D01*
G75*
G02*
X0494881Y0255610I0000492J0000000D01*
G01*
G37*
G36*
G01*
X0487500Y0248228D02*
X0492421Y0248228D01*
G75*
G02*
X0492913Y0247736I0000000J-000492D01*
G01*
X0492913Y0246752D01*
G75*
G02*
X0492421Y0246259I-000492J0000000D01*
G01*
X0487500Y0246259D01*
G75*
G02*
X0487007Y0246752I0000000J0000492D01*
G01*
X0487007Y0247736D01*
G75*
G02*
X0487500Y0248228I0000492J0000000D01*
G01*
G37*
G36*
G01*
X0487500Y0245078D02*
X0492421Y0245078D01*
G75*
G02*
X0492913Y0244586I0000000J-000492D01*
G01*
X0492913Y0243602D01*
G75*
G02*
X0492421Y0243110I-000492J0000000D01*
G01*
X0487500Y0243110D01*
G75*
G02*
X0487007Y0243602I0000000J0000492D01*
G01*
X0487007Y0244586D01*
G75*
G02*
X0487500Y0245078I0000492J0000000D01*
G01*
G37*
G36*
G01*
X0487500Y0241929D02*
X0492421Y0241929D01*
G75*
G02*
X0492913Y0241437I0000000J-000492D01*
G01*
X0492913Y0240452D01*
G75*
G02*
X0492421Y0239960I-000492J0000000D01*
G01*
X0487500Y0239960D01*
G75*
G02*
X0487007Y0240452I0000000J0000492D01*
G01*
X0487007Y0241437D01*
G75*
G02*
X0487500Y0241929I0000492J0000000D01*
G01*
G37*
G36*
G01*
X0487500Y0238779D02*
X0492421Y0238779D01*
G75*
G02*
X0492913Y0238287I0000000J-000492D01*
G01*
X0492913Y0237303D01*
G75*
G02*
X0492421Y0236811I-000492J0000000D01*
G01*
X0487500Y0236811D01*
G75*
G02*
X0487007Y0237303I0000000J0000492D01*
G01*
X0487007Y0238287D01*
G75*
G02*
X0487500Y0238779I0000492J0000000D01*
G01*
G37*
G36*
G01*
X0487500Y0235629D02*
X0492421Y0235629D01*
G75*
G02*
X0492913Y0235137I0000000J-000492D01*
G01*
X0492913Y0234153D01*
G75*
G02*
X0492421Y0233661I-000492J0000000D01*
G01*
X0487500Y0233661D01*
G75*
G02*
X0487007Y0234153I0000000J0000492D01*
G01*
X0487007Y0235137D01*
G75*
G02*
X0487500Y0235629I0000492J0000000D01*
G01*
G37*
G36*
G01*
X0487500Y0232480D02*
X0492421Y0232480D01*
G75*
G02*
X0492913Y0231988I0000000J-000492D01*
G01*
X0492913Y0231004D01*
G75*
G02*
X0492421Y0230511I-000492J0000000D01*
G01*
X0487500Y0230511D01*
G75*
G02*
X0487007Y0231004I0000000J0000492D01*
G01*
X0487007Y0231988D01*
G75*
G02*
X0487500Y0232480I0000492J0000000D01*
G01*
G37*
G36*
G01*
X0487500Y0229330D02*
X0492421Y0229330D01*
G75*
G02*
X0492913Y0228838I0000000J-000492D01*
G01*
X0492913Y0227854D01*
G75*
G02*
X0492421Y0227362I-000492J0000000D01*
G01*
X0487500Y0227362D01*
G75*
G02*
X0487007Y0227854I0000000J0000492D01*
G01*
X0487007Y0228838D01*
G75*
G02*
X0487500Y0229330I0000492J0000000D01*
G01*
G37*
G36*
G01*
X0487500Y0226181D02*
X0492421Y0226181D01*
G75*
G02*
X0492913Y0225689I0000000J-000492D01*
G01*
X0492913Y0224704D01*
G75*
G02*
X0492421Y0224212I-000492J0000000D01*
G01*
X0487500Y0224212D01*
G75*
G02*
X0487007Y0224704I0000000J0000492D01*
G01*
X0487007Y0225689D01*
G75*
G02*
X0487500Y0226181I0000492J0000000D01*
G01*
G37*
G36*
G01*
X0494881Y0222736D02*
X0495866Y0222736D01*
G75*
G02*
X0496358Y0222244I0000000J-000492D01*
G01*
X0496358Y0217322D01*
G75*
G02*
X0495866Y0216830I-000492J0000000D01*
G01*
X0494881Y0216830D01*
G75*
G02*
X0494389Y0217322I0000000J0000492D01*
G01*
X0494389Y0222244D01*
G75*
G02*
X0494881Y0222736I0000492J0000000D01*
G01*
G37*
G36*
G01*
X0498031Y0222736D02*
X0499015Y0222736D01*
G75*
G02*
X0499507Y0222244I0000000J-000492D01*
G01*
X0499507Y0217322D01*
G75*
G02*
X0499015Y0216830I-000492J0000000D01*
G01*
X0498031Y0216830D01*
G75*
G02*
X0497539Y0217322I0000000J0000492D01*
G01*
X0497539Y0222244D01*
G75*
G02*
X0498031Y0222736I0000492J0000000D01*
G01*
G37*
G36*
G01*
X0501181Y0222736D02*
X0502165Y0222736D01*
G75*
G02*
X0502657Y0222244I0000000J-000492D01*
G01*
X0502657Y0217322D01*
G75*
G02*
X0502165Y0216830I-000492J0000000D01*
G01*
X0501181Y0216830D01*
G75*
G02*
X0500689Y0217322I0000000J0000492D01*
G01*
X0500689Y0222244D01*
G75*
G02*
X0501181Y0222736I0000492J0000000D01*
G01*
G37*
G36*
G01*
X0504330Y0222736D02*
X0505315Y0222736D01*
G75*
G02*
X0505807Y0222244I0000000J-000492D01*
G01*
X0505807Y0217322D01*
G75*
G02*
X0505315Y0216830I-000492J0000000D01*
G01*
X0504330Y0216830D01*
G75*
G02*
X0503838Y0217322I0000000J0000492D01*
G01*
X0503838Y0222244D01*
G75*
G02*
X0504330Y0222736I0000492J0000000D01*
G01*
G37*
G36*
G01*
X0507480Y0222736D02*
X0508464Y0222736D01*
G75*
G02*
X0508956Y0222244I0000000J-000492D01*
G01*
X0508956Y0217322D01*
G75*
G02*
X0508464Y0216830I-000492J0000000D01*
G01*
X0507480Y0216830D01*
G75*
G02*
X0506988Y0217322I0000000J0000492D01*
G01*
X0506988Y0222244D01*
G75*
G02*
X0507480Y0222736I0000492J0000000D01*
G01*
G37*
G36*
G01*
X0510630Y0222736D02*
X0511614Y0222736D01*
G75*
G02*
X0512106Y0222244I0000000J-000492D01*
G01*
X0512106Y0217322D01*
G75*
G02*
X0511614Y0216830I-000492J0000000D01*
G01*
X0510630Y0216830D01*
G75*
G02*
X0510137Y0217322I0000000J0000492D01*
G01*
X0510137Y0222244D01*
G75*
G02*
X0510630Y0222736I0000492J0000000D01*
G01*
G37*
G36*
G01*
X0513779Y0222736D02*
X0514763Y0222736D01*
G75*
G02*
X0515256Y0222244I0000000J-000492D01*
G01*
X0515256Y0217322D01*
G75*
G02*
X0514763Y0216830I-000492J0000000D01*
G01*
X0513779Y0216830D01*
G75*
G02*
X0513287Y0217322I0000000J0000492D01*
G01*
X0513287Y0222244D01*
G75*
G02*
X0513779Y0222736I0000492J0000000D01*
G01*
G37*
G36*
G01*
X0516929Y0222736D02*
X0517913Y0222736D01*
G75*
G02*
X0518405Y0222244I0000000J-000492D01*
G01*
X0518405Y0217322D01*
G75*
G02*
X0517913Y0216830I-000492J0000000D01*
G01*
X0516929Y0216830D01*
G75*
G02*
X0516437Y0217322I0000000J0000492D01*
G01*
X0516437Y0222244D01*
G75*
G02*
X0516929Y0222736I0000492J0000000D01*
G01*
G37*
G36*
G01*
X0520374Y0226181D02*
X0525295Y0226181D01*
G75*
G02*
X0525787Y0225689I0000000J-000492D01*
G01*
X0525787Y0224704D01*
G75*
G02*
X0525295Y0224212I-000492J0000000D01*
G01*
X0520374Y0224212D01*
G75*
G02*
X0519881Y0224704I0000000J0000492D01*
G01*
X0519881Y0225689D01*
G75*
G02*
X0520374Y0226181I0000492J0000000D01*
G01*
G37*
G36*
G01*
X0520374Y0229330D02*
X0525295Y0229330D01*
G75*
G02*
X0525787Y0228838I0000000J-000492D01*
G01*
X0525787Y0227854D01*
G75*
G02*
X0525295Y0227362I-000492J0000000D01*
G01*
X0520374Y0227362D01*
G75*
G02*
X0519881Y0227854I0000000J0000492D01*
G01*
X0519881Y0228838D01*
G75*
G02*
X0520374Y0229330I0000492J0000000D01*
G01*
G37*
G36*
G01*
X0520374Y0232480D02*
X0525295Y0232480D01*
G75*
G02*
X0525787Y0231988I0000000J-000492D01*
G01*
X0525787Y0231004D01*
G75*
G02*
X0525295Y0230511I-000492J0000000D01*
G01*
X0520374Y0230511D01*
G75*
G02*
X0519881Y0231004I0000000J0000492D01*
G01*
X0519881Y0231988D01*
G75*
G02*
X0520374Y0232480I0000492J0000000D01*
G01*
G37*
G36*
G01*
X0520374Y0235629D02*
X0525295Y0235629D01*
G75*
G02*
X0525787Y0235137I0000000J-000492D01*
G01*
X0525787Y0234153D01*
G75*
G02*
X0525295Y0233661I-000492J0000000D01*
G01*
X0520374Y0233661D01*
G75*
G02*
X0519881Y0234153I0000000J0000492D01*
G01*
X0519881Y0235137D01*
G75*
G02*
X0520374Y0235629I0000492J0000000D01*
G01*
G37*
G36*
G01*
X0520374Y0238779D02*
X0525295Y0238779D01*
G75*
G02*
X0525787Y0238287I0000000J-000492D01*
G01*
X0525787Y0237303D01*
G75*
G02*
X0525295Y0236811I-000492J0000000D01*
G01*
X0520374Y0236811D01*
G75*
G02*
X0519881Y0237303I0000000J0000492D01*
G01*
X0519881Y0238287D01*
G75*
G02*
X0520374Y0238779I0000492J0000000D01*
G01*
G37*
G36*
G01*
X0520374Y0241929D02*
X0525295Y0241929D01*
G75*
G02*
X0525787Y0241437I0000000J-000492D01*
G01*
X0525787Y0240452D01*
G75*
G02*
X0525295Y0239960I-000492J0000000D01*
G01*
X0520374Y0239960D01*
G75*
G02*
X0519881Y0240452I0000000J0000492D01*
G01*
X0519881Y0241437D01*
G75*
G02*
X0520374Y0241929I0000492J0000000D01*
G01*
G37*
G36*
G01*
X0520374Y0245078D02*
X0525295Y0245078D01*
G75*
G02*
X0525787Y0244586I0000000J-000492D01*
G01*
X0525787Y0243602D01*
G75*
G02*
X0525295Y0243110I-000492J0000000D01*
G01*
X0520374Y0243110D01*
G75*
G02*
X0519881Y0243602I0000000J0000492D01*
G01*
X0519881Y0244586D01*
G75*
G02*
X0520374Y0245078I0000492J0000000D01*
G01*
G37*
G36*
G01*
X0520374Y0248228D02*
X0525295Y0248228D01*
G75*
G02*
X0525787Y0247736I0000000J-000492D01*
G01*
X0525787Y0246752D01*
G75*
G02*
X0525295Y0246259I-000492J0000000D01*
G01*
X0520374Y0246259D01*
G75*
G02*
X0519881Y0246752I0000000J0000492D01*
G01*
X0519881Y0247736D01*
G75*
G02*
X0520374Y0248228I0000492J0000000D01*
G01*
G37*
G36*
G01*
X0498828Y0213602D02*
X0500187Y0213602D01*
G75*
G02*
X0500767Y0213021I0000000J-000581D01*
G01*
X0500767Y0211860D01*
G75*
G02*
X0500187Y0211279I-000581J0000000D01*
G01*
X0498828Y0211279D01*
G75*
G02*
X0498248Y0211860I0000000J0000581D01*
G01*
X0498248Y0213021D01*
G75*
G02*
X0498828Y0213602I0000581J0000000D01*
G01*
G37*
G36*
G01*
X0498828Y0209783D02*
X0500187Y0209783D01*
G75*
G02*
X0500767Y0209202I0000000J-000581D01*
G01*
X0500767Y0208041D01*
G75*
G02*
X0500187Y0207460I-000581J0000000D01*
G01*
X0498828Y0207460D01*
G75*
G02*
X0498248Y0208041I0000000J0000581D01*
G01*
X0498248Y0209202D01*
G75*
G02*
X0498828Y0209783I0000581J0000000D01*
G01*
G37*
G36*
G01*
X0522224Y0220679D02*
X0522224Y0222037D01*
G75*
G02*
X0522805Y0222618I0000581J0000000D01*
G01*
X0523966Y0222618D01*
G75*
G02*
X0524547Y0222037I0000000J-000581D01*
G01*
X0524547Y0220679D01*
G75*
G02*
X0523966Y0220098I-000581J0000000D01*
G01*
X0522805Y0220098D01*
G75*
G02*
X0522224Y0220679I0000000J0000581D01*
G01*
G37*
G36*
G01*
X0526043Y0220679D02*
X0526043Y0222037D01*
G75*
G02*
X0526624Y0222618I0000581J0000000D01*
G01*
X0527785Y0222618D01*
G75*
G02*
X0528366Y0222037I0000000J-000581D01*
G01*
X0528366Y0220679D01*
G75*
G02*
X0527785Y0220098I-000581J0000000D01*
G01*
X0526624Y0220098D01*
G75*
G02*
X0526043Y0220679I0000000J0000581D01*
G01*
G37*
G36*
G01*
X0500187Y0197035D02*
X0498828Y0197035D01*
G75*
G02*
X0498248Y0197616I0000000J0000581D01*
G01*
X0498248Y0198777D01*
G75*
G02*
X0498828Y0199358I0000581J0000000D01*
G01*
X0500187Y0199358D01*
G75*
G02*
X0500767Y0198777I0000000J-000581D01*
G01*
X0500767Y0197616D01*
G75*
G02*
X0500187Y0197035I-000581J0000000D01*
G01*
G37*
G36*
G01*
X0500187Y0200854D02*
X0498828Y0200854D01*
G75*
G02*
X0498248Y0201435I0000000J0000581D01*
G01*
X0498248Y0202596D01*
G75*
G02*
X0498828Y0203177I0000581J0000000D01*
G01*
X0500187Y0203177D01*
G75*
G02*
X0500767Y0202596I0000000J-000581D01*
G01*
X0500767Y0201435D01*
G75*
G02*
X0500187Y0200854I-000581J0000000D01*
G01*
G37*
D199*
X0494586Y0198523D03*
X0494586Y0206004D03*
X0486712Y0202263D03*
G36*
G01*
X0520354Y0257588D02*
X0520354Y0258946D01*
G75*
G02*
X0520935Y0259527I0000581J0000000D01*
G01*
X0522096Y0259527D01*
G75*
G02*
X0522677Y0258946I0000000J-000581D01*
G01*
X0522677Y0257588D01*
G75*
G02*
X0522096Y0257007I-000581J0000000D01*
G01*
X0520935Y0257007D01*
G75*
G02*
X0520354Y0257588I0000000J0000581D01*
G01*
G37*
G36*
G01*
X0524173Y0257588D02*
X0524173Y0258946D01*
G75*
G02*
X0524754Y0259527I0000581J0000000D01*
G01*
X0525915Y0259527D01*
G75*
G02*
X0526496Y0258946I0000000J-000581D01*
G01*
X0526496Y0257588D01*
G75*
G02*
X0525915Y0257007I-000581J0000000D01*
G01*
X0524754Y0257007D01*
G75*
G02*
X0524173Y0257588I0000000J0000581D01*
G01*
G37*
G36*
G01*
X0485315Y0211461D02*
X0485315Y0213479D01*
G75*
G02*
X0486176Y0214340I0000861J0000000D01*
G01*
X0487898Y0214340D01*
G75*
G02*
X0488759Y0213479I0000000J-000861D01*
G01*
X0488759Y0211461D01*
G75*
G02*
X0487898Y0210600I-000861J0000000D01*
G01*
X0486176Y0210600D01*
G75*
G02*
X0485315Y0211461I0000000J0000861D01*
G01*
G37*
G36*
G01*
X0491515Y0211461D02*
X0491515Y0213479D01*
G75*
G02*
X0492377Y0214340I0000861J0000000D01*
G01*
X0494099Y0214340D01*
G75*
G02*
X0494960Y0213479I0000000J-000861D01*
G01*
X0494960Y0211461D01*
G75*
G02*
X0494099Y0210600I-000861J0000000D01*
G01*
X0492377Y0210600D01*
G75*
G02*
X0491515Y0211461I0000000J0000861D01*
G01*
G37*
D134*
X0527460Y0195708D03*
X0531460Y0215708D03*
X0523460Y0215708D03*
D131*
X0529960Y0200708D03*
X0524960Y0200708D03*
X0529960Y0205708D03*
X0524960Y0205708D03*
X0529960Y0210708D03*
X0524960Y0210708D03*
D408*
X0488582Y0285196D03*
D409*
X0488582Y0275196D03*
X0488582Y0265196D03*
X0386614Y0299360D02*
%LPD*%
G01*
D11*
X0413779Y0241092D03*
X0409055Y0241092D03*
X0418504Y0241092D03*
X0423228Y0241092D03*
X0397795Y0297884D03*
X0393858Y0297884D03*
D413*
X0399606Y0265502D03*
X0397638Y0265502D03*
X0395669Y0265502D03*
X0393701Y0265502D03*
X0391732Y0265502D03*
X0391732Y0248179D03*
X0393701Y0248179D03*
X0395669Y0248179D03*
X0397638Y0248179D03*
X0399606Y0248179D03*
G36*
G01*
X0412795Y0257982D02*
X0412795Y0254911D01*
G75*
G02*
X0412520Y0254636I-000276J0000000D01*
G01*
X0410315Y0254636D01*
G75*
G02*
X0410039Y0254911I0000000J0000276D01*
G01*
X0410039Y0257982D01*
G75*
G02*
X0410315Y0258258I0000276J0000000D01*
G01*
X0412520Y0258258D01*
G75*
G02*
X0412795Y0257982I0000000J-000276D01*
G01*
G37*
G36*
G01*
X0406496Y0257982D02*
X0406496Y0254911D01*
G75*
G02*
X0406220Y0254636I-000276J0000000D01*
G01*
X0404016Y0254636D01*
G75*
G02*
X0403740Y0254911I0000000J0000276D01*
G01*
X0403740Y0257982D01*
G75*
G02*
X0404016Y0258258I0000276J0000000D01*
G01*
X0406220Y0258258D01*
G75*
G02*
X0406496Y0257982I0000000J-000276D01*
G01*
G37*
G36*
G01*
X0419449Y0243651D02*
X0416378Y0243651D01*
G75*
G02*
X0416102Y0243927I0000000J0000276D01*
G01*
X0416102Y0246132D01*
G75*
G02*
X0416378Y0246407I0000276J0000000D01*
G01*
X0419449Y0246407D01*
G75*
G02*
X0419724Y0246132I0000000J-000276D01*
G01*
X0419724Y0243927D01*
G75*
G02*
X0419449Y0243651I-000276J0000000D01*
G01*
G37*
G36*
G01*
X0419449Y0249951D02*
X0416378Y0249951D01*
G75*
G02*
X0416102Y0250226I0000000J0000276D01*
G01*
X0416102Y0252431D01*
G75*
G02*
X0416378Y0252706I0000276J0000000D01*
G01*
X0419449Y0252706D01*
G75*
G02*
X0419724Y0252431I0000000J-000276D01*
G01*
X0419724Y0250226D01*
G75*
G02*
X0419449Y0249951I-000276J0000000D01*
G01*
G37*
G36*
G01*
X0412795Y0263888D02*
X0412795Y0260817D01*
G75*
G02*
X0412520Y0260541I-000276J0000000D01*
G01*
X0410315Y0260541D01*
G75*
G02*
X0410039Y0260817I0000000J0000276D01*
G01*
X0410039Y0263888D01*
G75*
G02*
X0410315Y0264163I0000276J0000000D01*
G01*
X0412520Y0264163D01*
G75*
G02*
X0412795Y0263888I0000000J-000276D01*
G01*
G37*
G36*
G01*
X0406496Y0263888D02*
X0406496Y0260817D01*
G75*
G02*
X0406220Y0260541I-000276J0000000D01*
G01*
X0404016Y0260541D01*
G75*
G02*
X0403740Y0260817I0000000J0000276D01*
G01*
X0403740Y0263888D01*
G75*
G02*
X0404016Y0264163I0000276J0000000D01*
G01*
X0406220Y0264163D01*
G75*
G02*
X0406496Y0263888I0000000J-000276D01*
G01*
G37*
G36*
G01*
X0416535Y0274537D02*
X0416535Y0271821D01*
G75*
G02*
X0415630Y0270915I-000906J0000000D01*
G01*
X0410354Y0270915D01*
G75*
G02*
X0409449Y0271821I0000000J0000906D01*
G01*
X0409449Y0274537D01*
G75*
G02*
X0410354Y0275443I0000906J0000000D01*
G01*
X0415630Y0275443D01*
G75*
G02*
X0416535Y0274537I0000000J-000906D01*
G01*
G37*
G36*
G01*
X0416535Y0285955D02*
X0416535Y0283238D01*
G75*
G02*
X0415630Y0282332I-000906J0000000D01*
G01*
X0410354Y0282332D01*
G75*
G02*
X0409449Y0283238I0000000J0000906D01*
G01*
X0409449Y0285955D01*
G75*
G02*
X0410354Y0286860I0000906J0000000D01*
G01*
X0415630Y0286860D01*
G75*
G02*
X0416535Y0285955I0000000J-000906D01*
G01*
G37*
G36*
G01*
X0406693Y0274537D02*
X0406693Y0271821D01*
G75*
G02*
X0405787Y0270915I-000906J0000000D01*
G01*
X0400512Y0270915D01*
G75*
G02*
X0399606Y0271821I0000000J0000906D01*
G01*
X0399606Y0274537D01*
G75*
G02*
X0400512Y0275443I0000906J0000000D01*
G01*
X0405787Y0275443D01*
G75*
G02*
X0406693Y0274537I0000000J-000906D01*
G01*
G37*
G36*
G01*
X0406693Y0285955D02*
X0406693Y0283238D01*
G75*
G02*
X0405787Y0282332I-000906J0000000D01*
G01*
X0400512Y0282332D01*
G75*
G02*
X0399606Y0283238I0000000J0000906D01*
G01*
X0399606Y0285955D01*
G75*
G02*
X0400512Y0286860I0000906J0000000D01*
G01*
X0405787Y0286860D01*
G75*
G02*
X0406693Y0285955I0000000J-000906D01*
G01*
G37*
G36*
G01*
X0413012Y0296604D02*
X0415728Y0296604D01*
G75*
G02*
X0416634Y0295699I0000000J-000906D01*
G01*
X0416634Y0290423D01*
G75*
G02*
X0415728Y0289517I-000906J0000000D01*
G01*
X0413012Y0289517D01*
G75*
G02*
X0412106Y0290423I0000000J0000906D01*
G01*
X0412106Y0295699D01*
G75*
G02*
X0413012Y0296604I0000906J0000000D01*
G01*
G37*
G36*
G01*
X0401594Y0296604D02*
X0404311Y0296604D01*
G75*
G02*
X0405216Y0295699I0000000J-000906D01*
G01*
X0405216Y0290423D01*
G75*
G02*
X0404311Y0289517I-000906J0000000D01*
G01*
X0401594Y0289517D01*
G75*
G02*
X0400689Y0290423I0000000J0000906D01*
G01*
X0400689Y0295699D01*
G75*
G02*
X0401594Y0296604I0000906J0000000D01*
G01*
G37*
G36*
G01*
X0397244Y0281230D02*
X0397244Y0278514D01*
G75*
G02*
X0396338Y0277608I-000906J0000000D01*
G01*
X0391063Y0277608D01*
G75*
G02*
X0390157Y0278514I0000000J0000906D01*
G01*
X0390157Y0281230D01*
G75*
G02*
X0391063Y0282136I0000906J0000000D01*
G01*
X0396338Y0282136D01*
G75*
G02*
X0397244Y0281230I0000000J-000906D01*
G01*
G37*
G36*
G01*
X0397244Y0292647D02*
X0397244Y0289931D01*
G75*
G02*
X0396338Y0289025I-000906J0000000D01*
G01*
X0391063Y0289025D01*
G75*
G02*
X0390157Y0289931I0000000J0000906D01*
G01*
X0390157Y0292647D01*
G75*
G02*
X0391063Y0293553I0000906J0000000D01*
G01*
X0396338Y0293553D01*
G75*
G02*
X0397244Y0292647I0000000J-000906D01*
G01*
G37*
G36*
G01*
X0419119Y0255561D02*
X0417101Y0255561D01*
G75*
G02*
X0416240Y0256422I0000000J0000861D01*
G01*
X0416240Y0258144D01*
G75*
G02*
X0417101Y0259006I0000861J0000000D01*
G01*
X0419119Y0259006D01*
G75*
G02*
X0419980Y0258144I0000000J-000861D01*
G01*
X0419980Y0256422D01*
G75*
G02*
X0419119Y0255561I-000861J0000000D01*
G01*
G37*
G36*
G01*
X0419119Y0261762D02*
X0417101Y0261762D01*
G75*
G02*
X0416240Y0262623I0000000J0000861D01*
G01*
X0416240Y0264345D01*
G75*
G02*
X0417101Y0265206I0000861J0000000D01*
G01*
X0419119Y0265206D01*
G75*
G02*
X0419980Y0264345I0000000J-000861D01*
G01*
X0419980Y0262623D01*
G75*
G02*
X0419119Y0261762I-000861J0000000D01*
G01*
G37*
G36*
G01*
X0412157Y0249616D02*
X0409480Y0249616D01*
G75*
G02*
X0409145Y0249951I0000000J0000335D01*
G01*
X0409145Y0252628D01*
G75*
G02*
X0409480Y0252962I0000335J0000000D01*
G01*
X0412157Y0252962D01*
G75*
G02*
X0412492Y0252628I0000000J-000335D01*
G01*
X0412492Y0249951D01*
G75*
G02*
X0412157Y0249616I-000335J0000000D01*
G01*
G37*
G36*
G01*
X0412157Y0243395D02*
X0409480Y0243395D01*
G75*
G02*
X0409145Y0243730I0000000J0000335D01*
G01*
X0409145Y0246407D01*
G75*
G02*
X0409480Y0246742I0000335J0000000D01*
G01*
X0412157Y0246742D01*
G75*
G02*
X0412492Y0246407I0000000J-000335D01*
G01*
X0412492Y0243730D01*
G75*
G02*
X0412157Y0243395I-000335J0000000D01*
G01*
G37*
G36*
G01*
X0406850Y0243395D02*
X0404173Y0243395D01*
G75*
G02*
X0403838Y0243730I0000000J0000335D01*
G01*
X0403838Y0246407D01*
G75*
G02*
X0404173Y0246742I0000335J0000000D01*
G01*
X0406850Y0246742D01*
G75*
G02*
X0407185Y0246407I0000000J-000335D01*
G01*
X0407185Y0243730D01*
G75*
G02*
X0406850Y0243395I-000335J0000000D01*
G01*
G37*
G36*
G01*
X0406850Y0249616D02*
X0404173Y0249616D01*
G75*
G02*
X0403838Y0249951I0000000J0000335D01*
G01*
X0403838Y0252628D01*
G75*
G02*
X0404173Y0252962I0000335J0000000D01*
G01*
X0406850Y0252962D01*
G75*
G02*
X0407185Y0252628I0000000J-000335D01*
G01*
X0407185Y0249951D01*
G75*
G02*
X0406850Y0249616I-000335J0000000D01*
G01*
G37*
G36*
G01*
X0413051Y0268809D02*
X0413051Y0266132D01*
G75*
G02*
X0412716Y0265797I-000335J0000000D01*
G01*
X0410039Y0265797D01*
G75*
G02*
X0409705Y0266132I0000000J0000335D01*
G01*
X0409705Y0268809D01*
G75*
G02*
X0410039Y0269143I0000335J0000000D01*
G01*
X0412716Y0269143D01*
G75*
G02*
X0413051Y0268809I0000000J-000335D01*
G01*
G37*
G36*
G01*
X0406831Y0268809D02*
X0406831Y0266132D01*
G75*
G02*
X0406496Y0265797I-000335J0000000D01*
G01*
X0403819Y0265797D01*
G75*
G02*
X0403484Y0266132I0000000J0000335D01*
G01*
X0403484Y0268809D01*
G75*
G02*
X0403819Y0269143I0000335J0000000D01*
G01*
X0406496Y0269143D01*
G75*
G02*
X0406831Y0268809I0000000J-000335D01*
G01*
G37*
X0346555Y0298622D02*
%LPD*%
G01*
D11*
X0373720Y0240354D03*
X0368996Y0240354D03*
X0378445Y0240354D03*
X0383169Y0240354D03*
X0357736Y0297146D03*
X0353799Y0297146D03*
G36*
G01*
X0364173Y0281181D02*
X0365630Y0281181D01*
G75*
G02*
X0366161Y0280650I0000000J-000531D01*
G01*
X0366161Y0279587D01*
G75*
G02*
X0365630Y0279055I-000531J0000000D01*
G01*
X0364173Y0279055D01*
G75*
G02*
X0363642Y0279587I0000000J0000531D01*
G01*
X0363642Y0280650D01*
G75*
G02*
X0364173Y0281181I0000531J0000000D01*
G01*
G37*
G36*
G01*
X0364173Y0285197D02*
X0365630Y0285197D01*
G75*
G02*
X0366161Y0284665I0000000J-000531D01*
G01*
X0366161Y0283602D01*
G75*
G02*
X0365630Y0283071I-000531J0000000D01*
G01*
X0364173Y0283071D01*
G75*
G02*
X0363642Y0283602I0000000J0000531D01*
G01*
X0363642Y0284665D01*
G75*
G02*
X0364173Y0285197I0000531J0000000D01*
G01*
G37*
G36*
G01*
X0348484Y0257933D02*
X0348484Y0259390D01*
G75*
G02*
X0349016Y0259921I0000531J0000000D01*
G01*
X0350079Y0259921D01*
G75*
G02*
X0350610Y0259390I0000000J-000531D01*
G01*
X0350610Y0257933D01*
G75*
G02*
X0350079Y0257402I-000531J0000000D01*
G01*
X0349016Y0257402D01*
G75*
G02*
X0348484Y0257933I0000000J0000531D01*
G01*
G37*
G36*
G01*
X0352500Y0257933D02*
X0352500Y0259390D01*
G75*
G02*
X0353031Y0259921I0000531J0000000D01*
G01*
X0354094Y0259921D01*
G75*
G02*
X0354626Y0259390I0000000J-000531D01*
G01*
X0354626Y0257933D01*
G75*
G02*
X0354094Y0257402I-000531J0000000D01*
G01*
X0353031Y0257402D01*
G75*
G02*
X0352500Y0257933I0000000J0000531D01*
G01*
G37*
G36*
G01*
X0380827Y0268905D02*
X0382008Y0268905D01*
G75*
G02*
X0382598Y0268315I0000000J-000591D01*
G01*
X0382598Y0261819D01*
G75*
G02*
X0382008Y0261228I-000591J0000000D01*
G01*
X0380827Y0261228D01*
G75*
G02*
X0380236Y0261819I0000000J0000591D01*
G01*
X0380236Y0268315D01*
G75*
G02*
X0380827Y0268905I0000591J0000000D01*
G01*
G37*
G36*
G01*
X0375827Y0268905D02*
X0377008Y0268905D01*
G75*
G02*
X0377598Y0268315I0000000J-000591D01*
G01*
X0377598Y0261819D01*
G75*
G02*
X0377008Y0261228I-000591J0000000D01*
G01*
X0375827Y0261228D01*
G75*
G02*
X0375236Y0261819I0000000J0000591D01*
G01*
X0375236Y0268315D01*
G75*
G02*
X0375827Y0268905I0000591J0000000D01*
G01*
G37*
G36*
G01*
X0370827Y0268905D02*
X0372008Y0268905D01*
G75*
G02*
X0372598Y0268315I0000000J-000591D01*
G01*
X0372598Y0261819D01*
G75*
G02*
X0372008Y0261228I-000591J0000000D01*
G01*
X0370827Y0261228D01*
G75*
G02*
X0370236Y0261819I0000000J0000591D01*
G01*
X0370236Y0268315D01*
G75*
G02*
X0370827Y0268905I0000591J0000000D01*
G01*
G37*
G36*
G01*
X0365827Y0268905D02*
X0367008Y0268905D01*
G75*
G02*
X0367598Y0268315I0000000J-000591D01*
G01*
X0367598Y0261819D01*
G75*
G02*
X0367008Y0261228I-000591J0000000D01*
G01*
X0365827Y0261228D01*
G75*
G02*
X0365236Y0261819I0000000J0000591D01*
G01*
X0365236Y0268315D01*
G75*
G02*
X0365827Y0268905I0000591J0000000D01*
G01*
G37*
G36*
G01*
X0365827Y0249417D02*
X0367008Y0249417D01*
G75*
G02*
X0367598Y0248827I0000000J-000591D01*
G01*
X0367598Y0242331D01*
G75*
G02*
X0367008Y0241740I-000591J0000000D01*
G01*
X0365827Y0241740D01*
G75*
G02*
X0365236Y0242331I0000000J0000591D01*
G01*
X0365236Y0248827D01*
G75*
G02*
X0365827Y0249417I0000591J0000000D01*
G01*
G37*
G36*
G01*
X0370827Y0249417D02*
X0372008Y0249417D01*
G75*
G02*
X0372598Y0248827I0000000J-000591D01*
G01*
X0372598Y0242331D01*
G75*
G02*
X0372008Y0241740I-000591J0000000D01*
G01*
X0370827Y0241740D01*
G75*
G02*
X0370236Y0242331I0000000J0000591D01*
G01*
X0370236Y0248827D01*
G75*
G02*
X0370827Y0249417I0000591J0000000D01*
G01*
G37*
G36*
G01*
X0375827Y0249417D02*
X0377008Y0249417D01*
G75*
G02*
X0377598Y0248827I0000000J-000591D01*
G01*
X0377598Y0242331D01*
G75*
G02*
X0377008Y0241740I-000591J0000000D01*
G01*
X0375827Y0241740D01*
G75*
G02*
X0375236Y0242331I0000000J0000591D01*
G01*
X0375236Y0248827D01*
G75*
G02*
X0375827Y0249417I0000591J0000000D01*
G01*
G37*
G36*
G01*
X0380827Y0249417D02*
X0382008Y0249417D01*
G75*
G02*
X0382598Y0248827I0000000J-000591D01*
G01*
X0382598Y0242331D01*
G75*
G02*
X0382008Y0241740I-000591J0000000D01*
G01*
X0380827Y0241740D01*
G75*
G02*
X0380236Y0242331I0000000J0000591D01*
G01*
X0380236Y0248827D01*
G75*
G02*
X0380827Y0249417I0000591J0000000D01*
G01*
G37*
D227*
X0381555Y0283425D03*
X0378996Y0283425D03*
X0376437Y0283425D03*
X0376437Y0275945D03*
X0378996Y0275945D03*
X0381555Y0275945D03*
G36*
G01*
X0362467Y0267264D02*
X0362467Y0265807D01*
G75*
G02*
X0361935Y0265276I-000531J0000000D01*
G01*
X0360872Y0265276D01*
G75*
G02*
X0360341Y0265807I0000000J0000531D01*
G01*
X0360341Y0267264D01*
G75*
G02*
X0360872Y0267795I0000531J0000000D01*
G01*
X0361935Y0267795D01*
G75*
G02*
X0362467Y0267264I0000000J-000531D01*
G01*
G37*
G36*
G01*
X0358451Y0267264D02*
X0358451Y0265807D01*
G75*
G02*
X0357920Y0265276I-000531J0000000D01*
G01*
X0356857Y0265276D01*
G75*
G02*
X0356325Y0265807I0000000J0000531D01*
G01*
X0356325Y0267264D01*
G75*
G02*
X0356857Y0267795I0000531J0000000D01*
G01*
X0357920Y0267795D01*
G75*
G02*
X0358451Y0267264I0000000J-000531D01*
G01*
G37*
G36*
G01*
X0356404Y0261929D02*
X0356404Y0263268D01*
G75*
G02*
X0356955Y0263819I0000551J0000000D01*
G01*
X0358057Y0263819D01*
G75*
G02*
X0358609Y0263268I0000000J-000551D01*
G01*
X0358609Y0261929D01*
G75*
G02*
X0358057Y0261378I-000551J0000000D01*
G01*
X0356955Y0261378D01*
G75*
G02*
X0356404Y0261929I0000000J0000551D01*
G01*
G37*
G36*
G01*
X0360183Y0261929D02*
X0360183Y0263268D01*
G75*
G02*
X0360735Y0263819I0000551J0000000D01*
G01*
X0361837Y0263819D01*
G75*
G02*
X0362388Y0263268I0000000J-000551D01*
G01*
X0362388Y0261929D01*
G75*
G02*
X0361837Y0261378I-000551J0000000D01*
G01*
X0360735Y0261378D01*
G75*
G02*
X0360183Y0261929I0000000J0000551D01*
G01*
G37*
G36*
G01*
X0348484Y0265807D02*
X0348484Y0267264D01*
G75*
G02*
X0349016Y0267795I0000531J0000000D01*
G01*
X0350079Y0267795D01*
G75*
G02*
X0350610Y0267264I0000000J-000531D01*
G01*
X0350610Y0265807D01*
G75*
G02*
X0350079Y0265276I-000531J0000000D01*
G01*
X0349016Y0265276D01*
G75*
G02*
X0348484Y0265807I0000000J0000531D01*
G01*
G37*
G36*
G01*
X0352500Y0265807D02*
X0352500Y0267264D01*
G75*
G02*
X0353031Y0267795I0000531J0000000D01*
G01*
X0354094Y0267795D01*
G75*
G02*
X0354626Y0267264I0000000J-000531D01*
G01*
X0354626Y0265807D01*
G75*
G02*
X0354094Y0265276I-000531J0000000D01*
G01*
X0353031Y0265276D01*
G75*
G02*
X0352500Y0265807I0000000J0000531D01*
G01*
G37*
G36*
G01*
X0354547Y0254213D02*
X0354547Y0252874D01*
G75*
G02*
X0353996Y0252323I-000551J0000000D01*
G01*
X0352894Y0252323D01*
G75*
G02*
X0352342Y0252874I0000000J0000551D01*
G01*
X0352342Y0254213D01*
G75*
G02*
X0352894Y0254764I0000551J0000000D01*
G01*
X0353996Y0254764D01*
G75*
G02*
X0354547Y0254213I0000000J-000551D01*
G01*
G37*
G36*
G01*
X0350768Y0254213D02*
X0350768Y0252874D01*
G75*
G02*
X0350216Y0252323I-000551J0000000D01*
G01*
X0349114Y0252323D01*
G75*
G02*
X0348563Y0252874I0000000J0000551D01*
G01*
X0348563Y0254213D01*
G75*
G02*
X0349114Y0254764I0000551J0000000D01*
G01*
X0350216Y0254764D01*
G75*
G02*
X0350768Y0254213I0000000J-000551D01*
G01*
G37*
G36*
G01*
X0358405Y0277342D02*
X0358405Y0276004D01*
G75*
G02*
X0357854Y0275453I-000551J0000000D01*
G01*
X0356752Y0275453D01*
G75*
G02*
X0356201Y0276004I0000000J0000551D01*
G01*
X0356201Y0277342D01*
G75*
G02*
X0356752Y0277894I0000551J0000000D01*
G01*
X0357854Y0277894D01*
G75*
G02*
X0358405Y0277342I0000000J-000551D01*
G01*
G37*
G36*
G01*
X0354626Y0277342D02*
X0354626Y0276004D01*
G75*
G02*
X0354075Y0275453I-000551J0000000D01*
G01*
X0352972Y0275453D01*
G75*
G02*
X0352421Y0276004I0000000J0000551D01*
G01*
X0352421Y0277342D01*
G75*
G02*
X0352972Y0277894I0000551J0000000D01*
G01*
X0354075Y0277894D01*
G75*
G02*
X0354626Y0277342I0000000J-000551D01*
G01*
G37*
G36*
G01*
X0361653Y0271575D02*
X0360197Y0271575D01*
G75*
G02*
X0359665Y0272106I0000000J0000531D01*
G01*
X0359665Y0273169D01*
G75*
G02*
X0360197Y0273701I0000531J0000000D01*
G01*
X0361653Y0273701D01*
G75*
G02*
X0362185Y0273169I0000000J-000531D01*
G01*
X0362185Y0272106D01*
G75*
G02*
X0361653Y0271575I-000531J0000000D01*
G01*
G37*
G36*
G01*
X0361653Y0275591D02*
X0360197Y0275591D01*
G75*
G02*
X0359665Y0276122I0000000J0000531D01*
G01*
X0359665Y0277185D01*
G75*
G02*
X0360197Y0277716I0000531J0000000D01*
G01*
X0361653Y0277716D01*
G75*
G02*
X0362185Y0277185I0000000J-000531D01*
G01*
X0362185Y0276122D01*
G75*
G02*
X0361653Y0275591I-000531J0000000D01*
G01*
G37*
G36*
G01*
X0362382Y0240748D02*
X0361043Y0240748D01*
G75*
G02*
X0360492Y0241299I0000000J0000551D01*
G01*
X0360492Y0242402D01*
G75*
G02*
X0361043Y0242953I0000551J0000000D01*
G01*
X0362382Y0242953D01*
G75*
G02*
X0362933Y0242402I0000000J-000551D01*
G01*
X0362933Y0241299D01*
G75*
G02*
X0362382Y0240748I-000551J0000000D01*
G01*
G37*
G36*
G01*
X0362382Y0244528D02*
X0361043Y0244528D01*
G75*
G02*
X0360492Y0245079I0000000J0000551D01*
G01*
X0360492Y0246181D01*
G75*
G02*
X0361043Y0246732I0000551J0000000D01*
G01*
X0362382Y0246732D01*
G75*
G02*
X0362933Y0246181I0000000J-000551D01*
G01*
X0362933Y0245079D01*
G75*
G02*
X0362382Y0244528I-000551J0000000D01*
G01*
G37*
G36*
G01*
X0368145Y0289803D02*
X0370162Y0289803D01*
G75*
G02*
X0371024Y0288942I0000000J-000861D01*
G01*
X0371024Y0287219D01*
G75*
G02*
X0370162Y0286358I-000861J0000000D01*
G01*
X0368145Y0286358D01*
G75*
G02*
X0367283Y0287219I0000000J0000861D01*
G01*
X0367283Y0288942D01*
G75*
G02*
X0368145Y0289803I0000861J0000000D01*
G01*
G37*
G36*
G01*
X0368145Y0296004D02*
X0370162Y0296004D01*
G75*
G02*
X0371024Y0295143I0000000J-000861D01*
G01*
X0371024Y0293420D01*
G75*
G02*
X0370162Y0292559I-000861J0000000D01*
G01*
X0368145Y0292559D01*
G75*
G02*
X0367283Y0293420I0000000J0000861D01*
G01*
X0367283Y0295143D01*
G75*
G02*
X0368145Y0296004I0000861J0000000D01*
G01*
G37*
G36*
G01*
X0373366Y0271024D02*
X0373366Y0272362D01*
G75*
G02*
X0373917Y0272913I0000551J0000000D01*
G01*
X0375020Y0272913D01*
G75*
G02*
X0375571Y0272362I0000000J-000551D01*
G01*
X0375571Y0271024D01*
G75*
G02*
X0375020Y0270472I-000551J0000000D01*
G01*
X0373917Y0270472D01*
G75*
G02*
X0373366Y0271024I0000000J0000551D01*
G01*
G37*
G36*
G01*
X0377146Y0271024D02*
X0377146Y0272362D01*
G75*
G02*
X0377697Y0272913I0000551J0000000D01*
G01*
X0378799Y0272913D01*
G75*
G02*
X0379350Y0272362I0000000J-000551D01*
G01*
X0379350Y0271024D01*
G75*
G02*
X0378799Y0270472I-000551J0000000D01*
G01*
X0377697Y0270472D01*
G75*
G02*
X0377146Y0271024I0000000J0000551D01*
G01*
G37*
G36*
G01*
X0376220Y0288661D02*
X0374764Y0288661D01*
G75*
G02*
X0374232Y0289193I0000000J0000531D01*
G01*
X0374232Y0290256D01*
G75*
G02*
X0374764Y0290787I0000531J0000000D01*
G01*
X0376220Y0290787D01*
G75*
G02*
X0376752Y0290256I0000000J-000531D01*
G01*
X0376752Y0289193D01*
G75*
G02*
X0376220Y0288661I-000531J0000000D01*
G01*
G37*
G36*
G01*
X0376220Y0292677D02*
X0374764Y0292677D01*
G75*
G02*
X0374232Y0293209I0000000J0000531D01*
G01*
X0374232Y0294272D01*
G75*
G02*
X0374764Y0294803I0000531J0000000D01*
G01*
X0376220Y0294803D01*
G75*
G02*
X0376752Y0294272I0000000J-000531D01*
G01*
X0376752Y0293209D01*
G75*
G02*
X0376220Y0292677I-000531J0000000D01*
G01*
G37*
G36*
G01*
X0364134Y0277716D02*
X0365590Y0277716D01*
G75*
G02*
X0366122Y0277185I0000000J-000531D01*
G01*
X0366122Y0276122D01*
G75*
G02*
X0365590Y0275591I-000531J0000000D01*
G01*
X0364134Y0275591D01*
G75*
G02*
X0363602Y0276122I0000000J0000531D01*
G01*
X0363602Y0277185D01*
G75*
G02*
X0364134Y0277716I0000531J0000000D01*
G01*
G37*
G36*
G01*
X0364134Y0273701D02*
X0365590Y0273701D01*
G75*
G02*
X0366122Y0273169I0000000J-000531D01*
G01*
X0366122Y0272106D01*
G75*
G02*
X0365590Y0271575I-000531J0000000D01*
G01*
X0364134Y0271575D01*
G75*
G02*
X0363602Y0272106I0000000J0000531D01*
G01*
X0363602Y0273169D01*
G75*
G02*
X0364134Y0273701I0000531J0000000D01*
G01*
G37*
G36*
G01*
X0358343Y0272579D02*
X0358343Y0271122D01*
G75*
G02*
X0357812Y0270591I-000531J0000000D01*
G01*
X0356749Y0270591D01*
G75*
G02*
X0356217Y0271122I0000000J0000531D01*
G01*
X0356217Y0272579D01*
G75*
G02*
X0356749Y0273110I0000531J0000000D01*
G01*
X0357812Y0273110D01*
G75*
G02*
X0358343Y0272579I0000000J-000531D01*
G01*
G37*
G36*
G01*
X0354327Y0272579D02*
X0354327Y0271122D01*
G75*
G02*
X0353796Y0270591I-000531J0000000D01*
G01*
X0352733Y0270591D01*
G75*
G02*
X0352202Y0271122I0000000J0000531D01*
G01*
X0352202Y0272579D01*
G75*
G02*
X0352733Y0273110I0000531J0000000D01*
G01*
X0353796Y0273110D01*
G75*
G02*
X0354327Y0272579I0000000J-000531D01*
G01*
G37*
G36*
G01*
X0364941Y0289921D02*
X0363602Y0289921D01*
G75*
G02*
X0363051Y0290472I0000000J0000551D01*
G01*
X0363051Y0291575D01*
G75*
G02*
X0363602Y0292126I0000551J0000000D01*
G01*
X0364941Y0292126D01*
G75*
G02*
X0365492Y0291575I0000000J-000551D01*
G01*
X0365492Y0290472D01*
G75*
G02*
X0364941Y0289921I-000551J0000000D01*
G01*
G37*
G36*
G01*
X0364941Y0293701D02*
X0363602Y0293701D01*
G75*
G02*
X0363051Y0294252I0000000J0000551D01*
G01*
X0363051Y0295354D01*
G75*
G02*
X0363602Y0295905I0000551J0000000D01*
G01*
X0364941Y0295905D01*
G75*
G02*
X0365492Y0295354I0000000J-000551D01*
G01*
X0365492Y0294252D01*
G75*
G02*
X0364941Y0293701I-000551J0000000D01*
G01*
G37*
G36*
G01*
X0356404Y0252874D02*
X0356404Y0254213D01*
G75*
G02*
X0356955Y0254764I0000551J0000000D01*
G01*
X0358057Y0254764D01*
G75*
G02*
X0358609Y0254213I0000000J-000551D01*
G01*
X0358609Y0252874D01*
G75*
G02*
X0358057Y0252323I-000551J0000000D01*
G01*
X0356955Y0252323D01*
G75*
G02*
X0356404Y0252874I0000000J0000551D01*
G01*
G37*
G36*
G01*
X0360183Y0252874D02*
X0360183Y0254213D01*
G75*
G02*
X0360735Y0254764I0000551J0000000D01*
G01*
X0361837Y0254764D01*
G75*
G02*
X0362388Y0254213I0000000J-000551D01*
G01*
X0362388Y0252874D01*
G75*
G02*
X0361837Y0252323I-000551J0000000D01*
G01*
X0360735Y0252323D01*
G75*
G02*
X0360183Y0252874I0000000J0000551D01*
G01*
G37*
G36*
G01*
X0348878Y0277894D02*
X0350335Y0277894D01*
G75*
G02*
X0350866Y0277362I0000000J-000531D01*
G01*
X0350866Y0276299D01*
G75*
G02*
X0350335Y0275768I-000531J0000000D01*
G01*
X0348878Y0275768D01*
G75*
G02*
X0348346Y0276299I0000000J0000531D01*
G01*
X0348346Y0277362D01*
G75*
G02*
X0348878Y0277894I0000531J0000000D01*
G01*
G37*
G36*
G01*
X0348878Y0273878D02*
X0350335Y0273878D01*
G75*
G02*
X0350866Y0273346I0000000J-000531D01*
G01*
X0350866Y0272283D01*
G75*
G02*
X0350335Y0271752I-000531J0000000D01*
G01*
X0348878Y0271752D01*
G75*
G02*
X0348346Y0272283I0000000J0000531D01*
G01*
X0348346Y0273346D01*
G75*
G02*
X0348878Y0273878I0000531J0000000D01*
G01*
G37*
D226*
X0350098Y0248635D03*
X0350098Y0246076D03*
X0350098Y0243517D03*
X0357579Y0243517D03*
X0357579Y0246076D03*
X0357579Y0248635D03*
G36*
G01*
X0358884Y0294584D02*
X0360065Y0294584D01*
G75*
G02*
X0360656Y0293993I0000000J-000591D01*
G01*
X0360656Y0289958D01*
G75*
G02*
X0360065Y0289367I-000591J0000000D01*
G01*
X0358884Y0289367D01*
G75*
G02*
X0358294Y0289958I0000000J0000591D01*
G01*
X0358294Y0293993D01*
G75*
G02*
X0358884Y0294584I0000591J0000000D01*
G01*
G37*
G36*
G01*
X0355144Y0294584D02*
X0356325Y0294584D01*
G75*
G02*
X0356916Y0293993I0000000J-000591D01*
G01*
X0356916Y0289958D01*
G75*
G02*
X0356325Y0289367I-000591J0000000D01*
G01*
X0355144Y0289367D01*
G75*
G02*
X0354553Y0289958I0000000J0000591D01*
G01*
X0354553Y0293993D01*
G75*
G02*
X0355144Y0294584I0000591J0000000D01*
G01*
G37*
G36*
G01*
X0351404Y0294584D02*
X0352585Y0294584D01*
G75*
G02*
X0353175Y0293993I0000000J-000591D01*
G01*
X0353175Y0289958D01*
G75*
G02*
X0352585Y0289367I-000591J0000000D01*
G01*
X0351404Y0289367D01*
G75*
G02*
X0350813Y0289958I0000000J0000591D01*
G01*
X0350813Y0293993D01*
G75*
G02*
X0351404Y0294584I0000591J0000000D01*
G01*
G37*
G36*
G01*
X0351404Y0285627D02*
X0352585Y0285627D01*
G75*
G02*
X0353175Y0285037I0000000J-000591D01*
G01*
X0353175Y0281001D01*
G75*
G02*
X0352585Y0280411I-000591J0000000D01*
G01*
X0351404Y0280411D01*
G75*
G02*
X0350813Y0281001I0000000J0000591D01*
G01*
X0350813Y0285037D01*
G75*
G02*
X0351404Y0285627I0000591J0000000D01*
G01*
G37*
G36*
G01*
X0355144Y0285627D02*
X0356325Y0285627D01*
G75*
G02*
X0356916Y0285037I0000000J-000591D01*
G01*
X0356916Y0281001D01*
G75*
G02*
X0356325Y0280411I-000591J0000000D01*
G01*
X0355144Y0280411D01*
G75*
G02*
X0354553Y0281001I0000000J0000591D01*
G01*
X0354553Y0285037D01*
G75*
G02*
X0355144Y0285627I0000591J0000000D01*
G01*
G37*
G36*
G01*
X0358884Y0285627D02*
X0360065Y0285627D01*
G75*
G02*
X0360656Y0285037I0000000J-000591D01*
G01*
X0360656Y0281001D01*
G75*
G02*
X0360065Y0280411I-000591J0000000D01*
G01*
X0358884Y0280411D01*
G75*
G02*
X0358294Y0281001I0000000J0000591D01*
G01*
X0358294Y0285037D01*
G75*
G02*
X0358884Y0285627I0000591J0000000D01*
G01*
G37*
G36*
G01*
X0370768Y0283465D02*
X0372106Y0283465D01*
G75*
G02*
X0372657Y0282913I0000000J-000551D01*
G01*
X0372657Y0281811D01*
G75*
G02*
X0372106Y0281260I-000551J0000000D01*
G01*
X0370768Y0281260D01*
G75*
G02*
X0370216Y0281811I0000000J0000551D01*
G01*
X0370216Y0282913D01*
G75*
G02*
X0370768Y0283465I0000551J0000000D01*
G01*
G37*
G36*
G01*
X0370768Y0279685D02*
X0372106Y0279685D01*
G75*
G02*
X0372657Y0279134I0000000J-000551D01*
G01*
X0372657Y0278031D01*
G75*
G02*
X0372106Y0277480I-000551J0000000D01*
G01*
X0370768Y0277480D01*
G75*
G02*
X0370216Y0278031I0000000J0000551D01*
G01*
X0370216Y0279134D01*
G75*
G02*
X0370768Y0279685I0000551J0000000D01*
G01*
G37*
G36*
G01*
X0348563Y0261929D02*
X0348563Y0263268D01*
G75*
G02*
X0349114Y0263819I0000551J0000000D01*
G01*
X0350216Y0263819D01*
G75*
G02*
X0350768Y0263268I0000000J-000551D01*
G01*
X0350768Y0261929D01*
G75*
G02*
X0350216Y0261378I-000551J0000000D01*
G01*
X0349114Y0261378D01*
G75*
G02*
X0348563Y0261929I0000000J0000551D01*
G01*
G37*
G36*
G01*
X0352342Y0261929D02*
X0352342Y0263268D01*
G75*
G02*
X0352894Y0263819I0000551J0000000D01*
G01*
X0353996Y0263819D01*
G75*
G02*
X0354547Y0263268I0000000J-000551D01*
G01*
X0354547Y0261929D01*
G75*
G02*
X0353996Y0261378I-000551J0000000D01*
G01*
X0352894Y0261378D01*
G75*
G02*
X0352342Y0261929I0000000J0000551D01*
G01*
G37*
G36*
G01*
X0356325Y0257933D02*
X0356325Y0259390D01*
G75*
G02*
X0356857Y0259921I0000531J0000000D01*
G01*
X0357920Y0259921D01*
G75*
G02*
X0358451Y0259390I0000000J-000531D01*
G01*
X0358451Y0257933D01*
G75*
G02*
X0357920Y0257402I-000531J0000000D01*
G01*
X0356857Y0257402D01*
G75*
G02*
X0356325Y0257933I0000000J0000531D01*
G01*
G37*
G36*
G01*
X0360341Y0257933D02*
X0360341Y0259390D01*
G75*
G02*
X0360872Y0259921I0000531J0000000D01*
G01*
X0361935Y0259921D01*
G75*
G02*
X0362467Y0259390I0000000J-000531D01*
G01*
X0362467Y0257933D01*
G75*
G02*
X0361935Y0257402I-000531J0000000D01*
G01*
X0360872Y0257402D01*
G75*
G02*
X0360341Y0257933I0000000J0000531D01*
G01*
G37*
X0465846Y0298819D02*
G01*
G75*
D427*
X0451141Y0288595D02*
D03*
X0451141Y0296075D02*
D03*
X0459606Y0296075D02*
D03*
X0459606Y0292335D02*
D03*
X0435492Y0288595D02*
D03*
X0435492Y0296075D02*
D03*
X0443956Y0296075D02*
D03*
X0443956Y0292335D02*
D03*
D427*
X0459606Y0288595D02*
D03*
X0443956Y0288595D02*
D03*
D106*
X0430413Y0288583D02*
D03*
X0430413Y0292323D02*
D03*
X0430413Y0296063D02*
D03*
X0464665Y0292126D02*
D03*
X0464665Y0288583D02*
D03*
X0133071Y0111319D02*
G01*
G75*
D247*
X0178150Y0135686D02*
D03*
X0178150Y0117969D02*
D03*
D248*
X0174823Y0160138D02*
D03*
X0147461Y0160138D02*
D03*
D249*
X0163583Y0136910D02*
D03*
X0147441Y0136910D02*
D03*
D250*
X0165354Y0118799D02*
D03*
X0149606Y0118799D02*
D03*
D251*
X0142415Y0180577D02*
D03*
X0151667Y0176837D02*
D03*
D251*
X0151667Y0184317D02*
D03*
D230*
X0174502Y0190256D02*
D03*
D230*
X0174502Y0186516D02*
D03*
X0174502Y0182776D02*
D03*
X0182966Y0182776D02*
D03*
X0182966Y0190256D02*
D03*
D252*
X0186818Y0176255D02*
D03*
X0173826Y0176255D02*
D03*
D253*
X0168532Y0176543D02*
D03*
X0157114Y0176543D02*
D03*
D104*
X0187717Y0143996D02*
D03*
X0181496Y0143996D02*
D03*
X0177126Y0143996D02*
D03*
X0170906Y0143996D02*
D03*
D254*
X0137040Y0121107D02*
D03*
X0137040Y0125241D02*
D03*
X0187595Y0162981D02*
D03*
X0187595Y0167115D02*
D03*
X0187595Y0158268D02*
D03*
X0187595Y0154134D02*
D03*
X0188487Y0138619D02*
D03*
X0188487Y0134485D02*
D03*
D255*
X0169384Y0182826D02*
D03*
X0169384Y0186763D02*
D03*
X0155709Y0183728D02*
D03*
X0164370Y0183728D02*
D03*
X0155709Y0190125D02*
D03*
X0164370Y0190125D02*
D03*
D238*
X0147336Y0190256D02*
D03*
X0150880Y0190256D02*
D03*
D236*
X0183337Y0166918D02*
D03*
X0183337Y0163374D02*
D03*
X0183337Y0157874D02*
D03*
X0183337Y0154331D02*
D03*
X0188487Y0126318D02*
D03*
X0188487Y0129862D02*
D03*
D106*
X0198819Y0129429D02*
D03*
X0198819Y0125492D02*
D03*
D256*
X0136024Y0182972D02*
D03*
X0136024Y0116043D02*
D03*
X0136024Y0163484D02*
D03*
X0197047Y0163287D02*
D03*
X0197047Y0188484D02*
D03*
X0197047Y0138878D02*
D03*
X0197047Y0155807D02*
D03*
X0197047Y0114272D02*
D03*
X0136024Y0190256D02*
D03*
M02*
