G75*
G70*
%OFA0B0*%
%FSLAX25Y25*%
%IPPOS*%
%LPD*%
%AMOC8*
5,1,8,0,0,1.08239X$1,22.5*
%
%AMM10*
21,1,0.023620,0.030710,0.000000,0.000000,180.000000*
21,1,0.018900,0.035430,0.000000,0.000000,180.000000*
1,1,0.004720,-0.009450,0.015350*
1,1,0.004720,0.009450,0.015350*
1,1,0.004720,0.009450,-0.015350*
1,1,0.004720,-0.009450,-0.015350*
%
%AMM103*
21,1,0.035430,0.030320,-0.000000,-0.000000,0.000000*
21,1,0.028350,0.037400,-0.000000,-0.000000,0.000000*
1,1,0.007090,0.014170,-0.015160*
1,1,0.007090,-0.014170,-0.015160*
1,1,0.007090,-0.014170,0.015160*
1,1,0.007090,0.014170,0.015160*
%
%AMM104*
21,1,0.033470,0.026770,-0.000000,-0.000000,180.000000*
21,1,0.026770,0.033470,-0.000000,-0.000000,180.000000*
1,1,0.006690,-0.013390,0.013390*
1,1,0.006690,0.013390,0.013390*
1,1,0.006690,0.013390,-0.013390*
1,1,0.006690,-0.013390,-0.013390*
%
%AMM105*
21,1,0.027560,0.030710,-0.000000,-0.000000,0.000000*
21,1,0.022050,0.036220,-0.000000,-0.000000,0.000000*
1,1,0.005510,0.011020,-0.015350*
1,1,0.005510,-0.011020,-0.015350*
1,1,0.005510,-0.011020,0.015350*
1,1,0.005510,0.011020,0.015350*
%
%AMM11*
21,1,0.027560,0.018900,0.000000,0.000000,90.000000*
21,1,0.022840,0.023620,0.000000,0.000000,90.000000*
1,1,0.004720,0.009450,0.011420*
1,1,0.004720,0.009450,-0.011420*
1,1,0.004720,-0.009450,-0.011420*
1,1,0.004720,-0.009450,0.011420*
%
%AMM12*
21,1,0.031500,0.072440,0.000000,0.000000,90.000000*
21,1,0.025200,0.078740,0.000000,0.000000,90.000000*
1,1,0.006300,0.036220,0.012600*
1,1,0.006300,0.036220,-0.012600*
1,1,0.006300,-0.036220,-0.012600*
1,1,0.006300,-0.036220,0.012600*
%
%AMM13*
21,1,0.027560,0.018900,0.000000,0.000000,180.000000*
21,1,0.022840,0.023620,0.000000,0.000000,180.000000*
1,1,0.004720,-0.011420,0.009450*
1,1,0.004720,0.011420,0.009450*
1,1,0.004720,0.011420,-0.009450*
1,1,0.004720,-0.011420,-0.009450*
%
%AMM14*
21,1,0.023620,0.030710,0.000000,0.000000,270.000000*
21,1,0.018900,0.035430,0.000000,0.000000,270.000000*
1,1,0.004720,-0.015350,-0.009450*
1,1,0.004720,-0.015350,0.009450*
1,1,0.004720,0.015350,0.009450*
1,1,0.004720,0.015350,-0.009450*
%
%AMM143*
21,1,0.086610,0.073230,-0.000000,-0.000000,90.000000*
21,1,0.069290,0.090550,-0.000000,-0.000000,90.000000*
1,1,0.017320,0.036610,0.034650*
1,1,0.017320,0.036610,-0.034650*
1,1,0.017320,-0.036610,-0.034650*
1,1,0.017320,-0.036610,0.034650*
%
%AMM144*
21,1,0.094490,0.111020,-0.000000,-0.000000,180.000000*
21,1,0.075590,0.129920,-0.000000,-0.000000,180.000000*
1,1,0.018900,-0.037800,0.055510*
1,1,0.018900,0.037800,0.055510*
1,1,0.018900,0.037800,-0.055510*
1,1,0.018900,-0.037800,-0.055510*
%
%AMM145*
21,1,0.074800,0.083460,-0.000000,-0.000000,180.000000*
21,1,0.059840,0.098430,-0.000000,-0.000000,180.000000*
1,1,0.014960,-0.029920,0.041730*
1,1,0.014960,0.029920,0.041730*
1,1,0.014960,0.029920,-0.041730*
1,1,0.014960,-0.029920,-0.041730*
%
%AMM146*
21,1,0.078740,0.053540,-0.000000,-0.000000,0.000000*
21,1,0.065350,0.066930,-0.000000,-0.000000,0.000000*
1,1,0.013390,0.032680,-0.026770*
1,1,0.013390,-0.032680,-0.026770*
1,1,0.013390,-0.032680,0.026770*
1,1,0.013390,0.032680,0.026770*
%
%AMM147*
21,1,0.035430,0.030320,-0.000000,-0.000000,270.000000*
21,1,0.028350,0.037400,-0.000000,-0.000000,270.000000*
1,1,0.007090,-0.015160,-0.014170*
1,1,0.007090,-0.015160,0.014170*
1,1,0.007090,0.015160,0.014170*
1,1,0.007090,0.015160,-0.014170*
%
%AMM148*
21,1,0.021650,0.052760,-0.000000,-0.000000,90.000000*
21,1,0.017320,0.057090,-0.000000,-0.000000,90.000000*
1,1,0.004330,0.026380,0.008660*
1,1,0.004330,0.026380,-0.008660*
1,1,0.004330,-0.026380,-0.008660*
1,1,0.004330,-0.026380,0.008660*
%
%AMM149*
21,1,0.035830,0.026770,-0.000000,-0.000000,180.000000*
21,1,0.029130,0.033470,-0.000000,-0.000000,180.000000*
1,1,0.006690,-0.014570,0.013390*
1,1,0.006690,0.014570,0.013390*
1,1,0.006690,0.014570,-0.013390*
1,1,0.006690,-0.014570,-0.013390*
%
%AMM15*
21,1,0.035430,0.030320,0.000000,0.000000,270.000000*
21,1,0.028350,0.037400,0.000000,0.000000,270.000000*
1,1,0.007090,-0.015160,-0.014170*
1,1,0.007090,-0.015160,0.014170*
1,1,0.007090,0.015160,0.014170*
1,1,0.007090,0.015160,-0.014170*
%
%AMM150*
21,1,0.070870,0.036220,-0.000000,-0.000000,270.000000*
21,1,0.061810,0.045280,-0.000000,-0.000000,270.000000*
1,1,0.009060,-0.018110,-0.030910*
1,1,0.009060,-0.018110,0.030910*
1,1,0.009060,0.018110,0.030910*
1,1,0.009060,0.018110,-0.030910*
%
%AMM151*
21,1,0.015750,0.016540,-0.000000,-0.000000,90.000000*
21,1,0.012600,0.019680,-0.000000,-0.000000,90.000000*
1,1,0.003150,0.008270,0.006300*
1,1,0.003150,0.008270,-0.006300*
1,1,0.003150,-0.008270,-0.006300*
1,1,0.003150,-0.008270,0.006300*
%
%AMM152*
21,1,0.023620,0.018900,-0.000000,-0.000000,270.000000*
21,1,0.018900,0.023620,-0.000000,-0.000000,270.000000*
1,1,0.004720,-0.009450,-0.009450*
1,1,0.004720,-0.009450,0.009450*
1,1,0.004720,0.009450,0.009450*
1,1,0.004720,0.009450,-0.009450*
%
%AMM153*
21,1,0.019680,0.019680,-0.000000,-0.000000,180.000000*
21,1,0.015750,0.023620,-0.000000,-0.000000,180.000000*
1,1,0.003940,-0.007870,0.009840*
1,1,0.003940,0.007870,0.009840*
1,1,0.003940,0.007870,-0.009840*
1,1,0.003940,-0.007870,-0.009840*
%
%AMM154*
21,1,0.019680,0.019680,-0.000000,-0.000000,90.000000*
21,1,0.015750,0.023620,-0.000000,-0.000000,90.000000*
1,1,0.003940,0.009840,0.007870*
1,1,0.003940,0.009840,-0.007870*
1,1,0.003940,-0.009840,-0.007870*
1,1,0.003940,-0.009840,0.007870*
%
%AMM16*
21,1,0.043310,0.075980,0.000000,0.000000,0.000000*
21,1,0.034650,0.084650,0.000000,0.000000,0.000000*
1,1,0.008660,0.017320,-0.037990*
1,1,0.008660,-0.017320,-0.037990*
1,1,0.008660,-0.017320,0.037990*
1,1,0.008660,0.017320,0.037990*
%
%AMM17*
21,1,0.039370,0.035430,0.000000,0.000000,0.000000*
21,1,0.031500,0.043310,0.000000,0.000000,0.000000*
1,1,0.007870,0.015750,-0.017720*
1,1,0.007870,-0.015750,-0.017720*
1,1,0.007870,-0.015750,0.017720*
1,1,0.007870,0.015750,0.017720*
%
%AMM18*
21,1,0.027560,0.030710,0.000000,0.000000,0.000000*
21,1,0.022050,0.036220,0.000000,0.000000,0.000000*
1,1,0.005510,0.011020,-0.015350*
1,1,0.005510,-0.011020,-0.015350*
1,1,0.005510,-0.011020,0.015350*
1,1,0.005510,0.011020,0.015350*
%
%AMM19*
21,1,0.031500,0.072440,0.000000,0.000000,0.000000*
21,1,0.025200,0.078740,0.000000,0.000000,0.000000*
1,1,0.006300,0.012600,-0.036220*
1,1,0.006300,-0.012600,-0.036220*
1,1,0.006300,-0.012600,0.036220*
1,1,0.006300,0.012600,0.036220*
%
%AMM20*
21,1,0.137800,0.067720,0.000000,0.000000,0.000000*
21,1,0.120870,0.084650,0.000000,0.000000,0.000000*
1,1,0.016930,0.060430,-0.033860*
1,1,0.016930,-0.060430,-0.033860*
1,1,0.016930,-0.060430,0.033860*
1,1,0.016930,0.060430,0.033860*
%
%AMM21*
21,1,0.043310,0.075990,0.000000,0.000000,0.000000*
21,1,0.034650,0.084650,0.000000,0.000000,0.000000*
1,1,0.008660,0.017320,-0.037990*
1,1,0.008660,-0.017320,-0.037990*
1,1,0.008660,-0.017320,0.037990*
1,1,0.008660,0.017320,0.037990*
%
%AMM22*
21,1,0.086610,0.073230,0.000000,0.000000,90.000000*
21,1,0.069290,0.090550,0.000000,0.000000,90.000000*
1,1,0.017320,0.036610,0.034650*
1,1,0.017320,0.036610,-0.034650*
1,1,0.017320,-0.036610,-0.034650*
1,1,0.017320,-0.036610,0.034650*
%
%AMM63*
21,1,0.021650,0.052760,0.000000,0.000000,270.000000*
21,1,0.017320,0.057090,0.000000,0.000000,270.000000*
1,1,0.004330,-0.026380,-0.008660*
1,1,0.004330,-0.026380,0.008660*
1,1,0.004330,0.026380,0.008660*
1,1,0.004330,0.026380,-0.008660*
%
%AMM7*
21,1,0.025590,0.026380,0.000000,0.000000,270.000000*
21,1,0.020470,0.031500,0.000000,0.000000,270.000000*
1,1,0.005120,-0.013190,-0.010240*
1,1,0.005120,-0.013190,0.010240*
1,1,0.005120,0.013190,0.010240*
1,1,0.005120,0.013190,-0.010240*
%
%AMM8*
21,1,0.017720,0.027950,0.000000,0.000000,270.000000*
21,1,0.014170,0.031500,0.000000,0.000000,270.000000*
1,1,0.003540,-0.013980,-0.007090*
1,1,0.003540,-0.013980,0.007090*
1,1,0.003540,0.013980,0.007090*
1,1,0.003540,0.013980,-0.007090*
%
%AMM9*
21,1,0.012600,0.028980,0.000000,0.000000,90.000000*
21,1,0.010080,0.031500,0.000000,0.000000,90.000000*
1,1,0.002520,0.014490,0.005040*
1,1,0.002520,0.014490,-0.005040*
1,1,0.002520,-0.014490,-0.005040*
1,1,0.002520,-0.014490,0.005040*
%
%ADD10C,0.00394*%
%ADD11C,0.00591*%
%ADD110M7*%
%ADD111M8*%
%ADD112M9*%
%ADD113O,0.04724X0.00866*%
%ADD114O,0.00866X0.04724*%
%ADD115O,0.04331X0.01181*%
%ADD116M10*%
%ADD117M11*%
%ADD118R,0.01378X0.00984*%
%ADD119R,0.00984X0.01378*%
%ADD12C,0.01181*%
%ADD120M12*%
%ADD121M13*%
%ADD122M14*%
%ADD123M15*%
%ADD124M16*%
%ADD125M17*%
%ADD126M18*%
%ADD127M19*%
%ADD128M20*%
%ADD129M21*%
%ADD13C,0.01575*%
%ADD130M22*%
%ADD15C,0.02362*%
%ADD199R,0.03543X0.03150*%
%ADD203R,0.03150X0.03543*%
%ADD226R,0.02559X0.01575*%
%ADD227R,0.01575X0.02559*%
%ADD228M63*%
%ADD267R,0.02559X0.07874*%
%ADD269R,0.04567X0.07677*%
%ADD282M103*%
%ADD283M104*%
%ADD284M105*%
%ADD288R,0.08661X0.04724*%
%ADD292R,0.12008X0.10827*%
%ADD295R,0.01181X0.05512*%
%ADD341M143*%
%ADD342M144*%
%ADD343M145*%
%ADD344M146*%
%ADD345M147*%
%ADD346M148*%
%ADD347M149*%
%ADD348M150*%
%ADD349M151*%
%ADD350M152*%
%ADD351M153*%
%ADD352M154*%
%ADD62R,0.00787X0.14567*%
%ADD63R,0.00787X0.01575*%
%ADD64R,0.00787X0.06299*%
%ADD65R,0.00787X0.38189*%
%ADD66R,0.00787X0.09055*%
%ADD67R,0.05512X0.00787*%
%ADD68R,0.25197X0.00787*%
%ADD69R,0.06693X0.00787*%
%ADD70R,0.12992X0.00787*%
%ADD71R,0.00787X0.27559*%
%ADD72R,0.00787X0.12992*%
%ADD73R,0.00787X0.24803*%
%ADD75O,0.00000X0.00000*%
%ADD92C,0.03150*%
%ADD95O,0.08661X0.02362*%
X0000000Y0000000D02*
%LPD*%
G01*
D10*
D11*
X1188189Y0133858D02*
X1613386Y0133858D01*
X1613386Y0007874D01*
X1188189Y0007874D01*
X1188189Y0133858D01*
D10*
D11*
X0000000Y1414960D02*
X1621260Y1414960D01*
X1621260Y0000000D01*
X0000000Y0000000D01*
X0000000Y1414960D01*
D10*
D11*
X0007874Y1407086D02*
X1613386Y1407086D01*
X1613386Y0007874D01*
X0007874Y0007874D01*
X0007874Y1407086D01*
D10*
D11*
X0196850Y1407086D02*
X0196850Y1414960D01*
D10*
D11*
X0393701Y1407086D02*
X0393701Y1414960D01*
D10*
D11*
X0590551Y1407086D02*
X0590551Y1414960D01*
D10*
D11*
X0787401Y1407086D02*
X0787401Y1414960D01*
D10*
D11*
X0984252Y1407086D02*
X0984252Y1414960D01*
D10*
D11*
X1181102Y1407086D02*
X1181102Y1414960D01*
D10*
D11*
X1377953Y1407086D02*
X1377953Y1414960D01*
D10*
D11*
X1574803Y1407086D02*
X1574803Y1414960D01*
D10*
D11*
X0102713Y1408686D02*
X0099788Y1408686D01*
X0101251Y1408686D02*
X0101251Y1413804D01*
X0101251Y1413804D02*
X0100763Y1413073D01*
X0100763Y1413073D02*
X0100276Y1412586D01*
X0100276Y1412586D02*
X0099788Y1412342D01*
D10*
D11*
X0296639Y1413317D02*
X0296883Y1413561D01*
X0296883Y1413561D02*
X0297370Y1413804D01*
X0297370Y1413804D02*
X0298589Y1413804D01*
X0298589Y1413804D02*
X0299076Y1413561D01*
X0299076Y1413561D02*
X0299320Y1413317D01*
X0299320Y1413317D02*
X0299563Y1412829D01*
X0299563Y1412829D02*
X0299563Y1412342D01*
X0299563Y1412342D02*
X0299320Y1411611D01*
X0299320Y1411611D02*
X0296395Y1408686D01*
X0296395Y1408686D02*
X0299563Y1408686D01*
D10*
D11*
X0493245Y1413804D02*
X0496414Y1413804D01*
X0496414Y1413804D02*
X0494708Y1411854D01*
X0494708Y1411854D02*
X0495439Y1411854D01*
X0495439Y1411854D02*
X0495926Y1411611D01*
X0495926Y1411611D02*
X0496170Y1411367D01*
X0496170Y1411367D02*
X0496414Y1410880D01*
X0496414Y1410880D02*
X0496414Y1409661D01*
X0496414Y1409661D02*
X0496170Y1409174D01*
X0496170Y1409174D02*
X0495926Y1408930D01*
X0495926Y1408930D02*
X0495439Y1408686D01*
X0495439Y1408686D02*
X0493977Y1408686D01*
X0493977Y1408686D02*
X0493489Y1408930D01*
X0493489Y1408930D02*
X0493245Y1409174D01*
D10*
D11*
X0692777Y1412098D02*
X0692777Y1408686D01*
X0691558Y1414048D02*
X0690340Y1410392D01*
X0690340Y1410392D02*
X0693508Y1410392D01*
D10*
D11*
X0889871Y1413804D02*
X0887434Y1413804D01*
X0887434Y1413804D02*
X0887190Y1411367D01*
X0887190Y1411367D02*
X0887434Y1411611D01*
X0887434Y1411611D02*
X0887921Y1411854D01*
X0887921Y1411854D02*
X0889140Y1411854D01*
X0889140Y1411854D02*
X0889627Y1411611D01*
X0889627Y1411611D02*
X0889871Y1411367D01*
X0889871Y1411367D02*
X0890115Y1410880D01*
X0890115Y1410880D02*
X0890115Y1409661D01*
X0890115Y1409661D02*
X0889871Y1409174D01*
X0889871Y1409174D02*
X0889627Y1408930D01*
X0889627Y1408930D02*
X0889140Y1408686D01*
X0889140Y1408686D02*
X0887921Y1408686D01*
X0887921Y1408686D02*
X0887434Y1408930D01*
X0887434Y1408930D02*
X0887190Y1409174D01*
D10*
D11*
X1086478Y1413804D02*
X1085503Y1413804D01*
X1085503Y1413804D02*
X1085015Y1413561D01*
X1085015Y1413561D02*
X1084772Y1413317D01*
X1084772Y1413317D02*
X1084284Y1412586D01*
X1084284Y1412586D02*
X1084040Y1411611D01*
X1084040Y1411611D02*
X1084040Y1409661D01*
X1084040Y1409661D02*
X1084284Y1409174D01*
X1084284Y1409174D02*
X1084528Y1408930D01*
X1084528Y1408930D02*
X1085015Y1408686D01*
X1085015Y1408686D02*
X1085990Y1408686D01*
X1085990Y1408686D02*
X1086478Y1408930D01*
X1086478Y1408930D02*
X1086721Y1409174D01*
X1086721Y1409174D02*
X1086965Y1409661D01*
X1086965Y1409661D02*
X1086965Y1410880D01*
X1086965Y1410880D02*
X1086721Y1411367D01*
X1086721Y1411367D02*
X1086478Y1411611D01*
X1086478Y1411611D02*
X1085990Y1411854D01*
X1085990Y1411854D02*
X1085015Y1411854D01*
X1085015Y1411854D02*
X1084528Y1411611D01*
X1084528Y1411611D02*
X1084284Y1411367D01*
X1084284Y1411367D02*
X1084040Y1410880D01*
D10*
D11*
X1280647Y1413804D02*
X1284059Y1413804D01*
X1284059Y1413804D02*
X1281866Y1408686D01*
D10*
D11*
X1478716Y1411611D02*
X1478229Y1411854D01*
X1478229Y1411854D02*
X1477985Y1412098D01*
X1477985Y1412098D02*
X1477741Y1412586D01*
X1477741Y1412586D02*
X1477741Y1412829D01*
X1477741Y1412829D02*
X1477985Y1413317D01*
X1477985Y1413317D02*
X1478229Y1413561D01*
X1478229Y1413561D02*
X1478716Y1413804D01*
X1478716Y1413804D02*
X1479691Y1413804D01*
X1479691Y1413804D02*
X1480178Y1413561D01*
X1480178Y1413561D02*
X1480422Y1413317D01*
X1480422Y1413317D02*
X1480666Y1412829D01*
X1480666Y1412829D02*
X1480666Y1412586D01*
X1480666Y1412586D02*
X1480422Y1412098D01*
X1480422Y1412098D02*
X1480178Y1411854D01*
X1480178Y1411854D02*
X1479691Y1411611D01*
X1479691Y1411611D02*
X1478716Y1411611D01*
X1478716Y1411611D02*
X1478229Y1411367D01*
X1478229Y1411367D02*
X1477985Y1411123D01*
X1477985Y1411123D02*
X1477741Y1410636D01*
X1477741Y1410636D02*
X1477741Y1409661D01*
X1477741Y1409661D02*
X1477985Y1409174D01*
X1477985Y1409174D02*
X1478229Y1408930D01*
X1478229Y1408930D02*
X1478716Y1408686D01*
X1478716Y1408686D02*
X1479691Y1408686D01*
X1479691Y1408686D02*
X1480178Y1408930D01*
X1480178Y1408930D02*
X1480422Y1409174D01*
X1480422Y1409174D02*
X1480666Y1409661D01*
X1480666Y1409661D02*
X1480666Y1410636D01*
X1480666Y1410636D02*
X1480422Y1411123D01*
X1480422Y1411123D02*
X1480178Y1411367D01*
X1480178Y1411367D02*
X1479691Y1411611D01*
D10*
D11*
X0196850Y0007874D02*
X0196850Y0000000D01*
D10*
D11*
X0393701Y0007874D02*
X0393701Y0000000D01*
D10*
D11*
X0590551Y0007874D02*
X0590551Y0000000D01*
D10*
D11*
X0787401Y0007874D02*
X0787401Y0000000D01*
D10*
D11*
X0984252Y0007874D02*
X0984252Y0000000D01*
D10*
D11*
X1181102Y0007874D02*
X1181102Y0000000D01*
D10*
D11*
X1377953Y0007874D02*
X1377953Y0000000D01*
D10*
D11*
X1574803Y0007874D02*
X1574803Y0000000D01*
D10*
D11*
X0102713Y0001600D02*
X0099788Y0001600D01*
X0101251Y0001600D02*
X0101251Y0006718D01*
X0101251Y0006718D02*
X0100763Y0005986D01*
X0100763Y0005986D02*
X0100276Y0005499D01*
X0100276Y0005499D02*
X0099788Y0005255D01*
D10*
D11*
X0296639Y0006230D02*
X0296883Y0006474D01*
X0296883Y0006474D02*
X0297370Y0006718D01*
X0297370Y0006718D02*
X0298589Y0006718D01*
X0298589Y0006718D02*
X0299076Y0006474D01*
X0299076Y0006474D02*
X0299320Y0006230D01*
X0299320Y0006230D02*
X0299563Y0005743D01*
X0299563Y0005743D02*
X0299563Y0005255D01*
X0299563Y0005255D02*
X0299320Y0004524D01*
X0299320Y0004524D02*
X0296395Y0001600D01*
X0296395Y0001600D02*
X0299563Y0001600D01*
D10*
D11*
X0493245Y0006718D02*
X0496414Y0006718D01*
X0496414Y0006718D02*
X0494708Y0004768D01*
X0494708Y0004768D02*
X0495439Y0004768D01*
X0495439Y0004768D02*
X0495926Y0004524D01*
X0495926Y0004524D02*
X0496170Y0004280D01*
X0496170Y0004280D02*
X0496414Y0003793D01*
X0496414Y0003793D02*
X0496414Y0002574D01*
X0496414Y0002574D02*
X0496170Y0002087D01*
X0496170Y0002087D02*
X0495926Y0001843D01*
X0495926Y0001843D02*
X0495439Y0001600D01*
X0495439Y0001600D02*
X0493977Y0001600D01*
X0493977Y0001600D02*
X0493489Y0001843D01*
X0493489Y0001843D02*
X0493245Y0002087D01*
D10*
D11*
X0692777Y0005012D02*
X0692777Y0001600D01*
X0691558Y0006961D02*
X0690340Y0003306D01*
X0690340Y0003306D02*
X0693508Y0003306D01*
D10*
D11*
X0889871Y0006718D02*
X0887434Y0006718D01*
X0887434Y0006718D02*
X0887190Y0004280D01*
X0887190Y0004280D02*
X0887434Y0004524D01*
X0887434Y0004524D02*
X0887921Y0004768D01*
X0887921Y0004768D02*
X0889140Y0004768D01*
X0889140Y0004768D02*
X0889627Y0004524D01*
X0889627Y0004524D02*
X0889871Y0004280D01*
X0889871Y0004280D02*
X0890115Y0003793D01*
X0890115Y0003793D02*
X0890115Y0002574D01*
X0890115Y0002574D02*
X0889871Y0002087D01*
X0889871Y0002087D02*
X0889627Y0001843D01*
X0889627Y0001843D02*
X0889140Y0001600D01*
X0889140Y0001600D02*
X0887921Y0001600D01*
X0887921Y0001600D02*
X0887434Y0001843D01*
X0887434Y0001843D02*
X0887190Y0002087D01*
D10*
D11*
X1086478Y0006718D02*
X1085503Y0006718D01*
X1085503Y0006718D02*
X1085015Y0006474D01*
X1085015Y0006474D02*
X1084772Y0006230D01*
X1084772Y0006230D02*
X1084284Y0005499D01*
X1084284Y0005499D02*
X1084040Y0004524D01*
X1084040Y0004524D02*
X1084040Y0002574D01*
X1084040Y0002574D02*
X1084284Y0002087D01*
X1084284Y0002087D02*
X1084528Y0001843D01*
X1084528Y0001843D02*
X1085015Y0001600D01*
X1085015Y0001600D02*
X1085990Y0001600D01*
X1085990Y0001600D02*
X1086478Y0001843D01*
X1086478Y0001843D02*
X1086721Y0002087D01*
X1086721Y0002087D02*
X1086965Y0002574D01*
X1086965Y0002574D02*
X1086965Y0003793D01*
X1086965Y0003793D02*
X1086721Y0004280D01*
X1086721Y0004280D02*
X1086478Y0004524D01*
X1086478Y0004524D02*
X1085990Y0004768D01*
X1085990Y0004768D02*
X1085015Y0004768D01*
X1085015Y0004768D02*
X1084528Y0004524D01*
X1084528Y0004524D02*
X1084284Y0004280D01*
X1084284Y0004280D02*
X1084040Y0003793D01*
D10*
D11*
X1280647Y0006718D02*
X1284059Y0006718D01*
X1284059Y0006718D02*
X1281866Y0001600D01*
D10*
D11*
X1478716Y0004524D02*
X1478229Y0004768D01*
X1478229Y0004768D02*
X1477985Y0005012D01*
X1477985Y0005012D02*
X1477741Y0005499D01*
X1477741Y0005499D02*
X1477741Y0005743D01*
X1477741Y0005743D02*
X1477985Y0006230D01*
X1477985Y0006230D02*
X1478229Y0006474D01*
X1478229Y0006474D02*
X1478716Y0006718D01*
X1478716Y0006718D02*
X1479691Y0006718D01*
X1479691Y0006718D02*
X1480178Y0006474D01*
X1480178Y0006474D02*
X1480422Y0006230D01*
X1480422Y0006230D02*
X1480666Y0005743D01*
X1480666Y0005743D02*
X1480666Y0005499D01*
X1480666Y0005499D02*
X1480422Y0005012D01*
X1480422Y0005012D02*
X1480178Y0004768D01*
X1480178Y0004768D02*
X1479691Y0004524D01*
X1479691Y0004524D02*
X1478716Y0004524D01*
X1478716Y0004524D02*
X1478229Y0004280D01*
X1478229Y0004280D02*
X1477985Y0004037D01*
X1477985Y0004037D02*
X1477741Y0003549D01*
X1477741Y0003549D02*
X1477741Y0002574D01*
X1477741Y0002574D02*
X1477985Y0002087D01*
X1477985Y0002087D02*
X1478229Y0001843D01*
X1478229Y0001843D02*
X1478716Y0001600D01*
X1478716Y0001600D02*
X1479691Y0001600D01*
X1479691Y0001600D02*
X1480178Y0001843D01*
X1480178Y0001843D02*
X1480422Y0002087D01*
X1480422Y0002087D02*
X1480666Y0002574D01*
X1480666Y0002574D02*
X1480666Y0003549D01*
X1480666Y0003549D02*
X1480422Y0004037D01*
X1480422Y0004037D02*
X1480178Y0004280D01*
X1480178Y0004280D02*
X1479691Y0004524D01*
D10*
D11*
X0000000Y1218110D02*
X0007874Y1218110D01*
D10*
D11*
X0000000Y1021259D02*
X0007874Y1021259D01*
D10*
D11*
X0000000Y0824409D02*
X0007874Y0824409D01*
D10*
D11*
X0000000Y0627559D02*
X0007874Y0627559D01*
D10*
D11*
X0000000Y0430708D02*
X0007874Y0430708D01*
D10*
D11*
X0000000Y0233858D02*
X0007874Y0233858D01*
D10*
D11*
X0000000Y0037007D02*
X0007874Y0037007D01*
D10*
D11*
X0002718Y1315660D02*
X0005155Y1315660D01*
X0002231Y1314198D02*
X0003937Y1319316D01*
X0003937Y1319316D02*
X0005643Y1314198D01*
D10*
D11*
X0004302Y1120028D02*
X0005034Y1119785D01*
X0005034Y1119785D02*
X0005277Y1119541D01*
X0005277Y1119541D02*
X0005521Y1119054D01*
X0005521Y1119054D02*
X0005521Y1118322D01*
X0005521Y1118322D02*
X0005277Y1117835D01*
X0005277Y1117835D02*
X0005034Y1117591D01*
X0005034Y1117591D02*
X0004546Y1117348D01*
X0004546Y1117348D02*
X0002596Y1117348D01*
X0002596Y1117348D02*
X0002596Y1122466D01*
X0002596Y1122466D02*
X0004302Y1122466D01*
X0004302Y1122466D02*
X0004790Y1122222D01*
X0004790Y1122222D02*
X0005034Y1121978D01*
X0005034Y1121978D02*
X0005277Y1121491D01*
X0005277Y1121491D02*
X0005277Y1121003D01*
X0005277Y1121003D02*
X0005034Y1120516D01*
X0005034Y1120516D02*
X0004790Y1120272D01*
X0004790Y1120272D02*
X0004302Y1120028D01*
X0004302Y1120028D02*
X0002596Y1120028D01*
D10*
D11*
X0005521Y0920985D02*
X0005277Y0920741D01*
X0005277Y0920741D02*
X0004546Y0920497D01*
X0004546Y0920497D02*
X0004059Y0920497D01*
X0004059Y0920497D02*
X0003328Y0920741D01*
X0003328Y0920741D02*
X0002840Y0921228D01*
X0002840Y0921228D02*
X0002596Y0921716D01*
X0002596Y0921716D02*
X0002353Y0922691D01*
X0002353Y0922691D02*
X0002353Y0923422D01*
X0002353Y0923422D02*
X0002596Y0924397D01*
X0002596Y0924397D02*
X0002840Y0924884D01*
X0002840Y0924884D02*
X0003328Y0925372D01*
X0003328Y0925372D02*
X0004059Y0925615D01*
X0004059Y0925615D02*
X0004546Y0925615D01*
X0004546Y0925615D02*
X0005277Y0925372D01*
X0005277Y0925372D02*
X0005521Y0925128D01*
D10*
D11*
X0002596Y0723647D02*
X0002596Y0728765D01*
X0002596Y0728765D02*
X0003815Y0728765D01*
X0003815Y0728765D02*
X0004546Y0728521D01*
X0004546Y0728521D02*
X0005034Y0728034D01*
X0005034Y0728034D02*
X0005277Y0727546D01*
X0005277Y0727546D02*
X0005521Y0726571D01*
X0005521Y0726571D02*
X0005521Y0725840D01*
X0005521Y0725840D02*
X0005277Y0724865D01*
X0005277Y0724865D02*
X0005034Y0724378D01*
X0005034Y0724378D02*
X0004546Y0723890D01*
X0004546Y0723890D02*
X0003815Y0723647D01*
X0003815Y0723647D02*
X0002596Y0723647D01*
D10*
D11*
X0002840Y0529477D02*
X0004546Y0529477D01*
X0005277Y0526796D02*
X0002840Y0526796D01*
X0002840Y0526796D02*
X0002840Y0531914D01*
X0002840Y0531914D02*
X0005277Y0531914D01*
D10*
D11*
X0004668Y0332627D02*
X0002962Y0332627D01*
X0002962Y0329946D02*
X0002962Y0335064D01*
X0002962Y0335064D02*
X0005399Y0335064D01*
D10*
D11*
X0005277Y0137970D02*
X0004790Y0138214D01*
X0004790Y0138214D02*
X0004059Y0138214D01*
X0004059Y0138214D02*
X0003328Y0137970D01*
X0003328Y0137970D02*
X0002840Y0137483D01*
X0002840Y0137483D02*
X0002596Y0136995D01*
X0002596Y0136995D02*
X0002353Y0136020D01*
X0002353Y0136020D02*
X0002353Y0135289D01*
X0002353Y0135289D02*
X0002596Y0134314D01*
X0002596Y0134314D02*
X0002840Y0133827D01*
X0002840Y0133827D02*
X0003328Y0133339D01*
X0003328Y0133339D02*
X0004059Y0133096D01*
X0004059Y0133096D02*
X0004546Y0133096D01*
X0004546Y0133096D02*
X0005277Y0133339D01*
X0005277Y0133339D02*
X0005521Y0133583D01*
X0005521Y0133583D02*
X0005521Y0135289D01*
X0005521Y0135289D02*
X0004546Y0135289D01*
D10*
D11*
X1621260Y1218110D02*
X1613386Y1218110D01*
D10*
D11*
X1621260Y1021259D02*
X1613386Y1021259D01*
D10*
D11*
X1621260Y0824409D02*
X1613386Y0824409D01*
D10*
D11*
X1621260Y0627559D02*
X1613386Y0627559D01*
D10*
D11*
X1621260Y0430708D02*
X1613386Y0430708D01*
D10*
D11*
X1621260Y0233858D02*
X1613386Y0233858D01*
D10*
D11*
X1621260Y0037007D02*
X1613386Y0037007D01*
D10*
D11*
X1616104Y1315660D02*
X1618541Y1315660D01*
X1615617Y1314198D02*
X1617323Y1319316D01*
X1617323Y1319316D02*
X1619029Y1314198D01*
D10*
D11*
X1617688Y1120028D02*
X1618419Y1119785D01*
X1618419Y1119785D02*
X1618663Y1119541D01*
X1618663Y1119541D02*
X1618907Y1119054D01*
X1618907Y1119054D02*
X1618907Y1118322D01*
X1618907Y1118322D02*
X1618663Y1117835D01*
X1618663Y1117835D02*
X1618419Y1117591D01*
X1618419Y1117591D02*
X1617932Y1117348D01*
X1617932Y1117348D02*
X1615982Y1117348D01*
X1615982Y1117348D02*
X1615982Y1122466D01*
X1615982Y1122466D02*
X1617688Y1122466D01*
X1617688Y1122466D02*
X1618176Y1122222D01*
X1618176Y1122222D02*
X1618419Y1121978D01*
X1618419Y1121978D02*
X1618663Y1121491D01*
X1618663Y1121491D02*
X1618663Y1121003D01*
X1618663Y1121003D02*
X1618419Y1120516D01*
X1618419Y1120516D02*
X1618176Y1120272D01*
X1618176Y1120272D02*
X1617688Y1120028D01*
X1617688Y1120028D02*
X1615982Y1120028D01*
D10*
D11*
X1618907Y0920985D02*
X1618663Y0920741D01*
X1618663Y0920741D02*
X1617932Y0920497D01*
X1617932Y0920497D02*
X1617445Y0920497D01*
X1617445Y0920497D02*
X1616713Y0920741D01*
X1616713Y0920741D02*
X1616226Y0921228D01*
X1616226Y0921228D02*
X1615982Y0921716D01*
X1615982Y0921716D02*
X1615738Y0922691D01*
X1615738Y0922691D02*
X1615738Y0923422D01*
X1615738Y0923422D02*
X1615982Y0924397D01*
X1615982Y0924397D02*
X1616226Y0924884D01*
X1616226Y0924884D02*
X1616713Y0925372D01*
X1616713Y0925372D02*
X1617445Y0925615D01*
X1617445Y0925615D02*
X1617932Y0925615D01*
X1617932Y0925615D02*
X1618663Y0925372D01*
X1618663Y0925372D02*
X1618907Y0925128D01*
D10*
D11*
X1615982Y0723647D02*
X1615982Y0728765D01*
X1615982Y0728765D02*
X1617201Y0728765D01*
X1617201Y0728765D02*
X1617932Y0728521D01*
X1617932Y0728521D02*
X1618419Y0728034D01*
X1618419Y0728034D02*
X1618663Y0727546D01*
X1618663Y0727546D02*
X1618907Y0726571D01*
X1618907Y0726571D02*
X1618907Y0725840D01*
X1618907Y0725840D02*
X1618663Y0724865D01*
X1618663Y0724865D02*
X1618419Y0724378D01*
X1618419Y0724378D02*
X1617932Y0723890D01*
X1617932Y0723890D02*
X1617201Y0723647D01*
X1617201Y0723647D02*
X1615982Y0723647D01*
D10*
D11*
X1616226Y0529477D02*
X1617932Y0529477D01*
X1618663Y0526796D02*
X1616226Y0526796D01*
X1616226Y0526796D02*
X1616226Y0531914D01*
X1616226Y0531914D02*
X1618663Y0531914D01*
D10*
D11*
X1618054Y0332627D02*
X1616348Y0332627D01*
X1616348Y0329946D02*
X1616348Y0335064D01*
X1616348Y0335064D02*
X1618785Y0335064D01*
D10*
D11*
X1618663Y0137970D02*
X1618176Y0138214D01*
X1618176Y0138214D02*
X1617445Y0138214D01*
X1617445Y0138214D02*
X1616713Y0137970D01*
X1616713Y0137970D02*
X1616226Y0137483D01*
X1616226Y0137483D02*
X1615982Y0136995D01*
X1615982Y0136995D02*
X1615738Y0136020D01*
X1615738Y0136020D02*
X1615738Y0135289D01*
X1615738Y0135289D02*
X1615982Y0134314D01*
X1615982Y0134314D02*
X1616226Y0133827D01*
X1616226Y0133827D02*
X1616713Y0133339D01*
X1616713Y0133339D02*
X1617445Y0133096D01*
X1617445Y0133096D02*
X1617932Y0133096D01*
X1617932Y0133096D02*
X1618663Y0133339D01*
X1618663Y0133339D02*
X1618907Y0133583D01*
X1618907Y0133583D02*
X1618907Y0135289D01*
X1618907Y0135289D02*
X1617932Y0135289D01*
D10*
D11*
X1280535Y0024464D02*
X1280535Y0030369D01*
X1280535Y0030369D02*
X1281941Y0030369D01*
X1281941Y0030369D02*
X1282784Y0030088D01*
X1282784Y0030088D02*
X1283347Y0029525D01*
X1283347Y0029525D02*
X1283628Y0028963D01*
X1283628Y0028963D02*
X1283909Y0027838D01*
X1283909Y0027838D02*
X1283909Y0026995D01*
X1283909Y0026995D02*
X1283628Y0025870D01*
X1283628Y0025870D02*
X1283347Y0025307D01*
X1283347Y0025307D02*
X1282784Y0024745D01*
X1282784Y0024745D02*
X1281941Y0024464D01*
X1281941Y0024464D02*
X1280535Y0024464D01*
X1288971Y0024464D02*
X1288971Y0027557D01*
X1288971Y0027557D02*
X1288690Y0028119D01*
X1288690Y0028119D02*
X1288127Y0028401D01*
X1288127Y0028401D02*
X1287003Y0028401D01*
X1287003Y0028401D02*
X1286440Y0028119D01*
X1288971Y0024745D02*
X1288409Y0024464D01*
X1288409Y0024464D02*
X1287003Y0024464D01*
X1287003Y0024464D02*
X1286440Y0024745D01*
X1286440Y0024745D02*
X1286159Y0025307D01*
X1286159Y0025307D02*
X1286159Y0025870D01*
X1286159Y0025870D02*
X1286440Y0026432D01*
X1286440Y0026432D02*
X1287003Y0026713D01*
X1287003Y0026713D02*
X1288409Y0026713D01*
X1288409Y0026713D02*
X1288971Y0026995D01*
X1290940Y0028401D02*
X1293189Y0028401D01*
X1291783Y0030369D02*
X1291783Y0025307D01*
X1291783Y0025307D02*
X1292064Y0024745D01*
X1292064Y0024745D02*
X1292627Y0024464D01*
X1292627Y0024464D02*
X1293189Y0024464D01*
X1297407Y0024745D02*
X1296845Y0024464D01*
X1296845Y0024464D02*
X1295720Y0024464D01*
X1295720Y0024464D02*
X1295158Y0024745D01*
X1295158Y0024745D02*
X1294877Y0025307D01*
X1294877Y0025307D02*
X1294877Y0027557D01*
X1294877Y0027557D02*
X1295158Y0028119D01*
X1295158Y0028119D02*
X1295720Y0028401D01*
X1295720Y0028401D02*
X1296845Y0028401D01*
X1296845Y0028401D02*
X1297407Y0028119D01*
X1297407Y0028119D02*
X1297689Y0027557D01*
X1297689Y0027557D02*
X1297689Y0026995D01*
X1297689Y0026995D02*
X1294877Y0026432D01*
X1300220Y0025026D02*
X1300501Y0024745D01*
X1300501Y0024745D02*
X1300220Y0024464D01*
X1300220Y0024464D02*
X1299938Y0024745D01*
X1299938Y0024745D02*
X1300220Y0025026D01*
X1300220Y0025026D02*
X1300220Y0024464D01*
X1300220Y0028119D02*
X1300501Y0027838D01*
X1300501Y0027838D02*
X1300220Y0027557D01*
X1300220Y0027557D02*
X1299938Y0027838D01*
X1299938Y0027838D02*
X1300220Y0028119D01*
X1300220Y0028119D02*
X1300220Y0027557D01*
X1307250Y0029807D02*
X1307531Y0030088D01*
X1307531Y0030088D02*
X1308094Y0030369D01*
X1308094Y0030369D02*
X1309500Y0030369D01*
X1309500Y0030369D02*
X1310062Y0030088D01*
X1310062Y0030088D02*
X1310343Y0029807D01*
X1310343Y0029807D02*
X1310625Y0029244D01*
X1310625Y0029244D02*
X1310625Y0028682D01*
X1310625Y0028682D02*
X1310343Y0027838D01*
X1310343Y0027838D02*
X1306969Y0024464D01*
X1306969Y0024464D02*
X1310625Y0024464D01*
X1314280Y0030369D02*
X1314843Y0030369D01*
X1314843Y0030369D02*
X1315405Y0030088D01*
X1315405Y0030088D02*
X1315686Y0029807D01*
X1315686Y0029807D02*
X1315968Y0029244D01*
X1315968Y0029244D02*
X1316249Y0028119D01*
X1316249Y0028119D02*
X1316249Y0026713D01*
X1316249Y0026713D02*
X1315968Y0025588D01*
X1315968Y0025588D02*
X1315686Y0025026D01*
X1315686Y0025026D02*
X1315405Y0024745D01*
X1315405Y0024745D02*
X1314843Y0024464D01*
X1314843Y0024464D02*
X1314280Y0024464D01*
X1314280Y0024464D02*
X1313718Y0024745D01*
X1313718Y0024745D02*
X1313437Y0025026D01*
X1313437Y0025026D02*
X1313155Y0025588D01*
X1313155Y0025588D02*
X1312874Y0026713D01*
X1312874Y0026713D02*
X1312874Y0028119D01*
X1312874Y0028119D02*
X1313155Y0029244D01*
X1313155Y0029244D02*
X1313437Y0029807D01*
X1313437Y0029807D02*
X1313718Y0030088D01*
X1313718Y0030088D02*
X1314280Y0030369D01*
X1318499Y0029807D02*
X1318780Y0030088D01*
X1318780Y0030088D02*
X1319342Y0030369D01*
X1319342Y0030369D02*
X1320748Y0030369D01*
X1320748Y0030369D02*
X1321311Y0030088D01*
X1321311Y0030088D02*
X1321592Y0029807D01*
X1321592Y0029807D02*
X1321873Y0029244D01*
X1321873Y0029244D02*
X1321873Y0028682D01*
X1321873Y0028682D02*
X1321592Y0027838D01*
X1321592Y0027838D02*
X1318217Y0024464D01*
X1318217Y0024464D02*
X1321873Y0024464D01*
X1324123Y0029807D02*
X1324404Y0030088D01*
X1324404Y0030088D02*
X1324967Y0030369D01*
X1324967Y0030369D02*
X1326373Y0030369D01*
X1326373Y0030369D02*
X1326935Y0030088D01*
X1326935Y0030088D02*
X1327216Y0029807D01*
X1327216Y0029807D02*
X1327497Y0029244D01*
X1327497Y0029244D02*
X1327497Y0028682D01*
X1327497Y0028682D02*
X1327216Y0027838D01*
X1327216Y0027838D02*
X1323842Y0024464D01*
X1323842Y0024464D02*
X1327497Y0024464D01*
X1330028Y0026713D02*
X1334528Y0026713D01*
X1340433Y0024464D02*
X1337059Y0024464D01*
X1338746Y0024464D02*
X1338746Y0030369D01*
X1338746Y0030369D02*
X1338184Y0029525D01*
X1338184Y0029525D02*
X1337621Y0028963D01*
X1337621Y0028963D02*
X1337059Y0028682D01*
X1344089Y0030369D02*
X1344652Y0030369D01*
X1344652Y0030369D02*
X1345214Y0030088D01*
X1345214Y0030088D02*
X1345495Y0029807D01*
X1345495Y0029807D02*
X1345776Y0029244D01*
X1345776Y0029244D02*
X1346058Y0028119D01*
X1346058Y0028119D02*
X1346058Y0026713D01*
X1346058Y0026713D02*
X1345776Y0025588D01*
X1345776Y0025588D02*
X1345495Y0025026D01*
X1345495Y0025026D02*
X1345214Y0024745D01*
X1345214Y0024745D02*
X1344652Y0024464D01*
X1344652Y0024464D02*
X1344089Y0024464D01*
X1344089Y0024464D02*
X1343527Y0024745D01*
X1343527Y0024745D02*
X1343245Y0025026D01*
X1343245Y0025026D02*
X1342964Y0025588D01*
X1342964Y0025588D02*
X1342683Y0026713D01*
X1342683Y0026713D02*
X1342683Y0028119D01*
X1342683Y0028119D02*
X1342964Y0029244D01*
X1342964Y0029244D02*
X1343245Y0029807D01*
X1343245Y0029807D02*
X1343527Y0030088D01*
X1343527Y0030088D02*
X1344089Y0030369D01*
X1348589Y0026713D02*
X1353088Y0026713D01*
X1358994Y0024464D02*
X1355619Y0024464D01*
X1357306Y0024464D02*
X1357306Y0030369D01*
X1357306Y0030369D02*
X1356744Y0029525D01*
X1356744Y0029525D02*
X1356181Y0028963D01*
X1356181Y0028963D02*
X1355619Y0028682D01*
X1364055Y0028401D02*
X1364055Y0024464D01*
X1362649Y0030650D02*
X1361243Y0026432D01*
X1361243Y0026432D02*
X1364899Y0026432D01*
D10*
D11*
X1188189Y0021653D02*
X1613386Y0021653D01*
D10*
D11*
X1193920Y0013440D02*
X1193920Y0019345D01*
X1197295Y0013440D02*
X1194764Y0016815D01*
X1197295Y0019345D02*
X1193920Y0015971D01*
X1199826Y0013440D02*
X1199826Y0017377D01*
X1199826Y0019345D02*
X1199545Y0019064D01*
X1199545Y0019064D02*
X1199826Y0018783D01*
X1199826Y0018783D02*
X1200107Y0019064D01*
X1200107Y0019064D02*
X1199826Y0019345D01*
X1199826Y0019345D02*
X1199826Y0018783D01*
X1206013Y0014002D02*
X1205731Y0013721D01*
X1205731Y0013721D02*
X1204888Y0013440D01*
X1204888Y0013440D02*
X1204325Y0013440D01*
X1204325Y0013440D02*
X1203482Y0013721D01*
X1203482Y0013721D02*
X1202919Y0014284D01*
X1202919Y0014284D02*
X1202638Y0014846D01*
X1202638Y0014846D02*
X1202357Y0015971D01*
X1202357Y0015971D02*
X1202357Y0016815D01*
X1202357Y0016815D02*
X1202638Y0017939D01*
X1202638Y0017939D02*
X1202919Y0018502D01*
X1202919Y0018502D02*
X1203482Y0019064D01*
X1203482Y0019064D02*
X1204325Y0019345D01*
X1204325Y0019345D02*
X1204888Y0019345D01*
X1204888Y0019345D02*
X1205731Y0019064D01*
X1205731Y0019064D02*
X1206013Y0018783D01*
X1211075Y0013440D02*
X1211075Y0016533D01*
X1211075Y0016533D02*
X1210793Y0017096D01*
X1210793Y0017096D02*
X1210231Y0017377D01*
X1210231Y0017377D02*
X1209106Y0017377D01*
X1209106Y0017377D02*
X1208544Y0017096D01*
X1211075Y0013721D02*
X1210512Y0013440D01*
X1210512Y0013440D02*
X1209106Y0013440D01*
X1209106Y0013440D02*
X1208544Y0013721D01*
X1208544Y0013721D02*
X1208262Y0014284D01*
X1208262Y0014284D02*
X1208262Y0014846D01*
X1208262Y0014846D02*
X1208544Y0015408D01*
X1208544Y0015408D02*
X1209106Y0015690D01*
X1209106Y0015690D02*
X1210512Y0015690D01*
X1210512Y0015690D02*
X1211075Y0015971D01*
X1216418Y0013440D02*
X1216418Y0019345D01*
X1216418Y0013721D02*
X1215855Y0013440D01*
X1215855Y0013440D02*
X1214730Y0013440D01*
X1214730Y0013440D02*
X1214168Y0013721D01*
X1214168Y0013721D02*
X1213887Y0014002D01*
X1213887Y0014002D02*
X1213605Y0014565D01*
X1213605Y0014565D02*
X1213605Y0016252D01*
X1213605Y0016252D02*
X1213887Y0016815D01*
X1213887Y0016815D02*
X1214168Y0017096D01*
X1214168Y0017096D02*
X1214730Y0017377D01*
X1214730Y0017377D02*
X1215855Y0017377D01*
X1215855Y0017377D02*
X1216418Y0017096D01*
X1223729Y0016533D02*
X1225698Y0016533D01*
X1226541Y0013440D02*
X1223729Y0013440D01*
X1223729Y0013440D02*
X1223729Y0019345D01*
X1223729Y0019345D02*
X1226541Y0019345D01*
X1229072Y0014002D02*
X1229353Y0013721D01*
X1229353Y0013721D02*
X1229072Y0013440D01*
X1229072Y0013440D02*
X1228791Y0013721D01*
X1228791Y0013721D02*
X1229072Y0014002D01*
X1229072Y0014002D02*
X1229072Y0013440D01*
X1231884Y0013440D02*
X1231884Y0019345D01*
X1231884Y0019345D02*
X1233290Y0019345D01*
X1233290Y0019345D02*
X1234134Y0019064D01*
X1234134Y0019064D02*
X1234697Y0018502D01*
X1234697Y0018502D02*
X1234978Y0017939D01*
X1234978Y0017939D02*
X1235259Y0016815D01*
X1235259Y0016815D02*
X1235259Y0015971D01*
X1235259Y0015971D02*
X1234978Y0014846D01*
X1234978Y0014846D02*
X1234697Y0014284D01*
X1234697Y0014284D02*
X1234134Y0013721D01*
X1234134Y0013721D02*
X1233290Y0013440D01*
X1233290Y0013440D02*
X1231884Y0013440D01*
X1237790Y0014002D02*
X1238071Y0013721D01*
X1238071Y0013721D02*
X1237790Y0013440D01*
X1237790Y0013440D02*
X1237509Y0013721D01*
X1237509Y0013721D02*
X1237790Y0014002D01*
X1237790Y0014002D02*
X1237790Y0013440D01*
X1240321Y0015127D02*
X1243133Y0015127D01*
X1239758Y0013440D02*
X1241727Y0019345D01*
X1241727Y0019345D02*
X1243695Y0013440D01*
X1245664Y0014002D02*
X1245945Y0013721D01*
X1245945Y0013721D02*
X1245664Y0013440D01*
X1245664Y0013440D02*
X1245383Y0013721D01*
X1245383Y0013721D02*
X1245664Y0014002D01*
X1245664Y0014002D02*
X1245664Y0013440D01*
X1253819Y0016815D02*
X1253257Y0017096D01*
X1253257Y0017096D02*
X1252976Y0017377D01*
X1252976Y0017377D02*
X1252694Y0017939D01*
X1252694Y0017939D02*
X1252694Y0018221D01*
X1252694Y0018221D02*
X1252976Y0018783D01*
X1252976Y0018783D02*
X1253257Y0019064D01*
X1253257Y0019064D02*
X1253819Y0019345D01*
X1253819Y0019345D02*
X1254944Y0019345D01*
X1254944Y0019345D02*
X1255506Y0019064D01*
X1255506Y0019064D02*
X1255788Y0018783D01*
X1255788Y0018783D02*
X1256069Y0018221D01*
X1256069Y0018221D02*
X1256069Y0017939D01*
X1256069Y0017939D02*
X1255788Y0017377D01*
X1255788Y0017377D02*
X1255506Y0017096D01*
X1255506Y0017096D02*
X1254944Y0016815D01*
X1254944Y0016815D02*
X1253819Y0016815D01*
X1253819Y0016815D02*
X1253257Y0016533D01*
X1253257Y0016533D02*
X1252976Y0016252D01*
X1252976Y0016252D02*
X1252694Y0015690D01*
X1252694Y0015690D02*
X1252694Y0014565D01*
X1252694Y0014565D02*
X1252976Y0014002D01*
X1252976Y0014002D02*
X1253257Y0013721D01*
X1253257Y0013721D02*
X1253819Y0013440D01*
X1253819Y0013440D02*
X1254944Y0013440D01*
X1254944Y0013440D02*
X1255506Y0013721D01*
X1255506Y0013721D02*
X1255788Y0014002D01*
X1255788Y0014002D02*
X1256069Y0014565D01*
X1256069Y0014565D02*
X1256069Y0015690D01*
X1256069Y0015690D02*
X1255788Y0016252D01*
X1255788Y0016252D02*
X1255506Y0016533D01*
X1255506Y0016533D02*
X1254944Y0016815D01*
X1258600Y0014002D02*
X1258881Y0013721D01*
X1258881Y0013721D02*
X1258600Y0013440D01*
X1258600Y0013440D02*
X1258319Y0013721D01*
X1258319Y0013721D02*
X1258600Y0014002D01*
X1258600Y0014002D02*
X1258600Y0013440D01*
X1262537Y0019345D02*
X1263099Y0019345D01*
X1263099Y0019345D02*
X1263662Y0019064D01*
X1263662Y0019064D02*
X1263943Y0018783D01*
X1263943Y0018783D02*
X1264224Y0018221D01*
X1264224Y0018221D02*
X1264505Y0017096D01*
X1264505Y0017096D02*
X1264505Y0015690D01*
X1264505Y0015690D02*
X1264224Y0014565D01*
X1264224Y0014565D02*
X1263943Y0014002D01*
X1263943Y0014002D02*
X1263662Y0013721D01*
X1263662Y0013721D02*
X1263099Y0013440D01*
X1263099Y0013440D02*
X1262537Y0013440D01*
X1262537Y0013440D02*
X1261974Y0013721D01*
X1261974Y0013721D02*
X1261693Y0014002D01*
X1261693Y0014002D02*
X1261412Y0014565D01*
X1261412Y0014565D02*
X1261131Y0015690D01*
X1261131Y0015690D02*
X1261131Y0017096D01*
X1261131Y0017096D02*
X1261412Y0018221D01*
X1261412Y0018221D02*
X1261693Y0018783D01*
X1261693Y0018783D02*
X1261974Y0019064D01*
X1261974Y0019064D02*
X1262537Y0019345D01*
X1267036Y0014002D02*
X1267317Y0013721D01*
X1267317Y0013721D02*
X1267036Y0013440D01*
X1267036Y0013440D02*
X1266755Y0013721D01*
X1266755Y0013721D02*
X1267036Y0014002D01*
X1267036Y0014002D02*
X1267036Y0013440D01*
X1270692Y0016815D02*
X1270130Y0017096D01*
X1270130Y0017096D02*
X1269848Y0017377D01*
X1269848Y0017377D02*
X1269567Y0017939D01*
X1269567Y0017939D02*
X1269567Y0018221D01*
X1269567Y0018221D02*
X1269848Y0018783D01*
X1269848Y0018783D02*
X1270130Y0019064D01*
X1270130Y0019064D02*
X1270692Y0019345D01*
X1270692Y0019345D02*
X1271817Y0019345D01*
X1271817Y0019345D02*
X1272379Y0019064D01*
X1272379Y0019064D02*
X1272661Y0018783D01*
X1272661Y0018783D02*
X1272942Y0018221D01*
X1272942Y0018221D02*
X1272942Y0017939D01*
X1272942Y0017939D02*
X1272661Y0017377D01*
X1272661Y0017377D02*
X1272379Y0017096D01*
X1272379Y0017096D02*
X1271817Y0016815D01*
X1271817Y0016815D02*
X1270692Y0016815D01*
X1270692Y0016815D02*
X1270130Y0016533D01*
X1270130Y0016533D02*
X1269848Y0016252D01*
X1269848Y0016252D02*
X1269567Y0015690D01*
X1269567Y0015690D02*
X1269567Y0014565D01*
X1269567Y0014565D02*
X1269848Y0014002D01*
X1269848Y0014002D02*
X1270130Y0013721D01*
X1270130Y0013721D02*
X1270692Y0013440D01*
X1270692Y0013440D02*
X1271817Y0013440D01*
X1271817Y0013440D02*
X1272379Y0013721D01*
X1272379Y0013721D02*
X1272661Y0014002D01*
X1272661Y0014002D02*
X1272942Y0014565D01*
X1272942Y0014565D02*
X1272942Y0015690D01*
X1272942Y0015690D02*
X1272661Y0016252D01*
X1272661Y0016252D02*
X1272379Y0016533D01*
X1272379Y0016533D02*
X1271817Y0016815D01*
D10*
D11*
X1188189Y0033464D02*
X1613386Y0033464D01*
D10*
D12*
X1532329Y0024494D02*
X1530361Y0027306D01*
X1528955Y0024494D02*
X1528955Y0030400D01*
X1528955Y0030400D02*
X1531204Y0030400D01*
X1531204Y0030400D02*
X1531767Y0030119D01*
X1531767Y0030119D02*
X1532048Y0029837D01*
X1532048Y0029837D02*
X1532329Y0029275D01*
X1532329Y0029275D02*
X1532329Y0028431D01*
X1532329Y0028431D02*
X1532048Y0027869D01*
X1532048Y0027869D02*
X1531767Y0027588D01*
X1531767Y0027588D02*
X1531204Y0027306D01*
X1531204Y0027306D02*
X1528955Y0027306D01*
X1537110Y0024776D02*
X1536547Y0024494D01*
X1536547Y0024494D02*
X1535423Y0024494D01*
X1535423Y0024494D02*
X1534860Y0024776D01*
X1534860Y0024776D02*
X1534579Y0025338D01*
X1534579Y0025338D02*
X1534579Y0027588D01*
X1534579Y0027588D02*
X1534860Y0028150D01*
X1534860Y0028150D02*
X1535423Y0028431D01*
X1535423Y0028431D02*
X1536547Y0028431D01*
X1536547Y0028431D02*
X1537110Y0028150D01*
X1537110Y0028150D02*
X1537391Y0027588D01*
X1537391Y0027588D02*
X1537391Y0027025D01*
X1537391Y0027025D02*
X1534579Y0026463D01*
X1539360Y0028431D02*
X1540766Y0024494D01*
X1540766Y0024494D02*
X1542172Y0028431D01*
X1544421Y0025057D02*
X1544703Y0024776D01*
X1544703Y0024776D02*
X1544421Y0024494D01*
X1544421Y0024494D02*
X1544140Y0024776D01*
X1544140Y0024776D02*
X1544421Y0025057D01*
X1544421Y0025057D02*
X1544421Y0024494D01*
X1544421Y0028150D02*
X1544703Y0027869D01*
X1544703Y0027869D02*
X1544421Y0027588D01*
X1544421Y0027588D02*
X1544140Y0027869D01*
X1544140Y0027869D02*
X1544421Y0028150D01*
X1544421Y0028150D02*
X1544421Y0027588D01*
X1554264Y0024494D02*
X1554264Y0030400D01*
X1554264Y0024776D02*
X1553701Y0024494D01*
X1553701Y0024494D02*
X1552577Y0024494D01*
X1552577Y0024494D02*
X1552014Y0024776D01*
X1552014Y0024776D02*
X1551733Y0025057D01*
X1551733Y0025057D02*
X1551452Y0025619D01*
X1551452Y0025619D02*
X1551452Y0027306D01*
X1551452Y0027306D02*
X1551733Y0027869D01*
X1551733Y0027869D02*
X1552014Y0028150D01*
X1552014Y0028150D02*
X1552577Y0028431D01*
X1552577Y0028431D02*
X1553701Y0028431D01*
X1553701Y0028431D02*
X1554264Y0028150D01*
D10*
D11*
X1193639Y0024745D02*
X1194483Y0024464D01*
X1194483Y0024464D02*
X1195889Y0024464D01*
X1195889Y0024464D02*
X1196451Y0024745D01*
X1196451Y0024745D02*
X1196733Y0025026D01*
X1196733Y0025026D02*
X1197014Y0025588D01*
X1197014Y0025588D02*
X1197014Y0026151D01*
X1197014Y0026151D02*
X1196733Y0026713D01*
X1196733Y0026713D02*
X1196451Y0026995D01*
X1196451Y0026995D02*
X1195889Y0027276D01*
X1195889Y0027276D02*
X1194764Y0027557D01*
X1194764Y0027557D02*
X1194202Y0027838D01*
X1194202Y0027838D02*
X1193920Y0028119D01*
X1193920Y0028119D02*
X1193639Y0028682D01*
X1193639Y0028682D02*
X1193639Y0029244D01*
X1193639Y0029244D02*
X1193920Y0029807D01*
X1193920Y0029807D02*
X1194202Y0030088D01*
X1194202Y0030088D02*
X1194764Y0030369D01*
X1194764Y0030369D02*
X1196170Y0030369D01*
X1196170Y0030369D02*
X1197014Y0030088D01*
X1199545Y0024464D02*
X1199545Y0028401D01*
X1199545Y0030369D02*
X1199263Y0030088D01*
X1199263Y0030088D02*
X1199545Y0029807D01*
X1199545Y0029807D02*
X1199826Y0030088D01*
X1199826Y0030088D02*
X1199545Y0030369D01*
X1199545Y0030369D02*
X1199545Y0029807D01*
X1201794Y0028401D02*
X1204888Y0028401D01*
X1204888Y0028401D02*
X1201794Y0024464D01*
X1201794Y0024464D02*
X1204888Y0024464D01*
X1209387Y0024745D02*
X1208825Y0024464D01*
X1208825Y0024464D02*
X1207700Y0024464D01*
X1207700Y0024464D02*
X1207137Y0024745D01*
X1207137Y0024745D02*
X1206856Y0025307D01*
X1206856Y0025307D02*
X1206856Y0027557D01*
X1206856Y0027557D02*
X1207137Y0028119D01*
X1207137Y0028119D02*
X1207700Y0028401D01*
X1207700Y0028401D02*
X1208825Y0028401D01*
X1208825Y0028401D02*
X1209387Y0028119D01*
X1209387Y0028119D02*
X1209668Y0027557D01*
X1209668Y0027557D02*
X1209668Y0026995D01*
X1209668Y0026995D02*
X1206856Y0026432D01*
X1212199Y0025026D02*
X1212481Y0024745D01*
X1212481Y0024745D02*
X1212199Y0024464D01*
X1212199Y0024464D02*
X1211918Y0024745D01*
X1211918Y0024745D02*
X1212199Y0025026D01*
X1212199Y0025026D02*
X1212199Y0024464D01*
X1212199Y0028119D02*
X1212481Y0027838D01*
X1212481Y0027838D02*
X1212199Y0027557D01*
X1212199Y0027557D02*
X1211918Y0027838D01*
X1211918Y0027838D02*
X1212199Y0028119D01*
X1212199Y0028119D02*
X1212199Y0027557D01*
X1219511Y0030369D02*
X1219511Y0025588D01*
X1219511Y0025588D02*
X1219792Y0025026D01*
X1219792Y0025026D02*
X1220073Y0024745D01*
X1220073Y0024745D02*
X1220636Y0024464D01*
X1220636Y0024464D02*
X1221761Y0024464D01*
X1221761Y0024464D02*
X1222323Y0024745D01*
X1222323Y0024745D02*
X1222604Y0025026D01*
X1222604Y0025026D02*
X1222886Y0025588D01*
X1222886Y0025588D02*
X1222886Y0030369D01*
X1225416Y0024745D02*
X1225979Y0024464D01*
X1225979Y0024464D02*
X1227104Y0024464D01*
X1227104Y0024464D02*
X1227666Y0024745D01*
X1227666Y0024745D02*
X1227947Y0025307D01*
X1227947Y0025307D02*
X1227947Y0025588D01*
X1227947Y0025588D02*
X1227666Y0026151D01*
X1227666Y0026151D02*
X1227104Y0026432D01*
X1227104Y0026432D02*
X1226260Y0026432D01*
X1226260Y0026432D02*
X1225698Y0026713D01*
X1225698Y0026713D02*
X1225416Y0027276D01*
X1225416Y0027276D02*
X1225416Y0027557D01*
X1225416Y0027557D02*
X1225698Y0028119D01*
X1225698Y0028119D02*
X1226260Y0028401D01*
X1226260Y0028401D02*
X1227104Y0028401D01*
X1227104Y0028401D02*
X1227666Y0028119D01*
X1232728Y0024745D02*
X1232166Y0024464D01*
X1232166Y0024464D02*
X1231041Y0024464D01*
X1231041Y0024464D02*
X1230478Y0024745D01*
X1230478Y0024745D02*
X1230197Y0025307D01*
X1230197Y0025307D02*
X1230197Y0027557D01*
X1230197Y0027557D02*
X1230478Y0028119D01*
X1230478Y0028119D02*
X1231041Y0028401D01*
X1231041Y0028401D02*
X1232166Y0028401D01*
X1232166Y0028401D02*
X1232728Y0028119D01*
X1232728Y0028119D02*
X1233009Y0027557D01*
X1233009Y0027557D02*
X1233009Y0026995D01*
X1233009Y0026995D02*
X1230197Y0026432D01*
X1235540Y0024464D02*
X1235540Y0028401D01*
X1235540Y0027276D02*
X1235821Y0027838D01*
X1235821Y0027838D02*
X1236103Y0028119D01*
X1236103Y0028119D02*
X1236665Y0028401D01*
X1236665Y0028401D02*
X1237227Y0028401D01*
D10*
D11*
X1528566Y0013440D02*
X1528566Y0019345D01*
X1533909Y0013440D02*
X1533909Y0019345D01*
X1533909Y0013721D02*
X1533347Y0013440D01*
X1533347Y0013440D02*
X1532222Y0013440D01*
X1532222Y0013440D02*
X1531659Y0013721D01*
X1531659Y0013721D02*
X1531378Y0014002D01*
X1531378Y0014002D02*
X1531097Y0014565D01*
X1531097Y0014565D02*
X1531097Y0016252D01*
X1531097Y0016252D02*
X1531378Y0016815D01*
X1531378Y0016815D02*
X1531659Y0017096D01*
X1531659Y0017096D02*
X1532222Y0017377D01*
X1532222Y0017377D02*
X1533347Y0017377D01*
X1533347Y0017377D02*
X1533909Y0017096D01*
X1536721Y0014002D02*
X1537003Y0013721D01*
X1537003Y0013721D02*
X1536721Y0013440D01*
X1536721Y0013440D02*
X1536440Y0013721D01*
X1536440Y0013721D02*
X1536721Y0014002D01*
X1536721Y0014002D02*
X1536721Y0013440D01*
X1536721Y0017096D02*
X1537003Y0016815D01*
X1537003Y0016815D02*
X1536721Y0016533D01*
X1536721Y0016533D02*
X1536440Y0016815D01*
X1536440Y0016815D02*
X1536721Y0017096D01*
X1536721Y0017096D02*
X1536721Y0016533D01*
X1547126Y0013440D02*
X1543752Y0013440D01*
X1545439Y0013440D02*
X1545439Y0019345D01*
X1545439Y0019345D02*
X1544877Y0018502D01*
X1544877Y0018502D02*
X1544314Y0017939D01*
X1544314Y0017939D02*
X1543752Y0017658D01*
X1553875Y0019627D02*
X1548814Y0012034D01*
X1558937Y0013440D02*
X1555563Y0013440D01*
X1557250Y0013440D02*
X1557250Y0019345D01*
X1557250Y0019345D02*
X1556688Y0018502D01*
X1556688Y0018502D02*
X1556125Y0017939D01*
X1556125Y0017939D02*
X1555563Y0017658D01*
D10*
D11*
X1188189Y0049212D02*
X1613386Y0049212D01*
D10*
D13*
X1194849Y0046439D02*
X1199349Y0046439D01*
X1196115Y0038565D02*
X1197099Y0046439D01*
X1200989Y0038565D02*
X1201645Y0043814D01*
X1201973Y0046439D02*
X1201551Y0046064D01*
X1201551Y0046064D02*
X1201880Y0045689D01*
X1201880Y0045689D02*
X1202301Y0046064D01*
X1202301Y0046064D02*
X1201973Y0046439D01*
X1201973Y0046439D02*
X1201880Y0045689D01*
X1204270Y0043814D02*
X1207269Y0043814D01*
X1205723Y0046439D02*
X1204879Y0039690D01*
X1204879Y0039690D02*
X1205160Y0038940D01*
X1205160Y0038940D02*
X1205863Y0038565D01*
X1205863Y0038565D02*
X1206613Y0038565D01*
X1210363Y0038565D02*
X1209660Y0038940D01*
X1209660Y0038940D02*
X1209379Y0039690D01*
X1209379Y0039690D02*
X1210222Y0046439D01*
X1216409Y0038940D02*
X1215612Y0038565D01*
X1215612Y0038565D02*
X1214112Y0038565D01*
X1214112Y0038565D02*
X1213409Y0038940D01*
X1213409Y0038940D02*
X1213128Y0039690D01*
X1213128Y0039690D02*
X1213503Y0042689D01*
X1213503Y0042689D02*
X1213972Y0043439D01*
X1213972Y0043439D02*
X1214769Y0043814D01*
X1214769Y0043814D02*
X1216268Y0043814D01*
X1216268Y0043814D02*
X1216971Y0043439D01*
X1216971Y0043439D02*
X1217253Y0042689D01*
X1217253Y0042689D02*
X1217159Y0041939D01*
X1217159Y0041939D02*
X1213316Y0041189D01*
X1220205Y0039315D02*
X1220533Y0038940D01*
X1220533Y0038940D02*
X1220112Y0038565D01*
X1220112Y0038565D02*
X1219784Y0038940D01*
X1219784Y0038940D02*
X1220205Y0039315D01*
X1220205Y0039315D02*
X1220112Y0038565D01*
X1220721Y0043439D02*
X1221049Y0043064D01*
X1221049Y0043064D02*
X1220627Y0042689D01*
X1220627Y0042689D02*
X1220299Y0043064D01*
X1220299Y0043064D02*
X1220721Y0043439D01*
X1220721Y0043439D02*
X1220627Y0042689D01*
X1229860Y0038565D02*
X1230845Y0046439D01*
X1230376Y0042689D02*
X1234875Y0042689D01*
X1234360Y0038565D02*
X1235344Y0046439D01*
X1241156Y0038940D02*
X1240359Y0038565D01*
X1240359Y0038565D02*
X1238859Y0038565D01*
X1238859Y0038565D02*
X1238156Y0038940D01*
X1238156Y0038940D02*
X1237875Y0039690D01*
X1237875Y0039690D02*
X1238250Y0042689D01*
X1238250Y0042689D02*
X1238719Y0043439D01*
X1238719Y0043439D02*
X1239515Y0043814D01*
X1239515Y0043814D02*
X1241015Y0043814D01*
X1241015Y0043814D02*
X1241718Y0043439D01*
X1241718Y0043439D02*
X1241999Y0042689D01*
X1241999Y0042689D02*
X1241906Y0041939D01*
X1241906Y0041939D02*
X1238062Y0041189D01*
X1245983Y0038565D02*
X1245280Y0038940D01*
X1245280Y0038940D02*
X1244999Y0039690D01*
X1244999Y0039690D02*
X1245843Y0046439D01*
X1250108Y0038565D02*
X1249405Y0038940D01*
X1249405Y0038940D02*
X1249124Y0039690D01*
X1249124Y0039690D02*
X1249967Y0046439D01*
X1256154Y0038940D02*
X1255357Y0038565D01*
X1255357Y0038565D02*
X1253857Y0038565D01*
X1253857Y0038565D02*
X1253154Y0038940D01*
X1253154Y0038940D02*
X1252873Y0039690D01*
X1252873Y0039690D02*
X1253248Y0042689D01*
X1253248Y0042689D02*
X1253717Y0043439D01*
X1253717Y0043439D02*
X1254514Y0043814D01*
X1254514Y0043814D02*
X1256013Y0043814D01*
X1256013Y0043814D02*
X1256716Y0043439D01*
X1256716Y0043439D02*
X1256998Y0042689D01*
X1256998Y0042689D02*
X1256904Y0041939D01*
X1256904Y0041939D02*
X1253061Y0041189D01*
X1260513Y0043814D02*
X1259857Y0038565D01*
X1260419Y0043064D02*
X1260841Y0043439D01*
X1260841Y0043439D02*
X1261638Y0043814D01*
X1261638Y0043814D02*
X1262763Y0043814D01*
X1262763Y0043814D02*
X1263466Y0043439D01*
X1263466Y0043439D02*
X1263747Y0042689D01*
X1263747Y0042689D02*
X1263231Y0038565D01*
X1271105Y0038565D02*
X1266606Y0038565D01*
X1268856Y0038565D02*
X1269840Y0046439D01*
X1269840Y0046439D02*
X1268949Y0045314D01*
X1268949Y0045314D02*
X1268106Y0044564D01*
X1268106Y0044564D02*
X1267309Y0044189D01*
X1274995Y0045689D02*
X1275417Y0046064D01*
X1275417Y0046064D02*
X1276214Y0046439D01*
X1276214Y0046439D02*
X1278089Y0046439D01*
X1278089Y0046439D02*
X1278792Y0046064D01*
X1278792Y0046064D02*
X1279120Y0045689D01*
X1279120Y0045689D02*
X1279401Y0044939D01*
X1279401Y0044939D02*
X1279307Y0044189D01*
X1279307Y0044189D02*
X1278792Y0043064D01*
X1278792Y0043064D02*
X1273730Y0038565D01*
X1273730Y0038565D02*
X1278604Y0038565D01*
X1286103Y0038565D02*
X1281604Y0038565D01*
X1283854Y0038565D02*
X1284838Y0046439D01*
X1284838Y0046439D02*
X1283947Y0045314D01*
X1283947Y0045314D02*
X1283104Y0044564D01*
X1283104Y0044564D02*
X1282307Y0044189D01*
X1289384Y0043814D02*
X1290603Y0038565D01*
X1290603Y0038565D02*
X1293134Y0043814D01*
X1298852Y0038565D02*
X1299367Y0042689D01*
X1299367Y0042689D02*
X1299086Y0043439D01*
X1299086Y0043439D02*
X1298383Y0043814D01*
X1298383Y0043814D02*
X1296883Y0043814D01*
X1296883Y0043814D02*
X1296086Y0043439D01*
X1298899Y0038940D02*
X1298102Y0038565D01*
X1298102Y0038565D02*
X1296227Y0038565D01*
X1296227Y0038565D02*
X1295524Y0038940D01*
X1295524Y0038940D02*
X1295243Y0039690D01*
X1295243Y0039690D02*
X1295337Y0040440D01*
X1295337Y0040440D02*
X1295805Y0041189D01*
X1295805Y0041189D02*
X1296602Y0041564D01*
X1296602Y0041564D02*
X1298477Y0041564D01*
X1298477Y0041564D02*
X1299274Y0041939D01*
X1306632Y0043814D02*
X1305835Y0037440D01*
X1305835Y0037440D02*
X1305367Y0036690D01*
X1305367Y0036690D02*
X1304945Y0036315D01*
X1304945Y0036315D02*
X1304148Y0035940D01*
X1304148Y0035940D02*
X1303023Y0035940D01*
X1303023Y0035940D02*
X1302320Y0036315D01*
X1306023Y0038940D02*
X1305226Y0038565D01*
X1305226Y0038565D02*
X1303726Y0038565D01*
X1303726Y0038565D02*
X1303023Y0038940D01*
X1303023Y0038940D02*
X1302695Y0039315D01*
X1302695Y0039315D02*
X1302414Y0040065D01*
X1302414Y0040065D02*
X1302695Y0042314D01*
X1302695Y0042314D02*
X1303164Y0043064D01*
X1303164Y0043064D02*
X1303586Y0043439D01*
X1303586Y0043439D02*
X1304382Y0043814D01*
X1304382Y0043814D02*
X1305882Y0043814D01*
X1305882Y0043814D02*
X1306585Y0043439D01*
D10*
D11*
X1195889Y0056691D02*
X1193920Y0056691D01*
X1193920Y0053597D02*
X1193920Y0059503D01*
X1193920Y0059503D02*
X1196733Y0059503D01*
X1198982Y0053597D02*
X1198982Y0057534D01*
X1198982Y0059503D02*
X1198701Y0059222D01*
X1198701Y0059222D02*
X1198982Y0058941D01*
X1198982Y0058941D02*
X1199263Y0059222D01*
X1199263Y0059222D02*
X1198982Y0059503D01*
X1198982Y0059503D02*
X1198982Y0058941D01*
X1202638Y0053597D02*
X1202076Y0053879D01*
X1202076Y0053879D02*
X1201794Y0054441D01*
X1201794Y0054441D02*
X1201794Y0059503D01*
X1207137Y0053879D02*
X1206575Y0053597D01*
X1206575Y0053597D02*
X1205450Y0053597D01*
X1205450Y0053597D02*
X1204888Y0053879D01*
X1204888Y0053879D02*
X1204607Y0054441D01*
X1204607Y0054441D02*
X1204607Y0056691D01*
X1204607Y0056691D02*
X1204888Y0057253D01*
X1204888Y0057253D02*
X1205450Y0057534D01*
X1205450Y0057534D02*
X1206575Y0057534D01*
X1206575Y0057534D02*
X1207137Y0057253D01*
X1207137Y0057253D02*
X1207419Y0056691D01*
X1207419Y0056691D02*
X1207419Y0056128D01*
X1207419Y0056128D02*
X1204607Y0055566D01*
X1209950Y0054160D02*
X1210231Y0053879D01*
X1210231Y0053879D02*
X1209950Y0053597D01*
X1209950Y0053597D02*
X1209668Y0053879D01*
X1209668Y0053879D02*
X1209950Y0054160D01*
X1209950Y0054160D02*
X1209950Y0053597D01*
X1209950Y0057253D02*
X1210231Y0056972D01*
X1210231Y0056972D02*
X1209950Y0056691D01*
X1209950Y0056691D02*
X1209668Y0056972D01*
X1209668Y0056972D02*
X1209950Y0057253D01*
X1209950Y0057253D02*
X1209950Y0056691D01*
X1217261Y0053597D02*
X1217261Y0059503D01*
X1219792Y0053597D02*
X1219792Y0056691D01*
X1219792Y0056691D02*
X1219511Y0057253D01*
X1219511Y0057253D02*
X1218949Y0057534D01*
X1218949Y0057534D02*
X1218105Y0057534D01*
X1218105Y0057534D02*
X1217542Y0057253D01*
X1217542Y0057253D02*
X1217261Y0056972D01*
X1224854Y0053879D02*
X1224292Y0053597D01*
X1224292Y0053597D02*
X1223167Y0053597D01*
X1223167Y0053597D02*
X1222604Y0053879D01*
X1222604Y0053879D02*
X1222323Y0054441D01*
X1222323Y0054441D02*
X1222323Y0056691D01*
X1222323Y0056691D02*
X1222604Y0057253D01*
X1222604Y0057253D02*
X1223167Y0057534D01*
X1223167Y0057534D02*
X1224292Y0057534D01*
X1224292Y0057534D02*
X1224854Y0057253D01*
X1224854Y0057253D02*
X1225135Y0056691D01*
X1225135Y0056691D02*
X1225135Y0056128D01*
X1225135Y0056128D02*
X1222323Y0055566D01*
X1228510Y0053597D02*
X1227947Y0053879D01*
X1227947Y0053879D02*
X1227666Y0054441D01*
X1227666Y0054441D02*
X1227666Y0059503D01*
X1231603Y0053597D02*
X1231041Y0053879D01*
X1231041Y0053879D02*
X1230760Y0054441D01*
X1230760Y0054441D02*
X1230760Y0059503D01*
X1236103Y0053879D02*
X1235540Y0053597D01*
X1235540Y0053597D02*
X1234415Y0053597D01*
X1234415Y0053597D02*
X1233853Y0053879D01*
X1233853Y0053879D02*
X1233572Y0054441D01*
X1233572Y0054441D02*
X1233572Y0056691D01*
X1233572Y0056691D02*
X1233853Y0057253D01*
X1233853Y0057253D02*
X1234415Y0057534D01*
X1234415Y0057534D02*
X1235540Y0057534D01*
X1235540Y0057534D02*
X1236103Y0057253D01*
X1236103Y0057253D02*
X1236384Y0056691D01*
X1236384Y0056691D02*
X1236384Y0056128D01*
X1236384Y0056128D02*
X1233572Y0055566D01*
X1238915Y0057534D02*
X1238915Y0053597D01*
X1238915Y0056972D02*
X1239196Y0057253D01*
X1239196Y0057253D02*
X1239758Y0057534D01*
X1239758Y0057534D02*
X1240602Y0057534D01*
X1240602Y0057534D02*
X1241164Y0057253D01*
X1241164Y0057253D02*
X1241446Y0056691D01*
X1241446Y0056691D02*
X1241446Y0053597D01*
X1247351Y0053597D02*
X1243977Y0053597D01*
X1245664Y0053597D02*
X1245664Y0059503D01*
X1245664Y0059503D02*
X1245101Y0058659D01*
X1245101Y0058659D02*
X1244539Y0058097D01*
X1244539Y0058097D02*
X1243977Y0057816D01*
X1249601Y0058941D02*
X1249882Y0059222D01*
X1249882Y0059222D02*
X1250445Y0059503D01*
X1250445Y0059503D02*
X1251851Y0059503D01*
X1251851Y0059503D02*
X1252413Y0059222D01*
X1252413Y0059222D02*
X1252694Y0058941D01*
X1252694Y0058941D02*
X1252976Y0058378D01*
X1252976Y0058378D02*
X1252976Y0057816D01*
X1252976Y0057816D02*
X1252694Y0056972D01*
X1252694Y0056972D02*
X1249320Y0053597D01*
X1249320Y0053597D02*
X1252976Y0053597D01*
X1258600Y0053597D02*
X1255225Y0053597D01*
X1256913Y0053597D02*
X1256913Y0059503D01*
X1256913Y0059503D02*
X1256350Y0058659D01*
X1256350Y0058659D02*
X1255788Y0058097D01*
X1255788Y0058097D02*
X1255225Y0057816D01*
X1260568Y0057534D02*
X1261974Y0053597D01*
X1261974Y0053597D02*
X1263380Y0057534D01*
X1268161Y0053597D02*
X1268161Y0056691D01*
X1268161Y0056691D02*
X1267880Y0057253D01*
X1267880Y0057253D02*
X1267317Y0057534D01*
X1267317Y0057534D02*
X1266193Y0057534D01*
X1266193Y0057534D02*
X1265630Y0057253D01*
X1268161Y0053879D02*
X1267599Y0053597D01*
X1267599Y0053597D02*
X1266193Y0053597D01*
X1266193Y0053597D02*
X1265630Y0053879D01*
X1265630Y0053879D02*
X1265349Y0054441D01*
X1265349Y0054441D02*
X1265349Y0055004D01*
X1265349Y0055004D02*
X1265630Y0055566D01*
X1265630Y0055566D02*
X1266193Y0055847D01*
X1266193Y0055847D02*
X1267599Y0055847D01*
X1267599Y0055847D02*
X1268161Y0056128D01*
X1273504Y0057534D02*
X1273504Y0052754D01*
X1273504Y0052754D02*
X1273223Y0052191D01*
X1273223Y0052191D02*
X1272942Y0051910D01*
X1272942Y0051910D02*
X1272379Y0051629D01*
X1272379Y0051629D02*
X1271536Y0051629D01*
X1271536Y0051629D02*
X1270973Y0051910D01*
X1273504Y0053879D02*
X1272942Y0053597D01*
X1272942Y0053597D02*
X1271817Y0053597D01*
X1271817Y0053597D02*
X1271254Y0053879D01*
X1271254Y0053879D02*
X1270973Y0054160D01*
X1270973Y0054160D02*
X1270692Y0054722D01*
X1270692Y0054722D02*
X1270692Y0056410D01*
X1270692Y0056410D02*
X1270973Y0056972D01*
X1270973Y0056972D02*
X1271254Y0057253D01*
X1271254Y0057253D02*
X1271817Y0057534D01*
X1271817Y0057534D02*
X1272942Y0057534D01*
X1272942Y0057534D02*
X1273504Y0057253D01*
X1276316Y0054160D02*
X1276598Y0053879D01*
X1276598Y0053879D02*
X1276316Y0053597D01*
X1276316Y0053597D02*
X1276035Y0053879D01*
X1276035Y0053879D02*
X1276316Y0054160D01*
X1276316Y0054160D02*
X1276316Y0053597D01*
X1279128Y0053597D02*
X1279128Y0059503D01*
X1279691Y0055847D02*
X1281378Y0053597D01*
X1281378Y0057534D02*
X1279128Y0055285D01*
X1283909Y0053597D02*
X1283909Y0057534D01*
X1283909Y0059503D02*
X1283628Y0059222D01*
X1283628Y0059222D02*
X1283909Y0058941D01*
X1283909Y0058941D02*
X1284190Y0059222D01*
X1284190Y0059222D02*
X1283909Y0059503D01*
X1283909Y0059503D02*
X1283909Y0058941D01*
X1289252Y0053879D02*
X1288690Y0053597D01*
X1288690Y0053597D02*
X1287565Y0053597D01*
X1287565Y0053597D02*
X1287003Y0053879D01*
X1287003Y0053879D02*
X1286721Y0054160D01*
X1286721Y0054160D02*
X1286440Y0054722D01*
X1286440Y0054722D02*
X1286440Y0056410D01*
X1286440Y0056410D02*
X1286721Y0056972D01*
X1286721Y0056972D02*
X1287003Y0057253D01*
X1287003Y0057253D02*
X1287565Y0057534D01*
X1287565Y0057534D02*
X1288690Y0057534D01*
X1288690Y0057534D02*
X1289252Y0057253D01*
X1294314Y0053597D02*
X1294314Y0056691D01*
X1294314Y0056691D02*
X1294033Y0057253D01*
X1294033Y0057253D02*
X1293470Y0057534D01*
X1293470Y0057534D02*
X1292346Y0057534D01*
X1292346Y0057534D02*
X1291783Y0057253D01*
X1294314Y0053879D02*
X1293752Y0053597D01*
X1293752Y0053597D02*
X1292346Y0053597D01*
X1292346Y0053597D02*
X1291783Y0053879D01*
X1291783Y0053879D02*
X1291502Y0054441D01*
X1291502Y0054441D02*
X1291502Y0055004D01*
X1291502Y0055004D02*
X1291783Y0055566D01*
X1291783Y0055566D02*
X1292346Y0055847D01*
X1292346Y0055847D02*
X1293752Y0055847D01*
X1293752Y0055847D02*
X1294314Y0056128D01*
X1299657Y0053597D02*
X1299657Y0059503D01*
X1299657Y0053879D02*
X1299095Y0053597D01*
X1299095Y0053597D02*
X1297970Y0053597D01*
X1297970Y0053597D02*
X1297407Y0053879D01*
X1297407Y0053879D02*
X1297126Y0054160D01*
X1297126Y0054160D02*
X1296845Y0054722D01*
X1296845Y0054722D02*
X1296845Y0056410D01*
X1296845Y0056410D02*
X1297126Y0056972D01*
X1297126Y0056972D02*
X1297407Y0057253D01*
X1297407Y0057253D02*
X1297970Y0057534D01*
X1297970Y0057534D02*
X1299095Y0057534D01*
X1299095Y0057534D02*
X1299657Y0057253D01*
X1301063Y0053035D02*
X1305563Y0053035D01*
X1306969Y0057534D02*
X1306969Y0051629D01*
X1306969Y0057253D02*
X1307531Y0057534D01*
X1307531Y0057534D02*
X1308656Y0057534D01*
X1308656Y0057534D02*
X1309218Y0057253D01*
X1309218Y0057253D02*
X1309500Y0056972D01*
X1309500Y0056972D02*
X1309781Y0056410D01*
X1309781Y0056410D02*
X1309781Y0054722D01*
X1309781Y0054722D02*
X1309500Y0054160D01*
X1309500Y0054160D02*
X1309218Y0053879D01*
X1309218Y0053879D02*
X1308656Y0053597D01*
X1308656Y0053597D02*
X1307531Y0053597D01*
X1307531Y0053597D02*
X1306969Y0053879D01*
X1314843Y0053879D02*
X1314280Y0053597D01*
X1314280Y0053597D02*
X1313155Y0053597D01*
X1313155Y0053597D02*
X1312593Y0053879D01*
X1312593Y0053879D02*
X1312312Y0054160D01*
X1312312Y0054160D02*
X1312031Y0054722D01*
X1312031Y0054722D02*
X1312031Y0056410D01*
X1312031Y0056410D02*
X1312312Y0056972D01*
X1312312Y0056972D02*
X1312593Y0057253D01*
X1312593Y0057253D02*
X1313155Y0057534D01*
X1313155Y0057534D02*
X1314280Y0057534D01*
X1314280Y0057534D02*
X1314843Y0057253D01*
X1317374Y0053597D02*
X1317374Y0059503D01*
X1317374Y0057253D02*
X1317936Y0057534D01*
X1317936Y0057534D02*
X1319061Y0057534D01*
X1319061Y0057534D02*
X1319623Y0057253D01*
X1319623Y0057253D02*
X1319905Y0056972D01*
X1319905Y0056972D02*
X1320186Y0056410D01*
X1320186Y0056410D02*
X1320186Y0054722D01*
X1320186Y0054722D02*
X1319905Y0054160D01*
X1319905Y0054160D02*
X1319623Y0053879D01*
X1319623Y0053879D02*
X1319061Y0053597D01*
X1319061Y0053597D02*
X1317936Y0053597D01*
X1317936Y0053597D02*
X1317374Y0053879D01*
D10*
D11*
X1188189Y0072834D02*
X1613386Y0072834D01*
D10*
D11*
X1193639Y0064509D02*
X1194483Y0064227D01*
X1194483Y0064227D02*
X1195889Y0064227D01*
X1195889Y0064227D02*
X1196451Y0064509D01*
X1196451Y0064509D02*
X1196733Y0064790D01*
X1196733Y0064790D02*
X1197014Y0065352D01*
X1197014Y0065352D02*
X1197014Y0065915D01*
X1197014Y0065915D02*
X1196733Y0066477D01*
X1196733Y0066477D02*
X1196451Y0066758D01*
X1196451Y0066758D02*
X1195889Y0067040D01*
X1195889Y0067040D02*
X1194764Y0067321D01*
X1194764Y0067321D02*
X1194202Y0067602D01*
X1194202Y0067602D02*
X1193920Y0067883D01*
X1193920Y0067883D02*
X1193639Y0068446D01*
X1193639Y0068446D02*
X1193639Y0069008D01*
X1193639Y0069008D02*
X1193920Y0069570D01*
X1193920Y0069570D02*
X1194202Y0069852D01*
X1194202Y0069852D02*
X1194764Y0070133D01*
X1194764Y0070133D02*
X1196170Y0070133D01*
X1196170Y0070133D02*
X1197014Y0069852D01*
X1199545Y0064227D02*
X1199545Y0070133D01*
X1202076Y0064227D02*
X1202076Y0067321D01*
X1202076Y0067321D02*
X1201794Y0067883D01*
X1201794Y0067883D02*
X1201232Y0068164D01*
X1201232Y0068164D02*
X1200388Y0068164D01*
X1200388Y0068164D02*
X1199826Y0067883D01*
X1199826Y0067883D02*
X1199545Y0067602D01*
X1207137Y0064509D02*
X1206575Y0064227D01*
X1206575Y0064227D02*
X1205450Y0064227D01*
X1205450Y0064227D02*
X1204888Y0064509D01*
X1204888Y0064509D02*
X1204607Y0065071D01*
X1204607Y0065071D02*
X1204607Y0067321D01*
X1204607Y0067321D02*
X1204888Y0067883D01*
X1204888Y0067883D02*
X1205450Y0068164D01*
X1205450Y0068164D02*
X1206575Y0068164D01*
X1206575Y0068164D02*
X1207137Y0067883D01*
X1207137Y0067883D02*
X1207419Y0067321D01*
X1207419Y0067321D02*
X1207419Y0066758D01*
X1207419Y0066758D02*
X1204607Y0066196D01*
X1212199Y0064509D02*
X1211637Y0064227D01*
X1211637Y0064227D02*
X1210512Y0064227D01*
X1210512Y0064227D02*
X1209950Y0064509D01*
X1209950Y0064509D02*
X1209668Y0065071D01*
X1209668Y0065071D02*
X1209668Y0067321D01*
X1209668Y0067321D02*
X1209950Y0067883D01*
X1209950Y0067883D02*
X1210512Y0068164D01*
X1210512Y0068164D02*
X1211637Y0068164D01*
X1211637Y0068164D02*
X1212199Y0067883D01*
X1212199Y0067883D02*
X1212481Y0067321D01*
X1212481Y0067321D02*
X1212481Y0066758D01*
X1212481Y0066758D02*
X1209668Y0066196D01*
X1214168Y0068164D02*
X1216418Y0068164D01*
X1215012Y0070133D02*
X1215012Y0065071D01*
X1215012Y0065071D02*
X1215293Y0064509D01*
X1215293Y0064509D02*
X1215855Y0064227D01*
X1215855Y0064227D02*
X1216418Y0064227D01*
X1218386Y0064790D02*
X1218667Y0064509D01*
X1218667Y0064509D02*
X1218386Y0064227D01*
X1218386Y0064227D02*
X1218105Y0064509D01*
X1218105Y0064509D02*
X1218386Y0064790D01*
X1218386Y0064790D02*
X1218386Y0064227D01*
X1218386Y0067883D02*
X1218667Y0067602D01*
X1218667Y0067602D02*
X1218386Y0067321D01*
X1218386Y0067321D02*
X1218105Y0067602D01*
X1218105Y0067602D02*
X1218386Y0067883D01*
X1218386Y0067883D02*
X1218386Y0067321D01*
D10*
D12*
X1196840Y0076069D02*
X1196840Y0079162D01*
X1196840Y0079162D02*
X1196559Y0079725D01*
X1196559Y0079725D02*
X1195996Y0080006D01*
X1195996Y0080006D02*
X1194871Y0080006D01*
X1194871Y0080006D02*
X1194309Y0079725D01*
X1196840Y0076350D02*
X1196277Y0076069D01*
X1196277Y0076069D02*
X1194871Y0076069D01*
X1194871Y0076069D02*
X1194309Y0076350D01*
X1194309Y0076350D02*
X1194028Y0076913D01*
X1194028Y0076913D02*
X1194028Y0077475D01*
X1194028Y0077475D02*
X1194309Y0078038D01*
X1194309Y0078038D02*
X1194871Y0078319D01*
X1194871Y0078319D02*
X1196277Y0078319D01*
X1196277Y0078319D02*
X1196840Y0078600D01*
X1199652Y0080006D02*
X1199652Y0076069D01*
X1199652Y0079444D02*
X1199933Y0079725D01*
X1199933Y0079725D02*
X1200496Y0080006D01*
X1200496Y0080006D02*
X1201339Y0080006D01*
X1201339Y0080006D02*
X1201902Y0079725D01*
X1201902Y0079725D02*
X1202183Y0079162D01*
X1202183Y0079162D02*
X1202183Y0076069D01*
X1207526Y0076069D02*
X1207526Y0081975D01*
X1207526Y0076350D02*
X1206964Y0076069D01*
X1206964Y0076069D02*
X1205839Y0076069D01*
X1205839Y0076069D02*
X1205276Y0076350D01*
X1205276Y0076350D02*
X1204995Y0076632D01*
X1204995Y0076632D02*
X1204714Y0077194D01*
X1204714Y0077194D02*
X1204714Y0078881D01*
X1204714Y0078881D02*
X1204995Y0079444D01*
X1204995Y0079444D02*
X1205276Y0079725D01*
X1205276Y0079725D02*
X1205839Y0080006D01*
X1205839Y0080006D02*
X1206964Y0080006D01*
X1206964Y0080006D02*
X1207526Y0079725D01*
X1210338Y0076069D02*
X1210338Y0080006D01*
X1210338Y0078881D02*
X1210619Y0079444D01*
X1210619Y0079444D02*
X1210901Y0079725D01*
X1210901Y0079725D02*
X1211463Y0080006D01*
X1211463Y0080006D02*
X1212025Y0080006D01*
X1216244Y0076350D02*
X1215681Y0076069D01*
X1215681Y0076069D02*
X1214556Y0076069D01*
X1214556Y0076069D02*
X1213994Y0076350D01*
X1213994Y0076350D02*
X1213713Y0076913D01*
X1213713Y0076913D02*
X1213713Y0079162D01*
X1213713Y0079162D02*
X1213994Y0079725D01*
X1213994Y0079725D02*
X1214556Y0080006D01*
X1214556Y0080006D02*
X1215681Y0080006D01*
X1215681Y0080006D02*
X1216244Y0079725D01*
X1216244Y0079725D02*
X1216525Y0079162D01*
X1216525Y0079162D02*
X1216525Y0078600D01*
X1216525Y0078600D02*
X1213713Y0078038D01*
X1219056Y0076069D02*
X1219056Y0080006D01*
X1219056Y0081975D02*
X1218775Y0081693D01*
X1218775Y0081693D02*
X1219056Y0081412D01*
X1219056Y0081412D02*
X1219337Y0081693D01*
X1219337Y0081693D02*
X1219056Y0081975D01*
X1219056Y0081975D02*
X1219056Y0081412D01*
X1221868Y0076069D02*
X1221868Y0081975D01*
X1222430Y0078319D02*
X1224118Y0076069D01*
X1224118Y0080006D02*
X1221868Y0077756D01*
X1229180Y0076069D02*
X1229180Y0079162D01*
X1229180Y0079162D02*
X1228898Y0079725D01*
X1228898Y0079725D02*
X1228336Y0080006D01*
X1228336Y0080006D02*
X1227211Y0080006D01*
X1227211Y0080006D02*
X1226649Y0079725D01*
X1229180Y0076350D02*
X1228617Y0076069D01*
X1228617Y0076069D02*
X1227211Y0076069D01*
X1227211Y0076069D02*
X1226649Y0076350D01*
X1226649Y0076350D02*
X1226367Y0076913D01*
X1226367Y0076913D02*
X1226367Y0077475D01*
X1226367Y0077475D02*
X1226649Y0078038D01*
X1226649Y0078038D02*
X1227211Y0078319D01*
X1227211Y0078319D02*
X1228617Y0078319D01*
X1228617Y0078319D02*
X1229180Y0078600D01*
X1240147Y0078881D02*
X1239866Y0079162D01*
X1239866Y0079162D02*
X1239303Y0079444D01*
X1239303Y0079444D02*
X1238741Y0079444D01*
X1238741Y0079444D02*
X1238178Y0079162D01*
X1238178Y0079162D02*
X1237897Y0078881D01*
X1237897Y0078881D02*
X1237616Y0078319D01*
X1237616Y0078319D02*
X1237616Y0077756D01*
X1237616Y0077756D02*
X1237897Y0077194D01*
X1237897Y0077194D02*
X1238178Y0076913D01*
X1238178Y0076913D02*
X1238741Y0076632D01*
X1238741Y0076632D02*
X1239303Y0076632D01*
X1239303Y0076632D02*
X1239866Y0076913D01*
X1239866Y0076913D02*
X1240147Y0077194D01*
X1240147Y0079444D02*
X1240147Y0077194D01*
X1240147Y0077194D02*
X1240428Y0076913D01*
X1240428Y0076913D02*
X1240709Y0076913D01*
X1240709Y0076913D02*
X1241272Y0077194D01*
X1241272Y0077194D02*
X1241553Y0077756D01*
X1241553Y0077756D02*
X1241553Y0079162D01*
X1241553Y0079162D02*
X1240991Y0080006D01*
X1240991Y0080006D02*
X1240147Y0080569D01*
X1240147Y0080569D02*
X1239022Y0080850D01*
X1239022Y0080850D02*
X1237897Y0080569D01*
X1237897Y0080569D02*
X1237054Y0080006D01*
X1237054Y0080006D02*
X1236491Y0079162D01*
X1236491Y0079162D02*
X1236210Y0078038D01*
X1236210Y0078038D02*
X1236491Y0076913D01*
X1236491Y0076913D02*
X1237054Y0076069D01*
X1237054Y0076069D02*
X1237897Y0075507D01*
X1237897Y0075507D02*
X1239022Y0075225D01*
X1239022Y0075225D02*
X1240147Y0075507D01*
X1240147Y0075507D02*
X1240991Y0076069D01*
X1248583Y0076069D02*
X1248583Y0080006D01*
X1248583Y0078881D02*
X1248865Y0079444D01*
X1248865Y0079444D02*
X1249146Y0079725D01*
X1249146Y0079725D02*
X1249708Y0080006D01*
X1249708Y0080006D02*
X1250271Y0080006D01*
X1254770Y0080006D02*
X1254770Y0076069D01*
X1252239Y0080006D02*
X1252239Y0076913D01*
X1252239Y0076913D02*
X1252520Y0076350D01*
X1252520Y0076350D02*
X1253083Y0076069D01*
X1253083Y0076069D02*
X1253926Y0076069D01*
X1253926Y0076069D02*
X1254489Y0076350D01*
X1254489Y0076350D02*
X1254770Y0076632D01*
X1257301Y0076350D02*
X1257863Y0076069D01*
X1257863Y0076069D02*
X1258988Y0076069D01*
X1258988Y0076069D02*
X1259551Y0076350D01*
X1259551Y0076350D02*
X1259832Y0076913D01*
X1259832Y0076913D02*
X1259832Y0077194D01*
X1259832Y0077194D02*
X1259551Y0077756D01*
X1259551Y0077756D02*
X1258988Y0078038D01*
X1258988Y0078038D02*
X1258145Y0078038D01*
X1258145Y0078038D02*
X1257582Y0078319D01*
X1257582Y0078319D02*
X1257301Y0078881D01*
X1257301Y0078881D02*
X1257301Y0079162D01*
X1257301Y0079162D02*
X1257582Y0079725D01*
X1257582Y0079725D02*
X1258145Y0080006D01*
X1258145Y0080006D02*
X1258988Y0080006D01*
X1258988Y0080006D02*
X1259551Y0079725D01*
X1262363Y0079162D02*
X1264331Y0079162D01*
X1265175Y0076069D02*
X1262363Y0076069D01*
X1262363Y0076069D02*
X1262363Y0081975D01*
X1262363Y0081975D02*
X1265175Y0081975D01*
X1269674Y0079162D02*
X1267706Y0079162D01*
X1267706Y0076069D02*
X1267706Y0081975D01*
X1267706Y0081975D02*
X1270518Y0081975D01*
X1272768Y0076069D02*
X1272768Y0081975D01*
X1275580Y0076632D02*
X1275861Y0076350D01*
X1275861Y0076350D02*
X1275580Y0076069D01*
X1275580Y0076069D02*
X1275299Y0076350D01*
X1275299Y0076350D02*
X1275580Y0076632D01*
X1275580Y0076632D02*
X1275580Y0076069D01*
X1280923Y0076350D02*
X1280361Y0076069D01*
X1280361Y0076069D02*
X1279236Y0076069D01*
X1279236Y0076069D02*
X1278673Y0076350D01*
X1278673Y0076350D02*
X1278392Y0076632D01*
X1278392Y0076632D02*
X1278111Y0077194D01*
X1278111Y0077194D02*
X1278111Y0078881D01*
X1278111Y0078881D02*
X1278392Y0079444D01*
X1278392Y0079444D02*
X1278673Y0079725D01*
X1278673Y0079725D02*
X1279236Y0080006D01*
X1279236Y0080006D02*
X1280361Y0080006D01*
X1280361Y0080006D02*
X1280923Y0079725D01*
X1284298Y0076069D02*
X1283735Y0076350D01*
X1283735Y0076350D02*
X1283454Y0076632D01*
X1283454Y0076632D02*
X1283173Y0077194D01*
X1283173Y0077194D02*
X1283173Y0078881D01*
X1283173Y0078881D02*
X1283454Y0079444D01*
X1283454Y0079444D02*
X1283735Y0079725D01*
X1283735Y0079725D02*
X1284298Y0080006D01*
X1284298Y0080006D02*
X1285141Y0080006D01*
X1285141Y0080006D02*
X1285704Y0079725D01*
X1285704Y0079725D02*
X1285985Y0079444D01*
X1285985Y0079444D02*
X1286266Y0078881D01*
X1286266Y0078881D02*
X1286266Y0077194D01*
X1286266Y0077194D02*
X1285985Y0076632D01*
X1285985Y0076632D02*
X1285704Y0076350D01*
X1285704Y0076350D02*
X1285141Y0076069D01*
X1285141Y0076069D02*
X1284298Y0076069D01*
X1288797Y0076069D02*
X1288797Y0080006D01*
X1288797Y0079444D02*
X1289078Y0079725D01*
X1289078Y0079725D02*
X1289641Y0080006D01*
X1289641Y0080006D02*
X1290484Y0080006D01*
X1290484Y0080006D02*
X1291047Y0079725D01*
X1291047Y0079725D02*
X1291328Y0079162D01*
X1291328Y0079162D02*
X1291328Y0076069D01*
X1291328Y0079162D02*
X1291609Y0079725D01*
X1291609Y0079725D02*
X1292172Y0080006D01*
X1292172Y0080006D02*
X1293015Y0080006D01*
X1293015Y0080006D02*
X1293578Y0079725D01*
X1293578Y0079725D02*
X1293859Y0079162D01*
X1293859Y0079162D02*
X1293859Y0076069D01*
D10*
D11*
X1266929Y0033464D02*
X1266929Y0021653D01*
D10*
D11*
X1518897Y0033464D02*
X1518897Y0007874D01*
G36*
G01*
X0387303Y1279232D02*
X0387303Y1274311D01*
G75*
G02*
X0386909Y1273917I-000394J0000000D01*
G01*
X0383760Y1273917D01*
G75*
G02*
X0383366Y1274311I0000000J0000394D01*
G01*
X0383366Y1279232D01*
G75*
G02*
X0383760Y1279626I0000394J0000000D01*
G01*
X0386909Y1279626D01*
G75*
G02*
X0387303Y1279232I0000000J-000394D01*
G01*
G37*
G36*
G01*
X0379823Y1279232D02*
X0379823Y1274311D01*
G75*
G02*
X0379429Y1273917I-000394J0000000D01*
G01*
X0376279Y1273917D01*
G75*
G02*
X0375886Y1274311I0000000J0000394D01*
G01*
X0375886Y1279232D01*
G75*
G02*
X0376279Y1279626I0000394J0000000D01*
G01*
X0379429Y1279626D01*
G75*
G02*
X0379823Y1279232I0000000J-000394D01*
G01*
G37*
G36*
G01*
X0628666Y1183366D02*
X0626648Y1183366D01*
G75*
G02*
X0625787Y1184227I0000000J0000861D01*
G01*
X0625787Y1185949D01*
G75*
G02*
X0626648Y1186811I0000861J0000000D01*
G01*
X0628666Y1186811D01*
G75*
G02*
X0629527Y1185949I0000000J-000861D01*
G01*
X0629527Y1184227D01*
G75*
G02*
X0628666Y1183366I-000861J0000000D01*
G01*
G37*
G36*
G01*
X0628666Y1189566D02*
X0626648Y1189566D01*
G75*
G02*
X0625787Y1190428I0000000J0000861D01*
G01*
X0625787Y1192150D01*
G75*
G02*
X0626648Y1193011I0000861J0000000D01*
G01*
X0628666Y1193011D01*
G75*
G02*
X0629527Y1192150I0000000J-000861D01*
G01*
X0629527Y1190428D01*
G75*
G02*
X0628666Y1189566I-000861J0000000D01*
G01*
G37*
G36*
G01*
X0455020Y1227854D02*
X0457775Y1227854D01*
G75*
G02*
X0458760Y1226870I0000000J-000984D01*
G01*
X0458760Y1220177D01*
G75*
G02*
X0457775Y1219192I-000984J0000000D01*
G01*
X0455020Y1219192D01*
G75*
G02*
X0454035Y1220177I0000000J0000984D01*
G01*
X0454035Y1226870D01*
G75*
G02*
X0455020Y1227854I0000984J0000000D01*
G01*
G37*
G36*
G01*
X0448996Y1211318D02*
X0457854Y1211318D01*
G75*
G02*
X0458838Y1210334I0000000J-000984D01*
G01*
X0458838Y1200295D01*
G75*
G02*
X0457854Y1199311I-000984J0000000D01*
G01*
X0448996Y1199311D01*
G75*
G02*
X0448012Y1200295I0000000J0000984D01*
G01*
X0448012Y1210334D01*
G75*
G02*
X0448996Y1211318I0000984J0000000D01*
G01*
G37*
G36*
G01*
X0436988Y1211318D02*
X0445846Y1211318D01*
G75*
G02*
X0446831Y1210334I0000000J-000984D01*
G01*
X0446831Y1200295D01*
G75*
G02*
X0445846Y1199311I-000984J0000000D01*
G01*
X0436988Y1199311D01*
G75*
G02*
X0436004Y1200295I0000000J0000984D01*
G01*
X0436004Y1210334D01*
G75*
G02*
X0436988Y1211318I0000984J0000000D01*
G01*
G37*
G36*
G01*
X0448996Y1198129D02*
X0457854Y1198129D01*
G75*
G02*
X0458838Y1197145I0000000J-000984D01*
G01*
X0458838Y1187106D01*
G75*
G02*
X0457854Y1186122I-000984J0000000D01*
G01*
X0448996Y1186122D01*
G75*
G02*
X0448012Y1187106I0000000J0000984D01*
G01*
X0448012Y1197145D01*
G75*
G02*
X0448996Y1198129I0000984J0000000D01*
G01*
G37*
G36*
G01*
X0436988Y1198129D02*
X0445846Y1198129D01*
G75*
G02*
X0446831Y1197145I0000000J-000984D01*
G01*
X0446831Y1187106D01*
G75*
G02*
X0445846Y1186122I-000984J0000000D01*
G01*
X0436988Y1186122D01*
G75*
G02*
X0436004Y1187106I0000000J0000984D01*
G01*
X0436004Y1197145D01*
G75*
G02*
X0436988Y1198129I0000984J0000000D01*
G01*
G37*
G36*
G01*
X0437067Y1227854D02*
X0439823Y1227854D01*
G75*
G02*
X0440807Y1226870I0000000J-000984D01*
G01*
X0440807Y1220177D01*
G75*
G02*
X0439823Y1219192I-000984J0000000D01*
G01*
X0437067Y1219192D01*
G75*
G02*
X0436082Y1220177I0000000J0000984D01*
G01*
X0436082Y1226870D01*
G75*
G02*
X0437067Y1227854I0000984J0000000D01*
G01*
G37*
G36*
G01*
X0551811Y1227854D02*
X0554567Y1227854D01*
G75*
G02*
X0555551Y1226870I0000000J-000984D01*
G01*
X0555551Y1220177D01*
G75*
G02*
X0554567Y1219192I-000984J0000000D01*
G01*
X0551811Y1219192D01*
G75*
G02*
X0550827Y1220177I0000000J0000984D01*
G01*
X0550827Y1226870D01*
G75*
G02*
X0551811Y1227854I0000984J0000000D01*
G01*
G37*
G36*
G01*
X0545787Y1211318D02*
X0554645Y1211318D01*
G75*
G02*
X0555630Y1210334I0000000J-000984D01*
G01*
X0555630Y1200295D01*
G75*
G02*
X0554645Y1199311I-000984J0000000D01*
G01*
X0545787Y1199311D01*
G75*
G02*
X0544803Y1200295I0000000J0000984D01*
G01*
X0544803Y1210334D01*
G75*
G02*
X0545787Y1211318I0000984J0000000D01*
G01*
G37*
G36*
G01*
X0533779Y1211318D02*
X0542638Y1211318D01*
G75*
G02*
X0543622Y1210334I0000000J-000984D01*
G01*
X0543622Y1200295D01*
G75*
G02*
X0542638Y1199311I-000984J0000000D01*
G01*
X0533779Y1199311D01*
G75*
G02*
X0532795Y1200295I0000000J0000984D01*
G01*
X0532795Y1210334D01*
G75*
G02*
X0533779Y1211318I0000984J0000000D01*
G01*
G37*
G36*
G01*
X0545787Y1198129D02*
X0554645Y1198129D01*
G75*
G02*
X0555630Y1197145I0000000J-000984D01*
G01*
X0555630Y1187106D01*
G75*
G02*
X0554645Y1186122I-000984J0000000D01*
G01*
X0545787Y1186122D01*
G75*
G02*
X0544803Y1187106I0000000J0000984D01*
G01*
X0544803Y1197145D01*
G75*
G02*
X0545787Y1198129I0000984J0000000D01*
G01*
G37*
G36*
G01*
X0533779Y1198129D02*
X0542638Y1198129D01*
G75*
G02*
X0543622Y1197145I0000000J-000984D01*
G01*
X0543622Y1187106D01*
G75*
G02*
X0542638Y1186122I-000984J0000000D01*
G01*
X0533779Y1186122D01*
G75*
G02*
X0532795Y1187106I0000000J0000984D01*
G01*
X0532795Y1197145D01*
G75*
G02*
X0533779Y1198129I0000984J0000000D01*
G01*
G37*
G36*
G01*
X0533858Y1227854D02*
X0536614Y1227854D01*
G75*
G02*
X0537598Y1226870I0000000J-000984D01*
G01*
X0537598Y1220177D01*
G75*
G02*
X0536614Y1219192I-000984J0000000D01*
G01*
X0533858Y1219192D01*
G75*
G02*
X0532874Y1220177I0000000J0000984D01*
G01*
X0532874Y1226870D01*
G75*
G02*
X0533858Y1227854I0000984J0000000D01*
G01*
G37*
G36*
G01*
X0633268Y1203307D02*
X0633268Y1200629D01*
G75*
G02*
X0632933Y1200295I-000335J0000000D01*
G01*
X0630256Y1200295D01*
G75*
G02*
X0629921Y1200629I0000000J0000335D01*
G01*
X0629921Y1203307D01*
G75*
G02*
X0630256Y1203641I0000335J0000000D01*
G01*
X0632933Y1203641D01*
G75*
G02*
X0633268Y1203307I0000000J-000335D01*
G01*
G37*
G36*
G01*
X0627047Y1203307D02*
X0627047Y1200629D01*
G75*
G02*
X0626712Y1200295I-000335J0000000D01*
G01*
X0624035Y1200295D01*
G75*
G02*
X0623701Y1200629I0000000J0000335D01*
G01*
X0623701Y1203307D01*
G75*
G02*
X0624035Y1203641I0000335J0000000D01*
G01*
X0626712Y1203641D01*
G75*
G02*
X0627047Y1203307I0000000J-000335D01*
G01*
G37*
G36*
G01*
X0594823Y1262795D02*
X0596004Y1262795D01*
G75*
G02*
X0596594Y1262204I0000000J-000591D01*
G01*
X0596594Y1255708D01*
G75*
G02*
X0596004Y1255118I-000591J0000000D01*
G01*
X0594823Y1255118D01*
G75*
G02*
X0594232Y1255708I0000000J0000591D01*
G01*
X0594232Y1262204D01*
G75*
G02*
X0594823Y1262795I0000591J0000000D01*
G01*
G37*
G36*
G01*
X0589823Y1262795D02*
X0591004Y1262795D01*
G75*
G02*
X0591594Y1262204I0000000J-000591D01*
G01*
X0591594Y1255708D01*
G75*
G02*
X0591004Y1255118I-000591J0000000D01*
G01*
X0589823Y1255118D01*
G75*
G02*
X0589232Y1255708I0000000J0000591D01*
G01*
X0589232Y1262204D01*
G75*
G02*
X0589823Y1262795I0000591J0000000D01*
G01*
G37*
G36*
G01*
X0584823Y1262795D02*
X0586004Y1262795D01*
G75*
G02*
X0586594Y1262204I0000000J-000591D01*
G01*
X0586594Y1255708D01*
G75*
G02*
X0586004Y1255118I-000591J0000000D01*
G01*
X0584823Y1255118D01*
G75*
G02*
X0584232Y1255708I0000000J0000591D01*
G01*
X0584232Y1262204D01*
G75*
G02*
X0584823Y1262795I0000591J0000000D01*
G01*
G37*
G36*
G01*
X0579823Y1262795D02*
X0581004Y1262795D01*
G75*
G02*
X0581594Y1262204I0000000J-000591D01*
G01*
X0581594Y1255708D01*
G75*
G02*
X0581004Y1255118I-000591J0000000D01*
G01*
X0579823Y1255118D01*
G75*
G02*
X0579232Y1255708I0000000J0000591D01*
G01*
X0579232Y1262204D01*
G75*
G02*
X0579823Y1262795I0000591J0000000D01*
G01*
G37*
G36*
G01*
X0579823Y1243307D02*
X0581004Y1243307D01*
G75*
G02*
X0581594Y1242716I0000000J-000591D01*
G01*
X0581594Y1236220D01*
G75*
G02*
X0581004Y1235629I-000591J0000000D01*
G01*
X0579823Y1235629D01*
G75*
G02*
X0579232Y1236220I0000000J0000591D01*
G01*
X0579232Y1242716D01*
G75*
G02*
X0579823Y1243307I0000591J0000000D01*
G01*
G37*
G36*
G01*
X0584823Y1243307D02*
X0586004Y1243307D01*
G75*
G02*
X0586594Y1242716I0000000J-000591D01*
G01*
X0586594Y1236220D01*
G75*
G02*
X0586004Y1235629I-000591J0000000D01*
G01*
X0584823Y1235629D01*
G75*
G02*
X0584232Y1236220I0000000J0000591D01*
G01*
X0584232Y1242716D01*
G75*
G02*
X0584823Y1243307I0000591J0000000D01*
G01*
G37*
G36*
G01*
X0589823Y1243307D02*
X0591004Y1243307D01*
G75*
G02*
X0591594Y1242716I0000000J-000591D01*
G01*
X0591594Y1236220D01*
G75*
G02*
X0591004Y1235629I-000591J0000000D01*
G01*
X0589823Y1235629D01*
G75*
G02*
X0589232Y1236220I0000000J0000591D01*
G01*
X0589232Y1242716D01*
G75*
G02*
X0589823Y1243307I0000591J0000000D01*
G01*
G37*
G36*
G01*
X0594823Y1243307D02*
X0596004Y1243307D01*
G75*
G02*
X0596594Y1242716I0000000J-000591D01*
G01*
X0596594Y1236220D01*
G75*
G02*
X0596004Y1235629I-000591J0000000D01*
G01*
X0594823Y1235629D01*
G75*
G02*
X0594232Y1236220I0000000J0000591D01*
G01*
X0594232Y1242716D01*
G75*
G02*
X0594823Y1243307I0000591J0000000D01*
G01*
G37*
G36*
G01*
X0218523Y1165748D02*
X0220098Y1165748D01*
G75*
G02*
X0220886Y1164960I0000000J-000787D01*
G01*
X0220886Y1157874D01*
G75*
G02*
X0220098Y1157086I-000787J0000000D01*
G01*
X0218523Y1157086D01*
G75*
G02*
X0217736Y1157874I0000000J0000787D01*
G01*
X0217736Y1164960D01*
G75*
G02*
X0218523Y1165748I0000787J0000000D01*
G01*
G37*
G36*
G01*
X0214035Y1165748D02*
X0215610Y1165748D01*
G75*
G02*
X0216397Y1164960I0000000J-000787D01*
G01*
X0216397Y1157874D01*
G75*
G02*
X0215610Y1157086I-000787J0000000D01*
G01*
X0214035Y1157086D01*
G75*
G02*
X0213248Y1157874I0000000J0000787D01*
G01*
X0213248Y1164960D01*
G75*
G02*
X0214035Y1165748I0000787J0000000D01*
G01*
G37*
G36*
G01*
X0211909Y1149212D02*
X0220768Y1149212D01*
G75*
G02*
X0221752Y1148228I0000000J-000984D01*
G01*
X0221752Y1138189D01*
G75*
G02*
X0220768Y1137204I-000984J0000000D01*
G01*
X0211909Y1137204D01*
G75*
G02*
X0210925Y1138189I0000000J0000984D01*
G01*
X0210925Y1148228D01*
G75*
G02*
X0211909Y1149212I0000984J0000000D01*
G01*
G37*
G36*
G01*
X0199901Y1149212D02*
X0208760Y1149212D01*
G75*
G02*
X0209744Y1148228I0000000J-000984D01*
G01*
X0209744Y1138189D01*
G75*
G02*
X0208760Y1137204I-000984J0000000D01*
G01*
X0199901Y1137204D01*
G75*
G02*
X0198917Y1138189I0000000J0000984D01*
G01*
X0198917Y1148228D01*
G75*
G02*
X0199901Y1149212I0000984J0000000D01*
G01*
G37*
G36*
G01*
X0211909Y1136023D02*
X0220768Y1136023D01*
G75*
G02*
X0221752Y1135039I0000000J-000984D01*
G01*
X0221752Y1125000D01*
G75*
G02*
X0220768Y1124015I-000984J0000000D01*
G01*
X0211909Y1124015D01*
G75*
G02*
X0210925Y1125000I0000000J0000984D01*
G01*
X0210925Y1135039D01*
G75*
G02*
X0211909Y1136023I0000984J0000000D01*
G01*
G37*
G36*
G01*
X0199901Y1136023D02*
X0208760Y1136023D01*
G75*
G02*
X0209744Y1135039I0000000J-000984D01*
G01*
X0209744Y1125000D01*
G75*
G02*
X0208760Y1124015I-000984J0000000D01*
G01*
X0199901Y1124015D01*
G75*
G02*
X0198917Y1125000I0000000J0000984D01*
G01*
X0198917Y1135039D01*
G75*
G02*
X0199901Y1136023I0000984J0000000D01*
G01*
G37*
G36*
G01*
X0205059Y1165748D02*
X0206634Y1165748D01*
G75*
G02*
X0207421Y1164960I0000000J-000787D01*
G01*
X0207421Y1157874D01*
G75*
G02*
X0206634Y1157086I-000787J0000000D01*
G01*
X0205059Y1157086D01*
G75*
G02*
X0204271Y1157874I0000000J0000787D01*
G01*
X0204271Y1164960D01*
G75*
G02*
X0205059Y1165748I0000787J0000000D01*
G01*
G37*
G36*
G01*
X0200571Y1165748D02*
X0202145Y1165748D01*
G75*
G02*
X0202933Y1164960I0000000J-000787D01*
G01*
X0202933Y1157874D01*
G75*
G02*
X0202145Y1157086I-000787J0000000D01*
G01*
X0200571Y1157086D01*
G75*
G02*
X0199783Y1157874I0000000J0000787D01*
G01*
X0199783Y1164960D01*
G75*
G02*
X0200571Y1165748I0000787J0000000D01*
G01*
G37*
G36*
G01*
X0616338Y1227854D02*
X0619094Y1227854D01*
G75*
G02*
X0620079Y1226870I0000000J-000984D01*
G01*
X0620079Y1220177D01*
G75*
G02*
X0619094Y1219192I-000984J0000000D01*
G01*
X0616338Y1219192D01*
G75*
G02*
X0615354Y1220177I0000000J0000984D01*
G01*
X0615354Y1226870D01*
G75*
G02*
X0616338Y1227854I0000984J0000000D01*
G01*
G37*
G36*
G01*
X0610315Y1211318D02*
X0619173Y1211318D01*
G75*
G02*
X0620157Y1210334I0000000J-000984D01*
G01*
X0620157Y1200295D01*
G75*
G02*
X0619173Y1199311I-000984J0000000D01*
G01*
X0610315Y1199311D01*
G75*
G02*
X0609331Y1200295I0000000J0000984D01*
G01*
X0609331Y1210334D01*
G75*
G02*
X0610315Y1211318I0000984J0000000D01*
G01*
G37*
G36*
G01*
X0598307Y1211318D02*
X0607165Y1211318D01*
G75*
G02*
X0608149Y1210334I0000000J-000984D01*
G01*
X0608149Y1200295D01*
G75*
G02*
X0607165Y1199311I-000984J0000000D01*
G01*
X0598307Y1199311D01*
G75*
G02*
X0597323Y1200295I0000000J0000984D01*
G01*
X0597323Y1210334D01*
G75*
G02*
X0598307Y1211318I0000984J0000000D01*
G01*
G37*
G36*
G01*
X0610315Y1198129D02*
X0619173Y1198129D01*
G75*
G02*
X0620157Y1197145I0000000J-000984D01*
G01*
X0620157Y1187106D01*
G75*
G02*
X0619173Y1186122I-000984J0000000D01*
G01*
X0610315Y1186122D01*
G75*
G02*
X0609331Y1187106I0000000J0000984D01*
G01*
X0609331Y1197145D01*
G75*
G02*
X0610315Y1198129I0000984J0000000D01*
G01*
G37*
G36*
G01*
X0598307Y1198129D02*
X0607165Y1198129D01*
G75*
G02*
X0608149Y1197145I0000000J-000984D01*
G01*
X0608149Y1187106D01*
G75*
G02*
X0607165Y1186122I-000984J0000000D01*
G01*
X0598307Y1186122D01*
G75*
G02*
X0597323Y1187106I0000000J0000984D01*
G01*
X0597323Y1197145D01*
G75*
G02*
X0598307Y1198129I0000984J0000000D01*
G01*
G37*
G36*
G01*
X0598386Y1227854D02*
X0601142Y1227854D01*
G75*
G02*
X0602126Y1226870I0000000J-000984D01*
G01*
X0602126Y1220177D01*
G75*
G02*
X0601142Y1219192I-000984J0000000D01*
G01*
X0598386Y1219192D01*
G75*
G02*
X0597401Y1220177I0000000J0000984D01*
G01*
X0597401Y1226870D01*
G75*
G02*
X0598386Y1227854I0000984J0000000D01*
G01*
G37*
G36*
G01*
X0632716Y1230157D02*
X0632716Y1232834D01*
G75*
G02*
X0633051Y1233169I0000335J0000000D01*
G01*
X0635728Y1233169D01*
G75*
G02*
X0636063Y1232834I0000000J-000335D01*
G01*
X0636063Y1230157D01*
G75*
G02*
X0635728Y1229822I-000335J0000000D01*
G01*
X0633051Y1229822D01*
G75*
G02*
X0632716Y1230157I0000000J0000335D01*
G01*
G37*
G36*
G01*
X0638937Y1230157D02*
X0638937Y1232834D01*
G75*
G02*
X0639271Y1233169I0000335J0000000D01*
G01*
X0641949Y1233169D01*
G75*
G02*
X0642283Y1232834I0000000J-000335D01*
G01*
X0642283Y1230157D01*
G75*
G02*
X0641949Y1229822I-000335J0000000D01*
G01*
X0639271Y1229822D01*
G75*
G02*
X0638937Y1230157I0000000J0000335D01*
G01*
G37*
G36*
G01*
X0640098Y1252027D02*
X0642775Y1252027D01*
G75*
G02*
X0643110Y1251692I0000000J-000335D01*
G01*
X0643110Y1249015D01*
G75*
G02*
X0642775Y1248681I-000335J0000000D01*
G01*
X0640098Y1248681D01*
G75*
G02*
X0639764Y1249015I0000000J0000335D01*
G01*
X0639764Y1251692D01*
G75*
G02*
X0640098Y1252027I0000335J0000000D01*
G01*
G37*
G36*
G01*
X0640098Y1245807D02*
X0642775Y1245807D01*
G75*
G02*
X0643110Y1245472I0000000J-000335D01*
G01*
X0643110Y1242795D01*
G75*
G02*
X0642775Y1242460I-000335J0000000D01*
G01*
X0640098Y1242460D01*
G75*
G02*
X0639764Y1242795I0000000J0000335D01*
G01*
X0639764Y1245472D01*
G75*
G02*
X0640098Y1245807I0000335J0000000D01*
G01*
G37*
G36*
G01*
X0373523Y1267421D02*
X0373523Y1262500D01*
G75*
G02*
X0373130Y1262106I-000394J0000000D01*
G01*
X0369980Y1262106D01*
G75*
G02*
X0369586Y1262500I0000000J0000394D01*
G01*
X0369586Y1267421D01*
G75*
G02*
X0369980Y1267814I0000394J0000000D01*
G01*
X0373130Y1267814D01*
G75*
G02*
X0373523Y1267421I0000000J-000394D01*
G01*
G37*
G36*
G01*
X0366043Y1267421D02*
X0366043Y1262500D01*
G75*
G02*
X0365649Y1262106I-000394J0000000D01*
G01*
X0362500Y1262106D01*
G75*
G02*
X0362106Y1262500I0000000J0000394D01*
G01*
X0362106Y1267421D01*
G75*
G02*
X0362500Y1267814I0000394J0000000D01*
G01*
X0365649Y1267814D01*
G75*
G02*
X0366043Y1267421I0000000J-000394D01*
G01*
G37*
G36*
G01*
X0387303Y1255610D02*
X0387303Y1250689D01*
G75*
G02*
X0386909Y1250295I-000394J0000000D01*
G01*
X0383760Y1250295D01*
G75*
G02*
X0383366Y1250689I0000000J0000394D01*
G01*
X0383366Y1255610D01*
G75*
G02*
X0383760Y1256003I0000394J0000000D01*
G01*
X0386909Y1256003D01*
G75*
G02*
X0387303Y1255610I0000000J-000394D01*
G01*
G37*
G36*
G01*
X0379823Y1255610D02*
X0379823Y1250689D01*
G75*
G02*
X0379429Y1250295I-000394J0000000D01*
G01*
X0376279Y1250295D01*
G75*
G02*
X0375886Y1250689I0000000J0000394D01*
G01*
X0375886Y1255610D01*
G75*
G02*
X0376279Y1256003I0000394J0000000D01*
G01*
X0379429Y1256003D01*
G75*
G02*
X0379823Y1255610I0000000J-000394D01*
G01*
G37*
G36*
G01*
X0540079Y1262795D02*
X0541260Y1262795D01*
G75*
G02*
X0541850Y1262204I0000000J-000591D01*
G01*
X0541850Y1255708D01*
G75*
G02*
X0541260Y1255118I-000591J0000000D01*
G01*
X0540079Y1255118D01*
G75*
G02*
X0539488Y1255708I0000000J0000591D01*
G01*
X0539488Y1262204D01*
G75*
G02*
X0540079Y1262795I0000591J0000000D01*
G01*
G37*
G36*
G01*
X0535079Y1262795D02*
X0536260Y1262795D01*
G75*
G02*
X0536850Y1262204I0000000J-000591D01*
G01*
X0536850Y1255708D01*
G75*
G02*
X0536260Y1255118I-000591J0000000D01*
G01*
X0535079Y1255118D01*
G75*
G02*
X0534488Y1255708I0000000J0000591D01*
G01*
X0534488Y1262204D01*
G75*
G02*
X0535079Y1262795I0000591J0000000D01*
G01*
G37*
G36*
G01*
X0530079Y1262795D02*
X0531260Y1262795D01*
G75*
G02*
X0531850Y1262204I0000000J-000591D01*
G01*
X0531850Y1255708D01*
G75*
G02*
X0531260Y1255118I-000591J0000000D01*
G01*
X0530079Y1255118D01*
G75*
G02*
X0529488Y1255708I0000000J0000591D01*
G01*
X0529488Y1262204D01*
G75*
G02*
X0530079Y1262795I0000591J0000000D01*
G01*
G37*
G36*
G01*
X0525079Y1262795D02*
X0526260Y1262795D01*
G75*
G02*
X0526850Y1262204I0000000J-000591D01*
G01*
X0526850Y1255708D01*
G75*
G02*
X0526260Y1255118I-000591J0000000D01*
G01*
X0525079Y1255118D01*
G75*
G02*
X0524488Y1255708I0000000J0000591D01*
G01*
X0524488Y1262204D01*
G75*
G02*
X0525079Y1262795I0000591J0000000D01*
G01*
G37*
G36*
G01*
X0525079Y1243307D02*
X0526260Y1243307D01*
G75*
G02*
X0526850Y1242716I0000000J-000591D01*
G01*
X0526850Y1236220D01*
G75*
G02*
X0526260Y1235629I-000591J0000000D01*
G01*
X0525079Y1235629D01*
G75*
G02*
X0524488Y1236220I0000000J0000591D01*
G01*
X0524488Y1242716D01*
G75*
G02*
X0525079Y1243307I0000591J0000000D01*
G01*
G37*
G36*
G01*
X0530079Y1243307D02*
X0531260Y1243307D01*
G75*
G02*
X0531850Y1242716I0000000J-000591D01*
G01*
X0531850Y1236220D01*
G75*
G02*
X0531260Y1235629I-000591J0000000D01*
G01*
X0530079Y1235629D01*
G75*
G02*
X0529488Y1236220I0000000J0000591D01*
G01*
X0529488Y1242716D01*
G75*
G02*
X0530079Y1243307I0000591J0000000D01*
G01*
G37*
G36*
G01*
X0535079Y1243307D02*
X0536260Y1243307D01*
G75*
G02*
X0536850Y1242716I0000000J-000591D01*
G01*
X0536850Y1236220D01*
G75*
G02*
X0536260Y1235629I-000591J0000000D01*
G01*
X0535079Y1235629D01*
G75*
G02*
X0534488Y1236220I0000000J0000591D01*
G01*
X0534488Y1242716D01*
G75*
G02*
X0535079Y1243307I0000591J0000000D01*
G01*
G37*
G36*
G01*
X0540079Y1243307D02*
X0541260Y1243307D01*
G75*
G02*
X0541850Y1242716I0000000J-000591D01*
G01*
X0541850Y1236220D01*
G75*
G02*
X0541260Y1235629I-000591J0000000D01*
G01*
X0540079Y1235629D01*
G75*
G02*
X0539488Y1236220I0000000J0000591D01*
G01*
X0539488Y1242716D01*
G75*
G02*
X0540079Y1243307I0000591J0000000D01*
G01*
G37*
G36*
G01*
X0650886Y1189744D02*
X0650886Y1187027D01*
G75*
G02*
X0649980Y1186122I-000906J0000000D01*
G01*
X0644705Y1186122D01*
G75*
G02*
X0643799Y1187027I0000000J0000906D01*
G01*
X0643799Y1189744D01*
G75*
G02*
X0644705Y1190649I0000906J0000000D01*
G01*
X0649980Y1190649D01*
G75*
G02*
X0650886Y1189744I0000000J-000906D01*
G01*
G37*
G36*
G01*
X0650886Y1201161D02*
X0650886Y1198444D01*
G75*
G02*
X0649980Y1197539I-000906J0000000D01*
G01*
X0644705Y1197539D01*
G75*
G02*
X0643799Y1198444I0000000J0000906D01*
G01*
X0643799Y1201161D01*
G75*
G02*
X0644705Y1202067I0000906J0000000D01*
G01*
X0649980Y1202067D01*
G75*
G02*
X0650886Y1201161I0000000J-000906D01*
G01*
G37*
G36*
G01*
X0519547Y1227854D02*
X0522303Y1227854D01*
G75*
G02*
X0523287Y1226870I0000000J-000984D01*
G01*
X0523287Y1220177D01*
G75*
G02*
X0522303Y1219192I-000984J0000000D01*
G01*
X0519547Y1219192D01*
G75*
G02*
X0518563Y1220177I0000000J0000984D01*
G01*
X0518563Y1226870D01*
G75*
G02*
X0519547Y1227854I0000984J0000000D01*
G01*
G37*
G36*
G01*
X0513523Y1211318D02*
X0522382Y1211318D01*
G75*
G02*
X0523366Y1210334I0000000J-000984D01*
G01*
X0523366Y1200295D01*
G75*
G02*
X0522382Y1199311I-000984J0000000D01*
G01*
X0513523Y1199311D01*
G75*
G02*
X0512539Y1200295I0000000J0000984D01*
G01*
X0512539Y1210334D01*
G75*
G02*
X0513523Y1211318I0000984J0000000D01*
G01*
G37*
G36*
G01*
X0501516Y1211318D02*
X0510374Y1211318D01*
G75*
G02*
X0511358Y1210334I0000000J-000984D01*
G01*
X0511358Y1200295D01*
G75*
G02*
X0510374Y1199311I-000984J0000000D01*
G01*
X0501516Y1199311D01*
G75*
G02*
X0500531Y1200295I0000000J0000984D01*
G01*
X0500531Y1210334D01*
G75*
G02*
X0501516Y1211318I0000984J0000000D01*
G01*
G37*
G36*
G01*
X0513523Y1198129D02*
X0522382Y1198129D01*
G75*
G02*
X0523366Y1197145I0000000J-000984D01*
G01*
X0523366Y1187106D01*
G75*
G02*
X0522382Y1186122I-000984J0000000D01*
G01*
X0513523Y1186122D01*
G75*
G02*
X0512539Y1187106I0000000J0000984D01*
G01*
X0512539Y1197145D01*
G75*
G02*
X0513523Y1198129I0000984J0000000D01*
G01*
G37*
G36*
G01*
X0501516Y1198129D02*
X0510374Y1198129D01*
G75*
G02*
X0511358Y1197145I0000000J-000984D01*
G01*
X0511358Y1187106D01*
G75*
G02*
X0510374Y1186122I-000984J0000000D01*
G01*
X0501516Y1186122D01*
G75*
G02*
X0500531Y1187106I0000000J0000984D01*
G01*
X0500531Y1197145D01*
G75*
G02*
X0501516Y1198129I0000984J0000000D01*
G01*
G37*
G36*
G01*
X0501594Y1227854D02*
X0504350Y1227854D01*
G75*
G02*
X0505334Y1226870I0000000J-000984D01*
G01*
X0505334Y1220177D01*
G75*
G02*
X0504350Y1219192I-000984J0000000D01*
G01*
X0501594Y1219192D01*
G75*
G02*
X0500610Y1220177I0000000J0000984D01*
G01*
X0500610Y1226870D01*
G75*
G02*
X0501594Y1227854I0000984J0000000D01*
G01*
G37*
G36*
G01*
X0573031Y1375196D02*
X0568110Y1375196D01*
G75*
G02*
X0567716Y1375590I0000000J0000394D01*
G01*
X0567716Y1378740D01*
G75*
G02*
X0568110Y1379133I0000394J0000000D01*
G01*
X0573031Y1379133D01*
G75*
G02*
X0573425Y1378740I0000000J-000394D01*
G01*
X0573425Y1375590D01*
G75*
G02*
X0573031Y1375196I-000394J0000000D01*
G01*
G37*
G36*
G01*
X0573031Y1382677D02*
X0568110Y1382677D01*
G75*
G02*
X0567716Y1383070I0000000J0000394D01*
G01*
X0567716Y1386220D01*
G75*
G02*
X0568110Y1386614I0000394J0000000D01*
G01*
X0573031Y1386614D01*
G75*
G02*
X0573425Y1386220I0000000J-000394D01*
G01*
X0573425Y1383070D01*
G75*
G02*
X0573031Y1382677I-000394J0000000D01*
G01*
G37*
G36*
G01*
X0373523Y1279232D02*
X0373523Y1274311D01*
G75*
G02*
X0373130Y1273917I-000394J0000000D01*
G01*
X0369980Y1273917D01*
G75*
G02*
X0369586Y1274311I0000000J0000394D01*
G01*
X0369586Y1279232D01*
G75*
G02*
X0369980Y1279626I0000394J0000000D01*
G01*
X0373130Y1279626D01*
G75*
G02*
X0373523Y1279232I0000000J-000394D01*
G01*
G37*
G36*
G01*
X0366043Y1279232D02*
X0366043Y1274311D01*
G75*
G02*
X0365649Y1273917I-000394J0000000D01*
G01*
X0362500Y1273917D01*
G75*
G02*
X0362106Y1274311I0000000J0000394D01*
G01*
X0362106Y1279232D01*
G75*
G02*
X0362500Y1279626I0000394J0000000D01*
G01*
X0365649Y1279626D01*
G75*
G02*
X0366043Y1279232I0000000J-000394D01*
G01*
G37*
G36*
G01*
X0318189Y1275196D02*
X0315472Y1275196D01*
G75*
G02*
X0314567Y1276102I0000000J0000906D01*
G01*
X0314567Y1281377D01*
G75*
G02*
X0315472Y1282283I0000906J0000000D01*
G01*
X0318189Y1282283D01*
G75*
G02*
X0319094Y1281377I0000000J-000906D01*
G01*
X0319094Y1276102D01*
G75*
G02*
X0318189Y1275196I-000906J0000000D01*
G01*
G37*
G36*
G01*
X0329606Y1275196D02*
X0326890Y1275196D01*
G75*
G02*
X0325984Y1276102I0000000J0000906D01*
G01*
X0325984Y1281377D01*
G75*
G02*
X0326890Y1282283I0000906J0000000D01*
G01*
X0329606Y1282283D01*
G75*
G02*
X0330512Y1281377I0000000J-000906D01*
G01*
X0330512Y1276102D01*
G75*
G02*
X0329606Y1275196I-000906J0000000D01*
G01*
G37*
G36*
G01*
X0660728Y1189744D02*
X0660728Y1187027D01*
G75*
G02*
X0659823Y1186122I-000906J0000000D01*
G01*
X0654547Y1186122D01*
G75*
G02*
X0653642Y1187027I0000000J0000906D01*
G01*
X0653642Y1189744D01*
G75*
G02*
X0654547Y1190649I0000906J0000000D01*
G01*
X0659823Y1190649D01*
G75*
G02*
X0660728Y1189744I0000000J-000906D01*
G01*
G37*
G36*
G01*
X0660728Y1201161D02*
X0660728Y1198444D01*
G75*
G02*
X0659823Y1197539I-000906J0000000D01*
G01*
X0654547Y1197539D01*
G75*
G02*
X0653642Y1198444I0000000J0000906D01*
G01*
X0653642Y1201161D01*
G75*
G02*
X0654547Y1202067I0000906J0000000D01*
G01*
X0659823Y1202067D01*
G75*
G02*
X0660728Y1201161I0000000J-000906D01*
G01*
G37*
G36*
G01*
X0217421Y1184940D02*
X0218602Y1184940D01*
G75*
G02*
X0219193Y1184350I0000000J-000591D01*
G01*
X0219193Y1179724D01*
G75*
G02*
X0218602Y1179133I-000591J0000000D01*
G01*
X0217421Y1179133D01*
G75*
G02*
X0216831Y1179724I0000000J0000591D01*
G01*
X0216831Y1184350D01*
G75*
G02*
X0217421Y1184940I0000591J0000000D01*
G01*
G37*
G36*
G01*
X0209941Y1184940D02*
X0211122Y1184940D01*
G75*
G02*
X0211712Y1184350I0000000J-000591D01*
G01*
X0211712Y1179724D01*
G75*
G02*
X0211122Y1179133I-000591J0000000D01*
G01*
X0209941Y1179133D01*
G75*
G02*
X0209350Y1179724I0000000J0000591D01*
G01*
X0209350Y1184350D01*
G75*
G02*
X0209941Y1184940I0000591J0000000D01*
G01*
G37*
G36*
G01*
X0213681Y1177559D02*
X0214862Y1177559D01*
G75*
G02*
X0215453Y1176968I0000000J-000591D01*
G01*
X0215453Y1172342D01*
G75*
G02*
X0214862Y1171752I-000591J0000000D01*
G01*
X0213681Y1171752D01*
G75*
G02*
X0213090Y1172342I0000000J0000591D01*
G01*
X0213090Y1176968D01*
G75*
G02*
X0213681Y1177559I0000591J0000000D01*
G01*
G37*
G36*
G01*
X0218799Y1195629D02*
X0218799Y1192559D01*
G75*
G02*
X0218523Y1192283I-000276J0000000D01*
G01*
X0216319Y1192283D01*
G75*
G02*
X0216043Y1192559I0000000J0000276D01*
G01*
X0216043Y1195629D01*
G75*
G02*
X0216319Y1195905I0000276J0000000D01*
G01*
X0218523Y1195905D01*
G75*
G02*
X0218799Y1195629I0000000J-000276D01*
G01*
G37*
G36*
G01*
X0212500Y1195629D02*
X0212500Y1192559D01*
G75*
G02*
X0212224Y1192283I-000276J0000000D01*
G01*
X0210020Y1192283D01*
G75*
G02*
X0209744Y1192559I0000000J0000276D01*
G01*
X0209744Y1195629D01*
G75*
G02*
X0210020Y1195905I0000276J0000000D01*
G01*
X0212224Y1195905D01*
G75*
G02*
X0212500Y1195629I0000000J-000276D01*
G01*
G37*
G36*
G01*
X0631890Y1204566D02*
X0631890Y1207244D01*
G75*
G02*
X0632224Y1207578I0000335J0000000D01*
G01*
X0634901Y1207578D01*
G75*
G02*
X0635236Y1207244I0000000J-000335D01*
G01*
X0635236Y1204566D01*
G75*
G02*
X0634901Y1204232I-000335J0000000D01*
G01*
X0632224Y1204232D01*
G75*
G02*
X0631890Y1204566I0000000J0000335D01*
G01*
G37*
G36*
G01*
X0638110Y1204566D02*
X0638110Y1207244D01*
G75*
G02*
X0638445Y1207578I0000335J0000000D01*
G01*
X0641122Y1207578D01*
G75*
G02*
X0641457Y1207244I0000000J-000335D01*
G01*
X0641457Y1204566D01*
G75*
G02*
X0641122Y1204232I-000335J0000000D01*
G01*
X0638445Y1204232D01*
G75*
G02*
X0638110Y1204566I0000000J0000335D01*
G01*
G37*
G36*
G01*
X0634350Y1213090D02*
X0633169Y1213090D01*
G75*
G02*
X0632579Y1213681I0000000J0000591D01*
G01*
X0632579Y1218307D01*
G75*
G02*
X0633169Y1218897I0000591J0000000D01*
G01*
X0634350Y1218897D01*
G75*
G02*
X0634941Y1218307I0000000J-000591D01*
G01*
X0634941Y1213681D01*
G75*
G02*
X0634350Y1213090I-000591J0000000D01*
G01*
G37*
G36*
G01*
X0641831Y1213090D02*
X0640649Y1213090D01*
G75*
G02*
X0640059Y1213681I0000000J0000591D01*
G01*
X0640059Y1218307D01*
G75*
G02*
X0640649Y1218897I0000591J0000000D01*
G01*
X0641831Y1218897D01*
G75*
G02*
X0642421Y1218307I0000000J-000591D01*
G01*
X0642421Y1213681D01*
G75*
G02*
X0641831Y1213090I-000591J0000000D01*
G01*
G37*
G36*
G01*
X0638090Y1220472D02*
X0636909Y1220472D01*
G75*
G02*
X0636319Y1221063I0000000J0000591D01*
G01*
X0636319Y1225689D01*
G75*
G02*
X0636909Y1226279I0000591J0000000D01*
G01*
X0638090Y1226279D01*
G75*
G02*
X0638681Y1225689I0000000J-000591D01*
G01*
X0638681Y1221063D01*
G75*
G02*
X0638090Y1220472I-000591J0000000D01*
G01*
G37*
G36*
G01*
X0482992Y1262795D02*
X0484173Y1262795D01*
G75*
G02*
X0484764Y1262204I0000000J-000591D01*
G01*
X0484764Y1255708D01*
G75*
G02*
X0484173Y1255118I-000591J0000000D01*
G01*
X0482992Y1255118D01*
G75*
G02*
X0482401Y1255708I0000000J0000591D01*
G01*
X0482401Y1262204D01*
G75*
G02*
X0482992Y1262795I0000591J0000000D01*
G01*
G37*
G36*
G01*
X0477992Y1262795D02*
X0479173Y1262795D01*
G75*
G02*
X0479764Y1262204I0000000J-000591D01*
G01*
X0479764Y1255708D01*
G75*
G02*
X0479173Y1255118I-000591J0000000D01*
G01*
X0477992Y1255118D01*
G75*
G02*
X0477401Y1255708I0000000J0000591D01*
G01*
X0477401Y1262204D01*
G75*
G02*
X0477992Y1262795I0000591J0000000D01*
G01*
G37*
G36*
G01*
X0472992Y1262795D02*
X0474173Y1262795D01*
G75*
G02*
X0474764Y1262204I0000000J-000591D01*
G01*
X0474764Y1255708D01*
G75*
G02*
X0474173Y1255118I-000591J0000000D01*
G01*
X0472992Y1255118D01*
G75*
G02*
X0472401Y1255708I0000000J0000591D01*
G01*
X0472401Y1262204D01*
G75*
G02*
X0472992Y1262795I0000591J0000000D01*
G01*
G37*
G36*
G01*
X0467992Y1262795D02*
X0469173Y1262795D01*
G75*
G02*
X0469764Y1262204I0000000J-000591D01*
G01*
X0469764Y1255708D01*
G75*
G02*
X0469173Y1255118I-000591J0000000D01*
G01*
X0467992Y1255118D01*
G75*
G02*
X0467401Y1255708I0000000J0000591D01*
G01*
X0467401Y1262204D01*
G75*
G02*
X0467992Y1262795I0000591J0000000D01*
G01*
G37*
G36*
G01*
X0467992Y1243307D02*
X0469173Y1243307D01*
G75*
G02*
X0469764Y1242716I0000000J-000591D01*
G01*
X0469764Y1236220D01*
G75*
G02*
X0469173Y1235629I-000591J0000000D01*
G01*
X0467992Y1235629D01*
G75*
G02*
X0467401Y1236220I0000000J0000591D01*
G01*
X0467401Y1242716D01*
G75*
G02*
X0467992Y1243307I0000591J0000000D01*
G01*
G37*
G36*
G01*
X0472992Y1243307D02*
X0474173Y1243307D01*
G75*
G02*
X0474764Y1242716I0000000J-000591D01*
G01*
X0474764Y1236220D01*
G75*
G02*
X0474173Y1235629I-000591J0000000D01*
G01*
X0472992Y1235629D01*
G75*
G02*
X0472401Y1236220I0000000J0000591D01*
G01*
X0472401Y1242716D01*
G75*
G02*
X0472992Y1243307I0000591J0000000D01*
G01*
G37*
G36*
G01*
X0477992Y1243307D02*
X0479173Y1243307D01*
G75*
G02*
X0479764Y1242716I0000000J-000591D01*
G01*
X0479764Y1236220D01*
G75*
G02*
X0479173Y1235629I-000591J0000000D01*
G01*
X0477992Y1235629D01*
G75*
G02*
X0477401Y1236220I0000000J0000591D01*
G01*
X0477401Y1242716D01*
G75*
G02*
X0477992Y1243307I0000591J0000000D01*
G01*
G37*
G36*
G01*
X0482992Y1243307D02*
X0484173Y1243307D01*
G75*
G02*
X0484764Y1242716I0000000J-000591D01*
G01*
X0484764Y1236220D01*
G75*
G02*
X0484173Y1235629I-000591J0000000D01*
G01*
X0482992Y1235629D01*
G75*
G02*
X0482401Y1236220I0000000J0000591D01*
G01*
X0482401Y1242716D01*
G75*
G02*
X0482992Y1243307I0000591J0000000D01*
G01*
G37*
G36*
G01*
X0584075Y1227854D02*
X0586831Y1227854D01*
G75*
G02*
X0587815Y1226870I0000000J-000984D01*
G01*
X0587815Y1220177D01*
G75*
G02*
X0586831Y1219192I-000984J0000000D01*
G01*
X0584075Y1219192D01*
G75*
G02*
X0583090Y1220177I0000000J0000984D01*
G01*
X0583090Y1226870D01*
G75*
G02*
X0584075Y1227854I0000984J0000000D01*
G01*
G37*
G36*
G01*
X0578051Y1211318D02*
X0586909Y1211318D01*
G75*
G02*
X0587894Y1210334I0000000J-000984D01*
G01*
X0587894Y1200295D01*
G75*
G02*
X0586909Y1199311I-000984J0000000D01*
G01*
X0578051Y1199311D01*
G75*
G02*
X0577067Y1200295I0000000J0000984D01*
G01*
X0577067Y1210334D01*
G75*
G02*
X0578051Y1211318I0000984J0000000D01*
G01*
G37*
G36*
G01*
X0566043Y1211318D02*
X0574901Y1211318D01*
G75*
G02*
X0575886Y1210334I0000000J-000984D01*
G01*
X0575886Y1200295D01*
G75*
G02*
X0574901Y1199311I-000984J0000000D01*
G01*
X0566043Y1199311D01*
G75*
G02*
X0565059Y1200295I0000000J0000984D01*
G01*
X0565059Y1210334D01*
G75*
G02*
X0566043Y1211318I0000984J0000000D01*
G01*
G37*
G36*
G01*
X0578051Y1198129D02*
X0586909Y1198129D01*
G75*
G02*
X0587894Y1197145I0000000J-000984D01*
G01*
X0587894Y1187106D01*
G75*
G02*
X0586909Y1186122I-000984J0000000D01*
G01*
X0578051Y1186122D01*
G75*
G02*
X0577067Y1187106I0000000J0000984D01*
G01*
X0577067Y1197145D01*
G75*
G02*
X0578051Y1198129I0000984J0000000D01*
G01*
G37*
G36*
G01*
X0566043Y1198129D02*
X0574901Y1198129D01*
G75*
G02*
X0575886Y1197145I0000000J-000984D01*
G01*
X0575886Y1187106D01*
G75*
G02*
X0574901Y1186122I-000984J0000000D01*
G01*
X0566043Y1186122D01*
G75*
G02*
X0565059Y1187106I0000000J0000984D01*
G01*
X0565059Y1197145D01*
G75*
G02*
X0566043Y1198129I0000984J0000000D01*
G01*
G37*
G36*
G01*
X0566122Y1227854D02*
X0568878Y1227854D01*
G75*
G02*
X0569862Y1226870I0000000J-000984D01*
G01*
X0569862Y1220177D01*
G75*
G02*
X0568878Y1219192I-000984J0000000D01*
G01*
X0566122Y1219192D01*
G75*
G02*
X0565138Y1220177I0000000J0000984D01*
G01*
X0565138Y1226870D01*
G75*
G02*
X0566122Y1227854I0000984J0000000D01*
G01*
G37*
G36*
G01*
X0344626Y1208464D02*
X0347697Y1208464D01*
G75*
G02*
X0347972Y1208189I0000000J-000276D01*
G01*
X0347972Y1205984D01*
G75*
G02*
X0347697Y1205708I-000276J0000000D01*
G01*
X0344626Y1205708D01*
G75*
G02*
X0344350Y1205984I0000000J0000276D01*
G01*
X0344350Y1208189D01*
G75*
G02*
X0344626Y1208464I0000276J0000000D01*
G01*
G37*
G36*
G01*
X0344626Y1202165D02*
X0347697Y1202165D01*
G75*
G02*
X0347972Y1201889I0000000J-000276D01*
G01*
X0347972Y1199685D01*
G75*
G02*
X0347697Y1199409I-000276J0000000D01*
G01*
X0344626Y1199409D01*
G75*
G02*
X0344350Y1199685I0000000J0000276D01*
G01*
X0344350Y1201889D01*
G75*
G02*
X0344626Y1202165I0000276J0000000D01*
G01*
G37*
G36*
G01*
X0203996Y1173818D02*
X0200925Y1173818D01*
G75*
G02*
X0200649Y1174094I0000000J0000276D01*
G01*
X0200649Y1176299D01*
G75*
G02*
X0200925Y1176574I0000276J0000000D01*
G01*
X0203996Y1176574D01*
G75*
G02*
X0204271Y1176299I0000000J-000276D01*
G01*
X0204271Y1174094D01*
G75*
G02*
X0203996Y1173818I-000276J0000000D01*
G01*
G37*
G36*
G01*
X0203996Y1180118D02*
X0200925Y1180118D01*
G75*
G02*
X0200649Y1180393I0000000J0000276D01*
G01*
X0200649Y1182598D01*
G75*
G02*
X0200925Y1182874I0000276J0000000D01*
G01*
X0203996Y1182874D01*
G75*
G02*
X0204271Y1182598I0000000J-000276D01*
G01*
X0204271Y1180393D01*
G75*
G02*
X0203996Y1180118I-000276J0000000D01*
G01*
G37*
G36*
G01*
X0408720Y1247834D02*
X0405649Y1247834D01*
G75*
G02*
X0405374Y1248110I0000000J0000276D01*
G01*
X0405374Y1250314D01*
G75*
G02*
X0405649Y1250590I0000276J0000000D01*
G01*
X0408720Y1250590D01*
G75*
G02*
X0408996Y1250314I0000000J-000276D01*
G01*
X0408996Y1248110D01*
G75*
G02*
X0408720Y1247834I-000276J0000000D01*
G01*
G37*
G36*
G01*
X0408720Y1254133D02*
X0405649Y1254133D01*
G75*
G02*
X0405374Y1254409I0000000J0000276D01*
G01*
X0405374Y1256614D01*
G75*
G02*
X0405649Y1256889I0000276J0000000D01*
G01*
X0408720Y1256889D01*
G75*
G02*
X0408996Y1256614I0000000J-000276D01*
G01*
X0408996Y1254409D01*
G75*
G02*
X0408720Y1254133I-000276J0000000D01*
G01*
G37*
G36*
G01*
X0511988Y1262795D02*
X0513169Y1262795D01*
G75*
G02*
X0513760Y1262204I0000000J-000591D01*
G01*
X0513760Y1255708D01*
G75*
G02*
X0513169Y1255118I-000591J0000000D01*
G01*
X0511988Y1255118D01*
G75*
G02*
X0511397Y1255708I0000000J0000591D01*
G01*
X0511397Y1262204D01*
G75*
G02*
X0511988Y1262795I0000591J0000000D01*
G01*
G37*
G36*
G01*
X0506988Y1262795D02*
X0508169Y1262795D01*
G75*
G02*
X0508760Y1262204I0000000J-000591D01*
G01*
X0508760Y1255708D01*
G75*
G02*
X0508169Y1255118I-000591J0000000D01*
G01*
X0506988Y1255118D01*
G75*
G02*
X0506397Y1255708I0000000J0000591D01*
G01*
X0506397Y1262204D01*
G75*
G02*
X0506988Y1262795I0000591J0000000D01*
G01*
G37*
G36*
G01*
X0501988Y1262795D02*
X0503169Y1262795D01*
G75*
G02*
X0503760Y1262204I0000000J-000591D01*
G01*
X0503760Y1255708D01*
G75*
G02*
X0503169Y1255118I-000591J0000000D01*
G01*
X0501988Y1255118D01*
G75*
G02*
X0501397Y1255708I0000000J0000591D01*
G01*
X0501397Y1262204D01*
G75*
G02*
X0501988Y1262795I0000591J0000000D01*
G01*
G37*
G36*
G01*
X0496988Y1262795D02*
X0498169Y1262795D01*
G75*
G02*
X0498760Y1262204I0000000J-000591D01*
G01*
X0498760Y1255708D01*
G75*
G02*
X0498169Y1255118I-000591J0000000D01*
G01*
X0496988Y1255118D01*
G75*
G02*
X0496397Y1255708I0000000J0000591D01*
G01*
X0496397Y1262204D01*
G75*
G02*
X0496988Y1262795I0000591J0000000D01*
G01*
G37*
G36*
G01*
X0496988Y1243307D02*
X0498169Y1243307D01*
G75*
G02*
X0498760Y1242716I0000000J-000591D01*
G01*
X0498760Y1236220D01*
G75*
G02*
X0498169Y1235629I-000591J0000000D01*
G01*
X0496988Y1235629D01*
G75*
G02*
X0496397Y1236220I0000000J0000591D01*
G01*
X0496397Y1242716D01*
G75*
G02*
X0496988Y1243307I0000591J0000000D01*
G01*
G37*
G36*
G01*
X0501988Y1243307D02*
X0503169Y1243307D01*
G75*
G02*
X0503760Y1242716I0000000J-000591D01*
G01*
X0503760Y1236220D01*
G75*
G02*
X0503169Y1235629I-000591J0000000D01*
G01*
X0501988Y1235629D01*
G75*
G02*
X0501397Y1236220I0000000J0000591D01*
G01*
X0501397Y1242716D01*
G75*
G02*
X0501988Y1243307I0000591J0000000D01*
G01*
G37*
G36*
G01*
X0506988Y1243307D02*
X0508169Y1243307D01*
G75*
G02*
X0508760Y1242716I0000000J-000591D01*
G01*
X0508760Y1236220D01*
G75*
G02*
X0508169Y1235629I-000591J0000000D01*
G01*
X0506988Y1235629D01*
G75*
G02*
X0506397Y1236220I0000000J0000591D01*
G01*
X0506397Y1242716D01*
G75*
G02*
X0506988Y1243307I0000591J0000000D01*
G01*
G37*
G36*
G01*
X0511988Y1243307D02*
X0513169Y1243307D01*
G75*
G02*
X0513760Y1242716I0000000J-000591D01*
G01*
X0513760Y1236220D01*
G75*
G02*
X0513169Y1235629I-000591J0000000D01*
G01*
X0511988Y1235629D01*
G75*
G02*
X0511397Y1236220I0000000J0000591D01*
G01*
X0511397Y1242716D01*
G75*
G02*
X0511988Y1243307I0000591J0000000D01*
G01*
G37*
G36*
G01*
X0636540Y1183366D02*
X0634522Y1183366D01*
G75*
G02*
X0633661Y1184227I0000000J0000861D01*
G01*
X0633661Y1185949D01*
G75*
G02*
X0634522Y1186811I0000861J0000000D01*
G01*
X0636540Y1186811D01*
G75*
G02*
X0637401Y1185949I0000000J-000861D01*
G01*
X0637401Y1184227D01*
G75*
G02*
X0636540Y1183366I-000861J0000000D01*
G01*
G37*
G36*
G01*
X0636540Y1189566D02*
X0634522Y1189566D01*
G75*
G02*
X0633661Y1190428I0000000J0000861D01*
G01*
X0633661Y1192150D01*
G75*
G02*
X0634522Y1193011I0000861J0000000D01*
G01*
X0636540Y1193011D01*
G75*
G02*
X0637401Y1192150I0000000J-000861D01*
G01*
X0637401Y1190428D01*
G75*
G02*
X0636540Y1189566I-000861J0000000D01*
G01*
G37*
G36*
G01*
X0373523Y1255610D02*
X0373523Y1250689D01*
G75*
G02*
X0373130Y1250295I-000394J0000000D01*
G01*
X0369980Y1250295D01*
G75*
G02*
X0369586Y1250689I0000000J0000394D01*
G01*
X0369586Y1255610D01*
G75*
G02*
X0369980Y1256003I0000394J0000000D01*
G01*
X0373130Y1256003D01*
G75*
G02*
X0373523Y1255610I0000000J-000394D01*
G01*
G37*
G36*
G01*
X0366043Y1255610D02*
X0366043Y1250689D01*
G75*
G02*
X0365649Y1250295I-000394J0000000D01*
G01*
X0362500Y1250295D01*
G75*
G02*
X0362106Y1250689I0000000J0000394D01*
G01*
X0362106Y1255610D01*
G75*
G02*
X0362500Y1256003I0000394J0000000D01*
G01*
X0365649Y1256003D01*
G75*
G02*
X0366043Y1255610I0000000J-000394D01*
G01*
G37*
G36*
G01*
X0387303Y1267421D02*
X0387303Y1262500D01*
G75*
G02*
X0386909Y1262106I-000394J0000000D01*
G01*
X0383760Y1262106D01*
G75*
G02*
X0383366Y1262500I0000000J0000394D01*
G01*
X0383366Y1267421D01*
G75*
G02*
X0383760Y1267814I0000394J0000000D01*
G01*
X0386909Y1267814D01*
G75*
G02*
X0387303Y1267421I0000000J-000394D01*
G01*
G37*
G36*
G01*
X0379823Y1267421D02*
X0379823Y1262500D01*
G75*
G02*
X0379429Y1262106I-000394J0000000D01*
G01*
X0376279Y1262106D01*
G75*
G02*
X0375886Y1262500I0000000J0000394D01*
G01*
X0375886Y1267421D01*
G75*
G02*
X0376279Y1267814I0000394J0000000D01*
G01*
X0379429Y1267814D01*
G75*
G02*
X0379823Y1267421I0000000J-000394D01*
G01*
G37*
G36*
G01*
X0565669Y1262795D02*
X0566850Y1262795D01*
G75*
G02*
X0567441Y1262204I0000000J-000591D01*
G01*
X0567441Y1255708D01*
G75*
G02*
X0566850Y1255118I-000591J0000000D01*
G01*
X0565669Y1255118D01*
G75*
G02*
X0565079Y1255708I0000000J0000591D01*
G01*
X0565079Y1262204D01*
G75*
G02*
X0565669Y1262795I0000591J0000000D01*
G01*
G37*
G36*
G01*
X0560669Y1262795D02*
X0561850Y1262795D01*
G75*
G02*
X0562441Y1262204I0000000J-000591D01*
G01*
X0562441Y1255708D01*
G75*
G02*
X0561850Y1255118I-000591J0000000D01*
G01*
X0560669Y1255118D01*
G75*
G02*
X0560079Y1255708I0000000J0000591D01*
G01*
X0560079Y1262204D01*
G75*
G02*
X0560669Y1262795I0000591J0000000D01*
G01*
G37*
G36*
G01*
X0555669Y1262795D02*
X0556850Y1262795D01*
G75*
G02*
X0557441Y1262204I0000000J-000591D01*
G01*
X0557441Y1255708D01*
G75*
G02*
X0556850Y1255118I-000591J0000000D01*
G01*
X0555669Y1255118D01*
G75*
G02*
X0555079Y1255708I0000000J0000591D01*
G01*
X0555079Y1262204D01*
G75*
G02*
X0555669Y1262795I0000591J0000000D01*
G01*
G37*
G36*
G01*
X0550669Y1262795D02*
X0551850Y1262795D01*
G75*
G02*
X0552441Y1262204I0000000J-000591D01*
G01*
X0552441Y1255708D01*
G75*
G02*
X0551850Y1255118I-000591J0000000D01*
G01*
X0550669Y1255118D01*
G75*
G02*
X0550079Y1255708I0000000J0000591D01*
G01*
X0550079Y1262204D01*
G75*
G02*
X0550669Y1262795I0000591J0000000D01*
G01*
G37*
G36*
G01*
X0550669Y1243307D02*
X0551850Y1243307D01*
G75*
G02*
X0552441Y1242716I0000000J-000591D01*
G01*
X0552441Y1236220D01*
G75*
G02*
X0551850Y1235629I-000591J0000000D01*
G01*
X0550669Y1235629D01*
G75*
G02*
X0550079Y1236220I0000000J0000591D01*
G01*
X0550079Y1242716D01*
G75*
G02*
X0550669Y1243307I0000591J0000000D01*
G01*
G37*
G36*
G01*
X0555669Y1243307D02*
X0556850Y1243307D01*
G75*
G02*
X0557441Y1242716I0000000J-000591D01*
G01*
X0557441Y1236220D01*
G75*
G02*
X0556850Y1235629I-000591J0000000D01*
G01*
X0555669Y1235629D01*
G75*
G02*
X0555079Y1236220I0000000J0000591D01*
G01*
X0555079Y1242716D01*
G75*
G02*
X0555669Y1243307I0000591J0000000D01*
G01*
G37*
G36*
G01*
X0560669Y1243307D02*
X0561850Y1243307D01*
G75*
G02*
X0562441Y1242716I0000000J-000591D01*
G01*
X0562441Y1236220D01*
G75*
G02*
X0561850Y1235629I-000591J0000000D01*
G01*
X0560669Y1235629D01*
G75*
G02*
X0560079Y1236220I0000000J0000591D01*
G01*
X0560079Y1242716D01*
G75*
G02*
X0560669Y1243307I0000591J0000000D01*
G01*
G37*
G36*
G01*
X0565669Y1243307D02*
X0566850Y1243307D01*
G75*
G02*
X0567441Y1242716I0000000J-000591D01*
G01*
X0567441Y1236220D01*
G75*
G02*
X0566850Y1235629I-000591J0000000D01*
G01*
X0565669Y1235629D01*
G75*
G02*
X0565079Y1236220I0000000J0000591D01*
G01*
X0565079Y1242716D01*
G75*
G02*
X0565669Y1243307I0000591J0000000D01*
G01*
G37*
G36*
G01*
X0176279Y1165551D02*
X0181397Y1165551D01*
G75*
G02*
X0182382Y1164566I0000000J-000984D01*
G01*
X0182382Y1156692D01*
G75*
G02*
X0181397Y1155708I-000984J0000000D01*
G01*
X0176279Y1155708D01*
G75*
G02*
X0175295Y1156692I0000000J0000984D01*
G01*
X0175295Y1164566D01*
G75*
G02*
X0176279Y1165551I0000984J0000000D01*
G01*
G37*
G36*
G01*
X0176279Y1149803D02*
X0181397Y1149803D01*
G75*
G02*
X0182382Y1148818I0000000J-000984D01*
G01*
X0182382Y1140944D01*
G75*
G02*
X0181397Y1139960I-000984J0000000D01*
G01*
X0176279Y1139960D01*
G75*
G02*
X0175295Y1140944I0000000J0000984D01*
G01*
X0175295Y1148818D01*
G75*
G02*
X0176279Y1149803I0000984J0000000D01*
G01*
G37*
G36*
G01*
X0487283Y1227854D02*
X0490039Y1227854D01*
G75*
G02*
X0491023Y1226870I0000000J-000984D01*
G01*
X0491023Y1220177D01*
G75*
G02*
X0490039Y1219192I-000984J0000000D01*
G01*
X0487283Y1219192D01*
G75*
G02*
X0486299Y1220177I0000000J0000984D01*
G01*
X0486299Y1226870D01*
G75*
G02*
X0487283Y1227854I0000984J0000000D01*
G01*
G37*
G36*
G01*
X0481260Y1211318D02*
X0490118Y1211318D01*
G75*
G02*
X0491102Y1210334I0000000J-000984D01*
G01*
X0491102Y1200295D01*
G75*
G02*
X0490118Y1199311I-000984J0000000D01*
G01*
X0481260Y1199311D01*
G75*
G02*
X0480275Y1200295I0000000J0000984D01*
G01*
X0480275Y1210334D01*
G75*
G02*
X0481260Y1211318I0000984J0000000D01*
G01*
G37*
G36*
G01*
X0469252Y1211318D02*
X0478110Y1211318D01*
G75*
G02*
X0479094Y1210334I0000000J-000984D01*
G01*
X0479094Y1200295D01*
G75*
G02*
X0478110Y1199311I-000984J0000000D01*
G01*
X0469252Y1199311D01*
G75*
G02*
X0468268Y1200295I0000000J0000984D01*
G01*
X0468268Y1210334D01*
G75*
G02*
X0469252Y1211318I0000984J0000000D01*
G01*
G37*
G36*
G01*
X0481260Y1198129D02*
X0490118Y1198129D01*
G75*
G02*
X0491102Y1197145I0000000J-000984D01*
G01*
X0491102Y1187106D01*
G75*
G02*
X0490118Y1186122I-000984J0000000D01*
G01*
X0481260Y1186122D01*
G75*
G02*
X0480275Y1187106I0000000J0000984D01*
G01*
X0480275Y1197145D01*
G75*
G02*
X0481260Y1198129I0000984J0000000D01*
G01*
G37*
G36*
G01*
X0469252Y1198129D02*
X0478110Y1198129D01*
G75*
G02*
X0479094Y1197145I0000000J-000984D01*
G01*
X0479094Y1187106D01*
G75*
G02*
X0478110Y1186122I-000984J0000000D01*
G01*
X0469252Y1186122D01*
G75*
G02*
X0468268Y1187106I0000000J0000984D01*
G01*
X0468268Y1197145D01*
G75*
G02*
X0469252Y1198129I0000984J0000000D01*
G01*
G37*
G36*
G01*
X0469331Y1227854D02*
X0472086Y1227854D01*
G75*
G02*
X0473071Y1226870I0000000J-000984D01*
G01*
X0473071Y1220177D01*
G75*
G02*
X0472086Y1219192I-000984J0000000D01*
G01*
X0469331Y1219192D01*
G75*
G02*
X0468346Y1220177I0000000J0000984D01*
G01*
X0468346Y1226870D01*
G75*
G02*
X0469331Y1227854I0000984J0000000D01*
G01*
G37*
G36*
G01*
X0646004Y1252027D02*
X0648681Y1252027D01*
G75*
G02*
X0649016Y1251692I0000000J-000335D01*
G01*
X0649016Y1249015D01*
G75*
G02*
X0648681Y1248681I-000335J0000000D01*
G01*
X0646004Y1248681D01*
G75*
G02*
X0645669Y1249015I0000000J0000335D01*
G01*
X0645669Y1251692D01*
G75*
G02*
X0646004Y1252027I0000335J0000000D01*
G01*
G37*
G36*
G01*
X0646004Y1245807D02*
X0648681Y1245807D01*
G75*
G02*
X0649016Y1245472I0000000J-000335D01*
G01*
X0649016Y1242795D01*
G75*
G02*
X0648681Y1242460I-000335J0000000D01*
G01*
X0646004Y1242460D01*
G75*
G02*
X0645669Y1242795I0000000J0000335D01*
G01*
X0645669Y1245472D01*
G75*
G02*
X0646004Y1245807I0000335J0000000D01*
G01*
G37*
D75*
X0612647Y1401351D03*
G36*
G01*
X0400846Y1247834D02*
X0397775Y1247834D01*
G75*
G02*
X0397500Y1248110I0000000J0000276D01*
G01*
X0397500Y1250314D01*
G75*
G02*
X0397775Y1250590I0000276J0000000D01*
G01*
X0400846Y1250590D01*
G75*
G02*
X0401122Y1250314I0000000J-000276D01*
G01*
X0401122Y1248110D01*
G75*
G02*
X0400846Y1247834I-000276J0000000D01*
G01*
G37*
G36*
G01*
X0400846Y1254133D02*
X0397775Y1254133D01*
G75*
G02*
X0397500Y1254409I0000000J0000276D01*
G01*
X0397500Y1256614D01*
G75*
G02*
X0397775Y1256889I0000276J0000000D01*
G01*
X0400846Y1256889D01*
G75*
G02*
X0401122Y1256614I0000000J-000276D01*
G01*
X0401122Y1254409D01*
G75*
G02*
X0400846Y1254133I-000276J0000000D01*
G01*
G37*
G36*
G01*
X0453464Y1262795D02*
X0454645Y1262795D01*
G75*
G02*
X0455236Y1262204I0000000J-000591D01*
G01*
X0455236Y1255708D01*
G75*
G02*
X0454645Y1255118I-000591J0000000D01*
G01*
X0453464Y1255118D01*
G75*
G02*
X0452874Y1255708I0000000J0000591D01*
G01*
X0452874Y1262204D01*
G75*
G02*
X0453464Y1262795I0000591J0000000D01*
G01*
G37*
G36*
G01*
X0448464Y1262795D02*
X0449645Y1262795D01*
G75*
G02*
X0450236Y1262204I0000000J-000591D01*
G01*
X0450236Y1255708D01*
G75*
G02*
X0449645Y1255118I-000591J0000000D01*
G01*
X0448464Y1255118D01*
G75*
G02*
X0447874Y1255708I0000000J0000591D01*
G01*
X0447874Y1262204D01*
G75*
G02*
X0448464Y1262795I0000591J0000000D01*
G01*
G37*
G36*
G01*
X0443464Y1262795D02*
X0444645Y1262795D01*
G75*
G02*
X0445236Y1262204I0000000J-000591D01*
G01*
X0445236Y1255708D01*
G75*
G02*
X0444645Y1255118I-000591J0000000D01*
G01*
X0443464Y1255118D01*
G75*
G02*
X0442874Y1255708I0000000J0000591D01*
G01*
X0442874Y1262204D01*
G75*
G02*
X0443464Y1262795I0000591J0000000D01*
G01*
G37*
G36*
G01*
X0438464Y1262795D02*
X0439645Y1262795D01*
G75*
G02*
X0440236Y1262204I0000000J-000591D01*
G01*
X0440236Y1255708D01*
G75*
G02*
X0439645Y1255118I-000591J0000000D01*
G01*
X0438464Y1255118D01*
G75*
G02*
X0437874Y1255708I0000000J0000591D01*
G01*
X0437874Y1262204D01*
G75*
G02*
X0438464Y1262795I0000591J0000000D01*
G01*
G37*
G36*
G01*
X0438464Y1243307D02*
X0439645Y1243307D01*
G75*
G02*
X0440236Y1242716I0000000J-000591D01*
G01*
X0440236Y1236220D01*
G75*
G02*
X0439645Y1235629I-000591J0000000D01*
G01*
X0438464Y1235629D01*
G75*
G02*
X0437874Y1236220I0000000J0000591D01*
G01*
X0437874Y1242716D01*
G75*
G02*
X0438464Y1243307I0000591J0000000D01*
G01*
G37*
G36*
G01*
X0443464Y1243307D02*
X0444645Y1243307D01*
G75*
G02*
X0445236Y1242716I0000000J-000591D01*
G01*
X0445236Y1236220D01*
G75*
G02*
X0444645Y1235629I-000591J0000000D01*
G01*
X0443464Y1235629D01*
G75*
G02*
X0442874Y1236220I0000000J0000591D01*
G01*
X0442874Y1242716D01*
G75*
G02*
X0443464Y1243307I0000591J0000000D01*
G01*
G37*
G36*
G01*
X0448464Y1243307D02*
X0449645Y1243307D01*
G75*
G02*
X0450236Y1242716I0000000J-000591D01*
G01*
X0450236Y1236220D01*
G75*
G02*
X0449645Y1235629I-000591J0000000D01*
G01*
X0448464Y1235629D01*
G75*
G02*
X0447874Y1236220I0000000J0000591D01*
G01*
X0447874Y1242716D01*
G75*
G02*
X0448464Y1243307I0000591J0000000D01*
G01*
G37*
G36*
G01*
X0453464Y1243307D02*
X0454645Y1243307D01*
G75*
G02*
X0455236Y1242716I0000000J-000591D01*
G01*
X0455236Y1236220D01*
G75*
G02*
X0454645Y1235629I-000591J0000000D01*
G01*
X0453464Y1235629D01*
G75*
G02*
X0452874Y1236220I0000000J0000591D01*
G01*
X0452874Y1242716D01*
G75*
G02*
X0453464Y1243307I0000591J0000000D01*
G01*
G37*
G36*
G01*
X0691653Y1375000D02*
X0692834Y1375000D01*
G75*
G02*
X0693425Y1374409I0000000J-000591D01*
G01*
X0693425Y1367913D01*
G75*
G02*
X0692834Y1367322I-000591J0000000D01*
G01*
X0691653Y1367322D01*
G75*
G02*
X0691063Y1367913I0000000J0000591D01*
G01*
X0691063Y1374409D01*
G75*
G02*
X0691653Y1375000I0000591J0000000D01*
G01*
G37*
G36*
G01*
X0686653Y1375000D02*
X0687834Y1375000D01*
G75*
G02*
X0688425Y1374409I0000000J-000591D01*
G01*
X0688425Y1367913D01*
G75*
G02*
X0687834Y1367322I-000591J0000000D01*
G01*
X0686653Y1367322D01*
G75*
G02*
X0686063Y1367913I0000000J0000591D01*
G01*
X0686063Y1374409D01*
G75*
G02*
X0686653Y1375000I0000591J0000000D01*
G01*
G37*
G36*
G01*
X0681653Y1375000D02*
X0682834Y1375000D01*
G75*
G02*
X0683425Y1374409I0000000J-000591D01*
G01*
X0683425Y1367913D01*
G75*
G02*
X0682834Y1367322I-000591J0000000D01*
G01*
X0681653Y1367322D01*
G75*
G02*
X0681063Y1367913I0000000J0000591D01*
G01*
X0681063Y1374409D01*
G75*
G02*
X0681653Y1375000I0000591J0000000D01*
G01*
G37*
G36*
G01*
X0676653Y1375000D02*
X0677834Y1375000D01*
G75*
G02*
X0678425Y1374409I0000000J-000591D01*
G01*
X0678425Y1367913D01*
G75*
G02*
X0677834Y1367322I-000591J0000000D01*
G01*
X0676653Y1367322D01*
G75*
G02*
X0676063Y1367913I0000000J0000591D01*
G01*
X0676063Y1374409D01*
G75*
G02*
X0676653Y1375000I0000591J0000000D01*
G01*
G37*
G36*
G01*
X0676653Y1355511D02*
X0677834Y1355511D01*
G75*
G02*
X0678425Y1354921I0000000J-000591D01*
G01*
X0678425Y1348425D01*
G75*
G02*
X0677834Y1347834I-000591J0000000D01*
G01*
X0676653Y1347834D01*
G75*
G02*
X0676063Y1348425I0000000J0000591D01*
G01*
X0676063Y1354921D01*
G75*
G02*
X0676653Y1355511I0000591J0000000D01*
G01*
G37*
G36*
G01*
X0681653Y1355511D02*
X0682834Y1355511D01*
G75*
G02*
X0683425Y1354921I0000000J-000591D01*
G01*
X0683425Y1348425D01*
G75*
G02*
X0682834Y1347834I-000591J0000000D01*
G01*
X0681653Y1347834D01*
G75*
G02*
X0681063Y1348425I0000000J0000591D01*
G01*
X0681063Y1354921D01*
G75*
G02*
X0681653Y1355511I0000591J0000000D01*
G01*
G37*
G36*
G01*
X0686653Y1355511D02*
X0687834Y1355511D01*
G75*
G02*
X0688425Y1354921I0000000J-000591D01*
G01*
X0688425Y1348425D01*
G75*
G02*
X0687834Y1347834I-000591J0000000D01*
G01*
X0686653Y1347834D01*
G75*
G02*
X0686063Y1348425I0000000J0000591D01*
G01*
X0686063Y1354921D01*
G75*
G02*
X0686653Y1355511I0000591J0000000D01*
G01*
G37*
G36*
G01*
X0691653Y1355511D02*
X0692834Y1355511D01*
G75*
G02*
X0693425Y1354921I0000000J-000591D01*
G01*
X0693425Y1348425D01*
G75*
G02*
X0692834Y1347834I-000591J0000000D01*
G01*
X0691653Y1347834D01*
G75*
G02*
X0691063Y1348425I0000000J0000591D01*
G01*
X0691063Y1354921D01*
G75*
G02*
X0691653Y1355511I0000591J0000000D01*
G01*
G37*
G36*
G01*
X0618779Y1239566D02*
X0617598Y1239566D01*
G75*
G02*
X0617008Y1240157I0000000J0000591D01*
G01*
X0617008Y1246653D01*
G75*
G02*
X0617598Y1247244I0000591J0000000D01*
G01*
X0618779Y1247244D01*
G75*
G02*
X0619370Y1246653I0000000J-000591D01*
G01*
X0619370Y1240157D01*
G75*
G02*
X0618779Y1239566I-000591J0000000D01*
G01*
G37*
G36*
G01*
X0623779Y1239566D02*
X0622598Y1239566D01*
G75*
G02*
X0622008Y1240157I0000000J0000591D01*
G01*
X0622008Y1246653D01*
G75*
G02*
X0622598Y1247244I0000591J0000000D01*
G01*
X0623779Y1247244D01*
G75*
G02*
X0624370Y1246653I0000000J-000591D01*
G01*
X0624370Y1240157D01*
G75*
G02*
X0623779Y1239566I-000591J0000000D01*
G01*
G37*
G36*
G01*
X0628779Y1239566D02*
X0627598Y1239566D01*
G75*
G02*
X0627008Y1240157I0000000J0000591D01*
G01*
X0627008Y1246653D01*
G75*
G02*
X0627598Y1247244I0000591J0000000D01*
G01*
X0628779Y1247244D01*
G75*
G02*
X0629370Y1246653I0000000J-000591D01*
G01*
X0629370Y1240157D01*
G75*
G02*
X0628779Y1239566I-000591J0000000D01*
G01*
G37*
G36*
G01*
X0633779Y1239566D02*
X0632598Y1239566D01*
G75*
G02*
X0632008Y1240157I0000000J0000591D01*
G01*
X0632008Y1246653D01*
G75*
G02*
X0632598Y1247244I0000591J0000000D01*
G01*
X0633779Y1247244D01*
G75*
G02*
X0634370Y1246653I0000000J-000591D01*
G01*
X0634370Y1240157D01*
G75*
G02*
X0633779Y1239566I-000591J0000000D01*
G01*
G37*
G36*
G01*
X0633779Y1259055D02*
X0632598Y1259055D01*
G75*
G02*
X0632008Y1259645I0000000J0000591D01*
G01*
X0632008Y1266141D01*
G75*
G02*
X0632598Y1266732I0000591J0000000D01*
G01*
X0633779Y1266732D01*
G75*
G02*
X0634370Y1266141I0000000J-000591D01*
G01*
X0634370Y1259645D01*
G75*
G02*
X0633779Y1259055I-000591J0000000D01*
G01*
G37*
G36*
G01*
X0628779Y1259055D02*
X0627598Y1259055D01*
G75*
G02*
X0627008Y1259645I0000000J0000591D01*
G01*
X0627008Y1266141D01*
G75*
G02*
X0627598Y1266732I0000591J0000000D01*
G01*
X0628779Y1266732D01*
G75*
G02*
X0629370Y1266141I0000000J-000591D01*
G01*
X0629370Y1259645D01*
G75*
G02*
X0628779Y1259055I-000591J0000000D01*
G01*
G37*
G36*
G01*
X0623779Y1259055D02*
X0622598Y1259055D01*
G75*
G02*
X0622008Y1259645I0000000J0000591D01*
G01*
X0622008Y1266141D01*
G75*
G02*
X0622598Y1266732I0000591J0000000D01*
G01*
X0623779Y1266732D01*
G75*
G02*
X0624370Y1266141I0000000J-000591D01*
G01*
X0624370Y1259645D01*
G75*
G02*
X0623779Y1259055I-000591J0000000D01*
G01*
G37*
G36*
G01*
X0618779Y1259055D02*
X0617598Y1259055D01*
G75*
G02*
X0617008Y1259645I0000000J0000591D01*
G01*
X0617008Y1266141D01*
G75*
G02*
X0617598Y1266732I0000591J0000000D01*
G01*
X0618779Y1266732D01*
G75*
G02*
X0619370Y1266141I0000000J-000591D01*
G01*
X0619370Y1259645D01*
G75*
G02*
X0618779Y1259055I-000591J0000000D01*
G01*
G37*
X0160827Y0238386D02*
%LPD*%
G01*
D269*
X0191260Y0214429D03*
X0185512Y0214429D03*
X0179764Y0214429D03*
X0174016Y0214429D03*
X0168268Y0214429D03*
X0191260Y0205571D03*
X0185512Y0205571D03*
X0179764Y0205571D03*
X0174016Y0205571D03*
X0168268Y0205571D03*
D267*
X0189607Y0228898D03*
X0185670Y0228898D03*
X0181733Y0228898D03*
X0177796Y0228898D03*
X0173858Y0228898D03*
X0169921Y0228898D03*
X0169921Y0191103D03*
X0173858Y0191103D03*
X0177796Y0191103D03*
X0181733Y0191103D03*
X0185670Y0191103D03*
X0189607Y0191103D03*
X0497195Y0382651D02*
G01*
G75*
D282*
X0485778Y0369639D02*
D03*
X0489518Y0378891D02*
D03*
D282*
X0493258Y0369639D02*
D03*
D95*
X0478219Y0358025D02*
D03*
X0478219Y0363025D02*
D03*
X0478219Y0368025D02*
D03*
X0478219Y0373025D02*
D03*
X0459321Y0358025D02*
D03*
X0459321Y0363025D02*
D03*
X0459321Y0368025D02*
D03*
X0459321Y0373025D02*
D03*
D283*
X0462510Y0378320D02*
D03*
X0456290Y0378320D02*
D03*
X0470856Y0378320D02*
D03*
X0477077Y0378320D02*
D03*
D284*
X0492668Y0364738D02*
D03*
X0486368Y0364738D02*
D03*
D15*
X0482038Y0380781D02*
D03*
X0284843Y0271260D02*
G01*
G75*
D70*
X0338190Y0412599D02*
D03*
D69*
X0324410Y0412599D02*
D03*
D72*
X0418308Y0306496D02*
D03*
D67*
X0376575Y0412599D02*
D03*
X0292323Y0271654D02*
D03*
D68*
X0406103Y0271654D02*
D03*
X0300591Y0412599D02*
D03*
D65*
X0285237Y0307284D02*
D03*
D66*
X0285237Y0275788D02*
D03*
D64*
X0285237Y0361024D02*
D03*
D73*
X0418308Y0283662D02*
D03*
D71*
X0418308Y0399213D02*
D03*
D62*
X0285237Y0378543D02*
D03*
X0285237Y0402559D02*
D03*
D63*
X0285237Y0390551D02*
D03*
X0418308Y0364961D02*
D03*
D110*
X0408465Y0289350D02*
D03*
X0415552Y0289350D02*
D03*
X0415552Y0279311D02*
D03*
X0408465Y0279311D02*
D03*
X0296654Y0338091D02*
D03*
X0289567Y0338091D02*
D03*
X0289567Y0328051D02*
D03*
X0296654Y0328051D02*
D03*
X0296654Y0344193D02*
D03*
X0289567Y0344193D02*
D03*
X0289567Y0354233D02*
D03*
X0296654Y0354233D02*
D03*
D111*
X0408465Y0285906D02*
D03*
X0408465Y0282756D02*
D03*
X0415552Y0282756D02*
D03*
X0415552Y0285906D02*
D03*
X0289567Y0331496D02*
D03*
X0289567Y0334646D02*
D03*
X0296654Y0334646D02*
D03*
X0296654Y0331496D02*
D03*
X0296654Y0347638D02*
D03*
X0296654Y0350788D02*
D03*
X0289567Y0350788D02*
D03*
X0289567Y0347638D02*
D03*
D112*
X0404253Y0286354D02*
D03*
X0404253Y0288913D02*
D03*
X0404253Y0291473D02*
D03*
X0396773Y0286354D02*
D03*
X0396773Y0291473D02*
D03*
X0396773Y0288913D02*
D03*
X0396773Y0281729D02*
D03*
X0396773Y0276610D02*
D03*
X0404253Y0281729D02*
D03*
X0404253Y0279169D02*
D03*
X0404253Y0276610D02*
D03*
X0396773Y0279169D02*
D03*
D113*
X0337045Y0385630D02*
D03*
X0337045Y0383662D02*
D03*
X0337045Y0381693D02*
D03*
X0337045Y0379725D02*
D03*
X0337045Y0377756D02*
D03*
X0337045Y0375788D02*
D03*
X0337045Y0373819D02*
D03*
X0337045Y0371851D02*
D03*
X0337045Y0369882D02*
D03*
X0337045Y0365945D02*
D03*
X0337045Y0363976D02*
D03*
X0337045Y0362008D02*
D03*
X0337045Y0360039D02*
D03*
X0337045Y0358071D02*
D03*
X0337045Y0356102D02*
D03*
X0337045Y0354134D02*
D03*
X0337045Y0352165D02*
D03*
X0337045Y0350197D02*
D03*
X0337045Y0348228D02*
D03*
X0337045Y0346260D02*
D03*
X0337045Y0344292D02*
D03*
X0337045Y0342323D02*
D03*
X0337045Y0340355D02*
D03*
X0337045Y0338386D02*
D03*
X0398069Y0338386D02*
D03*
X0398069Y0340355D02*
D03*
X0398069Y0342323D02*
D03*
X0398069Y0344292D02*
D03*
X0398069Y0346260D02*
D03*
X0398069Y0348228D02*
D03*
X0398069Y0350197D02*
D03*
X0398069Y0352165D02*
D03*
X0398069Y0354134D02*
D03*
X0398069Y0356102D02*
D03*
X0398069Y0358071D02*
D03*
X0398069Y0360039D02*
D03*
X0398069Y0362008D02*
D03*
X0398069Y0363976D02*
D03*
X0398069Y0365945D02*
D03*
X0398069Y0367913D02*
D03*
X0398069Y0369882D02*
D03*
X0398069Y0371851D02*
D03*
X0398069Y0373819D02*
D03*
X0398069Y0375788D02*
D03*
X0398069Y0377756D02*
D03*
X0398069Y0379725D02*
D03*
X0398069Y0381693D02*
D03*
X0398069Y0385630D02*
D03*
X0337045Y0367913D02*
D03*
X0398069Y0383662D02*
D03*
D114*
X0343935Y0331496D02*
D03*
X0347872Y0331496D02*
D03*
X0349841Y0331496D02*
D03*
X0351809Y0331496D02*
D03*
X0353778Y0331496D02*
D03*
X0355746Y0331496D02*
D03*
X0357715Y0331496D02*
D03*
X0359683Y0331496D02*
D03*
X0361652Y0331496D02*
D03*
X0363620Y0331496D02*
D03*
X0365589Y0331496D02*
D03*
X0367557Y0331496D02*
D03*
X0369526Y0331496D02*
D03*
X0371494Y0331496D02*
D03*
X0373463Y0331496D02*
D03*
X0375431Y0331496D02*
D03*
X0377400Y0331496D02*
D03*
X0379368Y0331496D02*
D03*
X0381337Y0331496D02*
D03*
X0383305Y0331496D02*
D03*
X0385274Y0331496D02*
D03*
X0387242Y0331496D02*
D03*
X0389211Y0331496D02*
D03*
X0391179Y0331496D02*
D03*
X0391179Y0392520D02*
D03*
X0389211Y0392520D02*
D03*
X0387242Y0392520D02*
D03*
X0385274Y0392520D02*
D03*
X0383305Y0392520D02*
D03*
X0381337Y0392520D02*
D03*
X0379368Y0392520D02*
D03*
X0377400Y0392520D02*
D03*
X0375431Y0392520D02*
D03*
X0373463Y0392520D02*
D03*
X0371494Y0392520D02*
D03*
X0369526Y0392520D02*
D03*
X0367557Y0392520D02*
D03*
X0365589Y0392520D02*
D03*
X0363620Y0392520D02*
D03*
X0361652Y0392520D02*
D03*
X0359683Y0392520D02*
D03*
X0357715Y0392520D02*
D03*
X0355746Y0392520D02*
D03*
X0353778Y0392520D02*
D03*
X0351809Y0392520D02*
D03*
X0349841Y0392520D02*
D03*
X0347872Y0392520D02*
D03*
X0345904Y0392520D02*
D03*
X0343935Y0392520D02*
D03*
X0345904Y0331496D02*
D03*
D115*
X0340552Y0314567D02*
D03*
X0368504Y0314567D02*
D03*
X0312599Y0314567D02*
D03*
X0318111Y0309449D02*
D03*
X0346064Y0319685D02*
D03*
X0346064Y0317126D02*
D03*
X0346064Y0314567D02*
D03*
X0346064Y0312008D02*
D03*
X0346064Y0309449D02*
D03*
X0346064Y0306890D02*
D03*
X0346064Y0304331D02*
D03*
X0368504Y0319685D02*
D03*
X0368504Y0317126D02*
D03*
X0368504Y0312008D02*
D03*
X0368504Y0309449D02*
D03*
X0368504Y0306890D02*
D03*
X0368504Y0304331D02*
D03*
X0290158Y0319685D02*
D03*
X0290158Y0317126D02*
D03*
X0290158Y0314567D02*
D03*
X0290158Y0312008D02*
D03*
X0290158Y0309449D02*
D03*
X0290158Y0306890D02*
D03*
X0290158Y0304331D02*
D03*
X0312599Y0319685D02*
D03*
X0312599Y0317126D02*
D03*
X0312599Y0312008D02*
D03*
X0312599Y0309449D02*
D03*
X0312599Y0306890D02*
D03*
X0312599Y0304331D02*
D03*
X0318111Y0319685D02*
D03*
X0318111Y0317126D02*
D03*
X0318111Y0314567D02*
D03*
X0318111Y0312008D02*
D03*
X0318111Y0306890D02*
D03*
X0318111Y0304331D02*
D03*
X0340552Y0319685D02*
D03*
X0340552Y0317126D02*
D03*
X0340552Y0312008D02*
D03*
X0340552Y0309449D02*
D03*
X0340552Y0306890D02*
D03*
X0340552Y0304331D02*
D03*
X0396457Y0304331D02*
D03*
X0396457Y0306890D02*
D03*
X0396457Y0309449D02*
D03*
X0396457Y0312008D02*
D03*
X0396457Y0314567D02*
D03*
X0396457Y0317126D02*
D03*
X0396457Y0319685D02*
D03*
X0374016Y0304331D02*
D03*
X0374016Y0306890D02*
D03*
X0374016Y0309449D02*
D03*
X0374016Y0312008D02*
D03*
X0374016Y0314567D02*
D03*
X0374016Y0317126D02*
D03*
X0374016Y0319685D02*
D03*
D116*
X0409252Y0406693D02*
D03*
X0412993Y0406693D02*
D03*
X0405512Y0406693D02*
D03*
X0405512Y0397244D02*
D03*
X0409252Y0397244D02*
D03*
X0412993Y0397244D02*
D03*
D117*
X0410702Y0385433D02*
D03*
X0410702Y0390158D02*
D03*
X0409233Y0375886D02*
D03*
X0322693Y0402671D02*
D03*
X0336005Y0326805D02*
D03*
X0406766Y0385433D02*
D03*
X0413171Y0375886D02*
D03*
X0407871Y0338902D02*
D03*
X0411808Y0338902D02*
D03*
X0407871Y0329847D02*
D03*
X0411808Y0329847D02*
D03*
X0406766Y0390158D02*
D03*
X0326630Y0402671D02*
D03*
X0319553Y0385956D02*
D03*
X0323490Y0385956D02*
D03*
X0339942Y0326805D02*
D03*
X0339961Y0331101D02*
D03*
X0336024Y0331101D02*
D03*
D118*
X0413159Y0367251D02*
D03*
X0413159Y0365283D02*
D03*
X0406860Y0369220D02*
D03*
X0406860Y0367251D02*
D03*
X0406860Y0371188D02*
D03*
X0406860Y0365283D02*
D03*
X0413159Y0371188D02*
D03*
X0413159Y0369220D02*
D03*
D119*
X0410994Y0365086D02*
D03*
X0409025Y0365086D02*
D03*
X0409025Y0371385D02*
D03*
X0410994Y0371385D02*
D03*
D120*
X0408254Y0360236D02*
D03*
X0408254Y0343701D02*
D03*
D121*
X0379725Y0287795D02*
D03*
X0389174Y0287795D02*
D03*
X0384449Y0287795D02*
D03*
X0375001Y0287795D02*
D03*
X0389174Y0276378D02*
D03*
X0379725Y0276378D02*
D03*
X0384449Y0276378D02*
D03*
X0375001Y0276378D02*
D03*
X0368791Y0294775D02*
D03*
X0368791Y0298712D02*
D03*
X0375001Y0280315D02*
D03*
D03*
X0375001Y0284252D02*
D03*
X0379725Y0280315D02*
D03*
X0379725Y0284252D02*
D03*
X0375001Y0291732D02*
D03*
X0384449Y0280315D02*
D03*
X0384449Y0284252D02*
D03*
X0379725Y0291732D02*
D03*
X0384449Y0291732D02*
D03*
X0389174Y0280315D02*
D03*
X0389174Y0284252D02*
D03*
X0389174Y0280315D02*
D03*
X0389174Y0291732D02*
D03*
X0379725Y0280315D02*
D03*
X0384449Y0280315D02*
D03*
X0288977Y0282677D02*
D03*
X0288977Y0278740D02*
D03*
X0313583Y0280315D02*
D03*
X0313583Y0276378D02*
D03*
X0327756Y0280315D02*
D03*
X0327756Y0276378D02*
D03*
X0346654Y0284252D02*
D03*
X0346654Y0280315D02*
D03*
X0346654Y0276378D02*
D03*
X0346654Y0280315D02*
D03*
X0360827Y0284252D02*
D03*
X0360827Y0280315D02*
D03*
X0288977Y0299410D02*
D03*
X0288977Y0295473D02*
D03*
X0294686Y0280315D02*
D03*
X0294686Y0284252D02*
D03*
X0299410Y0280315D02*
D03*
X0299410Y0284252D02*
D03*
X0304134Y0280315D02*
D03*
X0304134Y0284252D02*
D03*
X0308859Y0280315D02*
D03*
X0308859Y0284252D02*
D03*
X0294686Y0280315D02*
D03*
X0294686Y0276378D02*
D03*
X0299410Y0280315D02*
D03*
X0299410Y0276378D02*
D03*
X0304134Y0280315D02*
D03*
X0304134Y0276378D02*
D03*
X0308859Y0280315D02*
D03*
X0308859Y0276378D02*
D03*
X0313583Y0280315D02*
D03*
X0313583Y0284252D02*
D03*
X0318308Y0280315D02*
D03*
X0318308Y0284252D02*
D03*
X0323032Y0280315D02*
D03*
X0323032Y0284252D02*
D03*
X0327756Y0280315D02*
D03*
X0327756Y0284252D02*
D03*
X0318308Y0280315D02*
D03*
X0318308Y0276378D02*
D03*
X0323032Y0280315D02*
D03*
X0323032Y0276378D02*
D03*
X0332481Y0284252D02*
D03*
X0332481Y0280315D02*
D03*
X0337205Y0284252D02*
D03*
X0337205Y0280315D02*
D03*
X0341930Y0284252D02*
D03*
X0341930Y0280315D02*
D03*
X0332481Y0276378D02*
D03*
X0332481Y0280315D02*
D03*
X0337205Y0276378D02*
D03*
X0337205Y0280315D02*
D03*
X0341930Y0276378D02*
D03*
X0341930Y0280315D02*
D03*
X0351379Y0284252D02*
D03*
X0351379Y0280315D02*
D03*
X0356103Y0284252D02*
D03*
X0356103Y0280315D02*
D03*
X0365552Y0284252D02*
D03*
X0365552Y0280315D02*
D03*
X0351379Y0276378D02*
D03*
X0351379Y0280315D02*
D03*
X0356103Y0276378D02*
D03*
X0356103Y0280315D02*
D03*
X0360827Y0276378D02*
D03*
X0360827Y0280315D02*
D03*
X0365552Y0276378D02*
D03*
X0365552Y0280315D02*
D03*
X0288977Y0290354D02*
D03*
X0288977Y0286417D02*
D03*
D122*
X0353741Y0293307D02*
D03*
X0334843Y0293307D02*
D03*
X0315945Y0293307D02*
D03*
X0297048Y0293307D02*
D03*
X0325394Y0297047D02*
D03*
X0325394Y0293307D02*
D03*
X0325394Y0289567D02*
D03*
X0315945Y0289567D02*
D03*
X0315945Y0297047D02*
D03*
X0306497Y0297047D02*
D03*
X0306497Y0293307D02*
D03*
X0306497Y0289567D02*
D03*
X0297048Y0289567D02*
D03*
X0297048Y0297047D02*
D03*
X0344292Y0297047D02*
D03*
X0344292Y0293307D02*
D03*
X0344292Y0289567D02*
D03*
X0334843Y0289567D02*
D03*
X0334843Y0297047D02*
D03*
X0363190Y0297047D02*
D03*
X0363190Y0293307D02*
D03*
X0363190Y0289567D02*
D03*
X0353741Y0289567D02*
D03*
X0353741Y0297047D02*
D03*
D123*
X0319756Y0390342D02*
D03*
X0337678Y0400591D02*
D03*
D95*
X0310434Y0365219D02*
D03*
X0291536Y0360219D02*
D03*
X0291536Y0375219D02*
D03*
X0291536Y0370219D02*
D03*
X0291536Y0365219D02*
D03*
X0310434Y0375219D02*
D03*
X0310434Y0370219D02*
D03*
X0310434Y0360219D02*
D03*
D124*
X0292126Y0382860D02*
D03*
X0310237Y0382860D02*
D03*
D125*
X0326588Y0351334D02*
D03*
X0310379Y0350786D02*
D03*
X0327065Y0343174D02*
D03*
X0327065Y0335563D02*
D03*
X0310379Y0343174D02*
D03*
X0310379Y0335563D02*
D03*
X0327065Y0327951D02*
D03*
X0310379Y0327951D02*
D03*
X0319895Y0351334D02*
D03*
X0320372Y0343174D02*
D03*
X0320372Y0335563D02*
D03*
X0320372Y0327951D02*
D03*
X0303686Y0343174D02*
D03*
X0303686Y0350786D02*
D03*
X0319895Y0359311D02*
D03*
X0326588Y0359311D02*
D03*
X0326588Y0366398D02*
D03*
X0319895Y0366398D02*
D03*
X0319895Y0373484D02*
D03*
X0326588Y0373484D02*
D03*
X0326588Y0380571D02*
D03*
X0319895Y0380571D02*
D03*
X0303686Y0335563D02*
D03*
X0303686Y0327951D02*
D03*
X0326588Y0408071D02*
D03*
X0319895Y0408071D02*
D03*
D126*
X0413262Y0380658D02*
D03*
X0406962Y0380658D02*
D03*
X0405902Y0334217D02*
D03*
X0412202Y0334217D02*
D03*
D127*
X0372637Y0403600D02*
D03*
X0356102Y0403600D02*
D03*
D123*
X0337678Y0408071D02*
D03*
X0346930Y0404331D02*
D03*
X0319756Y0397822D02*
D03*
X0329008Y0394082D02*
D03*
D128*
X0301182Y0407270D02*
D03*
D129*
X0301182Y0382860D02*
D03*
D92*
X0370473Y0280315D02*
D03*
X0289567Y0274410D02*
D03*
D130*
X0407664Y0298057D02*
D03*
X0407664Y0315773D02*
D03*
X0099606Y0269685D02*
%LPD*%
G01*
G36*
G01*
X0135315Y0202077D02*
X0135315Y0203435D01*
G75*
G02*
X0135895Y0204016I0000581J0000000D01*
G01*
X0137057Y0204016D01*
G75*
G02*
X0137637Y0203435I0000000J-000581D01*
G01*
X0137637Y0202077D01*
G75*
G02*
X0137057Y0201496I-000581J0000000D01*
G01*
X0135895Y0201496D01*
G75*
G02*
X0135315Y0202077I0000000J0000581D01*
G01*
G37*
G36*
G01*
X0139134Y0202077D02*
X0139134Y0203435D01*
G75*
G02*
X0139714Y0204016I0000581J0000000D01*
G01*
X0140876Y0204016D01*
G75*
G02*
X0141456Y0203435I0000000J-000581D01*
G01*
X0141456Y0202077D01*
G75*
G02*
X0140876Y0201496I-000581J0000000D01*
G01*
X0139714Y0201496D01*
G75*
G02*
X0139134Y0202077I0000000J0000581D01*
G01*
G37*
G36*
G01*
X0119891Y0260650D02*
X0121250Y0260650D01*
G75*
G02*
X0121830Y0260069I0000000J-000581D01*
G01*
X0121830Y0258907D01*
G75*
G02*
X0121250Y0258327I-000581J0000000D01*
G01*
X0119891Y0258327D01*
G75*
G02*
X0119311Y0258907I0000000J0000581D01*
G01*
X0119311Y0260069D01*
G75*
G02*
X0119891Y0260650I0000581J0000000D01*
G01*
G37*
G36*
G01*
X0119891Y0256831D02*
X0121250Y0256831D01*
G75*
G02*
X0121830Y0256250I0000000J-000581D01*
G01*
X0121830Y0255089D01*
G75*
G02*
X0121250Y0254508I-000581J0000000D01*
G01*
X0119891Y0254508D01*
G75*
G02*
X0119311Y0255089I0000000J0000581D01*
G01*
X0119311Y0256250D01*
G75*
G02*
X0119891Y0256831I0000581J0000000D01*
G01*
G37*
G36*
G01*
X0135088Y0250123D02*
X0135088Y0248105D01*
G75*
G02*
X0134227Y0247244I-000861J0000000D01*
G01*
X0132505Y0247244D01*
G75*
G02*
X0131643Y0248105I0000000J0000861D01*
G01*
X0131643Y0250123D01*
G75*
G02*
X0132505Y0250984I0000861J0000000D01*
G01*
X0134227Y0250984D01*
G75*
G02*
X0135088Y0250123I0000000J-000861D01*
G01*
G37*
G36*
G01*
X0128887Y0250123D02*
X0128887Y0248105D01*
G75*
G02*
X0128026Y0247244I-000861J0000000D01*
G01*
X0126304Y0247244D01*
G75*
G02*
X0125443Y0248105I0000000J0000861D01*
G01*
X0125443Y0250123D01*
G75*
G02*
X0126304Y0250984I0000861J0000000D01*
G01*
X0128026Y0250984D01*
G75*
G02*
X0128887Y0250123I0000000J-000861D01*
G01*
G37*
G36*
G01*
X0110059Y0203632D02*
X0110059Y0202274D01*
G75*
G02*
X0109478Y0201693I-000581J0000000D01*
G01*
X0108317Y0201693D01*
G75*
G02*
X0107736Y0202274I0000000J0000581D01*
G01*
X0107736Y0203632D01*
G75*
G02*
X0108317Y0204213I0000581J0000000D01*
G01*
X0109478Y0204213D01*
G75*
G02*
X0110059Y0203632I0000000J-000581D01*
G01*
G37*
G36*
G01*
X0106240Y0203632D02*
X0106240Y0202274D01*
G75*
G02*
X0105659Y0201693I-000581J0000000D01*
G01*
X0104498Y0201693D01*
G75*
G02*
X0103917Y0202274I0000000J0000581D01*
G01*
X0103917Y0203632D01*
G75*
G02*
X0104498Y0204213I0000581J0000000D01*
G01*
X0105659Y0204213D01*
G75*
G02*
X0106240Y0203632I0000000J-000581D01*
G01*
G37*
D203*
X0125886Y0254823D03*
X0133366Y0254823D03*
X0129626Y0262697D03*
G36*
G01*
X0110059Y0207815D02*
X0110059Y0206457D01*
G75*
G02*
X0109478Y0205876I-000581J0000000D01*
G01*
X0108317Y0205876D01*
G75*
G02*
X0107736Y0206457I0000000J0000581D01*
G01*
X0107736Y0207815D01*
G75*
G02*
X0108317Y0208396I0000581J0000000D01*
G01*
X0109478Y0208396D01*
G75*
G02*
X0110059Y0207815I0000000J-000581D01*
G01*
G37*
G36*
G01*
X0106240Y0207815D02*
X0106240Y0206457D01*
G75*
G02*
X0105659Y0205876I-000581J0000000D01*
G01*
X0104498Y0205876D01*
G75*
G02*
X0103917Y0206457I0000000J0000581D01*
G01*
X0103917Y0207815D01*
G75*
G02*
X0104498Y0208396I0000581J0000000D01*
G01*
X0105659Y0208396D01*
G75*
G02*
X0106240Y0207815I0000000J-000581D01*
G01*
G37*
G36*
G01*
X0133976Y0203435D02*
X0133976Y0202077D01*
G75*
G02*
X0133395Y0201496I-000581J0000000D01*
G01*
X0132234Y0201496D01*
G75*
G02*
X0131653Y0202077I0000000J0000581D01*
G01*
X0131653Y0203435D01*
G75*
G02*
X0132234Y0204016I0000581J0000000D01*
G01*
X0133395Y0204016D01*
G75*
G02*
X0133976Y0203435I0000000J-000581D01*
G01*
G37*
G36*
G01*
X0130157Y0203435D02*
X0130157Y0202077D01*
G75*
G02*
X0129576Y0201496I-000581J0000000D01*
G01*
X0128415Y0201496D01*
G75*
G02*
X0127834Y0202077I0000000J0000581D01*
G01*
X0127834Y0203435D01*
G75*
G02*
X0128415Y0204016I0000581J0000000D01*
G01*
X0129576Y0204016D01*
G75*
G02*
X0130157Y0203435I0000000J-000581D01*
G01*
G37*
G36*
G01*
X0146240Y0207195D02*
X0146240Y0208553D01*
G75*
G02*
X0146821Y0209134I0000581J0000000D01*
G01*
X0147982Y0209134D01*
G75*
G02*
X0148563Y0208553I0000000J-000581D01*
G01*
X0148563Y0207195D01*
G75*
G02*
X0147982Y0206614I-000581J0000000D01*
G01*
X0146821Y0206614D01*
G75*
G02*
X0146240Y0207195I0000000J0000581D01*
G01*
G37*
G36*
G01*
X0150059Y0207195D02*
X0150059Y0208553D01*
G75*
G02*
X0150639Y0209134I0000581J0000000D01*
G01*
X0151801Y0209134D01*
G75*
G02*
X0152382Y0208553I0000000J-000581D01*
G01*
X0152382Y0207195D01*
G75*
G02*
X0151801Y0206614I-000581J0000000D01*
G01*
X0150639Y0206614D01*
G75*
G02*
X0150059Y0207195I0000000J0000581D01*
G01*
G37*
G36*
G01*
X0119468Y0202077D02*
X0119468Y0203435D01*
G75*
G02*
X0120049Y0204016I0000581J0000000D01*
G01*
X0121210Y0204016D01*
G75*
G02*
X0121791Y0203435I0000000J-000581D01*
G01*
X0121791Y0202077D01*
G75*
G02*
X0121210Y0201496I-000581J0000000D01*
G01*
X0120049Y0201496D01*
G75*
G02*
X0119468Y0202077I0000000J0000581D01*
G01*
G37*
G36*
G01*
X0123287Y0202077D02*
X0123287Y0203435D01*
G75*
G02*
X0123868Y0204016I0000581J0000000D01*
G01*
X0125029Y0204016D01*
G75*
G02*
X0125610Y0203435I0000000J-000581D01*
G01*
X0125610Y0202077D01*
G75*
G02*
X0125029Y0201496I-000581J0000000D01*
G01*
X0123868Y0201496D01*
G75*
G02*
X0123287Y0202077I0000000J0000581D01*
G01*
G37*
G36*
G01*
X0146240Y0241841D02*
X0146240Y0243199D01*
G75*
G02*
X0146821Y0243779I0000581J0000000D01*
G01*
X0147982Y0243779D01*
G75*
G02*
X0148563Y0243199I0000000J-000581D01*
G01*
X0148563Y0241841D01*
G75*
G02*
X0147982Y0241260I-000581J0000000D01*
G01*
X0146821Y0241260D01*
G75*
G02*
X0146240Y0241841I0000000J0000581D01*
G01*
G37*
G36*
G01*
X0150059Y0241841D02*
X0150059Y0243199D01*
G75*
G02*
X0150639Y0243779I0000581J0000000D01*
G01*
X0151801Y0243779D01*
G75*
G02*
X0152382Y0243199I0000000J-000581D01*
G01*
X0152382Y0241841D01*
G75*
G02*
X0151801Y0241260I-000581J0000000D01*
G01*
X0150639Y0241260D01*
G75*
G02*
X0150059Y0241841I0000000J0000581D01*
G01*
G37*
D292*
X0121358Y0180374D03*
X0121358Y0192382D03*
X0108169Y0180374D03*
X0108169Y0192382D03*
D288*
X0139567Y0177402D03*
X0139567Y0195354D03*
G36*
G01*
X0119793Y0252874D02*
X0121151Y0252874D01*
G75*
G02*
X0121732Y0252293I0000000J-000581D01*
G01*
X0121732Y0251132D01*
G75*
G02*
X0121151Y0250551I-000581J0000000D01*
G01*
X0119793Y0250551D01*
G75*
G02*
X0119212Y0251132I0000000J0000581D01*
G01*
X0119212Y0252293D01*
G75*
G02*
X0119793Y0252874I0000581J0000000D01*
G01*
G37*
G36*
G01*
X0119793Y0249055D02*
X0121151Y0249055D01*
G75*
G02*
X0121732Y0248474I0000000J-000581D01*
G01*
X0121732Y0247313D01*
G75*
G02*
X0121151Y0246732I-000581J0000000D01*
G01*
X0119793Y0246732D01*
G75*
G02*
X0119212Y0247313I0000000J0000581D01*
G01*
X0119212Y0248474D01*
G75*
G02*
X0119793Y0249055I0000581J0000000D01*
G01*
G37*
G36*
G01*
X0106127Y0214370D02*
X0104109Y0214370D01*
G75*
G02*
X0103248Y0215231I0000000J0000861D01*
G01*
X0103248Y0216954D01*
G75*
G02*
X0104109Y0217815I0000861J0000000D01*
G01*
X0106127Y0217815D01*
G75*
G02*
X0106988Y0216954I0000000J-000861D01*
G01*
X0106988Y0215231D01*
G75*
G02*
X0106127Y0214370I-000861J0000000D01*
G01*
G37*
G36*
G01*
X0106127Y0220571D02*
X0104109Y0220571D01*
G75*
G02*
X0103248Y0221432I0000000J0000861D01*
G01*
X0103248Y0223154D01*
G75*
G02*
X0104109Y0224016I0000861J0000000D01*
G01*
X0106127Y0224016D01*
G75*
G02*
X0106988Y0223154I0000000J-000861D01*
G01*
X0106988Y0221432D01*
G75*
G02*
X0106127Y0220571I-000861J0000000D01*
G01*
G37*
G36*
G01*
X0110059Y0211998D02*
X0110059Y0210640D01*
G75*
G02*
X0109478Y0210059I-000581J0000000D01*
G01*
X0108317Y0210059D01*
G75*
G02*
X0107736Y0210640I0000000J0000581D01*
G01*
X0107736Y0211998D01*
G75*
G02*
X0108317Y0212579I0000581J0000000D01*
G01*
X0109478Y0212579D01*
G75*
G02*
X0110059Y0211998I0000000J-000581D01*
G01*
G37*
G36*
G01*
X0106240Y0211998D02*
X0106240Y0210640D01*
G75*
G02*
X0105659Y0210059I-000581J0000000D01*
G01*
X0104498Y0210059D01*
G75*
G02*
X0103917Y0210640I0000000J0000581D01*
G01*
X0103917Y0211998D01*
G75*
G02*
X0104498Y0212579I0000581J0000000D01*
G01*
X0105659Y0212579D01*
G75*
G02*
X0106240Y0211998I0000000J-000581D01*
G01*
G37*
G36*
G01*
X0105512Y0167889D02*
X0105512Y0169906D01*
G75*
G02*
X0106373Y0170768I0000861J0000000D01*
G01*
X0108095Y0170768D01*
G75*
G02*
X0108956Y0169906I0000000J-000861D01*
G01*
X0108956Y0167889D01*
G75*
G02*
X0108095Y0167028I-000861J0000000D01*
G01*
X0106373Y0167028D01*
G75*
G02*
X0105512Y0167889I0000000J0000861D01*
G01*
G37*
G36*
G01*
X0111712Y0167889D02*
X0111712Y0169906D01*
G75*
G02*
X0112574Y0170768I0000861J0000000D01*
G01*
X0114296Y0170768D01*
G75*
G02*
X0115157Y0169906I0000000J-000861D01*
G01*
X0115157Y0167889D01*
G75*
G02*
X0114296Y0167028I-000861J0000000D01*
G01*
X0112574Y0167028D01*
G75*
G02*
X0111712Y0167889I0000000J0000861D01*
G01*
G37*
G36*
G01*
X0104109Y0235728D02*
X0106127Y0235728D01*
G75*
G02*
X0106988Y0234867I0000000J-000861D01*
G01*
X0106988Y0233145D01*
G75*
G02*
X0106127Y0232283I-000861J0000000D01*
G01*
X0104109Y0232283D01*
G75*
G02*
X0103248Y0233145I0000000J0000861D01*
G01*
X0103248Y0234867D01*
G75*
G02*
X0104109Y0235728I0000861J0000000D01*
G01*
G37*
G36*
G01*
X0104109Y0229528D02*
X0106127Y0229528D01*
G75*
G02*
X0106988Y0228666I0000000J-000861D01*
G01*
X0106988Y0226944D01*
G75*
G02*
X0106127Y0226083I-000861J0000000D01*
G01*
X0104109Y0226083D01*
G75*
G02*
X0103248Y0226944I0000000J0000861D01*
G01*
X0103248Y0228666D01*
G75*
G02*
X0104109Y0229528I0000861J0000000D01*
G01*
G37*
G36*
G01*
X0108287Y0240049D02*
X0108287Y0238691D01*
G75*
G02*
X0107706Y0238110I-000581J0000000D01*
G01*
X0106545Y0238110D01*
G75*
G02*
X0105964Y0238691I0000000J0000581D01*
G01*
X0105964Y0240049D01*
G75*
G02*
X0106545Y0240630I0000581J0000000D01*
G01*
X0107706Y0240630D01*
G75*
G02*
X0108287Y0240049I0000000J-000581D01*
G01*
G37*
G36*
G01*
X0104468Y0240049D02*
X0104468Y0238691D01*
G75*
G02*
X0103887Y0238110I-000581J0000000D01*
G01*
X0102726Y0238110D01*
G75*
G02*
X0102145Y0238691I0000000J0000581D01*
G01*
X0102145Y0240049D01*
G75*
G02*
X0102726Y0240630I0000581J0000000D01*
G01*
X0103887Y0240630D01*
G75*
G02*
X0104468Y0240049I0000000J-000581D01*
G01*
G37*
G36*
G01*
X0120964Y0205610D02*
X0119980Y0205610D01*
G75*
G02*
X0119488Y0206102I0000000J0000492D01*
G01*
X0119488Y0211024D01*
G75*
G02*
X0119980Y0211516I0000492J0000000D01*
G01*
X0120964Y0211516D01*
G75*
G02*
X0121456Y0211024I0000000J-000492D01*
G01*
X0121456Y0206102D01*
G75*
G02*
X0120964Y0205610I-000492J0000000D01*
G01*
G37*
G36*
G01*
X0124114Y0205610D02*
X0123130Y0205610D01*
G75*
G02*
X0122637Y0206102I0000000J0000492D01*
G01*
X0122637Y0211024D01*
G75*
G02*
X0123130Y0211516I0000492J0000000D01*
G01*
X0124114Y0211516D01*
G75*
G02*
X0124606Y0211024I0000000J-000492D01*
G01*
X0124606Y0206102D01*
G75*
G02*
X0124114Y0205610I-000492J0000000D01*
G01*
G37*
G36*
G01*
X0127263Y0205610D02*
X0126279Y0205610D01*
G75*
G02*
X0125787Y0206102I0000000J0000492D01*
G01*
X0125787Y0211024D01*
G75*
G02*
X0126279Y0211516I0000492J0000000D01*
G01*
X0127263Y0211516D01*
G75*
G02*
X0127756Y0211024I0000000J-000492D01*
G01*
X0127756Y0206102D01*
G75*
G02*
X0127263Y0205610I-000492J0000000D01*
G01*
G37*
G36*
G01*
X0130413Y0205610D02*
X0129429Y0205610D01*
G75*
G02*
X0128937Y0206102I0000000J0000492D01*
G01*
X0128937Y0211024D01*
G75*
G02*
X0129429Y0211516I0000492J0000000D01*
G01*
X0130413Y0211516D01*
G75*
G02*
X0130905Y0211024I0000000J-000492D01*
G01*
X0130905Y0206102D01*
G75*
G02*
X0130413Y0205610I-000492J0000000D01*
G01*
G37*
G36*
G01*
X0133563Y0205610D02*
X0132578Y0205610D01*
G75*
G02*
X0132086Y0206102I0000000J0000492D01*
G01*
X0132086Y0211024D01*
G75*
G02*
X0132578Y0211516I0000492J0000000D01*
G01*
X0133563Y0211516D01*
G75*
G02*
X0134055Y0211024I0000000J-000492D01*
G01*
X0134055Y0206102D01*
G75*
G02*
X0133563Y0205610I-000492J0000000D01*
G01*
G37*
G36*
G01*
X0136712Y0205610D02*
X0135728Y0205610D01*
G75*
G02*
X0135236Y0206102I0000000J0000492D01*
G01*
X0135236Y0211024D01*
G75*
G02*
X0135728Y0211516I0000492J0000000D01*
G01*
X0136712Y0211516D01*
G75*
G02*
X0137204Y0211024I0000000J-000492D01*
G01*
X0137204Y0206102D01*
G75*
G02*
X0136712Y0205610I-000492J0000000D01*
G01*
G37*
G36*
G01*
X0139862Y0205610D02*
X0138878Y0205610D01*
G75*
G02*
X0138386Y0206102I0000000J0000492D01*
G01*
X0138386Y0211024D01*
G75*
G02*
X0138878Y0211516I0000492J0000000D01*
G01*
X0139862Y0211516D01*
G75*
G02*
X0140354Y0211024I0000000J-000492D01*
G01*
X0140354Y0206102D01*
G75*
G02*
X0139862Y0205610I-000492J0000000D01*
G01*
G37*
G36*
G01*
X0143012Y0205610D02*
X0142027Y0205610D01*
G75*
G02*
X0141535Y0206102I0000000J0000492D01*
G01*
X0141535Y0211024D01*
G75*
G02*
X0142027Y0211516I0000492J0000000D01*
G01*
X0143012Y0211516D01*
G75*
G02*
X0143504Y0211024I0000000J-000492D01*
G01*
X0143504Y0206102D01*
G75*
G02*
X0143012Y0205610I-000492J0000000D01*
G01*
G37*
G36*
G01*
X0150393Y0212992D02*
X0145472Y0212992D01*
G75*
G02*
X0144980Y0213484I0000000J0000492D01*
G01*
X0144980Y0214468D01*
G75*
G02*
X0145472Y0214961I0000492J0000000D01*
G01*
X0150393Y0214961D01*
G75*
G02*
X0150886Y0214468I0000000J-000492D01*
G01*
X0150886Y0213484D01*
G75*
G02*
X0150393Y0212992I-000492J0000000D01*
G01*
G37*
G36*
G01*
X0150393Y0216142D02*
X0145472Y0216142D01*
G75*
G02*
X0144980Y0216634I0000000J0000492D01*
G01*
X0144980Y0217618D01*
G75*
G02*
X0145472Y0218110I0000492J0000000D01*
G01*
X0150393Y0218110D01*
G75*
G02*
X0150886Y0217618I0000000J-000492D01*
G01*
X0150886Y0216634D01*
G75*
G02*
X0150393Y0216142I-000492J0000000D01*
G01*
G37*
G36*
G01*
X0150393Y0219291D02*
X0145472Y0219291D01*
G75*
G02*
X0144980Y0219783I0000000J0000492D01*
G01*
X0144980Y0220768D01*
G75*
G02*
X0145472Y0221260I0000492J0000000D01*
G01*
X0150393Y0221260D01*
G75*
G02*
X0150886Y0220768I0000000J-000492D01*
G01*
X0150886Y0219783D01*
G75*
G02*
X0150393Y0219291I-000492J0000000D01*
G01*
G37*
G36*
G01*
X0150393Y0222441D02*
X0145472Y0222441D01*
G75*
G02*
X0144980Y0222933I0000000J0000492D01*
G01*
X0144980Y0223917D01*
G75*
G02*
X0145472Y0224409I0000492J0000000D01*
G01*
X0150393Y0224409D01*
G75*
G02*
X0150886Y0223917I0000000J-000492D01*
G01*
X0150886Y0222933D01*
G75*
G02*
X0150393Y0222441I-000492J0000000D01*
G01*
G37*
G36*
G01*
X0150393Y0225591D02*
X0145472Y0225591D01*
G75*
G02*
X0144980Y0226083I0000000J0000492D01*
G01*
X0144980Y0227067D01*
G75*
G02*
X0145472Y0227559I0000492J0000000D01*
G01*
X0150393Y0227559D01*
G75*
G02*
X0150886Y0227067I0000000J-000492D01*
G01*
X0150886Y0226083D01*
G75*
G02*
X0150393Y0225591I-000492J0000000D01*
G01*
G37*
G36*
G01*
X0150393Y0228740D02*
X0145472Y0228740D01*
G75*
G02*
X0144980Y0229232I0000000J0000492D01*
G01*
X0144980Y0230216D01*
G75*
G02*
X0145472Y0230709I0000492J0000000D01*
G01*
X0150393Y0230709D01*
G75*
G02*
X0150886Y0230216I0000000J-000492D01*
G01*
X0150886Y0229232D01*
G75*
G02*
X0150393Y0228740I-000492J0000000D01*
G01*
G37*
G36*
G01*
X0150393Y0231890D02*
X0145472Y0231890D01*
G75*
G02*
X0144980Y0232382I0000000J0000492D01*
G01*
X0144980Y0233366D01*
G75*
G02*
X0145472Y0233858I0000492J0000000D01*
G01*
X0150393Y0233858D01*
G75*
G02*
X0150886Y0233366I0000000J-000492D01*
G01*
X0150886Y0232382D01*
G75*
G02*
X0150393Y0231890I-000492J0000000D01*
G01*
G37*
G36*
G01*
X0150393Y0235039D02*
X0145472Y0235039D01*
G75*
G02*
X0144980Y0235531I0000000J0000492D01*
G01*
X0144980Y0236516D01*
G75*
G02*
X0145472Y0237008I0000492J0000000D01*
G01*
X0150393Y0237008D01*
G75*
G02*
X0150886Y0236516I0000000J-000492D01*
G01*
X0150886Y0235531D01*
G75*
G02*
X0150393Y0235039I-000492J0000000D01*
G01*
G37*
G36*
G01*
X0143012Y0238484D02*
X0142027Y0238484D01*
G75*
G02*
X0141535Y0238976I0000000J0000492D01*
G01*
X0141535Y0243898D01*
G75*
G02*
X0142027Y0244390I0000492J0000000D01*
G01*
X0143012Y0244390D01*
G75*
G02*
X0143504Y0243898I0000000J-000492D01*
G01*
X0143504Y0238976D01*
G75*
G02*
X0143012Y0238484I-000492J0000000D01*
G01*
G37*
G36*
G01*
X0139862Y0238484D02*
X0138878Y0238484D01*
G75*
G02*
X0138386Y0238976I0000000J0000492D01*
G01*
X0138386Y0243898D01*
G75*
G02*
X0138878Y0244390I0000492J0000000D01*
G01*
X0139862Y0244390D01*
G75*
G02*
X0140354Y0243898I0000000J-000492D01*
G01*
X0140354Y0238976D01*
G75*
G02*
X0139862Y0238484I-000492J0000000D01*
G01*
G37*
G36*
G01*
X0136712Y0238484D02*
X0135728Y0238484D01*
G75*
G02*
X0135236Y0238976I0000000J0000492D01*
G01*
X0135236Y0243898D01*
G75*
G02*
X0135728Y0244390I0000492J0000000D01*
G01*
X0136712Y0244390D01*
G75*
G02*
X0137204Y0243898I0000000J-000492D01*
G01*
X0137204Y0238976D01*
G75*
G02*
X0136712Y0238484I-000492J0000000D01*
G01*
G37*
G36*
G01*
X0133563Y0238484D02*
X0132578Y0238484D01*
G75*
G02*
X0132086Y0238976I0000000J0000492D01*
G01*
X0132086Y0243898D01*
G75*
G02*
X0132578Y0244390I0000492J0000000D01*
G01*
X0133563Y0244390D01*
G75*
G02*
X0134055Y0243898I0000000J-000492D01*
G01*
X0134055Y0238976D01*
G75*
G02*
X0133563Y0238484I-000492J0000000D01*
G01*
G37*
G36*
G01*
X0130413Y0238484D02*
X0129429Y0238484D01*
G75*
G02*
X0128937Y0238976I0000000J0000492D01*
G01*
X0128937Y0243898D01*
G75*
G02*
X0129429Y0244390I0000492J0000000D01*
G01*
X0130413Y0244390D01*
G75*
G02*
X0130905Y0243898I0000000J-000492D01*
G01*
X0130905Y0238976D01*
G75*
G02*
X0130413Y0238484I-000492J0000000D01*
G01*
G37*
G36*
G01*
X0127263Y0238484D02*
X0126279Y0238484D01*
G75*
G02*
X0125787Y0238976I0000000J0000492D01*
G01*
X0125787Y0243898D01*
G75*
G02*
X0126279Y0244390I0000492J0000000D01*
G01*
X0127263Y0244390D01*
G75*
G02*
X0127756Y0243898I0000000J-000492D01*
G01*
X0127756Y0238976D01*
G75*
G02*
X0127263Y0238484I-000492J0000000D01*
G01*
G37*
G36*
G01*
X0124114Y0238484D02*
X0123130Y0238484D01*
G75*
G02*
X0122637Y0238976I0000000J0000492D01*
G01*
X0122637Y0243898D01*
G75*
G02*
X0123130Y0244390I0000492J0000000D01*
G01*
X0124114Y0244390D01*
G75*
G02*
X0124606Y0243898I0000000J-000492D01*
G01*
X0124606Y0238976D01*
G75*
G02*
X0124114Y0238484I-000492J0000000D01*
G01*
G37*
G36*
G01*
X0120964Y0238484D02*
X0119980Y0238484D01*
G75*
G02*
X0119488Y0238976I0000000J0000492D01*
G01*
X0119488Y0243898D01*
G75*
G02*
X0119980Y0244390I0000492J0000000D01*
G01*
X0120964Y0244390D01*
G75*
G02*
X0121456Y0243898I0000000J-000492D01*
G01*
X0121456Y0238976D01*
G75*
G02*
X0120964Y0238484I-000492J0000000D01*
G01*
G37*
G36*
G01*
X0117519Y0235039D02*
X0112598Y0235039D01*
G75*
G02*
X0112106Y0235531I0000000J0000492D01*
G01*
X0112106Y0236516D01*
G75*
G02*
X0112598Y0237008I0000492J0000000D01*
G01*
X0117519Y0237008D01*
G75*
G02*
X0118012Y0236516I0000000J-000492D01*
G01*
X0118012Y0235531D01*
G75*
G02*
X0117519Y0235039I-000492J0000000D01*
G01*
G37*
G36*
G01*
X0117519Y0231890D02*
X0112598Y0231890D01*
G75*
G02*
X0112106Y0232382I0000000J0000492D01*
G01*
X0112106Y0233366D01*
G75*
G02*
X0112598Y0233858I0000492J0000000D01*
G01*
X0117519Y0233858D01*
G75*
G02*
X0118012Y0233366I0000000J-000492D01*
G01*
X0118012Y0232382D01*
G75*
G02*
X0117519Y0231890I-000492J0000000D01*
G01*
G37*
G36*
G01*
X0117519Y0228740D02*
X0112598Y0228740D01*
G75*
G02*
X0112106Y0229232I0000000J0000492D01*
G01*
X0112106Y0230216D01*
G75*
G02*
X0112598Y0230709I0000492J0000000D01*
G01*
X0117519Y0230709D01*
G75*
G02*
X0118012Y0230216I0000000J-000492D01*
G01*
X0118012Y0229232D01*
G75*
G02*
X0117519Y0228740I-000492J0000000D01*
G01*
G37*
G36*
G01*
X0117519Y0225591D02*
X0112598Y0225591D01*
G75*
G02*
X0112106Y0226083I0000000J0000492D01*
G01*
X0112106Y0227067D01*
G75*
G02*
X0112598Y0227559I0000492J0000000D01*
G01*
X0117519Y0227559D01*
G75*
G02*
X0118012Y0227067I0000000J-000492D01*
G01*
X0118012Y0226083D01*
G75*
G02*
X0117519Y0225591I-000492J0000000D01*
G01*
G37*
G36*
G01*
X0117519Y0222441D02*
X0112598Y0222441D01*
G75*
G02*
X0112106Y0222933I0000000J0000492D01*
G01*
X0112106Y0223917D01*
G75*
G02*
X0112598Y0224409I0000492J0000000D01*
G01*
X0117519Y0224409D01*
G75*
G02*
X0118012Y0223917I0000000J-000492D01*
G01*
X0118012Y0222933D01*
G75*
G02*
X0117519Y0222441I-000492J0000000D01*
G01*
G37*
G36*
G01*
X0117519Y0219291D02*
X0112598Y0219291D01*
G75*
G02*
X0112106Y0219783I0000000J0000492D01*
G01*
X0112106Y0220768D01*
G75*
G02*
X0112598Y0221260I0000492J0000000D01*
G01*
X0117519Y0221260D01*
G75*
G02*
X0118012Y0220768I0000000J-000492D01*
G01*
X0118012Y0219783D01*
G75*
G02*
X0117519Y0219291I-000492J0000000D01*
G01*
G37*
G36*
G01*
X0117519Y0216142D02*
X0112598Y0216142D01*
G75*
G02*
X0112106Y0216634I0000000J0000492D01*
G01*
X0112106Y0217618D01*
G75*
G02*
X0112598Y0218110I0000492J0000000D01*
G01*
X0117519Y0218110D01*
G75*
G02*
X0118012Y0217618I0000000J-000492D01*
G01*
X0118012Y0216634D01*
G75*
G02*
X0117519Y0216142I-000492J0000000D01*
G01*
G37*
G36*
G01*
X0117519Y0212992D02*
X0112598Y0212992D01*
G75*
G02*
X0112106Y0213484I0000000J0000492D01*
G01*
X0112106Y0214468D01*
G75*
G02*
X0112598Y0214961I0000492J0000000D01*
G01*
X0117519Y0214961D01*
G75*
G02*
X0118012Y0214468I0000000J-000492D01*
G01*
X0118012Y0213484D01*
G75*
G02*
X0117519Y0212992I-000492J0000000D01*
G01*
G37*
G36*
G01*
X0139065Y0247618D02*
X0137706Y0247618D01*
G75*
G02*
X0137126Y0248199I0000000J0000581D01*
G01*
X0137126Y0249360D01*
G75*
G02*
X0137706Y0249941I0000581J0000000D01*
G01*
X0139065Y0249941D01*
G75*
G02*
X0139645Y0249360I0000000J-000581D01*
G01*
X0139645Y0248199D01*
G75*
G02*
X0139065Y0247618I-000581J0000000D01*
G01*
G37*
G36*
G01*
X0139065Y0251437D02*
X0137706Y0251437D01*
G75*
G02*
X0137126Y0252018I0000000J0000581D01*
G01*
X0137126Y0253179D01*
G75*
G02*
X0137706Y0253760I0000581J0000000D01*
G01*
X0139065Y0253760D01*
G75*
G02*
X0139645Y0253179I0000000J-000581D01*
G01*
X0139645Y0252018D01*
G75*
G02*
X0139065Y0251437I-000581J0000000D01*
G01*
G37*
G36*
G01*
X0115669Y0240541D02*
X0115669Y0239183D01*
G75*
G02*
X0115088Y0238602I-000581J0000000D01*
G01*
X0113927Y0238602D01*
G75*
G02*
X0113346Y0239183I0000000J0000581D01*
G01*
X0113346Y0240541D01*
G75*
G02*
X0113927Y0241122I0000581J0000000D01*
G01*
X0115088Y0241122D01*
G75*
G02*
X0115669Y0240541I0000000J-000581D01*
G01*
G37*
G36*
G01*
X0111850Y0240541D02*
X0111850Y0239183D01*
G75*
G02*
X0111269Y0238602I-000581J0000000D01*
G01*
X0110108Y0238602D01*
G75*
G02*
X0109527Y0239183I0000000J0000581D01*
G01*
X0109527Y0240541D01*
G75*
G02*
X0110108Y0241122I0000581J0000000D01*
G01*
X0111269Y0241122D01*
G75*
G02*
X0111850Y0240541I0000000J-000581D01*
G01*
G37*
G36*
G01*
X0137706Y0264185D02*
X0139065Y0264185D01*
G75*
G02*
X0139645Y0263604I0000000J-000581D01*
G01*
X0139645Y0262443D01*
G75*
G02*
X0139065Y0261862I-000581J0000000D01*
G01*
X0137706Y0261862D01*
G75*
G02*
X0137126Y0262443I0000000J0000581D01*
G01*
X0137126Y0263604D01*
G75*
G02*
X0137706Y0264185I0000581J0000000D01*
G01*
G37*
G36*
G01*
X0137706Y0260366D02*
X0139065Y0260366D01*
G75*
G02*
X0139645Y0259785I0000000J-000581D01*
G01*
X0139645Y0258624D01*
G75*
G02*
X0139065Y0258043I-000581J0000000D01*
G01*
X0137706Y0258043D01*
G75*
G02*
X0137126Y0258624I0000000J0000581D01*
G01*
X0137126Y0259785D01*
G75*
G02*
X0137706Y0260366I0000581J0000000D01*
G01*
G37*
D199*
X0143307Y0262697D03*
X0143307Y0255216D03*
X0151181Y0258957D03*
G36*
G01*
X0117539Y0203632D02*
X0117539Y0202274D01*
G75*
G02*
X0116958Y0201693I-000581J0000000D01*
G01*
X0115797Y0201693D01*
G75*
G02*
X0115216Y0202274I0000000J0000581D01*
G01*
X0115216Y0203632D01*
G75*
G02*
X0115797Y0204213I0000581J0000000D01*
G01*
X0116958Y0204213D01*
G75*
G02*
X0117539Y0203632I0000000J-000581D01*
G01*
G37*
G36*
G01*
X0113720Y0203632D02*
X0113720Y0202274D01*
G75*
G02*
X0113139Y0201693I-000581J0000000D01*
G01*
X0111978Y0201693D01*
G75*
G02*
X0111397Y0202274I0000000J0000581D01*
G01*
X0111397Y0203632D01*
G75*
G02*
X0111978Y0204213I0000581J0000000D01*
G01*
X0113139Y0204213D01*
G75*
G02*
X0113720Y0203632I0000000J-000581D01*
G01*
G37*
G36*
G01*
X0152578Y0249759D02*
X0152578Y0247741D01*
G75*
G02*
X0151717Y0246880I-000861J0000000D01*
G01*
X0149995Y0246880D01*
G75*
G02*
X0149134Y0247741I0000000J0000861D01*
G01*
X0149134Y0249759D01*
G75*
G02*
X0149995Y0250620I0000861J0000000D01*
G01*
X0151717Y0250620D01*
G75*
G02*
X0152578Y0249759I0000000J-000861D01*
G01*
G37*
G36*
G01*
X0146378Y0249759D02*
X0146378Y0247741D01*
G75*
G02*
X0145516Y0246880I-000861J0000000D01*
G01*
X0143794Y0246880D01*
G75*
G02*
X0142933Y0247741I0000000J0000861D01*
G01*
X0142933Y0249759D01*
G75*
G02*
X0143794Y0250620I0000861J0000000D01*
G01*
X0145516Y0250620D01*
G75*
G02*
X0146378Y0249759I0000000J-000861D01*
G01*
G37*
X0251280Y0161860D02*
%LPD*%
G01*
D295*
X0238288Y0195718D03*
X0240256Y0195718D03*
X0242225Y0195718D03*
X0244193Y0195718D03*
X0246162Y0195718D03*
X0246162Y0213041D03*
X0244193Y0213041D03*
X0242225Y0213041D03*
X0240256Y0213041D03*
X0238288Y0213041D03*
G36*
G01*
X0225099Y0203238D02*
X0225099Y0206309D01*
G75*
G02*
X0225374Y0206584I0000276J0000000D01*
G01*
X0227579Y0206584D01*
G75*
G02*
X0227855Y0206309I0000000J-000276D01*
G01*
X0227855Y0203238D01*
G75*
G02*
X0227579Y0202962I-000276J0000000D01*
G01*
X0225374Y0202962D01*
G75*
G02*
X0225099Y0203238I0000000J0000276D01*
G01*
G37*
G36*
G01*
X0231398Y0203238D02*
X0231398Y0206309D01*
G75*
G02*
X0231674Y0206584I0000276J0000000D01*
G01*
X0233878Y0206584D01*
G75*
G02*
X0234154Y0206309I0000000J-000276D01*
G01*
X0234154Y0203238D01*
G75*
G02*
X0233878Y0202962I-000276J0000000D01*
G01*
X0231674Y0202962D01*
G75*
G02*
X0231398Y0203238I0000000J0000276D01*
G01*
G37*
G36*
G01*
X0218445Y0217569D02*
X0221516Y0217569D01*
G75*
G02*
X0221792Y0217293I0000000J-000276D01*
G01*
X0221792Y0215088D01*
G75*
G02*
X0221516Y0214813I-000276J0000000D01*
G01*
X0218445Y0214813D01*
G75*
G02*
X0218170Y0215088I0000000J0000276D01*
G01*
X0218170Y0217293D01*
G75*
G02*
X0218445Y0217569I0000276J0000000D01*
G01*
G37*
G36*
G01*
X0218445Y0211269D02*
X0221516Y0211269D01*
G75*
G02*
X0221792Y0210994I0000000J-000276D01*
G01*
X0221792Y0208789D01*
G75*
G02*
X0221516Y0208514I-000276J0000000D01*
G01*
X0218445Y0208514D01*
G75*
G02*
X0218170Y0208789I0000000J0000276D01*
G01*
X0218170Y0210994D01*
G75*
G02*
X0218445Y0211269I0000276J0000000D01*
G01*
G37*
G36*
G01*
X0225099Y0197332D02*
X0225099Y0200403D01*
G75*
G02*
X0225374Y0200679I0000276J0000000D01*
G01*
X0227579Y0200679D01*
G75*
G02*
X0227855Y0200403I0000000J-000276D01*
G01*
X0227855Y0197332D01*
G75*
G02*
X0227579Y0197057I-000276J0000000D01*
G01*
X0225374Y0197057D01*
G75*
G02*
X0225099Y0197332I0000000J0000276D01*
G01*
G37*
G36*
G01*
X0231398Y0197332D02*
X0231398Y0200403D01*
G75*
G02*
X0231674Y0200679I0000276J0000000D01*
G01*
X0233878Y0200679D01*
G75*
G02*
X0234154Y0200403I0000000J-000276D01*
G01*
X0234154Y0197332D01*
G75*
G02*
X0233878Y0197057I-000276J0000000D01*
G01*
X0231674Y0197057D01*
G75*
G02*
X0231398Y0197332I0000000J0000276D01*
G01*
G37*
G36*
G01*
X0218775Y0205659D02*
X0220793Y0205659D01*
G75*
G02*
X0221654Y0204798I0000000J-000861D01*
G01*
X0221654Y0203076D01*
G75*
G02*
X0220793Y0202214I-000861J0000000D01*
G01*
X0218775Y0202214D01*
G75*
G02*
X0217914Y0203076I0000000J0000861D01*
G01*
X0217914Y0204798D01*
G75*
G02*
X0218775Y0205659I0000861J0000000D01*
G01*
G37*
G36*
G01*
X0218775Y0199458D02*
X0220793Y0199458D01*
G75*
G02*
X0221654Y0198597I0000000J-000861D01*
G01*
X0221654Y0196875D01*
G75*
G02*
X0220793Y0196014I-000861J0000000D01*
G01*
X0218775Y0196014D01*
G75*
G02*
X0217914Y0196875I0000000J0000861D01*
G01*
X0217914Y0198597D01*
G75*
G02*
X0218775Y0199458I0000861J0000000D01*
G01*
G37*
G36*
G01*
X0225737Y0211604D02*
X0228414Y0211604D01*
G75*
G02*
X0228749Y0211269I0000000J-000335D01*
G01*
X0228749Y0208592D01*
G75*
G02*
X0228414Y0208258I-000335J0000000D01*
G01*
X0225737Y0208258D01*
G75*
G02*
X0225402Y0208592I0000000J0000335D01*
G01*
X0225402Y0211269D01*
G75*
G02*
X0225737Y0211604I0000335J0000000D01*
G01*
G37*
G36*
G01*
X0225737Y0217825D02*
X0228414Y0217825D01*
G75*
G02*
X0228749Y0217490I0000000J-000335D01*
G01*
X0228749Y0214813D01*
G75*
G02*
X0228414Y0214478I-000335J0000000D01*
G01*
X0225737Y0214478D01*
G75*
G02*
X0225402Y0214813I0000000J0000335D01*
G01*
X0225402Y0217490D01*
G75*
G02*
X0225737Y0217825I0000335J0000000D01*
G01*
G37*
G36*
G01*
X0231044Y0217825D02*
X0233721Y0217825D01*
G75*
G02*
X0234056Y0217490I0000000J-000335D01*
G01*
X0234056Y0214813D01*
G75*
G02*
X0233721Y0214478I-000335J0000000D01*
G01*
X0231044Y0214478D01*
G75*
G02*
X0230709Y0214813I0000000J0000335D01*
G01*
X0230709Y0217490D01*
G75*
G02*
X0231044Y0217825I0000335J0000000D01*
G01*
G37*
G36*
G01*
X0231044Y0211604D02*
X0233721Y0211604D01*
G75*
G02*
X0234056Y0211269I0000000J-000335D01*
G01*
X0234056Y0208592D01*
G75*
G02*
X0233721Y0208258I-000335J0000000D01*
G01*
X0231044Y0208258D01*
G75*
G02*
X0230709Y0208592I0000000J0000335D01*
G01*
X0230709Y0211269D01*
G75*
G02*
X0231044Y0211604I0000335J0000000D01*
G01*
G37*
G36*
G01*
X0224843Y0192411D02*
X0224843Y0195088D01*
G75*
G02*
X0225178Y0195423I0000335J0000000D01*
G01*
X0227855Y0195423D01*
G75*
G02*
X0228189Y0195088I0000000J-000335D01*
G01*
X0228189Y0192411D01*
G75*
G02*
X0227855Y0192077I-000335J0000000D01*
G01*
X0225178Y0192077D01*
G75*
G02*
X0224843Y0192411I0000000J0000335D01*
G01*
G37*
G36*
G01*
X0231063Y0192411D02*
X0231063Y0195088D01*
G75*
G02*
X0231398Y0195423I0000335J0000000D01*
G01*
X0234075Y0195423D01*
G75*
G02*
X0234410Y0195088I0000000J-000335D01*
G01*
X0234410Y0192411D01*
G75*
G02*
X0234075Y0192077I-000335J0000000D01*
G01*
X0231398Y0192077D01*
G75*
G02*
X0231063Y0192411I0000000J0000335D01*
G01*
G37*
X0291339Y0162598D02*
%LPD*%
G01*
G36*
G01*
X0273721Y0180039D02*
X0272264Y0180039D01*
G75*
G02*
X0271733Y0180570I0000000J0000531D01*
G01*
X0271733Y0181633D01*
G75*
G02*
X0272264Y0182165I0000531J0000000D01*
G01*
X0273721Y0182165D01*
G75*
G02*
X0274252Y0181633I0000000J-000531D01*
G01*
X0274252Y0180570D01*
G75*
G02*
X0273721Y0180039I-000531J0000000D01*
G01*
G37*
G36*
G01*
X0273721Y0176023D02*
X0272264Y0176023D01*
G75*
G02*
X0271733Y0176555I0000000J0000531D01*
G01*
X0271733Y0177618D01*
G75*
G02*
X0272264Y0178149I0000531J0000000D01*
G01*
X0273721Y0178149D01*
G75*
G02*
X0274252Y0177618I0000000J-000531D01*
G01*
X0274252Y0176555D01*
G75*
G02*
X0273721Y0176023I-000531J0000000D01*
G01*
G37*
G36*
G01*
X0289410Y0203287D02*
X0289410Y0201830D01*
G75*
G02*
X0288878Y0201299I-000531J0000000D01*
G01*
X0287815Y0201299D01*
G75*
G02*
X0287284Y0201830I0000000J0000531D01*
G01*
X0287284Y0203287D01*
G75*
G02*
X0287815Y0203818I0000531J0000000D01*
G01*
X0288878Y0203818D01*
G75*
G02*
X0289410Y0203287I0000000J-000531D01*
G01*
G37*
G36*
G01*
X0285394Y0203287D02*
X0285394Y0201830D01*
G75*
G02*
X0284863Y0201299I-000531J0000000D01*
G01*
X0283800Y0201299D01*
G75*
G02*
X0283268Y0201830I0000000J0000531D01*
G01*
X0283268Y0203287D01*
G75*
G02*
X0283800Y0203818I0000531J0000000D01*
G01*
X0284863Y0203818D01*
G75*
G02*
X0285394Y0203287I0000000J-000531D01*
G01*
G37*
G36*
G01*
X0257067Y0192315D02*
X0255886Y0192315D01*
G75*
G02*
X0255296Y0192905I0000000J0000591D01*
G01*
X0255296Y0199401D01*
G75*
G02*
X0255886Y0199992I0000591J0000000D01*
G01*
X0257067Y0199992D01*
G75*
G02*
X0257658Y0199401I0000000J-000591D01*
G01*
X0257658Y0192905D01*
G75*
G02*
X0257067Y0192315I-000591J0000000D01*
G01*
G37*
G36*
G01*
X0262067Y0192315D02*
X0260886Y0192315D01*
G75*
G02*
X0260296Y0192905I0000000J0000591D01*
G01*
X0260296Y0199401D01*
G75*
G02*
X0260886Y0199992I0000591J0000000D01*
G01*
X0262067Y0199992D01*
G75*
G02*
X0262658Y0199401I0000000J-000591D01*
G01*
X0262658Y0192905D01*
G75*
G02*
X0262067Y0192315I-000591J0000000D01*
G01*
G37*
G36*
G01*
X0267067Y0192315D02*
X0265886Y0192315D01*
G75*
G02*
X0265296Y0192905I0000000J0000591D01*
G01*
X0265296Y0199401D01*
G75*
G02*
X0265886Y0199992I0000591J0000000D01*
G01*
X0267067Y0199992D01*
G75*
G02*
X0267658Y0199401I0000000J-000591D01*
G01*
X0267658Y0192905D01*
G75*
G02*
X0267067Y0192315I-000591J0000000D01*
G01*
G37*
G36*
G01*
X0272067Y0192315D02*
X0270886Y0192315D01*
G75*
G02*
X0270296Y0192905I0000000J0000591D01*
G01*
X0270296Y0199401D01*
G75*
G02*
X0270886Y0199992I0000591J0000000D01*
G01*
X0272067Y0199992D01*
G75*
G02*
X0272658Y0199401I0000000J-000591D01*
G01*
X0272658Y0192905D01*
G75*
G02*
X0272067Y0192315I-000591J0000000D01*
G01*
G37*
G36*
G01*
X0272067Y0211803D02*
X0270886Y0211803D01*
G75*
G02*
X0270296Y0212393I0000000J0000591D01*
G01*
X0270296Y0218889D01*
G75*
G02*
X0270886Y0219480I0000591J0000000D01*
G01*
X0272067Y0219480D01*
G75*
G02*
X0272658Y0218889I0000000J-000591D01*
G01*
X0272658Y0212393D01*
G75*
G02*
X0272067Y0211803I-000591J0000000D01*
G01*
G37*
G36*
G01*
X0267067Y0211803D02*
X0265886Y0211803D01*
G75*
G02*
X0265296Y0212393I0000000J0000591D01*
G01*
X0265296Y0218889D01*
G75*
G02*
X0265886Y0219480I0000591J0000000D01*
G01*
X0267067Y0219480D01*
G75*
G02*
X0267658Y0218889I0000000J-000591D01*
G01*
X0267658Y0212393D01*
G75*
G02*
X0267067Y0211803I-000591J0000000D01*
G01*
G37*
G36*
G01*
X0262067Y0211803D02*
X0260886Y0211803D01*
G75*
G02*
X0260296Y0212393I0000000J0000591D01*
G01*
X0260296Y0218889D01*
G75*
G02*
X0260886Y0219480I0000591J0000000D01*
G01*
X0262067Y0219480D01*
G75*
G02*
X0262658Y0218889I0000000J-000591D01*
G01*
X0262658Y0212393D01*
G75*
G02*
X0262067Y0211803I-000591J0000000D01*
G01*
G37*
G36*
G01*
X0257067Y0211803D02*
X0255886Y0211803D01*
G75*
G02*
X0255296Y0212393I0000000J0000591D01*
G01*
X0255296Y0218889D01*
G75*
G02*
X0255886Y0219480I0000591J0000000D01*
G01*
X0257067Y0219480D01*
G75*
G02*
X0257658Y0218889I0000000J-000591D01*
G01*
X0257658Y0212393D01*
G75*
G02*
X0257067Y0211803I-000591J0000000D01*
G01*
G37*
D227*
X0256339Y0177795D03*
X0258898Y0177795D03*
X0261457Y0177795D03*
X0261457Y0185275D03*
X0258898Y0185275D03*
X0256339Y0185275D03*
G36*
G01*
X0275427Y0193956D02*
X0275427Y0195413D01*
G75*
G02*
X0275959Y0195944I0000531J0000000D01*
G01*
X0277022Y0195944D01*
G75*
G02*
X0277553Y0195413I0000000J-000531D01*
G01*
X0277553Y0193956D01*
G75*
G02*
X0277022Y0193425I-000531J0000000D01*
G01*
X0275959Y0193425D01*
G75*
G02*
X0275427Y0193956I0000000J0000531D01*
G01*
G37*
G36*
G01*
X0279443Y0193956D02*
X0279443Y0195413D01*
G75*
G02*
X0279974Y0195944I0000531J0000000D01*
G01*
X0281037Y0195944D01*
G75*
G02*
X0281569Y0195413I0000000J-000531D01*
G01*
X0281569Y0193956D01*
G75*
G02*
X0281037Y0193425I-000531J0000000D01*
G01*
X0279974Y0193425D01*
G75*
G02*
X0279443Y0193956I0000000J0000531D01*
G01*
G37*
G36*
G01*
X0281490Y0199291D02*
X0281490Y0197952D01*
G75*
G02*
X0280939Y0197401I-000551J0000000D01*
G01*
X0279837Y0197401D01*
G75*
G02*
X0279285Y0197952I0000000J0000551D01*
G01*
X0279285Y0199291D01*
G75*
G02*
X0279837Y0199842I0000551J0000000D01*
G01*
X0280939Y0199842D01*
G75*
G02*
X0281490Y0199291I0000000J-000551D01*
G01*
G37*
G36*
G01*
X0277711Y0199291D02*
X0277711Y0197952D01*
G75*
G02*
X0277159Y0197401I-000551J0000000D01*
G01*
X0276057Y0197401D01*
G75*
G02*
X0275506Y0197952I0000000J0000551D01*
G01*
X0275506Y0199291D01*
G75*
G02*
X0276057Y0199842I0000551J0000000D01*
G01*
X0277159Y0199842D01*
G75*
G02*
X0277711Y0199291I0000000J-000551D01*
G01*
G37*
G36*
G01*
X0289410Y0195413D02*
X0289410Y0193956D01*
G75*
G02*
X0288878Y0193425I-000531J0000000D01*
G01*
X0287815Y0193425D01*
G75*
G02*
X0287284Y0193956I0000000J0000531D01*
G01*
X0287284Y0195413D01*
G75*
G02*
X0287815Y0195944I0000531J0000000D01*
G01*
X0288878Y0195944D01*
G75*
G02*
X0289410Y0195413I0000000J-000531D01*
G01*
G37*
G36*
G01*
X0285394Y0195413D02*
X0285394Y0193956D01*
G75*
G02*
X0284863Y0193425I-000531J0000000D01*
G01*
X0283800Y0193425D01*
G75*
G02*
X0283268Y0193956I0000000J0000531D01*
G01*
X0283268Y0195413D01*
G75*
G02*
X0283800Y0195944I0000531J0000000D01*
G01*
X0284863Y0195944D01*
G75*
G02*
X0285394Y0195413I0000000J-000531D01*
G01*
G37*
G36*
G01*
X0283347Y0207007D02*
X0283347Y0208346D01*
G75*
G02*
X0283898Y0208897I0000551J0000000D01*
G01*
X0285000Y0208897D01*
G75*
G02*
X0285552Y0208346I0000000J-000551D01*
G01*
X0285552Y0207007D01*
G75*
G02*
X0285000Y0206456I-000551J0000000D01*
G01*
X0283898Y0206456D01*
G75*
G02*
X0283347Y0207007I0000000J0000551D01*
G01*
G37*
G36*
G01*
X0287126Y0207007D02*
X0287126Y0208346D01*
G75*
G02*
X0287678Y0208897I0000551J0000000D01*
G01*
X0288780Y0208897D01*
G75*
G02*
X0289331Y0208346I0000000J-000551D01*
G01*
X0289331Y0207007D01*
G75*
G02*
X0288780Y0206456I-000551J0000000D01*
G01*
X0287678Y0206456D01*
G75*
G02*
X0287126Y0207007I0000000J0000551D01*
G01*
G37*
G36*
G01*
X0279489Y0183878D02*
X0279489Y0185216D01*
G75*
G02*
X0280040Y0185767I0000551J0000000D01*
G01*
X0281142Y0185767D01*
G75*
G02*
X0281693Y0185216I0000000J-000551D01*
G01*
X0281693Y0183878D01*
G75*
G02*
X0281142Y0183326I-000551J0000000D01*
G01*
X0280040Y0183326D01*
G75*
G02*
X0279489Y0183878I0000000J0000551D01*
G01*
G37*
G36*
G01*
X0283268Y0183878D02*
X0283268Y0185216D01*
G75*
G02*
X0283819Y0185767I0000551J0000000D01*
G01*
X0284922Y0185767D01*
G75*
G02*
X0285473Y0185216I0000000J-000551D01*
G01*
X0285473Y0183878D01*
G75*
G02*
X0284922Y0183326I-000551J0000000D01*
G01*
X0283819Y0183326D01*
G75*
G02*
X0283268Y0183878I0000000J0000551D01*
G01*
G37*
G36*
G01*
X0276241Y0189645D02*
X0277697Y0189645D01*
G75*
G02*
X0278229Y0189114I0000000J-000531D01*
G01*
X0278229Y0188051D01*
G75*
G02*
X0277697Y0187519I-000531J0000000D01*
G01*
X0276241Y0187519D01*
G75*
G02*
X0275709Y0188051I0000000J0000531D01*
G01*
X0275709Y0189114D01*
G75*
G02*
X0276241Y0189645I0000531J0000000D01*
G01*
G37*
G36*
G01*
X0276241Y0185629D02*
X0277697Y0185629D01*
G75*
G02*
X0278229Y0185098I0000000J-000531D01*
G01*
X0278229Y0184035D01*
G75*
G02*
X0277697Y0183504I-000531J0000000D01*
G01*
X0276241Y0183504D01*
G75*
G02*
X0275709Y0184035I0000000J0000531D01*
G01*
X0275709Y0185098D01*
G75*
G02*
X0276241Y0185629I0000531J0000000D01*
G01*
G37*
G36*
G01*
X0275512Y0220472D02*
X0276851Y0220472D01*
G75*
G02*
X0277402Y0219921I0000000J-000551D01*
G01*
X0277402Y0218818D01*
G75*
G02*
X0276851Y0218267I-000551J0000000D01*
G01*
X0275512Y0218267D01*
G75*
G02*
X0274961Y0218818I0000000J0000551D01*
G01*
X0274961Y0219921D01*
G75*
G02*
X0275512Y0220472I0000551J0000000D01*
G01*
G37*
G36*
G01*
X0275512Y0216692D02*
X0276851Y0216692D01*
G75*
G02*
X0277402Y0216141I0000000J-000551D01*
G01*
X0277402Y0215039D01*
G75*
G02*
X0276851Y0214488I-000551J0000000D01*
G01*
X0275512Y0214488D01*
G75*
G02*
X0274961Y0215039I0000000J0000551D01*
G01*
X0274961Y0216141D01*
G75*
G02*
X0275512Y0216692I0000551J0000000D01*
G01*
G37*
G36*
G01*
X0269749Y0171417D02*
X0267732Y0171417D01*
G75*
G02*
X0266870Y0172278I0000000J0000861D01*
G01*
X0266870Y0174001D01*
G75*
G02*
X0267732Y0174862I0000861J0000000D01*
G01*
X0269749Y0174862D01*
G75*
G02*
X0270611Y0174001I0000000J-000861D01*
G01*
X0270611Y0172278D01*
G75*
G02*
X0269749Y0171417I-000861J0000000D01*
G01*
G37*
G36*
G01*
X0269749Y0165216D02*
X0267732Y0165216D01*
G75*
G02*
X0266870Y0166077I0000000J0000861D01*
G01*
X0266870Y0167800D01*
G75*
G02*
X0267732Y0168661I0000861J0000000D01*
G01*
X0269749Y0168661D01*
G75*
G02*
X0270611Y0167800I0000000J-000861D01*
G01*
X0270611Y0166077D01*
G75*
G02*
X0269749Y0165216I-000861J0000000D01*
G01*
G37*
G36*
G01*
X0264528Y0190196D02*
X0264528Y0188858D01*
G75*
G02*
X0263977Y0188307I-000551J0000000D01*
G01*
X0262874Y0188307D01*
G75*
G02*
X0262323Y0188858I0000000J0000551D01*
G01*
X0262323Y0190196D01*
G75*
G02*
X0262874Y0190748I0000551J0000000D01*
G01*
X0263977Y0190748D01*
G75*
G02*
X0264528Y0190196I0000000J-000551D01*
G01*
G37*
G36*
G01*
X0260748Y0190196D02*
X0260748Y0188858D01*
G75*
G02*
X0260197Y0188307I-000551J0000000D01*
G01*
X0259095Y0188307D01*
G75*
G02*
X0258544Y0188858I0000000J0000551D01*
G01*
X0258544Y0190196D01*
G75*
G02*
X0259095Y0190748I0000551J0000000D01*
G01*
X0260197Y0190748D01*
G75*
G02*
X0260748Y0190196I0000000J-000551D01*
G01*
G37*
G36*
G01*
X0261674Y0172559D02*
X0263130Y0172559D01*
G75*
G02*
X0263662Y0172027I0000000J-000531D01*
G01*
X0263662Y0170964D01*
G75*
G02*
X0263130Y0170433I-000531J0000000D01*
G01*
X0261674Y0170433D01*
G75*
G02*
X0261142Y0170964I0000000J0000531D01*
G01*
X0261142Y0172027D01*
G75*
G02*
X0261674Y0172559I0000531J0000000D01*
G01*
G37*
G36*
G01*
X0261674Y0168543D02*
X0263130Y0168543D01*
G75*
G02*
X0263662Y0168011I0000000J-000531D01*
G01*
X0263662Y0166948D01*
G75*
G02*
X0263130Y0166417I-000531J0000000D01*
G01*
X0261674Y0166417D01*
G75*
G02*
X0261142Y0166948I0000000J0000531D01*
G01*
X0261142Y0168011D01*
G75*
G02*
X0261674Y0168543I0000531J0000000D01*
G01*
G37*
G36*
G01*
X0273760Y0183504D02*
X0272304Y0183504D01*
G75*
G02*
X0271772Y0184035I0000000J0000531D01*
G01*
X0271772Y0185098D01*
G75*
G02*
X0272304Y0185629I0000531J0000000D01*
G01*
X0273760Y0185629D01*
G75*
G02*
X0274292Y0185098I0000000J-000531D01*
G01*
X0274292Y0184035D01*
G75*
G02*
X0273760Y0183504I-000531J0000000D01*
G01*
G37*
G36*
G01*
X0273760Y0187519D02*
X0272304Y0187519D01*
G75*
G02*
X0271772Y0188051I0000000J0000531D01*
G01*
X0271772Y0189114D01*
G75*
G02*
X0272304Y0189645I0000531J0000000D01*
G01*
X0273760Y0189645D01*
G75*
G02*
X0274292Y0189114I0000000J-000531D01*
G01*
X0274292Y0188051D01*
G75*
G02*
X0273760Y0187519I-000531J0000000D01*
G01*
G37*
G36*
G01*
X0279551Y0188641D02*
X0279551Y0190098D01*
G75*
G02*
X0280082Y0190629I0000531J0000000D01*
G01*
X0281145Y0190629D01*
G75*
G02*
X0281677Y0190098I0000000J-000531D01*
G01*
X0281677Y0188641D01*
G75*
G02*
X0281145Y0188110I-000531J0000000D01*
G01*
X0280082Y0188110D01*
G75*
G02*
X0279551Y0188641I0000000J0000531D01*
G01*
G37*
G36*
G01*
X0283567Y0188641D02*
X0283567Y0190098D01*
G75*
G02*
X0284098Y0190629I0000531J0000000D01*
G01*
X0285161Y0190629D01*
G75*
G02*
X0285692Y0190098I0000000J-000531D01*
G01*
X0285692Y0188641D01*
G75*
G02*
X0285161Y0188110I-000531J0000000D01*
G01*
X0284098Y0188110D01*
G75*
G02*
X0283567Y0188641I0000000J0000531D01*
G01*
G37*
G36*
G01*
X0272953Y0171299D02*
X0274292Y0171299D01*
G75*
G02*
X0274843Y0170748I0000000J-000551D01*
G01*
X0274843Y0169645D01*
G75*
G02*
X0274292Y0169094I-000551J0000000D01*
G01*
X0272953Y0169094D01*
G75*
G02*
X0272402Y0169645I0000000J0000551D01*
G01*
X0272402Y0170748D01*
G75*
G02*
X0272953Y0171299I0000551J0000000D01*
G01*
G37*
G36*
G01*
X0272953Y0167519D02*
X0274292Y0167519D01*
G75*
G02*
X0274843Y0166968I0000000J-000551D01*
G01*
X0274843Y0165866D01*
G75*
G02*
X0274292Y0165315I-000551J0000000D01*
G01*
X0272953Y0165315D01*
G75*
G02*
X0272402Y0165866I0000000J0000551D01*
G01*
X0272402Y0166968D01*
G75*
G02*
X0272953Y0167519I0000551J0000000D01*
G01*
G37*
G36*
G01*
X0281490Y0208346D02*
X0281490Y0207007D01*
G75*
G02*
X0280939Y0206456I-000551J0000000D01*
G01*
X0279837Y0206456D01*
G75*
G02*
X0279285Y0207007I0000000J0000551D01*
G01*
X0279285Y0208346D01*
G75*
G02*
X0279837Y0208897I0000551J0000000D01*
G01*
X0280939Y0208897D01*
G75*
G02*
X0281490Y0208346I0000000J-000551D01*
G01*
G37*
G36*
G01*
X0277711Y0208346D02*
X0277711Y0207007D01*
G75*
G02*
X0277159Y0206456I-000551J0000000D01*
G01*
X0276057Y0206456D01*
G75*
G02*
X0275506Y0207007I0000000J0000551D01*
G01*
X0275506Y0208346D01*
G75*
G02*
X0276057Y0208897I0000551J0000000D01*
G01*
X0277159Y0208897D01*
G75*
G02*
X0277711Y0208346I0000000J-000551D01*
G01*
G37*
G36*
G01*
X0289016Y0183326D02*
X0287559Y0183326D01*
G75*
G02*
X0287028Y0183858I0000000J0000531D01*
G01*
X0287028Y0184921D01*
G75*
G02*
X0287559Y0185452I0000531J0000000D01*
G01*
X0289016Y0185452D01*
G75*
G02*
X0289548Y0184921I0000000J-000531D01*
G01*
X0289548Y0183858D01*
G75*
G02*
X0289016Y0183326I-000531J0000000D01*
G01*
G37*
G36*
G01*
X0289016Y0187342D02*
X0287559Y0187342D01*
G75*
G02*
X0287028Y0187874I0000000J0000531D01*
G01*
X0287028Y0188937D01*
G75*
G02*
X0287559Y0189468I0000531J0000000D01*
G01*
X0289016Y0189468D01*
G75*
G02*
X0289548Y0188937I0000000J-000531D01*
G01*
X0289548Y0187874D01*
G75*
G02*
X0289016Y0187342I-000531J0000000D01*
G01*
G37*
D226*
X0287796Y0212585D03*
X0287796Y0215144D03*
X0287796Y0217703D03*
X0280315Y0217703D03*
X0280315Y0215144D03*
X0280315Y0212585D03*
G36*
G01*
X0279010Y0166636D02*
X0277829Y0166636D01*
G75*
G02*
X0277238Y0167227I0000000J0000591D01*
G01*
X0277238Y0171262D01*
G75*
G02*
X0277829Y0171853I0000591J0000000D01*
G01*
X0279010Y0171853D01*
G75*
G02*
X0279600Y0171262I0000000J-000591D01*
G01*
X0279600Y0167227D01*
G75*
G02*
X0279010Y0166636I-000591J0000000D01*
G01*
G37*
G36*
G01*
X0282750Y0166636D02*
X0281569Y0166636D01*
G75*
G02*
X0280978Y0167227I0000000J0000591D01*
G01*
X0280978Y0171262D01*
G75*
G02*
X0281569Y0171853I0000591J0000000D01*
G01*
X0282750Y0171853D01*
G75*
G02*
X0283341Y0171262I0000000J-000591D01*
G01*
X0283341Y0167227D01*
G75*
G02*
X0282750Y0166636I-000591J0000000D01*
G01*
G37*
G36*
G01*
X0286490Y0166636D02*
X0285309Y0166636D01*
G75*
G02*
X0284719Y0167227I0000000J0000591D01*
G01*
X0284719Y0171262D01*
G75*
G02*
X0285309Y0171853I0000591J0000000D01*
G01*
X0286490Y0171853D01*
G75*
G02*
X0287081Y0171262I0000000J-000591D01*
G01*
X0287081Y0167227D01*
G75*
G02*
X0286490Y0166636I-000591J0000000D01*
G01*
G37*
G36*
G01*
X0286490Y0175593D02*
X0285309Y0175593D01*
G75*
G02*
X0284719Y0176183I0000000J0000591D01*
G01*
X0284719Y0180219D01*
G75*
G02*
X0285309Y0180809I0000591J0000000D01*
G01*
X0286490Y0180809D01*
G75*
G02*
X0287081Y0180219I0000000J-000591D01*
G01*
X0287081Y0176183D01*
G75*
G02*
X0286490Y0175593I-000591J0000000D01*
G01*
G37*
G36*
G01*
X0282750Y0175593D02*
X0281569Y0175593D01*
G75*
G02*
X0280978Y0176183I0000000J0000591D01*
G01*
X0280978Y0180219D01*
G75*
G02*
X0281569Y0180809I0000591J0000000D01*
G01*
X0282750Y0180809D01*
G75*
G02*
X0283341Y0180219I0000000J-000591D01*
G01*
X0283341Y0176183D01*
G75*
G02*
X0282750Y0175593I-000591J0000000D01*
G01*
G37*
G36*
G01*
X0279010Y0175593D02*
X0277829Y0175593D01*
G75*
G02*
X0277238Y0176183I0000000J0000591D01*
G01*
X0277238Y0180219D01*
G75*
G02*
X0277829Y0180809I0000591J0000000D01*
G01*
X0279010Y0180809D01*
G75*
G02*
X0279600Y0180219I0000000J-000591D01*
G01*
X0279600Y0176183D01*
G75*
G02*
X0279010Y0175593I-000591J0000000D01*
G01*
G37*
G36*
G01*
X0267126Y0177755D02*
X0265788Y0177755D01*
G75*
G02*
X0265237Y0178307I0000000J0000551D01*
G01*
X0265237Y0179409D01*
G75*
G02*
X0265788Y0179960I0000551J0000000D01*
G01*
X0267126Y0179960D01*
G75*
G02*
X0267678Y0179409I0000000J-000551D01*
G01*
X0267678Y0178307D01*
G75*
G02*
X0267126Y0177755I-000551J0000000D01*
G01*
G37*
G36*
G01*
X0267126Y0181535D02*
X0265788Y0181535D01*
G75*
G02*
X0265237Y0182086I0000000J0000551D01*
G01*
X0265237Y0183189D01*
G75*
G02*
X0265788Y0183740I0000551J0000000D01*
G01*
X0267126Y0183740D01*
G75*
G02*
X0267678Y0183189I0000000J-000551D01*
G01*
X0267678Y0182086D01*
G75*
G02*
X0267126Y0181535I-000551J0000000D01*
G01*
G37*
G36*
G01*
X0289331Y0199291D02*
X0289331Y0197952D01*
G75*
G02*
X0288780Y0197401I-000551J0000000D01*
G01*
X0287678Y0197401D01*
G75*
G02*
X0287126Y0197952I0000000J0000551D01*
G01*
X0287126Y0199291D01*
G75*
G02*
X0287678Y0199842I0000551J0000000D01*
G01*
X0288780Y0199842D01*
G75*
G02*
X0289331Y0199291I0000000J-000551D01*
G01*
G37*
G36*
G01*
X0285552Y0199291D02*
X0285552Y0197952D01*
G75*
G02*
X0285000Y0197401I-000551J0000000D01*
G01*
X0283898Y0197401D01*
G75*
G02*
X0283347Y0197952I0000000J0000551D01*
G01*
X0283347Y0199291D01*
G75*
G02*
X0283898Y0199842I0000551J0000000D01*
G01*
X0285000Y0199842D01*
G75*
G02*
X0285552Y0199291I0000000J-000551D01*
G01*
G37*
G36*
G01*
X0281569Y0203287D02*
X0281569Y0201830D01*
G75*
G02*
X0281037Y0201299I-000531J0000000D01*
G01*
X0279974Y0201299D01*
G75*
G02*
X0279443Y0201830I0000000J0000531D01*
G01*
X0279443Y0203287D01*
G75*
G02*
X0279974Y0203818I0000531J0000000D01*
G01*
X0281037Y0203818D01*
G75*
G02*
X0281569Y0203287I0000000J-000531D01*
G01*
G37*
G36*
G01*
X0277553Y0203287D02*
X0277553Y0201830D01*
G75*
G02*
X0277022Y0201299I-000531J0000000D01*
G01*
X0275959Y0201299D01*
G75*
G02*
X0275427Y0201830I0000000J0000531D01*
G01*
X0275427Y0203287D01*
G75*
G02*
X0275959Y0203818I0000531J0000000D01*
G01*
X0277022Y0203818D01*
G75*
G02*
X0277553Y0203287I0000000J-000531D01*
G01*
G37*
X0172047Y0162402D02*
G01*
G75*
D228*
X0186752Y0172626D02*
D03*
X0186752Y0165146D02*
D03*
X0178287Y0165146D02*
D03*
X0178287Y0168886D02*
D03*
X0202401Y0172626D02*
D03*
X0202401Y0165146D02*
D03*
X0193937Y0165146D02*
D03*
X0193937Y0168886D02*
D03*
D228*
X0178287Y0172626D02*
D03*
X0193937Y0172626D02*
D03*
X0504823Y0349902D02*
G01*
G75*
D341*
X0459744Y0325535D02*
D03*
X0459744Y0343252D02*
D03*
D342*
X0463071Y0301083D02*
D03*
X0490433Y0301083D02*
D03*
D343*
X0474311Y0324311D02*
D03*
X0490453Y0324311D02*
D03*
D344*
X0472540Y0342422D02*
D03*
X0488288Y0342422D02*
D03*
D345*
X0495479Y0280644D02*
D03*
X0486227Y0284384D02*
D03*
D345*
X0486227Y0276904D02*
D03*
D346*
X0463392Y0270965D02*
D03*
D346*
X0463392Y0274705D02*
D03*
X0463392Y0278445D02*
D03*
X0454928Y0278445D02*
D03*
X0454928Y0270965D02*
D03*
D347*
X0451076Y0284966D02*
D03*
X0464068Y0284966D02*
D03*
D348*
X0469362Y0284678D02*
D03*
X0480780Y0284678D02*
D03*
D283*
X0450177Y0317225D02*
D03*
X0456398Y0317225D02*
D03*
X0460768Y0317225D02*
D03*
X0466988Y0317225D02*
D03*
D349*
X0500854Y0340114D02*
D03*
X0500854Y0335980D02*
D03*
X0450299Y0298240D02*
D03*
X0450299Y0294106D02*
D03*
X0450299Y0302953D02*
D03*
X0450299Y0307087D02*
D03*
X0449407Y0322602D02*
D03*
X0449407Y0326736D02*
D03*
D350*
X0468510Y0278395D02*
D03*
X0468510Y0274458D02*
D03*
X0482185Y0277493D02*
D03*
X0473524Y0277493D02*
D03*
X0482185Y0271096D02*
D03*
X0473524Y0271096D02*
D03*
D351*
X0490558Y0270965D02*
D03*
X0487014Y0270965D02*
D03*
D352*
X0454557Y0294303D02*
D03*
X0454557Y0297847D02*
D03*
X0454557Y0303347D02*
D03*
X0454557Y0306890D02*
D03*
X0449407Y0334903D02*
D03*
X0449407Y0331359D02*
D03*
M02*
